solid Created by Gmsh
facet normal 0.994258 -0.107011 -8.43489e-17
  outer loop
    vertex 0.01301787309652129 0.04662194632250925 0.02
    vertex 0.01333149016505387 0.04953581796766606 0.008435601452049576
    vertex 0.01427234137065162 0.05827743290313656 0.02
  endloop
endfacet
facet normal 0.994258 -0.107011 6.24807e-17
  outer loop
    vertex 0.009254468274130323 0.01165548658062731 0
    vertex 0.008940851205597743 0.008741614935470501 0.01156439854795042
    vertex 0.008 0 0
  endloop
endfacet
facet normal 0.994258 -0.107011 0
  outer loop
    vertex 0.008 0 0.01000000000000003
    vertex 0.008940851205597743 0.008741614935470501 0.01156439854795042
    vertex 0.008 0 0.02
  endloop
endfacet
facet normal 0.994258 -0.107011 0
  outer loop
    vertex 0.01427234137065162 0.05827743290313656 0.009999999999999972
    vertex 0.01333149016505387 0.04953581796766606 0.008435601452049576
    vertex 0.01427234137065162 0.05827743290313656 0
  endloop
endfacet
facet normal 0.994258 -0.107011 5.1393e-17
  outer loop
    vertex 0.01427234137065162 0.05827743290313656 0
    vertex 0.01333149016505387 0.04953581796766606 0.008435601452049576
    vertex 0.01301787309652129 0.04662194632250921 0
  endloop
endfacet
facet normal 0.994258 -0.107011 -1.54179e-16
  outer loop
    vertex 0.008 0 0.02
    vertex 0.008940851205597743 0.008741614935470501 0.01156439854795042
    vertex 0.009254468274130328 0.01165548658062735 0.02
  endloop
endfacet
facet normal 0.994258 -0.107011 0
  outer loop
    vertex 0.01050893654826065 0.02331097316125463 0
    vertex 0.009933971922617583 0.01796887514513379 0.01026073309132507
    vertex 0.009254468274130323 0.01165548658062731 0
  endloop
endfacet
facet normal 0.994258 -0.107011 1.01157e-16
  outer loop
    vertex 0.01176340482239097 0.03496645974188193 0
    vertex 0.01113617068532581 0.02913871645156828 0.01
    vertex 0.01050893654826065 0.02331097316125463 0
  endloop
endfacet
facet normal 0.994258 -0.107011 -5.05786e-17
  outer loop
    vertex 0.01050893654826065 0.02331097316125463 0.02
    vertex 0.01113617068532581 0.02913871645156828 0.01
    vertex 0.01176340482239097 0.03496645974188194 0.02
  endloop
endfacet
facet normal 0.994258 -0.107011 2.07731e-16
  outer loop
    vertex 0.01301787309652129 0.04662194632250921 0
    vertex 0.01233836944803403 0.04030855775800278 0.009739266908674929
    vertex 0.01176340482239097 0.03496645974188193 0
  endloop
endfacet
facet normal 0.994258 -0.107011 -3.82182e-18
  outer loop
    vertex 0.01050893654826065 0.02331097316125463 0.02
    vertex 0.009933971922617583 0.01796887514513379 0.01026073309132507
    vertex 0.01113617068532581 0.02913871645156828 0.01
  endloop
endfacet
facet normal 0.994258 -0.107011 -1.8309e-16
  outer loop
    vertex 0.01176340482239097 0.03496645974188194 0.02
    vertex 0.01233836944803403 0.04030855775800278 0.009739266908674929
    vertex 0.01301787309652129 0.04662194632250925 0.02
  endloop
endfacet
facet normal 0.994258 -0.107011 1.91091e-16
  outer loop
    vertex 0.01176340482239097 0.03496645974188193 0
    vertex 0.01233836944803403 0.04030855775800278 0.009739266908674929
    vertex 0.01113617068532581 0.02913871645156828 0.01
  endloop
endfacet
facet normal 0.994258 -0.107011 -1.48379e-17
  outer loop
    vertex 0.009254468274130328 0.01165548658062735 0.02
    vertex 0.009933971922617583 0.01796887514513379 0.01026073309132507
    vertex 0.01050893654826065 0.02331097316125463 0.02
  endloop
endfacet
facet normal 0.994258 -0.107011 3.71924e-17
  outer loop
    vertex 0.01113617068532581 0.02913871645156828 0.01
    vertex 0.009933971922617583 0.01796887514513379 0.01026073309132507
    vertex 0.01050893654826065 0.02331097316125463 0
  endloop
endfacet
facet normal 0.994258 -0.107011 -1.11577e-16
  outer loop
    vertex 0.01113617068532581 0.02913871645156828 0.01
    vertex 0.01233836944803403 0.04030855775800278 0.009739266908674929
    vertex 0.01176340482239097 0.03496645974188194 0.02
  endloop
endfacet
facet normal 0.994258 -0.107011 4.09181e-17
  outer loop
    vertex 0.009933971922617583 0.01796887514513379 0.01026073309132507
    vertex 0.008940851205597743 0.008741614935470501 0.01156439854795042
    vertex 0.009254468274130323 0.01165548658062731 0
  endloop
endfacet
facet normal 0.994258 -0.107011 -1.22754e-16
  outer loop
    vertex 0.01233836944803403 0.04030855775800278 0.009739266908674929
    vertex 0.01333149016505387 0.04953581796766606 0.008435601452049576
    vertex 0.01301787309652129 0.04662194632250925 0.02
  endloop
endfacet
facet normal 0.994258 -0.107011 -1.28952e-16
  outer loop
    vertex 0.009254468274130328 0.01165548658062735 0.02
    vertex 0.008940851205597743 0.008741614935470501 0.01156439854795042
    vertex 0.009933971922617583 0.01796887514513379 0.01026073309132507
  endloop
endfacet
facet normal 0.994258 -0.107011 8.2529e-17
  outer loop
    vertex 0.01301787309652129 0.04662194632250921 0
    vertex 0.01333149016505387 0.04953581796766606 0.008435601452049576
    vertex 0.01233836944803403 0.04030855775800278 0.009739266908674929
  endloop
endfacet
facet normal 0.994258 -0.107011 0
  outer loop
    vertex 0.008 0 0
    vertex 0.008940851205597743 0.008741614935470501 0.01156439854795042
    vertex 0.008 0 0.01000000000000003
  endloop
endfacet
facet normal 0.994258 -0.107011 0
  outer loop
    vertex 0.01427234137065162 0.05827743290313656 0.02
    vertex 0.01333149016505387 0.04953581796766606 0.008435601452049576
    vertex 0.01427234137065162 0.05827743290313656 0.009999999999999972
  endloop
endfacet
endsolid Created by Gmsh
