solid Created by Gmsh
facet normal -0.583837 0.811871 -5.16302e-16
  outer loop
    vertex 0.02590035359739351 0.04725241116312581 0.02
    vertex 0.03528722435564467 0.05400275561500093 0.02
    vertex 0.03059378897651909 0.05062758338906337 0.01432426114969104
  endloop
endfacet
facet normal -0.583837 0.811871 1.43224e-15
  outer loop
    vertex 0.03528722435564467 0.05400275561500093 0
    vertex 0.02590035359739351 0.04725241116312581 0
    vertex 0.03059378897651908 0.05062758338906335 0.005728862973760943
  endloop
endfacet
facet normal -0.583837 0.811871 0
  outer loop
    vertex 0.03528722435564467 0.05400275561500093 0.02
    vertex 0.03528722435564467 0.05400275561500093 0.009999999999999972
    vertex 0.03059378897651909 0.05062758338906337 0.01432426114969104
  endloop
endfacet
facet normal -0.583837 0.811871 0
  outer loop
    vertex 0.02590035359739351 0.04725241116312581 0
    vertex 0.02590035359739351 0.04725241116312581 0.01000000000000003
    vertex 0.03059378897651908 0.05062758338906335 0.005728862973760943
  endloop
endfacet
facet normal -0.583837 0.811871 -6.13667e-16
  outer loop
    vertex 0.03528722435564467 0.05400275561500093 0.009999999999999972
    vertex 0.03059378897651908 0.05062758338906335 0.005728862973760943
    vertex 0.03059378897651909 0.05062758338906337 0.01432426114969104
  endloop
endfacet
facet normal -0.583837 0.811871 -6.03833e-16
  outer loop
    vertex 0.03059378897651908 0.05062758338906335 0.005728862973760943
    vertex 0.02590035359739351 0.04725241116312581 0.01000000000000003
    vertex 0.03059378897651909 0.05062758338906337 0.01432426114969104
  endloop
endfacet
facet normal -0.583837 0.811871 0
  outer loop
    vertex 0.03528722435564467 0.05400275561500093 0.009999999999999972
    vertex 0.03528722435564467 0.05400275561500093 0
    vertex 0.03059378897651908 0.05062758338906335 0.005728862973760943
  endloop
endfacet
facet normal -0.583837 0.811871 0
  outer loop
    vertex 0.02590035359739351 0.04725241116312581 0.01000000000000003
    vertex 0.02590035359739351 0.04725241116312581 0.02
    vertex 0.03059378897651909 0.05062758338906337 0.01432426114969104
  endloop
endfacet
facet normal -0.936919 -0.349548 -1.2697e-15
  outer loop
    vertex 0.02841878676726348 0.0405020667112507 0.01000000000000003
    vertex 0.02590035359739351 0.04725241116312581 0.009999999999999972
    vertex 0.0271595701823285 0.04387723893718826 0.005000000000000001
  endloop
endfacet
facet normal -0.936919 -0.349548 1.31672e-15
  outer loop
    vertex 0.02590035359739351 0.04725241116312581 0.009999999999999972
    vertex 0.02841878676726348 0.0405020667112507 0.01000000000000003
    vertex 0.0271595701823285 0.04387723893718826 0.015
  endloop
endfacet
facet normal -0.936919 -0.349548 -1.2697e-15
  outer loop
    vertex 0.02841878676726348 0.0405020667112507 0.02
    vertex 0.02590035359739351 0.04725241116312581 0.02
    vertex 0.0271595701823285 0.04387723893718826 0.015
  endloop
endfacet
facet normal -0.936919 -0.349548 1.31672e-15
  outer loop
    vertex 0.02590035359739351 0.04725241116312581 0
    vertex 0.02841878676726348 0.0405020667112507 0
    vertex 0.0271595701823285 0.04387723893718826 0.005000000000000001
  endloop
endfacet
facet normal -0.936919 -0.349548 -0
  outer loop
    vertex 0.02590035359739351 0.04725241116312581 0.009999999999999972
    vertex 0.02590035359739351 0.04725241116312581 0
    vertex 0.0271595701823285 0.04387723893718826 0.005000000000000001
  endloop
endfacet
facet normal -0.936919 -0.349548 -0
  outer loop
    vertex 0.02590035359739351 0.04725241116312581 0.02
    vertex 0.02590035359739351 0.04725241116312581 0.009999999999999972
    vertex 0.0271595701823285 0.04387723893718826 0.015
  endloop
endfacet
facet normal -0.936919 -0.349548 0
  outer loop
    vertex 0.02841878676726348 0.0405020667112507 0
    vertex 0.02841878676726348 0.0405020667112507 0.01000000000000003
    vertex 0.0271595701823285 0.04387723893718826 0.005000000000000001
  endloop
endfacet
facet normal -0.936919 -0.349548 0
  outer loop
    vertex 0.02841878676726348 0.0405020667112507 0.01000000000000003
    vertex 0.02841878676726348 0.0405020667112507 0.02
    vertex 0.0271595701823285 0.04387723893718826 0.015
  endloop
endfacet
facet normal -0.834718 0.550677 0
  outer loop
    vertex 0.02841878676726348 0.0405020667112507 0.02
    vertex 0.02841878676726348 0.0405020667112507 0.009999999999999972
    vertex 0.02619213240150389 0.03712689448531314 0.015
  endloop
endfacet
facet normal -0.834718 0.550677 0
  outer loop
    vertex 0.02396547803574429 0.03375172225937558 0
    vertex 0.02396547803574429 0.03375172225937558 0.01000000000000003
    vertex 0.02619213240150389 0.03712689448531314 0.004999999999999999
  endloop
endfacet
facet normal -0.834718 0.550677 0
  outer loop
    vertex 0.02396547803574429 0.03375172225937558 0.01000000000000003
    vertex 0.02396547803574429 0.03375172225937558 0.02
    vertex 0.02619213240150389 0.03712689448531314 0.015
  endloop
endfacet
facet normal -0.834718 0.550677 0
  outer loop
    vertex 0.02841878676726348 0.0405020667112507 0.009999999999999972
    vertex 0.02841878676726348 0.0405020667112507 0
    vertex 0.02619213240150389 0.03712689448531314 0.004999999999999999
  endloop
endfacet
facet normal -0.834718 0.550677 -4.18962e-16
  outer loop
    vertex 0.02396547803574429 0.03375172225937558 0.01000000000000003
    vertex 0.02841878676726348 0.0405020667112507 0.009999999999999972
    vertex 0.02619213240150389 0.03712689448531314 0.004999999999999999
  endloop
endfacet
facet normal -0.834718 0.550677 3.77066e-16
  outer loop
    vertex 0.02841878676726348 0.0405020667112507 0.009999999999999972
    vertex 0.02396547803574429 0.03375172225937558 0.01000000000000003
    vertex 0.02619213240150389 0.03712689448531314 0.015
  endloop
endfacet
facet normal -0.834718 0.550677 3.77066e-16
  outer loop
    vertex 0.02841878676726348 0.0405020667112507 0
    vertex 0.02396547803574429 0.03375172225937558 0
    vertex 0.02619213240150389 0.03712689448531314 0.004999999999999999
  endloop
endfacet
facet normal -0.834718 0.550677 -4.18962e-16
  outer loop
    vertex 0.02396547803574429 0.03375172225937558 0.02
    vertex 0.02841878676726348 0.0405020667112507 0.02
    vertex 0.02619213240150389 0.03712689448531314 0.015
  endloop
endfacet
facet normal -0.953297 -0.302034 -9.56957e-17
  outer loop
    vertex 0.02396547803574429 0.03375172225937558 0.009999999999999972
    vertex 0.0261041995706818 0.02700137780750047 0.01000000000000003
    vertex 0.02503483880321305 0.03037655003343802 0.015
  endloop
endfacet
facet normal -0.953297 -0.302034 1.1962e-16
  outer loop
    vertex 0.0261041995706818 0.02700137780750047 0.01000000000000003
    vertex 0.02396547803574429 0.03375172225937558 0.009999999999999972
    vertex 0.02503483880321305 0.03037655003343802 0.005
  endloop
endfacet
facet normal -0.953297 -0.302034 1.1962e-16
  outer loop
    vertex 0.0261041995706818 0.02700137780750047 0.02
    vertex 0.02396547803574429 0.03375172225937558 0.02
    vertex 0.02503483880321305 0.03037655003343802 0.015
  endloop
endfacet
facet normal -0.953297 -0.302034 -9.56957e-17
  outer loop
    vertex 0.02396547803574429 0.03375172225937558 0
    vertex 0.0261041995706818 0.02700137780750047 0
    vertex 0.02503483880321305 0.03037655003343802 0.005
  endloop
endfacet
facet normal -0.953297 -0.302034 -0
  outer loop
    vertex 0.02396547803574429 0.03375172225937558 0.009999999999999972
    vertex 0.02396547803574429 0.03375172225937558 0
    vertex 0.02503483880321305 0.03037655003343802 0.005
  endloop
endfacet
facet normal -0.953297 -0.302034 -0
  outer loop
    vertex 0.02396547803574429 0.03375172225937558 0.02
    vertex 0.02396547803574429 0.03375172225937558 0.009999999999999972
    vertex 0.02503483880321305 0.03037655003343802 0.015
  endloop
endfacet
facet normal -0.953297 -0.302034 0
  outer loop
    vertex 0.0261041995706818 0.02700137780750047 0
    vertex 0.0261041995706818 0.02700137780750047 0.01000000000000003
    vertex 0.02503483880321305 0.03037655003343802 0.005
  endloop
endfacet
facet normal -0.953297 -0.302034 0
  outer loop
    vertex 0.0261041995706818 0.02700137780750047 0.01000000000000003
    vertex 0.0261041995706818 0.02700137780750047 0.02
    vertex 0.02503483880321305 0.03037655003343802 0.015
  endloop
endfacet
facet normal -0.966649 -0.256103 -7.76289e-16
  outer loop
    vertex 0.0261041995706818 0.02700137780750047 0
    vertex 0.02789263101924732 0.02025103335562535 0
    vertex 0.02699841529496456 0.02362620558156291 0.004999999999999999
  endloop
endfacet
facet normal -0.966649 -0.256103 -7.76289e-16
  outer loop
    vertex 0.0261041995706818 0.02700137780750047 0.009999999999999972
    vertex 0.02789263101924732 0.02025103335562535 0.01000000000000003
    vertex 0.02699841529496456 0.02362620558156291 0.015
  endloop
endfacet
facet normal -0.966649 -0.256103 7.76289e-16
  outer loop
    vertex 0.02789263101924732 0.02025103335562535 0.02
    vertex 0.0261041995706818 0.02700137780750047 0.02
    vertex 0.02699841529496456 0.02362620558156291 0.015
  endloop
endfacet
facet normal -0.966649 -0.256103 7.76289e-16
  outer loop
    vertex 0.02789263101924732 0.02025103335562535 0.01000000000000003
    vertex 0.0261041995706818 0.02700137780750047 0.009999999999999972
    vertex 0.02699841529496456 0.02362620558156291 0.004999999999999999
  endloop
endfacet
facet normal -0.966649 -0.256103 -0
  outer loop
    vertex 0.0261041995706818 0.02700137780750047 0.009999999999999972
    vertex 0.0261041995706818 0.02700137780750047 0
    vertex 0.02699841529496456 0.02362620558156291 0.004999999999999999
  endloop
endfacet
facet normal -0.966649 -0.256103 -0
  outer loop
    vertex 0.0261041995706818 0.02700137780750047 0.02
    vertex 0.0261041995706818 0.02700137780750047 0.009999999999999972
    vertex 0.02699841529496456 0.02362620558156291 0.015
  endloop
endfacet
facet normal -0.966649 -0.256103 0
  outer loop
    vertex 0.02789263101924732 0.02025103335562535 0
    vertex 0.02789263101924732 0.02025103335562535 0.01000000000000003
    vertex 0.02699841529496456 0.02362620558156291 0.004999999999999999
  endloop
endfacet
facet normal -0.966649 -0.256103 0
  outer loop
    vertex 0.02789263101924732 0.02025103335562535 0.01000000000000003
    vertex 0.02789263101924732 0.02025103335562535 0.02
    vertex 0.02699841529496456 0.02362620558156291 0.015
  endloop
endfacet
facet normal -0.925914 0.377735 -6.50628e-16
  outer loop
    vertex 0.02513876647413463 0.01350068890375023 0.01000000000000003
    vertex 0.02789263101924732 0.02025103335562535 0.009999999999999972
    vertex 0.02651569874669098 0.01687586112968779 0.005
  endloop
endfacet
facet normal -0.925914 0.377735 6.04155e-16
  outer loop
    vertex 0.02789263101924732 0.02025103335562535 0.009999999999999972
    vertex 0.02513876647413463 0.01350068890375023 0.01000000000000003
    vertex 0.02651569874669098 0.01687586112968779 0.015
  endloop
endfacet
facet normal -0.925914 0.377735 6.04155e-16
  outer loop
    vertex 0.02789263101924732 0.02025103335562535 0
    vertex 0.02513876647413463 0.01350068890375023 0
    vertex 0.02651569874669098 0.01687586112968779 0.005
  endloop
endfacet
facet normal -0.925914 0.377735 -6.50628e-16
  outer loop
    vertex 0.02513876647413463 0.01350068890375023 0.02
    vertex 0.02789263101924732 0.02025103335562535 0.02
    vertex 0.02651569874669098 0.01687586112968779 0.015
  endloop
endfacet
facet normal -0.925914 0.377735 0
  outer loop
    vertex 0.02789263101924732 0.02025103335562535 0.009999999999999972
    vertex 0.02789263101924732 0.02025103335562535 0
    vertex 0.02651569874669098 0.01687586112968779 0.005
  endloop
endfacet
facet normal -0.925914 0.377735 0
  outer loop
    vertex 0.02789263101924732 0.02025103335562535 0.02
    vertex 0.02789263101924732 0.02025103335562535 0.009999999999999972
    vertex 0.02651569874669098 0.01687586112968779 0.015
  endloop
endfacet
facet normal -0.925914 0.377735 0
  outer loop
    vertex 0.02513876647413463 0.01350068890375023 0
    vertex 0.02513876647413463 0.01350068890375023 0.01000000000000003
    vertex 0.02651569874669098 0.01687586112968779 0.005
  endloop
endfacet
facet normal -0.925914 0.377735 0
  outer loop
    vertex 0.02513876647413463 0.01350068890375023 0.01000000000000003
    vertex 0.02513876647413463 0.01350068890375023 0.02
    vertex 0.02651569874669098 0.01687586112968779 0.015
  endloop
endfacet
facet normal -0.953077 -0.302727 0
  outer loop
    vertex 0.02728288459633854 0.006750344451875119 0.02
    vertex 0.02513876647413463 0.01350068890375023 0.02
    vertex 0.02621082553523658 0.01012551667781268 0.015
  endloop
endfacet
facet normal -0.953077 -0.302727 0
  outer loop
    vertex 0.02728288459633854 0.006750344451875119 0.01000000000000003
    vertex 0.02513876647413463 0.01350068890375023 0.009999999999999972
    vertex 0.02621082553523658 0.01012551667781268 0.005
  endloop
endfacet
facet normal -0.953077 -0.302727 0
  outer loop
    vertex 0.02513876647413463 0.01350068890375023 0
    vertex 0.02728288459633854 0.006750344451875119 0
    vertex 0.02621082553523658 0.01012551667781268 0.005
  endloop
endfacet
facet normal -0.953077 -0.302727 0
  outer loop
    vertex 0.02513876647413463 0.01350068890375023 0.009999999999999972
    vertex 0.02728288459633854 0.006750344451875119 0.01000000000000003
    vertex 0.02621082553523658 0.01012551667781268 0.015
  endloop
endfacet
facet normal -0.953077 -0.302727 -0
  outer loop
    vertex 0.02513876647413463 0.01350068890375023 0.009999999999999972
    vertex 0.02513876647413463 0.01350068890375023 0
    vertex 0.02621082553523658 0.01012551667781268 0.005
  endloop
endfacet
facet normal -0.953077 -0.302727 -0
  outer loop
    vertex 0.02513876647413463 0.01350068890375023 0.02
    vertex 0.02513876647413463 0.01350068890375023 0.009999999999999972
    vertex 0.02621082553523658 0.01012551667781268 0.015
  endloop
endfacet
facet normal -0.953077 -0.302727 0
  outer loop
    vertex 0.02728288459633854 0.006750344451875119 0
    vertex 0.02728288459633854 0.006750344451875119 0.01000000000000003
    vertex 0.02621082553523658 0.01012551667781268 0.005
  endloop
endfacet
facet normal -0.953077 -0.302727 0
  outer loop
    vertex 0.02728288459633854 0.006750344451875119 0.01000000000000003
    vertex 0.02728288459633854 0.006750344451875119 0.02
    vertex 0.02621082553523658 0.01012551667781268 0.015
  endloop
endfacet
endsolid Created by Gmsh
