solid Created by Gmsh
facet normal 1 0 0
  outer loop
    vertex 0.04 0.05822824728049784 0
    vertex 0.04 0.06 0
    vertex 0.04 0.06 0.009999999999999972
  endloop
endfacet
facet normal 1 0 0
  outer loop
    vertex 0.04 0.05822824728049784 0.01000000000000003
    vertex 0.04 0.06 0.02
    vertex 0.04 0.05822824728049784 0.02
  endloop
endfacet
facet normal 1 0 -0
  outer loop
    vertex 0.04 0.06 0.009999999999999972
    vertex 0.04 0.06 0.02
    vertex 0.04 0.05822824728049784 0.01000000000000003
  endloop
endfacet
facet normal 1 0 0
  outer loop
    vertex 0.04 0.05822824728049784 0
    vertex 0.04 0.06 0.009999999999999972
    vertex 0.04 0.05822824728049784 0.01000000000000003
  endloop
endfacet
facet normal 0.980345 0.197292 0
  outer loop
    vertex 0.04 0.05822824728049784 0.02
    vertex 0.04073239149723692 0.05458898182546673 0.015
    vertex 0.04 0.05822824728049784 0.009999999999999972
  endloop
endfacet
facet normal 0.980345 0.197292 -0
  outer loop
    vertex 0.04146478299447384 0.05094971637043561 0
    vertex 0.04073239149723692 0.05458898182546673 0.004999999999999999
    vertex 0.04146478299447384 0.05094971637043561 0.01000000000000003
  endloop
endfacet
facet normal 0.980345 0.197292 0
  outer loop
    vertex 0.04 0.05822824728049784 0.009999999999999972
    vertex 0.04073239149723692 0.05458898182546673 0.004999999999999999
    vertex 0.04 0.05822824728049784 0
  endloop
endfacet
facet normal 0.980345 0.197292 -0
  outer loop
    vertex 0.04146478299447384 0.05094971637043561 0.01000000000000003
    vertex 0.04073239149723692 0.05458898182546673 0.015
    vertex 0.04146478299447384 0.05094971637043561 0.02
  endloop
endfacet
facet normal 0.980345 0.197292 -8.21425e-16
  outer loop
    vertex 0.04 0.05822824728049784 0.009999999999999972
    vertex 0.04073239149723692 0.05458898182546673 0.015
    vertex 0.04146478299447384 0.05094971637043561 0.01000000000000003
  endloop
endfacet
facet normal 0.980345 0.197292 8.21425e-16
  outer loop
    vertex 0.04146478299447384 0.05094971637043561 0.01000000000000003
    vertex 0.04073239149723692 0.05458898182546673 0.004999999999999999
    vertex 0.04 0.05822824728049784 0.009999999999999972
  endloop
endfacet
facet normal 0.980345 0.197292 -8.21425e-16
  outer loop
    vertex 0.04 0.05822824728049784 0
    vertex 0.04073239149723692 0.05458898182546673 0.004999999999999999
    vertex 0.04146478299447384 0.05094971637043561 0
  endloop
endfacet
facet normal 0.980345 0.197292 8.21425e-16
  outer loop
    vertex 0.04146478299447384 0.05094971637043561 0.02
    vertex 0.04073239149723692 0.05458898182546673 0.015
    vertex 0.04 0.05822824728049784 0.02
  endloop
endfacet
facet normal 0.938617 -0.344961 0
  outer loop
    vertex 0.0387897692460179 0.04367118546037338 0
    vertex 0.04012727612024587 0.04731045091540449 0.005
    vertex 0.0387897692460179 0.04367118546037338 0.01000000000000003
  endloop
endfacet
facet normal 0.938617 -0.344961 0
  outer loop
    vertex 0.04146478299447384 0.05094971637043561 0.02
    vertex 0.04012727612024587 0.04731045091540449 0.015
    vertex 0.04146478299447384 0.05094971637043561 0.009999999999999972
  endloop
endfacet
facet normal 0.938617 -0.344961 0
  outer loop
    vertex 0.0387897692460179 0.04367118546037338 0.01000000000000003
    vertex 0.04012727612024587 0.04731045091540449 0.015
    vertex 0.0387897692460179 0.04367118546037338 0.02
  endloop
endfacet
facet normal 0.938617 -0.344961 0
  outer loop
    vertex 0.04146478299447384 0.05094971637043561 0.009999999999999972
    vertex 0.04012727612024587 0.04731045091540449 0.005
    vertex 0.04146478299447384 0.05094971637043561 0
  endloop
endfacet
facet normal 0.938617 -0.344961 3.93231e-16
  outer loop
    vertex 0.04146478299447384 0.05094971637043561 0.009999999999999972
    vertex 0.04012727612024587 0.04731045091540449 0.015
    vertex 0.0387897692460179 0.04367118546037338 0.01000000000000003
  endloop
endfacet
facet normal 0.938617 -0.344961 3.93231e-16
  outer loop
    vertex 0.04146478299447384 0.05094971637043561 0
    vertex 0.04012727612024587 0.04731045091540449 0.005
    vertex 0.0387897692460179 0.04367118546037338 0
  endloop
endfacet
facet normal 0.938617 -0.344961 -3.93231e-16
  outer loop
    vertex 0.0387897692460179 0.04367118546037338 0.02
    vertex 0.04012727612024587 0.04731045091540449 0.015
    vertex 0.04146478299447384 0.05094971637043561 0.02
  endloop
endfacet
facet normal 0.938617 -0.344961 -3.93231e-16
  outer loop
    vertex 0.0387897692460179 0.04367118546037338 0.01000000000000003
    vertex 0.04012727612024587 0.04731045091540449 0.005
    vertex 0.04146478299447384 0.05094971637043561 0.009999999999999972
  endloop
endfacet
facet normal 0.787592 0.616197 0
  outer loop
    vertex 0.0387897692460179 0.04367118546037338 0.02
    vertex 0.04163706223333659 0.04003192000534227 0.015
    vertex 0.0387897692460179 0.04367118546037338 0.009999999999999972
  endloop
endfacet
facet normal 0.787592 0.616197 -0
  outer loop
    vertex 0.04448435522065528 0.03639265455031115 0
    vertex 0.04163706223333659 0.04003192000534227 0.005000000000000001
    vertex 0.04448435522065528 0.03639265455031115 0.01000000000000003
  endloop
endfacet
facet normal 0.787592 0.616197 0
  outer loop
    vertex 0.0387897692460179 0.04367118546037338 0.009999999999999972
    vertex 0.04163706223333659 0.04003192000534227 0.005000000000000001
    vertex 0.0387897692460179 0.04367118546037338 0
  endloop
endfacet
facet normal 0.787592 0.616197 -0
  outer loop
    vertex 0.04448435522065528 0.03639265455031115 0.01000000000000003
    vertex 0.04163706223333659 0.04003192000534227 0.015
    vertex 0.04448435522065528 0.03639265455031115 0.02
  endloop
endfacet
facet normal 0.787592 0.616197 -1.39316e-15
  outer loop
    vertex 0.0387897692460179 0.04367118546037338 0.009999999999999972
    vertex 0.04163706223333659 0.04003192000534227 0.015
    vertex 0.04448435522065528 0.03639265455031115 0.01000000000000003
  endloop
endfacet
facet normal 0.787592 0.616197 -1.39316e-15
  outer loop
    vertex 0.0387897692460179 0.04367118546037338 0
    vertex 0.04163706223333659 0.04003192000534227 0.005000000000000001
    vertex 0.04448435522065528 0.03639265455031115 0
  endloop
endfacet
facet normal 0.787592 0.616197 1.39316e-15
  outer loop
    vertex 0.04448435522065528 0.03639265455031115 0.01000000000000003
    vertex 0.04163706223333659 0.04003192000534227 0.005000000000000001
    vertex 0.0387897692460179 0.04367118546037338 0.009999999999999972
  endloop
endfacet
facet normal 0.787592 0.616197 1.39316e-15
  outer loop
    vertex 0.04448435522065528 0.03639265455031115 0.02
    vertex 0.04163706223333659 0.04003192000534227 0.015
    vertex 0.0387897692460179 0.04367118546037338 0.02
  endloop
endfacet
facet normal 0.936265 -0.351294 0
  outer loop
    vertex 0.04175338943461042 0.02911412364024892 0
    vertex 0.04311887232763285 0.03275338909528003 0.005
    vertex 0.04175338943461042 0.02911412364024892 0.01000000000000003
  endloop
endfacet
facet normal 0.936265 -0.351294 0
  outer loop
    vertex 0.04448435522065528 0.03639265455031115 0.02
    vertex 0.04311887232763285 0.03275338909528003 0.015
    vertex 0.04448435522065528 0.03639265455031115 0.009999999999999972
  endloop
endfacet
facet normal 0.936265 -0.351294 0
  outer loop
    vertex 0.04448435522065528 0.03639265455031115 0.009999999999999972
    vertex 0.04311887232763285 0.03275338909528003 0.005
    vertex 0.04448435522065528 0.03639265455031115 0
  endloop
endfacet
facet normal 0.936265 -0.351294 0
  outer loop
    vertex 0.04175338943461042 0.02911412364024892 0.01000000000000003
    vertex 0.04311887232763285 0.03275338909528003 0.015
    vertex 0.04175338943461042 0.02911412364024892 0.02
  endloop
endfacet
facet normal 0.936265 -0.351294 1.5254e-15
  outer loop
    vertex 0.04175338943461042 0.02911412364024892 0.01000000000000003
    vertex 0.04311887232763285 0.03275338909528003 0.005
    vertex 0.04448435522065528 0.03639265455031115 0.009999999999999972
  endloop
endfacet
facet normal 0.936265 -0.351294 -1.5254e-15
  outer loop
    vertex 0.04448435522065528 0.03639265455031115 0.009999999999999972
    vertex 0.04311887232763285 0.03275338909528003 0.015
    vertex 0.04175338943461042 0.02911412364024892 0.01000000000000003
  endloop
endfacet
facet normal 0.936265 -0.351294 -1.5254e-15
  outer loop
    vertex 0.04448435522065528 0.03639265455031115 0
    vertex 0.04311887232763285 0.03275338909528003 0.005
    vertex 0.04175338943461042 0.02911412364024892 0
  endloop
endfacet
facet normal 0.936265 -0.351294 1.5254e-15
  outer loop
    vertex 0.04175338943461042 0.02911412364024892 0.02
    vertex 0.04311887232763285 0.03275338909528003 0.015
    vertex 0.04448435522065528 0.03639265455031115 0.02
  endloop
endfacet
facet normal 0.667494 0.744615 -2.25131e-15
  outer loop
    vertex 0.04175338943461042 0.02911412364024892 0
    vertex 0.04581313342715772 0.02547485818521782 0.005520616409829229
    vertex 0.049872877419705 0.02183559273018669 0
  endloop
endfacet
facet normal 0.667494 0.744615 2.26242e-15
  outer loop
    vertex 0.049872877419705 0.02183559273018669 0.02
    vertex 0.04581313342715772 0.02547485818521782 0.01450648773478912
    vertex 0.04175338943461042 0.02911412364024892 0.02
  endloop
endfacet
facet normal 0.667494 0.744615 0
  outer loop
    vertex 0.04175338943461042 0.02911412364024892 0.009999999999999972
    vertex 0.04581313342715772 0.02547485818521782 0.01450648773478912
    vertex 0.04581313342715772 0.02547485818521782 0.005520616409829229
  endloop
endfacet
facet normal 0.667494 0.744615 0
  outer loop
    vertex 0.04175338943461042 0.02911412364024892 0.02
    vertex 0.04581313342715772 0.02547485818521782 0.01450648773478912
    vertex 0.04175338943461042 0.02911412364024892 0.009999999999999972
  endloop
endfacet
facet normal 0.667494 0.744615 -0
  outer loop
    vertex 0.049872877419705 0.02183559273018669 0
    vertex 0.04581313342715772 0.02547485818521782 0.005520616409829229
    vertex 0.049872877419705 0.02183559273018669 0.01000000000000003
  endloop
endfacet
facet normal 0.667494 0.744615 -0
  outer loop
    vertex 0.04581313342715772 0.02547485818521782 0.005520616409829229
    vertex 0.04581313342715772 0.02547485818521782 0.01450648773478912
    vertex 0.049872877419705 0.02183559273018669 0.01000000000000003
  endloop
endfacet
facet normal 0.667494 0.744615 0
  outer loop
    vertex 0.04175338943461042 0.02911412364024892 0.009999999999999972
    vertex 0.04581313342715772 0.02547485818521782 0.005520616409829229
    vertex 0.04175338943461042 0.02911412364024892 0
  endloop
endfacet
facet normal 0.667494 0.744615 -0
  outer loop
    vertex 0.049872877419705 0.02183559273018669 0.01000000000000003
    vertex 0.04581313342715772 0.02547485818521782 0.01450648773478912
    vertex 0.049872877419705 0.02183559273018669 0.02
  endloop
endfacet
facet normal 0.9661 -0.258169 0
  outer loop
    vertex 0.049872877419705 0.02183559273018669 0.02
    vertex 0.04890036258673292 0.01819632727515558 0.015
    vertex 0.049872877419705 0.02183559273018669 0.009999999999999972
  endloop
endfacet
facet normal 0.9661 -0.258169 0
  outer loop
    vertex 0.04792784775376083 0.01455706182012446 0
    vertex 0.04890036258673292 0.01819632727515558 0.005
    vertex 0.04792784775376083 0.01455706182012446 0.01000000000000003
  endloop
endfacet
facet normal 0.9661 -0.258169 0
  outer loop
    vertex 0.049872877419705 0.02183559273018669 0.009999999999999972
    vertex 0.04890036258673292 0.01819632727515558 0.005
    vertex 0.049872877419705 0.02183559273018669 0
  endloop
endfacet
facet normal 0.9661 -0.258169 0
  outer loop
    vertex 0.04792784775376083 0.01455706182012446 0.01000000000000003
    vertex 0.04890036258673292 0.01819632727515558 0.015
    vertex 0.04792784775376083 0.01455706182012446 0.02
  endloop
endfacet
facet normal 0.9661 -0.258169 0
  outer loop
    vertex 0.04792784775376083 0.01455706182012446 0.01000000000000003
    vertex 0.04890036258673292 0.01819632727515558 0.005
    vertex 0.049872877419705 0.02183559273018669 0.009999999999999972
  endloop
endfacet
facet normal 0.9661 -0.258169 0
  outer loop
    vertex 0.049872877419705 0.02183559273018669 0.009999999999999972
    vertex 0.04890036258673292 0.01819632727515558 0.015
    vertex 0.04792784775376083 0.01455706182012446 0.01000000000000003
  endloop
endfacet
facet normal 0.9661 -0.258169 0
  outer loop
    vertex 0.049872877419705 0.02183559273018669 0
    vertex 0.04890036258673292 0.01819632727515558 0.005
    vertex 0.04792784775376083 0.01455706182012446 0
  endloop
endfacet
facet normal 0.9661 -0.258169 0
  outer loop
    vertex 0.04792784775376083 0.01455706182012446 0.02
    vertex 0.04890036258673292 0.01819632727515558 0.015
    vertex 0.049872877419705 0.02183559273018669 0.02
  endloop
endfacet
facet normal 0.391927 -0.919996 -1.90235e-16
  outer loop
    vertex 0.03084247072384882 0.007278530910062232 0.02
    vertex 0.03776140695475487 0.01022606265801445 0.01232777225144681
    vertex 0.03938515923880483 0.01091779636509335 0.02
  endloop
endfacet
facet normal 0.391927 -0.919996 0
  outer loop
    vertex 0.03084247072384882 0.007278530910062232 0.01000000000000003
    vertex 0.03776140695475487 0.01022606265801445 0.01232777225144681
    vertex 0.03084247072384882 0.007278530910062232 0.02
  endloop
endfacet
facet normal 0.391927 -0.919996 0
  outer loop
    vertex 0.04792784775376083 0.01455706182012446 0.009999999999999972
    vertex 0.04159672162797646 0.01185994269179924 0.006805762941926767
    vertex 0.04792784775376083 0.01455706182012446 0
  endloop
endfacet
facet normal 0.391927 -0.919996 1.60841e-16
  outer loop
    vertex 0.04792784775376083 0.01455706182012446 0
    vertex 0.04159672162797646 0.01185994269179924 0.006805762941926767
    vertex 0.03938515923880483 0.01091779636509335 0
  endloop
endfacet
facet normal 0.391927 -0.919996 0
  outer loop
    vertex 0.04792784775376083 0.01455706182012446 0.02
    vertex 0.04365650349628283 0.01273742909260891 0.01499999999999999
    vertex 0.04792784775376083 0.01455706182012446 0.009999999999999972
  endloop
endfacet
facet normal 0.391927 -0.919996 0
  outer loop
    vertex 0.03084247072384882 0.007278530910062232 0
    vertex 0.03602630449444406 0.009486892731159031 0.005783198005693459
    vertex 0.03084247072384882 0.007278530910062232 0.01000000000000003
  endloop
endfacet
facet normal 0.391927 -0.919996 -2.91905e-16
  outer loop
    vertex 0.03938515923880483 0.01091779636509335 0.02
    vertex 0.04365650349628283 0.01273742909260891 0.01499999999999999
    vertex 0.04792784775376083 0.01455706182012446 0.02
  endloop
endfacet
facet normal 0.391927 -0.919996 2.52373e-16
  outer loop
    vertex 0.03938515923880483 0.01091779636509335 0
    vertex 0.03602630449444406 0.009486892731159031 0.005783198005693459
    vertex 0.03084247072384882 0.007278530910062232 0
  endloop
endfacet
facet normal 0.391927 -0.919996 1.03216e-16
  outer loop
    vertex 0.04792784775376083 0.01455706182012446 0.009999999999999972
    vertex 0.04365650349628283 0.01273742909260891 0.01499999999999999
    vertex 0.04159672162797646 0.01185994269179924 0.006805762941926767
  endloop
endfacet
facet normal 0.391927 -0.919996 5.46195e-17
  outer loop
    vertex 0.04159672162797646 0.01185994269179924 0.006805762941926767
    vertex 0.04365650349628283 0.01273742909260891 0.01499999999999999
    vertex 0.03776140695475487 0.01022606265801445 0.01232777225144681
  endloop
endfacet
facet normal 0.391927 -0.919996 -7.55789e-17
  outer loop
    vertex 0.03602630449444406 0.009486892731159031 0.005783198005693459
    vertex 0.03776140695475487 0.01022606265801445 0.01232777225144681
    vertex 0.03084247072384882 0.007278530910062232 0.01000000000000003
  endloop
endfacet
facet normal 0.391927 -0.919996 -2.47753e-16
  outer loop
    vertex 0.03776140695475487 0.01022606265801445 0.01232777225144681
    vertex 0.04365650349628283 0.01273742909260891 0.01499999999999999
    vertex 0.03938515923880483 0.01091779636509335 0.02
  endloop
endfacet
facet normal 0.391927 -0.919996 0
  outer loop
    vertex 0.03602630449444406 0.009486892731159031 0.005783198005693459
    vertex 0.04159672162797646 0.01185994269179924 0.006805762941926767
    vertex 0.03776140695475487 0.01022606265801445 0.01232777225144681
  endloop
endfacet
facet normal 0.391927 -0.919996 2.40451e-16
  outer loop
    vertex 0.03938515923880483 0.01091779636509335 0
    vertex 0.04159672162797646 0.01185994269179924 0.006805762941926767
    vertex 0.03602630449444406 0.009486892731159031 0.005783198005693459
  endloop
endfacet
endsolid Created by Gmsh
