solid Created by Gmsh
facet normal 1 -0 0
  outer loop
    vertex 0.04 0.04736084118903352 0.01000000000000003
    vertex 0.04 0.06 0.009999999999999972
    vertex 0.04 0.05368042059451678 0.02
  endloop
endfacet
facet normal 1 0 -0
  outer loop
    vertex 0.04 0.05368042059451674 0
    vertex 0.04 0.06 0.009999999999999972
    vertex 0.04 0.04736084118903352 0.01000000000000003
  endloop
endfacet
facet normal 1 0 0
  outer loop
    vertex 0.04 0.05368042059451674 0
    vertex 0.04 0.06 0
    vertex 0.04 0.06 0.009999999999999972
  endloop
endfacet
facet normal 1 0 -0
  outer loop
    vertex 0.04 0.06 0.009999999999999972
    vertex 0.04 0.06 0.02
    vertex 0.04 0.05368042059451678 0.02
  endloop
endfacet
facet normal 1 0 0
  outer loop
    vertex 0.04 0.04736084118903352 0.01000000000000003
    vertex 0.04 0.04736084118903352 0
    vertex 0.04 0.05368042059451674 0
  endloop
endfacet
facet normal 1 0 0
  outer loop
    vertex 0.04 0.05368042059451678 0.02
    vertex 0.04 0.04736084118903352 0.02
    vertex 0.04 0.04736084118903352 0.01000000000000003
  endloop
endfacet
facet normal 0.43594 0.899976 -0
  outer loop
    vertex 0.05222176816787795 0.04144073604040433 0
    vertex 0.04794414930912067 0.04351277284242454 0.005000000000000005
    vertex 0.05222176816787795 0.04144073604040433 0.01000000000000003
  endloop
endfacet
facet normal 0.43594 0.899976 0
  outer loop
    vertex 0.04 0.04736084118903352 0.02
    vertex 0.04427761885875729 0.0452888043870133 0.015
    vertex 0.04 0.04736084118903352 0.009999999999999972
  endloop
endfacet
facet normal 0.43594 0.899976 0
  outer loop
    vertex 0.04 0.04736084118903352 0.009999999999999972
    vertex 0.04403318349539972 0.04540720648998588 0.004999999999999998
    vertex 0.04 0.04736084118903352 0
  endloop
endfacet
facet normal 0.43594 0.899976 -0
  outer loop
    vertex 0.05222176816787795 0.04144073604040433 0.01000000000000003
    vertex 0.04818858467247823 0.04339437073945196 0.01500000000000001
    vertex 0.05222176816787795 0.04144073604040433 0.02
  endloop
endfacet
facet normal 0.43594 0.899976 -4.49086e-16
  outer loop
    vertex 0.04611088408393897 0.04440078861471893 0.02
    vertex 0.04427761885875729 0.0452888043870133 0.015
    vertex 0.04 0.04736084118903352 0.02
  endloop
endfacet
facet normal 0.43594 0.899976 1.99594e-16
  outer loop
    vertex 0.04611088408393898 0.04440078861471893 0
    vertex 0.04794414930912067 0.04351277284242454 0.005000000000000005
    vertex 0.05222176816787795 0.04144073604040433 0
  endloop
endfacet
facet normal 0.43594 0.899976 -5.48883e-16
  outer loop
    vertex 0.05222176816787795 0.04144073604040433 0.02
    vertex 0.04818858467247823 0.04339437073945196 0.01500000000000001
    vertex 0.04611088408393897 0.04440078861471893 0.02
  endloop
endfacet
facet normal 0.43594 0.899976 6.98578e-16
  outer loop
    vertex 0.04 0.04736084118903352 0
    vertex 0.04403318349539972 0.04540720648998588 0.004999999999999998
    vertex 0.04611088408393898 0.04440078861471893 0
  endloop
endfacet
facet normal 0.43594 0.899976 5.26273e-16
  outer loop
    vertex 0.04611088408393898 0.04440078861471893 0
    vertex 0.04403318349539972 0.04540720648998588 0.004999999999999998
    vertex 0.04794414930912067 0.04351277284242454 0.005000000000000005
  endloop
endfacet
facet normal 0.43594 0.899976 -3.99578e-16
  outer loop
    vertex 0.04611088408393897 0.04440078861471893 0.02
    vertex 0.04818858467247823 0.04339437073945196 0.01500000000000001
    vertex 0.04427761885875729 0.0452888043870133 0.015
  endloop
endfacet
facet normal 0.43594 0.899976 -5.06781e-16
  outer loop
    vertex 0.04403318349539972 0.04540720648998588 0.004999999999999998
    vertex 0.04611088408393898 0.04440078861471893 0.01
    vertex 0.04794414930912067 0.04351277284242454 0.005000000000000005
  endloop
endfacet
facet normal 0.43594 0.899976 1.01356e-15
  outer loop
    vertex 0.04818858467247823 0.04339437073945196 0.01500000000000001
    vertex 0.04611088408393898 0.04440078861471893 0.01
    vertex 0.04427761885875729 0.0452888043870133 0.015
  endloop
endfacet
facet normal 0.43594 0.899976 -6.98578e-16
  outer loop
    vertex 0.04 0.04736084118903352 0.009999999999999972
    vertex 0.04611088408393898 0.04440078861471893 0.01
    vertex 0.04403318349539972 0.04540720648998588 0.004999999999999998
  endloop
endfacet
facet normal 0.43594 0.899976 8.73223e-16
  outer loop
    vertex 0.04427761885875729 0.0452888043870133 0.015
    vertex 0.04611088408393898 0.04440078861471893 0.01
    vertex 0.04 0.04736084118903352 0.009999999999999972
  endloop
endfacet
facet normal 0.43594 0.899976 -1.99594e-16
  outer loop
    vertex 0.04794414930912067 0.04351277284242454 0.005000000000000005
    vertex 0.04611088408393898 0.04440078861471893 0.01
    vertex 0.05222176816787795 0.04144073604040433 0.01000000000000003
  endloop
endfacet
facet normal 0.43594 0.899976 9.48071e-16
  outer loop
    vertex 0.05222176816787795 0.04144073604040433 0.01000000000000003
    vertex 0.04611088408393898 0.04440078861471893 0.01
    vertex 0.04818858467247823 0.04339437073945196 0.01500000000000001
  endloop
endfacet
facet normal 0.611657 -0.791123 0
  outer loop
    vertex 0.05222176816787795 0.04144073604040433 0.02
    vertex 0.04839320598715202 0.03848068346608974 0.015
    vertex 0.05222176816787795 0.04144073604040433 0.009999999999999972
  endloop
endfacet
facet normal 0.611657 -0.791123 0
  outer loop
    vertex 0.04456464380642609 0.03552063089177514 0
    vertex 0.04839320598715202 0.03848068346608974 0.004999999999999999
    vertex 0.04456464380642609 0.03552063089177514 0.01000000000000003
  endloop
endfacet
facet normal 0.611657 -0.791123 0
  outer loop
    vertex 0.05222176816787795 0.04144073604040433 0.009999999999999972
    vertex 0.04839320598715202 0.03848068346608974 0.004999999999999999
    vertex 0.05222176816787795 0.04144073604040433 0
  endloop
endfacet
facet normal 0.611657 -0.791123 0
  outer loop
    vertex 0.04456464380642609 0.03552063089177514 0.01000000000000003
    vertex 0.04839320598715202 0.03848068346608974 0.015
    vertex 0.04456464380642609 0.03552063089177514 0.02
  endloop
endfacet
facet normal 0.611657 -0.791123 -5.60091e-16
  outer loop
    vertex 0.04456464380642609 0.03552063089177514 0.02
    vertex 0.04839320598715202 0.03848068346608974 0.015
    vertex 0.05222176816787795 0.04144073604040433 0.02
  endloop
endfacet
facet normal 0.611657 -0.791123 -5.60091e-16
  outer loop
    vertex 0.04456464380642609 0.03552063089177514 0.01000000000000003
    vertex 0.04839320598715202 0.03848068346608974 0.004999999999999999
    vertex 0.05222176816787795 0.04144073604040433 0.009999999999999972
  endloop
endfacet
facet normal 0.611657 -0.791123 5.60091e-16
  outer loop
    vertex 0.05222176816787795 0.04144073604040433 0
    vertex 0.04839320598715202 0.03848068346608974 0.004999999999999999
    vertex 0.04456464380642609 0.03552063089177514 0
  endloop
endfacet
facet normal 0.611657 -0.791123 5.60091e-16
  outer loop
    vertex 0.05222176816787795 0.04144073604040433 0.009999999999999972
    vertex 0.04839320598715202 0.03848068346608974 0.015
    vertex 0.04456464380642609 0.03552063089177514 0.01000000000000003
  endloop
endfacet
facet normal 0.765752 -0.643136 0
  outer loop
    vertex 0.03959249412429242 0.02960052574314595 0
    vertex 0.04207856896535925 0.03256057831746054 0.004999999999999999
    vertex 0.03959249412429242 0.02960052574314595 0.01000000000000003
  endloop
endfacet
facet normal 0.765752 -0.643136 0
  outer loop
    vertex 0.04456464380642609 0.03552063089177514 0.02
    vertex 0.04207856896535925 0.03256057831746054 0.015
    vertex 0.04456464380642609 0.03552063089177514 0.009999999999999972
  endloop
endfacet
facet normal 0.765752 -0.643136 0
  outer loop
    vertex 0.03959249412429242 0.02960052574314595 0.01000000000000003
    vertex 0.04207856896535925 0.03256057831746054 0.015
    vertex 0.03959249412429242 0.02960052574314595 0.02
  endloop
endfacet
facet normal 0.765752 -0.643136 0
  outer loop
    vertex 0.04456464380642609 0.03552063089177514 0.009999999999999972
    vertex 0.04207856896535925 0.03256057831746054 0.004999999999999999
    vertex 0.04456464380642609 0.03552063089177514 0
  endloop
endfacet
facet normal 0.765752 -0.643136 1.05179e-15
  outer loop
    vertex 0.04456464380642609 0.03552063089177514 0
    vertex 0.04207856896535925 0.03256057831746054 0.004999999999999999
    vertex 0.03959249412429242 0.02960052574314595 0
  endloop
endfacet
facet normal 0.765752 -0.643136 1.05179e-15
  outer loop
    vertex 0.04456464380642609 0.03552063089177514 0.009999999999999972
    vertex 0.04207856896535925 0.03256057831746054 0.015
    vertex 0.03959249412429242 0.02960052574314595 0.01000000000000003
  endloop
endfacet
facet normal 0.765752 -0.643136 -1.05179e-15
  outer loop
    vertex 0.03959249412429242 0.02960052574314595 0.02
    vertex 0.04207856896535925 0.03256057831746054 0.015
    vertex 0.04456464380642609 0.03552063089177514 0.02
  endloop
endfacet
facet normal 0.765752 -0.643136 -1.05179e-15
  outer loop
    vertex 0.03959249412429242 0.02960052574314595 0.01000000000000003
    vertex 0.04207856896535925 0.03256057831746054 0.004999999999999999
    vertex 0.04456464380642609 0.03552063089177514 0.009999999999999972
  endloop
endfacet
facet normal 0.814193 0.580594 -1.35131e-15
  outer loop
    vertex 0.04381406827644195 0.02368042059451676 0.01000000000000003
    vertex 0.04170328120036718 0.02664047316883135 0.005
    vertex 0.03959249412429242 0.02960052574314595 0.009999999999999972
  endloop
endfacet
facet normal 0.814193 0.580594 1.30472e-15
  outer loop
    vertex 0.03959249412429242 0.02960052574314595 0.009999999999999972
    vertex 0.04170328120036718 0.02664047316883135 0.015
    vertex 0.04381406827644195 0.02368042059451676 0.01000000000000003
  endloop
endfacet
facet normal 0.814193 0.580594 1.30472e-15
  outer loop
    vertex 0.03959249412429242 0.02960052574314595 0
    vertex 0.04170328120036718 0.02664047316883135 0.005
    vertex 0.04381406827644195 0.02368042059451676 0
  endloop
endfacet
facet normal 0.814193 0.580594 -1.35131e-15
  outer loop
    vertex 0.04381406827644195 0.02368042059451676 0.02
    vertex 0.04170328120036718 0.02664047316883135 0.015
    vertex 0.03959249412429242 0.02960052574314595 0.02
  endloop
endfacet
facet normal 0.814193 0.580594 0
  outer loop
    vertex 0.03959249412429242 0.02960052574314595 0.009999999999999972
    vertex 0.04170328120036718 0.02664047316883135 0.005
    vertex 0.03959249412429242 0.02960052574314595 0
  endloop
endfacet
facet normal 0.814193 0.580594 0
  outer loop
    vertex 0.03959249412429242 0.02960052574314595 0.02
    vertex 0.04170328120036718 0.02664047316883135 0.015
    vertex 0.03959249412429242 0.02960052574314595 0.009999999999999972
  endloop
endfacet
facet normal 0.814193 0.580594 -0
  outer loop
    vertex 0.04381406827644195 0.02368042059451676 0
    vertex 0.04170328120036718 0.02664047316883135 0.005
    vertex 0.04381406827644195 0.02368042059451676 0.01000000000000003
  endloop
endfacet
facet normal 0.814193 0.580594 -0
  outer loop
    vertex 0.04381406827644195 0.02368042059451676 0.01000000000000003
    vertex 0.04170328120036718 0.02664047316883135 0.015
    vertex 0.04381406827644195 0.02368042059451676 0.02
  endloop
endfacet
facet normal 0.711315 0.702873 0
  outer loop
    vertex 0.04381406827644195 0.02368042059451676 0.02
    vertex 0.04673898963531686 0.02072036802020216 0.015
    vertex 0.04381406827644195 0.02368042059451676 0.009999999999999972
  endloop
endfacet
facet normal 0.711315 0.702873 -0
  outer loop
    vertex 0.04966391099419176 0.01776031544588757 0
    vertex 0.04673898963531686 0.02072036802020216 0.005
    vertex 0.04966391099419176 0.01776031544588757 0.01000000000000003
  endloop
endfacet
facet normal 0.711315 0.702873 0
  outer loop
    vertex 0.04381406827644195 0.02368042059451676 0.009999999999999972
    vertex 0.04673898963531686 0.02072036802020216 0.005
    vertex 0.04381406827644195 0.02368042059451676 0
  endloop
endfacet
facet normal 0.711315 0.702873 -0
  outer loop
    vertex 0.04966391099419176 0.01776031544588757 0.01000000000000003
    vertex 0.04673898963531686 0.02072036802020216 0.015
    vertex 0.04966391099419176 0.01776031544588757 0.02
  endloop
endfacet
facet normal 0.711315 0.702873 -2.44255e-16
  outer loop
    vertex 0.04966391099419176 0.01776031544588757 0.01000000000000003
    vertex 0.04673898963531686 0.02072036802020216 0.005
    vertex 0.04381406827644195 0.02368042059451676 0.009999999999999972
  endloop
endfacet
facet normal 0.711315 0.702873 -2.44255e-16
  outer loop
    vertex 0.04966391099419176 0.01776031544588757 0.02
    vertex 0.04673898963531686 0.02072036802020216 0.015
    vertex 0.04381406827644195 0.02368042059451676 0.02
  endloop
endfacet
facet normal 0.711315 0.702873 2.44255e-16
  outer loop
    vertex 0.04381406827644195 0.02368042059451676 0
    vertex 0.04673898963531686 0.02072036802020216 0.005
    vertex 0.04966391099419176 0.01776031544588757 0
  endloop
endfacet
facet normal 0.711315 0.702873 2.44255e-16
  outer loop
    vertex 0.04381406827644195 0.02368042059451676 0.009999999999999972
    vertex 0.04673898963531686 0.02072036802020216 0.015
    vertex 0.04966391099419176 0.01776031544588757 0.01000000000000003
  endloop
endfacet
facet normal 0.967166 -0.254147 -1.32844e-15
  outer loop
    vertex 0.04966391099419176 0.01776031544588757 0
    vertex 0.04888608416686695 0.01480026287157298 0.005000000000000001
    vertex 0.04810825733954213 0.01184021029725838 0
  endloop
endfacet
facet normal 0.967166 -0.254147 -1.32844e-15
  outer loop
    vertex 0.04966391099419176 0.01776031544588757 0.009999999999999972
    vertex 0.04888608416686695 0.01480026287157298 0.015
    vertex 0.04810825733954213 0.01184021029725838 0.01000000000000003
  endloop
endfacet
facet normal 0.967166 -0.254147 1.35612e-15
  outer loop
    vertex 0.04810825733954213 0.01184021029725838 0.01000000000000003
    vertex 0.04888608416686695 0.01480026287157298 0.005000000000000001
    vertex 0.04966391099419176 0.01776031544588757 0.009999999999999972
  endloop
endfacet
facet normal 0.967166 -0.254147 1.35612e-15
  outer loop
    vertex 0.04810825733954213 0.01184021029725838 0.02
    vertex 0.04888608416686695 0.01480026287157298 0.015
    vertex 0.04966391099419176 0.01776031544588757 0.02
  endloop
endfacet
facet normal 0.967166 -0.254147 0
  outer loop
    vertex 0.04966391099419176 0.01776031544588757 0.009999999999999972
    vertex 0.04888608416686695 0.01480026287157298 0.005000000000000001
    vertex 0.04966391099419176 0.01776031544588757 0
  endloop
endfacet
facet normal 0.967166 -0.254147 0
  outer loop
    vertex 0.04966391099419176 0.01776031544588757 0.02
    vertex 0.04888608416686695 0.01480026287157298 0.015
    vertex 0.04966391099419176 0.01776031544588757 0.009999999999999972
  endloop
endfacet
facet normal 0.967166 -0.254147 0
  outer loop
    vertex 0.04810825733954213 0.01184021029725838 0
    vertex 0.04888608416686695 0.01480026287157298 0.005000000000000001
    vertex 0.04810825733954213 0.01184021029725838 0.01000000000000003
  endloop
endfacet
facet normal 0.967166 -0.254147 0
  outer loop
    vertex 0.04810825733954213 0.01184021029725838 0.01000000000000003
    vertex 0.04888608416686695 0.01480026287157298 0.015
    vertex 0.04810825733954213 0.01184021029725838 0.02
  endloop
endfacet
facet normal 0.893441 -0.44918 -1.43171e-15
  outer loop
    vertex 0.04810825733954213 0.01184021029725838 0
    vertex 0.04662008437536731 0.008880157722943783 0.005
    vertex 0.04513191141119248 0.005920105148629187 0
  endloop
endfacet
facet normal 0.893441 -0.44918 -1.43171e-15
  outer loop
    vertex 0.04810825733954213 0.01184021029725838 0.009999999999999972
    vertex 0.04662008437536731 0.008880157722943783 0.015
    vertex 0.04513191141119248 0.005920105148629187 0.01000000000000003
  endloop
endfacet
facet normal 0.893441 -0.44918 1.38058e-15
  outer loop
    vertex 0.04513191141119248 0.005920105148629187 0.02
    vertex 0.04662008437536731 0.008880157722943783 0.015
    vertex 0.04810825733954213 0.01184021029725838 0.02
  endloop
endfacet
facet normal 0.893441 -0.44918 1.38058e-15
  outer loop
    vertex 0.04513191141119248 0.005920105148629187 0.01000000000000003
    vertex 0.04662008437536731 0.008880157722943783 0.005
    vertex 0.04810825733954213 0.01184021029725838 0.009999999999999972
  endloop
endfacet
facet normal 0.893441 -0.44918 0
  outer loop
    vertex 0.04810825733954213 0.01184021029725838 0.009999999999999972
    vertex 0.04662008437536731 0.008880157722943783 0.005
    vertex 0.04810825733954213 0.01184021029725838 0
  endloop
endfacet
facet normal 0.893441 -0.44918 0
  outer loop
    vertex 0.04810825733954213 0.01184021029725838 0.02
    vertex 0.04662008437536731 0.008880157722943783 0.015
    vertex 0.04810825733954213 0.01184021029725838 0.009999999999999972
  endloop
endfacet
facet normal 0.893441 -0.44918 0
  outer loop
    vertex 0.04513191141119248 0.005920105148629187 0
    vertex 0.04662008437536731 0.008880157722943783 0.005
    vertex 0.04513191141119248 0.005920105148629187 0.01000000000000003
  endloop
endfacet
facet normal 0.893441 -0.44918 0
  outer loop
    vertex 0.04513191141119248 0.005920105148629187 0.01000000000000003
    vertex 0.04662008437536731 0.008880157722943783 0.015
    vertex 0.04513191141119248 0.005920105148629187 0.02
  endloop
endfacet
endsolid Created by Gmsh
