solid Created by Gmsh
facet normal 0.999469 0.0325868 -1.03448e-16
  outer loop
    vertex 0.007366388793693305 0.01943347656338527 0
    vertex 0.00752479159526998 0.01457510742253895 0.01158058633461776
    vertex 0.007683194396846653 0.00971673828169263 0
  endloop
endfacet
facet normal 0.999469 0.0325868 4.70217e-17
  outer loop
    vertex 0.007049583190539959 0.0291502148450779 0.02
    vertex 0.006891180388963285 0.03400858398592422 0.008419413665382245
    vertex 0.006732777587386611 0.03886695312677053 0.02
  endloop
endfacet
facet normal 0.999469 0.0325868 5.04656e-17
  outer loop
    vertex 0.007049583190539959 0.0291502148450779 0.02
    vertex 0.007207985992116633 0.02429184570423158 0.01
    vertex 0.006891180388963285 0.03400858398592422 0.008419413665382245
  endloop
endfacet
facet normal 0.999469 0.0325868 5.44539e-17
  outer loop
    vertex 0.007366388793693306 0.01943347656338526 0.02
    vertex 0.007207985992116633 0.02429184570423158 0.01
    vertex 0.007049583190539959 0.0291502148450779 0.02
  endloop
endfacet
facet normal 0.999469 0.0325868 -1.35027e-16
  outer loop
    vertex 0.00752479159526998 0.01457510742253895 0.01158058633461776
    vertex 0.007790271316972933 0.006432584218378473 0.007335149996793749
    vertex 0.007683194396846653 0.00971673828169263 0
  endloop
endfacet
facet normal 0.999469 0.0325868 5.74583e-17
  outer loop
    vertex 0.006891180388963285 0.03400858398592422 0.008419413665382245
    vertex 0.006625700667260333 0.04215110719008469 0.01266485000320625
    vertex 0.006732777587386611 0.03886695312677053 0.02
  endloop
endfacet
facet normal 0.999469 0.0325868 -1.10015e-16
  outer loop
    vertex 0.007366388793693305 0.01943347656338527 0
    vertex 0.007207985992116633 0.02429184570423158 0.01
    vertex 0.00752479159526998 0.01457510742253895 0.01158058633461776
  endloop
endfacet
facet normal 0.999469 0.0325868 5.91267e-17
  outer loop
    vertex 0.00752479159526998 0.01457510742253895 0.01158058633461776
    vertex 0.007207985992116633 0.02429184570423158 0.01
    vertex 0.007366388793693306 0.01943347656338526 0.02
  endloop
endfacet
facet normal 0.999469 0.0325868 -1.30079e-16
  outer loop
    vertex 0.006891180388963285 0.03400858398592422 0.008419413665382245
    vertex 0.007207985992116633 0.02429184570423158 0.01
    vertex 0.007049583190539958 0.0291502148450779 0
  endloop
endfacet
facet normal 0.999469 0.0325868 -1.19799e-16
  outer loop
    vertex 0.007049583190539958 0.0291502148450779 0
    vertex 0.007207985992116633 0.02429184570423158 0.01
    vertex 0.007366388793693305 0.01943347656338527 0
  endloop
endfacet
facet normal 0.999469 0.0325868 -1.03483e-16
  outer loop
    vertex 0.006732777587386611 0.03886695312677053 0
    vertex 0.006891180388963285 0.03400858398592422 0.008419413665382245
    vertex 0.007049583190539958 0.0291502148450779 0
  endloop
endfacet
facet normal 0.999469 0.0325868 1.03483e-16
  outer loop
    vertex 0.007683194396846653 0.00971673828169263 0.02
    vertex 0.00752479159526998 0.01457510742253895 0.01158058633461776
    vertex 0.007366388793693306 0.01943347656338526 0.02
  endloop
endfacet
facet normal 0.999469 0.0325868 -1.60352e-16
  outer loop
    vertex 0.007683194396846653 0.00971673828169263 0
    vertex 0.007790271316972933 0.006432584218378473 0.007335149996793749
    vertex 0.008 0 0
  endloop
endfacet
facet normal 0.999469 0.0325868 7.72064e-17
  outer loop
    vertex 0.006732777587386611 0.03886695312677053 0.02
    vertex 0.006625700667260333 0.04215110719008469 0.01266485000320625
    vertex 0.006415971984233264 0.04858369140846316 0.02
  endloop
endfacet
facet normal 0.999469 0.0325868 0
  outer loop
    vertex 0.006415971984233264 0.04858369140846316 0.02
    vertex 0.006625700667260333 0.04215110719008469 0.01266485000320625
    vertex 0.006415971984233264 0.04858369140846316 0.009999999999999972
  endloop
endfacet
facet normal 0.999469 0.0325868 -0
  outer loop
    vertex 0.008 0 0
    vertex 0.007790271316972933 0.006432584218378473 0.007335149996793749
    vertex 0.008 0 0.01000000000000003
  endloop
endfacet
facet normal 0.999469 0.0325868 -8.20302e-17
  outer loop
    vertex 0.006732777587386611 0.03886695312677053 0
    vertex 0.00660273637419297 0.04285544456082131 0.005833544484854427
    vertex 0.006891180388963285 0.03400858398592422 0.008419413665382245
  endloop
endfacet
facet normal 0.999469 0.0325868 1.65769e-16
  outer loop
    vertex 0.007683194396846653 0.00971673828169263 0.02
    vertex 0.007813235610040296 0.005728246847641852 0.01416645551514557
    vertex 0.00752479159526998 0.01457510742253895 0.01158058633461776
  endloop
endfacet
facet normal 0.999469 0.0325868 0
  outer loop
    vertex 0.006415971984233264 0.04858369140846316 0.009999999999999972
    vertex 0.00660273637419297 0.04285544456082131 0.005833544484854427
    vertex 0.006415971984233264 0.04858369140846316 0
  endloop
endfacet
facet normal 0.999469 0.0325868 -0
  outer loop
    vertex 0.008 0 0.01000000000000003
    vertex 0.007813235610040296 0.005728246847641852 0.01416645551514557
    vertex 0.008 0 0.02
  endloop
endfacet
facet normal 0.999469 0.0325868 -1.19483e-16
  outer loop
    vertex 0.006415971984233264 0.04858369140846316 0
    vertex 0.00660273637419297 0.04285544456082131 0.005833544484854427
    vertex 0.006732777587386611 0.03886695312677053 0
  endloop
endfacet
facet normal 0.999469 0.0325868 1.79225e-16
  outer loop
    vertex 0.008 0 0.02
    vertex 0.007813235610040296 0.005728246847641852 0.01416645551514557
    vertex 0.007683194396846653 0.00971673828169263 0.02
  endloop
endfacet
facet normal 0.999469 0.0325868 2.16649e-17
  outer loop
    vertex 0.00752479159526998 0.01457510742253895 0.01158058633461776
    vertex 0.007813235610040296 0.005728246847641852 0.01416645551514557
    vertex 0.007790271316972933 0.006432584218378473 0.007335149996793749
  endloop
endfacet
facet normal 0.999469 0.0325868 2.16649e-17
  outer loop
    vertex 0.006891180388963285 0.03400858398592422 0.008419413665382245
    vertex 0.00660273637419297 0.04285544456082131 0.005833544484854427
    vertex 0.006625700667260333 0.04215110719008469 0.01266485000320625
  endloop
endfacet
facet normal 0.999469 0.0325868 2.83009e-17
  outer loop
    vertex 0.006625700667260333 0.04215110719008469 0.01266485000320625
    vertex 0.00660273637419297 0.04285544456082131 0.005833544484854427
    vertex 0.006415971984233264 0.04858369140846316 0.009999999999999972
  endloop
endfacet
facet normal 0.999469 0.0325868 -6.2891e-19
  outer loop
    vertex 0.007790271316972933 0.006432584218378473 0.007335149996793749
    vertex 0.007813235610040296 0.005728246847641852 0.01416645551514557
    vertex 0.008 0 0.01000000000000003
  endloop
endfacet
endsolid Created by Gmsh
