solid Created by Gmsh
facet normal 1 -1.76709e-15 0
  outer loop
    vertex 0.04 0.06 0.02
    vertex 0.03999999999999999 0.05607326130240173 0.015
    vertex 0.04 0.06 0.009999999999999972
  endloop
endfacet
facet normal 1 1.76709e-15 -0
  outer loop
    vertex 0.04 0.05214652260480346 0
    vertex 0.03999999999999999 0.05607326130240173 0.005
    vertex 0.04 0.05214652260480346 0.01000000000000003
  endloop
endfacet
facet normal 1 -1.76709e-15 0
  outer loop
    vertex 0.04 0.06 0.009999999999999972
    vertex 0.03999999999999999 0.05607326130240173 0.005
    vertex 0.04 0.06 0
  endloop
endfacet
facet normal 1 1.76709e-15 -0
  outer loop
    vertex 0.04 0.05214652260480346 0.01000000000000003
    vertex 0.03999999999999999 0.05607326130240173 0.015
    vertex 0.04 0.05214652260480346 0.02
  endloop
endfacet
facet normal 1 0 -1.38778e-15
  outer loop
    vertex 0.04 0.05214652260480346 0.02
    vertex 0.03999999999999999 0.05607326130240173 0.015
    vertex 0.04 0.06 0.02
  endloop
endfacet
facet normal 1 -9.80931e-30 -1.38778e-15
  outer loop
    vertex 0.04 0.05214652260480346 0.01000000000000003
    vertex 0.03999999999999999 0.05607326130240173 0.005
    vertex 0.04 0.06 0.009999999999999972
  endloop
endfacet
facet normal 1 0 1.38778e-15
  outer loop
    vertex 0.04 0.06 0
    vertex 0.03999999999999999 0.05607326130240173 0.005
    vertex 0.04 0.05214652260480346 0
  endloop
endfacet
facet normal 1 9.80931e-30 1.38778e-15
  outer loop
    vertex 0.04 0.06 0.009999999999999972
    vertex 0.03999999999999999 0.05607326130240173 0.015
    vertex 0.04 0.05214652260480346 0.01000000000000003
  endloop
endfacet
facet normal 0.881065 0.472996 -0
  outer loop
    vertex 0.04349932940638145 0.04562820727920303 0
    vertex 0.04174966470319073 0.04888736494200324 0.005
    vertex 0.04349932940638145 0.04562820727920303 0.01000000000000003
  endloop
endfacet
facet normal 0.881065 0.472996 0
  outer loop
    vertex 0.04 0.05214652260480346 0.02
    vertex 0.04174966470319073 0.04888736494200324 0.015
    vertex 0.04 0.05214652260480346 0.009999999999999972
  endloop
endfacet
facet normal 0.881065 0.472996 0
  outer loop
    vertex 0.04 0.05214652260480346 0.009999999999999972
    vertex 0.04174966470319073 0.04888736494200324 0.005
    vertex 0.04 0.05214652260480346 0
  endloop
endfacet
facet normal 0.881065 0.472996 -0
  outer loop
    vertex 0.04349932940638145 0.04562820727920303 0.01000000000000003
    vertex 0.04174966470319073 0.04888736494200324 0.015
    vertex 0.04349932940638145 0.04562820727920303 0.02
  endloop
endfacet
facet normal 0.881065 0.472996 0
  outer loop
    vertex 0.04349932940638145 0.04562820727920303 0.01000000000000003
    vertex 0.04174966470319073 0.04888736494200324 0.005
    vertex 0.04 0.05214652260480346 0.009999999999999972
  endloop
endfacet
facet normal 0.881065 0.472996 0
  outer loop
    vertex 0.04 0.05214652260480346 0.009999999999999972
    vertex 0.04174966470319073 0.04888736494200324 0.015
    vertex 0.04349932940638145 0.04562820727920303 0.01000000000000003
  endloop
endfacet
facet normal 0.881065 0.472996 0
  outer loop
    vertex 0.04 0.05214652260480346 0
    vertex 0.04174966470319073 0.04888736494200324 0.005
    vertex 0.04349932940638145 0.04562820727920303 0
  endloop
endfacet
facet normal 0.881065 0.472996 0
  outer loop
    vertex 0.04349932940638145 0.04562820727920303 0.02
    vertex 0.04174966470319073 0.04888736494200324 0.015
    vertex 0.04 0.05214652260480346 0.02
  endloop
endfacet
facet normal 0.832114 0.554604 -0
  outer loop
    vertex 0.04784378963803465 0.03910989195360259 0
    vertex 0.04567155952220806 0.04236904961640281 0.005
    vertex 0.04784378963803465 0.03910989195360259 0.01000000000000003
  endloop
endfacet
facet normal 0.832114 0.554604 0
  outer loop
    vertex 0.04349932940638145 0.04562820727920303 0.02
    vertex 0.04567155952220806 0.04236904961640281 0.015
    vertex 0.04349932940638145 0.04562820727920303 0.009999999999999972
  endloop
endfacet
facet normal 0.832114 0.554604 0
  outer loop
    vertex 0.04349932940638145 0.04562820727920303 0.009999999999999972
    vertex 0.04567155952220806 0.04236904961640281 0.005
    vertex 0.04349932940638145 0.04562820727920303 0
  endloop
endfacet
facet normal 0.832114 0.554604 -0
  outer loop
    vertex 0.04784378963803465 0.03910989195360259 0.01000000000000003
    vertex 0.04567155952220806 0.04236904961640281 0.015
    vertex 0.04784378963803465 0.03910989195360259 0.02
  endloop
endfacet
facet normal 0.832114 0.554604 -5.62278e-16
  outer loop
    vertex 0.04349932940638145 0.04562820727920303 0
    vertex 0.04567155952220806 0.04236904961640281 0.005
    vertex 0.04784378963803465 0.03910989195360259 0
  endloop
endfacet
facet normal 0.832114 0.554604 5.62278e-16
  outer loop
    vertex 0.04784378963803465 0.03910989195360259 0.02
    vertex 0.04567155952220806 0.04236904961640281 0.015
    vertex 0.04349932940638145 0.04562820727920303 0.02
  endloop
endfacet
facet normal 0.832114 0.554604 5.62278e-16
  outer loop
    vertex 0.04784378963803465 0.03910989195360259 0.01000000000000003
    vertex 0.04567155952220806 0.04236904961640281 0.005
    vertex 0.04349932940638145 0.04562820727920303 0.009999999999999972
  endloop
endfacet
facet normal 0.832114 0.554604 -5.62278e-16
  outer loop
    vertex 0.04349932940638145 0.04562820727920303 0.009999999999999972
    vertex 0.04567155952220806 0.04236904961640281 0.015
    vertex 0.04784378963803465 0.03910989195360259 0.01000000000000003
  endloop
endfacet
facet normal 0.792134 -0.610348 0
  outer loop
    vertex 0.04784378963803465 0.03910989195360259 0.02
    vertex 0.04533257244019197 0.03585073429080237 0.015
    vertex 0.04784378963803465 0.03910989195360259 0.009999999999999972
  endloop
endfacet
facet normal 0.792134 -0.610348 0
  outer loop
    vertex 0.04282135524234929 0.03259157662800216 0
    vertex 0.04533257244019197 0.03585073429080237 0.005
    vertex 0.04282135524234929 0.03259157662800216 0.01000000000000003
  endloop
endfacet
facet normal 0.792134 -0.610348 0
  outer loop
    vertex 0.04784378963803465 0.03910989195360259 0.009999999999999972
    vertex 0.04533257244019197 0.03585073429080237 0.005
    vertex 0.04784378963803465 0.03910989195360259 0
  endloop
endfacet
facet normal 0.792134 -0.610348 0
  outer loop
    vertex 0.04282135524234929 0.03259157662800216 0.01000000000000003
    vertex 0.04533257244019197 0.03585073429080237 0.015
    vertex 0.04282135524234929 0.03259157662800216 0.02
  endloop
endfacet
facet normal 0.792134 -0.610348 1.39992e-15
  outer loop
    vertex 0.04282135524234929 0.03259157662800216 0.01000000000000003
    vertex 0.04533257244019197 0.03585073429080237 0.005
    vertex 0.04784378963803465 0.03910989195360259 0.009999999999999972
  endloop
endfacet
facet normal 0.792134 -0.610348 1.39992e-15
  outer loop
    vertex 0.04282135524234929 0.03259157662800216 0.02
    vertex 0.04533257244019197 0.03585073429080237 0.015
    vertex 0.04784378963803465 0.03910989195360259 0.02
  endloop
endfacet
facet normal 0.792134 -0.610348 -1.39992e-15
  outer loop
    vertex 0.04784378963803465 0.03910989195360259 0.009999999999999972
    vertex 0.04533257244019197 0.03585073429080237 0.015
    vertex 0.04282135524234929 0.03259157662800216 0.01000000000000003
  endloop
endfacet
facet normal 0.792134 -0.610348 -1.39992e-15
  outer loop
    vertex 0.04784378963803465 0.03910989195360259 0
    vertex 0.04533257244019197 0.03585073429080237 0.005
    vertex 0.04282135524234929 0.03259157662800216 0
  endloop
endfacet
facet normal 0.801611 -0.597846 0
  outer loop
    vertex 0.04282135524234929 0.03259157662800216 0.02
    vertex 0.04039065795095102 0.02933241896520195 0.015
    vertex 0.04282135524234929 0.03259157662800216 0.009999999999999972
  endloop
endfacet
facet normal 0.801611 -0.597846 0
  outer loop
    vertex 0.03795996065955273 0.02607326130240173 0
    vertex 0.04039065795095102 0.02933241896520195 0.005
    vertex 0.03795996065955273 0.02607326130240173 0.01000000000000003
  endloop
endfacet
facet normal 0.801611 -0.597846 0
  outer loop
    vertex 0.04282135524234929 0.03259157662800216 0.009999999999999972
    vertex 0.04039065795095102 0.02933241896520195 0.005
    vertex 0.04282135524234929 0.03259157662800216 0
  endloop
endfacet
facet normal 0.801611 -0.597846 0
  outer loop
    vertex 0.03795996065955273 0.02607326130240173 0.01000000000000003
    vertex 0.04039065795095102 0.02933241896520195 0.015
    vertex 0.03795996065955273 0.02607326130240173 0.02
  endloop
endfacet
facet normal 0.801611 -0.597846 5e-16
  outer loop
    vertex 0.03795996065955273 0.02607326130240173 0.01000000000000003
    vertex 0.04039065795095102 0.02933241896520195 0.005
    vertex 0.04282135524234929 0.03259157662800216 0.009999999999999972
  endloop
endfacet
facet normal 0.801611 -0.597846 5e-16
  outer loop
    vertex 0.03795996065955273 0.02607326130240173 0.02
    vertex 0.04039065795095102 0.02933241896520195 0.015
    vertex 0.04282135524234929 0.03259157662800216 0.02
  endloop
endfacet
facet normal 0.801611 -0.597846 -5.83333e-16
  outer loop
    vertex 0.04282135524234929 0.03259157662800216 0
    vertex 0.04039065795095102 0.02933241896520195 0.005
    vertex 0.03795996065955273 0.02607326130240173 0
  endloop
endfacet
facet normal 0.801611 -0.597846 -5.83333e-16
  outer loop
    vertex 0.04282135524234929 0.03259157662800216 0.009999999999999972
    vertex 0.04039065795095102 0.02933241896520195 0.015
    vertex 0.03795996065955273 0.02607326130240173 0.01000000000000003
  endloop
endfacet
facet normal 0.951022 0.309122 6.42627e-16
  outer loop
    vertex 0.03795996065955273 0.02607326130240173 0
    vertex 0.03901932336077486 0.02281410363960151 0.005
    vertex 0.04007868606199699 0.0195549459768013 0
  endloop
endfacet
facet normal 0.951022 0.309122 -6.67343e-16
  outer loop
    vertex 0.04007868606199699 0.0195549459768013 0.02
    vertex 0.03901932336077486 0.02281410363960151 0.015
    vertex 0.03795996065955273 0.02607326130240173 0.02
  endloop
endfacet
facet normal 0.951022 0.309122 6.42627e-16
  outer loop
    vertex 0.03795996065955273 0.02607326130240173 0.009999999999999972
    vertex 0.03901932336077486 0.02281410363960151 0.015
    vertex 0.04007868606199699 0.0195549459768013 0.01000000000000003
  endloop
endfacet
facet normal 0.951022 0.309122 -6.67343e-16
  outer loop
    vertex 0.04007868606199699 0.0195549459768013 0.01000000000000003
    vertex 0.03901932336077486 0.02281410363960151 0.005
    vertex 0.03795996065955273 0.02607326130240173 0.009999999999999972
  endloop
endfacet
facet normal 0.951022 0.309122 0
  outer loop
    vertex 0.03795996065955273 0.02607326130240173 0.009999999999999972
    vertex 0.03901932336077486 0.02281410363960151 0.005
    vertex 0.03795996065955273 0.02607326130240173 0
  endloop
endfacet
facet normal 0.951022 0.309122 0
  outer loop
    vertex 0.03795996065955273 0.02607326130240173 0.02
    vertex 0.03901932336077486 0.02281410363960151 0.015
    vertex 0.03795996065955273 0.02607326130240173 0.009999999999999972
  endloop
endfacet
facet normal 0.951022 0.309122 -0
  outer loop
    vertex 0.04007868606199699 0.0195549459768013 0
    vertex 0.03901932336077486 0.02281410363960151 0.005
    vertex 0.04007868606199699 0.0195549459768013 0.01000000000000003
  endloop
endfacet
facet normal 0.951022 0.309122 -0
  outer loop
    vertex 0.04007868606199699 0.0195549459768013 0.01000000000000003
    vertex 0.03901932336077486 0.02281410363960151 0.015
    vertex 0.04007868606199699 0.0195549459768013 0.02
  endloop
endfacet
facet normal 0.962795 0.270231 -6.75605e-16
  outer loop
    vertex 0.04190820536588045 0.01303663065120086 0.01000000000000003
    vertex 0.04099344571393872 0.01629578831400108 0.005000000000000001
    vertex 0.04007868606199699 0.0195549459768013 0.009999999999999972
  endloop
endfacet
facet normal 0.962795 0.270231 6.50582e-16
  outer loop
    vertex 0.04007868606199699 0.0195549459768013 0.009999999999999972
    vertex 0.04099344571393872 0.01629578831400108 0.015
    vertex 0.04190820536588045 0.01303663065120086 0.01000000000000003
  endloop
endfacet
facet normal 0.962795 0.270231 -6.75605e-16
  outer loop
    vertex 0.04190820536588045 0.01303663065120086 0.02
    vertex 0.04099344571393872 0.01629578831400108 0.015
    vertex 0.04007868606199699 0.0195549459768013 0.02
  endloop
endfacet
facet normal 0.962795 0.270231 6.50582e-16
  outer loop
    vertex 0.04007868606199699 0.0195549459768013 0
    vertex 0.04099344571393872 0.01629578831400108 0.005000000000000001
    vertex 0.04190820536588045 0.01303663065120086 0
  endloop
endfacet
facet normal 0.962795 0.270231 0
  outer loop
    vertex 0.04007868606199699 0.0195549459768013 0.009999999999999972
    vertex 0.04099344571393872 0.01629578831400108 0.005000000000000001
    vertex 0.04007868606199699 0.0195549459768013 0
  endloop
endfacet
facet normal 0.962795 0.270231 0
  outer loop
    vertex 0.04007868606199699 0.0195549459768013 0.02
    vertex 0.04099344571393872 0.01629578831400108 0.015
    vertex 0.04007868606199699 0.0195549459768013 0.009999999999999972
  endloop
endfacet
facet normal 0.962795 0.270231 -0
  outer loop
    vertex 0.04190820536588045 0.01303663065120086 0
    vertex 0.04099344571393872 0.01629578831400108 0.005000000000000001
    vertex 0.04190820536588045 0.01303663065120086 0.01000000000000003
  endloop
endfacet
facet normal 0.962795 0.270231 -0
  outer loop
    vertex 0.04190820536588045 0.01303663065120086 0.01000000000000003
    vertex 0.04099344571393872 0.01629578831400108 0.015
    vertex 0.04190820536588045 0.01303663065120086 0.02
  endloop
endfacet
facet normal 0.752809 -0.658239 0
  outer loop
    vertex 0.04190820536588045 0.01303663065120086 0.02
    vertex 0.03905846877532124 0.009777472988400645 0.015
    vertex 0.04190820536588045 0.01303663065120086 0.009999999999999972
  endloop
endfacet
facet normal 0.752809 -0.658239 0
  outer loop
    vertex 0.03620873218476201 0.006518315325600432 0
    vertex 0.03905846877532124 0.009777472988400645 0.005000000000000001
    vertex 0.03620873218476201 0.006518315325600432 0.01000000000000003
  endloop
endfacet
facet normal 0.752809 -0.658239 0
  outer loop
    vertex 0.03620873218476201 0.006518315325600432 0.01000000000000003
    vertex 0.03905846877532124 0.009777472988400645 0.015
    vertex 0.03620873218476201 0.006518315325600432 0.02
  endloop
endfacet
facet normal 0.752809 -0.658239 0
  outer loop
    vertex 0.04190820536588045 0.01303663065120086 0.009999999999999972
    vertex 0.03905846877532124 0.009777472988400645 0.005000000000000001
    vertex 0.04190820536588045 0.01303663065120086 0
  endloop
endfacet
facet normal 0.752809 -0.658239 1.01738e-15
  outer loop
    vertex 0.03620873218476201 0.006518315325600432 0.01000000000000003
    vertex 0.03905846877532124 0.009777472988400645 0.005000000000000001
    vertex 0.04190820536588045 0.01303663065120086 0.009999999999999972
  endloop
endfacet
facet normal 0.752809 -0.658239 -1.01738e-15
  outer loop
    vertex 0.04190820536588045 0.01303663065120086 0.009999999999999972
    vertex 0.03905846877532124 0.009777472988400645 0.015
    vertex 0.03620873218476201 0.006518315325600432 0.01000000000000003
  endloop
endfacet
facet normal 0.752809 -0.658239 -1.01738e-15
  outer loop
    vertex 0.04190820536588045 0.01303663065120086 0
    vertex 0.03905846877532124 0.009777472988400645 0.005000000000000001
    vertex 0.03620873218476201 0.006518315325600432 0
  endloop
endfacet
facet normal 0.752809 -0.658239 1.01738e-15
  outer loop
    vertex 0.03620873218476201 0.006518315325600432 0.02
    vertex 0.03905846877532124 0.009777472988400645 0.015
    vertex 0.04190820536588045 0.01303663065120086 0.02
  endloop
endfacet
endsolid Created by Gmsh
