solid Created by Gmsh
facet normal 1 -1.84691e-15 0
  outer loop
    vertex 0.04 0.0524859268010178 0
    vertex 0.04000000000000001 0.0562429634005089 0.005000000000000001
    vertex 0.04 0.0524859268010178 0.01000000000000003
  endloop
endfacet
facet normal 1 1.84691e-15 0
  outer loop
    vertex 0.04 0.06 0.02
    vertex 0.04000000000000001 0.0562429634005089 0.015
    vertex 0.04 0.06 0.009999999999999972
  endloop
endfacet
facet normal 1 -1.84691e-15 0
  outer loop
    vertex 0.04 0.0524859268010178 0.01000000000000003
    vertex 0.04000000000000001 0.0562429634005089 0.015
    vertex 0.04 0.0524859268010178 0.02
  endloop
endfacet
facet normal 1 1.84691e-15 0
  outer loop
    vertex 0.04 0.06 0.009999999999999972
    vertex 0.04000000000000001 0.0562429634005089 0.005000000000000001
    vertex 0.04 0.06 0
  endloop
endfacet
facet normal 1 0 -1.38778e-15
  outer loop
    vertex 0.04 0.06 0
    vertex 0.04000000000000001 0.0562429634005089 0.005000000000000001
    vertex 0.04 0.0524859268010178 0
  endloop
endfacet
facet normal 1 -0 1.38778e-15
  outer loop
    vertex 0.04 0.0524859268010178 0.02
    vertex 0.04000000000000001 0.0562429634005089 0.015
    vertex 0.04 0.06 0.02
  endloop
endfacet
facet normal 1 1.02524e-29 1.38778e-15
  outer loop
    vertex 0.04 0.0524859268010178 0.01000000000000003
    vertex 0.04000000000000001 0.0562429634005089 0.005000000000000001
    vertex 0.04 0.06 0.009999999999999972
  endloop
endfacet
facet normal 1 -1.02524e-29 -1.38778e-15
  outer loop
    vertex 0.04 0.06 0.009999999999999972
    vertex 0.04000000000000001 0.0562429634005089 0.015
    vertex 0.04 0.0524859268010178 0.01000000000000003
  endloop
endfacet
facet normal 0.865053 -0.50168 0
  outer loop
    vertex 0.03619515322749122 0.04592518595089057 0
    vertex 0.0380975766137456 0.04920555637595418 0.005
    vertex 0.03619515322749122 0.04592518595089057 0.01000000000000003
  endloop
endfacet
facet normal 0.865053 -0.50168 0
  outer loop
    vertex 0.04 0.0524859268010178 0.02
    vertex 0.0380975766137456 0.04920555637595418 0.015
    vertex 0.04 0.0524859268010178 0.009999999999999972
  endloop
endfacet
facet normal 0.865053 -0.50168 0
  outer loop
    vertex 0.03619515322749122 0.04592518595089057 0.01000000000000003
    vertex 0.0380975766137456 0.04920555637595418 0.015
    vertex 0.03619515322749122 0.04592518595089057 0.02
  endloop
endfacet
facet normal 0.865053 -0.50168 0
  outer loop
    vertex 0.04 0.0524859268010178 0.009999999999999972
    vertex 0.0380975766137456 0.04920555637595418 0.005
    vertex 0.04 0.0524859268010178 0
  endloop
endfacet
facet normal 0.865053 -0.50168 1.20619e-15
  outer loop
    vertex 0.04 0.0524859268010178 0.009999999999999972
    vertex 0.0380975766137456 0.04920555637595418 0.015
    vertex 0.03619515322749122 0.04592518595089057 0.01000000000000003
  endloop
endfacet
facet normal 0.865053 -0.50168 1.20619e-15
  outer loop
    vertex 0.04 0.0524859268010178 0
    vertex 0.0380975766137456 0.04920555637595418 0.005
    vertex 0.03619515322749122 0.04592518595089057 0
  endloop
endfacet
facet normal 0.865053 -0.50168 -1.20619e-15
  outer loop
    vertex 0.03619515322749122 0.04592518595089057 0.02
    vertex 0.0380975766137456 0.04920555637595418 0.015
    vertex 0.04 0.0524859268010178 0.02
  endloop
endfacet
facet normal 0.865053 -0.50168 -1.20619e-15
  outer loop
    vertex 0.03619515322749122 0.04592518595089057 0.01000000000000003
    vertex 0.0380975766137456 0.04920555637595418 0.005
    vertex 0.04 0.0524859268010178 0.009999999999999972
  endloop
endfacet
facet normal 0.845746 -0.533586 0
  outer loop
    vertex 0.03619515322749122 0.04592518595089057 0.02
    vertex 0.03412554728906737 0.04264481552582695 0.015
    vertex 0.03619515322749122 0.04592518595089057 0.009999999999999972
  endloop
endfacet
facet normal 0.845746 -0.533586 0
  outer loop
    vertex 0.03205594135064353 0.03936444510076335 0
    vertex 0.03412554728906737 0.04264481552582695 0.004999999999999999
    vertex 0.03205594135064353 0.03936444510076335 0.01000000000000003
  endloop
endfacet
facet normal 0.845746 -0.533586 0
  outer loop
    vertex 0.03619515322749122 0.04592518595089057 0.009999999999999972
    vertex 0.03412554728906737 0.04264481552582695 0.004999999999999999
    vertex 0.03619515322749122 0.04592518595089057 0
  endloop
endfacet
facet normal 0.845746 -0.533586 0
  outer loop
    vertex 0.03205594135064353 0.03936444510076335 0.01000000000000003
    vertex 0.03412554728906737 0.04264481552582695 0.015
    vertex 0.03205594135064353 0.03936444510076335 0.02
  endloop
endfacet
facet normal 0.845746 -0.533586 -3.49412e-16
  outer loop
    vertex 0.03619515322749122 0.04592518595089057 0
    vertex 0.03412554728906737 0.04264481552582695 0.004999999999999999
    vertex 0.03205594135064353 0.03936444510076335 0
  endloop
endfacet
facet normal 0.845746 -0.533586 3.49412e-16
  outer loop
    vertex 0.03205594135064353 0.03936444510076335 0.02
    vertex 0.03412554728906737 0.04264481552582695 0.015
    vertex 0.03619515322749122 0.04592518595089057 0.02
  endloop
endfacet
facet normal 0.845746 -0.533586 3.49412e-16
  outer loop
    vertex 0.03205594135064353 0.03936444510076335 0.01000000000000003
    vertex 0.03412554728906737 0.04264481552582695 0.004999999999999999
    vertex 0.03619515322749122 0.04592518595089057 0.009999999999999972
  endloop
endfacet
facet normal 0.845746 -0.533586 -3.49412e-16
  outer loop
    vertex 0.03619515322749122 0.04592518595089057 0.009999999999999972
    vertex 0.03412554728906737 0.04264481552582695 0.015
    vertex 0.03205594135064353 0.03936444510076335 0.01000000000000003
  endloop
endfacet
facet normal 0.861412 0.507906 -0
  outer loop
    vertex 0.03592428832251583 0.03280370425063613 0
    vertex 0.03399011483657968 0.03608407467569973 0.005000000000000001
    vertex 0.03592428832251583 0.03280370425063613 0.01000000000000003
  endloop
endfacet
facet normal 0.861412 0.507906 0
  outer loop
    vertex 0.03205594135064353 0.03936444510076335 0.02
    vertex 0.03399011483657968 0.03608407467569973 0.015
    vertex 0.03205594135064353 0.03936444510076335 0.009999999999999972
  endloop
endfacet
facet normal 0.861412 0.507906 -0
  outer loop
    vertex 0.03592428832251583 0.03280370425063613 0.01000000000000003
    vertex 0.03399011483657968 0.03608407467569973 0.015
    vertex 0.03592428832251583 0.03280370425063613 0.02
  endloop
endfacet
facet normal 0.861412 0.507906 0
  outer loop
    vertex 0.03205594135064353 0.03936444510076335 0.009999999999999972
    vertex 0.03399011483657968 0.03608407467569973 0.005000000000000001
    vertex 0.03205594135064353 0.03936444510076335 0
  endloop
endfacet
facet normal 0.861412 0.507906 9.34196e-16
  outer loop
    vertex 0.03205594135064353 0.03936444510076335 0
    vertex 0.03399011483657968 0.03608407467569973 0.005000000000000001
    vertex 0.03592428832251583 0.03280370425063613 0
  endloop
endfacet
facet normal 0.861412 0.507906 9.34196e-16
  outer loop
    vertex 0.03205594135064353 0.03936444510076335 0.009999999999999972
    vertex 0.03399011483657968 0.03608407467569973 0.015
    vertex 0.03592428832251583 0.03280370425063613 0.01000000000000003
  endloop
endfacet
facet normal 0.861412 0.507906 -9.78681e-16
  outer loop
    vertex 0.03592428832251583 0.03280370425063613 0.02
    vertex 0.03399011483657968 0.03608407467569973 0.015
    vertex 0.03205594135064353 0.03936444510076335 0.02
  endloop
endfacet
facet normal 0.861412 0.507906 -9.78681e-16
  outer loop
    vertex 0.03592428832251583 0.03280370425063613 0.01000000000000003
    vertex 0.03399011483657968 0.03608407467569973 0.005000000000000001
    vertex 0.03205594135064353 0.03936444510076335 0.009999999999999972
  endloop
endfacet
facet normal 0.950594 -0.310436 1.32546e-15
  outer loop
    vertex 0.03592428832251583 0.03280370425063613 0.009999999999999972
    vertex 0.0348530179625476 0.02952333382557251 0.015
    vertex 0.03378174760257938 0.0262429634005089 0.01000000000000003
  endloop
endfacet
facet normal 0.950594 -0.310436 -1.54637e-15
  outer loop
    vertex 0.03378174760257938 0.0262429634005089 0.01000000000000003
    vertex 0.0348530179625476 0.02952333382557252 0.005
    vertex 0.03592428832251583 0.03280370425063613 0.009999999999999972
  endloop
endfacet
facet normal 0.950594 -0.310436 1.54637e-15
  outer loop
    vertex 0.03592428832251583 0.03280370425063613 0
    vertex 0.0348530179625476 0.02952333382557252 0.005
    vertex 0.03378174760257938 0.0262429634005089 0
  endloop
endfacet
facet normal 0.950594 -0.310436 -1.32546e-15
  outer loop
    vertex 0.03378174760257938 0.0262429634005089 0.02
    vertex 0.0348530179625476 0.02952333382557251 0.015
    vertex 0.03592428832251583 0.03280370425063613 0.02
  endloop
endfacet
facet normal 0.950594 -0.310436 0
  outer loop
    vertex 0.03592428832251583 0.03280370425063613 0.009999999999999972
    vertex 0.0348530179625476 0.02952333382557252 0.005
    vertex 0.03592428832251583 0.03280370425063613 0
  endloop
endfacet
facet normal 0.950594 -0.310436 0
  outer loop
    vertex 0.03592428832251583 0.03280370425063613 0.02
    vertex 0.0348530179625476 0.02952333382557251 0.015
    vertex 0.03592428832251583 0.03280370425063613 0.009999999999999972
  endloop
endfacet
facet normal 0.950594 -0.310436 0
  outer loop
    vertex 0.03378174760257938 0.0262429634005089 0
    vertex 0.0348530179625476 0.02952333382557252 0.005
    vertex 0.03378174760257938 0.0262429634005089 0.01000000000000003
  endloop
endfacet
facet normal 0.950594 -0.310436 0
  outer loop
    vertex 0.03378174760257938 0.0262429634005089 0.01000000000000003
    vertex 0.0348530179625476 0.02952333382557251 0.015
    vertex 0.03378174760257938 0.0262429634005089 0.02
  endloop
endfacet
facet normal 0.860544 0.509376 -0
  outer loop
    vertex 0.03766519900835531 0.01968222255038167 0
    vertex 0.03572347330546734 0.02296259297544528 0.005
    vertex 0.03766519900835531 0.01968222255038167 0.01000000000000003
  endloop
endfacet
facet normal 0.860544 0.509376 0
  outer loop
    vertex 0.03378174760257938 0.0262429634005089 0.02
    vertex 0.03572347330546734 0.02296259297544528 0.015
    vertex 0.03378174760257938 0.0262429634005089 0.009999999999999972
  endloop
endfacet
facet normal 0.860544 0.509376 -0
  outer loop
    vertex 0.03766519900835531 0.01968222255038167 0.01000000000000003
    vertex 0.03572347330546734 0.02296259297544528 0.015
    vertex 0.03766519900835531 0.01968222255038167 0.02
  endloop
endfacet
facet normal 0.860544 0.509376 0
  outer loop
    vertex 0.03378174760257938 0.0262429634005089 0.009999999999999972
    vertex 0.03572347330546734 0.02296259297544528 0.005
    vertex 0.03378174760257938 0.0262429634005089 0
  endloop
endfacet
facet normal 0.860544 0.509376 9.77695e-16
  outer loop
    vertex 0.03378174760257938 0.0262429634005089 0
    vertex 0.03572347330546734 0.02296259297544528 0.005
    vertex 0.03766519900835531 0.01968222255038167 0
  endloop
endfacet
facet normal 0.860544 0.509376 9.77695e-16
  outer loop
    vertex 0.03378174760257938 0.0262429634005089 0.009999999999999972
    vertex 0.03572347330546734 0.02296259297544528 0.015
    vertex 0.03766519900835531 0.01968222255038167 0.01000000000000003
  endloop
endfacet
facet normal 0.860544 0.509376 -9.33254e-16
  outer loop
    vertex 0.03766519900835531 0.01968222255038167 0.01000000000000003
    vertex 0.03572347330546734 0.02296259297544528 0.005
    vertex 0.03378174760257938 0.0262429634005089 0.009999999999999972
  endloop
endfacet
facet normal 0.860544 0.509376 -9.33254e-16
  outer loop
    vertex 0.03766519900835531 0.01968222255038167 0.02
    vertex 0.03572347330546734 0.02296259297544528 0.015
    vertex 0.03378174760257938 0.0262429634005089 0.02
  endloop
endfacet
facet normal 0.927633 -0.373494 0
  outer loop
    vertex 0.03502363777187164 0.01312148170025445 0.02
    vertex 0.03634441839011347 0.01640185212531806 0.015
    vertex 0.03766519900835531 0.01968222255038167 0.02
  endloop
endfacet
facet normal 0.927633 -0.373494 0
  outer loop
    vertex 0.03502363777187164 0.01312148170025445 0.01000000000000003
    vertex 0.03634441839011347 0.01640185212531806 0.005
    vertex 0.03766519900835531 0.01968222255038167 0.009999999999999972
  endloop
endfacet
facet normal 0.927633 -0.373494 0
  outer loop
    vertex 0.03766519900835531 0.01968222255038167 0
    vertex 0.03634441839011347 0.01640185212531806 0.005
    vertex 0.03502363777187164 0.01312148170025445 0
  endloop
endfacet
facet normal 0.927633 -0.373494 0
  outer loop
    vertex 0.03766519900835531 0.01968222255038167 0.009999999999999972
    vertex 0.03634441839011347 0.01640185212531806 0.015
    vertex 0.03502363777187164 0.01312148170025445 0.01000000000000003
  endloop
endfacet
facet normal 0.927633 -0.373494 0
  outer loop
    vertex 0.03766519900835531 0.01968222255038167 0.009999999999999972
    vertex 0.03634441839011347 0.01640185212531806 0.005
    vertex 0.03766519900835531 0.01968222255038167 0
  endloop
endfacet
facet normal 0.927633 -0.373494 0
  outer loop
    vertex 0.03766519900835531 0.01968222255038167 0.02
    vertex 0.03634441839011347 0.01640185212531806 0.015
    vertex 0.03766519900835531 0.01968222255038167 0.009999999999999972
  endloop
endfacet
facet normal 0.927633 -0.373494 0
  outer loop
    vertex 0.03502363777187164 0.01312148170025445 0
    vertex 0.03634441839011347 0.01640185212531806 0.005
    vertex 0.03502363777187164 0.01312148170025445 0.01000000000000003
  endloop
endfacet
facet normal 0.927633 -0.373494 0
  outer loop
    vertex 0.03502363777187164 0.01312148170025445 0.01000000000000003
    vertex 0.03634441839011347 0.01640185212531806 0.015
    vertex 0.03502363777187164 0.01312148170025445 0.02
  endloop
endfacet
facet normal 0.962569 -0.271036 6.46223e-16
  outer loop
    vertex 0.03317629121934981 0.006560740850127228 0.01000000000000003
    vertex 0.03409996449561073 0.009841111275190838 0.005
    vertex 0.03502363777187164 0.01312148170025445 0.009999999999999972
  endloop
endfacet
facet normal 0.962569 -0.271036 -6.71078e-16
  outer loop
    vertex 0.03502363777187164 0.01312148170025445 0.009999999999999972
    vertex 0.03409996449561073 0.009841111275190838 0.015
    vertex 0.03317629121934981 0.006560740850127228 0.01000000000000003
  endloop
endfacet
facet normal 0.962569 -0.271036 6.46223e-16
  outer loop
    vertex 0.03317629121934981 0.006560740850127228 0.02
    vertex 0.03409996449561073 0.009841111275190838 0.015
    vertex 0.03502363777187164 0.01312148170025445 0.02
  endloop
endfacet
facet normal 0.962569 -0.271036 -6.71078e-16
  outer loop
    vertex 0.03502363777187164 0.01312148170025445 0
    vertex 0.03409996449561073 0.009841111275190838 0.005
    vertex 0.03317629121934981 0.006560740850127228 0
  endloop
endfacet
facet normal 0.962569 -0.271036 0
  outer loop
    vertex 0.03502363777187164 0.01312148170025445 0.009999999999999972
    vertex 0.03409996449561073 0.009841111275190838 0.005
    vertex 0.03502363777187164 0.01312148170025445 0
  endloop
endfacet
facet normal 0.962569 -0.271036 0
  outer loop
    vertex 0.03502363777187164 0.01312148170025445 0.02
    vertex 0.03409996449561073 0.009841111275190838 0.015
    vertex 0.03502363777187164 0.01312148170025445 0.009999999999999972
  endloop
endfacet
facet normal 0.962569 -0.271036 0
  outer loop
    vertex 0.03317629121934981 0.006560740850127228 0
    vertex 0.03409996449561073 0.009841111275190838 0.005
    vertex 0.03317629121934981 0.006560740850127228 0.01000000000000003
  endloop
endfacet
facet normal 0.962569 -0.271036 0
  outer loop
    vertex 0.03317629121934981 0.006560740850127228 0.01000000000000003
    vertex 0.03409996449561073 0.009841111275190838 0.015
    vertex 0.03317629121934981 0.006560740850127228 0.02
  endloop
endfacet
endsolid Created by Gmsh
