solid Created by Gmsh
facet normal -0.455289 -0.890344 -1.64542e-16
  outer loop
    vertex 0.04449999999999999 0.0421875 0
    vertex 0.04999999999999999 0.039375 0.01000000000000003
    vertex 0.039 0.045 0.009999999999999972
  endloop
endfacet
facet normal -0.455289 -0.890344 -1.64542e-16
  outer loop
    vertex 0.04999999999999999 0.039375 0.01000000000000003
    vertex 0.0445 0.0421875 0.02
    vertex 0.039 0.045 0.009999999999999972
  endloop
endfacet
facet normal -0.455289 -0.890344 0
  outer loop
    vertex 0.04449999999999999 0.0421875 0
    vertex 0.039 0.045 0.009999999999999972
    vertex 0.039 0.045 0
  endloop
endfacet
facet normal -0.455289 -0.890344 0
  outer loop
    vertex 0.039 0.045 0.009999999999999972
    vertex 0.0445 0.0421875 0.02
    vertex 0.039 0.045 0.02
  endloop
endfacet
facet normal -0.455289 -0.890344 -0
  outer loop
    vertex 0.04999999999999999 0.039375 0.01000000000000003
    vertex 0.04449999999999999 0.0421875 0
    vertex 0.04999999999999999 0.039375 0
  endloop
endfacet
facet normal -0.455289 -0.890344 0
  outer loop
    vertex 0.0445 0.0421875 0.02
    vertex 0.04999999999999999 0.039375 0.01000000000000003
    vertex 0.04999999999999999 0.039375 0.02
  endloop
endfacet
facet normal -0.203954 0.97898 -8.56376e-16
  outer loop
    vertex 0.03199999999999998 0.035625 0.02
    vertex 0.04099999999999997 0.0375 0.02
    vertex 0.03649999999999998 0.03656249999999999 0.01203842234541421
  endloop
endfacet
facet normal -0.203954 0.97898 0
  outer loop
    vertex 0.04999999999999999 0.039375 0.02
    vertex 0.04999999999999999 0.039375 0.009999999999999972
    vertex 0.04356282035998136 0.03803392090832945 0.013180867244295
  endloop
endfacet
facet normal -0.203954 0.97898 0
  outer loop
    vertex 0.023 0.03375 0.01000000000000003
    vertex 0.023 0.03375 0.02
    vertex 0.02943717964001862 0.03509107909167054 0.01318086724429502
  endloop
endfacet
facet normal -0.203954 0.97898 -1.18901e-15
  outer loop
    vertex 0.04099999999999997 0.0375 0.02
    vertex 0.04999999999999999 0.039375 0.02
    vertex 0.04356282035998136 0.03803392090832945 0.013180867244295
  endloop
endfacet
facet normal -0.203954 0.97898 -6.48551e-16
  outer loop
    vertex 0.023 0.03375 0.02
    vertex 0.03199999999999998 0.035625 0.02
    vertex 0.02943717964001862 0.03509107909167054 0.01318086724429502
  endloop
endfacet
facet normal -0.203954 0.97898 3.56158e-16
  outer loop
    vertex 0.03649999999999998 0.03656249999999999 0.01203842234541421
    vertex 0.0365 0.0365625 0.004886006976090676
    vertex 0.02924696809425366 0.03505145168630285 0.006373798186900198
  endloop
endfacet
facet normal -0.203954 0.97898 3.56158e-16
  outer loop
    vertex 0.0365 0.0365625 0.004886006976090676
    vertex 0.03649999999999998 0.03656249999999999 0.01203842234541421
    vertex 0.04375303190574632 0.03807354831369715 0.006373798186900196
  endloop
endfacet
facet normal -0.203954 0.97898 0
  outer loop
    vertex 0.023 0.03375 0
    vertex 0.023 0.03375 0.01000000000000003
    vertex 0.02924696809425366 0.03505145168630285 0.006373798186900198
  endloop
endfacet
facet normal -0.203954 0.97898 0
  outer loop
    vertex 0.04999999999999999 0.039375 0.009999999999999972
    vertex 0.04999999999999999 0.039375 0
    vertex 0.04375303190574632 0.03807354831369715 0.006373798186900196
  endloop
endfacet
facet normal -0.203954 0.97898 6.1813e-16
  outer loop
    vertex 0.03649999999999998 0.03656249999999999 0.01203842234541421
    vertex 0.04356282035998136 0.03803392090832945 0.013180867244295
    vertex 0.04375303190574632 0.03807354831369715 0.006373798186900196
  endloop
endfacet
facet normal -0.203954 0.97898 3.67015e-16
  outer loop
    vertex 0.02943717964001862 0.03509107909167054 0.01318086724429502
    vertex 0.03649999999999998 0.03656249999999999 0.01203842234541421
    vertex 0.02924696809425366 0.03505145168630285 0.006373798186900198
  endloop
endfacet
facet normal -0.203954 0.97898 2.45744e-16
  outer loop
    vertex 0.03200000000000001 0.035625 0
    vertex 0.023 0.03375 0
    vertex 0.02924696809425366 0.03505145168630285 0.006373798186900198
  endloop
endfacet
facet normal -0.203954 0.97898 5.7822e-16
  outer loop
    vertex 0.04999999999999999 0.039375 0
    vertex 0.04100000000000001 0.03750000000000001 0
    vertex 0.04375303190574632 0.03807354831369715 0.006373798186900196
  endloop
endfacet
facet normal -0.203954 0.97898 -6.16766e-16
  outer loop
    vertex 0.03199999999999998 0.035625 0.02
    vertex 0.03649999999999998 0.03656249999999999 0.01203842234541421
    vertex 0.02943717964001862 0.03509107909167054 0.01318086724429502
  endloop
endfacet
facet normal -0.203954 0.97898 -1.15238e-15
  outer loop
    vertex 0.03649999999999998 0.03656249999999999 0.01203842234541421
    vertex 0.04099999999999997 0.0375 0.02
    vertex 0.04356282035998136 0.03803392090832945 0.013180867244295
  endloop
endfacet
facet normal -0.203954 0.97898 8.29718e-16
  outer loop
    vertex 0.04100000000000001 0.03750000000000001 0
    vertex 0.03200000000000001 0.035625 0
    vertex 0.0365 0.0365625 0.004886006976090676
  endloop
endfacet
facet normal -0.203954 0.97898 2.95215e-16
  outer loop
    vertex 0.0365 0.0365625 0.004886006976090676
    vertex 0.03200000000000001 0.035625 0
    vertex 0.02924696809425366 0.03505145168630285 0.006373798186900198
  endloop
endfacet
facet normal -0.203954 0.97898 7.774e-16
  outer loop
    vertex 0.04100000000000001 0.03750000000000001 0
    vertex 0.0365 0.0365625 0.004886006976090676
    vertex 0.04375303190574632 0.03807354831369715 0.006373798186900196
  endloop
endfacet
facet normal -0.203954 0.97898 3.45406e-16
  outer loop
    vertex 0.023 0.03375 0.01000000000000003
    vertex 0.02943717964001862 0.03509107909167054 0.01318086724429502
    vertex 0.02924696809425366 0.03505145168630285 0.006373798186900198
  endloop
endfacet
facet normal -0.203954 0.97898 6.00862e-16
  outer loop
    vertex 0.04356282035998136 0.03803392090832945 0.013180867244295
    vertex 0.04999999999999999 0.039375 0.009999999999999972
    vertex 0.04375303190574632 0.03807354831369715 0.006373798186900196
  endloop
endfacet
facet normal -0.203954 -0.97898 -2.31453e-16
  outer loop
    vertex 0.03199999999999997 0.03187500000000001 0
    vertex 0.04099999999999997 0.03 0
    vertex 0.03649999999999997 0.0309375 0.007961577654585789
  endloop
endfacet
facet normal -0.203954 -0.97898 0
  outer loop
    vertex 0.04999999999999999 0.028125 0
    vertex 0.04999999999999999 0.028125 0.01000000000000003
    vertex 0.04356282035998136 0.02946607909167055 0.006819132755705001
  endloop
endfacet
facet normal -0.203954 -0.97898 -0
  outer loop
    vertex 0.023 0.03375 0.009999999999999972
    vertex 0.023 0.03375 0
    vertex 0.02943717964001862 0.03240892090832945 0.006819132755704983
  endloop
endfacet
facet normal -0.203954 -0.97898 4.86413e-16
  outer loop
    vertex 0.04099999999999997 0.03 0
    vertex 0.04999999999999999 0.028125 0
    vertex 0.04356282035998136 0.02946607909167055 0.006819132755705001
  endloop
endfacet
facet normal -0.203954 -0.97898 -2.16184e-16
  outer loop
    vertex 0.023 0.03375 0
    vertex 0.03199999999999997 0.03187500000000001 0
    vertex 0.02943717964001862 0.03240892090832945 0.006819132755704983
  endloop
endfacet
facet normal -0.203954 -0.97898 3.16585e-16
  outer loop
    vertex 0.0365 0.0309375 0.01511399302390932
    vertex 0.03649999999999997 0.0309375 0.007961577654585789
    vertex 0.04375303190574632 0.02942645168630285 0.0136262018130998
  endloop
endfacet
facet normal -0.203954 -0.97898 3.16585e-16
  outer loop
    vertex 0.03649999999999997 0.0309375 0.007961577654585789
    vertex 0.0365 0.0309375 0.01511399302390932
    vertex 0.02924696809425366 0.03244854831369716 0.0136262018130998
  endloop
endfacet
facet normal -0.203954 -0.97898 -0
  outer loop
    vertex 0.023 0.03375 0.02
    vertex 0.023 0.03375 0.009999999999999972
    vertex 0.02924696809425366 0.03244854831369716 0.0136262018130998
  endloop
endfacet
facet normal -0.203954 -0.97898 0
  outer loop
    vertex 0.04999999999999999 0.028125 0.01000000000000003
    vertex 0.04999999999999999 0.028125 0.02
    vertex 0.04375303190574632 0.02942645168630285 0.0136262018130998
  endloop
endfacet
facet normal -0.203954 -0.97898 -1.37362e-16
  outer loop
    vertex 0.03649999999999997 0.0309375 0.007961577654585789
    vertex 0.04356282035998136 0.02946607909167055 0.006819132755705001
    vertex 0.04375303190574632 0.02942645168630285 0.0136262018130998
  endloop
endfacet
facet normal -0.203954 -0.97898 6.07399e-16
  outer loop
    vertex 0.02943717964001862 0.03240892090832945 0.006819132755704983
    vertex 0.03649999999999997 0.0309375 0.007961577654585789
    vertex 0.02924696809425366 0.03244854831369716 0.0136262018130998
  endloop
endfacet
facet normal -0.203954 -0.97898 -2.02377e-16
  outer loop
    vertex 0.04999999999999999 0.028125 0.02
    vertex 0.04100000000000001 0.03 0.02
    vertex 0.04375303190574632 0.02942645168630285 0.0136262018130998
  endloop
endfacet
facet normal -0.203954 -0.97898 -9.9743e-16
  outer loop
    vertex 0.03200000000000001 0.03187499999999999 0.02
    vertex 0.023 0.03375 0.02
    vertex 0.02924696809425366 0.03244854831369716 0.0136262018130998
  endloop
endfacet
facet normal -0.203954 -0.97898 -3.6519e-16
  outer loop
    vertex 0.03199999999999997 0.03187500000000001 0
    vertex 0.03649999999999997 0.0309375 0.007961577654585789
    vertex 0.02943717964001862 0.03240892090832945 0.006819132755704983
  endloop
endfacet
facet normal -0.203954 -0.97898 3.40844e-16
  outer loop
    vertex 0.03649999999999997 0.0309375 0.007961577654585789
    vertex 0.04099999999999997 0.03 0
    vertex 0.04356282035998136 0.02946607909167055 0.006819132755705001
  endloop
endfacet
facet normal -0.203954 -0.97898 -4.90288e-16
  outer loop
    vertex 0.04100000000000001 0.03 0.02
    vertex 0.03200000000000001 0.03187499999999999 0.02
    vertex 0.0365 0.0309375 0.01511399302390932
  endloop
endfacet
facet normal -0.203954 -0.97898 -1.02341e-15
  outer loop
    vertex 0.0365 0.0309375 0.01511399302390932
    vertex 0.03200000000000001 0.03187499999999999 0.02
    vertex 0.02924696809425366 0.03244854831369716 0.0136262018130998
  endloop
endfacet
facet normal -0.203954 -0.97898 -1.8697e-16
  outer loop
    vertex 0.04100000000000001 0.03 0.02
    vertex 0.0365 0.0309375 0.01511399302390932
    vertex 0.04375303190574632 0.02942645168630285 0.0136262018130998
  endloop
endfacet
facet normal -0.203954 -0.97898 6.14055e-16
  outer loop
    vertex 0.023 0.03375 0.009999999999999972
    vertex 0.02943717964001862 0.03240892090832945 0.006819132755704983
    vertex 0.02924696809425366 0.03244854831369716 0.0136262018130998
  endloop
endfacet
facet normal -0.203954 -0.97898 -1.10338e-16
  outer loop
    vertex 0.04356282035998136 0.02946607909167055 0.006819132755705001
    vertex 0.04999999999999999 0.028125 0.01000000000000003
    vertex 0.04375303190574632 0.02942645168630285 0.0136262018130998
  endloop
endfacet
facet normal -0.203954 0.97898 -4.16615e-16
  outer loop
    vertex 0.03199999999999998 0.02437499999999999 0.02
    vertex 0.04099999999999997 0.02625 0.02
    vertex 0.03649999999999998 0.02531249999999999 0.01203842234541421
  endloop
endfacet
facet normal -0.203954 0.97898 0
  outer loop
    vertex 0.04999999999999999 0.028125 0.02
    vertex 0.04999999999999999 0.028125 0.009999999999999972
    vertex 0.04356282035998136 0.02678392090832945 0.013180867244295
  endloop
endfacet
facet normal -0.203954 0.97898 0
  outer loop
    vertex 0.023 0.0225 0.01000000000000003
    vertex 0.023 0.0225 0.02
    vertex 0.02943717964001862 0.02384107909167054 0.01318086724429502
  endloop
endfacet
facet normal -0.203954 0.97898 -6.89085e-16
  outer loop
    vertex 0.04099999999999997 0.02625 0.02
    vertex 0.04999999999999999 0.028125 0.02
    vertex 0.04356282035998136 0.02678392090832945 0.013180867244295
  endloop
endfacet
facet normal -0.203954 0.97898 -6.48551e-16
  outer loop
    vertex 0.023 0.0225 0.02
    vertex 0.03199999999999998 0.02437499999999999 0.02
    vertex 0.02943717964001862 0.02384107909167054 0.01318086724429502
  endloop
endfacet
facet normal -0.203954 0.97898 -1.18719e-16
  outer loop
    vertex 0.03649999999999998 0.02531249999999999 0.01203842234541421
    vertex 0.0365 0.02531249999999999 0.004886006976090676
    vertex 0.02924696809425366 0.02380145168630284 0.006373798186900198
  endloop
endfacet
facet normal -0.203954 0.97898 -1.18719e-16
  outer loop
    vertex 0.0365 0.02531249999999999 0.004886006976090676
    vertex 0.03649999999999998 0.02531249999999999 0.01203842234541421
    vertex 0.04375303190574632 0.02682354831369715 0.006373798186900196
  endloop
endfacet
facet normal -0.203954 0.97898 0
  outer loop
    vertex 0.023 0.0225 0
    vertex 0.023 0.0225 0.01000000000000003
    vertex 0.02924696809425366 0.02380145168630284 0.006373798186900198
  endloop
endfacet
facet normal -0.203954 0.97898 0
  outer loop
    vertex 0.04999999999999999 0.028125 0.009999999999999972
    vertex 0.04999999999999999 0.028125 0
    vertex 0.04375303190574632 0.02682354831369715 0.006373798186900196
  endloop
endfacet
facet normal -0.203954 0.97898 1.37362e-16
  outer loop
    vertex 0.03649999999999998 0.02531249999999999 0.01203842234541421
    vertex 0.04356282035998136 0.02678392090832945 0.013180867244295
    vertex 0.04375303190574632 0.02682354831369715 0.006373798186900196
  endloop
endfacet
facet normal -0.203954 0.97898 -1.15899e-16
  outer loop
    vertex 0.02943717964001862 0.02384107909167054 0.01318086724429502
    vertex 0.03649999999999998 0.02531249999999999 0.01203842234541421
    vertex 0.02924696809425366 0.02380145168630284 0.006373798186900198
  endloop
endfacet
facet normal -0.203954 0.97898 7.80598e-16
  outer loop
    vertex 0.03200000000000001 0.024375 0
    vertex 0.023 0.0225 0
    vertex 0.02924696809425366 0.02380145168630284 0.006373798186900198
  endloop
endfacet
facet normal -0.203954 0.97898 5.7822e-16
  outer loop
    vertex 0.04999999999999999 0.028125 0
    vertex 0.04100000000000001 0.02625 0
    vertex 0.04375303190574632 0.02682354831369715 0.006373798186900196
  endloop
endfacet
facet normal -0.203954 0.97898 -6.97919e-16
  outer loop
    vertex 0.03649999999999998 0.02531249999999999 0.01203842234541421
    vertex 0.04099999999999997 0.02625 0.02
    vertex 0.04356282035998136 0.02678392090832945 0.013180867244295
  endloop
endfacet
facet normal -0.203954 0.97898 -4.46344e-16
  outer loop
    vertex 0.03199999999999998 0.02437499999999999 0.02
    vertex 0.03649999999999998 0.02531249999999999 0.01203842234541421
    vertex 0.02943717964001862 0.02384107909167054 0.01318086724429502
  endloop
endfacet
facet normal -0.203954 0.97898 8.29718e-16
  outer loop
    vertex 0.04100000000000001 0.02625 0
    vertex 0.03200000000000001 0.024375 0
    vertex 0.0365 0.02531249999999999 0.004886006976090676
  endloop
endfacet
facet normal -0.203954 0.97898 6.49474e-16
  outer loop
    vertex 0.0365 0.02531249999999999 0.004886006976090676
    vertex 0.03200000000000001 0.024375 0
    vertex 0.02924696809425366 0.02380145168630284 0.006373798186900198
  endloop
endfacet
facet normal -0.203954 0.97898 7.774e-16
  outer loop
    vertex 0.04100000000000001 0.02625 0
    vertex 0.0365 0.02531249999999999 0.004886006976090676
    vertex 0.04375303190574632 0.02682354831369715 0.006373798186900196
  endloop
endfacet
facet normal -0.203954 0.97898 -1.53514e-16
  outer loop
    vertex 0.023 0.0225 0.01000000000000003
    vertex 0.02943717964001862 0.02384107909167054 0.01318086724429502
    vertex 0.02924696809425366 0.02380145168630284 0.006373798186900198
  endloop
endfacet
facet normal -0.203954 0.97898 1.10338e-16
  outer loop
    vertex 0.04356282035998136 0.02678392090832945 0.013180867244295
    vertex 0.04999999999999999 0.028125 0.009999999999999972
    vertex 0.04375303190574632 0.02682354831369715 0.006373798186900196
  endloop
endfacet
facet normal -0.206907 -0.978361 7.0953e-17
  outer loop
    vertex 0.03186594972552032 0.020625 0
    vertex 0.04073189945104064 0.01875 0
    vertex 0.03629892458828049 0.0196875 0.007904137800276738
  endloop
endfacet
facet normal -0.206907 -0.978361 -0
  outer loop
    vertex 0.023 0.0225 0.02
    vertex 0.023 0.0225 0.009999999999999972
    vertex 0.02996248682358247 0.02102755055032178 0.01323541179071846
  endloop
endfacet
facet normal -0.206907 -0.978361 0
  outer loop
    vertex 0.04959784917656097 0.016875 0.01000000000000003
    vertex 0.04959784917656097 0.016875 0.02
    vertex 0.04263536235297851 0.01834744944967821 0.01323541179071847
  endloop
endfacet
facet normal -0.206907 -0.978361 0
  outer loop
    vertex 0.04959784917656097 0.016875 0
    vertex 0.04959784917656097 0.016875 0.01000000000000003
    vertex 0.04328672713714748 0.01820969669806929 0.006739630225421636
  endloop
endfacet
facet normal -0.206907 -0.978361 -0
  outer loop
    vertex 0.023 0.0225 0.009999999999999972
    vertex 0.023 0.0225 0
    vertex 0.0293111220394135 0.02116530330193071 0.006739630225421627
  endloop
endfacet
facet normal -0.206907 -0.978361 -2.76352e-17
  outer loop
    vertex 0.03186594972552033 0.020625 0.02
    vertex 0.023 0.0225 0.02
    vertex 0.02996248682358247 0.02102755055032178 0.01323541179071846
  endloop
endfacet
facet normal -0.206907 -0.978361 1.93446e-16
  outer loop
    vertex 0.04959784917656097 0.016875 0.02
    vertex 0.04073189945104065 0.01875 0.02
    vertex 0.04263536235297851 0.01834744944967821 0.01323541179071847
  endloop
endfacet
facet normal -0.206907 -0.978361 -3.88326e-16
  outer loop
    vertex 0.04073189945104064 0.01875 0
    vertex 0.04959784917656097 0.016875 0
    vertex 0.04328672713714748 0.01820969669806929 0.006739630225421636
  endloop
endfacet
facet normal -0.206907 -0.978361 5.54751e-17
  outer loop
    vertex 0.023 0.0225 0
    vertex 0.03186594972552032 0.020625 0
    vertex 0.0293111220394135 0.02116530330193071 0.006739630225421627
  endloop
endfacet
facet normal -0.206907 -0.978361 -3.21616e-16
  outer loop
    vertex 0.04073189945104065 0.01875 0.02
    vertex 0.03186594972552033 0.020625 0.02
    vertex 0.03629892458828049 0.0196875 0.01476870271861243
  endloop
endfacet
facet normal -0.206907 -0.978361 -2.97914e-16
  outer loop
    vertex 0.03629892458828049 0.0196875 0.007904137800276738
    vertex 0.04073189945104064 0.01875 0
    vertex 0.04328672713714748 0.01820969669806929 0.006739630225421636
  endloop
endfacet
facet normal -0.206907 -0.978361 1.24131e-16
  outer loop
    vertex 0.03186594972552032 0.020625 0
    vertex 0.03629892458828049 0.0196875 0.007904137800276738
    vertex 0.0293111220394135 0.02116530330193071 0.006739630225421627
  endloop
endfacet
facet normal -0.206907 -0.978361 -0
  outer loop
    vertex 0.03629892458828049 0.0196875 0.01476870271861243
    vertex 0.03629892458828049 0.0196875 0.007904137800276738
    vertex 0.04263536235297851 0.01834744944967821 0.01323541179071847
  endloop
endfacet
facet normal -0.206907 -0.978361 0
  outer loop
    vertex 0.03629892458828049 0.0196875 0.007904137800276738
    vertex 0.03629892458828049 0.0196875 0.01476870271861243
    vertex 0.02996248682358247 0.02102755055032178 0.01323541179071846
  endloop
endfacet
facet normal -0.206907 -0.978361 -7.42687e-17
  outer loop
    vertex 0.03629892458828049 0.0196875 0.007904137800276738
    vertex 0.04328672713714748 0.01820969669806929 0.006739630225421636
    vertex 0.04263536235297851 0.01834744944967821 0.01323541179071847
  endloop
endfacet
facet normal -0.206907 -0.978361 -1.06761e-16
  outer loop
    vertex 0.0293111220394135 0.02116530330193071 0.006739630225421627
    vertex 0.03629892458828049 0.0196875 0.007904137800276738
    vertex 0.02996248682358247 0.02102755055032178 0.01323541179071846
  endloop
endfacet
facet normal -0.206907 -0.978361 -7.68753e-17
  outer loop
    vertex 0.023 0.0225 0.009999999999999972
    vertex 0.0293111220394135 0.02116530330193071 0.006739630225421627
    vertex 0.02996248682358247 0.02102755055032178 0.01323541179071846
  endloop
endfacet
facet normal -0.206907 -0.978361 7.20706e-18
  outer loop
    vertex 0.04328672713714748 0.01820969669806929 0.006739630225421636
    vertex 0.04959784917656097 0.016875 0.01000000000000003
    vertex 0.04263536235297851 0.01834744944967821 0.01323541179071847
  endloop
endfacet
facet normal -0.206907 -0.978361 6.74252e-17
  outer loop
    vertex 0.04073189945104065 0.01875 0.02
    vertex 0.03629892458828049 0.0196875 0.01476870271861243
    vertex 0.04263536235297851 0.01834744944967821 0.01323541179071847
  endloop
endfacet
facet normal -0.206907 -0.978361 -1.45223e-16
  outer loop
    vertex 0.03629892458828049 0.0196875 0.01476870271861243
    vertex 0.03186594972552033 0.020625 0.02
    vertex 0.02996248682358247 0.02102755055032178 0.01323541179071846
  endloop
endfacet
facet normal -0.997454 -0.0713115 -2.79372e-15
  outer loop
    vertex 0.04999999999999999 0.01125 0.01000000000000003
    vertex 0.04959784917656097 0.016875 0.009999999999999972
    vertex 0.0497989245882805 0.0140625 0.005
  endloop
endfacet
facet normal -0.997454 -0.0713115 2.76368e-15
  outer loop
    vertex 0.04959784917656097 0.016875 0.009999999999999972
    vertex 0.04999999999999999 0.01125 0.01000000000000003
    vertex 0.0497989245882805 0.0140625 0.015
  endloop
endfacet
facet normal -0.997454 -0.0713115 -2.77119e-15
  outer loop
    vertex 0.04999999999999999 0.01125 0.02
    vertex 0.04959784917656097 0.016875 0.02
    vertex 0.0497989245882805 0.0140625 0.015
  endloop
endfacet
facet normal -0.997454 -0.0713115 2.79372e-15
  outer loop
    vertex 0.04959784917656097 0.016875 0
    vertex 0.04999999999999999 0.01125 0
    vertex 0.0497989245882805 0.0140625 0.005
  endloop
endfacet
facet normal -0.997454 -0.0713115 -0
  outer loop
    vertex 0.04959784917656097 0.016875 0.009999999999999972
    vertex 0.04959784917656097 0.016875 0
    vertex 0.0497989245882805 0.0140625 0.005
  endloop
endfacet
facet normal -0.997454 -0.0713115 -0
  outer loop
    vertex 0.04959784917656097 0.016875 0.02
    vertex 0.04959784917656097 0.016875 0.009999999999999972
    vertex 0.0497989245882805 0.0140625 0.015
  endloop
endfacet
facet normal -0.997454 -0.0713115 0
  outer loop
    vertex 0.04999999999999999 0.01125 0
    vertex 0.04999999999999999 0.01125 0.01000000000000003
    vertex 0.0497989245882805 0.0140625 0.005
  endloop
endfacet
facet normal -0.997454 -0.0713115 0
  outer loop
    vertex 0.04999999999999999 0.01125 0.01000000000000003
    vertex 0.04999999999999999 0.01125 0.02
    vertex 0.0497989245882805 0.0140625 0.015
  endloop
endfacet
facet normal -1 0 2.77556e-15
  outer loop
    vertex 0.04999999999999999 0.01125 0
    vertex 0.04999999999999999 0.005624999999999998 0
    vertex 0.05 0.008437499999999997 0.005000000000000001
  endloop
endfacet
facet normal -1 2.7391e-29 2.77556e-15
  outer loop
    vertex 0.04999999999999999 0.01125 0.009999999999999972
    vertex 0.04999999999999999 0.005624999999999998 0.01000000000000003
    vertex 0.05 0.008437499999999997 0.015
  endloop
endfacet
facet normal -1 -2.7391e-29 -2.77556e-15
  outer loop
    vertex 0.04999999999999999 0.005624999999999998 0.01000000000000003
    vertex 0.04999999999999999 0.01125 0.009999999999999972
    vertex 0.05 0.008437499999999997 0.005000000000000001
  endloop
endfacet
facet normal -1 0 -2.77556e-15
  outer loop
    vertex 0.04999999999999999 0.005624999999999998 0.02
    vertex 0.04999999999999999 0.01125 0.02
    vertex 0.05 0.008437499999999997 0.015
  endloop
endfacet
facet normal -1 -4.93432e-15 -0
  outer loop
    vertex 0.04999999999999999 0.01125 0.009999999999999972
    vertex 0.04999999999999999 0.01125 0
    vertex 0.05 0.008437499999999997 0.005000000000000001
  endloop
endfacet
facet normal -1 -4.93432e-15 -0
  outer loop
    vertex 0.04999999999999999 0.01125 0.02
    vertex 0.04999999999999999 0.01125 0.009999999999999972
    vertex 0.05 0.008437499999999997 0.015
  endloop
endfacet
facet normal -1 4.93432e-15 0
  outer loop
    vertex 0.04999999999999999 0.005624999999999998 0
    vertex 0.04999999999999999 0.005624999999999998 0.01000000000000003
    vertex 0.05 0.008437499999999997 0.005000000000000001
  endloop
endfacet
facet normal -1 4.93432e-15 0
  outer loop
    vertex 0.04999999999999999 0.005624999999999998 0.01000000000000003
    vertex 0.04999999999999999 0.005624999999999998 0.02
    vertex 0.05 0.008437499999999997 0.015
  endloop
endfacet
endsolid Created by Gmsh
