solid Created by Gmsh
facet normal 0.991599 -0.129351 5.59566e-17
  outer loop
    vertex 0.01114456149971772 0.02410612902885866 0.007835298880900243
    vertex 0.01215646382953416 0.03186334672975187 0.01405075449243838
    vertex 0.01111861107655963 0.02390719374040634 0.01517399405030399
  endloop
endfacet
facet normal 0.991599 -0.129351 4.33057e-17
  outer loop
    vertex 0.01250625408561005 0.03454482999753337 0.007448382925090971
    vertex 0.01215646382953416 0.03186334672975187 0.01405075449243838
    vertex 0.01114456149971772 0.02410612902885866 0.007835298880900243
  endloop
endfacet
facet normal 0.991599 -0.129351 2.80241e-16
  outer loop
    vertex 0.01174233329187157 0.02868863248848766 0
    vertex 0.01114456149971772 0.02410612902885866 0.007835298880900243
    vertex 0.01049488886124771 0.0191257549923251 0
  endloop
endfacet
facet normal 0.991599 -0.129351 4.40861e-16
  outer loop
    vertex 0.01250625408561005 0.03454482999753337 0.007448382925090971
    vertex 0.01114456149971772 0.02410612902885866 0.007835298880900243
    vertex 0.01174233329187157 0.02868863248848766 0
  endloop
endfacet
facet normal 0.991599 -0.129351 4.36302e-16
  outer loop
    vertex 0.01298977772249542 0.03825150998465019 0
    vertex 0.01250625408561005 0.03454482999753337 0.007448382925090971
    vertex 0.01174233329187157 0.02868863248848766 0
  endloop
endfacet
facet normal 0.991599 -0.129351 -2.48516e-16
  outer loop
    vertex 0.009247444430623853 0.009562877496162525 0.02
    vertex 0.009912621029615831 0.01466210450244541 0.01222471519090674
    vertex 0.01049488886124771 0.01912575499232506 0.02
  endloop
endfacet
facet normal 0.991599 -0.129351 1.08065e-16
  outer loop
    vertex 0.009912621029615831 0.01466210450244541 0.01222471519090674
    vertex 0.009889368332425914 0.01448384991312368 0.004977826220754367
    vertex 0.01114456149971772 0.02410612902885866 0.007835298880900243
  endloop
endfacet
facet normal 0.991599 -0.129351 5.36964e-17
  outer loop
    vertex 0.01114456149971772 0.02410612902885866 0.007835298880900243
    vertex 0.01111861107655963 0.02390719374040634 0.01517399405030399
    vertex 0.009912621029615831 0.01466210450244541 0.01222471519090674
  endloop
endfacet
facet normal 0.991599 -0.129351 1.78524e-16
  outer loop
    vertex 0.01114456149971772 0.02410612902885866 0.007835298880900243
    vertex 0.009889368332425914 0.01448384991312368 0.004977826220754367
    vertex 0.01049488886124771 0.0191257549923251 0
  endloop
endfacet
facet normal 0.991599 -0.129351 -2.4317e-16
  outer loop
    vertex 0.009912621029615831 0.01466210450244541 0.01222471519090674
    vertex 0.01111861107655963 0.02390719374040634 0.01517399405030399
    vertex 0.01049488886124771 0.01912575499232506 0.02
  endloop
endfacet
facet normal 0.991599 -0.129351 0
  outer loop
    vertex 0.01423722215311927 0.04781438748081272 0.009999999999999972
    vertex 0.01341366263528447 0.04150100101924966 0.006691849053087669
    vertex 0.01423722215311927 0.04781438748081272 0
  endloop
endfacet
facet normal 0.991599 -0.129351 0
  outer loop
    vertex 0.008 0 0.01000000000000003
    vertex 0.008781764497240366 0.005992986889379898 0.01363138549961504
    vertex 0.008 0 0.02
  endloop
endfacet
facet normal 0.991599 -0.129351 3.93752e-16
  outer loop
    vertex 0.01423722215311927 0.04781438748081272 0
    vertex 0.01341366263528447 0.04150100101924966 0.006691849053087669
    vertex 0.01298977772249542 0.03825150998465019 0
  endloop
endfacet
facet normal 0.991599 -0.129351 -2.62033e-16
  outer loop
    vertex 0.008 0 0.02
    vertex 0.008781764497240366 0.005992986889379898 0.01363138549961504
    vertex 0.009247444430623853 0.009562877496162525 0.02
  endloop
endfacet
facet normal 0.991599 -0.129351 5.22676e-17
  outer loop
    vertex 0.01343724530095056 0.04168178513857508 0.01384685109833505
    vertex 0.01215646382953416 0.03186334672975187 0.01405075449243838
    vertex 0.01250625408561005 0.03454482999753337 0.007448382925090971
  endloop
endfacet
facet normal 0.991599 -0.129351 1.1126e-16
  outer loop
    vertex 0.008806044547118395 0.006179117138458954 0.00615298979559371
    vertex 0.009889368332425914 0.01448384991312368 0.004977826220754367
    vertex 0.009912621029615831 0.01466210450244541 0.01222471519090674
  endloop
endfacet
facet normal 0.991599 -0.129351 6.86985e-17
  outer loop
    vertex 0.008781764497240366 0.005992986889379898 0.01363138549961504
    vertex 0.008806044547118395 0.006179117138458954 0.00615298979559371
    vertex 0.009912621029615831 0.01466210450244541 0.01222471519090674
  endloop
endfacet
facet normal 0.991599 -0.129351 1.92484e-16
  outer loop
    vertex 0.01341366263528447 0.04150100101924966 0.006691849053087669
    vertex 0.01343724530095056 0.04168178513857508 0.01384685109833505
    vertex 0.01250625408561005 0.03454482999753337 0.007448382925090971
  endloop
endfacet
facet normal 0.991599 -0.129351 0
  outer loop
    vertex 0.01423722215311927 0.04781438748081272 0.02
    vertex 0.01343724530095056 0.04168178513857508 0.01384685109833505
    vertex 0.01423722215311927 0.04781438748081272 0.009999999999999972
  endloop
endfacet
facet normal 0.991599 -0.129351 0
  outer loop
    vertex 0.008 0 0
    vertex 0.008806044547118395 0.006179117138458954 0.00615298979559371
    vertex 0.008 0 0.01000000000000003
  endloop
endfacet
facet normal 0.991599 -0.129351 -6.70885e-16
  outer loop
    vertex 0.01298977772249542 0.03825150998465016 0.02
    vertex 0.01343724530095056 0.04168178513857508 0.01384685109833505
    vertex 0.01423722215311927 0.04781438748081272 0.02
  endloop
endfacet
facet normal 0.991599 -0.129351 1.85569e-16
  outer loop
    vertex 0.009247444430623857 0.009562877496162553 0
    vertex 0.008806044547118395 0.006179117138458954 0.00615298979559371
    vertex 0.008 0 0
  endloop
endfacet
facet normal 0.991599 -0.129351 -2.99811e-16
  outer loop
    vertex 0.009247444430623853 0.009562877496162525 0.02
    vertex 0.008781764497240366 0.005992986889379898 0.01363138549961504
    vertex 0.009912621029615831 0.01466210450244541 0.01222471519090674
  endloop
endfacet
facet normal 0.991599 -0.129351 3.85613e-16
  outer loop
    vertex 0.01298977772249542 0.03825150998465019 0
    vertex 0.01341366263528447 0.04150100101924966 0.006691849053087669
    vertex 0.01250625408561005 0.03454482999753337 0.007448382925090971
  endloop
endfacet
facet normal 0.991599 -0.129351 -4.91387e-16
  outer loop
    vertex 0.01049488886124771 0.01912575499232506 0.02
    vertex 0.01111861107655963 0.02390719374040634 0.01517399405030399
    vertex 0.01174233329187156 0.02868863248848762 0.02
  endloop
endfacet
facet normal 0.991599 -0.129351 -6.33289e-16
  outer loop
    vertex 0.01111861107655963 0.02390719374040634 0.01517399405030399
    vertex 0.01215646382953416 0.03186334672975187 0.01405075449243838
    vertex 0.01174233329187156 0.02868863248848762 0.02
  endloop
endfacet
facet normal 0.991599 -0.129351 2.64667e-16
  outer loop
    vertex 0.01049488886124771 0.0191257549923251 0
    vertex 0.009889368332425914 0.01448384991312368 0.004977826220754367
    vertex 0.009247444430623857 0.009562877496162553 0
  endloop
endfacet
facet normal 0.991599 -0.129351 -5.75772e-16
  outer loop
    vertex 0.01174233329187156 0.02868863248848762 0.02
    vertex 0.01215646382953416 0.03186334672975187 0.01405075449243838
    vertex 0.01298977772249542 0.03825150998465016 0.02
  endloop
endfacet
facet normal 0.991599 -0.129351 2.31714e-16
  outer loop
    vertex 0.009247444430623857 0.009562877496162553 0
    vertex 0.009889368332425914 0.01448384991312368 0.004977826220754367
    vertex 0.008806044547118395 0.006179117138458954 0.00615298979559371
  endloop
endfacet
facet normal 0.991599 -0.129351 -6.11847e-16
  outer loop
    vertex 0.01298977772249542 0.03825150998465016 0.02
    vertex 0.01215646382953416 0.03186334672975187 0.01405075449243838
    vertex 0.01343724530095056 0.04168178513857508 0.01384685109833505
  endloop
endfacet
facet normal 0.991599 -0.129351 7.38489e-17
  outer loop
    vertex 0.008 0 0.01000000000000003
    vertex 0.008806044547118395 0.006179117138458954 0.00615298979559371
    vertex 0.008781764497240366 0.005992986889379898 0.01363138549961504
  endloop
endfacet
facet normal 0.991599 -0.129351 2.07274e-16
  outer loop
    vertex 0.01423722215311927 0.04781438748081272 0.009999999999999972
    vertex 0.01343724530095056 0.04168178513857508 0.01384685109833505
    vertex 0.01341366263528447 0.04150100101924966 0.006691849053087669
  endloop
endfacet
endsolid Created by Gmsh
