solid Created by Gmsh
facet normal 1 0 0
  outer loop
    vertex 0.04 0.05897010560349381 0
    vertex 0.04 0.06 0
    vertex 0.04 0.06 0.009999999999999972
  endloop
endfacet
facet normal 1 0 0
  outer loop
    vertex 0.04 0.05897010560349381 0.01000000000000003
    vertex 0.04 0.06 0.02
    vertex 0.04 0.05897010560349381 0.02
  endloop
endfacet
facet normal 1 0 -0
  outer loop
    vertex 0.04 0.06 0.009999999999999972
    vertex 0.04 0.06 0.02
    vertex 0.04 0.05897010560349381 0.01000000000000003
  endloop
endfacet
facet normal 1 0 0
  outer loop
    vertex 0.04 0.05897010560349381 0
    vertex 0.04 0.06 0.009999999999999972
    vertex 0.04 0.05897010560349381 0.01000000000000003
  endloop
endfacet
facet normal 0.632438 0.774611 -1.72523e-15
  outer loop
    vertex 0.04 0.05897010560349381 0
    vertex 0.044514170183921 0.05528447400327545 0.005728862973760925
    vertex 0.04902834036784198 0.05159884240305708 0
  endloop
endfacet
facet normal 0.632438 0.774611 1.66222e-15
  outer loop
    vertex 0.04902834036784198 0.05159884240305708 0.02
    vertex 0.044514170183921 0.05528447400327545 0.01405396560956745
    vertex 0.04 0.05897010560349381 0.02
  endloop
endfacet
facet normal 0.632438 0.774611 -0
  outer loop
    vertex 0.044514170183921 0.05528447400327545 0.005728862973760925
    vertex 0.044514170183921 0.05528447400327545 0.01405396560956745
    vertex 0.04902834036784198 0.05159884240305708 0.01000000000000003
  endloop
endfacet
facet normal 0.632438 0.774611 0
  outer loop
    vertex 0.04 0.05897010560349381 0.009999999999999972
    vertex 0.044514170183921 0.05528447400327545 0.01405396560956745
    vertex 0.044514170183921 0.05528447400327545 0.005728862973760925
  endloop
endfacet
facet normal 0.632438 0.774611 0
  outer loop
    vertex 0.04 0.05897010560349381 0.02
    vertex 0.044514170183921 0.05528447400327545 0.01405396560956745
    vertex 0.04 0.05897010560349381 0.009999999999999972
  endloop
endfacet
facet normal 0.632438 0.774611 -0
  outer loop
    vertex 0.04902834036784198 0.05159884240305708 0
    vertex 0.044514170183921 0.05528447400327545 0.005728862973760925
    vertex 0.04902834036784198 0.05159884240305708 0.01000000000000003
  endloop
endfacet
facet normal 0.632438 0.774611 0
  outer loop
    vertex 0.04 0.05897010560349381 0.009999999999999972
    vertex 0.044514170183921 0.05528447400327545 0.005728862973760925
    vertex 0.04 0.05897010560349381 0
  endloop
endfacet
facet normal 0.632438 0.774611 -0
  outer loop
    vertex 0.04902834036784198 0.05159884240305708 0.01000000000000003
    vertex 0.044514170183921 0.05528447400327545 0.01405396560956745
    vertex 0.04902834036784198 0.05159884240305708 0.02
  endloop
endfacet
facet normal 0.804997 0.593279 0
  outer loop
    vertex 0.04902834036784198 0.05159884240305708 0.02
    vertex 0.05174463428700744 0.04791321080283872 0.015
    vertex 0.04902834036784198 0.05159884240305708 0.009999999999999972
  endloop
endfacet
facet normal 0.804997 0.593279 -0
  outer loop
    vertex 0.0544609282061729 0.04422757920262035 0
    vertex 0.05174463428700744 0.04791321080283872 0.005
    vertex 0.0544609282061729 0.04422757920262035 0.01000000000000003
  endloop
endfacet
facet normal 0.804997 0.593279 0
  outer loop
    vertex 0.04902834036784198 0.05159884240305708 0.009999999999999972
    vertex 0.05174463428700744 0.04791321080283872 0.005
    vertex 0.04902834036784198 0.05159884240305708 0
  endloop
endfacet
facet normal 0.804997 0.593279 -0
  outer loop
    vertex 0.0544609282061729 0.04422757920262035 0.01000000000000003
    vertex 0.05174463428700744 0.04791321080283872 0.015
    vertex 0.0544609282061729 0.04422757920262035 0.02
  endloop
endfacet
facet normal 0.804997 0.593279 0
  outer loop
    vertex 0.04902834036784198 0.05159884240305708 0.009999999999999972
    vertex 0.05174463428700744 0.04791321080283872 0.015
    vertex 0.0544609282061729 0.04422757920262035 0.01000000000000003
  endloop
endfacet
facet normal 0.804997 0.593279 0
  outer loop
    vertex 0.0544609282061729 0.04422757920262035 0.01000000000000003
    vertex 0.05174463428700744 0.04791321080283872 0.005
    vertex 0.04902834036784198 0.05159884240305708 0.009999999999999972
  endloop
endfacet
facet normal 0.804997 0.593279 0
  outer loop
    vertex 0.0544609282061729 0.04422757920262035 0.02
    vertex 0.05174463428700744 0.04791321080283872 0.015
    vertex 0.04902834036784198 0.05159884240305708 0.02
  endloop
endfacet
facet normal 0.804997 0.593279 0
  outer loop
    vertex 0.04902834036784198 0.05159884240305708 0
    vertex 0.05174463428700744 0.04791321080283872 0.005
    vertex 0.0544609282061729 0.04422757920262035 0
  endloop
endfacet
facet normal 1 -0.000838773 0
  outer loop
    vertex 0.0544547453881138 0.03685631600218363 0.01000000000000003
    vertex 0.05445783679714335 0.04054194760240199 0.005
    vertex 0.0544609282061729 0.04422757920262035 0.009999999999999972
  endloop
endfacet
facet normal 1 -0.000838773 0
  outer loop
    vertex 0.0544547453881138 0.03685631600218363 0.02
    vertex 0.05445783679714335 0.04054194760240199 0.015
    vertex 0.0544609282061729 0.04422757920262035 0.02
  endloop
endfacet
facet normal 1 -0.000838773 0
  outer loop
    vertex 0.0544609282061729 0.04422757920262035 0.009999999999999972
    vertex 0.05445783679714335 0.04054194760240199 0.015
    vertex 0.0544547453881138 0.03685631600218363 0.01000000000000003
  endloop
endfacet
facet normal 1 -0.000838773 0
  outer loop
    vertex 0.0544609282061729 0.04422757920262035 0
    vertex 0.05445783679714335 0.04054194760240199 0.005
    vertex 0.0544547453881138 0.03685631600218363 0
  endloop
endfacet
facet normal 1 -0.000838773 0
  outer loop
    vertex 0.0544609282061729 0.04422757920262035 0.009999999999999972
    vertex 0.05445783679714335 0.04054194760240199 0.005
    vertex 0.0544609282061729 0.04422757920262035 0
  endloop
endfacet
facet normal 1 -0.000838773 0
  outer loop
    vertex 0.0544609282061729 0.04422757920262035 0.02
    vertex 0.05445783679714335 0.04054194760240199 0.015
    vertex 0.0544609282061729 0.04422757920262035 0.009999999999999972
  endloop
endfacet
facet normal 1 -0.000838773 0
  outer loop
    vertex 0.0544547453881138 0.03685631600218363 0
    vertex 0.05445783679714335 0.04054194760240199 0.005
    vertex 0.0544547453881138 0.03685631600218363 0.01000000000000003
  endloop
endfacet
facet normal 1 -0.000838773 0
  outer loop
    vertex 0.0544547453881138 0.03685631600218363 0.01000000000000003
    vertex 0.05445783679714335 0.04054194760240199 0.015
    vertex 0.0544547453881138 0.03685631600218363 0.02
  endloop
endfacet
facet normal 0.987626 -0.156827 0
  outer loop
    vertex 0.0544547453881138 0.03685631600218363 0.02
    vertex 0.05386949825927864 0.03317068440196527 0.015
    vertex 0.0544547453881138 0.03685631600218363 0.009999999999999972
  endloop
endfacet
facet normal 0.987626 -0.156827 0
  outer loop
    vertex 0.05328425113044348 0.0294850528017469 0
    vertex 0.05386949825927864 0.03317068440196527 0.004999999999999999
    vertex 0.05328425113044348 0.0294850528017469 0.01000000000000003
  endloop
endfacet
facet normal 0.987626 -0.156827 0
  outer loop
    vertex 0.0544547453881138 0.03685631600218363 0.009999999999999972
    vertex 0.05386949825927864 0.03317068440196527 0.004999999999999999
    vertex 0.0544547453881138 0.03685631600218363 0
  endloop
endfacet
facet normal 0.987626 -0.156827 0
  outer loop
    vertex 0.05328425113044348 0.0294850528017469 0.01000000000000003
    vertex 0.05386949825927864 0.03317068440196527 0.015
    vertex 0.05328425113044348 0.0294850528017469 0.02
  endloop
endfacet
facet normal 0.987626 -0.156827 6.8093e-16
  outer loop
    vertex 0.0544547453881138 0.03685631600218363 0
    vertex 0.05386949825927864 0.03317068440196527 0.004999999999999999
    vertex 0.05328425113044348 0.0294850528017469 0
  endloop
endfacet
facet normal 0.987626 -0.156827 -7.03627e-16
  outer loop
    vertex 0.05328425113044348 0.0294850528017469 0.02
    vertex 0.05386949825927864 0.03317068440196527 0.015
    vertex 0.0544547453881138 0.03685631600218363 0.02
  endloop
endfacet
facet normal 0.987626 -0.156827 -7.03627e-16
  outer loop
    vertex 0.05328425113044348 0.0294850528017469 0.01000000000000003
    vertex 0.05386949825927864 0.03317068440196527 0.004999999999999999
    vertex 0.0544547453881138 0.03685631600218363 0.009999999999999972
  endloop
endfacet
facet normal 0.987626 -0.156827 6.8093e-16
  outer loop
    vertex 0.0544547453881138 0.03685631600218363 0.009999999999999972
    vertex 0.05386949825927864 0.03317068440196527 0.015
    vertex 0.05328425113044348 0.0294850528017469 0.01000000000000003
  endloop
endfacet
facet normal 0.380554 -0.924759 -8.31015e-16
  outer loop
    vertex 0.05328425113044348 0.0294850528017469 0
    vertex 0.04634500485121795 0.02662943829844416 0.007577528536290031
    vertex 0.04432803335706009 0.02579942120152854 0
  endloop
endfacet
facet normal 0.380554 -0.924759 0
  outer loop
    vertex 0.05328425113044348 0.0294850528017469 0.009999999999999972
    vertex 0.04634500485121795 0.02662943829844416 0.007577528536290031
    vertex 0.05328425113044348 0.0294850528017469 0
  endloop
endfacet
facet normal 0.380554 -0.924759 0
  outer loop
    vertex 0.03537181558367668 0.02211378960131018 0.01000000000000003
    vertex 0.04185828747046839 0.02478307996078926 0.01296808376969168
    vertex 0.03537181558367668 0.02211378960131018 0.02
  endloop
endfacet
facet normal 0.380554 -0.924759 9.45244e-16
  outer loop
    vertex 0.03537181558367668 0.02211378960131018 0.02
    vertex 0.04185828747046839 0.02478307996078926 0.01296808376969168
    vertex 0.04432803335706006 0.02579942120152854 0.02
  endloop
endfacet
facet normal 0.380554 -0.924759 0
  outer loop
    vertex 0.03537181558367668 0.02211378960131018 0
    vertex 0.04021538116690337 0.02410699687060221 0.005382739731213244
    vertex 0.03537181558367668 0.02211378960131018 0.01000000000000003
  endloop
endfacet
facet normal 0.380554 -0.924759 0
  outer loop
    vertex 0.05328425113044348 0.0294850528017469 0.02
    vertex 0.0479505585642612 0.02729015018044262 0.01416597722192329
    vertex 0.05328425113044348 0.0294850528017469 0.009999999999999972
  endloop
endfacet
facet normal 0.380554 -0.924759 -1.00738e-15
  outer loop
    vertex 0.04432803335706009 0.02579942120152854 0
    vertex 0.04021538116690337 0.02410699687060221 0.005382739731213244
    vertex 0.03537181558367668 0.02211378960131018 0
  endloop
endfacet
facet normal 0.380554 -0.924759 1.10935e-15
  outer loop
    vertex 0.04432803335706006 0.02579942120152854 0.02
    vertex 0.0479505585642612 0.02729015018044262 0.01416597722192329
    vertex 0.05328425113044348 0.0294850528017469 0.02
  endloop
endfacet
facet normal 0.380554 -0.924759 3.88772e-16
  outer loop
    vertex 0.03537181558367668 0.02211378960131018 0.01000000000000003
    vertex 0.04021538116690337 0.02410699687060221 0.005382739731213244
    vertex 0.04185828747046839 0.02478307996078926 0.01296808376969168
  endloop
endfacet
facet normal 0.380554 -0.924759 1.59172e-16
  outer loop
    vertex 0.0479505585642612 0.02729015018044262 0.01416597722192329
    vertex 0.04634500485121795 0.02662943829844416 0.007577528536290031
    vertex 0.05328425113044348 0.0294850528017469 0.009999999999999972
  endloop
endfacet
facet normal 0.380554 -0.924759 2.28291e-16
  outer loop
    vertex 0.04185828747046839 0.02478307996078926 0.01296808376969168
    vertex 0.04021538116690337 0.02410699687060221 0.005382739731213244
    vertex 0.04634500485121795 0.02662943829844416 0.007577528536290031
  endloop
endfacet
facet normal 0.380554 -0.924759 -8.01559e-16
  outer loop
    vertex 0.04634500485121795 0.02662943829844416 0.007577528536290031
    vertex 0.04021538116690337 0.02410699687060221 0.005382739731213244
    vertex 0.04432803335706009 0.02579942120152854 0
  endloop
endfacet
facet normal 0.380554 -0.924759 4.50935e-16
  outer loop
    vertex 0.0479505585642612 0.02729015018044262 0.01416597722192329
    vertex 0.04185828747046839 0.02478307996078926 0.01296808376969168
    vertex 0.04634500485121795 0.02662943829844416 0.007577528536290031
  endloop
endfacet
facet normal 0.380554 -0.924759 1.11951e-15
  outer loop
    vertex 0.04432803335706006 0.02579942120152854 0.02
    vertex 0.04185828747046839 0.02478307996078926 0.01296808376969168
    vertex 0.0479505585642612 0.02729015018044262 0.01416597722192329
  endloop
endfacet
facet normal 0.999181 -0.0404556 -1.38353e-15
  outer loop
    vertex 0.0350733622190699 0.01474252640087345 0.01000000000000003
    vertex 0.03522258890137328 0.01842815800109181 0.004999999999999999
    vertex 0.03537181558367668 0.02211378960131018 0.009999999999999972
  endloop
endfacet
facet normal 0.999181 -0.0404556 1.38927e-15
  outer loop
    vertex 0.03537181558367668 0.02211378960131018 0.009999999999999972
    vertex 0.03522258890137328 0.01842815800109181 0.015
    vertex 0.0350733622190699 0.01474252640087345 0.01000000000000003
  endloop
endfacet
facet normal 0.999181 -0.0404556 1.38927e-15
  outer loop
    vertex 0.03537181558367668 0.02211378960131018 0
    vertex 0.03522258890137328 0.01842815800109181 0.004999999999999999
    vertex 0.0350733622190699 0.01474252640087345 0
  endloop
endfacet
facet normal 0.999181 -0.0404556 -1.38353e-15
  outer loop
    vertex 0.0350733622190699 0.01474252640087345 0.02
    vertex 0.03522258890137328 0.01842815800109181 0.015
    vertex 0.03537181558367668 0.02211378960131018 0.02
  endloop
endfacet
facet normal 0.999181 -0.0404556 0
  outer loop
    vertex 0.03537181558367668 0.02211378960131018 0.009999999999999972
    vertex 0.03522258890137328 0.01842815800109181 0.004999999999999999
    vertex 0.03537181558367668 0.02211378960131018 0
  endloop
endfacet
facet normal 0.999181 -0.0404556 0
  outer loop
    vertex 0.03537181558367668 0.02211378960131018 0.02
    vertex 0.03522258890137328 0.01842815800109181 0.015
    vertex 0.03537181558367668 0.02211378960131018 0.009999999999999972
  endloop
endfacet
facet normal 0.999181 -0.0404556 0
  outer loop
    vertex 0.0350733622190699 0.01474252640087345 0
    vertex 0.03522258890137328 0.01842815800109181 0.004999999999999999
    vertex 0.0350733622190699 0.01474252640087345 0.01000000000000003
  endloop
endfacet
facet normal 0.999181 -0.0404556 0
  outer loop
    vertex 0.0350733622190699 0.01474252640087345 0.01000000000000003
    vertex 0.03522258890137328 0.01842815800109181 0.015
    vertex 0.0350733622190699 0.01474252640087345 0.02
  endloop
endfacet
facet normal 0.917724 0.397219 0
  outer loop
    vertex 0.0350733622190699 0.01474252640087345 0.02
    vertex 0.03666861412881234 0.01105689480065509 0.015
    vertex 0.0350733622190699 0.01474252640087345 0.009999999999999972
  endloop
endfacet
facet normal 0.917724 0.397219 -0
  outer loop
    vertex 0.0382638660385548 0.007371263200436726 0
    vertex 0.03666861412881234 0.01105689480065509 0.005
    vertex 0.0382638660385548 0.007371263200436726 0.01000000000000003
  endloop
endfacet
facet normal 0.917724 0.397219 0
  outer loop
    vertex 0.0350733622190699 0.01474252640087345 0.009999999999999972
    vertex 0.03666861412881234 0.01105689480065509 0.005
    vertex 0.0350733622190699 0.01474252640087345 0
  endloop
endfacet
facet normal 0.917724 0.397219 -0
  outer loop
    vertex 0.0382638660385548 0.007371263200436726 0.01000000000000003
    vertex 0.03666861412881234 0.01105689480065509 0.015
    vertex 0.0382638660385548 0.007371263200436726 0.02
  endloop
endfacet
facet normal 0.917724 0.397219 -7.59282e-16
  outer loop
    vertex 0.0382638660385548 0.007371263200436726 0.01000000000000003
    vertex 0.03666861412881234 0.01105689480065509 0.005
    vertex 0.0350733622190699 0.01474252640087345 0.009999999999999972
  endloop
endfacet
facet normal 0.917724 0.397219 -7.59282e-16
  outer loop
    vertex 0.0382638660385548 0.007371263200436726 0.02
    vertex 0.03666861412881234 0.01105689480065509 0.015
    vertex 0.0350733622190699 0.01474252640087345 0.02
  endloop
endfacet
facet normal 0.917724 0.397219 8.01464e-16
  outer loop
    vertex 0.0350733622190699 0.01474252640087345 0.009999999999999972
    vertex 0.03666861412881234 0.01105689480065509 0.015
    vertex 0.0382638660385548 0.007371263200436726 0.01000000000000003
  endloop
endfacet
facet normal 0.917724 0.397219 8.01464e-16
  outer loop
    vertex 0.0350733622190699 0.01474252640087345 0
    vertex 0.03666861412881234 0.01105689480065509 0.005
    vertex 0.0382638660385548 0.007371263200436726 0
  endloop
endfacet
endsolid Created by Gmsh
