solid Created by Gmsh
facet normal -0.870186 0.492724 -3.46418e-16
  outer loop
    vertex 0.03224328380564707 0.04170303467937752 0.01000000000000003
    vertex 0.03561663453602523 0.04766061106214574 0.009999999999999972
    vertex 0.03392995917083615 0.04468182287076163 0.005
  endloop
endfacet
facet normal -0.870186 0.492724 3.46418e-16
  outer loop
    vertex 0.03561663453602523 0.04766061106214574 0.009999999999999972
    vertex 0.03224328380564707 0.04170303467937752 0.01000000000000003
    vertex 0.03392995917083615 0.04468182287076163 0.015
  endloop
endfacet
facet normal -0.870186 0.492724 -3.46418e-16
  outer loop
    vertex 0.03224328380564707 0.04170303467937752 0.02
    vertex 0.03561663453602523 0.04766061106214574 0.02
    vertex 0.03392995917083615 0.04468182287076163 0.015
  endloop
endfacet
facet normal -0.870186 0.492724 3.46418e-16
  outer loop
    vertex 0.03561663453602523 0.04766061106214574 0
    vertex 0.03224328380564707 0.04170303467937752 0
    vertex 0.03392995917083615 0.04468182287076163 0.005
  endloop
endfacet
facet normal -0.870186 0.492724 0
  outer loop
    vertex 0.03561663453602523 0.04766061106214574 0.009999999999999972
    vertex 0.03561663453602523 0.04766061106214574 0
    vertex 0.03392995917083615 0.04468182287076163 0.005
  endloop
endfacet
facet normal -0.870186 0.492724 0
  outer loop
    vertex 0.03561663453602523 0.04766061106214574 0.02
    vertex 0.03561663453602523 0.04766061106214574 0.009999999999999972
    vertex 0.03392995917083615 0.04468182287076163 0.015
  endloop
endfacet
facet normal -0.870186 0.492724 0
  outer loop
    vertex 0.03224328380564707 0.04170303467937752 0
    vertex 0.03224328380564707 0.04170303467937752 0.01000000000000003
    vertex 0.03392995917083615 0.04468182287076163 0.005
  endloop
endfacet
facet normal -0.870186 0.492724 0
  outer loop
    vertex 0.03224328380564707 0.04170303467937752 0.01000000000000003
    vertex 0.03224328380564707 0.04170303467937752 0.02
    vertex 0.03392995917083615 0.04468182287076163 0.015
  endloop
endfacet
facet normal -0.492944 0.870061 -2.79392e-16
  outer loop
    vertex 0.03224328380564707 0.04170303467937752 0
    vertex 0.02172797332662546 0.0357454582966093 0
    vertex 0.02698562856613627 0.03872424648799341 0.006020408163265299
  endloop
endfacet
facet normal -0.492944 0.870061 7.58157e-16
  outer loop
    vertex 0.02172797332662546 0.0357454582966093 0.02
    vertex 0.03224328380564707 0.04170303467937752 0.02
    vertex 0.02698562856613628 0.03872424648799342 0.01408371511870053
  endloop
endfacet
facet normal -0.492944 0.870061 0
  outer loop
    vertex 0.02172797332662546 0.0357454582966093 0
    vertex 0.02172797332662546 0.0357454582966093 0.01000000000000003
    vertex 0.02698562856613627 0.03872424648799341 0.006020408163265299
  endloop
endfacet
facet normal -0.492944 0.870061 0
  outer loop
    vertex 0.03224328380564707 0.04170303467937752 0.02
    vertex 0.03224328380564707 0.04170303467937752 0.009999999999999972
    vertex 0.02698562856613628 0.03872424648799342 0.01408371511870053
  endloop
endfacet
facet normal -0.492944 0.870061 -3.24529e-16
  outer loop
    vertex 0.02698562856613627 0.03872424648799341 0.006020408163265299
    vertex 0.02172797332662546 0.0357454582966093 0.01000000000000003
    vertex 0.02698562856613628 0.03872424648799342 0.01408371511870053
  endloop
endfacet
facet normal -0.492944 0.870061 -3.47676e-16
  outer loop
    vertex 0.03224328380564707 0.04170303467937752 0.009999999999999972
    vertex 0.02698562856613627 0.03872424648799341 0.006020408163265299
    vertex 0.02698562856613628 0.03872424648799342 0.01408371511870053
  endloop
endfacet
facet normal -0.492944 0.870061 0
  outer loop
    vertex 0.02172797332662546 0.0357454582966093 0.01000000000000003
    vertex 0.02172797332662546 0.0357454582966093 0.02
    vertex 0.02698562856613628 0.03872424648799342 0.01408371511870053
  endloop
endfacet
facet normal -0.492944 0.870061 0
  outer loop
    vertex 0.03224328380564707 0.04170303467937752 0.009999999999999972
    vertex 0.03224328380564707 0.04170303467937752 0
    vertex 0.02698562856613627 0.03872424648799341 0.006020408163265299
  endloop
endfacet
facet normal -0.574185 -0.818726 3.26545e-16
  outer loop
    vertex 0.03022283432381107 0.02978788191384109 0.02
    vertex 0.02172797332662546 0.0357454582966093 0.02
    vertex 0.02597540382521825 0.03276667010522521 0.01499999999999999
  endloop
endfacet
facet normal -0.574185 -0.818726 -1.24087e-15
  outer loop
    vertex 0.02172797332662546 0.0357454582966093 0
    vertex 0.03022283432381107 0.02978788191384109 0
    vertex 0.02597540382521829 0.03276667010522517 0.005000000000000013
  endloop
endfacet
facet normal -0.574185 -0.818726 -0
  outer loop
    vertex 0.02172797332662546 0.0357454582966093 0.02
    vertex 0.02172797332662546 0.0357454582966093 0.009999999999999972
    vertex 0.02597540382521825 0.03276667010522521 0.01499999999999999
  endloop
endfacet
facet normal -0.574185 -0.818726 0
  outer loop
    vertex 0.03022283432381107 0.02978788191384109 0
    vertex 0.03022283432381107 0.02978788191384109 0.01000000000000003
    vertex 0.02597540382521829 0.03276667010522517 0.005000000000000013
  endloop
endfacet
facet normal -0.574185 -0.818726 -0
  outer loop
    vertex 0.02172797332662546 0.0357454582966093 0.009999999999999972
    vertex 0.02172797332662546 0.0357454582966093 0
    vertex 0.02597540382521829 0.03276667010522517 0.005000000000000013
  endloop
endfacet
facet normal -0.574185 -0.818726 0
  outer loop
    vertex 0.03022283432381107 0.02978788191384109 0.01000000000000003
    vertex 0.03022283432381107 0.02978788191384109 0.02
    vertex 0.02597540382521825 0.03276667010522521 0.01499999999999999
  endloop
endfacet
facet normal -0.574185 -0.818726 4.50001e-16
  outer loop
    vertex 0.02597540382521825 0.03276667010522521 0.01499999999999999
    vertex 0.02172797332662546 0.0357454582966093 0.009999999999999972
    vertex 0.02597540382521829 0.03276667010522517 0.005000000000000013
  endloop
endfacet
facet normal -0.574185 -0.818726 4.57162e-16
  outer loop
    vertex 0.03022283432381107 0.02978788191384109 0.01000000000000003
    vertex 0.02597540382521825 0.03276667010522521 0.01499999999999999
    vertex 0.02597540382521829 0.03276667010522517 0.005000000000000013
  endloop
endfacet
facet normal -0.6943 -0.719685 -0
  outer loop
    vertex 0.03022283432381107 0.02978788191384109 0.02
    vertex 0.03022283432381107 0.02978788191384109 0.009999999999999972
    vertex 0.033310531778266 0.02680909372245698 0.015
  endloop
endfacet
facet normal -0.6943 -0.719685 0
  outer loop
    vertex 0.03639822923272092 0.02383030553107287 0
    vertex 0.03639822923272092 0.02383030553107287 0.01000000000000003
    vertex 0.033310531778266 0.02680909372245698 0.005
  endloop
endfacet
facet normal -0.6943 -0.719685 -0
  outer loop
    vertex 0.03022283432381107 0.02978788191384109 0.009999999999999972
    vertex 0.03022283432381107 0.02978788191384109 0
    vertex 0.033310531778266 0.02680909372245698 0.005
  endloop
endfacet
facet normal -0.6943 -0.719685 0
  outer loop
    vertex 0.03639822923272092 0.02383030553107287 0.01000000000000003
    vertex 0.03639822923272092 0.02383030553107287 0.02
    vertex 0.033310531778266 0.02680909372245698 0.015
  endloop
endfacet
facet normal -0.6943 -0.719685 -1.42148e-15
  outer loop
    vertex 0.03639822923272092 0.02383030553107287 0.02
    vertex 0.03022283432381107 0.02978788191384109 0.02
    vertex 0.033310531778266 0.02680909372245698 0.015
  endloop
endfacet
facet normal -0.6943 -0.719685 1.42148e-15
  outer loop
    vertex 0.03022283432381107 0.02978788191384109 0.009999999999999972
    vertex 0.03639822923272092 0.02383030553107287 0.01000000000000003
    vertex 0.033310531778266 0.02680909372245698 0.015
  endloop
endfacet
facet normal -0.6943 -0.719685 -1.42148e-15
  outer loop
    vertex 0.03639822923272092 0.02383030553107287 0.01000000000000003
    vertex 0.03022283432381107 0.02978788191384109 0.009999999999999972
    vertex 0.033310531778266 0.02680909372245698 0.005
  endloop
endfacet
facet normal -0.6943 -0.719685 1.42148e-15
  outer loop
    vertex 0.03022283432381107 0.02978788191384109 0
    vertex 0.03639822923272092 0.02383030553107287 0
    vertex 0.033310531778266 0.02680909372245698 0.005
  endloop
endfacet
facet normal -0.961618 0.274393 6.56258e-16
  outer loop
    vertex 0.03469826207109436 0.01787272914830465 0.02
    vertex 0.03639822923272092 0.02383030553107287 0.02
    vertex 0.03554824565190764 0.02085151733968876 0.015
  endloop
endfacet
facet normal -0.961618 0.274393 6.56258e-16
  outer loop
    vertex 0.03469826207109436 0.01787272914830465 0.01000000000000003
    vertex 0.03639822923272092 0.02383030553107287 0.009999999999999972
    vertex 0.03554824565190764 0.02085151733968876 0.005
  endloop
endfacet
facet normal -0.961618 0.274393 -6.56258e-16
  outer loop
    vertex 0.03639822923272092 0.02383030553107287 0
    vertex 0.03469826207109436 0.01787272914830465 0
    vertex 0.03554824565190764 0.02085151733968876 0.005
  endloop
endfacet
facet normal -0.961618 0.274393 -6.56258e-16
  outer loop
    vertex 0.03639822923272092 0.02383030553107287 0.009999999999999972
    vertex 0.03469826207109436 0.01787272914830465 0.01000000000000003
    vertex 0.03554824565190764 0.02085151733968876 0.015
  endloop
endfacet
facet normal -0.961618 0.274393 0
  outer loop
    vertex 0.03639822923272092 0.02383030553107287 0.009999999999999972
    vertex 0.03639822923272092 0.02383030553107287 0
    vertex 0.03554824565190764 0.02085151733968876 0.005
  endloop
endfacet
facet normal -0.961618 0.274393 0
  outer loop
    vertex 0.03639822923272092 0.02383030553107287 0.02
    vertex 0.03639822923272092 0.02383030553107287 0.009999999999999972
    vertex 0.03554824565190764 0.02085151733968876 0.015
  endloop
endfacet
facet normal -0.961618 0.274393 0
  outer loop
    vertex 0.03469826207109436 0.01787272914830465 0
    vertex 0.03469826207109436 0.01787272914830465 0.01000000000000003
    vertex 0.03554824565190764 0.02085151733968876 0.005
  endloop
endfacet
facet normal -0.961618 0.274393 0
  outer loop
    vertex 0.03469826207109436 0.01787272914830465 0.01000000000000003
    vertex 0.03469826207109436 0.01787272914830465 0.02
    vertex 0.03554824565190764 0.02085151733968876 0.015
  endloop
endfacet
facet normal -0.649722 -0.760172 -0
  outer loop
    vertex 0.03469826207109436 0.01787272914830465 0.02
    vertex 0.03469826207109436 0.01787272914830465 0.009999999999999972
    vertex 0.03818343078733918 0.01489394095692054 0.015
  endloop
endfacet
facet normal -0.649722 -0.760172 0
  outer loop
    vertex 0.04166859950358399 0.01191515276553644 0
    vertex 0.04166859950358399 0.01191515276553644 0.01000000000000003
    vertex 0.03818343078733918 0.01489394095692054 0.005000000000000001
  endloop
endfacet
facet normal -0.649722 -0.760172 -0
  outer loop
    vertex 0.03469826207109436 0.01787272914830465 0.009999999999999972
    vertex 0.03469826207109436 0.01787272914830465 0
    vertex 0.03818343078733918 0.01489394095692054 0.005000000000000001
  endloop
endfacet
facet normal -0.649722 -0.760172 0
  outer loop
    vertex 0.04166859950358399 0.01191515276553644 0.01000000000000003
    vertex 0.04166859950358399 0.01191515276553644 0.02
    vertex 0.03818343078733918 0.01489394095692054 0.015
  endloop
endfacet
facet normal -0.649722 -0.760172 2.95603e-16
  outer loop
    vertex 0.04166859950358399 0.01191515276553644 0.01000000000000003
    vertex 0.03469826207109436 0.01787272914830465 0.009999999999999972
    vertex 0.03818343078733918 0.01489394095692054 0.005000000000000001
  endloop
endfacet
facet normal -0.649722 -0.760172 2.95603e-16
  outer loop
    vertex 0.04166859950358399 0.01191515276553644 0.02
    vertex 0.03469826207109436 0.01787272914830465 0.02
    vertex 0.03818343078733918 0.01489394095692054 0.015
  endloop
endfacet
facet normal -0.649722 -0.760172 -2.21702e-16
  outer loop
    vertex 0.03469826207109436 0.01787272914830465 0.009999999999999972
    vertex 0.04166859950358399 0.01191515276553644 0.01000000000000003
    vertex 0.03818343078733918 0.01489394095692054 0.015
  endloop
endfacet
facet normal -0.649722 -0.760172 -2.21702e-16
  outer loop
    vertex 0.03469826207109436 0.01787272914830465 0
    vertex 0.04166859950358399 0.01191515276553644 0
    vertex 0.03818343078733918 0.01489394095692054 0.005000000000000001
  endloop
endfacet
facet normal -0.335133 0.942171 0
  outer loop
    vertex 0.04166859950358399 0.01191515276553644 0
    vertex 0.0332942229158644 0.008936364574152329 0
    vertex 0.03455319870373313 0.009384185635321384 0.00776245797097405
  endloop
endfacet
facet normal -0.335133 0.942171 0
  outer loop
    vertex 0.04166859950358399 0.01191515276553644 0.009999999999999972
    vertex 0.04166859950358399 0.01191515276553644 0
    vertex 0.03455319870373313 0.009384185635321384 0.00776245797097405
  endloop
endfacet
facet normal -0.335133 0.942171 0
  outer loop
    vertex 0.0249198463281448 0.005957576382768219 0.01000000000000003
    vertex 0.0249198463281448 0.005957576382768219 0.02
    vertex 0.03069017103208331 0.008010096341537428 0.01350647868410732
  endloop
endfacet
facet normal -0.335133 0.942171 0
  outer loop
    vertex 0.0249198463281448 0.005957576382768219 0
    vertex 0.0249198463281448 0.005957576382768219 0.01000000000000003
    vertex 0.02925499964688732 0.00749960203428317 0.005149789386745178
  endloop
endfacet
facet normal -0.335133 0.942171 -5.87026e-17
  outer loop
    vertex 0.0249198463281448 0.005957576382768219 0.02
    vertex 0.0332942229158644 0.008936364574152329 0.02
    vertex 0.03069017103208331 0.008010096341537428 0.01350647868410732
  endloop
endfacet
facet normal -0.335133 0.942171 0
  outer loop
    vertex 0.04166859950358399 0.01191515276553644 0.02
    vertex 0.04166859950358399 0.01191515276553644 0.009999999999999972
    vertex 0.03637495833176976 0.0100321904164168 0.01425378733101627
  endloop
endfacet
facet normal -0.335133 0.942171 -3.70099e-17
  outer loop
    vertex 0.0332942229158644 0.008936364574152329 0
    vertex 0.0249198463281448 0.005957576382768219 0
    vertex 0.02925499964688732 0.00749960203428317 0.005149789386745178
  endloop
endfacet
facet normal -0.335133 0.942171 1.65842e-16
  outer loop
    vertex 0.0332942229158644 0.008936364574152329 0.02
    vertex 0.04166859950358399 0.01191515276553644 0.02
    vertex 0.03637495833176976 0.0100321904164168 0.01425378733101627
  endloop
endfacet
facet normal -0.335133 0.942171 4.9231e-17
  outer loop
    vertex 0.03069017103208331 0.008010096341537428 0.01350647868410732
    vertex 0.03455319870373313 0.009384185635321384 0.00776245797097405
    vertex 0.02925499964688732 0.00749960203428317 0.005149789386745178
  endloop
endfacet
facet normal -0.335133 0.942171 3.69567e-17
  outer loop
    vertex 0.0249198463281448 0.005957576382768219 0.01000000000000003
    vertex 0.03069017103208331 0.008010096341537428 0.01350647868410732
    vertex 0.02925499964688732 0.00749960203428317 0.005149789386745178
  endloop
endfacet
facet normal -0.335133 0.942171 -1.12274e-16
  outer loop
    vertex 0.03637495833176976 0.0100321904164168 0.01425378733101627
    vertex 0.03455319870373313 0.009384185635321384 0.00776245797097405
    vertex 0.03069017103208331 0.008010096341537428 0.01350647868410732
  endloop
endfacet
facet normal -0.335133 0.942171 -1.70555e-16
  outer loop
    vertex 0.03637495833176976 0.0100321904164168 0.01425378733101627
    vertex 0.04166859950358399 0.01191515276553644 0.009999999999999972
    vertex 0.03455319870373313 0.009384185635321384 0.00776245797097405
  endloop
endfacet
facet normal -0.335133 0.942171 -3.1637e-17
  outer loop
    vertex 0.03455319870373313 0.009384185635321384 0.00776245797097405
    vertex 0.0332942229158644 0.008936364574152329 0
    vertex 0.02925499964688732 0.00749960203428317 0.005149789386745178
  endloop
endfacet
facet normal -0.335133 0.942171 9.12885e-17
  outer loop
    vertex 0.0332942229158644 0.008936364574152329 0.02
    vertex 0.03637495833176976 0.0100321904164168 0.01425378733101627
    vertex 0.03069017103208331 0.008010096341537428 0.01350647868410732
  endloop
endfacet
endsolid Created by Gmsh
