solid Created by Gmsh
facet normal -0.780223 -0.625502 -0
  outer loop
    vertex 0.03314993320338026 0.0512835617599789 0.02
    vertex 0.03314993320338026 0.0512835617599789 0.009999999999999972
    vertex 0.03571954694453253 0.04807833914998023 0.015
  endloop
endfacet
facet normal -0.780223 -0.625502 0
  outer loop
    vertex 0.0382891606856848 0.04487311653998154 0
    vertex 0.0382891606856848 0.04487311653998154 0.01000000000000003
    vertex 0.03571954694453253 0.04807833914998023 0.005000000000000001
  endloop
endfacet
facet normal -0.780223 -0.625502 -0
  outer loop
    vertex 0.03314993320338026 0.0512835617599789 0.009999999999999972
    vertex 0.03314993320338026 0.0512835617599789 0
    vertex 0.03571954694453253 0.04807833914998023 0.005000000000000001
  endloop
endfacet
facet normal -0.780223 -0.625502 0
  outer loop
    vertex 0.0382891606856848 0.04487311653998154 0.01000000000000003
    vertex 0.0382891606856848 0.04487311653998154 0.02
    vertex 0.03571954694453253 0.04807833914998023 0.015
  endloop
endfacet
facet normal -0.780223 -0.625502 4.12374e-16
  outer loop
    vertex 0.03314993320338026 0.0512835617599789 0
    vertex 0.0382891606856848 0.04487311653998154 0
    vertex 0.03571954694453253 0.04807833914998023 0.005000000000000001
  endloop
endfacet
facet normal -0.780223 -0.625502 -4.12374e-16
  outer loop
    vertex 0.0382891606856848 0.04487311653998154 0.02
    vertex 0.03314993320338026 0.0512835617599789 0.02
    vertex 0.03571954694453253 0.04807833914998023 0.015
  endloop
endfacet
facet normal -0.780223 -0.625502 4.12374e-16
  outer loop
    vertex 0.03314993320338026 0.0512835617599789 0.009999999999999972
    vertex 0.0382891606856848 0.04487311653998154 0.01000000000000003
    vertex 0.03571954694453253 0.04807833914998023 0.015
  endloop
endfacet
facet normal -0.780223 -0.625502 -4.12374e-16
  outer loop
    vertex 0.0382891606856848 0.04487311653998154 0.01000000000000003
    vertex 0.03314993320338026 0.0512835617599789 0.009999999999999972
    vertex 0.03571954694453253 0.04807833914998023 0.005000000000000001
  endloop
endfacet
facet normal -0.862837 0.505483 0
  outer loop
    vertex 0.0382891606856848 0.04487311653998154 0.02
    vertex 0.0382891606856848 0.04487311653998154 0.009999999999999972
    vertex 0.03641141876229604 0.04166789392998287 0.015
  endloop
endfacet
facet normal -0.862837 0.505483 0
  outer loop
    vertex 0.03453367683890726 0.03846267131998418 0
    vertex 0.03453367683890726 0.03846267131998418 0.01000000000000003
    vertex 0.03641141876229604 0.04166789392998287 0.005
  endloop
endfacet
facet normal -0.862837 0.505483 0
  outer loop
    vertex 0.0382891606856848 0.04487311653998154 0.009999999999999972
    vertex 0.0382891606856848 0.04487311653998154 0
    vertex 0.03641141876229604 0.04166789392998287 0.005
  endloop
endfacet
facet normal -0.862837 0.505483 0
  outer loop
    vertex 0.03453367683890726 0.03846267131998418 0.01000000000000003
    vertex 0.03453367683890726 0.03846267131998418 0.02
    vertex 0.03641141876229604 0.04166789392998287 0.015
  endloop
endfacet
facet normal -0.862837 0.505483 -8.20868e-16
  outer loop
    vertex 0.03453367683890726 0.03846267131998418 0.01000000000000003
    vertex 0.0382891606856848 0.04487311653998154 0.009999999999999972
    vertex 0.03641141876229604 0.04166789392998287 0.005
  endloop
endfacet
facet normal -0.862837 0.505483 8.20868e-16
  outer loop
    vertex 0.0382891606856848 0.04487311653998154 0.009999999999999972
    vertex 0.03453367683890726 0.03846267131998418 0.01000000000000003
    vertex 0.03641141876229604 0.04166789392998287 0.015
  endloop
endfacet
facet normal -0.862837 0.505483 -8.20868e-16
  outer loop
    vertex 0.03453367683890726 0.03846267131998418 0.02
    vertex 0.0382891606856848 0.04487311653998154 0.02
    vertex 0.03641141876229604 0.04166789392998287 0.015
  endloop
endfacet
facet normal -0.862837 0.505483 8.20868e-16
  outer loop
    vertex 0.0382891606856848 0.04487311653998154 0
    vertex 0.03453367683890726 0.03846267131998418 0
    vertex 0.03641141876229604 0.04166789392998287 0.005
  endloop
endfacet
facet normal -0.876149 0.482041 -3.24152e-16
  outer loop
    vertex 0.03453367683890726 0.03846267131998418 0.009999999999999972
    vertex 0.03100677074168954 0.03205222609998681 0.01000000000000003
    vertex 0.0327702237902984 0.0352574487099855 0.015
  endloop
endfacet
facet normal -0.876149 0.482041 2.77844e-16
  outer loop
    vertex 0.03100677074168954 0.03205222609998681 0.01000000000000003
    vertex 0.03453367683890726 0.03846267131998418 0.009999999999999972
    vertex 0.0327702237902984 0.0352574487099855 0.004999999999999999
  endloop
endfacet
facet normal -0.876149 0.482041 -3.24152e-16
  outer loop
    vertex 0.03453367683890726 0.03846267131998418 0
    vertex 0.03100677074168954 0.03205222609998681 0
    vertex 0.0327702237902984 0.0352574487099855 0.004999999999999999
  endloop
endfacet
facet normal -0.876149 0.482041 2.77844e-16
  outer loop
    vertex 0.03100677074168954 0.03205222609998681 0.02
    vertex 0.03453367683890726 0.03846267131998418 0.02
    vertex 0.0327702237902984 0.0352574487099855 0.015
  endloop
endfacet
facet normal -0.876149 0.482041 0
  outer loop
    vertex 0.03453367683890726 0.03846267131998418 0.009999999999999972
    vertex 0.03453367683890726 0.03846267131998418 0
    vertex 0.0327702237902984 0.0352574487099855 0.004999999999999999
  endloop
endfacet
facet normal -0.876149 0.482041 0
  outer loop
    vertex 0.03453367683890726 0.03846267131998418 0.02
    vertex 0.03453367683890726 0.03846267131998418 0.009999999999999972
    vertex 0.0327702237902984 0.0352574487099855 0.015
  endloop
endfacet
facet normal -0.876149 0.482041 0
  outer loop
    vertex 0.03100677074168954 0.03205222609998681 0
    vertex 0.03100677074168954 0.03205222609998681 0.01000000000000003
    vertex 0.0327702237902984 0.0352574487099855 0.004999999999999999
  endloop
endfacet
facet normal -0.876149 0.482041 0
  outer loop
    vertex 0.03100677074168954 0.03205222609998681 0.01000000000000003
    vertex 0.03100677074168954 0.03205222609998681 0.02
    vertex 0.0327702237902984 0.0352574487099855 0.015
  endloop
endfacet
facet normal -0.698674 -0.71544 0
  outer loop
    vertex 0.03757104217468313 0.02564178087998945 0
    vertex 0.03757104217468313 0.02564178087998945 0.01000000000000003
    vertex 0.03428890645818633 0.02884700348998813 0.005000000000000001
  endloop
endfacet
facet normal -0.698674 -0.71544 -0
  outer loop
    vertex 0.03100677074168954 0.03205222609998681 0.02
    vertex 0.03100677074168954 0.03205222609998681 0.009999999999999972
    vertex 0.03428890645818633 0.02884700348998813 0.015
  endloop
endfacet
facet normal -0.698674 -0.71544 0
  outer loop
    vertex 0.03757104217468313 0.02564178087998945 0.01000000000000003
    vertex 0.03757104217468313 0.02564178087998945 0.02
    vertex 0.03428890645818633 0.02884700348998813 0.015
  endloop
endfacet
facet normal -0.698674 -0.71544 -0
  outer loop
    vertex 0.03100677074168954 0.03205222609998681 0.009999999999999972
    vertex 0.03100677074168954 0.03205222609998681 0
    vertex 0.03428890645818633 0.02884700348998813 0.005000000000000001
  endloop
endfacet
facet normal -0.698674 -0.71544 2.21563e-16
  outer loop
    vertex 0.03757104217468313 0.02564178087998945 0.01000000000000003
    vertex 0.03100677074168954 0.03205222609998681 0.009999999999999972
    vertex 0.03428890645818633 0.02884700348998813 0.005000000000000001
  endloop
endfacet
facet normal -0.698674 -0.71544 -2.21563e-16
  outer loop
    vertex 0.03100677074168954 0.03205222609998681 0.009999999999999972
    vertex 0.03757104217468313 0.02564178087998945 0.01000000000000003
    vertex 0.03428890645818633 0.02884700348998813 0.015
  endloop
endfacet
facet normal -0.698674 -0.71544 -2.21563e-16
  outer loop
    vertex 0.03100677074168954 0.03205222609998681 0
    vertex 0.03757104217468313 0.02564178087998945 0
    vertex 0.03428890645818633 0.02884700348998813 0.005000000000000001
  endloop
endfacet
facet normal -0.698674 -0.71544 2.21563e-16
  outer loop
    vertex 0.03757104217468313 0.02564178087998945 0.02
    vertex 0.03100677074168954 0.03205222609998681 0.02
    vertex 0.03428890645818633 0.02884700348998813 0.015
  endloop
endfacet
facet normal -0.586073 0.810258 2.80547e-16
  outer loop
    vertex 0.02870846671453746 0.01923133565999209 0.02
    vertex 0.03757104217468313 0.02564178087998945 0.02
    vertex 0.03313975444461029 0.02243655826999078 0.01447938359017077
  endloop
endfacet
facet normal -0.586073 0.810258 -2.81932e-16
  outer loop
    vertex 0.03757104217468313 0.02564178087998945 0
    vertex 0.02870846671453746 0.01923133565999209 0
    vertex 0.03313975444461028 0.02243655826999076 0.005493512265210899
  endloop
endfacet
facet normal -0.586073 0.810258 0
  outer loop
    vertex 0.03757104217468313 0.02564178087998945 0.02
    vertex 0.03757104217468313 0.02564178087998945 0.009999999999999972
    vertex 0.03313975444461029 0.02243655826999078 0.01447938359017077
  endloop
endfacet
facet normal -0.586073 0.810258 0
  outer loop
    vertex 0.02870846671453746 0.01923133565999209 0
    vertex 0.02870846671453746 0.01923133565999209 0.01000000000000003
    vertex 0.03313975444461028 0.02243655826999076 0.005493512265210899
  endloop
endfacet
facet normal -0.586073 0.810258 -3.3391e-17
  outer loop
    vertex 0.03313975444461029 0.02243655826999078 0.01447938359017077
    vertex 0.03757104217468313 0.02564178087998945 0.009999999999999972
    vertex 0.03313975444461028 0.02243655826999076 0.005493512265210899
  endloop
endfacet
facet normal -0.586073 0.810258 -3.44718e-17
  outer loop
    vertex 0.02870846671453746 0.01923133565999209 0.01000000000000003
    vertex 0.03313975444461029 0.02243655826999078 0.01447938359017077
    vertex 0.03313975444461028 0.02243655826999076 0.005493512265210899
  endloop
endfacet
facet normal -0.586073 0.810258 0
  outer loop
    vertex 0.03757104217468313 0.02564178087998945 0.009999999999999972
    vertex 0.03757104217468313 0.02564178087998945 0
    vertex 0.03313975444461028 0.02243655826999076 0.005493512265210899
  endloop
endfacet
facet normal -0.586073 0.810258 0
  outer loop
    vertex 0.02870846671453746 0.01923133565999209 0.01000000000000003
    vertex 0.02870846671453746 0.01923133565999209 0.02
    vertex 0.03313975444461029 0.02243655826999078 0.01447938359017077
  endloop
endfacet
facet normal -0.471591 -0.881817 0
  outer loop
    vertex 0.04069521036245438 0.01282089043999472 0
    vertex 0.04069521036245438 0.01282089043999472 0.01000000000000003
    vertex 0.03649985008568345 0.0150645462669938 0.004999999999999999
  endloop
endfacet
facet normal -0.471591 -0.881817 -0
  outer loop
    vertex 0.02870846671453746 0.01923133565999209 0.02
    vertex 0.02870846671453746 0.01923133565999209 0.009999999999999972
    vertex 0.03290382699130837 0.01698767983299301 0.01499999999999999
  endloop
endfacet
facet normal -0.471591 -0.881817 -0
  outer loop
    vertex 0.02870846671453746 0.01923133565999209 0.009999999999999972
    vertex 0.02870846671453746 0.01923133565999209 0
    vertex 0.03266409211835004 0.01711588873739296 0.004999999999999991
  endloop
endfacet
facet normal -0.471591 -0.881817 0
  outer loop
    vertex 0.04069521036245438 0.01282089043999472 0.01000000000000003
    vertex 0.04069521036245438 0.01282089043999472 0.02
    vertex 0.03673958495864179 0.01493633736259385 0.015
  endloop
endfacet
facet normal -0.471591 -0.881817 6.72979e-16
  outer loop
    vertex 0.03470183853849591 0.01602611304999341 0.02
    vertex 0.02870846671453746 0.01923133565999209 0.02
    vertex 0.03290382699130837 0.01698767983299301 0.01499999999999999
  endloop
endfacet
facet normal -0.471591 -0.881817 -6.97904e-16
  outer loop
    vertex 0.03470183853849592 0.01602611304999341 0
    vertex 0.04069521036245438 0.01282089043999472 0
    vertex 0.03649985008568345 0.0150645462669938 0.004999999999999999
  endloop
endfacet
facet normal -0.471591 -0.881817 3.98802e-16
  outer loop
    vertex 0.04069521036245438 0.01282089043999472 0.02
    vertex 0.03470183853849591 0.01602611304999341 0.02
    vertex 0.03673958495864179 0.01493633736259385 0.015
  endloop
endfacet
facet normal -0.471591 -0.881817 -6.97904e-16
  outer loop
    vertex 0.02870846671453746 0.01923133565999209 0
    vertex 0.03470183853849592 0.01602611304999341 0
    vertex 0.03266409211835004 0.01711588873739296 0.004999999999999991
  endloop
endfacet
facet normal -0.471591 -0.881817 -7.39965e-16
  outer loop
    vertex 0.03470183853849592 0.01602611304999341 0
    vertex 0.03649985008568345 0.0150645462669938 0.004999999999999999
    vertex 0.03266409211835004 0.01711588873739296 0.004999999999999991
  endloop
endfacet
facet normal -0.471591 -0.881817 3.89455e-16
  outer loop
    vertex 0.03470183853849591 0.01602611304999341 0.02
    vertex 0.03290382699130837 0.01698767983299301 0.01499999999999999
    vertex 0.03673958495864179 0.01493633736259385 0.015
  endloop
endfacet
facet normal -0.471591 -0.881817 -3.5051e-16
  outer loop
    vertex 0.03673958495864179 0.01493633736259385 0.015
    vertex 0.03290382699130837 0.01698767983299301 0.01499999999999999
    vertex 0.03470183853849591 0.01602611304999341 0.009999999999999998
  endloop
endfacet
facet normal -0.471591 -0.881817 7.78911e-17
  outer loop
    vertex 0.03266409211835004 0.01711588873739296 0.004999999999999991
    vertex 0.03649985008568345 0.0150645462669938 0.004999999999999999
    vertex 0.03470183853849591 0.01602611304999341 0.009999999999999998
  endloop
endfacet
facet normal -0.471591 -0.881817 -3.98802e-16
  outer loop
    vertex 0.04069521036245438 0.01282089043999472 0.01000000000000003
    vertex 0.03673958495864179 0.01493633736259385 0.015
    vertex 0.03470183853849591 0.01602611304999341 0.009999999999999998
  endloop
endfacet
facet normal -0.471591 -0.881817 2.49251e-16
  outer loop
    vertex 0.03649985008568345 0.0150645462669938 0.004999999999999999
    vertex 0.04069521036245438 0.01282089043999472 0.01000000000000003
    vertex 0.03470183853849591 0.01602611304999341 0.009999999999999998
  endloop
endfacet
facet normal -0.471591 -0.881817 -6.72979e-16
  outer loop
    vertex 0.03290382699130837 0.01698767983299301 0.01499999999999999
    vertex 0.02870846671453746 0.01923133565999209 0.009999999999999972
    vertex 0.03470183853849591 0.01602611304999341 0.009999999999999998
  endloop
endfacet
facet normal -0.471591 -0.881817 2.49251e-16
  outer loop
    vertex 0.02870846671453746 0.01923133565999209 0.009999999999999972
    vertex 0.03266409211835004 0.01711588873739296 0.004999999999999991
    vertex 0.03470183853849591 0.01602611304999341 0.009999999999999998
  endloop
endfacet
facet normal -0.392096 0.919924 -1.30918e-16
  outer loop
    vertex 0.03317522071744729 0.009615667829996042 0
    vertex 0.02565523107244021 0.006410445219997361 0
    vertex 0.0336551601696668 0.009820230981849015 0.007914703796991735
  endloop
endfacet
facet normal -0.392096 0.919924 0
  outer loop
    vertex 0.02565523107244021 0.006410445219997361 0
    vertex 0.02565523107244021 0.006410445219997361 0.01000000000000003
    vertex 0.0336551601696668 0.009820230981849015 0.007914703796991735
  endloop
endfacet
facet normal -0.392096 0.919924 -1.57102e-16
  outer loop
    vertex 0.04069521036245438 0.01282089043999472 0
    vertex 0.03317522071744729 0.009615667829996042 0
    vertex 0.0336551601696668 0.009820230981849015 0.007914703796991735
  endloop
endfacet
facet normal -0.392096 0.919924 0
  outer loop
    vertex 0.04069521036245438 0.01282089043999472 0.009999999999999972
    vertex 0.04069521036245438 0.01282089043999472 0
    vertex 0.0336551601696668 0.009820230981849015 0.007914703796991735
  endloop
endfacet
facet normal -0.392096 0.919924 0
  outer loop
    vertex 0.04069521036245438 0.01282089043999472 0.02
    vertex 0.04069521036245438 0.01282089043999472 0.009999999999999972
    vertex 0.03583169442249775 0.01074792864207681 0.01435115849651133
  endloop
endfacet
facet normal -0.392096 0.919924 0
  outer loop
    vertex 0.02565523107244021 0.006410445219997361 0.01000000000000003
    vertex 0.02565523107244021 0.006410445219997361 0.02
    vertex 0.03079450749089845 0.008600943578783318 0.01445317245870062
  endloop
endfacet
facet normal -0.392096 0.919924 1.49445e-16
  outer loop
    vertex 0.02565523107244021 0.006410445219997361 0.02
    vertex 0.03317522071744729 0.009615667829996042 0.02
    vertex 0.03079450749089845 0.008600943578783318 0.01445317245870062
  endloop
endfacet
facet normal -0.392096 0.919924 -7.33729e-17
  outer loop
    vertex 0.03317522071744729 0.009615667829996042 0.02
    vertex 0.04069521036245438 0.01282089043999472 0.02
    vertex 0.03583169442249775 0.01074792864207681 0.01435115849651133
  endloop
endfacet
facet normal -0.392096 0.919924 -3.36285e-17
  outer loop
    vertex 0.0336551601696668 0.009820230981849015 0.007914703796991735
    vertex 0.02565523107244021 0.006410445219997361 0.01000000000000003
    vertex 0.03079450749089845 0.008600943578783318 0.01445317245870062
  endloop
endfacet
facet normal -0.392096 0.919924 2.10213e-16
  outer loop
    vertex 0.03583169442249775 0.01074792864207681 0.01435115849651133
    vertex 0.04069521036245438 0.01282089043999472 0.009999999999999972
    vertex 0.0336551601696668 0.009820230981849015 0.007914703796991735
  endloop
endfacet
facet normal -0.392096 0.919924 1.6709e-16
  outer loop
    vertex 0.03583169442249775 0.01074792864207681 0.01435115849651133
    vertex 0.0336551601696668 0.009820230981849015 0.007914703796991735
    vertex 0.03079450749089845 0.008600943578783318 0.01445317245870062
  endloop
endfacet
facet normal -0.392096 0.919924 0
  outer loop
    vertex 0.03317522071744729 0.009615667829996042 0.02
    vertex 0.03583169442249775 0.01074792864207681 0.01435115849651133
    vertex 0.03079450749089845 0.008600943578783318 0.01445317245870062
  endloop
endfacet
endsolid Created by Gmsh
