solid Created by Gmsh
facet normal 1 0 -9.04045e-16
  outer loop
    vertex 0.04 0.045 0.02
    vertex 0.03999999999999999 0.05260932944606414 0.01232461734693878
    vertex 0.04 0.0525 0.02
  endloop
endfacet
facet normal 1 0 -9.04045e-16
  outer loop
    vertex 0.04 0.0525 0.02
    vertex 0.03999999999999999 0.05260932944606414 0.01232461734693878
    vertex 0.04 0.06 0.02
  endloop
endfacet
facet normal 1 -9.38872e-16 0
  outer loop
    vertex 0.04 0.06 0.02
    vertex 0.03999999999999999 0.05260932944606414 0.01232461734693878
    vertex 0.04 0.06 0.009999999999999972
  endloop
endfacet
facet normal 1 9.11893e-16 -0
  outer loop
    vertex 0.04 0.045 0.01000000000000003
    vertex 0.03999999999999999 0.05260932944606414 0.01232461734693878
    vertex 0.04 0.045 0.02
  endloop
endfacet
facet normal 1 1.32169e-15 -0
  outer loop
    vertex 0.04 0.045 0
    vertex 0.03999999999999999 0.05025 0.005343750000000006
    vertex 0.04 0.045 0.01000000000000003
  endloop
endfacet
facet normal 1 -1.51124e-15 0
  outer loop
    vertex 0.04 0.06 0.009999999999999972
    vertex 0.03999999999999999 0.05540847563515202 0.005381195335276963
    vertex 0.04 0.06 0
  endloop
endfacet
facet normal 1 0 1.28947e-15
  outer loop
    vertex 0.04 0.06 0
    vertex 0.03999999999999999 0.05540847563515202 0.005381195335276963
    vertex 0.04 0.0525 0
  endloop
endfacet
facet normal 1 0 1.29851e-15
  outer loop
    vertex 0.04 0.0525 0
    vertex 0.03999999999999999 0.05025 0.005343750000000006
    vertex 0.04 0.045 0
  endloop
endfacet
facet normal 1 0 0
  outer loop
    vertex 0.03999999999999999 0.05025 0.005343750000000006
    vertex 0.03999999999999999 0.05540847563515202 0.005381195335276963
    vertex 0.03999999999999999 0.05260932944606414 0.01232461734693878
  endloop
endfacet
facet normal 1 -9.39713e-18 1.29455e-15
  outer loop
    vertex 0.04 0.0525 0
    vertex 0.03999999999999999 0.05540847563515202 0.005381195335276963
    vertex 0.03999999999999999 0.05025 0.005343750000000006
  endloop
endfacet
facet normal 1 -1.07521e-15 -4.33456e-16
  outer loop
    vertex 0.03999999999999999 0.05260932944606414 0.01232461734693878
    vertex 0.03999999999999999 0.05540847563515202 0.005381195335276963
    vertex 0.04 0.06 0.009999999999999972
  endloop
endfacet
facet normal 1 1.01688e-15 -3.43677e-16
  outer loop
    vertex 0.03999999999999999 0.05025 0.005343750000000006
    vertex 0.03999999999999999 0.05260932944606414 0.01232461734693878
    vertex 0.04 0.045 0.01000000000000003
  endloop
endfacet
facet normal 0.258736 -0.965948 0
  outer loop
    vertex 0.04 0.045 0.009999999999999972
    vertex 0.03192328052167014 0.04283659299687593 0.008181005859374996
    vertex 0.04 0.045 0
  endloop
endfacet
facet normal 0.258736 -0.965948 -1.90497e-16
  outer loop
    vertex 0.04 0.045 0
    vertex 0.03192328052167014 0.04283659299687593 0.008181005859374996
    vertex 0.02950000000000001 0.0421875 0
  endloop
endfacet
facet normal 0.258736 -0.965948 4.64989e-16
  outer loop
    vertex 0.019 0.039375 0.02
    vertex 0.02612137938212013 0.04128251233449646 0.01262647543812093
    vertex 0.02949999999999999 0.0421875 0.02
  endloop
endfacet
facet normal 0.258736 -0.965948 0
  outer loop
    vertex 0.019 0.039375 0.01000000000000003
    vertex 0.02612137938212013 0.04128251233449646 0.01262647543812093
    vertex 0.019 0.039375 0.02
  endloop
endfacet
facet normal 0.258736 -0.965948 7.48059e-16
  outer loop
    vertex 0.02949999999999999 0.0421875 0.02
    vertex 0.03475 0.04359374999999999 0.01499999999999999
    vertex 0.04 0.045 0.02
  endloop
endfacet
facet normal 0.258736 -0.965948 -3.58014e-16
  outer loop
    vertex 0.02950000000000001 0.0421875 0
    vertex 0.02506103370225642 0.04099849117024725 0.00609428602900128
    vertex 0.019 0.039375 0
  endloop
endfacet
facet normal 0.258736 -0.965948 0
  outer loop
    vertex 0.019 0.039375 0
    vertex 0.02506103370225642 0.04099849117024725 0.00609428602900128
    vertex 0.019 0.039375 0.01000000000000003
  endloop
endfacet
facet normal 0.258736 -0.965948 0
  outer loop
    vertex 0.04 0.045 0.02
    vertex 0.03475 0.04359374999999999 0.01499999999999999
    vertex 0.04 0.045 0.009999999999999972
  endloop
endfacet
facet normal 0.258736 -0.965948 5.29724e-16
  outer loop
    vertex 0.02612137938212013 0.04128251233449646 0.01262647543812093
    vertex 0.03475 0.04359374999999999 0.01499999999999999
    vertex 0.02949999999999999 0.0421875 0.02
  endloop
endfacet
facet normal 0.258736 -0.965948 -4.08081e-16
  outer loop
    vertex 0.03192328052167014 0.04283659299687593 0.008181005859374996
    vertex 0.03475 0.04359374999999999 0.01499999999999999
    vertex 0.02612137938212013 0.04128251233449646 0.01262647543812093
  endloop
endfacet
facet normal 0.258736 -0.965948 -2.4826e-16
  outer loop
    vertex 0.02950000000000001 0.0421875 0
    vertex 0.03192328052167014 0.04283659299687593 0.008181005859374996
    vertex 0.02506103370225642 0.04099849117024725 0.00609428602900128
  endloop
endfacet
facet normal 0.258736 -0.965948 -4.91569e-16
  outer loop
    vertex 0.04 0.045 0.009999999999999972
    vertex 0.03475 0.04359374999999999 0.01499999999999999
    vertex 0.03192328052167014 0.04283659299687593 0.008181005859374996
  endloop
endfacet
facet normal 0.258736 -0.965948 -2.30406e-16
  outer loop
    vertex 0.03192328052167014 0.04283659299687593 0.008181005859374996
    vertex 0.02612137938212013 0.04128251233449646 0.01262647543812093
    vertex 0.02506103370225642 0.04099849117024725 0.00609428602900128
  endloop
endfacet
facet normal 0.258736 -0.965948 -1.30961e-16
  outer loop
    vertex 0.02506103370225642 0.04099849117024725 0.00609428602900128
    vertex 0.02612137938212013 0.04128251233449646 0.01262647543812093
    vertex 0.019 0.039375 0.01000000000000003
  endloop
endfacet
facet normal 0.203954 0.97898 -8.56376e-16
  outer loop
    vertex 0.03700000000000001 0.035625 0.02
    vertex 0.03250000000000001 0.03656249999999999 0.01203842234541421
    vertex 0.02800000000000001 0.0375 0.02
  endloop
endfacet
facet normal 0.203954 0.97898 0
  outer loop
    vertex 0.019 0.039375 0.02
    vertex 0.02543717964001863 0.03803392090832945 0.013180867244295
    vertex 0.019 0.039375 0.009999999999999972
  endloop
endfacet
facet normal 0.203954 0.97898 -0
  outer loop
    vertex 0.04599999999999999 0.03375 0.01000000000000003
    vertex 0.03956282035998136 0.03509107909167054 0.01318086724429502
    vertex 0.04599999999999999 0.03375 0.02
  endloop
endfacet
facet normal 0.203954 0.97898 -1.01336e-15
  outer loop
    vertex 0.02800000000000001 0.0375 0.02
    vertex 0.02543717964001863 0.03803392090832945 0.013180867244295
    vertex 0.019 0.039375 0.02
  endloop
endfacet
facet normal 0.203954 0.97898 -6.48551e-16
  outer loop
    vertex 0.04599999999999999 0.03375 0.02
    vertex 0.03956282035998136 0.03509107909167054 0.01318086724429502
    vertex 0.03700000000000001 0.035625 0.02
  endloop
endfacet
facet normal 0.203954 0.97898 5.54024e-16
  outer loop
    vertex 0.03249999999999999 0.0365625 0.004886006976090675
    vertex 0.02524696809425367 0.03807354831369715 0.006373798186900197
    vertex 0.03250000000000001 0.03656249999999999 0.01203842234541421
  endloop
endfacet
facet normal 0.203954 0.97898 5.54024e-16
  outer loop
    vertex 0.03250000000000001 0.03656249999999999 0.01203842234541421
    vertex 0.03975303190574633 0.03505145168630285 0.006373798186900198
    vertex 0.03249999999999999 0.0365625 0.004886006976090675
  endloop
endfacet
facet normal 0.203954 0.97898 -0
  outer loop
    vertex 0.04599999999999999 0.03375 0
    vertex 0.03975303190574633 0.03505145168630285 0.006373798186900198
    vertex 0.04599999999999999 0.03375 0.01000000000000003
  endloop
endfacet
facet normal 0.203954 0.97898 0
  outer loop
    vertex 0.019 0.039375 0.009999999999999972
    vertex 0.02524696809425367 0.03807354831369715 0.006373798186900197
    vertex 0.019 0.039375 0
  endloop
endfacet
facet normal 0.203954 0.97898 5.15108e-16
  outer loop
    vertex 0.03250000000000001 0.03656249999999999 0.01203842234541421
    vertex 0.02524696809425367 0.03807354831369715 0.006373798186900197
    vertex 0.02543717964001863 0.03803392090832945 0.013180867244295
  endloop
endfacet
facet normal 0.203954 0.97898 3.67015e-16
  outer loop
    vertex 0.03956282035998136 0.03509107909167054 0.01318086724429502
    vertex 0.03975303190574633 0.03505145168630285 0.006373798186900198
    vertex 0.03250000000000001 0.03656249999999999 0.01203842234541421
  endloop
endfacet
facet normal 0.203954 0.97898 5.7822e-16
  outer loop
    vertex 0.019 0.039375 0
    vertex 0.02524696809425367 0.03807354831369715 0.006373798186900197
    vertex 0.02799999999999998 0.03750000000000001 0
  endloop
endfacet
facet normal 0.203954 0.97898 2.45744e-16
  outer loop
    vertex 0.03699999999999997 0.035625 0
    vertex 0.03975303190574633 0.03505145168630285 0.006373798186900198
    vertex 0.04599999999999999 0.03375 0
  endloop
endfacet
facet normal 0.203954 0.97898 -6.16766e-16
  outer loop
    vertex 0.03700000000000001 0.035625 0.02
    vertex 0.03956282035998136 0.03509107909167054 0.01318086724429502
    vertex 0.03250000000000001 0.03656249999999999 0.01203842234541421
  endloop
endfacet
facet normal 0.203954 0.97898 -1.03876e-15
  outer loop
    vertex 0.03250000000000001 0.03656249999999999 0.01203842234541421
    vertex 0.02543717964001863 0.03803392090832945 0.013180867244295
    vertex 0.02800000000000001 0.0375 0.02
  endloop
endfacet
facet normal 0.203954 0.97898 6.03431e-16
  outer loop
    vertex 0.02799999999999998 0.03750000000000001 0
    vertex 0.03249999999999999 0.0365625 0.004886006976090675
    vertex 0.03699999999999997 0.035625 0
  endloop
endfacet
facet normal 0.203954 0.97898 1.77129e-16
  outer loop
    vertex 0.03249999999999999 0.0365625 0.004886006976090675
    vertex 0.03975303190574633 0.03505145168630285 0.006373798186900198
    vertex 0.03699999999999997 0.035625 0
  endloop
endfacet
facet normal 0.203954 0.97898 7.28198e-16
  outer loop
    vertex 0.02799999999999998 0.03750000000000001 0
    vertex 0.02524696809425367 0.03807354831369715 0.006373798186900197
    vertex 0.03249999999999999 0.0365625 0.004886006976090675
  endloop
endfacet
facet normal 0.203954 0.97898 3.45406e-16
  outer loop
    vertex 0.04599999999999999 0.03375 0.01000000000000003
    vertex 0.03975303190574633 0.03505145168630285 0.006373798186900198
    vertex 0.03956282035998136 0.03509107909167054 0.01318086724429502
  endloop
endfacet
facet normal 0.203954 0.97898 4.98919e-16
  outer loop
    vertex 0.02543717964001863 0.03803392090832945 0.013180867244295
    vertex 0.02524696809425367 0.03807354831369715 0.006373798186900197
    vertex 0.019 0.039375 0.009999999999999972
  endloop
endfacet
facet normal 0.274418 -0.961611 0
  outer loop
    vertex 0.0262889591796573 0.028125 0.01000000000000003
    vertex 0.03373972615625499 0.03025124815834729 0.01231094604480111
    vertex 0.0262889591796573 0.028125 0.02
  endloop
endfacet
facet normal 0.274418 -0.961611 4.72933e-16
  outer loop
    vertex 0.0262889591796573 0.028125 0.02
    vertex 0.03373972615625499 0.03025124815834729 0.01231094604480111
    vertex 0.03614447958982864 0.0309375 0.02
  endloop
endfacet
facet normal 0.274418 -0.961611 -6.82253e-16
  outer loop
    vertex 0.04599999999999999 0.03375 0
    vertex 0.03906478118147613 0.03177087539619237 0.0072681868451413
    vertex 0.03614447958982864 0.0309375 0
  endloop
endfacet
facet normal 0.274418 -0.961611 0
  outer loop
    vertex 0.04599999999999999 0.03375 0.009999999999999972
    vertex 0.03906478118147613 0.03177087539619237 0.0072681868451413
    vertex 0.04599999999999999 0.03375 0
  endloop
endfacet
facet normal 0.274418 -0.961611 -3.63304e-16
  outer loop
    vertex 0.03614447958982864 0.0309375 0
    vertex 0.03164794726520009 0.02965431081904452 0.005459608373084293
    vertex 0.0262889591796573 0.028125 0
  endloop
endfacet
facet normal 0.274418 -0.961611 7.51796e-16
  outer loop
    vertex 0.03614447958982864 0.0309375 0.02
    vertex 0.0402410848233628 0.03210656076389674 0.01406372966067878
    vertex 0.04599999999999999 0.03375 0.02
  endloop
endfacet
facet normal 0.274418 -0.961611 0
  outer loop
    vertex 0.0262889591796573 0.028125 0
    vertex 0.03164794726520009 0.02965431081904452 0.005459608373084293
    vertex 0.0262889591796573 0.028125 0.01000000000000003
  endloop
endfacet
facet normal 0.274418 -0.961611 0
  outer loop
    vertex 0.04599999999999999 0.03375 0.02
    vertex 0.0402410848233628 0.03210656076389674 0.01406372966067878
    vertex 0.04599999999999999 0.03375 0.009999999999999972
  endloop
endfacet
facet normal 0.274418 -0.961611 -6.70034e-16
  outer loop
    vertex 0.03906478118147613 0.03177087539619237 0.0072681868451413
    vertex 0.03164794726520009 0.02965431081904452 0.005459608373084293
    vertex 0.03614447958982864 0.0309375 0
  endloop
endfacet
facet normal 0.274418 -0.961611 5.33825e-16
  outer loop
    vertex 0.03614447958982864 0.0309375 0.02
    vertex 0.03373972615625499 0.03025124815834729 0.01231094604480111
    vertex 0.0402410848233628 0.03210656076389674 0.01406372966067878
  endloop
endfacet
facet normal 0.274418 -0.961611 -2.94411e-16
  outer loop
    vertex 0.03373972615625499 0.03025124815834729 0.01231094604480111
    vertex 0.03164794726520009 0.02965431081904452 0.005459608373084293
    vertex 0.03906478118147613 0.03177087539619237 0.0072681868451413
  endloop
endfacet
facet normal 0.274418 -0.961611 -2.82e-16
  outer loop
    vertex 0.0262889591796573 0.028125 0.01000000000000003
    vertex 0.03164794726520009 0.02965431081904452 0.005459608373084293
    vertex 0.03373972615625499 0.03025124815834729 0.01231094604480111
  endloop
endfacet
facet normal 0.274418 -0.961611 -7.73548e-17
  outer loop
    vertex 0.03373972615625499 0.03025124815834729 0.01231094604480111
    vertex 0.03906478118147613 0.03177087539619237 0.0072681868451413
    vertex 0.0402410848233628 0.03210656076389674 0.01406372966067878
  endloop
endfacet
facet normal 0.274418 -0.961611 -1.94749e-16
  outer loop
    vertex 0.0402410848233628 0.03210656076389674 0.01406372966067878
    vertex 0.03906478118147613 0.03177087539619237 0.0072681868451413
    vertex 0.04599999999999999 0.03375 0.009999999999999972
  endloop
endfacet
facet normal 0.610946 -0.791673 0
  outer loop
    vertex 0.0262889591796573 0.028125 0.02
    vertex 0.02264447958982865 0.0253125 0.015
    vertex 0.0262889591796573 0.028125 0.009999999999999972
  endloop
endfacet
facet normal 0.610946 -0.791673 0
  outer loop
    vertex 0.019 0.0225 0
    vertex 0.02264447958982865 0.0253125 0.005
    vertex 0.019 0.0225 0.01000000000000003
  endloop
endfacet
facet normal 0.610946 -0.791673 0
  outer loop
    vertex 0.0262889591796573 0.028125 0.009999999999999972
    vertex 0.02264447958982865 0.0253125 0.005
    vertex 0.0262889591796573 0.028125 0
  endloop
endfacet
facet normal 0.610946 -0.791673 0
  outer loop
    vertex 0.019 0.0225 0.01000000000000003
    vertex 0.02264447958982865 0.0253125 0.015
    vertex 0.019 0.0225 0.02
  endloop
endfacet
facet normal 0.610946 -0.791673 0
  outer loop
    vertex 0.019 0.0225 0.01000000000000003
    vertex 0.02264447958982865 0.0253125 0.005
    vertex 0.0262889591796573 0.028125 0.009999999999999972
  endloop
endfacet
facet normal 0.610946 -0.791673 0
  outer loop
    vertex 0.0262889591796573 0.028125 0.009999999999999972
    vertex 0.02264447958982865 0.0253125 0.015
    vertex 0.019 0.0225 0.01000000000000003
  endloop
endfacet
facet normal 0.610946 -0.791673 0
  outer loop
    vertex 0.0262889591796573 0.028125 0
    vertex 0.02264447958982865 0.0253125 0.005
    vertex 0.019 0.0225 0
  endloop
endfacet
facet normal 0.610946 -0.791673 0
  outer loop
    vertex 0.019 0.0225 0.02
    vertex 0.02264447958982865 0.0253125 0.015
    vertex 0.0262889591796573 0.028125 0.02
  endloop
endfacet
facet normal 0.203954 0.97898 -4.16615e-16
  outer loop
    vertex 0.03700000000000001 0.01875 0.02
    vertex 0.03250000000000001 0.01968749999999999 0.01203842234541421
    vertex 0.02800000000000001 0.020625 0.02
  endloop
endfacet
facet normal 0.203954 0.97898 0
  outer loop
    vertex 0.019 0.0225 0.02
    vertex 0.02543717964001863 0.02115892090832945 0.013180867244295
    vertex 0.019 0.0225 0.009999999999999972
  endloop
endfacet
facet normal 0.203954 0.97898 -0
  outer loop
    vertex 0.04599999999999999 0.016875 0.01000000000000003
    vertex 0.03956282035998136 0.01821607909167054 0.01318086724429502
    vertex 0.04599999999999999 0.016875 0.02
  endloop
endfacet
facet normal 0.203954 0.97898 -6.08016e-16
  outer loop
    vertex 0.02800000000000001 0.020625 0.02
    vertex 0.02543717964001863 0.02115892090832945 0.013180867244295
    vertex 0.019 0.0225 0.02
  endloop
endfacet
facet normal 0.203954 0.97898 -6.48551e-16
  outer loop
    vertex 0.04599999999999999 0.016875 0.02
    vertex 0.03956282035998136 0.01821607909167054 0.01318086724429502
    vertex 0.03700000000000001 0.01875 0.02
  endloop
endfacet
facet normal 0.203954 0.97898 7.91462e-17
  outer loop
    vertex 0.03249999999999999 0.0196875 0.004886006976090676
    vertex 0.02524696809425366 0.02119854831369715 0.006373798186900196
    vertex 0.03250000000000001 0.01968749999999999 0.01203842234541421
  endloop
endfacet
facet normal 0.203954 0.97898 7.91462e-17
  outer loop
    vertex 0.03250000000000001 0.01968749999999999 0.01203842234541421
    vertex 0.03975303190574633 0.01817645168630284 0.0063737981869002
    vertex 0.03249999999999999 0.0196875 0.004886006976090676
  endloop
endfacet
facet normal 0.203954 0.97898 -0
  outer loop
    vertex 0.04599999999999999 0.016875 0
    vertex 0.03975303190574633 0.01817645168630284 0.0063737981869002
    vertex 0.04599999999999999 0.016875 0.01000000000000003
  endloop
endfacet
facet normal 0.203954 0.97898 0
  outer loop
    vertex 0.019 0.0225 0.009999999999999972
    vertex 0.02524696809425366 0.02119854831369715 0.006373798186900196
    vertex 0.019 0.0225 0
  endloop
endfacet
facet normal 0.203954 0.97898 3.43406e-17
  outer loop
    vertex 0.03250000000000001 0.01968749999999999 0.01203842234541421
    vertex 0.02524696809425366 0.02119854831369715 0.006373798186900196
    vertex 0.02543717964001863 0.02115892090832945 0.013180867244295
  endloop
endfacet
facet normal 0.203954 0.97898 -1.15899e-16
  outer loop
    vertex 0.03956282035998136 0.01821607909167054 0.01318086724429502
    vertex 0.03975303190574633 0.01817645168630284 0.0063737981869002
    vertex 0.03250000000000001 0.01968749999999999 0.01203842234541421
  endloop
endfacet
facet normal 0.203954 0.97898 6.64954e-16
  outer loop
    vertex 0.019 0.0225 0
    vertex 0.02524696809425366 0.02119854831369715 0.006373798186900196
    vertex 0.02799999999999998 0.020625 0
  endloop
endfacet
facet normal 0.203954 0.97898 7.80598e-16
  outer loop
    vertex 0.03699999999999997 0.01875 0
    vertex 0.03975303190574633 0.01817645168630284 0.0063737981869002
    vertex 0.04599999999999999 0.016875 0
  endloop
endfacet
facet normal 0.203954 0.97898 -6.32997e-16
  outer loop
    vertex 0.03250000000000001 0.01968749999999999 0.01203842234541421
    vertex 0.02543717964001863 0.02115892090832945 0.013180867244295
    vertex 0.02800000000000001 0.020625 0.02
  endloop
endfacet
facet normal 0.203954 0.97898 -4.46344e-16
  outer loop
    vertex 0.03700000000000001 0.01875 0.02
    vertex 0.03956282035998136 0.01821607909167054 0.01318086724429502
    vertex 0.03250000000000001 0.01968749999999999 0.01203842234541421
  endloop
endfacet
facet normal 0.203954 0.97898 6.03431e-16
  outer loop
    vertex 0.02799999999999998 0.020625 0
    vertex 0.03249999999999999 0.0196875 0.004886006976090676
    vertex 0.03699999999999997 0.01875 0
  endloop
endfacet
facet normal 0.203954 0.97898 5.51068e-16
  outer loop
    vertex 0.03249999999999999 0.0196875 0.004886006976090676
    vertex 0.03975303190574633 0.01817645168630284 0.0063737981869002
    vertex 0.03699999999999997 0.01875 0
  endloop
endfacet
facet normal 0.203954 0.97898 8.06922e-16
  outer loop
    vertex 0.02799999999999998 0.020625 0
    vertex 0.02524696809425366 0.02119854831369715 0.006373798186900196
    vertex 0.03249999999999999 0.0196875 0.004886006976090676
  endloop
endfacet
facet normal 0.203954 0.97898 -1.53514e-16
  outer loop
    vertex 0.04599999999999999 0.016875 0.01000000000000003
    vertex 0.03975303190574633 0.01817645168630284 0.0063737981869002
    vertex 0.03956282035998136 0.01821607909167054 0.01318086724429502
  endloop
endfacet
facet normal 0.203954 0.97898 4.7973e-18
  outer loop
    vertex 0.02543717964001863 0.02115892090832945 0.013180867244295
    vertex 0.02524696809425366 0.02119854831369715 0.006373798186900196
    vertex 0.019 0.0225 0.009999999999999972
  endloop
endfacet
facet normal 0.329688 -0.94409 -1.05008e-16
  outer loop
    vertex 0.04599999999999999 0.016875 0
    vertex 0.03928863257537839 0.01453130561367426 0.007564476292424518
    vertex 0.0379461679850929 0.0140625 0
  endloop
endfacet
facet normal 0.329688 -0.94409 0
  outer loop
    vertex 0.04599999999999999 0.016875 0.009999999999999972
    vertex 0.03928863257537839 0.01453130561367426 0.007564476292424518
    vertex 0.04599999999999999 0.016875 0
  endloop
endfacet
facet normal 0.329688 -0.94409 0
  outer loop
    vertex 0.02989233597018582 0.01125 0.01000000000000003
    vertex 0.03576084316893778 0.01329935693542402 0.01370598295699734
    vertex 0.02989233597018582 0.01125 0.02
  endloop
endfacet
facet normal 0.329688 -0.94409 0
  outer loop
    vertex 0.02989233597018582 0.01125 0
    vertex 0.03415132601419795 0.01273729318870978 0.005129827917818283
    vertex 0.02989233597018582 0.01125 0.01000000000000003
  endloop
endfacet
facet normal 0.329688 -0.94409 0
  outer loop
    vertex 0.04599999999999999 0.016875 0.02
    vertex 0.04090735086843842 0.0150965825142608 0.01430926067546361
    vertex 0.04599999999999999 0.016875 0.009999999999999972
  endloop
endfacet
facet normal 0.329688 -0.94409 -1.89306e-16
  outer loop
    vertex 0.02989233597018582 0.01125 0.02
    vertex 0.03576084316893778 0.01329935693542402 0.01370598295699734
    vertex 0.03794616798509291 0.0140625 0.02
  endloop
endfacet
facet normal 0.329688 -0.94409 1.99223e-17
  outer loop
    vertex 0.03576084316893778 0.01329935693542402 0.01370598295699734
    vertex 0.03415132601419795 0.01273729318870978 0.005129827917818283
    vertex 0.03928863257537839 0.01453130561367426 0.007564476292424518
  endloop
endfacet
facet normal 0.329688 -0.94409 0
  outer loop
    vertex 0.02989233597018582 0.01125 0.01000000000000003
    vertex 0.03415132601419795 0.01273729318870978 0.005129827917818283
    vertex 0.03576084316893778 0.01329935693542402 0.01370598295699734
  endloop
endfacet
facet normal 0.329688 -0.94409 -7.74227e-17
  outer loop
    vertex 0.0379461679850929 0.0140625 0
    vertex 0.03415132601419795 0.01273729318870978 0.005129827917818283
    vertex 0.02989233597018582 0.01125 0
  endloop
endfacet
facet normal 0.329688 -0.94409 -1.39583e-16
  outer loop
    vertex 0.03794616798509291 0.0140625 0.02
    vertex 0.04090735086843842 0.0150965825142608 0.01430926067546361
    vertex 0.04599999999999999 0.016875 0.02
  endloop
endfacet
facet normal 0.329688 -0.94409 9.67561e-18
  outer loop
    vertex 0.04090735086843842 0.0150965825142608 0.01430926067546361
    vertex 0.03928863257537839 0.01453130561367426 0.007564476292424518
    vertex 0.04599999999999999 0.016875 0.009999999999999972
  endloop
endfacet
facet normal 0.329688 -0.94409 -1.57272e-16
  outer loop
    vertex 0.03928863257537839 0.01453130561367426 0.007564476292424518
    vertex 0.03415132601419795 0.01273729318870978 0.005129827917818283
    vertex 0.0379461679850929 0.0140625 0
  endloop
endfacet
facet normal 0.329688 -0.94409 3.55563e-17
  outer loop
    vertex 0.04090735086843842 0.0150965825142608 0.01430926067546361
    vertex 0.03576084316893778 0.01329935693542402 0.01370598295699734
    vertex 0.03928863257537839 0.01453130561367426 0.007564476292424518
  endloop
endfacet
facet normal 0.329688 -0.94409 -2.18745e-16
  outer loop
    vertex 0.03794616798509291 0.0140625 0.02
    vertex 0.03576084316893778 0.01329935693542402 0.01370598295699734
    vertex 0.04090735086843842 0.0150965825142608 0.01430926067546361
  endloop
endfacet
facet normal 0.458846 -0.888516 1.10551e-16
  outer loop
    vertex 0.019 0.005624999999999998 0.01000000000000003
    vertex 0.02989233597018582 0.01125 0.009999999999999972
    vertex 0.0244461679850929 0.008437499999999994 0.02
  endloop
endfacet
facet normal 0.458846 -0.888516 8.29136e-17
  outer loop
    vertex 0.02444616798509292 0.008437500000000001 0
    vertex 0.02989233597018582 0.01125 0.009999999999999972
    vertex 0.019 0.005624999999999998 0.01000000000000003
  endloop
endfacet
facet normal 0.458846 -0.888516 0
  outer loop
    vertex 0.02444616798509292 0.008437500000000001 0
    vertex 0.02989233597018582 0.01125 0
    vertex 0.02989233597018582 0.01125 0.009999999999999972
  endloop
endfacet
facet normal 0.458846 -0.888516 0
  outer loop
    vertex 0.02989233597018582 0.01125 0.009999999999999972
    vertex 0.02989233597018582 0.01125 0.02
    vertex 0.0244461679850929 0.008437499999999994 0.02
  endloop
endfacet
facet normal 0.458846 -0.888516 0
  outer loop
    vertex 0.019 0.005624999999999998 0.01000000000000003
    vertex 0.019 0.005624999999999998 0
    vertex 0.02444616798509292 0.008437500000000001 0
  endloop
endfacet
facet normal 0.458846 -0.888516 0
  outer loop
    vertex 0.0244461679850929 0.008437499999999994 0.02
    vertex 0.019 0.005624999999999998 0.02
    vertex 0.019 0.005624999999999998 0.01000000000000003
  endloop
endfacet
endsolid Created by Gmsh
