solid Created by Gmsh
facet normal -0.747564 -0.664189 0
  outer loop
    vertex 0.03521324755248875 0.04066827128912207 0
    vertex 0.03521324755248875 0.04066827128912207 0.01000000000000003
    vertex 0.03263234874014784 0.04357314780977365 0.005000000000000001
  endloop
endfacet
facet normal -0.747564 -0.664189 -0
  outer loop
    vertex 0.03005144992780694 0.04647802433042523 0.02
    vertex 0.03005144992780694 0.04647802433042523 0.009999999999999972
    vertex 0.03263234874014784 0.04357314780977365 0.015
  endloop
endfacet
facet normal -0.747564 -0.664189 0
  outer loop
    vertex 0.03521324755248875 0.04066827128912207 0.01000000000000003
    vertex 0.03521324755248875 0.04066827128912207 0.02
    vertex 0.03263234874014784 0.04357314780977365 0.015
  endloop
endfacet
facet normal -0.747564 -0.664189 -0
  outer loop
    vertex 0.03005144992780694 0.04647802433042523 0.009999999999999972
    vertex 0.03005144992780694 0.04647802433042523 0
    vertex 0.03263234874014784 0.04357314780977365 0.005000000000000001
  endloop
endfacet
facet normal -0.747564 -0.664189 -5.23158e-16
  outer loop
    vertex 0.03005144992780694 0.04647802433042523 0
    vertex 0.03521324755248875 0.04066827128912207 0
    vertex 0.03263234874014784 0.04357314780977365 0.005000000000000001
  endloop
endfacet
facet normal -0.747564 -0.664189 -5.23158e-16
  outer loop
    vertex 0.03005144992780694 0.04647802433042523 0.009999999999999972
    vertex 0.03521324755248875 0.04066827128912207 0.01000000000000003
    vertex 0.03263234874014784 0.04357314780977365 0.015
  endloop
endfacet
facet normal -0.747564 -0.664189 5.23158e-16
  outer loop
    vertex 0.03521324755248875 0.04066827128912207 0.02
    vertex 0.03005144992780694 0.04647802433042523 0.02
    vertex 0.03263234874014784 0.04357314780977365 0.015
  endloop
endfacet
facet normal -0.747564 -0.664189 5.23158e-16
  outer loop
    vertex 0.03521324755248875 0.04066827128912207 0.01000000000000003
    vertex 0.03005144992780694 0.04647802433042523 0.009999999999999972
    vertex 0.03263234874014784 0.04357314780977365 0.005000000000000001
  endloop
endfacet
facet normal -0.817325 0.576177 -6.67306e-16
  outer loop
    vertex 0.03111762995690249 0.03485851824781892 0.01000000000000003
    vertex 0.03521324755248875 0.04066827128912207 0.009999999999999972
    vertex 0.03316543875469562 0.03776339476847049 0.005000000000000001
  endloop
endfacet
facet normal -0.817325 0.576177 7.14971e-16
  outer loop
    vertex 0.03521324755248875 0.04066827128912207 0.009999999999999972
    vertex 0.03111762995690249 0.03485851824781892 0.01000000000000003
    vertex 0.03316543875469562 0.03776339476847049 0.015
  endloop
endfacet
facet normal -0.817325 0.576177 -6.67306e-16
  outer loop
    vertex 0.03111762995690249 0.03485851824781892 0.02
    vertex 0.03521324755248875 0.04066827128912207 0.02
    vertex 0.03316543875469562 0.03776339476847049 0.015
  endloop
endfacet
facet normal -0.817325 0.576177 7.14971e-16
  outer loop
    vertex 0.03521324755248875 0.04066827128912207 0
    vertex 0.03111762995690249 0.03485851824781892 0
    vertex 0.03316543875469562 0.03776339476847049 0.005000000000000001
  endloop
endfacet
facet normal -0.817325 0.576177 0
  outer loop
    vertex 0.03521324755248875 0.04066827128912207 0.009999999999999972
    vertex 0.03521324755248875 0.04066827128912207 0
    vertex 0.03316543875469562 0.03776339476847049 0.005000000000000001
  endloop
endfacet
facet normal -0.817325 0.576177 0
  outer loop
    vertex 0.03521324755248875 0.04066827128912207 0.02
    vertex 0.03521324755248875 0.04066827128912207 0.009999999999999972
    vertex 0.03316543875469562 0.03776339476847049 0.015
  endloop
endfacet
facet normal -0.817325 0.576177 0
  outer loop
    vertex 0.03111762995690249 0.03485851824781892 0
    vertex 0.03111762995690249 0.03485851824781892 0.01000000000000003
    vertex 0.03316543875469562 0.03776339476847049 0.005000000000000001
  endloop
endfacet
facet normal -0.817325 0.576177 0
  outer loop
    vertex 0.03111762995690249 0.03485851824781892 0.01000000000000003
    vertex 0.03111762995690249 0.03485851824781892 0.02
    vertex 0.03316543875469562 0.03776339476847049 0.015
  endloop
endfacet
facet normal -0.555985 0.831193 -1.55635e-15
  outer loop
    vertex 0.03111762995690249 0.03485851824781892 0
    vertex 0.02243209337721691 0.02904876520651577 0
    vertex 0.0267748616670597 0.03195364172716735 0.004999999999999985
  endloop
endfacet
facet normal -0.555985 0.831193 1.4915e-15
  outer loop
    vertex 0.02243209337721691 0.02904876520651577 0.02
    vertex 0.03111762995690249 0.03485851824781892 0.02
    vertex 0.02677486166705972 0.03195364172716737 0.01499999999999999
  endloop
endfacet
facet normal -0.555985 0.831193 0
  outer loop
    vertex 0.02243209337721691 0.02904876520651577 0
    vertex 0.02243209337721691 0.02904876520651577 0.01000000000000003
    vertex 0.0267748616670597 0.03195364172716735 0.004999999999999985
  endloop
endfacet
facet normal -0.555985 0.831193 0
  outer loop
    vertex 0.03111762995690249 0.03485851824781892 0.02
    vertex 0.03111762995690249 0.03485851824781892 0.009999999999999972
    vertex 0.02677486166705972 0.03195364172716737 0.01499999999999999
  endloop
endfacet
facet normal -0.555985 0.831193 0
  outer loop
    vertex 0.03111762995690249 0.03485851824781892 0.009999999999999972
    vertex 0.0267748616670597 0.03195364172716735 0.004999999999999985
    vertex 0.02677486166705972 0.03195364172716737 0.01499999999999999
  endloop
endfacet
facet normal -0.555985 0.831193 3.86379e-18
  outer loop
    vertex 0.0267748616670597 0.03195364172716735 0.004999999999999985
    vertex 0.02243209337721691 0.02904876520651577 0.01000000000000003
    vertex 0.02677486166705972 0.03195364172716737 0.01499999999999999
  endloop
endfacet
facet normal -0.555985 0.831193 0
  outer loop
    vertex 0.03111762995690249 0.03485851824781892 0.009999999999999972
    vertex 0.03111762995690249 0.03485851824781892 0
    vertex 0.0267748616670597 0.03195364172716735 0.004999999999999985
  endloop
endfacet
facet normal -0.555985 0.831193 0
  outer loop
    vertex 0.02243209337721691 0.02904876520651577 0.01000000000000003
    vertex 0.02243209337721691 0.02904876520651577 0.02
    vertex 0.02677486166705972 0.03195364172716737 0.01499999999999999
  endloop
endfacet
facet normal -0.497662 -0.867371 -1.51981e-16
  outer loop
    vertex 0.02243209337721691 0.02904876520651577 0
    vertex 0.03255785964977392 0.02323901216521261 0
    vertex 0.02749497651349541 0.02614388868586419 0.005728862973760926
  endloop
endfacet
facet normal -0.497662 -0.867371 9.76202e-17
  outer loop
    vertex 0.03255785964977392 0.02323901216521261 0.02
    vertex 0.02243209337721691 0.02904876520651577 0.02
    vertex 0.02749497651349541 0.02614388868586419 0.01405396560956745
  endloop
endfacet
facet normal -0.497662 -0.867371 0
  outer loop
    vertex 0.02243209337721691 0.02904876520651577 0.009999999999999972
    vertex 0.02749497651349541 0.02614388868586419 0.005728862973760926
    vertex 0.02749497651349541 0.02614388868586419 0.01405396560956745
  endloop
endfacet
facet normal -0.497662 -0.867371 0
  outer loop
    vertex 0.02749497651349541 0.02614388868586419 0.005728862973760926
    vertex 0.03255785964977392 0.02323901216521261 0.01000000000000003
    vertex 0.02749497651349541 0.02614388868586419 0.01405396560956745
  endloop
endfacet
facet normal -0.497662 -0.867371 -0
  outer loop
    vertex 0.02243209337721691 0.02904876520651577 0.02
    vertex 0.02243209337721691 0.02904876520651577 0.009999999999999972
    vertex 0.02749497651349541 0.02614388868586419 0.01405396560956745
  endloop
endfacet
facet normal -0.497662 -0.867371 0
  outer loop
    vertex 0.03255785964977392 0.02323901216521261 0
    vertex 0.03255785964977392 0.02323901216521261 0.01000000000000003
    vertex 0.02749497651349541 0.02614388868586419 0.005728862973760926
  endloop
endfacet
facet normal -0.497662 -0.867371 -0
  outer loop
    vertex 0.02243209337721691 0.02904876520651577 0.009999999999999972
    vertex 0.02243209337721691 0.02904876520651577 0
    vertex 0.02749497651349541 0.02614388868586419 0.005728862973760926
  endloop
endfacet
facet normal -0.497662 -0.867371 0
  outer loop
    vertex 0.03255785964977392 0.02323901216521261 0.01000000000000003
    vertex 0.03255785964977392 0.02323901216521261 0.02
    vertex 0.02749497651349541 0.02614388868586419 0.01405396560956745
  endloop
endfacet
facet normal -0.906276 -0.422686 -1.58557e-16
  outer loop
    vertex 0.03526751939302803 0.01742925912390946 0.01000000000000003
    vertex 0.03255785964977392 0.02323901216521261 0.009999999999999972
    vertex 0.03391268952140097 0.02033413564456104 0.005000000000000001
  endloop
endfacet
facet normal -0.906276 -0.422686 1.58557e-16
  outer loop
    vertex 0.03255785964977392 0.02323901216521261 0.009999999999999972
    vertex 0.03526751939302803 0.01742925912390946 0.01000000000000003
    vertex 0.03391268952140097 0.02033413564456104 0.015
  endloop
endfacet
facet normal -0.906276 -0.422686 1.58557e-16
  outer loop
    vertex 0.03255785964977392 0.02323901216521261 0
    vertex 0.03526751939302803 0.01742925912390946 0
    vertex 0.03391268952140097 0.02033413564456104 0.005000000000000001
  endloop
endfacet
facet normal -0.906276 -0.422686 -1.58557e-16
  outer loop
    vertex 0.03526751939302803 0.01742925912390946 0.02
    vertex 0.03255785964977392 0.02323901216521261 0.02
    vertex 0.03391268952140097 0.02033413564456104 0.015
  endloop
endfacet
facet normal -0.906276 -0.422686 -0
  outer loop
    vertex 0.03255785964977392 0.02323901216521261 0.009999999999999972
    vertex 0.03255785964977392 0.02323901216521261 0
    vertex 0.03391268952140097 0.02033413564456104 0.005000000000000001
  endloop
endfacet
facet normal -0.906276 -0.422686 -0
  outer loop
    vertex 0.03255785964977392 0.02323901216521261 0.02
    vertex 0.03255785964977392 0.02323901216521261 0.009999999999999972
    vertex 0.03391268952140097 0.02033413564456104 0.015
  endloop
endfacet
facet normal -0.906276 -0.422686 0
  outer loop
    vertex 0.03526751939302803 0.01742925912390946 0
    vertex 0.03526751939302803 0.01742925912390946 0.01000000000000003
    vertex 0.03391268952140097 0.02033413564456104 0.005000000000000001
  endloop
endfacet
facet normal -0.906276 -0.422686 0
  outer loop
    vertex 0.03526751939302803 0.01742925912390946 0.01000000000000003
    vertex 0.03526751939302803 0.01742925912390946 0.02
    vertex 0.03391268952140097 0.02033413564456104 0.015
  endloop
endfacet
facet normal -0.999386 0.0350447 0
  outer loop
    vertex 0.03506379292607734 0.01161950608260631 0.01000000000000003
    vertex 0.03526751939302803 0.01742925912390946 0.009999999999999972
    vertex 0.03516565615955269 0.01452438260325788 0.004999999999999999
  endloop
endfacet
facet normal -0.999386 0.0350447 0
  outer loop
    vertex 0.03526751939302803 0.01742925912390946 0.009999999999999972
    vertex 0.03506379292607734 0.01161950608260631 0.01000000000000003
    vertex 0.03516565615955269 0.01452438260325788 0.015
  endloop
endfacet
facet normal -0.999386 0.0350447 0
  outer loop
    vertex 0.03506379292607734 0.01161950608260631 0.02
    vertex 0.03526751939302803 0.01742925912390946 0.02
    vertex 0.03516565615955269 0.01452438260325788 0.015
  endloop
endfacet
facet normal -0.999386 0.0350447 0
  outer loop
    vertex 0.03526751939302803 0.01742925912390946 0
    vertex 0.03506379292607734 0.01161950608260631 0
    vertex 0.03516565615955269 0.01452438260325788 0.004999999999999999
  endloop
endfacet
facet normal -0.999386 0.0350447 0
  outer loop
    vertex 0.03526751939302803 0.01742925912390946 0.009999999999999972
    vertex 0.03526751939302803 0.01742925912390946 0
    vertex 0.03516565615955269 0.01452438260325788 0.004999999999999999
  endloop
endfacet
facet normal -0.999386 0.0350447 0
  outer loop
    vertex 0.03526751939302803 0.01742925912390946 0.02
    vertex 0.03526751939302803 0.01742925912390946 0.009999999999999972
    vertex 0.03516565615955269 0.01452438260325788 0.015
  endloop
endfacet
facet normal -0.999386 0.0350447 0
  outer loop
    vertex 0.03506379292607734 0.01161950608260631 0
    vertex 0.03506379292607734 0.01161950608260631 0.01000000000000003
    vertex 0.03516565615955269 0.01452438260325788 0.004999999999999999
  endloop
endfacet
facet normal -0.999386 0.0350447 0
  outer loop
    vertex 0.03506379292607734 0.01161950608260631 0.01000000000000003
    vertex 0.03506379292607734 0.01161950608260631 0.02
    vertex 0.03516565615955269 0.01452438260325788 0.015
  endloop
endfacet
facet normal -0.839008 0.544119 1.95717e-16
  outer loop
    vertex 0.03129601183869205 0.005809753041303156 0.01000000000000003
    vertex 0.03506379292607734 0.01161950608260631 0.009999999999999972
    vertex 0.0331799023823847 0.008714629561954733 0.004999999999999999
  endloop
endfacet
facet normal -0.839008 0.544119 1.37002e-15
  outer loop
    vertex 0.03129601183869205 0.005809753041303156 0.02
    vertex 0.03506379292607734 0.01161950608260631 0.02
    vertex 0.03317990238238469 0.008714629561954733 0.015
  endloop
endfacet
facet normal -0.839008 0.544119 -1.95717e-16
  outer loop
    vertex 0.03506379292607734 0.01161950608260631 0
    vertex 0.03129601183869205 0.005809753041303156 0
    vertex 0.0331799023823847 0.008714629561954733 0.004999999999999999
  endloop
endfacet
facet normal -0.839008 0.544119 -1.32109e-15
  outer loop
    vertex 0.03506379292607734 0.01161950608260631 0.009999999999999972
    vertex 0.03129601183869205 0.005809753041303156 0.01000000000000003
    vertex 0.03317990238238469 0.008714629561954733 0.015
  endloop
endfacet
facet normal -0.839008 0.544119 0
  outer loop
    vertex 0.03506379292607734 0.01161950608260631 0.009999999999999972
    vertex 0.03506379292607734 0.01161950608260631 0
    vertex 0.0331799023823847 0.008714629561954733 0.004999999999999999
  endloop
endfacet
facet normal -0.839008 0.544119 0
  outer loop
    vertex 0.03506379292607734 0.01161950608260631 0.02
    vertex 0.03506379292607734 0.01161950608260631 0.009999999999999972
    vertex 0.03317990238238469 0.008714629561954733 0.015
  endloop
endfacet
facet normal -0.839008 0.544119 0
  outer loop
    vertex 0.03129601183869205 0.005809753041303156 0
    vertex 0.03129601183869205 0.005809753041303156 0.01000000000000003
    vertex 0.0331799023823847 0.008714629561954733 0.004999999999999999
  endloop
endfacet
facet normal -0.839008 0.544119 0
  outer loop
    vertex 0.03129601183869205 0.005809753041303156 0.01000000000000003
    vertex 0.03129601183869205 0.005809753041303156 0.02
    vertex 0.03317990238238469 0.008714629561954733 0.015
  endloop
endfacet
endsolid Created by Gmsh
