solid Created by Gmsh
facet normal 0.992879 -0.119129 0
  outer loop
    vertex 0.01498644983351118 0.05822840697409017 0.02
    vertex 0.0139384823584845 0.04949414592797665 0.01156064213998356
    vertex 0.01498644983351118 0.05822840697409017 0.009999999999999972
  endloop
endfacet
facet normal 0.992879 -0.119129 0
  outer loop
    vertex 0.008 0 0
    vertex 0.009047967475026675 0.008734261046113516 0.008439357860016442
    vertex 0.008 0 0.01000000000000003
  endloop
endfacet
facet normal 0.992879 -0.119129 7.70131e-17
  outer loop
    vertex 0.009397289966702235 0.01164568139481803 0
    vertex 0.009047967475026675 0.008734261046113516 0.008439357860016442
    vertex 0.008 0 0
  endloop
endfacet
facet normal 0.992879 -0.119129 -1.02684e-16
  outer loop
    vertex 0.01358915986680894 0.04658272557927214 0.02
    vertex 0.0139384823584845 0.04949414592797665 0.01156064213998356
    vertex 0.01498644983351118 0.05822840697409017 0.02
  endloop
endfacet
facet normal 0.992879 -0.119129 1.63562e-16
  outer loop
    vertex 0.01283229446817856 0.04027464815707903 0.01026010702333059
    vertex 0.01149322491675559 0.02911420348704508 0.01
    vertex 0.01219186990010671 0.03493704418445408 0
  endloop
endfacet
facet normal 0.992879 -0.119129 -9.54903e-17
  outer loop
    vertex 0.01219186990010671 0.03493704418445412 0.02
    vertex 0.01149322491675559 0.02911420348704508 0.01
    vertex 0.01283229446817856 0.04027464815707903 0.01026010702333059
  endloop
endfacet
facet normal 0.992879 -0.119129 -1.44431e-16
  outer loop
    vertex 0.01079457993340447 0.02329136278963608 0.02
    vertex 0.01149322491675559 0.02911420348704508 0.01
    vertex 0.01219186990010671 0.03493704418445412 0.02
  endloop
endfacet
facet normal 0.992879 -0.119129 8.44619e-17
  outer loop
    vertex 0.01358915986680894 0.04658272557927213 0
    vertex 0.01283229446817856 0.04027464815707903 0.01026010702333059
    vertex 0.01219186990010671 0.03493704418445408 0
  endloop
endfacet
facet normal 0.992879 -0.119129 1.26045e-16
  outer loop
    vertex 0.01079457993340447 0.02329136278963605 0
    vertex 0.01015415536533261 0.01795375881701113 0.009739892976669405
    vertex 0.009397289966702235 0.01164568139481803 0
  endloop
endfacet
facet normal 0.992879 -0.119129 1.01102e-16
  outer loop
    vertex 0.01219186990010671 0.03493704418445408 0
    vertex 0.01149322491675559 0.02911420348704508 0.01
    vertex 0.01079457993340447 0.02329136278963605 0
  endloop
endfacet
facet normal 0.992879 -0.119129 -9.63875e-17
  outer loop
    vertex 0.01219186990010671 0.03493704418445412 0.02
    vertex 0.01283229446817856 0.04027464815707903 0.01026010702333059
    vertex 0.01358915986680894 0.04658272557927214 0.02
  endloop
endfacet
facet normal 0.992879 -0.119129 -1.83001e-16
  outer loop
    vertex 0.009397289966702235 0.01164568139481804 0.02
    vertex 0.01015415536533261 0.01795375881701113 0.009739892976669405
    vertex 0.01079457993340447 0.02329136278963608 0.02
  endloop
endfacet
facet normal 0.992879 -0.119129 8.02118e-17
  outer loop
    vertex 0.01079457993340447 0.02329136278963605 0
    vertex 0.01149322491675559 0.02911420348704508 0.01
    vertex 0.01015415536533261 0.01795375881701113 0.009739892976669405
  endloop
endfacet
facet normal 0.992879 -0.119129 -2.2304e-16
  outer loop
    vertex 0.01015415536533261 0.01795375881701113 0.009739892976669405
    vertex 0.01149322491675559 0.02911420348704508 0.01
    vertex 0.01079457993340447 0.02329136278963608 0.02
  endloop
endfacet
facet normal 0.992879 -0.119129 -4.09059e-18
  outer loop
    vertex 0.01358915986680894 0.04658272557927213 0
    vertex 0.0139384823584845 0.04949414592797665 0.01156064213998356
    vertex 0.01283229446817856 0.04027464815707903 0.01026010702333059
  endloop
endfacet
facet normal 0.992879 -0.119129 -2.86342e-17
  outer loop
    vertex 0.009397289966702235 0.01164568139481804 0.02
    vertex 0.009047967475026675 0.008734261046113516 0.008439357860016442
    vertex 0.01015415536533261 0.01795375881701113 0.009739892976669405
  endloop
endfacet
facet normal 0.992879 -0.119129 -5.77726e-17
  outer loop
    vertex 0.008 0 0.02
    vertex 0.00864614772829914 0.00538530352115581 0.01500000000000002
    vertex 0.009397289966702235 0.01164568139481804 0.02
  endloop
endfacet
facet normal 0.992879 -0.119129 2.16647e-16
  outer loop
    vertex 0.01498644983351118 0.05822840697409017 0
    vertex 0.01434030210521204 0.05284310345293436 0.004999999999999986
    vertex 0.01358915986680894 0.04658272557927213 0
  endloop
endfacet
facet normal 0.992879 -0.119129 -2.18189e-17
  outer loop
    vertex 0.009397289966702235 0.01164568139481804 0.02
    vertex 0.00864614772829914 0.00538530352115581 0.01500000000000002
    vertex 0.009047967475026675 0.008734261046113516 0.008439357860016442
  endloop
endfacet
facet normal 0.992879 -0.119129 -3.63649e-17
  outer loop
    vertex 0.01358915986680894 0.04658272557927213 0
    vertex 0.01434030210521204 0.05284310345293436 0.004999999999999986
    vertex 0.0139384823584845 0.04949414592797665 0.01156064213998356
  endloop
endfacet
facet normal 0.992879 -0.119129 8.24581e-17
  outer loop
    vertex 0.01015415536533261 0.01795375881701113 0.009739892976669405
    vertex 0.009047967475026675 0.008734261046113516 0.008439357860016442
    vertex 0.009397289966702235 0.01164568139481803 0
  endloop
endfacet
facet normal 0.992879 -0.119129 -9.27654e-17
  outer loop
    vertex 0.01283229446817856 0.04027464815707903 0.01026010702333059
    vertex 0.0139384823584845 0.04949414592797665 0.01156064213998356
    vertex 0.01358915986680894 0.04658272557927214 0.02
  endloop
endfacet
facet normal 0.992879 -0.119129 0
  outer loop
    vertex 0.008 0 0.01000000000000003
    vertex 0.00864614772829914 0.00538530352115581 0.01500000000000002
    vertex 0.008 0 0.02
  endloop
endfacet
facet normal 0.992879 -0.119129 0
  outer loop
    vertex 0.01498644983351118 0.05822840697409017 0.009999999999999972
    vertex 0.01434030210521204 0.05284310345293436 0.004999999999999986
    vertex 0.01498644983351118 0.05822840697409017 0
  endloop
endfacet
facet normal 0.992879 -0.119129 2.42243e-17
  outer loop
    vertex 0.009047967475026675 0.008734261046113516 0.008439357860016442
    vertex 0.00864614772829914 0.00538530352115581 0.01500000000000002
    vertex 0.008 0 0.01000000000000003
  endloop
endfacet
facet normal 0.992879 -0.119129 -1.53421e-16
  outer loop
    vertex 0.0139384823584845 0.04949414592797665 0.01156064213998356
    vertex 0.01434030210521204 0.05284310345293436 0.004999999999999986
    vertex 0.01498644983351118 0.05822840697409017 0.009999999999999972
  endloop
endfacet
endsolid Created by Gmsh
