solid Created by Gmsh
facet normal 1 -1.44742e-15 0
  outer loop
    vertex 0.04 0.06 0.02
    vertex 0.03999999999999999 0.05520603180649146 0.015
    vertex 0.04 0.06 0.009999999999999972
  endloop
endfacet
facet normal 1 1.44742e-15 -0
  outer loop
    vertex 0.04 0.04630294801854705 0
    vertex 0.03999999999999999 0.05109691621205558 0.005000000000000005
    vertex 0.04 0.04630294801854705 0.01000000000000003
  endloop
endfacet
facet normal 1 -1.53514e-15 0
  outer loop
    vertex 0.04 0.06 0.009999999999999972
    vertex 0.03999999999999999 0.05547997284612052 0.004999999999999999
    vertex 0.04 0.06 0
  endloop
endfacet
facet normal 1 1.53514e-15 -0
  outer loop
    vertex 0.04 0.04630294801854705 0.01000000000000003
    vertex 0.03999999999999999 0.05082297517242652 0.01500000000000001
    vertex 0.04 0.04630294801854705 0.02
  endloop
endfacet
facet normal 1 0 -1.38778e-15
  outer loop
    vertex 0.04 0.05315147400927352 0.02
    vertex 0.03999999999999999 0.05520603180649146 0.015
    vertex 0.04 0.06 0.02
  endloop
endfacet
facet normal 1 0 1.38778e-15
  outer loop
    vertex 0.04 0.05315147400927352 0
    vertex 0.03999999999999999 0.05109691621205558 0.005000000000000005
    vertex 0.04 0.04630294801854705 0
  endloop
endfacet
facet normal 1 0 1.38778e-15
  outer loop
    vertex 0.04 0.06 0
    vertex 0.03999999999999999 0.05547997284612052 0.004999999999999999
    vertex 0.04 0.05315147400927352 0
  endloop
endfacet
facet normal 1 0 -1.38778e-15
  outer loop
    vertex 0.04 0.04630294801854705 0.02
    vertex 0.03999999999999999 0.05082297517242652 0.01500000000000001
    vertex 0.04 0.05315147400927352 0.02
  endloop
endfacet
facet normal 1 1.92239e-30 1.38778e-15
  outer loop
    vertex 0.04 0.05315147400927352 0
    vertex 0.03999999999999999 0.05547997284612052 0.004999999999999999
    vertex 0.03999999999999999 0.05109691621205558 0.005000000000000005
  endloop
endfacet
facet normal 1 -2.74627e-30 -1.38778e-15
  outer loop
    vertex 0.04 0.05315147400927352 0.02
    vertex 0.03999999999999999 0.05082297517242652 0.01500000000000001
    vertex 0.03999999999999999 0.05520603180649146 0.015
  endloop
endfacet
facet normal 1 0 0
  outer loop
    vertex 0.03999999999999999 0.05547997284612052 0.004999999999999999
    vertex 0.03999999999999999 0.05315147400927352 0.01
    vertex 0.03999999999999999 0.05109691621205558 0.005000000000000005
  endloop
endfacet
facet normal 1 0 0
  outer loop
    vertex 0.03999999999999999 0.05082297517242652 0.01500000000000001
    vertex 0.03999999999999999 0.05315147400927352 0.01
    vertex 0.03999999999999999 0.05520603180649146 0.015
  endloop
endfacet
facet normal 1 -1.0132e-15 -4.71845e-16
  outer loop
    vertex 0.04 0.06 0.009999999999999972
    vertex 0.03999999999999999 0.05315147400927352 0.01
    vertex 0.03999999999999999 0.05547997284612052 0.004999999999999999
  endloop
endfacet
facet normal 1 -1.0132e-15 4.16334e-16
  outer loop
    vertex 0.03999999999999999 0.05520603180649146 0.015
    vertex 0.03999999999999999 0.05315147400927352 0.01
    vertex 0.04 0.06 0.009999999999999972
  endloop
endfacet
facet normal 1 1.0132e-15 -4.16334e-16
  outer loop
    vertex 0.03999999999999999 0.05109691621205558 0.005000000000000005
    vertex 0.03999999999999999 0.05315147400927352 0.01
    vertex 0.04 0.04630294801854705 0.01000000000000003
  endloop
endfacet
facet normal 1 1.0132e-15 4.71845e-16
  outer loop
    vertex 0.04 0.04630294801854705 0.01000000000000003
    vertex 0.03999999999999999 0.05315147400927352 0.01
    vertex 0.03999999999999999 0.05082297517242652 0.01500000000000001
  endloop
endfacet
facet normal 0.540589 -0.841287 4.60838e-16
  outer loop
    vertex 0.04 0.04630294801854705 0
    vertex 0.03549633808701774 0.04340901376738785 0.005493512265210899
    vertex 0.03099267617403552 0.04051507951622867 0
  endloop
endfacet
facet normal 0.540589 -0.841287 -9.74473e-16
  outer loop
    vertex 0.03099267617403552 0.04051507951622867 0.02
    vertex 0.03549633808701777 0.04340901376738787 0.01447938359017075
    vertex 0.04 0.04630294801854705 0.02
  endloop
endfacet
facet normal 0.540589 -0.841287 0
  outer loop
    vertex 0.04 0.04630294801854705 0.02
    vertex 0.03549633808701777 0.04340901376738787 0.01447938359017075
    vertex 0.04 0.04630294801854705 0.009999999999999972
  endloop
endfacet
facet normal 0.540589 -0.841287 0
  outer loop
    vertex 0.03099267617403552 0.04051507951622867 0
    vertex 0.03549633808701774 0.04340901376738785 0.005493512265210899
    vertex 0.03099267617403552 0.04051507951622867 0.01000000000000003
  endloop
endfacet
facet normal 0.540589 -0.841287 0
  outer loop
    vertex 0.04 0.04630294801854705 0.009999999999999972
    vertex 0.03549633808701774 0.04340901376738785 0.005493512265210899
    vertex 0.04 0.04630294801854705 0
  endloop
endfacet
facet normal 0.540589 -0.841287 0
  outer loop
    vertex 0.03099267617403552 0.04051507951622867 0.01000000000000003
    vertex 0.03549633808701777 0.04340901376738787 0.01447938359017075
    vertex 0.03099267617403552 0.04051507951622867 0.02
  endloop
endfacet
facet normal 0.540589 -0.841287 2.79155e-16
  outer loop
    vertex 0.03549633808701777 0.04340901376738787 0.01447938359017075
    vertex 0.03549633808701774 0.04340901376738785 0.005493512265210899
    vertex 0.04 0.04630294801854705 0.009999999999999972
  endloop
endfacet
facet normal 0.540589 -0.841287 2.81733e-16
  outer loop
    vertex 0.03099267617403552 0.04051507951622867 0.01000000000000003
    vertex 0.03549633808701774 0.04340901376738785 0.005493512265210899
    vertex 0.03549633808701777 0.04340901376738787 0.01447938359017075
  endloop
endfacet
facet normal 0.872546 -0.488531 -6.12931e-16
  outer loop
    vertex 0.03099267617403552 0.04051507951622867 0
    vertex 0.02937238742280016 0.03762114526506947 0.005
    vertex 0.02775209867156479 0.03472721101391028 0
  endloop
endfacet
facet normal 0.872546 -0.488531 6.12931e-16
  outer loop
    vertex 0.02775209867156479 0.03472721101391028 0.02
    vertex 0.02937238742280016 0.03762114526506947 0.015
    vertex 0.03099267617403552 0.04051507951622867 0.02
  endloop
endfacet
facet normal 0.872546 -0.488531 -6.12931e-16
  outer loop
    vertex 0.03099267617403552 0.04051507951622867 0.009999999999999972
    vertex 0.02937238742280016 0.03762114526506947 0.015
    vertex 0.02775209867156479 0.03472721101391028 0.01000000000000003
  endloop
endfacet
facet normal 0.872546 -0.488531 6.12931e-16
  outer loop
    vertex 0.02775209867156479 0.03472721101391028 0.01000000000000003
    vertex 0.02937238742280016 0.03762114526506947 0.005
    vertex 0.03099267617403552 0.04051507951622867 0.009999999999999972
  endloop
endfacet
facet normal 0.872546 -0.488531 0
  outer loop
    vertex 0.03099267617403552 0.04051507951622867 0.009999999999999972
    vertex 0.02937238742280016 0.03762114526506947 0.005
    vertex 0.03099267617403552 0.04051507951622867 0
  endloop
endfacet
facet normal 0.872546 -0.488531 0
  outer loop
    vertex 0.03099267617403552 0.04051507951622867 0.02
    vertex 0.02937238742280016 0.03762114526506947 0.015
    vertex 0.03099267617403552 0.04051507951622867 0.009999999999999972
  endloop
endfacet
facet normal 0.872546 -0.488531 0
  outer loop
    vertex 0.02775209867156479 0.03472721101391028 0
    vertex 0.02937238742280016 0.03762114526506947 0.005
    vertex 0.02775209867156479 0.03472721101391028 0.01000000000000003
  endloop
endfacet
facet normal 0.872546 -0.488531 0
  outer loop
    vertex 0.02775209867156479 0.03472721101391028 0.01000000000000003
    vertex 0.02937238742280016 0.03762114526506947 0.015
    vertex 0.02775209867156479 0.03472721101391028 0.02
  endloop
endfacet
facet normal 0.730901 -0.682483 0
  outer loop
    vertex 0.02234763970658974 0.02893934251159191 0
    vertex 0.02504986918907726 0.0318332767627511 0.004999999999999999
    vertex 0.02234763970658974 0.02893934251159191 0.01000000000000003
  endloop
endfacet
facet normal 0.730901 -0.682483 0
  outer loop
    vertex 0.02775209867156479 0.03472721101391028 0.02
    vertex 0.02504986918907726 0.0318332767627511 0.015
    vertex 0.02775209867156479 0.03472721101391028 0.009999999999999972
  endloop
endfacet
facet normal 0.730901 -0.682483 0
  outer loop
    vertex 0.02775209867156479 0.03472721101391028 0.009999999999999972
    vertex 0.02504986918907726 0.0318332767627511 0.004999999999999999
    vertex 0.02775209867156479 0.03472721101391028 0
  endloop
endfacet
facet normal 0.730901 -0.682483 0
  outer loop
    vertex 0.02234763970658974 0.02893934251159191 0.01000000000000003
    vertex 0.02504986918907726 0.0318332767627511 0.015
    vertex 0.02234763970658974 0.02893934251159191 0.02
  endloop
endfacet
facet normal 0.730901 -0.682483 6.84574e-16
  outer loop
    vertex 0.02775209867156479 0.03472721101391028 0
    vertex 0.02504986918907726 0.0318332767627511 0.004999999999999999
    vertex 0.02234763970658974 0.02893934251159191 0
  endloop
endfacet
facet normal 0.730901 -0.682483 6.84574e-16
  outer loop
    vertex 0.02775209867156479 0.03472721101391028 0.009999999999999972
    vertex 0.02504986918907726 0.0318332767627511 0.015
    vertex 0.02234763970658974 0.02893934251159191 0.01000000000000003
  endloop
endfacet
facet normal 0.730901 -0.682483 -7.70145e-16
  outer loop
    vertex 0.02234763970658974 0.02893934251159191 0.02
    vertex 0.02504986918907726 0.0318332767627511 0.015
    vertex 0.02775209867156479 0.03472721101391028 0.02
  endloop
endfacet
facet normal 0.730901 -0.682483 -7.70145e-16
  outer loop
    vertex 0.02234763970658974 0.02893934251159191 0.01000000000000003
    vertex 0.02504986918907726 0.0318332767627511 0.004999999999999999
    vertex 0.02775209867156479 0.03472721101391028 0.009999999999999972
  endloop
endfacet
facet normal 0.813867 0.581051 -7.14639e-16
  outer loop
    vertex 0.02647981952481845 0.02315147400927352 0.01000000000000003
    vertex 0.02441372961570409 0.02604540826043271 0.004999999999999996
    vertex 0.02234763970658974 0.02893934251159191 0.009999999999999972
  endloop
endfacet
facet normal 0.813867 0.581051 6.66996e-16
  outer loop
    vertex 0.02234763970658974 0.02893934251159191 0.009999999999999972
    vertex 0.02441372961570409 0.02604540826043271 0.015
    vertex 0.02647981952481845 0.02315147400927352 0.01000000000000003
  endloop
endfacet
facet normal 0.813867 0.581051 6.66996e-16
  outer loop
    vertex 0.02234763970658974 0.02893934251159191 0
    vertex 0.02441372961570409 0.02604540826043271 0.004999999999999996
    vertex 0.02647981952481845 0.02315147400927352 0
  endloop
endfacet
facet normal 0.813867 0.581051 -7.14639e-16
  outer loop
    vertex 0.02647981952481845 0.02315147400927352 0.02
    vertex 0.02441372961570409 0.02604540826043271 0.015
    vertex 0.02234763970658974 0.02893934251159191 0.02
  endloop
endfacet
facet normal 0.813867 0.581051 0
  outer loop
    vertex 0.02234763970658974 0.02893934251159191 0.009999999999999972
    vertex 0.02441372961570409 0.02604540826043271 0.004999999999999996
    vertex 0.02234763970658974 0.02893934251159191 0
  endloop
endfacet
facet normal 0.813867 0.581051 0
  outer loop
    vertex 0.02234763970658974 0.02893934251159191 0.02
    vertex 0.02441372961570409 0.02604540826043271 0.015
    vertex 0.02234763970658974 0.02893934251159191 0.009999999999999972
  endloop
endfacet
facet normal 0.813867 0.581051 -0
  outer loop
    vertex 0.02647981952481845 0.02315147400927352 0
    vertex 0.02441372961570409 0.02604540826043271 0.004999999999999996
    vertex 0.02647981952481845 0.02315147400927352 0.01000000000000003
  endloop
endfacet
facet normal 0.813867 0.581051 -0
  outer loop
    vertex 0.02647981952481845 0.02315147400927352 0.01000000000000003
    vertex 0.02441372961570409 0.02604540826043271 0.015
    vertex 0.02647981952481845 0.02315147400927352 0.02
  endloop
endfacet
facet normal 0.99597 -0.0896859 -6.92343e-16
  outer loop
    vertex 0.02595862912997827 0.01736360550695514 0.02
    vertex 0.02621922432739836 0.02025753975811433 0.015
    vertex 0.02647981952481845 0.02315147400927352 0.02
  endloop
endfacet
facet normal 0.99597 -0.0896859 -6.92343e-16
  outer loop
    vertex 0.02595862912997827 0.01736360550695514 0.01000000000000003
    vertex 0.02621922432739836 0.02025753975811433 0.005
    vertex 0.02647981952481845 0.02315147400927352 0.009999999999999972
  endloop
endfacet
facet normal 0.99597 -0.0896859 6.92343e-16
  outer loop
    vertex 0.02647981952481845 0.02315147400927352 0
    vertex 0.02621922432739836 0.02025753975811433 0.005
    vertex 0.02595862912997827 0.01736360550695514 0
  endloop
endfacet
facet normal 0.99597 -0.0896859 6.92343e-16
  outer loop
    vertex 0.02647981952481845 0.02315147400927352 0.009999999999999972
    vertex 0.02621922432739836 0.02025753975811433 0.015
    vertex 0.02595862912997827 0.01736360550695514 0.01000000000000003
  endloop
endfacet
facet normal 0.99597 -0.0896859 0
  outer loop
    vertex 0.02647981952481845 0.02315147400927352 0.009999999999999972
    vertex 0.02621922432739836 0.02025753975811433 0.005
    vertex 0.02647981952481845 0.02315147400927352 0
  endloop
endfacet
facet normal 0.99597 -0.0896859 0
  outer loop
    vertex 0.02647981952481845 0.02315147400927352 0.02
    vertex 0.02621922432739836 0.02025753975811433 0.015
    vertex 0.02647981952481845 0.02315147400927352 0.009999999999999972
  endloop
endfacet
facet normal 0.99597 -0.0896859 0
  outer loop
    vertex 0.02595862912997827 0.01736360550695514 0
    vertex 0.02621922432739836 0.02025753975811433 0.005
    vertex 0.02595862912997827 0.01736360550695514 0.01000000000000003
  endloop
endfacet
facet normal 0.99597 -0.0896859 0
  outer loop
    vertex 0.02595862912997827 0.01736360550695514 0.01000000000000003
    vertex 0.02621922432739836 0.02025753975811433 0.015
    vertex 0.02595862912997827 0.01736360550695514 0.02
  endloop
endfacet
facet normal 0.819486 -0.573099 5.75658e-16
  outer loop
    vertex 0.02191094079922998 0.01157573700463677 0.02
    vertex 0.02393478496460413 0.01446967125579595 0.015
    vertex 0.02595862912997827 0.01736360550695514 0.02
  endloop
endfacet
facet normal 0.819486 -0.573099 -5.75658e-16
  outer loop
    vertex 0.02595862912997827 0.01736360550695514 0
    vertex 0.02393478496460413 0.01446967125579595 0.005000000000000001
    vertex 0.02191094079922998 0.01157573700463677 0
  endloop
endfacet
facet normal 0.819486 -0.573099 -5.75658e-16
  outer loop
    vertex 0.02595862912997827 0.01736360550695514 0.009999999999999972
    vertex 0.02393478496460413 0.01446967125579595 0.015
    vertex 0.02191094079922998 0.01157573700463677 0.01000000000000003
  endloop
endfacet
facet normal 0.819486 -0.573099 5.75658e-16
  outer loop
    vertex 0.02191094079922998 0.01157573700463677 0.01000000000000003
    vertex 0.02393478496460413 0.01446967125579595 0.005000000000000001
    vertex 0.02595862912997827 0.01736360550695514 0.009999999999999972
  endloop
endfacet
facet normal 0.819486 -0.573099 0
  outer loop
    vertex 0.02595862912997827 0.01736360550695514 0.009999999999999972
    vertex 0.02393478496460413 0.01446967125579595 0.005000000000000001
    vertex 0.02595862912997827 0.01736360550695514 0
  endloop
endfacet
facet normal 0.819486 -0.573099 0
  outer loop
    vertex 0.02595862912997827 0.01736360550695514 0.02
    vertex 0.02393478496460413 0.01446967125579595 0.015
    vertex 0.02595862912997827 0.01736360550695514 0.009999999999999972
  endloop
endfacet
facet normal 0.819486 -0.573099 0
  outer loop
    vertex 0.02191094079922998 0.01157573700463677 0
    vertex 0.02393478496460413 0.01446967125579595 0.005000000000000001
    vertex 0.02191094079922998 0.01157573700463677 0.01000000000000003
  endloop
endfacet
facet normal 0.819486 -0.573099 0
  outer loop
    vertex 0.02191094079922998 0.01157573700463677 0.01000000000000003
    vertex 0.02393478496460413 0.01446967125579595 0.015
    vertex 0.02191094079922998 0.01157573700463677 0.02
  endloop
endfacet
facet normal 0.982687 -0.185273 -3.30769e-16
  outer loop
    vertex 0.02081971409105637 0.005787868502318383 0.01000000000000003
    vertex 0.02136532744514318 0.008681802753477574 0.005
    vertex 0.02191094079922998 0.01157573700463677 0.009999999999999972
  endloop
endfacet
facet normal 0.982687 -0.185273 3.4515e-16
  outer loop
    vertex 0.02191094079922998 0.01157573700463677 0.009999999999999972
    vertex 0.02136532744514318 0.008681802753477574 0.015
    vertex 0.02081971409105637 0.005787868502318383 0.01000000000000003
  endloop
endfacet
facet normal 0.982687 -0.185273 -3.30769e-16
  outer loop
    vertex 0.02081971409105637 0.005787868502318383 0.02
    vertex 0.02136532744514318 0.008681802753477574 0.015
    vertex 0.02191094079922998 0.01157573700463677 0.02
  endloop
endfacet
facet normal 0.982687 -0.185273 3.4515e-16
  outer loop
    vertex 0.02191094079922998 0.01157573700463677 0
    vertex 0.02136532744514318 0.008681802753477574 0.005
    vertex 0.02081971409105637 0.005787868502318383 0
  endloop
endfacet
facet normal 0.982687 -0.185273 0
  outer loop
    vertex 0.02191094079922998 0.01157573700463677 0.009999999999999972
    vertex 0.02136532744514318 0.008681802753477574 0.005
    vertex 0.02191094079922998 0.01157573700463677 0
  endloop
endfacet
facet normal 0.982687 -0.185273 0
  outer loop
    vertex 0.02191094079922998 0.01157573700463677 0.02
    vertex 0.02136532744514318 0.008681802753477574 0.015
    vertex 0.02191094079922998 0.01157573700463677 0.009999999999999972
  endloop
endfacet
facet normal 0.982687 -0.185273 0
  outer loop
    vertex 0.02081971409105637 0.005787868502318383 0
    vertex 0.02136532744514318 0.008681802753477574 0.005
    vertex 0.02081971409105637 0.005787868502318383 0.01000000000000003
  endloop
endfacet
facet normal 0.982687 -0.185273 0
  outer loop
    vertex 0.02081971409105637 0.005787868502318383 0.01000000000000003
    vertex 0.02136532744514318 0.008681802753477574 0.015
    vertex 0.02081971409105637 0.005787868502318383 0.02
  endloop
endfacet
endsolid Created by Gmsh
