solid Created by Gmsh
facet normal -0.714474 -0.699662 -0
  outer loop
    vertex 0.03549108200456408 0.05662231783557501 0.02
    vertex 0.03549108200456408 0.05662231783557501 0.009999999999999972
    vertex 0.03895661055716115 0.05308342297085156 0.015
  endloop
endfacet
facet normal -0.714474 -0.699662 0
  outer loop
    vertex 0.04242213910975821 0.04954452810612813 0
    vertex 0.04242213910975821 0.04954452810612813 0.01000000000000003
    vertex 0.03895661055716114 0.05308342297085157 0.004999999999999992
  endloop
endfacet
facet normal -0.714474 -0.699662 -0
  outer loop
    vertex 0.03549108200456408 0.05662231783557501 0.009999999999999972
    vertex 0.03549108200456408 0.05662231783557501 0
    vertex 0.03895661055716114 0.05308342297085157 0.004999999999999992
  endloop
endfacet
facet normal -0.714474 -0.699662 0
  outer loop
    vertex 0.04242213910975821 0.04954452810612813 0.01000000000000003
    vertex 0.04242213910975821 0.04954452810612813 0.02
    vertex 0.03895661055716115 0.05308342297085156 0.015
  endloop
endfacet
facet normal -0.714474 -0.699662 1.02605e-15
  outer loop
    vertex 0.04242213910975821 0.04954452810612813 0.01000000000000003
    vertex 0.03549108200456408 0.05662231783557501 0.009999999999999972
    vertex 0.03895661055716114 0.05308342297085157 0.004999999999999992
  endloop
endfacet
facet normal -0.714474 -0.699662 -9.57651e-16
  outer loop
    vertex 0.03549108200456408 0.05662231783557501 0.009999999999999972
    vertex 0.04242213910975821 0.04954452810612813 0.01000000000000003
    vertex 0.03895661055716115 0.05308342297085156 0.015
  endloop
endfacet
facet normal -0.714474 -0.699662 -9.57651e-16
  outer loop
    vertex 0.03549108200456408 0.05662231783557501 0
    vertex 0.04242213910975821 0.04954452810612813 0
    vertex 0.03895661055716114 0.05308342297085157 0.004999999999999992
  endloop
endfacet
facet normal -0.714474 -0.699662 9.57651e-16
  outer loop
    vertex 0.04242213910975821 0.04954452810612813 0.02
    vertex 0.03549108200456408 0.05662231783557501 0.02
    vertex 0.03895661055716115 0.05308342297085156 0.015
  endloop
endfacet
facet normal -0.419871 0.907584 9.71469e-16
  outer loop
    vertex 0.04242213910975821 0.04954452810612813 0
    vertex 0.03477253193960073 0.0460056332414047 0
    vertex 0.03551554104001495 0.04634936737459738 0.007861996665983856
  endloop
endfacet
facet normal -0.419871 0.907584 0
  outer loop
    vertex 0.04242213910975821 0.04954452810612813 0.009999999999999972
    vertex 0.04242213910975821 0.04954452810612813 0
    vertex 0.03551554104001495 0.04634936737459738 0.007861996665983856
  endloop
endfacet
facet normal -0.419871 0.907584 0
  outer loop
    vertex 0.02712292476944323 0.04246673837668126 0.01000000000000003
    vertex 0.02712292476944323 0.04246673837668126 0.02
    vertex 0.03256001076265774 0.044982066977542 0.01399708931129303
  endloop
endfacet
facet normal -0.419871 0.907584 0
  outer loop
    vertex 0.02712292476944323 0.04246673837668126 0
    vertex 0.02712292476944323 0.04246673837668126 0.01000000000000003
    vertex 0.03113348062962554 0.04432211934234115 0.004465499166495971
  endloop
endfacet
facet normal -0.419871 0.907584 0
  outer loop
    vertex 0.04242213910975821 0.04954452810612813 0.02
    vertex 0.04242213910975821 0.04954452810612813 0.009999999999999972
    vertex 0.03755478761438551 0.0472927725808279 0.01432140537247389
  endloop
endfacet
facet normal -0.419871 0.907584 -3.34824e-16
  outer loop
    vertex 0.02712292476944323 0.04246673837668126 0.02
    vertex 0.03477253193960072 0.04600563324140469 0.02
    vertex 0.03256001076265774 0.044982066977542 0.01399708931129303
  endloop
endfacet
facet normal -0.419871 0.907584 -8.11899e-17
  outer loop
    vertex 0.02712292476944323 0.04246673837668126 0.01000000000000003
    vertex 0.03551554104001495 0.04634936737459738 0.007861996665983856
    vertex 0.03113348062962554 0.04432211934234115 0.004465499166495971
  endloop
endfacet
facet normal -0.419871 0.907584 -6.80757e-17
  outer loop
    vertex 0.03551554104001495 0.04634936737459738 0.007861996665983856
    vertex 0.02712292476944323 0.04246673837668126 0.01000000000000003
    vertex 0.03256001076265774 0.044982066977542 0.01399708931129303
  endloop
endfacet
facet normal -0.419871 0.907584 9.45208e-16
  outer loop
    vertex 0.03477253193960073 0.0460056332414047 0
    vertex 0.02712292476944323 0.04246673837668126 0
    vertex 0.03113348062962554 0.04432211934234115 0.004465499166495971
  endloop
endfacet
facet normal -0.419871 0.907584 -6.72498e-16
  outer loop
    vertex 0.03477253193960072 0.04600563324140469 0.02
    vertex 0.04242213910975821 0.04954452810612813 0.02
    vertex 0.03755478761438551 0.0472927725808279 0.01432140537247389
  endloop
endfacet
facet normal -0.419871 0.907584 1.14589e-16
  outer loop
    vertex 0.03755478761438551 0.0472927725808279 0.01432140537247389
    vertex 0.04242213910975821 0.04954452810612813 0.009999999999999972
    vertex 0.03551554104001495 0.04634936737459738 0.007861996665983856
  endloop
endfacet
facet normal -0.419871 0.907584 9.81164e-16
  outer loop
    vertex 0.03551554104001495 0.04634936737459738 0.007861996665983856
    vertex 0.03477253193960073 0.0460056332414047 0
    vertex 0.03113348062962554 0.04432211934234115 0.004465499166495971
  endloop
endfacet
facet normal -0.419871 0.907584 -2.43261e-16
  outer loop
    vertex 0.03755478761438551 0.0472927725808279 0.01432140537247389
    vertex 0.03551554104001495 0.04634936737459738 0.007861996665983856
    vertex 0.03256001076265774 0.044982066977542 0.01399708931129303
  endloop
endfacet
facet normal -0.419871 0.907584 -3.94022e-16
  outer loop
    vertex 0.03477253193960072 0.04600563324140469 0.02
    vertex 0.03755478761438551 0.0472927725808279 0.01432140537247389
    vertex 0.03256001076265774 0.044982066977542 0.01399708931129303
  endloop
endfacet
facet normal -0.923119 0.384514 0
  outer loop
    vertex 0.02712292476944323 0.04246673837668126 0.02
    vertex 0.02712292476944323 0.04246673837668126 0.009999999999999972
    vertex 0.02564884329357185 0.03892784351195782 0.015
  endloop
endfacet
facet normal -0.923119 0.384514 0
  outer loop
    vertex 0.02417476181770048 0.03538894864723438 0
    vertex 0.02417476181770048 0.03538894864723438 0.01000000000000003
    vertex 0.02564884329357185 0.03892784351195782 0.004999999999999999
  endloop
endfacet
facet normal -0.923119 0.384514 0
  outer loop
    vertex 0.02712292476944323 0.04246673837668126 0.009999999999999972
    vertex 0.02712292476944323 0.04246673837668126 0
    vertex 0.02564884329357185 0.03892784351195782 0.004999999999999999
  endloop
endfacet
facet normal -0.923119 0.384514 0
  outer loop
    vertex 0.02417476181770048 0.03538894864723438 0.01000000000000003
    vertex 0.02417476181770048 0.03538894864723438 0.02
    vertex 0.02564884329357185 0.03892784351195782 0.015
  endloop
endfacet
facet normal -0.923119 0.384514 3.09327e-16
  outer loop
    vertex 0.02417476181770048 0.03538894864723438 0.01000000000000003
    vertex 0.02712292476944323 0.04246673837668126 0.009999999999999972
    vertex 0.02564884329357185 0.03892784351195782 0.004999999999999999
  endloop
endfacet
facet normal -0.923119 0.384514 -3.09327e-16
  outer loop
    vertex 0.02712292476944323 0.04246673837668126 0.009999999999999972
    vertex 0.02417476181770048 0.03538894864723438 0.01000000000000003
    vertex 0.02564884329357185 0.03892784351195782 0.015
  endloop
endfacet
facet normal -0.923119 0.384514 -3.09327e-16
  outer loop
    vertex 0.02712292476944323 0.04246673837668126 0
    vertex 0.02417476181770048 0.03538894864723438 0
    vertex 0.02564884329357185 0.03892784351195782 0.004999999999999999
  endloop
endfacet
facet normal -0.923119 0.384514 3.09327e-16
  outer loop
    vertex 0.02417476181770048 0.03538894864723438 0.02
    vertex 0.02712292476944323 0.04246673837668126 0.02
    vertex 0.02564884329357185 0.03892784351195782 0.015
  endloop
endfacet
facet normal -0.767494 -0.641056 0
  outer loop
    vertex 0.03008654495803576 0.02831115891778751 0
    vertex 0.03008654495803576 0.02831115891778751 0.01000000000000003
    vertex 0.02713065338786812 0.03185005378251095 0.005000000000000001
  endloop
endfacet
facet normal -0.767494 -0.641056 -0
  outer loop
    vertex 0.02417476181770048 0.03538894864723438 0.02
    vertex 0.02417476181770048 0.03538894864723438 0.009999999999999972
    vertex 0.02713065338786812 0.03185005378251094 0.015
  endloop
endfacet
facet normal -0.767494 -0.641056 -0
  outer loop
    vertex 0.02417476181770048 0.03538894864723438 0.009999999999999972
    vertex 0.02417476181770048 0.03538894864723438 0
    vertex 0.02713065338786812 0.03185005378251095 0.005000000000000001
  endloop
endfacet
facet normal -0.767494 -0.641056 0
  outer loop
    vertex 0.03008654495803576 0.02831115891778751 0.01000000000000003
    vertex 0.03008654495803576 0.02831115891778751 0.02
    vertex 0.02713065338786812 0.03185005378251094 0.015
  endloop
endfacet
facet normal -0.767494 -0.641056 1.17568e-15
  outer loop
    vertex 0.02417476181770048 0.03538894864723438 0
    vertex 0.03008654495803576 0.02831115891778751 0
    vertex 0.02713065338786812 0.03185005378251095 0.005000000000000001
  endloop
endfacet
facet normal -0.767494 -0.641056 2.93919e-16
  outer loop
    vertex 0.02417476181770048 0.03538894864723438 0.009999999999999972
    vertex 0.03008654495803576 0.02831115891778751 0.01000000000000003
    vertex 0.02713065338786812 0.03185005378251094 0.015
  endloop
endfacet
facet normal -0.767494 -0.641056 -3.67399e-16
  outer loop
    vertex 0.03008654495803576 0.02831115891778751 0.02
    vertex 0.02417476181770048 0.03538894864723438 0.02
    vertex 0.02713065338786812 0.03185005378251094 0.015
  endloop
endfacet
facet normal -0.767494 -0.641056 -1.24916e-15
  outer loop
    vertex 0.03008654495803576 0.02831115891778751 0.01000000000000003
    vertex 0.02417476181770048 0.03538894864723438 0.009999999999999972
    vertex 0.02713065338786812 0.03185005378251095 0.005000000000000001
  endloop
endfacet
facet normal -0.894326 -0.447415 -0
  outer loop
    vertex 0.03008654495803576 0.02831115891778751 0.02
    vertex 0.03008654495803576 0.02831115891778751 0.009999999999999972
    vertex 0.03185699078831421 0.02477226405306407 0.015
  endloop
endfacet
facet normal -0.894326 -0.447415 0
  outer loop
    vertex 0.03362743661859265 0.02123336918834063 0
    vertex 0.03362743661859265 0.02123336918834063 0.01000000000000003
    vertex 0.03185699078831421 0.02477226405306407 0.005
  endloop
endfacet
facet normal -0.894326 -0.447415 -0
  outer loop
    vertex 0.03008654495803576 0.02831115891778751 0.009999999999999972
    vertex 0.03008654495803576 0.02831115891778751 0
    vertex 0.03185699078831421 0.02477226405306407 0.005
  endloop
endfacet
facet normal -0.894326 -0.447415 0
  outer loop
    vertex 0.03362743661859265 0.02123336918834063 0.01000000000000003
    vertex 0.03362743661859265 0.02123336918834063 0.02
    vertex 0.03185699078831421 0.02477226405306407 0.015
  endloop
endfacet
facet normal -0.894326 -0.447415 -1.11309e-15
  outer loop
    vertex 0.03362743661859265 0.02123336918834063 0.02
    vertex 0.03008654495803576 0.02831115891778751 0.02
    vertex 0.03185699078831421 0.02477226405306407 0.015
  endloop
endfacet
facet normal -0.894326 -0.447415 -1.11309e-15
  outer loop
    vertex 0.03362743661859265 0.02123336918834063 0.01000000000000003
    vertex 0.03008654495803576 0.02831115891778751 0.009999999999999972
    vertex 0.03185699078831421 0.02477226405306407 0.005
  endloop
endfacet
facet normal -0.894326 -0.447415 1.11309e-15
  outer loop
    vertex 0.03008654495803576 0.02831115891778751 0
    vertex 0.03362743661859265 0.02123336918834063 0
    vertex 0.03185699078831421 0.02477226405306407 0.005
  endloop
endfacet
facet normal -0.894326 -0.447415 1.11309e-15
  outer loop
    vertex 0.03008654495803576 0.02831115891778751 0.009999999999999972
    vertex 0.03362743661859265 0.02123336918834063 0.01000000000000003
    vertex 0.03185699078831421 0.02477226405306407 0.015
  endloop
endfacet
facet normal -0.601523 0.798855 -2.86972e-16
  outer loop
    vertex 0.03362743661859265 0.02123336918834063 0
    vertex 0.02422774663209551 0.01415557945889375 0
    vertex 0.02892759162534408 0.01769447432361719 0.006020408163265299
  endloop
endfacet
facet normal -0.601523 0.798855 0
  outer loop
    vertex 0.02422774663209551 0.01415557945889375 0.02
    vertex 0.03362743661859265 0.02123336918834063 0.02
    vertex 0.02892759162534409 0.0176944743236172 0.01408371511870053
  endloop
endfacet
facet normal -0.601523 0.798855 0
  outer loop
    vertex 0.02422774663209551 0.01415557945889375 0
    vertex 0.02422774663209551 0.01415557945889375 0.01000000000000003
    vertex 0.02892759162534408 0.01769447432361719 0.006020408163265299
  endloop
endfacet
facet normal -0.601523 0.798855 0
  outer loop
    vertex 0.03362743661859265 0.02123336918834063 0.02
    vertex 0.03362743661859265 0.02123336918834063 0.009999999999999972
    vertex 0.02892759162534409 0.0176944743236172 0.01408371511870053
  endloop
endfacet
facet normal -0.601523 0.798855 1.73914e-16
  outer loop
    vertex 0.02892759162534408 0.01769447432361719 0.006020408163265299
    vertex 0.02422774663209551 0.01415557945889375 0.01000000000000003
    vertex 0.02892759162534409 0.0176944743236172 0.01408371511870053
  endloop
endfacet
facet normal -0.601523 0.798855 0
  outer loop
    vertex 0.02422774663209551 0.01415557945889375 0.01000000000000003
    vertex 0.02422774663209551 0.01415557945889375 0.02
    vertex 0.02892759162534409 0.0176944743236172 0.01408371511870053
  endloop
endfacet
facet normal -0.601523 0.798855 1.42844e-16
  outer loop
    vertex 0.03362743661859265 0.02123336918834063 0.009999999999999972
    vertex 0.02892759162534408 0.01769447432361719 0.006020408163265299
    vertex 0.02892759162534409 0.0176944743236172 0.01408371511870053
  endloop
endfacet
facet normal -0.601523 0.798855 0
  outer loop
    vertex 0.03362743661859265 0.02123336918834063 0.009999999999999972
    vertex 0.03362743661859265 0.02123336918834063 0
    vertex 0.02892759162534408 0.01769447432361719 0.006020408163265299
  endloop
endfacet
facet normal -0.813921 0.580976 0
  outer loop
    vertex 0.01917562624727416 0.007077789729446879 0
    vertex 0.01917562624727416 0.007077789729446879 0.01000000000000003
    vertex 0.02170168643968483 0.01061668459417031 0.005000000000000001
  endloop
endfacet
facet normal -0.813921 0.580976 0
  outer loop
    vertex 0.02422774663209551 0.01415557945889375 0.02
    vertex 0.02422774663209551 0.01415557945889375 0.009999999999999972
    vertex 0.02170168643968483 0.01061668459417031 0.015
  endloop
endfacet
facet normal -0.813921 0.580976 0
  outer loop
    vertex 0.01917562624727416 0.007077789729446879 0.01000000000000003
    vertex 0.01917562624727416 0.007077789729446879 0.02
    vertex 0.02170168643968483 0.01061668459417031 0.015
  endloop
endfacet
facet normal -0.813921 0.580976 0
  outer loop
    vertex 0.02422774663209551 0.01415557945889375 0.009999999999999972
    vertex 0.02422774663209551 0.01415557945889375 0
    vertex 0.02170168643968483 0.01061668459417031 0.005000000000000001
  endloop
endfacet
facet normal -0.813921 0.580976 0
  outer loop
    vertex 0.02422774663209551 0.01415557945889375 0
    vertex 0.01917562624727416 0.007077789729446879 0
    vertex 0.02170168643968483 0.01061668459417031 0.005000000000000001
  endloop
endfacet
facet normal -0.813921 0.580976 0
  outer loop
    vertex 0.02422774663209551 0.01415557945889375 0.009999999999999972
    vertex 0.01917562624727416 0.007077789729446879 0.01000000000000003
    vertex 0.02170168643968483 0.01061668459417031 0.015
  endloop
endfacet
facet normal -0.813921 0.580976 0
  outer loop
    vertex 0.01917562624727416 0.007077789729446879 0.02
    vertex 0.02422774663209551 0.01415557945889375 0.02
    vertex 0.02170168643968483 0.01061668459417031 0.015
  endloop
endfacet
facet normal -0.813921 0.580976 0
  outer loop
    vertex 0.01917562624727416 0.007077789729446879 0.01000000000000003
    vertex 0.02422774663209551 0.01415557945889375 0.009999999999999972
    vertex 0.02170168643968483 0.01061668459417031 0.005000000000000001
  endloop
endfacet
endsolid Created by Gmsh
