solid Created by Gmsh
facet normal 1 1.2557e-29 1.38778e-15
  outer loop
    vertex 0.04 0.053864999963803 0.01000000000000003
    vertex 0.04000000000000001 0.0569324999819015 0.005000000000000001
    vertex 0.04 0.06 0.009999999999999972
  endloop
endfacet
facet normal 1 -1.2557e-29 -1.38778e-15
  outer loop
    vertex 0.04 0.06 0.009999999999999972
    vertex 0.04000000000000001 0.0569324999819015 0.015
    vertex 0.04 0.053864999963803 0.01000000000000003
  endloop
endfacet
facet normal 1 -0 1.38778e-15
  outer loop
    vertex 0.04 0.053864999963803 0.02
    vertex 0.04000000000000001 0.0569324999819015 0.015
    vertex 0.04 0.06 0.02
  endloop
endfacet
facet normal 1 0 -1.38778e-15
  outer loop
    vertex 0.04 0.06 0
    vertex 0.04000000000000001 0.0569324999819015 0.005000000000000001
    vertex 0.04 0.053864999963803 0
  endloop
endfacet
facet normal 1 2.26207e-15 0
  outer loop
    vertex 0.04 0.06 0.009999999999999972
    vertex 0.04000000000000001 0.0569324999819015 0.005000000000000001
    vertex 0.04 0.06 0
  endloop
endfacet
facet normal 1 2.26207e-15 0
  outer loop
    vertex 0.04 0.06 0.02
    vertex 0.04000000000000001 0.0569324999819015 0.015
    vertex 0.04 0.06 0.009999999999999972
  endloop
endfacet
facet normal 1 -2.26207e-15 0
  outer loop
    vertex 0.04 0.053864999963803 0
    vertex 0.04000000000000001 0.0569324999819015 0.005000000000000001
    vertex 0.04 0.053864999963803 0.01000000000000003
  endloop
endfacet
facet normal 1 -2.26207e-15 0
  outer loop
    vertex 0.04 0.053864999963803 0.01000000000000003
    vertex 0.04000000000000001 0.0569324999819015 0.015
    vertex 0.04 0.053864999963803 0.02
  endloop
endfacet
facet normal 0.986913 -0.161251 -6.8285e-16
  outer loop
    vertex 0.03889988182756331 0.04713187496832762 0.01000000000000003
    vertex 0.03944994091378165 0.05049843746606531 0.005
    vertex 0.04 0.053864999963803 0.009999999999999972
  endloop
endfacet
facet normal 0.986913 -0.161251 6.8285e-16
  outer loop
    vertex 0.04 0.053864999963803 0.009999999999999972
    vertex 0.03944994091378165 0.05049843746606531 0.015
    vertex 0.03889988182756331 0.04713187496832762 0.01000000000000003
  endloop
endfacet
facet normal 0.986913 -0.161251 6.8285e-16
  outer loop
    vertex 0.04 0.053864999963803 0
    vertex 0.03944994091378165 0.05049843746606531 0.005
    vertex 0.03889988182756331 0.04713187496832762 0
  endloop
endfacet
facet normal 0.986913 -0.161251 -6.8285e-16
  outer loop
    vertex 0.03889988182756331 0.04713187496832762 0.02
    vertex 0.03944994091378165 0.05049843746606531 0.015
    vertex 0.04 0.053864999963803 0.02
  endloop
endfacet
facet normal 0.986913 -0.161251 0
  outer loop
    vertex 0.04 0.053864999963803 0.009999999999999972
    vertex 0.03944994091378165 0.05049843746606531 0.005
    vertex 0.04 0.053864999963803 0
  endloop
endfacet
facet normal 0.986913 -0.161251 0
  outer loop
    vertex 0.04 0.053864999963803 0.02
    vertex 0.03944994091378165 0.05049843746606531 0.015
    vertex 0.04 0.053864999963803 0.009999999999999972
  endloop
endfacet
facet normal 0.986913 -0.161251 0
  outer loop
    vertex 0.03889988182756331 0.04713187496832762 0
    vertex 0.03944994091378165 0.05049843746606531 0.005
    vertex 0.03889988182756331 0.04713187496832762 0.01000000000000003
  endloop
endfacet
facet normal 0.986913 -0.161251 0
  outer loop
    vertex 0.03889988182756331 0.04713187496832762 0.01000000000000003
    vertex 0.03944994091378165 0.05049843746606531 0.015
    vertex 0.03889988182756331 0.04713187496832762 0.02
  endloop
endfacet
facet normal 0.81996 0.572421 0
  outer loop
    vertex 0.03889988182756331 0.04713187496832762 0.02
    vertex 0.04125010559407166 0.04376531247058994 0.015
    vertex 0.03889988182756331 0.04713187496832762 0.009999999999999972
  endloop
endfacet
facet normal 0.81996 0.572421 -0
  outer loop
    vertex 0.04360032936058002 0.04039874997285225 0
    vertex 0.04125010559407166 0.04376531247058994 0.005
    vertex 0.04360032936058002 0.04039874997285225 0.01000000000000003
  endloop
endfacet
facet normal 0.81996 0.572421 0
  outer loop
    vertex 0.03889988182756331 0.04713187496832762 0.009999999999999972
    vertex 0.04125010559407166 0.04376531247058994 0.005
    vertex 0.03889988182756331 0.04713187496832762 0
  endloop
endfacet
facet normal 0.81996 0.572421 -0
  outer loop
    vertex 0.04360032936058002 0.04039874997285225 0.01000000000000003
    vertex 0.04125010559407166 0.04376531247058994 0.015
    vertex 0.04360032936058002 0.04039874997285225 0.02
  endloop
endfacet
facet normal 0.81996 0.572421 0
  outer loop
    vertex 0.04360032936058002 0.04039874997285225 0.01000000000000003
    vertex 0.04125010559407166 0.04376531247058994 0.005
    vertex 0.03889988182756331 0.04713187496832762 0.009999999999999972
  endloop
endfacet
facet normal 0.81996 0.572421 0
  outer loop
    vertex 0.03889988182756331 0.04713187496832762 0.009999999999999972
    vertex 0.04125010559407166 0.04376531247058994 0.015
    vertex 0.04360032936058002 0.04039874997285225 0.01000000000000003
  endloop
endfacet
facet normal 0.81996 0.572421 0
  outer loop
    vertex 0.03889988182756331 0.04713187496832762 0
    vertex 0.04125010559407166 0.04376531247058994 0.005
    vertex 0.04360032936058002 0.04039874997285225 0
  endloop
endfacet
facet normal 0.81996 0.572421 0
  outer loop
    vertex 0.04360032936058002 0.04039874997285225 0.02
    vertex 0.04125010559407166 0.04376531247058994 0.015
    vertex 0.03889988182756331 0.04713187496832762 0.02
  endloop
endfacet
facet normal 0.500648 -0.865651 0
  outer loop
    vertex 0.04360032936058002 0.04039874997285225 0.02
    vertex 0.0395256334726103 0.03804215622443586 0.015
    vertex 0.04360032936058002 0.04039874997285225 0.009999999999999972
  endloop
endfacet
facet normal 0.500648 -0.865651 0
  outer loop
    vertex 0.03195834110923795 0.03366562497737688 0
    vertex 0.03603303699720768 0.03602221872579325 0.005000000000000005
    vertex 0.03195834110923795 0.03366562497737688 0.01000000000000003
  endloop
endfacet
facet normal 0.500648 -0.865651 0
  outer loop
    vertex 0.04360032936058002 0.04039874997285225 0.009999999999999972
    vertex 0.03975847323763713 0.03817681872434537 0.004999999999999998
    vertex 0.04360032936058002 0.04039874997285225 0
  endloop
endfacet
facet normal 0.500648 -0.865651 0
  outer loop
    vertex 0.03195834110923795 0.03366562497737688 0.01000000000000003
    vertex 0.03580019723218084 0.03588755622588374 0.01500000000000001
    vertex 0.03195834110923795 0.03366562497737688 0.02
  endloop
endfacet
facet normal 0.500648 -0.865651 2.31774e-15
  outer loop
    vertex 0.03777933523490899 0.03703218747511457 0.02
    vertex 0.0395256334726103 0.03804215622443586 0.015
    vertex 0.04360032936058002 0.04039874997285225 0.02
  endloop
endfacet
facet normal 0.500648 -0.865651 -1.96504e-15
  outer loop
    vertex 0.03777933523490898 0.03703218747511456 0
    vertex 0.03603303699720768 0.03602221872579325 0.005000000000000005
    vertex 0.03195834110923795 0.03366562497737688 0
  endloop
endfacet
facet normal 0.500648 -0.865651 -1.00771e-15
  outer loop
    vertex 0.04360032936058002 0.04039874997285225 0
    vertex 0.03975847323763713 0.03817681872434537 0.004999999999999998
    vertex 0.03777933523490898 0.03703218747511456 0
  endloop
endfacet
facet normal 0.500648 -0.865651 1.4108e-15
  outer loop
    vertex 0.03195834110923795 0.03366562497737688 0.02
    vertex 0.03580019723218084 0.03588755622588374 0.01500000000000001
    vertex 0.03777933523490899 0.03703218747511457 0.02
  endloop
endfacet
facet normal 0.500648 -0.865651 1.85009e-15
  outer loop
    vertex 0.03777933523490899 0.03703218747511457 0.02
    vertex 0.03580019723218084 0.03588755622588374 0.01500000000000001
    vertex 0.0395256334726103 0.03804215622443586 0.015
  endloop
endfacet
facet normal 0.500648 -0.865651 -1.57455e-15
  outer loop
    vertex 0.03777933523490898 0.03703218747511456 0
    vertex 0.03975847323763713 0.03817681872434537 0.004999999999999998
    vertex 0.03603303699720768 0.03602221872579325 0.005000000000000005
  endloop
endfacet
facet normal 0.500648 -0.865651 -1.02346e-15
  outer loop
    vertex 0.03975847323763713 0.03817681872434537 0.004999999999999998
    vertex 0.03777933523490899 0.03703218747511455 0.01
    vertex 0.03603303699720768 0.03602221872579325 0.005000000000000005
  endloop
endfacet
facet normal 0.500648 -0.865651 5.51092e-16
  outer loop
    vertex 0.03580019723218084 0.03588755622588374 0.01500000000000001
    vertex 0.03777933523490899 0.03703218747511455 0.01
    vertex 0.0395256334726103 0.03804215622443586 0.015
  endloop
endfacet
facet normal 0.500648 -0.865651 -6.55012e-16
  outer loop
    vertex 0.04360032936058002 0.04039874997285225 0.009999999999999972
    vertex 0.03777933523490899 0.03703218747511455 0.01
    vertex 0.03975847323763713 0.03817681872434537 0.004999999999999998
  endloop
endfacet
facet normal 0.500648 -0.865651 -6.55012e-16
  outer loop
    vertex 0.0395256334726103 0.03804215622443586 0.015
    vertex 0.03777933523490899 0.03703218747511455 0.01
    vertex 0.04360032936058002 0.04039874997285225 0.009999999999999972
  endloop
endfacet
facet normal 0.500648 -0.865651 1.76349e-16
  outer loop
    vertex 0.03603303699720768 0.03602221872579325 0.005000000000000005
    vertex 0.03777933523490899 0.03703218747511455 0.01
    vertex 0.03195834110923795 0.03366562497737688 0.01000000000000003
  endloop
endfacet
facet normal 0.500648 -0.865651 2.01542e-16
  outer loop
    vertex 0.03195834110923795 0.03366562497737688 0.01000000000000003
    vertex 0.03777933523490899 0.03703218747511455 0.01
    vertex 0.03580019723218084 0.03588755622588374 0.01500000000000001
  endloop
endfacet
facet normal 0.95919 0.282761 1.42387e-15
  outer loop
    vertex 0.03394320528910166 0.0269324999819015 0.02
    vertex 0.03295077319916982 0.03029906247963919 0.015
    vertex 0.03195834110923795 0.03366562497737688 0.02
  endloop
endfacet
facet normal 0.95919 0.282761 1.42387e-15
  outer loop
    vertex 0.03394320528910166 0.0269324999819015 0.01000000000000003
    vertex 0.03295077319916982 0.03029906247963919 0.005
    vertex 0.03195834110923795 0.03366562497737688 0.009999999999999972
  endloop
endfacet
facet normal 0.95919 0.282761 -1.42387e-15
  outer loop
    vertex 0.03195834110923795 0.03366562497737688 0
    vertex 0.03295077319916982 0.03029906247963919 0.005
    vertex 0.03394320528910166 0.0269324999819015 0
  endloop
endfacet
facet normal 0.95919 0.282761 -1.42387e-15
  outer loop
    vertex 0.03195834110923795 0.03366562497737688 0.009999999999999972
    vertex 0.03295077319916982 0.03029906247963919 0.015
    vertex 0.03394320528910166 0.0269324999819015 0.01000000000000003
  endloop
endfacet
facet normal 0.95919 0.282761 0
  outer loop
    vertex 0.03195834110923795 0.03366562497737688 0.009999999999999972
    vertex 0.03295077319916982 0.03029906247963919 0.005
    vertex 0.03195834110923795 0.03366562497737688 0
  endloop
endfacet
facet normal 0.95919 0.282761 0
  outer loop
    vertex 0.03195834110923795 0.03366562497737688 0.02
    vertex 0.03295077319916982 0.03029906247963919 0.015
    vertex 0.03195834110923795 0.03366562497737688 0.009999999999999972
  endloop
endfacet
facet normal 0.95919 0.282761 -0
  outer loop
    vertex 0.03394320528910166 0.0269324999819015 0
    vertex 0.03295077319916982 0.03029906247963919 0.005
    vertex 0.03394320528910166 0.0269324999819015 0.01000000000000003
  endloop
endfacet
facet normal 0.95919 0.282761 -0
  outer loop
    vertex 0.03394320528910166 0.0269324999819015 0.01000000000000003
    vertex 0.03295077319916982 0.03029906247963919 0.015
    vertex 0.03394320528910166 0.0269324999819015 0.02
  endloop
endfacet
facet normal 0.995794 -0.0916251 -7.26576e-16
  outer loop
    vertex 0.0333236760187323 0.02019937498642613 0.01000000000000003
    vertex 0.03363344065391698 0.02356593748416382 0.004999999999999999
    vertex 0.03394320528910166 0.0269324999819015 0.009999999999999972
  endloop
endfacet
facet normal 0.995794 -0.0916251 7.14049e-16
  outer loop
    vertex 0.03394320528910166 0.0269324999819015 0.009999999999999972
    vertex 0.03363344065391698 0.02356593748416382 0.015
    vertex 0.0333236760187323 0.02019937498642613 0.01000000000000003
  endloop
endfacet
facet normal 0.995794 -0.0916251 7.14049e-16
  outer loop
    vertex 0.03394320528910166 0.0269324999819015 0
    vertex 0.03363344065391698 0.02356593748416382 0.004999999999999999
    vertex 0.0333236760187323 0.02019937498642613 0
  endloop
endfacet
facet normal 0.995794 -0.0916251 -7.26576e-16
  outer loop
    vertex 0.0333236760187323 0.02019937498642613 0.02
    vertex 0.03363344065391698 0.02356593748416382 0.015
    vertex 0.03394320528910166 0.0269324999819015 0.02
  endloop
endfacet
facet normal 0.995794 -0.0916251 0
  outer loop
    vertex 0.03394320528910166 0.0269324999819015 0.009999999999999972
    vertex 0.03363344065391698 0.02356593748416382 0.004999999999999999
    vertex 0.03394320528910166 0.0269324999819015 0
  endloop
endfacet
facet normal 0.995794 -0.0916251 0
  outer loop
    vertex 0.03394320528910166 0.0269324999819015 0.02
    vertex 0.03363344065391698 0.02356593748416382 0.015
    vertex 0.03394320528910166 0.0269324999819015 0.009999999999999972
  endloop
endfacet
facet normal 0.995794 -0.0916251 0
  outer loop
    vertex 0.0333236760187323 0.02019937498642613 0
    vertex 0.03363344065391698 0.02356593748416382 0.004999999999999999
    vertex 0.0333236760187323 0.02019937498642613 0.01000000000000003
  endloop
endfacet
facet normal 0.995794 -0.0916251 0
  outer loop
    vertex 0.0333236760187323 0.02019937498642613 0.01000000000000003
    vertex 0.03363344065391698 0.02356593748416382 0.015
    vertex 0.0333236760187323 0.02019937498642613 0.02
  endloop
endfacet
facet normal 0.996837 0.0794719 0
  outer loop
    vertex 0.03386046828770305 0.01346624999095075 0.01000000000000003
    vertex 0.03359207215321768 0.01683281248868844 0.005
    vertex 0.0333236760187323 0.02019937498642613 0.009999999999999972
  endloop
endfacet
facet normal 0.996837 0.0794719 0
  outer loop
    vertex 0.0333236760187323 0.02019937498642613 0.009999999999999972
    vertex 0.03359207215321768 0.01683281248868844 0.015
    vertex 0.03386046828770305 0.01346624999095075 0.01000000000000003
  endloop
endfacet
facet normal 0.996837 0.0794719 0
  outer loop
    vertex 0.0333236760187323 0.02019937498642613 0
    vertex 0.03359207215321768 0.01683281248868844 0.005
    vertex 0.03386046828770305 0.01346624999095075 0
  endloop
endfacet
facet normal 0.996837 0.0794719 0
  outer loop
    vertex 0.03386046828770305 0.01346624999095075 0.02
    vertex 0.03359207215321768 0.01683281248868844 0.015
    vertex 0.0333236760187323 0.02019937498642613 0.02
  endloop
endfacet
facet normal 0.996837 0.0794719 0
  outer loop
    vertex 0.0333236760187323 0.02019937498642613 0.009999999999999972
    vertex 0.03359207215321768 0.01683281248868844 0.005
    vertex 0.0333236760187323 0.02019937498642613 0
  endloop
endfacet
facet normal 0.996837 0.0794719 0
  outer loop
    vertex 0.0333236760187323 0.02019937498642613 0.02
    vertex 0.03359207215321768 0.01683281248868844 0.015
    vertex 0.0333236760187323 0.02019937498642613 0.009999999999999972
  endloop
endfacet
facet normal 0.996837 0.0794719 -0
  outer loop
    vertex 0.03386046828770305 0.01346624999095075 0
    vertex 0.03359207215321768 0.01683281248868844 0.005
    vertex 0.03386046828770305 0.01346624999095075 0.01000000000000003
  endloop
endfacet
facet normal 0.996837 0.0794719 -0
  outer loop
    vertex 0.03386046828770305 0.01346624999095075 0.01000000000000003
    vertex 0.03359207215321768 0.01683281248868844 0.015
    vertex 0.03386046828770305 0.01346624999095075 0.02
  endloop
endfacet
facet normal 0.772302 0.635255 0
  outer loop
    vertex 0.03386046828770305 0.01346624999095075 0.02
    vertex 0.03662962365621141 0.01009968749321306 0.015
    vertex 0.03386046828770305 0.01346624999095075 0.009999999999999972
  endloop
endfacet
facet normal 0.772302 0.635255 -0
  outer loop
    vertex 0.03939877902471978 0.006733124995475376 0
    vertex 0.03662962365621141 0.01009968749321306 0.005
    vertex 0.03939877902471978 0.006733124995475376 0.01000000000000003
  endloop
endfacet
facet normal 0.772302 0.635255 0
  outer loop
    vertex 0.03386046828770305 0.01346624999095075 0.009999999999999972
    vertex 0.03662962365621141 0.01009968749321306 0.005
    vertex 0.03386046828770305 0.01346624999095075 0
  endloop
endfacet
facet normal 0.772302 0.635255 -0
  outer loop
    vertex 0.03939877902471978 0.006733124995475376 0.01000000000000003
    vertex 0.03662962365621141 0.01009968749321306 0.015
    vertex 0.03939877902471978 0.006733124995475376 0.02
  endloop
endfacet
facet normal 0.772302 0.635255 -1.01043e-15
  outer loop
    vertex 0.03939877902471978 0.006733124995475376 0.01000000000000003
    vertex 0.03662962365621141 0.01009968749321306 0.005
    vertex 0.03386046828770305 0.01346624999095075 0.009999999999999972
  endloop
endfacet
facet normal 0.772302 0.635255 9.32701e-16
  outer loop
    vertex 0.03386046828770305 0.01346624999095075 0.009999999999999972
    vertex 0.03662962365621141 0.01009968749321306 0.015
    vertex 0.03939877902471978 0.006733124995475376 0.01000000000000003
  endloop
endfacet
facet normal 0.772302 0.635255 9.32701e-16
  outer loop
    vertex 0.03386046828770305 0.01346624999095075 0
    vertex 0.03662962365621141 0.01009968749321306 0.005
    vertex 0.03939877902471978 0.006733124995475376 0
  endloop
endfacet
facet normal 0.772302 0.635255 -1.01043e-15
  outer loop
    vertex 0.03939877902471978 0.006733124995475376 0.02
    vertex 0.03662962365621141 0.01009968749321306 0.015
    vertex 0.03386046828770305 0.01346624999095075 0.02
  endloop
endfacet
endsolid Created by Gmsh
