solid Created by Gmsh
facet normal 0.999766 -0.0216516 -2.96022e-16
  outer loop
    vertex 0.008475639880034712 0.02196269115676587 0.02
    vertex 0.008594549850043386 0.02745336394595731 0.009840229877783638
    vertex 0.008713459820052068 0.03294403673514879 0.02
  endloop
endfacet
facet normal 0.999766 -0.0216516 3.21992e-16
  outer loop
    vertex 0.008475639880034712 0.02196269115676584 0
    vertex 0.008331446718729653 0.01530456596249169 0.01041807613912316
    vertex 0.008237819940017356 0.01098134557838293 0
  endloop
endfacet
facet normal 0.999766 -0.0216516 2.85008e-16
  outer loop
    vertex 0.008951279760069422 0.04392538231353165 0
    vertex 0.008857672651997854 0.03960307022207341 0.01041707824376798
    vertex 0.008713459820052066 0.03294403673514875 0
  endloop
endfacet
facet normal 0.999766 -0.0216516 -3.39731e-16
  outer loop
    vertex 0.008594549850043386 0.02745336394595731 0.009840229877783638
    vertex 0.008857672651997854 0.03960307022207341 0.01041707824376798
    vertex 0.008713459820052068 0.03294403673514879 0.02
  endloop
endfacet
facet normal 0.999766 -0.0216516 -2.91359e-16
  outer loop
    vertex 0.008475639880034712 0.02196269115676587 0.02
    vertex 0.008331446718729653 0.01530456596249169 0.01041807613912316
    vertex 0.008594549850043386 0.02745336394595731 0.009840229877783638
  endloop
endfacet
facet normal 0.999766 -0.0216516 3.51928e-16
  outer loop
    vertex 0.008594549850043386 0.02745336394595731 0.009840229877783638
    vertex 0.008331446718729653 0.01530456596249169 0.01041807613912316
    vertex 0.008475639880034712 0.02196269115676584 0
  endloop
endfacet
facet normal 0.999766 -0.0216516 2.35475e-16
  outer loop
    vertex 0.008713459820052066 0.03294403673514875 0
    vertex 0.008857672651997854 0.03960307022207341 0.01041707824376798
    vertex 0.008594549850043386 0.02745336394595731 0.009840229877783638
  endloop
endfacet
facet normal 0.999766 -0.0216516 0
  outer loop
    vertex 0.008 0 0
    vertex 0.008164400542817184 0.007591201872380937 0.007720892065373739
    vertex 0.008 0 0.01000000000000003
  endloop
endfacet
facet normal 0.999766 -0.0216516 0
  outer loop
    vertex 0.009189099700086778 0.05490672789191462 0.009999999999999972
    vertex 0.009024788105268943 0.04731963319708728 0.007716379716406151
    vertex 0.009189099700086778 0.05490672789191462 0
  endloop
endfacet
facet normal 0.999766 -0.0216516 4.53202e-16
  outer loop
    vertex 0.008237819940017356 0.01098134557838293 0
    vertex 0.008164400542817184 0.007591201872380937 0.007720892065373739
    vertex 0.008 0 0
  endloop
endfacet
facet normal 0.999766 -0.0216516 4.72206e-16
  outer loop
    vertex 0.009189099700086778 0.05490672789191462 0
    vertex 0.009024788105268943 0.04731963319708728 0.007716379716406151
    vertex 0.008951279760069422 0.04392538231353165 0
  endloop
endfacet
facet normal 0.999766 -0.0216516 -2.93723e-16
  outer loop
    vertex 0.008713459820052068 0.03294403673514879 0.02
    vertex 0.008857672651997854 0.03960307022207341 0.01041707824376798
    vertex 0.008951279760069422 0.04392538231353169 0.02
  endloop
endfacet
facet normal 0.999766 -0.0216516 2.9192e-16
  outer loop
    vertex 0.008713459820052066 0.03294403673514875 0
    vertex 0.008594549850043386 0.02745336394595731 0.009840229877783638
    vertex 0.008475639880034712 0.02196269115676584 0
  endloop
endfacet
facet normal 0.999766 -0.0216516 -2.65585e-16
  outer loop
    vertex 0.008237819940017356 0.01098134557838297 0.02
    vertex 0.008331446718729653 0.01530456596249169 0.01041807613912316
    vertex 0.008475639880034712 0.02196269115676587 0.02
  endloop
endfacet
facet normal 0.999766 -0.0216516 -3.41513e-16
  outer loop
    vertex 0.008857672651997854 0.03960307022207341 0.01041707824376798
    vertex 0.009056005165498432 0.04876108224587682 0.01429933244491572
    vertex 0.008951279760069422 0.04392538231353169 0.02
  endloop
endfacet
facet normal 0.999766 -0.0216516 -2.71447e-16
  outer loop
    vertex 0.008237819940017356 0.01098134557838297 0.02
    vertex 0.008133105618123044 0.006146157428711704 0.01429989471474459
    vertex 0.008331446718729653 0.01530456596249169 0.01041807613912316
  endloop
endfacet
facet normal 0.999766 -0.0216516 -1.83873e-17
  outer loop
    vertex 0.009024788105268943 0.04731963319708728 0.007716379716406151
    vertex 0.009056005165498432 0.04876108224587682 0.01429933244491572
    vertex 0.008857672651997854 0.03960307022207341 0.01041707824376798
  endloop
endfacet
facet normal 0.999766 -0.0216516 -1.08481e-16
  outer loop
    vertex 0.008331446718729653 0.01530456596249169 0.01041807613912316
    vertex 0.008133105618123044 0.006146157428711704 0.01429989471474459
    vertex 0.008164400542817184 0.007591201872380937 0.007720892065373739
  endloop
endfacet
facet normal 0.999766 -0.0216516 3.79053e-16
  outer loop
    vertex 0.008331446718729653 0.01530456596249169 0.01041807613912316
    vertex 0.008164400542817184 0.007591201872380937 0.007720892065373739
    vertex 0.008237819940017356 0.01098134557838293 0
  endloop
endfacet
facet normal 0.999766 -0.0216516 4.05172e-16
  outer loop
    vertex 0.008951279760069422 0.04392538231353165 0
    vertex 0.009024788105268943 0.04731963319708728 0.007716379716406151
    vertex 0.008857672651997854 0.03960307022207341 0.01041707824376798
  endloop
endfacet
facet normal 0.999766 -0.0216516 -3.991e-16
  outer loop
    vertex 0.008 0 0.02
    vertex 0.008133105618123044 0.006146157428711704 0.01429989471474459
    vertex 0.008237819940017356 0.01098134557838297 0.02
  endloop
endfacet
facet normal 0.999766 -0.0216516 -5.30954e-16
  outer loop
    vertex 0.008951279760069422 0.04392538231353169 0.02
    vertex 0.009056005165498432 0.04876108224587682 0.01429933244491572
    vertex 0.009189099700086778 0.05490672789191462 0.02
  endloop
endfacet
facet normal 0.999766 -0.0216516 0
  outer loop
    vertex 0.009189099700086778 0.05490672789191462 0.02
    vertex 0.009056005165498432 0.04876108224587682 0.01429933244491572
    vertex 0.009189099700086778 0.05490672789191462 0.009999999999999972
  endloop
endfacet
facet normal 0.999766 -0.0216516 0
  outer loop
    vertex 0.008 0 0.01000000000000003
    vertex 0.008133105618123044 0.006146157428711704 0.01429989471474459
    vertex 0.008 0 0.02
  endloop
endfacet
facet normal 0.999766 -0.0216516 -9.07664e-18
  outer loop
    vertex 0.008164400542817184 0.007591201872380937 0.007720892065373739
    vertex 0.008133105618123044 0.006146157428711704 0.01429989471474459
    vertex 0.008 0 0.01000000000000003
  endloop
endfacet
facet normal 0.999766 -0.0216516 9.52952e-17
  outer loop
    vertex 0.009189099700086778 0.05490672789191462 0.009999999999999972
    vertex 0.009056005165498432 0.04876108224587682 0.01429933244491572
    vertex 0.009024788105268943 0.04731963319708728 0.007716379716406151
  endloop
endfacet
endsolid Created by Gmsh
