solid Created by Gmsh
facet normal -0.358517 0.933523 1.06794e-15
  outer loop
    vertex 0.03454349091298506 0.05509905196617439 0
    vertex 0.0255766543335483 0.05165536121828849 0
    vertex 0.02753639175611702 0.05240799338355646 0.007596710447382495
  endloop
endfacet
facet normal -0.358517 0.933523 0
  outer loop
    vertex 0.03454349091298506 0.05509905196617439 0.009999999999999972
    vertex 0.03454349091298506 0.05509905196617439 0
    vertex 0.02753639175611702 0.05240799338355646 0.007596710447382495
  endloop
endfacet
facet normal -0.358517 0.933523 0
  outer loop
    vertex 0.01660981775411155 0.04821167047040259 0.01000000000000003
    vertex 0.01660981775411155 0.04821167047040259 0.02
    vertex 0.02323507044617351 0.05075608189085618 0.0130349050043462
  endloop
endfacet
facet normal -0.358517 0.933523 -1.0635e-15
  outer loop
    vertex 0.01660981775411155 0.04821167047040259 0.02
    vertex 0.02557665433354831 0.05165536121828849 0.02
    vertex 0.02323507044617351 0.05075608189085618 0.0130349050043462
  endloop
endfacet
facet normal -0.358517 0.933523 0
  outer loop
    vertex 0.01660981775411155 0.04821167047040259 0
    vertex 0.01660981775411155 0.04821167047040259 0.01000000000000003
    vertex 0.02109323604382993 0.04993351584434554 0.005000000000000015
  endloop
endfacet
facet normal -0.358517 0.933523 0
  outer loop
    vertex 0.03454349091298506 0.05509905196617439 0.02
    vertex 0.03454349091298506 0.05509905196617439 0.009999999999999972
    vertex 0.02918425072481015 0.05304084942303453 0.01417620216713596
  endloop
endfacet
facet normal -0.358517 0.933523 7.76013e-16
  outer loop
    vertex 0.0255766543335483 0.05165536121828849 0
    vertex 0.01660981775411155 0.04821167047040259 0
    vertex 0.02109323604382993 0.04993351584434554 0.005000000000000015
  endloop
endfacet
facet normal -0.358517 0.933523 -5.14824e-16
  outer loop
    vertex 0.02557665433354831 0.05165536121828849 0.02
    vertex 0.03454349091298506 0.05509905196617439 0.02
    vertex 0.02918425072481015 0.05304084942303453 0.01417620216713596
  endloop
endfacet
facet normal -0.358517 0.933523 3.04561e-16
  outer loop
    vertex 0.01660981775411155 0.04821167047040259 0.01000000000000003
    vertex 0.02323507044617351 0.05075608189085618 0.0130349050043462
    vertex 0.02109323604382993 0.04993351584434554 0.005000000000000015
  endloop
endfacet
facet normal -0.358517 0.933523 5.2192e-16
  outer loop
    vertex 0.02323507044617351 0.05075608189085618 0.0130349050043462
    vertex 0.02753639175611702 0.05240799338355646 0.007596710447382495
    vertex 0.02109323604382993 0.04993351584434554 0.005000000000000015
  endloop
endfacet
facet normal -0.358517 0.933523 -3.00207e-16
  outer loop
    vertex 0.02918425072481015 0.05304084942303453 0.01417620216713596
    vertex 0.03454349091298506 0.05509905196617439 0.009999999999999972
    vertex 0.02753639175611702 0.05240799338355646 0.007596710447382495
  endloop
endfacet
facet normal -0.358517 0.933523 1.0457e-15
  outer loop
    vertex 0.02753639175611702 0.05240799338355646 0.007596710447382495
    vertex 0.0255766543335483 0.05165536121828849 0
    vertex 0.02109323604382993 0.04993351584434554 0.005000000000000015
  endloop
endfacet
facet normal -0.358517 0.933523 -3.71363e-16
  outer loop
    vertex 0.02918425072481015 0.05304084942303453 0.01417620216713596
    vertex 0.02753639175611702 0.05240799338355646 0.007596710447382495
    vertex 0.02323507044617351 0.05075608189085618 0.0130349050043462
  endloop
endfacet
facet normal -0.358517 0.933523 -7.75137e-16
  outer loop
    vertex 0.02557665433354831 0.05165536121828849 0.02
    vertex 0.02918425072481015 0.05304084942303453 0.01417620216713596
    vertex 0.02323507044617351 0.05075608189085618 0.0130349050043462
  endloop
endfacet
facet normal -0.39085 -0.920454 -5.93155e-16
  outer loop
    vertex 0.01660981775411155 0.04821167047040259 0
    vertex 0.02471973922983724 0.04476797972251669 0
    vertex 0.02356863089133873 0.04525677127826315 0.007779627096131097
  endloop
endfacet
facet normal -0.39085 -0.920454 -0
  outer loop
    vertex 0.01660981775411155 0.04821167047040259 0.009999999999999972
    vertex 0.01660981775411155 0.04821167047040259 0
    vertex 0.02356863089133873 0.04525677127826315 0.007779627096131097
  endloop
endfacet
facet normal -0.39085 -0.920454 0
  outer loop
    vertex 0.03282966070556292 0.04132428897463079 0.01000000000000003
    vertex 0.03282966070556292 0.04132428897463079 0.02
    vertex 0.02725372781517342 0.04369198002601039 0.01354409424922927
  endloop
endfacet
facet normal -0.39085 -0.920454 0
  outer loop
    vertex 0.03282966070556292 0.04132428897463079 0
    vertex 0.03282966070556292 0.04132428897463079 0.01000000000000003
    vertex 0.02863558707249885 0.04310520542485357 0.00510620883544541
  endloop
endfacet
facet normal -0.39085 -0.920454 1.36999e-15
  outer loop
    vertex 0.03282966070556292 0.04132428897463079 0.02
    vertex 0.02471973922983724 0.04476797972251669 0.02
    vertex 0.02725372781517342 0.04369198002601039 0.01354409424922927
  endloop
endfacet
facet normal -0.39085 -0.920454 -0
  outer loop
    vertex 0.01660981775411155 0.04821167047040259 0.02
    vertex 0.01660981775411155 0.04821167047040259 0.009999999999999972
    vertex 0.0217523466889145 0.04602801439351908 0.01426474426907207
  endloop
endfacet
facet normal -0.39085 -0.920454 -1.84507e-15
  outer loop
    vertex 0.02471973922983724 0.04476797972251669 0
    vertex 0.03282966070556292 0.04132428897463079 0
    vertex 0.02863558707249885 0.04310520542485357 0.00510620883544541
  endloop
endfacet
facet normal -0.39085 -0.920454 1.57565e-15
  outer loop
    vertex 0.02471973922983724 0.04476797972251669 0.02
    vertex 0.01660981775411155 0.04821167047040259 0.02
    vertex 0.0217523466889145 0.04602801439351908 0.01426474426907207
  endloop
endfacet
facet normal -0.39085 -0.920454 9.9802e-18
  outer loop
    vertex 0.02725372781517342 0.04369198002601039 0.01354409424922927
    vertex 0.02356863089133873 0.04525677127826315 0.007779627096131097
    vertex 0.02863558707249885 0.04310520542485357 0.00510620883544541
  endloop
endfacet
facet normal -0.39085 -0.920454 4.43915e-16
  outer loop
    vertex 0.03282966070556292 0.04132428897463079 0.01000000000000003
    vertex 0.02725372781517342 0.04369198002601039 0.01354409424922927
    vertex 0.02863558707249885 0.04310520542485357 0.00510620883544541
  endloop
endfacet
facet normal -0.39085 -0.920454 -5.21764e-16
  outer loop
    vertex 0.0217523466889145 0.04602801439351908 0.01426474426907207
    vertex 0.02356863089133873 0.04525677127826315 0.007779627096131097
    vertex 0.02725372781517342 0.04369198002601039 0.01354409424922927
  endloop
endfacet
facet normal -0.39085 -0.920454 -7.77836e-16
  outer loop
    vertex 0.0217523466889145 0.04602801439351908 0.01426474426907207
    vertex 0.01660981775411155 0.04821167047040259 0.009999999999999972
    vertex 0.02356863089133873 0.04525677127826315 0.007779627096131097
  endloop
endfacet
facet normal -0.39085 -0.920454 -7.9378e-16
  outer loop
    vertex 0.02356863089133873 0.04525677127826315 0.007779627096131097
    vertex 0.02471973922983724 0.04476797972251669 0
    vertex 0.02863558707249885 0.04310520542485357 0.00510620883544541
  endloop
endfacet
facet normal -0.39085 -0.920454 1.50422e-15
  outer loop
    vertex 0.02471973922983724 0.04476797972251669 0.02
    vertex 0.0217523466889145 0.04602801439351908 0.01426474426907207
    vertex 0.02725372781517342 0.04369198002601039 0.01354409424922927
  endloop
endfacet
facet normal -0.994124 0.10825 7.33564e-17
  outer loop
    vertex 0.03282966070556292 0.04132428897463079 0.009999999999999972
    vertex 0.03207969372336973 0.03443690747885899 0.01000000000000003
    vertex 0.03245467721446633 0.03788059822674489 0.015
  endloop
endfacet
facet normal -0.994124 0.10825 -8.55824e-17
  outer loop
    vertex 0.03282966070556292 0.04132428897463079 0
    vertex 0.03207969372336973 0.03443690747885899 0
    vertex 0.03245467721446633 0.0378805982267449 0.005000000000000001
  endloop
endfacet
facet normal -0.994124 0.10825 7.33564e-17
  outer loop
    vertex 0.03207969372336973 0.03443690747885899 0.01000000000000003
    vertex 0.03282966070556292 0.04132428897463079 0.009999999999999972
    vertex 0.03245467721446633 0.0378805982267449 0.005000000000000001
  endloop
endfacet
facet normal -0.994124 0.10825 -8.55824e-17
  outer loop
    vertex 0.03207969372336973 0.03443690747885899 0.02
    vertex 0.03282966070556292 0.04132428897463079 0.02
    vertex 0.03245467721446633 0.03788059822674489 0.015
  endloop
endfacet
facet normal -0.994124 0.10825 0
  outer loop
    vertex 0.03282966070556292 0.04132428897463079 0.009999999999999972
    vertex 0.03282966070556292 0.04132428897463079 0
    vertex 0.03245467721446633 0.0378805982267449 0.005000000000000001
  endloop
endfacet
facet normal -0.994124 0.10825 0
  outer loop
    vertex 0.03282966070556292 0.04132428897463079 0.02
    vertex 0.03282966070556292 0.04132428897463079 0.009999999999999972
    vertex 0.03245467721446633 0.03788059822674489 0.015
  endloop
endfacet
facet normal -0.994124 0.10825 0
  outer loop
    vertex 0.03207969372336973 0.03443690747885899 0
    vertex 0.03207969372336973 0.03443690747885899 0.01000000000000003
    vertex 0.03245467721446633 0.0378805982267449 0.005000000000000001
  endloop
endfacet
facet normal -0.994124 0.10825 0
  outer loop
    vertex 0.03207969372336973 0.03443690747885899 0.01000000000000003
    vertex 0.03207969372336973 0.03443690747885899 0.02
    vertex 0.03245467721446633 0.03788059822674489 0.015
  endloop
endfacet
facet normal -0.612319 -0.790611 -1.26191e-15
  outer loop
    vertex 0.03207969372336973 0.03443690747885899 0
    vertex 0.04097249885171499 0.02754952598308719 0
    vertex 0.03652609628754235 0.03099321673097309 0.005728862973760926
  endloop
endfacet
facet normal -0.612319 -0.790611 1.16757e-15
  outer loop
    vertex 0.04097249885171499 0.02754952598308719 0.02
    vertex 0.03207969372336973 0.03443690747885899 0.02
    vertex 0.03652609628754235 0.03099321673097309 0.01432426114969104
  endloop
endfacet
facet normal -0.612319 -0.790611 0
  outer loop
    vertex 0.03652609628754235 0.03099321673097309 0.005728862973760926
    vertex 0.04097249885171499 0.02754952598308719 0.01000000000000003
    vertex 0.03652609628754235 0.03099321673097309 0.01432426114969104
  endloop
endfacet
facet normal -0.612319 -0.790611 -0
  outer loop
    vertex 0.03207969372336973 0.03443690747885899 0.02
    vertex 0.03207969372336973 0.03443690747885899 0.009999999999999972
    vertex 0.03652609628754235 0.03099321673097309 0.01432426114969104
  endloop
endfacet
facet normal -0.612319 -0.790611 0
  outer loop
    vertex 0.04097249885171499 0.02754952598308719 0
    vertex 0.04097249885171499 0.02754952598308719 0.01000000000000003
    vertex 0.03652609628754235 0.03099321673097309 0.005728862973760926
  endloop
endfacet
facet normal -0.612319 -0.790611 0
  outer loop
    vertex 0.03207969372336973 0.03443690747885899 0.009999999999999972
    vertex 0.03652609628754235 0.03099321673097309 0.005728862973760926
    vertex 0.03652609628754235 0.03099321673097309 0.01432426114969104
  endloop
endfacet
facet normal -0.612319 -0.790611 -0
  outer loop
    vertex 0.03207969372336973 0.03443690747885899 0.009999999999999972
    vertex 0.03207969372336973 0.03443690747885899 0
    vertex 0.03652609628754235 0.03099321673097309 0.005728862973760926
  endloop
endfacet
facet normal -0.612319 -0.790611 0
  outer loop
    vertex 0.04097249885171499 0.02754952598308719 0.01000000000000003
    vertex 0.04097249885171499 0.02754952598308719 0.02
    vertex 0.03652609628754235 0.03099321673097309 0.01432426114969104
  endloop
endfacet
facet normal -0.499025 0.866588 0
  outer loop
    vertex 0.04097249885171499 0.02754952598308719 0.02
    vertex 0.04097249885171499 0.02754952598308719 0.009999999999999972
    vertex 0.03678637130757008 0.02513894245956707 0.015
  endloop
endfacet
facet normal -0.499025 0.866588 0
  outer loop
    vertex 0.02901213443987239 0.0206621444873154 0
    vertex 0.02901213443987239 0.0206621444873154 0.01000000000000003
    vertex 0.0331982619840173 0.02307272801083553 0.005000000000000006
  endloop
endfacet
facet normal -0.499025 0.866588 0
  outer loop
    vertex 0.04097249885171499 0.02754952598308719 0.009999999999999972
    vertex 0.04097249885171499 0.02754952598308719 0
    vertex 0.03702557859580693 0.0252766900894825 0.004999999999999998
  endloop
endfacet
facet normal -0.499025 0.866588 0
  outer loop
    vertex 0.02901213443987239 0.0206621444873154 0.01000000000000003
    vertex 0.02901213443987239 0.0206621444873154 0.02
    vertex 0.03295905469578045 0.02293498038092009 0.01500000000000001
  endloop
endfacet
facet normal -0.499025 0.866588 3.6823e-16
  outer loop
    vertex 0.03499231664579369 0.0241058352352013 0.02
    vertex 0.04097249885171499 0.02754952598308719 0.02
    vertex 0.03678637130757008 0.02513894245956707 0.015
  endloop
endfacet
facet normal -0.499025 0.866588 -8.10107e-16
  outer loop
    vertex 0.03499231664579369 0.0241058352352013 0
    vertex 0.02901213443987239 0.0206621444873154 0
    vertex 0.0331982619840173 0.02307272801083553 0.005000000000000006
  endloop
endfacet
facet normal -0.499025 0.866588 4.90974e-16
  outer loop
    vertex 0.02901213443987239 0.0206621444873154 0.02
    vertex 0.03499231664579369 0.0241058352352013 0.02
    vertex 0.03295905469578045 0.02293498038092009 0.01500000000000001
  endloop
endfacet
facet normal -0.499025 0.866588 -6.87363e-16
  outer loop
    vertex 0.04097249885171499 0.02754952598308719 0
    vertex 0.03499231664579369 0.0241058352352013 0
    vertex 0.03702557859580693 0.0252766900894825 0.004999999999999998
  endloop
endfacet
facet normal -0.499025 0.866588 4.79467e-16
  outer loop
    vertex 0.03499231664579369 0.0241058352352013 0.02
    vertex 0.03678637130757008 0.02513894245956707 0.015
    vertex 0.03295905469578045 0.02293498038092009 0.01500000000000001
  endloop
endfacet
facet normal -0.499025 0.866588 -8.05504e-16
  outer loop
    vertex 0.03499231664579369 0.0241058352352013 0
    vertex 0.0331982619840173 0.02307272801083553 0.005000000000000006
    vertex 0.03702557859580693 0.0252766900894825 0.004999999999999998
  endloop
endfacet
facet normal -0.499025 0.866588 -4.98645e-16
  outer loop
    vertex 0.03702557859580693 0.0252766900894825 0.004999999999999998
    vertex 0.0331982619840173 0.02307272801083553 0.005000000000000006
    vertex 0.03499231664579368 0.0241058352352013 0.01
  endloop
endfacet
facet normal -0.499025 0.866588 8.05504e-16
  outer loop
    vertex 0.03295905469578045 0.02293498038092009 0.01500000000000001
    vertex 0.03678637130757008 0.02513894245956707 0.015
    vertex 0.03499231664579368 0.0241058352352013 0.01
  endloop
endfacet
facet normal -0.499025 0.866588 5.40071e-16
  outer loop
    vertex 0.03678637130757008 0.02513894245956707 0.015
    vertex 0.04097249885171499 0.02754952598308719 0.009999999999999972
    vertex 0.03499231664579368 0.0241058352352013 0.01
  endloop
endfacet
facet normal -0.499025 0.866588 -1.47292e-16
  outer loop
    vertex 0.04097249885171499 0.02754952598308719 0.009999999999999972
    vertex 0.03702557859580693 0.0252766900894825 0.004999999999999998
    vertex 0.03499231664579368 0.0241058352352013 0.01
  endloop
endfacet
facet normal -0.499025 0.866588 -9.81948e-17
  outer loop
    vertex 0.0331982619840173 0.02307272801083553 0.005000000000000006
    vertex 0.02901213443987239 0.0206621444873154 0.01000000000000003
    vertex 0.03499231664579368 0.0241058352352013 0.01
  endloop
endfacet
facet normal -0.499025 0.866588 3.92779e-16
  outer loop
    vertex 0.02901213443987239 0.0206621444873154 0.01000000000000003
    vertex 0.03295905469578045 0.02293498038092009 0.01500000000000001
    vertex 0.03499231664579368 0.0241058352352013 0.01
  endloop
endfacet
facet normal -0.562013 0.827129 0
  outer loop
    vertex 0.01887579784296849 0.01377476299154359 0.01000000000000003
    vertex 0.02394396614142043 0.01721845373942949 0.02
    vertex 0.02901213443987239 0.0206621444873154 0.009999999999999972
  endloop
endfacet
facet normal -0.562013 0.827129 1.93531e-16
  outer loop
    vertex 0.02394396614142044 0.0172184537394295 0
    vertex 0.01887579784296849 0.01377476299154359 0.01000000000000003
    vertex 0.02901213443987239 0.0206621444873154 0.009999999999999972
  endloop
endfacet
facet normal -0.562013 0.827129 0
  outer loop
    vertex 0.02394396614142044 0.0172184537394295 0
    vertex 0.02901213443987239 0.0206621444873154 0.009999999999999972
    vertex 0.02901213443987239 0.0206621444873154 0
  endloop
endfacet
facet normal -0.562013 0.827129 0
  outer loop
    vertex 0.02901213443987239 0.0206621444873154 0.009999999999999972
    vertex 0.02394396614142043 0.01721845373942949 0.02
    vertex 0.02901213443987239 0.0206621444873154 0.02
  endloop
endfacet
facet normal -0.562013 0.827129 0
  outer loop
    vertex 0.01887579784296849 0.01377476299154359 0.01000000000000003
    vertex 0.02394396614142044 0.0172184537394295 0
    vertex 0.01887579784296849 0.01377476299154359 0
  endloop
endfacet
facet normal -0.562013 0.827129 0
  outer loop
    vertex 0.02394396614142043 0.01721845373942949 0.02
    vertex 0.01887579784296849 0.01377476299154359 0.01000000000000003
    vertex 0.01887579784296849 0.01377476299154359 0.02
  endloop
endfacet
facet normal -0.98107 0.193652 3.37835e-16
  outer loop
    vertex 0.01751631001486304 0.006887381495771797 0.01000000000000003
    vertex 0.01887579784296849 0.01377476299154359 0.009999999999999972
    vertex 0.01819605392891576 0.01033107224365769 0.005000000000000001
  endloop
endfacet
facet normal -0.98107 0.193652 -3.37835e-16
  outer loop
    vertex 0.01887579784296849 0.01377476299154359 0.009999999999999972
    vertex 0.01751631001486304 0.006887381495771797 0.01000000000000003
    vertex 0.01819605392891576 0.01033107224365769 0.015
  endloop
endfacet
facet normal -0.98107 0.193652 -3.37835e-16
  outer loop
    vertex 0.01887579784296849 0.01377476299154359 0
    vertex 0.01751631001486304 0.006887381495771797 0
    vertex 0.01819605392891576 0.01033107224365769 0.005000000000000001
  endloop
endfacet
facet normal -0.98107 0.193652 3.37835e-16
  outer loop
    vertex 0.01751631001486304 0.006887381495771797 0.02
    vertex 0.01887579784296849 0.01377476299154359 0.02
    vertex 0.01819605392891576 0.01033107224365769 0.015
  endloop
endfacet
facet normal -0.98107 0.193652 0
  outer loop
    vertex 0.01887579784296849 0.01377476299154359 0.009999999999999972
    vertex 0.01887579784296849 0.01377476299154359 0
    vertex 0.01819605392891576 0.01033107224365769 0.005000000000000001
  endloop
endfacet
facet normal -0.98107 0.193652 0
  outer loop
    vertex 0.01887579784296849 0.01377476299154359 0.02
    vertex 0.01887579784296849 0.01377476299154359 0.009999999999999972
    vertex 0.01819605392891576 0.01033107224365769 0.015
  endloop
endfacet
facet normal -0.98107 0.193652 0
  outer loop
    vertex 0.01751631001486304 0.006887381495771797 0
    vertex 0.01751631001486304 0.006887381495771797 0.01000000000000003
    vertex 0.01819605392891576 0.01033107224365769 0.005000000000000001
  endloop
endfacet
facet normal -0.98107 0.193652 0
  outer loop
    vertex 0.01751631001486304 0.006887381495771797 0.01000000000000003
    vertex 0.01751631001486304 0.006887381495771797 0.02
    vertex 0.01819605392891576 0.01033107224365769 0.015
  endloop
endfacet
endsolid Created by Gmsh
