solid Created by Gmsh
facet normal -0.51015 -0.860086 -5.35344e-17
  outer loop
    vertex 0.04382852320648842 0.0452014864249541 0.01000000000000003
    vertex 0.03838514288440478 0.04843016402673653 0.02
    vertex 0.03294176256232113 0.05165884162851897 0.009999999999999972
  endloop
endfacet
facet normal -0.51015 -0.860086 -8.03017e-17
  outer loop
    vertex 0.03838514288440476 0.04843016402673654 0
    vertex 0.04382852320648842 0.0452014864249541 0.01000000000000003
    vertex 0.03294176256232113 0.05165884162851897 0.009999999999999972
  endloop
endfacet
facet normal -0.51015 -0.860086 0
  outer loop
    vertex 0.03838514288440476 0.04843016402673654 0
    vertex 0.03294176256232113 0.05165884162851897 0.009999999999999972
    vertex 0.03294176256232113 0.05165884162851897 0
  endloop
endfacet
facet normal -0.51015 -0.860086 0
  outer loop
    vertex 0.03294176256232113 0.05165884162851897 0.009999999999999972
    vertex 0.03838514288440478 0.04843016402673653 0.02
    vertex 0.03294176256232113 0.05165884162851897 0.02
  endloop
endfacet
facet normal -0.51015 -0.860086 -0
  outer loop
    vertex 0.04382852320648842 0.0452014864249541 0.01000000000000003
    vertex 0.03838514288440476 0.04843016402673654 0
    vertex 0.04382852320648842 0.0452014864249541 0
  endloop
endfacet
facet normal -0.51015 -0.860086 0
  outer loop
    vertex 0.03838514288440478 0.04843016402673653 0.02
    vertex 0.04382852320648842 0.0452014864249541 0.01000000000000003
    vertex 0.04382852320648842 0.0452014864249541 0.02
  endloop
endfacet
facet normal -0.999941 0.0108453 1.3879e-15
  outer loop
    vertex 0.04382852320648842 0.0452014864249541 0
    vertex 0.04375848712925223 0.03874413122138923 0
    vertex 0.04379350516787033 0.04197280882317166 0.005000000000000001
  endloop
endfacet
facet normal -0.999941 0.0108453 1.3879e-15
  outer loop
    vertex 0.04382852320648842 0.0452014864249541 0.009999999999999972
    vertex 0.04375848712925223 0.03874413122138923 0.01000000000000003
    vertex 0.04379350516787033 0.04197280882317166 0.015
  endloop
endfacet
facet normal -0.999941 0.0108453 -1.3879e-15
  outer loop
    vertex 0.04375848712925223 0.03874413122138923 0.02
    vertex 0.04382852320648842 0.0452014864249541 0.02
    vertex 0.04379350516787033 0.04197280882317166 0.015
  endloop
endfacet
facet normal -0.999941 0.0108453 -1.3879e-15
  outer loop
    vertex 0.04375848712925223 0.03874413122138923 0.01000000000000003
    vertex 0.04382852320648842 0.0452014864249541 0.009999999999999972
    vertex 0.04379350516787033 0.04197280882317166 0.005000000000000001
  endloop
endfacet
facet normal -0.999941 0.0108453 0
  outer loop
    vertex 0.04382852320648842 0.0452014864249541 0.009999999999999972
    vertex 0.04382852320648842 0.0452014864249541 0
    vertex 0.04379350516787033 0.04197280882317166 0.005000000000000001
  endloop
endfacet
facet normal -0.999941 0.0108453 0
  outer loop
    vertex 0.04382852320648842 0.0452014864249541 0.02
    vertex 0.04382852320648842 0.0452014864249541 0.009999999999999972
    vertex 0.04379350516787033 0.04197280882317166 0.015
  endloop
endfacet
facet normal -0.999941 0.0108453 0
  outer loop
    vertex 0.04375848712925223 0.03874413122138923 0
    vertex 0.04375848712925223 0.03874413122138923 0.01000000000000003
    vertex 0.04379350516787033 0.04197280882317166 0.005000000000000001
  endloop
endfacet
facet normal -0.999941 0.0108453 0
  outer loop
    vertex 0.04375848712925223 0.03874413122138923 0.01000000000000003
    vertex 0.04375848712925223 0.03874413122138923 0.02
    vertex 0.04379350516787033 0.04197280882317166 0.015
  endloop
endfacet
facet normal -0.602804 0.797889 9.73965e-16
  outer loop
    vertex 0.04375848712925223 0.03874413122138923 0
    vertex 0.03521134640044453 0.03228677601782436 0
    vertex 0.03948491676484838 0.03551545361960678 0.005520616409829226
  endloop
endfacet
facet normal -0.602804 0.797889 -5.18173e-16
  outer loop
    vertex 0.03521134640044453 0.03228677601782436 0.02
    vertex 0.04375848712925223 0.03874413122138923 0.02
    vertex 0.03948491676484839 0.0355154536196068 0.0145064877347891
  endloop
endfacet
facet normal -0.602804 0.797889 0
  outer loop
    vertex 0.04375848712925223 0.03874413122138923 0.02
    vertex 0.04375848712925223 0.03874413122138923 0.009999999999999972
    vertex 0.03948491676484839 0.0355154536196068 0.0145064877347891
  endloop
endfacet
facet normal -0.602804 0.797889 0
  outer loop
    vertex 0.03521134640044453 0.03228677601782436 0
    vertex 0.03521134640044453 0.03228677601782436 0.01000000000000003
    vertex 0.03948491676484838 0.03551545361960678 0.005520616409829226
  endloop
endfacet
facet normal -0.602804 0.797889 -3.16785e-16
  outer loop
    vertex 0.04375848712925223 0.03874413122138923 0.009999999999999972
    vertex 0.03948491676484838 0.03551545361960678 0.005520616409829226
    vertex 0.03948491676484839 0.0355154536196068 0.0145064877347891
  endloop
endfacet
facet normal -0.602804 0.797889 -3.01289e-16
  outer loop
    vertex 0.03948491676484838 0.03551545361960678 0.005520616409829226
    vertex 0.03521134640044453 0.03228677601782436 0.01000000000000003
    vertex 0.03948491676484839 0.0355154536196068 0.0145064877347891
  endloop
endfacet
facet normal -0.602804 0.797889 0
  outer loop
    vertex 0.04375848712925223 0.03874413122138923 0.009999999999999972
    vertex 0.04375848712925223 0.03874413122138923 0
    vertex 0.03948491676484838 0.03551545361960678 0.005520616409829226
  endloop
endfacet
facet normal -0.602804 0.797889 0
  outer loop
    vertex 0.03521134640044453 0.03228677601782436 0.01000000000000003
    vertex 0.03521134640044453 0.03228677601782436 0.02
    vertex 0.03948491676484839 0.0355154536196068 0.0145064877347891
  endloop
endfacet
facet normal -0.546374 -0.837541 4.76179e-16
  outer loop
    vertex 0.03521134640044453 0.03228677601782436 0
    vertex 0.04510987746648766 0.02582942081425948 0
    vertex 0.04016061193346609 0.02905809841604192 0.006020408163265301
  endloop
endfacet
facet normal -0.546374 -0.837541 -4.84559e-16
  outer loop
    vertex 0.04510987746648766 0.02582942081425948 0.02
    vertex 0.03521134640044453 0.03228677601782436 0.02
    vertex 0.04016061193346609 0.02905809841604192 0.01408371511870055
  endloop
endfacet
facet normal -0.546374 -0.837541 0
  outer loop
    vertex 0.03521134640044453 0.03228677601782436 0.009999999999999972
    vertex 0.04016061193346609 0.02905809841604192 0.006020408163265301
    vertex 0.04016061193346609 0.02905809841604192 0.01408371511870055
  endloop
endfacet
facet normal -0.546374 -0.837541 0
  outer loop
    vertex 0.04016061193346609 0.02905809841604192 0.006020408163265301
    vertex 0.04510987746648766 0.02582942081425948 0.01000000000000003
    vertex 0.04016061193346609 0.02905809841604192 0.01408371511870055
  endloop
endfacet
facet normal -0.546374 -0.837541 0
  outer loop
    vertex 0.04510987746648766 0.02582942081425948 0
    vertex 0.04510987746648766 0.02582942081425948 0.01000000000000003
    vertex 0.04016061193346609 0.02905809841604192 0.006020408163265301
  endloop
endfacet
facet normal -0.546374 -0.837541 -0
  outer loop
    vertex 0.03521134640044453 0.03228677601782436 0.02
    vertex 0.03521134640044453 0.03228677601782436 0.009999999999999972
    vertex 0.04016061193346609 0.02905809841604192 0.01408371511870055
  endloop
endfacet
facet normal -0.546374 -0.837541 -0
  outer loop
    vertex 0.03521134640044453 0.03228677601782436 0.009999999999999972
    vertex 0.03521134640044453 0.03228677601782436 0
    vertex 0.04016061193346609 0.02905809841604192 0.006020408163265301
  endloop
endfacet
facet normal -0.546374 -0.837541 0
  outer loop
    vertex 0.04510987746648766 0.02582942081425948 0.01000000000000003
    vertex 0.04510987746648766 0.02582942081425948 0.02
    vertex 0.04016061193346609 0.02905809841604192 0.01408371511870055
  endloop
endfacet
facet normal -0.405049 0.914295 4.60807e-16
  outer loop
    vertex 0.03782194935400984 0.02260074321247704 0.02
    vertex 0.04510987746648766 0.02582942081425948 0.02
    vertex 0.03756829754162044 0.02248837109345038 0.01204422819036121
  endloop
endfacet
facet normal -0.405049 0.914295 4.27416e-16
  outer loop
    vertex 0.03053402124153204 0.01937206561069461 0.02
    vertex 0.03782194935400984 0.02260074321247704 0.02
    vertex 0.03756829754162044 0.02248837109345038 0.01204422819036121
  endloop
endfacet
facet normal -0.405049 0.914295 0
  outer loop
    vertex 0.04510987746648766 0.02582942081425948 0.02
    vertex 0.04510987746648766 0.02582942081425948 0.009999999999999972
    vertex 0.03756829754162044 0.02248837109345038 0.01204422819036121
  endloop
endfacet
facet normal -0.405049 0.914295 0
  outer loop
    vertex 0.03053402124153204 0.01937206561069461 0.01000000000000003
    vertex 0.03053402124153204 0.01937206561069461 0.02
    vertex 0.03756829754162044 0.02248837109345038 0.01204422819036121
  endloop
endfacet
facet normal -0.405049 0.914295 0
  outer loop
    vertex 0.03053402124153204 0.01937206561069461 0
    vertex 0.03053402124153204 0.01937206561069461 0.01000000000000003
    vertex 0.03531358893325134 0.02148949636938119 0.005625434491831002
  endloop
endfacet
facet normal -0.405049 0.914295 0
  outer loop
    vertex 0.04510987746648766 0.02582942081425948 0.009999999999999972
    vertex 0.04510987746648766 0.02582942081425948 0
    vertex 0.04018471815237139 0.02364749046076552 0.005533932536438437
  endloop
endfacet
facet normal -0.405049 0.914295 -2.30425e-16
  outer loop
    vertex 0.04510987746648766 0.02582942081425948 0
    vertex 0.03782194935400986 0.02260074321247706 0
    vertex 0.04018471815237139 0.02364749046076552 0.005533932536438437
  endloop
endfacet
facet normal -0.405049 0.914295 -2.26677e-16
  outer loop
    vertex 0.03782194935400986 0.02260074321247706 0
    vertex 0.03053402124153204 0.01937206561069461 0
    vertex 0.03531358893325134 0.02148949636938119 0.005625434491831002
  endloop
endfacet
facet normal -0.405049 0.914295 -3.54034e-17
  outer loop
    vertex 0.03756829754162044 0.02248837109345038 0.01204422819036121
    vertex 0.04510987746648766 0.02582942081425948 0.009999999999999972
    vertex 0.04018471815237139 0.02364749046076552 0.005533932536438437
  endloop
endfacet
facet normal -0.405049 0.914295 -3.82038e-17
  outer loop
    vertex 0.03531358893325134 0.02148949636938119 0.005625434491831002
    vertex 0.03053402124153204 0.01937206561069461 0.01000000000000003
    vertex 0.03756829754162044 0.02248837109345038 0.01204422819036121
  endloop
endfacet
facet normal -0.405049 0.914295 -1.72245e-16
  outer loop
    vertex 0.03531358893325134 0.02148949636938119 0.005625434491831002
    vertex 0.03756829754162044 0.02248837109345038 0.01204422819036121
    vertex 0.04018471815237139 0.02364749046076552 0.005533932536438437
  endloop
endfacet
facet normal -0.405049 0.914295 -1.85254e-16
  outer loop
    vertex 0.03782194935400986 0.02260074321247706 0
    vertex 0.03531358893325134 0.02148949636938119 0.005625434491831002
    vertex 0.04018471815237139 0.02364749046076552 0.005533932536438437
  endloop
endfacet
facet normal -0.797076 -0.603879 -0
  outer loop
    vertex 0.03053402124153204 0.01937206561069461 0.02
    vertex 0.03053402124153204 0.01937206561069461 0.009999999999999972
    vertex 0.03298012228488485 0.01614338800891217 0.015
  endloop
endfacet
facet normal -0.797076 -0.603879 0
  outer loop
    vertex 0.03542622332823767 0.01291471040712974 0
    vertex 0.03542622332823767 0.01291471040712974 0.01000000000000003
    vertex 0.03298012228488485 0.01614338800891217 0.005
  endloop
endfacet
facet normal -0.797076 -0.603879 -0
  outer loop
    vertex 0.03053402124153204 0.01937206561069461 0.009999999999999972
    vertex 0.03053402124153204 0.01937206561069461 0
    vertex 0.03298012228488485 0.01614338800891217 0.005
  endloop
endfacet
facet normal -0.797076 -0.603879 0
  outer loop
    vertex 0.03542622332823767 0.01291471040712974 0.01000000000000003
    vertex 0.03542622332823767 0.01291471040712974 0.02
    vertex 0.03298012228488485 0.01614338800891217 0.015
  endloop
endfacet
facet normal -0.797076 -0.603879 9.20086e-16
  outer loop
    vertex 0.03542622332823767 0.01291471040712974 0.01000000000000003
    vertex 0.03053402124153204 0.01937206561069461 0.009999999999999972
    vertex 0.03298012228488485 0.01614338800891217 0.005
  endloop
endfacet
facet normal -0.797076 -0.603879 9.20086e-16
  outer loop
    vertex 0.03542622332823767 0.01291471040712974 0.02
    vertex 0.03053402124153204 0.01937206561069461 0.02
    vertex 0.03298012228488485 0.01614338800891217 0.015
  endloop
endfacet
facet normal -0.797076 -0.603879 -1.00373e-15
  outer loop
    vertex 0.03053402124153204 0.01937206561069461 0
    vertex 0.03542622332823767 0.01291471040712974 0
    vertex 0.03298012228488485 0.01614338800891217 0.005
  endloop
endfacet
facet normal -0.797076 -0.603879 -1.00373e-15
  outer loop
    vertex 0.03053402124153204 0.01937206561069461 0.009999999999999972
    vertex 0.03542622332823767 0.01291471040712974 0.01000000000000003
    vertex 0.03298012228488485 0.01614338800891217 0.015
  endloop
endfacet
facet normal -0.932351 -0.361553 -1.41868e-15
  outer loop
    vertex 0.03542622332823767 0.01291471040712974 0
    vertex 0.03793029955908084 0.006457355203564871 0
    vertex 0.03667826144365925 0.009686032805347305 0.004999999999999999
  endloop
endfacet
facet normal -0.932351 -0.361553 1.41868e-15
  outer loop
    vertex 0.03793029955908084 0.006457355203564871 0.02
    vertex 0.03542622332823767 0.01291471040712974 0.02
    vertex 0.03667826144365925 0.009686032805347305 0.015
  endloop
endfacet
facet normal -0.932351 -0.361553 1.41868e-15
  outer loop
    vertex 0.03793029955908084 0.006457355203564871 0.01000000000000003
    vertex 0.03542622332823767 0.01291471040712974 0.009999999999999972
    vertex 0.03667826144365925 0.009686032805347305 0.004999999999999999
  endloop
endfacet
facet normal -0.932351 -0.361553 -1.41868e-15
  outer loop
    vertex 0.03542622332823767 0.01291471040712974 0.009999999999999972
    vertex 0.03793029955908084 0.006457355203564871 0.01000000000000003
    vertex 0.03667826144365925 0.009686032805347305 0.015
  endloop
endfacet
facet normal -0.932351 -0.361553 -0
  outer loop
    vertex 0.03542622332823767 0.01291471040712974 0.009999999999999972
    vertex 0.03542622332823767 0.01291471040712974 0
    vertex 0.03667826144365925 0.009686032805347305 0.004999999999999999
  endloop
endfacet
facet normal -0.932351 -0.361553 -0
  outer loop
    vertex 0.03542622332823767 0.01291471040712974 0.02
    vertex 0.03542622332823767 0.01291471040712974 0.009999999999999972
    vertex 0.03667826144365925 0.009686032805347305 0.015
  endloop
endfacet
facet normal -0.932351 -0.361553 0
  outer loop
    vertex 0.03793029955908084 0.006457355203564871 0
    vertex 0.03793029955908084 0.006457355203564871 0.01000000000000003
    vertex 0.03667826144365925 0.009686032805347305 0.004999999999999999
  endloop
endfacet
facet normal -0.932351 -0.361553 0
  outer loop
    vertex 0.03793029955908084 0.006457355203564871 0.01000000000000003
    vertex 0.03793029955908084 0.006457355203564871 0.02
    vertex 0.03667826144365925 0.009686032805347305 0.015
  endloop
endfacet
endsolid Created by Gmsh
