solid Created by Gmsh
facet normal 1 0 -0
  outer loop
    vertex 0.04 0.0538605719744177 0
    vertex 0.04 0.06 0.009999999999999972
    vertex 0.04 0.04772114394883541 0.01000000000000003
  endloop
endfacet
facet normal 1 -0 0
  outer loop
    vertex 0.04 0.04772114394883541 0.01000000000000003
    vertex 0.04 0.06 0.009999999999999972
    vertex 0.04 0.05386057197441771 0.02
  endloop
endfacet
facet normal 1 0 0
  outer loop
    vertex 0.04 0.0538605719744177 0
    vertex 0.04 0.06 0
    vertex 0.04 0.06 0.009999999999999972
  endloop
endfacet
facet normal 1 0 -0
  outer loop
    vertex 0.04 0.06 0.009999999999999972
    vertex 0.04 0.06 0.02
    vertex 0.04 0.05386057197441771 0.02
  endloop
endfacet
facet normal 1 0 0
  outer loop
    vertex 0.04 0.04772114394883541 0.01000000000000003
    vertex 0.04 0.04772114394883541 0
    vertex 0.04 0.0538605719744177 0
  endloop
endfacet
facet normal 1 0 0
  outer loop
    vertex 0.04 0.05386057197441771 0.02
    vertex 0.04 0.04772114394883541 0.02
    vertex 0.04 0.04772114394883541 0.01000000000000003
  endloop
endfacet
facet normal 0.384972 -0.922928 5.11234e-16
  outer loop
    vertex 0.03284960874267894 0.04473857245203319 0
    vertex 0.03285138281487872 0.0447393124531025 0.007999702151671111
    vertex 0.02569921748535788 0.04175600095523098 0
  endloop
endfacet
facet normal 0.384972 -0.922928 5.46669e-16
  outer loop
    vertex 0.04 0.04772114394883541 0
    vertex 0.03285138281487872 0.0447393124531025 0.007999702151671111
    vertex 0.03284960874267894 0.04473857245203319 0
  endloop
endfacet
facet normal 0.384972 -0.922928 0
  outer loop
    vertex 0.02569921748535788 0.04175600095523098 0
    vertex 0.03285138281487872 0.0447393124531025 0.007999702151671111
    vertex 0.02569921748535788 0.04175600095523098 0.01000000000000003
  endloop
endfacet
facet normal 0.384972 -0.922928 0
  outer loop
    vertex 0.04 0.04772114394883541 0.009999999999999972
    vertex 0.03285138281487872 0.0447393124531025 0.007999702151671111
    vertex 0.04 0.04772114394883541 0
  endloop
endfacet
facet normal 0.384972 -0.922928 0
  outer loop
    vertex 0.04 0.04772114394883541 0.02
    vertex 0.03523362443521563 0.04573299317624307 0.0143998279153302
    vertex 0.04 0.04772114394883541 0.009999999999999972
  endloop
endfacet
facet normal 0.384972 -0.922928 0
  outer loop
    vertex 0.02569921748535788 0.04175600095523098 0.01000000000000003
    vertex 0.03046661019269781 0.04374457599836815 0.01447990601340027
    vertex 0.02569921748535788 0.04175600095523098 0.02
  endloop
endfacet
facet normal 0.384972 -0.922928 -8.71454e-16
  outer loop
    vertex 0.02569921748535788 0.04175600095523098 0.02
    vertex 0.03046661019269781 0.04374457599836815 0.01447990601340027
    vertex 0.03284960874267894 0.04473857245203319 0.02
  endloop
endfacet
facet normal 0.384972 -0.922928 -1.0347e-15
  outer loop
    vertex 0.03284960874267894 0.04473857245203319 0.02
    vertex 0.03523362443521563 0.04573299317624307 0.0143998279153302
    vertex 0.04 0.04772114394883541 0.02
  endloop
endfacet
facet normal 0.384972 -0.922928 5.3405e-16
  outer loop
    vertex 0.03523362443521563 0.04573299317624307 0.0143998279153302
    vertex 0.03285138281487872 0.0447393124531025 0.007999702151671111
    vertex 0.04 0.04772114394883541 0.009999999999999972
  endloop
endfacet
facet normal 0.384972 -0.922928 2.03712e-16
  outer loop
    vertex 0.03523362443521563 0.04573299317624307 0.0143998279153302
    vertex 0.03046661019269781 0.04374457599836815 0.01447990601340027
    vertex 0.03285138281487872 0.0447393124531025 0.007999702151671111
  endloop
endfacet
facet normal 0.384972 -0.922928 3.57245e-16
  outer loop
    vertex 0.03285138281487872 0.0447393124531025 0.007999702151671111
    vertex 0.03046661019269781 0.04374457599836815 0.01447990601340027
    vertex 0.02569921748535788 0.04175600095523098 0.01000000000000003
  endloop
endfacet
facet normal 0.384972 -0.922928 -9.58563e-16
  outer loop
    vertex 0.03284960874267894 0.04473857245203319 0.02
    vertex 0.03046661019269781 0.04374457599836815 0.01447990601340027
    vertex 0.03523362443521563 0.04573299317624307 0.0143998279153302
  endloop
endfacet
facet normal 0.983832 0.179096 -6.84536e-16
  outer loop
    vertex 0.02569921748535788 0.04175600095523098 0
    vertex 0.02624216173102105 0.03877342945842877 0.005
    vertex 0.0267851059766842 0.03579085796162655 0
  endloop
endfacet
facet normal 0.983832 0.179096 6.84536e-16
  outer loop
    vertex 0.0267851059766842 0.03579085796162655 0.02
    vertex 0.02624216173102105 0.03877342945842877 0.015
    vertex 0.02569921748535788 0.04175600095523098 0.02
  endloop
endfacet
facet normal 0.983832 0.179096 -6.84536e-16
  outer loop
    vertex 0.02569921748535788 0.04175600095523098 0.009999999999999972
    vertex 0.02624216173102105 0.03877342945842877 0.015
    vertex 0.0267851059766842 0.03579085796162655 0.01000000000000003
  endloop
endfacet
facet normal 0.983832 0.179096 6.84536e-16
  outer loop
    vertex 0.0267851059766842 0.03579085796162655 0.01000000000000003
    vertex 0.02624216173102105 0.03877342945842877 0.005
    vertex 0.02569921748535788 0.04175600095523098 0.009999999999999972
  endloop
endfacet
facet normal 0.983832 0.179096 0
  outer loop
    vertex 0.02569921748535788 0.04175600095523098 0.009999999999999972
    vertex 0.02624216173102105 0.03877342945842877 0.005
    vertex 0.02569921748535788 0.04175600095523098 0
  endloop
endfacet
facet normal 0.983832 0.179096 0
  outer loop
    vertex 0.02569921748535788 0.04175600095523098 0.02
    vertex 0.02624216173102105 0.03877342945842877 0.015
    vertex 0.02569921748535788 0.04175600095523098 0.009999999999999972
  endloop
endfacet
facet normal 0.983832 0.179096 -0
  outer loop
    vertex 0.0267851059766842 0.03579085796162655 0
    vertex 0.02624216173102105 0.03877342945842877 0.005
    vertex 0.0267851059766842 0.03579085796162655 0.01000000000000003
  endloop
endfacet
facet normal 0.983832 0.179096 -0
  outer loop
    vertex 0.0267851059766842 0.03579085796162655 0.01000000000000003
    vertex 0.02624216173102105 0.03877342945842877 0.015
    vertex 0.0267851059766842 0.03579085796162655 0.02
  endloop
endfacet
facet normal 0.267573 0.963538 2.86282e-16
  outer loop
    vertex 0.03752541590659791 0.03280828646482434 0.02
    vertex 0.03410504244057364 0.03375812017304626 0.009913475041981487
    vertex 0.0267851059766842 0.03579085796162655 0.02
  endloop
endfacet
facet normal 0.267573 0.963538 0
  outer loop
    vertex 0.0267851059766842 0.03579085796162655 0.009999999999999972
    vertex 0.03410504244057364 0.03375812017304626 0.009913475041981487
    vertex 0.0267851059766842 0.03579085796162655 0
  endloop
endfacet
facet normal 0.267573 0.963538 -6.1322e-16
  outer loop
    vertex 0.0267851059766842 0.03579085796162655 0
    vertex 0.03410504244057364 0.03375812017304626 0.009913475041981487
    vertex 0.03752541590659791 0.03280828646482434 0
  endloop
endfacet
facet normal 0.267573 0.963538 2.51011e-17
  outer loop
    vertex 0.03752541590659791 0.03280828646482434 0.02
    vertex 0.041656378697791 0.03166112293269506 0.01316978501710817
    vertex 0.03410504244057364 0.03375812017304626 0.009913475041981487
  endloop
endfacet
facet normal 0.267573 0.963538 -1.78007e-16
  outer loop
    vertex 0.04826572583651162 0.02982571496802213 0.02
    vertex 0.041656378697791 0.03166112293269506 0.01316978501710817
    vertex 0.03752541590659791 0.03280828646482434 0.02
  endloop
endfacet
facet normal 0.267573 0.963538 -0
  outer loop
    vertex 0.04826572583651162 0.02982571496802213 0.01000000000000003
    vertex 0.041656378697791 0.03166112293269506 0.01316978501710817
    vertex 0.04826572583651162 0.02982571496802213 0.02
  endloop
endfacet
facet normal 0.267573 0.963538 -6.0303e-16
  outer loop
    vertex 0.03752541590659791 0.03280828646482434 0
    vertex 0.04208139632040123 0.03154309603634775 0.006300616653920952
    vertex 0.04826572583651162 0.02982571496802213 0
  endloop
endfacet
facet normal 0.267573 0.963538 -0
  outer loop
    vertex 0.04826572583651162 0.02982571496802213 0
    vertex 0.04208139632040123 0.03154309603634775 0.006300616653920952
    vertex 0.04826572583651162 0.02982571496802213 0.01000000000000003
  endloop
endfacet
facet normal 0.267573 0.963538 3.06503e-16
  outer loop
    vertex 0.03410504244057364 0.03375812017304626 0.009913475041981487
    vertex 0.041656378697791 0.03166112293269506 0.01316978501710817
    vertex 0.04208139632040123 0.03154309603634775 0.006300616653920952
  endloop
endfacet
facet normal 0.267573 0.963538 -7.33989e-16
  outer loop
    vertex 0.03752541590659791 0.03280828646482434 0
    vertex 0.03410504244057364 0.03375812017304626 0.009913475041981487
    vertex 0.04208139632040123 0.03154309603634775 0.006300616653920952
  endloop
endfacet
facet normal 0.267573 0.963538 3.03368e-16
  outer loop
    vertex 0.04208139632040123 0.03154309603634775 0.006300616653920952
    vertex 0.041656378697791 0.03166112293269506 0.01316978501710817
    vertex 0.04826572583651162 0.02982571496802213 0.01000000000000003
  endloop
endfacet
facet normal 0.267573 0.963538 0
  outer loop
    vertex 0.0267851059766842 0.03579085796162655 0.02
    vertex 0.03410504244057364 0.03375812017304626 0.009913475041981487
    vertex 0.0267851059766842 0.03579085796162655 0.009999999999999972
  endloop
endfacet
facet normal 0.971539 0.236881 -1.35197e-15
  outer loop
    vertex 0.04826572583651162 0.02982571496802213 0.009999999999999972
    vertex 0.04899293840388819 0.02684314347121992 0.015
    vertex 0.04972015097126474 0.0238605719744177 0.01000000000000003
  endloop
endfacet
facet normal 0.971539 0.236881 1.35197e-15
  outer loop
    vertex 0.04972015097126474 0.0238605719744177 0.01000000000000003
    vertex 0.04899293840388819 0.02684314347121992 0.005
    vertex 0.04826572583651162 0.02982571496802213 0.009999999999999972
  endloop
endfacet
facet normal 0.971539 0.236881 1.35197e-15
  outer loop
    vertex 0.04972015097126474 0.0238605719744177 0.02
    vertex 0.04899293840388819 0.02684314347121992 0.015
    vertex 0.04826572583651162 0.02982571496802213 0.02
  endloop
endfacet
facet normal 0.971539 0.236881 -1.35197e-15
  outer loop
    vertex 0.04826572583651162 0.02982571496802213 0
    vertex 0.04899293840388819 0.02684314347121992 0.005
    vertex 0.04972015097126474 0.0238605719744177 0
  endloop
endfacet
facet normal 0.971539 0.236881 0
  outer loop
    vertex 0.04826572583651162 0.02982571496802213 0.009999999999999972
    vertex 0.04899293840388819 0.02684314347121992 0.005
    vertex 0.04826572583651162 0.02982571496802213 0
  endloop
endfacet
facet normal 0.971539 0.236881 0
  outer loop
    vertex 0.04826572583651162 0.02982571496802213 0.02
    vertex 0.04899293840388819 0.02684314347121992 0.015
    vertex 0.04826572583651162 0.02982571496802213 0.009999999999999972
  endloop
endfacet
facet normal 0.971539 0.236881 -0
  outer loop
    vertex 0.04972015097126474 0.0238605719744177 0
    vertex 0.04899293840388819 0.02684314347121992 0.005
    vertex 0.04972015097126474 0.0238605719744177 0.01000000000000003
  endloop
endfacet
facet normal 0.971539 0.236881 -0
  outer loop
    vertex 0.04972015097126474 0.0238605719744177 0.01000000000000003
    vertex 0.04899293840388819 0.02684314347121992 0.015
    vertex 0.04972015097126474 0.0238605719744177 0.02
  endloop
endfacet
facet normal 0.231036 -0.972945 8.87732e-16
  outer loop
    vertex 0.04134662610492965 0.02187219097654956 0
    vertex 0.03715986367176211 0.0208780004776155 0.007538891535801666
    vertex 0.03297310123859457 0.01988380997868142 0
  endloop
endfacet
facet normal 0.231036 -0.972945 0
  outer loop
    vertex 0.02459957637225949 0.01789542898081328 0
    vertex 0.03044626971069172 0.01928378742245831 0.006468322875888725
    vertex 0.02459957637225949 0.01789542898081328 0.01000000000000003
  endloop
endfacet
facet normal 0.231036 -0.972945 0
  outer loop
    vertex 0.04972015097126474 0.0238605719744177 0.009999999999999972
    vertex 0.0438734576328325 0.02247221353277267 0.00646832287588872
    vertex 0.04972015097126474 0.0238605719744177 0
  endloop
endfacet
facet normal 0.231036 -0.972945 0
  outer loop
    vertex 0.04972015097126474 0.0238605719744177 0.02
    vertex 0.04316335217063598 0.02230359156889811 0.01309849582692489
    vertex 0.04972015097126474 0.0238605719744177 0.009999999999999972
  endloop
endfacet
facet normal 0.231036 -0.972945 0
  outer loop
    vertex 0.02459957637225949 0.01789542898081328 0.01000000000000003
    vertex 0.03115637517288825 0.01945240938633288 0.0130984958269249
    vertex 0.02459957637225949 0.01789542898081328 0.02
  endloop
endfacet
facet normal 0.231036 -0.972945 6.39055e-16
  outer loop
    vertex 0.03297310123859457 0.01988380997868142 0
    vertex 0.03044626971069172 0.01928378742245831 0.006468322875888725
    vertex 0.02459957637225949 0.01789542898081328 0
  endloop
endfacet
facet normal 0.231036 -0.972945 8.52073e-16
  outer loop
    vertex 0.04972015097126474 0.0238605719744177 0
    vertex 0.0438734576328325 0.02247221353277267 0.00646832287588872
    vertex 0.04134662610492965 0.02187219097654956 0
  endloop
endfacet
facet normal 0.231036 -0.972945 -1.21928e-15
  outer loop
    vertex 0.04134662610492966 0.02187219097654956 0.02
    vertex 0.04316335217063598 0.02230359156889811 0.01309849582692489
    vertex 0.04972015097126474 0.0238605719744177 0.02
  endloop
endfacet
facet normal 0.231036 -0.972945 -9.12676e-16
  outer loop
    vertex 0.02459957637225949 0.01789542898081328 0.02
    vertex 0.03115637517288825 0.01945240938633288 0.0130984958269249
    vertex 0.03297310123859458 0.01988380997868142 0.02
  endloop
endfacet
facet normal 0.231036 -0.972945 -2.27561e-16
  outer loop
    vertex 0.03715986367176211 0.0208780004776155 0.007538891535801666
    vertex 0.04316335217063598 0.02230359156889811 0.01309849582692489
    vertex 0.03715986367176212 0.0208780004776155 0.014583760549859
  endloop
endfacet
facet normal 0.231036 -0.972945 -2.27561e-16
  outer loop
    vertex 0.03715986367176212 0.0208780004776155 0.014583760549859
    vertex 0.03115637517288825 0.01945240938633288 0.0130984958269249
    vertex 0.03715986367176211 0.0208780004776155 0.007538891535801666
  endloop
endfacet
facet normal 0.231036 -0.972945 -1.23564e-15
  outer loop
    vertex 0.03297310123859458 0.01988380997868142 0.02
    vertex 0.03715986367176212 0.0208780004776155 0.014583760549859
    vertex 0.04134662610492966 0.02187219097654956 0.02
  endloop
endfacet
facet normal 0.231036 -0.972945 2.26033e-16
  outer loop
    vertex 0.0438734576328325 0.02247221353277267 0.00646832287588872
    vertex 0.04316335217063598 0.02230359156889811 0.01309849582692489
    vertex 0.03715986367176211 0.0208780004776155 0.007538891535801666
  endloop
endfacet
facet normal 0.231036 -0.972945 1.13016e-16
  outer loop
    vertex 0.03715986367176211 0.0208780004776155 0.007538891535801666
    vertex 0.03115637517288825 0.01945240938633288 0.0130984958269249
    vertex 0.03044626971069172 0.01928378742245831 0.006468322875888725
  endloop
endfacet
facet normal 0.231036 -0.972945 6.60996e-16
  outer loop
    vertex 0.03715986367176211 0.0208780004776155 0.007538891535801666
    vertex 0.03044626971069172 0.01928378742245831 0.006468322875888725
    vertex 0.03297310123859457 0.01988380997868142 0
  endloop
endfacet
facet normal 0.231036 -0.972945 9.11103e-16
  outer loop
    vertex 0.04134662610492965 0.02187219097654956 0
    vertex 0.0438734576328325 0.02247221353277267 0.00646832287588872
    vertex 0.03715986367176211 0.0208780004776155 0.007538891535801666
  endloop
endfacet
facet normal 0.231036 -0.972945 -9.62734e-16
  outer loop
    vertex 0.03297310123859458 0.01988380997868142 0.02
    vertex 0.03115637517288825 0.01945240938633288 0.0130984958269249
    vertex 0.03715986367176212 0.0208780004776155 0.014583760549859
  endloop
endfacet
facet normal 0.231036 -0.972945 -1.3191e-15
  outer loop
    vertex 0.03715986367176212 0.0208780004776155 0.014583760549859
    vertex 0.04316335217063598 0.02230359156889811 0.01309849582692489
    vertex 0.04134662610492966 0.02187219097654956 0.02
  endloop
endfacet
facet normal 0.231036 -0.972945 1.59742e-16
  outer loop
    vertex 0.04972015097126474 0.0238605719744177 0.009999999999999972
    vertex 0.04316335217063598 0.02230359156889811 0.01309849582692489
    vertex 0.0438734576328325 0.02247221353277267 0.00646832287588872
  endloop
endfacet
facet normal 0.231036 -0.972945 5.49112e-17
  outer loop
    vertex 0.03044626971069172 0.01928378742245831 0.006468322875888725
    vertex 0.03115637517288825 0.01945240938633288 0.0130984958269249
    vertex 0.02459957637225949 0.01789542898081328 0.01000000000000003
  endloop
endfacet
facet normal 0.279301 0.960204 0
  outer loop
    vertex 0.02459957637225949 0.01789542898081328 0.02
    vertex 0.03244763212077054 0.01561261497586856 0.01197368856605838
    vertex 0.02459957637225949 0.01789542898081328 0.009999999999999972
  endloop
endfacet
facet normal 0.279301 0.960204 -1.97649e-16
  outer loop
    vertex 0.03485331904692413 0.01491285748401107 0.02
    vertex 0.03244763212077054 0.01561261497586856 0.01197368856605838
    vertex 0.02459957637225949 0.01789542898081328 0.02
  endloop
endfacet
facet normal 0.279301 0.960204 6.51774e-17
  outer loop
    vertex 0.03485331904692419 0.01491285748401106 0
    vertex 0.0380211980238362 0.01399139633156745 0.007301892768503134
    vertex 0.04510706172158883 0.01193028598720886 0
  endloop
endfacet
facet normal 0.279301 0.960204 -0
  outer loop
    vertex 0.04510706172158883 0.01193028598720886 0
    vertex 0.0380211980238362 0.01399139633156745 0.007301892768503134
    vertex 0.04510706172158883 0.01193028598720886 0.01000000000000003
  endloop
endfacet
facet normal 0.279301 0.960204 1.90367e-16
  outer loop
    vertex 0.02459957637225949 0.01789542898081328 0
    vertex 0.02972644770959184 0.01640414323241217 0.004999999999999985
    vertex 0.03485331904692419 0.01491285748401106 0
  endloop
endfacet
facet normal 0.279301 0.960204 -1.04976e-16
  outer loop
    vertex 0.04510706172158883 0.01193028598720886 0.02
    vertex 0.03916693275833806 0.01365812916557303 0.01395520189704815
    vertex 0.03485331904692413 0.01491285748401107 0.02
  endloop
endfacet
facet normal 0.279301 0.960204 0
  outer loop
    vertex 0.02459957637225949 0.01789542898081328 0.009999999999999972
    vertex 0.02972644770959184 0.01640414323241217 0.004999999999999985
    vertex 0.02459957637225949 0.01789542898081328 0
  endloop
endfacet
facet normal 0.279301 0.960204 -0
  outer loop
    vertex 0.04510706172158883 0.01193028598720886 0.01000000000000003
    vertex 0.03916693275833806 0.01365812916557303 0.01395520189704815
    vertex 0.04510706172158883 0.01193028598720886 0.02
  endloop
endfacet
facet normal 0.279301 0.960204 6.10658e-17
  outer loop
    vertex 0.03485331904692419 0.01491285748401106 0
    vertex 0.02972644770959184 0.01640414323241217 0.004999999999999985
    vertex 0.0380211980238362 0.01399139633156745 0.007301892768503134
  endloop
endfacet
facet normal 0.279301 0.960204 0
  outer loop
    vertex 0.0380211980238362 0.01399139633156745 0.007301892768503134
    vertex 0.02972644770959184 0.01640414323241217 0.004999999999999985
    vertex 0.03244763212077054 0.01561261497586856 0.01197368856605838
  endloop
endfacet
facet normal 0.279301 0.960204 -1.98516e-16
  outer loop
    vertex 0.03916693275833806 0.01365812916557303 0.01395520189704815
    vertex 0.03244763212077054 0.01561261497586856 0.01197368856605838
    vertex 0.03485331904692413 0.01491285748401107 0.02
  endloop
endfacet
facet normal 0.279301 0.960204 -4.94331e-17
  outer loop
    vertex 0.03244763212077054 0.01561261497586856 0.01197368856605838
    vertex 0.02972644770959184 0.01640414323241217 0.004999999999999985
    vertex 0.02459957637225949 0.01789542898081328 0.009999999999999972
  endloop
endfacet
facet normal 0.279301 0.960204 -9.58311e-17
  outer loop
    vertex 0.03916693275833806 0.01365812916557303 0.01395520189704815
    vertex 0.0380211980238362 0.01399139633156745 0.007301892768503134
    vertex 0.03244763212077054 0.01561261497586856 0.01197368856605838
  endloop
endfacet
facet normal 0.279301 0.960204 -1.10774e-16
  outer loop
    vertex 0.04510706172158883 0.01193028598720886 0.01000000000000003
    vertex 0.0380211980238362 0.01399139633156745 0.007301892768503134
    vertex 0.03916693275833806 0.01365812916557303 0.01395520189704815
  endloop
endfacet
facet normal 0.794116 0.607766 0
  outer loop
    vertex 0.04510706172158883 0.01193028598720886 0.02
    vertex 0.04738973174072057 0.008947714490406645 0.015
    vertex 0.04510706172158883 0.01193028598720886 0.009999999999999972
  endloop
endfacet
facet normal 0.794116 0.607766 -0
  outer loop
    vertex 0.0496724017598523 0.005965142993604428 0
    vertex 0.04738973174072057 0.008947714490406645 0.005000000000000001
    vertex 0.0496724017598523 0.005965142993604428 0.01000000000000003
  endloop
endfacet
facet normal 0.794116 0.607766 0
  outer loop
    vertex 0.04510706172158883 0.01193028598720886 0.009999999999999972
    vertex 0.04738973174072057 0.008947714490406645 0.005000000000000001
    vertex 0.04510706172158883 0.01193028598720886 0
  endloop
endfacet
facet normal 0.794116 0.607766 -0
  outer loop
    vertex 0.0496724017598523 0.005965142993604428 0.01000000000000003
    vertex 0.04738973174072057 0.008947714490406645 0.015
    vertex 0.0496724017598523 0.005965142993604428 0.02
  endloop
endfacet
facet normal 0.794116 0.607766 9.92307e-16
  outer loop
    vertex 0.0496724017598523 0.005965142993604428 0.01000000000000003
    vertex 0.04738973174072057 0.008947714490406645 0.005000000000000001
    vertex 0.04510706172158883 0.01193028598720886 0.009999999999999972
  endloop
endfacet
facet normal 0.794116 0.607766 9.92307e-16
  outer loop
    vertex 0.0496724017598523 0.005965142993604428 0.02
    vertex 0.04738973174072057 0.008947714490406645 0.015
    vertex 0.04510706172158883 0.01193028598720886 0.02
  endloop
endfacet
facet normal 0.794116 0.607766 -9.92307e-16
  outer loop
    vertex 0.04510706172158883 0.01193028598720886 0.009999999999999972
    vertex 0.04738973174072057 0.008947714490406645 0.015
    vertex 0.0496724017598523 0.005965142993604428 0.01000000000000003
  endloop
endfacet
facet normal 0.794116 0.607766 -9.92307e-16
  outer loop
    vertex 0.04510706172158883 0.01193028598720886 0
    vertex 0.04738973174072057 0.008947714490406645 0.005000000000000001
    vertex 0.0496724017598523 0.005965142993604428 0
  endloop
endfacet
endsolid Created by Gmsh
