solid Created by Gmsh
facet normal 0.999135 -0.0415818 3.20636e-16
  outer loop
    vertex 0.009335322115505626 0.03208534948498334 0
    vertex 0.00911276842958802 0.02673779123748616 0.01024175862241606
    vertex 0.008890214743670417 0.02139023298998891 0
  endloop
endfacet
facet normal 0.999135 -0.0415818 -2.56523e-16
  outer loop
    vertex 0.009335322115505628 0.03208534948498339 0.02
    vertex 0.009591480360198799 0.03824036385118239 0.009512030920492935
    vertex 0.009780429487340836 0.04278046597997785 0.02
  endloop
endfacet
facet normal 0.999135 -0.0415818 -1.84708e-16
  outer loop
    vertex 0.00844510737183521 0.01069511649499449 0.02
    vertex 0.008620519541464308 0.01490995028012781 0.009611188151958786
    vertex 0.008890214743670421 0.02139023298998896 0.02
  endloop
endfacet
facet normal 0.999135 -0.0415818 2.04809e-16
  outer loop
    vertex 0.00911276842958802 0.02673779123748616 0.01024175862241606
    vertex 0.008620519541464308 0.01490995028012781 0.009611188151958786
    vertex 0.008890214743670417 0.02139023298998891 0
  endloop
endfacet
facet normal 0.999135 -0.0415818 3.51064e-16
  outer loop
    vertex 0.009335322115505626 0.03208534948498334 0
    vertex 0.009591480360198799 0.03824036385118239 0.009512030920492935
    vertex 0.00911276842958802 0.02673779123748616 0.01024175862241606
  endloop
endfacet
facet normal 0.999135 -0.0415818 -3.16961e-16
  outer loop
    vertex 0.00911276842958802 0.02673779123748616 0.01024175862241606
    vertex 0.009591480360198799 0.03824036385118239 0.009512030920492935
    vertex 0.009335322115505628 0.03208534948498339 0.02
  endloop
endfacet
facet normal 0.999135 -0.0415818 -3.31279e-16
  outer loop
    vertex 0.008890214743670421 0.02139023298998896 0.02
    vertex 0.008620519541464308 0.01490995028012781 0.009611188151958786
    vertex 0.00911276842958802 0.02673779123748616 0.01024175862241606
  endloop
endfacet
facet normal 0.999135 -0.0415818 1.23496e-16
  outer loop
    vertex 0.008890214743670417 0.02139023298998891 0
    vertex 0.008620519541464308 0.01490995028012781 0.009611188151958786
    vertex 0.008445107371835209 0.01069511649499445 0
  endloop
endfacet
facet normal 0.999135 -0.0415818 0
  outer loop
    vertex 0.01022553685917604 0.0534755824749723 0.02
    vertex 0.009907502661515402 0.04583380206736325 0.01224926503629419
    vertex 0.01022553685917604 0.0534755824749723 0.009999999999999972
  endloop
endfacet
facet normal 0.999135 -0.0415818 0
  outer loop
    vertex 0.008 0 0.01000000000000003
    vertex 0.008308503416076625 0.007412773148283914 0.01235932782507689
    vertex 0.008 0 0.02
  endloop
endfacet
facet normal 0.999135 -0.0415818 2.78683e-16
  outer loop
    vertex 0.009780429487340835 0.04278046597997781 0
    vertex 0.009591480360198799 0.03824036385118239 0.009512030920492935
    vertex 0.009335322115505626 0.03208534948498334 0
  endloop
endfacet
facet normal 0.999135 -0.0415818 -3.85178e-16
  outer loop
    vertex 0.008890214743670421 0.02139023298998896 0.02
    vertex 0.00911276842958802 0.02673779123748616 0.01024175862241606
    vertex 0.009335322115505628 0.03208534948498339 0.02
  endloop
endfacet
facet normal 0.999135 -0.0415818 -2.29709e-16
  outer loop
    vertex 0.009780429487340836 0.04278046597997785 0.02
    vertex 0.009907502661515402 0.04583380206736325 0.01224926503629419
    vertex 0.01022553685917604 0.0534755824749723 0.02
  endloop
endfacet
facet normal 0.999135 -0.0415818 -2.12306e-16
  outer loop
    vertex 0.008 0 0.02
    vertex 0.008308503416076625 0.007412773148283914 0.01235932782507689
    vertex 0.00844510737183521 0.01069511649499449 0.02
  endloop
endfacet
facet normal 0.999135 -0.0415818 -2.39237e-16
  outer loop
    vertex 0.009591480360198799 0.03824036385118239 0.009512030920492935
    vertex 0.009907502661515402 0.04583380206736325 0.01224926503629419
    vertex 0.009780429487340836 0.04278046597997785 0.02
  endloop
endfacet
facet normal 0.999135 -0.0415818 1.67904e-16
  outer loop
    vertex 0.008620519541464308 0.01490995028012781 0.009611188151958786
    vertex 0.008259891100173049 0.006244708059771516 0.00599578799671939
    vertex 0.008445107371835209 0.01069511649499445 0
  endloop
endfacet
facet normal 0.999135 -0.0415818 -1.86673e-16
  outer loop
    vertex 0.00844510737183521 0.01069511649499449 0.02
    vertex 0.008308503416076625 0.007412773148283914 0.01235932782507689
    vertex 0.008620519541464308 0.01490995028012781 0.009611188151958786
  endloop
endfacet
facet normal 0.999135 -0.0415818 2.65731e-16
  outer loop
    vertex 0.009780429487340835 0.04278046597997781 0
    vertex 0.009973959740719145 0.04743064419799473 0.005689928158855819
    vertex 0.009591480360198799 0.03824036385118239 0.009512030920492935
  endloop
endfacet
facet normal 0.999135 -0.0415818 -1.24655e-17
  outer loop
    vertex 0.008308503416076625 0.007412773148283914 0.01235932782507689
    vertex 0.008259891100173049 0.006244708059771516 0.00599578799671939
    vertex 0.008620519541464308 0.01490995028012781 0.009611188151958786
  endloop
endfacet
facet normal 0.999135 -0.0415818 -6.2482e-17
  outer loop
    vertex 0.009591480360198799 0.03824036385118239 0.009512030920492935
    vertex 0.009973959740719145 0.04743064419799473 0.005689928158855819
    vertex 0.009907502661515402 0.04583380206736325 0.01224926503629419
  endloop
endfacet
facet normal 0.999135 -0.0415818 3.33767e-16
  outer loop
    vertex 0.01022553685917604 0.0534755824749723 0
    vertex 0.009973959740719145 0.04743064419799473 0.005689928158855819
    vertex 0.009780429487340835 0.04278046597997781 0
  endloop
endfacet
facet normal 0.999135 -0.0415818 2.44154e-16
  outer loop
    vertex 0.008445107371835209 0.01069511649499445 0
    vertex 0.008259891100173049 0.006244708059771516 0.00599578799671939
    vertex 0.008 0 0
  endloop
endfacet
facet normal 0.999135 -0.0415818 0
  outer loop
    vertex 0.008 0 0
    vertex 0.008259891100173049 0.006244708059771516 0.00599578799671939
    vertex 0.008 0 0.01000000000000003
  endloop
endfacet
facet normal 0.999135 -0.0415818 0
  outer loop
    vertex 0.01022553685917604 0.0534755824749723 0.009999999999999972
    vertex 0.009973959740719145 0.04743064419799473 0.005689928158855819
    vertex 0.01022553685917604 0.0534755824749723 0
  endloop
endfacet
facet normal 0.999135 -0.0415818 -1.04575e-16
  outer loop
    vertex 0.009907502661515402 0.04583380206736325 0.01224926503629419
    vertex 0.009973959740719145 0.04743064419799473 0.005689928158855819
    vertex 0.01022553685917604 0.0534755824749723 0.009999999999999972
  endloop
endfacet
facet normal 0.999135 -0.0415818 -5.71623e-17
  outer loop
    vertex 0.008 0 0.01000000000000003
    vertex 0.008259891100173049 0.006244708059771516 0.00599578799671939
    vertex 0.008308503416076625 0.007412773148283914 0.01235932782507689
  endloop
endfacet
endsolid Created by Gmsh
