solid Created by Gmsh
facet normal 0.998604 -0.0528155 -1.13755e-17
  outer loop
    vertex 0.009685423982980269 0.03186700305216927 0.02
    vertex 0.01000867485946105 0.03797884005665682 0.009499871419683772
    vertex 0.01024723197730702 0.04248933740289235 0.02
  endloop
endfacet
facet normal 0.998604 -0.0528155 6.59588e-17
  outer loop
    vertex 0.009685423982980267 0.03186700305216923 0
    vertex 0.00940451998581689 0.02655583587680772 0.01026171084255386
    vertex 0.009123615988653511 0.02124466870144615 0
  endloop
endfacet
facet normal 0.998604 -0.0528155 1.06526e-16
  outer loop
    vertex 0.008561807994326757 0.01062233435072312 0.02
    vertex 0.008800261912952412 0.01513088046694055 0.009534835071529702
    vertex 0.009123615988653513 0.02124466870144619 0.02
  endloop
endfacet
facet normal 0.998604 -0.0528155 1.8651e-17
  outer loop
    vertex 0.00940451998581689 0.02655583587680772 0.01026171084255386
    vertex 0.008800261912952412 0.01513088046694055 0.009534835071529702
    vertex 0.009123615988653511 0.02124466870144615 0
  endloop
endfacet
facet normal 0.998604 -0.0528155 7.33693e-18
  outer loop
    vertex 0.00940451998581689 0.02655583587680772 0.01026171084255386
    vertex 0.01000867485946105 0.03797884005665682 0.009499871419683772
    vertex 0.009685423982980269 0.03186700305216927 0.02
  endloop
endfacet
facet normal 0.998604 -0.0528155 7.66079e-17
  outer loop
    vertex 0.009685423982980267 0.03186700305216923 0
    vertex 0.01000867485946105 0.03797884005665682 0.009499871419683772
    vertex 0.00940451998581689 0.02655583587680772 0.01026171084255386
  endloop
endfacet
facet normal 0.998604 -0.0528155 4.40853e-17
  outer loop
    vertex 0.009123615988653513 0.02124466870144619 0.02
    vertex 0.008800261912952412 0.01513088046694055 0.009534835071529702
    vertex 0.00940451998581689 0.02655583587680772 0.01026171084255386
  endloop
endfacet
facet normal 0.998604 -0.0528155 -5.01085e-17
  outer loop
    vertex 0.009123615988653511 0.02124466870144615 0
    vertex 0.008800261912952412 0.01513088046694055 0.009534835071529702
    vertex 0.008561807994326756 0.01062233435072308 0
  endloop
endfacet
facet normal 0.998604 -0.0528155 0
  outer loop
    vertex 0.01080903997163378 0.05311167175361542 0.02
    vertex 0.01040712319958019 0.0455124663720104 0.01226625233604227
    vertex 0.01080903997163378 0.05311167175361542 0.009999999999999972
  endloop
endfacet
facet normal 0.998604 -0.0528155 4.08847e-18
  outer loop
    vertex 0.009123615988653513 0.02124466870144619 0.02
    vertex 0.00940451998581689 0.02655583587680772 0.01026171084255386
    vertex 0.009685423982980269 0.03186700305216927 0.02
  endloop
endfacet
facet normal 0.998604 -0.0528155 1.00586e-16
  outer loop
    vertex 0.01024723197730702 0.0424893374028923 0
    vertex 0.01000867485946105 0.03797884005665682 0.009499871419683772
    vertex 0.009685423982980267 0.03186700305216923 0
  endloop
endfacet
facet normal 0.998604 -0.0528155 0
  outer loop
    vertex 0.008 0 0.01000000000000003
    vertex 0.008401163310290893 0.007584959370788711 0.01228313931220539
    vertex 0.008 0 0.02
  endloop
endfacet
facet normal 0.998604 -0.0528155 4.89077e-17
  outer loop
    vertex 0.01024723197730702 0.04248933740289235 0.02
    vertex 0.01040712319958019 0.0455124663720104 0.01226625233604227
    vertex 0.01080903997163378 0.05311167175361542 0.02
  endloop
endfacet
facet normal 0.998604 -0.0528155 5.15945e-17
  outer loop
    vertex 0.008 0 0.02
    vertex 0.008401163310290893 0.007584959370788711 0.01228313931220539
    vertex 0.008561807994326757 0.01062233435072312 0.02
  endloop
endfacet
facet normal 0.998604 -0.0528155 1.90432e-17
  outer loop
    vertex 0.01000867485946105 0.03797884005665682 0.009499871419683772
    vertex 0.01040712319958019 0.0455124663720104 0.01226625233604227
    vertex 0.01024723197730702 0.04248933740289235 0.02
  endloop
endfacet
facet normal 0.998604 -0.0528155 9.36962e-17
  outer loop
    vertex 0.008561807994326757 0.01062233435072312 0.02
    vertex 0.008401163310290893 0.007584959370788711 0.01228313931220539
    vertex 0.008800261912952412 0.01513088046694055 0.009534835071529702
  endloop
endfacet
facet normal 0.998604 -0.0528155 -1.81977e-17
  outer loop
    vertex 0.008800261912952412 0.01513088046694055 0.009534835071529702
    vertex 0.008317507388158599 0.006003242513284459 0.005695711671809713
    vertex 0.008561807994326756 0.01062233435072308 0
  endloop
endfacet
facet normal 0.998604 -0.0528155 1.52062e-16
  outer loop
    vertex 0.01024723197730702 0.0424893374028923 0
    vertex 0.01049144516908916 0.04710677646065398 0.005690420791400606
    vertex 0.01000867485946105 0.03797884005665682 0.009499871419683772
  endloop
endfacet
facet normal 0.998604 -0.0528155 -1.17359e-17
  outer loop
    vertex 0.008401163310290893 0.007584959370788711 0.01228313931220539
    vertex 0.008317507388158599 0.006003242513284459 0.005695711671809713
    vertex 0.008800261912952412 0.01513088046694055 0.009534835071529702
  endloop
endfacet
facet normal 0.998604 -0.0528155 -1.33266e-16
  outer loop
    vertex 0.01000867485946105 0.03797884005665682 0.009499871419683772
    vertex 0.01049144516908916 0.04710677646065398 0.005690420791400606
    vertex 0.01040712319958019 0.0455124663720104 0.01226625233604227
  endloop
endfacet
facet normal 0.998604 -0.0528155 1.7492e-16
  outer loop
    vertex 0.01080903997163378 0.05311167175361542 0
    vertex 0.01049144516908916 0.04710677646065398 0.005690420791400606
    vertex 0.01024723197730702 0.0424893374028923 0
  endloop
endfacet
facet normal 0.998604 -0.0528155 4.89321e-17
  outer loop
    vertex 0.008561807994326756 0.01062233435072308 0
    vertex 0.008317507388158599 0.006003242513284459 0.005695711671809713
    vertex 0.008 0 0
  endloop
endfacet
facet normal 0.998604 -0.0528155 0
  outer loop
    vertex 0.008 0 0
    vertex 0.008317507388158599 0.006003242513284459 0.005695711671809713
    vertex 0.008 0 0.01000000000000003
  endloop
endfacet
facet normal 0.998604 -0.0528155 0
  outer loop
    vertex 0.01080903997163378 0.05311167175361542 0.009999999999999972
    vertex 0.01049144516908916 0.04710677646065398 0.005690420791400606
    vertex 0.01080903997163378 0.05311167175361542 0
  endloop
endfacet
facet normal 0.998604 -0.0528155 -1.34565e-16
  outer loop
    vertex 0.01040712319958019 0.0455124663720104 0.01226625233604227
    vertex 0.01049144516908916 0.04710677646065398 0.005690420791400606
    vertex 0.01080903997163378 0.05311167175361542 0.009999999999999972
  endloop
endfacet
facet normal 0.998604 -0.0528155 -3.64952e-17
  outer loop
    vertex 0.008 0 0.01000000000000003
    vertex 0.008317507388158599 0.006003242513284459 0.005695711671809713
    vertex 0.008401163310290893 0.007584959370788711 0.01228313931220539
  endloop
endfacet
endsolid Created by Gmsh
