solid Created by Gmsh
facet normal 1 0 0
  outer loop
    vertex 0.04 0.059 0
    vertex 0.04 0.06 0
    vertex 0.04 0.06 0.009999999999999972
  endloop
endfacet
facet normal 1 0 0
  outer loop
    vertex 0.04 0.059 0.01000000000000003
    vertex 0.04 0.06 0.02
    vertex 0.04 0.059 0.02
  endloop
endfacet
facet normal 1 0 -0
  outer loop
    vertex 0.04 0.06 0.009999999999999972
    vertex 0.04 0.06 0.02
    vertex 0.04 0.059 0.01000000000000003
  endloop
endfacet
facet normal 1 0 0
  outer loop
    vertex 0.04 0.059 0
    vertex 0.04 0.06 0.009999999999999972
    vertex 0.04 0.059 0.01000000000000003
  endloop
endfacet
facet normal 0.775712 0.631087 0
  outer loop
    vertex 0.04 0.059 0.02
    vertex 0.043 0.0553125 0.015
    vertex 0.04 0.059 0.009999999999999972
  endloop
endfacet
facet normal 0.775712 0.631087 -0
  outer loop
    vertex 0.04599999999999999 0.051625 0
    vertex 0.043 0.0553125 0.005
    vertex 0.04599999999999999 0.051625 0.01000000000000003
  endloop
endfacet
facet normal 0.775712 0.631087 0
  outer loop
    vertex 0.04 0.059 0.009999999999999972
    vertex 0.043 0.0553125 0.005
    vertex 0.04 0.059 0
  endloop
endfacet
facet normal 0.775712 0.631087 -0
  outer loop
    vertex 0.04599999999999999 0.051625 0.01000000000000003
    vertex 0.043 0.0553125 0.015
    vertex 0.04599999999999999 0.051625 0.02
  endloop
endfacet
facet normal 0.775712 0.631087 9.26557e-16
  outer loop
    vertex 0.04599999999999999 0.051625 0.02
    vertex 0.043 0.0553125 0.015
    vertex 0.04 0.059 0.02
  endloop
endfacet
facet normal 0.775712 0.631087 -9.9783e-16
  outer loop
    vertex 0.04 0.059 0
    vertex 0.043 0.0553125 0.005
    vertex 0.04599999999999999 0.051625 0
  endloop
endfacet
facet normal 0.775712 0.631087 9.26557e-16
  outer loop
    vertex 0.04599999999999999 0.051625 0.01000000000000003
    vertex 0.043 0.0553125 0.005
    vertex 0.04 0.059 0.009999999999999972
  endloop
endfacet
facet normal 0.775712 0.631087 -9.9783e-16
  outer loop
    vertex 0.04 0.059 0.009999999999999972
    vertex 0.043 0.0553125 0.015
    vertex 0.04599999999999999 0.051625 0.01000000000000003
  endloop
endfacet
facet normal 0.263495 -0.964661 1.48413e-15
  outer loop
    vertex 0.03699999999999998 0.04916666666666666 0
    vertex 0.03249999999999999 0.04793750000000001 0.008074869034632393
    vertex 0.028 0.04670833333333333 0
  endloop
endfacet
facet normal 0.263495 -0.964661 0
  outer loop
    vertex 0.019 0.04425 0
    vertex 0.02546708221909436 0.04601647153206745 0.006902461443262625
    vertex 0.019 0.04425 0.01000000000000003
  endloop
endfacet
facet normal 0.263495 -0.964661 0
  outer loop
    vertex 0.04599999999999999 0.051625 0.009999999999999972
    vertex 0.0395329177809056 0.04985852846793256 0.006902461443262622
    vertex 0.04599999999999999 0.051625 0
  endloop
endfacet
facet normal 0.263495 -0.964661 1.73621e-15
  outer loop
    vertex 0.04599999999999999 0.051625 0
    vertex 0.0395329177809056 0.04985852846793256 0.006902461443262622
    vertex 0.03699999999999998 0.04916666666666666 0
  endloop
endfacet
facet normal 0.263495 -0.964661 1.49945e-15
  outer loop
    vertex 0.028 0.04670833333333333 0
    vertex 0.02546708221909436 0.04601647153206745 0.006902461443262625
    vertex 0.019 0.04425 0
  endloop
endfacet
facet normal 0.263495 -0.964661 -2.57756e-16
  outer loop
    vertex 0.03249999999999999 0.04793750000000001 0.008074869034632393
    vertex 0.03997485997638477 0.04997924416021622 0.01374642307179518
    vertex 0.0325 0.04793750000000001 0.01516827586429922
  endloop
endfacet
facet normal 0.263495 -0.964661 -2.57756e-16
  outer loop
    vertex 0.0325 0.04793750000000001 0.01516827586429922
    vertex 0.02502514002361524 0.04589575583978379 0.01374642307179518
    vertex 0.03249999999999999 0.04793750000000001 0.008074869034632393
  endloop
endfacet
facet normal 0.263495 -0.964661 0
  outer loop
    vertex 0.04599999999999999 0.051625 0.02
    vertex 0.03997485997638477 0.04997924416021622 0.01374642307179518
    vertex 0.04599999999999999 0.051625 0.009999999999999972
  endloop
endfacet
facet normal 0.263495 -0.964661 0
  outer loop
    vertex 0.019 0.04425 0.01000000000000003
    vertex 0.02502514002361524 0.04589575583978379 0.01374642307179518
    vertex 0.019 0.04425 0.02
  endloop
endfacet
facet normal 0.263495 -0.964661 2.0574e-16
  outer loop
    vertex 0.0395329177809056 0.04985852846793256 0.006902461443262622
    vertex 0.03997485997638477 0.04997924416021622 0.01374642307179518
    vertex 0.03249999999999999 0.04793750000000001 0.008074869034632393
  endloop
endfacet
facet normal 0.263495 -0.964661 -8.39753e-16
  outer loop
    vertex 0.03249999999999999 0.04793750000000001 0.008074869034632393
    vertex 0.02502514002361524 0.04589575583978379 0.01374642307179518
    vertex 0.02546708221909436 0.04601647153206745 0.006902461443262625
  endloop
endfacet
facet normal 0.263495 -0.964661 -1.61149e-15
  outer loop
    vertex 0.03699999999999998 0.04916666666666666 0.02
    vertex 0.03997485997638477 0.04997924416021622 0.01374642307179518
    vertex 0.04599999999999999 0.051625 0.02
  endloop
endfacet
facet normal 0.263495 -0.964661 -2.03251e-16
  outer loop
    vertex 0.019 0.04425 0.02
    vertex 0.02502514002361524 0.04589575583978379 0.01374642307179518
    vertex 0.02800000000000001 0.04670833333333334 0.02
  endloop
endfacet
facet normal 0.263495 -0.964661 1.491e-15
  outer loop
    vertex 0.03249999999999999 0.04793750000000001 0.008074869034632393
    vertex 0.02546708221909436 0.04601647153206745 0.006902461443262625
    vertex 0.028 0.04670833333333333 0
  endloop
endfacet
facet normal 0.263495 -0.964661 1.77651e-15
  outer loop
    vertex 0.03699999999999998 0.04916666666666666 0
    vertex 0.0395329177809056 0.04985852846793256 0.006902461443262622
    vertex 0.03249999999999999 0.04793750000000001 0.008074869034632393
  endloop
endfacet
facet normal 0.263495 -0.964661 -1.12741e-15
  outer loop
    vertex 0.02800000000000001 0.04670833333333334 0.02
    vertex 0.0325 0.04793750000000001 0.01516827586429922
    vertex 0.03699999999999998 0.04916666666666666 0.02
  endloop
endfacet
facet normal 0.263495 -0.964661 -1.46066e-15
  outer loop
    vertex 0.0325 0.04793750000000001 0.01516827586429922
    vertex 0.03997485997638477 0.04997924416021622 0.01374642307179518
    vertex 0.03699999999999998 0.04916666666666666 0.02
  endloop
endfacet
facet normal 0.263495 -0.964661 -3.26726e-16
  outer loop
    vertex 0.02800000000000001 0.04670833333333334 0.02
    vertex 0.02502514002361524 0.04589575583978379 0.01374642307179518
    vertex 0.0325 0.04793750000000001 0.01516827586429922
  endloop
endfacet
facet normal 0.263495 -0.964661 -7.66777e-16
  outer loop
    vertex 0.02546708221909436 0.04601647153206745 0.006902461443262625
    vertex 0.02502514002361524 0.04589575583978379 0.01374642307179518
    vertex 0.019 0.04425 0.01000000000000003
  endloop
endfacet
facet normal 0.263495 -0.964661 3.04806e-16
  outer loop
    vertex 0.04599999999999999 0.051625 0.009999999999999972
    vertex 0.03997485997638477 0.04997924416021622 0.01374642307179518
    vertex 0.0395329177809056 0.04985852846793256 0.006902461443262622
  endloop
endfacet
facet normal 0.263495 0.964661 1.0119e-15
  outer loop
    vertex 0.03699999999999998 0.03933333333333334 0.02
    vertex 0.03249999999999999 0.04056250000000001 0.01192513096536761
    vertex 0.028 0.04179166666666666 0.02
  endloop
endfacet
facet normal 0.263495 0.964661 0
  outer loop
    vertex 0.019 0.04425 0.02
    vertex 0.02546708221909436 0.04248352846793257 0.01309753855673737
    vertex 0.019 0.04425 0.009999999999999972
  endloop
endfacet
facet normal 0.263495 0.964661 -0
  outer loop
    vertex 0.04599999999999999 0.036875 0.01000000000000003
    vertex 0.03953291778090561 0.03864147153206746 0.01309753855673738
    vertex 0.04599999999999999 0.036875 0.02
  endloop
endfacet
facet normal 0.263495 0.964661 1.42054e-15
  outer loop
    vertex 0.04599999999999999 0.036875 0.02
    vertex 0.03953291778090561 0.03864147153206746 0.01309753855673738
    vertex 0.03699999999999998 0.03933333333333334 0.02
  endloop
endfacet
facet normal 0.263495 0.964661 1.55207e-15
  outer loop
    vertex 0.028 0.04179166666666666 0.02
    vertex 0.02546708221909436 0.04248352846793257 0.01309753855673737
    vertex 0.019 0.04425 0.02
  endloop
endfacet
facet normal 0.263495 0.964661 2.57756e-16
  outer loop
    vertex 0.03249999999999999 0.04056250000000001 0.01192513096536761
    vertex 0.03997485997638477 0.03852075583978379 0.006253576928204824
    vertex 0.0325 0.04056250000000001 0.004831724135700776
  endloop
endfacet
facet normal 0.263495 0.964661 2.57756e-16
  outer loop
    vertex 0.0325 0.04056250000000001 0.004831724135700776
    vertex 0.02502514002361524 0.04260424416021621 0.006253576928204818
    vertex 0.03249999999999999 0.04056250000000001 0.01192513096536761
  endloop
endfacet
facet normal 0.263495 0.964661 -0
  outer loop
    vertex 0.04599999999999999 0.036875 0
    vertex 0.03997485997638477 0.03852075583978379 0.006253576928204824
    vertex 0.04599999999999999 0.036875 0.01000000000000003
  endloop
endfacet
facet normal 0.263495 0.964661 0
  outer loop
    vertex 0.019 0.04425 0.009999999999999972
    vertex 0.02502514002361524 0.04260424416021621 0.006253576928204818
    vertex 0.019 0.04425 0
  endloop
endfacet
facet normal 0.263495 0.964661 -4.87057e-16
  outer loop
    vertex 0.03953291778090561 0.03864147153206746 0.01309753855673738
    vertex 0.03997485997638477 0.03852075583978379 0.006253576928204824
    vertex 0.03249999999999999 0.04056250000000001 0.01192513096536761
  endloop
endfacet
facet normal 0.263495 0.964661 -2.68721e-16
  outer loop
    vertex 0.03249999999999999 0.04056250000000001 0.01192513096536761
    vertex 0.02502514002361524 0.04260424416021621 0.006253576928204818
    vertex 0.02546708221909436 0.04248352846793257 0.01309753855673737
  endloop
endfacet
facet normal 0.263495 0.964661 -1.59697e-15
  outer loop
    vertex 0.03699999999999998 0.03933333333333333 0
    vertex 0.03997485997638477 0.03852075583978379 0.006253576928204824
    vertex 0.04599999999999999 0.036875 0
  endloop
endfacet
facet normal 0.263495 0.964661 -1.9454e-15
  outer loop
    vertex 0.019 0.04425 0
    vertex 0.02502514002361524 0.04260424416021621 0.006253576928204818
    vertex 0.02800000000000001 0.04179166666666666 0
  endloop
endfacet
facet normal 0.263495 0.964661 1.12618e-15
  outer loop
    vertex 0.03699999999999998 0.03933333333333334 0.02
    vertex 0.03953291778090561 0.03864147153206746 0.01309753855673738
    vertex 0.03249999999999999 0.04056250000000001 0.01192513096536761
  endloop
endfacet
facet normal 0.263495 0.964661 1.33238e-15
  outer loop
    vertex 0.03249999999999999 0.04056250000000001 0.01192513096536761
    vertex 0.02546708221909436 0.04248352846793257 0.01309753855673737
    vertex 0.028 0.04179166666666666 0.02
  endloop
endfacet
facet normal 0.263495 0.964661 -3.044e-15
  outer loop
    vertex 0.02800000000000001 0.04179166666666666 0
    vertex 0.0325 0.04056250000000001 0.004831724135700776
    vertex 0.03699999999999998 0.03933333333333333 0
  endloop
endfacet
facet normal 0.263495 0.964661 -2.07567e-15
  outer loop
    vertex 0.0325 0.04056250000000001 0.004831724135700776
    vertex 0.03997485997638477 0.03852075583978379 0.006253576928204824
    vertex 0.03699999999999998 0.03933333333333333 0
  endloop
endfacet
facet normal 0.263495 0.964661 -2.49849e-15
  outer loop
    vertex 0.02800000000000001 0.04179166666666666 0
    vertex 0.02502514002361524 0.04260424416021621 0.006253576928204818
    vertex 0.0325 0.04056250000000001 0.004831724135700776
  endloop
endfacet
facet normal 0.263495 0.964661 -3.81007e-16
  outer loop
    vertex 0.04599999999999999 0.036875 0.01000000000000003
    vertex 0.03997485997638477 0.03852075583978379 0.006253576928204824
    vertex 0.03953291778090561 0.03864147153206746 0.01309753855673738
  endloop
endfacet
facet normal 0.263495 0.964661 -1.64309e-16
  outer loop
    vertex 0.02546708221909436 0.04248352846793257 0.01309753855673737
    vertex 0.02502514002361524 0.04260424416021621 0.006253576928204818
    vertex 0.019 0.04425 0.009999999999999972
  endloop
endfacet
facet normal 1 -2.08914e-29 -2.77556e-15
  outer loop
    vertex 0.04599999999999999 0.036875 0.009999999999999972
    vertex 0.046 0.03318749999999999 0.01500000000000001
    vertex 0.04599999999999999 0.0295 0.01000000000000003
  endloop
endfacet
facet normal 1 2.08914e-29 2.77556e-15
  outer loop
    vertex 0.04599999999999999 0.0295 0.01000000000000003
    vertex 0.046 0.0331875 0.004999999999999997
    vertex 0.04599999999999999 0.036875 0.009999999999999972
  endloop
endfacet
facet normal 1 -0 2.77556e-15
  outer loop
    vertex 0.04599999999999999 0.0295 0.02
    vertex 0.046 0.03318749999999999 0.01500000000000001
    vertex 0.04599999999999999 0.036875 0.02
  endloop
endfacet
facet normal 1 0 -2.77556e-15
  outer loop
    vertex 0.04599999999999999 0.036875 0
    vertex 0.046 0.0331875 0.004999999999999997
    vertex 0.04599999999999999 0.0295 0
  endloop
endfacet
facet normal 1 3.76347e-15 0
  outer loop
    vertex 0.04599999999999999 0.036875 0.009999999999999972
    vertex 0.046 0.0331875 0.004999999999999997
    vertex 0.04599999999999999 0.036875 0
  endloop
endfacet
facet normal 1 3.76347e-15 0
  outer loop
    vertex 0.04599999999999999 0.036875 0.02
    vertex 0.046 0.03318749999999999 0.01500000000000001
    vertex 0.04599999999999999 0.036875 0.009999999999999972
  endloop
endfacet
facet normal 1 -3.76347e-15 0
  outer loop
    vertex 0.04599999999999999 0.0295 0
    vertex 0.046 0.0331875 0.004999999999999997
    vertex 0.04599999999999999 0.0295 0.01000000000000003
  endloop
endfacet
facet normal 1 -3.76347e-15 0
  outer loop
    vertex 0.04599999999999999 0.0295 0.01000000000000003
    vertex 0.046 0.03318749999999999 0.01500000000000001
    vertex 0.04599999999999999 0.0295 0.02
  endloop
endfacet
facet normal 1 -2.08914e-29 -2.77556e-15
  outer loop
    vertex 0.04599999999999999 0.0295 0.009999999999999972
    vertex 0.046 0.0258125 0.015
    vertex 0.04599999999999999 0.022125 0.01000000000000003
  endloop
endfacet
facet normal 1 2.08914e-29 2.77556e-15
  outer loop
    vertex 0.04599999999999999 0.022125 0.01000000000000003
    vertex 0.046 0.0258125 0.005000000000000001
    vertex 0.04599999999999999 0.0295 0.009999999999999972
  endloop
endfacet
facet normal 1 -0 2.77556e-15
  outer loop
    vertex 0.04599999999999999 0.022125 0.02
    vertex 0.046 0.0258125 0.015
    vertex 0.04599999999999999 0.0295 0.02
  endloop
endfacet
facet normal 1 0 -2.77556e-15
  outer loop
    vertex 0.04599999999999999 0.0295 0
    vertex 0.046 0.0258125 0.005000000000000001
    vertex 0.04599999999999999 0.022125 0
  endloop
endfacet
facet normal 1 3.76347e-15 0
  outer loop
    vertex 0.04599999999999999 0.0295 0.009999999999999972
    vertex 0.046 0.0258125 0.005000000000000001
    vertex 0.04599999999999999 0.0295 0
  endloop
endfacet
facet normal 1 3.76347e-15 0
  outer loop
    vertex 0.04599999999999999 0.0295 0.02
    vertex 0.046 0.0258125 0.015
    vertex 0.04599999999999999 0.0295 0.009999999999999972
  endloop
endfacet
facet normal 1 -3.76347e-15 0
  outer loop
    vertex 0.04599999999999999 0.022125 0
    vertex 0.046 0.0258125 0.005000000000000001
    vertex 0.04599999999999999 0.022125 0.01000000000000003
  endloop
endfacet
facet normal 1 -3.76347e-15 0
  outer loop
    vertex 0.04599999999999999 0.022125 0.01000000000000003
    vertex 0.046 0.0258125 0.015
    vertex 0.04599999999999999 0.022125 0.02
  endloop
endfacet
facet normal 1 -2.08914e-29 -2.77556e-15
  outer loop
    vertex 0.04599999999999999 0.022125 0.009999999999999972
    vertex 0.046 0.0184375 0.015
    vertex 0.04599999999999999 0.01475 0.01000000000000003
  endloop
endfacet
facet normal 1 2.08914e-29 2.77556e-15
  outer loop
    vertex 0.04599999999999999 0.01475 0.01000000000000003
    vertex 0.046 0.0184375 0.005000000000000001
    vertex 0.04599999999999999 0.022125 0.009999999999999972
  endloop
endfacet
facet normal 1 -0 2.77556e-15
  outer loop
    vertex 0.04599999999999999 0.01475 0.02
    vertex 0.046 0.0184375 0.015
    vertex 0.04599999999999999 0.022125 0.02
  endloop
endfacet
facet normal 1 0 -2.77556e-15
  outer loop
    vertex 0.04599999999999999 0.022125 0
    vertex 0.046 0.0184375 0.005000000000000001
    vertex 0.04599999999999999 0.01475 0
  endloop
endfacet
facet normal 1 3.76347e-15 0
  outer loop
    vertex 0.04599999999999999 0.022125 0.009999999999999972
    vertex 0.046 0.0184375 0.005000000000000001
    vertex 0.04599999999999999 0.022125 0
  endloop
endfacet
facet normal 1 3.76347e-15 0
  outer loop
    vertex 0.04599999999999999 0.022125 0.02
    vertex 0.046 0.0184375 0.015
    vertex 0.04599999999999999 0.022125 0.009999999999999972
  endloop
endfacet
facet normal 1 -3.76347e-15 0
  outer loop
    vertex 0.04599999999999999 0.01475 0
    vertex 0.046 0.0184375 0.005000000000000001
    vertex 0.04599999999999999 0.01475 0.01000000000000003
  endloop
endfacet
facet normal 1 -3.76347e-15 0
  outer loop
    vertex 0.04599999999999999 0.01475 0.01000000000000003
    vertex 0.046 0.0184375 0.015
    vertex 0.04599999999999999 0.01475 0.02
  endloop
endfacet
facet normal 0.263495 -0.964661 4.49735e-17
  outer loop
    vertex 0.02800000000000001 0.009833333333333336 0.02
    vertex 0.03249999999999999 0.0110625 0.01192513096536761
    vertex 0.03699999999999998 0.01229166666666666 0.02
  endloop
endfacet
facet normal 0.263495 -0.964661 0
  outer loop
    vertex 0.04599999999999999 0.01475 0.02
    vertex 0.03953291778090563 0.01298352846793256 0.01309753855673737
    vertex 0.04599999999999999 0.01475 0.009999999999999972
  endloop
endfacet
facet normal 0.263495 -0.964661 0
  outer loop
    vertex 0.019 0.007375 0.01000000000000003
    vertex 0.02546708221909437 0.009141471532067446 0.01309753855673738
    vertex 0.019 0.007375 0.02
  endloop
endfacet
facet normal 0.263495 -0.964661 -5.26124e-17
  outer loop
    vertex 0.019 0.007375 0.02
    vertex 0.02546708221909437 0.009141471532067446 0.01309753855673738
    vertex 0.02800000000000001 0.009833333333333336 0.02
  endloop
endfacet
facet normal 0.263495 -0.964661 1.05225e-16
  outer loop
    vertex 0.03699999999999998 0.01229166666666666 0.02
    vertex 0.03953291778090563 0.01298352846793256 0.01309753855673737
    vertex 0.04599999999999999 0.01475 0.02
  endloop
endfacet
facet normal 0.263495 -0.964661 -2.18437e-17
  outer loop
    vertex 0.03249999999999999 0.0110625 0.01192513096536761
    vertex 0.02502514002361522 0.009020755839783786 0.006253576928204824
    vertex 0.03249999999999999 0.0110625 0.004831724135700776
  endloop
endfacet
facet normal 0.263495 -0.964661 -2.18437e-17
  outer loop
    vertex 0.03249999999999999 0.0110625 0.004831724135700776
    vertex 0.03997485997638475 0.01310424416021621 0.00625357692820482
    vertex 0.03249999999999999 0.0110625 0.01192513096536761
  endloop
endfacet
facet normal 0.263495 -0.964661 0
  outer loop
    vertex 0.019 0.007375 0
    vertex 0.02502514002361522 0.009020755839783786 0.006253576928204824
    vertex 0.019 0.007375 0.01000000000000003
  endloop
endfacet
facet normal 0.263495 -0.964661 0
  outer loop
    vertex 0.04599999999999999 0.01475 0.009999999999999972
    vertex 0.03997485997638475 0.01310424416021621 0.00625357692820482
    vertex 0.04599999999999999 0.01475 0
  endloop
endfacet
facet normal 0.263495 -0.964661 3.71591e-16
  outer loop
    vertex 0.02546708221909437 0.009141471532067446 0.01309753855673738
    vertex 0.02502514002361522 0.009020755839783786 0.006253576928204824
    vertex 0.03249999999999999 0.0110625 0.01192513096536761
  endloop
endfacet
facet normal 0.263495 -0.964661 -1.0077e-16
  outer loop
    vertex 0.03249999999999999 0.0110625 0.01192513096536761
    vertex 0.03997485997638475 0.01310424416021621 0.00625357692820482
    vertex 0.03953291778090563 0.01298352846793256 0.01309753855673737
  endloop
endfacet
facet normal 0.263495 -0.964661 -2.90358e-17
  outer loop
    vertex 0.04599999999999999 0.01475 0
    vertex 0.03997485997638475 0.01310424416021621 0.00625357692820482
    vertex 0.03699999999999998 0.01229166666666666 0
  endloop
endfacet
facet normal 0.263495 -0.964661 -3.33912e-16
  outer loop
    vertex 0.028 0.009833333333333335 0
    vertex 0.02502514002361522 0.009020755839783786 0.006253576928204824
    vertex 0.019 0.007375 0
  endloop
endfacet
facet normal 0.263495 -0.964661 -2.37925e-17
  outer loop
    vertex 0.02800000000000001 0.009833333333333336 0.02
    vertex 0.02546708221909437 0.009141471532067446 0.01309753855673738
    vertex 0.03249999999999999 0.0110625 0.01192513096536761
  endloop
endfacet
facet normal 0.263495 -0.964661 9.51701e-17
  outer loop
    vertex 0.03249999999999999 0.0110625 0.01192513096536761
    vertex 0.03953291778090563 0.01298352846793256 0.01309753855673737
    vertex 0.03699999999999998 0.01229166666666666 0.02
  endloop
endfacet
facet normal 0.263495 -0.964661 -7.51606e-17
  outer loop
    vertex 0.03699999999999998 0.01229166666666666 0
    vertex 0.03249999999999999 0.0110625 0.004831724135700776
    vertex 0.028 0.009833333333333335 0
  endloop
endfacet
facet normal 0.263495 -0.964661 -2.3063e-16
  outer loop
    vertex 0.03249999999999999 0.0110625 0.004831724135700776
    vertex 0.02502514002361522 0.009020755839783786 0.006253576928204824
    vertex 0.028 0.009833333333333335 0
  endloop
endfacet
facet normal 0.263495 -0.964661 -3.84384e-17
  outer loop
    vertex 0.03699999999999998 0.01229166666666666 0
    vertex 0.03997485997638475 0.01310424416021621 0.00625357692820482
    vertex 0.03249999999999999 0.0110625 0.004831724135700776
  endloop
endfacet
facet normal 0.263495 -0.964661 3.81007e-16
  outer loop
    vertex 0.019 0.007375 0.01000000000000003
    vertex 0.02502514002361522 0.009020755839783786 0.006253576928204824
    vertex 0.02546708221909437 0.009141471532067446 0.01309753855673738
  endloop
endfacet
facet normal 0.263495 -0.964661 -9.52518e-17
  outer loop
    vertex 0.03953291778090563 0.01298352846793256 0.01309753855673737
    vertex 0.03997485997638475 0.01310424416021621 0.00625357692820482
    vertex 0.04599999999999999 0.01475 0.009999999999999972
  endloop
endfacet
endsolid Created by Gmsh
