solid Created by Gmsh
facet normal 0.995548 0.0942577 4.37049e-17
  outer loop
    vertex 0.005912470999597733 0.02204844712368652 0
    vertex 0.006545626708424735 0.01536106689354729 0.010501119241488
    vertex 0.006956235499798867 0.01102422356184325 0
  endloop
endfacet
facet normal 0.995548 0.0942577 -2.2084e-17
  outer loop
    vertex 0.004868706499396606 0.03307267068552971 0.02
    vertex 0.004235166525404673 0.03976410951804946 0.009608975699290877
    vertex 0.003824941999195472 0.04409689424737298 0.02
  endloop
endfacet
facet normal 0.995548 0.0942577 7.08981e-17
  outer loop
    vertex 0.005912470999597733 0.02204844712368652 0
    vertex 0.005390524705303014 0.0275612353383382 0.01001834915679648
    vertex 0.006545626708424735 0.01536106689354729 0.010501119241488
  endloop
endfacet
facet normal 0.995548 0.0942577 8.39868e-17
  outer loop
    vertex 0.004868706499396601 0.03307267068552977 0
    vertex 0.005390524705303014 0.0275612353383382 0.01001834915679648
    vertex 0.005912470999597733 0.02204844712368652 0
  endloop
endfacet
facet normal 0.995548 0.0942577 -5.43772e-17
  outer loop
    vertex 0.004868706499396606 0.03307267068552971 0.02
    vertex 0.005390524705303014 0.0275612353383382 0.01001834915679648
    vertex 0.004235166525404673 0.03976410951804946 0.009608975699290877
  endloop
endfacet
facet normal 0.995548 0.0942577 7.02739e-17
  outer loop
    vertex 0.004235166525404673 0.03976410951804946 0.009608975699290877
    vertex 0.005390524705303014 0.0275612353383382 0.01001834915679648
    vertex 0.004868706499396601 0.03307267068552977 0
  endloop
endfacet
facet normal 0.995548 0.0942577 0
  outer loop
    vertex 0.002781177498994339 0.05512111780921623 0.02
    vertex 0.003474867916775992 0.04779437097421682 0.01241030246840604
    vertex 0.002781177498994339 0.05512111780921623 0.009999999999999972
  endloop
endfacet
facet normal 0.995548 0.0942577 -0
  outer loop
    vertex 0.008 0 0
    vertex 0.007306270371487231 0.007327160978099462 0.007600931709224454
    vertex 0.008 0 0.01000000000000003
  endloop
endfacet
facet normal 0.995548 0.0942577 -1.00784e-16
  outer loop
    vertex 0.003824941999195472 0.04409689424737298 0.02
    vertex 0.003474867916775992 0.04779437097421682 0.01241030246840604
    vertex 0.002781177498994339 0.05512111780921623 0.02
  endloop
endfacet
facet normal 0.995548 0.0942577 1.10698e-16
  outer loop
    vertex 0.006956235499798867 0.01102422356184325 0
    vertex 0.007306270371487231 0.007327160978099462 0.007600931709224454
    vertex 0.008 0 0
  endloop
endfacet
facet normal 0.995548 0.0942577 -6.89691e-17
  outer loop
    vertex 0.005912470999597738 0.02204844712368646 0.02
    vertex 0.005390524705303014 0.0275612353383382 0.01001834915679648
    vertex 0.004868706499396606 0.03307267068552971 0.02
  endloop
endfacet
facet normal 0.995548 0.0942577 -2.83172e-17
  outer loop
    vertex 0.006545626708424735 0.01536106689354729 0.010501119241488
    vertex 0.005390524705303014 0.0275612353383382 0.01001834915679648
    vertex 0.005912470999597738 0.02204844712368646 0.02
  endloop
endfacet
facet normal 0.995548 0.0942577 -2.41581e-17
  outer loop
    vertex 0.006956235499798867 0.01102422356184325 0.02
    vertex 0.006545626708424735 0.01536106689354729 0.010501119241488
    vertex 0.005912470999597738 0.02204844712368646 0.02
  endloop
endfacet
facet normal 0.995548 0.0942577 2.38813e-17
  outer loop
    vertex 0.003824941999195472 0.04409689424737298 0
    vertex 0.004235166525404673 0.03976410951804946 0.009608975699290877
    vertex 0.004868706499396601 0.03307267068552977 0
  endloop
endfacet
facet normal 0.995548 0.0942577 8.12077e-17
  outer loop
    vertex 0.003824941999195472 0.04409689424737298 0
    vertex 0.003344031893479091 0.04917625891013495 0.005511609195896266
    vertex 0.004235166525404673 0.03976410951804946 0.009608975699290877
  endloop
endfacet
facet normal 0.995548 0.0942577 -5.84707e-17
  outer loop
    vertex 0.006956235499798867 0.01102422356184325 0.02
    vertex 0.007437114739925156 0.005945184900938462 0.0144972340343085
    vertex 0.006545626708424735 0.01536106689354729 0.010501119241488
  endloop
endfacet
facet normal 0.995548 0.0942577 -1.42276e-17
  outer loop
    vertex 0.004235166525404673 0.03976410951804946 0.009608975699290877
    vertex 0.003344031893479091 0.04917625891013495 0.005511609195896266
    vertex 0.003474867916775992 0.04779437097421682 0.01241030246840604
  endloop
endfacet
facet normal 0.995548 0.0942577 1.41934e-17
  outer loop
    vertex 0.006545626708424735 0.01536106689354729 0.010501119241488
    vertex 0.007437114739925156 0.005945184900938462 0.0144972340343085
    vertex 0.007306270371487231 0.007327160978099462 0.007600931709224454
  endloop
endfacet
facet normal 0.995548 0.0942577 -6.50436e-17
  outer loop
    vertex 0.004235166525404673 0.03976410951804946 0.009608975699290877
    vertex 0.003474867916775992 0.04779437097421682 0.01241030246840604
    vertex 0.003824941999195472 0.04409689424737298 0.02
  endloop
endfacet
facet normal 0.995548 0.0942577 6.46067e-17
  outer loop
    vertex 0.006545626708424735 0.01536106689354729 0.010501119241488
    vertex 0.007306270371487231 0.007327160978099462 0.007600931709224454
    vertex 0.006956235499798867 0.01102422356184325 0
  endloop
endfacet
facet normal 0.995548 0.0942577 1.80418e-16
  outer loop
    vertex 0.002781177498994339 0.05512111780921623 0
    vertex 0.003344031893479091 0.04917625891013495 0.005511609195896266
    vertex 0.003824941999195472 0.04409689424737298 0
  endloop
endfacet
facet normal 0.995548 0.0942577 -1.66807e-16
  outer loop
    vertex 0.008 0 0.02
    vertex 0.007437114739925156 0.005945184900938462 0.0144972340343085
    vertex 0.006956235499798867 0.01102422356184325 0.02
  endloop
endfacet
facet normal 0.995548 0.0942577 0
  outer loop
    vertex 0.002781177498994339 0.05512111780921623 0.009999999999999972
    vertex 0.003344031893479091 0.04917625891013495 0.005511609195896266
    vertex 0.002781177498994339 0.05512111780921623 0
  endloop
endfacet
facet normal 0.995548 0.0942577 -0
  outer loop
    vertex 0.008 0 0.01000000000000003
    vertex 0.007437114739925156 0.005945184900938462 0.0144972340343085
    vertex 0.008 0 0.02
  endloop
endfacet
facet normal 0.995548 0.0942577 -5.3581e-17
  outer loop
    vertex 0.003474867916775992 0.04779437097421682 0.01241030246840604
    vertex 0.003344031893479091 0.04917625891013495 0.005511609195896266
    vertex 0.002781177498994339 0.05512111780921623 0.009999999999999972
  endloop
endfacet
facet normal 0.995548 0.0942577 5.35803e-17
  outer loop
    vertex 0.007306270371487231 0.007327160978099462 0.007600931709224454
    vertex 0.007437114739925156 0.005945184900938462 0.0144972340343085
    vertex 0.008 0 0.01000000000000003
  endloop
endfacet
endsolid Created by Gmsh
