solid Created by Gmsh
facet normal 1 0 0
  outer loop
    vertex 0.04 0.06 0
    vertex 0.04 0.05746624932418784 0.005
    vertex 0.04 0.05493249864837568 0
  endloop
endfacet
facet normal 1 0 0
  outer loop
    vertex 0.04 0.06 0.009999999999999972
    vertex 0.04 0.05746624932418784 0.015
    vertex 0.04 0.05493249864837568 0.01000000000000003
  endloop
endfacet
facet normal 1 -0 0
  outer loop
    vertex 0.04 0.05493249864837568 0.02
    vertex 0.04 0.05746624932418784 0.015
    vertex 0.04 0.06 0.02
  endloop
endfacet
facet normal 1 0 0
  outer loop
    vertex 0.04 0.05493249864837568 0.01000000000000003
    vertex 0.04 0.05746624932418784 0.005
    vertex 0.04 0.06 0.009999999999999972
  endloop
endfacet
facet normal 1 0 0
  outer loop
    vertex 0.04 0.06 0.009999999999999972
    vertex 0.04 0.05746624932418784 0.005
    vertex 0.04 0.06 0
  endloop
endfacet
facet normal 1 0 0
  outer loop
    vertex 0.04 0.06 0.02
    vertex 0.04 0.05746624932418784 0.015
    vertex 0.04 0.06 0.009999999999999972
  endloop
endfacet
facet normal 1 0 0
  outer loop
    vertex 0.04 0.05493249864837568 0
    vertex 0.04 0.05746624932418784 0.005
    vertex 0.04 0.05493249864837568 0.01000000000000003
  endloop
endfacet
facet normal 1 0 0
  outer loop
    vertex 0.04 0.05493249864837568 0.01000000000000003
    vertex 0.04 0.05746624932418784 0.015
    vertex 0.04 0.05493249864837568 0.02
  endloop
endfacet
facet normal 0.924654 -0.380807 0
  outer loop
    vertex 0.03717209321875196 0.04806593631732872 0
    vertex 0.03858604660937599 0.0514992174828522 0.005000000000000001
    vertex 0.03717209321875196 0.04806593631732872 0.01000000000000003
  endloop
endfacet
facet normal 0.924654 -0.380807 0
  outer loop
    vertex 0.04 0.05493249864837568 0.02
    vertex 0.03858604660937599 0.0514992174828522 0.015
    vertex 0.04 0.05493249864837568 0.009999999999999972
  endloop
endfacet
facet normal 0.924654 -0.380807 0
  outer loop
    vertex 0.03717209321875196 0.04806593631732872 0.01000000000000003
    vertex 0.03858604660937599 0.0514992174828522 0.015
    vertex 0.03717209321875196 0.04806593631732872 0.02
  endloop
endfacet
facet normal 0.924654 -0.380807 0
  outer loop
    vertex 0.04 0.05493249864837568 0.009999999999999972
    vertex 0.03858604660937599 0.0514992174828522 0.005000000000000001
    vertex 0.04 0.05493249864837568 0
  endloop
endfacet
facet normal 0.924654 -0.380807 -6.38746e-16
  outer loop
    vertex 0.04 0.05493249864837568 0
    vertex 0.03858604660937599 0.0514992174828522 0.005000000000000001
    vertex 0.03717209321875196 0.04806593631732872 0
  endloop
endfacet
facet normal 0.924654 -0.380807 -6.38746e-16
  outer loop
    vertex 0.04 0.05493249864837568 0.009999999999999972
    vertex 0.03858604660937599 0.0514992174828522 0.015
    vertex 0.03717209321875196 0.04806593631732872 0.01000000000000003
  endloop
endfacet
facet normal 0.924654 -0.380807 6.38746e-16
  outer loop
    vertex 0.03717209321875196 0.04806593631732872 0.01000000000000003
    vertex 0.03858604660937599 0.0514992174828522 0.005000000000000001
    vertex 0.04 0.05493249864837568 0.009999999999999972
  endloop
endfacet
facet normal 0.924654 -0.380807 6.38746e-16
  outer loop
    vertex 0.03717209321875196 0.04806593631732872 0.02
    vertex 0.03858604660937599 0.0514992174828522 0.015
    vertex 0.04 0.05493249864837568 0.02
  endloop
endfacet
facet normal 0.913346 -0.407183 0
  outer loop
    vertex 0.03717209321875196 0.04806593631732872 0.02
    vertex 0.03564148571645272 0.04463265515180524 0.015
    vertex 0.03717209321875196 0.04806593631732872 0.009999999999999972
  endloop
endfacet
facet normal 0.913346 -0.407183 0
  outer loop
    vertex 0.03411087821415347 0.04119937398628176 0
    vertex 0.03564148571645272 0.04463265515180524 0.005
    vertex 0.03411087821415347 0.04119937398628176 0.01000000000000003
  endloop
endfacet
facet normal 0.913346 -0.407183 0
  outer loop
    vertex 0.03717209321875196 0.04806593631732872 0.009999999999999972
    vertex 0.03564148571645272 0.04463265515180524 0.005
    vertex 0.03717209321875196 0.04806593631732872 0
  endloop
endfacet
facet normal 0.913346 -0.407183 0
  outer loop
    vertex 0.03411087821415347 0.04119937398628176 0.01000000000000003
    vertex 0.03564148571645272 0.04463265515180524 0.015
    vertex 0.03411087821415347 0.04119937398628176 0.02
  endloop
endfacet
facet normal 0.913346 -0.407183 0
  outer loop
    vertex 0.03411087821415347 0.04119937398628176 0.01000000000000003
    vertex 0.03564148571645272 0.04463265515180524 0.005
    vertex 0.03717209321875196 0.04806593631732872 0.009999999999999972
  endloop
endfacet
facet normal 0.913346 -0.407183 0
  outer loop
    vertex 0.03717209321875196 0.04806593631732872 0.009999999999999972
    vertex 0.03564148571645272 0.04463265515180524 0.015
    vertex 0.03411087821415347 0.04119937398628176 0.01000000000000003
  endloop
endfacet
facet normal 0.913346 -0.407183 0
  outer loop
    vertex 0.03717209321875196 0.04806593631732872 0
    vertex 0.03564148571645272 0.04463265515180524 0.005
    vertex 0.03411087821415347 0.04119937398628176 0
  endloop
endfacet
facet normal 0.913346 -0.407183 0
  outer loop
    vertex 0.03411087821415347 0.04119937398628176 0.02
    vertex 0.03564148571645272 0.04463265515180524 0.015
    vertex 0.03717209321875196 0.04806593631732872 0.02
  endloop
endfacet
facet normal 0.969266 -0.246016 1.36304e-15
  outer loop
    vertex 0.03411087821415347 0.04119937398628176 0
    vertex 0.03323945341750834 0.03776609282075828 0.005
    vertex 0.03236802862086322 0.0343328116552348 0
  endloop
endfacet
facet normal 0.969266 -0.246016 -1.33913e-15
  outer loop
    vertex 0.03236802862086322 0.0343328116552348 0.02
    vertex 0.03323945341750834 0.03776609282075828 0.015
    vertex 0.03411087821415347 0.04119937398628176 0.02
  endloop
endfacet
facet normal 0.969266 -0.246016 1.36304e-15
  outer loop
    vertex 0.03411087821415347 0.04119937398628176 0.009999999999999972
    vertex 0.03323945341750834 0.03776609282075828 0.015
    vertex 0.03236802862086322 0.0343328116552348 0.01000000000000003
  endloop
endfacet
facet normal 0.969266 -0.246016 -1.33913e-15
  outer loop
    vertex 0.03236802862086322 0.0343328116552348 0.01000000000000003
    vertex 0.03323945341750834 0.03776609282075828 0.005
    vertex 0.03411087821415347 0.04119937398628176 0.009999999999999972
  endloop
endfacet
facet normal 0.969266 -0.246016 0
  outer loop
    vertex 0.03411087821415347 0.04119937398628176 0.009999999999999972
    vertex 0.03323945341750834 0.03776609282075828 0.005
    vertex 0.03411087821415347 0.04119937398628176 0
  endloop
endfacet
facet normal 0.969266 -0.246016 0
  outer loop
    vertex 0.03411087821415347 0.04119937398628176 0.02
    vertex 0.03323945341750834 0.03776609282075828 0.015
    vertex 0.03411087821415347 0.04119937398628176 0.009999999999999972
  endloop
endfacet
facet normal 0.969266 -0.246016 0
  outer loop
    vertex 0.03236802862086322 0.0343328116552348 0
    vertex 0.03323945341750834 0.03776609282075828 0.005
    vertex 0.03236802862086322 0.0343328116552348 0.01000000000000003
  endloop
endfacet
facet normal 0.969266 -0.246016 0
  outer loop
    vertex 0.03236802862086322 0.0343328116552348 0.01000000000000003
    vertex 0.03323945341750834 0.03776609282075828 0.015
    vertex 0.03236802862086322 0.0343328116552348 0.02
  endloop
endfacet
facet normal 0.75874 0.651393 -0
  outer loop
    vertex 0.0382631044707924 0.02746624932418784 0
    vertex 0.03531556654582781 0.03089953048971132 0.005
    vertex 0.0382631044707924 0.02746624932418784 0.01000000000000003
  endloop
endfacet
facet normal 0.75874 0.651393 0
  outer loop
    vertex 0.03236802862086322 0.0343328116552348 0.02
    vertex 0.03531556654582781 0.03089953048971132 0.015
    vertex 0.03236802862086322 0.0343328116552348 0.009999999999999972
  endloop
endfacet
facet normal 0.75874 0.651393 -0
  outer loop
    vertex 0.0382631044707924 0.02746624932418784 0.01000000000000003
    vertex 0.03531556654582781 0.03089953048971132 0.015
    vertex 0.0382631044707924 0.02746624932418784 0.02
  endloop
endfacet
facet normal 0.75874 0.651393 0
  outer loop
    vertex 0.03236802862086322 0.0343328116552348 0.009999999999999972
    vertex 0.03531556654582781 0.03089953048971132 0.005
    vertex 0.03236802862086322 0.0343328116552348 0
  endloop
endfacet
facet normal 0.75874 0.651393 9.73391e-16
  outer loop
    vertex 0.03236802862086322 0.0343328116552348 0
    vertex 0.03531556654582781 0.03089953048971132 0.005
    vertex 0.0382631044707924 0.02746624932418784 0
  endloop
endfacet
facet normal 0.75874 0.651393 -5.24134e-16
  outer loop
    vertex 0.0382631044707924 0.02746624932418784 0.02
    vertex 0.03531556654582781 0.03089953048971132 0.015
    vertex 0.03236802862086322 0.0343328116552348 0.02
  endloop
endfacet
facet normal 0.75874 0.651393 5.24134e-16
  outer loop
    vertex 0.03236802862086322 0.0343328116552348 0.009999999999999972
    vertex 0.03531556654582781 0.03089953048971132 0.015
    vertex 0.0382631044707924 0.02746624932418784 0.01000000000000003
  endloop
endfacet
facet normal 0.75874 0.651393 -9.73391e-16
  outer loop
    vertex 0.0382631044707924 0.02746624932418784 0.01000000000000003
    vertex 0.03531556654582781 0.03089953048971132 0.005
    vertex 0.03236802862086322 0.0343328116552348 0.009999999999999972
  endloop
endfacet
facet normal 0.95953 -0.281605 -2.20157e-15
  outer loop
    vertex 0.0382631044707924 0.02746624932418784 0.009999999999999972
    vertex 0.03725549703469118 0.02403296815866436 0.015
    vertex 0.03624788959858993 0.02059968699314088 0.01000000000000003
  endloop
endfacet
facet normal 0.95953 -0.281605 2.20157e-15
  outer loop
    vertex 0.03624788959858993 0.02059968699314088 0.01000000000000003
    vertex 0.03725549703469118 0.02403296815866436 0.005000000000000001
    vertex 0.0382631044707924 0.02746624932418784 0.009999999999999972
  endloop
endfacet
facet normal 0.95953 -0.281605 -2.20157e-15
  outer loop
    vertex 0.0382631044707924 0.02746624932418784 0
    vertex 0.03725549703469118 0.02403296815866436 0.005000000000000001
    vertex 0.03624788959858993 0.02059968699314088 0
  endloop
endfacet
facet normal 0.95953 -0.281605 2.20157e-15
  outer loop
    vertex 0.03624788959858993 0.02059968699314088 0.02
    vertex 0.03725549703469118 0.02403296815866436 0.015
    vertex 0.0382631044707924 0.02746624932418784 0.02
  endloop
endfacet
facet normal 0.95953 -0.281605 0
  outer loop
    vertex 0.0382631044707924 0.02746624932418784 0.009999999999999972
    vertex 0.03725549703469118 0.02403296815866436 0.005000000000000001
    vertex 0.0382631044707924 0.02746624932418784 0
  endloop
endfacet
facet normal 0.95953 -0.281605 0
  outer loop
    vertex 0.0382631044707924 0.02746624932418784 0.02
    vertex 0.03725549703469118 0.02403296815866436 0.015
    vertex 0.0382631044707924 0.02746624932418784 0.009999999999999972
  endloop
endfacet
facet normal 0.95953 -0.281605 0
  outer loop
    vertex 0.03624788959858993 0.02059968699314088 0
    vertex 0.03725549703469118 0.02403296815866436 0.005000000000000001
    vertex 0.03624788959858993 0.02059968699314088 0.01000000000000003
  endloop
endfacet
facet normal 0.95953 -0.281605 0
  outer loop
    vertex 0.03624788959858993 0.02059968699314088 0.01000000000000003
    vertex 0.03725549703469118 0.02403296815866436 0.015
    vertex 0.03624788959858993 0.02059968699314088 0.02
  endloop
endfacet
facet normal 0.901573 -0.432626 0
  outer loop
    vertex 0.03624788959858993 0.02059968699314088 0.02
    vertex 0.03460040602688059 0.0171664058276174 0.015
    vertex 0.03624788959858993 0.02059968699314088 0.009999999999999972
  endloop
endfacet
facet normal 0.901573 -0.432626 0
  outer loop
    vertex 0.03295292245517126 0.01373312466209392 0
    vertex 0.03460040602688059 0.0171664058276174 0.004999999999999999
    vertex 0.03295292245517126 0.01373312466209392 0.01000000000000003
  endloop
endfacet
facet normal 0.901573 -0.432626 0
  outer loop
    vertex 0.03624788959858993 0.02059968699314088 0.009999999999999972
    vertex 0.03460040602688059 0.0171664058276174 0.004999999999999999
    vertex 0.03624788959858993 0.02059968699314088 0
  endloop
endfacet
facet normal 0.901573 -0.432626 0
  outer loop
    vertex 0.03295292245517126 0.01373312466209392 0.01000000000000003
    vertex 0.03460040602688059 0.0171664058276174 0.015
    vertex 0.03295292245517126 0.01373312466209392 0.02
  endloop
endfacet
facet normal 0.901573 -0.432626 -1.55701e-15
  outer loop
    vertex 0.03295292245517126 0.01373312466209392 0.02
    vertex 0.03460040602688059 0.0171664058276174 0.015
    vertex 0.03624788959858993 0.02059968699314088 0.02
  endloop
endfacet
facet normal 0.901573 -0.432626 -1.55701e-15
  outer loop
    vertex 0.03295292245517126 0.01373312466209392 0.01000000000000003
    vertex 0.03460040602688059 0.0171664058276174 0.004999999999999999
    vertex 0.03624788959858993 0.02059968699314088 0.009999999999999972
  endloop
endfacet
facet normal 0.901573 -0.432626 1.55701e-15
  outer loop
    vertex 0.03624788959858993 0.02059968699314088 0.009999999999999972
    vertex 0.03460040602688059 0.0171664058276174 0.015
    vertex 0.03295292245517126 0.01373312466209392 0.01000000000000003
  endloop
endfacet
facet normal 0.901573 -0.432626 1.55701e-15
  outer loop
    vertex 0.03624788959858993 0.02059968699314088 0
    vertex 0.03460040602688059 0.0171664058276174 0.004999999999999999
    vertex 0.03295292245517126 0.01373312466209392 0
  endloop
endfacet
facet normal 0.867152 0.498044 -0
  outer loop
    vertex 0.03689669507605231 0.00686656233104696 0
    vertex 0.03492480876561178 0.01029984349657044 0.005
    vertex 0.03689669507605231 0.00686656233104696 0.01000000000000003
  endloop
endfacet
facet normal 0.867152 0.498044 0
  outer loop
    vertex 0.03295292245517126 0.01373312466209392 0.02
    vertex 0.03492480876561178 0.01029984349657044 0.015
    vertex 0.03295292245517126 0.01373312466209392 0.009999999999999972
  endloop
endfacet
facet normal 0.867152 0.498044 -0
  outer loop
    vertex 0.03689669507605231 0.00686656233104696 0.01000000000000003
    vertex 0.03492480876561178 0.01029984349657044 0.015
    vertex 0.03689669507605231 0.00686656233104696 0.02
  endloop
endfacet
facet normal 0.867152 0.498044 0
  outer loop
    vertex 0.03295292245517126 0.01373312466209392 0.009999999999999972
    vertex 0.03492480876561178 0.01029984349657044 0.005
    vertex 0.03295292245517126 0.01373312466209392 0
  endloop
endfacet
facet normal 0.867152 0.498044 1.3692e-15
  outer loop
    vertex 0.03295292245517126 0.01373312466209392 0
    vertex 0.03492480876561178 0.01029984349657044 0.005
    vertex 0.03689669507605231 0.00686656233104696 0
  endloop
endfacet
facet normal 0.867152 0.498044 1.3692e-15
  outer loop
    vertex 0.03295292245517126 0.01373312466209392 0.009999999999999972
    vertex 0.03492480876561178 0.01029984349657044 0.015
    vertex 0.03689669507605231 0.00686656233104696 0.01000000000000003
  endloop
endfacet
facet normal 0.867152 0.498044 -1.3692e-15
  outer loop
    vertex 0.03689669507605231 0.00686656233104696 0.02
    vertex 0.03492480876561178 0.01029984349657044 0.015
    vertex 0.03295292245517126 0.01373312466209392 0.02
  endloop
endfacet
facet normal 0.867152 0.498044 -1.3692e-15
  outer loop
    vertex 0.03689669507605231 0.00686656233104696 0.01000000000000003
    vertex 0.03492480876561178 0.01029984349657044 0.005
    vertex 0.03295292245517126 0.01373312466209392 0.009999999999999972
  endloop
endfacet
endsolid Created by Gmsh
