solid Created by Gmsh
facet normal -0.848487 0.529216 -8.43885e-16
  outer loop
    vertex 0.03305632126523622 0.04905520441931749 0.009999999999999972
    vertex 0.02923175284843244 0.0429233038669028 0.01000000000000003
    vertex 0.03114403705683432 0.04598925414311014 0.01500000000000001
  endloop
endfacet
facet normal -0.848487 0.529216 -1.54712e-15
  outer loop
    vertex 0.03305632126523622 0.04905520441931749 0
    vertex 0.02923175284843244 0.0429233038669028 0
    vertex 0.03114403705683432 0.04598925414311015 0.005000000000000001
  endloop
endfacet
facet normal -0.848487 0.529216 8.43885e-16
  outer loop
    vertex 0.02923175284843244 0.0429233038669028 0.02
    vertex 0.03305632126523622 0.04905520441931749 0.02
    vertex 0.03114403705683432 0.04598925414311014 0.01500000000000001
  endloop
endfacet
facet normal -0.848487 0.529216 1.54712e-15
  outer loop
    vertex 0.02923175284843244 0.0429233038669028 0.01000000000000003
    vertex 0.03305632126523622 0.04905520441931749 0.009999999999999972
    vertex 0.03114403705683432 0.04598925414311015 0.005000000000000001
  endloop
endfacet
facet normal -0.848487 0.529216 0
  outer loop
    vertex 0.03305632126523622 0.04905520441931749 0.009999999999999972
    vertex 0.03305632126523622 0.04905520441931749 0
    vertex 0.03114403705683432 0.04598925414311015 0.005000000000000001
  endloop
endfacet
facet normal -0.848487 0.529216 0
  outer loop
    vertex 0.03305632126523622 0.04905520441931749 0.02
    vertex 0.03305632126523622 0.04905520441931749 0.009999999999999972
    vertex 0.03114403705683432 0.04598925414311014 0.01500000000000001
  endloop
endfacet
facet normal -0.848487 0.529216 0
  outer loop
    vertex 0.02923175284843244 0.0429233038669028 0
    vertex 0.02923175284843244 0.0429233038669028 0.01000000000000003
    vertex 0.03114403705683432 0.04598925414311015 0.005000000000000001
  endloop
endfacet
facet normal -0.848487 0.529216 0
  outer loop
    vertex 0.02923175284843244 0.0429233038669028 0.01000000000000003
    vertex 0.02923175284843244 0.0429233038669028 0.02
    vertex 0.03114403705683432 0.04598925414311014 0.01500000000000001
  endloop
endfacet
facet normal -0.769892 -0.638174 0
  outer loop
    vertex 0.03431456850074302 0.03679140331448812 0
    vertex 0.03431456850074302 0.03679140331448812 0.01000000000000003
    vertex 0.03177316067458773 0.03985735359069546 0.005000000000000001
  endloop
endfacet
facet normal -0.769892 -0.638174 -0
  outer loop
    vertex 0.02923175284843244 0.0429233038669028 0.02
    vertex 0.02923175284843244 0.0429233038669028 0.009999999999999972
    vertex 0.03177316067458772 0.03985735359069546 0.015
  endloop
endfacet
facet normal -0.769892 -0.638174 -0
  outer loop
    vertex 0.02923175284843244 0.0429233038669028 0.009999999999999972
    vertex 0.02923175284843244 0.0429233038669028 0
    vertex 0.03177316067458773 0.03985735359069546 0.005000000000000001
  endloop
endfacet
facet normal -0.769892 -0.638174 0
  outer loop
    vertex 0.03431456850074302 0.03679140331448812 0.01000000000000003
    vertex 0.03431456850074302 0.03679140331448812 0.02
    vertex 0.03177316067458772 0.03985735359069546 0.015
  endloop
endfacet
facet normal -0.769892 -0.638174 4.25398e-16
  outer loop
    vertex 0.03431456850074302 0.03679140331448812 0.01000000000000003
    vertex 0.02923175284843244 0.0429233038669028 0.009999999999999972
    vertex 0.03177316067458773 0.03985735359069546 0.005000000000000001
  endloop
endfacet
facet normal -0.769892 -0.638174 1.53143e-15
  outer loop
    vertex 0.03431456850074302 0.03679140331448812 0.02
    vertex 0.02923175284843244 0.0429233038669028 0.02
    vertex 0.03177316067458772 0.03985735359069546 0.015
  endloop
endfacet
facet normal -0.769892 -0.638174 -1.44635e-15
  outer loop
    vertex 0.02923175284843244 0.0429233038669028 0.009999999999999972
    vertex 0.03431456850074302 0.03679140331448812 0.01000000000000003
    vertex 0.03177316067458772 0.03985735359069546 0.015
  endloop
endfacet
facet normal -0.769892 -0.638174 -4.25398e-16
  outer loop
    vertex 0.02923175284843244 0.0429233038669028 0
    vertex 0.03431456850074302 0.03679140331448812 0
    vertex 0.03177316067458773 0.03985735359069546 0.005000000000000001
  endloop
endfacet
facet normal -0.970204 0.242288 1.60824e-16
  outer loop
    vertex 0.03278325373420067 0.03065950276207343 0.02
    vertex 0.03431456850074302 0.03679140331448812 0.02
    vertex 0.03354891111747185 0.03372545303828078 0.015
  endloop
endfacet
facet normal -0.970204 0.242288 1.60824e-16
  outer loop
    vertex 0.03278325373420067 0.03065950276207343 0.01000000000000003
    vertex 0.03431456850074302 0.03679140331448812 0.009999999999999972
    vertex 0.03354891111747185 0.03372545303828078 0.005
  endloop
endfacet
facet normal -0.970204 0.242288 -1.60824e-16
  outer loop
    vertex 0.03431456850074302 0.03679140331448812 0
    vertex 0.03278325373420067 0.03065950276207343 0
    vertex 0.03354891111747185 0.03372545303828078 0.005
  endloop
endfacet
facet normal -0.970204 0.242288 -1.60824e-16
  outer loop
    vertex 0.03431456850074302 0.03679140331448812 0.009999999999999972
    vertex 0.03278325373420067 0.03065950276207343 0.01000000000000003
    vertex 0.03354891111747185 0.03372545303828078 0.015
  endloop
endfacet
facet normal -0.970204 0.242288 0
  outer loop
    vertex 0.03431456850074302 0.03679140331448812 0.009999999999999972
    vertex 0.03431456850074302 0.03679140331448812 0
    vertex 0.03354891111747185 0.03372545303828078 0.005
  endloop
endfacet
facet normal -0.970204 0.242288 0
  outer loop
    vertex 0.03431456850074302 0.03679140331448812 0.02
    vertex 0.03431456850074302 0.03679140331448812 0.009999999999999972
    vertex 0.03354891111747185 0.03372545303828078 0.015
  endloop
endfacet
facet normal -0.970204 0.242288 0
  outer loop
    vertex 0.03278325373420067 0.03065950276207343 0
    vertex 0.03278325373420067 0.03065950276207343 0.01000000000000003
    vertex 0.03354891111747185 0.03372545303828078 0.005
  endloop
endfacet
facet normal -0.970204 0.242288 0
  outer loop
    vertex 0.03278325373420067 0.03065950276207343 0.01000000000000003
    vertex 0.03278325373420067 0.03065950276207343 0.02
    vertex 0.03354891111747185 0.03372545303828078 0.015
  endloop
endfacet
facet normal -0.999346 0.0361587 0
  outer loop
    vertex 0.03278325373420067 0.03065950276207343 0.009999999999999972
    vertex 0.03256138737863999 0.02452760220965874 0.01000000000000003
    vertex 0.03267232055642033 0.02759355248586609 0.015
  endloop
endfacet
facet normal -0.999346 0.0361587 0
  outer loop
    vertex 0.03256138737863999 0.02452760220965874 0.01000000000000003
    vertex 0.03278325373420067 0.03065950276207343 0.009999999999999972
    vertex 0.03267232055642033 0.02759355248586609 0.004999999999999999
  endloop
endfacet
facet normal -0.999346 0.0361587 0
  outer loop
    vertex 0.03278325373420067 0.03065950276207343 0
    vertex 0.03256138737863999 0.02452760220965874 0
    vertex 0.03267232055642033 0.02759355248586609 0.004999999999999999
  endloop
endfacet
facet normal -0.999346 0.0361587 0
  outer loop
    vertex 0.03256138737863999 0.02452760220965874 0.02
    vertex 0.03278325373420067 0.03065950276207343 0.02
    vertex 0.03267232055642033 0.02759355248586609 0.015
  endloop
endfacet
facet normal -0.999346 0.0361587 0
  outer loop
    vertex 0.03278325373420067 0.03065950276207343 0.009999999999999972
    vertex 0.03278325373420067 0.03065950276207343 0
    vertex 0.03267232055642033 0.02759355248586609 0.004999999999999999
  endloop
endfacet
facet normal -0.999346 0.0361587 0
  outer loop
    vertex 0.03278325373420067 0.03065950276207343 0.02
    vertex 0.03278325373420067 0.03065950276207343 0.009999999999999972
    vertex 0.03267232055642033 0.02759355248586609 0.015
  endloop
endfacet
facet normal -0.999346 0.0361587 0
  outer loop
    vertex 0.03256138737863999 0.02452760220965874 0
    vertex 0.03256138737863999 0.02452760220965874 0.01000000000000003
    vertex 0.03267232055642033 0.02759355248586609 0.004999999999999999
  endloop
endfacet
facet normal -0.999346 0.0361587 0
  outer loop
    vertex 0.03256138737863999 0.02452760220965874 0.01000000000000003
    vertex 0.03256138737863999 0.02452760220965874 0.02
    vertex 0.03267232055642033 0.02759355248586609 0.015
  endloop
endfacet
facet normal -0.54434 -0.838864 -1.68003e-15
  outer loop
    vertex 0.03256138737863999 0.02452760220965874 0
    vertex 0.04201105176707286 0.01839570165724406 0
    vertex 0.03728621957285642 0.02146165193345139 0.005728862973760926
  endloop
endfacet
facet normal -0.54434 -0.838864 1.16583e-15
  outer loop
    vertex 0.04201105176707286 0.01839570165724406 0.02
    vertex 0.03256138737863999 0.02452760220965874 0.02
    vertex 0.03728621957285642 0.0214616519334514 0.01432426114969104
  endloop
endfacet
facet normal -0.54434 -0.838864 3.14929e-16
  outer loop
    vertex 0.03256138737863999 0.02452760220965874 0.009999999999999972
    vertex 0.03728621957285642 0.02146165193345139 0.005728862973760926
    vertex 0.03728621957285642 0.0214616519334514 0.01432426114969104
  endloop
endfacet
facet normal -0.54434 -0.838864 3.38599e-16
  outer loop
    vertex 0.03728621957285642 0.02146165193345139 0.005728862973760926
    vertex 0.04201105176707286 0.01839570165724406 0.01000000000000003
    vertex 0.03728621957285642 0.0214616519334514 0.01432426114969104
  endloop
endfacet
facet normal -0.54434 -0.838864 0
  outer loop
    vertex 0.04201105176707286 0.01839570165724406 0
    vertex 0.04201105176707286 0.01839570165724406 0.01000000000000003
    vertex 0.03728621957285642 0.02146165193345139 0.005728862973760926
  endloop
endfacet
facet normal -0.54434 -0.838864 -0
  outer loop
    vertex 0.03256138737863999 0.02452760220965874 0.02
    vertex 0.03256138737863999 0.02452760220965874 0.009999999999999972
    vertex 0.03728621957285642 0.0214616519334514 0.01432426114969104
  endloop
endfacet
facet normal -0.54434 -0.838864 0
  outer loop
    vertex 0.04201105176707286 0.01839570165724406 0.01000000000000003
    vertex 0.04201105176707286 0.01839570165724406 0.02
    vertex 0.03728621957285642 0.0214616519334514 0.01432426114969104
  endloop
endfacet
facet normal -0.54434 -0.838864 -0
  outer loop
    vertex 0.03256138737863999 0.02452760220965874 0.009999999999999972
    vertex 0.03256138737863999 0.02452760220965874 0
    vertex 0.03728621957285642 0.02146165193345139 0.005728862973760926
  endloop
endfacet
facet normal -0.321552 0.946892 0
  outer loop
    vertex 0.02395412355962612 0.01226380110482937 0.02
    vertex 0.03298258766334949 0.01532975138103672 0.02
    vertex 0.03106387009186126 0.01467817957428365 0.01238641518960497
  endloop
endfacet
facet normal -0.321552 0.946892 0
  outer loop
    vertex 0.02395412355962612 0.01226380110482937 0.01000000000000003
    vertex 0.02395412355962612 0.01226380110482937 0.02
    vertex 0.03106387009186126 0.01467817957428365 0.01238641518960497
  endloop
endfacet
facet normal -0.321552 0.946892 0
  outer loop
    vertex 0.04201105176707286 0.01839570165724406 0.009999999999999972
    vertex 0.04201105176707286 0.01839570165724406 0
    vertex 0.03536265362643067 0.01613799116723591 0.006949058354998915
  endloop
endfacet
facet normal -0.321552 0.946892 -2.04541e-16
  outer loop
    vertex 0.04201105176707286 0.01839570165724406 0
    vertex 0.03298258766334949 0.01532975138103672 0
    vertex 0.03536265362643067 0.01613799116723591 0.006949058354998915
  endloop
endfacet
facet normal -0.321552 0.946892 0
  outer loop
    vertex 0.04201105176707286 0.01839570165724406 0.02
    vertex 0.04201105176707286 0.01839570165724406 0.009999999999999972
    vertex 0.03749681971521118 0.01686272651914039 0.01499999999999999
  endloop
endfacet
facet normal -0.321552 0.946892 0
  outer loop
    vertex 0.02395412355962612 0.01226380110482937 0
    vertex 0.02395412355962612 0.01226380110482937 0.01000000000000003
    vertex 0.02936773576238805 0.01410219417342366 0.00581477391131903
  endloop
endfacet
facet normal -0.321552 0.946892 -3.36106e-16
  outer loop
    vertex 0.03298258766334949 0.01532975138103672 0
    vertex 0.02395412355962612 0.01226380110482937 0
    vertex 0.02936773576238805 0.01410219417342366 0.00581477391131903
  endloop
endfacet
facet normal -0.321552 0.946892 1.06603e-16
  outer loop
    vertex 0.03298258766334949 0.01532975138103672 0.02
    vertex 0.04201105176707286 0.01839570165724406 0.02
    vertex 0.03749681971521118 0.01686272651914039 0.01499999999999999
  endloop
endfacet
facet normal -0.321552 0.946892 -1.02357e-16
  outer loop
    vertex 0.04201105176707286 0.01839570165724406 0.009999999999999972
    vertex 0.03536265362643067 0.01613799116723591 0.006949058354998915
    vertex 0.03749681971521118 0.01686272651914039 0.01499999999999999
  endloop
endfacet
facet normal -0.321552 0.946892 -8.67765e-17
  outer loop
    vertex 0.03536265362643067 0.01613799116723591 0.006949058354998915
    vertex 0.03106387009186126 0.01467817957428365 0.01238641518960497
    vertex 0.03749681971521118 0.01686272651914039 0.01499999999999999
  endloop
endfacet
facet normal -0.321552 0.946892 1.3156e-16
  outer loop
    vertex 0.02936773576238805 0.01410219417342366 0.00581477391131903
    vertex 0.02395412355962612 0.01226380110482937 0.01000000000000003
    vertex 0.03106387009186126 0.01467817957428365 0.01238641518960497
  endloop
endfacet
facet normal -0.321552 0.946892 -1.82437e-17
  outer loop
    vertex 0.03106387009186126 0.01467817957428365 0.01238641518960497
    vertex 0.03298258766334949 0.01532975138103672 0.02
    vertex 0.03749681971521118 0.01686272651914039 0.01499999999999999
  endloop
endfacet
facet normal -0.321552 0.946892 3.21054e-17
  outer loop
    vertex 0.02936773576238805 0.01410219417342366 0.00581477391131903
    vertex 0.03106387009186126 0.01467817957428365 0.01238641518960497
    vertex 0.03536265362643067 0.01613799116723591 0.006949058354998915
  endloop
endfacet
facet normal -0.321552 0.946892 -2.88215e-16
  outer loop
    vertex 0.03298258766334949 0.01532975138103672 0
    vertex 0.02936773576238805 0.01410219417342366 0.00581477391131903
    vertex 0.03536265362643067 0.01613799116723591 0.006949058354998915
  endloop
endfacet
facet normal -0.426521 -0.904478 1.87582e-16
  outer loop
    vertex 0.03695740704540094 0.006131900552414686 0.02
    vertex 0.03045576530251354 0.009197850828622027 0.02
    vertex 0.03032307873633216 0.009260421242422177 0.01246184328581961
  endloop
endfacet
facet normal -0.426521 -0.904478 1.9149e-16
  outer loop
    vertex 0.03045576530251354 0.009197850828622027 0.02
    vertex 0.02395412355962612 0.01226380110482937 0.02
    vertex 0.03032307873633216 0.009260421242422177 0.01246184328581961
  endloop
endfacet
facet normal -0.426521 -0.904478 -0
  outer loop
    vertex 0.02395412355962612 0.01226380110482937 0.02
    vertex 0.02395412355962612 0.01226380110482937 0.009999999999999972
    vertex 0.03032307873633216 0.009260421242422177 0.01246184328581961
  endloop
endfacet
facet normal -0.426521 -0.904478 0
  outer loop
    vertex 0.03695740704540094 0.006131900552414686 0.01000000000000003
    vertex 0.03695740704540094 0.006131900552414686 0.02
    vertex 0.03032307873633216 0.009260421242422177 0.01246184328581961
  endloop
endfacet
facet normal -0.426521 -0.904478 0
  outer loop
    vertex 0.03695740704540094 0.006131900552414686 0
    vertex 0.03695740704540094 0.006131900552414686 0.01000000000000003
    vertex 0.03240625782537976 0.008278065745759825 0.005275070946735485
  endloop
endfacet
facet normal -0.426521 -0.904478 -0
  outer loop
    vertex 0.02395412355962612 0.01226380110482937 0.009999999999999972
    vertex 0.02395412355962612 0.01226380110482937 0
    vertex 0.02792903397794533 0.01038937027998774 0.005390987747507864
  endloop
endfacet
facet normal -0.426521 -0.904478 -1.78705e-16
  outer loop
    vertex 0.03045576530251353 0.009197850828622031 0
    vertex 0.03695740704540094 0.006131900552414686 0
    vertex 0.03240625782537976 0.008278065745759825 0.005275070946735485
  endloop
endfacet
facet normal -0.426521 -0.904478 -4.80872e-16
  outer loop
    vertex 0.02395412355962612 0.01226380110482937 0
    vertex 0.03045576530251353 0.009197850828622031 0
    vertex 0.02792903397794533 0.01038937027998774 0.005390987747507864
  endloop
endfacet
facet normal -0.426521 -0.904478 0
  outer loop
    vertex 0.03240625782537976 0.008278065745759825 0.005275070946735485
    vertex 0.03032307873633216 0.009260421242422177 0.01246184328581961
    vertex 0.02792903397794533 0.01038937027998774 0.005390987747507864
  endloop
endfacet
facet normal -0.426521 -0.904478 -3.05244e-16
  outer loop
    vertex 0.03045576530251353 0.009197850828622031 0
    vertex 0.03240625782537976 0.008278065745759825 0.005275070946735485
    vertex 0.02792903397794533 0.01038937027998774 0.005390987747507864
  endloop
endfacet
facet normal -0.426521 -0.904478 -3.60097e-17
  outer loop
    vertex 0.03240625782537976 0.008278065745759825 0.005275070946735485
    vertex 0.03695740704540094 0.006131900552414686 0.01000000000000003
    vertex 0.03032307873633216 0.009260421242422177 0.01246184328581961
  endloop
endfacet
facet normal -0.426521 -0.904478 2.54459e-16
  outer loop
    vertex 0.03032307873633216 0.009260421242422177 0.01246184328581961
    vertex 0.02395412355962612 0.01226380110482937 0.009999999999999972
    vertex 0.02792903397794533 0.01038937027998774 0.005390987747507864
  endloop
endfacet
endsolid Created by Gmsh
