solid Created by Gmsh
facet normal 1 0 0
  outer loop
    vertex 0.04 0.05776259550841251 0
    vertex 0.04 0.06 0
    vertex 0.04 0.06 0.009999999999999972
  endloop
endfacet
facet normal 1 0 0
  outer loop
    vertex 0.04 0.05776259550841251 0.01000000000000003
    vertex 0.04 0.06 0.02
    vertex 0.04 0.05776259550841251 0.02
  endloop
endfacet
facet normal 1 0 -0
  outer loop
    vertex 0.04 0.06 0.009999999999999972
    vertex 0.04 0.06 0.02
    vertex 0.04 0.05776259550841251 0.01000000000000003
  endloop
endfacet
facet normal 1 0 0
  outer loop
    vertex 0.04 0.05776259550841251 0
    vertex 0.04 0.06 0.009999999999999972
    vertex 0.04 0.05776259550841251 0.01000000000000003
  endloop
endfacet
facet normal 0.584038 -0.811726 1.64436e-16
  outer loop
    vertex 0.02996482109445013 0.05054227106986094 0.01000000000000003
    vertex 0.04 0.05776259550841251 0.009999999999999972
    vertex 0.03498241054722507 0.05415243328913673 0.02
  endloop
endfacet
facet normal 0.584038 -0.811726 0
  outer loop
    vertex 0.03498241054722506 0.05415243328913672 0
    vertex 0.04 0.05776259550841251 0.009999999999999972
    vertex 0.02996482109445013 0.05054227106986094 0.01000000000000003
  endloop
endfacet
facet normal 0.584038 -0.811726 0
  outer loop
    vertex 0.03498241054722506 0.05415243328913672 0
    vertex 0.04 0.05776259550841251 0
    vertex 0.04 0.05776259550841251 0.009999999999999972
  endloop
endfacet
facet normal 0.584038 -0.811726 0
  outer loop
    vertex 0.04 0.05776259550841251 0.009999999999999972
    vertex 0.04 0.05776259550841251 0.02
    vertex 0.03498241054722507 0.05415243328913673 0.02
  endloop
endfacet
facet normal 0.584038 -0.811726 0
  outer loop
    vertex 0.02996482109445013 0.05054227106986094 0.01000000000000003
    vertex 0.02996482109445013 0.05054227106986094 0
    vertex 0.03498241054722506 0.05415243328913672 0
  endloop
endfacet
facet normal 0.584038 -0.811726 0
  outer loop
    vertex 0.03498241054722507 0.05415243328913673 0.02
    vertex 0.02996482109445013 0.05054227106986094 0.02
    vertex 0.02996482109445013 0.05054227106986094 0.01000000000000003
  endloop
endfacet
facet normal 0.826352 0.563153 0
  outer loop
    vertex 0.02996482109445013 0.05054227106986094 0.02
    vertex 0.03242512154588085 0.04693210885058516 0.015
    vertex 0.02996482109445013 0.05054227106986094 0.009999999999999972
  endloop
endfacet
facet normal 0.826352 0.563153 -0
  outer loop
    vertex 0.03488542199731156 0.04332194663130938 0
    vertex 0.03242512154588085 0.04693210885058516 0.004999999999999999
    vertex 0.03488542199731156 0.04332194663130938 0.01000000000000003
  endloop
endfacet
facet normal 0.826352 0.563153 0
  outer loop
    vertex 0.02996482109445013 0.05054227106986094 0.009999999999999972
    vertex 0.03242512154588085 0.04693210885058516 0.004999999999999999
    vertex 0.02996482109445013 0.05054227106986094 0
  endloop
endfacet
facet normal 0.826352 0.563153 -0
  outer loop
    vertex 0.03488542199731156 0.04332194663130938 0.01000000000000003
    vertex 0.03242512154588085 0.04693210885058516 0.015
    vertex 0.03488542199731156 0.04332194663130938 0.02
  endloop
endfacet
facet normal 0.826352 0.563153 -6.97977e-16
  outer loop
    vertex 0.02996482109445013 0.05054227106986094 0.009999999999999972
    vertex 0.03242512154588085 0.04693210885058516 0.015
    vertex 0.03488542199731156 0.04332194663130938 0.01000000000000003
  endloop
endfacet
facet normal 0.826352 0.563153 6.97977e-16
  outer loop
    vertex 0.03488542199731156 0.04332194663130938 0.01000000000000003
    vertex 0.03242512154588085 0.04693210885058516 0.004999999999999999
    vertex 0.02996482109445013 0.05054227106986094 0.009999999999999972
  endloop
endfacet
facet normal 0.826352 0.563153 -6.97977e-16
  outer loop
    vertex 0.02996482109445013 0.05054227106986094 0
    vertex 0.03242512154588085 0.04693210885058516 0.004999999999999999
    vertex 0.03488542199731156 0.04332194663130938 0
  endloop
endfacet
facet normal 0.826352 0.563153 6.97977e-16
  outer loop
    vertex 0.03488542199731156 0.04332194663130938 0.02
    vertex 0.03242512154588085 0.04693210885058516 0.015
    vertex 0.02996482109445013 0.05054227106986094 0.02
  endloop
endfacet
facet normal 0.887451 -0.460902 0
  outer loop
    vertex 0.03488542199731156 0.04332194663130938 0.02
    vertex 0.03301046812262119 0.0397117844120336 0.015
    vertex 0.03488542199731156 0.04332194663130938 0.009999999999999972
  endloop
endfacet
facet normal 0.887451 -0.460902 0
  outer loop
    vertex 0.03113551424793082 0.03610162219275782 0
    vertex 0.03301046812262119 0.0397117844120336 0.005000000000000001
    vertex 0.03113551424793082 0.03610162219275782 0.01000000000000003
  endloop
endfacet
facet normal 0.887451 -0.460902 0
  outer loop
    vertex 0.03488542199731156 0.04332194663130938 0.009999999999999972
    vertex 0.03301046812262119 0.0397117844120336 0.005000000000000001
    vertex 0.03488542199731156 0.04332194663130938 0
  endloop
endfacet
facet normal 0.887451 -0.460902 0
  outer loop
    vertex 0.03113551424793082 0.03610162219275782 0.01000000000000003
    vertex 0.03301046812262119 0.0397117844120336 0.015
    vertex 0.03113551424793082 0.03610162219275782 0.02
  endloop
endfacet
facet normal 0.887451 -0.460902 -9.16159e-16
  outer loop
    vertex 0.03113551424793082 0.03610162219275782 0.02
    vertex 0.03301046812262119 0.0397117844120336 0.015
    vertex 0.03488542199731156 0.04332194663130938 0.02
  endloop
endfacet
facet normal 0.887451 -0.460902 9.16159e-16
  outer loop
    vertex 0.03488542199731156 0.04332194663130938 0
    vertex 0.03301046812262119 0.0397117844120336 0.005000000000000001
    vertex 0.03113551424793082 0.03610162219275782 0
  endloop
endfacet
facet normal 0.887451 -0.460902 -9.16159e-16
  outer loop
    vertex 0.03113551424793082 0.03610162219275782 0.01000000000000003
    vertex 0.03301046812262119 0.0397117844120336 0.005000000000000001
    vertex 0.03488542199731156 0.04332194663130938 0.009999999999999972
  endloop
endfacet
facet normal 0.887451 -0.460902 9.16159e-16
  outer loop
    vertex 0.03488542199731156 0.04332194663130938 0.009999999999999972
    vertex 0.03301046812262119 0.0397117844120336 0.015
    vertex 0.03113551424793082 0.03610162219275782 0.01000000000000003
  endloop
endfacet
facet normal 0.916562 0.399892 0
  outer loop
    vertex 0.03113551424793082 0.03610162219275782 0.02
    vertex 0.03271061041705695 0.03249145997348203 0.015
    vertex 0.03113551424793082 0.03610162219275782 0.009999999999999972
  endloop
endfacet
facet normal 0.916562 0.399892 -0
  outer loop
    vertex 0.03428570658618309 0.02888129775420625 0
    vertex 0.03271061041705695 0.03249145997348203 0.005
    vertex 0.03428570658618309 0.02888129775420625 0.01000000000000003
  endloop
endfacet
facet normal 0.916562 0.399892 0
  outer loop
    vertex 0.03113551424793082 0.03610162219275782 0.009999999999999972
    vertex 0.03271061041705695 0.03249145997348203 0.005
    vertex 0.03113551424793082 0.03610162219275782 0
  endloop
endfacet
facet normal 0.916562 0.399892 -0
  outer loop
    vertex 0.03428570658618309 0.02888129775420625 0.01000000000000003
    vertex 0.03271061041705695 0.03249145997348203 0.015
    vertex 0.03428570658618309 0.02888129775420625 0.02
  endloop
endfacet
facet normal 0.916562 0.399892 3.01067e-16
  outer loop
    vertex 0.03113551424793082 0.03610162219275782 0
    vertex 0.03271061041705695 0.03249145997348203 0.005
    vertex 0.03428570658618309 0.02888129775420625 0
  endloop
endfacet
facet normal 0.916562 0.399892 3.01067e-16
  outer loop
    vertex 0.03113551424793082 0.03610162219275782 0.009999999999999972
    vertex 0.03271061041705695 0.03249145997348203 0.015
    vertex 0.03428570658618309 0.02888129775420625 0.01000000000000003
  endloop
endfacet
facet normal 0.916562 0.399892 -2.58058e-16
  outer loop
    vertex 0.03428570658618309 0.02888129775420625 0.02
    vertex 0.03271061041705695 0.03249145997348203 0.015
    vertex 0.03113551424793082 0.03610162219275782 0.02
  endloop
endfacet
facet normal 0.916562 0.399892 -2.58058e-16
  outer loop
    vertex 0.03428570658618309 0.02888129775420625 0.01000000000000003
    vertex 0.03271061041705695 0.03249145997348203 0.005
    vertex 0.03113551424793082 0.03610162219275782 0.009999999999999972
  endloop
endfacet
facet normal 0.990892 0.134662 0
  outer loop
    vertex 0.03526694711250622 0.02166097331565469 0.01000000000000003
    vertex 0.03477632684934465 0.02527113553493047 0.005000000000000001
    vertex 0.03428570658618309 0.02888129775420625 0.009999999999999972
  endloop
endfacet
facet normal 0.990892 0.134662 0
  outer loop
    vertex 0.03428570658618309 0.02888129775420625 0.009999999999999972
    vertex 0.03477632684934465 0.02527113553493047 0.015
    vertex 0.03526694711250622 0.02166097331565469 0.01000000000000003
  endloop
endfacet
facet normal 0.990892 0.134662 0
  outer loop
    vertex 0.03428570658618309 0.02888129775420625 0
    vertex 0.03477632684934465 0.02527113553493047 0.005000000000000001
    vertex 0.03526694711250622 0.02166097331565469 0
  endloop
endfacet
facet normal 0.990892 0.134662 0
  outer loop
    vertex 0.03526694711250622 0.02166097331565469 0.02
    vertex 0.03477632684934465 0.02527113553493047 0.015
    vertex 0.03428570658618309 0.02888129775420625 0.02
  endloop
endfacet
facet normal 0.990892 0.134662 0
  outer loop
    vertex 0.03428570658618309 0.02888129775420625 0.009999999999999972
    vertex 0.03477632684934465 0.02527113553493047 0.005000000000000001
    vertex 0.03428570658618309 0.02888129775420625 0
  endloop
endfacet
facet normal 0.990892 0.134662 0
  outer loop
    vertex 0.03428570658618309 0.02888129775420625 0.02
    vertex 0.03477632684934465 0.02527113553493047 0.015
    vertex 0.03428570658618309 0.02888129775420625 0.009999999999999972
  endloop
endfacet
facet normal 0.990892 0.134662 -0
  outer loop
    vertex 0.03526694711250622 0.02166097331565469 0
    vertex 0.03477632684934465 0.02527113553493047 0.005000000000000001
    vertex 0.03526694711250622 0.02166097331565469 0.01000000000000003
  endloop
endfacet
facet normal 0.990892 0.134662 -0
  outer loop
    vertex 0.03526694711250622 0.02166097331565469 0.01000000000000003
    vertex 0.03477632684934465 0.02527113553493047 0.015
    vertex 0.03526694711250622 0.02166097331565469 0.02
  endloop
endfacet
facet normal 0.802892 -0.596124 0
  outer loop
    vertex 0.03526694711250622 0.02166097331565469 0.02
    vertex 0.03258650530174729 0.01805081109637891 0.015
    vertex 0.03526694711250622 0.02166097331565469 0.009999999999999972
  endloop
endfacet
facet normal 0.802892 -0.596124 0
  outer loop
    vertex 0.02990606349098836 0.01444064887710313 0
    vertex 0.03258650530174729 0.0180508110963789 0.005
    vertex 0.02990606349098836 0.01444064887710313 0.01000000000000003
  endloop
endfacet
facet normal 0.802892 -0.596124 0
  outer loop
    vertex 0.03526694711250622 0.02166097331565469 0.009999999999999972
    vertex 0.03258650530174729 0.0180508110963789 0.005
    vertex 0.03526694711250622 0.02166097331565469 0
  endloop
endfacet
facet normal 0.802892 -0.596124 0
  outer loop
    vertex 0.02990606349098836 0.01444064887710313 0.01000000000000003
    vertex 0.03258650530174729 0.01805081109637891 0.015
    vertex 0.02990606349098836 0.01444064887710313 0.02
  endloop
endfacet
facet normal 0.802892 -0.596124 3.76757e-16
  outer loop
    vertex 0.02990606349098836 0.01444064887710313 0.01000000000000003
    vertex 0.03258650530174729 0.0180508110963789 0.005
    vertex 0.03526694711250622 0.02166097331565469 0.009999999999999972
  endloop
endfacet
facet normal 0.802892 -0.596124 0
  outer loop
    vertex 0.03526694711250622 0.02166097331565469 0.009999999999999972
    vertex 0.03258650530174729 0.01805081109637891 0.015
    vertex 0.02990606349098836 0.01444064887710313 0.01000000000000003
  endloop
endfacet
facet normal 0.802892 -0.596124 -4.52108e-16
  outer loop
    vertex 0.03526694711250622 0.02166097331565469 0
    vertex 0.03258650530174729 0.0180508110963789 0.005
    vertex 0.02990606349098836 0.01444064887710313 0
  endloop
endfacet
facet normal 0.802892 -0.596124 0
  outer loop
    vertex 0.02990606349098836 0.01444064887710313 0.02
    vertex 0.03258650530174729 0.01805081109637891 0.015
    vertex 0.03526694711250622 0.02166097331565469 0.02
  endloop
endfacet
facet normal 0.997282 0.0736745 -1.04124e-15
  outer loop
    vertex 0.02990606349098836 0.01444064887710313 0.009999999999999972
    vertex 0.03017276532741668 0.01083048665782734 0.015
    vertex 0.03043946716384499 0.007220324438551563 0.01000000000000003
  endloop
endfacet
facet normal 0.997282 0.0736745 -1.04124e-15
  outer loop
    vertex 0.02990606349098836 0.01444064887710313 0
    vertex 0.03017276532741668 0.01083048665782734 0.005
    vertex 0.03043946716384499 0.007220324438551563 0
  endloop
endfacet
facet normal 0.997282 0.0736745 1.04124e-15
  outer loop
    vertex 0.03043946716384499 0.007220324438551563 0.01000000000000003
    vertex 0.03017276532741668 0.01083048665782734 0.005
    vertex 0.02990606349098836 0.01444064887710313 0.009999999999999972
  endloop
endfacet
facet normal 0.997282 0.0736745 1.04124e-15
  outer loop
    vertex 0.03043946716384499 0.007220324438551563 0.02
    vertex 0.03017276532741668 0.01083048665782734 0.015
    vertex 0.02990606349098836 0.01444064887710313 0.02
  endloop
endfacet
facet normal 0.997282 0.0736745 0
  outer loop
    vertex 0.02990606349098836 0.01444064887710313 0.009999999999999972
    vertex 0.03017276532741668 0.01083048665782734 0.005
    vertex 0.02990606349098836 0.01444064887710313 0
  endloop
endfacet
facet normal 0.997282 0.0736745 0
  outer loop
    vertex 0.02990606349098836 0.01444064887710313 0.02
    vertex 0.03017276532741668 0.01083048665782734 0.015
    vertex 0.02990606349098836 0.01444064887710313 0.009999999999999972
  endloop
endfacet
facet normal 0.997282 0.0736745 -0
  outer loop
    vertex 0.03043946716384499 0.007220324438551563 0
    vertex 0.03017276532741668 0.01083048665782734 0.005
    vertex 0.03043946716384499 0.007220324438551563 0.01000000000000003
  endloop
endfacet
facet normal 0.997282 0.0736745 -0
  outer loop
    vertex 0.03043946716384499 0.007220324438551563 0.01000000000000003
    vertex 0.03017276532741668 0.01083048665782734 0.015
    vertex 0.03043946716384499 0.007220324438551563 0.02
  endloop
endfacet
endsolid Created by Gmsh
