solid Created by Gmsh
facet normal 0.994423 -0.105461 2.14873e-16
  outer loop
    vertex 0.009246200937966815 0.01175074917622466 0
    vertex 0.008934650703475107 0.008813061882168481 0.01150917192549166
    vertex 0.008 0 0
  endloop
endfacet
facet normal 0.994423 -0.105461 -8.40806e-17
  outer loop
    vertex 0.01298480375186725 0.04700299670489863 0.02
    vertex 0.01329635398635896 0.04994068399895481 0.008490828074508343
    vertex 0.01423100468983407 0.0587537458811233 0.02
  endloop
endfacet
facet normal 0.994423 -0.105461 0
  outer loop
    vertex 0.01423100468983407 0.0587537458811233 0.009999999999999972
    vertex 0.01329635398635896 0.04994068399895481 0.008490828074508343
    vertex 0.01423100468983407 0.0587537458811233 0
  endloop
endfacet
facet normal 0.994423 -0.105461 0
  outer loop
    vertex 0.008 0 0.01000000000000003
    vertex 0.008934650703475107 0.008813061882168481 0.01150917192549166
    vertex 0.008 0 0.02
  endloop
endfacet
facet normal 0.994423 -0.105461 2.70151e-16
  outer loop
    vertex 0.01423100468983407 0.0587537458811233 0
    vertex 0.01329635398635896 0.04994068399895481 0.008490828074508343
    vertex 0.01298480375186726 0.04700299670489868 0
  endloop
endfacet
facet normal 0.994423 -0.105461 -1.35075e-16
  outer loop
    vertex 0.008 0 0.02
    vertex 0.008934650703475107 0.008813061882168481 0.01150917192549166
    vertex 0.009246200937966808 0.01175074917622462 0.02
  endloop
endfacet
facet normal 0.994423 -0.105461 1.10744e-16
  outer loop
    vertex 0.01049240187593363 0.02350149835244935 0
    vertex 0.01111550234491703 0.02937687294056165 0.01
    vertex 0.00992122644603217 0.01811573831334635 0.01025152865424861
  endloop
endfacet
facet normal 0.994423 -0.105461 -6.82133e-17
  outer loop
    vertex 0.00992122644603217 0.01811573831334635 0.01025152865424861
    vertex 0.01111550234491703 0.02937687294056165 0.01
    vertex 0.01049240187593362 0.0235014983524493 0.02
  endloop
endfacet
facet normal 0.994423 -0.105461 1.25861e-16
  outer loop
    vertex 0.01049240187593363 0.02350149835244935 0
    vertex 0.00992122644603217 0.01811573831334635 0.01025152865424861
    vertex 0.009246200937966815 0.01175074917622466 0
  endloop
endfacet
facet normal 0.994423 -0.105461 -2.94123e-17
  outer loop
    vertex 0.009246200937966808 0.01175074917622462 0.02
    vertex 0.00992122644603217 0.01811573831334635 0.01025152865424861
    vertex 0.01049240187593362 0.0235014983524493 0.02
  endloop
endfacet
facet normal 0.994423 -0.105461 -9.78916e-17
  outer loop
    vertex 0.01173860281390044 0.03525224752867395 0.02
    vertex 0.0123097782438019 0.04063800756777695 0.009748471345751387
    vertex 0.01298480375186725 0.04700299670489863 0.02
  endloop
endfacet
facet normal 0.994423 -0.105461 2.20593e-16
  outer loop
    vertex 0.01298480375186726 0.04700299670489868 0
    vertex 0.0123097782438019 0.04063800756777695 0.009748471345751387
    vertex 0.01173860281390044 0.03525224752867399 0
  endloop
endfacet
facet normal 0.994423 -0.105461 -1.36195e-16
  outer loop
    vertex 0.01049240187593362 0.0235014983524493 0.02
    vertex 0.01111550234491703 0.02937687294056165 0.01
    vertex 0.01173860281390044 0.03525224752867395 0.02
  endloop
endfacet
facet normal 0.994423 -0.105461 -1.40275e-16
  outer loop
    vertex 0.01173860281390044 0.03525224752867395 0.02
    vertex 0.01111550234491703 0.02937687294056165 0.01
    vertex 0.0123097782438019 0.04063800756777695 0.009748471345751387
  endloop
endfacet
facet normal 0.994423 -0.105461 2.27378e-16
  outer loop
    vertex 0.0123097782438019 0.04063800756777695 0.009748471345751387
    vertex 0.01111550234491703 0.02937687294056165 0.01
    vertex 0.01173860281390044 0.03525224752867399 0
  endloop
endfacet
facet normal 0.994423 -0.105461 1.9354e-16
  outer loop
    vertex 0.01173860281390044 0.03525224752867399 0
    vertex 0.01111550234491703 0.02937687294056165 0.01
    vertex 0.01049240187593363 0.02350149835244935 0
  endloop
endfacet
facet normal 0.994423 -0.105461 2.20006e-16
  outer loop
    vertex 0.00992122644603217 0.01811573831334635 0.01025152865424861
    vertex 0.008934650703475107 0.008813061882168481 0.01150917192549166
    vertex 0.009246200937966815 0.01175074917622466 0
  endloop
endfacet
facet normal 0.994423 -0.105461 -6.51869e-17
  outer loop
    vertex 0.0123097782438019 0.04063800756777695 0.009748471345751387
    vertex 0.01329635398635896 0.04994068399895481 0.008490828074508343
    vertex 0.01298480375186725 0.04700299670489863 0.02
  endloop
endfacet
facet normal 0.994423 -0.105461 2.80152e-16
  outer loop
    vertex 0.01298480375186726 0.04700299670489868 0
    vertex 0.01329635398635896 0.04994068399895481 0.008490828074508343
    vertex 0.0123097782438019 0.04063800756777695 0.009748471345751387
  endloop
endfacet
facet normal 0.994423 -0.105461 -7.13114e-17
  outer loop
    vertex 0.009246200937966808 0.01175074917622462 0.02
    vertex 0.008934650703475107 0.008813061882168481 0.01150917192549166
    vertex 0.00992122644603217 0.01811573831334635 0.01025152865424861
  endloop
endfacet
facet normal 0.994423 -0.105461 0
  outer loop
    vertex 0.008 0 0
    vertex 0.008934650703475107 0.008813061882168481 0.01150917192549166
    vertex 0.008 0 0.01000000000000003
  endloop
endfacet
facet normal 0.994423 -0.105461 0
  outer loop
    vertex 0.01423100468983407 0.0587537458811233 0.02
    vertex 0.01329635398635896 0.04994068399895481 0.008490828074508343
    vertex 0.01423100468983407 0.0587537458811233 0.009999999999999972
  endloop
endfacet
endsolid Created by Gmsh
