solid Created by Gmsh
facet normal -0.998373 0.0570274 7.34741e-16
  outer loop
    vertex 0.03661136417767968 0.04511748181311778 0.02
    vertex 0.03697952512317514 0.0515628363578489 0.02
    vertex 0.03679544465042741 0.04834015908548334 0.015
  endloop
endfacet
facet normal -0.998373 0.0570274 7.34741e-16
  outer loop
    vertex 0.03661136417767968 0.04511748181311778 0.01000000000000003
    vertex 0.03697952512317514 0.0515628363578489 0.009999999999999972
    vertex 0.03679544465042741 0.04834015908548334 0.004999999999999999
  endloop
endfacet
facet normal -0.998373 0.0570274 -7.34741e-16
  outer loop
    vertex 0.03697952512317514 0.0515628363578489 0
    vertex 0.03661136417767968 0.04511748181311778 0
    vertex 0.03679544465042741 0.04834015908548334 0.004999999999999999
  endloop
endfacet
facet normal -0.998373 0.0570274 -7.34741e-16
  outer loop
    vertex 0.03697952512317514 0.0515628363578489 0.009999999999999972
    vertex 0.03661136417767968 0.04511748181311778 0.01000000000000003
    vertex 0.03679544465042741 0.04834015908548334 0.015
  endloop
endfacet
facet normal -0.998373 0.0570274 0
  outer loop
    vertex 0.03697952512317514 0.0515628363578489 0.009999999999999972
    vertex 0.03697952512317514 0.0515628363578489 0
    vertex 0.03679544465042741 0.04834015908548334 0.004999999999999999
  endloop
endfacet
facet normal -0.998373 0.0570274 0
  outer loop
    vertex 0.03697952512317514 0.0515628363578489 0.02
    vertex 0.03697952512317514 0.0515628363578489 0.009999999999999972
    vertex 0.03679544465042741 0.04834015908548334 0.015
  endloop
endfacet
facet normal -0.998373 0.0570274 0
  outer loop
    vertex 0.03661136417767968 0.04511748181311778 0
    vertex 0.03661136417767968 0.04511748181311778 0.01000000000000003
    vertex 0.03679544465042741 0.04834015908548334 0.004999999999999999
  endloop
endfacet
facet normal -0.998373 0.0570274 0
  outer loop
    vertex 0.03661136417767968 0.04511748181311778 0.01000000000000003
    vertex 0.03661136417767968 0.04511748181311778 0.02
    vertex 0.03679544465042741 0.04834015908548334 0.015
  endloop
endfacet
facet normal -0.277431 0.960745 1.8246e-16
  outer loop
    vertex 0.02545122961330101 0.04189480454075224 0
    vertex 0.01429109504892228 0.03867212726838667 0
    vertex 0.02302236349444631 0.04119342844231022 0.01118996553886769
  endloop
endfacet
facet normal -0.277431 0.960745 0
  outer loop
    vertex 0.01429109504892228 0.03867212726838667 0.01000000000000003
    vertex 0.01429109504892228 0.03867212726838667 0.02
    vertex 0.02302236349444631 0.04119342844231022 0.01118996553886769
  endloop
endfacet
facet normal -0.277431 0.960745 -5.95928e-16
  outer loop
    vertex 0.01429109504892228 0.03867212726838667 0.02
    vertex 0.02545122961330095 0.04189480454075222 0.02
    vertex 0.02302236349444631 0.04119342844231022 0.01118996553886769
  endloop
endfacet
facet normal -0.277431 0.960745 2.95961e-16
  outer loop
    vertex 0.03661136417767968 0.04511748181311778 0
    vertex 0.02545122961330101 0.04189480454075224 0
    vertex 0.02995924809390871 0.04319657098604483 0.00689862936818152
  endloop
endfacet
facet normal -0.277431 0.960745 -1.82443e-16
  outer loop
    vertex 0.02545122961330095 0.04189480454075222 0.02
    vertex 0.03661136417767968 0.04511748181311778 0.02
    vertex 0.03024186611520442 0.04327818171114287 0.01360513747423504
  endloop
endfacet
facet normal -0.277431 0.960745 0
  outer loop
    vertex 0.03661136417767968 0.04511748181311778 0.009999999999999972
    vertex 0.03661136417767968 0.04511748181311778 0
    vertex 0.02995924809390871 0.04319657098604483 0.00689862936818152
  endloop
endfacet
facet normal -0.277431 0.960745 1.63482e-16
  outer loop
    vertex 0.02545122961330101 0.04189480454075224 0
    vertex 0.02302236349444631 0.04119342844231022 0.01118996553886769
    vertex 0.02995924809390871 0.04319657098604483 0.00689862936818152
  endloop
endfacet
facet normal -0.277431 0.960745 0
  outer loop
    vertex 0.03661136417767968 0.04511748181311778 0.02
    vertex 0.03661136417767968 0.04511748181311778 0.009999999999999972
    vertex 0.03024186611520442 0.04327818171114287 0.01360513747423504
  endloop
endfacet
facet normal -0.277431 0.960745 -4.43245e-16
  outer loop
    vertex 0.02302236349444631 0.04119342844231022 0.01118996553886769
    vertex 0.03024186611520442 0.04327818171114287 0.01360513747423504
    vertex 0.02995924809390871 0.04319657098604483 0.00689862936818152
  endloop
endfacet
facet normal -0.277431 0.960745 -5.63777e-16
  outer loop
    vertex 0.02545122961330095 0.04189480454075222 0.02
    vertex 0.03024186611520442 0.04327818171114287 0.01360513747423504
    vertex 0.02302236349444631 0.04119342844231022 0.01118996553886769
  endloop
endfacet
facet normal -0.277431 0.960745 -4.39584e-16
  outer loop
    vertex 0.03024186611520442 0.04327818171114287 0.01360513747423504
    vertex 0.03661136417767968 0.04511748181311778 0.009999999999999972
    vertex 0.02995924809390871 0.04319657098604483 0.00689862936818152
  endloop
endfacet
facet normal -0.277431 0.960745 0
  outer loop
    vertex 0.01429109504892228 0.03867212726838667 0
    vertex 0.01429109504892228 0.03867212726838667 0.01000000000000003
    vertex 0.02302236349444631 0.04119342844231022 0.01118996553886769
  endloop
endfacet
facet normal -0.452119 -0.891958 1.09568e-15
  outer loop
    vertex 0.02064891543046218 0.03544944999602112 0.02
    vertex 0.01429109504892228 0.03867212726838667 0.02
    vertex 0.02051916399410422 0.03551521891994694 0.01244200958992784
  endloop
endfacet
facet normal -0.452119 -0.891958 1.06915e-15
  outer loop
    vertex 0.02700673581200209 0.03222677272365556 0.02
    vertex 0.02064891543046218 0.03544944999602112 0.02
    vertex 0.02051916399410422 0.03551521891994694 0.01244200958992784
  endloop
endfacet
facet normal -0.452119 -0.891958 -0
  outer loop
    vertex 0.01429109504892228 0.03867212726838667 0.02
    vertex 0.01429109504892228 0.03867212726838667 0.009999999999999972
    vertex 0.02051916399410422 0.03551521891994694 0.01244200958992784
  endloop
endfacet
facet normal -0.452119 -0.891958 0
  outer loop
    vertex 0.02700673581200209 0.03222677272365556 0.01000000000000003
    vertex 0.02700673581200209 0.03222677272365556 0.02
    vertex 0.02051916399410422 0.03551521891994694 0.01244200958992784
  endloop
endfacet
facet normal -0.452119 -0.891958 0
  outer loop
    vertex 0.02700673581200209 0.03222677272365556 0
    vertex 0.02700673581200209 0.03222677272365556 0.01000000000000003
    vertex 0.02255626154492416 0.03448264681431144 0.005262112932086191
  endloop
endfacet
facet normal -0.452119 -0.891958 -0
  outer loop
    vertex 0.01429109504892228 0.03867212726838667 0.009999999999999972
    vertex 0.01429109504892228 0.03867212726838667 0
    vertex 0.01797577104263855 0.03680442405118689 0.005275930869593258
  endloop
endfacet
facet normal -0.452119 -0.891958 -8.58143e-16
  outer loop
    vertex 0.02064891543046219 0.03544944999602111 0
    vertex 0.02700673581200209 0.03222677272365556 0
    vertex 0.02255626154492416 0.03448264681431144 0.005262112932086191
  endloop
endfacet
facet normal -0.452119 -0.891958 -4.95518e-16
  outer loop
    vertex 0.01429109504892228 0.03867212726838667 0
    vertex 0.02064891543046219 0.03544944999602111 0
    vertex 0.01797577104263855 0.03680442405118689 0.005275930869593258
  endloop
endfacet
facet normal -0.452119 -0.891958 -2.98903e-16
  outer loop
    vertex 0.02255626154492416 0.03448264681431144 0.005262112932086191
    vertex 0.02051916399410422 0.03551521891994694 0.01244200958992784
    vertex 0.01797577104263855 0.03680442405118689 0.005275930869593258
  endloop
endfacet
facet normal -0.452119 -0.891958 -6.26221e-16
  outer loop
    vertex 0.02064891543046219 0.03544944999602111 0
    vertex 0.02255626154492416 0.03448264681431144 0.005262112932086191
    vertex 0.01797577104263855 0.03680442405118689 0.005275930869593258
  endloop
endfacet
facet normal -0.452119 -0.891958 -3.93295e-17
  outer loop
    vertex 0.02051916399410422 0.03551521891994694 0.01244200958992784
    vertex 0.01429109504892228 0.03867212726838667 0.009999999999999972
    vertex 0.01797577104263855 0.03680442405118689 0.005275930869593258
  endloop
endfacet
facet normal -0.452119 -0.891958 1.45273e-16
  outer loop
    vertex 0.02255626154492416 0.03448264681431144 0.005262112932086191
    vertex 0.02700673581200209 0.03222677272365556 0.01000000000000003
    vertex 0.02051916399410422 0.03551521891994694 0.01244200958992784
  endloop
endfacet
facet normal -0.616677 0.787217 2.59335e-16
  outer loop
    vertex 0.01877893898213442 0.02578141817892445 0.02
    vertex 0.02700673581200209 0.03222677272365556 0.02
    vertex 0.02289283739706826 0.02900409545129001 0.01500000000000001
  endloop
endfacet
facet normal -0.616677 0.787217 -1.29667e-16
  outer loop
    vertex 0.02700673581200209 0.03222677272365556 0
    vertex 0.01877893898213442 0.02578141817892445 0
    vertex 0.02289283739706824 0.02900409545128999 0.005000000000000014
  endloop
endfacet
facet normal -0.616677 0.787217 0
  outer loop
    vertex 0.02700673581200209 0.03222677272365556 0.02
    vertex 0.02700673581200209 0.03222677272365556 0.009999999999999972
    vertex 0.02289283739706826 0.02900409545129001 0.01500000000000001
  endloop
endfacet
facet normal -0.616677 0.787217 0
  outer loop
    vertex 0.01877893898213442 0.02578141817892445 0
    vertex 0.01877893898213442 0.02578141817892445 0.01000000000000003
    vertex 0.02289283739706824 0.02900409545128999 0.005000000000000014
  endloop
endfacet
facet normal -0.616677 0.787217 -8.1887e-17
  outer loop
    vertex 0.02289283739706826 0.02900409545129001 0.01500000000000001
    vertex 0.02700673581200209 0.03222677272365556 0.009999999999999972
    vertex 0.02289283739706824 0.02900409545128999 0.005000000000000014
  endloop
endfacet
facet normal -0.616677 0.787217 -9.72506e-17
  outer loop
    vertex 0.01877893898213442 0.02578141817892445 0.01000000000000003
    vertex 0.02289283739706826 0.02900409545129001 0.01500000000000001
    vertex 0.02289283739706824 0.02900409545128999 0.005000000000000014
  endloop
endfacet
facet normal -0.616677 0.787217 0
  outer loop
    vertex 0.02700673581200209 0.03222677272365556 0.009999999999999972
    vertex 0.02700673581200209 0.03222677272365556 0
    vertex 0.02289283739706824 0.02900409545128999 0.005000000000000014
  endloop
endfacet
facet normal -0.616677 0.787217 0
  outer loop
    vertex 0.01877893898213442 0.02578141817892445 0.01000000000000003
    vertex 0.01877893898213442 0.02578141817892445 0.02
    vertex 0.02289283739706826 0.02900409545129001 0.01500000000000001
  endloop
endfacet
facet normal -0.912535 -0.408999 -1.43908e-16
  outer loop
    vertex 0.02166774941432404 0.01933606363419334 0.02
    vertex 0.01877893898213442 0.02578141817892445 0.02
    vertex 0.02022334419822923 0.02255874090655889 0.015
  endloop
endfacet
facet normal -0.912535 -0.408999 -1.43908e-16
  outer loop
    vertex 0.02166774941432404 0.01933606363419334 0.01000000000000003
    vertex 0.01877893898213442 0.02578141817892445 0.009999999999999972
    vertex 0.02022334419822923 0.02255874090655889 0.005
  endloop
endfacet
facet normal -0.912535 -0.408999 1.43908e-16
  outer loop
    vertex 0.01877893898213442 0.02578141817892445 0
    vertex 0.02166774941432404 0.01933606363419334 0
    vertex 0.02022334419822923 0.02255874090655889 0.005
  endloop
endfacet
facet normal -0.912535 -0.408999 1.43908e-16
  outer loop
    vertex 0.01877893898213442 0.02578141817892445 0.009999999999999972
    vertex 0.02166774941432404 0.01933606363419334 0.01000000000000003
    vertex 0.02022334419822923 0.02255874090655889 0.015
  endloop
endfacet
facet normal -0.912535 -0.408999 -0
  outer loop
    vertex 0.01877893898213442 0.02578141817892445 0.009999999999999972
    vertex 0.01877893898213442 0.02578141817892445 0
    vertex 0.02022334419822923 0.02255874090655889 0.005
  endloop
endfacet
facet normal -0.912535 -0.408999 -0
  outer loop
    vertex 0.01877893898213442 0.02578141817892445 0.02
    vertex 0.01877893898213442 0.02578141817892445 0.009999999999999972
    vertex 0.02022334419822923 0.02255874090655889 0.015
  endloop
endfacet
facet normal -0.912535 -0.408999 0
  outer loop
    vertex 0.02166774941432404 0.01933606363419334 0
    vertex 0.02166774941432404 0.01933606363419334 0.01000000000000003
    vertex 0.02022334419822923 0.02255874090655889 0.005
  endloop
endfacet
facet normal -0.912535 -0.408999 0
  outer loop
    vertex 0.02166774941432404 0.01933606363419334 0.01000000000000003
    vertex 0.02166774941432404 0.01933606363419334 0.02
    vertex 0.02022334419822923 0.02255874090655889 0.015
  endloop
endfacet
facet normal -0.687383 0.726295 0
  outer loop
    vertex 0.02166774941432404 0.01933606363419334 0.02
    vertex 0.02166774941432404 0.01933606363419334 0.009999999999999972
    vertex 0.01826263624740238 0.01611338636182778 0.015
  endloop
endfacet
facet normal -0.687383 0.726295 0
  outer loop
    vertex 0.01485752308048072 0.01289070908946222 0
    vertex 0.01485752308048072 0.01289070908946222 0.01000000000000003
    vertex 0.01826263624740238 0.01611338636182778 0.004999999999999999
  endloop
endfacet
facet normal -0.687383 0.726295 0
  outer loop
    vertex 0.02166774941432404 0.01933606363419334 0.009999999999999972
    vertex 0.02166774941432404 0.01933606363419334 0
    vertex 0.01826263624740238 0.01611338636182778 0.004999999999999999
  endloop
endfacet
facet normal -0.687383 0.726295 0
  outer loop
    vertex 0.01485752308048072 0.01289070908946222 0.01000000000000003
    vertex 0.01485752308048072 0.01289070908946222 0.02
    vertex 0.01826263624740238 0.01611338636182778 0.015
  endloop
endfacet
facet normal -0.687383 0.726295 0
  outer loop
    vertex 0.01485752308048072 0.01289070908946222 0.01000000000000003
    vertex 0.02166774941432404 0.01933606363419334 0.009999999999999972
    vertex 0.01826263624740238 0.01611338636182778 0.004999999999999999
  endloop
endfacet
facet normal -0.687383 0.726295 0
  outer loop
    vertex 0.01485752308048072 0.01289070908946222 0.02
    vertex 0.02166774941432404 0.01933606363419334 0.02
    vertex 0.01826263624740238 0.01611338636182778 0.015
  endloop
endfacet
facet normal -0.687383 0.726295 0
  outer loop
    vertex 0.02166774941432404 0.01933606363419334 0.009999999999999972
    vertex 0.01485752308048072 0.01289070908946222 0.01000000000000003
    vertex 0.01826263624740238 0.01611338636182778 0.015
  endloop
endfacet
facet normal -0.687383 0.726295 0
  outer loop
    vertex 0.02166774941432404 0.01933606363419334 0
    vertex 0.01485752308048072 0.01289070908946222 0
    vertex 0.01826263624740238 0.01611338636182778 0.004999999999999999
  endloop
endfacet
facet normal -0.530333 -0.84779 0
  outer loop
    vertex 0.02516106418195329 0.006445354544731115 0.01000000000000003
    vertex 0.020009293631217 0.009668031817096669 0.02
    vertex 0.01485752308048072 0.01289070908946222 0.009999999999999972
  endloop
endfacet
facet normal -0.530333 -0.84779 0
  outer loop
    vertex 0.020009293631217 0.009668031817096669 0
    vertex 0.02516106418195329 0.006445354544731115 0.01000000000000003
    vertex 0.01485752308048072 0.01289070908946222 0.009999999999999972
  endloop
endfacet
facet normal -0.530333 -0.84779 0
  outer loop
    vertex 0.020009293631217 0.009668031817096669 0
    vertex 0.01485752308048072 0.01289070908946222 0.009999999999999972
    vertex 0.01485752308048072 0.01289070908946222 0
  endloop
endfacet
facet normal -0.530333 -0.84779 0
  outer loop
    vertex 0.01485752308048072 0.01289070908946222 0.009999999999999972
    vertex 0.020009293631217 0.009668031817096669 0.02
    vertex 0.01485752308048072 0.01289070908946222 0.02
  endloop
endfacet
facet normal -0.530333 -0.84779 -0
  outer loop
    vertex 0.02516106418195329 0.006445354544731115 0.01000000000000003
    vertex 0.020009293631217 0.009668031817096669 0
    vertex 0.02516106418195329 0.006445354544731115 0
  endloop
endfacet
facet normal -0.530333 -0.84779 0
  outer loop
    vertex 0.020009293631217 0.009668031817096669 0.02
    vertex 0.02516106418195329 0.006445354544731115 0.01000000000000003
    vertex 0.02516106418195329 0.006445354544731115 0.02
  endloop
endfacet
endsolid Created by Gmsh
