solid Created by Gmsh
facet normal 0.995169 -0.0981782 1.31728e-16
  outer loop
    vertex 0.01021975930029591 0.0225002650169561 0
    vertex 0.009711384074544116 0.01734719400338028 0.009669668509995911
    vertex 0.009109879650147954 0.01125013250847805 0
  endloop
endfacet
facet normal 0.995169 -0.0981782 -1.15421e-16
  outer loop
    vertex 0.01132963895044387 0.0337503975254342 0.02
    vertex 0.01183789072089915 0.03890221715247962 0.01026257562777444
    vertex 0.01243951860059182 0.04500053003391226 0.02
  endloop
endfacet
facet normal 0.995169 -0.0981782 -2.02112e-16
  outer loop
    vertex 0.01132963895044387 0.0337503975254342 0.02
    vertex 0.01077467854948714 0.02812512270677342 0.009988707356295057
    vertex 0.01183789072089915 0.03890221715247962 0.01026257562777444
  endloop
endfacet
facet normal 0.995169 -0.0981782 -2.09559e-16
  outer loop
    vertex 0.01021975930029591 0.02250026501695615 0.02
    vertex 0.01077467854948714 0.02812512270677342 0.009988707356295057
    vertex 0.01132963895044387 0.0337503975254342 0.02
  endloop
endfacet
facet normal 0.995169 -0.0981782 0
  outer loop
    vertex 0.01354939825073978 0.05625066254239031 0.02
    vertex 0.01271470046384317 0.04778987068458092 0.01177872135333558
    vertex 0.01354939825073978 0.05625066254239031 0.009999999999999972
  endloop
endfacet
facet normal 0.995169 -0.0981782 0
  outer loop
    vertex 0.008 0 0
    vertex 0.008834697786896599 0.008460791857809378 0.008221278646664429
    vertex 0.008 0 0.01000000000000003
  endloop
endfacet
facet normal 0.995169 -0.0981782 2.05061e-16
  outer loop
    vertex 0.009109879650147954 0.01125013250847805 0
    vertex 0.008834697786896599 0.008460791857809378 0.008221278646664429
    vertex 0.008 0 0
  endloop
endfacet
facet normal 0.995169 -0.0981782 -5.92398e-17
  outer loop
    vertex 0.01243951860059182 0.04500053003391226 0.02
    vertex 0.01271470046384317 0.04778987068458092 0.01177872135333558
    vertex 0.01354939825073978 0.05625066254239031 0.02
  endloop
endfacet
facet normal 0.995169 -0.0981782 1.19438e-16
  outer loop
    vertex 0.01021975930029591 0.0225002650169561 0
    vertex 0.01077467854948714 0.02812512270677342 0.009988707356295057
    vertex 0.009711384074544116 0.01734719400338028 0.009669668509995911
  endloop
endfacet
facet normal 0.995169 -0.0981782 -1.53687e-16
  outer loop
    vertex 0.009711384074544116 0.01734719400338028 0.009669668509995911
    vertex 0.01077467854948714 0.02812512270677342 0.009988707356295057
    vertex 0.01021975930029591 0.02250026501695615 0.02
  endloop
endfacet
facet normal 0.995169 -0.0981782 8.5314e-17
  outer loop
    vertex 0.01243951860059182 0.04500053003391225 0
    vertex 0.01306325389147864 0.05132293145081845 0.005444680338333886
    vertex 0.01271470046384317 0.04778987068458092 0.01177872135333558
  endloop
endfacet
facet normal 0.995169 -0.0981782 -9.24235e-17
  outer loop
    vertex 0.009109879650147954 0.01125013250847805 0.02
    vertex 0.008486144359261137 0.004927731091571859 0.01455531966166611
    vertex 0.008834697786896599 0.008460791857809378 0.008221278646664429
  endloop
endfacet
facet normal 0.995169 -0.0981782 1.62119e-16
  outer loop
    vertex 0.01183789072089915 0.03890221715247962 0.01026257562777444
    vertex 0.01077467854948714 0.02812512270677342 0.009988707356295057
    vertex 0.01132963895044386 0.03375039752543416 0
  endloop
endfacet
facet normal 0.995169 -0.0981782 1.72527e-16
  outer loop
    vertex 0.01132963895044386 0.03375039752543416 0
    vertex 0.01077467854948714 0.02812512270677342 0.009988707356295057
    vertex 0.01021975930029591 0.0225002650169561 0
  endloop
endfacet
facet normal 0.995169 -0.0981782 1.16816e-16
  outer loop
    vertex 0.01243951860059182 0.04500053003391225 0
    vertex 0.01183789072089915 0.03890221715247962 0.01026257562777444
    vertex 0.01132963895044386 0.03375039752543416 0
  endloop
endfacet
facet normal 0.995169 -0.0981782 -1.30556e-16
  outer loop
    vertex 0.009109879650147954 0.01125013250847805 0.02
    vertex 0.009711384074544116 0.01734719400338028 0.009669668509995911
    vertex 0.01021975930029591 0.02250026501695615 0.02
  endloop
endfacet
facet normal 0.995169 -0.0981782 1.09085e-16
  outer loop
    vertex 0.01243951860059182 0.04500053003391225 0
    vertex 0.01271470046384317 0.04778987068458092 0.01177872135333558
    vertex 0.01183789072089915 0.03890221715247962 0.01026257562777444
  endloop
endfacet
facet normal 0.995169 -0.0981782 -1.08896e-16
  outer loop
    vertex 0.009109879650147954 0.01125013250847805 0.02
    vertex 0.008834697786896599 0.008460791857809378 0.008221278646664429
    vertex 0.009711384074544116 0.01734719400338028 0.009669668509995911
  endloop
endfacet
facet normal 0.995169 -0.0981782 8.25692e-17
  outer loop
    vertex 0.01354939825073978 0.05625066254239031 0
    vertex 0.01306325389147864 0.05132293145081845 0.005444680338333886
    vertex 0.01243951860059182 0.04500053003391225 0
  endloop
endfacet
facet normal 0.995169 -0.0981782 -2.33946e-16
  outer loop
    vertex 0.008 0 0.02
    vertex 0.008486144359261137 0.004927731091571859 0.01455531966166611
    vertex 0.009109879650147954 0.01125013250847805 0.02
  endloop
endfacet
facet normal 0.995169 -0.0981782 1.74935e-16
  outer loop
    vertex 0.009711384074544116 0.01734719400338028 0.009669668509995911
    vertex 0.008834697786896599 0.008460791857809378 0.008221278646664429
    vertex 0.009109879650147954 0.01125013250847805 0
  endloop
endfacet
facet normal 0.995169 -0.0981782 -5.45262e-17
  outer loop
    vertex 0.01183789072089915 0.03890221715247962 0.01026257562777444
    vertex 0.01271470046384317 0.04778987068458092 0.01177872135333558
    vertex 0.01243951860059182 0.04500053003391226 0.02
  endloop
endfacet
facet normal 0.995169 -0.0981782 0
  outer loop
    vertex 0.01354939825073978 0.05625066254239031 0.009999999999999972
    vertex 0.01306325389147864 0.05132293145081845 0.005444680338333886
    vertex 0.01354939825073978 0.05625066254239031 0
  endloop
endfacet
facet normal 0.995169 -0.0981782 0
  outer loop
    vertex 0.008 0 0.01000000000000003
    vertex 0.008486144359261137 0.004927731091571859 0.01455531966166611
    vertex 0.008 0 0.02
  endloop
endfacet
facet normal 0.995169 -0.0981782 2.6728e-17
  outer loop
    vertex 0.01271470046384317 0.04778987068458092 0.01177872135333558
    vertex 0.01306325389147864 0.05132293145081845 0.005444680338333886
    vertex 0.01354939825073978 0.05625066254239031 0.009999999999999972
  endloop
endfacet
facet normal 0.995169 -0.0981782 8.01839e-17
  outer loop
    vertex 0.008834697786896599 0.008460791857809378 0.008221278646664429
    vertex 0.008486144359261137 0.004927731091571859 0.01455531966166611
    vertex 0.008 0 0.01000000000000003
  endloop
endfacet
endsolid Created by Gmsh
