solid Created by Gmsh
facet normal 0.993838 -0.110846 -8.2986e-17
  outer loop
    vertex 0.01298219914263445 0.04467004922369224 0.02
    vertex 0.01329015352400178 0.04743114667895304 0.008191420036256631
    vertex 0.01422774892829306 0.05583756152961532 0.02
  endloop
endfacet
facet normal 0.993838 -0.110846 1.44691e-17
  outer loop
    vertex 0.01049109957131723 0.02233502461184615 0
    vertex 0.009733357497434997 0.01554116214867618 0.01041954257009862
    vertex 0.009245549785658613 0.01116751230592308 0
  endloop
endfacet
facet normal 0.993838 -0.110846 -3.90325e-17
  outer loop
    vertex 0.01298219914263445 0.04467004922369228 0
    vertex 0.01230695416456148 0.03861584995444726 0.00965613299844839
    vertex 0.01173664935697584 0.03350253691776921 0
  endloop
endfacet
facet normal 0.993838 -0.110846 9.81185e-17
  outer loop
    vertex 0.01049109957131722 0.02233502461184611 0.02
    vertex 0.01108263491976377 0.02763868919372568 0.01001261259475784
    vertex 0.01173664935697583 0.03350253691776918 0.02
  endloop
endfacet
facet normal 0.993838 -0.110846 0
  outer loop
    vertex 0.01422774892829306 0.05583756152961532 0.009999999999999972
    vertex 0.01329015352400178 0.04743114667895304 0.008191420036256631
    vertex 0.01422774892829306 0.05583756152961532 0
  endloop
endfacet
facet normal 0.993838 -0.110846 0
  outer loop
    vertex 0.008 0 0
    vertex 0.008780404570190239 0.006997052820806957 0.007400340377515986
    vertex 0.008 0 0.01000000000000003
  endloop
endfacet
facet normal 0.993838 -0.110846 5.4625e-17
  outer loop
    vertex 0.01049109957131723 0.02233502461184615 0
    vertex 0.01108263491976377 0.02763868919372568 0.01001261259475784
    vertex 0.009733357497434997 0.01554116214867618 0.01041954257009862
  endloop
endfacet
facet normal 0.993838 -0.110846 -2.34228e-17
  outer loop
    vertex 0.01230695416456148 0.03861584995444726 0.00965613299844839
    vertex 0.01108263491976377 0.02763868919372568 0.01001261259475784
    vertex 0.01173664935697584 0.03350253691776921 0
  endloop
endfacet
facet normal 0.993838 -0.110846 4.25644e-17
  outer loop
    vertex 0.009733357497434997 0.01554116214867618 0.01041954257009862
    vertex 0.01108263491976377 0.02763868919372568 0.01001261259475784
    vertex 0.01049109957131722 0.02233502461184611 0.02
  endloop
endfacet
facet normal 0.993838 -0.110846 1.54463e-16
  outer loop
    vertex 0.01173664935697583 0.03350253691776918 0.02
    vertex 0.01108263491976377 0.02763868919372568 0.01001261259475784
    vertex 0.01230695416456148 0.03861584995444726 0.00965613299844839
  endloop
endfacet
facet normal 0.993838 -0.110846 9.20238e-17
  outer loop
    vertex 0.01422774892829306 0.05583756152961532 0
    vertex 0.01329015352400178 0.04743114667895304 0.008191420036256631
    vertex 0.01298219914263445 0.04467004922369228 0
  endloop
endfacet
facet normal 0.993838 -0.110846 -8.14887e-17
  outer loop
    vertex 0.009245549785658613 0.01116751230592308 0
    vertex 0.008780404570190239 0.006997052820806957 0.007400340377515986
    vertex 0.008 0 0
  endloop
endfacet
facet normal 0.993838 -0.110846 1.50571e-17
  outer loop
    vertex 0.01173664935697584 0.03350253691776921 0
    vertex 0.01108263491976377 0.02763868919372568 0.01001261259475784
    vertex 0.01049109957131723 0.02233502461184615 0
  endloop
endfacet
facet normal 0.993838 -0.110846 1.57363e-17
  outer loop
    vertex 0.00924554978565861 0.01116751230592305 0.02
    vertex 0.009733357497434997 0.01554116214867618 0.01041954257009862
    vertex 0.01049109957131722 0.02233502461184611 0.02
  endloop
endfacet
facet normal 0.993838 -0.110846 8.74496e-17
  outer loop
    vertex 0.01173664935697583 0.03350253691776918 0.02
    vertex 0.01230695416456148 0.03861584995444726 0.00965613299844839
    vertex 0.01298219914263445 0.04467004922369224 0.02
  endloop
endfacet
facet normal 0.993838 -0.110846 -1.28763e-16
  outer loop
    vertex 0.009733357497434997 0.01554116214867618 0.01041954257009862
    vertex 0.008645991415014022 0.005791913867878917 0.01462619132380335
    vertex 0.008780404570190239 0.006997052820806957 0.007400340377515986
  endloop
endfacet
facet normal 0.993838 -0.110846 -6.73101e-17
  outer loop
    vertex 0.01230695416456148 0.03861584995444726 0.00965613299844839
    vertex 0.01329015352400178 0.04743114667895304 0.008191420036256631
    vertex 0.01298219914263445 0.04467004922369224 0.02
  endloop
endfacet
facet normal 0.993838 -0.110846 1.01012e-16
  outer loop
    vertex 0.00924554978565861 0.01116751230592305 0.02
    vertex 0.008645991415014022 0.005791913867878917 0.01462619132380335
    vertex 0.009733357497434997 0.01554116214867618 0.01041954257009862
  endloop
endfacet
facet normal 0.993838 -0.110846 2.66521e-16
  outer loop
    vertex 0.008 0 0.02
    vertex 0.008645991415014022 0.005791913867878917 0.01462619132380335
    vertex 0.00924554978565861 0.01116751230592305 0.02
  endloop
endfacet
facet normal 0.993838 -0.110846 4.41584e-17
  outer loop
    vertex 0.01298219914263445 0.04467004922369228 0
    vertex 0.01329015352400178 0.04743114667895304 0.008191420036256631
    vertex 0.01230695416456148 0.03861584995444726 0.00965613299844839
  endloop
endfacet
facet normal 0.993838 -0.110846 -6.6616e-17
  outer loop
    vertex 0.009733357497434997 0.01554116214867618 0.01041954257009862
    vertex 0.008780404570190239 0.006997052820806957 0.007400340377515986
    vertex 0.009245549785658613 0.01116751230592308 0
  endloop
endfacet
facet normal 0.993838 -0.110846 0
  outer loop
    vertex 0.008 0 0.01000000000000003
    vertex 0.008645991415014022 0.005791913867878917 0.01462619132380335
    vertex 0.008 0 0.02
  endloop
endfacet
facet normal 0.993838 -0.110846 -1.5531e-16
  outer loop
    vertex 0.008780404570190239 0.006997052820806957 0.007400340377515986
    vertex 0.008645991415014022 0.005791913867878917 0.01462619132380335
    vertex 0.008 0 0.01000000000000003
  endloop
endfacet
facet normal 0.993838 -0.110846 0
  outer loop
    vertex 0.01422774892829306 0.05583756152961532 0.02
    vertex 0.01329015352400178 0.04743114667895304 0.008191420036256631
    vertex 0.01422774892829306 0.05583756152961532 0.009999999999999972
  endloop
endfacet
endsolid Created by Gmsh
