solid Created by Gmsh
facet normal -0.671724 -0.740801 -0
  outer loop
    vertex 0.03595886112459785 0.05184371858725414 0.02
    vertex 0.03595886112459785 0.05184371858725414 0.009999999999999972
    vertex 0.03953230456200287 0.04860348617555076 0.015
  endloop
endfacet
facet normal -0.671724 -0.740801 0
  outer loop
    vertex 0.04310574799940788 0.04536325376384737 0
    vertex 0.04310574799940788 0.04536325376384737 0.01000000000000003
    vertex 0.03953230456200287 0.04860348617555076 0.005
  endloop
endfacet
facet normal -0.671724 -0.740801 -0
  outer loop
    vertex 0.03595886112459785 0.05184371858725414 0.009999999999999972
    vertex 0.03595886112459785 0.05184371858725414 0
    vertex 0.03953230456200287 0.04860348617555076 0.005
  endloop
endfacet
facet normal -0.671724 -0.740801 0
  outer loop
    vertex 0.04310574799940788 0.04536325376384737 0.01000000000000003
    vertex 0.04310574799940788 0.04536325376384737 0.02
    vertex 0.03953230456200287 0.04860348617555076 0.015
  endloop
endfacet
facet normal -0.671724 -0.740801 -4.91669e-16
  outer loop
    vertex 0.03595886112459785 0.05184371858725414 0
    vertex 0.04310574799940788 0.04536325376384737 0
    vertex 0.03953230456200287 0.04860348617555076 0.005
  endloop
endfacet
facet normal -0.671724 -0.740801 4.91669e-16
  outer loop
    vertex 0.04310574799940788 0.04536325376384737 0.02
    vertex 0.03595886112459785 0.05184371858725414 0.02
    vertex 0.03953230456200287 0.04860348617555076 0.015
  endloop
endfacet
facet normal -0.671724 -0.740801 4.91669e-16
  outer loop
    vertex 0.04310574799940788 0.04536325376384737 0.01000000000000003
    vertex 0.03595886112459785 0.05184371858725414 0.009999999999999972
    vertex 0.03953230456200287 0.04860348617555076 0.005
  endloop
endfacet
facet normal -0.671724 -0.740801 -4.91669e-16
  outer loop
    vertex 0.03595886112459785 0.05184371858725414 0.009999999999999972
    vertex 0.04310574799940788 0.04536325376384737 0.01000000000000003
    vertex 0.03953230456200287 0.04860348617555076 0.015
  endloop
endfacet
facet normal -0.569452 0.822025 5.24552e-16
  outer loop
    vertex 0.04310574799940788 0.04536325376384737 0
    vertex 0.03375095857559911 0.0388827889404406 0
    vertex 0.0384283532875035 0.04212302135214398 0.005675738850308962
  endloop
endfacet
facet normal -0.569452 0.822025 -4.67719e-16
  outer loop
    vertex 0.03375095857559911 0.0388827889404406 0.02
    vertex 0.04310574799940788 0.04536325376384737 0.02
    vertex 0.0384283532875035 0.04212302135214398 0.01427113702623907
  endloop
endfacet
facet normal -0.569452 0.822025 0
  outer loop
    vertex 0.03375095857559911 0.0388827889404406 0.01000000000000003
    vertex 0.0384283532875035 0.04212302135214398 0.01427113702623907
    vertex 0.0384283532875035 0.04212302135214398 0.005675738850308962
  endloop
endfacet
facet normal -0.569452 0.822025 0
  outer loop
    vertex 0.0384283532875035 0.04212302135214398 0.01427113702623907
    vertex 0.04310574799940788 0.04536325376384737 0.009999999999999972
    vertex 0.0384283532875035 0.04212302135214398 0.005675738850308962
  endloop
endfacet
facet normal -0.569452 0.822025 0
  outer loop
    vertex 0.04310574799940788 0.04536325376384737 0.02
    vertex 0.04310574799940788 0.04536325376384737 0.009999999999999972
    vertex 0.0384283532875035 0.04212302135214398 0.01427113702623907
  endloop
endfacet
facet normal -0.569452 0.822025 0
  outer loop
    vertex 0.03375095857559911 0.0388827889404406 0
    vertex 0.03375095857559911 0.0388827889404406 0.01000000000000003
    vertex 0.0384283532875035 0.04212302135214398 0.005675738850308962
  endloop
endfacet
facet normal -0.569452 0.822025 0
  outer loop
    vertex 0.03375095857559911 0.0388827889404406 0.01000000000000003
    vertex 0.03375095857559911 0.0388827889404406 0.02
    vertex 0.0384283532875035 0.04212302135214398 0.01427113702623907
  endloop
endfacet
facet normal -0.569452 0.822025 0
  outer loop
    vertex 0.04310574799940788 0.04536325376384737 0.009999999999999972
    vertex 0.04310574799940788 0.04536325376384737 0
    vertex 0.0384283532875035 0.04212302135214398 0.005675738850308962
  endloop
endfacet
facet normal -0.998655 -0.0518381 0
  outer loop
    vertex 0.03375095857559911 0.0388827889404406 0
    vertex 0.03408734606700866 0.03240232411703384 0
    vertex 0.03391915232130389 0.03564255652873722 0.005000000000000001
  endloop
endfacet
facet normal -0.998655 -0.0518381 0
  outer loop
    vertex 0.03408734606700866 0.03240232411703384 0.02
    vertex 0.03375095857559911 0.0388827889404406 0.02
    vertex 0.03391915232130389 0.03564255652873722 0.015
  endloop
endfacet
facet normal -0.998655 -0.0518381 0
  outer loop
    vertex 0.03408734606700866 0.03240232411703384 0.01000000000000003
    vertex 0.03375095857559911 0.0388827889404406 0.009999999999999972
    vertex 0.03391915232130389 0.03564255652873722 0.005000000000000001
  endloop
endfacet
facet normal -0.998655 -0.0518381 0
  outer loop
    vertex 0.03375095857559911 0.0388827889404406 0.009999999999999972
    vertex 0.03408734606700866 0.03240232411703384 0.01000000000000003
    vertex 0.03391915232130389 0.03564255652873722 0.015
  endloop
endfacet
facet normal -0.998655 -0.0518381 -0
  outer loop
    vertex 0.03375095857559911 0.0388827889404406 0.009999999999999972
    vertex 0.03375095857559911 0.0388827889404406 0
    vertex 0.03391915232130389 0.03564255652873722 0.005000000000000001
  endloop
endfacet
facet normal -0.998655 -0.0518381 -0
  outer loop
    vertex 0.03375095857559911 0.0388827889404406 0.02
    vertex 0.03375095857559911 0.0388827889404406 0.009999999999999972
    vertex 0.03391915232130389 0.03564255652873722 0.015
  endloop
endfacet
facet normal -0.998655 -0.0518381 0
  outer loop
    vertex 0.03408734606700866 0.03240232411703384 0
    vertex 0.03408734606700866 0.03240232411703384 0.01000000000000003
    vertex 0.03391915232130389 0.03564255652873722 0.005000000000000001
  endloop
endfacet
facet normal -0.998655 -0.0518381 0
  outer loop
    vertex 0.03408734606700866 0.03240232411703384 0.01000000000000003
    vertex 0.03408734606700866 0.03240232411703384 0.02
    vertex 0.03391915232130389 0.03564255652873722 0.015
  endloop
endfacet
facet normal -0.557874 0.829925 3.05473e-16
  outer loop
    vertex 0.03408734606700866 0.03240232411703384 0
    vertex 0.02444664259892863 0.02592185929362707 0
    vertex 0.02926699433296865 0.02916209170533045 0.005728862973760926
  endloop
endfacet
facet normal -0.557874 0.829925 -2.05555e-16
  outer loop
    vertex 0.02444664259892863 0.02592185929362707 0.02
    vertex 0.03408734606700866 0.03240232411703384 0.02
    vertex 0.02926699433296865 0.02916209170533045 0.01432426114969104
  endloop
endfacet
facet normal -0.557874 0.829925 0
  outer loop
    vertex 0.03408734606700866 0.03240232411703384 0.009999999999999972
    vertex 0.02926699433296865 0.02916209170533045 0.005728862973760926
    vertex 0.02926699433296865 0.02916209170533045 0.01432426114969104
  endloop
endfacet
facet normal -0.557874 0.829925 0
  outer loop
    vertex 0.02926699433296865 0.02916209170533045 0.005728862973760926
    vertex 0.02444664259892863 0.02592185929362707 0.01000000000000003
    vertex 0.02926699433296865 0.02916209170533045 0.01432426114969104
  endloop
endfacet
facet normal -0.557874 0.829925 0
  outer loop
    vertex 0.03408734606700866 0.03240232411703384 0.02
    vertex 0.03408734606700866 0.03240232411703384 0.009999999999999972
    vertex 0.02926699433296865 0.02916209170533045 0.01432426114969104
  endloop
endfacet
facet normal -0.557874 0.829925 0
  outer loop
    vertex 0.02444664259892863 0.02592185929362707 0
    vertex 0.02444664259892863 0.02592185929362707 0.01000000000000003
    vertex 0.02926699433296865 0.02916209170533045 0.005728862973760926
  endloop
endfacet
facet normal -0.557874 0.829925 0
  outer loop
    vertex 0.03408734606700866 0.03240232411703384 0.009999999999999972
    vertex 0.03408734606700866 0.03240232411703384 0
    vertex 0.02926699433296865 0.02916209170533045 0.005728862973760926
  endloop
endfacet
facet normal -0.557874 0.829925 0
  outer loop
    vertex 0.02444664259892863 0.02592185929362707 0.01000000000000003
    vertex 0.02444664259892863 0.02592185929362707 0.02
    vertex 0.02926699433296865 0.02916209170533045 0.01432426114969104
  endloop
endfacet
facet normal -0.902446 0.430802 4.71819e-16
  outer loop
    vertex 0.02135305350938063 0.0194413944702203 0.01000000000000003
    vertex 0.02444664259892863 0.02592185929362707 0.009999999999999972
    vertex 0.02289984805415463 0.02268162688192369 0.004999999999999999
  endloop
endfacet
facet normal -0.902446 0.430802 4.71819e-16
  outer loop
    vertex 0.02135305350938063 0.0194413944702203 0.02
    vertex 0.02444664259892863 0.02592185929362707 0.02
    vertex 0.02289984805415463 0.02268162688192369 0.015
  endloop
endfacet
facet normal -0.902446 0.430802 -4.71819e-16
  outer loop
    vertex 0.02444664259892863 0.02592185929362707 0
    vertex 0.02135305350938063 0.0194413944702203 0
    vertex 0.02289984805415463 0.02268162688192369 0.004999999999999999
  endloop
endfacet
facet normal -0.902446 0.430802 -4.71819e-16
  outer loop
    vertex 0.02444664259892863 0.02592185929362707 0.009999999999999972
    vertex 0.02135305350938063 0.0194413944702203 0.01000000000000003
    vertex 0.02289984805415463 0.02268162688192369 0.015
  endloop
endfacet
facet normal -0.902446 0.430802 0
  outer loop
    vertex 0.02444664259892863 0.02592185929362707 0.009999999999999972
    vertex 0.02444664259892863 0.02592185929362707 0
    vertex 0.02289984805415463 0.02268162688192369 0.004999999999999999
  endloop
endfacet
facet normal -0.902446 0.430802 0
  outer loop
    vertex 0.02444664259892863 0.02592185929362707 0.02
    vertex 0.02444664259892863 0.02592185929362707 0.009999999999999972
    vertex 0.02289984805415463 0.02268162688192369 0.015
  endloop
endfacet
facet normal -0.902446 0.430802 0
  outer loop
    vertex 0.02135305350938063 0.0194413944702203 0
    vertex 0.02135305350938063 0.0194413944702203 0.01000000000000003
    vertex 0.02289984805415463 0.02268162688192369 0.004999999999999999
  endloop
endfacet
facet normal -0.902446 0.430802 0
  outer loop
    vertex 0.02135305350938063 0.0194413944702203 0.01000000000000003
    vertex 0.02135305350938063 0.0194413944702203 0.02
    vertex 0.02289984805415463 0.02268162688192369 0.015
  endloop
endfacet
facet normal -0.324696 -0.945818 0
  outer loop
    vertex 0.04023020424961054 0.01296092964681354 0.01000000000000003
    vertex 0.04023020424961054 0.01296092964681354 0.02
    vertex 0.0335892715197382 0.01524074038429055 0.01287361967710374
  endloop
endfacet
facet normal -0.324696 -0.945818 -4.52377e-17
  outer loop
    vertex 0.02135305350938063 0.0194413944702203 0
    vertex 0.0307916288794956 0.01620116205851692 0
    vertex 0.02844670608425225 0.01700616647349962 0.00750517736126007
  endloop
endfacet
facet normal -0.324696 -0.945818 -0
  outer loop
    vertex 0.02135305350938063 0.0194413944702203 0.009999999999999972
    vertex 0.02135305350938063 0.0194413944702203 0
    vertex 0.02844670608425225 0.01700616647349962 0.00750517736126007
  endloop
endfacet
facet normal -0.324696 -0.945818 9.52846e-17
  outer loop
    vertex 0.04023020424961054 0.01296092964681354 0.02
    vertex 0.03079162887949557 0.01620116205851692 0.02
    vertex 0.0335892715197382 0.01524074038429055 0.01287361967710374
  endloop
endfacet
facet normal -0.324696 -0.945818 0
  outer loop
    vertex 0.04023020424961054 0.01296092964681354 0
    vertex 0.04023020424961054 0.01296092964681354 0.01000000000000003
    vertex 0.03493388592019711 0.01477913860745831 0.005608821379222398
  endloop
endfacet
facet normal -0.324696 -0.945818 -2.72397e-16
  outer loop
    vertex 0.0307916288794956 0.01620116205851692 0
    vertex 0.04023020424961054 0.01296092964681354 0
    vertex 0.03493388592019711 0.01477913860745831 0.005608821379222398
  endloop
endfacet
facet normal -0.324696 -0.945818 -0
  outer loop
    vertex 0.02135305350938063 0.0194413944702203 0.02
    vertex 0.02135305350938063 0.0194413944702203 0.009999999999999972
    vertex 0.0269029997352632 0.01753611587264138 0.01412771932213998
  endloop
endfacet
facet normal -0.324696 -0.945818 -2.31268e-16
  outer loop
    vertex 0.03079162887949557 0.01620116205851692 0.02
    vertex 0.02135305350938063 0.0194413944702203 0.02
    vertex 0.0269029997352632 0.01753611587264138 0.01412771932213998
  endloop
endfacet
facet normal -0.324696 -0.945818 -7.22054e-17
  outer loop
    vertex 0.04023020424961054 0.01296092964681354 0.01000000000000003
    vertex 0.0335892715197382 0.01524074038429055 0.01287361967710374
    vertex 0.03493388592019711 0.01477913860745831 0.005608821379222398
  endloop
endfacet
facet normal -0.324696 -0.945818 4.6441e-17
  outer loop
    vertex 0.0269029997352632 0.01753611587264138 0.01412771932213998
    vertex 0.02135305350938063 0.0194413944702203 0.009999999999999972
    vertex 0.02844670608425225 0.01700616647349962 0.00750517736126007
  endloop
endfacet
facet normal -0.324696 -0.945818 -1.52758e-16
  outer loop
    vertex 0.0335892715197382 0.01524074038429055 0.01287361967710374
    vertex 0.02844670608425225 0.01700616647349962 0.00750517736126007
    vertex 0.03493388592019711 0.01477913860745831 0.005608821379222398
  endloop
endfacet
facet normal -0.324696 -0.945818 -4.72993e-17
  outer loop
    vertex 0.0269029997352632 0.01753611587264138 0.01412771932213998
    vertex 0.02844670608425225 0.01700616647349962 0.00750517736126007
    vertex 0.0335892715197382 0.01524074038429055 0.01287361967710374
  endloop
endfacet
facet normal -0.324696 -0.945818 -1.44869e-16
  outer loop
    vertex 0.02844670608425225 0.01700616647349962 0.00750517736126007
    vertex 0.0307916288794956 0.01620116205851692 0
    vertex 0.03493388592019711 0.01477913860745831 0.005608821379222398
  endloop
endfacet
facet normal -0.324696 -0.945818 -1.17974e-16
  outer loop
    vertex 0.03079162887949557 0.01620116205851692 0.02
    vertex 0.0269029997352632 0.01753611587264138 0.01412771932213998
    vertex 0.0335892715197382 0.01524074038429055 0.01287361967710374
  endloop
endfacet
facet normal -0.986364 -0.164579 6.96186e-16
  outer loop
    vertex 0.04023020424961054 0.01296092964681354 0.009999999999999972
    vertex 0.04131149824052174 0.006480464823406765 0.01000000000000003
    vertex 0.04077085124506614 0.00972069723511015 0.015
  endloop
endfacet
facet normal -0.986364 -0.164579 6.96186e-16
  outer loop
    vertex 0.04023020424961054 0.01296092964681354 0
    vertex 0.04131149824052174 0.006480464823406765 0
    vertex 0.04077085124506614 0.00972069723511015 0.005000000000000001
  endloop
endfacet
facet normal -0.986364 -0.164579 -6.83293e-16
  outer loop
    vertex 0.04131149824052174 0.006480464823406765 0.02
    vertex 0.04023020424961054 0.01296092964681354 0.02
    vertex 0.04077085124506614 0.00972069723511015 0.015
  endloop
endfacet
facet normal -0.986364 -0.164579 -6.83293e-16
  outer loop
    vertex 0.04131149824052174 0.006480464823406765 0.01000000000000003
    vertex 0.04023020424961054 0.01296092964681354 0.009999999999999972
    vertex 0.04077085124506614 0.00972069723511015 0.005000000000000001
  endloop
endfacet
facet normal -0.986364 -0.164579 -0
  outer loop
    vertex 0.04023020424961054 0.01296092964681354 0.009999999999999972
    vertex 0.04023020424961054 0.01296092964681354 0
    vertex 0.04077085124506614 0.00972069723511015 0.005000000000000001
  endloop
endfacet
facet normal -0.986364 -0.164579 -0
  outer loop
    vertex 0.04023020424961054 0.01296092964681354 0.02
    vertex 0.04023020424961054 0.01296092964681354 0.009999999999999972
    vertex 0.04077085124506614 0.00972069723511015 0.015
  endloop
endfacet
facet normal -0.986364 -0.164579 0
  outer loop
    vertex 0.04131149824052174 0.006480464823406765 0
    vertex 0.04131149824052174 0.006480464823406765 0.01000000000000003
    vertex 0.04077085124506614 0.00972069723511015 0.005000000000000001
  endloop
endfacet
facet normal -0.986364 -0.164579 0
  outer loop
    vertex 0.04131149824052174 0.006480464823406765 0.01000000000000003
    vertex 0.04131149824052174 0.006480464823406765 0.02
    vertex 0.04077085124506614 0.00972069723511015 0.015
  endloop
endfacet
endsolid Created by Gmsh
