solid Created by Gmsh
facet normal 0.99481 0.101749 -8.26679e-17
  outer loop
    vertex 0.004754061679772423 0.03173591743401528 0.02
    vertex 0.004132064305607482 0.03781725828626195 0.009400967335249952
    vertex 0.003672082239696564 0.04231455657868706 0.02
  endloop
endfacet
facet normal 0.99481 0.101749 -1.52361e-17
  outer loop
    vertex 0.005836041119848279 0.02115727828934355 0
    vertex 0.006459120411438905 0.01506535940427415 0.0104560549767866
    vertex 0.006918020559924139 0.01057863914467179 0
  endloop
endfacet
facet normal 0.99481 0.101749 3.59982e-17
  outer loop
    vertex 0.004754061679772423 0.03173591743401528 0.02
    vertex 0.005295231719381299 0.02644483485620897 0.009976170385339425
    vertex 0.004132064305607482 0.03781725828626195 0.009400967335249952
  endloop
endfacet
facet normal 0.99481 0.101749 3.17861e-17
  outer loop
    vertex 0.005836041119848282 0.02115727828934352 0.02
    vertex 0.005295231719381299 0.02644483485620897 0.009976170385339425
    vertex 0.004754061679772423 0.03173591743401528 0.02
  endloop
endfacet
facet normal 0.99481 0.101749 -2.17809e-17
  outer loop
    vertex 0.005836041119848279 0.02115727828934355 0
    vertex 0.005295231719381299 0.02644483485620897 0.009976170385339425
    vertex 0.006459120411438905 0.01506535940427415 0.0104560549767866
  endloop
endfacet
facet normal 0.99481 0.101749 -7.55535e-18
  outer loop
    vertex 0.006459120411438905 0.01506535940427415 0.0104560549767866
    vertex 0.005295231719381299 0.02644483485620897 0.009976170385339425
    vertex 0.005836041119848282 0.02115727828934352 0.02
  endloop
endfacet
facet normal 0.99481 0.101749 0
  outer loop
    vertex 0.00475406167977242 0.03173591743401532 0
    vertex 0.005295231719381299 0.02644483485620897 0.009976170385339425
    vertex 0.005836041119848279 0.02115727828934355 0
  endloop
endfacet
facet normal 0.99481 0.101749 6.10552e-17
  outer loop
    vertex 0.004132064305607482 0.03781725828626195 0.009400967335249952
    vertex 0.005295231719381299 0.02644483485620897 0.009976170385339425
    vertex 0.00475406167977242 0.03173591743401532 0
  endloop
endfacet
facet normal 0.99481 0.101749 -0
  outer loop
    vertex 0.008 0 0
    vertex 0.007225932101128112 0.007568152103764436 0.007730585474028785
    vertex 0.008 0 0.01000000000000003
  endloop
endfacet
facet normal 0.99481 0.101749 0
  outer loop
    vertex 0.002590102799620702 0.05289319572335884 0.02
    vertex 0.003364227024889179 0.04532449290984728 0.01226197087291189
    vertex 0.002590102799620702 0.05289319572335884 0.009999999999999972
  endloop
endfacet
facet normal 0.99481 0.101749 9.32032e-17
  outer loop
    vertex 0.00367208223969656 0.04231455657868709 0
    vertex 0.004132064305607482 0.03781725828626195 0.009400967335249952
    vertex 0.00475406167977242 0.03173591743401532 0
  endloop
endfacet
facet normal 0.99481 0.101749 0
  outer loop
    vertex 0.006918020559924142 0.01057863914467175 0.02
    vertex 0.006459120411438905 0.01506535940427415 0.0104560549767866
    vertex 0.005836041119848282 0.02115727828934352 0.02
  endloop
endfacet
facet normal 0.99481 0.101749 0
  outer loop
    vertex 0.006918020559924139 0.01057863914467179 0
    vertex 0.007225932101128112 0.007568152103764436 0.007730585474028785
    vertex 0.008 0 0
  endloop
endfacet
facet normal 0.99481 0.101749 -1.74996e-16
  outer loop
    vertex 0.003672082239696564 0.04231455657868706 0.02
    vertex 0.003364227024889179 0.04532449290984728 0.01226197087291189
    vertex 0.002590102799620702 0.05289319572335884 0.02
  endloop
endfacet
facet normal 0.99481 0.101749 -6.36791e-18
  outer loop
    vertex 0.006459120411438905 0.01506535940427415 0.0104560549767866
    vertex 0.007225932101128112 0.007568152103764436 0.007730585474028785
    vertex 0.006918020559924139 0.01057863914467179 0
  endloop
endfacet
facet normal 0.99481 0.101749 -1.70542e-16
  outer loop
    vertex 0.004132064305607482 0.03781725828626195 0.009400967335249952
    vertex 0.003364227024889179 0.04532449290984728 0.01226197087291189
    vertex 0.003672082239696564 0.04231455657868706 0.02
  endloop
endfacet
facet normal 0.99481 0.101749 -3.03346e-17
  outer loop
    vertex 0.006918020559924142 0.01057863914467175 0.02
    vertex 0.007388400246562153 0.00597968210203291 0.01430475922967505
    vertex 0.006459120411438905 0.01506535940427415 0.0104560549767866
  endloop
endfacet
facet normal 0.99481 0.101749 1.22533e-16
  outer loop
    vertex 0.00367208223969656 0.04231455657868709 0
    vertex 0.003201818700387352 0.04691237803534941 0.005679891653894056
    vertex 0.004132064305607482 0.03781725828626195 0.009400967335249952
  endloop
endfacet
facet normal 0.99481 0.101749 0
  outer loop
    vertex 0.006459120411438905 0.01506535940427415 0.0104560549767866
    vertex 0.007388400246562153 0.00597968210203291 0.01430475922967505
    vertex 0.007225932101128112 0.007568152103764436 0.007730585474028785
  endloop
endfacet
facet normal 0.99481 0.101749 -1.56171e-17
  outer loop
    vertex 0.004132064305607482 0.03781725828626195 0.009400967335249952
    vertex 0.003201818700387352 0.04691237803534941 0.005679891653894056
    vertex 0.003364227024889179 0.04532449290984728 0.01226197087291189
  endloop
endfacet
facet normal 0.99481 0.101749 1.82311e-16
  outer loop
    vertex 0.002590102799620702 0.05289319572335884 0
    vertex 0.003201818700387352 0.04691237803534941 0.005679891653894056
    vertex 0.00367208223969656 0.04231455657868709 0
  endloop
endfacet
facet normal 0.99481 0.101749 -4.19585e-17
  outer loop
    vertex 0.008 0 0.02
    vertex 0.007388400246562153 0.00597968210203291 0.01430475922967505
    vertex 0.006918020559924142 0.01057863914467175 0.02
  endloop
endfacet
facet normal 0.99481 0.101749 0
  outer loop
    vertex 0.002590102799620702 0.05289319572335884 0.009999999999999972
    vertex 0.003201818700387352 0.04691237803534941 0.005679891653894056
    vertex 0.002590102799620702 0.05289319572335884 0
  endloop
endfacet
facet normal 0.99481 0.101749 -0
  outer loop
    vertex 0.008 0 0.01000000000000003
    vertex 0.007388400246562153 0.00597968210203291 0.01430475922967505
    vertex 0.008 0 0.02
  endloop
endfacet
facet normal 0.99481 0.101749 9.12944e-18
  outer loop
    vertex 0.007225932101128112 0.007568152103764436 0.007730585474028785
    vertex 0.007388400246562153 0.00597968210203291 0.01430475922967505
    vertex 0.008 0 0.01000000000000003
  endloop
endfacet
facet normal 0.99481 0.101749 -5.01287e-17
  outer loop
    vertex 0.003364227024889179 0.04532449290984728 0.01226197087291189
    vertex 0.003201818700387352 0.04691237803534941 0.005679891653894056
    vertex 0.002590102799620702 0.05289319572335884 0.009999999999999972
  endloop
endfacet
endsolid Created by Gmsh
