solid Created by Gmsh
facet normal 0.999352 0.0359917 -6.09709e-17
  outer loop
    vertex 0.006784740475402766 0.03374315527420876 0.02
    vertex 0.006538261467702612 0.04058694399614092 0.009508175495720654
    vertex 0.006379653967203689 0.04499087369894502 0.02
  endloop
endfacet
facet normal 0.999352 0.0359917 6.85986e-17
  outer loop
    vertex 0.007189826983601845 0.0224954368494725 0
    vertex 0.007436362227902395 0.01565008665009384 0.01042228085799236
    vertex 0.007594913491800922 0.01124771842473625 0
  endloop
endfacet
facet normal 0.999352 0.0359917 -3.15296e-17
  outer loop
    vertex 0.006784740475402766 0.03374315527420876 0.02
    vertex 0.006987293102269037 0.02811903581559955 0.009988409392285503
    vertex 0.006538261467702612 0.04058694399614092 0.009508175495720654
  endloop
endfacet
facet normal 0.999352 0.0359917 -7.89297e-17
  outer loop
    vertex 0.007189826983601844 0.02249543684947252 0.02
    vertex 0.006987293102269037 0.02811903581559955 0.009988409392285503
    vertex 0.006784740475402766 0.03374315527420876 0.02
  endloop
endfacet
facet normal 0.999352 0.0359917 0
  outer loop
    vertex 0.00597456745900461 0.05623859212368127 0.02
    vertex 0.00622829034418597 0.04919366835389444 0.01258706256568839
    vertex 0.00597456745900461 0.05623859212368127 0.009999999999999972
  endloop
endfacet
facet normal 0.999352 0.0359917 -0
  outer loop
    vertex 0.008 0 0
    vertex 0.007746285148618696 0.00704470070158017 0.007403002627699185
    vertex 0.008 0 0.01000000000000003
  endloop
endfacet
facet normal 0.999352 0.0359917 1.21655e-16
  outer loop
    vertex 0.007189826983601845 0.0224954368494725 0
    vertex 0.006987293102269037 0.02811903581559955 0.009988409392285503
    vertex 0.007436362227902395 0.01565008665009384 0.01042228085799236
  endloop
endfacet
facet normal 0.999352 0.0359917 -1.03741e-16
  outer loop
    vertex 0.007436362227902395 0.01565008665009384 0.01042228085799236
    vertex 0.006987293102269037 0.02811903581559955 0.009988409392285503
    vertex 0.007189826983601844 0.02249543684947252 0.02
  endloop
endfacet
facet normal 0.999352 0.0359917 -2.03046e-16
  outer loop
    vertex 0.006379653967203689 0.04499087369894502 0.02
    vertex 0.00622829034418597 0.04919366835389444 0.01258706256568839
    vertex 0.00597456745900461 0.05623859212368127 0.02
  endloop
endfacet
facet normal 0.999352 0.0359917 1.11825e-16
  outer loop
    vertex 0.007594913491800922 0.01124771842473625 0
    vertex 0.007746285148618696 0.00704470070158017 0.007403002627699185
    vertex 0.008 0 0
  endloop
endfacet
facet normal 0.999352 0.0359917 1.9284e-17
  outer loop
    vertex 0.007436362227902395 0.01565008665009384 0.01042228085799236
    vertex 0.007790215316868509 0.005824926276058316 0.01462647248467783
    vertex 0.007746285148618696 0.00704470070158017 0.007403002627699185
  endloop
endfacet
facet normal 0.999352 0.0359917 3.85487e-17
  outer loop
    vertex 0.006538261467702612 0.04058694399614092 0.009508175495720654
    vertex 0.006184355488158614 0.05041357294124784 0.005369389736641442
    vertex 0.00622829034418597 0.04919366835389444 0.01258706256568839
  endloop
endfacet
facet normal 0.999352 0.0359917 7.29526e-17
  outer loop
    vertex 0.006538261467702612 0.04058694399614092 0.009508175495720654
    vertex 0.006987293102269037 0.02811903581559955 0.009988409392285503
    vertex 0.006784740475402767 0.03374315527420875 0
  endloop
endfacet
facet normal 0.999352 0.0359917 1.09251e-16
  outer loop
    vertex 0.006784740475402767 0.03374315527420875 0
    vertex 0.006987293102269037 0.02811903581559955 0.009988409392285503
    vertex 0.007189826983601845 0.0224954368494725 0
  endloop
endfacet
facet normal 0.999352 0.0359917 8.31087e-17
  outer loop
    vertex 0.006379653967203689 0.04499087369894502 0
    vertex 0.006538261467702612 0.04058694399614092 0.009508175495720654
    vertex 0.006784740475402767 0.03374315527420875 0
  endloop
endfacet
facet normal 0.999352 0.0359917 -7.07188e-17
  outer loop
    vertex 0.007594913491800922 0.01124771842473625 0.02
    vertex 0.007436362227902395 0.01565008665009384 0.01042228085799236
    vertex 0.007189826983601844 0.02249543684947252 0.02
  endloop
endfacet
facet normal 0.999352 0.0359917 -8.95819e-17
  outer loop
    vertex 0.007594913491800922 0.01124771842473625 0.02
    vertex 0.007790215316868509 0.005824926276058316 0.01462647248467783
    vertex 0.007436362227902395 0.01565008665009384 0.01042228085799236
  endloop
endfacet
facet normal 0.999352 0.0359917 1.51949e-16
  outer loop
    vertex 0.006379653967203689 0.04499087369894502 0
    vertex 0.006184355488158614 0.05041357294124784 0.005369389736641442
    vertex 0.006538261467702612 0.04058694399614092 0.009508175495720654
  endloop
endfacet
facet normal 0.999352 0.0359917 2.38275e-16
  outer loop
    vertex 0.00597456745900461 0.05623859212368127 0
    vertex 0.006184355488158614 0.05041357294124784 0.005369389736641442
    vertex 0.006379653967203689 0.04499087369894502 0
  endloop
endfacet
facet normal 0.999352 0.0359917 -1.96075e-16
  outer loop
    vertex 0.008 0 0.02
    vertex 0.007790215316868509 0.005824926276058316 0.01462647248467783
    vertex 0.007594913491800922 0.01124771842473625 0.02
  endloop
endfacet
facet normal 0.999352 0.0359917 6.37114e-17
  outer loop
    vertex 0.007436362227902395 0.01565008665009384 0.01042228085799236
    vertex 0.007746285148618696 0.00704470070158017 0.007403002627699185
    vertex 0.007594913491800922 0.01124771842473625 0
  endloop
endfacet
facet normal 0.999352 0.0359917 -1.46153e-16
  outer loop
    vertex 0.006538261467702612 0.04058694399614092 0.009508175495720654
    vertex 0.00622829034418597 0.04919366835389444 0.01258706256568839
    vertex 0.006379653967203689 0.04499087369894502 0.02
  endloop
endfacet
facet normal 0.999352 0.0359917 0
  outer loop
    vertex 0.00597456745900461 0.05623859212368127 0.009999999999999972
    vertex 0.006184355488158614 0.05041357294124784 0.005369389736641442
    vertex 0.00597456745900461 0.05623859212368127 0
  endloop
endfacet
facet normal 0.999352 0.0359917 -0
  outer loop
    vertex 0.008 0 0.01000000000000003
    vertex 0.007790215316868509 0.005824926276058316 0.01462647248467783
    vertex 0.008 0 0.02
  endloop
endfacet
facet normal 0.999352 0.0359917 -5.54656e-18
  outer loop
    vertex 0.00622829034418597 0.04919366835389444 0.01258706256568839
    vertex 0.006184355488158614 0.05041357294124784 0.005369389736641442
    vertex 0.00597456745900461 0.05623859212368127 0.009999999999999972
  endloop
endfacet
facet normal 0.999352 0.0359917 5.4325e-17
  outer loop
    vertex 0.007746285148618696 0.00704470070158017 0.007403002627699185
    vertex 0.007790215316868509 0.005824926276058316 0.01462647248467783
    vertex 0.008 0 0.01000000000000003
  endloop
endfacet
endsolid Created by Gmsh
