solid Created by Gmsh
facet normal 0.993819 -0.111015 -1.44792e-17
  outer loop
    vertex 0.01069500602171641 0.02412595045874251 0.007833557215785242
    vertex 0.01156207478269063 0.031888032547993 0.01404663942405608
    vertex 0.0106727741281241 0.02392692843092878 0.0151642884457027
  endloop
endfacet
facet normal 0.993819 -0.111015 6.81459e-17
  outer loop
    vertex 0.01186188331863239 0.0345719471021551 0.007442046499822171
    vertex 0.01156207478269063 0.031888032547993 0.01404663942405608
    vertex 0.01069500602171641 0.02412595045874251 0.007833557215785242
  endloop
endfacet
facet normal 0.993819 -0.111015 1.57192e-16
  outer loop
    vertex 0.01120732895374893 0.0287123141171146 0
    vertex 0.01069500602171641 0.02412595045874251 0.007833557215785242
    vertex 0.01013821930249928 0.01914154274474306 0
  endloop
endfacet
facet normal 0.993819 -0.111015 2.12736e-16
  outer loop
    vertex 0.01227643860499857 0.03828308548948611 0
    vertex 0.01186188331863239 0.0345719471021551 0.007442046499822171
    vertex 0.01120732895374893 0.0287123141171146 0
  endloop
endfacet
facet normal 0.993819 -0.111015 -2.94261e-16
  outer loop
    vertex 0.009069109651249638 0.009570771372371494 0.02
    vertex 0.009639288192761981 0.01467506395439839 0.01222856556497182
    vertex 0.01013821930249928 0.019141542744743 0.02
  endloop
endfacet
facet normal 0.993819 -0.111015 1.78807e-16
  outer loop
    vertex 0.01186188331863239 0.0345719471021551 0.007442046499822171
    vertex 0.01069500602171641 0.02412595045874251 0.007833557215785242
    vertex 0.01120732895374893 0.0287123141171146 0
  endloop
endfacet
facet normal 0.993819 -0.111015 5.2425e-17
  outer loop
    vertex 0.009639288192761981 0.01467506395439839 0.01222856556497182
    vertex 0.009619337993828296 0.01449646787437568 0.004984633807685742
    vertex 0.01069500602171641 0.02412595045874251 0.007833557215785242
  endloop
endfacet
facet normal 0.993819 -0.111015 -1.73049e-17
  outer loop
    vertex 0.01069500602171641 0.02412595045874251 0.007833557215785242
    vertex 0.0106727741281241 0.02392692843092878 0.0151642884457027
    vertex 0.009639288192761981 0.01467506395439839 0.01222856556497182
  endloop
endfacet
facet normal 0.993819 -0.111015 1.6497e-16
  outer loop
    vertex 0.01069500602171641 0.02412595045874251 0.007833557215785242
    vertex 0.009619337993828296 0.01449646787437568 0.004984633807685742
    vertex 0.01013821930249928 0.01914154274474306 0
  endloop
endfacet
facet normal 0.993819 -0.111015 -3.57981e-16
  outer loop
    vertex 0.009639288192761981 0.01467506395439839 0.01222856556497182
    vertex 0.0106727741281241 0.02392692843092878 0.0151642884457027
    vertex 0.01013821930249928 0.019141542744743 0.02
  endloop
endfacet
facet normal 0.993819 -0.111015 0
  outer loop
    vertex 0.0133455482562482 0.04785385686185761 0.009999999999999972
    vertex 0.01263972780642511 0.04153528500413914 0.006686230663385067
    vertex 0.0133455482562482 0.04785385686185761 0
  endloop
endfacet
facet normal 0.993819 -0.111015 0
  outer loop
    vertex 0.008 0 0.01000000000000003
    vertex 0.008670269047852142 0.006000312322942531 0.01363376894489547
    vertex 0.008 0 0.02
  endloop
endfacet
facet normal 0.993819 -0.111015 4.34103e-16
  outer loop
    vertex 0.0133455482562482 0.04785385686185761 0
    vertex 0.01263972780642511 0.04153528500413914 0.006686230663385067
    vertex 0.01227643860499857 0.03828308548948611 0
  endloop
endfacet
facet normal 0.993819 -0.111015 -2.76317e-16
  outer loop
    vertex 0.008 0 0.02
    vertex 0.008670269047852142 0.006000312322942531 0.01363376894489547
    vertex 0.009069109651249638 0.009570771372371494 0.02
  endloop
endfacet
facet normal 0.993819 -0.111015 5.57823e-17
  outer loop
    vertex 0.008691739868751614 0.006192521155559277 0.006159648307218775
    vertex 0.009619337993828296 0.01449646787437568 0.004984633807685742
    vertex 0.009639288192761981 0.01467506395439839 0.01222856556497182
  endloop
endfacet
facet normal 0.993819 -0.111015 1.04731e-16
  outer loop
    vertex 0.01265901766892339 0.04170796968953101 0.01383994438302637
    vertex 0.01156207478269063 0.031888032547993 0.01404663942405608
    vertex 0.01186188331863239 0.0345719471021551 0.007442046499822171
  endloop
endfacet
facet normal 0.993819 -0.111015 -2.28161e-17
  outer loop
    vertex 0.008670269047852142 0.006000312322942531 0.01363376894489547
    vertex 0.008691739868751614 0.006192521155559277 0.006159648307218775
    vertex 0.009639288192761981 0.01467506395439839 0.01222856556497182
  endloop
endfacet
facet normal 0.993819 -0.111015 -2.63355e-18
  outer loop
    vertex 0.01263972780642511 0.04153528500413914 0.006686230663385067
    vertex 0.01265901766892339 0.04170796968953101 0.01383994438302637
    vertex 0.01186188331863239 0.0345719471021551 0.007442046499822171
  endloop
endfacet
facet normal 0.993819 -0.111015 0
  outer loop
    vertex 0.0133455482562482 0.04785385686185761 0.02
    vertex 0.01265901766892339 0.04170796968953101 0.01383994438302637
    vertex 0.0133455482562482 0.04785385686185761 0.009999999999999972
  endloop
endfacet
facet normal 0.993819 -0.111015 0
  outer loop
    vertex 0.008 0 0
    vertex 0.008691739868751614 0.006192521155559277 0.006159648307218775
    vertex 0.008 0 0.01000000000000003
  endloop
endfacet
facet normal 0.993819 -0.111015 -4.42627e-16
  outer loop
    vertex 0.01227643860499856 0.03828308548948609 0.02
    vertex 0.01265901766892339 0.04170796968953101 0.01383994438302637
    vertex 0.0133455482562482 0.04785385686185761 0.02
  endloop
endfacet
facet normal 0.993819 -0.111015 3.56981e-16
  outer loop
    vertex 0.009069109651249642 0.009570771372371521 0
    vertex 0.008691739868751614 0.006192521155559277 0.006159648307218775
    vertex 0.008 0 0
  endloop
endfacet
facet normal 0.993819 -0.111015 3.22008e-16
  outer loop
    vertex 0.01227643860499857 0.03828308548948611 0
    vertex 0.01263972780642511 0.04153528500413914 0.006686230663385067
    vertex 0.01186188331863239 0.0345719471021551 0.007442046499822171
  endloop
endfacet
facet normal 0.993819 -0.111015 -2.86455e-16
  outer loop
    vertex 0.009069109651249638 0.009570771372371494 0.02
    vertex 0.008670269047852142 0.006000312322942531 0.01363376894489547
    vertex 0.009639288192761981 0.01467506395439839 0.01222856556497182
  endloop
endfacet
facet normal 0.993819 -0.111015 -4.36527e-16
  outer loop
    vertex 0.01013821930249928 0.019141542744743 0.02
    vertex 0.0106727741281241 0.02392692843092878 0.0151642884457027
    vertex 0.01120732895374892 0.02871231411711455 0.02
  endloop
endfacet
facet normal 0.993819 -0.111015 -4.60775e-16
  outer loop
    vertex 0.0106727741281241 0.02392692843092878 0.0151642884457027
    vertex 0.01156207478269063 0.031888032547993 0.01404663942405608
    vertex 0.01120732895374892 0.02871231411711455 0.02
  endloop
endfacet
facet normal 0.993819 -0.111015 3.17614e-16
  outer loop
    vertex 0.01013821930249928 0.01914154274474306 0
    vertex 0.009619337993828296 0.01449646787437568 0.004984633807685742
    vertex 0.009069109651249642 0.009570771372371521 0
  endloop
endfacet
facet normal 0.993819 -0.111015 -4.13672e-16
  outer loop
    vertex 0.01120732895374892 0.02871231411711455 0.02
    vertex 0.01156207478269063 0.031888032547993 0.01404663942405608
    vertex 0.01227643860499856 0.03828308548948609 0.02
  endloop
endfacet
facet normal 0.993819 -0.111015 4.10373e-16
  outer loop
    vertex 0.009069109651249642 0.009570771372371521 0
    vertex 0.009619337993828296 0.01449646787437568 0.004984633807685742
    vertex 0.008691739868751614 0.006192521155559277 0.006159648307218775
  endloop
endfacet
facet normal 0.993819 -0.111015 -3.52019e-16
  outer loop
    vertex 0.01227643860499856 0.03828308548948609 0.02
    vertex 0.01156207478269063 0.031888032547993 0.01404663942405608
    vertex 0.01265901766892339 0.04170796968953101 0.01383994438302637
  endloop
endfacet
facet normal 0.993819 -0.111015 1.88621e-17
  outer loop
    vertex 0.0133455482562482 0.04785385686185761 0.009999999999999972
    vertex 0.01265901766892339 0.04170796968953101 0.01383994438302637
    vertex 0.01263972780642511 0.04153528500413914 0.006686230663385067
  endloop
endfacet
facet normal 0.993819 -0.111015 -1.84826e-17
  outer loop
    vertex 0.008 0 0.01000000000000003
    vertex 0.008691739868751614 0.006192521155559277 0.006159648307218775
    vertex 0.008670269047852142 0.006000312322942531 0.01363376894489547
  endloop
endfacet
endsolid Created by Gmsh
