solid Created by Gmsh
facet normal 0.999762 0.021796 -5.31522e-17
  outer loop
    vertex 0.00733333465529609 0.03057931249192617 0.02
    vertex 0.007213914600784684 0.0360569981009314 0.009058746073751572
    vertex 0.00711111287372812 0.04077241665590156 0.02
  endloop
endfacet
facet normal 0.999762 0.021796 1.09218e-16
  outer loop
    vertex 0.00755555643686406 0.02038620832795078 0
    vertex 0.007675230843896305 0.01489685580798387 0.01083959892990842
    vertex 0.00777777821843203 0.0101931041639754 0
  endloop
endfacet
facet normal 0.999762 0.021796 -8.03565e-17
  outer loop
    vertex 0.00733333465529609 0.03057931249192617 0.02
    vertex 0.007444487938166881 0.0254808159247782 0.009983057500609998
    vertex 0.007213914600784684 0.0360569981009314 0.009058746073751572
  endloop
endfacet
facet normal 0.999762 0.021796 -3.11019e-17
  outer loop
    vertex 0.00755555643686406 0.02038620832795076 0.02
    vertex 0.007444487938166881 0.0254808159247782 0.009983057500609998
    vertex 0.00733333465529609 0.03057931249192617 0.02
  endloop
endfacet
facet normal 0.999762 0.021796 8.17784e-17
  outer loop
    vertex 0.00755555643686406 0.02038620832795078 0
    vertex 0.007444487938166881 0.0254808159247782 0.009983057500609998
    vertex 0.007675230843896305 0.01489685580798387 0.01083959892990842
  endloop
endfacet
facet normal 0.999762 0.021796 -2.70739e-17
  outer loop
    vertex 0.007675230843896305 0.01489685580798387 0.01083959892990842
    vertex 0.007444487938166881 0.0254808159247782 0.009983057500609998
    vertex 0.00755555643686406 0.02038620832795076 0.02
  endloop
endfacet
facet normal 0.999762 0.021796 5.89621e-17
  outer loop
    vertex 0.007675230843896305 0.01489685580798387 0.01083959892990842
    vertex 0.007839038214651347 0.007383165740557442 0.007646471723132917
    vertex 0.00777777821843203 0.0101931041639754 0
  endloop
endfacet
facet normal 0.999762 0.021796 -6.17392e-18
  outer loop
    vertex 0.007213914600784684 0.0360569981009314 0.009058746073751572
    vertex 0.00704574114891553 0.04377095620360856 0.01241348275046586
    vertex 0.00711111287372812 0.04077241665590156 0.02
  endloop
endfacet
facet normal 0.999762 0.021796 4.99319e-17
  outer loop
    vertex 0.007333334655296089 0.0305793124919262 0
    vertex 0.007444487938166881 0.0254808159247782 0.009983057500609998
    vertex 0.00755555643686406 0.02038620832795078 0
  endloop
endfacet
facet normal 0.999762 0.021796 6.08657e-17
  outer loop
    vertex 0.007213914600784684 0.0360569981009314 0.009058746073751572
    vertex 0.007444487938166881 0.0254808159247782 0.009983057500609998
    vertex 0.007333334655296089 0.0305793124919262 0
  endloop
endfacet
facet normal 0.999762 0.021796 5.96123e-17
  outer loop
    vertex 0.00711111287372812 0.04077241665590157 0
    vertex 0.007213914600784684 0.0360569981009314 0.009058746073751572
    vertex 0.007333334655296089 0.0305793124919262 0
  endloop
endfacet
facet normal 0.999762 0.021796 -8.61588e-17
  outer loop
    vertex 0.00777777821843203 0.01019310416397539 0.02
    vertex 0.007675230843896305 0.01489685580798387 0.01083959892990842
    vertex 0.00755555643686406 0.02038620832795076 0.02
  endloop
endfacet
facet normal 0.999762 0.021796 0
  outer loop
    vertex 0.00688889109216015 0.05096552081987696 0.02
    vertex 0.00704574114891553 0.04377095620360856 0.01241348275046586
    vertex 0.00688889109216015 0.05096552081987696 0.009999999999999972
  endloop
endfacet
facet normal 0.999762 0.021796 -0
  outer loop
    vertex 0.008 0 0
    vertex 0.007839038214651347 0.007383165740557442 0.007646471723132917
    vertex 0.008 0 0.01000000000000003
  endloop
endfacet
facet normal 0.999762 0.021796 2.71625e-18
  outer loop
    vertex 0.00777777821843203 0.0101931041639754 0
    vertex 0.007839038214651347 0.007383165740557442 0.007646471723132917
    vertex 0.008 0 0
  endloop
endfacet
facet normal 0.999762 0.021796 -8.21314e-18
  outer loop
    vertex 0.00711111287372812 0.04077241665590156 0.02
    vertex 0.00704574114891553 0.04377095620360856 0.01241348275046586
    vertex 0.00688889109216015 0.05096552081987696 0.02
  endloop
endfacet
facet normal 0.999762 0.021796 -5.98552e-17
  outer loop
    vertex 0.00777777821843203 0.01019310416397539 0.02
    vertex 0.007867117927915959 0.006095175696641725 0.0140694386647202
    vertex 0.007675230843896305 0.01489685580798387 0.01083959892990842
  endloop
endfacet
facet normal 0.999762 0.021796 6.40428e-17
  outer loop
    vertex 0.00711111287372812 0.04077241665590157 0
    vertex 0.007021222110519557 0.04489562143942485 0.00592460411774534
    vertex 0.007213914600784684 0.0360569981009314 0.009058746073751572
  endloop
endfacet
facet normal 0.999762 0.021796 4.44655e-17
  outer loop
    vertex 0.007675230843896305 0.01489685580798387 0.01083959892990842
    vertex 0.007867117927915959 0.006095175696641725 0.0140694386647202
    vertex 0.007839038214651347 0.007383165740557442 0.007646471723132917
  endloop
endfacet
facet normal 0.999762 0.021796 -7.07949e-17
  outer loop
    vertex 0.007213914600784684 0.0360569981009314 0.009058746073751572
    vertex 0.007021222110519557 0.04489562143942485 0.00592460411774534
    vertex 0.00704574114891553 0.04377095620360856 0.01241348275046586
  endloop
endfacet
facet normal 0.999762 0.021796 7.0043e-18
  outer loop
    vertex 0.008 0 0.02
    vertex 0.007867117927915959 0.006095175696641725 0.0140694386647202
    vertex 0.00777777821843203 0.01019310416397539 0.02
  endloop
endfacet
facet normal 0.999762 0.021796 1.08676e-16
  outer loop
    vertex 0.00688889109216015 0.05096552081987696 0
    vertex 0.007021222110519557 0.04489562143942485 0.00592460411774534
    vertex 0.00711111287372812 0.04077241665590157 0
  endloop
endfacet
facet normal 0.999762 0.021796 0
  outer loop
    vertex 0.00688889109216015 0.05096552081987696 0.009999999999999972
    vertex 0.007021222110519557 0.04489562143942485 0.00592460411774534
    vertex 0.00688889109216015 0.05096552081987696 0
  endloop
endfacet
facet normal 0.999762 0.021796 -0
  outer loop
    vertex 0.008 0 0.01000000000000003
    vertex 0.007867117927915959 0.006095175696641725 0.0140694386647202
    vertex 0.008 0 0.02
  endloop
endfacet
facet normal 0.999762 0.021796 -8.12497e-17
  outer loop
    vertex 0.00704574114891553 0.04377095620360856 0.01241348275046586
    vertex 0.007021222110519557 0.04489562143942485 0.00592460411774534
    vertex 0.00688889109216015 0.05096552081987696 0.009999999999999972
  endloop
endfacet
facet normal 0.999762 0.021796 1.07307e-17
  outer loop
    vertex 0.007839038214651347 0.007383165740557442 0.007646471723132917
    vertex 0.007867117927915959 0.006095175696641725 0.0140694386647202
    vertex 0.008 0 0.01000000000000003
  endloop
endfacet
endsolid Created by Gmsh
