solid Created by Gmsh
facet normal 1 0 -9.04045e-16
  outer loop
    vertex 0.04 0.045 0.02
    vertex 0.03999999999999999 0.05260932944606414 0.01232461734693878
    vertex 0.04 0.0525 0.02
  endloop
endfacet
facet normal 1 0 -9.04045e-16
  outer loop
    vertex 0.04 0.0525 0.02
    vertex 0.03999999999999999 0.05260932944606414 0.01232461734693878
    vertex 0.04 0.06 0.02
  endloop
endfacet
facet normal 1 -9.38872e-16 0
  outer loop
    vertex 0.04 0.06 0.02
    vertex 0.03999999999999999 0.05260932944606414 0.01232461734693878
    vertex 0.04 0.06 0.009999999999999972
  endloop
endfacet
facet normal 1 9.11893e-16 -0
  outer loop
    vertex 0.04 0.045 0.01000000000000003
    vertex 0.03999999999999999 0.05260932944606414 0.01232461734693878
    vertex 0.04 0.045 0.02
  endloop
endfacet
facet normal 1 1.32169e-15 -0
  outer loop
    vertex 0.04 0.045 0
    vertex 0.03999999999999999 0.05025 0.005343750000000006
    vertex 0.04 0.045 0.01000000000000003
  endloop
endfacet
facet normal 1 -1.51124e-15 0
  outer loop
    vertex 0.04 0.06 0.009999999999999972
    vertex 0.03999999999999999 0.05540847563515202 0.005381195335276963
    vertex 0.04 0.06 0
  endloop
endfacet
facet normal 1 0 1.28947e-15
  outer loop
    vertex 0.04 0.06 0
    vertex 0.03999999999999999 0.05540847563515202 0.005381195335276963
    vertex 0.04 0.0525 0
  endloop
endfacet
facet normal 1 0 1.29851e-15
  outer loop
    vertex 0.04 0.0525 0
    vertex 0.03999999999999999 0.05025 0.005343750000000006
    vertex 0.04 0.045 0
  endloop
endfacet
facet normal 1 0 0
  outer loop
    vertex 0.03999999999999999 0.05025 0.005343750000000006
    vertex 0.03999999999999999 0.05540847563515202 0.005381195335276963
    vertex 0.03999999999999999 0.05260932944606414 0.01232461734693878
  endloop
endfacet
facet normal 1 -9.39713e-18 1.29455e-15
  outer loop
    vertex 0.04 0.0525 0
    vertex 0.03999999999999999 0.05540847563515202 0.005381195335276963
    vertex 0.03999999999999999 0.05025 0.005343750000000006
  endloop
endfacet
facet normal 1 -1.07521e-15 -4.33456e-16
  outer loop
    vertex 0.03999999999999999 0.05260932944606414 0.01232461734693878
    vertex 0.03999999999999999 0.05540847563515202 0.005381195335276963
    vertex 0.04 0.06 0.009999999999999972
  endloop
endfacet
facet normal 1 1.01688e-15 -3.43677e-16
  outer loop
    vertex 0.03999999999999999 0.05025 0.005343750000000006
    vertex 0.03999999999999999 0.05260932944606414 0.01232461734693878
    vertex 0.04 0.045 0.01000000000000003
  endloop
endfacet
facet normal 0.626391 -0.779509 0
  outer loop
    vertex 0.04 0.045 0.02
    vertex 0.0365 0.0421875 0.015
    vertex 0.04 0.045 0.009999999999999972
  endloop
endfacet
facet normal 0.626391 -0.779509 0
  outer loop
    vertex 0.03299999999999999 0.039375 0
    vertex 0.0365 0.0421875 0.005
    vertex 0.03299999999999999 0.039375 0.01000000000000003
  endloop
endfacet
facet normal 0.626391 -0.779509 0
  outer loop
    vertex 0.04 0.045 0.009999999999999972
    vertex 0.0365 0.0421875 0.005
    vertex 0.04 0.045 0
  endloop
endfacet
facet normal 0.626391 -0.779509 0
  outer loop
    vertex 0.03299999999999999 0.039375 0.01000000000000003
    vertex 0.0365 0.0421875 0.015
    vertex 0.03299999999999999 0.039375 0.02
  endloop
endfacet
facet normal 0.626391 -0.779509 5.28216e-16
  outer loop
    vertex 0.03299999999999999 0.039375 0.01000000000000003
    vertex 0.0365 0.0421875 0.005
    vertex 0.04 0.045 0.009999999999999972
  endloop
endfacet
facet normal 0.626391 -0.779509 -5.28216e-16
  outer loop
    vertex 0.04 0.045 0.009999999999999972
    vertex 0.0365 0.0421875 0.015
    vertex 0.03299999999999999 0.039375 0.01000000000000003
  endloop
endfacet
facet normal 0.626391 -0.779509 -5.28216e-16
  outer loop
    vertex 0.04 0.045 0
    vertex 0.0365 0.0421875 0.005
    vertex 0.03299999999999999 0.039375 0
  endloop
endfacet
facet normal 0.626391 -0.779509 5.28216e-16
  outer loop
    vertex 0.03299999999999999 0.039375 0.02
    vertex 0.0365 0.0421875 0.015
    vertex 0.04 0.045 0.02
  endloop
endfacet
facet normal 1 -1.36955e-29 -1.38778e-15
  outer loop
    vertex 0.03299999999999999 0.039375 0.009999999999999972
    vertex 0.033 0.0365625 0.015
    vertex 0.03299999999999999 0.03375 0.01000000000000003
  endloop
endfacet
facet normal 1 0 -1.38778e-15
  outer loop
    vertex 0.03299999999999999 0.039375 0
    vertex 0.033 0.0365625 0.005
    vertex 0.03299999999999999 0.03375 0
  endloop
endfacet
facet normal 1 1.36955e-29 1.38778e-15
  outer loop
    vertex 0.03299999999999999 0.03375 0.01000000000000003
    vertex 0.033 0.0365625 0.005
    vertex 0.03299999999999999 0.039375 0.009999999999999972
  endloop
endfacet
facet normal 1 -0 1.38778e-15
  outer loop
    vertex 0.03299999999999999 0.03375 0.02
    vertex 0.033 0.0365625 0.015
    vertex 0.03299999999999999 0.039375 0.02
  endloop
endfacet
facet normal 1 2.46716e-15 0
  outer loop
    vertex 0.03299999999999999 0.039375 0.009999999999999972
    vertex 0.033 0.0365625 0.005
    vertex 0.03299999999999999 0.039375 0
  endloop
endfacet
facet normal 1 2.46716e-15 0
  outer loop
    vertex 0.03299999999999999 0.039375 0.02
    vertex 0.033 0.0365625 0.015
    vertex 0.03299999999999999 0.039375 0.009999999999999972
  endloop
endfacet
facet normal 1 -2.46716e-15 0
  outer loop
    vertex 0.03299999999999999 0.03375 0
    vertex 0.033 0.0365625 0.005
    vertex 0.03299999999999999 0.03375 0.01000000000000003
  endloop
endfacet
facet normal 1 -2.46716e-15 0
  outer loop
    vertex 0.03299999999999999 0.03375 0.01000000000000003
    vertex 0.033 0.0365625 0.015
    vertex 0.03299999999999999 0.03375 0.02
  endloop
endfacet
facet normal 1 0 0
  outer loop
    vertex 0.03299999999999999 0.03375 0
    vertex 0.03299999999999999 0.0309375 0.005000000000000001
    vertex 0.03299999999999999 0.028125 0
  endloop
endfacet
facet normal 1 -0 0
  outer loop
    vertex 0.03299999999999999 0.028125 0.02
    vertex 0.03299999999999999 0.0309375 0.015
    vertex 0.03299999999999999 0.03375 0.02
  endloop
endfacet
facet normal 1 0 0
  outer loop
    vertex 0.03299999999999999 0.028125 0.01000000000000003
    vertex 0.03299999999999999 0.0309375 0.005000000000000001
    vertex 0.03299999999999999 0.03375 0.009999999999999972
  endloop
endfacet
facet normal 1 0 0
  outer loop
    vertex 0.03299999999999999 0.03375 0.009999999999999972
    vertex 0.03299999999999999 0.0309375 0.015
    vertex 0.03299999999999999 0.028125 0.01000000000000003
  endloop
endfacet
facet normal 1 0 0
  outer loop
    vertex 0.03299999999999999 0.03375 0.009999999999999972
    vertex 0.03299999999999999 0.0309375 0.005000000000000001
    vertex 0.03299999999999999 0.03375 0
  endloop
endfacet
facet normal 1 0 0
  outer loop
    vertex 0.03299999999999999 0.03375 0.02
    vertex 0.03299999999999999 0.0309375 0.015
    vertex 0.03299999999999999 0.03375 0.009999999999999972
  endloop
endfacet
facet normal 1 0 0
  outer loop
    vertex 0.03299999999999999 0.028125 0
    vertex 0.03299999999999999 0.0309375 0.005000000000000001
    vertex 0.03299999999999999 0.028125 0.01000000000000003
  endloop
endfacet
facet normal 1 0 0
  outer loop
    vertex 0.03299999999999999 0.028125 0.01000000000000003
    vertex 0.03299999999999999 0.0309375 0.015
    vertex 0.03299999999999999 0.028125 0.02
  endloop
endfacet
facet normal 0.319327 0.947645 3.95544e-16
  outer loop
    vertex 0.03299999999999999 0.028125 0
    vertex 0.04016470292764367 0.02571071786915145 0.007780329081119423
    vertex 0.04134646735214641 0.02531249999999999 0
  endloop
endfacet
facet normal 0.319327 0.947645 0
  outer loop
    vertex 0.03299999999999999 0.028125 0.009999999999999972
    vertex 0.04016470292764367 0.02571071786915145 0.007780329081119423
    vertex 0.03299999999999999 0.028125 0
  endloop
endfacet
facet normal 0.319327 0.947645 -0
  outer loop
    vertex 0.0496929347042928 0.0225 0.01000000000000003
    vertex 0.04395488317692092 0.02443354496457513 0.01354562818042123
    vertex 0.0496929347042928 0.0225 0.02
  endloop
endfacet
facet normal 0.319327 0.947645 -0
  outer loop
    vertex 0.0496929347042928 0.0225 0
    vertex 0.04537670944784677 0.02395443371687455 0.005104443008502077
    vertex 0.0496929347042928 0.0225 0.01000000000000003
  endloop
endfacet
facet normal 0.319327 0.947645 0
  outer loop
    vertex 0.03299999999999999 0.028125 0.02
    vertex 0.03829321069134219 0.02634135256674531 0.01426519145230812
    vertex 0.03299999999999999 0.028125 0.009999999999999972
  endloop
endfacet
facet normal 0.319327 0.947645 -2.38402e-16
  outer loop
    vertex 0.0496929347042928 0.0225 0.02
    vertex 0.04395488317692092 0.02443354496457513 0.01354562818042123
    vertex 0.04134646735214638 0.0253125 0.02
  endloop
endfacet
facet normal 0.319327 0.947645 1.05507e-15
  outer loop
    vertex 0.04134646735214641 0.02531249999999999 0
    vertex 0.04537670944784677 0.02395443371687455 0.005104443008502077
    vertex 0.0496929347042928 0.0225 0
  endloop
endfacet
facet normal 0.319327 0.947645 -3.35393e-16
  outer loop
    vertex 0.04134646735214638 0.0253125 0.02
    vertex 0.03829321069134219 0.02634135256674531 0.01426519145230812
    vertex 0.03299999999999999 0.028125 0.02
  endloop
endfacet
facet normal 0.319327 0.947645 -2.09704e-16
  outer loop
    vertex 0.04395488317692092 0.02443354496457513 0.01354562818042123
    vertex 0.04537670944784677 0.02395443371687455 0.005104443008502077
    vertex 0.04016470292764367 0.02571071786915145 0.007780329081119423
  endloop
endfacet
facet normal 0.319327 0.947645 -4.06941e-16
  outer loop
    vertex 0.0496929347042928 0.0225 0.01000000000000003
    vertex 0.04537670944784677 0.02395443371687455 0.005104443008502077
    vertex 0.04395488317692092 0.02443354496457513 0.01354562818042123
  endloop
endfacet
facet normal 0.319327 0.947645 -1.13475e-17
  outer loop
    vertex 0.03829321069134219 0.02634135256674531 0.01426519145230812
    vertex 0.04395488317692092 0.02443354496457513 0.01354562818042123
    vertex 0.04016470292764367 0.02571071786915145 0.007780329081119423
  endloop
endfacet
facet normal 0.319327 0.947645 1.42293e-16
  outer loop
    vertex 0.03829321069134219 0.02634135256674531 0.01426519145230812
    vertex 0.04016470292764367 0.02571071786915145 0.007780329081119423
    vertex 0.03299999999999999 0.028125 0.009999999999999972
  endloop
endfacet
facet normal 0.319327 0.947645 5.25981e-16
  outer loop
    vertex 0.04016470292764367 0.02571071786915145 0.007780329081119423
    vertex 0.04537670944784677 0.02395443371687455 0.005104443008502077
    vertex 0.04134646735214641 0.02531249999999999 0
  endloop
endfacet
facet normal 0.319327 0.947645 -1.50508e-16
  outer loop
    vertex 0.04134646735214638 0.0253125 0.02
    vertex 0.04395488317692092 0.02443354496457513 0.01354562818042123
    vertex 0.03829321069134219 0.02634135256674531 0.01426519145230812
  endloop
endfacet
facet normal 0.702979 0.71121 -0
  outer loop
    vertex 0.05538379907606084 0.016875 0
    vertex 0.05253836689017682 0.0196875 0.005
    vertex 0.05538379907606084 0.016875 0.01000000000000003
  endloop
endfacet
facet normal 0.702979 0.71121 0
  outer loop
    vertex 0.0496929347042928 0.0225 0.02
    vertex 0.05253836689017682 0.0196875 0.015
    vertex 0.0496929347042928 0.0225 0.009999999999999972
  endloop
endfacet
facet normal 0.702979 0.71121 0
  outer loop
    vertex 0.0496929347042928 0.0225 0.009999999999999972
    vertex 0.05253836689017682 0.0196875 0.005
    vertex 0.0496929347042928 0.0225 0
  endloop
endfacet
facet normal 0.702979 0.71121 -0
  outer loop
    vertex 0.05538379907606084 0.016875 0.01000000000000003
    vertex 0.05253836689017682 0.0196875 0.015
    vertex 0.05538379907606084 0.016875 0.02
  endloop
endfacet
facet normal 0.702979 0.71121 0
  outer loop
    vertex 0.05538379907606084 0.016875 0.01000000000000003
    vertex 0.05253836689017682 0.0196875 0.005
    vertex 0.0496929347042928 0.0225 0.009999999999999972
  endloop
endfacet
facet normal 0.702979 0.71121 0
  outer loop
    vertex 0.0496929347042928 0.0225 0.009999999999999972
    vertex 0.05253836689017682 0.0196875 0.015
    vertex 0.05538379907606084 0.016875 0.01000000000000003
  endloop
endfacet
facet normal 0.702979 0.71121 0
  outer loop
    vertex 0.0496929347042928 0.0225 0
    vertex 0.05253836689017682 0.0196875 0.005
    vertex 0.05538379907606084 0.016875 0
  endloop
endfacet
facet normal 0.702979 0.71121 0
  outer loop
    vertex 0.05538379907606084 0.016875 0.02
    vertex 0.05253836689017682 0.0196875 0.015
    vertex 0.0496929347042928 0.0225 0.02
  endloop
endfacet
facet normal 0.773018 0.634384 -1.25716e-15
  outer loop
    vertex 0.05999999999999998 0.01125 0.02
    vertex 0.0576918995380304 0.0140625 0.015
    vertex 0.05538379907606084 0.016875 0.02
  endloop
endfacet
facet normal 0.773018 0.634384 -1.25716e-15
  outer loop
    vertex 0.05999999999999998 0.01125 0.01000000000000003
    vertex 0.0576918995380304 0.0140625 0.004999999999999999
    vertex 0.05538379907606084 0.016875 0.009999999999999972
  endloop
endfacet
facet normal 0.773018 0.634384 1.30372e-15
  outer loop
    vertex 0.05538379907606084 0.016875 0
    vertex 0.0576918995380304 0.0140625 0.004999999999999999
    vertex 0.05999999999999998 0.01125 0
  endloop
endfacet
facet normal 0.773018 0.634384 1.30372e-15
  outer loop
    vertex 0.05538379907606084 0.016875 0.009999999999999972
    vertex 0.0576918995380304 0.0140625 0.015
    vertex 0.05999999999999998 0.01125 0.01000000000000003
  endloop
endfacet
facet normal 0.773018 0.634384 0
  outer loop
    vertex 0.05538379907606084 0.016875 0.009999999999999972
    vertex 0.0576918995380304 0.0140625 0.004999999999999999
    vertex 0.05538379907606084 0.016875 0
  endloop
endfacet
facet normal 0.773018 0.634384 0
  outer loop
    vertex 0.05538379907606084 0.016875 0.02
    vertex 0.0576918995380304 0.0140625 0.015
    vertex 0.05538379907606084 0.016875 0.009999999999999972
  endloop
endfacet
facet normal 0.773018 0.634384 -0
  outer loop
    vertex 0.05999999999999998 0.01125 0
    vertex 0.0576918995380304 0.0140625 0.004999999999999999
    vertex 0.05999999999999998 0.01125 0.01000000000000003
  endloop
endfacet
facet normal 0.773018 0.634384 -0
  outer loop
    vertex 0.05999999999999998 0.01125 0.01000000000000003
    vertex 0.0576918995380304 0.0140625 0.015
    vertex 0.05999999999999998 0.01125 0.02
  endloop
endfacet
facet normal 0.240069 -0.970756 0
  outer loop
    vertex 0.0372544244920304 0.005624999999999998 0
    vertex 0.04585665057310589 0.0077523377624187 0.008328982695472829
    vertex 0.0372544244920304 0.005624999999999998 0.01000000000000003
  endloop
endfacet
facet normal 0.240069 -0.970756 1.56251e-16
  outer loop
    vertex 0.04862721224601518 0.008437499999999995 0
    vertex 0.04585665057310589 0.0077523377624187 0.008328982695472829
    vertex 0.0372544244920304 0.005624999999999998 0
  endloop
endfacet
facet normal 0.240069 -0.970756 -2.1819e-16
  outer loop
    vertex 0.0486272122460152 0.008437499999999999 0.02
    vertex 0.0528397754962722 0.009479270443416265 0.01270992760428723
    vertex 0.05999999999999998 0.01125 0.02
  endloop
endfacet
facet normal 0.240069 -0.970756 -1.11099e-16
  outer loop
    vertex 0.0372544244920304 0.005624999999999998 0.02
    vertex 0.04288189508029318 0.007016678221018721 0.01479377917012496
    vertex 0.0486272122460152 0.008437499999999999 0.02
  endloop
endfacet
facet normal 0.240069 -0.970756 3.66001e-16
  outer loop
    vertex 0.05999999999999998 0.01125 0
    vertex 0.05352736639049743 0.009649312251268602 0.00632136395246134
    vertex 0.04862721224601518 0.008437499999999995 0
  endloop
endfacet
facet normal 0.240069 -0.970756 0
  outer loop
    vertex 0.05999999999999998 0.01125 0.02
    vertex 0.0528397754962722 0.009479270443416265 0.01270992760428723
    vertex 0.05999999999999998 0.01125 0.009999999999999972
  endloop
endfacet
facet normal 0.240069 -0.970756 -5.65355e-17
  outer loop
    vertex 0.0528397754962722 0.009479270443416265 0.01270992760428723
    vertex 0.04288189508029318 0.007016678221018721 0.01479377917012496
    vertex 0.04585665057310589 0.0077523377624187 0.008328982695472829
  endloop
endfacet
facet normal 0.240069 -0.970756 -1.93275e-16
  outer loop
    vertex 0.0486272122460152 0.008437499999999999 0.02
    vertex 0.04288189508029318 0.007016678221018721 0.01479377917012496
    vertex 0.0528397754962722 0.009479270443416265 0.01270992760428723
  endloop
endfacet
facet normal 0.240069 -0.970756 0
  outer loop
    vertex 0.0372544244920304 0.005624999999999998 0.01000000000000003
    vertex 0.04288189508029318 0.007016678221018721 0.01479377917012496
    vertex 0.0372544244920304 0.005624999999999998 0.02
  endloop
endfacet
facet normal 0.240069 -0.970756 0
  outer loop
    vertex 0.05999999999999998 0.01125 0.009999999999999972
    vertex 0.05352736639049743 0.009649312251268602 0.00632136395246134
    vertex 0.05999999999999998 0.01125 0
  endloop
endfacet
facet normal 0.240069 -0.970756 2.25559e-16
  outer loop
    vertex 0.05352736639049743 0.009649312251268602 0.00632136395246134
    vertex 0.04585665057310589 0.0077523377624187 0.008328982695472829
    vertex 0.04862721224601518 0.008437499999999995 0
  endloop
endfacet
facet normal 0.240069 -0.970756 -4.87115e-17
  outer loop
    vertex 0.04585665057310589 0.0077523377624187 0.008328982695472829
    vertex 0.04288189508029318 0.007016678221018721 0.01479377917012496
    vertex 0.0372544244920304 0.005624999999999998 0.01000000000000003
  endloop
endfacet
facet normal 0.240069 -0.970756 -8.20114e-17
  outer loop
    vertex 0.05352736639049743 0.009649312251268602 0.00632136395246134
    vertex 0.0528397754962722 0.009479270443416265 0.01270992760428723
    vertex 0.04585665057310589 0.0077523377624187 0.008328982695472829
  endloop
endfacet
facet normal 0.240069 -0.970756 -1.4991e-16
  outer loop
    vertex 0.05999999999999998 0.01125 0.009999999999999972
    vertex 0.0528397754962722 0.009479270443416265 0.01270992760428723
    vertex 0.05352736639049743 0.009649312251268602 0.00632136395246134
  endloop
endfacet
endsolid Created by Gmsh
