solid Created by Gmsh
facet normal 1 1.56799e-29 1.38778e-15
  outer loop
    vertex 0.04 0.05508686948254878 0.01000000000000003
    vertex 0.04000000000000001 0.05754343474127439 0.005000000000000001
    vertex 0.04 0.06 0.009999999999999972
  endloop
endfacet
facet normal 1 -0 1.38778e-15
  outer loop
    vertex 0.04 0.05508686948254878 0.02
    vertex 0.04000000000000001 0.05754343474127439 0.015
    vertex 0.04 0.06 0.02
  endloop
endfacet
facet normal 1 -1.56799e-29 -1.38778e-15
  outer loop
    vertex 0.04 0.06 0.009999999999999972
    vertex 0.04000000000000001 0.05754343474127439 0.015
    vertex 0.04 0.05508686948254878 0.01000000000000003
  endloop
endfacet
facet normal 1 0 -1.38778e-15
  outer loop
    vertex 0.04 0.06 0
    vertex 0.04000000000000001 0.05754343474127439 0.005000000000000001
    vertex 0.04 0.05508686948254878 0
  endloop
endfacet
facet normal 1 2.82463e-15 0
  outer loop
    vertex 0.04 0.06 0.009999999999999972
    vertex 0.04000000000000001 0.05754343474127439 0.005000000000000001
    vertex 0.04 0.06 0
  endloop
endfacet
facet normal 1 2.82463e-15 0
  outer loop
    vertex 0.04 0.06 0.02
    vertex 0.04000000000000001 0.05754343474127439 0.015
    vertex 0.04 0.06 0.009999999999999972
  endloop
endfacet
facet normal 1 -2.82463e-15 0
  outer loop
    vertex 0.04 0.05508686948254878 0
    vertex 0.04000000000000001 0.05754343474127439 0.005000000000000001
    vertex 0.04 0.05508686948254878 0.01000000000000003
  endloop
endfacet
facet normal 1 -2.82463e-15 0
  outer loop
    vertex 0.04 0.05508686948254878 0.01000000000000003
    vertex 0.04000000000000001 0.05754343474127439 0.015
    vertex 0.04 0.05508686948254878 0.02
  endloop
endfacet
facet normal 0.430246 -0.902712 -4.32742e-16
  outer loop
    vertex 0.03277628205537497 0.05164394013988949 0
    vertex 0.03306082903938637 0.05177955938307256 0.007949551707474465
    vertex 0.02555256411074993 0.04820101079723019 0
  endloop
endfacet
facet normal 0.430246 -0.902712 -4.26085e-16
  outer loop
    vertex 0.04 0.05508686948254878 0
    vertex 0.03306082903938637 0.05177955938307256 0.007949551707474465
    vertex 0.03277628205537497 0.05164394013988949 0
  endloop
endfacet
facet normal 0.430246 -0.902712 0
  outer loop
    vertex 0.02555256411074993 0.04820101079723019 0
    vertex 0.03306082903938637 0.05177955938307256 0.007949551707474465
    vertex 0.02555256411074993 0.04820101079723019 0.01000000000000003
  endloop
endfacet
facet normal 0.430246 -0.902712 0
  outer loop
    vertex 0.04 0.05508686948254878 0.009999999999999972
    vertex 0.03306082903938637 0.05177955938307256 0.007949551707474465
    vertex 0.04 0.05508686948254878 0
  endloop
endfacet
facet normal 0.430246 -0.902712 0
  outer loop
    vertex 0.04 0.05508686948254878 0.02
    vertex 0.03527288902162857 0.05283385943727816 0.01437100745659527
    vertex 0.04 0.05508686948254878 0.009999999999999972
  endloop
endfacet
facet normal 0.430246 -0.902712 0
  outer loop
    vertex 0.02555256411074993 0.04820101079723019 0.01000000000000003
    vertex 0.03044302566757795 0.05053187611094011 0.01446411183281395
    vertex 0.02555256411074993 0.04820101079723019 0.02
  endloop
endfacet
facet normal 0.430246 -0.902712 -7.64824e-17
  outer loop
    vertex 0.02555256411074993 0.04820101079723019 0.02
    vertex 0.03044302566757795 0.05053187611094011 0.01446411183281395
    vertex 0.03277628205537496 0.05164394013988948 0.02
  endloop
endfacet
facet normal 0.430246 -0.902712 -2.63261e-16
  outer loop
    vertex 0.03277628205537496 0.05164394013988948 0.02
    vertex 0.03527288902162857 0.05283385943727816 0.01437100745659527
    vertex 0.04 0.05508686948254878 0.02
  endloop
endfacet
facet normal 0.430246 -0.902712 7.02372e-17
  outer loop
    vertex 0.03306082903938637 0.05177955938307256 0.007949551707474465
    vertex 0.03044302566757795 0.05053187611094011 0.01446411183281395
    vertex 0.02555256411074993 0.04820101079723019 0.01000000000000003
  endloop
endfacet
facet normal 0.430246 -0.902712 2.48355e-16
  outer loop
    vertex 0.03527288902162857 0.05283385943727816 0.01437100745659527
    vertex 0.03306082903938637 0.05177955938307256 0.007949551707474465
    vertex 0.04 0.05508686948254878 0.009999999999999972
  endloop
endfacet
facet normal 0.430246 -0.902712 1.95928e-16
  outer loop
    vertex 0.03527288902162857 0.05283385943727816 0.01437100745659527
    vertex 0.03044302566757795 0.05053187611094011 0.01446411183281395
    vertex 0.03306082903938637 0.05177955938307256 0.007949551707474465
  endloop
endfacet
facet normal 0.430246 -0.902712 -1.98569e-16
  outer loop
    vertex 0.03277628205537496 0.05164394013988948 0.02
    vertex 0.03044302566757795 0.05053187611094011 0.01446411183281395
    vertex 0.03527288902162857 0.05283385943727816 0.01437100745659527
  endloop
endfacet
facet normal 0.957175 -0.289511 -1.31872e-15
  outer loop
    vertex 0.02346983706631894 0.04131515211191158 0.01000000000000003
    vertex 0.02451120058853443 0.04475808145457089 0.005000000000000001
    vertex 0.02555256411074993 0.04820101079723019 0.009999999999999972
  endloop
endfacet
facet normal 0.957175 -0.289511 -1.31872e-15
  outer loop
    vertex 0.02346983706631894 0.04131515211191158 0.02
    vertex 0.02451120058853443 0.04475808145457089 0.015
    vertex 0.02555256411074993 0.04820101079723019 0.02
  endloop
endfacet
facet normal 0.957175 -0.289511 1.31872e-15
  outer loop
    vertex 0.02555256411074993 0.04820101079723019 0.009999999999999972
    vertex 0.02451120058853443 0.04475808145457089 0.015
    vertex 0.02346983706631894 0.04131515211191158 0.01000000000000003
  endloop
endfacet
facet normal 0.957175 -0.289511 1.31872e-15
  outer loop
    vertex 0.02555256411074993 0.04820101079723019 0
    vertex 0.02451120058853443 0.04475808145457089 0.005000000000000001
    vertex 0.02346983706631894 0.04131515211191158 0
  endloop
endfacet
facet normal 0.957175 -0.289511 0
  outer loop
    vertex 0.02555256411074993 0.04820101079723019 0.009999999999999972
    vertex 0.02451120058853443 0.04475808145457089 0.005000000000000001
    vertex 0.02555256411074993 0.04820101079723019 0
  endloop
endfacet
facet normal 0.957175 -0.289511 0
  outer loop
    vertex 0.02555256411074993 0.04820101079723019 0.02
    vertex 0.02451120058853443 0.04475808145457089 0.015
    vertex 0.02555256411074993 0.04820101079723019 0.009999999999999972
  endloop
endfacet
facet normal 0.957175 -0.289511 0
  outer loop
    vertex 0.02346983706631894 0.04131515211191158 0
    vertex 0.02451120058853443 0.04475808145457089 0.005000000000000001
    vertex 0.02346983706631894 0.04131515211191158 0.01000000000000003
  endloop
endfacet
facet normal 0.957175 -0.289511 0
  outer loop
    vertex 0.02346983706631894 0.04131515211191158 0.01000000000000003
    vertex 0.02451120058853443 0.04475808145457089 0.015
    vertex 0.02346983706631894 0.04131515211191158 0.02
  endloop
endfacet
facet normal 0.853703 0.52076 -0
  outer loop
    vertex 0.02767021469437595 0.03442929342659299 0
    vertex 0.02557002588034745 0.03787222276925229 0.005
    vertex 0.02767021469437595 0.03442929342659299 0.01000000000000003
  endloop
endfacet
facet normal 0.853703 0.52076 0
  outer loop
    vertex 0.02346983706631894 0.04131515211191158 0.02
    vertex 0.02557002588034745 0.03787222276925228 0.015
    vertex 0.02346983706631894 0.04131515211191158 0.009999999999999972
  endloop
endfacet
facet normal 0.853703 0.52076 0
  outer loop
    vertex 0.02346983706631894 0.04131515211191158 0.009999999999999972
    vertex 0.02557002588034745 0.03787222276925229 0.005
    vertex 0.02346983706631894 0.04131515211191158 0
  endloop
endfacet
facet normal 0.853703 0.52076 -0
  outer loop
    vertex 0.02767021469437595 0.03442929342659299 0.01000000000000003
    vertex 0.02557002588034745 0.03787222276925228 0.015
    vertex 0.02767021469437595 0.03442929342659299 0.02
  endloop
endfacet
facet normal 0.853703 0.52076 -1.26017e-15
  outer loop
    vertex 0.02346983706631894 0.04131515211191158 0
    vertex 0.02557002588034745 0.03787222276925229 0.005
    vertex 0.02767021469437595 0.03442929342659299 0
  endloop
endfacet
facet normal 0.853703 0.52076 5.0407e-16
  outer loop
    vertex 0.02767021469437595 0.03442929342659299 0.02
    vertex 0.02557002588034745 0.03787222276925228 0.015
    vertex 0.02346983706631894 0.04131515211191158 0.02
  endloop
endfacet
facet normal 0.853703 0.52076 1.26017e-15
  outer loop
    vertex 0.02767021469437595 0.03442929342659299 0.01000000000000003
    vertex 0.02557002588034745 0.03787222276925229 0.005
    vertex 0.02346983706631894 0.04131515211191158 0.009999999999999972
  endloop
endfacet
facet normal 0.853703 0.52076 -5.0407e-16
  outer loop
    vertex 0.02346983706631894 0.04131515211191158 0.009999999999999972
    vertex 0.02557002588034745 0.03787222276925228 0.015
    vertex 0.02767021469437595 0.03442929342659299 0.01000000000000003
  endloop
endfacet
facet normal 0.909333 -0.416068 0
  outer loop
    vertex 0.02767021469437595 0.03442929342659299 0.02
    vertex 0.02609489132167819 0.03098636408393369 0.015
    vertex 0.02767021469437595 0.03442929342659299 0.009999999999999972
  endloop
endfacet
facet normal 0.909333 -0.416068 0
  outer loop
    vertex 0.02451956794898045 0.02754343474127439 0
    vertex 0.02609489132167819 0.03098636408393369 0.004999999999999999
    vertex 0.02451956794898045 0.02754343474127439 0.01000000000000003
  endloop
endfacet
facet normal 0.909333 -0.416068 0
  outer loop
    vertex 0.02451956794898045 0.02754343474127439 0.01000000000000003
    vertex 0.02609489132167819 0.03098636408393369 0.015
    vertex 0.02451956794898045 0.02754343474127439 0.02
  endloop
endfacet
facet normal 0.909333 -0.416068 0
  outer loop
    vertex 0.02767021469437595 0.03442929342659299 0.009999999999999972
    vertex 0.02609489132167819 0.03098636408393369 0.004999999999999999
    vertex 0.02767021469437595 0.03442929342659299 0
  endloop
endfacet
facet normal 0.909333 -0.416068 1.70023e-15
  outer loop
    vertex 0.02767021469437595 0.03442929342659299 0.009999999999999972
    vertex 0.02609489132167819 0.03098636408393369 0.015
    vertex 0.02451956794898045 0.02754343474127439 0.01000000000000003
  endloop
endfacet
facet normal 0.909333 -0.416068 -1.70023e-15
  outer loop
    vertex 0.02451956794898045 0.02754343474127439 0.01000000000000003
    vertex 0.02609489132167819 0.03098636408393369 0.004999999999999999
    vertex 0.02767021469437595 0.03442929342659299 0.009999999999999972
  endloop
endfacet
facet normal 0.909333 -0.416068 1.70023e-15
  outer loop
    vertex 0.02767021469437595 0.03442929342659299 0
    vertex 0.02609489132167819 0.03098636408393369 0.004999999999999999
    vertex 0.02451956794898045 0.02754343474127439 0
  endloop
endfacet
facet normal 0.909333 -0.416068 -1.70023e-15
  outer loop
    vertex 0.02451956794898045 0.02754343474127439 0.02
    vertex 0.02609489132167819 0.03098636408393369 0.015
    vertex 0.02767021469437595 0.03442929342659299 0.02
  endloop
endfacet
facet normal 0.872387 0.488816 0
  outer loop
    vertex 0.02451956794898045 0.02754343474127439 0.02
    vertex 0.02644870969666087 0.02410050539861509 0.015
    vertex 0.02451956794898045 0.02754343474127439 0.009999999999999972
  endloop
endfacet
facet normal 0.872387 0.488816 -0
  outer loop
    vertex 0.02837785144434129 0.02065757605595579 0
    vertex 0.02644870969666087 0.02410050539861509 0.004999999999999999
    vertex 0.02837785144434129 0.02065757605595579 0.01000000000000003
  endloop
endfacet
facet normal 0.872387 0.488816 0
  outer loop
    vertex 0.02451956794898045 0.02754343474127439 0.009999999999999972
    vertex 0.02644870969666087 0.02410050539861509 0.004999999999999999
    vertex 0.02451956794898045 0.02754343474127439 0
  endloop
endfacet
facet normal 0.872387 0.488816 -0
  outer loop
    vertex 0.02837785144434129 0.02065757605595579 0.01000000000000003
    vertex 0.02644870969666087 0.02410050539861509 0.015
    vertex 0.02837785144434129 0.02065757605595579 0.02
  endloop
endfacet
facet normal 0.872387 0.488816 -1.717e-16
  outer loop
    vertex 0.02837785144434129 0.02065757605595579 0.01000000000000003
    vertex 0.02644870969666087 0.02410050539861509 0.004999999999999999
    vertex 0.02451956794898045 0.02754343474127439 0.009999999999999972
  endloop
endfacet
facet normal 0.872387 0.488816 -1.717e-16
  outer loop
    vertex 0.02837785144434129 0.02065757605595579 0.02
    vertex 0.02644870969666087 0.02410050539861509 0.015
    vertex 0.02451956794898045 0.02754343474127439 0.02
  endloop
endfacet
facet normal 0.872387 0.488816 1.717e-16
  outer loop
    vertex 0.02451956794898045 0.02754343474127439 0.009999999999999972
    vertex 0.02644870969666087 0.02410050539861509 0.015
    vertex 0.02837785144434129 0.02065757605595579 0.01000000000000003
  endloop
endfacet
facet normal 0.872387 0.488816 1.717e-16
  outer loop
    vertex 0.02451956794898045 0.02754343474127439 0
    vertex 0.02644870969666087 0.02410050539861509 0.004999999999999999
    vertex 0.02837785144434129 0.02065757605595579 0
  endloop
endfacet
facet normal 0.936704 0.350123 3.22628e-16
  outer loop
    vertex 0.02837785144434129 0.02065757605595579 0.009999999999999972
    vertex 0.02966475619065023 0.01721464671329649 0.015
    vertex 0.03095166093695918 0.0137717173706372 0.01000000000000003
  endloop
endfacet
facet normal 0.936704 0.350123 -3.22628e-16
  outer loop
    vertex 0.03095166093695918 0.0137717173706372 0.01000000000000003
    vertex 0.02966475619065023 0.01721464671329649 0.005000000000000001
    vertex 0.02837785144434129 0.02065757605595579 0.009999999999999972
  endloop
endfacet
facet normal 0.936704 0.350123 3.22628e-16
  outer loop
    vertex 0.02837785144434129 0.02065757605595579 0
    vertex 0.02966475619065023 0.01721464671329649 0.005000000000000001
    vertex 0.03095166093695918 0.0137717173706372 0
  endloop
endfacet
facet normal 0.936704 0.350123 -3.22628e-16
  outer loop
    vertex 0.03095166093695918 0.0137717173706372 0.02
    vertex 0.02966475619065023 0.01721464671329649 0.015
    vertex 0.02837785144434129 0.02065757605595579 0.02
  endloop
endfacet
facet normal 0.936704 0.350123 0
  outer loop
    vertex 0.02837785144434129 0.02065757605595579 0.009999999999999972
    vertex 0.02966475619065023 0.01721464671329649 0.005000000000000001
    vertex 0.02837785144434129 0.02065757605595579 0
  endloop
endfacet
facet normal 0.936704 0.350123 0
  outer loop
    vertex 0.02837785144434129 0.02065757605595579 0.02
    vertex 0.02966475619065023 0.01721464671329649 0.015
    vertex 0.02837785144434129 0.02065757605595579 0.009999999999999972
  endloop
endfacet
facet normal 0.936704 0.350123 -0
  outer loop
    vertex 0.03095166093695918 0.0137717173706372 0
    vertex 0.02966475619065023 0.01721464671329649 0.005000000000000001
    vertex 0.03095166093695918 0.0137717173706372 0.01000000000000003
  endloop
endfacet
facet normal 0.936704 0.350123 -0
  outer loop
    vertex 0.03095166093695918 0.0137717173706372 0.01000000000000003
    vertex 0.02966475619065023 0.01721464671329649 0.015
    vertex 0.03095166093695918 0.0137717173706372 0.02
  endloop
endfacet
facet normal 0.784067 -0.620677 0
  outer loop
    vertex 0.03095166093695918 0.0137717173706372 0.02
    vertex 0.02822619722122282 0.0103287880279779 0.015
    vertex 0.03095166093695918 0.0137717173706372 0.009999999999999972
  endloop
endfacet
facet normal 0.784067 -0.620677 0
  outer loop
    vertex 0.02550073350548647 0.006885858685318595 0
    vertex 0.02822619722122282 0.0103287880279779 0.005
    vertex 0.02550073350548647 0.006885858685318595 0.01000000000000003
  endloop
endfacet
facet normal 0.784067 -0.620677 0
  outer loop
    vertex 0.03095166093695918 0.0137717173706372 0.009999999999999972
    vertex 0.02822619722122282 0.0103287880279779 0.005
    vertex 0.03095166093695918 0.0137717173706372 0
  endloop
endfacet
facet normal 0.784067 -0.620677 0
  outer loop
    vertex 0.02550073350548647 0.006885858685318595 0.01000000000000003
    vertex 0.02822619722122282 0.0103287880279779 0.015
    vertex 0.02550073350548647 0.006885858685318595 0.02
  endloop
endfacet
facet normal 0.784067 -0.620677 4.62953e-16
  outer loop
    vertex 0.03095166093695918 0.0137717173706372 0.009999999999999972
    vertex 0.02822619722122282 0.0103287880279779 0.015
    vertex 0.02550073350548647 0.006885858685318595 0.01000000000000003
  endloop
endfacet
facet normal 0.784067 -0.620677 4.62953e-16
  outer loop
    vertex 0.03095166093695918 0.0137717173706372 0
    vertex 0.02822619722122282 0.0103287880279779 0.005
    vertex 0.02550073350548647 0.006885858685318595 0
  endloop
endfacet
facet normal 0.784067 -0.620677 -4.62953e-16
  outer loop
    vertex 0.02550073350548647 0.006885858685318595 0.01000000000000003
    vertex 0.02822619722122282 0.0103287880279779 0.005
    vertex 0.03095166093695918 0.0137717173706372 0.009999999999999972
  endloop
endfacet
facet normal 0.784067 -0.620677 -4.62953e-16
  outer loop
    vertex 0.02550073350548647 0.006885858685318595 0.02
    vertex 0.02822619722122282 0.0103287880279779 0.015
    vertex 0.03095166093695918 0.0137717173706372 0.02
  endloop
endfacet
endsolid Created by Gmsh
