solid Created by Gmsh
facet normal 0.999932 -0.0116382 -3.87639e-17
  outer loop
    vertex 0.008135543118849349 0.01164564945609957 0
    vertex 0.008101657339137012 0.008734237092074642 0.01160901192021454
    vertex 0.008 0 0
  endloop
endfacet
facet normal 0.999932 -0.0116382 -3.64145e-17
  outer loop
    vertex 0.008542172475397396 0.04658259782439827 0.02
    vertex 0.008576058255109733 0.0494940101884232 0.008390988079785472
    vertex 0.008677715594246745 0.05822824728049784 0.02
  endloop
endfacet
facet normal 0.999932 -0.0116382 0
  outer loop
    vertex 0.008677715594246745 0.05822824728049784 0.009999999999999972
    vertex 0.008576058255109733 0.0494940101884232 0.008390988079785472
    vertex 0.008677715594246745 0.05822824728049784 0
  endloop
endfacet
facet normal 0.999932 -0.0116382 0
  outer loop
    vertex 0.008 0 0.01000000000000003
    vertex 0.008101657339137012 0.008734237092074642 0.01160901192021454
    vertex 0.008 0 0.02
  endloop
endfacet
facet normal 0.999932 -0.0116382 -3.68369e-17
  outer loop
    vertex 0.008677715594246745 0.05822824728049784 0
    vertex 0.008576058255109733 0.0494940101884232 0.008390988079785472
    vertex 0.008542172475397396 0.04658259782439835 0
  endloop
endfacet
facet normal 0.999932 -0.0116382 -3.25031e-17
  outer loop
    vertex 0.008 0 0.02
    vertex 0.008101657339137012 0.008734237092074642 0.01160901192021454
    vertex 0.008135543118849349 0.01164564945609949 0.02
  endloop
endfacet
facet normal 0.999932 -0.0116382 -6.96984e-17
  outer loop
    vertex 0.008271086237698698 0.02329129891219917 0
    vertex 0.008338857797123372 0.02911412364024892 0.009999999999999998
    vertex 0.00820896230822608 0.01795370957815349 0.01026816865336909
  endloop
endfacet
facet normal 0.999932 -0.0116382 -1.82799e-17
  outer loop
    vertex 0.00820896230822608 0.01795370957815349 0.01026816865336909
    vertex 0.008338857797123372 0.02911412364024892 0.009999999999999998
    vertex 0.008271086237698698 0.02329129891219909 0.02
  endloop
endfacet
facet normal 0.999932 -0.0116382 -9.1193e-17
  outer loop
    vertex 0.008271086237698698 0.02329129891219917 0
    vertex 0.00820896230822608 0.01795370957815349 0.01026816865336909
    vertex 0.008135543118849349 0.01164564945609957 0
  endloop
endfacet
facet normal 0.999932 -0.0116382 -1.59742e-16
  outer loop
    vertex 0.008542172475397396 0.04658259782439835 0
    vertex 0.008468753286020666 0.04027453770234437 0.00973183134663091
    vertex 0.008406629356548047 0.03493694836829875 0
  endloop
endfacet
facet normal 0.999932 -0.0116382 1.86833e-18
  outer loop
    vertex 0.008135543118849349 0.01164564945609949 0.02
    vertex 0.00820896230822608 0.01795370957815349 0.01026816865336909
    vertex 0.008271086237698698 0.02329129891219909 0.02
  endloop
endfacet
facet normal 0.999932 -0.0116382 1.12266e-17
  outer loop
    vertex 0.008406629356548047 0.03493694836829868 0.02
    vertex 0.008338857797123372 0.02911412364024892 0.009999999999999998
    vertex 0.008468753286020666 0.04027453770234437 0.00973183134663091
  endloop
endfacet
facet normal 0.999932 -0.0116382 6.10904e-17
  outer loop
    vertex 0.008406629356548047 0.03493694836829868 0.02
    vertex 0.008468753286020666 0.04027453770234437 0.00973183134663091
    vertex 0.008542172475397396 0.04658259782439827 0.02
  endloop
endfacet
facet normal 0.999932 -0.0116382 -4.45465e-17
  outer loop
    vertex 0.008271086237698698 0.02329129891219909 0.02
    vertex 0.008338857797123372 0.02911412364024892 0.009999999999999998
    vertex 0.008406629356548047 0.03493694836829868 0.02
  endloop
endfacet
facet normal 0.999932 -0.0116382 -1.01983e-16
  outer loop
    vertex 0.008468753286020666 0.04027453770234437 0.00973183134663091
    vertex 0.008338857797123372 0.02911412364024892 0.009999999999999998
    vertex 0.008406629356548047 0.03493694836829875 0
  endloop
endfacet
facet normal 0.999932 -0.0116382 -4.45465e-17
  outer loop
    vertex 0.008406629356548047 0.03493694836829875 0
    vertex 0.008338857797123372 0.02911412364024892 0.009999999999999998
    vertex 0.008271086237698698 0.02329129891219917 0
  endloop
endfacet
facet normal 0.999932 -0.0116382 -5.03051e-17
  outer loop
    vertex 0.00820896230822608 0.01795370957815349 0.01026816865336909
    vertex 0.008101657339137012 0.008734237092074642 0.01160901192021454
    vertex 0.008135543118849349 0.01164564945609957 0
  endloop
endfacet
facet normal 0.999932 -0.0116382 -6.15981e-18
  outer loop
    vertex 0.008468753286020666 0.04027453770234437 0.00973183134663091
    vertex 0.008576058255109733 0.0494940101884232 0.008390988079785472
    vertex 0.008542172475397396 0.04658259782439827 0.02
  endloop
endfacet
facet normal 0.999932 -0.0116382 -1.02922e-16
  outer loop
    vertex 0.008542172475397396 0.04658259782439835 0
    vertex 0.008576058255109733 0.0494940101884232 0.008390988079785472
    vertex 0.008468753286020666 0.04027453770234437 0.00973183134663091
  endloop
endfacet
facet normal 0.999932 -0.0116382 -4.29928e-17
  outer loop
    vertex 0.008135543118849349 0.01164564945609949 0.02
    vertex 0.008101657339137012 0.008734237092074642 0.01160901192021454
    vertex 0.00820896230822608 0.01795370957815349 0.01026816865336909
  endloop
endfacet
facet normal 0.999932 -0.0116382 0
  outer loop
    vertex 0.008 0 0
    vertex 0.008101657339137012 0.008734237092074642 0.01160901192021454
    vertex 0.008 0 0.01000000000000003
  endloop
endfacet
facet normal 0.999932 -0.0116382 0
  outer loop
    vertex 0.008677715594246745 0.05822824728049784 0.02
    vertex 0.008576058255109733 0.0494940101884232 0.008390988079785472
    vertex 0.008677715594246745 0.05822824728049784 0.009999999999999972
  endloop
endfacet
endsolid Created by Gmsh
