solid Created by Gmsh
facet normal -0.372819 0.927904 -8.80586e-16
  outer loop
    vertex 0.016 0.039375 0.02
    vertex 0.023 0.0421875 0.02
    vertex 0.02310204081632653 0.04222849854227405 0.01234958972986517
  endloop
endfacet
facet normal -0.372819 0.927904 -8.94345e-16
  outer loop
    vertex 0.023 0.0421875 0.02
    vertex 0.03 0.045 0.02
    vertex 0.02310204081632653 0.04222849854227405 0.01234958972986517
  endloop
endfacet
facet normal -0.372819 0.927904 0
  outer loop
    vertex 0.03 0.045 0.02
    vertex 0.03 0.045 0.009999999999999972
    vertex 0.02310204081632653 0.04222849854227405 0.01234958972986517
  endloop
endfacet
facet normal -0.372819 0.927904 0
  outer loop
    vertex 0.016 0.039375 0.01000000000000003
    vertex 0.016 0.039375 0.02
    vertex 0.02310204081632653 0.04222849854227405 0.01234958972986517
  endloop
endfacet
facet normal -0.372819 0.927904 0
  outer loop
    vertex 0.016 0.039375 0
    vertex 0.016 0.039375 0.01000000000000003
    vertex 0.0209 0.04134375 0.005353652343750005
  endloop
endfacet
facet normal -0.372819 0.927904 0
  outer loop
    vertex 0.03 0.045 0.009999999999999972
    vertex 0.03 0.045 0
    vertex 0.02571457725947522 0.04327817836318201 0.005386177439087874
  endloop
endfacet
facet normal -0.372819 0.927904 -1.04864e-16
  outer loop
    vertex 0.023 0.0421875 0
    vertex 0.016 0.039375 0
    vertex 0.0209 0.04134375 0.005353652343750005
  endloop
endfacet
facet normal -0.372819 0.927904 -1.25077e-16
  outer loop
    vertex 0.03 0.045 0
    vertex 0.023 0.0421875 0
    vertex 0.02571457725947522 0.04327817836318201 0.005386177439087874
  endloop
endfacet
facet normal -0.372819 0.927904 4.67685e-16
  outer loop
    vertex 0.0209 0.04134375 0.005353652343750005
    vertex 0.02310204081632653 0.04222849854227405 0.01234958972986517
    vertex 0.02571457725947522 0.04327817836318201 0.005386177439087874
  endloop
endfacet
facet normal -0.372819 0.927904 -2.58502e-16
  outer loop
    vertex 0.023 0.0421875 0
    vertex 0.0209 0.04134375 0.005353652343750005
    vertex 0.02571457725947522 0.04327817836318201 0.005386177439087874
  endloop
endfacet
facet normal -0.372819 0.927904 2.81406e-16
  outer loop
    vertex 0.02310204081632653 0.04222849854227405 0.01234958972986517
    vertex 0.03 0.045 0.009999999999999972
    vertex 0.02571457725947522 0.04327817836318201 0.005386177439087874
  endloop
endfacet
facet normal -0.372819 0.927904 2.82521e-16
  outer loop
    vertex 0.0209 0.04134375 0.005353652343750005
    vertex 0.016 0.039375 0.01000000000000003
    vertex 0.02310204081632653 0.04222849854227405 0.01234958972986517
  endloop
endfacet
facet normal -0.203954 -0.97898 8.56376e-16
  outer loop
    vertex 0.03400000000000001 0.035625 0.02
    vertex 0.02500000000000002 0.0375 0.02
    vertex 0.02950000000000001 0.03656249999999999 0.01203842234541421
  endloop
endfacet
facet normal -0.203954 -0.97898 -0
  outer loop
    vertex 0.016 0.039375 0.02
    vertex 0.016 0.039375 0.009999999999999972
    vertex 0.02243717964001863 0.03803392090832945 0.013180867244295
  endloop
endfacet
facet normal -0.203954 -0.97898 0
  outer loop
    vertex 0.04299999999999999 0.03375 0.01000000000000003
    vertex 0.04299999999999999 0.03375 0.02
    vertex 0.03656282035998137 0.03509107909167054 0.01318086724429502
  endloop
endfacet
facet normal -0.203954 -0.97898 1.08092e-15
  outer loop
    vertex 0.02500000000000002 0.0375 0.02
    vertex 0.016 0.039375 0.02
    vertex 0.02243717964001863 0.03803392090832945 0.013180867244295
  endloop
endfacet
facet normal -0.203954 -0.97898 6.48551e-16
  outer loop
    vertex 0.04299999999999999 0.03375 0.02
    vertex 0.03400000000000001 0.035625 0.02
    vertex 0.03656282035998137 0.03509107909167054 0.01318086724429502
  endloop
endfacet
facet normal -0.203954 -0.97898 -4.55091e-16
  outer loop
    vertex 0.02949999999999999 0.0365625 0.004886006976090676
    vertex 0.02950000000000001 0.03656249999999999 0.01203842234541421
    vertex 0.02224696809425367 0.03807354831369715 0.006373798186900196
  endloop
endfacet
facet normal -0.203954 -0.97898 -4.55091e-16
  outer loop
    vertex 0.02950000000000001 0.03656249999999999 0.01203842234541421
    vertex 0.02949999999999999 0.0365625 0.004886006976090676
    vertex 0.03675303190574633 0.03505145168630285 0.006373798186900198
  endloop
endfacet
facet normal -0.203954 -0.97898 0
  outer loop
    vertex 0.04299999999999999 0.03375 0
    vertex 0.04299999999999999 0.03375 0.01000000000000003
    vertex 0.03675303190574633 0.03505145168630285 0.006373798186900198
  endloop
endfacet
facet normal -0.203954 -0.97898 -0
  outer loop
    vertex 0.016 0.039375 0.009999999999999972
    vertex 0.016 0.039375 0
    vertex 0.02224696809425367 0.03807354831369715 0.006373798186900196
  endloop
endfacet
facet normal -0.203954 -0.97898 -5.15108e-16
  outer loop
    vertex 0.02950000000000001 0.03656249999999999 0.01203842234541421
    vertex 0.02243717964001863 0.03803392090832945 0.013180867244295
    vertex 0.02224696809425367 0.03807354831369715 0.006373798186900196
  endloop
endfacet
facet normal -0.203954 -0.97898 -3.67015e-16
  outer loop
    vertex 0.03656282035998137 0.03509107909167054 0.01318086724429502
    vertex 0.02950000000000001 0.03656249999999999 0.01203842234541421
    vertex 0.03675303190574633 0.03505145168630285 0.006373798186900198
  endloop
endfacet
facet normal -0.203954 -0.97898 -5.7822e-16
  outer loop
    vertex 0.016 0.039375 0
    vertex 0.02499999999999998 0.03750000000000001 0
    vertex 0.02224696809425367 0.03807354831369715 0.006373798186900196
  endloop
endfacet
facet normal -0.203954 -0.97898 -2.45744e-16
  outer loop
    vertex 0.03399999999999997 0.035625 0
    vertex 0.04299999999999999 0.03375 0
    vertex 0.03675303190574633 0.03505145168630285 0.006373798186900198
  endloop
endfacet
facet normal -0.203954 -0.97898 1.10369e-15
  outer loop
    vertex 0.02950000000000001 0.03656249999999999 0.01203842234541421
    vertex 0.02500000000000002 0.0375 0.02
    vertex 0.02243717964001863 0.03803392090832945 0.013180867244295
  endloop
endfacet
facet normal -0.203954 -0.97898 6.16766e-16
  outer loop
    vertex 0.03400000000000001 0.035625 0.02
    vertex 0.02950000000000001 0.03656249999999999 0.01203842234541421
    vertex 0.03656282035998137 0.03509107909167054 0.01318086724429502
  endloop
endfacet
facet normal -0.203954 -0.97898 -6.7886e-16
  outer loop
    vertex 0.02499999999999998 0.03750000000000001 0
    vertex 0.03399999999999997 0.035625 0
    vertex 0.02949999999999999 0.0365625 0.004886006976090676
  endloop
endfacet
facet normal -0.203954 -0.97898 -2.55853e-16
  outer loop
    vertex 0.02949999999999999 0.0365625 0.004886006976090676
    vertex 0.03399999999999997 0.035625 0
    vertex 0.03675303190574633 0.03505145168630285 0.006373798186900198
  endloop
endfacet
facet normal -0.203954 -0.97898 -7.28198e-16
  outer loop
    vertex 0.02499999999999998 0.03750000000000001 0
    vertex 0.02949999999999999 0.0365625 0.004886006976090676
    vertex 0.02224696809425367 0.03807354831369715 0.006373798186900196
  endloop
endfacet
facet normal -0.203954 -0.97898 -3.45406e-16
  outer loop
    vertex 0.04299999999999999 0.03375 0.01000000000000003
    vertex 0.03656282035998137 0.03509107909167054 0.01318086724429502
    vertex 0.03675303190574633 0.03505145168630285 0.006373798186900198
  endloop
endfacet
facet normal -0.203954 -0.97898 -4.98919e-16
  outer loop
    vertex 0.02243717964001863 0.03803392090832945 0.013180867244295
    vertex 0.016 0.039375 0.009999999999999972
    vertex 0.02224696809425367 0.03807354831369715 0.006373798186900196
  endloop
endfacet
facet normal -0.203954 0.97898 1.62017e-16
  outer loop
    vertex 0.03400000000000002 0.03187500000000001 0
    vertex 0.02500000000000002 0.03 0
    vertex 0.02950000000000002 0.0309375 0.007961577654585791
  endloop
endfacet
facet normal -0.203954 0.97898 0
  outer loop
    vertex 0.016 0.028125 0
    vertex 0.016 0.028125 0.01000000000000003
    vertex 0.02243717964001864 0.02946607909167055 0.006819132755705002
  endloop
endfacet
facet normal -0.203954 0.97898 0
  outer loop
    vertex 0.04299999999999999 0.03375 0.009999999999999972
    vertex 0.04299999999999999 0.03375 0
    vertex 0.03656282035998137 0.03240892090832945 0.006819132755704982
  endloop
endfacet
facet normal -0.203954 0.97898 -2.02672e-16
  outer loop
    vertex 0.02500000000000002 0.03 0
    vertex 0.016 0.028125 0
    vertex 0.02243717964001864 0.02946607909167055 0.006819132755705002
  endloop
endfacet
facet normal -0.203954 0.97898 2.16184e-16
  outer loop
    vertex 0.04299999999999999 0.03375 0
    vertex 0.03400000000000002 0.03187500000000001 0
    vertex 0.03656282035998137 0.03240892090832945 0.006819132755704982
  endloop
endfacet
facet normal -0.203954 0.97898 -2.17652e-16
  outer loop
    vertex 0.02949999999999999 0.0309375 0.01511399302390933
    vertex 0.02950000000000002 0.0309375 0.007961577654585791
    vertex 0.02224696809425367 0.02942645168630285 0.0136262018130998
  endloop
endfacet
facet normal -0.203954 0.97898 -2.17652e-16
  outer loop
    vertex 0.02950000000000002 0.0309375 0.007961577654585791
    vertex 0.02949999999999999 0.0309375 0.01511399302390933
    vertex 0.03675303190574633 0.03244854831369716 0.0136262018130998
  endloop
endfacet
facet normal -0.203954 0.97898 0
  outer loop
    vertex 0.04299999999999999 0.03375 0.02
    vertex 0.04299999999999999 0.03375 0.009999999999999972
    vertex 0.03675303190574633 0.03244854831369716 0.0136262018130998
  endloop
endfacet
facet normal -0.203954 0.97898 0
  outer loop
    vertex 0.016 0.028125 0.01000000000000003
    vertex 0.016 0.028125 0.02
    vertex 0.02224696809425367 0.02942645168630285 0.0136262018130998
  endloop
endfacet
facet normal -0.203954 0.97898 -6.86811e-17
  outer loop
    vertex 0.02950000000000002 0.0309375 0.007961577654585791
    vertex 0.02243717964001864 0.02946607909167055 0.006819132755705002
    vertex 0.02224696809425367 0.02942645168630285 0.0136262018130998
  endloop
endfacet
facet normal -0.203954 0.97898 -6.09545e-16
  outer loop
    vertex 0.03656282035998137 0.03240892090832945 0.006819132755704982
    vertex 0.02950000000000002 0.0309375 0.007961577654585791
    vertex 0.03675303190574633 0.03244854831369716 0.0136262018130998
  endloop
endfacet
facet normal -0.203954 0.97898 1.15644e-16
  outer loop
    vertex 0.016 0.028125 0.02
    vertex 0.02499999999999998 0.03 0.02
    vertex 0.02224696809425367 0.02942645168630285 0.0136262018130998
  endloop
endfacet
facet normal -0.203954 0.97898 9.9743e-16
  outer loop
    vertex 0.03399999999999997 0.03187499999999999 0.02
    vertex 0.04299999999999999 0.03375 0.02
    vertex 0.03675303190574633 0.03244854831369716 0.0136262018130998
  endloop
endfacet
facet normal -0.203954 0.97898 -1.62307e-16
  outer loop
    vertex 0.02950000000000002 0.0309375 0.007961577654585791
    vertex 0.02500000000000002 0.03 0
    vertex 0.02243717964001864 0.02946607909167055 0.006819132755705002
  endloop
endfacet
facet normal -0.203954 0.97898 3.24614e-16
  outer loop
    vertex 0.03400000000000002 0.03187500000000001 0
    vertex 0.02950000000000002 0.0309375 0.007961577654585791
    vertex 0.03656282035998137 0.03240892090832945 0.006819132755704982
  endloop
endfacet
facet normal -0.203954 0.97898 3.77144e-16
  outer loop
    vertex 0.02499999999999998 0.03 0.02
    vertex 0.03399999999999997 0.03187499999999999 0.02
    vertex 0.02949999999999999 0.0309375 0.01511399302390933
  endloop
endfacet
facet normal -0.203954 0.97898 1.02341e-15
  outer loop
    vertex 0.02949999999999999 0.0309375 0.01511399302390933
    vertex 0.03399999999999997 0.03187499999999999 0.02
    vertex 0.03675303190574633 0.03244854831369716 0.0136262018130998
  endloop
endfacet
facet normal -0.203954 0.97898 6.88836e-17
  outer loop
    vertex 0.02499999999999998 0.03 0.02
    vertex 0.02949999999999999 0.0309375 0.01511399302390933
    vertex 0.02224696809425367 0.02942645168630285 0.0136262018130998
  endloop
endfacet
facet normal -0.203954 0.97898 -6.14055e-16
  outer loop
    vertex 0.04299999999999999 0.03375 0.009999999999999972
    vertex 0.03656282035998137 0.03240892090832945 0.006819132755704982
    vertex 0.03675303190574633 0.03244854831369716 0.0136262018130998
  endloop
endfacet
facet normal -0.203954 0.97898 -9.47467e-17
  outer loop
    vertex 0.02243717964001864 0.02946607909167055 0.006819132755705002
    vertex 0.016 0.028125 0.01000000000000003
    vertex 0.02224696809425367 0.02942645168630285 0.0136262018130998
  endloop
endfacet
facet normal -1 0 6.93889e-16
  outer loop
    vertex 0.016 0.028125 0
    vertex 0.016 0.0225 0
    vertex 0.016 0.0253125 0.005
  endloop
endfacet
facet normal -1 6.84775e-30 6.93889e-16
  outer loop
    vertex 0.016 0.028125 0.009999999999999972
    vertex 0.016 0.0225 0.01000000000000003
    vertex 0.016 0.0253125 0.015
  endloop
endfacet
facet normal -1 -6.84775e-30 -6.93889e-16
  outer loop
    vertex 0.016 0.0225 0.01000000000000003
    vertex 0.016 0.028125 0.009999999999999972
    vertex 0.016 0.0253125 0.005
  endloop
endfacet
facet normal -1 0 -6.93889e-16
  outer loop
    vertex 0.016 0.0225 0.02
    vertex 0.016 0.028125 0.02
    vertex 0.016 0.0253125 0.015
  endloop
endfacet
facet normal -1 -1.23358e-15 -0
  outer loop
    vertex 0.016 0.028125 0.009999999999999972
    vertex 0.016 0.028125 0
    vertex 0.016 0.0253125 0.005
  endloop
endfacet
facet normal -1 -1.23358e-15 -0
  outer loop
    vertex 0.016 0.028125 0.02
    vertex 0.016 0.028125 0.009999999999999972
    vertex 0.016 0.0253125 0.015
  endloop
endfacet
facet normal -1 1.23358e-15 0
  outer loop
    vertex 0.016 0.0225 0
    vertex 0.016 0.0225 0.01000000000000003
    vertex 0.016 0.0253125 0.005
  endloop
endfacet
facet normal -1 1.23358e-15 0
  outer loop
    vertex 0.016 0.0225 0.01000000000000003
    vertex 0.016 0.0225 0.02
    vertex 0.016 0.0253125 0.015
  endloop
endfacet
facet normal -0.626391 -0.779509 0
  outer loop
    vertex 0.023 0.016875 0
    vertex 0.023 0.016875 0.01000000000000003
    vertex 0.0195 0.0196875 0.005
  endloop
endfacet
facet normal -0.626391 -0.779509 -0
  outer loop
    vertex 0.016 0.0225 0.02
    vertex 0.016 0.0225 0.009999999999999972
    vertex 0.0195 0.0196875 0.015
  endloop
endfacet
facet normal -0.626391 -0.779509 0
  outer loop
    vertex 0.023 0.016875 0.01000000000000003
    vertex 0.023 0.016875 0.02
    vertex 0.0195 0.0196875 0.015
  endloop
endfacet
facet normal -0.626391 -0.779509 -0
  outer loop
    vertex 0.016 0.0225 0.009999999999999972
    vertex 0.016 0.0225 0
    vertex 0.0195 0.0196875 0.005
  endloop
endfacet
facet normal -0.626391 -0.779509 -4.52756e-16
  outer loop
    vertex 0.016 0.0225 0.009999999999999972
    vertex 0.023 0.016875 0.01000000000000003
    vertex 0.0195 0.0196875 0.015
  endloop
endfacet
facet normal -0.626391 -0.779509 -5.28216e-16
  outer loop
    vertex 0.016 0.0225 0
    vertex 0.023 0.016875 0
    vertex 0.0195 0.0196875 0.005
  endloop
endfacet
facet normal -0.626391 -0.779509 4.52756e-16
  outer loop
    vertex 0.023 0.016875 0.02
    vertex 0.016 0.0225 0.02
    vertex 0.0195 0.0196875 0.015
  endloop
endfacet
facet normal -0.626391 -0.779509 5.28216e-16
  outer loop
    vertex 0.023 0.016875 0.01000000000000003
    vertex 0.016 0.0225 0.009999999999999972
    vertex 0.0195 0.0196875 0.005
  endloop
endfacet
facet normal -0.410401 -0.911905 -0
  outer loop
    vertex 0.023 0.016875 0.02
    vertex 0.023 0.016875 0.009999999999999972
    vertex 0.02737453994747487 0.01490624999999999 0.015
  endloop
endfacet
facet normal -0.410401 -0.911905 0
  outer loop
    vertex 0.03549868556421391 0.01125 0
    vertex 0.03549868556421391 0.01125 0.01000000000000003
    vertex 0.03112414561673904 0.01321874999999999 0.005000000000000004
  endloop
endfacet
facet normal -0.410401 -0.911905 -0
  outer loop
    vertex 0.023 0.016875 0.009999999999999972
    vertex 0.023 0.016875 0
    vertex 0.02712456623619059 0.01501875 0.004999999999999998
  endloop
endfacet
facet normal -0.410401 -0.911905 0
  outer loop
    vertex 0.03549868556421391 0.01125 0.01000000000000003
    vertex 0.03549868556421391 0.01125 0.02
    vertex 0.03137411932802332 0.01310624999999999 0.01500000000000001
  endloop
endfacet
facet normal -0.410401 -0.911905 -6.42716e-16
  outer loop
    vertex 0.02924934278210695 0.0140625 0
    vertex 0.03549868556421391 0.01125 0
    vertex 0.03112414561673904 0.01321874999999999 0.005000000000000004
  endloop
endfacet
facet normal -0.410401 -0.911905 6.92156e-16
  outer loop
    vertex 0.02924934278210696 0.0140625 0.02
    vertex 0.023 0.016875 0.02
    vertex 0.02737453994747487 0.01490624999999999 0.015
  endloop
endfacet
facet normal -0.410401 -0.911905 6.42716e-16
  outer loop
    vertex 0.03549868556421391 0.01125 0.02
    vertex 0.02924934278210696 0.0140625 0.02
    vertex 0.03137411932802332 0.01310624999999999 0.01500000000000001
  endloop
endfacet
facet normal -0.410401 -0.911905 -3.46078e-16
  outer loop
    vertex 0.023 0.016875 0
    vertex 0.02924934278210695 0.0140625 0
    vertex 0.02712456623619059 0.01501875 0.004999999999999998
  endloop
endfacet
facet normal -0.410401 -0.911905 -4.24872e-16
  outer loop
    vertex 0.02924934278210695 0.0140625 0
    vertex 0.03112414561673904 0.01321874999999999 0.005000000000000004
    vertex 0.02712456623619059 0.01501875 0.004999999999999998
  endloop
endfacet
facet normal -0.410401 -0.911905 7.62839e-16
  outer loop
    vertex 0.02924934278210696 0.0140625 0.02
    vertex 0.02737453994747487 0.01490624999999999 0.015
    vertex 0.03137411932802332 0.01310624999999999 0.01500000000000001
  endloop
endfacet
facet normal -0.410401 -0.911905 3.86248e-16
  outer loop
    vertex 0.02712456623619059 0.01501875 0.004999999999999998
    vertex 0.03112414561673904 0.01321874999999999 0.005000000000000004
    vertex 0.02924934278210696 0.0140625 0.01
  endloop
endfacet
facet normal -0.410401 -0.911905 -1.54499e-16
  outer loop
    vertex 0.03137411932802332 0.01310624999999999 0.01500000000000001
    vertex 0.02737453994747487 0.01490624999999999 0.015
    vertex 0.02924934278210696 0.0140625 0.01
  endloop
endfacet
facet normal -0.410401 -0.911905 3.46078e-16
  outer loop
    vertex 0.023 0.016875 0.009999999999999972
    vertex 0.02712456623619059 0.01501875 0.004999999999999998
    vertex 0.02924934278210696 0.0140625 0.01
  endloop
endfacet
facet normal -0.410401 -0.911905 -2.47198e-16
  outer loop
    vertex 0.02737453994747487 0.01490624999999999 0.015
    vertex 0.023 0.016875 0.009999999999999972
    vertex 0.02924934278210696 0.0140625 0.01
  endloop
endfacet
facet normal -0.410401 -0.911905 5.93276e-16
  outer loop
    vertex 0.03112414561673904 0.01321874999999999 0.005000000000000004
    vertex 0.03549868556421391 0.01125 0.01000000000000003
    vertex 0.02924934278210696 0.0140625 0.01
  endloop
endfacet
facet normal -0.410401 -0.911905 -2.47198e-16
  outer loop
    vertex 0.03549868556421391 0.01125 0.01000000000000003
    vertex 0.03137411932802332 0.01310624999999999 0.01500000000000001
    vertex 0.02924934278210696 0.0140625 0.01
  endloop
endfacet
facet normal -0.299098 0.954223 9.42646e-17
  outer loop
    vertex 0.03549868556421391 0.01125 0
    vertex 0.02652586103544349 0.008437499999999995 0
    vertex 0.02832846681384595 0.009002520382990995 0.007644728296573694
  endloop
endfacet
facet normal -0.299098 0.954223 0
  outer loop
    vertex 0.03549868556421391 0.01125 0.009999999999999972
    vertex 0.03549868556421391 0.01125 0
    vertex 0.02832846681384595 0.009002520382990995 0.007644728296573694
  endloop
endfacet
facet normal -0.299098 0.954223 0
  outer loop
    vertex 0.01755303650667309 0.005624999999999998 0.01000000000000003
    vertex 0.01755303650667309 0.005624999999999998 0.02
    vertex 0.02411779822561081 0.007682701259543346 0.01308072225840579
  endloop
endfacet
facet normal -0.299098 0.954223 -2.08296e-16
  outer loop
    vertex 0.01755303650667309 0.005624999999999998 0.02
    vertex 0.0265258610354435 0.008437499999999999 0.02
    vertex 0.02411779822561081 0.007682701259543346 0.01308072225840579
  endloop
endfacet
facet normal -0.299098 0.954223 0
  outer loop
    vertex 0.03549868556421391 0.01125 0.02
    vertex 0.03549868556421391 0.01125 0.009999999999999972
    vertex 0.03008494106077653 0.009553081001183451 0.01420195303525311
  endloop
endfacet
facet normal -0.299098 0.954223 0
  outer loop
    vertex 0.01755303650667309 0.005624999999999998 0
    vertex 0.01755303650667309 0.005624999999999998 0.01000000000000003
    vertex 0.02203944877105829 0.007031249999999996 0.005000000000000014
  endloop
endfacet
facet normal -0.299098 0.954223 -2.17504e-16
  outer loop
    vertex 0.0265258610354435 0.008437499999999999 0.02
    vertex 0.03549868556421391 0.01125 0.02
    vertex 0.03008494106077653 0.009553081001183451 0.01420195303525311
  endloop
endfacet
facet normal -0.299098 0.954223 1.44125e-16
  outer loop
    vertex 0.02652586103544349 0.008437499999999995 0
    vertex 0.01755303650667309 0.005624999999999998 0
    vertex 0.02203944877105829 0.007031249999999996 0.005000000000000014
  endloop
endfacet
facet normal -0.299098 0.954223 -3.46556e-17
  outer loop
    vertex 0.01755303650667309 0.005624999999999998 0.01000000000000003
    vertex 0.02411779822561081 0.007682701259543346 0.01308072225840579
    vertex 0.02203944877105829 0.007031249999999996 0.005000000000000014
  endloop
endfacet
facet normal -0.299098 0.954223 1.78332e-17
  outer loop
    vertex 0.02411779822561081 0.007682701259543346 0.01308072225840579
    vertex 0.02832846681384595 0.009002520382990995 0.007644728296573694
    vertex 0.02203944877105829 0.007031249999999996 0.005000000000000014
  endloop
endfacet
facet normal -0.299098 0.954223 2.82741e-17
  outer loop
    vertex 0.03008494106077653 0.009553081001183451 0.01420195303525311
    vertex 0.03549868556421391 0.01125 0.009999999999999972
    vertex 0.02832846681384595 0.009002520382990995 0.007644728296573694
  endloop
endfacet
facet normal -0.299098 0.954223 7.46479e-17
  outer loop
    vertex 0.02832846681384595 0.009002520382990995 0.007644728296573694
    vertex 0.02652586103544349 0.008437499999999995 0
    vertex 0.02203944877105829 0.007031249999999996 0.005000000000000014
  endloop
endfacet
facet normal -0.299098 0.954223 -1.08758e-17
  outer loop
    vertex 0.03008494106077653 0.009553081001183451 0.01420195303525311
    vertex 0.02832846681384595 0.009002520382990995 0.007644728296573694
    vertex 0.02411779822561081 0.007682701259543346 0.01308072225840579
  endloop
endfacet
facet normal -0.299098 0.954223 -2.72294e-16
  outer loop
    vertex 0.0265258610354435 0.008437499999999999 0.02
    vertex 0.03008494106077653 0.009553081001183451 0.01420195303525311
    vertex 0.02411779822561081 0.007682701259543346 0.01308072225840579
  endloop
endfacet
endsolid Created by Gmsh
