solid Created by Gmsh
facet normal 1 0 0
  outer loop
    vertex 0.04 0.05822824728049784 0
    vertex 0.04 0.06 0
    vertex 0.04 0.06 0.009999999999999972
  endloop
endfacet
facet normal 1 0 0
  outer loop
    vertex 0.04 0.05822824728049784 0.01000000000000003
    vertex 0.04 0.06 0.02
    vertex 0.04 0.05822824728049784 0.02
  endloop
endfacet
facet normal 1 0 -0
  outer loop
    vertex 0.04 0.06 0.009999999999999972
    vertex 0.04 0.06 0.02
    vertex 0.04 0.05822824728049784 0.01000000000000003
  endloop
endfacet
facet normal 1 0 0
  outer loop
    vertex 0.04 0.05822824728049784 0
    vertex 0.04 0.06 0.009999999999999972
    vertex 0.04 0.05822824728049784 0.01000000000000003
  endloop
endfacet
facet normal 0.549194 0.835695 1.02259e-16
  outer loop
    vertex 0.05107555177862891 0.05094971637043561 0.01000000000000003
    vertex 0.04 0.05822824728049784 0.009999999999999972
    vertex 0.04553777588931446 0.05458898182546672 0.02
  endloop
endfacet
facet normal 0.549194 0.835695 1.02259e-16
  outer loop
    vertex 0.04553777588931445 0.05458898182546673 0
    vertex 0.04 0.05822824728049784 0.009999999999999972
    vertex 0.05107555177862891 0.05094971637043561 0.01000000000000003
  endloop
endfacet
facet normal 0.549194 0.835695 0
  outer loop
    vertex 0.04553777588931445 0.05458898182546673 0
    vertex 0.04 0.05822824728049784 0
    vertex 0.04 0.05822824728049784 0.009999999999999972
  endloop
endfacet
facet normal 0.549194 0.835695 -0
  outer loop
    vertex 0.04 0.05822824728049784 0.009999999999999972
    vertex 0.04 0.05822824728049784 0.02
    vertex 0.04553777588931446 0.05458898182546672 0.02
  endloop
endfacet
facet normal 0.549194 0.835695 0
  outer loop
    vertex 0.05107555177862891 0.05094971637043561 0.01000000000000003
    vertex 0.05107555177862891 0.05094971637043561 0
    vertex 0.04553777588931445 0.05458898182546673 0
  endloop
endfacet
facet normal 0.549194 0.835695 0
  outer loop
    vertex 0.04553777588931446 0.05458898182546672 0.02
    vertex 0.05107555177862891 0.05094971637043561 0.02
    vertex 0.05107555177862891 0.05094971637043561 0.01000000000000003
  endloop
endfacet
facet normal 0.852373 0.522934 0
  outer loop
    vertex 0.05107555177862891 0.05094971637043561 0.02
    vertex 0.05330825352406805 0.0473104509154045 0.015
    vertex 0.05107555177862891 0.05094971637043561 0.009999999999999972
  endloop
endfacet
facet normal 0.852373 0.522934 -0
  outer loop
    vertex 0.0555409552695072 0.04367118546037338 0
    vertex 0.05330825352406805 0.0473104509154045 0.005
    vertex 0.0555409552695072 0.04367118546037338 0.01000000000000003
  endloop
endfacet
facet normal 0.852373 0.522934 0
  outer loop
    vertex 0.05107555177862891 0.05094971637043561 0.009999999999999972
    vertex 0.05330825352406805 0.0473104509154045 0.005
    vertex 0.05107555177862891 0.05094971637043561 0
  endloop
endfacet
facet normal 0.852373 0.522934 -0
  outer loop
    vertex 0.0555409552695072 0.04367118546037338 0.01000000000000003
    vertex 0.05330825352406805 0.0473104509154045 0.015
    vertex 0.0555409552695072 0.04367118546037338 0.02
  endloop
endfacet
facet normal 0.852373 0.522934 -3.17422e-16
  outer loop
    vertex 0.05107555177862891 0.05094971637043561 0
    vertex 0.05330825352406805 0.0473104509154045 0.005
    vertex 0.0555409552695072 0.04367118546037338 0
  endloop
endfacet
facet normal 0.852373 0.522934 3.96777e-16
  outer loop
    vertex 0.0555409552695072 0.04367118546037338 0.01000000000000003
    vertex 0.05330825352406805 0.0473104509154045 0.005
    vertex 0.05107555177862891 0.05094971637043561 0.009999999999999972
  endloop
endfacet
facet normal 0.852373 0.522934 -3.17422e-16
  outer loop
    vertex 0.05107555177862891 0.05094971637043561 0.009999999999999972
    vertex 0.05330825352406805 0.0473104509154045 0.015
    vertex 0.0555409552695072 0.04367118546037338 0.01000000000000003
  endloop
endfacet
facet normal 0.852373 0.522934 3.96777e-16
  outer loop
    vertex 0.0555409552695072 0.04367118546037338 0.02
    vertex 0.05330825352406805 0.0473104509154045 0.015
    vertex 0.05107555177862891 0.05094971637043561 0.02
  endloop
endfacet
facet normal 0.64201 -0.766696 -1.68495e-15
  outer loop
    vertex 0.0555409552695072 0.04367118546037338 0
    vertex 0.05119490115483043 0.04003192000534226 0.005675738850308961
    vertex 0.04684884704015366 0.03639265455031115 0
  endloop
endfacet
facet normal 0.64201 -0.766696 1.66932e-15
  outer loop
    vertex 0.04684884704015366 0.03639265455031115 0.02
    vertex 0.05119490115483043 0.04003192000534226 0.01427113702623907
    vertex 0.0555409552695072 0.04367118546037338 0.02
  endloop
endfacet
facet normal 0.64201 -0.766696 0
  outer loop
    vertex 0.04684884704015366 0.03639265455031115 0.01000000000000003
    vertex 0.05119490115483043 0.04003192000534226 0.005675738850308961
    vertex 0.05119490115483043 0.04003192000534226 0.01427113702623907
  endloop
endfacet
facet normal 0.64201 -0.766696 0
  outer loop
    vertex 0.05119490115483043 0.04003192000534226 0.01427113702623907
    vertex 0.05119490115483043 0.04003192000534226 0.005675738850308961
    vertex 0.0555409552695072 0.04367118546037338 0.009999999999999972
  endloop
endfacet
facet normal 0.64201 -0.766696 0
  outer loop
    vertex 0.0555409552695072 0.04367118546037338 0.02
    vertex 0.05119490115483043 0.04003192000534226 0.01427113702623907
    vertex 0.0555409552695072 0.04367118546037338 0.009999999999999972
  endloop
endfacet
facet normal 0.64201 -0.766696 0
  outer loop
    vertex 0.04684884704015366 0.03639265455031115 0
    vertex 0.05119490115483043 0.04003192000534226 0.005675738850308961
    vertex 0.04684884704015366 0.03639265455031115 0.01000000000000003
  endloop
endfacet
facet normal 0.64201 -0.766696 0
  outer loop
    vertex 0.0555409552695072 0.04367118546037338 0.009999999999999972
    vertex 0.05119490115483043 0.04003192000534226 0.005675738850308961
    vertex 0.0555409552695072 0.04367118546037338 0
  endloop
endfacet
facet normal 0.64201 -0.766696 0
  outer loop
    vertex 0.04684884704015366 0.03639265455031115 0.01000000000000003
    vertex 0.05119490115483043 0.04003192000534226 0.01427113702623907
    vertex 0.04684884704015366 0.03639265455031115 0.02
  endloop
endfacet
facet normal 0.809676 0.586877 0
  outer loop
    vertex 0.04684884704015366 0.03639265455031115 0.02
    vertex 0.04948669464657167 0.03275338909528004 0.015
    vertex 0.04684884704015366 0.03639265455031115 0.009999999999999972
  endloop
endfacet
facet normal 0.809676 0.586877 -0
  outer loop
    vertex 0.05212454225298967 0.02911412364024892 0
    vertex 0.04948669464657167 0.03275338909528004 0.005
    vertex 0.05212454225298967 0.02911412364024892 0.01000000000000003
  endloop
endfacet
facet normal 0.809676 0.586877 0
  outer loop
    vertex 0.04684884704015366 0.03639265455031115 0.009999999999999972
    vertex 0.04948669464657167 0.03275338909528004 0.005
    vertex 0.04684884704015366 0.03639265455031115 0
  endloop
endfacet
facet normal 0.809676 0.586877 -0
  outer loop
    vertex 0.05212454225298967 0.02911412364024892 0.01000000000000003
    vertex 0.04948669464657167 0.03275338909528004 0.015
    vertex 0.05212454225298967 0.02911412364024892 0.02
  endloop
endfacet
facet normal 0.809676 0.586877 1.50761e-15
  outer loop
    vertex 0.05212454225298967 0.02911412364024892 0.01000000000000003
    vertex 0.04948669464657167 0.03275338909528004 0.005
    vertex 0.04684884704015366 0.03639265455031115 0.009999999999999972
  endloop
endfacet
facet normal 0.809676 0.586877 1.50761e-15
  outer loop
    vertex 0.05212454225298967 0.02911412364024892 0.02
    vertex 0.04948669464657167 0.03275338909528004 0.015
    vertex 0.04684884704015366 0.03639265455031115 0.02
  endloop
endfacet
facet normal 0.809676 0.586877 -1.50761e-15
  outer loop
    vertex 0.04684884704015366 0.03639265455031115 0.009999999999999972
    vertex 0.04948669464657167 0.03275338909528004 0.015
    vertex 0.05212454225298967 0.02911412364024892 0.01000000000000003
  endloop
endfacet
facet normal 0.809676 0.586877 -1.50761e-15
  outer loop
    vertex 0.04684884704015366 0.03639265455031115 0
    vertex 0.04948669464657167 0.03275338909528004 0.005
    vertex 0.05212454225298967 0.02911412364024892 0
  endloop
endfacet
facet normal 0.687571 -0.726117 4.66094e-16
  outer loop
    vertex 0.05212454225298967 0.02911412364024892 0
    vertex 0.04828125250001294 0.02547485818521781 0.00549351226521088
    vertex 0.04443796274703622 0.02183559273018669 0
  endloop
endfacet
facet normal 0.687571 -0.726117 -1.33344e-15
  outer loop
    vertex 0.04443796274703622 0.02183559273018669 0.02
    vertex 0.04828125250001294 0.02547485818521781 0.01447938359017077
    vertex 0.05212454225298967 0.02911412364024892 0.02
  endloop
endfacet
facet normal 0.687571 -0.726117 5.30942e-16
  outer loop
    vertex 0.04828125250001294 0.02547485818521781 0.01447938359017077
    vertex 0.04828125250001294 0.02547485818521781 0.00549351226521088
    vertex 0.05212454225298967 0.02911412364024892 0.009999999999999972
  endloop
endfacet
facet normal 0.687571 -0.726117 0
  outer loop
    vertex 0.05212454225298967 0.02911412364024892 0.02
    vertex 0.04828125250001294 0.02547485818521781 0.01447938359017077
    vertex 0.05212454225298967 0.02911412364024892 0.009999999999999972
  endloop
endfacet
facet normal 0.687571 -0.726117 5.34275e-16
  outer loop
    vertex 0.04443796274703622 0.02183559273018669 0.01000000000000003
    vertex 0.04828125250001294 0.02547485818521781 0.00549351226521088
    vertex 0.04828125250001294 0.02547485818521781 0.01447938359017077
  endloop
endfacet
facet normal 0.687571 -0.726117 0
  outer loop
    vertex 0.04443796274703622 0.02183559273018669 0
    vertex 0.04828125250001294 0.02547485818521781 0.00549351226521088
    vertex 0.04443796274703622 0.02183559273018669 0.01000000000000003
  endloop
endfacet
facet normal 0.687571 -0.726117 0
  outer loop
    vertex 0.05212454225298967 0.02911412364024892 0.009999999999999972
    vertex 0.04828125250001294 0.02547485818521781 0.00549351226521088
    vertex 0.05212454225298967 0.02911412364024892 0
  endloop
endfacet
facet normal 0.687571 -0.726117 0
  outer loop
    vertex 0.04443796274703622 0.02183559273018669 0.01000000000000003
    vertex 0.04828125250001294 0.02547485818521781 0.01447938359017077
    vertex 0.04443796274703622 0.02183559273018669 0.02
  endloop
endfacet
facet normal 0.67408 0.738658 4.56949e-16
  outer loop
    vertex 0.05241379257200356 0.01455706182012446 0.02
    vertex 0.04842587765951989 0.01819632727515558 0.01450648773478912
    vertex 0.04443796274703622 0.02183559273018669 0.02
  endloop
endfacet
facet normal 0.67408 0.738658 -5.11544e-16
  outer loop
    vertex 0.04443796274703622 0.02183559273018669 0
    vertex 0.04842587765951989 0.01819632727515558 0.005520616409829229
    vertex 0.05241379257200356 0.01455706182012446 0
  endloop
endfacet
facet normal 0.67408 0.738658 0
  outer loop
    vertex 0.04443796274703622 0.02183559273018669 0.009999999999999972
    vertex 0.04842587765951989 0.01819632727515558 0.01450648773478912
    vertex 0.04842587765951989 0.01819632727515558 0.005520616409829229
  endloop
endfacet
facet normal 0.67408 0.738658 0
  outer loop
    vertex 0.04443796274703622 0.02183559273018669 0.02
    vertex 0.04842587765951989 0.01819632727515558 0.01450648773478912
    vertex 0.04443796274703622 0.02183559273018669 0.009999999999999972
  endloop
endfacet
facet normal 0.67408 0.738658 -0
  outer loop
    vertex 0.04842587765951989 0.01819632727515558 0.005520616409829229
    vertex 0.04842587765951989 0.01819632727515558 0.01450648773478912
    vertex 0.05241379257200356 0.01455706182012446 0.01000000000000003
  endloop
endfacet
facet normal 0.67408 0.738658 -0
  outer loop
    vertex 0.05241379257200356 0.01455706182012446 0
    vertex 0.04842587765951989 0.01819632727515558 0.005520616409829229
    vertex 0.05241379257200356 0.01455706182012446 0.01000000000000003
  endloop
endfacet
facet normal 0.67408 0.738658 0
  outer loop
    vertex 0.04443796274703622 0.02183559273018669 0.009999999999999972
    vertex 0.04842587765951989 0.01819632727515558 0.005520616409829229
    vertex 0.04443796274703622 0.02183559273018669 0
  endloop
endfacet
facet normal 0.67408 0.738658 -0
  outer loop
    vertex 0.05241379257200356 0.01455706182012446 0.01000000000000003
    vertex 0.04842587765951989 0.01819632727515558 0.01450648773478912
    vertex 0.05241379257200356 0.01455706182012446 0.02
  endloop
endfacet
facet normal 0.409921 -0.912121 0
  outer loop
    vertex 0.05241379257200356 0.01455706182012446 0
    vertex 0.04552438039560744 0.011460856266411 0.007764770780569726
    vertex 0.04431600988152352 0.01091779636509336 0
  endloop
endfacet
facet normal 0.409921 -0.912121 0
  outer loop
    vertex 0.05241379257200356 0.01455706182012446 0.009999999999999972
    vertex 0.04552438039560744 0.011460856266411 0.007764770780569726
    vertex 0.05241379257200356 0.01455706182012446 0
  endloop
endfacet
facet normal 0.409921 -0.912121 0
  outer loop
    vertex 0.03621822719104345 0.007278530910062232 0.01000000000000003
    vertex 0.04179634285036875 0.009785420067141755 0.01351155652366789
    vertex 0.03621822719104345 0.007278530910062232 0.02
  endloop
endfacet
facet normal 0.409921 -0.912121 0
  outer loop
    vertex 0.03621822719104345 0.007278530910062232 0
    vertex 0.04040964221538434 0.00916221592469158 0.005143875244907893
    vertex 0.03621822719104345 0.007278530910062232 0.01000000000000003
  endloop
endfacet
facet normal 0.409921 -0.912121 1.76452e-16
  outer loop
    vertex 0.03621822719104345 0.007278530910062232 0.02
    vertex 0.04179634285036875 0.009785420067141755 0.01351155652366789
    vertex 0.04431600988152348 0.01091779636509334 0.02
  endloop
endfacet
facet normal 0.409921 -0.912121 0
  outer loop
    vertex 0.05241379257200356 0.01455706182012446 0.02
    vertex 0.04729286365430136 0.012255639267779 0.01425526546084752
    vertex 0.05241379257200356 0.01455706182012446 0.009999999999999972
  endloop
endfacet
facet normal 0.409921 -0.912121 7.41919e-17
  outer loop
    vertex 0.04431600988152352 0.01091779636509336 0
    vertex 0.04040964221538434 0.00916221592469158 0.005143875244907893
    vertex 0.03621822719104345 0.007278530910062232 0
  endloop
endfacet
facet normal 0.409921 -0.912121 2.32512e-16
  outer loop
    vertex 0.04431600988152348 0.01091779636509334 0.02
    vertex 0.04729286365430136 0.012255639267779 0.01425526546084752
    vertex 0.05241379257200356 0.01455706182012446 0.02
  endloop
endfacet
facet normal 0.409921 -0.912121 -5.91815e-17
  outer loop
    vertex 0.04179634285036875 0.009785420067141755 0.01351155652366789
    vertex 0.04040964221538434 0.00916221592469158 0.005143875244907893
    vertex 0.04552438039560744 0.011460856266411 0.007764770780569726
  endloop
endfacet
facet normal 0.409921 -0.912121 -7.39213e-17
  outer loop
    vertex 0.03621822719104345 0.007278530910062232 0.01000000000000003
    vertex 0.04040964221538434 0.00916221592469158 0.005143875244907893
    vertex 0.04179634285036875 0.009785420067141755 0.01351155652366789
  endloop
endfacet
facet normal 0.409921 -0.912121 -4.49708e-17
  outer loop
    vertex 0.04729286365430136 0.012255639267779 0.01425526546084752
    vertex 0.04179634285036875 0.009785420067141755 0.01351155652366789
    vertex 0.04552438039560744 0.011460856266411 0.007764770780569726
  endloop
endfacet
facet normal 0.409921 -0.912121 -9.47675e-17
  outer loop
    vertex 0.04729286365430136 0.012255639267779 0.01425526546084752
    vertex 0.04552438039560744 0.011460856266411 0.007764770780569726
    vertex 0.05241379257200356 0.01455706182012446 0.009999999999999972
  endloop
endfacet
facet normal 0.409921 -0.912121 2.11394e-17
  outer loop
    vertex 0.04552438039560744 0.011460856266411 0.007764770780569726
    vertex 0.04040964221538434 0.00916221592469158 0.005143875244907893
    vertex 0.04431600988152352 0.01091779636509336 0
  endloop
endfacet
facet normal 0.409921 -0.912121 2.28647e-16
  outer loop
    vertex 0.04431600988152348 0.01091779636509334 0.02
    vertex 0.04179634285036875 0.009785420067141755 0.01351155652366789
    vertex 0.04729286365430136 0.012255639267779 0.01425526546084752
  endloop
endfacet
endsolid Created by Gmsh
