solid Created by Gmsh
facet normal 0.999591 -0.028613 9.6575e-17
  outer loop
    vertex 0.008337771455093651 0.01180000000000002 0
    vertex 0.008253328591320237 0.00884999999999999 0.01151614776110311
    vertex 0.008 0 0
  endloop
endfacet
facet normal 0.999591 -0.028613 -1.9315e-16
  outer loop
    vertex 0.009351085820374604 0.04719999999999998 0.02
    vertex 0.009435528684148015 0.05015 0.00848385223889689
    vertex 0.009688857275468254 0.059 0.02
  endloop
endfacet
facet normal 0.999591 -0.028613 0
  outer loop
    vertex 0.009688857275468254 0.059 0.009999999999999972
    vertex 0.009435528684148015 0.05015 0.00848385223889689
    vertex 0.009688857275468254 0.059 0
  endloop
endfacet
facet normal 0.999591 -0.028613 0
  outer loop
    vertex 0.008 0 0.01000000000000003
    vertex 0.008253328591320237 0.00884999999999999 0.01151614776110311
    vertex 0.008 0 0.02
  endloop
endfacet
facet normal 0.999591 -0.028613 -2.1144e-16
  outer loop
    vertex 0.008 0 0.02
    vertex 0.008253328591320237 0.00884999999999999 0.01151614776110311
    vertex 0.008337771455093651 0.01179999999999998 0.02
  endloop
endfacet
facet normal 0.999591 -0.028613 1.7761e-16
  outer loop
    vertex 0.009688857275468254 0.059 0
    vertex 0.009435528684148015 0.05015 0.00848385223889689
    vertex 0.009351085820374604 0.04720000000000001 0
  endloop
endfacet
facet normal 0.999591 -0.028613 -1.08119e-16
  outer loop
    vertex 0.008520730993269377 0.01819166666666668 0.01025269129351718
    vertex 0.008844428637734126 0.0295 0.009999999999999998
    vertex 0.0086755429101873 0.02359999999999996 0.02
  endloop
endfacet
facet normal 0.999591 -0.028613 2.02297e-16
  outer loop
    vertex 0.008675542910187304 0.02360000000000005 0
    vertex 0.008844428637734126 0.0295 0.009999999999999998
    vertex 0.008520730993269377 0.01819166666666668 0.01025269129351718
  endloop
endfacet
facet normal 0.999591 -0.028613 1.64464e-16
  outer loop
    vertex 0.008675542910187304 0.02360000000000005 0
    vertex 0.008520730993269377 0.01819166666666668 0.01025269129351718
    vertex 0.008337771455093651 0.01180000000000002 0
  endloop
endfacet
facet normal 0.999591 -0.028613 -2.22201e-16
  outer loop
    vertex 0.009013314365280951 0.03539999999999995 0.02
    vertex 0.009168126282198874 0.04080833333333334 0.009747308706482811
    vertex 0.009351085820374604 0.04719999999999998 0.02
  endloop
endfacet
facet normal 0.999591 -0.028613 -1.29156e-16
  outer loop
    vertex 0.0086755429101873 0.02359999999999996 0.02
    vertex 0.008844428637734126 0.0295 0.009999999999999998
    vertex 0.009013314365280951 0.03539999999999995 0.02
  endloop
endfacet
facet normal 0.999591 -0.028613 -1.69967e-16
  outer loop
    vertex 0.009013314365280951 0.03539999999999995 0.02
    vertex 0.008844428637734126 0.0295 0.009999999999999998
    vertex 0.009168126282198874 0.04080833333333334 0.009747308706482811
  endloop
endfacet
facet normal 0.999591 -0.028613 2.22434e-16
  outer loop
    vertex 0.009013314365280954 0.03540000000000004 0
    vertex 0.008844428637734126 0.0295 0.009999999999999998
    vertex 0.008675542910187304 0.02360000000000005 0
  endloop
endfacet
facet normal 0.999591 -0.028613 2.39243e-16
  outer loop
    vertex 0.009351085820374604 0.04720000000000001 0
    vertex 0.009168126282198874 0.04080833333333334 0.009747308706482811
    vertex 0.009013314365280954 0.03540000000000004 0
  endloop
endfacet
facet normal 0.999591 -0.028613 2.63659e-16
  outer loop
    vertex 0.009168126282198874 0.04080833333333334 0.009747308706482811
    vertex 0.008844428637734126 0.0295 0.009999999999999998
    vertex 0.009013314365280954 0.03540000000000004 0
  endloop
endfacet
facet normal 0.999591 -0.028613 -1.61949e-16
  outer loop
    vertex 0.008337771455093651 0.01179999999999998 0.02
    vertex 0.008520730993269377 0.01819166666666668 0.01025269129351718
    vertex 0.0086755429101873 0.02359999999999996 0.02
  endloop
endfacet
facet normal 0.999591 -0.028613 9.57948e-17
  outer loop
    vertex 0.008520730993269377 0.01819166666666668 0.01025269129351718
    vertex 0.008253328591320237 0.00884999999999999 0.01151614776110311
    vertex 0.008337771455093651 0.01180000000000002 0
  endloop
endfacet
facet normal 0.999591 -0.028613 -2.24201e-16
  outer loop
    vertex 0.009168126282198874 0.04080833333333334 0.009747308706482811
    vertex 0.009435528684148015 0.05015 0.00848385223889689
    vertex 0.009351085820374604 0.04719999999999998 0.02
  endloop
endfacet
facet normal 0.999591 -0.028613 -2.21925e-16
  outer loop
    vertex 0.008337771455093651 0.01179999999999998 0.02
    vertex 0.008253328591320237 0.00884999999999999 0.01151614776110311
    vertex 0.008520730993269377 0.01819166666666668 0.01025269129351718
  endloop
endfacet
facet normal 0.999591 -0.028613 1.67081e-16
  outer loop
    vertex 0.009351085820374604 0.04720000000000001 0
    vertex 0.009435528684148015 0.05015 0.00848385223889689
    vertex 0.009168126282198874 0.04080833333333334 0.009747308706482811
  endloop
endfacet
facet normal 0.999591 -0.028613 0
  outer loop
    vertex 0.008 0 0
    vertex 0.008253328591320237 0.00884999999999999 0.01151614776110311
    vertex 0.008 0 0.01000000000000003
  endloop
endfacet
facet normal 0.999591 -0.028613 0
  outer loop
    vertex 0.009688857275468254 0.059 0.02
    vertex 0.009435528684148015 0.05015 0.00848385223889689
    vertex 0.009688857275468254 0.059 0.009999999999999972
  endloop
endfacet
endsolid Created by Gmsh
