solid Created by Gmsh
facet normal 0.998042 0.0625515 0
  outer loop
    vertex 0.005989161678433221 0.03208395715659981 0.02
    vertex 0.005582769870449464 0.03856814696753633 0.009665756406503917
    vertex 0.005318882237910961 0.04277860954213308 0.02
  endloop
endfacet
facet normal 0.998042 0.0625515 -2.24222e-17
  outer loop
    vertex 0.006659441118955481 0.02138930477106654 0
    vertex 0.00704492201344999 0.01523875931397925 0.01057607455410769
    vertex 0.007329720559477741 0.01069465238553327 0
  endloop
endfacet
facet normal 0.998042 0.0625515 -7.11025e-18
  outer loop
    vertex 0.006659441118955481 0.02138930477106654 0
    vertex 0.006320816246446143 0.02679223835614138 0.01004030516010193
    vertex 0.00704492201344999 0.01523875931397925 0.01057607455410769
  endloop
endfacet
facet normal 0.998042 0.0625515 -3.93646e-17
  outer loop
    vertex 0.005989161678433221 0.03208395715659981 0
    vertex 0.006320816246446143 0.02679223835614138 0.01004030516010193
    vertex 0.006659441118955481 0.02138930477106654 0
  endloop
endfacet
facet normal 0.998042 0.0625515 3.18965e-17
  outer loop
    vertex 0.005989161678433221 0.03208395715659981 0.02
    vertex 0.006320816246446143 0.02679223835614138 0.01004030516010193
    vertex 0.005582769870449464 0.03856814696753633 0.009665756406503917
  endloop
endfacet
facet normal 0.998042 0.0625515 -7.99912e-17
  outer loop
    vertex 0.005582769870449464 0.03856814696753633 0.009665756406503917
    vertex 0.006320816246446143 0.02679223835614138 0.01004030516010193
    vertex 0.005989161678433221 0.03208395715659981 0
  endloop
endfacet
facet normal 0.998042 0.0625515 -1.19049e-17
  outer loop
    vertex 0.006659441118955481 0.02138930477106655 0.02
    vertex 0.006320816246446143 0.02679223835614138 0.01004030516010193
    vertex 0.005989161678433221 0.03208395715659981 0.02
  endloop
endfacet
facet normal 0.998042 0.0625515 -6.029e-17
  outer loop
    vertex 0.00704492201344999 0.01523875931397925 0.01057607455410769
    vertex 0.006320816246446143 0.02679223835614138 0.01004030516010193
    vertex 0.006659441118955481 0.02138930477106655 0.02
  endloop
endfacet
facet normal 0.998042 0.0625515 0
  outer loop
    vertex 0.004648602797388702 0.05347326192766635 0.02
    vertex 0.005113708475663986 0.04605226219087575 0.01234983419638154
    vertex 0.004648602797388702 0.05347326192766635 0.009999999999999972
  endloop
endfacet
facet normal 0.998042 0.0625515 -0
  outer loop
    vertex 0.008 0 0
    vertex 0.00752116011618677 0.007640136032997673 0.007758319007574939
    vertex 0.008 0 0.01000000000000003
  endloop
endfacet
facet normal 0.998042 0.0625515 1.67757e-17
  outer loop
    vertex 0.00732972055947774 0.01069465238553328 0.02
    vertex 0.00704492201344999 0.01523875931397925 0.01057607455410769
    vertex 0.006659441118955481 0.02138930477106655 0.02
  endloop
endfacet
facet normal 0.998042 0.0625515 4.08899e-18
  outer loop
    vertex 0.005318882237910962 0.04277860954213308 0
    vertex 0.005582769870449464 0.03856814696753633 0.009665756406503917
    vertex 0.005989161678433221 0.03208395715659981 0
  endloop
endfacet
facet normal 0.998042 0.0625515 -5.0943e-18
  outer loop
    vertex 0.007329720559477741 0.01069465238553327 0
    vertex 0.00752116011618677 0.007640136032997673 0.007758319007574939
    vertex 0.008 0 0
  endloop
endfacet
facet normal 0.998042 0.0625515 -2.06653e-17
  outer loop
    vertex 0.005318882237910961 0.04277860954213308 0.02
    vertex 0.005113708475663986 0.04605226219087575 0.01234983419638154
    vertex 0.004648602797388702 0.05347326192766635 0.02
  endloop
endfacet
facet normal 0.998042 0.0625515 -1.87696e-17
  outer loop
    vertex 0.00704492201344999 0.01523875931397925 0.01057607455410769
    vertex 0.00752116011618677 0.007640136032997673 0.007758319007574939
    vertex 0.007329720559477741 0.01069465238553327 0
  endloop
endfacet
facet normal 0.998042 0.0625515 -6.40033e-18
  outer loop
    vertex 0.005582769870449464 0.03856814696753633 0.009665756406503917
    vertex 0.005113708475663986 0.04605226219087575 0.01234983419638154
    vertex 0.005318882237910961 0.04277860954213308 0.02
  endloop
endfacet
facet normal 0.998042 0.0625515 7.42851e-17
  outer loop
    vertex 0.005318882237910962 0.04277860954213308 0
    vertex 0.005040007316300211 0.04722820200366819 0.006002227228983629
    vertex 0.005582769870449464 0.03856814696753633 0.009665756406503917
  endloop
endfacet
facet normal 0.998042 0.0625515 5.15994e-17
  outer loop
    vertex 0.00732972055947774 0.01069465238553328 0.02
    vertex 0.007621135921618477 0.006044970760998986 0.01431983607772273
    vertex 0.00704492201344999 0.01523875931397925 0.01057607455410769
  endloop
endfacet
facet normal 0.998042 0.0625515 -3.33728e-17
  outer loop
    vertex 0.005582769870449464 0.03856814696753633 0.009665756406503917
    vertex 0.005040007316300211 0.04722820200366819 0.006002227228983629
    vertex 0.005113708475663986 0.04605226219087575 0.01234983419638154
  endloop
endfacet
facet normal 0.998042 0.0625515 3.11066e-17
  outer loop
    vertex 0.00704492201344999 0.01523875931397925 0.01057607455410769
    vertex 0.007621135921618477 0.006044970760998986 0.01431983607772273
    vertex 0.00752116011618677 0.007640136032997673 0.007758319007574939
  endloop
endfacet
facet normal 0.998042 0.0625515 0
  outer loop
    vertex 0.008 0 0.02
    vertex 0.007621135921618477 0.006044970760998986 0.01431983607772273
    vertex 0.00732972055947774 0.01069465238553328 0.02
  endloop
endfacet
facet normal 0.998042 0.0625515 1.05356e-16
  outer loop
    vertex 0.004648602797388702 0.05347326192766635 0
    vertex 0.005040007316300211 0.04722820200366819 0.006002227228983629
    vertex 0.005318882237910962 0.04277860954213308 0
  endloop
endfacet
facet normal 0.998042 0.0625515 -0
  outer loop
    vertex 0.008 0 0.01000000000000003
    vertex 0.007621135921618477 0.006044970760998986 0.01431983607772273
    vertex 0.008 0 0.02
  endloop
endfacet
facet normal 0.998042 0.0625515 0
  outer loop
    vertex 0.004648602797388702 0.05347326192766635 0.009999999999999972
    vertex 0.005040007316300211 0.04722820200366819 0.006002227228983629
    vertex 0.004648602797388702 0.05347326192766635 0
  endloop
endfacet
facet normal 0.998042 0.0625515 -4.76618e-17
  outer loop
    vertex 0.005113708475663986 0.04605226219087575 0.01234983419638154
    vertex 0.005040007316300211 0.04722820200366819 0.006002227228983629
    vertex 0.004648602797388702 0.05347326192766635 0.009999999999999972
  endloop
endfacet
facet normal 0.998042 0.0625515 3.40474e-17
  outer loop
    vertex 0.00752116011618677 0.007640136032997673 0.007758319007574939
    vertex 0.007621135921618477 0.006044970760998986 0.01431983607772273
    vertex 0.008 0 0.01000000000000003
  endloop
endfacet
endsolid Created by Gmsh
