solid Created by Gmsh
facet normal 1 0 0
  outer loop
    vertex 0.04 0.06 0
    vertex 0.04 0.0569438974264854 0.005000000000000001
    vertex 0.04 0.05388779485297079 0
  endloop
endfacet
facet normal 1 0 0
  outer loop
    vertex 0.04 0.06 0.009999999999999972
    vertex 0.04 0.0569438974264854 0.015
    vertex 0.04 0.05388779485297079 0.01000000000000003
  endloop
endfacet
facet normal 1 -0 0
  outer loop
    vertex 0.04 0.05388779485297079 0.02
    vertex 0.04 0.0569438974264854 0.015
    vertex 0.04 0.06 0.02
  endloop
endfacet
facet normal 1 0 0
  outer loop
    vertex 0.04 0.05388779485297079 0.01000000000000003
    vertex 0.04 0.0569438974264854 0.005000000000000001
    vertex 0.04 0.06 0.009999999999999972
  endloop
endfacet
facet normal 1 0 0
  outer loop
    vertex 0.04 0.06 0.009999999999999972
    vertex 0.04 0.0569438974264854 0.005000000000000001
    vertex 0.04 0.06 0
  endloop
endfacet
facet normal 1 0 0
  outer loop
    vertex 0.04 0.06 0.02
    vertex 0.04 0.0569438974264854 0.015
    vertex 0.04 0.06 0.009999999999999972
  endloop
endfacet
facet normal 1 0 0
  outer loop
    vertex 0.04 0.05388779485297079 0
    vertex 0.04 0.0569438974264854 0.005000000000000001
    vertex 0.04 0.05388779485297079 0.01000000000000003
  endloop
endfacet
facet normal 1 0 0
  outer loop
    vertex 0.04 0.05388779485297079 0.01000000000000003
    vertex 0.04 0.0569438974264854 0.015
    vertex 0.04 0.05388779485297079 0.02
  endloop
endfacet
facet normal 0.517841 -0.855477 -7.81407e-17
  outer loop
    vertex 0.03443605645849253 0.05051980767466012 0
    vertex 0.04 0.05388779485297079 0.009999999999999972
    vertex 0.02887211291698506 0.04715182049634944 0.01000000000000003
  endloop
endfacet
facet normal 0.517841 -0.855477 -2.60469e-16
  outer loop
    vertex 0.02887211291698506 0.04715182049634944 0.01000000000000003
    vertex 0.04 0.05388779485297079 0.009999999999999972
    vertex 0.03443605645849254 0.05051980767466012 0.02
  endloop
endfacet
facet normal 0.517841 -0.855477 0
  outer loop
    vertex 0.03443605645849253 0.05051980767466012 0
    vertex 0.04 0.05388779485297079 0
    vertex 0.04 0.05388779485297079 0.009999999999999972
  endloop
endfacet
facet normal 0.517841 -0.855477 0
  outer loop
    vertex 0.04 0.05388779485297079 0.009999999999999972
    vertex 0.04 0.05388779485297079 0.02
    vertex 0.03443605645849254 0.05051980767466012 0.02
  endloop
endfacet
facet normal 0.517841 -0.855477 0
  outer loop
    vertex 0.02887211291698506 0.04715182049634944 0.01000000000000003
    vertex 0.02887211291698506 0.04715182049634944 0
    vertex 0.03443605645849253 0.05051980767466012 0
  endloop
endfacet
facet normal 0.517841 -0.855477 0
  outer loop
    vertex 0.03443605645849254 0.05051980767466012 0.02
    vertex 0.02887211291698506 0.04715182049634944 0.02
    vertex 0.02887211291698506 0.04715182049634944 0.01000000000000003
  endloop
endfacet
facet normal 0.749709 0.661767 0
  outer loop
    vertex 0.02887211291698506 0.04715182049634944 0.02
    vertex 0.03184503101823544 0.04378383331803876 0.015
    vertex 0.02887211291698506 0.04715182049634944 0.009999999999999972
  endloop
endfacet
facet normal 0.749709 0.661767 -0
  outer loop
    vertex 0.03481794911948582 0.0404158461397281 0
    vertex 0.03184503101823544 0.04378383331803876 0.004999999999999999
    vertex 0.03481794911948582 0.0404158461397281 0.01000000000000003
  endloop
endfacet
facet normal 0.749709 0.661767 0
  outer loop
    vertex 0.02887211291698506 0.04715182049634944 0.009999999999999972
    vertex 0.03184503101823544 0.04378383331803876 0.004999999999999999
    vertex 0.02887211291698506 0.04715182049634944 0
  endloop
endfacet
facet normal 0.749709 0.661767 -0
  outer loop
    vertex 0.03481794911948582 0.0404158461397281 0.01000000000000003
    vertex 0.03184503101823544 0.04378383331803876 0.015
    vertex 0.03481794911948582 0.0404158461397281 0.02
  endloop
endfacet
facet normal 0.749709 0.661767 1.65923e-15
  outer loop
    vertex 0.02887211291698506 0.04715182049634944 0
    vertex 0.03184503101823544 0.04378383331803876 0.004999999999999999
    vertex 0.03481794911948582 0.0404158461397281 0
  endloop
endfacet
facet normal 0.749709 0.661767 1.65923e-15
  outer loop
    vertex 0.02887211291698506 0.04715182049634944 0.009999999999999972
    vertex 0.03184503101823544 0.04378383331803876 0.015
    vertex 0.03481794911948582 0.0404158461397281 0.01000000000000003
  endloop
endfacet
facet normal 0.749709 0.661767 -1.73464e-15
  outer loop
    vertex 0.03481794911948582 0.0404158461397281 0.02
    vertex 0.03184503101823544 0.04378383331803876 0.015
    vertex 0.02887211291698506 0.04715182049634944 0.02
  endloop
endfacet
facet normal 0.749709 0.661767 -1.73464e-15
  outer loop
    vertex 0.03481794911948582 0.0404158461397281 0.01000000000000003
    vertex 0.03184503101823544 0.04378383331803876 0.004999999999999999
    vertex 0.02887211291698506 0.04715182049634944 0.009999999999999972
  endloop
endfacet
facet normal 0.568624 0.822597 9.66866e-16
  outer loop
    vertex 0.04456251242715634 0.03367987178310675 0.02
    vertex 0.03969023077332108 0.03704785896141743 0.01408371511870055
    vertex 0.03481794911948582 0.0404158461397281 0.02
  endloop
endfacet
facet normal 0.568624 0.822597 -9.50144e-16
  outer loop
    vertex 0.03481794911948582 0.0404158461397281 0
    vertex 0.03969023077332108 0.03704785896141743 0.006020408163265301
    vertex 0.04456251242715634 0.03367987178310675 0
  endloop
endfacet
facet normal 0.568624 0.822597 0
  outer loop
    vertex 0.03481794911948582 0.0404158461397281 0.009999999999999972
    vertex 0.03969023077332108 0.03704785896141743 0.01408371511870055
    vertex 0.03969023077332108 0.03704785896141743 0.006020408163265301
  endloop
endfacet
facet normal 0.568624 0.822597 -0
  outer loop
    vertex 0.03969023077332108 0.03704785896141743 0.006020408163265301
    vertex 0.03969023077332108 0.03704785896141743 0.01408371511870055
    vertex 0.04456251242715634 0.03367987178310675 0.01000000000000003
  endloop
endfacet
facet normal 0.568624 0.822597 -0
  outer loop
    vertex 0.04456251242715634 0.03367987178310675 0
    vertex 0.03969023077332108 0.03704785896141743 0.006020408163265301
    vertex 0.04456251242715634 0.03367987178310675 0.01000000000000003
  endloop
endfacet
facet normal 0.568624 0.822597 0
  outer loop
    vertex 0.03481794911948582 0.0404158461397281 0.02
    vertex 0.03969023077332108 0.03704785896141743 0.01408371511870055
    vertex 0.03481794911948582 0.0404158461397281 0.009999999999999972
  endloop
endfacet
facet normal 0.568624 0.822597 -0
  outer loop
    vertex 0.04456251242715634 0.03367987178310675 0.01000000000000003
    vertex 0.03969023077332108 0.03704785896141743 0.01408371511870055
    vertex 0.04456251242715634 0.03367987178310675 0.02
  endloop
endfacet
facet normal 0.568624 0.822597 0
  outer loop
    vertex 0.03481794911948582 0.0404158461397281 0.009999999999999972
    vertex 0.03969023077332108 0.03704785896141743 0.006020408163265301
    vertex 0.03481794911948582 0.0404158461397281 0
  endloop
endfacet
facet normal 0.532024 -0.846729 0
  outer loop
    vertex 0.03384205632923235 0.0269438974264854 0.01000000000000003
    vertex 0.04456251242715634 0.03367987178310675 0.009999999999999972
    vertex 0.03920228437819434 0.03031188460479607 0.02
  endloop
endfacet
facet normal 0.532024 -0.846729 0
  outer loop
    vertex 0.03920228437819434 0.03031188460479607 0
    vertex 0.04456251242715634 0.03367987178310675 0.009999999999999972
    vertex 0.03384205632923235 0.0269438974264854 0.01000000000000003
  endloop
endfacet
facet normal 0.532024 -0.846729 0
  outer loop
    vertex 0.03920228437819434 0.03031188460479607 0
    vertex 0.04456251242715634 0.03367987178310675 0
    vertex 0.04456251242715634 0.03367987178310675 0.009999999999999972
  endloop
endfacet
facet normal 0.532024 -0.846729 0
  outer loop
    vertex 0.04456251242715634 0.03367987178310675 0.009999999999999972
    vertex 0.04456251242715634 0.03367987178310675 0.02
    vertex 0.03920228437819434 0.03031188460479607 0.02
  endloop
endfacet
facet normal 0.532024 -0.846729 0
  outer loop
    vertex 0.03384205632923235 0.0269438974264854 0.01000000000000003
    vertex 0.03384205632923235 0.0269438974264854 0
    vertex 0.03920228437819434 0.03031188460479607 0
  endloop
endfacet
facet normal 0.532024 -0.846729 0
  outer loop
    vertex 0.03920228437819434 0.03031188460479607 0.02
    vertex 0.03384205632923235 0.0269438974264854 0.02
    vertex 0.03384205632923235 0.0269438974264854 0.01000000000000003
  endloop
endfacet
facet normal 0.727716 0.685879 0
  outer loop
    vertex 0.03384205632923235 0.0269438974264854 0.02
    vertex 0.03701641572331452 0.02357591024817472 0.015
    vertex 0.03384205632923235 0.0269438974264854 0.009999999999999972
  endloop
endfacet
facet normal 0.727716 0.685879 -0
  outer loop
    vertex 0.0401907751173967 0.02020792306986405 0
    vertex 0.03701641572331452 0.02357591024817472 0.005
    vertex 0.0401907751173967 0.02020792306986405 0.01000000000000003
  endloop
endfacet
facet normal 0.727716 0.685879 0
  outer loop
    vertex 0.03384205632923235 0.0269438974264854 0.009999999999999972
    vertex 0.03701641572331452 0.02357591024817472 0.005
    vertex 0.03384205632923235 0.0269438974264854 0
  endloop
endfacet
facet normal 0.727716 0.685879 -0
  outer loop
    vertex 0.0401907751173967 0.02020792306986405 0.01000000000000003
    vertex 0.03701641572331452 0.02357591024817472 0.015
    vertex 0.0401907751173967 0.02020792306986405 0.02
  endloop
endfacet
facet normal 0.727716 0.685879 -1.0249e-15
  outer loop
    vertex 0.0401907751173967 0.02020792306986405 0.02
    vertex 0.03701641572331452 0.02357591024817472 0.015
    vertex 0.03384205632923235 0.0269438974264854 0.02
  endloop
endfacet
facet normal 0.727716 0.685879 -1.46414e-15
  outer loop
    vertex 0.0401907751173967 0.02020792306986405 0.01000000000000003
    vertex 0.03701641572331452 0.02357591024817472 0.005
    vertex 0.03384205632923235 0.0269438974264854 0.009999999999999972
  endloop
endfacet
facet normal 0.727716 0.685879 1.0249e-15
  outer loop
    vertex 0.03384205632923235 0.0269438974264854 0.009999999999999972
    vertex 0.03701641572331452 0.02357591024817472 0.015
    vertex 0.0401907751173967 0.02020792306986405 0.01000000000000003
  endloop
endfacet
facet normal 0.727716 0.685879 1.53734e-15
  outer loop
    vertex 0.03384205632923235 0.0269438974264854 0
    vertex 0.03701641572331452 0.02357591024817472 0.005
    vertex 0.0401907751173967 0.02020792306986405 0
  endloop
endfacet
facet normal 0.785095 -0.619376 0
  outer loop
    vertex 0.0401907751173967 0.02020792306986405 0.02
    vertex 0.03753370637140811 0.01683993589155338 0.015
    vertex 0.0401907751173967 0.02020792306986405 0.009999999999999972
  endloop
endfacet
facet normal 0.785095 -0.619376 0
  outer loop
    vertex 0.03487663762541954 0.0134719487132427 0
    vertex 0.03753370637140811 0.01683993589155338 0.004999999999999999
    vertex 0.03487663762541954 0.0134719487132427 0.01000000000000003
  endloop
endfacet
facet normal 0.785095 -0.619376 0
  outer loop
    vertex 0.0401907751173967 0.02020792306986405 0.009999999999999972
    vertex 0.03753370637140811 0.01683993589155338 0.004999999999999999
    vertex 0.0401907751173967 0.02020792306986405 0
  endloop
endfacet
facet normal 0.785095 -0.619376 0
  outer loop
    vertex 0.03487663762541954 0.0134719487132427 0.01000000000000003
    vertex 0.03753370637140811 0.01683993589155338 0.015
    vertex 0.03487663762541954 0.0134719487132427 0.02
  endloop
endfacet
facet normal 0.785095 -0.619376 1.5006e-15
  outer loop
    vertex 0.0401907751173967 0.02020792306986405 0.009999999999999972
    vertex 0.03753370637140811 0.01683993589155338 0.015
    vertex 0.03487663762541954 0.0134719487132427 0.01000000000000003
  endloop
endfacet
facet normal 0.785095 -0.619376 -1.57958e-15
  outer loop
    vertex 0.03487663762541954 0.0134719487132427 0.01000000000000003
    vertex 0.03753370637140811 0.01683993589155338 0.004999999999999999
    vertex 0.0401907751173967 0.02020792306986405 0.009999999999999972
  endloop
endfacet
facet normal 0.785095 -0.619376 1.5006e-15
  outer loop
    vertex 0.0401907751173967 0.02020792306986405 0
    vertex 0.03753370637140811 0.01683993589155338 0.004999999999999999
    vertex 0.03487663762541954 0.0134719487132427 0
  endloop
endfacet
facet normal 0.785095 -0.619376 -1.57958e-15
  outer loop
    vertex 0.03487663762541954 0.0134719487132427 0.02
    vertex 0.03753370637140811 0.01683993589155338 0.015
    vertex 0.0401907751173967 0.02020792306986405 0.02
  endloop
endfacet
facet normal 0.621614 0.783324 2.26544e-16
  outer loop
    vertex 0.03487663762541954 0.0134719487132427 0
    vertex 0.03912078878279728 0.01010396153493202 0.005520616409829228
    vertex 0.04336493994017501 0.006735974356621349 0
  endloop
endfacet
facet normal 0.621614 0.783324 -2.27662e-16
  outer loop
    vertex 0.04336493994017501 0.006735974356621349 0.02
    vertex 0.03912078878279728 0.01010396153493202 0.01450648773478912
    vertex 0.03487663762541954 0.0134719487132427 0.02
  endloop
endfacet
facet normal 0.621614 0.783324 -0
  outer loop
    vertex 0.03912078878279728 0.01010396153493202 0.005520616409829228
    vertex 0.03912078878279728 0.01010396153493202 0.01450648773478912
    vertex 0.04336493994017501 0.006735974356621349 0.01000000000000003
  endloop
endfacet
facet normal 0.621614 0.783324 0
  outer loop
    vertex 0.03487663762541954 0.0134719487132427 0.009999999999999972
    vertex 0.03912078878279728 0.01010396153493202 0.01450648773478912
    vertex 0.03912078878279728 0.01010396153493202 0.005520616409829228
  endloop
endfacet
facet normal 0.621614 0.783324 0
  outer loop
    vertex 0.03487663762541954 0.0134719487132427 0.02
    vertex 0.03912078878279728 0.01010396153493202 0.01450648773478912
    vertex 0.03487663762541954 0.0134719487132427 0.009999999999999972
  endloop
endfacet
facet normal 0.621614 0.783324 -0
  outer loop
    vertex 0.04336493994017501 0.006735974356621349 0
    vertex 0.03912078878279728 0.01010396153493202 0.005520616409829228
    vertex 0.04336493994017501 0.006735974356621349 0.01000000000000003
  endloop
endfacet
facet normal 0.621614 0.783324 0
  outer loop
    vertex 0.03487663762541954 0.0134719487132427 0.009999999999999972
    vertex 0.03912078878279728 0.01010396153493202 0.005520616409829228
    vertex 0.03487663762541954 0.0134719487132427 0
  endloop
endfacet
facet normal 0.621614 0.783324 -0
  outer loop
    vertex 0.04336493994017501 0.006735974356621349 0.01000000000000003
    vertex 0.03912078878279728 0.01010396153493202 0.01450648773478912
    vertex 0.04336493994017501 0.006735974356621349 0.02
  endloop
endfacet
endsolid Created by Gmsh
