solid Created by Gmsh
facet normal 0.996198 0.0871234 -1.10502e-16
  outer loop
    vertex 0.007046649750823895 0.0109009154934404 0.02
    vertex 0.006670961400814491 0.01519665775486195 0.009492371288917745
    vertex 0.006093299501647791 0.02180183098688079 0.02
  endloop
endfacet
facet normal 0.996198 0.0871234 1.41833e-16
  outer loop
    vertex 0.004186599003295589 0.0436036619737615 0
    vertex 0.004561711644217859 0.03931450255648673 0.01036950374251182
    vertex 0.005139949252471693 0.03270274648032111 0
  endloop
endfacet
facet normal 0.996198 0.0871234 -1.70831e-16
  outer loop
    vertex 0.006670961400814491 0.01519665775486195 0.009492371288917745
    vertex 0.005616528425545219 0.02725338587429208 0.009976979171904928
    vertex 0.006093299501647791 0.02180183098688079 0.02
  endloop
endfacet
facet normal 0.996198 0.0871234 -1.69905e-16
  outer loop
    vertex 0.006093299501647791 0.02180183098688079 0.02
    vertex 0.005616528425545219 0.02725338587429208 0.009976979171904928
    vertex 0.005139949252471687 0.03270274648032118 0.02
  endloop
endfacet
facet normal 0.996198 0.0871234 1.51576e-16
  outer loop
    vertex 0.004561711644217859 0.03931450255648673 0.01036950374251182
    vertex 0.005616528425545219 0.02725338587429208 0.009976979171904928
    vertex 0.005139949252471693 0.03270274648032111 0
  endloop
endfacet
facet normal 0.996198 0.0871234 -1.49222e-16
  outer loop
    vertex 0.005139949252471687 0.03270274648032118 0.02
    vertex 0.005616528425545219 0.02725338587429208 0.009976979171904928
    vertex 0.004561711644217859 0.03931450255648673 0.01036950374251182
  endloop
endfacet
facet normal 0.996198 0.0871234 0
  outer loop
    vertex 0.003233248754119484 0.0545045774672019 0.009999999999999972
    vertex 0.003892615092418763 0.04696516921799719 0.007706966926108103
    vertex 0.003233248754119484 0.0545045774672019 0
  endloop
endfacet
facet normal 0.996198 0.0871234 -0
  outer loop
    vertex 0.008 0 0.01000000000000003
    vertex 0.007340591700396991 0.007539888048340767 0.01228296565635761
    vertex 0.008 0 0.02
  endloop
endfacet
facet normal 0.996198 0.0871234 2.41052e-16
  outer loop
    vertex 0.003233248754119484 0.0545045774672019 0
    vertex 0.003892615092418763 0.04696516921799719 0.007706966926108103
    vertex 0.004186599003295589 0.0436036619737615 0
  endloop
endfacet
facet normal 0.996198 0.0871234 -2.50768e-16
  outer loop
    vertex 0.008 0 0.02
    vertex 0.007340591700396991 0.007539888048340767 0.01228296565635761
    vertex 0.007046649750823895 0.0109009154934404 0.02
  endloop
endfacet
facet normal 0.996198 0.0871234 1.55172e-16
  outer loop
    vertex 0.005139949252471693 0.03270274648032111 0
    vertex 0.005616528425545219 0.02725338587429208 0.009976979171904928
    vertex 0.006093299501647797 0.02180183098688072 0
  endloop
endfacet
facet normal 0.996198 0.0871234 1.50619e-16
  outer loop
    vertex 0.006093299501647797 0.02180183098688072 0
    vertex 0.005616528425545219 0.02725338587429208 0.009976979171904928
    vertex 0.006670961400814491 0.01519665775486195 0.009492371288917745
  endloop
endfacet
facet normal 0.996198 0.0871234 1.46785e-16
  outer loop
    vertex 0.006093299501647797 0.02180183098688072 0
    vertex 0.006670961400814491 0.01519665775486195 0.009492371288917745
    vertex 0.007046649750823898 0.01090091549344036 0
  endloop
endfacet
facet normal 0.996198 0.0871234 -1.28604e-16
  outer loop
    vertex 0.005139949252471687 0.03270274648032118 0.02
    vertex 0.004561711644217859 0.03931450255648673 0.01036950374251182
    vertex 0.004186599003295585 0.04360366197376154 0.02
  endloop
endfacet
facet normal 0.996198 0.0871234 2.29029e-16
  outer loop
    vertex 0.006670961400814491 0.01519665775486195 0.009492371288917745
    vertex 0.007466343087144155 0.006102005967438769 0.00569136091278321
    vertex 0.007046649750823898 0.01090091549344036 0
  endloop
endfacet
facet normal 0.996198 0.0871234 -1.49191e-16
  outer loop
    vertex 0.004561711644217859 0.03931450255648673 0.01036950374251182
    vertex 0.003766842639384422 0.04840329217764913 0.01429351741516529
    vertex 0.004186599003295585 0.04360366197376154 0.02
  endloop
endfacet
facet normal 0.996198 0.0871234 3.48472e-17
  outer loop
    vertex 0.007340591700396991 0.007539888048340767 0.01228296565635761
    vertex 0.007466343087144155 0.006102005967438769 0.00569136091278321
    vertex 0.006670961400814491 0.01519665775486195 0.009492371288917745
  endloop
endfacet
facet normal 0.996198 0.0871234 -3.89065e-17
  outer loop
    vertex 0.003892615092418763 0.04696516921799719 0.007706966926108103
    vertex 0.003766842639384422 0.04840329217764913 0.01429351741516529
    vertex 0.004561711644217859 0.03931450255648673 0.01036950374251182
  endloop
endfacet
facet normal 0.996198 0.0871234 -1.44812e-16
  outer loop
    vertex 0.007046649750823895 0.0109009154934404 0.02
    vertex 0.007340591700396991 0.007539888048340767 0.01228296565635761
    vertex 0.006670961400814491 0.01519665775486195 0.009492371288917745
  endloop
endfacet
facet normal 0.996198 0.0871234 1.95691e-16
  outer loop
    vertex 0.004186599003295589 0.0436036619737615 0
    vertex 0.003892615092418763 0.04696516921799719 0.007706966926108103
    vertex 0.004561711644217859 0.03931450255648673 0.01036950374251182
  endloop
endfacet
facet normal 0.996198 0.0871234 -2.30602e-16
  outer loop
    vertex 0.004186599003295585 0.04360366197376154 0.02
    vertex 0.003766842639384422 0.04840329217764913 0.01429351741516529
    vertex 0.003233248754119484 0.0545045774672019 0.02
  endloop
endfacet
facet normal 0.996198 0.0871234 3.94425e-16
  outer loop
    vertex 0.007046649750823898 0.01090091549344036 0
    vertex 0.007466343087144155 0.006102005967438769 0.00569136091278321
    vertex 0.008 0 0
  endloop
endfacet
facet normal 0.996198 0.0871234 0
  outer loop
    vertex 0.003233248754119484 0.0545045774672019 0.02
    vertex 0.003766842639384422 0.04840329217764913 0.01429351741516529
    vertex 0.003233248754119484 0.0545045774672019 0.009999999999999972
  endloop
endfacet
facet normal 0.996198 0.0871234 -0
  outer loop
    vertex 0.008 0 0
    vertex 0.007466343087144155 0.006102005967438769 0.00569136091278321
    vertex 0.008 0 0.01000000000000003
  endloop
endfacet
facet normal 0.996198 0.0871234 1.82009e-17
  outer loop
    vertex 0.003233248754119484 0.0545045774672019 0.009999999999999972
    vertex 0.003766842639384422 0.04840329217764913 0.01429351741516529
    vertex 0.003892615092418763 0.04696516921799719 0.007706966926108103
  endloop
endfacet
facet normal 0.996198 0.0871234 -7.27153e-17
  outer loop
    vertex 0.008 0 0.01000000000000003
    vertex 0.007466343087144155 0.006102005967438769 0.00569136091278321
    vertex 0.007340591700396991 0.007539888048340767 0.01228296565635761
  endloop
endfacet
endsolid Created by Gmsh
