solid Created by Gmsh
facet normal 1 0 0
  outer loop
    vertex 0.04 0.05807945187339687 0
    vertex 0.04 0.06 0
    vertex 0.04 0.06 0.009999999999999972
  endloop
endfacet
facet normal 1 0 0
  outer loop
    vertex 0.04 0.05807945187339687 0.01000000000000003
    vertex 0.04 0.06 0.02
    vertex 0.04 0.05807945187339687 0.02
  endloop
endfacet
facet normal 1 0 -0
  outer loop
    vertex 0.04 0.06 0.009999999999999972
    vertex 0.04 0.06 0.02
    vertex 0.04 0.05807945187339687 0.01000000000000003
  endloop
endfacet
facet normal 1 0 0
  outer loop
    vertex 0.04 0.05807945187339687 0
    vertex 0.04 0.06 0.009999999999999972
    vertex 0.04 0.05807945187339687 0.01000000000000003
  endloop
endfacet
facet normal 0.673662 0.73904 5.69485e-17
  outer loop
    vertex 0.04796449508178412 0.05081952038922227 0.02
    vertex 0.04398224754089206 0.05444948613130957 0.01447938359017077
    vertex 0.04 0.05807945187339687 0.02
  endloop
endfacet
facet normal 0.673662 0.73904 -9.15671e-16
  outer loop
    vertex 0.04 0.05807945187339687 0
    vertex 0.04398224754089206 0.05444948613130957 0.005493512265210879
    vertex 0.04796449508178412 0.05081952038922227 0
  endloop
endfacet
facet normal 0.673662 0.73904 5.24808e-16
  outer loop
    vertex 0.04796449508178412 0.05081952038922227 0.01000000000000003
    vertex 0.04398224754089206 0.05444948613130957 0.005493512265210879
    vertex 0.04398224754089206 0.05444948613130957 0.01447938359017077
  endloop
endfacet
facet normal 0.673662 0.73904 5.20202e-16
  outer loop
    vertex 0.04398224754089206 0.05444948613130957 0.01447938359017077
    vertex 0.04398224754089206 0.05444948613130957 0.005493512265210879
    vertex 0.04 0.05807945187339687 0.009999999999999972
  endloop
endfacet
facet normal 0.673662 0.73904 0
  outer loop
    vertex 0.04 0.05807945187339687 0.02
    vertex 0.04398224754089206 0.05444948613130957 0.01447938359017077
    vertex 0.04 0.05807945187339687 0.009999999999999972
  endloop
endfacet
facet normal 0.673662 0.73904 -0
  outer loop
    vertex 0.04796449508178412 0.05081952038922227 0
    vertex 0.04398224754089206 0.05444948613130957 0.005493512265210879
    vertex 0.04796449508178412 0.05081952038922227 0.01000000000000003
  endloop
endfacet
facet normal 0.673662 0.73904 0
  outer loop
    vertex 0.04 0.05807945187339687 0.009999999999999972
    vertex 0.04398224754089206 0.05444948613130957 0.005493512265210879
    vertex 0.04 0.05807945187339687 0
  endloop
endfacet
facet normal 0.673662 0.73904 -0
  outer loop
    vertex 0.04796449508178412 0.05081952038922227 0.01000000000000003
    vertex 0.04398224754089206 0.05444948613130957 0.01447938359017077
    vertex 0.04796449508178412 0.05081952038922227 0.02
  endloop
endfacet
facet normal 0.69526 0.718759 1.0383e-15
  outer loop
    vertex 0.04796449508178412 0.05081952038922227 0
    vertex 0.0517171490181796 0.04718955464713494 0.005000000000000013
    vertex 0.05546980295457505 0.04355958890504766 0
  endloop
endfacet
facet normal 0.69526 0.718759 -9.08517e-16
  outer loop
    vertex 0.05546980295457505 0.04355958890504766 0.02
    vertex 0.05171714901817956 0.04718955464713498 0.01499999999999999
    vertex 0.04796449508178412 0.05081952038922227 0.02
  endloop
endfacet
facet normal 0.69526 0.718759 -0
  outer loop
    vertex 0.05546980295457505 0.04355958890504766 0
    vertex 0.0517171490181796 0.04718955464713494 0.005000000000000013
    vertex 0.05546980295457505 0.04355958890504766 0.01000000000000003
  endloop
endfacet
facet normal 0.69526 0.718759 0
  outer loop
    vertex 0.04796449508178412 0.05081952038922227 0.02
    vertex 0.05171714901817956 0.04718955464713498 0.01499999999999999
    vertex 0.04796449508178412 0.05081952038922227 0.009999999999999972
  endloop
endfacet
facet normal 0.69526 0.718759 -9.73411e-17
  outer loop
    vertex 0.04796449508178412 0.05081952038922227 0.009999999999999972
    vertex 0.05171714901817956 0.04718955464713498 0.01499999999999999
    vertex 0.0517171490181796 0.04718955464713494 0.005000000000000013
  endloop
endfacet
facet normal 0.69526 0.718759 0
  outer loop
    vertex 0.04796449508178412 0.05081952038922227 0.009999999999999972
    vertex 0.0517171490181796 0.04718955464713494 0.005000000000000013
    vertex 0.04796449508178412 0.05081952038922227 0
  endloop
endfacet
facet normal 0.69526 0.718759 -0
  outer loop
    vertex 0.05546980295457505 0.04355958890504766 0.01000000000000003
    vertex 0.05171714901817956 0.04718955464713498 0.01499999999999999
    vertex 0.05546980295457505 0.04355958890504766 0.02
  endloop
endfacet
facet normal 0.69526 0.718759 -9.78338e-17
  outer loop
    vertex 0.0517171490181796 0.04718955464713494 0.005000000000000013
    vertex 0.05171714901817956 0.04718955464713498 0.01499999999999999
    vertex 0.05546980295457505 0.04355958890504766 0.01000000000000003
  endloop
endfacet
facet normal 0.872873 -0.487948 0
  outer loop
    vertex 0.05546980295457505 0.04355958890504766 0.02
    vertex 0.0534406041149854 0.03992962316296035 0.015
    vertex 0.05546980295457505 0.04355958890504766 0.009999999999999972
  endloop
endfacet
facet normal 0.872873 -0.487948 0
  outer loop
    vertex 0.05141140527539574 0.03629965742087304 0
    vertex 0.0534406041149854 0.03992962316296035 0.004999999999999999
    vertex 0.05141140527539574 0.03629965742087304 0.01000000000000003
  endloop
endfacet
facet normal 0.872873 -0.487948 0
  outer loop
    vertex 0.05546980295457505 0.04355958890504766 0.009999999999999972
    vertex 0.0534406041149854 0.03992962316296035 0.004999999999999999
    vertex 0.05546980295457505 0.04355958890504766 0
  endloop
endfacet
facet normal 0.872873 -0.487948 0
  outer loop
    vertex 0.05141140527539574 0.03629965742087304 0.01000000000000003
    vertex 0.0534406041149854 0.03992962316296035 0.015
    vertex 0.05141140527539574 0.03629965742087304 0.02
  endloop
endfacet
facet normal 0.872873 -0.487948 6.11041e-16
  outer loop
    vertex 0.05141140527539574 0.03629965742087304 0.01000000000000003
    vertex 0.0534406041149854 0.03992962316296035 0.004999999999999999
    vertex 0.05546980295457505 0.04355958890504766 0.009999999999999972
  endloop
endfacet
facet normal 0.872873 -0.487948 6.11041e-16
  outer loop
    vertex 0.05141140527539574 0.03629965742087304 0.02
    vertex 0.0534406041149854 0.03992962316296035 0.015
    vertex 0.05546980295457505 0.04355958890504766 0.02
  endloop
endfacet
facet normal 0.872873 -0.487948 -6.11041e-16
  outer loop
    vertex 0.05546980295457505 0.04355958890504766 0.009999999999999972
    vertex 0.0534406041149854 0.03992962316296035 0.015
    vertex 0.05141140527539574 0.03629965742087304 0.01000000000000003
  endloop
endfacet
facet normal 0.872873 -0.487948 -6.11041e-16
  outer loop
    vertex 0.05546980295457505 0.04355958890504766 0
    vertex 0.0534406041149854 0.03992962316296035 0.004999999999999999
    vertex 0.05141140527539574 0.03629965742087304 0
  endloop
endfacet
facet normal 0.983041 0.183387 8.02855e-16
  outer loop
    vertex 0.05141140527539574 0.03629965742087304 0
    vertex 0.0520885772871526 0.03266969167878574 0.005000000000000001
    vertex 0.05276574929890946 0.02903972593669844 0
  endloop
endfacet
facet normal 0.983041 0.183387 -8.02855e-16
  outer loop
    vertex 0.05276574929890946 0.02903972593669844 0.02
    vertex 0.0520885772871526 0.03266969167878574 0.015
    vertex 0.05141140527539574 0.03629965742087304 0.02
  endloop
endfacet
facet normal 0.983041 0.183387 -8.02855e-16
  outer loop
    vertex 0.05276574929890946 0.02903972593669844 0.01000000000000003
    vertex 0.0520885772871526 0.03266969167878574 0.005000000000000001
    vertex 0.05141140527539574 0.03629965742087304 0.009999999999999972
  endloop
endfacet
facet normal 0.983041 0.183387 8.02855e-16
  outer loop
    vertex 0.05141140527539574 0.03629965742087304 0.009999999999999972
    vertex 0.0520885772871526 0.03266969167878574 0.015
    vertex 0.05276574929890946 0.02903972593669844 0.01000000000000003
  endloop
endfacet
facet normal 0.983041 0.183387 0
  outer loop
    vertex 0.05141140527539574 0.03629965742087304 0.009999999999999972
    vertex 0.0520885772871526 0.03266969167878574 0.005000000000000001
    vertex 0.05141140527539574 0.03629965742087304 0
  endloop
endfacet
facet normal 0.983041 0.183387 0
  outer loop
    vertex 0.05141140527539574 0.03629965742087304 0.02
    vertex 0.0520885772871526 0.03266969167878574 0.015
    vertex 0.05141140527539574 0.03629965742087304 0.009999999999999972
  endloop
endfacet
facet normal 0.983041 0.183387 -0
  outer loop
    vertex 0.05276574929890946 0.02903972593669844 0
    vertex 0.0520885772871526 0.03266969167878574 0.005000000000000001
    vertex 0.05276574929890946 0.02903972593669844 0.01000000000000003
  endloop
endfacet
facet normal 0.983041 0.183387 -0
  outer loop
    vertex 0.05276574929890946 0.02903972593669844 0.01000000000000003
    vertex 0.0520885772871526 0.03266969167878574 0.015
    vertex 0.05276574929890946 0.02903972593669844 0.02
  endloop
endfacet
facet normal 0.517502 -0.855682 0
  outer loop
    vertex 0.04076155556941699 0.02177979445252383 0
    vertex 0.04496302337473936 0.02432077047198494 0.004999999999999999
    vertex 0.04076155556941699 0.02177979445252383 0.01000000000000003
  endloop
endfacet
facet normal 0.517502 -0.855682 0
  outer loop
    vertex 0.05276574929890946 0.02903972593669844 0.02
    vertex 0.0485642814935871 0.02649874991723732 0.01499999999999999
    vertex 0.05276574929890946 0.02903972593669844 0.009999999999999972
  endloop
endfacet
facet normal 0.517502 -0.855682 0
  outer loop
    vertex 0.04076155556941699 0.02177979445252383 0.01000000000000003
    vertex 0.04472293950014951 0.02417557184230144 0.015
    vertex 0.04076155556941699 0.02177979445252383 0.02
  endloop
endfacet
facet normal 0.517502 -0.855682 0
  outer loop
    vertex 0.05276574929890946 0.02903972593669844 0.009999999999999972
    vertex 0.04880436536817695 0.02664394854692081 0.004999999999999991
    vertex 0.05276574929890946 0.02903972593669844 0
  endloop
endfacet
facet normal 0.517502 -0.855682 1.30417e-15
  outer loop
    vertex 0.04676365243416322 0.02540976019461113 0.02
    vertex 0.0485642814935871 0.02649874991723732 0.01499999999999999
    vertex 0.05276574929890946 0.02903972593669844 0.02
  endloop
endfacet
facet normal 0.517502 -0.855682 -1.32832e-15
  outer loop
    vertex 0.04676365243416323 0.02540976019461114 0
    vertex 0.04496302337473936 0.02432077047198494 0.004999999999999999
    vertex 0.04076155556941699 0.02177979445252383 0
  endloop
endfacet
facet normal 0.517502 -0.855682 1.11096e-15
  outer loop
    vertex 0.04076155556941699 0.02177979445252383 0.02
    vertex 0.04472293950014951 0.02417557184230144 0.015
    vertex 0.04676365243416322 0.02540976019461113 0.02
  endloop
endfacet
facet normal 0.517502 -0.855682 -8.21143e-16
  outer loop
    vertex 0.05276574929890946 0.02903972593669844 0
    vertex 0.04880436536817695 0.02664394854692081 0.004999999999999991
    vertex 0.04676365243416323 0.02540976019461114 0
  endloop
endfacet
facet normal 0.517502 -0.855682 -1.15096e-15
  outer loop
    vertex 0.04676365243416323 0.02540976019461114 0
    vertex 0.04880436536817695 0.02664394854692081 0.004999999999999991
    vertex 0.04496302337473936 0.02432077047198494 0.004999999999999999
  endloop
endfacet
facet normal 0.517502 -0.855682 1.11322e-15
  outer loop
    vertex 0.04676365243416322 0.02540976019461113 0.02
    vertex 0.04472293950014951 0.02417557184230144 0.015
    vertex 0.0485642814935871 0.02649874991723732 0.01499999999999999
  endloop
endfacet
facet normal 0.517502 -0.855682 -4.151e-16
  outer loop
    vertex 0.04472293950014951 0.02417557184230144 0.015
    vertex 0.04676365243416323 0.02540976019461113 0.009999999999999998
    vertex 0.0485642814935871 0.02649874991723732 0.01499999999999999
  endloop
endfacet
facet normal 0.517502 -0.855682 -3.77363e-17
  outer loop
    vertex 0.04880436536817695 0.02664394854692081 0.004999999999999991
    vertex 0.04676365243416323 0.02540976019461113 0.009999999999999998
    vertex 0.04496302337473936 0.02432077047198494 0.004999999999999999
  endloop
endfacet
facet normal 0.517502 -0.855682 -6.27933e-16
  outer loop
    vertex 0.04076155556941699 0.02177979445252383 0.01000000000000003
    vertex 0.04676365243416323 0.02540976019461113 0.009999999999999998
    vertex 0.04472293950014951 0.02417557184230144 0.015
  endloop
endfacet
facet normal 0.517502 -0.855682 5.07176e-16
  outer loop
    vertex 0.04496302337473936 0.02432077047198494 0.004999999999999999
    vertex 0.04676365243416323 0.02540976019461113 0.009999999999999998
    vertex 0.04076155556941699 0.02177979445252383 0.01000000000000003
  endloop
endfacet
facet normal 0.517502 -0.855682 -7.7284e-16
  outer loop
    vertex 0.0485642814935871 0.02649874991723732 0.01499999999999999
    vertex 0.04676365243416323 0.02540976019461113 0.009999999999999998
    vertex 0.05276574929890946 0.02903972593669844 0.009999999999999972
  endloop
endfacet
facet normal 0.517502 -0.855682 0
  outer loop
    vertex 0.05276574929890946 0.02903972593669844 0.009999999999999972
    vertex 0.04676365243416323 0.02540976019461113 0.009999999999999998
    vertex 0.04880436536817695 0.02664394854692081 0.004999999999999991
  endloop
endfacet
facet normal 0.647145 -0.762367 -3.28241e-16
  outer loop
    vertex 0.03220901287736632 0.01451986296834921 0.02
    vertex 0.03648528422339165 0.01814982871043652 0.01447938359017077
    vertex 0.04076155556941699 0.02177979445252383 0.02
  endloop
endfacet
facet normal 0.647145 -0.762367 -2.12279e-16
  outer loop
    vertex 0.04076155556941699 0.02177979445252383 0
    vertex 0.03648528422339165 0.01814982871043651 0.005690917171295256
    vertex 0.03220901287736632 0.01451986296834921 0
  endloop
endfacet
facet normal 0.647145 -0.762367 0
  outer loop
    vertex 0.04076155556941699 0.02177979445252383 0.02
    vertex 0.03648528422339165 0.01814982871043652 0.01447938359017077
    vertex 0.04076155556941699 0.02177979445252383 0.009999999999999972
  endloop
endfacet
facet normal 0.647145 -0.762367 0
  outer loop
    vertex 0.03220901287736632 0.01451986296834921 0
    vertex 0.03648528422339165 0.01814982871043651 0.005690917171295256
    vertex 0.03220901287736632 0.01451986296834921 0.01000000000000003
  endloop
endfacet
facet normal 0.647145 -0.762367 3.91935e-16
  outer loop
    vertex 0.03648528422339165 0.01814982871043652 0.01447938359017077
    vertex 0.03648528422339165 0.01814982871043651 0.005690917171295256
    vertex 0.04076155556941699 0.02177979445252383 0.009999999999999972
  endloop
endfacet
facet normal 0.647145 -0.762367 3.4365e-16
  outer loop
    vertex 0.03220901287736632 0.01451986296834921 0.01000000000000003
    vertex 0.03648528422339165 0.01814982871043651 0.005690917171295256
    vertex 0.03648528422339165 0.01814982871043652 0.01447938359017077
  endloop
endfacet
facet normal 0.647145 -0.762367 0
  outer loop
    vertex 0.04076155556941699 0.02177979445252383 0.009999999999999972
    vertex 0.03648528422339165 0.01814982871043651 0.005690917171295256
    vertex 0.04076155556941699 0.02177979445252383 0
  endloop
endfacet
facet normal 0.647145 -0.762367 0
  outer loop
    vertex 0.03220901287736632 0.01451986296834921 0.01000000000000003
    vertex 0.03648528422339165 0.01814982871043652 0.01447938359017077
    vertex 0.03220901287736632 0.01451986296834921 0.02
  endloop
endfacet
facet normal 0.918226 0.396057 -0
  outer loop
    vertex 0.03534042767506071 0.007259931484174607 0
    vertex 0.03377472027621352 0.01088989722626191 0.005
    vertex 0.03534042767506071 0.007259931484174607 0.01000000000000003
  endloop
endfacet
facet normal 0.918226 0.396057 0
  outer loop
    vertex 0.03220901287736632 0.01451986296834921 0.02
    vertex 0.03377472027621352 0.01088989722626191 0.015
    vertex 0.03220901287736632 0.01451986296834921 0.009999999999999972
  endloop
endfacet
facet normal 0.918226 0.396057 -0
  outer loop
    vertex 0.03534042767506071 0.007259931484174607 0.01000000000000003
    vertex 0.03377472027621352 0.01088989722626191 0.015
    vertex 0.03534042767506071 0.007259931484174607 0.02
  endloop
endfacet
facet normal 0.918226 0.396057 0
  outer loop
    vertex 0.03220901287736632 0.01451986296834921 0.009999999999999972
    vertex 0.03377472027621352 0.01088989722626191 0.005
    vertex 0.03220901287736632 0.01451986296834921 0
  endloop
endfacet
facet normal 0.918226 0.396057 -9.42758e-16
  outer loop
    vertex 0.03220901287736632 0.01451986296834921 0
    vertex 0.03377472027621352 0.01088989722626191 0.005
    vertex 0.03534042767506071 0.007259931484174607 0
  endloop
endfacet
facet normal 0.918226 0.396057 -7.71347e-16
  outer loop
    vertex 0.03220901287736632 0.01451986296834921 0.009999999999999972
    vertex 0.03377472027621352 0.01088989722626191 0.015
    vertex 0.03534042767506071 0.007259931484174607 0.01000000000000003
  endloop
endfacet
facet normal 0.918226 0.396057 8.99905e-16
  outer loop
    vertex 0.03534042767506071 0.007259931484174607 0.01000000000000003
    vertex 0.03377472027621352 0.01088989722626191 0.005
    vertex 0.03220901287736632 0.01451986296834921 0.009999999999999972
  endloop
endfacet
facet normal 0.918226 0.396057 7.71347e-16
  outer loop
    vertex 0.03534042767506071 0.007259931484174607 0.02
    vertex 0.03377472027621352 0.01088989722626191 0.015
    vertex 0.03220901287736632 0.01451986296834921 0.02
  endloop
endfacet
endsolid Created by Gmsh
