solid Created by Gmsh
facet normal 1 0 0
  outer loop
    vertex 0.04 0.05721745686255057 0
    vertex 0.04 0.06 0
    vertex 0.04 0.06 0.009999999999999972
  endloop
endfacet
facet normal 1 0 0
  outer loop
    vertex 0.04 0.05721745686255057 0.01000000000000003
    vertex 0.04 0.06 0.02
    vertex 0.04 0.05721745686255057 0.02
  endloop
endfacet
facet normal 1 0 -0
  outer loop
    vertex 0.04 0.06 0.009999999999999972
    vertex 0.04 0.06 0.02
    vertex 0.04 0.05721745686255057 0.01000000000000003
  endloop
endfacet
facet normal 1 0 0
  outer loop
    vertex 0.04 0.05721745686255057 0
    vertex 0.04 0.06 0.009999999999999972
    vertex 0.04 0.05721745686255057 0.01000000000000003
  endloop
endfacet
facet normal 0.644143 0.764905 1.27129e-15
  outer loop
    vertex 0.04849305844723319 0.05006527475473175 0.02
    vertex 0.0442465292236166 0.05364136580864116 0.01447938359017077
    vertex 0.04 0.05721745686255057 0.02
  endloop
endfacet
facet normal 0.644143 0.764905 -1.94411e-15
  outer loop
    vertex 0.04 0.05721745686255057 0
    vertex 0.04424652922361662 0.05364136580864116 0.005493512265210901
    vertex 0.04849305844723319 0.05006527475473175 0
  endloop
endfacet
facet normal 0.644143 0.764905 0
  outer loop
    vertex 0.04 0.05721745686255057 0.02
    vertex 0.0442465292236166 0.05364136580864116 0.01447938359017077
    vertex 0.04 0.05721745686255057 0.009999999999999972
  endloop
endfacet
facet normal 0.644143 0.764905 4.07497e-16
  outer loop
    vertex 0.04849305844723319 0.05006527475473175 0.01000000000000003
    vertex 0.04424652922361662 0.05364136580864116 0.005493512265210901
    vertex 0.0442465292236166 0.05364136580864116 0.01447938359017077
  endloop
endfacet
facet normal 0.644143 0.764905 -0
  outer loop
    vertex 0.04849305844723319 0.05006527475473175 0
    vertex 0.04424652922361662 0.05364136580864116 0.005493512265210901
    vertex 0.04849305844723319 0.05006527475473175 0.01000000000000003
  endloop
endfacet
facet normal 0.644143 0.764905 4.04154e-16
  outer loop
    vertex 0.0442465292236166 0.05364136580864116 0.01447938359017077
    vertex 0.04424652922361662 0.05364136580864116 0.005493512265210901
    vertex 0.04 0.05721745686255057 0.009999999999999972
  endloop
endfacet
facet normal 0.644143 0.764905 0
  outer loop
    vertex 0.04 0.05721745686255057 0.009999999999999972
    vertex 0.04424652922361662 0.05364136580864116 0.005493512265210901
    vertex 0.04 0.05721745686255057 0
  endloop
endfacet
facet normal 0.644143 0.764905 -0
  outer loop
    vertex 0.04849305844723319 0.05006527475473175 0.01000000000000003
    vertex 0.0442465292236166 0.05364136580864116 0.01447938359017077
    vertex 0.04849305844723319 0.05006527475473175 0.02
  endloop
endfacet
facet normal 0.451018 -0.892515 -8.09847e-16
  outer loop
    vertex 0.04141636743925419 0.04648918370082233 0.02
    vertex 0.0412145971231706 0.04638722234325036 0.01203584978560328
    vertex 0.04849305844723319 0.05006527475473175 0.02
  endloop
endfacet
facet normal 0.451018 -0.892515 -8.58472e-16
  outer loop
    vertex 0.03433967643127522 0.04291309264691293 0.02
    vertex 0.0412145971231706 0.04638722234325036 0.01203584978560328
    vertex 0.04141636743925419 0.04648918370082233 0.02
  endloop
endfacet
facet normal 0.451018 -0.892515 0
  outer loop
    vertex 0.04849305844723319 0.05006527475473175 0.02
    vertex 0.0412145971231706 0.04638722234325036 0.01203584978560328
    vertex 0.04849305844723319 0.05006527475473175 0.009999999999999972
  endloop
endfacet
facet normal 0.451018 -0.892515 0
  outer loop
    vertex 0.03433967643127522 0.04291309264691293 0.01000000000000003
    vertex 0.0412145971231706 0.04638722234325036 0.01203584978560328
    vertex 0.03433967643127522 0.04291309264691293 0.02
  endloop
endfacet
facet normal 0.451018 -0.892515 0
  outer loop
    vertex 0.03433967643127522 0.04291309264691293 0
    vertex 0.03899460885366352 0.04526538726787162 0.005620634502713021
    vertex 0.03433967643127522 0.04291309264691293 0.01000000000000003
  endloop
endfacet
facet normal 0.451018 -0.892515 0
  outer loop
    vertex 0.04849305844723319 0.05006527475473175 0.009999999999999972
    vertex 0.04372233806211095 0.04765446856428157 0.005531296857663255
    vertex 0.04849305844723319 0.05006527475473175 0
  endloop
endfacet
facet normal 0.451018 -0.892515 2.00859e-15
  outer loop
    vertex 0.04849305844723319 0.05006527475473175 0
    vertex 0.04372233806211095 0.04765446856428157 0.005531296857663255
    vertex 0.04141636743925422 0.04648918370082234 0
  endloop
endfacet
facet normal 0.451018 -0.892515 1.14038e-15
  outer loop
    vertex 0.04141636743925422 0.04648918370082234 0
    vertex 0.03899460885366352 0.04526538726787162 0.005620634502713021
    vertex 0.03433967643127522 0.04291309264691293 0
  endloop
endfacet
facet normal 0.451018 -0.892515 4.0106e-16
  outer loop
    vertex 0.03899460885366352 0.04526538726787162 0.005620634502713021
    vertex 0.0412145971231706 0.04638722234325036 0.01203584978560328
    vertex 0.03433967643127522 0.04291309264691293 0.01000000000000003
  endloop
endfacet
facet normal 0.451018 -0.892515 5.20045e-16
  outer loop
    vertex 0.03899460885366352 0.04526538726787162 0.005620634502713021
    vertex 0.04372233806211095 0.04765446856428157 0.005531296857663255
    vertex 0.0412145971231706 0.04638722234325036 0.01203584978560328
  endloop
endfacet
facet normal 0.451018 -0.892515 -4.65359e-16
  outer loop
    vertex 0.0412145971231706 0.04638722234325036 0.01203584978560328
    vertex 0.04372233806211095 0.04765446856428157 0.005531296857663255
    vertex 0.04849305844723319 0.05006527475473175 0.009999999999999972
  endloop
endfacet
facet normal 0.451018 -0.892515 1.76402e-15
  outer loop
    vertex 0.04141636743925422 0.04648918370082234 0
    vertex 0.04372233806211095 0.04765446856428157 0.005531296857663255
    vertex 0.03899460885366352 0.04526538726787162 0.005620634502713021
  endloop
endfacet
facet normal 0.656329 0.754475 -2.20728e-15
  outer loop
    vertex 0.04256138358343975 0.03576091053909411 0.02
    vertex 0.03845053000735747 0.03933700159300351 0.01450648773478912
    vertex 0.03433967643127522 0.04291309264691293 0.02
  endloop
endfacet
facet normal 0.656329 0.754475 2.47804e-15
  outer loop
    vertex 0.03433967643127522 0.04291309264691293 0
    vertex 0.03845053000735749 0.0393370015930035 0.005520616409829249
    vertex 0.04256138358343975 0.03576091053909411 0
  endloop
endfacet
facet normal 0.656329 0.754475 0
  outer loop
    vertex 0.03433967643127522 0.04291309264691293 0.02
    vertex 0.03845053000735747 0.03933700159300351 0.01450648773478912
    vertex 0.03433967643127522 0.04291309264691293 0.009999999999999972
  endloop
endfacet
facet normal 0.656329 0.754475 -0
  outer loop
    vertex 0.04256138358343975 0.03576091053909411 0
    vertex 0.03845053000735749 0.0393370015930035 0.005520616409829249
    vertex 0.04256138358343975 0.03576091053909411 0.01000000000000003
  endloop
endfacet
facet normal 0.656329 0.754475 -1.73003e-16
  outer loop
    vertex 0.03433967643127522 0.04291309264691293 0.009999999999999972
    vertex 0.03845053000735747 0.03933700159300351 0.01450648773478912
    vertex 0.03845053000735749 0.0393370015930035 0.005520616409829249
  endloop
endfacet
facet normal 0.656329 0.754475 -1.51577e-16
  outer loop
    vertex 0.03845053000735749 0.0393370015930035 0.005520616409829249
    vertex 0.03845053000735747 0.03933700159300351 0.01450648773478912
    vertex 0.04256138358343975 0.03576091053909411 0.01000000000000003
  endloop
endfacet
facet normal 0.656329 0.754475 0
  outer loop
    vertex 0.03433967643127522 0.04291309264691293 0.009999999999999972
    vertex 0.03845053000735749 0.0393370015930035 0.005520616409829249
    vertex 0.03433967643127522 0.04291309264691293 0
  endloop
endfacet
facet normal 0.656329 0.754475 -0
  outer loop
    vertex 0.04256138358343975 0.03576091053909411 0.01000000000000003
    vertex 0.03845053000735747 0.03933700159300351 0.01450648773478912
    vertex 0.04256138358343975 0.03576091053909411 0.02
  endloop
endfacet
facet normal 0.934213 -0.356717 0
  outer loop
    vertex 0.03983041779739489 0.02860872843127529 0
    vertex 0.04119590069041731 0.0321848194851847 0.005
    vertex 0.03983041779739489 0.02860872843127529 0.01000000000000003
  endloop
endfacet
facet normal 0.934213 -0.356717 0
  outer loop
    vertex 0.04256138358343975 0.03576091053909411 0.02
    vertex 0.04119590069041731 0.0321848194851847 0.015
    vertex 0.04256138358343975 0.03576091053909411 0.009999999999999972
  endloop
endfacet
facet normal 0.934213 -0.356717 0
  outer loop
    vertex 0.03983041779739489 0.02860872843127529 0.01000000000000003
    vertex 0.04119590069041731 0.0321848194851847 0.015
    vertex 0.03983041779739489 0.02860872843127529 0.02
  endloop
endfacet
facet normal 0.934213 -0.356717 0
  outer loop
    vertex 0.04256138358343975 0.03576091053909411 0.009999999999999972
    vertex 0.04119590069041731 0.0321848194851847 0.005
    vertex 0.04256138358343975 0.03576091053909411 0
  endloop
endfacet
facet normal 0.934213 -0.356717 1.54894e-15
  outer loop
    vertex 0.04256138358343975 0.03576091053909411 0.009999999999999972
    vertex 0.04119590069041731 0.0321848194851847 0.015
    vertex 0.03983041779739489 0.02860872843127529 0.01000000000000003
  endloop
endfacet
facet normal 0.934213 -0.356717 1.54894e-15
  outer loop
    vertex 0.04256138358343975 0.03576091053909411 0
    vertex 0.04119590069041731 0.0321848194851847 0.005
    vertex 0.03983041779739489 0.02860872843127529 0
  endloop
endfacet
facet normal 0.934213 -0.356717 -1.54894e-15
  outer loop
    vertex 0.03983041779739489 0.02860872843127529 0.02
    vertex 0.04119590069041731 0.0321848194851847 0.015
    vertex 0.04256138358343975 0.03576091053909411 0.02
  endloop
endfacet
facet normal 0.934213 -0.356717 -1.54894e-15
  outer loop
    vertex 0.03983041779739489 0.02860872843127529 0.01000000000000003
    vertex 0.04119590069041731 0.0321848194851847 0.005
    vertex 0.04256138358343975 0.03576091053909411 0.009999999999999972
  endloop
endfacet
facet normal 0.972983 0.230875 0
  outer loop
    vertex 0.03983041779739489 0.02860872843127529 0
    vertex 0.04067897329633379 0.02503263737736587 0.005000000000000001
    vertex 0.04152752879527269 0.02145654632345646 0
  endloop
endfacet
facet normal 0.972983 0.230875 0
  outer loop
    vertex 0.03983041779739489 0.02860872843127529 0.009999999999999972
    vertex 0.04067897329633379 0.02503263737736587 0.015
    vertex 0.04152752879527269 0.02145654632345646 0.01000000000000003
  endloop
endfacet
facet normal 0.972983 0.230875 0
  outer loop
    vertex 0.04152752879527269 0.02145654632345646 0.01000000000000003
    vertex 0.04067897329633379 0.02503263737736587 0.005000000000000001
    vertex 0.03983041779739489 0.02860872843127529 0.009999999999999972
  endloop
endfacet
facet normal 0.972983 0.230875 0
  outer loop
    vertex 0.04152752879527269 0.02145654632345646 0.02
    vertex 0.04067897329633379 0.02503263737736587 0.015
    vertex 0.03983041779739489 0.02860872843127529 0.02
  endloop
endfacet
facet normal 0.972983 0.230875 0
  outer loop
    vertex 0.03983041779739489 0.02860872843127529 0.009999999999999972
    vertex 0.04067897329633379 0.02503263737736587 0.005000000000000001
    vertex 0.03983041779739489 0.02860872843127529 0
  endloop
endfacet
facet normal 0.972983 0.230875 0
  outer loop
    vertex 0.03983041779739489 0.02860872843127529 0.02
    vertex 0.04067897329633379 0.02503263737736587 0.015
    vertex 0.03983041779739489 0.02860872843127529 0.009999999999999972
  endloop
endfacet
facet normal 0.972983 0.230875 -0
  outer loop
    vertex 0.04152752879527269 0.02145654632345646 0
    vertex 0.04067897329633379 0.02503263737736587 0.005000000000000001
    vertex 0.04152752879527269 0.02145654632345646 0.01000000000000003
  endloop
endfacet
facet normal 0.972983 0.230875 -0
  outer loop
    vertex 0.04152752879527269 0.02145654632345646 0.01000000000000003
    vertex 0.04067897329633379 0.02503263737736587 0.015
    vertex 0.04152752879527269 0.02145654632345646 0.02
  endloop
endfacet
facet normal 0.847613 0.530615 0
  outer loop
    vertex 0.04152752879527269 0.02145654632345646 0.02
    vertex 0.04376620245590899 0.01788045526954705 0.015
    vertex 0.04152752879527269 0.02145654632345646 0.009999999999999972
  endloop
endfacet
facet normal 0.847613 0.530615 -0
  outer loop
    vertex 0.0460048761165453 0.01430436421563765 0
    vertex 0.04376620245590899 0.01788045526954705 0.004999999999999999
    vertex 0.0460048761165453 0.01430436421563765 0.01000000000000003
  endloop
endfacet
facet normal 0.847613 0.530615 0
  outer loop
    vertex 0.04152752879527269 0.02145654632345646 0.009999999999999972
    vertex 0.04376620245590899 0.01788045526954705 0.004999999999999999
    vertex 0.04152752879527269 0.02145654632345646 0
  endloop
endfacet
facet normal 0.847613 0.530615 -0
  outer loop
    vertex 0.0460048761165453 0.01430436421563765 0.01000000000000003
    vertex 0.04376620245590899 0.01788045526954705 0.015
    vertex 0.0460048761165453 0.01430436421563765 0.02
  endloop
endfacet
facet normal 0.847613 0.530615 -1.52582e-15
  outer loop
    vertex 0.0460048761165453 0.01430436421563765 0.01000000000000003
    vertex 0.04376620245590899 0.01788045526954705 0.004999999999999999
    vertex 0.04152752879527269 0.02145654632345646 0.009999999999999972
  endloop
endfacet
facet normal 0.847613 0.530615 1.52582e-15
  outer loop
    vertex 0.04152752879527269 0.02145654632345646 0.009999999999999972
    vertex 0.04376620245590899 0.01788045526954705 0.015
    vertex 0.0460048761165453 0.01430436421563765 0.01000000000000003
  endloop
endfacet
facet normal 0.847613 0.530615 1.52582e-15
  outer loop
    vertex 0.04152752879527269 0.02145654632345646 0
    vertex 0.04376620245590899 0.01788045526954705 0.004999999999999999
    vertex 0.0460048761165453 0.01430436421563765 0
  endloop
endfacet
facet normal 0.847613 0.530615 -1.52582e-15
  outer loop
    vertex 0.0460048761165453 0.01430436421563765 0.02
    vertex 0.04376620245590899 0.01788045526954705 0.015
    vertex 0.04152752879527269 0.02145654632345646 0.02
  endloop
endfacet
facet normal 0.386146 -0.922438 -1.90598e-16
  outer loop
    vertex 0.0460048761165453 0.01430436421563765 0
    vertex 0.03906619326159085 0.01139973277085588 0.007677925571382341
    vertex 0.0374621876015893 0.01072827316172824 0
  endloop
endfacet
facet normal 0.386146 -0.922438 0
  outer loop
    vertex 0.0460048761165453 0.01430436421563765 0.009999999999999972
    vertex 0.03906619326159085 0.01139973277085588 0.007677925571382341
    vertex 0.0460048761165453 0.01430436421563765 0
  endloop
endfacet
facet normal 0.386146 -0.922438 0
  outer loop
    vertex 0.02891949908663329 0.007152182107818823 0.01000000000000003
    vertex 0.03524152121467562 0.009798670591523763 0.01320095630987852
    vertex 0.02891949908663329 0.007152182107818823 0.02
  endloop
endfacet
facet normal 0.386146 -0.922438 -5.3809e-17
  outer loop
    vertex 0.02891949908663329 0.007152182107818823 0.02
    vertex 0.03524152121467562 0.009798670591523763 0.01320095630987852
    vertex 0.03746218760158929 0.01072827316172823 0.02
  endloop
endfacet
facet normal 0.386146 -0.922438 0
  outer loop
    vertex 0.0460048761165453 0.01430436421563765 0.02
    vertex 0.04081472632440433 0.01213169360876363 0.01421988807752067
    vertex 0.0460048761165453 0.01430436421563765 0.009999999999999972
  endloop
endfacet
facet normal 0.386146 -0.922438 0
  outer loop
    vertex 0.02891949908663329 0.007152182107818823 0
    vertex 0.03319084334411129 0.008940227634773529 0.005000000000000014
    vertex 0.02891949908663329 0.007152182107818823 0.01000000000000003
  endloop
endfacet
facet normal 0.386146 -0.922438 1.4634e-16
  outer loop
    vertex 0.0374621876015893 0.01072827316172824 0
    vertex 0.03319084334411129 0.008940227634773529 0.005000000000000014
    vertex 0.02891949908663329 0.007152182107818823 0
  endloop
endfacet
facet normal 0.386146 -0.922438 2.53178e-16
  outer loop
    vertex 0.03746218760158929 0.01072827316172823 0.02
    vertex 0.04081472632440433 0.01213169360876363 0.01421988807752067
    vertex 0.0460048761165453 0.01430436421563765 0.02
  endloop
endfacet
facet normal 0.386146 -0.922438 -1.03528e-16
  outer loop
    vertex 0.02891949908663329 0.007152182107818823 0.01000000000000003
    vertex 0.03319084334411129 0.008940227634773529 0.005000000000000014
    vertex 0.03524152121467562 0.009798670591523763 0.01320095630987852
  endloop
endfacet
facet normal 0.386146 -0.922438 9.15086e-18
  outer loop
    vertex 0.03524152121467562 0.009798670591523763 0.01320095630987852
    vertex 0.03319084334411129 0.008940227634773529 0.005000000000000014
    vertex 0.03906619326159085 0.01139973277085588 0.007677925571382341
  endloop
endfacet
facet normal 0.386146 -0.922438 -8.50667e-17
  outer loop
    vertex 0.04081472632440433 0.01213169360876363 0.01421988807752067
    vertex 0.03906619326159085 0.01139973277085588 0.007677925571382341
    vertex 0.0460048761165453 0.01430436421563765 0.009999999999999972
  endloop
endfacet
facet normal 0.386146 -0.922438 -1.53146e-16
  outer loop
    vertex 0.03906619326159085 0.01139973277085588 0.007677925571382341
    vertex 0.03319084334411129 0.008940227634773529 0.005000000000000014
    vertex 0.0374621876015893 0.01072827316172824 0
  endloop
endfacet
facet normal 0.386146 -0.922438 6.75933e-17
  outer loop
    vertex 0.04081472632440433 0.01213169360876363 0.01421988807752067
    vertex 0.03524152121467562 0.009798670591523763 0.01320095630987852
    vertex 0.03906619326159085 0.01139973277085588 0.007677925571382341
  endloop
endfacet
facet normal 0.386146 -0.922438 4.38586e-17
  outer loop
    vertex 0.03746218760158929 0.01072827316172823 0.02
    vertex 0.03524152121467562 0.009798670591523763 0.01320095630987852
    vertex 0.04081472632440433 0.01213169360876363 0.01421988807752067
  endloop
endfacet
endsolid Created by Gmsh
