solid Created by Gmsh
facet normal -0.635336 0.772236 9.87813e-16
  outer loop
    vertex 0.03185708918896005 0.05229982140672455 0
    vertex 0.02391094426578926 0.04576234373088398 0
    vertex 0.02788401672737465 0.04903108256880426 0.004999999999999986
  endloop
endfacet
facet normal -0.635336 0.772236 -9.87813e-16
  outer loop
    vertex 0.02391094426578926 0.04576234373088398 0.02
    vertex 0.03185708918896005 0.05229982140672455 0.02
    vertex 0.02788401672737465 0.04903108256880426 0.01500000000000001
  endloop
endfacet
facet normal -0.635336 0.772236 0
  outer loop
    vertex 0.03185708918896005 0.05229982140672455 0.009999999999999972
    vertex 0.02788401672737465 0.04903108256880426 0.004999999999999986
    vertex 0.02788401672737465 0.04903108256880426 0.01500000000000001
  endloop
endfacet
facet normal -0.635336 0.772236 0
  outer loop
    vertex 0.02788401672737465 0.04903108256880426 0.004999999999999986
    vertex 0.02391094426578926 0.04576234373088398 0.01000000000000003
    vertex 0.02788401672737465 0.04903108256880426 0.01500000000000001
  endloop
endfacet
facet normal -0.635336 0.772236 0
  outer loop
    vertex 0.03185708918896005 0.05229982140672455 0.02
    vertex 0.03185708918896005 0.05229982140672455 0.009999999999999972
    vertex 0.02788401672737465 0.04903108256880426 0.01500000000000001
  endloop
endfacet
facet normal -0.635336 0.772236 0
  outer loop
    vertex 0.02391094426578926 0.04576234373088398 0
    vertex 0.02391094426578926 0.04576234373088398 0.01000000000000003
    vertex 0.02788401672737465 0.04903108256880426 0.004999999999999986
  endloop
endfacet
facet normal -0.635336 0.772236 0
  outer loop
    vertex 0.03185708918896005 0.05229982140672455 0.009999999999999972
    vertex 0.03185708918896005 0.05229982140672455 0
    vertex 0.02788401672737465 0.04903108256880426 0.004999999999999986
  endloop
endfacet
facet normal -0.635336 0.772236 0
  outer loop
    vertex 0.02391094426578926 0.04576234373088398 0.01000000000000003
    vertex 0.02391094426578926 0.04576234373088398 0.02
    vertex 0.02788401672737465 0.04903108256880426 0.01500000000000001
  endloop
endfacet
facet normal -0.623489 -0.781832 3.23131e-16
  outer loop
    vertex 0.02391094426578926 0.04576234373088398 0
    vertex 0.03210869329253097 0.03922486605504341 0
    vertex 0.02800981877916013 0.04249360489296368 0.005000000000000014
  endloop
endfacet
facet normal -0.623489 -0.781832 -5.81636e-16
  outer loop
    vertex 0.03210869329253097 0.03922486605504341 0.02
    vertex 0.02391094426578926 0.04576234373088398 0.02
    vertex 0.02800981877916009 0.04249360489296371 0.01499999999999999
  endloop
endfacet
facet normal -0.623489 -0.781832 -0
  outer loop
    vertex 0.02391094426578926 0.04576234373088398 0.02
    vertex 0.02391094426578926 0.04576234373088398 0.009999999999999972
    vertex 0.02800981877916009 0.04249360489296371 0.01499999999999999
  endloop
endfacet
facet normal -0.623489 -0.781832 0
  outer loop
    vertex 0.03210869329253097 0.03922486605504341 0
    vertex 0.03210869329253097 0.03922486605504341 0.01000000000000003
    vertex 0.02800981877916013 0.04249360489296368 0.005000000000000014
  endloop
endfacet
facet normal -0.623489 -0.781832 -0
  outer loop
    vertex 0.02391094426578926 0.04576234373088398 0.009999999999999972
    vertex 0.02391094426578926 0.04576234373088398 0
    vertex 0.02800981877916013 0.04249360489296368 0.005000000000000014
  endloop
endfacet
facet normal -0.623489 -0.781832 0
  outer loop
    vertex 0.03210869329253097 0.03922486605504341 0.01000000000000003
    vertex 0.03210869329253097 0.03922486605504341 0.02
    vertex 0.02800981877916009 0.04249360489296371 0.01499999999999999
  endloop
endfacet
facet normal -0.623489 -0.781832 1.29253e-16
  outer loop
    vertex 0.03210869329253097 0.03922486605504341 0.01000000000000003
    vertex 0.02800981877916009 0.04249360489296371 0.01499999999999999
    vertex 0.02800981877916013 0.04249360489296368 0.005000000000000014
  endloop
endfacet
facet normal -0.623489 -0.781832 1.16729e-16
  outer loop
    vertex 0.02800981877916009 0.04249360489296371 0.01499999999999999
    vertex 0.02391094426578926 0.04576234373088398 0.009999999999999972
    vertex 0.02800981877916013 0.04249360489296368 0.005000000000000014
  endloop
endfacet
facet normal -0.598782 0.800912 5.08407e-16
  outer loop
    vertex 0.03210869329253097 0.03922486605504341 0
    vertex 0.02336437170465947 0.03268738837920285 0
    vertex 0.0277365324985952 0.03595612721712312 0.005493512265210899
  endloop
endfacet
facet normal -0.598782 0.800912 -5.05911e-16
  outer loop
    vertex 0.02336437170465947 0.03268738837920285 0.02
    vertex 0.03210869329253097 0.03922486605504341 0.02
    vertex 0.02773653249859523 0.03595612721712314 0.01447938359017075
  endloop
endfacet
facet normal -0.598782 0.800912 0
  outer loop
    vertex 0.03210869329253097 0.03922486605504341 0.02
    vertex 0.03210869329253097 0.03922486605504341 0.009999999999999972
    vertex 0.02773653249859523 0.03595612721712314 0.01447938359017075
  endloop
endfacet
facet normal -0.598782 0.800912 0
  outer loop
    vertex 0.02336437170465947 0.03268738837920285 0
    vertex 0.02336437170465947 0.03268738837920285 0.01000000000000003
    vertex 0.0277365324985952 0.03595612721712312 0.005493512265210899
  endloop
endfacet
facet normal -0.598782 0.800912 0
  outer loop
    vertex 0.03210869329253097 0.03922486605504341 0.009999999999999972
    vertex 0.03210869329253097 0.03922486605504341 0
    vertex 0.0277365324985952 0.03595612721712312 0.005493512265210899
  endloop
endfacet
facet normal -0.598782 0.800912 0
  outer loop
    vertex 0.02336437170465947 0.03268738837920285 0.01000000000000003
    vertex 0.02336437170465947 0.03268738837920285 0.02
    vertex 0.02773653249859523 0.03595612721712314 0.01447938359017075
  endloop
endfacet
facet normal -0.598782 0.800912 -5.87421e-18
  outer loop
    vertex 0.02773653249859523 0.03595612721712314 0.01447938359017075
    vertex 0.03210869329253097 0.03922486605504341 0.009999999999999972
    vertex 0.0277365324985952 0.03595612721712312 0.005493512265210899
  endloop
endfacet
facet normal -0.598782 0.800912 0
  outer loop
    vertex 0.02336437170465947 0.03268738837920285 0.01000000000000003
    vertex 0.02773653249859523 0.03595612721712314 0.01447938359017075
    vertex 0.0277365324985952 0.03595612721712312 0.005493512265210899
  endloop
endfacet
facet normal -0.61458 -0.788854 -8.697e-16
  outer loop
    vertex 0.02336437170465947 0.03268738837920285 0
    vertex 0.03175566092736209 0.02614991070336228 0
    vertex 0.02756001631601078 0.02941864954128256 0.005493512265210879
  endloop
endfacet
facet normal -0.61458 -0.788854 4.03868e-16
  outer loop
    vertex 0.03175566092736209 0.02614991070336228 0.02
    vertex 0.02336437170465947 0.03268738837920285 0.02
    vertex 0.02756001631601076 0.02941864954128257 0.01447938359017075
  endloop
endfacet
facet normal -0.61458 -0.788854 -0
  outer loop
    vertex 0.02336437170465947 0.03268738837920285 0.02
    vertex 0.02336437170465947 0.03268738837920285 0.009999999999999972
    vertex 0.02756001631601076 0.02941864954128257 0.01447938359017075
  endloop
endfacet
facet normal -0.61458 -0.788854 0
  outer loop
    vertex 0.03175566092736209 0.02614991070336228 0
    vertex 0.03175566092736209 0.02614991070336228 0.01000000000000003
    vertex 0.02756001631601078 0.02941864954128256 0.005493512265210879
  endloop
endfacet
facet normal -0.61458 -0.788854 2.48123e-16
  outer loop
    vertex 0.03175566092736209 0.02614991070336228 0.01000000000000003
    vertex 0.02756001631601076 0.02941864954128257 0.01447938359017075
    vertex 0.02756001631601078 0.02941864954128256 0.005493512265210879
  endloop
endfacet
facet normal -0.61458 -0.788854 2.6915e-16
  outer loop
    vertex 0.02756001631601076 0.02941864954128257 0.01447938359017075
    vertex 0.02336437170465947 0.03268738837920285 0.009999999999999972
    vertex 0.02756001631601078 0.02941864954128256 0.005493512265210879
  endloop
endfacet
facet normal -0.61458 -0.788854 0
  outer loop
    vertex 0.03175566092736209 0.02614991070336228 0.01000000000000003
    vertex 0.03175566092736209 0.02614991070336228 0.02
    vertex 0.02756001631601076 0.02941864954128257 0.01447938359017075
  endloop
endfacet
facet normal -0.61458 -0.788854 -0
  outer loop
    vertex 0.02336437170465947 0.03268738837920285 0.009999999999999972
    vertex 0.02336437170465947 0.03268738837920285 0
    vertex 0.02756001631601078 0.02941864954128256 0.005493512265210879
  endloop
endfacet
facet normal -0.465486 -0.885055 0
  outer loop
    vertex 0.0441857564874685 0.01961243302752171 0
    vertex 0.0441857564874685 0.01961243302752171 0.01000000000000003
    vertex 0.03983522304143126 0.0219005502140659 0.005000000000000004
  endloop
endfacet
facet normal -0.465486 -0.885055 -0
  outer loop
    vertex 0.03175566092736209 0.02614991070336228 0.02
    vertex 0.03175566092736209 0.02614991070336228 0.009999999999999972
    vertex 0.03610619437339933 0.02386179351681807 0.015
  endloop
endfacet
facet normal -0.465486 -0.885055 0
  outer loop
    vertex 0.0441857564874685 0.01961243302752171 0.01000000000000003
    vertex 0.0441857564874685 0.01961243302752171 0.02
    vertex 0.04008382495263339 0.02176980066054909 0.01500000000000001
  endloop
endfacet
facet normal -0.465486 -0.885055 -0
  outer loop
    vertex 0.03175566092736209 0.02614991070336228 0.009999999999999972
    vertex 0.03175566092736209 0.02614991070336228 0
    vertex 0.0358575924621972 0.02399254307033488 0.004999999999999998
  endloop
endfacet
facet normal -0.465486 -0.885055 -9.40851e-16
  outer loop
    vertex 0.0379707087074153 0.02288117186544199 0
    vertex 0.0441857564874685 0.01961243302752171 0
    vertex 0.03983522304143126 0.0219005502140659 0.005000000000000004
  endloop
endfacet
facet normal -0.465486 -0.885055 2.89493e-16
  outer loop
    vertex 0.03797070870741528 0.02288117186544199 0.02
    vertex 0.03175566092736209 0.02614991070336228 0.02
    vertex 0.03610619437339933 0.02386179351681807 0.015
  endloop
endfacet
facet normal -0.465486 -0.885055 2.89493e-16
  outer loop
    vertex 0.0441857564874685 0.01961243302752171 0.02
    vertex 0.03797070870741528 0.02288117186544199 0.02
    vertex 0.04008382495263339 0.02176980066054909 0.01500000000000001
  endloop
endfacet
facet normal -0.465486 -0.885055 -9.16727e-16
  outer loop
    vertex 0.03175566092736209 0.02614991070336228 0
    vertex 0.0379707087074153 0.02288117186544199 0
    vertex 0.0358575924621972 0.02399254307033488 0.004999999999999998
  endloop
endfacet
facet normal -0.465486 -0.885055 2.45013e-16
  outer loop
    vertex 0.03797070870741528 0.02288117186544199 0.02
    vertex 0.03610619437339933 0.02386179351681807 0.015
    vertex 0.04008382495263339 0.02176980066054909 0.01500000000000001
  endloop
endfacet
facet normal -0.465486 -0.885055 -9.42359e-16
  outer loop
    vertex 0.0379707087074153 0.02288117186544199 0
    vertex 0.03983522304143126 0.0219005502140659 0.005000000000000004
    vertex 0.0358575924621972 0.02399254307033488 0.004999999999999998
  endloop
endfacet
facet normal -0.465486 -0.885055 3.01555e-16
  outer loop
    vertex 0.0358575924621972 0.02399254307033488 0.004999999999999998
    vertex 0.03983522304143126 0.0219005502140659 0.005000000000000004
    vertex 0.03797070870741529 0.02288117186544199 0.01
  endloop
endfacet
facet normal -0.465486 -0.885055 3.01555e-16
  outer loop
    vertex 0.04008382495263339 0.02176980066054909 0.01500000000000001
    vertex 0.03610619437339933 0.02386179351681807 0.015
    vertex 0.03797070870741529 0.02288117186544199 0.01
  endloop
endfacet
facet normal -0.465486 -0.885055 4.82488e-16
  outer loop
    vertex 0.03175566092736209 0.02614991070336228 0.009999999999999972
    vertex 0.0358575924621972 0.02399254307033488 0.004999999999999998
    vertex 0.03797070870741529 0.02288117186544199 0.01
  endloop
endfacet
facet normal -0.465486 -0.885055 1.20622e-16
  outer loop
    vertex 0.03610619437339933 0.02386179351681807 0.015
    vertex 0.03175566092736209 0.02614991070336228 0.009999999999999972
    vertex 0.03797070870741529 0.02288117186544199 0.01
  endloop
endfacet
facet normal -0.465486 -0.885055 4.58363e-16
  outer loop
    vertex 0.03983522304143126 0.0219005502140659 0.005000000000000004
    vertex 0.0441857564874685 0.01961243302752171 0.01000000000000003
    vertex 0.03797070870741529 0.02288117186544199 0.01
  endloop
endfacet
facet normal -0.465486 -0.885055 9.64976e-17
  outer loop
    vertex 0.0441857564874685 0.01961243302752171 0.01000000000000003
    vertex 0.04008382495263339 0.02176980066054909 0.01500000000000001
    vertex 0.03797070870741529 0.02288117186544199 0.01
  endloop
endfacet
facet normal -0.289827 0.957079 0
  outer loop
    vertex 0.02259739834351094 0.01307495535168114 0
    vertex 0.02259739834351094 0.01307495535168114 0.01000000000000003
    vertex 0.03098154759095185 0.01561387879229498 0.008519960828567746
  endloop
endfacet
facet normal -0.289827 0.957079 -1.0578e-16
  outer loop
    vertex 0.0333915774154897 0.01634369418960142 0
    vertex 0.02259739834351094 0.01307495535168114 0
    vertex 0.03098154759095185 0.01561387879229498 0.008519960828567746
  endloop
endfacet
facet normal -0.289827 0.957079 3.05375e-16
  outer loop
    vertex 0.03339157741548973 0.01634369418960143 0.02
    vertex 0.0441857564874685 0.01961243302752171 0.02
    vertex 0.03718797482148717 0.01749333526581611 0.01311373921499869
  endloop
endfacet
facet normal -0.289827 0.957079 6.38527e-16
  outer loop
    vertex 0.02259739834351094 0.01307495535168114 0.02
    vertex 0.03339157741548973 0.01634369418960143 0.02
    vertex 0.02814285915755972 0.01475425518691385 0.01482474490022734
  endloop
endfacet
facet normal -0.289827 0.957079 0
  outer loop
    vertex 0.0441857564874685 0.01961243302752171 0.02
    vertex 0.0441857564874685 0.01961243302752171 0.009999999999999972
    vertex 0.03718797482148717 0.01749333526581611 0.01311373921499869
  endloop
endfacet
facet normal -0.289827 0.957079 -5.69797e-16
  outer loop
    vertex 0.0441857564874685 0.01961243302752171 0
    vertex 0.0333915774154897 0.01634369418960142 0
    vertex 0.03798652256057314 0.01773515486055119 0.006326740008713283
  endloop
endfacet
facet normal -0.289827 0.957079 0
  outer loop
    vertex 0.02259739834351094 0.01307495535168114 0.01000000000000003
    vertex 0.02259739834351094 0.01307495535168114 0.02
    vertex 0.02814285915755972 0.01475425518691385 0.01482474490022734
  endloop
endfacet
facet normal -0.289827 0.957079 0
  outer loop
    vertex 0.0441857564874685 0.01961243302752171 0.009999999999999972
    vertex 0.0441857564874685 0.01961243302752171 0
    vertex 0.03798652256057314 0.01773515486055119 0.006326740008713283
  endloop
endfacet
facet normal -0.289827 0.957079 -1.86468e-16
  outer loop
    vertex 0.03718797482148717 0.01749333526581611 0.01311373921499869
    vertex 0.03098154759095185 0.01561387879229498 0.008519960828567746
    vertex 0.02814285915755972 0.01475425518691385 0.01482474490022734
  endloop
endfacet
facet normal -0.289827 0.957079 4.64977e-16
  outer loop
    vertex 0.03339157741548973 0.01634369418960143 0.02
    vertex 0.03718797482148717 0.01749333526581611 0.01311373921499869
    vertex 0.02814285915755972 0.01475425518691385 0.01482474490022734
  endloop
endfacet
facet normal -0.289827 0.957079 3.14241e-16
  outer loop
    vertex 0.03798652256057314 0.01773515486055119 0.006326740008713283
    vertex 0.03098154759095185 0.01561387879229498 0.008519960828567746
    vertex 0.03718797482148717 0.01749333526581611 0.01311373921499869
  endloop
endfacet
facet normal -0.289827 0.957079 -2.08644e-16
  outer loop
    vertex 0.03798652256057314 0.01773515486055119 0.006326740008713283
    vertex 0.0333915774154897 0.01634369418960142 0
    vertex 0.03098154759095185 0.01561387879229498 0.008519960828567746
  endloop
endfacet
facet normal -0.289827 0.957079 -3.16548e-16
  outer loop
    vertex 0.03098154759095185 0.01561387879229498 0.008519960828567746
    vertex 0.02259739834351094 0.01307495535168114 0.01000000000000003
    vertex 0.02814285915755972 0.01475425518691385 0.01482474490022734
  endloop
endfacet
facet normal -0.289827 0.957079 3.96265e-16
  outer loop
    vertex 0.0441857564874685 0.01961243302752171 0.009999999999999972
    vertex 0.03798652256057314 0.01773515486055119 0.006326740008713283
    vertex 0.03718797482148717 0.01749333526581611 0.01311373921499869
  endloop
endfacet
facet normal -0.997714 -0.0675802 -6.91592e-16
  outer loop
    vertex 0.02304021471158672 0.006537477675840571 0.01000000000000003
    vertex 0.02259739834351094 0.01307495535168114 0.009999999999999972
    vertex 0.02281880652754883 0.009806216513760856 0.005
  endloop
endfacet
facet normal -0.997714 -0.0675802 6.91592e-16
  outer loop
    vertex 0.02259739834351094 0.01307495535168114 0.009999999999999972
    vertex 0.02304021471158672 0.006537477675840571 0.01000000000000003
    vertex 0.02281880652754883 0.009806216513760856 0.015
  endloop
endfacet
facet normal -0.997714 -0.0675802 6.91592e-16
  outer loop
    vertex 0.02259739834351094 0.01307495535168114 0
    vertex 0.02304021471158672 0.006537477675840571 0
    vertex 0.02281880652754883 0.009806216513760856 0.005
  endloop
endfacet
facet normal -0.997714 -0.0675802 -6.91592e-16
  outer loop
    vertex 0.02304021471158672 0.006537477675840571 0.02
    vertex 0.02259739834351094 0.01307495535168114 0.02
    vertex 0.02281880652754883 0.009806216513760856 0.015
  endloop
endfacet
facet normal -0.997714 -0.0675802 -0
  outer loop
    vertex 0.02259739834351094 0.01307495535168114 0.009999999999999972
    vertex 0.02259739834351094 0.01307495535168114 0
    vertex 0.02281880652754883 0.009806216513760856 0.005
  endloop
endfacet
facet normal -0.997714 -0.0675802 -0
  outer loop
    vertex 0.02259739834351094 0.01307495535168114 0.02
    vertex 0.02259739834351094 0.01307495535168114 0.009999999999999972
    vertex 0.02281880652754883 0.009806216513760856 0.015
  endloop
endfacet
facet normal -0.997714 -0.0675802 0
  outer loop
    vertex 0.02304021471158672 0.006537477675840571 0
    vertex 0.02304021471158672 0.006537477675840571 0.01000000000000003
    vertex 0.02281880652754883 0.009806216513760856 0.005
  endloop
endfacet
facet normal -0.997714 -0.0675802 0
  outer loop
    vertex 0.02304021471158672 0.006537477675840571 0.01000000000000003
    vertex 0.02304021471158672 0.006537477675840571 0.02
    vertex 0.02281880652754883 0.009806216513760856 0.015
  endloop
endfacet
endsolid Created by Gmsh
