solid Created by Gmsh
facet normal 1 0 0
  outer loop
    vertex 0.04 0.05256862697979463 0
    vertex 0.04 0.05628431348989731 0.005
    vertex 0.04 0.05256862697979463 0.01000000000000003
  endloop
endfacet
facet normal 1 0 0
  outer loop
    vertex 0.04 0.06 0.02
    vertex 0.04 0.05628431348989731 0.015
    vertex 0.04 0.06 0.009999999999999972
  endloop
endfacet
facet normal 1 0 0
  outer loop
    vertex 0.04 0.05256862697979463 0.01000000000000003
    vertex 0.04 0.05628431348989731 0.015
    vertex 0.04 0.05256862697979463 0.02
  endloop
endfacet
facet normal 1 0 0
  outer loop
    vertex 0.04 0.06 0.009999999999999972
    vertex 0.04 0.05628431348989731 0.005
    vertex 0.04 0.06 0
  endloop
endfacet
facet normal 1 0 0
  outer loop
    vertex 0.04 0.06 0.009999999999999972
    vertex 0.04 0.05628431348989731 0.015
    vertex 0.04 0.05256862697979463 0.01000000000000003
  endloop
endfacet
facet normal 1 0 0
  outer loop
    vertex 0.04 0.06 0
    vertex 0.04 0.05628431348989731 0.005
    vertex 0.04 0.05256862697979463 0
  endloop
endfacet
facet normal 1 0 0
  outer loop
    vertex 0.04 0.05256862697979463 0.01000000000000003
    vertex 0.04 0.05628431348989731 0.005
    vertex 0.04 0.06 0.009999999999999972
  endloop
endfacet
facet normal 1 -0 0
  outer loop
    vertex 0.04 0.05256862697979463 0.02
    vertex 0.04 0.05628431348989731 0.015
    vertex 0.04 0.06 0.02
  endloop
endfacet
facet normal 0.770006 -0.638036 0
  outer loop
    vertex 0.0345551284193821 0.0459975486073203 0
    vertex 0.03727756420969104 0.04928308779355747 0.005
    vertex 0.0345551284193821 0.0459975486073203 0.01000000000000003
  endloop
endfacet
facet normal 0.770006 -0.638036 0
  outer loop
    vertex 0.04 0.05256862697979463 0.02
    vertex 0.03727756420969104 0.04928308779355747 0.015
    vertex 0.04 0.05256862697979463 0.009999999999999972
  endloop
endfacet
facet normal 0.770006 -0.638036 0
  outer loop
    vertex 0.04 0.05256862697979463 0.009999999999999972
    vertex 0.03727756420969104 0.04928308779355747 0.005
    vertex 0.04 0.05256862697979463 0
  endloop
endfacet
facet normal 0.770006 -0.638036 0
  outer loop
    vertex 0.0345551284193821 0.0459975486073203 0.01000000000000003
    vertex 0.03727756420969104 0.04928308779355747 0.015
    vertex 0.0345551284193821 0.0459975486073203 0.02
  endloop
endfacet
facet normal 0.770006 -0.638036 1.5087e-15
  outer loop
    vertex 0.04 0.05256862697979463 0
    vertex 0.03727756420969104 0.04928308779355747 0.005
    vertex 0.0345551284193821 0.0459975486073203 0
  endloop
endfacet
facet normal 0.770006 -0.638036 -1.5087e-15
  outer loop
    vertex 0.0345551284193821 0.0459975486073203 0.01000000000000003
    vertex 0.03727756420969104 0.04928308779355747 0.005
    vertex 0.04 0.05256862697979463 0.009999999999999972
  endloop
endfacet
facet normal 0.770006 -0.638036 1.5087e-15
  outer loop
    vertex 0.04 0.05256862697979463 0.009999999999999972
    vertex 0.03727756420969104 0.04928308779355747 0.015
    vertex 0.0345551284193821 0.0459975486073203 0.01000000000000003
  endloop
endfacet
facet normal 0.770006 -0.638036 -1.5087e-15
  outer loop
    vertex 0.0345551284193821 0.0459975486073203 0.02
    vertex 0.03727756420969104 0.04928308779355747 0.015
    vertex 0.04 0.05256862697979463 0.02
  endloop
endfacet
facet normal 0.999747 -0.0225003 6.79792e-16
  outer loop
    vertex 0.03440723981090631 0.03942647023484597 0.02
    vertex 0.0344811841151442 0.04271200942108314 0.015
    vertex 0.0345551284193821 0.0459975486073203 0.02
  endloop
endfacet
facet normal 0.999747 -0.0225003 -7.08788e-16
  outer loop
    vertex 0.0345551284193821 0.0459975486073203 0
    vertex 0.0344811841151442 0.04271200942108313 0.005
    vertex 0.03440723981090631 0.03942647023484597 0
  endloop
endfacet
facet normal 0.999747 -0.0225003 7.08788e-16
  outer loop
    vertex 0.03440723981090631 0.03942647023484597 0.01000000000000003
    vertex 0.0344811841151442 0.04271200942108313 0.005
    vertex 0.0345551284193821 0.0459975486073203 0.009999999999999972
  endloop
endfacet
facet normal 0.999747 -0.0225003 -6.79792e-16
  outer loop
    vertex 0.0345551284193821 0.0459975486073203 0.009999999999999972
    vertex 0.0344811841151442 0.04271200942108314 0.015
    vertex 0.03440723981090631 0.03942647023484597 0.01000000000000003
  endloop
endfacet
facet normal 0.999747 -0.0225003 0
  outer loop
    vertex 0.0345551284193821 0.0459975486073203 0.009999999999999972
    vertex 0.0344811841151442 0.04271200942108313 0.005
    vertex 0.0345551284193821 0.0459975486073203 0
  endloop
endfacet
facet normal 0.999747 -0.0225003 0
  outer loop
    vertex 0.0345551284193821 0.0459975486073203 0.02
    vertex 0.0344811841151442 0.04271200942108314 0.015
    vertex 0.0345551284193821 0.0459975486073203 0.009999999999999972
  endloop
endfacet
facet normal 0.999747 -0.0225003 0
  outer loop
    vertex 0.03440723981090631 0.03942647023484597 0
    vertex 0.0344811841151442 0.04271200942108313 0.005
    vertex 0.03440723981090631 0.03942647023484597 0.01000000000000003
  endloop
endfacet
facet normal 0.999747 -0.0225003 0
  outer loop
    vertex 0.03440723981090631 0.03942647023484597 0.01000000000000003
    vertex 0.0344811841151442 0.04271200942108314 0.015
    vertex 0.03440723981090631 0.03942647023484597 0.02
  endloop
endfacet
facet normal 0.981851 -0.189656 0
  outer loop
    vertex 0.03440723981090631 0.03942647023484597 0.009999999999999972
    vertex 0.03377260029015704 0.03614093104860881 0.015
    vertex 0.03313796076940778 0.03285539186237164 0.01000000000000003
  endloop
endfacet
facet normal 0.981851 -0.189656 0
  outer loop
    vertex 0.03313796076940778 0.03285539186237164 0.01000000000000003
    vertex 0.03377260029015704 0.03614093104860881 0.005
    vertex 0.03440723981090631 0.03942647023484597 0.009999999999999972
  endloop
endfacet
facet normal 0.981851 -0.189656 0
  outer loop
    vertex 0.03313796076940778 0.03285539186237164 0.02
    vertex 0.03377260029015704 0.03614093104860881 0.015
    vertex 0.03440723981090631 0.03942647023484597 0.02
  endloop
endfacet
facet normal 0.981851 -0.189656 0
  outer loop
    vertex 0.03440723981090631 0.03942647023484597 0
    vertex 0.03377260029015704 0.03614093104860881 0.005
    vertex 0.03313796076940778 0.03285539186237164 0
  endloop
endfacet
facet normal 0.981851 -0.189656 0
  outer loop
    vertex 0.03440723981090631 0.03942647023484597 0.009999999999999972
    vertex 0.03377260029015704 0.03614093104860881 0.005
    vertex 0.03440723981090631 0.03942647023484597 0
  endloop
endfacet
facet normal 0.981851 -0.189656 0
  outer loop
    vertex 0.03440723981090631 0.03942647023484597 0.02
    vertex 0.03377260029015704 0.03614093104860881 0.015
    vertex 0.03440723981090631 0.03942647023484597 0.009999999999999972
  endloop
endfacet
facet normal 0.981851 -0.189656 0
  outer loop
    vertex 0.03313796076940778 0.03285539186237164 0
    vertex 0.03377260029015704 0.03614093104860881 0.005
    vertex 0.03313796076940778 0.03285539186237164 0.01000000000000003
  endloop
endfacet
facet normal 0.981851 -0.189656 0
  outer loop
    vertex 0.03313796076940778 0.03285539186237164 0.01000000000000003
    vertex 0.03377260029015704 0.03614093104860881 0.015
    vertex 0.03313796076940778 0.03285539186237164 0.02
  endloop
endfacet
facet normal 0.99997 -0.0078048 -6.93639e-16
  outer loop
    vertex 0.03308667327819569 0.02628431348989731 0.01000000000000003
    vertex 0.03311231702380173 0.02956985267613448 0.005000000000000001
    vertex 0.03313796076940778 0.03285539186237164 0.009999999999999972
  endloop
endfacet
facet normal 0.99997 -0.0078048 -6.93639e-16
  outer loop
    vertex 0.03308667327819569 0.02628431348989731 0.02
    vertex 0.03311231702380173 0.02956985267613448 0.015
    vertex 0.03313796076940778 0.03285539186237164 0.02
  endloop
endfacet
facet normal 0.99997 -0.0078048 6.94445e-16
  outer loop
    vertex 0.03313796076940778 0.03285539186237164 0.009999999999999972
    vertex 0.03311231702380173 0.02956985267613448 0.015
    vertex 0.03308667327819569 0.02628431348989731 0.01000000000000003
  endloop
endfacet
facet normal 0.99997 -0.0078048 6.94445e-16
  outer loop
    vertex 0.03313796076940778 0.03285539186237164 0
    vertex 0.03311231702380173 0.02956985267613448 0.005000000000000001
    vertex 0.03308667327819569 0.02628431348989731 0
  endloop
endfacet
facet normal 0.99997 -0.0078048 0
  outer loop
    vertex 0.03313796076940778 0.03285539186237164 0.009999999999999972
    vertex 0.03311231702380173 0.02956985267613448 0.005000000000000001
    vertex 0.03313796076940778 0.03285539186237164 0
  endloop
endfacet
facet normal 0.99997 -0.0078048 0
  outer loop
    vertex 0.03313796076940778 0.03285539186237164 0.02
    vertex 0.03311231702380173 0.02956985267613448 0.015
    vertex 0.03313796076940778 0.03285539186237164 0.009999999999999972
  endloop
endfacet
facet normal 0.99997 -0.0078048 0
  outer loop
    vertex 0.03308667327819569 0.02628431348989731 0
    vertex 0.03311231702380173 0.02956985267613448 0.005000000000000001
    vertex 0.03308667327819569 0.02628431348989731 0.01000000000000003
  endloop
endfacet
facet normal 0.99997 -0.0078048 0
  outer loop
    vertex 0.03308667327819569 0.02628431348989731 0.01000000000000003
    vertex 0.03311231702380173 0.02956985267613448 0.015
    vertex 0.03308667327819569 0.02628431348989731 0.02
  endloop
endfacet
facet normal 0.994843 0.101429 -6.92487e-16
  outer loop
    vertex 0.03375662933971976 0.01971323511742298 0.01000000000000003
    vertex 0.03342165130895772 0.02299877430366015 0.005
    vertex 0.03308667327819569 0.02628431348989731 0.009999999999999972
  endloop
endfacet
facet normal 0.994843 0.101429 6.79664e-16
  outer loop
    vertex 0.03308667327819569 0.02628431348989731 0.009999999999999972
    vertex 0.03342165130895772 0.02299877430366015 0.015
    vertex 0.03375662933971976 0.01971323511742298 0.01000000000000003
  endloop
endfacet
facet normal 0.994843 0.101429 -6.92487e-16
  outer loop
    vertex 0.03375662933971976 0.01971323511742298 0.02
    vertex 0.03342165130895772 0.02299877430366015 0.015
    vertex 0.03308667327819569 0.02628431348989731 0.02
  endloop
endfacet
facet normal 0.994843 0.101429 6.79664e-16
  outer loop
    vertex 0.03308667327819569 0.02628431348989731 0
    vertex 0.03342165130895772 0.02299877430366015 0.005
    vertex 0.03375662933971976 0.01971323511742298 0
  endloop
endfacet
facet normal 0.994843 0.101429 0
  outer loop
    vertex 0.03308667327819569 0.02628431348989731 0.009999999999999972
    vertex 0.03342165130895772 0.02299877430366015 0.005
    vertex 0.03308667327819569 0.02628431348989731 0
  endloop
endfacet
facet normal 0.994843 0.101429 0
  outer loop
    vertex 0.03308667327819569 0.02628431348989731 0.02
    vertex 0.03342165130895772 0.02299877430366015 0.015
    vertex 0.03308667327819569 0.02628431348989731 0.009999999999999972
  endloop
endfacet
facet normal 0.994843 0.101429 -0
  outer loop
    vertex 0.03375662933971976 0.01971323511742298 0
    vertex 0.03342165130895772 0.02299877430366015 0.005
    vertex 0.03375662933971976 0.01971323511742298 0.01000000000000003
  endloop
endfacet
facet normal 0.994843 0.101429 -0
  outer loop
    vertex 0.03375662933971976 0.01971323511742298 0.01000000000000003
    vertex 0.03342165130895772 0.02299877430366015 0.015
    vertex 0.03375662933971976 0.01971323511742298 0.02
  endloop
endfacet
facet normal 0.950498 0.31073 6.37116e-16
  outer loop
    vertex 0.03590479747809012 0.01314215674494866 0.02
    vertex 0.03483071340890494 0.01642769593118582 0.015
    vertex 0.03375662933971976 0.01971323511742298 0.02
  endloop
endfacet
facet normal 0.950498 0.31073 6.37116e-16
  outer loop
    vertex 0.03590479747809012 0.01314215674494866 0.01000000000000003
    vertex 0.03483071340890494 0.01642769593118582 0.005
    vertex 0.03375662933971976 0.01971323511742298 0.009999999999999972
  endloop
endfacet
facet normal 0.950498 0.31073 -6.6162e-16
  outer loop
    vertex 0.03375662933971976 0.01971323511742298 0
    vertex 0.03483071340890494 0.01642769593118582 0.005
    vertex 0.03590479747809012 0.01314215674494866 0
  endloop
endfacet
facet normal 0.950498 0.31073 -6.6162e-16
  outer loop
    vertex 0.03375662933971976 0.01971323511742298 0.009999999999999972
    vertex 0.03483071340890494 0.01642769593118582 0.015
    vertex 0.03590479747809012 0.01314215674494866 0.01000000000000003
  endloop
endfacet
facet normal 0.950498 0.31073 0
  outer loop
    vertex 0.03375662933971976 0.01971323511742298 0.009999999999999972
    vertex 0.03483071340890494 0.01642769593118582 0.005
    vertex 0.03375662933971976 0.01971323511742298 0
  endloop
endfacet
facet normal 0.950498 0.31073 0
  outer loop
    vertex 0.03375662933971976 0.01971323511742298 0.02
    vertex 0.03483071340890494 0.01642769593118582 0.015
    vertex 0.03375662933971976 0.01971323511742298 0.009999999999999972
  endloop
endfacet
facet normal 0.950498 0.31073 -0
  outer loop
    vertex 0.03590479747809012 0.01314215674494866 0
    vertex 0.03483071340890494 0.01642769593118582 0.005
    vertex 0.03590479747809012 0.01314215674494866 0.01000000000000003
  endloop
endfacet
facet normal 0.950498 0.31073 -0
  outer loop
    vertex 0.03590479747809012 0.01314215674494866 0.01000000000000003
    vertex 0.03483071340890494 0.01642769593118582 0.015
    vertex 0.03590479747809012 0.01314215674494866 0.02
  endloop
endfacet
facet normal 0.979537 -0.201266 -7.57592e-16
  outer loop
    vertex 0.03590479747809012 0.01314215674494866 0.009999999999999972
    vertex 0.03522971600275807 0.009856617558711494 0.015
    vertex 0.03455463452742602 0.00657107837247433 0.01000000000000003
  endloop
endfacet
facet normal 0.979537 -0.201266 -7.57592e-16
  outer loop
    vertex 0.03590479747809012 0.01314215674494866 0
    vertex 0.03522971600275807 0.009856617558711494 0.005000000000000001
    vertex 0.03455463452742602 0.00657107837247433 0
  endloop
endfacet
facet normal 0.979537 -0.201266 7.57592e-16
  outer loop
    vertex 0.03455463452742602 0.00657107837247433 0.02
    vertex 0.03522971600275807 0.009856617558711494 0.015
    vertex 0.03590479747809012 0.01314215674494866 0.02
  endloop
endfacet
facet normal 0.979537 -0.201266 7.57592e-16
  outer loop
    vertex 0.03455463452742602 0.00657107837247433 0.01000000000000003
    vertex 0.03522971600275807 0.009856617558711494 0.005000000000000001
    vertex 0.03590479747809012 0.01314215674494866 0.009999999999999972
  endloop
endfacet
facet normal 0.979537 -0.201266 0
  outer loop
    vertex 0.03590479747809012 0.01314215674494866 0.009999999999999972
    vertex 0.03522971600275807 0.009856617558711494 0.005000000000000001
    vertex 0.03590479747809012 0.01314215674494866 0
  endloop
endfacet
facet normal 0.979537 -0.201266 0
  outer loop
    vertex 0.03590479747809012 0.01314215674494866 0.02
    vertex 0.03522971600275807 0.009856617558711494 0.015
    vertex 0.03590479747809012 0.01314215674494866 0.009999999999999972
  endloop
endfacet
facet normal 0.979537 -0.201266 0
  outer loop
    vertex 0.03455463452742602 0.00657107837247433 0
    vertex 0.03522971600275807 0.009856617558711494 0.005000000000000001
    vertex 0.03455463452742602 0.00657107837247433 0.01000000000000003
  endloop
endfacet
facet normal 0.979537 -0.201266 0
  outer loop
    vertex 0.03455463452742602 0.00657107837247433 0.01000000000000003
    vertex 0.03522971600275807 0.009856617558711494 0.015
    vertex 0.03455463452742602 0.00657107837247433 0.02
  endloop
endfacet
endsolid Created by Gmsh
