solid Created by Gmsh
facet normal 1 0 0
  outer loop
    vertex 0.04 0.05662231783557501 0
    vertex 0.04 0.06 0
    vertex 0.04 0.06 0.009999999999999972
  endloop
endfacet
facet normal 1 0 0
  outer loop
    vertex 0.04 0.05662231783557501 0.01000000000000003
    vertex 0.04 0.06 0.02
    vertex 0.04 0.05662231783557501 0.02
  endloop
endfacet
facet normal 1 0 -0
  outer loop
    vertex 0.04 0.06 0.009999999999999972
    vertex 0.04 0.06 0.02
    vertex 0.04 0.05662231783557501 0.01000000000000003
  endloop
endfacet
facet normal 1 0 0
  outer loop
    vertex 0.04 0.05662231783557501 0
    vertex 0.04 0.06 0.009999999999999972
    vertex 0.04 0.05662231783557501 0.01000000000000003
  endloop
endfacet
facet normal 0.714474 0.699662 0
  outer loop
    vertex 0.04 0.05662231783557501 0.02
    vertex 0.04346552855259707 0.05308342297085157 0.015
    vertex 0.04 0.05662231783557501 0.009999999999999972
  endloop
endfacet
facet normal 0.714474 0.699662 -0
  outer loop
    vertex 0.04693105710519413 0.04954452810612813 0
    vertex 0.04346552855259707 0.05308342297085157 0.005000000000000001
    vertex 0.04693105710519413 0.04954452810612813 0.01000000000000003
  endloop
endfacet
facet normal 0.714474 0.699662 0
  outer loop
    vertex 0.04 0.05662231783557501 0.009999999999999972
    vertex 0.04346552855259707 0.05308342297085157 0.005000000000000001
    vertex 0.04 0.05662231783557501 0
  endloop
endfacet
facet normal 0.714474 0.699662 -0
  outer loop
    vertex 0.04693105710519413 0.04954452810612813 0.01000000000000003
    vertex 0.04346552855259707 0.05308342297085157 0.015
    vertex 0.04693105710519413 0.04954452810612813 0.02
  endloop
endfacet
facet normal 0.714474 0.699662 -4.78825e-16
  outer loop
    vertex 0.04 0.05662231783557501 0
    vertex 0.04346552855259707 0.05308342297085157 0.005000000000000001
    vertex 0.04693105710519413 0.04954452810612813 0
  endloop
endfacet
facet normal 0.714474 0.699662 -4.78825e-16
  outer loop
    vertex 0.04 0.05662231783557501 0.009999999999999972
    vertex 0.04346552855259707 0.05308342297085157 0.015
    vertex 0.04693105710519413 0.04954452810612813 0.01000000000000003
  endloop
endfacet
facet normal 0.714474 0.699662 4.78825e-16
  outer loop
    vertex 0.04693105710519413 0.04954452810612813 0.02
    vertex 0.04346552855259707 0.05308342297085157 0.015
    vertex 0.04 0.05662231783557501 0.02
  endloop
endfacet
facet normal 0.714474 0.699662 4.78825e-16
  outer loop
    vertex 0.04693105710519413 0.04954452810612813 0.01000000000000003
    vertex 0.04346552855259707 0.05308342297085157 0.005000000000000001
    vertex 0.04 0.05662231783557501 0.009999999999999972
  endloop
endfacet
facet normal 0.419871 -0.907584 -1.32938e-15
  outer loop
    vertex 0.04693105710519413 0.04954452810612813 0
    vertex 0.04002445903545088 0.04634936737459738 0.007861996665983858
    vertex 0.03928144993503664 0.0460056332414047 0
  endloop
endfacet
facet normal 0.419871 -0.907584 0
  outer loop
    vertex 0.04693105710519413 0.04954452810612813 0.009999999999999972
    vertex 0.04002445903545088 0.04634936737459738 0.007861996665983858
    vertex 0.04693105710519413 0.04954452810612813 0
  endloop
endfacet
facet normal 0.419871 -0.907584 0
  outer loop
    vertex 0.03163184276487915 0.04246673837668126 0.01000000000000003
    vertex 0.03706892875809367 0.044982066977542 0.01399708931129303
    vertex 0.03163184276487915 0.04246673837668126 0.02
  endloop
endfacet
facet normal 0.419871 -0.907584 0
  outer loop
    vertex 0.03163184276487915 0.04246673837668126 0
    vertex 0.03564239862506146 0.04432211934234115 0.004465499166495973
    vertex 0.03163184276487915 0.04246673837668126 0.01000000000000003
  endloop
endfacet
facet normal 0.419871 -0.907584 0
  outer loop
    vertex 0.04693105710519413 0.04954452810612813 0.02
    vertex 0.04206370560982144 0.0472927725808279 0.01432140537247389
    vertex 0.04693105710519413 0.04954452810612813 0.009999999999999972
  endloop
endfacet
facet normal 0.419871 -0.907584 3.34824e-16
  outer loop
    vertex 0.03163184276487915 0.04246673837668126 0.02
    vertex 0.03706892875809367 0.044982066977542 0.01399708931129303
    vertex 0.03928144993503664 0.04600563324140469 0.02
  endloop
endfacet
facet normal 0.419871 -0.907584 8.11899e-17
  outer loop
    vertex 0.03163184276487915 0.04246673837668126 0.01000000000000003
    vertex 0.03564239862506146 0.04432211934234115 0.004465499166495973
    vertex 0.04002445903545088 0.04634936737459738 0.007861996665983858
  endloop
endfacet
facet normal 0.419871 -0.907584 6.80757e-17
  outer loop
    vertex 0.04002445903545088 0.04634936737459738 0.007861996665983858
    vertex 0.03706892875809367 0.044982066977542 0.01399708931129303
    vertex 0.03163184276487915 0.04246673837668126 0.01000000000000003
  endloop
endfacet
facet normal 0.419871 -0.907584 -1.30529e-15
  outer loop
    vertex 0.03928144993503664 0.0460056332414047 0
    vertex 0.03564239862506146 0.04432211934234115 0.004465499166495973
    vertex 0.03163184276487915 0.04246673837668126 0
  endloop
endfacet
facet normal 0.419871 -0.907584 -2.47762e-16
  outer loop
    vertex 0.03928144993503664 0.04600563324140469 0.02
    vertex 0.04206370560982144 0.0472927725808279 0.01432140537247389
    vertex 0.04693105710519413 0.04954452810612813 0.02
  endloop
endfacet
facet normal 0.419871 -0.907584 8.02125e-16
  outer loop
    vertex 0.04206370560982144 0.0472927725808279 0.01432140537247389
    vertex 0.04002445903545088 0.04634936737459738 0.007861996665983858
    vertex 0.04693105710519413 0.04954452810612813 0.009999999999999972
  endloop
endfacet
facet normal 0.419871 -0.907584 -1.38446e-15
  outer loop
    vertex 0.04002445903545088 0.04634936737459738 0.007861996665983858
    vertex 0.03564239862506146 0.04432211934234115 0.004465499166495973
    vertex 0.03928144993503664 0.0460056332414047 0
  endloop
endfacet
facet normal 0.419871 -0.907584 8.51415e-16
  outer loop
    vertex 0.04206370560982144 0.0472927725808279 0.01432140537247389
    vertex 0.03706892875809367 0.044982066977542 0.01399708931129303
    vertex 0.04002445903545088 0.04634936737459738 0.007861996665983858
  endloop
endfacet
facet normal 0.419871 -0.907584 -7.88044e-17
  outer loop
    vertex 0.03928144993503664 0.04600563324140469 0.02
    vertex 0.03706892875809367 0.044982066977542 0.01399708931129303
    vertex 0.04206370560982144 0.0472927725808279 0.01432140537247389
  endloop
endfacet
facet normal 0.942317 0.334722 0
  outer loop
    vertex 0.03163184276487915 0.04246673837668126 0.02
    vertex 0.0328889009905116 0.03892784351195782 0.015
    vertex 0.03163184276487915 0.04246673837668126 0.009999999999999972
  endloop
endfacet
facet normal 0.942317 0.334722 -0
  outer loop
    vertex 0.03414595921614406 0.03538894864723438 0
    vertex 0.0328889009905116 0.03892784351195782 0.005000000000000001
    vertex 0.03414595921614406 0.03538894864723438 0.01000000000000003
  endloop
endfacet
facet normal 0.942317 0.334722 0
  outer loop
    vertex 0.03163184276487915 0.04246673837668126 0.009999999999999972
    vertex 0.0328889009905116 0.03892784351195782 0.005000000000000001
    vertex 0.03163184276487915 0.04246673837668126 0
  endloop
endfacet
facet normal 0.942317 0.334722 -0
  outer loop
    vertex 0.03414595921614406 0.03538894864723438 0.01000000000000003
    vertex 0.0328889009905116 0.03892784351195782 0.015
    vertex 0.03414595921614406 0.03538894864723438 0.02
  endloop
endfacet
facet normal 0.942317 0.334722 -1.30815e-15
  outer loop
    vertex 0.03414595921614406 0.03538894864723438 0.01000000000000003
    vertex 0.0328889009905116 0.03892784351195782 0.005000000000000001
    vertex 0.03163184276487915 0.04246673837668126 0.009999999999999972
  endloop
endfacet
facet normal 0.942317 0.334722 -1.30815e-15
  outer loop
    vertex 0.03414595921614406 0.03538894864723438 0.02
    vertex 0.0328889009905116 0.03892784351195782 0.015
    vertex 0.03163184276487915 0.04246673837668126 0.02
  endloop
endfacet
facet normal 0.942317 0.334722 1.30815e-15
  outer loop
    vertex 0.03163184276487915 0.04246673837668126 0
    vertex 0.0328889009905116 0.03892784351195782 0.005000000000000001
    vertex 0.03414595921614406 0.03538894864723438 0
  endloop
endfacet
facet normal 0.942317 0.334722 1.30815e-15
  outer loop
    vertex 0.03163184276487915 0.04246673837668126 0.009999999999999972
    vertex 0.0328889009905116 0.03892784351195782 0.015
    vertex 0.03414595921614406 0.03538894864723438 0.01000000000000003
  endloop
endfacet
facet normal 0.978083 -0.208216 -7.49132e-16
  outer loop
    vertex 0.03414595921614406 0.03538894864723438 0
    vertex 0.03339259230346846 0.03185005378251094 0.005
    vertex 0.03263922539079284 0.02831115891778751 0
  endloop
endfacet
facet normal 0.978083 -0.208216 7.49132e-16
  outer loop
    vertex 0.03263922539079284 0.02831115891778751 0.02
    vertex 0.03339259230346846 0.03185005378251094 0.015
    vertex 0.03414595921614406 0.03538894864723438 0.02
  endloop
endfacet
facet normal 0.978083 -0.208216 -7.49132e-16
  outer loop
    vertex 0.03414595921614406 0.03538894864723438 0.009999999999999972
    vertex 0.03339259230346846 0.03185005378251094 0.015
    vertex 0.03263922539079284 0.02831115891778751 0.01000000000000003
  endloop
endfacet
facet normal 0.978083 -0.208216 7.49132e-16
  outer loop
    vertex 0.03263922539079284 0.02831115891778751 0.01000000000000003
    vertex 0.03339259230346846 0.03185005378251094 0.005
    vertex 0.03414595921614406 0.03538894864723438 0.009999999999999972
  endloop
endfacet
facet normal 0.978083 -0.208216 0
  outer loop
    vertex 0.03414595921614406 0.03538894864723438 0.009999999999999972
    vertex 0.03339259230346846 0.03185005378251094 0.005
    vertex 0.03414595921614406 0.03538894864723438 0
  endloop
endfacet
facet normal 0.978083 -0.208216 0
  outer loop
    vertex 0.03414595921614406 0.03538894864723438 0.02
    vertex 0.03339259230346846 0.03185005378251094 0.015
    vertex 0.03414595921614406 0.03538894864723438 0.009999999999999972
  endloop
endfacet
facet normal 0.978083 -0.208216 0
  outer loop
    vertex 0.03263922539079284 0.02831115891778751 0
    vertex 0.03339259230346846 0.03185005378251094 0.005
    vertex 0.03263922539079284 0.02831115891778751 0.01000000000000003
  endloop
endfacet
facet normal 0.978083 -0.208216 0
  outer loop
    vertex 0.03263922539079284 0.02831115891778751 0.01000000000000003
    vertex 0.03339259230346846 0.03185005378251094 0.015
    vertex 0.03263922539079284 0.02831115891778751 0.02
  endloop
endfacet
facet normal 0.497605 0.867404 0
  outer loop
    vertex 0.03263922539079284 0.02831115891778751 0.02
    vertex 0.03695742608706544 0.0258339325124811 0.015
    vertex 0.03263922539079284 0.02831115891778751 0.009999999999999972
  endloop
endfacet
facet normal 0.497605 0.867404 -0
  outer loop
    vertex 0.04497694166585741 0.02123336918834063 0
    vertex 0.04065874096958481 0.02371059559364704 0.005000000000000001
    vertex 0.04497694166585741 0.02123336918834063 0.01000000000000003
  endloop
endfacet
facet normal 0.497605 0.867404 -0
  outer loop
    vertex 0.04497694166585741 0.02123336918834063 0.01000000000000003
    vertex 0.0409054952950861 0.0235690397990581 0.015
    vertex 0.04497694166585741 0.02123336918834063 0.02
  endloop
endfacet
facet normal 0.497605 0.867404 0
  outer loop
    vertex 0.03263922539079284 0.02831115891778751 0.009999999999999972
    vertex 0.03671067176156415 0.02597548830707003 0.004999999999999992
    vertex 0.03263922539079284 0.02831115891778751 0
  endloop
endfacet
facet normal 0.497605 0.867404 2.14383e-16
  outer loop
    vertex 0.03880808352832512 0.02477226405306407 0.02
    vertex 0.03695742608706544 0.0258339325124811 0.015
    vertex 0.03263922539079284 0.02831115891778751 0.02
  endloop
endfacet
facet normal 0.497605 0.867404 2.14383e-16
  outer loop
    vertex 0.03880808352832513 0.02477226405306407 0
    vertex 0.04065874096958481 0.02371059559364704 0.005000000000000001
    vertex 0.04497694166585741 0.02123336918834063 0
  endloop
endfacet
facet normal 0.497605 0.867404 -1.42922e-16
  outer loop
    vertex 0.04497694166585741 0.02123336918834063 0.02
    vertex 0.0409054952950861 0.0235690397990581 0.015
    vertex 0.03880808352832512 0.02477226405306407 0.02
  endloop
endfacet
facet normal 0.497605 0.867404 1.14337e-15
  outer loop
    vertex 0.03263922539079284 0.02831115891778751 0
    vertex 0.03671067176156415 0.02597548830707003 0.004999999999999992
    vertex 0.03880808352832513 0.02477226405306407 0
  endloop
endfacet
facet normal 0.497605 0.867404 1.67486e-16
  outer loop
    vertex 0.03880808352832512 0.02477226405306407 0.02
    vertex 0.0409054952950861 0.0235690397990581 0.015
    vertex 0.03695742608706544 0.0258339325124811 0.015
  endloop
endfacet
facet normal 0.497605 0.867404 7.81603e-16
  outer loop
    vertex 0.03880808352832513 0.02477226405306407 0
    vertex 0.03671067176156415 0.02597548830707003 0.004999999999999992
    vertex 0.04065874096958481 0.02371059559364704 0.005000000000000001
  endloop
endfacet
facet normal 0.497605 0.867404 -7.44384e-17
  outer loop
    vertex 0.0409054952950861 0.0235690397990581 0.015
    vertex 0.03880808352832513 0.02477226405306407 0.009999999999999998
    vertex 0.03695742608706544 0.0258339325124811 0.015
  endloop
endfacet
facet normal 0.497605 0.867404 -7.44384e-17
  outer loop
    vertex 0.03671067176156415 0.02597548830707003 0.004999999999999992
    vertex 0.03880808352832513 0.02477226405306407 0.009999999999999998
    vertex 0.04065874096958481 0.02371059559364704 0.005000000000000001
  endloop
endfacet
facet normal 0.497605 0.867404 1.90562e-16
  outer loop
    vertex 0.04497694166585741 0.02123336918834063 0.01000000000000003
    vertex 0.03880808352832513 0.02477226405306407 0.009999999999999998
    vertex 0.0409054952950861 0.0235690397990581 0.015
  endloop
endfacet
facet normal 0.497605 0.867404 2.62023e-16
  outer loop
    vertex 0.04065874096958481 0.02371059559364704 0.005000000000000001
    vertex 0.03880808352832513 0.02477226405306407 0.009999999999999998
    vertex 0.04497694166585741 0.02123336918834063 0.01000000000000003
  endloop
endfacet
facet normal 0.497605 0.867404 -1.42922e-16
  outer loop
    vertex 0.03695742608706544 0.0258339325124811 0.015
    vertex 0.03880808352832513 0.02477226405306407 0.009999999999999998
    vertex 0.03263922539079284 0.02831115891778751 0.009999999999999972
  endloop
endfacet
facet normal 0.497605 0.867404 -7.14609e-16
  outer loop
    vertex 0.03263922539079284 0.02831115891778751 0.009999999999999972
    vertex 0.03880808352832513 0.02477226405306407 0.009999999999999998
    vertex 0.03671067176156415 0.02597548830707003 0.004999999999999992
  endloop
endfacet
facet normal 0.399523 -0.916723 -4.9233e-17
  outer loop
    vertex 0.02873666462753143 0.01415557945889375 0.02
    vertex 0.0356627201342478 0.01717407258036757 0.01223075533042451
    vertex 0.03685680314669443 0.01769447432361719 0.02
  endloop
endfacet
facet normal 0.399523 -0.916723 0
  outer loop
    vertex 0.02873666462753143 0.01415557945889375 0.01000000000000003
    vertex 0.0356627201342478 0.01717407258036757 0.01223075533042451
    vertex 0.02873666462753143 0.01415557945889375 0.02
  endloop
endfacet
facet normal 0.399523 -0.916723 0
  outer loop
    vertex 0.04497694166585741 0.02123336918834063 0.009999999999999972
    vertex 0.03938658728411242 0.01879699739901052 0.006478630234781613
    vertex 0.04497694166585741 0.02123336918834063 0
  endloop
endfacet
facet normal 0.399523 -0.916723 0
  outer loop
    vertex 0.04497694166585741 0.02123336918834063 0.02
    vertex 0.04077503733054653 0.01940210761081971 0.01486752681550989
    vertex 0.04497694166585741 0.02123336918834063 0.009999999999999972
  endloop
endfacet
facet normal 0.399523 -0.916723 4.72326e-16
  outer loop
    vertex 0.04497694166585741 0.02123336918834063 0
    vertex 0.03938658728411242 0.01879699739901052 0.006478630234781613
    vertex 0.03685680314669441 0.01769447432361719 0
  endloop
endfacet
facet normal 0.399523 -0.916723 0
  outer loop
    vertex 0.02873666462753143 0.01415557945889375 0
    vertex 0.03387588796402349 0.01639534064415656 0.00574187711304123
    vertex 0.02873666462753143 0.01415557945889375 0.01000000000000003
  endloop
endfacet
facet normal 0.399523 -0.916723 -6.33472e-16
  outer loop
    vertex 0.03685680314669443 0.01769447432361719 0.02
    vertex 0.04077503733054653 0.01940210761081971 0.01486752681550989
    vertex 0.04497694166585741 0.02123336918834063 0.02
  endloop
endfacet
facet normal 0.399523 -0.916723 7.66088e-16
  outer loop
    vertex 0.03685680314669441 0.01769447432361719 0
    vertex 0.03387588796402349 0.01639534064415656 0.00574187711304123
    vertex 0.02873666462753143 0.01415557945889375 0
  endloop
endfacet
facet normal 0.399523 -0.916723 0
  outer loop
    vertex 0.03938658728411242 0.01879699739901052 0.006478630234781613
    vertex 0.04077503733054653 0.01940210761081971 0.01486752681550989
    vertex 0.0356627201342478 0.01717407258036757 0.01223075533042451
  endloop
endfacet
facet normal 0.399523 -0.916723 1.84846e-16
  outer loop
    vertex 0.04497694166585741 0.02123336918834063 0.009999999999999972
    vertex 0.04077503733054653 0.01940210761081971 0.01486752681550989
    vertex 0.03938658728411242 0.01879699739901052 0.006478630234781613
  endloop
endfacet
facet normal 0.399523 -0.916723 -4.50902e-16
  outer loop
    vertex 0.03387588796402349 0.01639534064415656 0.00574187711304123
    vertex 0.03938658728411242 0.01879699739901052 0.006478630234781613
    vertex 0.0356627201342478 0.01717407258036757 0.01223075533042451
  endloop
endfacet
facet normal 0.399523 -0.916723 -5.87731e-16
  outer loop
    vertex 0.03387588796402349 0.01639534064415656 0.00574187711304123
    vertex 0.0356627201342478 0.01717407258036757 0.01223075533042451
    vertex 0.02873666462753143 0.01415557945889375 0.01000000000000003
  endloop
endfacet
facet normal 0.399523 -0.916723 -1.59247e-16
  outer loop
    vertex 0.0356627201342478 0.01717407258036757 0.01223075533042451
    vertex 0.04077503733054653 0.01940210761081971 0.01486752681550989
    vertex 0.03685680314669443 0.01769447432361719 0.02
  endloop
endfacet
facet normal 0.399523 -0.916723 6.31055e-16
  outer loop
    vertex 0.03685680314669441 0.01769447432361719 0
    vertex 0.03938658728411242 0.01879699739901052 0.006478630234781613
    vertex 0.03387588796402349 0.01639534064415656 0.00574187711304123
  endloop
endfacet
facet normal 0.813921 -0.580976 0
  outer loop
    vertex 0.02368454424271008 0.007077789729446879 0
    vertex 0.02621060443512075 0.01061668459417031 0.005000000000000001
    vertex 0.02368454424271008 0.007077789729446879 0.01000000000000003
  endloop
endfacet
facet normal 0.813921 -0.580976 0
  outer loop
    vertex 0.02873666462753143 0.01415557945889375 0.02
    vertex 0.02621060443512075 0.01061668459417031 0.015
    vertex 0.02873666462753143 0.01415557945889375 0.009999999999999972
  endloop
endfacet
facet normal 0.813921 -0.580976 0
  outer loop
    vertex 0.02368454424271008 0.007077789729446879 0.01000000000000003
    vertex 0.02621060443512075 0.01061668459417031 0.015
    vertex 0.02368454424271008 0.007077789729446879 0.02
  endloop
endfacet
facet normal 0.813921 -0.580976 0
  outer loop
    vertex 0.02873666462753143 0.01415557945889375 0.009999999999999972
    vertex 0.02621060443512075 0.01061668459417031 0.005000000000000001
    vertex 0.02873666462753143 0.01415557945889375 0
  endloop
endfacet
facet normal 0.813921 -0.580976 0
  outer loop
    vertex 0.02873666462753143 0.01415557945889375 0
    vertex 0.02621060443512075 0.01061668459417031 0.005000000000000001
    vertex 0.02368454424271008 0.007077789729446879 0
  endloop
endfacet
facet normal 0.813921 -0.580976 0
  outer loop
    vertex 0.02873666462753143 0.01415557945889375 0.009999999999999972
    vertex 0.02621060443512075 0.01061668459417031 0.015
    vertex 0.02368454424271008 0.007077789729446879 0.01000000000000003
  endloop
endfacet
facet normal 0.813921 -0.580976 0
  outer loop
    vertex 0.02368454424271008 0.007077789729446879 0.02
    vertex 0.02621060443512075 0.01061668459417031 0.015
    vertex 0.02873666462753143 0.01415557945889375 0.02
  endloop
endfacet
facet normal 0.813921 -0.580976 0
  outer loop
    vertex 0.02368454424271008 0.007077789729446879 0.01000000000000003
    vertex 0.02621060443512075 0.01061668459417031 0.005000000000000001
    vertex 0.02873666462753143 0.01415557945889375 0.009999999999999972
  endloop
endfacet
endsolid Created by Gmsh
