solid Created by Gmsh
facet normal -0.62639 -0.77951 -2.03571e-16
  outer loop
    vertex 0.03068781447908141 0.05823310238685077 0
    vertex 0.03974632493256398 0.05095396458849442 0
    vertex 0.0352170697058227 0.0545935334876726 0.005728862973760926
  endloop
endfacet
facet normal -0.62639 -0.77951 9.80681e-17
  outer loop
    vertex 0.03974632493256398 0.05095396458849442 0.02
    vertex 0.03068781447908141 0.05823310238685077 0.02
    vertex 0.0352170697058227 0.0545935334876726 0.01405396560956745
  endloop
endfacet
facet normal -0.62639 -0.77951 0
  outer loop
    vertex 0.0352170697058227 0.0545935334876726 0.005728862973760926
    vertex 0.03974632493256398 0.05095396458849442 0.01000000000000003
    vertex 0.0352170697058227 0.0545935334876726 0.01405396560956745
  endloop
endfacet
facet normal -0.62639 -0.77951 0
  outer loop
    vertex 0.03068781447908141 0.05823310238685077 0.009999999999999972
    vertex 0.0352170697058227 0.0545935334876726 0.005728862973760926
    vertex 0.0352170697058227 0.0545935334876726 0.01405396560956745
  endloop
endfacet
facet normal -0.62639 -0.77951 -0
  outer loop
    vertex 0.03068781447908141 0.05823310238685077 0.02
    vertex 0.03068781447908141 0.05823310238685077 0.009999999999999972
    vertex 0.0352170697058227 0.0545935334876726 0.01405396560956745
  endloop
endfacet
facet normal -0.62639 -0.77951 0
  outer loop
    vertex 0.03974632493256398 0.05095396458849442 0
    vertex 0.03974632493256398 0.05095396458849442 0.01000000000000003
    vertex 0.0352170697058227 0.0545935334876726 0.005728862973760926
  endloop
endfacet
facet normal -0.62639 -0.77951 -0
  outer loop
    vertex 0.03068781447908141 0.05823310238685077 0.009999999999999972
    vertex 0.03068781447908141 0.05823310238685077 0
    vertex 0.0352170697058227 0.0545935334876726 0.005728862973760926
  endloop
endfacet
facet normal -0.62639 -0.77951 0
  outer loop
    vertex 0.03974632493256398 0.05095396458849442 0.01000000000000003
    vertex 0.03974632493256398 0.05095396458849442 0.02
    vertex 0.0352170697058227 0.0545935334876726 0.01405396560956745
  endloop
endfacet
facet normal -0.7489 -0.662683 -0
  outer loop
    vertex 0.03974632493256398 0.05095396458849442 0.02
    vertex 0.03974632493256398 0.05095396458849442 0.009999999999999972
    vertex 0.04296688649156322 0.04731439568931625 0.015
  endloop
endfacet
facet normal -0.7489 -0.662683 0
  outer loop
    vertex 0.04618744805056246 0.04367482679013808 0
    vertex 0.04618744805056246 0.04367482679013808 0.01000000000000003
    vertex 0.04296688649156322 0.04731439568931625 0.004999999999999999
  endloop
endfacet
facet normal -0.7489 -0.662683 -0
  outer loop
    vertex 0.03974632493256398 0.05095396458849442 0.009999999999999972
    vertex 0.03974632493256398 0.05095396458849442 0
    vertex 0.04296688649156322 0.04731439568931625 0.004999999999999999
  endloop
endfacet
facet normal -0.7489 -0.662683 0
  outer loop
    vertex 0.04618744805056246 0.04367482679013808 0.01000000000000003
    vertex 0.04618744805056246 0.04367482679013808 0.02
    vertex 0.04296688649156322 0.04731439568931625 0.015
  endloop
endfacet
facet normal -0.7489 -0.662683 0
  outer loop
    vertex 0.04618744805056246 0.04367482679013808 0.01000000000000003
    vertex 0.03974632493256398 0.05095396458849442 0.009999999999999972
    vertex 0.04296688649156322 0.04731439568931625 0.004999999999999999
  endloop
endfacet
facet normal -0.7489 -0.662683 -1.04574e-15
  outer loop
    vertex 0.03974632493256398 0.05095396458849442 0.009999999999999972
    vertex 0.04618744805056246 0.04367482679013808 0.01000000000000003
    vertex 0.04296688649156322 0.04731439568931625 0.015
  endloop
endfacet
facet normal -0.7489 -0.662683 0
  outer loop
    vertex 0.03974632493256398 0.05095396458849442 0
    vertex 0.04618744805056246 0.04367482679013808 0
    vertex 0.04296688649156322 0.04731439568931625 0.004999999999999999
  endloop
endfacet
facet normal -0.7489 -0.662683 1.04574e-15
  outer loop
    vertex 0.04618744805056246 0.04367482679013808 0.02
    vertex 0.03974632493256398 0.05095396458849442 0.02
    vertex 0.04296688649156322 0.04731439568931625 0.015
  endloop
endfacet
facet normal -0.853143 0.521677 0
  outer loop
    vertex 0.04618744805056246 0.04367482679013808 0.02
    vertex 0.04618744805056246 0.04367482679013808 0.009999999999999972
    vertex 0.04396193506108007 0.04003525789095991 0.015
  endloop
endfacet
facet normal -0.853143 0.521677 0
  outer loop
    vertex 0.0417364220715977 0.03639568899178173 0
    vertex 0.0417364220715977 0.03639568899178173 0.01000000000000003
    vertex 0.04396193506108007 0.0400352578909599 0.005000000000000001
  endloop
endfacet
facet normal -0.853143 0.521677 0
  outer loop
    vertex 0.04618744805056246 0.04367482679013808 0.009999999999999972
    vertex 0.04618744805056246 0.04367482679013808 0
    vertex 0.04396193506108007 0.0400352578909599 0.005000000000000001
  endloop
endfacet
facet normal -0.853143 0.521677 0
  outer loop
    vertex 0.0417364220715977 0.03639568899178173 0.01000000000000003
    vertex 0.0417364220715977 0.03639568899178173 0.02
    vertex 0.04396193506108007 0.04003525789095991 0.015
  endloop
endfacet
facet normal -0.853143 0.521677 8.73624e-16
  outer loop
    vertex 0.0417364220715977 0.03639568899178173 0.01000000000000003
    vertex 0.04618744805056246 0.04367482679013808 0.009999999999999972
    vertex 0.04396193506108007 0.0400352578909599 0.005000000000000001
  endloop
endfacet
facet normal -0.853143 0.521677 1.58841e-15
  outer loop
    vertex 0.0417364220715977 0.03639568899178173 0.02
    vertex 0.04618744805056246 0.04367482679013808 0.02
    vertex 0.04396193506108007 0.04003525789095991 0.015
  endloop
endfacet
facet normal -0.853143 0.521677 -7.94204e-16
  outer loop
    vertex 0.04618744805056246 0.04367482679013808 0
    vertex 0.0417364220715977 0.03639568899178173 0
    vertex 0.04396193506108007 0.0400352578909599 0.005000000000000001
  endloop
endfacet
facet normal -0.853143 0.521677 -1.50899e-15
  outer loop
    vertex 0.04618744805056246 0.04367482679013808 0.009999999999999972
    vertex 0.0417364220715977 0.03639568899178173 0.01000000000000003
    vertex 0.04396193506108007 0.04003525789095991 0.015
  endloop
endfacet
facet normal -0.982354 0.187032 0
  outer loop
    vertex 0.0417364220715977 0.03639568899178173 0.02
    vertex 0.0417364220715977 0.03639568899178173 0.009999999999999972
    vertex 0.04104347926581099 0.03275612009260356 0.015
  endloop
endfacet
facet normal -0.982354 0.187032 0
  outer loop
    vertex 0.04035053646002426 0.02911655119342538 0
    vertex 0.04035053646002426 0.02911655119342538 0.01000000000000003
    vertex 0.04104347926581099 0.03275612009260356 0.005000000000000001
  endloop
endfacet
facet normal -0.982354 0.187032 0
  outer loop
    vertex 0.0417364220715977 0.03639568899178173 0.009999999999999972
    vertex 0.0417364220715977 0.03639568899178173 0
    vertex 0.04104347926581099 0.03275612009260356 0.005000000000000001
  endloop
endfacet
facet normal -0.982354 0.187032 0
  outer loop
    vertex 0.04035053646002426 0.02911655119342538 0.01000000000000003
    vertex 0.04035053646002426 0.02911655119342538 0.02
    vertex 0.04104347926581099 0.03275612009260356 0.015
  endloop
endfacet
facet normal -0.982354 0.187032 -1.37173e-15
  outer loop
    vertex 0.04035053646002426 0.02911655119342538 0.02
    vertex 0.0417364220715977 0.03639568899178173 0.02
    vertex 0.04104347926581099 0.03275612009260356 0.015
  endloop
endfacet
facet normal -0.982354 0.187032 1.34887e-15
  outer loop
    vertex 0.0417364220715977 0.03639568899178173 0
    vertex 0.04035053646002426 0.02911655119342538 0
    vertex 0.04104347926581099 0.03275612009260356 0.005000000000000001
  endloop
endfacet
facet normal -0.982354 0.187032 -1.37173e-15
  outer loop
    vertex 0.04035053646002426 0.02911655119342538 0.01000000000000003
    vertex 0.0417364220715977 0.03639568899178173 0.009999999999999972
    vertex 0.04104347926581099 0.03275612009260356 0.005000000000000001
  endloop
endfacet
facet normal -0.982354 0.187032 1.34887e-15
  outer loop
    vertex 0.0417364220715977 0.03639568899178173 0.009999999999999972
    vertex 0.04035053646002426 0.02911655119342538 0.01000000000000003
    vertex 0.04104347926581099 0.03275612009260356 0.015
  endloop
endfacet
facet normal -0.523742 0.851877 0
  outer loop
    vertex 0.04035053646002426 0.02911655119342538 0.02
    vertex 0.04035053646002426 0.02911655119342538 0.009999999999999972
    vertex 0.03620665876139521 0.02656885296400066 0.015
  endloop
endfacet
facet normal -0.523742 0.851877 0
  outer loop
    vertex 0.02851088589251267 0.02183741339506904 0
    vertex 0.02851088589251267 0.02183741339506904 0.01000000000000003
    vertex 0.03265476359114174 0.02438511162449376 0.004999999999999999
  endloop
endfacet
facet normal -0.523742 0.851877 0
  outer loop
    vertex 0.04035053646002426 0.02911655119342538 0.009999999999999972
    vertex 0.04035053646002426 0.02911655119342538 0
    vertex 0.03644345177274544 0.02671443571996779 0.004999999999999991
  endloop
endfacet
facet normal -0.523742 0.851877 0
  outer loop
    vertex 0.02851088589251267 0.02183741339506904 0.01000000000000003
    vertex 0.02851088589251267 0.02183741339506904 0.02
    vertex 0.0324179705797915 0.02423952886852663 0.015
  endloop
endfacet
facet normal -0.523742 0.851877 1.38955e-15
  outer loop
    vertex 0.03443071117626846 0.02547698229424721 0
    vertex 0.02851088589251267 0.02183741339506904 0
    vertex 0.03265476359114174 0.02438511162449376 0.004999999999999999
  endloop
endfacet
facet normal -0.523742 0.851877 -5.36316e-16
  outer loop
    vertex 0.03443071117626847 0.02547698229424721 0.02
    vertex 0.04035053646002426 0.02911655119342538 0.02
    vertex 0.03620665876139521 0.02656885296400066 0.015
  endloop
endfacet
facet normal -0.523742 0.851877 1.02388e-15
  outer loop
    vertex 0.04035053646002426 0.02911655119342538 0
    vertex 0.03443071117626846 0.02547698229424721 0
    vertex 0.03644345177274544 0.02671443571996779 0.004999999999999991
  endloop
endfacet
facet normal -0.523742 0.851877 -9.26364e-16
  outer loop
    vertex 0.02851088589251267 0.02183741339506904 0.02
    vertex 0.03443071117626847 0.02547698229424721 0.02
    vertex 0.0324179705797915 0.02423952886852663 0.015
  endloop
endfacet
facet normal -0.523742 0.851877 -6.66586e-16
  outer loop
    vertex 0.03443071117626847 0.02547698229424721 0.02
    vertex 0.03620665876139521 0.02656885296400066 0.015
    vertex 0.0324179705797915 0.02423952886852663 0.015
  endloop
endfacet
facet normal -0.523742 0.851877 1.39031e-15
  outer loop
    vertex 0.03443071117626846 0.02547698229424721 0
    vertex 0.03265476359114174 0.02438511162449376 0.004999999999999999
    vertex 0.03644345177274544 0.02671443571996779 0.004999999999999991
  endloop
endfacet
facet normal -0.523742 0.851877 7.61813e-17
  outer loop
    vertex 0.0324179705797915 0.02423952886852663 0.015
    vertex 0.03620665876139521 0.02656885296400066 0.015
    vertex 0.03443071117626847 0.02547698229424721 0.009999999999999998
  endloop
endfacet
facet normal -0.523742 0.851877 -3.80906e-17
  outer loop
    vertex 0.03644345177274544 0.02671443571996779 0.004999999999999991
    vertex 0.03265476359114174 0.02438511162449376 0.004999999999999999
    vertex 0.03443071117626847 0.02547698229424721 0.009999999999999998
  endloop
endfacet
facet normal -0.523742 0.851877 5.36316e-16
  outer loop
    vertex 0.02851088589251267 0.02183741339506904 0.01000000000000003
    vertex 0.0324179705797915 0.02423952886852663 0.015
    vertex 0.03443071117626847 0.02547698229424721 0.009999999999999998
  endloop
endfacet
facet normal -0.523742 0.851877 -4.8756e-16
  outer loop
    vertex 0.03265476359114174 0.02438511162449376 0.004999999999999999
    vertex 0.02851088589251267 0.02183741339506904 0.01000000000000003
    vertex 0.03443071117626847 0.02547698229424721 0.009999999999999998
  endloop
endfacet
facet normal -0.523742 0.851877 1.46268e-16
  outer loop
    vertex 0.03620665876139521 0.02656885296400066 0.015
    vertex 0.04035053646002426 0.02911655119342538 0.009999999999999972
    vertex 0.03443071117626847 0.02547698229424721 0.009999999999999998
  endloop
endfacet
facet normal -0.523742 0.851877 -1.46268e-16
  outer loop
    vertex 0.04035053646002426 0.02911655119342538 0.009999999999999972
    vertex 0.03644345177274544 0.02671443571996779 0.004999999999999991
    vertex 0.03443071117626847 0.02547698229424721 0.009999999999999998
  endloop
endfacet
facet normal -0.533993 -0.845489 -0
  outer loop
    vertex 0.02851088589251267 0.02183741339506904 0.02
    vertex 0.02851088589251267 0.02183741339506904 0.009999999999999972
    vertex 0.0325447361640217 0.01928971516564432 0.015
  endloop
endfacet
facet normal -0.533993 -0.845489 0
  outer loop
    vertex 0.04003617238253846 0.01455827559671269 0
    vertex 0.04003617238253846 0.01455827559671269 0.01000000000000003
    vertex 0.03600232211102944 0.01710597382613741 0.005000000000000006
  endloop
endfacet
facet normal -0.533993 -0.845489 -0
  outer loop
    vertex 0.02851088589251267 0.02183741339506904 0.009999999999999972
    vertex 0.02851088589251267 0.02183741339506904 0
    vertex 0.03231423043422119 0.01943529792161144 0.004999999999999998
  endloop
endfacet
facet normal -0.533993 -0.845489 0
  outer loop
    vertex 0.04003617238253846 0.01455827559671269 0.01000000000000003
    vertex 0.04003617238253846 0.01455827559671269 0.02
    vertex 0.03623282784082996 0.01696039107017028 0.01500000000000001
  endloop
endfacet
facet normal -0.533993 -0.845489 2.23696e-16
  outer loop
    vertex 0.03427352913752556 0.01819784449589087 0
    vertex 0.04003617238253846 0.01455827559671269 0
    vertex 0.03600232211102944 0.01710597382613741 0.005000000000000006
  endloop
endfacet
facet normal -0.533993 -0.845489 -6.21379e-16
  outer loop
    vertex 0.03427352913752557 0.01819784449589086 0.02
    vertex 0.02851088589251267 0.02183741339506904 0.02
    vertex 0.0325447361640217 0.01928971516564432 0.015
  endloop
endfacet
facet normal -0.533993 -0.845489 -6.46234e-16
  outer loop
    vertex 0.04003617238253846 0.01455827559671269 0.02
    vertex 0.03427352913752557 0.01819784449589086 0.02
    vertex 0.03623282784082996 0.01696039107017028 0.01500000000000001
  endloop
endfacet
facet normal -0.533993 -0.845489 1.98841e-16
  outer loop
    vertex 0.02851088589251267 0.02183741339506904 0
    vertex 0.03427352913752556 0.01819784449589087 0
    vertex 0.03231423043422119 0.01943529792161144 0.004999999999999998
  endloop
endfacet
facet normal -0.533993 -0.845489 9.70904e-17
  outer loop
    vertex 0.03427352913752556 0.01819784449589087 0
    vertex 0.03600232211102944 0.01710597382613741 0.005000000000000006
    vertex 0.03231423043422119 0.01943529792161144 0.004999999999999998
  endloop
endfacet
facet normal -0.533993 -0.845489 -6.40797e-16
  outer loop
    vertex 0.03427352913752557 0.01819784449589086 0.02
    vertex 0.0325447361640217 0.01928971516564432 0.015
    vertex 0.03623282784082996 0.01696039107017028 0.01500000000000001
  endloop
endfacet
facet normal -0.533993 -0.845489 7.76723e-17
  outer loop
    vertex 0.03231423043422119 0.01943529792161144 0.004999999999999998
    vertex 0.03600232211102944 0.01710597382613741 0.005000000000000006
    vertex 0.03427352913752557 0.01819784449589086 0.01
  endloop
endfacet
facet normal -0.533993 -0.845489 7.76723e-17
  outer loop
    vertex 0.03623282784082996 0.01696039107017028 0.01500000000000001
    vertex 0.0325447361640217 0.01928971516564432 0.015
    vertex 0.03427352913752557 0.01819784449589086 0.01
  endloop
endfacet
facet normal -0.533993 -0.845489 -9.94206e-17
  outer loop
    vertex 0.02851088589251267 0.02183741339506904 0.009999999999999972
    vertex 0.03231423043422119 0.01943529792161144 0.004999999999999998
    vertex 0.03427352913752557 0.01819784449589086 0.01
  endloop
endfacet
facet normal -0.533993 -0.845489 1.98841e-16
  outer loop
    vertex 0.0325447361640217 0.01928971516564432 0.015
    vertex 0.02851088589251267 0.02183741339506904 0.009999999999999972
    vertex 0.03427352913752557 0.01819784449589086 0.01
  endloop
endfacet
facet normal -0.533993 -0.845489 -1.49131e-16
  outer loop
    vertex 0.03600232211102944 0.01710597382613741 0.005000000000000006
    vertex 0.04003617238253846 0.01455827559671269 0.01000000000000003
    vertex 0.03427352913752557 0.01819784449589086 0.01
  endloop
endfacet
facet normal -0.533993 -0.845489 2.48551e-16
  outer loop
    vertex 0.04003617238253846 0.01455827559671269 0.01000000000000003
    vertex 0.03623282784082996 0.01696039107017028 0.01500000000000001
    vertex 0.03427352913752557 0.01819784449589086 0.01
  endloop
endfacet
facet normal -0.471871 0.881667 -2.28447e-16
  outer loop
    vertex 0.04003617238253846 0.01455827559671269 0
    vertex 0.03323582198144609 0.01091870669753452 0
    vertex 0.03316501450121812 0.01088081031166219 0.007691454801569808
  endloop
endfacet
facet normal -0.471871 0.881667 -1.99891e-16
  outer loop
    vertex 0.03323582198144609 0.01091870669753452 0
    vertex 0.02643547158035369 0.007279137798356344 0
    vertex 0.03316501450121812 0.01088081031166219 0.007691454801569808
  endloop
endfacet
facet normal -0.471871 0.881667 0
  outer loop
    vertex 0.04003617238253846 0.01455827559671269 0.009999999999999972
    vertex 0.04003617238253846 0.01455827559671269 0
    vertex 0.03316501450121812 0.01088081031166219 0.007691454801569808
  endloop
endfacet
facet normal -0.471871 0.881667 0
  outer loop
    vertex 0.02643547158035369 0.007279137798356344 0
    vertex 0.02643547158035369 0.007279137798356344 0.01000000000000003
    vertex 0.03316501450121812 0.01088081031166219 0.007691454801569808
  endloop
endfacet
facet normal -0.471871 0.881667 0
  outer loop
    vertex 0.04003617238253846 0.01455827559671269 0.02
    vertex 0.04003617238253846 0.01455827559671269 0.009999999999999972
    vertex 0.03527592710177379 0.01201057736728797 0.01460763158975746
  endloop
endfacet
facet normal -0.471871 0.881667 0
  outer loop
    vertex 0.02643547158035369 0.007279137798356344 0.01000000000000003
    vertex 0.02643547158035369 0.007279137798356344 0.02
    vertex 0.03060271432956359 0.009509459209869744 0.01461415519876105
  endloop
endfacet
facet normal -0.471871 0.881667 1.38577e-16
  outer loop
    vertex 0.03527592710177379 0.01201057736728797 0.01460763158975746
    vertex 0.03316501450121812 0.01088081031166219 0.007691454801569808
    vertex 0.03060271432956359 0.009509459209869744 0.01461415519876105
  endloop
endfacet
facet normal -0.471871 0.881667 -4.07309e-17
  outer loop
    vertex 0.03323582198144606 0.01091870669753451 0.02
    vertex 0.04003617238253846 0.01455827559671269 0.02
    vertex 0.03527592710177379 0.01201057736728797 0.01460763158975746
  endloop
endfacet
facet normal -0.471871 0.881667 8.15605e-17
  outer loop
    vertex 0.02643547158035369 0.007279137798356344 0.02
    vertex 0.03323582198144606 0.01091870669753451 0.02
    vertex 0.03060271432956359 0.009509459209869744 0.01461415519876105
  endloop
endfacet
facet normal -0.471871 0.881667 -7.41275e-17
  outer loop
    vertex 0.03323582198144606 0.01091870669753451 0.02
    vertex 0.03527592710177379 0.01201057736728797 0.01460763158975746
    vertex 0.03060271432956359 0.009509459209869744 0.01461415519876105
  endloop
endfacet
facet normal -0.471871 0.881667 1.22573e-16
  outer loop
    vertex 0.03527592710177379 0.01201057736728797 0.01460763158975746
    vertex 0.04003617238253846 0.01455827559671269 0.009999999999999972
    vertex 0.03316501450121812 0.01088081031166219 0.007691454801569808
  endloop
endfacet
facet normal -0.471871 0.881667 0
  outer loop
    vertex 0.03316501450121812 0.01088081031166219 0.007691454801569808
    vertex 0.02643547158035369 0.007279137798356344 0.01000000000000003
    vertex 0.03060271432956359 0.009509459209869744 0.01461415519876105
  endloop
endfacet
endsolid Created by Gmsh
