solid Created by Gmsh
facet normal -0.999108 0.0422247 2.90676e-17
  outer loop
    vertex 0.03503005741662935 0.05094971637043561 0.01000000000000003
    vertex 0.03533766585597689 0.05822824728049784 0.009999999999999972
    vertex 0.03518386163630312 0.05458898182546673 0.004999999999999997
  endloop
endfacet
facet normal -0.999108 0.0422247 -2.90676e-17
  outer loop
    vertex 0.03503005741662935 0.05094971637043561 0.02
    vertex 0.03533766585597689 0.05822824728049784 0.02
    vertex 0.03518386163630312 0.05458898182546672 0.015
  endloop
endfacet
facet normal -0.999108 0.0422247 2.90676e-17
  outer loop
    vertex 0.03533766585597689 0.05822824728049784 0.009999999999999972
    vertex 0.03503005741662935 0.05094971637043561 0.01000000000000003
    vertex 0.03518386163630312 0.05458898182546672 0.015
  endloop
endfacet
facet normal -0.999108 0.0422247 -2.90676e-17
  outer loop
    vertex 0.03533766585597689 0.05822824728049784 0
    vertex 0.03503005741662935 0.05094971637043561 0
    vertex 0.03518386163630312 0.05458898182546673 0.004999999999999997
  endloop
endfacet
facet normal -0.999108 0.0422247 0
  outer loop
    vertex 0.03533766585597689 0.05822824728049784 0.009999999999999972
    vertex 0.03533766585597689 0.05822824728049784 0
    vertex 0.03518386163630312 0.05458898182546673 0.004999999999999997
  endloop
endfacet
facet normal -0.999108 0.0422247 0
  outer loop
    vertex 0.03533766585597689 0.05822824728049784 0.02
    vertex 0.03533766585597689 0.05822824728049784 0.009999999999999972
    vertex 0.03518386163630312 0.05458898182546672 0.015
  endloop
endfacet
facet normal -0.999108 0.0422247 0
  outer loop
    vertex 0.03503005741662935 0.05094971637043561 0
    vertex 0.03503005741662935 0.05094971637043561 0.01000000000000003
    vertex 0.03518386163630312 0.05458898182546673 0.004999999999999997
  endloop
endfacet
facet normal -0.999108 0.0422247 0
  outer loop
    vertex 0.03503005741662935 0.05094971637043561 0.01000000000000003
    vertex 0.03503005741662935 0.05094971637043561 0.02
    vertex 0.03518386163630312 0.05458898182546672 0.015
  endloop
endfacet
facet normal -0.656953 0.753931 -6.64729e-16
  outer loop
    vertex 0.03503005741662935 0.05094971637043561 0
    vertex 0.02667708433022432 0.04367118546037338 0
    vertex 0.03085357087342683 0.0473104509154045 0.005520616409829227
  endloop
endfacet
facet normal -0.656953 0.753931 -5.56674e-17
  outer loop
    vertex 0.02667708433022432 0.04367118546037338 0.02
    vertex 0.03503005741662935 0.05094971637043561 0.02
    vertex 0.03085357087342685 0.04731045091540451 0.0145064877347891
  endloop
endfacet
facet normal -0.656953 0.753931 0
  outer loop
    vertex 0.02667708433022432 0.04367118546037338 0
    vertex 0.02667708433022432 0.04367118546037338 0.01000000000000003
    vertex 0.03085357087342683 0.0473104509154045 0.005520616409829227
  endloop
endfacet
facet normal -0.656953 0.753931 0
  outer loop
    vertex 0.03503005741662935 0.05094971637043561 0.02
    vertex 0.03503005741662935 0.05094971637043561 0.009999999999999972
    vertex 0.03085357087342685 0.04731045091540451 0.0145064877347891
  endloop
endfacet
facet normal -0.656953 0.753931 4.32413e-16
  outer loop
    vertex 0.03085357087342683 0.0473104509154045 0.005520616409829227
    vertex 0.02667708433022432 0.04367118546037338 0.01000000000000003
    vertex 0.03085357087342685 0.04731045091540451 0.0145064877347891
  endloop
endfacet
facet normal -0.656953 0.753931 4.42419e-16
  outer loop
    vertex 0.03503005741662935 0.05094971637043561 0.009999999999999972
    vertex 0.03085357087342683 0.0473104509154045 0.005520616409829227
    vertex 0.03085357087342685 0.04731045091540451 0.0145064877347891
  endloop
endfacet
facet normal -0.656953 0.753931 0
  outer loop
    vertex 0.02667708433022432 0.04367118546037338 0.01000000000000003
    vertex 0.02667708433022432 0.04367118546037338 0.02
    vertex 0.03085357087342685 0.04731045091540451 0.0145064877347891
  endloop
endfacet
facet normal -0.656953 0.753931 0
  outer loop
    vertex 0.03503005741662935 0.05094971637043561 0.009999999999999972
    vertex 0.03503005741662935 0.05094971637043561 0
    vertex 0.03085357087342683 0.0473104509154045 0.005520616409829227
  endloop
endfacet
facet normal -0.398314 -0.917249 -1.63604e-15
  outer loop
    vertex 0.02667708433022432 0.04367118546037338 0
    vertex 0.0350576843342828 0.04003192000534227 0
    vertex 0.03358451175837762 0.04067164342158866 0.007706516131497396
  endloop
endfacet
facet normal -0.398314 -0.917249 -0
  outer loop
    vertex 0.02667708433022432 0.04367118546037338 0.009999999999999972
    vertex 0.02667708433022432 0.04367118546037338 0
    vertex 0.03358451175837762 0.04067164342158866 0.007706516131497396
  endloop
endfacet
facet normal -0.398314 -0.917249 0
  outer loop
    vertex 0.04343828433834128 0.03639265455031115 0.01000000000000003
    vertex 0.04343828433834128 0.03639265455031115 0.02
    vertex 0.03728234317435304 0.03906586458425349 0.01323317282038231
  endloop
endfacet
facet normal -0.398314 -0.917249 1.58922e-15
  outer loop
    vertex 0.04343828433834128 0.03639265455031115 0.02
    vertex 0.0350576843342828 0.04003192000534227 0.02
    vertex 0.03728234317435304 0.03906586458425349 0.01323317282038231
  endloop
endfacet
facet normal -0.398314 -0.917249 0
  outer loop
    vertex 0.04343828433834128 0.03639265455031115 0
    vertex 0.04343828433834128 0.03639265455031115 0.01000000000000003
    vertex 0.03924798433631203 0.0382122872778267 0.004972679385215295
  endloop
endfacet
facet normal -0.398314 -0.917249 -0
  outer loop
    vertex 0.02667708433022432 0.04367118546037338 0.02
    vertex 0.02667708433022432 0.04367118546037338 0.009999999999999972
    vertex 0.03180081976169217 0.04144620952220308 0.01423542285442704
  endloop
endfacet
facet normal -0.398314 -0.917249 -1.82704e-15
  outer loop
    vertex 0.0350576843342828 0.04003192000534227 0
    vertex 0.04343828433834128 0.03639265455031115 0
    vertex 0.03924798433631203 0.0382122872778267 0.004972679385215295
  endloop
endfacet
facet normal -0.398314 -0.917249 2.41233e-15
  outer loop
    vertex 0.0350576843342828 0.04003192000534227 0.02
    vertex 0.02667708433022432 0.04367118546037338 0.02
    vertex 0.03180081976169217 0.04144620952220308 0.01423542285442704
  endloop
endfacet
facet normal -0.398314 -0.917249 2.79375e-16
  outer loop
    vertex 0.04343828433834128 0.03639265455031115 0.01000000000000003
    vertex 0.03728234317435304 0.03906586458425349 0.01323317282038231
    vertex 0.03924798433631203 0.0382122872778267 0.004972679385215295
  endloop
endfacet
facet normal -0.398314 -0.917249 -9.38122e-18
  outer loop
    vertex 0.03728234317435304 0.03906586458425349 0.01323317282038231
    vertex 0.03358451175837762 0.04067164342158866 0.007706516131497396
    vertex 0.03924798433631203 0.0382122872778267 0.004972679385215295
  endloop
endfacet
facet normal -0.398314 -0.917249 -7.76806e-16
  outer loop
    vertex 0.03180081976169217 0.04144620952220308 0.01423542285442704
    vertex 0.02667708433022432 0.04367118546037338 0.009999999999999972
    vertex 0.03358451175837762 0.04067164342158866 0.007706516131497396
  endloop
endfacet
facet normal -0.398314 -0.917249 -1.69632e-15
  outer loop
    vertex 0.03358451175837762 0.04067164342158866 0.007706516131497396
    vertex 0.0350576843342828 0.04003192000534227 0
    vertex 0.03924798433631203 0.0382122872778267 0.004972679385215295
  endloop
endfacet
facet normal -0.398314 -0.917249 -6.85522e-17
  outer loop
    vertex 0.03180081976169217 0.04144620952220308 0.01423542285442704
    vertex 0.03358451175837762 0.04067164342158866 0.007706516131497396
    vertex 0.03728234317435304 0.03906586458425349 0.01323317282038231
  endloop
endfacet
facet normal -0.398314 -0.917249 1.91656e-15
  outer loop
    vertex 0.0350576843342828 0.04003192000534227 0.02
    vertex 0.03180081976169217 0.04144620952220308 0.01423542285442704
    vertex 0.03728234317435304 0.03906586458425349 0.01323317282038231
  endloop
endfacet
facet normal -0.956358 -0.292199 -0
  outer loop
    vertex 0.04343828433834128 0.03639265455031115 0.02
    vertex 0.04343828433834128 0.03639265455031115 0.009999999999999972
    vertex 0.04455020098794458 0.03275338909528003 0.015
  endloop
endfacet
facet normal -0.956358 -0.292199 0
  outer loop
    vertex 0.04566211763754791 0.02911412364024892 0
    vertex 0.04566211763754791 0.02911412364024892 0.01000000000000003
    vertex 0.04455020098794458 0.03275338909528003 0.005
  endloop
endfacet
facet normal -0.956358 -0.292199 -0
  outer loop
    vertex 0.04343828433834128 0.03639265455031115 0.009999999999999972
    vertex 0.04343828433834128 0.03639265455031115 0
    vertex 0.04455020098794458 0.03275338909528003 0.005
  endloop
endfacet
facet normal -0.956358 -0.292199 0
  outer loop
    vertex 0.04566211763754791 0.02911412364024892 0.01000000000000003
    vertex 0.04566211763754791 0.02911412364024892 0.02
    vertex 0.04455020098794458 0.03275338909528003 0.015
  endloop
endfacet
facet normal -0.956358 -0.292199 2.89368e-15
  outer loop
    vertex 0.04566211763754791 0.02911412364024892 0.01000000000000003
    vertex 0.04343828433834128 0.03639265455031115 0.009999999999999972
    vertex 0.04455020098794458 0.03275338909528003 0.005
  endloop
endfacet
facet normal -0.956358 -0.292199 -2.89368e-15
  outer loop
    vertex 0.04343828433834128 0.03639265455031115 0.009999999999999972
    vertex 0.04566211763754791 0.02911412364024892 0.01000000000000003
    vertex 0.04455020098794458 0.03275338909528003 0.015
  endloop
endfacet
facet normal -0.956358 -0.292199 -2.89368e-15
  outer loop
    vertex 0.04343828433834128 0.03639265455031115 0
    vertex 0.04566211763754791 0.02911412364024892 0
    vertex 0.04455020098794458 0.03275338909528003 0.005
  endloop
endfacet
facet normal -0.956358 -0.292199 2.89368e-15
  outer loop
    vertex 0.04566211763754791 0.02911412364024892 0.02
    vertex 0.04343828433834128 0.03639265455031115 0.02
    vertex 0.04455020098794458 0.03275338909528003 0.015
  endloop
endfacet
facet normal -0.724362 0.689419 -1.6185e-15
  outer loop
    vertex 0.04566211763754791 0.02911412364024892 0
    vertex 0.03873470245199789 0.02183559273018669 0
    vertex 0.04219841004477287 0.02547485818521779 0.005000000000000013
  endloop
endfacet
facet normal -0.724362 0.689419 1.48363e-15
  outer loop
    vertex 0.03873470245199789 0.02183559273018669 0.02
    vertex 0.04566211763754791 0.02911412364024892 0.02
    vertex 0.04219841004477289 0.02547485818521781 0.01500000000000001
  endloop
endfacet
facet normal -0.724362 0.689419 0
  outer loop
    vertex 0.04566211763754791 0.02911412364024892 0.02
    vertex 0.04566211763754791 0.02911412364024892 0.009999999999999972
    vertex 0.04219841004477289 0.02547485818521781 0.01500000000000001
  endloop
endfacet
facet normal -0.724362 0.689419 0
  outer loop
    vertex 0.03873470245199789 0.02183559273018669 0
    vertex 0.03873470245199789 0.02183559273018669 0.01000000000000003
    vertex 0.04219841004477287 0.02547485818521779 0.005000000000000013
  endloop
endfacet
facet normal -0.724362 0.689419 6.74377e-17
  outer loop
    vertex 0.03873470245199789 0.02183559273018669 0.01000000000000003
    vertex 0.04219841004477289 0.02547485818521781 0.01500000000000001
    vertex 0.04219841004477287 0.02547485818521779 0.005000000000000013
  endloop
endfacet
facet normal -0.724362 0.689419 7.27401e-17
  outer loop
    vertex 0.04219841004477289 0.02547485818521781 0.01500000000000001
    vertex 0.04566211763754791 0.02911412364024892 0.009999999999999972
    vertex 0.04219841004477287 0.02547485818521779 0.005000000000000013
  endloop
endfacet
facet normal -0.724362 0.689419 0
  outer loop
    vertex 0.04566211763754791 0.02911412364024892 0.009999999999999972
    vertex 0.04566211763754791 0.02911412364024892 0
    vertex 0.04219841004477287 0.02547485818521779 0.005000000000000013
  endloop
endfacet
facet normal -0.724362 0.689419 0
  outer loop
    vertex 0.03873470245199789 0.02183559273018669 0.01000000000000003
    vertex 0.03873470245199789 0.02183559273018669 0.02
    vertex 0.04219841004477289 0.02547485818521781 0.01500000000000001
  endloop
endfacet
facet normal -0.515957 0.856614 0
  outer loop
    vertex 0.03873470245199789 0.02183559273018669 0.02
    vertex 0.03873470245199789 0.02183559273018669 0.009999999999999972
    vertex 0.03450525427427489 0.01928810691166491 0.015
  endloop
endfacet
facet normal -0.515957 0.856614 0
  outer loop
    vertex 0.02665056480136074 0.01455706182012446 0
    vertex 0.02665056480136074 0.01455706182012446 0.01000000000000003
    vertex 0.03088001297908374 0.01710454763864624 0.005000000000000006
  endloop
endfacet
facet normal -0.515957 0.856614 0
  outer loop
    vertex 0.03873470245199789 0.02183559273018669 0.009999999999999972
    vertex 0.03873470245199789 0.02183559273018669 0
    vertex 0.03474693702728763 0.01943367752986615 0.004999999999999999
  endloop
endfacet
facet normal -0.515957 0.856614 0
  outer loop
    vertex 0.02665056480136074 0.01455706182012446 0.01000000000000003
    vertex 0.02665056480136074 0.01455706182012446 0.02
    vertex 0.030638330226071 0.01695897702044499 0.01500000000000001
  endloop
endfacet
facet normal -0.515957 0.856614 4.083e-16
  outer loop
    vertex 0.03269263362667933 0.01819632727515558 0
    vertex 0.02665056480136074 0.01455706182012446 0
    vertex 0.03088001297908374 0.01710454763864624 0.005000000000000006
  endloop
endfacet
facet normal -0.515957 0.856614 -7.20529e-17
  outer loop
    vertex 0.03269263362667931 0.01819632727515557 0.02
    vertex 0.03873470245199789 0.02183559273018669 0.02
    vertex 0.03450525427427489 0.01928810691166491 0.015
  endloop
endfacet
facet normal -0.515957 0.856614 -9.60705e-17
  outer loop
    vertex 0.02665056480136074 0.01455706182012446 0.02
    vertex 0.03269263362667931 0.01819632727515557 0.02
    vertex 0.030638330226071 0.01695897702044499 0.01500000000000001
  endloop
endfacet
facet normal -0.515957 0.856614 0
  outer loop
    vertex 0.03873470245199789 0.02183559273018669 0
    vertex 0.03269263362667933 0.01819632727515558 0
    vertex 0.03474693702728763 0.01943367752986615 0.004999999999999999
  endloop
endfacet
facet normal -0.515957 0.856614 3.75275e-16
  outer loop
    vertex 0.03269263362667933 0.01819632727515558 0
    vertex 0.03088001297908374 0.01710454763864624 0.005000000000000006
    vertex 0.03474693702728763 0.01943367752986615 0.004999999999999999
  endloop
endfacet
facet normal -0.515957 0.856614 7.50551e-17
  outer loop
    vertex 0.03269263362667931 0.01819632727515557 0.02
    vertex 0.03450525427427489 0.01928810691166491 0.015
    vertex 0.030638330226071 0.01695897702044499 0.01500000000000001
  endloop
endfacet
facet normal -0.515957 0.856614 7.13023e-16
  outer loop
    vertex 0.03474693702728763 0.01943367752986615 0.004999999999999999
    vertex 0.03088001297908374 0.01710454763864624 0.005000000000000006
    vertex 0.03269263362667932 0.01819632727515557 0.01
  endloop
endfacet
facet normal -0.515957 0.856614 -1.87638e-16
  outer loop
    vertex 0.030638330226071 0.01695897702044499 0.01500000000000001
    vertex 0.03450525427427489 0.01928810691166491 0.015
    vertex 0.03269263362667932 0.01819632727515557 0.01
  endloop
endfacet
facet normal -0.515957 0.856614 0
  outer loop
    vertex 0.03450525427427489 0.01928810691166491 0.015
    vertex 0.03873470245199789 0.02183559273018669 0.009999999999999972
    vertex 0.03269263362667932 0.01819632727515557 0.01
  endloop
endfacet
facet normal -0.515957 0.856614 7.20529e-16
  outer loop
    vertex 0.03873470245199789 0.02183559273018669 0.009999999999999972
    vertex 0.03474693702728763 0.01943367752986615 0.004999999999999999
    vertex 0.03269263362667932 0.01819632727515557 0.01
  endloop
endfacet
facet normal -0.515957 0.856614 3.60264e-16
  outer loop
    vertex 0.03088001297908374 0.01710454763864624 0.005000000000000006
    vertex 0.02665056480136074 0.01455706182012446 0.01000000000000003
    vertex 0.03269263362667932 0.01819632727515557 0.01
  endloop
endfacet
facet normal -0.515957 0.856614 4.80352e-17
  outer loop
    vertex 0.02665056480136074 0.01455706182012446 0.01000000000000003
    vertex 0.030638330226071 0.01695897702044499 0.01500000000000001
    vertex 0.03269263362667932 0.01819632727515557 0.01
  endloop
endfacet
facet normal -0.860892 0.508787 0
  outer loop
    vertex 0.02234895724074506 0.007278530910062232 0
    vertex 0.02234895724074506 0.007278530910062232 0.01000000000000003
    vertex 0.0244997610210529 0.01091779636509335 0.005000000000000001
  endloop
endfacet
facet normal -0.860892 0.508787 0
  outer loop
    vertex 0.02665056480136074 0.01455706182012446 0.02
    vertex 0.02665056480136074 0.01455706182012446 0.009999999999999972
    vertex 0.0244997610210529 0.01091779636509335 0.015
  endloop
endfacet
facet normal -0.860892 0.508787 0
  outer loop
    vertex 0.02665056480136074 0.01455706182012446 0.009999999999999972
    vertex 0.02665056480136074 0.01455706182012446 0
    vertex 0.0244997610210529 0.01091779636509335 0.005000000000000001
  endloop
endfacet
facet normal -0.860892 0.508787 0
  outer loop
    vertex 0.02234895724074506 0.007278530910062232 0.01000000000000003
    vertex 0.02234895724074506 0.007278530910062232 0.02
    vertex 0.0244997610210529 0.01091779636509335 0.015
  endloop
endfacet
facet normal -0.860892 0.508787 -2.40446e-16
  outer loop
    vertex 0.02234895724074506 0.007278530910062232 0.02
    vertex 0.02665056480136074 0.01455706182012446 0.02
    vertex 0.0244997610210529 0.01091779636509335 0.015
  endloop
endfacet
facet normal -0.860892 0.508787 4.80891e-16
  outer loop
    vertex 0.02665056480136074 0.01455706182012446 0
    vertex 0.02234895724074506 0.007278530910062232 0
    vertex 0.0244997610210529 0.01091779636509335 0.005000000000000001
  endloop
endfacet
facet normal -0.860892 0.508787 -4.80891e-16
  outer loop
    vertex 0.02234895724074506 0.007278530910062232 0.01000000000000003
    vertex 0.02665056480136074 0.01455706182012446 0.009999999999999972
    vertex 0.0244997610210529 0.01091779636509335 0.005000000000000001
  endloop
endfacet
facet normal -0.860892 0.508787 3.20594e-16
  outer loop
    vertex 0.02665056480136074 0.01455706182012446 0.009999999999999972
    vertex 0.02234895724074506 0.007278530910062232 0.01000000000000003
    vertex 0.0244997610210529 0.01091779636509335 0.015
  endloop
endfacet
endsolid Created by Gmsh
