solid Created by Gmsh
facet normal 1 0 -9.2018e-16
  outer loop
    vertex 0.04 0.06 0
    vertex 0.04000000000000001 0.05267319586927605 0.00754080040004001
    vertex 0.04 0.05281973195189053 0
  endloop
endfacet
facet normal 1 0 -9.2018e-16
  outer loop
    vertex 0.04 0.05281973195189053 0
    vertex 0.04000000000000001 0.05267319586927605 0.00754080040004001
    vertex 0.04 0.04563946390378107 0
  endloop
endfacet
facet normal 1 -9.86517e-16 0
  outer loop
    vertex 0.04 0.04563946390378107 0
    vertex 0.04000000000000001 0.05267319586927605 0.00754080040004001
    vertex 0.04 0.04563946390378107 0.01000000000000003
  endloop
endfacet
facet normal 1 9.47056e-16 0
  outer loop
    vertex 0.04 0.06 0.009999999999999972
    vertex 0.04000000000000001 0.05267319586927605 0.00754080040004001
    vertex 0.04 0.06 0
  endloop
endfacet
facet normal 1 1.38055e-15 0
  outer loop
    vertex 0.04 0.06 0.02
    vertex 0.04000000000000001 0.05497381236632337 0.01472665626135947
    vertex 0.04 0.06 0.009999999999999972
  endloop
endfacet
facet normal 1 -1.58068e-15 0
  outer loop
    vertex 0.04 0.04563946390378107 0.01000000000000003
    vertex 0.04000000000000001 0.0500292662643891 0.01460963666591422
    vertex 0.04 0.04563946390378107 0.02
  endloop
endfacet
facet normal 1 -0 1.31584e-15
  outer loop
    vertex 0.04 0.05281973195189053 0.02
    vertex 0.04000000000000001 0.05497381236632337 0.01472665626135947
    vertex 0.04 0.06 0.02
  endloop
endfacet
facet normal 1 -0 1.28728e-15
  outer loop
    vertex 0.04 0.04563946390378107 0.02
    vertex 0.04000000000000001 0.0500292662643891 0.01460963666591422
    vertex 0.04 0.05281973195189053 0.02
  endloop
endfacet
facet normal 1 0 0
  outer loop
    vertex 0.04000000000000001 0.05497381236632337 0.01472665626135947
    vertex 0.04000000000000001 0.0500292662643891 0.01460963666591422
    vertex 0.04000000000000001 0.05267319586927605 0.00754080040004001
  endloop
endfacet
facet normal 1 -3.08431e-17 1.30324e-15
  outer loop
    vertex 0.04 0.05281973195189053 0.02
    vertex 0.04000000000000001 0.0500292662643891 0.01460963666591422
    vertex 0.04000000000000001 0.05497381236632337 0.01472665626135947
  endloop
endfacet
facet normal 1 1.06108e-15 -3.39714e-16
  outer loop
    vertex 0.04000000000000001 0.05497381236632337 0.01472665626135947
    vertex 0.04000000000000001 0.05267319586927605 0.00754080040004001
    vertex 0.04 0.06 0.009999999999999972
  endloop
endfacet
facet normal 1 -1.13493e-15 -4.24494e-16
  outer loop
    vertex 0.04000000000000001 0.05267319586927605 0.00754080040004001
    vertex 0.04000000000000001 0.0500292662643891 0.01460963666591422
    vertex 0.04 0.04563946390378107 0.01000000000000003
  endloop
endfacet
facet normal 0.601483 -0.798886 0
  outer loop
    vertex 0.04 0.04563946390378107 0.02
    vertex 0.03621137042455622 0.04278699740979475 0.015
    vertex 0.04 0.04563946390378107 0.009999999999999972
  endloop
endfacet
facet normal 0.601483 -0.798886 0
  outer loop
    vertex 0.03242274084911243 0.03993453091580844 0
    vertex 0.03621137042455622 0.04278699740979475 0.005
    vertex 0.03242274084911243 0.03993453091580844 0.01000000000000003
  endloop
endfacet
facet normal 0.601483 -0.798886 0
  outer loop
    vertex 0.04 0.04563946390378107 0.009999999999999972
    vertex 0.03621137042455622 0.04278699740979475 0.005
    vertex 0.04 0.04563946390378107 0
  endloop
endfacet
facet normal 0.601483 -0.798886 0
  outer loop
    vertex 0.03242274084911243 0.03993453091580844 0.01000000000000003
    vertex 0.03621137042455622 0.04278699740979475 0.015
    vertex 0.03242274084911243 0.03993453091580844 0.02
  endloop
endfacet
facet normal 0.601483 -0.798886 1.92898e-15
  outer loop
    vertex 0.03242274084911243 0.03993453091580844 0.01000000000000003
    vertex 0.03621137042455622 0.04278699740979475 0.005
    vertex 0.04 0.04563946390378107 0.009999999999999972
  endloop
endfacet
facet normal 0.601483 -0.798886 -1.92898e-15
  outer loop
    vertex 0.04 0.04563946390378107 0.009999999999999972
    vertex 0.03621137042455622 0.04278699740979475 0.015
    vertex 0.03242274084911243 0.03993453091580844 0.01000000000000003
  endloop
endfacet
facet normal 0.601483 -0.798886 -1.92898e-15
  outer loop
    vertex 0.04 0.04563946390378107 0
    vertex 0.03621137042455622 0.04278699740979475 0.005
    vertex 0.03242274084911243 0.03993453091580844 0
  endloop
endfacet
facet normal 0.601483 -0.798886 1.92898e-15
  outer loop
    vertex 0.03242274084911243 0.03993453091580844 0.02
    vertex 0.03621137042455622 0.04278699740979475 0.015
    vertex 0.04 0.04563946390378107 0.02
  endloop
endfacet
facet normal 0.556415 0.830905 9.91356e-16
  outer loop
    vertex 0.03242274084911243 0.03993453091580844 0
    vertex 0.0366823823224728 0.03708206442182212 0.004999999999999986
    vertex 0.04094202379583317 0.0342295979278358 0
  endloop
endfacet
facet normal 0.556415 0.830905 1.32181e-16
  outer loop
    vertex 0.04094202379583317 0.0342295979278358 0.02
    vertex 0.03668238232247278 0.03708206442182214 0.01499999999999999
    vertex 0.03242274084911243 0.03993453091580844 0.02
  endloop
endfacet
facet normal 0.556415 0.830905 -0
  outer loop
    vertex 0.04094202379583317 0.0342295979278358 0
    vertex 0.0366823823224728 0.03708206442182212 0.004999999999999986
    vertex 0.04094202379583317 0.0342295979278358 0.01000000000000003
  endloop
endfacet
facet normal 0.556415 0.830905 0
  outer loop
    vertex 0.03242274084911243 0.03993453091580844 0.02
    vertex 0.03668238232247278 0.03708206442182214 0.01499999999999999
    vertex 0.03242274084911243 0.03993453091580844 0.009999999999999972
  endloop
endfacet
facet normal 0.556415 0.830905 -5.61768e-16
  outer loop
    vertex 0.04094202379583317 0.0342295979278358 0.01000000000000003
    vertex 0.0366823823224728 0.03708206442182212 0.004999999999999986
    vertex 0.03668238232247278 0.03708206442182214 0.01499999999999999
  endloop
endfacet
facet normal 0.556415 0.830905 -5.71397e-16
  outer loop
    vertex 0.03668238232247278 0.03708206442182214 0.01499999999999999
    vertex 0.0366823823224728 0.03708206442182212 0.004999999999999986
    vertex 0.03242274084911243 0.03993453091580844 0.009999999999999972
  endloop
endfacet
facet normal 0.556415 0.830905 0
  outer loop
    vertex 0.03242274084911243 0.03993453091580844 0.009999999999999972
    vertex 0.0366823823224728 0.03708206442182212 0.004999999999999986
    vertex 0.03242274084911243 0.03993453091580844 0
  endloop
endfacet
facet normal 0.556415 0.830905 -0
  outer loop
    vertex 0.04094202379583317 0.0342295979278358 0.01000000000000003
    vertex 0.03668238232247278 0.03708206442182214 0.01499999999999999
    vertex 0.04094202379583317 0.0342295979278358 0.02
  endloop
endfacet
facet normal 0.614255 -0.789108 0
  outer loop
    vertex 0.03361312742423769 0.02852466493986317 0
    vertex 0.03727757561003543 0.03137713143384949 0.005000000000000001
    vertex 0.03361312742423769 0.02852466493986317 0.01000000000000003
  endloop
endfacet
facet normal 0.614255 -0.789108 0
  outer loop
    vertex 0.04094202379583317 0.0342295979278358 0.02
    vertex 0.03727757561003543 0.03137713143384949 0.015
    vertex 0.04094202379583317 0.0342295979278358 0.009999999999999972
  endloop
endfacet
facet normal 0.614255 -0.789108 0
  outer loop
    vertex 0.03361312742423769 0.02852466493986317 0.01000000000000003
    vertex 0.03727757561003543 0.03137713143384949 0.015
    vertex 0.03361312742423769 0.02852466493986317 0.02
  endloop
endfacet
facet normal 0.614255 -0.789108 0
  outer loop
    vertex 0.04094202379583317 0.0342295979278358 0.009999999999999972
    vertex 0.03727757561003543 0.03137713143384949 0.005000000000000001
    vertex 0.04094202379583317 0.0342295979278358 0
  endloop
endfacet
facet normal 0.614255 -0.789108 -2.91842e-16
  outer loop
    vertex 0.03361312742423769 0.02852466493986317 0.01000000000000003
    vertex 0.03727757561003543 0.03137713143384949 0.005000000000000001
    vertex 0.04094202379583317 0.0342295979278358 0.009999999999999972
  endloop
endfacet
facet normal 0.614255 -0.789108 2.91842e-16
  outer loop
    vertex 0.04094202379583317 0.0342295979278358 0.009999999999999972
    vertex 0.03727757561003543 0.03137713143384949 0.015
    vertex 0.03361312742423769 0.02852466493986317 0.01000000000000003
  endloop
endfacet
facet normal 0.614255 -0.789108 2.91842e-16
  outer loop
    vertex 0.04094202379583317 0.0342295979278358 0
    vertex 0.03727757561003543 0.03137713143384949 0.005000000000000001
    vertex 0.03361312742423769 0.02852466493986317 0
  endloop
endfacet
facet normal 0.614255 -0.789108 -2.91842e-16
  outer loop
    vertex 0.03361312742423769 0.02852466493986317 0.02
    vertex 0.03727757561003543 0.03137713143384949 0.015
    vertex 0.04094202379583317 0.0342295979278358 0.02
  endloop
endfacet
facet normal 0.81604 -0.577996 1.93857e-16
  outer loop
    vertex 0.03361312742423769 0.02852466493986317 0
    vertex 0.03159274165841171 0.02567219844587685 0.005
    vertex 0.02957235589258574 0.02281973195189053 0
  endloop
endfacet
facet normal 0.81604 -0.577996 -2.42321e-16
  outer loop
    vertex 0.02957235589258574 0.02281973195189053 0.02
    vertex 0.03159274165841171 0.02567219844587685 0.015
    vertex 0.03361312742423769 0.02852466493986317 0.02
  endloop
endfacet
facet normal 0.81604 -0.577996 1.93857e-16
  outer loop
    vertex 0.03361312742423769 0.02852466493986317 0.009999999999999972
    vertex 0.03159274165841171 0.02567219844587685 0.015
    vertex 0.02957235589258574 0.02281973195189053 0.01000000000000003
  endloop
endfacet
facet normal 0.81604 -0.577996 -2.42321e-16
  outer loop
    vertex 0.02957235589258574 0.02281973195189053 0.01000000000000003
    vertex 0.03159274165841171 0.02567219844587685 0.005
    vertex 0.03361312742423769 0.02852466493986317 0.009999999999999972
  endloop
endfacet
facet normal 0.81604 -0.577996 0
  outer loop
    vertex 0.03361312742423769 0.02852466493986317 0.009999999999999972
    vertex 0.03159274165841171 0.02567219844587685 0.005
    vertex 0.03361312742423769 0.02852466493986317 0
  endloop
endfacet
facet normal 0.81604 -0.577996 0
  outer loop
    vertex 0.03361312742423769 0.02852466493986317 0.02
    vertex 0.03159274165841171 0.02567219844587685 0.015
    vertex 0.03361312742423769 0.02852466493986317 0.009999999999999972
  endloop
endfacet
facet normal 0.81604 -0.577996 0
  outer loop
    vertex 0.02957235589258574 0.02281973195189053 0
    vertex 0.03159274165841171 0.02567219844587685 0.005
    vertex 0.02957235589258574 0.02281973195189053 0.01000000000000003
  endloop
endfacet
facet normal 0.81604 -0.577996 0
  outer loop
    vertex 0.02957235589258574 0.02281973195189053 0.01000000000000003
    vertex 0.03159274165841171 0.02567219844587685 0.015
    vertex 0.02957235589258574 0.02281973195189053 0.02
  endloop
endfacet
facet normal 0.965987 -0.258591 5.73695e-16
  outer loop
    vertex 0.02804516515410143 0.0171147989639179 0.01000000000000003
    vertex 0.02880876052334359 0.01996726545790422 0.005
    vertex 0.02957235589258574 0.02281973195189053 0.009999999999999972
  endloop
endfacet
facet normal 0.965987 -0.258591 5.73695e-16
  outer loop
    vertex 0.02804516515410143 0.0171147989639179 0.02
    vertex 0.02880876052334359 0.01996726545790422 0.015
    vertex 0.02957235589258574 0.02281973195189053 0.02
  endloop
endfacet
facet normal 0.965987 -0.258591 -5.73695e-16
  outer loop
    vertex 0.02957235589258574 0.02281973195189053 0
    vertex 0.02880876052334359 0.01996726545790422 0.005
    vertex 0.02804516515410143 0.0171147989639179 0
  endloop
endfacet
facet normal 0.965987 -0.258591 -5.73695e-16
  outer loop
    vertex 0.02957235589258574 0.02281973195189053 0.009999999999999972
    vertex 0.02880876052334359 0.01996726545790422 0.015
    vertex 0.02804516515410143 0.0171147989639179 0.01000000000000003
  endloop
endfacet
facet normal 0.965987 -0.258591 0
  outer loop
    vertex 0.02957235589258574 0.02281973195189053 0.009999999999999972
    vertex 0.02880876052334359 0.01996726545790422 0.005
    vertex 0.02957235589258574 0.02281973195189053 0
  endloop
endfacet
facet normal 0.965987 -0.258591 0
  outer loop
    vertex 0.02957235589258574 0.02281973195189053 0.02
    vertex 0.02880876052334359 0.01996726545790422 0.015
    vertex 0.02957235589258574 0.02281973195189053 0.009999999999999972
  endloop
endfacet
facet normal 0.965987 -0.258591 0
  outer loop
    vertex 0.02804516515410143 0.0171147989639179 0
    vertex 0.02880876052334359 0.01996726545790422 0.005
    vertex 0.02804516515410143 0.0171147989639179 0.01000000000000003
  endloop
endfacet
facet normal 0.965987 -0.258591 0
  outer loop
    vertex 0.02804516515410143 0.0171147989639179 0.01000000000000003
    vertex 0.02880876052334359 0.01996726545790422 0.015
    vertex 0.02804516515410143 0.0171147989639179 0.02
  endloop
endfacet
facet normal 0.731647 0.681684 0
  outer loop
    vertex 0.02804516515410143 0.0171147989639179 0.02
    vertex 0.03070284240597571 0.01426233246993158 0.015
    vertex 0.02804516515410143 0.0171147989639179 0.009999999999999972
  endloop
endfacet
facet normal 0.731647 0.681684 -0
  outer loop
    vertex 0.03336051965784999 0.01140986597594527 0
    vertex 0.03070284240597571 0.01426233246993158 0.004999999999999999
    vertex 0.03336051965784999 0.01140986597594527 0.01000000000000003
  endloop
endfacet
facet normal 0.731647 0.681684 0
  outer loop
    vertex 0.02804516515410143 0.0171147989639179 0.009999999999999972
    vertex 0.03070284240597571 0.01426233246993158 0.004999999999999999
    vertex 0.02804516515410143 0.0171147989639179 0
  endloop
endfacet
facet normal 0.731647 0.681684 -0
  outer loop
    vertex 0.03336051965784999 0.01140986597594527 0.01000000000000003
    vertex 0.03070284240597571 0.01426233246993158 0.015
    vertex 0.03336051965784999 0.01140986597594527 0.02
  endloop
endfacet
facet normal 0.731647 0.681684 -7.38686e-16
  outer loop
    vertex 0.03336051965784999 0.01140986597594527 0.01000000000000003
    vertex 0.03070284240597571 0.01426233246993158 0.004999999999999999
    vertex 0.02804516515410143 0.0171147989639179 0.009999999999999972
  endloop
endfacet
facet normal 0.731647 0.681684 9.99399e-16
  outer loop
    vertex 0.02804516515410143 0.0171147989639179 0.009999999999999972
    vertex 0.03070284240597571 0.01426233246993158 0.015
    vertex 0.03336051965784999 0.01140986597594527 0.01000000000000003
  endloop
endfacet
facet normal 0.731647 0.681684 7.38686e-16
  outer loop
    vertex 0.02804516515410143 0.0171147989639179 0
    vertex 0.03070284240597571 0.01426233246993158 0.004999999999999999
    vertex 0.03336051965784999 0.01140986597594527 0
  endloop
endfacet
facet normal 0.731647 0.681684 -9.55947e-16
  outer loop
    vertex 0.03336051965784999 0.01140986597594527 0.02
    vertex 0.03070284240597571 0.01426233246993158 0.015
    vertex 0.02804516515410143 0.0171147989639179 0.02
  endloop
endfacet
facet normal 0.760321 -0.649547 0
  outer loop
    vertex 0.03336051965784999 0.01140986597594527 0.02
    vertex 0.03092363849423559 0.008557399481958949 0.015
    vertex 0.03336051965784999 0.01140986597594527 0.009999999999999972
  endloop
endfacet
facet normal 0.760321 -0.649547 0
  outer loop
    vertex 0.02848675733062119 0.00570493298797263 0
    vertex 0.03092363849423559 0.008557399481958947 0.005
    vertex 0.02848675733062119 0.00570493298797263 0.01000000000000003
  endloop
endfacet
facet normal 0.760321 -0.649547 0
  outer loop
    vertex 0.03336051965784999 0.01140986597594527 0.009999999999999972
    vertex 0.03092363849423559 0.008557399481958947 0.005
    vertex 0.03336051965784999 0.01140986597594527 0
  endloop
endfacet
facet normal 0.760321 -0.649547 0
  outer loop
    vertex 0.02848675733062119 0.00570493298797263 0.01000000000000003
    vertex 0.03092363849423559 0.008557399481958949 0.015
    vertex 0.02848675733062119 0.00570493298797263 0.02
  endloop
endfacet
facet normal 0.760321 -0.649547 2.25775e-16
  outer loop
    vertex 0.02848675733062119 0.00570493298797263 0.01000000000000003
    vertex 0.03092363849423559 0.008557399481958947 0.005
    vertex 0.03336051965784999 0.01140986597594527 0.009999999999999972
  endloop
endfacet
facet normal 0.760321 -0.649547 0
  outer loop
    vertex 0.03336051965784999 0.01140986597594527 0.009999999999999972
    vertex 0.03092363849423559 0.008557399481958949 0.015
    vertex 0.02848675733062119 0.00570493298797263 0.01000000000000003
  endloop
endfacet
facet normal 0.760321 -0.649547 -2.25775e-16
  outer loop
    vertex 0.03336051965784999 0.01140986597594527 0
    vertex 0.03092363849423559 0.008557399481958947 0.005
    vertex 0.02848675733062119 0.00570493298797263 0
  endloop
endfacet
facet normal 0.760321 -0.649547 0
  outer loop
    vertex 0.02848675733062119 0.00570493298797263 0.02
    vertex 0.03092363849423559 0.008557399481958949 0.015
    vertex 0.03336051965784999 0.01140986597594527 0.02
  endloop
endfacet
endsolid Created by Gmsh
