solid Created by Gmsh
facet normal -0.61261 0.790385 -1.41582e-15
  outer loop
    vertex 0.03254172832608646 0.05844155947154372 0
    vertex 0.02311661342386154 0.05113636453760076 0
    vertex 0.02782917087497399 0.05478896200457224 0.006020408163265311
  endloop
endfacet
facet normal -0.61261 0.790385 1.53679e-15
  outer loop
    vertex 0.02311661342386154 0.05113636453760076 0.02
    vertex 0.03254172832608646 0.05844155947154372 0.02
    vertex 0.02782917087497401 0.05478896200457226 0.01408371511870054
  endloop
endfacet
facet normal -0.61261 0.790385 0
  outer loop
    vertex 0.03254172832608646 0.05844155947154372 0.02
    vertex 0.03254172832608646 0.05844155947154372 0.009999999999999972
    vertex 0.02782917087497401 0.05478896200457226 0.01408371511870054
  endloop
endfacet
facet normal -0.61261 0.790385 0
  outer loop
    vertex 0.02311661342386154 0.05113636453760076 0
    vertex 0.02311661342386154 0.05113636453760076 0.01000000000000003
    vertex 0.02782917087497399 0.05478896200457224 0.006020408163265311
  endloop
endfacet
facet normal -0.61261 0.790385 0
  outer loop
    vertex 0.03254172832608646 0.05844155947154372 0.009999999999999972
    vertex 0.03254172832608646 0.05844155947154372 0
    vertex 0.02782917087497399 0.05478896200457224 0.006020408163265311
  endloop
endfacet
facet normal -0.61261 0.790385 0
  outer loop
    vertex 0.02311661342386154 0.05113636453760076 0.01000000000000003
    vertex 0.02311661342386154 0.05113636453760076 0.02
    vertex 0.02782917087497401 0.05478896200457226 0.01408371511870054
  endloop
endfacet
facet normal -0.61261 0.790385 -7.04741e-17
  outer loop
    vertex 0.03254172832608646 0.05844155947154372 0.009999999999999972
    vertex 0.02782917087497399 0.05478896200457224 0.006020408163265311
    vertex 0.02782917087497401 0.05478896200457226 0.01408371511870054
  endloop
endfacet
facet normal -0.61261 0.790385 -4.23786e-17
  outer loop
    vertex 0.02782917087497399 0.05478896200457224 0.006020408163265311
    vertex 0.02311661342386154 0.05113636453760076 0.01000000000000003
    vertex 0.02782917087497401 0.05478896200457226 0.01408371511870054
  endloop
endfacet
facet normal -0.50076 -0.865586 -1.23818e-16
  outer loop
    vertex 0.03574395984872612 0.04383116960365779 0.02
    vertex 0.02943028663629384 0.04748376707062928 0.02
    vertex 0.02930143616257073 0.04755830987607768 0.01249702918163777
  endloop
endfacet
facet normal -0.50076 -0.865586 -1.20916e-16
  outer loop
    vertex 0.02943028663629384 0.04748376707062928 0.02
    vertex 0.02311661342386154 0.05113636453760076 0.02
    vertex 0.02930143616257073 0.04755830987607768 0.01249702918163777
  endloop
endfacet
facet normal -0.50076 -0.865586 -0
  outer loop
    vertex 0.02311661342386154 0.05113636453760076 0.02
    vertex 0.02311661342386154 0.05113636453760076 0.009999999999999972
    vertex 0.02930143616257073 0.04755830987607768 0.01249702918163777
  endloop
endfacet
facet normal -0.50076 -0.865586 0
  outer loop
    vertex 0.03574395984872612 0.04383116960365779 0.01000000000000003
    vertex 0.03574395984872612 0.04383116960365779 0.02
    vertex 0.02930143616257073 0.04755830987607768 0.01249702918163777
  endloop
endfacet
facet normal -0.50076 -0.865586 0
  outer loop
    vertex 0.03574395984872612 0.04383116960365779 0
    vertex 0.03574395984872612 0.04383116960365779 0.01000000000000003
    vertex 0.03132438860002352 0.04638798783053784 0.005298059065336679
  endloop
endfacet
facet normal -0.50076 -0.865586 -0
  outer loop
    vertex 0.02311661342386154 0.05113636453760076 0.009999999999999972
    vertex 0.02311661342386154 0.05113636453760076 0
    vertex 0.02697660547239522 0.04890327506581091 0.005399298320996342
  endloop
endfacet
facet normal -0.50076 -0.865586 1.20552e-15
  outer loop
    vertex 0.02943028663629383 0.04748376707062928 0
    vertex 0.03574395984872612 0.04383116960365779 0
    vertex 0.03132438860002352 0.04638798783053784 0.005298059065336679
  endloop
endfacet
facet normal -0.50076 -0.865586 7.31257e-16
  outer loop
    vertex 0.02311661342386154 0.05113636453760076 0
    vertex 0.02943028663629383 0.04748376707062928 0
    vertex 0.02697660547239522 0.04890327506581091 0.005399298320996342
  endloop
endfacet
facet normal -0.50076 -0.865586 -1.88631e-16
  outer loop
    vertex 0.03132438860002352 0.04638798783053784 0.005298059065336679
    vertex 0.02930143616257073 0.04755830987607768 0.01249702918163777
    vertex 0.02697660547239522 0.04890327506581091 0.005399298320996342
  endloop
endfacet
facet normal -0.50076 -0.865586 1.08904e-15
  outer loop
    vertex 0.02943028663629383 0.04748376707062928 0
    vertex 0.03132438860002352 0.04638798783053784 0.005298059065336679
    vertex 0.02697660547239522 0.04890327506581091 0.005399298320996342
  endloop
endfacet
facet normal -0.50076 -0.865586 -1.92471e-16
  outer loop
    vertex 0.02930143616257073 0.04755830987607768 0.01249702918163777
    vertex 0.02311661342386154 0.05113636453760076 0.009999999999999972
    vertex 0.02697660547239522 0.04890327506581091 0.005399298320996342
  endloop
endfacet
facet normal -0.50076 -0.865586 -5.32213e-16
  outer loop
    vertex 0.03132438860002352 0.04638798783053784 0.005298059065336679
    vertex 0.03574395984872612 0.04383116960365779 0.01000000000000003
    vertex 0.02930143616257073 0.04755830987607768 0.01249702918163777
  endloop
endfacet
facet normal -0.611306 0.791394 -1.22443e-15
  outer loop
    vertex 0.02628668902386296 0.03652597466971483 0.02
    vertex 0.03574395984872612 0.04383116960365779 0.02
    vertex 0.03101532443629455 0.0401785721366863 0.0139795918367347
  endloop
endfacet
facet normal -0.611306 0.791394 1.15014e-15
  outer loop
    vertex 0.03574395984872612 0.04383116960365779 0
    vertex 0.02628668902386296 0.03652597466971483 0
    vertex 0.03101532443629454 0.0401785721366863 0.005916284881299466
  endloop
endfacet
facet normal -0.611306 0.791394 0
  outer loop
    vertex 0.03574395984872612 0.04383116960365779 0.02
    vertex 0.03574395984872612 0.04383116960365779 0.009999999999999972
    vertex 0.03101532443629455 0.0401785721366863 0.0139795918367347
  endloop
endfacet
facet normal -0.611306 0.791394 0
  outer loop
    vertex 0.02628668902386296 0.03652597466971483 0
    vertex 0.02628668902386296 0.03652597466971483 0.01000000000000003
    vertex 0.03101532443629454 0.0401785721366863 0.005916284881299466
  endloop
endfacet
facet normal -0.611306 0.791394 1.08055e-16
  outer loop
    vertex 0.03101532443629455 0.0401785721366863 0.0139795918367347
    vertex 0.03574395984872612 0.04383116960365779 0.009999999999999972
    vertex 0.03101532443629454 0.0401785721366863 0.005916284881299466
  endloop
endfacet
facet normal -0.611306 0.791394 1.40648e-16
  outer loop
    vertex 0.02628668902386296 0.03652597466971483 0.01000000000000003
    vertex 0.03101532443629455 0.0401785721366863 0.0139795918367347
    vertex 0.03101532443629454 0.0401785721366863 0.005916284881299466
  endloop
endfacet
facet normal -0.611306 0.791394 0
  outer loop
    vertex 0.03574395984872612 0.04383116960365779 0.009999999999999972
    vertex 0.03574395984872612 0.04383116960365779 0
    vertex 0.03101532443629454 0.0401785721366863 0.005916284881299466
  endloop
endfacet
facet normal -0.611306 0.791394 0
  outer loop
    vertex 0.02628668902386296 0.03652597466971483 0.01000000000000003
    vertex 0.02628668902386296 0.03652597466971483 0.02
    vertex 0.03101532443629455 0.0401785721366863 0.0139795918367347
  endloop
endfacet
facet normal -0.555859 -0.831277 0
  outer loop
    vertex 0.03174908200121628 0.03287337720274335 0
    vertex 0.0372114749785696 0.02922077973577186 0.01000000000000003
    vertex 0.02628668902386296 0.03652597466971483 0.009999999999999972
  endloop
endfacet
facet normal -0.555859 -0.831277 0
  outer loop
    vertex 0.0372114749785696 0.02922077973577186 0.01000000000000003
    vertex 0.03174908200121628 0.03287337720274335 0.02
    vertex 0.02628668902386296 0.03652597466971483 0.009999999999999972
  endloop
endfacet
facet normal -0.555859 -0.831277 0
  outer loop
    vertex 0.03174908200121628 0.03287337720274335 0
    vertex 0.02628668902386296 0.03652597466971483 0.009999999999999972
    vertex 0.02628668902386296 0.03652597466971483 0
  endloop
endfacet
facet normal -0.555859 -0.831277 0
  outer loop
    vertex 0.02628668902386296 0.03652597466971483 0.009999999999999972
    vertex 0.03174908200121628 0.03287337720274335 0.02
    vertex 0.02628668902386296 0.03652597466971483 0.02
  endloop
endfacet
facet normal -0.555859 -0.831277 -0
  outer loop
    vertex 0.0372114749785696 0.02922077973577186 0.01000000000000003
    vertex 0.03174908200121628 0.03287337720274335 0
    vertex 0.0372114749785696 0.02922077973577186 0
  endloop
endfacet
facet normal -0.555859 -0.831277 0
  outer loop
    vertex 0.03174908200121628 0.03287337720274335 0.02
    vertex 0.0372114749785696 0.02922077973577186 0.01000000000000003
    vertex 0.0372114749785696 0.02922077973577186 0.02
  endloop
endfacet
facet normal -0.67927 0.733889 8.56001e-16
  outer loop
    vertex 0.02931887633235238 0.0219155848018289 0.02
    vertex 0.0372114749785696 0.02922077973577186 0.02
    vertex 0.03326517565546099 0.02556818226880038 0.01447938359017077
  endloop
endfacet
facet normal -0.67927 0.733889 -7.45528e-16
  outer loop
    vertex 0.0372114749785696 0.02922077973577186 0
    vertex 0.02931887633235238 0.0219155848018289 0
    vertex 0.03326517565546097 0.02556818226880037 0.0054935122652109
  endloop
endfacet
facet normal -0.67927 0.733889 0
  outer loop
    vertex 0.0372114749785696 0.02922077973577186 0.02
    vertex 0.0372114749785696 0.02922077973577186 0.009999999999999972
    vertex 0.03326517565546099 0.02556818226880038 0.01447938359017077
  endloop
endfacet
facet normal -0.67927 0.733889 0
  outer loop
    vertex 0.02931887633235238 0.0219155848018289 0
    vertex 0.02931887633235238 0.0219155848018289 0.01000000000000003
    vertex 0.03326517565546097 0.02556818226880037 0.0054935122652109
  endloop
endfacet
facet normal -0.67927 0.733889 -1.0518e-16
  outer loop
    vertex 0.02931887633235238 0.0219155848018289 0.01000000000000003
    vertex 0.03326517565546099 0.02556818226880038 0.01447938359017077
    vertex 0.03326517565546097 0.02556818226880037 0.0054935122652109
  endloop
endfacet
facet normal -0.67927 0.733889 -8.43543e-17
  outer loop
    vertex 0.03326517565546099 0.02556818226880038 0.01447938359017077
    vertex 0.0372114749785696 0.02922077973577186 0.009999999999999972
    vertex 0.03326517565546097 0.02556818226880037 0.0054935122652109
  endloop
endfacet
facet normal -0.67927 0.733889 0
  outer loop
    vertex 0.0372114749785696 0.02922077973577186 0.009999999999999972
    vertex 0.0372114749785696 0.02922077973577186 0
    vertex 0.03326517565546097 0.02556818226880037 0.0054935122652109
  endloop
endfacet
facet normal -0.67927 0.733889 0
  outer loop
    vertex 0.02931887633235238 0.0219155848018289 0.01000000000000003
    vertex 0.02931887633235238 0.0219155848018289 0.02
    vertex 0.03326517565546099 0.02556818226880038 0.01447938359017077
  endloop
endfacet
facet normal -0.397944 -0.91741 3.35709e-16
  outer loop
    vertex 0.04616007929320957 0.01461038986788593 0.02
    vertex 0.03773947781278099 0.01826298733485741 0.02
    vertex 0.03925422245057877 0.01760593778323236 0.01230309996934904
  endloop
endfacet
facet normal -0.397944 -0.91741 0
  outer loop
    vertex 0.04616007929320957 0.01461038986788593 0.01000000000000003
    vertex 0.04616007929320957 0.01461038986788593 0.02
    vertex 0.03925422245057877 0.01760593778323236 0.01230309996934904
  endloop
endfacet
facet normal -0.397944 -0.91741 -0
  outer loop
    vertex 0.02931887633235238 0.0219155848018289 0.009999999999999972
    vertex 0.02931887633235238 0.0219155848018289 0
    vertex 0.0355200398036856 0.01922571115796718 0.006776591475220715
  endloop
endfacet
facet normal -0.397944 -0.91741 -7.62601e-16
  outer loop
    vertex 0.02931887633235238 0.0219155848018289 0
    vertex 0.03773947781278096 0.01826298733485742 0
    vertex 0.0355200398036856 0.01922571115796718 0.006776591475220715
  endloop
endfacet
facet normal -0.397944 -0.91741 -0
  outer loop
    vertex 0.02931887633235238 0.0219155848018289 0.02
    vertex 0.02931887633235238 0.0219155848018289 0.009999999999999972
    vertex 0.03352917707256668 0.02008928606834315 0.01499999999999999
  endloop
endfacet
facet normal -0.397944 -0.91741 0
  outer loop
    vertex 0.04616007929320957 0.01461038986788593 0
    vertex 0.04616007929320957 0.01461038986788593 0.01000000000000003
    vertex 0.04102290930853966 0.01683873592095816 0.005769811330794327
  endloop
endfacet
facet normal -0.397944 -0.91741 6.64436e-16
  outer loop
    vertex 0.03773947781278099 0.01826298733485741 0.02
    vertex 0.02931887633235238 0.0219155848018289 0.02
    vertex 0.03352917707256668 0.02008928606834315 0.01499999999999999
  endloop
endfacet
facet normal -0.397944 -0.91741 -7.67715e-16
  outer loop
    vertex 0.03773947781278096 0.01826298733485742 0
    vertex 0.04616007929320957 0.01461038986788593 0
    vertex 0.04102290930853966 0.01683873592095816 0.005769811330794327
  endloop
endfacet
facet normal -0.397944 -0.91741 -6.97284e-17
  outer loop
    vertex 0.02931887633235238 0.0219155848018289 0.009999999999999972
    vertex 0.0355200398036856 0.01922571115796718 0.006776591475220715
    vertex 0.03352917707256668 0.02008928606834315 0.01499999999999999
  endloop
endfacet
facet normal -0.397944 -0.91741 1.76988e-16
  outer loop
    vertex 0.0355200398036856 0.01922571115796718 0.006776591475220715
    vertex 0.03925422245057877 0.01760593778323236 0.01230309996934904
    vertex 0.03352917707256668 0.02008928606834315 0.01499999999999999
  endloop
endfacet
facet normal -0.397944 -0.91741 2.83988e-16
  outer loop
    vertex 0.04102290930853966 0.01683873592095816 0.005769811330794327
    vertex 0.04616007929320957 0.01461038986788593 0.01000000000000003
    vertex 0.03925422245057877 0.01760593778323236 0.01230309996934904
  endloop
endfacet
facet normal -0.397944 -0.91741 3.49859e-16
  outer loop
    vertex 0.03925422245057877 0.01760593778323236 0.01230309996934904
    vertex 0.03773947781278099 0.01826298733485741 0.02
    vertex 0.03352917707256668 0.02008928606834315 0.01499999999999999
  endloop
endfacet
facet normal -0.397944 -0.91741 1.81926e-16
  outer loop
    vertex 0.04102290930853966 0.01683873592095816 0.005769811330794327
    vertex 0.03925422245057877 0.01760593778323236 0.01230309996934904
    vertex 0.0355200398036856 0.01922571115796718 0.006776591475220715
  endloop
endfacet
facet normal -0.397944 -0.91741 -8.31247e-16
  outer loop
    vertex 0.03773947781278096 0.01826298733485742 0
    vertex 0.04102290930853966 0.01683873592095816 0.005769811330794327
    vertex 0.0355200398036856 0.01922571115796718 0.006776591475220715
  endloop
endfacet
facet normal -0.511331 0.859384 -4.39584e-16
  outer loop
    vertex 0.04616007929320957 0.01461038986788593 0
    vertex 0.04002122886798792 0.01095779240091444 0
    vertex 0.03989594620624871 0.01088324959546605 0.007552952614309352
  endloop
endfacet
facet normal -0.511331 0.859384 -4.67058e-16
  outer loop
    vertex 0.04002122886798792 0.01095779240091444 0
    vertex 0.03388237844276629 0.007305194933942966 0
    vertex 0.03989594620624871 0.01088324959546605 0.007552952614309352
  endloop
endfacet
facet normal -0.511331 0.859384 0
  outer loop
    vertex 0.03388237844276629 0.007305194933942966 0
    vertex 0.03388237844276629 0.007305194933942966 0.01000000000000003
    vertex 0.03989594620624871 0.01088324959546605 0.007552952614309352
  endloop
endfacet
facet normal -0.511331 0.859384 0
  outer loop
    vertex 0.04616007929320957 0.01461038986788593 0.009999999999999972
    vertex 0.04616007929320957 0.01461038986788593 0
    vertex 0.03989594620624871 0.01088324959546605 0.007552952614309352
  endloop
endfacet
facet normal -0.511331 0.859384 0
  outer loop
    vertex 0.04616007929320957 0.01461038986788593 0.02
    vertex 0.04616007929320957 0.01461038986788593 0.009999999999999972
    vertex 0.04186288399555443 0.0120535716410059 0.01473459570801544
  endloop
endfacet
facet normal -0.511331 0.859384 0
  outer loop
    vertex 0.03388237844276629 0.007305194933942966 0.01000000000000003
    vertex 0.03388237844276629 0.007305194933942966 0.02
    vertex 0.03744015035725855 0.009422058480503077 0.01472321921656376
  endloop
endfacet
facet normal -0.511331 0.859384 3.14601e-16
  outer loop
    vertex 0.03388237844276629 0.007305194933942966 0.02
    vertex 0.04002122886798794 0.01095779240091446 0.02
    vertex 0.03744015035725855 0.009422058480503077 0.01472321921656376
  endloop
endfacet
facet normal -0.511331 0.859384 3.8284e-16
  outer loop
    vertex 0.04002122886798794 0.01095779240091446 0.02
    vertex 0.04616007929320957 0.01461038986788593 0.02
    vertex 0.04186288399555443 0.0120535716410059 0.01473459570801544
  endloop
endfacet
facet normal -0.511331 0.859384 9.17358e-17
  outer loop
    vertex 0.04186288399555443 0.0120535716410059 0.01473459570801544
    vertex 0.03989594620624871 0.01088324959546605 0.007552952614309352
    vertex 0.03744015035725855 0.009422058480503077 0.01472321921656376
  endloop
endfacet
facet normal -0.511331 0.859384 3.12302e-16
  outer loop
    vertex 0.04002122886798794 0.01095779240091446 0.02
    vertex 0.04186288399555443 0.0120535716410059 0.01473459570801544
    vertex 0.03744015035725855 0.009422058480503077 0.01472321921656376
  endloop
endfacet
facet normal -0.511331 0.859384 -3.92313e-17
  outer loop
    vertex 0.03989594620624871 0.01088324959546605 0.007552952614309352
    vertex 0.03388237844276629 0.007305194933942966 0.01000000000000003
    vertex 0.03744015035725855 0.009422058480503077 0.01472321921656376
  endloop
endfacet
facet normal -0.511331 0.859384 -7.24781e-17
  outer loop
    vertex 0.04186288399555443 0.0120535716410059 0.01473459570801544
    vertex 0.04616007929320957 0.01461038986788593 0.009999999999999972
    vertex 0.03989594620624871 0.01088324959546605 0.007552952614309352
  endloop
endfacet
endsolid Created by Gmsh
