solid Created by Gmsh
facet normal -0.876274 0.481813 -3.3152e-16
  outer loop
    vertex 0.02722171464702315 0.04388199896215046 0.01000000000000003
    vertex 0.03066860030491321 0.05015085595674339 0.009999999999999972
    vertex 0.02894515747596818 0.04701642745944692 0.005000000000000001
  endloop
endfacet
facet normal -0.876274 0.481813 2.8416e-16
  outer loop
    vertex 0.03066860030491321 0.05015085595674339 0.009999999999999972
    vertex 0.02722171464702315 0.04388199896215046 0.01000000000000003
    vertex 0.02894515747596818 0.04701642745944692 0.015
  endloop
endfacet
facet normal -0.876274 0.481813 2.8416e-16
  outer loop
    vertex 0.03066860030491321 0.05015085595674339 0
    vertex 0.02722171464702315 0.04388199896215046 0
    vertex 0.02894515747596818 0.04701642745944692 0.005000000000000001
  endloop
endfacet
facet normal -0.876274 0.481813 -3.3152e-16
  outer loop
    vertex 0.02722171464702315 0.04388199896215046 0.02
    vertex 0.03066860030491321 0.05015085595674339 0.02
    vertex 0.02894515747596818 0.04701642745944692 0.015
  endloop
endfacet
facet normal -0.876274 0.481813 0
  outer loop
    vertex 0.03066860030491321 0.05015085595674339 0.009999999999999972
    vertex 0.03066860030491321 0.05015085595674339 0
    vertex 0.02894515747596818 0.04701642745944692 0.005000000000000001
  endloop
endfacet
facet normal -0.876274 0.481813 0
  outer loop
    vertex 0.03066860030491321 0.05015085595674339 0.02
    vertex 0.03066860030491321 0.05015085595674339 0.009999999999999972
    vertex 0.02894515747596818 0.04701642745944692 0.015
  endloop
endfacet
facet normal -0.876274 0.481813 0
  outer loop
    vertex 0.02722171464702315 0.04388199896215046 0
    vertex 0.02722171464702315 0.04388199896215046 0.01000000000000003
    vertex 0.02894515747596818 0.04701642745944692 0.005000000000000001
  endloop
endfacet
facet normal -0.876274 0.481813 0
  outer loop
    vertex 0.02722171464702315 0.04388199896215046 0.01000000000000003
    vertex 0.02722171464702315 0.04388199896215046 0.02
    vertex 0.02894515747596818 0.04701642745944692 0.015
  endloop
endfacet
facet normal -0.887602 -0.460611 -1.24728e-15
  outer loop
    vertex 0.0304748627787369 0.03761314196755754 0.02
    vertex 0.02722171464702315 0.04388199896215046 0.02
    vertex 0.02884828871288003 0.040747570464854 0.015
  endloop
endfacet
facet normal -0.887602 -0.460611 1.24728e-15
  outer loop
    vertex 0.02722171464702315 0.04388199896215046 0
    vertex 0.0304748627787369 0.03761314196755754 0
    vertex 0.02884828871288003 0.040747570464854 0.005000000000000001
  endloop
endfacet
facet normal -0.887602 -0.460611 1.24728e-15
  outer loop
    vertex 0.02722171464702315 0.04388199896215046 0.009999999999999972
    vertex 0.0304748627787369 0.03761314196755754 0.01000000000000003
    vertex 0.02884828871288003 0.040747570464854 0.015
  endloop
endfacet
facet normal -0.887602 -0.460611 -1.24728e-15
  outer loop
    vertex 0.0304748627787369 0.03761314196755754 0.01000000000000003
    vertex 0.02722171464702315 0.04388199896215046 0.009999999999999972
    vertex 0.02884828871288003 0.040747570464854 0.005000000000000001
  endloop
endfacet
facet normal -0.887602 -0.460611 -0
  outer loop
    vertex 0.02722171464702315 0.04388199896215046 0.009999999999999972
    vertex 0.02722171464702315 0.04388199896215046 0
    vertex 0.02884828871288003 0.040747570464854 0.005000000000000001
  endloop
endfacet
facet normal -0.887602 -0.460611 -0
  outer loop
    vertex 0.02722171464702315 0.04388199896215046 0.02
    vertex 0.02722171464702315 0.04388199896215046 0.009999999999999972
    vertex 0.02884828871288003 0.040747570464854 0.015
  endloop
endfacet
facet normal -0.887602 -0.460611 0
  outer loop
    vertex 0.0304748627787369 0.03761314196755754 0
    vertex 0.0304748627787369 0.03761314196755754 0.01000000000000003
    vertex 0.02884828871288003 0.040747570464854 0.005000000000000001
  endloop
endfacet
facet normal -0.887602 -0.460611 0
  outer loop
    vertex 0.0304748627787369 0.03761314196755754 0.01000000000000003
    vertex 0.0304748627787369 0.03761314196755754 0.02
    vertex 0.02884828871288003 0.040747570464854 0.015
  endloop
endfacet
facet normal -0.56966 -0.82188 8.3655e-16
  outer loop
    vertex 0.03951928373913178 0.03134428497296462 0.02
    vertex 0.0304748627787369 0.03761314196755754 0.02
    vertex 0.03499707325893434 0.03447871347026107 0.01447938359017077
  endloop
endfacet
facet normal -0.56966 -0.82188 -8.40677e-16
  outer loop
    vertex 0.0304748627787369 0.03761314196755754 0
    vertex 0.03951928373913178 0.03134428497296462 0
    vertex 0.03499707325893434 0.03447871347026107 0.005493512265210879
  endloop
endfacet
facet normal -0.56966 -0.82188 0
  outer loop
    vertex 0.03951928373913178 0.03134428497296462 0.01000000000000003
    vertex 0.03499707325893434 0.03447871347026107 0.01447938359017077
    vertex 0.03499707325893434 0.03447871347026107 0.005493512265210879
  endloop
endfacet
facet normal -0.56966 -0.82188 -0
  outer loop
    vertex 0.03499707325893434 0.03447871347026107 0.01447938359017077
    vertex 0.0304748627787369 0.03761314196755754 0.009999999999999972
    vertex 0.03499707325893434 0.03447871347026107 0.005493512265210879
  endloop
endfacet
facet normal -0.56966 -0.82188 -0
  outer loop
    vertex 0.0304748627787369 0.03761314196755754 0.02
    vertex 0.0304748627787369 0.03761314196755754 0.009999999999999972
    vertex 0.03499707325893434 0.03447871347026107 0.01447938359017077
  endloop
endfacet
facet normal -0.56966 -0.82188 0
  outer loop
    vertex 0.03951928373913178 0.03134428497296462 0
    vertex 0.03951928373913178 0.03134428497296462 0.01000000000000003
    vertex 0.03499707325893434 0.03447871347026107 0.005493512265210879
  endloop
endfacet
facet normal -0.56966 -0.82188 -0
  outer loop
    vertex 0.0304748627787369 0.03761314196755754 0.009999999999999972
    vertex 0.0304748627787369 0.03761314196755754 0
    vertex 0.03499707325893434 0.03447871347026107 0.005493512265210879
  endloop
endfacet
facet normal -0.56966 -0.82188 0
  outer loop
    vertex 0.03951928373913178 0.03134428497296462 0.01000000000000003
    vertex 0.03951928373913178 0.03134428497296462 0.02
    vertex 0.03499707325893434 0.03447871347026107 0.01447938359017077
  endloop
endfacet
facet normal -0.483883 0.875132 -1.0461e-16
  outer loop
    vertex 0.03385048014843874 0.02820985647566815 0
    vertex 0.02818167655774573 0.02507542797837169 0.01000000000000003
    vertex 0.03951928373913178 0.03134428497296462 0.009999999999999972
  endloop
endfacet
facet normal -0.483883 0.875132 -1.0461e-16
  outer loop
    vertex 0.02818167655774573 0.02507542797837169 0.01000000000000003
    vertex 0.03385048014843876 0.02820985647566816 0.02
    vertex 0.03951928373913178 0.03134428497296462 0.009999999999999972
  endloop
endfacet
facet normal -0.483883 0.875132 0
  outer loop
    vertex 0.03385048014843874 0.02820985647566815 0
    vertex 0.03951928373913178 0.03134428497296462 0.009999999999999972
    vertex 0.03951928373913178 0.03134428497296462 0
  endloop
endfacet
facet normal -0.483883 0.875132 0
  outer loop
    vertex 0.03951928373913178 0.03134428497296462 0.009999999999999972
    vertex 0.03385048014843876 0.02820985647566816 0.02
    vertex 0.03951928373913178 0.03134428497296462 0.02
  endloop
endfacet
facet normal -0.483883 0.875132 0
  outer loop
    vertex 0.02818167655774573 0.02507542797837169 0.01000000000000003
    vertex 0.03385048014843874 0.02820985647566815 0
    vertex 0.02818167655774573 0.02507542797837169 0
  endloop
endfacet
facet normal -0.483883 0.875132 0
  outer loop
    vertex 0.03385048014843876 0.02820985647566816 0.02
    vertex 0.02818167655774573 0.02507542797837169 0.01000000000000003
    vertex 0.02818167655774573 0.02507542797837169 0.02
  endloop
endfacet
facet normal -0.621771 -0.783199 -1.00815e-15
  outer loop
    vertex 0.02818167655774573 0.02507542797837169 0
    vertex 0.03607808760915724 0.01880657098377877 0
    vertex 0.03212988208345148 0.02194099948107523 0.004999999999999986
  endloop
endfacet
facet normal -0.621771 -0.783199 1.00815e-15
  outer loop
    vertex 0.03607808760915724 0.01880657098377877 0.02
    vertex 0.02818167655774573 0.02507542797837169 0.02
    vertex 0.03212988208345148 0.02194099948107523 0.01500000000000001
  endloop
endfacet
facet normal -0.621771 -0.783199 0
  outer loop
    vertex 0.02818167655774573 0.02507542797837169 0.009999999999999972
    vertex 0.03212988208345148 0.02194099948107523 0.004999999999999986
    vertex 0.03212988208345148 0.02194099948107523 0.01500000000000001
  endloop
endfacet
facet normal -0.621771 -0.783199 0
  outer loop
    vertex 0.03212988208345148 0.02194099948107523 0.004999999999999986
    vertex 0.03607808760915724 0.01880657098377877 0.01000000000000003
    vertex 0.03212988208345148 0.02194099948107523 0.01500000000000001
  endloop
endfacet
facet normal -0.621771 -0.783199 -0
  outer loop
    vertex 0.02818167655774573 0.02507542797837169 0.02
    vertex 0.02818167655774573 0.02507542797837169 0.009999999999999972
    vertex 0.03212988208345148 0.02194099948107523 0.01500000000000001
  endloop
endfacet
facet normal -0.621771 -0.783199 0
  outer loop
    vertex 0.03607808760915724 0.01880657098377877 0
    vertex 0.03607808760915724 0.01880657098377877 0.01000000000000003
    vertex 0.03212988208345148 0.02194099948107523 0.004999999999999986
  endloop
endfacet
facet normal -0.621771 -0.783199 -0
  outer loop
    vertex 0.02818167655774573 0.02507542797837169 0.009999999999999972
    vertex 0.02818167655774573 0.02507542797837169 0
    vertex 0.03212988208345148 0.02194099948107523 0.004999999999999986
  endloop
endfacet
facet normal -0.621771 -0.783199 0
  outer loop
    vertex 0.03607808760915724 0.01880657098377877 0.01000000000000003
    vertex 0.03607808760915724 0.01880657098377877 0.02
    vertex 0.03212988208345148 0.02194099948107523 0.01500000000000001
  endloop
endfacet
facet normal -0.750979 0.660326 0
  outer loop
    vertex 0.03607808760915724 0.01880657098377877 0.02
    vertex 0.03607808760915724 0.01880657098377877 0.009999999999999972
    vertex 0.033322022663191 0.01567214248648231 0.015
  endloop
endfacet
facet normal -0.750979 0.660326 0
  outer loop
    vertex 0.03056595771722476 0.01253771398918585 0
    vertex 0.03056595771722476 0.01253771398918585 0.01000000000000003
    vertex 0.033322022663191 0.01567214248648231 0.005000000000000001
  endloop
endfacet
facet normal -0.750979 0.660326 0
  outer loop
    vertex 0.03607808760915724 0.01880657098377877 0.009999999999999972
    vertex 0.03607808760915724 0.01880657098377877 0
    vertex 0.033322022663191 0.01567214248648231 0.005000000000000001
  endloop
endfacet
facet normal -0.750979 0.660326 0
  outer loop
    vertex 0.03056595771722476 0.01253771398918585 0.01000000000000003
    vertex 0.03056595771722476 0.01253771398918585 0.02
    vertex 0.033322022663191 0.01567214248648231 0.015
  endloop
endfacet
facet normal -0.750979 0.660326 0
  outer loop
    vertex 0.03607808760915724 0.01880657098377877 0
    vertex 0.03056595771722476 0.01253771398918585 0
    vertex 0.033322022663191 0.01567214248648231 0.005000000000000001
  endloop
endfacet
facet normal -0.750979 0.660326 0
  outer loop
    vertex 0.03056595771722476 0.01253771398918585 0.02
    vertex 0.03607808760915724 0.01880657098377877 0.02
    vertex 0.033322022663191 0.01567214248648231 0.015
  endloop
endfacet
facet normal -0.750979 0.660326 0
  outer loop
    vertex 0.03056595771722476 0.01253771398918585 0.01000000000000003
    vertex 0.03607808760915724 0.01880657098377877 0.009999999999999972
    vertex 0.033322022663191 0.01567214248648231 0.005000000000000001
  endloop
endfacet
facet normal -0.750979 0.660326 0
  outer loop
    vertex 0.03607808760915724 0.01880657098377877 0.009999999999999972
    vertex 0.03056595771722476 0.01253771398918585 0.01000000000000003
    vertex 0.033322022663191 0.01567214248648231 0.015
  endloop
endfacet
facet normal -0.873956 0.486005 6.14051e-16
  outer loop
    vertex 0.02707985629255352 0.006268856994592925 0.02
    vertex 0.03056595771722476 0.01253771398918585 0.02
    vertex 0.02882290700488914 0.009403285491889388 0.015
  endloop
endfacet
facet normal -0.873956 0.486005 6.14051e-16
  outer loop
    vertex 0.02707985629255352 0.006268856994592925 0.01000000000000003
    vertex 0.03056595771722476 0.01253771398918585 0.009999999999999972
    vertex 0.02882290700488914 0.009403285491889388 0.005
  endloop
endfacet
facet normal -0.873956 0.486005 -5.66817e-16
  outer loop
    vertex 0.03056595771722476 0.01253771398918585 0.009999999999999972
    vertex 0.02707985629255352 0.006268856994592925 0.01000000000000003
    vertex 0.02882290700488914 0.009403285491889388 0.015
  endloop
endfacet
facet normal -0.873956 0.486005 -5.66817e-16
  outer loop
    vertex 0.03056595771722476 0.01253771398918585 0
    vertex 0.02707985629255352 0.006268856994592925 0
    vertex 0.02882290700488914 0.009403285491889388 0.005
  endloop
endfacet
facet normal -0.873956 0.486005 0
  outer loop
    vertex 0.03056595771722476 0.01253771398918585 0.009999999999999972
    vertex 0.03056595771722476 0.01253771398918585 0
    vertex 0.02882290700488914 0.009403285491889388 0.005
  endloop
endfacet
facet normal -0.873956 0.486005 0
  outer loop
    vertex 0.03056595771722476 0.01253771398918585 0.02
    vertex 0.03056595771722476 0.01253771398918585 0.009999999999999972
    vertex 0.02882290700488914 0.009403285491889388 0.015
  endloop
endfacet
facet normal -0.873956 0.486005 0
  outer loop
    vertex 0.02707985629255352 0.006268856994592925 0
    vertex 0.02707985629255352 0.006268856994592925 0.01000000000000003
    vertex 0.02882290700488914 0.009403285491889388 0.005
  endloop
endfacet
facet normal -0.873956 0.486005 0
  outer loop
    vertex 0.02707985629255352 0.006268856994592925 0.01000000000000003
    vertex 0.02707985629255352 0.006268856994592925 0.02
    vertex 0.02882290700488914 0.009403285491889388 0.015
  endloop
endfacet
endsolid Created by Gmsh
