solid Created by Gmsh
facet normal -0.680839 0.732433 0
  outer loop
    vertex 0.03679186647982167 0.05137056857312555 0.02
    vertex 0.03679186647982167 0.05137056857312555 0.009999999999999972
    vertex 0.03333789917386826 0.04815990803730521 0.015
  endloop
endfacet
facet normal -0.680839 0.732433 0
  outer loop
    vertex 0.02988393186791485 0.04494924750148486 0
    vertex 0.02988393186791485 0.04494924750148486 0.01000000000000003
    vertex 0.03333789917386826 0.04815990803730521 0.005000000000000001
  endloop
endfacet
facet normal -0.680839 0.732433 0
  outer loop
    vertex 0.03679186647982167 0.05137056857312555 0.009999999999999972
    vertex 0.03679186647982167 0.05137056857312555 0
    vertex 0.03333789917386826 0.04815990803730521 0.005000000000000001
  endloop
endfacet
facet normal -0.680839 0.732433 0
  outer loop
    vertex 0.02988393186791485 0.04494924750148486 0.01000000000000003
    vertex 0.02988393186791485 0.04494924750148486 0.02
    vertex 0.03333789917386826 0.04815990803730521 0.015
  endloop
endfacet
facet normal -0.680839 0.732433 1.43695e-15
  outer loop
    vertex 0.02988393186791485 0.04494924750148486 0.01000000000000003
    vertex 0.03679186647982167 0.05137056857312555 0.009999999999999972
    vertex 0.03333789917386826 0.04815990803730521 0.005000000000000001
  endloop
endfacet
facet normal -0.680839 0.732433 -1.43695e-15
  outer loop
    vertex 0.03679186647982167 0.05137056857312555 0.009999999999999972
    vertex 0.02988393186791485 0.04494924750148486 0.01000000000000003
    vertex 0.03333789917386826 0.04815990803730521 0.015
  endloop
endfacet
facet normal -0.680839 0.732433 -1.43695e-15
  outer loop
    vertex 0.03679186647982167 0.05137056857312555 0
    vertex 0.02988393186791485 0.04494924750148486 0
    vertex 0.03333789917386826 0.04815990803730521 0.005000000000000001
  endloop
endfacet
facet normal -0.680839 0.732433 1.43695e-15
  outer loop
    vertex 0.02988393186791485 0.04494924750148486 0.02
    vertex 0.03679186647982167 0.05137056857312555 0.02
    vertex 0.03333789917386826 0.04815990803730521 0.015
  endloop
endfacet
facet normal -0.957777 0.287511 -4.80091e-16
  outer loop
    vertex 0.02795634044308459 0.03852792642984416 0.02
    vertex 0.02988393186791485 0.04494924750148486 0.02
    vertex 0.02892013615549973 0.04173858696566451 0.015
  endloop
endfacet
facet normal -0.957777 0.287511 4.80091e-16
  outer loop
    vertex 0.02988393186791485 0.04494924750148486 0.009999999999999972
    vertex 0.02795634044308459 0.03852792642984416 0.01000000000000003
    vertex 0.02892013615549973 0.04173858696566451 0.015
  endloop
endfacet
facet normal -0.957777 0.287511 -4.80091e-16
  outer loop
    vertex 0.02795634044308459 0.03852792642984416 0.01000000000000003
    vertex 0.02988393186791485 0.04494924750148486 0.009999999999999972
    vertex 0.02892013615549973 0.04173858696566451 0.005
  endloop
endfacet
facet normal -0.957777 0.287511 4.80091e-16
  outer loop
    vertex 0.02988393186791485 0.04494924750148486 0
    vertex 0.02795634044308459 0.03852792642984416 0
    vertex 0.02892013615549973 0.04173858696566451 0.005
  endloop
endfacet
facet normal -0.957777 0.287511 0
  outer loop
    vertex 0.02988393186791485 0.04494924750148486 0.009999999999999972
    vertex 0.02988393186791485 0.04494924750148486 0
    vertex 0.02892013615549973 0.04173858696566451 0.005
  endloop
endfacet
facet normal -0.957777 0.287511 0
  outer loop
    vertex 0.02988393186791485 0.04494924750148486 0.02
    vertex 0.02988393186791485 0.04494924750148486 0.009999999999999972
    vertex 0.02892013615549973 0.04173858696566451 0.015
  endloop
endfacet
facet normal -0.957777 0.287511 0
  outer loop
    vertex 0.02795634044308459 0.03852792642984416 0
    vertex 0.02795634044308459 0.03852792642984416 0.01000000000000003
    vertex 0.02892013615549973 0.04173858696566451 0.005
  endloop
endfacet
facet normal -0.957777 0.287511 0
  outer loop
    vertex 0.02795634044308459 0.03852792642984416 0.01000000000000003
    vertex 0.02795634044308459 0.03852792642984416 0.02
    vertex 0.02892013615549973 0.04173858696566451 0.015
  endloop
endfacet
facet normal -0.60356 0.797318 -4.63763e-16
  outer loop
    vertex 0.02795634044308459 0.03852792642984416 0
    vertex 0.01947360788000954 0.03210660535820347 0
    vertex 0.02371497416154707 0.03531726589402382 0.005493512265210878
  endloop
endfacet
facet normal -0.60356 0.797318 0
  outer loop
    vertex 0.01947360788000954 0.03210660535820347 0.02
    vertex 0.02795634044308459 0.03852792642984416 0.02
    vertex 0.02371497416154708 0.03531726589402383 0.01447938359017075
  endloop
endfacet
facet normal -0.60356 0.797318 0
  outer loop
    vertex 0.02795634044308459 0.03852792642984416 0.02
    vertex 0.02795634044308459 0.03852792642984416 0.009999999999999972
    vertex 0.02371497416154708 0.03531726589402383 0.01447938359017075
  endloop
endfacet
facet normal -0.60356 0.797318 0
  outer loop
    vertex 0.01947360788000954 0.03210660535820347 0
    vertex 0.01947360788000954 0.03210660535820347 0.01000000000000003
    vertex 0.02371497416154707 0.03531726589402382 0.005493512265210878
  endloop
endfacet
facet normal -0.60356 0.797318 2.83521e-16
  outer loop
    vertex 0.01947360788000954 0.03210660535820347 0.01000000000000003
    vertex 0.02371497416154708 0.03531726589402383 0.01447938359017075
    vertex 0.02371497416154707 0.03531726589402382 0.005493512265210878
  endloop
endfacet
facet normal -0.60356 0.797318 3.16449e-16
  outer loop
    vertex 0.02371497416154708 0.03531726589402383 0.01447938359017075
    vertex 0.02795634044308459 0.03852792642984416 0.009999999999999972
    vertex 0.02371497416154707 0.03531726589402382 0.005493512265210878
  endloop
endfacet
facet normal -0.60356 0.797318 0
  outer loop
    vertex 0.02795634044308459 0.03852792642984416 0.009999999999999972
    vertex 0.02795634044308459 0.03852792642984416 0
    vertex 0.02371497416154707 0.03531726589402382 0.005493512265210878
  endloop
endfacet
facet normal -0.60356 0.797318 0
  outer loop
    vertex 0.01947360788000954 0.03210660535820347 0.01000000000000003
    vertex 0.01947360788000954 0.03210660535820347 0.02
    vertex 0.02371497416154708 0.03531726589402383 0.01447938359017075
  endloop
endfacet
facet normal -0.521977 -0.85296 0
  outer loop
    vertex 0.02996664933420301 0.02568528428656278 0.01000000000000003
    vertex 0.02472012860710628 0.02889594482238312 0.02
    vertex 0.01947360788000954 0.03210660535820347 0.009999999999999972
  endloop
endfacet
facet normal -0.521977 -0.85296 0
  outer loop
    vertex 0.02472012860710628 0.02889594482238312 0
    vertex 0.02996664933420301 0.02568528428656278 0.01000000000000003
    vertex 0.01947360788000954 0.03210660535820347 0.009999999999999972
  endloop
endfacet
facet normal -0.521977 -0.85296 0
  outer loop
    vertex 0.02472012860710628 0.02889594482238312 0
    vertex 0.01947360788000954 0.03210660535820347 0.009999999999999972
    vertex 0.01947360788000954 0.03210660535820347 0
  endloop
endfacet
facet normal -0.521977 -0.85296 0
  outer loop
    vertex 0.01947360788000954 0.03210660535820347 0.009999999999999972
    vertex 0.02472012860710628 0.02889594482238312 0.02
    vertex 0.01947360788000954 0.03210660535820347 0.02
  endloop
endfacet
facet normal -0.521977 -0.85296 -0
  outer loop
    vertex 0.02996664933420301 0.02568528428656278 0.01000000000000003
    vertex 0.02472012860710628 0.02889594482238312 0
    vertex 0.02996664933420301 0.02568528428656278 0
  endloop
endfacet
facet normal -0.521977 -0.85296 0
  outer loop
    vertex 0.02472012860710628 0.02889594482238312 0.02
    vertex 0.02996664933420301 0.02568528428656278 0.01000000000000003
    vertex 0.02996664933420301 0.02568528428656278 0.02
  endloop
endfacet
facet normal -0.498652 0.866802 7.89323e-17
  outer loop
    vertex 0.02438558664156513 0.02247462375074244 0
    vertex 0.01880452394892723 0.01926396321492208 0.01000000000000003
    vertex 0.02996664933420301 0.02568528428656278 0.009999999999999972
  endloop
endfacet
facet normal -0.498652 0.866802 5.26215e-17
  outer loop
    vertex 0.01880452394892723 0.01926396321492208 0.01000000000000003
    vertex 0.02438558664156511 0.02247462375074242 0.02
    vertex 0.02996664933420301 0.02568528428656278 0.009999999999999972
  endloop
endfacet
facet normal -0.498652 0.866802 0
  outer loop
    vertex 0.02438558664156513 0.02247462375074244 0
    vertex 0.02996664933420301 0.02568528428656278 0.009999999999999972
    vertex 0.02996664933420301 0.02568528428656278 0
  endloop
endfacet
facet normal -0.498652 0.866802 0
  outer loop
    vertex 0.02996664933420301 0.02568528428656278 0.009999999999999972
    vertex 0.02438558664156511 0.02247462375074242 0.02
    vertex 0.02996664933420301 0.02568528428656278 0.02
  endloop
endfacet
facet normal -0.498652 0.866802 0
  outer loop
    vertex 0.01880452394892723 0.01926396321492208 0.01000000000000003
    vertex 0.02438558664156513 0.02247462375074244 0
    vertex 0.01880452394892723 0.01926396321492208 0
  endloop
endfacet
facet normal -0.498652 0.866802 0
  outer loop
    vertex 0.02438558664156511 0.02247462375074242 0.02
    vertex 0.01880452394892723 0.01926396321492208 0.01000000000000003
    vertex 0.01880452394892723 0.01926396321492208 0.02
  endloop
endfacet
facet normal -0.623537 -0.781794 0
  outer loop
    vertex 0.01880452394892723 0.01926396321492208 0
    vertex 0.0268556176576453 0.01284264214328139 0
    vertex 0.02283007080328627 0.01605330267910174 0.004999999999999986
  endloop
endfacet
facet normal -0.623537 -0.781794 -6.58003e-17
  outer loop
    vertex 0.0268556176576453 0.01284264214328139 0.02
    vertex 0.01880452394892723 0.01926396321492208 0.02
    vertex 0.02283007080328625 0.01605330267910175 0.01499999999999999
  endloop
endfacet
facet normal -0.623537 -0.781794 0
  outer loop
    vertex 0.0268556176576453 0.01284264214328139 0
    vertex 0.0268556176576453 0.01284264214328139 0.01000000000000003
    vertex 0.02283007080328627 0.01605330267910174 0.004999999999999986
  endloop
endfacet
facet normal -0.623537 -0.781794 -0
  outer loop
    vertex 0.01880452394892723 0.01926396321492208 0.02
    vertex 0.01880452394892723 0.01926396321492208 0.009999999999999972
    vertex 0.02283007080328625 0.01605330267910175 0.01499999999999999
  endloop
endfacet
facet normal -0.623537 -0.781794 5.82005e-17
  outer loop
    vertex 0.02283007080328627 0.01605330267910174 0.004999999999999986
    vertex 0.0268556176576453 0.01284264214328139 0.01000000000000003
    vertex 0.02283007080328625 0.01605330267910175 0.01499999999999999
  endloop
endfacet
facet normal -0.623537 -0.781794 6.58003e-17
  outer loop
    vertex 0.01880452394892723 0.01926396321492208 0.009999999999999972
    vertex 0.02283007080328627 0.01605330267910174 0.004999999999999986
    vertex 0.02283007080328625 0.01605330267910175 0.01499999999999999
  endloop
endfacet
facet normal -0.623537 -0.781794 -0
  outer loop
    vertex 0.01880452394892723 0.01926396321492208 0.009999999999999972
    vertex 0.01880452394892723 0.01926396321492208 0
    vertex 0.02283007080328627 0.01605330267910174 0.004999999999999986
  endloop
endfacet
facet normal -0.623537 -0.781794 0
  outer loop
    vertex 0.0268556176576453 0.01284264214328139 0.01000000000000003
    vertex 0.0268556176576453 0.01284264214328139 0.02
    vertex 0.02283007080328625 0.01605330267910175 0.01499999999999999
  endloop
endfacet
facet normal -0.96198 0.273119 0
  outer loop
    vertex 0.02503252215293746 0.006421321071640694 0.01000000000000003
    vertex 0.0268556176576453 0.01284264214328139 0.009999999999999972
    vertex 0.02594406990529138 0.009631981607461041 0.005
  endloop
endfacet
facet normal -0.96198 0.273119 0
  outer loop
    vertex 0.02503252215293746 0.006421321071640694 0.02
    vertex 0.0268556176576453 0.01284264214328139 0.02
    vertex 0.02594406990529138 0.009631981607461041 0.015
  endloop
endfacet
facet normal -0.96198 0.273119 0
  outer loop
    vertex 0.0268556176576453 0.01284264214328139 0.009999999999999972
    vertex 0.02503252215293746 0.006421321071640694 0.01000000000000003
    vertex 0.02594406990529138 0.009631981607461041 0.015
  endloop
endfacet
facet normal -0.96198 0.273119 0
  outer loop
    vertex 0.0268556176576453 0.01284264214328139 0
    vertex 0.02503252215293746 0.006421321071640694 0
    vertex 0.02594406990529138 0.009631981607461041 0.005
  endloop
endfacet
facet normal -0.96198 0.273119 0
  outer loop
    vertex 0.0268556176576453 0.01284264214328139 0.009999999999999972
    vertex 0.0268556176576453 0.01284264214328139 0
    vertex 0.02594406990529138 0.009631981607461041 0.005
  endloop
endfacet
facet normal -0.96198 0.273119 0
  outer loop
    vertex 0.0268556176576453 0.01284264214328139 0.02
    vertex 0.0268556176576453 0.01284264214328139 0.009999999999999972
    vertex 0.02594406990529138 0.009631981607461041 0.015
  endloop
endfacet
facet normal -0.96198 0.273119 0
  outer loop
    vertex 0.02503252215293746 0.006421321071640694 0
    vertex 0.02503252215293746 0.006421321071640694 0.01000000000000003
    vertex 0.02594406990529138 0.009631981607461041 0.005
  endloop
endfacet
facet normal -0.96198 0.273119 0
  outer loop
    vertex 0.02503252215293746 0.006421321071640694 0.01000000000000003
    vertex 0.02503252215293746 0.006421321071640694 0.02
    vertex 0.02594406990529138 0.009631981607461041 0.015
  endloop
endfacet
endsolid Created by Gmsh
