solid Created by Gmsh
facet normal 0.99335 -0.115137 0
  outer loop
    vertex 0.01474932062089931 0.05823006851688058 0.02
    vertex 0.01373692252776442 0.04949555823934852 0.01156370579167571
    vertex 0.01474932062089931 0.05823006851688058 0.009999999999999972
  endloop
endfacet
facet normal 0.99335 -0.115137 0
  outer loop
    vertex 0.008 0 0
    vertex 0.009012398093134893 0.008734510277532061 0.008436294208324291
    vertex 0.008 0 0.01000000000000003
  endloop
endfacet
facet normal 0.99335 -0.115137 1.11331e-16
  outer loop
    vertex 0.00934986412417986 0.01164601370337609 0
    vertex 0.009012398093134893 0.008734510277532061 0.008436294208324291
    vertex 0.008 0 0
  endloop
endfacet
facet normal 0.99335 -0.115137 -9.42033e-17
  outer loop
    vertex 0.01339945649671945 0.04658405481350449 0.02
    vertex 0.01373692252776442 0.04949555823934852 0.01156370579167571
    vertex 0.01474932062089931 0.05823006851688058 0.02
  endloop
endfacet
facet normal 0.99335 -0.115137 -1.52857e-17
  outer loop
    vertex 0.01204959237253959 0.03493804111012841 0.02
    vertex 0.01137466031044966 0.02911503425844029 0.01
    vertex 0.01266828009612202 0.0402757973908424 0.01026061763194595
  endloop
endfacet
facet normal 0.99335 -0.115137 9.66911e-17
  outer loop
    vertex 0.01266828009612202 0.0402757973908424 0.01026061763194595
    vertex 0.01137466031044966 0.02911503425844029 0.01
    vertex 0.01204959237253958 0.03493804111012831 0
  endloop
endfacet
facet normal 0.99335 -0.115137 -1.44496e-17
  outer loop
    vertex 0.01069972824835973 0.02329202740675227 0.02
    vertex 0.01137466031044966 0.02911503425844029 0.01
    vertex 0.01204959237253959 0.03493804111012841 0.02
  endloop
endfacet
facet normal 0.99335 -0.115137 2.81651e-17
  outer loop
    vertex 0.01339945649671945 0.04658405481350445 0
    vertex 0.01266828009612202 0.0402757973908424 0.01026061763194595
    vertex 0.01204959237253958 0.03493804111012831 0
  endloop
endfacet
facet normal 0.99335 -0.115137 -4.22477e-17
  outer loop
    vertex 0.009349864124179864 0.01164601370337613 0.02
    vertex 0.01008104052477729 0.01795427112603816 0.009739382368054045
    vertex 0.01069972824835973 0.02329202740675227 0.02
  endloop
endfacet
facet normal 0.99335 -0.115137 0
  outer loop
    vertex 0.01204959237253959 0.03493804111012841 0.02
    vertex 0.01266828009612202 0.0402757973908424 0.01026061763194595
    vertex 0.01339945649671945 0.04658405481350449 0.02
  endloop
endfacet
facet normal 0.99335 -0.115137 1.26108e-16
  outer loop
    vertex 0.01069972824835972 0.02329202740675218 0
    vertex 0.01008104052477729 0.01795427112603816 0.009739382368054045
    vertex 0.00934986412417986 0.01164601370337609 0
  endloop
endfacet
facet normal 0.99335 -0.115137 -1.48756e-17
  outer loop
    vertex 0.01008104052477729 0.01795427112603816 0.009739382368054045
    vertex 0.01137466031044966 0.02911503425844029 0.01
    vertex 0.01069972824835973 0.02329202740675227 0.02
  endloop
endfacet
facet normal 0.99335 -0.115137 6.49641e-17
  outer loop
    vertex 0.01069972824835972 0.02329202740675218 0
    vertex 0.01137466031044966 0.02911503425844029 0.01
    vertex 0.01008104052477729 0.01795427112603816 0.009739382368054045
  endloop
endfacet
facet normal 0.99335 -0.115137 7.22479e-17
  outer loop
    vertex 0.01204959237253958 0.03493804111012831 0
    vertex 0.01137466031044966 0.02911503425844029 0.01
    vertex 0.01069972824835972 0.02329202740675218 0
  endloop
endfacet
facet normal 0.99335 -0.115137 0
  outer loop
    vertex 0.01339945649671945 0.04658405481350445 0
    vertex 0.01373692252776442 0.04949555823934852 0.01156370579167571
    vertex 0.01266828009612202 0.0402757973908424 0.01026061763194595
  endloop
endfacet
facet normal 0.99335 -0.115137 8.18318e-18
  outer loop
    vertex 0.009349864124179864 0.01164601370337613 0.02
    vertex 0.009012398093134893 0.008734510277532061 0.008436294208324291
    vertex 0.01008104052477729 0.01795427112603816 0.009739382368054045
  endloop
endfacet
facet normal 0.99335 -0.115137 -1.44496e-17
  outer loop
    vertex 0.01474932062089931 0.05823006851688058 0
    vertex 0.01412473552090984 0.05284143235483625 0.004999999999999985
    vertex 0.01339945649671945 0.04658405481350445 0
  endloop
endfacet
facet normal 0.99335 -0.115137 -1.01147e-16
  outer loop
    vertex 0.008 0 0.02
    vertex 0.008624585099989469 0.005388636162044328 0.01500000000000001
    vertex 0.009349864124179864 0.01164601370337613 0.02
  endloop
endfacet
facet normal 0.99335 -0.115137 5.82274e-17
  outer loop
    vertex 0.01339945649671945 0.04658405481350445 0
    vertex 0.01412473552090984 0.05284143235483625 0.004999999999999985
    vertex 0.01373692252776442 0.04949555823934852 0.01156370579167571
  endloop
endfacet
facet normal 0.99335 -0.115137 3.63921e-17
  outer loop
    vertex 0.009349864124179864 0.01164601370337613 0.02
    vertex 0.008624585099989469 0.005388636162044328 0.01500000000000001
    vertex 0.009012398093134893 0.008734510277532061 0.008436294208324291
  endloop
endfacet
facet normal 0.99335 -0.115137 1.34088e-16
  outer loop
    vertex 0.01008104052477729 0.01795427112603816 0.009739382368054045
    vertex 0.009012398093134893 0.008734510277532061 0.008436294208324291
    vertex 0.00934986412417986 0.01164601370337609 0
  endloop
endfacet
facet normal 0.99335 -0.115137 -4.1258e-17
  outer loop
    vertex 0.01266828009612202 0.0402757973908424 0.01026061763194595
    vertex 0.01373692252776442 0.04949555823934852 0.01156370579167571
    vertex 0.01339945649671945 0.04658405481350449 0.02
  endloop
endfacet
facet normal 0.99335 -0.115137 0
  outer loop
    vertex 0.01474932062089931 0.05823006851688058 0.009999999999999972
    vertex 0.01412473552090984 0.05284143235483625 0.004999999999999985
    vertex 0.01474932062089931 0.05823006851688058 0
  endloop
endfacet
facet normal 0.99335 -0.115137 0
  outer loop
    vertex 0.008 0 0.01000000000000003
    vertex 0.008624585099989469 0.005388636162044328 0.01500000000000001
    vertex 0.008 0 0.02
  endloop
endfacet
facet normal 0.99335 -0.115137 9.69005e-17
  outer loop
    vertex 0.009012398093134893 0.008734510277532061 0.008436294208324291
    vertex 0.008624585099989469 0.005388636162044328 0.01500000000000001
    vertex 0.008 0 0.01000000000000003
  endloop
endfacet
facet normal 0.99335 -0.115137 5.65253e-17
  outer loop
    vertex 0.01373692252776442 0.04949555823934852 0.01156370579167571
    vertex 0.01412473552090984 0.05284143235483625 0.004999999999999985
    vertex 0.01474932062089931 0.05823006851688058 0.009999999999999972
  endloop
endfacet
endsolid Created by Gmsh
