solid Created by Gmsh
facet normal 0.998681 -0.0513533 -1.8122e-16
  outer loop
    vertex 0.009661879340845616 0.03231899997828179 0.02
    vertex 0.00999752050072035 0.03884630095139724 0.009600926424524352
    vertex 0.01021583912112749 0.04309199997104239 0.02
  endloop
endfacet
facet normal 0.998681 -0.0513533 1.84445e-16
  outer loop
    vertex 0.009661879340845617 0.03231899997828181 0
    vertex 0.009384899450704679 0.0269324999819015 0.01021728357114822
    vertex 0.009107919560563746 0.02154599998552121 0
  endloop
endfacet
facet normal 0.998681 -0.0513533 -1.92583e-16
  outer loop
    vertex 0.008553959780281872 0.01077299999276059 0.02
    vertex 0.008772185944787887 0.01501690099843876 0.009602868546654769
    vertex 0.009107919560563744 0.02154599998552119 0.02
  endloop
endfacet
facet normal 0.998681 -0.0513533 2.357e-16
  outer loop
    vertex 0.009384899450704679 0.0269324999819015 0.01021728357114822
    vertex 0.008772185944787887 0.01501690099843876 0.009602868546654769
    vertex 0.009107919560563746 0.02154599998552121 0
  endloop
endfacet
facet normal 0.998681 -0.0513533 -1.02326e-16
  outer loop
    vertex 0.009384899450704679 0.0269324999819015 0.01021728357114822
    vertex 0.00999752050072035 0.03884630095139724 0.009600926424524352
    vertex 0.009661879340845616 0.03231899997828179 0.02
  endloop
endfacet
facet normal 0.998681 -0.0513533 1.73246e-16
  outer loop
    vertex 0.009661879340845617 0.03231899997828181 0
    vertex 0.00999752050072035 0.03884630095139724 0.009600926424524352
    vertex 0.009384899450704679 0.0269324999819015 0.01021728357114822
  endloop
endfacet
facet normal 0.998681 -0.0513533 -1.65829e-16
  outer loop
    vertex 0.009107919560563744 0.02154599998552119 0.02
    vertex 0.008772185944787887 0.01501690099843876 0.009602868546654769
    vertex 0.009384899450704679 0.0269324999819015 0.01021728357114822
  endloop
endfacet
facet normal 0.998681 -0.0513533 0
  outer loop
    vertex 0.01076979890140936 0.053864999963803 0.02
    vertex 0.01038580997337382 0.04639746736271392 0.01232848124176956
    vertex 0.01076979890140936 0.053864999963803 0.009999999999999972
  endloop
endfacet
facet normal 0.998681 -0.0513533 2.04423e-16
  outer loop
    vertex 0.009107919560563746 0.02154599998552121 0
    vertex 0.008772185944787887 0.01501690099843876 0.009602868546654769
    vertex 0.008553959780281872 0.0107729999927606 0
  endloop
endfacet
facet normal 0.998681 -0.0513533 0
  outer loop
    vertex 0.008 0 0.01000000000000003
    vertex 0.008383570854850007 0.007459402223063391 0.01233726325758376
    vertex 0.008 0 0.02
  endloop
endfacet
facet normal 0.998681 -0.0513533 -3.88949e-16
  outer loop
    vertex 0.01021583912112749 0.04309199997104239 0.02
    vertex 0.01038580997337382 0.04639746736271392 0.01232848124176956
    vertex 0.01076979890140936 0.053864999963803 0.02
  endloop
endfacet
facet normal 0.998681 -0.0513533 -9.2225e-17
  outer loop
    vertex 0.008 0 0.02
    vertex 0.008383570854850007 0.007459402223063391 0.01233726325758376
    vertex 0.008553959780281872 0.01077299999276059 0.02
  endloop
endfacet
facet normal 0.998681 -0.0513533 1.79928e-16
  outer loop
    vertex 0.01021583912112749 0.04309199997104241 0
    vertex 0.00999752050072035 0.03884630095139724 0.009600926424524352
    vertex 0.009661879340845617 0.03231899997828181 0
  endloop
endfacet
facet normal 0.998681 -0.0513533 -1.24412e-16
  outer loop
    vertex 0.009107919560563744 0.02154599998552119 0.02
    vertex 0.009384899450704679 0.0269324999819015 0.01021728357114822
    vertex 0.009661879340845616 0.03231899997828179 0.02
  endloop
endfacet
facet normal 0.998681 -0.0513533 2.12203e-16
  outer loop
    vertex 0.008772185944787887 0.01501690099843876 0.009602868546654769
    vertex 0.008310124495162882 0.006031071754784508 0.005708176714718227
    vertex 0.008553959780281872 0.0107729999927606 0
  endloop
endfacet
facet normal 0.998681 -0.0513533 2.54692e-16
  outer loop
    vertex 0.01021583912112749 0.04309199997104241 0
    vertex 0.01045962231144171 0.04783291510779475 0.00570708241492794
    vertex 0.00999752050072035 0.03884630095139724 0.009600926424524352
  endloop
endfacet
facet normal 0.998681 -0.0513533 -3.22219e-16
  outer loop
    vertex 0.00999752050072035 0.03884630095139724 0.009600926424524352
    vertex 0.01038580997337382 0.04639746736271392 0.01232848124176956
    vertex 0.01021583912112749 0.04309199997104239 0.02
  endloop
endfacet
facet normal 0.998681 -0.0513533 -1.42098e-16
  outer loop
    vertex 0.008553959780281872 0.01077299999276059 0.02
    vertex 0.008383570854850007 0.007459402223063391 0.01233726325758376
    vertex 0.008772185944787887 0.01501690099843876 0.009602868546654769
  endloop
endfacet
facet normal 0.998681 -0.0513533 -2.72156e-16
  outer loop
    vertex 0.008383570854850007 0.007459402223063391 0.01233726325758376
    vertex 0.008310124495162882 0.006031071754784508 0.005708176714718227
    vertex 0.008772185944787887 0.01501690099843876 0.009602868546654769
  endloop
endfacet
facet normal 0.998681 -0.0513533 4.70698e-17
  outer loop
    vertex 0.00999752050072035 0.03884630095139724 0.009600926424524352
    vertex 0.01045962231144171 0.04783291510779475 0.00570708241492794
    vertex 0.01038580997337382 0.04639746736271392 0.01232848124176956
  endloop
endfacet
facet normal 0.998681 -0.0513533 3.99001e-16
  outer loop
    vertex 0.01076979890140936 0.053864999963803 0
    vertex 0.01045962231144171 0.04783291510779475 0.00570708241492794
    vertex 0.01021583912112749 0.04309199997104241 0
  endloop
endfacet
facet normal 0.998681 -0.0513533 3.57657e-16
  outer loop
    vertex 0.008553959780281872 0.0107729999927606 0
    vertex 0.008310124495162882 0.006031071754784508 0.005708176714718227
    vertex 0.008 0 0
  endloop
endfacet
facet normal 0.998681 -0.0513533 0
  outer loop
    vertex 0.008 0 0
    vertex 0.008310124495162882 0.006031071754784508 0.005708176714718227
    vertex 0.008 0 0.01000000000000003
  endloop
endfacet
facet normal 0.998681 -0.0513533 0
  outer loop
    vertex 0.01076979890140936 0.053864999963803 0.009999999999999972
    vertex 0.01045962231144171 0.04783291510779475 0.00570708241492794
    vertex 0.01076979890140936 0.053864999963803 0
  endloop
endfacet
facet normal 0.998681 -0.0513533 -4.12838e-17
  outer loop
    vertex 0.01038580997337382 0.04639746736271392 0.01232848124176956
    vertex 0.01045962231144171 0.04783291510779475 0.00570708241492794
    vertex 0.01076979890140936 0.053864999963803 0.009999999999999972
  endloop
endfacet
facet normal 0.998681 -0.0513533 -2.93525e-16
  outer loop
    vertex 0.008 0 0.01000000000000003
    vertex 0.008310124495162882 0.006031071754784508 0.005708176714718227
    vertex 0.008383570854850007 0.007459402223063391 0.01233726325758376
  endloop
endfacet
endsolid Created by Gmsh
