solid Created by Gmsh
facet normal -0.789148 -0.614203 -0
  outer loop
    vertex 0.0332040249283223 0.05771623527986339 0.02
    vertex 0.0332040249283223 0.05771623527986339 0.009999999999999972
    vertex 0.03601160323628294 0.05410897057487192 0.015
  endloop
endfacet
facet normal -0.789148 -0.614203 0
  outer loop
    vertex 0.03881918154424359 0.05050170586988047 0
    vertex 0.03881918154424359 0.05050170586988047 0.01000000000000003
    vertex 0.03601160323628294 0.05410897057487192 0.005
  endloop
endfacet
facet normal -0.789148 -0.614203 -0
  outer loop
    vertex 0.0332040249283223 0.05771623527986339 0.009999999999999972
    vertex 0.0332040249283223 0.05771623527986339 0
    vertex 0.03601160323628294 0.05410897057487192 0.005
  endloop
endfacet
facet normal -0.789148 -0.614203 0
  outer loop
    vertex 0.03881918154424359 0.05050170586988047 0.01000000000000003
    vertex 0.03881918154424359 0.05050170586988047 0.02
    vertex 0.03601160323628294 0.05410897057487192 0.015
  endloop
endfacet
facet normal -0.789148 -0.614203 1.4083e-15
  outer loop
    vertex 0.03881918154424359 0.05050170586988047 0.01000000000000003
    vertex 0.0332040249283223 0.05771623527986339 0.009999999999999972
    vertex 0.03601160323628294 0.05410897057487192 0.005
  endloop
endfacet
facet normal -0.789148 -0.614203 -1.4083e-15
  outer loop
    vertex 0.0332040249283223 0.05771623527986339 0.009999999999999972
    vertex 0.03881918154424359 0.05050170586988047 0.01000000000000003
    vertex 0.03601160323628294 0.05410897057487192 0.015
  endloop
endfacet
facet normal -0.789148 -0.614203 -1.4083e-15
  outer loop
    vertex 0.0332040249283223 0.05771623527986339 0
    vertex 0.03881918154424359 0.05050170586988047 0
    vertex 0.03601160323628294 0.05410897057487192 0.005
  endloop
endfacet
facet normal -0.789148 -0.614203 1.4083e-15
  outer loop
    vertex 0.03881918154424359 0.05050170586988047 0.02
    vertex 0.0332040249283223 0.05771623527986339 0.02
    vertex 0.03601160323628294 0.05410897057487192 0.015
  endloop
endfacet
facet normal -0.385681 0.922632 4.73128e-16
  outer loop
    vertex 0.03881918154424359 0.05050170586988047 0
    vertex 0.0301898207425722 0.046894441164889 0
    vertex 0.03188395324366496 0.04760262622253396 0.007656522168783746
  endloop
endfacet
facet normal -0.385681 0.922632 0
  outer loop
    vertex 0.03881918154424359 0.05050170586988047 0.009999999999999972
    vertex 0.03881918154424359 0.05050170586988047 0
    vertex 0.03188395324366496 0.04760262622253396 0.007656522168783746
  endloop
endfacet
facet normal -0.385681 0.922632 0
  outer loop
    vertex 0.02156045994090083 0.04328717645989754 0.01000000000000003
    vertex 0.02156045994090083 0.04328717645989754 0.02
    vertex 0.02785784776418558 0.04591962460416545 0.01309206283276204
  endloop
endfacet
facet normal -0.385681 0.922632 -4.71959e-16
  outer loop
    vertex 0.02156045994090083 0.04328717645989754 0.02
    vertex 0.03018982074257221 0.04689444116488901 0.02
    vertex 0.02785784776418558 0.04591962460416545 0.01309206283276204
  endloop
endfacet
facet normal -0.385681 0.922632 0
  outer loop
    vertex 0.03881918154424359 0.05050170586988047 0.02
    vertex 0.03881918154424359 0.05050170586988047 0.009999999999999972
    vertex 0.03360001224991475 0.0483199770469112 0.0142083122294192
  endloop
endfacet
facet normal -0.385681 0.922632 0
  outer loop
    vertex 0.02156045994090083 0.04328717645989754 0
    vertex 0.02156045994090083 0.04328717645989754 0.01000000000000003
    vertex 0.02587514034173652 0.04509080881239327 0.005000000000000015
  endloop
endfacet
facet normal -0.385681 0.922632 5.79603e-16
  outer loop
    vertex 0.0301898207425722 0.046894441164889 0
    vertex 0.02156045994090083 0.04328717645989754 0
    vertex 0.02587514034173652 0.04509080881239327 0.005000000000000015
  endloop
endfacet
facet normal -0.385681 0.922632 -6.56742e-16
  outer loop
    vertex 0.03018982074257221 0.04689444116488901 0.02
    vertex 0.03881918154424359 0.05050170586988047 0.02
    vertex 0.03360001224991475 0.0483199770469112 0.0142083122294192
  endloop
endfacet
facet normal -0.385681 0.922632 -3.83531e-16
  outer loop
    vertex 0.02156045994090083 0.04328717645989754 0.01000000000000003
    vertex 0.02785784776418558 0.04591962460416545 0.01309206283276204
    vertex 0.02587514034173652 0.04509080881239327 0.005000000000000015
  endloop
endfacet
facet normal -0.385681 0.922632 -3.24449e-16
  outer loop
    vertex 0.02785784776418558 0.04591962460416545 0.01309206283276204
    vertex 0.03188395324366496 0.04760262622253396 0.007656522168783746
    vertex 0.02587514034173652 0.04509080881239327 0.005000000000000015
  endloop
endfacet
facet normal -0.385681 0.922632 -1.88692e-16
  outer loop
    vertex 0.03360001224991475 0.0483199770469112 0.0142083122294192
    vertex 0.03881918154424359 0.05050170586988047 0.009999999999999972
    vertex 0.03188395324366496 0.04760262622253396 0.007656522168783746
  endloop
endfacet
facet normal -0.385681 0.922632 4.14228e-16
  outer loop
    vertex 0.03188395324366496 0.04760262622253396 0.007656522168783746
    vertex 0.0301898207425722 0.046894441164889 0
    vertex 0.02587514034173652 0.04509080881239327 0.005000000000000015
  endloop
endfacet
facet normal -0.385681 0.922632 -3.93968e-16
  outer loop
    vertex 0.03360001224991475 0.0483199770469112 0.0142083122294192
    vertex 0.03188395324366496 0.04760262622253396 0.007656522168783746
    vertex 0.02785784776418558 0.04591962460416545 0.01309206283276204
  endloop
endfacet
facet normal -0.385681 0.922632 -6.43107e-16
  outer loop
    vertex 0.03018982074257221 0.04689444116488901 0.02
    vertex 0.03360001224991475 0.0483199770469112 0.0142083122294192
    vertex 0.02785784776418558 0.04591962460416545 0.01309206283276204
  endloop
endfacet
facet normal -0.665406 -0.746481 1.81135e-15
  outer loop
    vertex 0.02965402699106859 0.03607264704991461 0.02
    vertex 0.02156045994090083 0.04328717645989754 0.02
    vertex 0.02560724346598469 0.03967991175490608 0.01447938359017075
  endloop
endfacet
facet normal -0.665406 -0.746481 -1.30833e-15
  outer loop
    vertex 0.02156045994090083 0.04328717645989754 0
    vertex 0.02965402699106859 0.03607264704991461 0
    vertex 0.02560724346598472 0.03967991175490606 0.005493512265210899
  endloop
endfacet
facet normal -0.665406 -0.746481 -0
  outer loop
    vertex 0.02156045994090083 0.04328717645989754 0.02
    vertex 0.02156045994090083 0.04328717645989754 0.009999999999999972
    vertex 0.02560724346598469 0.03967991175490608 0.01447938359017075
  endloop
endfacet
facet normal -0.665406 -0.746481 0
  outer loop
    vertex 0.02965402699106859 0.03607264704991461 0
    vertex 0.02965402699106859 0.03607264704991461 0.01000000000000003
    vertex 0.02560724346598472 0.03967991175490606 0.005493512265210899
  endloop
endfacet
facet normal -0.665406 -0.746481 -0
  outer loop
    vertex 0.02156045994090083 0.04328717645989754 0.009999999999999972
    vertex 0.02156045994090083 0.04328717645989754 0
    vertex 0.02560724346598472 0.03967991175490606 0.005493512265210899
  endloop
endfacet
facet normal -0.665406 -0.746481 0
  outer loop
    vertex 0.02965402699106859 0.03607264704991461 0.01000000000000003
    vertex 0.02965402699106859 0.03607264704991461 0.02
    vertex 0.02560724346598469 0.03967991175490608 0.01447938359017075
  endloop
endfacet
facet normal -0.665406 -0.746481 -3.4776e-16
  outer loop
    vertex 0.02965402699106859 0.03607264704991461 0.01000000000000003
    vertex 0.02560724346598469 0.03967991175490608 0.01447938359017075
    vertex 0.02560724346598472 0.03967991175490606 0.005493512265210899
  endloop
endfacet
facet normal -0.665406 -0.746481 -3.26009e-16
  outer loop
    vertex 0.02560724346598469 0.03967991175490608 0.01447938359017075
    vertex 0.02156045994090083 0.04328717645989754 0.009999999999999972
    vertex 0.02560724346598472 0.03967991175490606 0.005493512265210899
  endloop
endfacet
facet normal -0.997035 0.0769525 -6.90645e-16
  outer loop
    vertex 0.02965402699106859 0.03607264704991461 0.009999999999999972
    vertex 0.02909719998782276 0.02885811763993169 0.01000000000000003
    vertex 0.02937561348944567 0.03246538234492315 0.015
  endloop
endfacet
facet normal -0.997035 0.0769525 -6.90645e-16
  outer loop
    vertex 0.02965402699106859 0.03607264704991461 0
    vertex 0.02909719998782276 0.02885811763993169 0
    vertex 0.02937561348944567 0.03246538234492315 0.004999999999999999
  endloop
endfacet
facet normal -0.997035 0.0769525 6.90645e-16
  outer loop
    vertex 0.02909719998782276 0.02885811763993169 0.01000000000000003
    vertex 0.02965402699106859 0.03607264704991461 0.009999999999999972
    vertex 0.02937561348944567 0.03246538234492315 0.004999999999999999
  endloop
endfacet
facet normal -0.997035 0.0769525 6.90645e-16
  outer loop
    vertex 0.02909719998782276 0.02885811763993169 0.02
    vertex 0.02965402699106859 0.03607264704991461 0.02
    vertex 0.02937561348944567 0.03246538234492315 0.015
  endloop
endfacet
facet normal -0.997035 0.0769525 0
  outer loop
    vertex 0.02965402699106859 0.03607264704991461 0.009999999999999972
    vertex 0.02965402699106859 0.03607264704991461 0
    vertex 0.02937561348944567 0.03246538234492315 0.004999999999999999
  endloop
endfacet
facet normal -0.997035 0.0769525 0
  outer loop
    vertex 0.02965402699106859 0.03607264704991461 0.02
    vertex 0.02965402699106859 0.03607264704991461 0.009999999999999972
    vertex 0.02937561348944567 0.03246538234492315 0.015
  endloop
endfacet
facet normal -0.997035 0.0769525 0
  outer loop
    vertex 0.02909719998782276 0.02885811763993169 0
    vertex 0.02909719998782276 0.02885811763993169 0.01000000000000003
    vertex 0.02937561348944567 0.03246538234492315 0.004999999999999999
  endloop
endfacet
facet normal -0.997035 0.0769525 0
  outer loop
    vertex 0.02909719998782276 0.02885811763993169 0.01000000000000003
    vertex 0.02909719998782276 0.02885811763993169 0.02
    vertex 0.02937561348944567 0.03246538234492315 0.015
  endloop
endfacet
facet normal -0.646945 0.762537 0
  outer loop
    vertex 0.02909719998782276 0.02885811763993169 0
    vertex 0.02059362012808801 0.02164358822994877 0
    vertex 0.02484541005795539 0.02525085293494023 0.005493512265210879
  endloop
endfacet
facet normal -0.646945 0.762537 0
  outer loop
    vertex 0.02059362012808801 0.02164358822994877 0.02
    vertex 0.02909719998782276 0.02885811763993169 0.02
    vertex 0.02484541005795539 0.02525085293494023 0.01447938359017077
  endloop
endfacet
facet normal -0.646945 0.762537 0
  outer loop
    vertex 0.02484541005795539 0.02525085293494023 0.01447938359017077
    vertex 0.02909719998782276 0.02885811763993169 0.009999999999999972
    vertex 0.02484541005795539 0.02525085293494023 0.005493512265210879
  endloop
endfacet
facet normal -0.646945 0.762537 0
  outer loop
    vertex 0.02059362012808801 0.02164358822994877 0.01000000000000003
    vertex 0.02484541005795539 0.02525085293494023 0.01447938359017077
    vertex 0.02484541005795539 0.02525085293494023 0.005493512265210879
  endloop
endfacet
facet normal -0.646945 0.762537 0
  outer loop
    vertex 0.02909719998782276 0.02885811763993169 0.02
    vertex 0.02909719998782276 0.02885811763993169 0.009999999999999972
    vertex 0.02484541005795539 0.02525085293494023 0.01447938359017077
  endloop
endfacet
facet normal -0.646945 0.762537 0
  outer loop
    vertex 0.02059362012808801 0.02164358822994877 0
    vertex 0.02059362012808801 0.02164358822994877 0.01000000000000003
    vertex 0.02484541005795539 0.02525085293494023 0.005493512265210879
  endloop
endfacet
facet normal -0.646945 0.762537 0
  outer loop
    vertex 0.02909719998782276 0.02885811763993169 0.009999999999999972
    vertex 0.02909719998782276 0.02885811763993169 0
    vertex 0.02484541005795539 0.02525085293494023 0.005493512265210879
  endloop
endfacet
facet normal -0.646945 0.762537 0
  outer loop
    vertex 0.02059362012808801 0.02164358822994877 0.01000000000000003
    vertex 0.02059362012808801 0.02164358822994877 0.02
    vertex 0.02484541005795539 0.02525085293494023 0.01447938359017077
  endloop
endfacet
facet normal -0.368565 -0.929602 -0
  outer loop
    vertex 0.02059362012808801 0.02164358822994877 0.009999999999999972
    vertex 0.02059362012808801 0.02164358822994877 0
    vertex 0.02721613191916803 0.01901792088871736 0.00703896995996954
  endloop
endfacet
facet normal -0.368565 -0.929602 3.66682e-16
  outer loop
    vertex 0.03879025354559397 0.01442905881996585 0.02
    vertex 0.029691936836841 0.01803632352495731 0.02
    vertex 0.03181662749340871 0.01719393455787635 0.01244739656980814
  endloop
endfacet
facet normal -0.368565 -0.929602 0
  outer loop
    vertex 0.03879025354559397 0.01442905881996585 0.01000000000000003
    vertex 0.03879025354559397 0.01442905881996585 0.02
    vertex 0.03181662749340871 0.01719393455787635 0.01244739656980814
  endloop
endfacet
facet normal -0.368565 -0.929602 -4.91798e-16
  outer loop
    vertex 0.02059362012808801 0.02164358822994877 0
    vertex 0.02969193683684098 0.01803632352495731 0
    vertex 0.02721613191916803 0.01901792088871736 0.00703896995996954
  endloop
endfacet
facet normal -0.368565 -0.929602 -0
  outer loop
    vertex 0.02059362012808801 0.02164358822994877 0.02
    vertex 0.02059362012808801 0.02164358822994877 0.009999999999999972
    vertex 0.02558029786160802 0.01966648992054522 0.0145393572498464
  endloop
endfacet
facet normal -0.368565 -0.929602 0
  outer loop
    vertex 0.03879025354559397 0.01442905881996585 0
    vertex 0.03879025354559397 0.01442905881996585 0.01000000000000003
    vertex 0.0333963982372637 0.01656759328742971 0.00584725735474071
  endloop
endfacet
facet normal -0.368565 -0.929602 6.65644e-16
  outer loop
    vertex 0.029691936836841 0.01803632352495731 0.02
    vertex 0.02059362012808801 0.02164358822994877 0.02
    vertex 0.02558029786160802 0.01966648992054522 0.0145393572498464
  endloop
endfacet
facet normal -0.368565 -0.929602 -2.96015e-16
  outer loop
    vertex 0.02969193683684098 0.01803632352495731 0
    vertex 0.03879025354559397 0.01442905881996585 0
    vertex 0.0333963982372637 0.01656759328742971 0.00584725735474071
  endloop
endfacet
facet normal -0.368565 -0.929602 -7.02605e-17
  outer loop
    vertex 0.02059362012808801 0.02164358822994877 0.009999999999999972
    vertex 0.02721613191916803 0.01901792088871736 0.00703896995996954
    vertex 0.02558029786160802 0.01966648992054522 0.0145393572498464
  endloop
endfacet
facet normal -0.368565 -0.929602 7.47052e-17
  outer loop
    vertex 0.0333963982372637 0.01656759328742971 0.00584725735474071
    vertex 0.03879025354559397 0.01442905881996585 0.01000000000000003
    vertex 0.03181662749340871 0.01719393455787635 0.01244739656980814
  endloop
endfacet
facet normal -0.368565 -0.929602 9.08135e-17
  outer loop
    vertex 0.02721613191916803 0.01901792088871736 0.00703896995996954
    vertex 0.03181662749340871 0.01719393455787635 0.01244739656980814
    vertex 0.02558029786160802 0.01966648992054522 0.0145393572498464
  endloop
endfacet
facet normal -0.368565 -0.929602 4.98406e-16
  outer loop
    vertex 0.03181662749340871 0.01719393455787635 0.01244739656980814
    vertex 0.029691936836841 0.01803632352495731 0.02
    vertex 0.02558029786160802 0.01966648992054522 0.0145393572498464
  endloop
endfacet
facet normal -0.368565 -0.929602 8.09503e-17
  outer loop
    vertex 0.0333963982372637 0.01656759328742971 0.00584725735474071
    vertex 0.03181662749340871 0.01719393455787635 0.01244739656980814
    vertex 0.02721613191916803 0.01901792088871736 0.00703896995996954
  endloop
endfacet
facet normal -0.368565 -0.929602 -4.07757e-16
  outer loop
    vertex 0.02969193683684098 0.01803632352495731 0
    vertex 0.0333963982372637 0.01656759328742971 0.00584725735474071
    vertex 0.02721613191916803 0.01901792088871736 0.00703896995996954
  endloop
endfacet
facet normal -0.958921 -0.283673 -0
  outer loop
    vertex 0.03879025354559397 0.01442905881996585 0.02
    vertex 0.03879025354559397 0.01442905881996585 0.009999999999999972
    vertex 0.03985737305365408 0.01082179411497438 0.015
  endloop
endfacet
facet normal -0.958921 -0.283673 0
  outer loop
    vertex 0.0409244925617142 0.00721452940998292 0
    vertex 0.0409244925617142 0.00721452940998292 0.01000000000000003
    vertex 0.03985737305365408 0.01082179411497438 0.004999999999999999
  endloop
endfacet
facet normal -0.958921 -0.283673 -0
  outer loop
    vertex 0.03879025354559397 0.01442905881996585 0.009999999999999972
    vertex 0.03879025354559397 0.01442905881996585 0
    vertex 0.03985737305365408 0.01082179411497438 0.004999999999999999
  endloop
endfacet
facet normal -0.958921 -0.283673 0
  outer loop
    vertex 0.0409244925617142 0.00721452940998292 0.01000000000000003
    vertex 0.0409244925617142 0.00721452940998292 0.02
    vertex 0.03985737305365408 0.01082179411497438 0.015
  endloop
endfacet
facet normal -0.958921 -0.283673 -7.65569e-16
  outer loop
    vertex 0.03879025354559397 0.01442905881996585 0.009999999999999972
    vertex 0.0409244925617142 0.00721452940998292 0.01000000000000003
    vertex 0.03985737305365408 0.01082179411497438 0.015
  endloop
endfacet
facet normal -0.958921 -0.283673 7.65569e-16
  outer loop
    vertex 0.0409244925617142 0.00721452940998292 0.01000000000000003
    vertex 0.03879025354559397 0.01442905881996585 0.009999999999999972
    vertex 0.03985737305365408 0.01082179411497438 0.004999999999999999
  endloop
endfacet
facet normal -0.958921 -0.283673 -7.65569e-16
  outer loop
    vertex 0.03879025354559397 0.01442905881996585 0
    vertex 0.0409244925617142 0.00721452940998292 0
    vertex 0.03985737305365408 0.01082179411497438 0.004999999999999999
  endloop
endfacet
facet normal -0.958921 -0.283673 7.65569e-16
  outer loop
    vertex 0.0409244925617142 0.00721452940998292 0.02
    vertex 0.03879025354559397 0.01442905881996585 0.02
    vertex 0.03985737305365408 0.01082179411497438 0.015
  endloop
endfacet
endsolid Created by Gmsh
