solid Created by Gmsh
facet normal 0.999832 -0.0183466 0
  outer loop
    vertex 0.008 0 0
    vertex 0.0081565969082707 0.008534023778979915 0.00824466703335798
    vertex 0.008 0 0.01000000000000003
  endloop
endfacet
facet normal 0.999832 -0.0183466 0
  outer loop
    vertex 0.008833446124522824 0.04542011157002689 0.02
    vertex 0.008676849216252124 0.03688608779104698 0.01175533296664202
    vertex 0.008833446124522824 0.04542011157002689 0.009999999999999972
  endloop
endfacet
facet normal 0.999832 -0.0183466 -2.67438e-17
  outer loop
    vertex 0.008416723062261412 0.02271005578501344 0.02
    vertex 0.008513623808006578 0.02799083225449923 0.01023922396887003
    vertex 0.008625084593392118 0.03406508367752017 0.02
  endloop
endfacet
facet normal 0.999832 -0.0183466 -7.12697e-17
  outer loop
    vertex 0.008416723062261412 0.02271005578501344 0
    vertex 0.008321278320480284 0.01750862681088117 0.009680010846578175
    vertex 0.008208361531130706 0.01135502789250672 0
  endloop
endfacet
facet normal 0.999832 -0.0183466 -7.46311e-17
  outer loop
    vertex 0.008208361531130706 0.01135502789250672 0
    vertex 0.0081565969082707 0.008534023778979915 0.00824466703335798
    vertex 0.008 0 0
  endloop
endfacet
facet normal 0.999832 -0.0183466 -8.36773e-17
  outer loop
    vertex 0.008625084593392118 0.03406508367752017 0.02
    vertex 0.008676849216252124 0.03688608779104698 0.01175533296664202
    vertex 0.008833446124522824 0.04542011157002689 0.02
  endloop
endfacet
facet normal 0.999832 -0.0183466 -2.12987e-17
  outer loop
    vertex 0.008416723062261412 0.02271005578501344 0
    vertex 0.008513623808006578 0.02799083225449923 0.01023922396887003
    vertex 0.008321278320480284 0.01750862681088117 0.009680010846578175
  endloop
endfacet
facet normal 0.999832 -0.0183466 2.01128e-17
  outer loop
    vertex 0.008321278320480284 0.01750862681088117 0.009680010846578175
    vertex 0.008513623808006578 0.02799083225449923 0.01023922396887003
    vertex 0.008416723062261412 0.02271005578501344 0.02
  endloop
endfacet
facet normal 0.999832 -0.0183466 5.00344e-17
  outer loop
    vertex 0.008625084593392118 0.03406508367752017 0
    vertex 0.00873297113350203 0.03994455032151219 0.004999999999999981
    vertex 0.008676849216252124 0.03688608779104698 0.01175533296664202
  endloop
endfacet
facet normal 0.999832 -0.0183466 4.3299e-17
  outer loop
    vertex 0.008208361531130706 0.01135502789250671 0.02
    vertex 0.008100474991020795 0.005475561248514695 0.01500000000000002
    vertex 0.0081565969082707 0.008534023778979915 0.00824466703335798
  endloop
endfacet
facet normal 0.999832 -0.0183466 2.00311e-17
  outer loop
    vertex 0.008625084593392118 0.03406508367752017 0
    vertex 0.008513623808006578 0.02799083225449923 0.01023922396887003
    vertex 0.008416723062261412 0.02271005578501344 0
  endloop
endfacet
facet normal 0.999832 -0.0183466 5.78162e-17
  outer loop
    vertex 0.008208361531130706 0.01135502789250671 0.02
    vertex 0.008321278320480284 0.01750862681088117 0.009680010846578175
    vertex 0.008416723062261412 0.02271005578501344 0.02
  endloop
endfacet
facet normal 0.999832 -0.0183466 3.58889e-17
  outer loop
    vertex 0.008625084593392118 0.03406508367752017 0
    vertex 0.008676849216252124 0.03688608779104698 0.01175533296664202
    vertex 0.008513623808006578 0.02799083225449923 0.01023922396887003
  endloop
endfacet
facet normal 0.999832 -0.0183466 4.12174e-17
  outer loop
    vertex 0.008208361531130706 0.01135502789250671 0.02
    vertex 0.0081565969082707 0.008534023778979915 0.00824466703335798
    vertex 0.008321278320480284 0.01750862681088117 0.009680010846578175
  endloop
endfacet
facet normal 0.999832 -0.0183466 5.2208e-17
  outer loop
    vertex 0.008833446124522824 0.04542011157002689 0
    vertex 0.00873297113350203 0.03994455032151219 0.004999999999999981
    vertex 0.008625084593392118 0.03406508367752017 0
  endloop
endfacet
facet normal 0.999832 -0.0183466 4.10206e-17
  outer loop
    vertex 0.008 0 0.02
    vertex 0.008100474991020795 0.005475561248514695 0.01500000000000002
    vertex 0.008208361531130706 0.01135502789250671 0.02
  endloop
endfacet
facet normal 0.999832 -0.0183466 -7.32494e-17
  outer loop
    vertex 0.008321278320480284 0.01750862681088117 0.009680010846578175
    vertex 0.0081565969082707 0.008534023778979915 0.00824466703335798
    vertex 0.008208361531130706 0.01135502789250672 0
  endloop
endfacet
facet normal 0.999832 -0.0183466 -6.00126e-17
  outer loop
    vertex 0.008513623808006578 0.02799083225449923 0.01023922396887003
    vertex 0.008676849216252124 0.03688608779104698 0.01175533296664202
    vertex 0.008625084593392118 0.03406508367752017 0.02
  endloop
endfacet
facet normal 0.999832 -0.0183466 0
  outer loop
    vertex 0.008833446124522824 0.04542011157002689 0.009999999999999972
    vertex 0.00873297113350203 0.03994455032151219 0.004999999999999981
    vertex 0.008833446124522824 0.04542011157002689 0
  endloop
endfacet
facet normal 0.999832 -0.0183466 0
  outer loop
    vertex 0.008 0 0.01000000000000003
    vertex 0.008100474991020795 0.005475561248514695 0.01500000000000002
    vertex 0.008 0 0.02
  endloop
endfacet
facet normal 0.999832 -0.0183466 2.02483e-17
  outer loop
    vertex 0.0081565969082707 0.008534023778979915 0.00824466703335798
    vertex 0.008100474991020795 0.005475561248514695 0.01500000000000002
    vertex 0.008 0 0.01000000000000003
  endloop
endfacet
facet normal 0.999832 -0.0183466 2.02483e-17
  outer loop
    vertex 0.008676849216252124 0.03688608779104698 0.01175533296664202
    vertex 0.00873297113350203 0.03994455032151219 0.004999999999999981
    vertex 0.008833446124522824 0.04542011157002689 0.009999999999999972
  endloop
endfacet
endsolid Created by Gmsh
