solid Created by Gmsh
facet normal 0.994557 -0.104191 1.03339e-16
  outer loop
    vertex 0.009214321656434685 0.01159137575771327 0
    vertex 0.008910741242326008 0.008693531818284906 0.0116041357739553
    vertex 0.008 0 0
  endloop
endfacet
facet normal 0.994557 -0.104191 -2.12942e-16
  outer loop
    vertex 0.01285728662573874 0.046365503030853 0.02
    vertex 0.01316086703984741 0.04926334697028137 0.008395864226044705
    vertex 0.01407160828217342 0.05795687878856627 0.02
  endloop
endfacet
facet normal 0.994557 -0.104191 0
  outer loop
    vertex 0.01407160828217342 0.05795687878856627 0.009999999999999972
    vertex 0.01316086703984741 0.04926334697028137 0.008395864226044705
    vertex 0.01407160828217342 0.05795687878856627 0
  endloop
endfacet
facet normal 0.994557 -0.104191 0
  outer loop
    vertex 0.008 0 0.01000000000000003
    vertex 0.008910741242326008 0.008693531818284906 0.0116041357739553
    vertex 0.008 0 0.02
  endloop
endfacet
facet normal 0.994557 -0.104191 3.11625e-16
  outer loop
    vertex 0.01407160828217342 0.05795687878856627 0
    vertex 0.01316086703984741 0.04926334697028137 0.008395864226044705
    vertex 0.01285728662573875 0.0463655030308531 0
  endloop
endfacet
facet normal 0.994557 -0.104191 -1.385e-16
  outer loop
    vertex 0.008 0 0.02
    vertex 0.008910741242326008 0.008693531818284906 0.0116041357739553
    vertex 0.009214321656434675 0.01159137575771317 0.02
  endloop
endfacet
facet normal 0.994557 -0.104191 1.57066e-16
  outer loop
    vertex 0.01042864331286937 0.02318275151542654 0
    vertex 0.01103580414108671 0.02897843939428314 0.01
    vertex 0.009872079220336803 0.01787003762647459 0.01026735596232588
  endloop
endfacet
facet normal 0.994557 -0.104191 -2.38419e-16
  outer loop
    vertex 0.009872079220336803 0.01787003762647459 0.01026735596232588
    vertex 0.01103580414108671 0.02897843939428314 0.01
    vertex 0.01042864331286936 0.02318275151542645 0.02
  endloop
endfacet
facet normal 0.994557 -0.104191 -1.1593e-16
  outer loop
    vertex 0.01164296496930405 0.03477412727313973 0.02
    vertex 0.01103580414108671 0.02897843939428314 0.01
    vertex 0.01219952906183662 0.0400868411620917 0.009732644037674114
  endloop
endfacet
facet normal 0.994557 -0.104191 -2.47101e-16
  outer loop
    vertex 0.01042864331286936 0.02318275151542645 0.02
    vertex 0.01103580414108671 0.02897843939428314 0.01
    vertex 0.01164296496930405 0.03477412727313973 0.02
  endloop
endfacet
facet normal 0.994557 -0.104191 3.53921e-17
  outer loop
    vertex 0.01042864331286937 0.02318275151542654 0
    vertex 0.009872079220336803 0.01787003762647459 0.01026735596232588
    vertex 0.009214321656434685 0.01159137575771327 0
  endloop
endfacet
facet normal 0.994557 -0.104191 -8.21404e-17
  outer loop
    vertex 0.009214321656434675 0.01159137575771317 0.02
    vertex 0.009872079220336803 0.01787003762647459 0.01026735596232588
    vertex 0.01042864331286936 0.02318275151542645 0.02
  endloop
endfacet
facet normal 0.994557 -0.104191 -9.20195e-17
  outer loop
    vertex 0.01164296496930405 0.03477412727313973 0.02
    vertex 0.01219952906183662 0.0400868411620917 0.009732644037674114
    vertex 0.01285728662573874 0.046365503030853 0.02
  endloop
endfacet
facet normal 0.994557 -0.104191 6.72058e-17
  outer loop
    vertex 0.01285728662573875 0.0463655030308531 0
    vertex 0.01219952906183662 0.0400868411620917 0.009732644037674114
    vertex 0.01164296496930406 0.03477412727313983 0
  endloop
endfacet
facet normal 0.994557 -0.104191 1.67156e-16
  outer loop
    vertex 0.01164296496930406 0.03477412727313983 0
    vertex 0.01103580414108671 0.02897843939428314 0.01
    vertex 0.01042864331286937 0.02318275151542654 0
  endloop
endfacet
facet normal 0.994557 -0.104191 3.84547e-17
  outer loop
    vertex 0.01219952906183662 0.0400868411620917 0.009732644037674114
    vertex 0.01103580414108671 0.02897843939428314 0.01
    vertex 0.01164296496930406 0.03477412727313983 0
  endloop
endfacet
facet normal 0.994557 -0.104191 5.74687e-17
  outer loop
    vertex 0.009872079220336803 0.01787003762647459 0.01026735596232588
    vertex 0.008910741242326008 0.008693531818284906 0.0116041357739553
    vertex 0.009214321656434685 0.01159137575771327 0
  endloop
endfacet
facet normal 0.994557 -0.104191 -2.05245e-16
  outer loop
    vertex 0.01219952906183662 0.0400868411620917 0.009732644037674114
    vertex 0.01316086703984741 0.04926334697028137 0.008395864226044705
    vertex 0.01285728662573874 0.046365503030853 0.02
  endloop
endfacet
facet normal 0.994557 -0.104191 2.86296e-16
  outer loop
    vertex 0.01285728662573875 0.0463655030308531 0
    vertex 0.01316086703984741 0.04926334697028137 0.008395864226044705
    vertex 0.01219952906183662 0.0400868411620917 0.009732644037674114
  endloop
endfacet
facet normal 0.994557 -0.104191 -6.24646e-17
  outer loop
    vertex 0.009214321656434675 0.01159137575771317 0.02
    vertex 0.008910741242326008 0.008693531818284906 0.0116041357739553
    vertex 0.009872079220336803 0.01787003762647459 0.01026735596232588
  endloop
endfacet
facet normal 0.994557 -0.104191 0
  outer loop
    vertex 0.008 0 0
    vertex 0.008910741242326008 0.008693531818284906 0.0116041357739553
    vertex 0.008 0 0.01000000000000003
  endloop
endfacet
facet normal 0.994557 -0.104191 0
  outer loop
    vertex 0.01407160828217342 0.05795687878856627 0.02
    vertex 0.01316086703984741 0.04926334697028137 0.008395864226044705
    vertex 0.01407160828217342 0.05795687878856627 0.009999999999999972
  endloop
endfacet
endsolid Created by Gmsh
