solid Created by Gmsh
facet normal 1 -1.29886e-29 -1.38778e-15
  outer loop
    vertex 0.04 0.06 0.009999999999999972
    vertex 0.04000000000000001 0.05703443401082394 0.01500000000000001
    vertex 0.04 0.05406886802164789 0.01000000000000003
  endloop
endfacet
facet normal 1 0 -1.38778e-15
  outer loop
    vertex 0.04 0.06 0
    vertex 0.04000000000000001 0.05703443401082394 0.005000000000000001
    vertex 0.04 0.05406886802164789 0
  endloop
endfacet
facet normal 1 -0 1.38778e-15
  outer loop
    vertex 0.04 0.05406886802164789 0.02
    vertex 0.04000000000000001 0.05703443401082394 0.01500000000000001
    vertex 0.04 0.06 0.02
  endloop
endfacet
facet normal 1 1.29886e-29 1.38778e-15
  outer loop
    vertex 0.04 0.05406886802164789 0.01000000000000003
    vertex 0.04000000000000001 0.05703443401082394 0.005000000000000001
    vertex 0.04 0.06 0.009999999999999972
  endloop
endfacet
facet normal 1 2.33982e-15 0
  outer loop
    vertex 0.04 0.06 0.009999999999999972
    vertex 0.04000000000000001 0.05703443401082394 0.005000000000000001
    vertex 0.04 0.06 0
  endloop
endfacet
facet normal 1 2.33982e-15 0
  outer loop
    vertex 0.04 0.06 0.02
    vertex 0.04000000000000001 0.05703443401082394 0.01500000000000001
    vertex 0.04 0.06 0.009999999999999972
  endloop
endfacet
facet normal 1 -2.33982e-15 0
  outer loop
    vertex 0.04 0.05406886802164789 0
    vertex 0.04000000000000001 0.05703443401082394 0.005000000000000001
    vertex 0.04 0.05406886802164789 0.01000000000000003
  endloop
endfacet
facet normal 1 -2.33982e-15 0
  outer loop
    vertex 0.04 0.05406886802164789 0.01000000000000003
    vertex 0.04000000000000001 0.05703443401082394 0.01500000000000001
    vertex 0.04 0.05406886802164789 0.02
  endloop
endfacet
facet normal 0.753642 -0.657285 0
  outer loop
    vertex 0.04 0.05406886802164789 0.02
    vertex 0.03705275677796816 0.0506895637702949 0.015
    vertex 0.04 0.05406886802164789 0.009999999999999972
  endloop
endfacet
facet normal 0.753642 -0.657285 0
  outer loop
    vertex 0.03410551355593631 0.0473102595189419 0
    vertex 0.03705275677796816 0.0506895637702949 0.004999999999999999
    vertex 0.03410551355593631 0.0473102595189419 0.01000000000000003
  endloop
endfacet
facet normal 0.753642 -0.657285 0
  outer loop
    vertex 0.04 0.05406886802164789 0.009999999999999972
    vertex 0.03705275677796816 0.0506895637702949 0.004999999999999999
    vertex 0.04 0.05406886802164789 0
  endloop
endfacet
facet normal 0.753642 -0.657285 0
  outer loop
    vertex 0.03410551355593631 0.0473102595189419 0.01000000000000003
    vertex 0.03705275677796816 0.0506895637702949 0.015
    vertex 0.03410551355593631 0.0473102595189419 0.02
  endloop
endfacet
facet normal 0.753642 -0.657285 5.28927e-16
  outer loop
    vertex 0.03410551355593631 0.0473102595189419 0.01000000000000003
    vertex 0.03705275677796816 0.0506895637702949 0.004999999999999999
    vertex 0.04 0.05406886802164789 0.009999999999999972
  endloop
endfacet
facet normal 0.753642 -0.657285 5.28927e-16
  outer loop
    vertex 0.03410551355593631 0.0473102595189419 0.02
    vertex 0.03705275677796816 0.0506895637702949 0.015
    vertex 0.04 0.05406886802164789 0.02
  endloop
endfacet
facet normal 0.753642 -0.657285 -5.28927e-16
  outer loop
    vertex 0.04 0.05406886802164789 0.009999999999999972
    vertex 0.03705275677796816 0.0506895637702949 0.015
    vertex 0.03410551355593631 0.0473102595189419 0.01000000000000003
  endloop
endfacet
facet normal 0.753642 -0.657285 -5.28927e-16
  outer loop
    vertex 0.04 0.05406886802164789 0
    vertex 0.03705275677796816 0.0506895637702949 0.004999999999999999
    vertex 0.03410551355593631 0.0473102595189419 0
  endloop
endfacet
facet normal 0.958447 0.285271 6.72665e-16
  outer loop
    vertex 0.03410551355593631 0.0473102595189419 0.009999999999999972
    vertex 0.03511132675837314 0.04393095526758891 0.015
    vertex 0.03611713996080997 0.04055165101623592 0.01000000000000003
  endloop
endfacet
facet normal 0.958447 0.285271 6.72665e-16
  outer loop
    vertex 0.03410551355593631 0.0473102595189419 0
    vertex 0.03511132675837314 0.04393095526758891 0.005
    vertex 0.03611713996080997 0.04055165101623592 0
  endloop
endfacet
facet normal 0.958447 0.285271 -6.72665e-16
  outer loop
    vertex 0.03611713996080997 0.04055165101623592 0.01000000000000003
    vertex 0.03511132675837314 0.04393095526758891 0.005
    vertex 0.03410551355593631 0.0473102595189419 0.009999999999999972
  endloop
endfacet
facet normal 0.958447 0.285271 -6.72665e-16
  outer loop
    vertex 0.03611713996080997 0.04055165101623592 0.02
    vertex 0.03511132675837314 0.04393095526758891 0.015
    vertex 0.03410551355593631 0.0473102595189419 0.02
  endloop
endfacet
facet normal 0.958447 0.285271 0
  outer loop
    vertex 0.03410551355593631 0.0473102595189419 0.009999999999999972
    vertex 0.03511132675837314 0.04393095526758891 0.005
    vertex 0.03410551355593631 0.0473102595189419 0
  endloop
endfacet
facet normal 0.958447 0.285271 0
  outer loop
    vertex 0.03410551355593631 0.0473102595189419 0.02
    vertex 0.03511132675837314 0.04393095526758891 0.015
    vertex 0.03410551355593631 0.0473102595189419 0.009999999999999972
  endloop
endfacet
facet normal 0.958447 0.285271 -0
  outer loop
    vertex 0.03611713996080997 0.04055165101623592 0
    vertex 0.03511132675837314 0.04393095526758891 0.005
    vertex 0.03611713996080997 0.04055165101623592 0.01000000000000003
  endloop
endfacet
facet normal 0.958447 0.285271 -0
  outer loop
    vertex 0.03611713996080997 0.04055165101623592 0.01000000000000003
    vertex 0.03511132675837314 0.04393095526758891 0.015
    vertex 0.03611713996080997 0.04055165101623592 0.02
  endloop
endfacet
facet normal 0.995269 -0.0971585 -6.23668e-16
  outer loop
    vertex 0.03611713996080997 0.04055165101623592 0
    vertex 0.03578725108208625 0.03717234676488293 0.005000000000000001
    vertex 0.03545736220336253 0.03379304251352994 0
  endloop
endfacet
facet normal 0.995269 -0.0971585 -7.60875e-16
  outer loop
    vertex 0.03611713996080997 0.04055165101623592 0.009999999999999972
    vertex 0.03578725108208625 0.03717234676488292 0.01500000000000001
    vertex 0.03545736220336253 0.03379304251352994 0.01000000000000003
  endloop
endfacet
facet normal 0.995269 -0.0971585 7.60875e-16
  outer loop
    vertex 0.03545736220336253 0.03379304251352994 0.02
    vertex 0.03578725108208625 0.03717234676488292 0.01500000000000001
    vertex 0.03611713996080997 0.04055165101623592 0.02
  endloop
endfacet
facet normal 0.995269 -0.0971585 6.23668e-16
  outer loop
    vertex 0.03545736220336253 0.03379304251352994 0.01000000000000003
    vertex 0.03578725108208625 0.03717234676488293 0.005000000000000001
    vertex 0.03611713996080997 0.04055165101623592 0.009999999999999972
  endloop
endfacet
facet normal 0.995269 -0.0971585 0
  outer loop
    vertex 0.03611713996080997 0.04055165101623592 0.009999999999999972
    vertex 0.03578725108208625 0.03717234676488293 0.005000000000000001
    vertex 0.03611713996080997 0.04055165101623592 0
  endloop
endfacet
facet normal 0.995269 -0.0971585 0
  outer loop
    vertex 0.03611713996080997 0.04055165101623592 0.02
    vertex 0.03578725108208625 0.03717234676488292 0.01500000000000001
    vertex 0.03611713996080997 0.04055165101623592 0.009999999999999972
  endloop
endfacet
facet normal 0.995269 -0.0971585 0
  outer loop
    vertex 0.03545736220336253 0.03379304251352994 0
    vertex 0.03578725108208625 0.03717234676488293 0.005000000000000001
    vertex 0.03545736220336253 0.03379304251352994 0.01000000000000003
  endloop
endfacet
facet normal 0.995269 -0.0971585 0
  outer loop
    vertex 0.03545736220336253 0.03379304251352994 0.01000000000000003
    vertex 0.03578725108208625 0.03717234676488292 0.01500000000000001
    vertex 0.03545736220336253 0.03379304251352994 0.02
  endloop
endfacet
facet normal 0.981628 -0.190802 -4.92096e-17
  outer loop
    vertex 0.03414366882524301 0.02703443401082395 0.02
    vertex 0.03480051551430277 0.03041373826217694 0.015
    vertex 0.03545736220336253 0.03379304251352994 0.02
  endloop
endfacet
facet normal 0.981628 -0.190802 -4.92096e-17
  outer loop
    vertex 0.03414366882524301 0.02703443401082395 0.01000000000000003
    vertex 0.03480051551430277 0.03041373826217694 0.005
    vertex 0.03545736220336253 0.03379304251352994 0.009999999999999972
  endloop
endfacet
facet normal 0.981628 -0.190802 7.38145e-17
  outer loop
    vertex 0.03545736220336253 0.03379304251352994 0.009999999999999972
    vertex 0.03480051551430277 0.03041373826217694 0.015
    vertex 0.03414366882524301 0.02703443401082395 0.01000000000000003
  endloop
endfacet
facet normal 0.981628 -0.190802 7.38145e-17
  outer loop
    vertex 0.03545736220336253 0.03379304251352994 0
    vertex 0.03480051551430277 0.03041373826217694 0.005
    vertex 0.03414366882524301 0.02703443401082395 0
  endloop
endfacet
facet normal 0.981628 -0.190802 0
  outer loop
    vertex 0.03545736220336253 0.03379304251352994 0.009999999999999972
    vertex 0.03480051551430277 0.03041373826217694 0.005
    vertex 0.03545736220336253 0.03379304251352994 0
  endloop
endfacet
facet normal 0.981628 -0.190802 0
  outer loop
    vertex 0.03545736220336253 0.03379304251352994 0.02
    vertex 0.03480051551430277 0.03041373826217694 0.015
    vertex 0.03545736220336253 0.03379304251352994 0.009999999999999972
  endloop
endfacet
facet normal 0.981628 -0.190802 0
  outer loop
    vertex 0.03414366882524301 0.02703443401082395 0
    vertex 0.03480051551430277 0.03041373826217694 0.005
    vertex 0.03414366882524301 0.02703443401082395 0.01000000000000003
  endloop
endfacet
facet normal 0.981628 -0.190802 0
  outer loop
    vertex 0.03414366882524301 0.02703443401082395 0.01000000000000003
    vertex 0.03480051551430277 0.03041373826217694 0.015
    vertex 0.03414366882524301 0.02703443401082395 0.02
  endloop
endfacet
facet normal 0.794985 -0.606629 0
  outer loop
    vertex 0.02898637928694279 0.02027582550811796 0
    vertex 0.0315650240560929 0.02365512975947096 0.005000000000000001
    vertex 0.02898637928694279 0.02027582550811796 0.01000000000000003
  endloop
endfacet
facet normal 0.794985 -0.606629 0
  outer loop
    vertex 0.03414366882524301 0.02703443401082395 0.02
    vertex 0.0315650240560929 0.02365512975947096 0.015
    vertex 0.03414366882524301 0.02703443401082395 0.009999999999999972
  endloop
endfacet
facet normal 0.794985 -0.606629 0
  outer loop
    vertex 0.02898637928694279 0.02027582550811796 0.01000000000000003
    vertex 0.0315650240560929 0.02365512975947096 0.015
    vertex 0.02898637928694279 0.02027582550811796 0.02
  endloop
endfacet
facet normal 0.794985 -0.606629 0
  outer loop
    vertex 0.03414366882524301 0.02703443401082395 0.009999999999999972
    vertex 0.0315650240560929 0.02365512975947096 0.005000000000000001
    vertex 0.03414366882524301 0.02703443401082395 0
  endloop
endfacet
facet normal 0.794985 -0.606629 7.97062e-16
  outer loop
    vertex 0.03414366882524301 0.02703443401082395 0.009999999999999972
    vertex 0.0315650240560929 0.02365512975947096 0.015
    vertex 0.02898637928694279 0.02027582550811796 0.01000000000000003
  endloop
endfacet
facet normal 0.794985 -0.606629 -7.17356e-16
  outer loop
    vertex 0.02898637928694279 0.02027582550811796 0.01000000000000003
    vertex 0.0315650240560929 0.02365512975947096 0.005000000000000001
    vertex 0.03414366882524301 0.02703443401082395 0.009999999999999972
  endloop
endfacet
facet normal 0.794985 -0.606629 7.97062e-16
  outer loop
    vertex 0.03414366882524301 0.02703443401082395 0
    vertex 0.0315650240560929 0.02365512975947096 0.005000000000000001
    vertex 0.02898637928694279 0.02027582550811796 0
  endloop
endfacet
facet normal 0.794985 -0.606629 -7.17356e-16
  outer loop
    vertex 0.02898637928694279 0.02027582550811796 0.02
    vertex 0.0315650240560929 0.02365512975947096 0.015
    vertex 0.03414366882524301 0.02703443401082395 0.02
  endloop
endfacet
facet normal 0.999826 -0.0186358 -6.93875e-16
  outer loop
    vertex 0.02898637928694279 0.02027582550811796 0
    vertex 0.02892339232856617 0.01689652125676497 0.005
    vertex 0.02886040537018954 0.01351721700541197 0
  endloop
endfacet
facet normal 0.999826 -0.0186358 6.93875e-16
  outer loop
    vertex 0.02886040537018954 0.01351721700541197 0.02
    vertex 0.02892339232856617 0.01689652125676497 0.015
    vertex 0.02898637928694279 0.02027582550811796 0.02
  endloop
endfacet
facet normal 0.999826 -0.0186358 -6.93875e-16
  outer loop
    vertex 0.02898637928694279 0.02027582550811796 0.009999999999999972
    vertex 0.02892339232856617 0.01689652125676497 0.015
    vertex 0.02886040537018954 0.01351721700541197 0.01000000000000003
  endloop
endfacet
facet normal 0.999826 -0.0186358 6.93875e-16
  outer loop
    vertex 0.02886040537018954 0.01351721700541197 0.01000000000000003
    vertex 0.02892339232856617 0.01689652125676497 0.005
    vertex 0.02898637928694279 0.02027582550811796 0.009999999999999972
  endloop
endfacet
facet normal 0.999826 -0.0186358 0
  outer loop
    vertex 0.02898637928694279 0.02027582550811796 0.009999999999999972
    vertex 0.02892339232856617 0.01689652125676497 0.005
    vertex 0.02898637928694279 0.02027582550811796 0
  endloop
endfacet
facet normal 0.999826 -0.0186358 0
  outer loop
    vertex 0.02898637928694279 0.02027582550811796 0.02
    vertex 0.02892339232856617 0.01689652125676497 0.015
    vertex 0.02898637928694279 0.02027582550811796 0.009999999999999972
  endloop
endfacet
facet normal 0.999826 -0.0186358 0
  outer loop
    vertex 0.02886040537018954 0.01351721700541197 0
    vertex 0.02892339232856617 0.01689652125676497 0.005
    vertex 0.02886040537018954 0.01351721700541197 0.01000000000000003
  endloop
endfacet
facet normal 0.999826 -0.0186358 0
  outer loop
    vertex 0.02886040537018954 0.01351721700541197 0.01000000000000003
    vertex 0.02892339232856617 0.01689652125676497 0.015
    vertex 0.02886040537018954 0.01351721700541197 0.02
  endloop
endfacet
facet normal 0.560875 0.827901 -8.4065e-16
  outer loop
    vertex 0.03883671318618694 0.006758608502705987 0.02
    vertex 0.03384855927818824 0.01013791275405898 0.0139795918367347
    vertex 0.02886040537018954 0.01351721700541197 0.02
  endloop
endfacet
facet normal 0.560875 0.827901 7.60396e-16
  outer loop
    vertex 0.02886040537018954 0.01351721700541197 0
    vertex 0.03384855927818824 0.01013791275405898 0.005916284881299452
    vertex 0.03883671318618694 0.006758608502705987 0
  endloop
endfacet
facet normal 0.560875 0.827901 0
  outer loop
    vertex 0.03883671318618694 0.006758608502705987 0.01000000000000003
    vertex 0.03384855927818824 0.01013791275405898 0.005916284881299452
    vertex 0.03384855927818824 0.01013791275405898 0.0139795918367347
  endloop
endfacet
facet normal 0.560875 0.827901 0
  outer loop
    vertex 0.03384855927818824 0.01013791275405898 0.0139795918367347
    vertex 0.03384855927818824 0.01013791275405898 0.005916284881299452
    vertex 0.02886040537018954 0.01351721700541197 0.009999999999999972
  endloop
endfacet
facet normal 0.560875 0.827901 0
  outer loop
    vertex 0.02886040537018954 0.01351721700541197 0.02
    vertex 0.03384855927818824 0.01013791275405898 0.0139795918367347
    vertex 0.02886040537018954 0.01351721700541197 0.009999999999999972
  endloop
endfacet
facet normal 0.560875 0.827901 -0
  outer loop
    vertex 0.03883671318618694 0.006758608502705987 0
    vertex 0.03384855927818824 0.01013791275405898 0.005916284881299452
    vertex 0.03883671318618694 0.006758608502705987 0.01000000000000003
  endloop
endfacet
facet normal 0.560875 0.827901 0
  outer loop
    vertex 0.02886040537018954 0.01351721700541197 0.009999999999999972
    vertex 0.03384855927818824 0.01013791275405898 0.005916284881299452
    vertex 0.02886040537018954 0.01351721700541197 0
  endloop
endfacet
facet normal 0.560875 0.827901 -0
  outer loop
    vertex 0.03883671318618694 0.006758608502705987 0.01000000000000003
    vertex 0.03384855927818824 0.01013791275405898 0.0139795918367347
    vertex 0.03883671318618694 0.006758608502705987 0.02
  endloop
endfacet
endsolid Created by Gmsh
