solid Created by Gmsh
facet normal 1 -0 0
  outer loop
    vertex 0.04 0.04762546291332109 0.01000000000000003
    vertex 0.04 0.06 0.009999999999999972
    vertex 0.04 0.05381273145666055 0.02
  endloop
endfacet
facet normal 1 0 -0
  outer loop
    vertex 0.04 0.05381273145666055 0
    vertex 0.04 0.06 0.009999999999999972
    vertex 0.04 0.04762546291332109 0.01000000000000003
  endloop
endfacet
facet normal 1 0 0
  outer loop
    vertex 0.04 0.05381273145666055 0
    vertex 0.04 0.06 0
    vertex 0.04 0.06 0.009999999999999972
  endloop
endfacet
facet normal 1 0 -0
  outer loop
    vertex 0.04 0.06 0.009999999999999972
    vertex 0.04 0.06 0.02
    vertex 0.04 0.05381273145666055 0.02
  endloop
endfacet
facet normal 1 0 0
  outer loop
    vertex 0.04 0.04762546291332109 0.01000000000000003
    vertex 0.04 0.04762546291332109 0
    vertex 0.04 0.05381273145666055 0
  endloop
endfacet
facet normal 1 0 0
  outer loop
    vertex 0.04 0.05381273145666055 0.02
    vertex 0.04 0.04762546291332109 0.02
    vertex 0.04 0.04762546291332109 0.01000000000000003
  endloop
endfacet
facet normal 0.8511 0.525003 -9.68773e-16
  outer loop
    vertex 0.04 0.04762546291332109 0
    vertex 0.04183611578802014 0.04464887148123853 0.005000000000000001
    vertex 0.04367223157604028 0.04167228004915596 0
  endloop
endfacet
facet normal 0.8511 0.525003 -9.68773e-16
  outer loop
    vertex 0.04 0.04762546291332109 0.009999999999999972
    vertex 0.04183611578802014 0.04464887148123853 0.015
    vertex 0.04367223157604028 0.04167228004915596 0.01000000000000003
  endloop
endfacet
facet normal 0.8511 0.525003 9.68773e-16
  outer loop
    vertex 0.04367223157604028 0.04167228004915596 0.01000000000000003
    vertex 0.04183611578802014 0.04464887148123853 0.005000000000000001
    vertex 0.04 0.04762546291332109 0.009999999999999972
  endloop
endfacet
facet normal 0.8511 0.525003 9.68773e-16
  outer loop
    vertex 0.04367223157604028 0.04167228004915596 0.02
    vertex 0.04183611578802014 0.04464887148123853 0.015
    vertex 0.04 0.04762546291332109 0.02
  endloop
endfacet
facet normal 0.8511 0.525003 0
  outer loop
    vertex 0.04 0.04762546291332109 0.009999999999999972
    vertex 0.04183611578802014 0.04464887148123853 0.005000000000000001
    vertex 0.04 0.04762546291332109 0
  endloop
endfacet
facet normal 0.8511 0.525003 0
  outer loop
    vertex 0.04 0.04762546291332109 0.02
    vertex 0.04183611578802014 0.04464887148123853 0.015
    vertex 0.04 0.04762546291332109 0.009999999999999972
  endloop
endfacet
facet normal 0.8511 0.525003 -0
  outer loop
    vertex 0.04367223157604028 0.04167228004915596 0
    vertex 0.04183611578802014 0.04464887148123853 0.005000000000000001
    vertex 0.04367223157604028 0.04167228004915596 0.01000000000000003
  endloop
endfacet
facet normal 0.8511 0.525003 -0
  outer loop
    vertex 0.04367223157604028 0.04167228004915596 0.01000000000000003
    vertex 0.04183611578802014 0.04464887148123853 0.015
    vertex 0.04367223157604028 0.04167228004915596 0.02
  endloop
endfacet
facet normal 0.330348 -0.943859 9.23629e-16
  outer loop
    vertex 0.02666297642278613 0.03571909718499082 0.02
    vertex 0.03378038395144849 0.03821016620330737 0.01226485983463342
    vertex 0.0351676039994132 0.03869568861707338 0.02
  endloop
endfacet
facet normal 0.330348 -0.943859 0
  outer loop
    vertex 0.02666297642278613 0.03571909718499082 0.01000000000000003
    vertex 0.03378038395144849 0.03821016620330737 0.01226485983463342
    vertex 0.02666297642278613 0.03571909718499082 0.02
  endloop
endfacet
facet normal 0.330348 -0.943859 0
  outer loop
    vertex 0.04367223157604028 0.04167228004915596 0.009999999999999972
    vertex 0.03779236448729998 0.03961434607845174 0.006553731502945588
    vertex 0.04367223157604028 0.04167228004915596 0
  endloop
endfacet
facet normal 0.330348 -0.943859 -1.1475e-15
  outer loop
    vertex 0.04367223157604028 0.04167228004915596 0
    vertex 0.03779236448729998 0.03961434607845174 0.006553731502945588
    vertex 0.0351676039994132 0.03869568861707338 0
  endloop
endfacet
facet normal 0.330348 -0.943859 0
  outer loop
    vertex 0.04367223157604028 0.04167228004915596 0.02
    vertex 0.0392629637400179 0.04012905093721561 0.01477935503349713
    vertex 0.04367223157604028 0.04167228004915596 0.009999999999999972
  endloop
endfacet
facet normal 0.330348 -0.943859 0
  outer loop
    vertex 0.02666297642278613 0.03571909718499082 0
    vertex 0.03201326105674679 0.03759167905376282 0.005763718267515807
    vertex 0.02666297642278613 0.03571909718499082 0.01000000000000003
  endloop
endfacet
facet normal 0.330348 -0.943859 2.19679e-15
  outer loop
    vertex 0.0351676039994132 0.03869568861707338 0.02
    vertex 0.0392629637400179 0.04012905093721561 0.01477935503349713
    vertex 0.04367223157604028 0.04167228004915596 0.02
  endloop
endfacet
facet normal 0.330348 -0.943859 -1.04383e-15
  outer loop
    vertex 0.0351676039994132 0.03869568861707338 0
    vertex 0.03201326105674679 0.03759167905376282 0.005763718267515807
    vertex 0.02666297642278613 0.03571909718499082 0
  endloop
endfacet
facet normal 0.330348 -0.943859 -3.37946e-16
  outer loop
    vertex 0.03779236448729998 0.03961434607845174 0.006553731502945588
    vertex 0.0392629637400179 0.04012905093721561 0.01477935503349713
    vertex 0.03378038395144849 0.03821016620330737 0.01226485983463342
  endloop
endfacet
facet normal 0.330348 -0.943859 -8.12452e-16
  outer loop
    vertex 0.04367223157604028 0.04167228004915596 0.009999999999999972
    vertex 0.0392629637400179 0.04012905093721561 0.01477935503349713
    vertex 0.03779236448729998 0.03961434607845174 0.006553731502945588
  endloop
endfacet
facet normal 0.330348 -0.943859 -1.98905e-16
  outer loop
    vertex 0.03201326105674679 0.03759167905376282 0.005763718267515807
    vertex 0.03779236448729998 0.03961434607845174 0.006553731502945588
    vertex 0.03378038395144849 0.03821016620330737 0.01226485983463342
  endloop
endfacet
facet normal 0.330348 -0.943859 1.22942e-16
  outer loop
    vertex 0.03201326105674679 0.03759167905376282 0.005763718267515807
    vertex 0.03378038395144849 0.03821016620330737 0.01226485983463342
    vertex 0.02666297642278613 0.03571909718499082 0.01000000000000003
  endloop
endfacet
facet normal 0.330348 -0.943859 1.03734e-15
  outer loop
    vertex 0.03378038395144849 0.03821016620330737 0.01226485983463342
    vertex 0.0392629637400179 0.04012905093721561 0.01477935503349713
    vertex 0.0351676039994132 0.03869568861707338 0.02
  endloop
endfacet
facet normal 0.330348 -0.943859 -9.15577e-16
  outer loop
    vertex 0.0351676039994132 0.03869568861707338 0
    vertex 0.03779236448729998 0.03961434607845174 0.006553731502945588
    vertex 0.03201326105674679 0.03759167905376282 0.005763718267515807
  endloop
endfacet
facet normal 0.395271 0.918565 5.87514e-16
  outer loop
    vertex 0.04049749267495957 0.02976591432082568 0.02
    vertex 0.03347939988231182 0.03278589629856544 0.0123419636182524
    vertex 0.03358023454887286 0.03274250575290825 0.02
  endloop
endfacet
facet normal 0.395271 0.918565 5.60893e-16
  outer loop
    vertex 0.03358023454887286 0.03274250575290825 0.02
    vertex 0.03347939988231182 0.03278589629856544 0.0123419636182524
    vertex 0.02666297642278613 0.03571909718499082 0.02
  endloop
endfacet
facet normal 0.395271 0.918565 0
  outer loop
    vertex 0.02666297642278613 0.03571909718499082 0.02
    vertex 0.03347939988231182 0.03278589629856544 0.0123419636182524
    vertex 0.02666297642278613 0.03571909718499082 0.009999999999999972
  endloop
endfacet
facet normal 0.395271 0.918565 -0
  outer loop
    vertex 0.04049749267495957 0.02976591432082568 0.01000000000000003
    vertex 0.03347939988231182 0.03278589629856544 0.0123419636182524
    vertex 0.04049749267495957 0.02976591432082568 0.02
  endloop
endfacet
facet normal 0.395271 0.918565 -0
  outer loop
    vertex 0.04049749267495957 0.02976591432082568 0
    vertex 0.03565541198669886 0.03184952832328349 0.005350628348046909
    vertex 0.04049749267495957 0.02976591432082568 0.01000000000000003
  endloop
endfacet
facet normal 0.395271 0.918565 0
  outer loop
    vertex 0.02666297642278613 0.03571909718499082 0.009999999999999972
    vertex 0.03089774431930211 0.03389681824037685 0.005384655995185608
    vertex 0.02666297642278613 0.03571909718499082 0
  endloop
endfacet
facet normal 0.395271 0.918565 -5.46568e-16
  outer loop
    vertex 0.03358023454887284 0.03274250575290825 0
    vertex 0.03565541198669886 0.03184952832328349 0.005350628348046909
    vertex 0.04049749267495957 0.02976591432082568 0
  endloop
endfacet
facet normal 0.395271 0.918565 -1.08623e-15
  outer loop
    vertex 0.02666297642278613 0.03571909718499082 0
    vertex 0.03089774431930211 0.03389681824037685 0.005384655995185608
    vertex 0.03358023454887284 0.03274250575290825 0
  endloop
endfacet
facet normal 0.395271 0.918565 -5.62645e-16
  outer loop
    vertex 0.03565541198669886 0.03184952832328349 0.005350628348046909
    vertex 0.03089774431930211 0.03389681824037685 0.005384655995185608
    vertex 0.03347939988231182 0.03278589629856544 0.0123419636182524
  endloop
endfacet
facet normal 0.395271 0.918565 -9.29625e-16
  outer loop
    vertex 0.03358023454887284 0.03274250575290825 0
    vertex 0.03089774431930211 0.03389681824037685 0.005384655995185608
    vertex 0.03565541198669886 0.03184952832328349 0.005350628348046909
  endloop
endfacet
facet normal 0.395271 0.918565 3.76073e-17
  outer loop
    vertex 0.03347939988231182 0.03278589629856544 0.0123419636182524
    vertex 0.03089774431930211 0.03389681824037685 0.005384655995185608
    vertex 0.02666297642278613 0.03571909718499082 0.009999999999999972
  endloop
endfacet
facet normal 0.395271 0.918565 -4.95467e-16
  outer loop
    vertex 0.03565541198669886 0.03184952832328349 0.005350628348046909
    vertex 0.03347939988231182 0.03278589629856544 0.0123419636182524
    vertex 0.04049749267495957 0.02976591432082568 0.01000000000000003
  endloop
endfacet
facet normal 0.999986 -0.00522849 0
  outer loop
    vertex 0.04049749267495957 0.02976591432082568 0.009999999999999972
    vertex 0.04048192937281337 0.02678932288874311 0.015
    vertex 0.04046636607066717 0.02381273145666055 0.01000000000000003
  endloop
endfacet
facet normal 0.999986 -0.00522849 0
  outer loop
    vertex 0.04046636607066717 0.02381273145666055 0.01000000000000003
    vertex 0.04048192937281337 0.02678932288874311 0.005000000000000001
    vertex 0.04049749267495957 0.02976591432082568 0.009999999999999972
  endloop
endfacet
facet normal 0.999986 -0.00522849 0
  outer loop
    vertex 0.04046636607066717 0.02381273145666055 0.02
    vertex 0.04048192937281337 0.02678932288874311 0.015
    vertex 0.04049749267495957 0.02976591432082568 0.02
  endloop
endfacet
facet normal 0.999986 -0.00522849 0
  outer loop
    vertex 0.04049749267495957 0.02976591432082568 0
    vertex 0.04048192937281337 0.02678932288874311 0.005000000000000001
    vertex 0.04046636607066717 0.02381273145666055 0
  endloop
endfacet
facet normal 0.999986 -0.00522849 0
  outer loop
    vertex 0.04049749267495957 0.02976591432082568 0.009999999999999972
    vertex 0.04048192937281337 0.02678932288874311 0.005000000000000001
    vertex 0.04049749267495957 0.02976591432082568 0
  endloop
endfacet
facet normal 0.999986 -0.00522849 0
  outer loop
    vertex 0.04049749267495957 0.02976591432082568 0.02
    vertex 0.04048192937281337 0.02678932288874311 0.015
    vertex 0.04049749267495957 0.02976591432082568 0.009999999999999972
  endloop
endfacet
facet normal 0.999986 -0.00522849 0
  outer loop
    vertex 0.04046636607066717 0.02381273145666055 0
    vertex 0.04048192937281337 0.02678932288874311 0.005000000000000001
    vertex 0.04046636607066717 0.02381273145666055 0.01000000000000003
  endloop
endfacet
facet normal 0.999986 -0.00522849 0
  outer loop
    vertex 0.04046636607066717 0.02381273145666055 0.01000000000000003
    vertex 0.04048192937281337 0.02678932288874311 0.015
    vertex 0.04046636607066717 0.02381273145666055 0.02
  endloop
endfacet
facet normal 0.700823 -0.713335 0
  outer loop
    vertex 0.04046636607066717 0.02381273145666055 0.02
    vertex 0.03743663086447564 0.02083614002457799 0.015
    vertex 0.04046636607066717 0.02381273145666055 0.009999999999999972
  endloop
endfacet
facet normal 0.700823 -0.713335 0
  outer loop
    vertex 0.03440689565828413 0.01785954859249541 0
    vertex 0.03743663086447564 0.02083614002457799 0.005
    vertex 0.03440689565828413 0.01785954859249541 0.01000000000000003
  endloop
endfacet
facet normal 0.700823 -0.713335 0
  outer loop
    vertex 0.04046636607066717 0.02381273145666055 0.009999999999999972
    vertex 0.03743663086447564 0.02083614002457799 0.005
    vertex 0.04046636607066717 0.02381273145666055 0
  endloop
endfacet
facet normal 0.700823 -0.713335 0
  outer loop
    vertex 0.03440689565828413 0.01785954859249541 0.01000000000000003
    vertex 0.03743663086447564 0.02083614002457799 0.015
    vertex 0.03440689565828413 0.01785954859249541 0.02
  endloop
endfacet
facet normal 0.700823 -0.713335 1.91452e-15
  outer loop
    vertex 0.04046636607066717 0.02381273145666055 0.009999999999999972
    vertex 0.03743663086447564 0.02083614002457799 0.015
    vertex 0.03440689565828413 0.01785954859249541 0.01000000000000003
  endloop
endfacet
facet normal 0.700823 -0.713335 -1.91452e-15
  outer loop
    vertex 0.03440689565828413 0.01785954859249541 0.02
    vertex 0.03743663086447564 0.02083614002457799 0.015
    vertex 0.04046636607066717 0.02381273145666055 0.02
  endloop
endfacet
facet normal 0.700823 -0.713335 -1.91452e-15
  outer loop
    vertex 0.03440689565828413 0.01785954859249541 0.01000000000000003
    vertex 0.03743663086447564 0.02083614002457799 0.005
    vertex 0.04046636607066717 0.02381273145666055 0.009999999999999972
  endloop
endfacet
facet normal 0.700823 -0.713335 1.91452e-15
  outer loop
    vertex 0.04046636607066717 0.02381273145666055 0
    vertex 0.03743663086447564 0.02083614002457799 0.005
    vertex 0.03440689565828413 0.01785954859249541 0
  endloop
endfacet
facet normal 0.950148 0.3118 1.54116e-15
  outer loop
    vertex 0.03636048690050027 0.01190636572833027 0.02
    vertex 0.03538369127939221 0.01488295716041284 0.015
    vertex 0.03440689565828413 0.01785954859249541 0.02
  endloop
endfacet
facet normal 0.950148 0.3118 -1.54116e-15
  outer loop
    vertex 0.03440689565828413 0.01785954859249541 0
    vertex 0.03538369127939221 0.01488295716041284 0.005000000000000001
    vertex 0.03636048690050027 0.01190636572833027 0
  endloop
endfacet
facet normal 0.950148 0.3118 1.54116e-15
  outer loop
    vertex 0.03636048690050027 0.01190636572833027 0.01000000000000003
    vertex 0.03538369127939221 0.01488295716041284 0.005000000000000001
    vertex 0.03440689565828413 0.01785954859249541 0.009999999999999972
  endloop
endfacet
facet normal 0.950148 0.3118 -1.54116e-15
  outer loop
    vertex 0.03440689565828413 0.01785954859249541 0.009999999999999972
    vertex 0.03538369127939221 0.01488295716041284 0.015
    vertex 0.03636048690050027 0.01190636572833027 0.01000000000000003
  endloop
endfacet
facet normal 0.950148 0.3118 0
  outer loop
    vertex 0.03440689565828413 0.01785954859249541 0.009999999999999972
    vertex 0.03538369127939221 0.01488295716041284 0.005000000000000001
    vertex 0.03440689565828413 0.01785954859249541 0
  endloop
endfacet
facet normal 0.950148 0.3118 0
  outer loop
    vertex 0.03440689565828413 0.01785954859249541 0.02
    vertex 0.03538369127939221 0.01488295716041284 0.015
    vertex 0.03440689565828413 0.01785954859249541 0.009999999999999972
  endloop
endfacet
facet normal 0.950148 0.3118 -0
  outer loop
    vertex 0.03636048690050027 0.01190636572833027 0
    vertex 0.03538369127939221 0.01488295716041284 0.005000000000000001
    vertex 0.03636048690050027 0.01190636572833027 0.01000000000000003
  endloop
endfacet
facet normal 0.950148 0.3118 -0
  outer loop
    vertex 0.03636048690050027 0.01190636572833027 0.01000000000000003
    vertex 0.03538369127939221 0.01488295716041284 0.015
    vertex 0.03636048690050027 0.01190636572833027 0.02
  endloop
endfacet
facet normal 0.507817 -0.861465 3.88849e-16
  outer loop
    vertex 0.03636048690050027 0.01190636572833027 0
    vertex 0.03131097291712761 0.008929774296247707 0.00594603439043255
    vertex 0.02626145893375495 0.005953182864165137 0
  endloop
endfacet
facet normal 0.507817 -0.861465 -2.01795e-16
  outer loop
    vertex 0.02626145893375495 0.005953182864165137 0.02
    vertex 0.03131097291712762 0.008929774296247714 0.01427113702623906
    vertex 0.03636048690050027 0.01190636572833027 0.02
  endloop
endfacet
facet normal 0.507817 -0.861465 0
  outer loop
    vertex 0.02626145893375495 0.005953182864165137 0
    vertex 0.03131097291712761 0.008929774296247707 0.00594603439043255
    vertex 0.02626145893375495 0.005953182864165137 0.01000000000000003
  endloop
endfacet
facet normal 0.507817 -0.861465 0
  outer loop
    vertex 0.03636048690050027 0.01190636572833027 0.02
    vertex 0.03131097291712762 0.008929774296247714 0.01427113702623906
    vertex 0.03636048690050027 0.01190636572833027 0.009999999999999972
  endloop
endfacet
facet normal 0.507817 -0.861465 -1.38864e-16
  outer loop
    vertex 0.02626145893375495 0.005953182864165137 0.01000000000000003
    vertex 0.03131097291712761 0.008929774296247707 0.00594603439043255
    vertex 0.03131097291712762 0.008929774296247714 0.01427113702623906
  endloop
endfacet
facet normal 0.507817 -0.861465 -1.28498e-16
  outer loop
    vertex 0.03131097291712762 0.008929774296247714 0.01427113702623906
    vertex 0.03131097291712761 0.008929774296247707 0.00594603439043255
    vertex 0.03636048690050027 0.01190636572833027 0.009999999999999972
  endloop
endfacet
facet normal 0.507817 -0.861465 0
  outer loop
    vertex 0.02626145893375495 0.005953182864165137 0.01000000000000003
    vertex 0.03131097291712762 0.008929774296247714 0.01427113702623906
    vertex 0.02626145893375495 0.005953182864165137 0.02
  endloop
endfacet
facet normal 0.507817 -0.861465 0
  outer loop
    vertex 0.03636048690050027 0.01190636572833027 0.009999999999999972
    vertex 0.03131097291712761 0.008929774296247707 0.00594603439043255
    vertex 0.03636048690050027 0.01190636572833027 0
  endloop
endfacet
endsolid Created by Gmsh
