solid Created by Gmsh
facet normal -0.796545 -0.604579 -0
  outer loop
    vertex 0.03237498514627757 0.05482276962473097 0.02
    vertex 0.03237498514627757 0.05482276962473097 0.009999999999999972
    vertex 0.03497564758770553 0.05139634652318528 0.015
  endloop
endfacet
facet normal -0.796545 -0.604579 0
  outer loop
    vertex 0.03757631002913349 0.0479699234216396 0
    vertex 0.03757631002913349 0.0479699234216396 0.01000000000000003
    vertex 0.03497564758770553 0.05139634652318528 0.005
  endloop
endfacet
facet normal -0.796545 -0.604579 -0
  outer loop
    vertex 0.03237498514627757 0.05482276962473097 0.009999999999999972
    vertex 0.03237498514627757 0.05482276962473097 0
    vertex 0.03497564758770553 0.05139634652318528 0.005
  endloop
endfacet
facet normal -0.796545 -0.604579 0
  outer loop
    vertex 0.03757631002913349 0.0479699234216396 0.01000000000000003
    vertex 0.03757631002913349 0.0479699234216396 0.02
    vertex 0.03497564758770553 0.05139634652318528 0.015
  endloop
endfacet
facet normal -0.796545 -0.604579 0
  outer loop
    vertex 0.03237498514627757 0.05482276962473097 0.009999999999999972
    vertex 0.03757631002913349 0.0479699234216396 0.01000000000000003
    vertex 0.03497564758770553 0.05139634652318528 0.015
  endloop
endfacet
facet normal -0.796545 -0.604579 0
  outer loop
    vertex 0.03757631002913349 0.0479699234216396 0.01000000000000003
    vertex 0.03237498514627757 0.05482276962473097 0.009999999999999972
    vertex 0.03497564758770553 0.05139634652318528 0.005
  endloop
endfacet
facet normal -0.796545 -0.604579 0
  outer loop
    vertex 0.03237498514627757 0.05482276962473097 0
    vertex 0.03757631002913349 0.0479699234216396 0
    vertex 0.03497564758770553 0.05139634652318528 0.005
  endloop
endfacet
facet normal -0.796545 -0.604579 0
  outer loop
    vertex 0.03757631002913349 0.0479699234216396 0.02
    vertex 0.03237498514627757 0.05482276962473097 0.02
    vertex 0.03497564758770553 0.05139634652318528 0.015
  endloop
endfacet
facet normal -0.689352 -0.724426 -0
  outer loop
    vertex 0.03757631002913349 0.0479699234216396 0.02
    vertex 0.03757631002913349 0.0479699234216396 0.009999999999999972
    vertex 0.04117706707719218 0.04454350032009392 0.015
  endloop
endfacet
facet normal -0.689352 -0.724426 0
  outer loop
    vertex 0.04477782412525087 0.04111707721854822 0
    vertex 0.04477782412525087 0.04111707721854822 0.01000000000000003
    vertex 0.04117706707719219 0.04454350032009392 0.005000000000000001
  endloop
endfacet
facet normal -0.689352 -0.724426 -0
  outer loop
    vertex 0.03757631002913349 0.0479699234216396 0.009999999999999972
    vertex 0.03757631002913349 0.0479699234216396 0
    vertex 0.04117706707719219 0.04454350032009392 0.005000000000000001
  endloop
endfacet
facet normal -0.689352 -0.724426 0
  outer loop
    vertex 0.04477782412525087 0.04111707721854822 0.01000000000000003
    vertex 0.04477782412525087 0.04111707721854822 0.02
    vertex 0.04117706707719218 0.04454350032009392 0.015
  endloop
endfacet
facet normal -0.689352 -0.724426 1.97678e-15
  outer loop
    vertex 0.03757631002913349 0.0479699234216396 0
    vertex 0.04477782412525087 0.04111707721854822 0
    vertex 0.04117706707719219 0.04454350032009392 0.005000000000000001
  endloop
endfacet
facet normal -0.689352 -0.724426 -1.02247e-15
  outer loop
    vertex 0.04477782412525087 0.04111707721854822 0.02
    vertex 0.03757631002913349 0.0479699234216396 0.02
    vertex 0.04117706707719218 0.04454350032009392 0.015
  endloop
endfacet
facet normal -0.689352 -0.724426 -1.97678e-15
  outer loop
    vertex 0.04477782412525087 0.04111707721854822 0.01000000000000003
    vertex 0.03757631002913349 0.0479699234216396 0.009999999999999972
    vertex 0.04117706707719219 0.04454350032009392 0.005000000000000001
  endloop
endfacet
facet normal -0.689352 -0.724426 1.02247e-15
  outer loop
    vertex 0.03757631002913349 0.0479699234216396 0.009999999999999972
    vertex 0.04477782412525087 0.04111707721854822 0.01000000000000003
    vertex 0.04117706707719218 0.04454350032009392 0.015
  endloop
endfacet
facet normal -0.99762 0.0689526 -1.3379e-15
  outer loop
    vertex 0.04477782412525087 0.04111707721854822 0.009999999999999972
    vertex 0.04430417550839386 0.03426423101545686 0.01000000000000003
    vertex 0.04454099981682236 0.03769065411700254 0.015
  endloop
endfacet
facet normal -0.99762 0.0689526 1.43038e-15
  outer loop
    vertex 0.04430417550839386 0.03426423101545686 0.01000000000000003
    vertex 0.04477782412525087 0.04111707721854822 0.009999999999999972
    vertex 0.04454099981682236 0.03769065411700254 0.004999999999999994
  endloop
endfacet
facet normal -0.99762 0.0689526 1.33174e-15
  outer loop
    vertex 0.04430417550839386 0.03426423101545686 0.02
    vertex 0.04477782412525087 0.04111707721854822 0.02
    vertex 0.04454099981682236 0.03769065411700254 0.015
  endloop
endfacet
facet normal -0.99762 0.0689526 -1.43655e-15
  outer loop
    vertex 0.04477782412525087 0.04111707721854822 0
    vertex 0.04430417550839386 0.03426423101545686 0
    vertex 0.04454099981682236 0.03769065411700254 0.004999999999999994
  endloop
endfacet
facet normal -0.99762 0.0689526 0
  outer loop
    vertex 0.04477782412525087 0.04111707721854822 0.009999999999999972
    vertex 0.04477782412525087 0.04111707721854822 0
    vertex 0.04454099981682236 0.03769065411700254 0.004999999999999994
  endloop
endfacet
facet normal -0.99762 0.0689526 0
  outer loop
    vertex 0.04477782412525087 0.04111707721854822 0.02
    vertex 0.04477782412525087 0.04111707721854822 0.009999999999999972
    vertex 0.04454099981682236 0.03769065411700254 0.015
  endloop
endfacet
facet normal -0.99762 0.0689526 0
  outer loop
    vertex 0.04430417550839386 0.03426423101545686 0
    vertex 0.04430417550839386 0.03426423101545686 0.01000000000000003
    vertex 0.04454099981682236 0.03769065411700254 0.004999999999999994
  endloop
endfacet
facet normal -0.99762 0.0689526 0
  outer loop
    vertex 0.04430417550839386 0.03426423101545686 0.01000000000000003
    vertex 0.04430417550839386 0.03426423101545686 0.02
    vertex 0.04454099981682236 0.03769065411700254 0.015
  endloop
endfacet
facet normal -0.982081 -0.188461 0
  outer loop
    vertex 0.04430417550839386 0.03426423101545686 0.009999999999999972
    vertex 0.04561923732864059 0.02741138481236548 0.01000000000000003
    vertex 0.04496170641851722 0.03083780791391117 0.015
  endloop
endfacet
facet normal -0.982081 -0.188461 0
  outer loop
    vertex 0.04561923732864059 0.02741138481236548 0.01000000000000003
    vertex 0.04430417550839386 0.03426423101545686 0.009999999999999972
    vertex 0.04496170641851722 0.03083780791391117 0.005
  endloop
endfacet
facet normal -0.982081 -0.188461 0
  outer loop
    vertex 0.04561923732864059 0.02741138481236548 0.02
    vertex 0.04430417550839386 0.03426423101545686 0.02
    vertex 0.04496170641851722 0.03083780791391117 0.015
  endloop
endfacet
facet normal -0.982081 -0.188461 0
  outer loop
    vertex 0.04430417550839386 0.03426423101545686 0
    vertex 0.04561923732864059 0.02741138481236548 0
    vertex 0.04496170641851722 0.03083780791391117 0.005
  endloop
endfacet
facet normal -0.982081 -0.188461 -0
  outer loop
    vertex 0.04430417550839386 0.03426423101545686 0.009999999999999972
    vertex 0.04430417550839386 0.03426423101545686 0
    vertex 0.04496170641851722 0.03083780791391117 0.005
  endloop
endfacet
facet normal -0.982081 -0.188461 -0
  outer loop
    vertex 0.04430417550839386 0.03426423101545686 0.02
    vertex 0.04430417550839386 0.03426423101545686 0.009999999999999972
    vertex 0.04496170641851722 0.03083780791391117 0.015
  endloop
endfacet
facet normal -0.982081 -0.188461 0
  outer loop
    vertex 0.04561923732864059 0.02741138481236548 0
    vertex 0.04561923732864059 0.02741138481236548 0.01000000000000003
    vertex 0.04496170641851722 0.03083780791391117 0.005
  endloop
endfacet
facet normal -0.982081 -0.188461 0
  outer loop
    vertex 0.04561923732864059 0.02741138481236548 0.01000000000000003
    vertex 0.04561923732864059 0.02741138481236548 0.02
    vertex 0.04496170641851722 0.03083780791391117 0.015
  endloop
endfacet
facet normal -0.461808 0.88698 -5.50872e-16
  outer loop
    vertex 0.04561923732864059 0.02741138481236548 0
    vertex 0.03903821324707175 0.0239849617108198 0
    vertex 0.03890390663316218 0.02391503470874744 0.00746058092067103
  endloop
endfacet
facet normal -0.461808 0.88698 -5.50872e-16
  outer loop
    vertex 0.03903821324707175 0.0239849617108198 0
    vertex 0.0324571891655029 0.02055853860927411 0
    vertex 0.03890390663316218 0.02391503470874744 0.00746058092067103
  endloop
endfacet
facet normal -0.461808 0.88698 0
  outer loop
    vertex 0.0324571891655029 0.02055853860927411 0
    vertex 0.0324571891655029 0.02055853860927411 0.01000000000000003
    vertex 0.03890390663316218 0.02391503470874744 0.00746058092067103
  endloop
endfacet
facet normal -0.461808 0.88698 0
  outer loop
    vertex 0.04561923732864059 0.02741138481236548 0.009999999999999972
    vertex 0.04561923732864059 0.02741138481236548 0
    vertex 0.03890390663316218 0.02391503470874744 0.00746058092067103
  endloop
endfacet
facet normal -0.461808 0.88698 0
  outer loop
    vertex 0.04561923732864059 0.02741138481236548 0.02
    vertex 0.04561923732864059 0.02741138481236548 0.009999999999999972
    vertex 0.0410125204715424 0.02501288864128351 0.01467424620150507
  endloop
endfacet
facet normal -0.461808 0.88698 0
  outer loop
    vertex 0.0324571891655029 0.02055853860927411 0.01000000000000003
    vertex 0.0324571891655029 0.02055853860927411 0.02
    vertex 0.03648063158505097 0.02265335179992756 0.01459068958888231
  endloop
endfacet
facet normal -0.461808 0.88698 5.35895e-16
  outer loop
    vertex 0.03903821324707175 0.0239849617108198 0.02
    vertex 0.04561923732864059 0.02741138481236548 0.02
    vertex 0.0410125204715424 0.02501288864128351 0.01467424620150507
  endloop
endfacet
facet normal -0.461808 0.88698 8.44187e-16
  outer loop
    vertex 0.0324571891655029 0.02055853860927411 0.02
    vertex 0.03903821324707175 0.0239849617108198 0.02
    vertex 0.03648063158505097 0.02265335179992756 0.01459068958888231
  endloop
endfacet
facet normal -0.461808 0.88698 6.93182e-17
  outer loop
    vertex 0.0410125204715424 0.02501288864128351 0.01467424620150507
    vertex 0.03890390663316218 0.02391503470874744 0.00746058092067103
    vertex 0.03648063158505097 0.02265335179992756 0.01459068958888231
  endloop
endfacet
facet normal -0.461808 0.88698 6.49254e-16
  outer loop
    vertex 0.03903821324707175 0.0239849617108198 0.02
    vertex 0.0410125204715424 0.02501288864128351 0.01467424620150507
    vertex 0.03648063158505097 0.02265335179992756 0.01459068958888231
  endloop
endfacet
facet normal -0.461808 0.88698 0
  outer loop
    vertex 0.0410125204715424 0.02501288864128351 0.01467424620150507
    vertex 0.04561923732864059 0.02741138481236548 0.009999999999999972
    vertex 0.03890390663316218 0.02391503470874744 0.00746058092067103
  endloop
endfacet
facet normal -0.461808 0.88698 -3.01939e-16
  outer loop
    vertex 0.03890390663316218 0.02391503470874744 0.00746058092067103
    vertex 0.0324571891655029 0.02055853860927411 0.01000000000000003
    vertex 0.03648063158505097 0.02265335179992756 0.01459068958888231
  endloop
endfacet
facet normal -0.55457 -0.832137 0
  outer loop
    vertex 0.03759857032812084 0.01713211550772843 0
    vertex 0.04273995149073878 0.01370569240618275 0.01000000000000003
    vertex 0.0324571891655029 0.02055853860927411 0.009999999999999972
  endloop
endfacet
facet normal -0.55457 -0.832137 0
  outer loop
    vertex 0.04273995149073878 0.01370569240618275 0.01000000000000003
    vertex 0.03759857032812084 0.01713211550772843 0.02
    vertex 0.0324571891655029 0.02055853860927411 0.009999999999999972
  endloop
endfacet
facet normal -0.55457 -0.832137 0
  outer loop
    vertex 0.03759857032812084 0.01713211550772843 0
    vertex 0.0324571891655029 0.02055853860927411 0.009999999999999972
    vertex 0.0324571891655029 0.02055853860927411 0
  endloop
endfacet
facet normal -0.55457 -0.832137 0
  outer loop
    vertex 0.0324571891655029 0.02055853860927411 0.009999999999999972
    vertex 0.03759857032812084 0.01713211550772843 0.02
    vertex 0.0324571891655029 0.02055853860927411 0.02
  endloop
endfacet
facet normal -0.55457 -0.832137 -0
  outer loop
    vertex 0.04273995149073878 0.01370569240618275 0.01000000000000003
    vertex 0.03759857032812084 0.01713211550772843 0
    vertex 0.04273995149073878 0.01370569240618275 0
  endloop
endfacet
facet normal -0.55457 -0.832137 0
  outer loop
    vertex 0.03759857032812084 0.01713211550772843 0.02
    vertex 0.04273995149073878 0.01370569240618275 0.01000000000000003
    vertex 0.04273995149073878 0.01370569240618275 0.02
  endloop
endfacet
facet normal -0.460335 0.887745 -3.66475e-16
  outer loop
    vertex 0.02952440479976412 0.006852846203091373 0.02
    vertex 0.03613217814525145 0.01027926930463706 0.02
    vertex 0.0362670306625063 0.01034919630670942 0.01254751886404401
  endloop
endfacet
facet normal -0.460335 0.887745 -3.22574e-16
  outer loop
    vertex 0.03613217814525145 0.01027926930463706 0.02
    vertex 0.04273995149073878 0.01370569240618275 0.02
    vertex 0.0362670306625063 0.01034919630670942 0.01254751886404401
  endloop
endfacet
facet normal -0.460335 0.887745 0
  outer loop
    vertex 0.04273995149073878 0.01370569240618275 0.02
    vertex 0.04273995149073878 0.01370569240618275 0.009999999999999972
    vertex 0.0362670306625063 0.01034919630670942 0.01254751886404401
  endloop
endfacet
facet normal -0.460335 0.887745 0
  outer loop
    vertex 0.02952440479976412 0.006852846203091373 0.01000000000000003
    vertex 0.02952440479976412 0.006852846203091373 0.02
    vertex 0.0362670306625063 0.01034919630670942 0.01254751886404401
  endloop
endfacet
facet normal -0.460335 0.887745 0
  outer loop
    vertex 0.02952440479976412 0.006852846203091373 0
    vertex 0.02952440479976412 0.006852846203091373 0.01000000000000003
    vertex 0.03414984614160525 0.009251342374173353 0.005331045657842087
  endloop
endfacet
facet normal -0.460335 0.887745 0
  outer loop
    vertex 0.04273995149073878 0.01370569240618275 0.009999999999999972
    vertex 0.04273995149073878 0.01370569240618275 0
    vertex 0.03870015536669012 0.0116108792155293 0.005411223503126577
  endloop
endfacet
facet normal -0.460335 0.887745 8.53849e-17
  outer loop
    vertex 0.03613217814525145 0.01027926930463706 0
    vertex 0.02952440479976412 0.006852846203091373 0
    vertex 0.03414984614160525 0.009251342374173353 0.005331045657842087
  endloop
endfacet
facet normal -0.460335 0.887745 2.94419e-16
  outer loop
    vertex 0.04273995149073878 0.01370569240618275 0
    vertex 0.03613217814525145 0.01027926930463706 0
    vertex 0.03870015536669012 0.0116108792155293 0.005411223503126577
  endloop
endfacet
facet normal -0.460335 0.887745 1.61128e-16
  outer loop
    vertex 0.03414984614160525 0.009251342374173353 0.005331045657842087
    vertex 0.0362670306625063 0.01034919630670942 0.01254751886404401
    vertex 0.03870015536669012 0.0116108792155293 0.005411223503126577
  endloop
endfacet
facet normal -0.460335 0.887745 2.30973e-16
  outer loop
    vertex 0.03613217814525145 0.01027926930463706 0
    vertex 0.03414984614160525 0.009251342374173353 0.005331045657842087
    vertex 0.03870015536669012 0.0116108792155293 0.005411223503126577
  endloop
endfacet
facet normal -0.460335 0.887745 -3.76029e-17
  outer loop
    vertex 0.0362670306625063 0.01034919630670942 0.01254751886404401
    vertex 0.04273995149073878 0.01370569240618275 0.009999999999999972
    vertex 0.03870015536669012 0.0116108792155293 0.005411223503126577
  endloop
endfacet
facet normal -0.460335 0.887745 1.73803e-16
  outer loop
    vertex 0.03414984614160525 0.009251342374173353 0.005331045657842087
    vertex 0.02952440479976412 0.006852846203091373 0.01000000000000003
    vertex 0.0362670306625063 0.01034919630670942 0.01254751886404401
  endloop
endfacet
endsolid Created by Gmsh
