solid Created by Gmsh
facet normal -0.988653 -0.150217 1.26291e-15
  outer loop
    vertex 0.03563084231640916 0.04641624361504539 0.01000000000000003
    vertex 0.03462334010635408 0.05304713556005187 0.009999999999999972
    vertex 0.03512709121138161 0.04973168958754863 0.004999999999999999
  endloop
endfacet
facet normal -0.988653 -0.150217 -1.4776e-15
  outer loop
    vertex 0.03462334010635408 0.05304713556005187 0.009999999999999972
    vertex 0.03563084231640916 0.04641624361504539 0.01000000000000003
    vertex 0.03512709121138161 0.04973168958754862 0.015
  endloop
endfacet
facet normal -0.988653 -0.150217 -1.26291e-15
  outer loop
    vertex 0.03462334010635408 0.05304713556005187 0
    vertex 0.03563084231640916 0.04641624361504539 0
    vertex 0.03512709121138161 0.04973168958754863 0.004999999999999999
  endloop
endfacet
facet normal -0.988653 -0.150217 1.4776e-15
  outer loop
    vertex 0.03563084231640916 0.04641624361504539 0.02
    vertex 0.03462334010635408 0.05304713556005187 0.02
    vertex 0.03512709121138161 0.04973168958754862 0.015
  endloop
endfacet
facet normal -0.988653 -0.150217 -0
  outer loop
    vertex 0.03462334010635408 0.05304713556005187 0.009999999999999972
    vertex 0.03462334010635408 0.05304713556005187 0
    vertex 0.03512709121138161 0.04973168958754863 0.004999999999999999
  endloop
endfacet
facet normal -0.988653 -0.150217 -0
  outer loop
    vertex 0.03462334010635408 0.05304713556005187 0.02
    vertex 0.03462334010635408 0.05304713556005187 0.009999999999999972
    vertex 0.03512709121138161 0.04973168958754862 0.015
  endloop
endfacet
facet normal -0.988653 -0.150217 0
  outer loop
    vertex 0.03563084231640916 0.04641624361504539 0
    vertex 0.03563084231640916 0.04641624361504539 0.01000000000000003
    vertex 0.03512709121138161 0.04973168958754863 0.004999999999999999
  endloop
endfacet
facet normal -0.988653 -0.150217 0
  outer loop
    vertex 0.03563084231640916 0.04641624361504539 0.01000000000000003
    vertex 0.03563084231640916 0.04641624361504539 0.02
    vertex 0.03512709121138161 0.04973168958754862 0.015
  endloop
endfacet
facet normal -0.478651 0.878005 0
  outer loop
    vertex 0.02346757940148755 0.0397853516700389 0
    vertex 0.02346757940148755 0.0397853516700389 0.01000000000000003
    vertex 0.02772472142171011 0.04210616385079118 0.005
  endloop
endfacet
facet normal -0.478651 0.878005 0
  outer loop
    vertex 0.03563084231640916 0.04641624361504539 0.02
    vertex 0.03563084231640916 0.04641624361504539 0.009999999999999972
    vertex 0.0313737002961866 0.04409543143429312 0.015
  endloop
endfacet
facet normal -0.478651 0.878005 0
  outer loop
    vertex 0.02346757940148755 0.0397853516700389 0.01000000000000003
    vertex 0.02346757940148755 0.0397853516700389 0.02
    vertex 0.02748145616341168 0.04197354601189104 0.015
  endloop
endfacet
facet normal -0.478651 0.878005 0
  outer loop
    vertex 0.03563084231640916 0.04641624361504539 0.009999999999999972
    vertex 0.03563084231640916 0.04641624361504539 0
    vertex 0.03161696555448503 0.04422804927319325 0.004999999999999992
  endloop
endfacet
facet normal -0.478651 0.878005 -9.78289e-16
  outer loop
    vertex 0.02954921085894835 0.04310079764254214 0
    vertex 0.02346757940148755 0.0397853516700389 0
    vertex 0.02772472142171011 0.04210616385079118 0.005
  endloop
endfacet
facet normal -0.478651 0.878005 3.91316e-16
  outer loop
    vertex 0.02954921085894835 0.04310079764254214 0.02
    vertex 0.03563084231640916 0.04641624361504539 0.02
    vertex 0.0313737002961866 0.04409543143429312 0.015
  endloop
endfacet
facet normal -0.478651 0.878005 4.89145e-16
  outer loop
    vertex 0.02346757940148755 0.0397853516700389 0.02
    vertex 0.02954921085894835 0.04310079764254214 0.02
    vertex 0.02748145616341168 0.04197354601189104 0.015
  endloop
endfacet
facet normal -0.478651 0.878005 -8.31546e-16
  outer loop
    vertex 0.03563084231640916 0.04641624361504539 0
    vertex 0.02954921085894835 0.04310079764254214 0
    vertex 0.03161696555448503 0.04422804927319325 0.004999999999999992
  endloop
endfacet
facet normal -0.478651 0.878005 6.49645e-16
  outer loop
    vertex 0.02954921085894835 0.04310079764254214 0.02
    vertex 0.0313737002961866 0.04409543143429312 0.015
    vertex 0.02748145616341168 0.04197354601189104 0.015
  endloop
endfacet
facet normal -0.478651 0.878005 -1.10822e-15
  outer loop
    vertex 0.02954921085894835 0.04310079764254214 0
    vertex 0.02772472142171011 0.04210616385079118 0.005
    vertex 0.03161696555448503 0.04422804927319325 0.004999999999999992
  endloop
endfacet
facet normal -0.478651 0.878005 2.67501e-16
  outer loop
    vertex 0.02748145616341168 0.04197354601189104 0.015
    vertex 0.0313737002961866 0.04409543143429312 0.015
    vertex 0.02954921085894836 0.04310079764254215 0.009999999999999998
  endloop
endfacet
facet normal -0.478651 0.878005 2.67501e-16
  outer loop
    vertex 0.03161696555448503 0.04422804927319325 0.004999999999999992
    vertex 0.02772472142171011 0.04210616385079118 0.005
    vertex 0.02954921085894836 0.04310079764254215 0.009999999999999998
  endloop
endfacet
facet normal -0.478651 0.878005 4.89145e-17
  outer loop
    vertex 0.02346757940148755 0.0397853516700389 0.01000000000000003
    vertex 0.02748145616341168 0.04197354601189104 0.015
    vertex 0.02954921085894836 0.04310079764254215 0.009999999999999998
  endloop
endfacet
facet normal -0.478651 0.878005 3.66858e-16
  outer loop
    vertex 0.02772472142171011 0.04210616385079118 0.005
    vertex 0.02346757940148755 0.0397853516700389 0.01000000000000003
    vertex 0.02954921085894836 0.04310079764254215 0.009999999999999998
  endloop
endfacet
facet normal -0.478651 0.878005 1.95658e-16
  outer loop
    vertex 0.0313737002961866 0.04409543143429312 0.015
    vertex 0.03563084231640916 0.04641624361504539 0.009999999999999972
    vertex 0.02954921085894836 0.04310079764254215 0.009999999999999998
  endloop
endfacet
facet normal -0.478651 0.878005 2.44572e-16
  outer loop
    vertex 0.03563084231640916 0.04641624361504539 0.009999999999999972
    vertex 0.03161696555448503 0.04422804927319325 0.004999999999999992
    vertex 0.02954921085894836 0.04310079764254215 0.009999999999999998
  endloop
endfacet
facet normal -0.956516 0.29168 5.37617e-16
  outer loop
    vertex 0.02346757940148755 0.0397853516700389 0.009999999999999972
    vertex 0.02144555644571755 0.03315445972503242 0.01000000000000003
    vertex 0.02245656792360255 0.03646990569753566 0.015
  endloop
endfacet
facet normal -0.956516 0.29168 5.37617e-16
  outer loop
    vertex 0.02346757940148755 0.0397853516700389 0
    vertex 0.02144555644571755 0.03315445972503242 0
    vertex 0.02245656792360255 0.03646990569753566 0.004999999999999999
  endloop
endfacet
facet normal -0.956516 0.29168 -5.37617e-16
  outer loop
    vertex 0.02144555644571755 0.03315445972503242 0.01000000000000003
    vertex 0.02346757940148755 0.0397853516700389 0.009999999999999972
    vertex 0.02245656792360255 0.03646990569753566 0.004999999999999999
  endloop
endfacet
facet normal -0.956516 0.29168 -5.37617e-16
  outer loop
    vertex 0.02144555644571755 0.03315445972503242 0.02
    vertex 0.02346757940148755 0.0397853516700389 0.02
    vertex 0.02245656792360255 0.03646990569753566 0.015
  endloop
endfacet
facet normal -0.956516 0.29168 0
  outer loop
    vertex 0.02346757940148755 0.0397853516700389 0.009999999999999972
    vertex 0.02346757940148755 0.0397853516700389 0
    vertex 0.02245656792360255 0.03646990569753566 0.004999999999999999
  endloop
endfacet
facet normal -0.956516 0.29168 0
  outer loop
    vertex 0.02346757940148755 0.0397853516700389 0.02
    vertex 0.02346757940148755 0.0397853516700389 0.009999999999999972
    vertex 0.02245656792360255 0.03646990569753566 0.015
  endloop
endfacet
facet normal -0.956516 0.29168 0
  outer loop
    vertex 0.02144555644571755 0.03315445972503242 0
    vertex 0.02144555644571755 0.03315445972503242 0.01000000000000003
    vertex 0.02245656792360255 0.03646990569753566 0.004999999999999999
  endloop
endfacet
facet normal -0.956516 0.29168 0
  outer loop
    vertex 0.02144555644571755 0.03315445972503242 0.01000000000000003
    vertex 0.02144555644571755 0.03315445972503242 0.02
    vertex 0.02245656792360255 0.03646990569753566 0.015
  endloop
endfacet
facet normal -0.948233 -0.317576 -8.96345e-16
  outer loop
    vertex 0.02144555644571755 0.03315445972503242 0
    vertex 0.0236663342529374 0.02652356778002593 0
    vertex 0.02255594534932747 0.02983901375252918 0.005
  endloop
endfacet
facet normal -0.948233 -0.317576 -4.3606e-16
  outer loop
    vertex 0.02144555644571755 0.03315445972503242 0.009999999999999972
    vertex 0.0236663342529374 0.02652356778002593 0.01000000000000003
    vertex 0.02255594534932747 0.02983901375252918 0.015
  endloop
endfacet
facet normal -0.948233 -0.317576 4.3606e-16
  outer loop
    vertex 0.0236663342529374 0.02652356778002593 0.02
    vertex 0.02144555644571755 0.03315445972503242 0.02
    vertex 0.02255594534932747 0.02983901375252918 0.015
  endloop
endfacet
facet normal -0.948233 -0.317576 8.72119e-16
  outer loop
    vertex 0.0236663342529374 0.02652356778002593 0.01000000000000003
    vertex 0.02144555644571755 0.03315445972503242 0.009999999999999972
    vertex 0.02255594534932747 0.02983901375252918 0.005
  endloop
endfacet
facet normal -0.948233 -0.317576 -0
  outer loop
    vertex 0.02144555644571755 0.03315445972503242 0.009999999999999972
    vertex 0.02144555644571755 0.03315445972503242 0
    vertex 0.02255594534932747 0.02983901375252918 0.005
  endloop
endfacet
facet normal -0.948233 -0.317576 -0
  outer loop
    vertex 0.02144555644571755 0.03315445972503242 0.02
    vertex 0.02144555644571755 0.03315445972503242 0.009999999999999972
    vertex 0.02255594534932747 0.02983901375252918 0.015
  endloop
endfacet
facet normal -0.948233 -0.317576 0
  outer loop
    vertex 0.0236663342529374 0.02652356778002593 0
    vertex 0.0236663342529374 0.02652356778002593 0.01000000000000003
    vertex 0.02255594534932747 0.02983901375252918 0.005
  endloop
endfacet
facet normal -0.948233 -0.317576 0
  outer loop
    vertex 0.0236663342529374 0.02652356778002593 0.01000000000000003
    vertex 0.0236663342529374 0.02652356778002593 0.02
    vertex 0.02255594534932747 0.02983901375252918 0.015
  endloop
endfacet
facet normal -0.485164 -0.874423 0
  outer loop
    vertex 0.03561735185032467 0.01989267583501945 0
    vertex 0.03561735185032467 0.01989267583501945 0.01000000000000003
    vertex 0.03143449569123913 0.02221348801577171 0.005000000000000004
  endloop
endfacet
facet normal -0.485164 -0.874423 -0
  outer loop
    vertex 0.0236663342529374 0.02652356778002593 0.02
    vertex 0.0236663342529374 0.02652356778002593 0.009999999999999972
    vertex 0.02784919041202294 0.02420275559927366 0.015
  endloop
endfacet
facet normal -0.485164 -0.874423 -0
  outer loop
    vertex 0.0236663342529374 0.02652356778002593 0.009999999999999972
    vertex 0.0236663342529374 0.02652356778002593 0
    vertex 0.0276101700600752 0.02433537343817379 0.004999999999999998
  endloop
endfacet
facet normal -0.485164 -0.874423 0
  outer loop
    vertex 0.03561735185032467 0.01989267583501945 0.01000000000000003
    vertex 0.03561735185032467 0.01989267583501945 0.02
    vertex 0.03167351604318687 0.02208087017687158 0.01500000000000001
  endloop
endfacet
facet normal -0.485164 -0.874423 1.2395e-15
  outer loop
    vertex 0.02964184305163103 0.0232081218075227 0.02
    vertex 0.0236663342529374 0.02652356778002593 0.02
    vertex 0.02784919041202294 0.02420275559927366 0.015
  endloop
endfacet
facet normal -0.485164 -0.874423 -8.42861e-16
  outer loop
    vertex 0.02964184305163104 0.02320812180752269 0
    vertex 0.03561735185032467 0.01989267583501945 0
    vertex 0.03143449569123913 0.02221348801577171 0.005000000000000004
  endloop
endfacet
facet normal -0.485164 -0.874423 -7.93281e-16
  outer loop
    vertex 0.0236663342529374 0.02652356778002593 0
    vertex 0.02964184305163104 0.02320812180752269 0
    vertex 0.0276101700600752 0.02433537343817379 0.004999999999999998
  endloop
endfacet
facet normal -0.485164 -0.874423 1.28908e-15
  outer loop
    vertex 0.03561735185032467 0.01989267583501945 0.02
    vertex 0.02964184305163103 0.0232081218075227 0.02
    vertex 0.03167351604318687 0.02208087017687158 0.01500000000000001
  endloop
endfacet
facet normal -0.485164 -0.874423 1.33634e-15
  outer loop
    vertex 0.02964184305163103 0.0232081218075227 0.02
    vertex 0.02784919041202294 0.02420275559927366 0.015
    vertex 0.03167351604318687 0.02208087017687158 0.01500000000000001
  endloop
endfacet
facet normal -0.485164 -0.874423 -7.55321e-16
  outer loop
    vertex 0.02964184305163104 0.02320812180752269 0
    vertex 0.03143449569123913 0.02221348801577171 0.005000000000000004
    vertex 0.0276101700600752 0.02433537343817379 0.004999999999999998
  endloop
endfacet
facet normal -0.485164 -0.874423 4.26079e-16
  outer loop
    vertex 0.0276101700600752 0.02433537343817379 0.004999999999999998
    vertex 0.03143449569123913 0.02221348801577171 0.005000000000000004
    vertex 0.02964184305163104 0.02320812180752269 0.01
  endloop
endfacet
facet normal -0.485164 -0.874423 -5.03547e-16
  outer loop
    vertex 0.03167351604318687 0.02208087017687158 0.01500000000000001
    vertex 0.02784919041202294 0.02420275559927366 0.015
    vertex 0.02964184305163104 0.02320812180752269 0.01
  endloop
endfacet
facet normal -0.485164 -0.874423 -6.69331e-16
  outer loop
    vertex 0.02784919041202294 0.02420275559927366 0.015
    vertex 0.0236663342529374 0.02652356778002593 0.009999999999999972
    vertex 0.02964184305163104 0.02320812180752269 0.01
  endloop
endfacet
facet normal -0.485164 -0.874423 5.94961e-16
  outer loop
    vertex 0.0236663342529374 0.02652356778002593 0.009999999999999972
    vertex 0.0276101700600752 0.02433537343817379 0.004999999999999998
    vertex 0.02964184305163104 0.02320812180752269 0.01
  endloop
endfacet
facet normal -0.485164 -0.874423 -7.43701e-16
  outer loop
    vertex 0.03561735185032467 0.01989267583501945 0.01000000000000003
    vertex 0.03167351604318687 0.02208087017687158 0.01500000000000001
    vertex 0.02964184305163104 0.02320812180752269 0.01
  endloop
endfacet
facet normal -0.485164 -0.874423 6.19751e-16
  outer loop
    vertex 0.03143449569123913 0.02221348801577171 0.005000000000000004
    vertex 0.03561735185032467 0.01989267583501945 0.01000000000000003
    vertex 0.02964184305163104 0.02320812180752269 0.01
  endloop
endfacet
facet normal -0.502881 0.864356 5.13906e-17
  outer loop
    vertex 0.02422012642182666 0.01326178389001297 0.01000000000000003
    vertex 0.02991873913607568 0.01657722986251621 0.02
    vertex 0.03561735185032467 0.01989267583501945 0.009999999999999972
  endloop
endfacet
facet normal -0.502881 0.864356 2.56953e-17
  outer loop
    vertex 0.02991873913607565 0.0165772298625162 0
    vertex 0.02422012642182666 0.01326178389001297 0.01000000000000003
    vertex 0.03561735185032467 0.01989267583501945 0.009999999999999972
  endloop
endfacet
facet normal -0.502881 0.864356 0
  outer loop
    vertex 0.02991873913607565 0.0165772298625162 0
    vertex 0.03561735185032467 0.01989267583501945 0.009999999999999972
    vertex 0.03561735185032467 0.01989267583501945 0
  endloop
endfacet
facet normal -0.502881 0.864356 0
  outer loop
    vertex 0.03561735185032467 0.01989267583501945 0.009999999999999972
    vertex 0.02991873913607568 0.01657722986251621 0.02
    vertex 0.03561735185032467 0.01989267583501945 0.02
  endloop
endfacet
facet normal -0.502881 0.864356 0
  outer loop
    vertex 0.02422012642182666 0.01326178389001297 0.01000000000000003
    vertex 0.02991873913607565 0.0165772298625162 0
    vertex 0.02422012642182666 0.01326178389001297 0
  endloop
endfacet
facet normal -0.502881 0.864356 0
  outer loop
    vertex 0.02991873913607568 0.01657722986251621 0.02
    vertex 0.02422012642182666 0.01326178389001297 0.01000000000000003
    vertex 0.02422012642182666 0.01326178389001297 0.02
  endloop
endfacet
facet normal -0.975144 0.221573 0
  outer loop
    vertex 0.02271344800636959 0.006630891945006483 0.01000000000000003
    vertex 0.02422012642182666 0.01326178389001297 0.009999999999999972
    vertex 0.02346678721409813 0.009946337917509724 0.005
  endloop
endfacet
facet normal -0.975144 0.221573 0
  outer loop
    vertex 0.02422012642182666 0.01326178389001297 0.009999999999999972
    vertex 0.02271344800636959 0.006630891945006483 0.01000000000000003
    vertex 0.02346678721409813 0.009946337917509724 0.015
  endloop
endfacet
facet normal -0.975144 0.221573 0
  outer loop
    vertex 0.02271344800636959 0.006630891945006483 0.02
    vertex 0.02422012642182666 0.01326178389001297 0.02
    vertex 0.02346678721409813 0.009946337917509724 0.015
  endloop
endfacet
facet normal -0.975144 0.221573 0
  outer loop
    vertex 0.02422012642182666 0.01326178389001297 0
    vertex 0.02271344800636959 0.006630891945006483 0
    vertex 0.02346678721409813 0.009946337917509724 0.005
  endloop
endfacet
facet normal -0.975144 0.221573 0
  outer loop
    vertex 0.02422012642182666 0.01326178389001297 0.009999999999999972
    vertex 0.02422012642182666 0.01326178389001297 0
    vertex 0.02346678721409813 0.009946337917509724 0.005
  endloop
endfacet
facet normal -0.975144 0.221573 0
  outer loop
    vertex 0.02422012642182666 0.01326178389001297 0.02
    vertex 0.02422012642182666 0.01326178389001297 0.009999999999999972
    vertex 0.02346678721409813 0.009946337917509724 0.015
  endloop
endfacet
facet normal -0.975144 0.221573 0
  outer loop
    vertex 0.02271344800636959 0.006630891945006483 0
    vertex 0.02271344800636959 0.006630891945006483 0.01000000000000003
    vertex 0.02346678721409813 0.009946337917509724 0.005
  endloop
endfacet
facet normal -0.975144 0.221573 0
  outer loop
    vertex 0.02271344800636959 0.006630891945006483 0.01000000000000003
    vertex 0.02271344800636959 0.006630891945006483 0.02
    vertex 0.02346678721409813 0.009946337917509724 0.015
  endloop
endfacet
endsolid Created by Gmsh
