solid Created by Gmsh
facet normal 0.99509 0.0989772 4.59838e-17
  outer loop
    vertex 0.005981538231698794 0.02029305829199518 0
    vertex 0.006525045745141912 0.01482878355285993 0.01083905835937941
    vertex 0.006990769115849397 0.01014652914599759 0
  endloop
endfacet
facet normal 0.99509 0.0989772 3.7964e-17
  outer loop
    vertex 0.00497230734754819 0.03043958743799277 0.02
    vertex 0.00442995308706049 0.03589226768977273 0.009059352098597409
    vertex 0.003963076463397587 0.04058611658399036 0.02
  endloop
endfacet
facet normal 0.99509 0.0989772 2.29572e-17
  outer loop
    vertex 0.00497230734754819 0.03043958743799277 0.02
    vertex 0.005477114998449395 0.02536439045043476 0.009983068409662803
    vertex 0.00442995308706049 0.03589226768977273 0.009059352098597409
  endloop
endfacet
facet normal 0.99509 0.0989772 1.65859e-17
  outer loop
    vertex 0.005981538231698794 0.02029305829199517 0.02
    vertex 0.005477114998449395 0.02536439045043476 0.009983068409662803
    vertex 0.00497230734754819 0.03043958743799277 0.02
  endloop
endfacet
facet normal 0.99509 0.0989772 1.15442e-17
  outer loop
    vertex 0.005981538231698794 0.02029305829199518 0
    vertex 0.005477114998449395 0.02536439045043476 0.009983068409662803
    vertex 0.006525045745141912 0.01482878355285993 0.01083905835937941
  endloop
endfacet
facet normal 0.99509 0.0989772 8.32933e-18
  outer loop
    vertex 0.006525045745141912 0.01482878355285993 0.01083905835937941
    vertex 0.005477114998449395 0.02536439045043476 0.009983068409662803
    vertex 0.005981538231698794 0.02029305829199517 0.02
  endloop
endfacet
facet normal 0.99509 0.0989772 7.64815e-17
  outer loop
    vertex 0.006525045745141912 0.01482878355285993 0.01083905835937941
    vertex 0.007269004271647255 0.007349229576513877 0.007646675945025201
    vertex 0.006990769115849397 0.01014652914599759 0
  endloop
endfacet
facet normal 0.99509 0.0989772 2.46928e-17
  outer loop
    vertex 0.00442995308706049 0.03589226768977273 0.009059352098597409
    vertex 0.003666170350968 0.04357112880537824 0.01241332726551233
    vertex 0.003963076463397587 0.04058611658399036 0.02
  endloop
endfacet
facet normal 0.99509 0.0989772 -4.99266e-17
  outer loop
    vertex 0.004972307347548189 0.03043958743799278 0
    vertex 0.005477114998449395 0.02536439045043476 0.009983068409662803
    vertex 0.005981538231698794 0.02029305829199518 0
  endloop
endfacet
facet normal 0.99509 0.0989772 -1.00729e-16
  outer loop
    vertex 0.00442995308706049 0.03589226768977273 0.009059352098597409
    vertex 0.005477114998449395 0.02536439045043476 0.009983068409662803
    vertex 0.004972307347548189 0.03043958743799278 0
  endloop
endfacet
facet normal 0.99509 0.0989772 -7.33564e-17
  outer loop
    vertex 0.003963076463397588 0.04058611658399035 0
    vertex 0.00442995308706049 0.03589226768977273 0.009059352098597409
    vertex 0.004972307347548189 0.03043958743799278 0
  endloop
endfacet
facet normal 0.99509 0.0989772 3.62714e-17
  outer loop
    vertex 0.006990769115849395 0.0101465291459976 0.02
    vertex 0.006525045745141912 0.01482878355285993 0.01083905835937941
    vertex 0.005981538231698794 0.02029305829199517 0.02
  endloop
endfacet
facet normal 0.99509 0.0989772 -0
  outer loop
    vertex 0.008 0 0
    vertex 0.007269004271647255 0.007349229576513877 0.007646675945025201
    vertex 0.008 0 0.01000000000000003
  endloop
endfacet
facet normal 0.99509 0.0989772 0
  outer loop
    vertex 0.002953845579246983 0.05073264572998795 0.02
    vertex 0.003666170350968 0.04357112880537824 0.01241332726551233
    vertex 0.002953845579246983 0.05073264572998795 0.009999999999999972
  endloop
endfacet
facet normal 0.99509 0.0989772 7.06132e-17
  outer loop
    vertex 0.006990769115849397 0.01014652914599759 0
    vertex 0.007269004271647255 0.007349229576513877 0.007646675945025201
    vertex 0.008 0 0
  endloop
endfacet
facet normal 0.99509 0.0989772 2.73737e-17
  outer loop
    vertex 0.003963076463397587 0.04058611658399036 0.02
    vertex 0.003666170350968 0.04357112880537824 0.01241332726551233
    vertex 0.002953845579246983 0.05073264572998795 0.02
  endloop
endfacet
facet normal 0.99509 0.0989772 1.58512e-16
  outer loop
    vertex 0.006990769115849395 0.0101465291459976 0.02
    vertex 0.007396512606926852 0.006067295917338431 0.01406939061491495
    vertex 0.006525045745141912 0.01482878355285993 0.01083905835937941
  endloop
endfacet
facet normal 0.99509 0.0989772 -6.48438e-18
  outer loop
    vertex 0.003963076463397588 0.04058611658399035 0
    vertex 0.003554830443223517 0.04469050955044222 0.005924668480587098
    vertex 0.00442995308706049 0.03589226768977273 0.009059352098597409
  endloop
endfacet
facet normal 0.99509 0.0989772 -1.13178e-16
  outer loop
    vertex 0.006525045745141912 0.01482878355285993 0.01083905835937941
    vertex 0.007396512606926852 0.006067295917338431 0.01406939061491495
    vertex 0.007269004271647255 0.007349229576513877 0.007646675945025201
  endloop
endfacet
facet normal 0.99509 0.0989772 0
  outer loop
    vertex 0.00442995308706049 0.03589226768977273 0.009059352098597409
    vertex 0.003554830443223517 0.04469050955044222 0.005924668480587098
    vertex 0.003666170350968 0.04357112880537824 0.01241332726551233
  endloop
endfacet
facet normal 0.99509 0.0989772 1.96098e-16
  outer loop
    vertex 0.008 0 0.02
    vertex 0.007396512606926852 0.006067295917338431 0.01406939061491495
    vertex 0.006990769115849395 0.0101465291459976 0.02
  endloop
endfacet
facet normal 0.99509 0.0989772 -2.80421e-17
  outer loop
    vertex 0.002953845579246983 0.05073264572998795 0
    vertex 0.003554830443223517 0.04469050955044222 0.005924668480587098
    vertex 0.003963076463397588 0.04058611658399035 0
  endloop
endfacet
facet normal 0.99509 0.0989772 0
  outer loop
    vertex 0.002953845579246983 0.05073264572998795 0.009999999999999972
    vertex 0.003554830443223517 0.04469050955044222 0.005924668480587098
    vertex 0.002953845579246983 0.05073264572998795 0
  endloop
endfacet
facet normal 0.99509 0.0989772 -0
  outer loop
    vertex 0.008 0 0.01000000000000003
    vertex 0.007396512606926852 0.006067295917338431 0.01406939061491495
    vertex 0.008 0 0.02
  endloop
endfacet
facet normal 0.99509 0.0989772 -1.23994e-16
  outer loop
    vertex 0.007269004271647255 0.007349229576513877 0.007646675945025201
    vertex 0.007396512606926852 0.006067295917338431 0.01406939061491495
    vertex 0.008 0 0.01000000000000003
  endloop
endfacet
facet normal 0.99509 0.0989772 9.62906e-18
  outer loop
    vertex 0.003666170350968 0.04357112880537824 0.01241332726551233
    vertex 0.003554830443223517 0.04469050955044222 0.005924668480587098
    vertex 0.002953845579246983 0.05073264572998795 0.009999999999999972
  endloop
endfacet
endsolid Created by Gmsh
