solid Created by Gmsh
facet normal 1 0 0
  outer loop
    vertex 0.04 0.05721745686255057 0
    vertex 0.04 0.06 0
    vertex 0.04 0.06 0.009999999999999972
  endloop
endfacet
facet normal 1 0 0
  outer loop
    vertex 0.04 0.05721745686255057 0.01000000000000003
    vertex 0.04 0.06 0.02
    vertex 0.04 0.05721745686255057 0.02
  endloop
endfacet
facet normal 1 0 -0
  outer loop
    vertex 0.04 0.06 0.009999999999999972
    vertex 0.04 0.06 0.02
    vertex 0.04 0.05721745686255057 0.01000000000000003
  endloop
endfacet
facet normal 1 0 0
  outer loop
    vertex 0.04 0.05721745686255057 0
    vertex 0.04 0.06 0.009999999999999972
    vertex 0.04 0.05721745686255057 0.01000000000000003
  endloop
endfacet
facet normal 0.493077 -0.869986 1.86446e-16
  outer loop
    vertex 0.04 0.05721745686255057 0
    vertex 0.03356157079289439 0.05356838435856138 0.00751683112340448
    vertex 0.03369033937703651 0.05364136580864116 0
  endloop
endfacet
facet normal 0.493077 -0.869986 1.79648e-16
  outer loop
    vertex 0.03369033937703651 0.05364136580864116 0
    vertex 0.03356157079289439 0.05356838435856138 0.00751683112340448
    vertex 0.02738067875407301 0.05006527475473175 0
  endloop
endfacet
facet normal 0.493077 -0.869986 0
  outer loop
    vertex 0.02738067875407301 0.05006527475473175 0
    vertex 0.03356157079289439 0.05356838435856138 0.00751683112340448
    vertex 0.02738067875407301 0.05006527475473175 0.01000000000000003
  endloop
endfacet
facet normal 0.493077 -0.869986 0
  outer loop
    vertex 0.04 0.05721745686255057 0.009999999999999972
    vertex 0.03356157079289439 0.05356838435856138 0.00751683112340448
    vertex 0.04 0.05721745686255057 0
  endloop
endfacet
facet normal 0.493077 -0.869986 0
  outer loop
    vertex 0.04 0.05721745686255057 0.02
    vertex 0.03558323756392556 0.05471419312481399 0.01471099633395759
    vertex 0.04 0.05721745686255057 0.009999999999999972
  endloop
endfacet
facet normal 0.493077 -0.869986 0
  outer loop
    vertex 0.02738067875407301 0.05006527475473175 0.01000000000000003
    vertex 0.03123821762473028 0.05225159048069328 0.01460397535105173
    vertex 0.02738067875407301 0.05006527475473175 0.02
  endloop
endfacet
facet normal 0.493077 -0.869986 -6.62451e-16
  outer loop
    vertex 0.03369033937703651 0.05364136580864116 0.02
    vertex 0.03558323756392556 0.05471419312481399 0.01471099633395759
    vertex 0.04 0.05721745686255057 0.02
  endloop
endfacet
facet normal 0.493077 -0.869986 -8.22462e-16
  outer loop
    vertex 0.02738067875407301 0.05006527475473175 0.02
    vertex 0.03123821762473028 0.05225159048069328 0.01460397535105173
    vertex 0.03369033937703651 0.05364136580864116 0.02
  endloop
endfacet
facet normal 0.493077 -0.869986 1.18693e-16
  outer loop
    vertex 0.03558323756392556 0.05471419312481399 0.01471099633395759
    vertex 0.03123821762473028 0.05225159048069328 0.01460397535105173
    vertex 0.03356157079289439 0.05356838435856138 0.00751683112340448
  endloop
endfacet
facet normal 0.493077 -0.869986 -8.74114e-16
  outer loop
    vertex 0.03369033937703651 0.05364136580864116 0.02
    vertex 0.03123821762473028 0.05225159048069328 0.01460397535105173
    vertex 0.03558323756392556 0.05471419312481399 0.01471099633395759
  endloop
endfacet
facet normal 0.493077 -0.869986 1.24902e-16
  outer loop
    vertex 0.03558323756392556 0.05471419312481399 0.01471099633395759
    vertex 0.03356157079289439 0.05356838435856138 0.00751683112340448
    vertex 0.04 0.05721745686255057 0.009999999999999972
  endloop
endfacet
facet normal 0.493077 -0.869986 3.48734e-16
  outer loop
    vertex 0.03356157079289439 0.05356838435856138 0.00751683112340448
    vertex 0.03123821762473028 0.05225159048069328 0.01460397535105173
    vertex 0.02738067875407301 0.05006527475473175 0.01000000000000003
  endloop
endfacet
facet normal 0.734122 0.679018 0
  outer loop
    vertex 0.02738067875407301 0.05006527475473175 0.02
    vertex 0.03068834650713046 0.04648918370082234 0.015
    vertex 0.02738067875407301 0.05006527475473175 0.009999999999999972
  endloop
endfacet
facet normal 0.734122 0.679018 -0
  outer loop
    vertex 0.0339960142601879 0.04291309264691293 0
    vertex 0.03068834650713046 0.04648918370082234 0.005
    vertex 0.0339960142601879 0.04291309264691293 0.01000000000000003
  endloop
endfacet
facet normal 0.734122 0.679018 0
  outer loop
    vertex 0.02738067875407301 0.05006527475473175 0.009999999999999972
    vertex 0.03068834650713046 0.04648918370082234 0.005
    vertex 0.02738067875407301 0.05006527475473175 0
  endloop
endfacet
facet normal 0.734122 0.679018 -0
  outer loop
    vertex 0.0339960142601879 0.04291309264691293 0.01000000000000003
    vertex 0.03068834650713046 0.04648918370082234 0.015
    vertex 0.0339960142601879 0.04291309264691293 0.02
  endloop
endfacet
facet normal 0.734122 0.679018 7.6509e-16
  outer loop
    vertex 0.0339960142601879 0.04291309264691293 0.01000000000000003
    vertex 0.03068834650713046 0.04648918370082234 0.005
    vertex 0.02738067875407301 0.05006527475473175 0.009999999999999972
  endloop
endfacet
facet normal 0.734122 0.679018 -7.6509e-16
  outer loop
    vertex 0.02738067875407301 0.05006527475473175 0.009999999999999972
    vertex 0.03068834650713046 0.04648918370082234 0.015
    vertex 0.0339960142601879 0.04291309264691293 0.01000000000000003
  endloop
endfacet
facet normal 0.734122 0.679018 7.6509e-16
  outer loop
    vertex 0.0339960142601879 0.04291309264691293 0.02
    vertex 0.03068834650713046 0.04648918370082234 0.015
    vertex 0.02738067875407301 0.05006527475473175 0.02
  endloop
endfacet
facet normal 0.734122 0.679018 -7.6509e-16
  outer loop
    vertex 0.02738067875407301 0.05006527475473175 0
    vertex 0.03068834650713046 0.04648918370082234 0.005
    vertex 0.0339960142601879 0.04291309264691293 0
  endloop
endfacet
facet normal 0.820319 0.571907 0
  outer loop
    vertex 0.0339960142601879 0.04291309264691293 0.02
    vertex 0.0364891805114073 0.03933700159300351 0.015
    vertex 0.0339960142601879 0.04291309264691293 0.009999999999999972
  endloop
endfacet
facet normal 0.820319 0.571907 -0
  outer loop
    vertex 0.03898234676262671 0.03576091053909411 0
    vertex 0.0364891805114073 0.03933700159300351 0.004999999999999999
    vertex 0.03898234676262671 0.03576091053909411 0.01000000000000003
  endloop
endfacet
facet normal 0.820319 0.571907 0
  outer loop
    vertex 0.0339960142601879 0.04291309264691293 0.009999999999999972
    vertex 0.0364891805114073 0.03933700159300351 0.004999999999999999
    vertex 0.0339960142601879 0.04291309264691293 0
  endloop
endfacet
facet normal 0.820319 0.571907 -0
  outer loop
    vertex 0.03898234676262671 0.03576091053909411 0.01000000000000003
    vertex 0.0364891805114073 0.03933700159300351 0.015
    vertex 0.03898234676262671 0.03576091053909411 0.02
  endloop
endfacet
facet normal 0.820319 0.571907 1.94301e-15
  outer loop
    vertex 0.0339960142601879 0.04291309264691293 0.009999999999999972
    vertex 0.0364891805114073 0.03933700159300351 0.015
    vertex 0.03898234676262671 0.03576091053909411 0.01000000000000003
  endloop
endfacet
facet normal 0.820319 0.571907 -1.94301e-15
  outer loop
    vertex 0.03898234676262671 0.03576091053909411 0.01000000000000003
    vertex 0.0364891805114073 0.03933700159300351 0.004999999999999999
    vertex 0.0339960142601879 0.04291309264691293 0.009999999999999972
  endloop
endfacet
facet normal 0.820319 0.571907 1.94301e-15
  outer loop
    vertex 0.0339960142601879 0.04291309264691293 0
    vertex 0.0364891805114073 0.03933700159300351 0.004999999999999999
    vertex 0.03898234676262671 0.03576091053909411 0
  endloop
endfacet
facet normal 0.820319 0.571907 -1.94301e-15
  outer loop
    vertex 0.03898234676262671 0.03576091053909411 0.02
    vertex 0.0364891805114073 0.03933700159300351 0.015
    vertex 0.0339960142601879 0.04291309264691293 0.02
  endloop
endfacet
facet normal 0.507453 -0.86168 0
  outer loop
    vertex 0.02683759446057342 0.02860872843127529 0
    vertex 0.03108825776629207 0.03111199216901188 0.005000000000000005
    vertex 0.02683759446057342 0.02860872843127529 0.01000000000000003
  endloop
endfacet
facet normal 0.507453 -0.86168 0
  outer loop
    vertex 0.03898234676262671 0.03576091053909411 0.02
    vertex 0.03473168345690805 0.03325764680135752 0.015
    vertex 0.03898234676262671 0.03576091053909411 0.009999999999999972
  endloop
endfacet
facet normal 0.507453 -0.86168 0
  outer loop
    vertex 0.02683759446057342 0.02860872843127529 0.01000000000000003
    vertex 0.030845362720251 0.0309689485268555 0.01500000000000001
    vertex 0.02683759446057342 0.02860872843127529 0.02
  endloop
endfacet
facet normal 0.507453 -0.86168 0
  outer loop
    vertex 0.03898234676262671 0.03576091053909411 0.009999999999999972
    vertex 0.03497457850294912 0.0334006904435139 0.004999999999999998
    vertex 0.03898234676262671 0.03576091053909411 0
  endloop
endfacet
facet normal 0.507453 -0.86168 3.84625e-16
  outer loop
    vertex 0.03290997061160007 0.0321848194851847 0
    vertex 0.03108825776629207 0.03111199216901188 0.005000000000000005
    vertex 0.02683759446057342 0.02860872843127529 0
  endloop
endfacet
facet normal 0.507453 -0.86168 -1.61062e-15
  outer loop
    vertex 0.03290997061160007 0.03218481948518469 0.02
    vertex 0.03473168345690805 0.03325764680135752 0.015
    vertex 0.03898234676262671 0.03576091053909411 0.02
  endloop
endfacet
facet normal 0.507453 -0.86168 -4.80781e-17
  outer loop
    vertex 0.03898234676262671 0.03576091053909411 0
    vertex 0.03497457850294912 0.0334006904435139 0.004999999999999998
    vertex 0.03290997061160007 0.0321848194851847 0
  endloop
endfacet
facet normal 0.507453 -0.86168 -8.17328e-16
  outer loop
    vertex 0.02683759446057342 0.02860872843127529 0.02
    vertex 0.030845362720251 0.0309689485268555 0.01500000000000001
    vertex 0.03290997061160007 0.03218481948518469 0.02
  endloop
endfacet
facet normal 0.507453 -0.86168 -1.42732e-15
  outer loop
    vertex 0.03290997061160007 0.03218481948518469 0.02
    vertex 0.030845362720251 0.0309689485268555 0.01500000000000001
    vertex 0.03473168345690805 0.03325764680135752 0.015
  endloop
endfacet
facet normal 0.507453 -0.86168 1.87805e-17
  outer loop
    vertex 0.03290997061160007 0.0321848194851847 0
    vertex 0.03497457850294912 0.0334006904435139 0.004999999999999998
    vertex 0.03108825776629207 0.03111199216901188 0.005000000000000005
  endloop
endfacet
facet normal 0.507453 -0.86168 7.13659e-16
  outer loop
    vertex 0.03497457850294912 0.0334006904435139 0.004999999999999998
    vertex 0.03290997061160006 0.0321848194851847 0.01
    vertex 0.03108825776629207 0.03111199216901188 0.005000000000000005
  endloop
endfacet
facet normal 0.507453 -0.86168 -4.88293e-16
  outer loop
    vertex 0.030845362720251 0.0309689485268555 0.01500000000000001
    vertex 0.03290997061160006 0.0321848194851847 0.01
    vertex 0.03473168345690805 0.03325764680135752 0.015
  endloop
endfacet
facet normal 0.507453 -0.86168 4.80781e-16
  outer loop
    vertex 0.03898234676262671 0.03576091053909411 0.009999999999999972
    vertex 0.03290997061160006 0.0321848194851847 0.01
    vertex 0.03497457850294912 0.0334006904435139 0.004999999999999998
  endloop
endfacet
facet normal 0.507453 -0.86168 2.6443e-16
  outer loop
    vertex 0.03473168345690805 0.03325764680135752 0.015
    vertex 0.03290997061160006 0.0321848194851847 0.01
    vertex 0.03898234676262671 0.03576091053909411 0.009999999999999972
  endloop
endfacet
facet normal 0.507453 -0.86168 9.61562e-17
  outer loop
    vertex 0.03108825776629207 0.03111199216901188 0.005000000000000005
    vertex 0.03290997061160006 0.0321848194851847 0.01
    vertex 0.02683759446057342 0.02860872843127529 0.01000000000000003
  endloop
endfacet
facet normal 0.507453 -0.86168 -4.32703e-16
  outer loop
    vertex 0.02683759446057342 0.02860872843127529 0.01000000000000003
    vertex 0.03290997061160006 0.0321848194851847 0.01
    vertex 0.030845362720251 0.0309689485268555 0.01500000000000001
  endloop
endfacet
facet normal 0.339856 0.940478 0
  outer loop
    vertex 0.02683759446057342 0.02860872843127529 0.02
    vertex 0.03437941872006126 0.0258833780527641 0.01209797856423663
    vertex 0.02683759446057342 0.02860872843127529 0.009999999999999972
  endloop
endfacet
facet normal 0.339856 0.940478 4.07482e-17
  outer loop
    vertex 0.03673366157809567 0.02503263737736588 0.02
    vertex 0.03437941872006126 0.0258833780527641 0.01209797856423663
    vertex 0.02683759446057342 0.02860872843127529 0.02
  endloop
endfacet
facet normal 0.339856 0.940478 -1.75171e-16
  outer loop
    vertex 0.03673366157809568 0.02503263737736587 0
    vertex 0.03975991953027205 0.02393905405167904 0.007352664441282727
    vertex 0.04662972869561794 0.02145654632345646 0
  endloop
endfacet
facet normal 0.339856 0.940478 -0
  outer loop
    vertex 0.04662972869561794 0.02145654632345646 0
    vertex 0.03975991953027205 0.02393905405167904 0.007352664441282727
    vertex 0.04662972869561794 0.02145654632345646 0.01000000000000003
  endloop
endfacet
facet normal 0.339856 0.940478 -5.36216e-17
  outer loop
    vertex 0.04662972869561794 0.02145654632345646 0.02
    vertex 0.0408793390959119 0.02353453514060903 0.01399509099984065
    vertex 0.03673366157809567 0.02503263737736588 0.02
  endloop
endfacet
facet normal 0.339856 0.940478 0
  outer loop
    vertex 0.02683759446057342 0.02860872843127529 0
    vertex 0.03178562801933455 0.02682068290432058 0.004999999999999986
    vertex 0.03673366157809568 0.02503263737736587 0
  endloop
endfacet
facet normal 0.339856 0.940478 0
  outer loop
    vertex 0.02683759446057342 0.02860872843127529 0.009999999999999972
    vertex 0.03178562801933455 0.02682068290432058 0.004999999999999986
    vertex 0.02683759446057342 0.02860872843127529 0
  endloop
endfacet
facet normal 0.339856 0.940478 -0
  outer loop
    vertex 0.04662972869561794 0.02145654632345646 0.01000000000000003
    vertex 0.0408793390959119 0.02353453514060903 0.01399509099984065
    vertex 0.04662972869561794 0.02145654632345646 0.02
  endloop
endfacet
facet normal 0.339856 0.940478 -2.31968e-16
  outer loop
    vertex 0.03673366157809568 0.02503263737736587 0
    vertex 0.03178562801933455 0.02682068290432058 0.004999999999999986
    vertex 0.03975991953027205 0.02393905405167904 0.007352664441282727
  endloop
endfacet
facet normal 0.339856 0.940478 -1.26199e-16
  outer loop
    vertex 0.03975991953027205 0.02393905405167904 0.007352664441282727
    vertex 0.03178562801933455 0.02682068290432058 0.004999999999999986
    vertex 0.03437941872006126 0.0258833780527641 0.01209797856423663
  endloop
endfacet
facet normal 0.339856 0.940478 0
  outer loop
    vertex 0.0408793390959119 0.02353453514060903 0.01399509099984065
    vertex 0.03437941872006126 0.0258833780527641 0.01209797856423663
    vertex 0.03673366157809567 0.02503263737736588 0.02
  endloop
endfacet
facet normal 0.339856 0.940478 -1.65651e-16
  outer loop
    vertex 0.03437941872006126 0.0258833780527641 0.01209797856423663
    vertex 0.03178562801933455 0.02682068290432058 0.004999999999999986
    vertex 0.02683759446057342 0.02860872843127529 0.009999999999999972
  endloop
endfacet
facet normal 0.339856 0.940478 4.85131e-17
  outer loop
    vertex 0.0408793390959119 0.02353453514060903 0.01399509099984065
    vertex 0.03975991953027205 0.02393905405167904 0.007352664441282727
    vertex 0.03437941872006126 0.0258833780527641 0.01209797856423663
  endloop
endfacet
facet normal 0.339856 0.940478 7.46791e-17
  outer loop
    vertex 0.04662972869561794 0.02145654632345646 0.01000000000000003
    vertex 0.03975991953027205 0.02393905405167904 0.007352664441282727
    vertex 0.0408793390959119 0.02353453514060903 0.01399509099984065
  endloop
endfacet
facet normal 0.537957 -0.842972 0
  outer loop
    vertex 0.04102603506391946 0.01788045526954705 0.02
    vertex 0.03542234143222097 0.01430436421563765 0.01000000000000003
    vertex 0.04662972869561794 0.02145654632345646 0.009999999999999972
  endloop
endfacet
facet normal 0.537957 -0.842972 0
  outer loop
    vertex 0.04662972869561794 0.02145654632345646 0.009999999999999972
    vertex 0.03542234143222097 0.01430436421563765 0.01000000000000003
    vertex 0.04102603506391946 0.01788045526954705 0
  endloop
endfacet
facet normal 0.537957 -0.842972 0
  outer loop
    vertex 0.04102603506391946 0.01788045526954705 0
    vertex 0.04662972869561794 0.02145654632345646 0
    vertex 0.04662972869561794 0.02145654632345646 0.009999999999999972
  endloop
endfacet
facet normal 0.537957 -0.842972 0
  outer loop
    vertex 0.04662972869561794 0.02145654632345646 0.009999999999999972
    vertex 0.04662972869561794 0.02145654632345646 0.02
    vertex 0.04102603506391946 0.01788045526954705 0.02
  endloop
endfacet
facet normal 0.537957 -0.842972 0
  outer loop
    vertex 0.04102603506391946 0.01788045526954705 0
    vertex 0.03542234143222097 0.01430436421563765 0.01000000000000003
    vertex 0.03542234143222097 0.01430436421563765 0
  endloop
endfacet
facet normal 0.537957 -0.842972 0
  outer loop
    vertex 0.03542234143222097 0.01430436421563765 0.02
    vertex 0.03542234143222097 0.01430436421563765 0.01000000000000003
    vertex 0.04102603506391946 0.01788045526954705 0.02
  endloop
endfacet
facet normal 0.99407 0.108744 6.94593e-16
  outer loop
    vertex 0.03542234143222097 0.01430436421563765 0.009999999999999972
    vertex 0.03581353963088047 0.01072827316172823 0.015
    vertex 0.03620473782953998 0.007152182107818823 0.01000000000000003
  endloop
endfacet
facet normal 0.99407 0.108744 -6.94593e-16
  outer loop
    vertex 0.03620473782953998 0.007152182107818823 0.01000000000000003
    vertex 0.03581353963088047 0.01072827316172823 0.005
    vertex 0.03542234143222097 0.01430436421563765 0.009999999999999972
  endloop
endfacet
facet normal 0.99407 0.108744 6.94593e-16
  outer loop
    vertex 0.03542234143222097 0.01430436421563765 0
    vertex 0.03581353963088047 0.01072827316172823 0.005
    vertex 0.03620473782953998 0.007152182107818823 0
  endloop
endfacet
facet normal 0.99407 0.108744 -6.94593e-16
  outer loop
    vertex 0.03620473782953998 0.007152182107818823 0.02
    vertex 0.03581353963088047 0.01072827316172823 0.015
    vertex 0.03542234143222097 0.01430436421563765 0.02
  endloop
endfacet
facet normal 0.99407 0.108744 0
  outer loop
    vertex 0.03542234143222097 0.01430436421563765 0.009999999999999972
    vertex 0.03581353963088047 0.01072827316172823 0.005
    vertex 0.03542234143222097 0.01430436421563765 0
  endloop
endfacet
facet normal 0.99407 0.108744 0
  outer loop
    vertex 0.03542234143222097 0.01430436421563765 0.02
    vertex 0.03581353963088047 0.01072827316172823 0.015
    vertex 0.03542234143222097 0.01430436421563765 0.009999999999999972
  endloop
endfacet
facet normal 0.99407 0.108744 -0
  outer loop
    vertex 0.03620473782953998 0.007152182107818823 0
    vertex 0.03581353963088047 0.01072827316172823 0.005
    vertex 0.03620473782953998 0.007152182107818823 0.01000000000000003
  endloop
endfacet
facet normal 0.99407 0.108744 -0
  outer loop
    vertex 0.03620473782953998 0.007152182107818823 0.01000000000000003
    vertex 0.03581353963088047 0.01072827316172823 0.015
    vertex 0.03620473782953998 0.007152182107818823 0.02
  endloop
endfacet
endsolid Created by Gmsh
