solid Created by Gmsh
facet normal -0.811191 -0.584781 -0
  outer loop
    vertex 0.03541397519342818 0.05081006585235964 0.02
    vertex 0.03541397519342818 0.05081006585235964 0.009999999999999972
    vertex 0.03770326015259236 0.04763443673658715 0.015
  endloop
endfacet
facet normal -0.811191 -0.584781 0
  outer loop
    vertex 0.03999254511175655 0.04445880762081468 0
    vertex 0.03999254511175655 0.04445880762081468 0.01000000000000003
    vertex 0.03770326015259236 0.04763443673658715 0.004999999999999999
  endloop
endfacet
facet normal -0.811191 -0.584781 -0
  outer loop
    vertex 0.03541397519342818 0.05081006585235964 0.009999999999999972
    vertex 0.03541397519342818 0.05081006585235964 0
    vertex 0.03770326015259236 0.04763443673658715 0.004999999999999999
  endloop
endfacet
facet normal -0.811191 -0.584781 0
  outer loop
    vertex 0.03999254511175655 0.04445880762081468 0.01000000000000003
    vertex 0.03999254511175655 0.04445880762081468 0.02
    vertex 0.03770326015259236 0.04763443673658715 0.015
  endloop
endfacet
facet normal -0.811191 -0.584781 1.51458e-15
  outer loop
    vertex 0.03999254511175655 0.04445880762081468 0.02
    vertex 0.03541397519342818 0.05081006585235964 0.02
    vertex 0.03770326015259236 0.04763443673658715 0.015
  endloop
endfacet
facet normal -0.811191 -0.584781 1.51458e-15
  outer loop
    vertex 0.03999254511175655 0.04445880762081468 0.01000000000000003
    vertex 0.03541397519342818 0.05081006585235964 0.009999999999999972
    vertex 0.03770326015259236 0.04763443673658715 0.004999999999999999
  endloop
endfacet
facet normal -0.811191 -0.584781 -1.51458e-15
  outer loop
    vertex 0.03541397519342818 0.05081006585235964 0
    vertex 0.03999254511175655 0.04445880762081468 0
    vertex 0.03770326015259236 0.04763443673658715 0.004999999999999999
  endloop
endfacet
facet normal -0.811191 -0.584781 -1.51458e-15
  outer loop
    vertex 0.03541397519342818 0.05081006585235964 0.009999999999999972
    vertex 0.03999254511175655 0.04445880762081468 0.01000000000000003
    vertex 0.03770326015259236 0.04763443673658715 0.015
  endloop
endfacet
facet normal -0.925512 0.378719 2.96233e-16
  outer loop
    vertex 0.03739361147172565 0.03810754938926973 0.01000000000000003
    vertex 0.03999254511175655 0.04445880762081468 0.009999999999999972
    vertex 0.0386930782917411 0.04128317850504221 0.005
  endloop
endfacet
facet normal -0.925512 0.378719 -2.46861e-16
  outer loop
    vertex 0.03999254511175655 0.04445880762081468 0.009999999999999972
    vertex 0.03739361147172565 0.03810754938926973 0.01000000000000003
    vertex 0.0386930782917411 0.04128317850504221 0.015
  endloop
endfacet
facet normal -0.925512 0.378719 2.96233e-16
  outer loop
    vertex 0.03739361147172565 0.03810754938926973 0.02
    vertex 0.03999254511175655 0.04445880762081468 0.02
    vertex 0.0386930782917411 0.04128317850504221 0.015
  endloop
endfacet
facet normal -0.925512 0.378719 -2.46861e-16
  outer loop
    vertex 0.03999254511175655 0.04445880762081468 0
    vertex 0.03739361147172565 0.03810754938926973 0
    vertex 0.0386930782917411 0.04128317850504221 0.005
  endloop
endfacet
facet normal -0.925512 0.378719 0
  outer loop
    vertex 0.03999254511175655 0.04445880762081468 0.009999999999999972
    vertex 0.03999254511175655 0.04445880762081468 0
    vertex 0.0386930782917411 0.04128317850504221 0.005
  endloop
endfacet
facet normal -0.925512 0.378719 0
  outer loop
    vertex 0.03999254511175655 0.04445880762081468 0.02
    vertex 0.03999254511175655 0.04445880762081468 0.009999999999999972
    vertex 0.0386930782917411 0.04128317850504221 0.015
  endloop
endfacet
facet normal -0.925512 0.378719 0
  outer loop
    vertex 0.03739361147172565 0.03810754938926973 0
    vertex 0.03739361147172565 0.03810754938926973 0.01000000000000003
    vertex 0.0386930782917411 0.04128317850504221 0.005
  endloop
endfacet
facet normal -0.925512 0.378719 0
  outer loop
    vertex 0.03739361147172565 0.03810754938926973 0.01000000000000003
    vertex 0.03739361147172565 0.03810754938926973 0.02
    vertex 0.0386930782917411 0.04128317850504221 0.015
  endloop
endfacet
facet normal -0.890945 0.454111 -3.32697e-16
  outer loop
    vertex 0.03739361147172565 0.03810754938926973 0
    vertex 0.03415640249407589 0.03175629115772477 0
    vertex 0.03577500698290077 0.03493192027349724 0.005
  endloop
endfacet
facet normal -0.890945 0.454111 -3.32697e-16
  outer loop
    vertex 0.03739361147172565 0.03810754938926973 0.009999999999999972
    vertex 0.03415640249407589 0.03175629115772477 0.01000000000000003
    vertex 0.03577500698290077 0.03493192027349724 0.015
  endloop
endfacet
facet normal -0.890945 0.454111 2.85169e-16
  outer loop
    vertex 0.03415640249407589 0.03175629115772477 0.01000000000000003
    vertex 0.03739361147172565 0.03810754938926973 0.009999999999999972
    vertex 0.03577500698290077 0.03493192027349724 0.005
  endloop
endfacet
facet normal -0.890945 0.454111 2.85169e-16
  outer loop
    vertex 0.03415640249407589 0.03175629115772477 0.02
    vertex 0.03739361147172565 0.03810754938926973 0.02
    vertex 0.03577500698290077 0.03493192027349724 0.015
  endloop
endfacet
facet normal -0.890945 0.454111 0
  outer loop
    vertex 0.03739361147172565 0.03810754938926973 0.009999999999999972
    vertex 0.03739361147172565 0.03810754938926973 0
    vertex 0.03577500698290077 0.03493192027349724 0.005
  endloop
endfacet
facet normal -0.890945 0.454111 0
  outer loop
    vertex 0.03739361147172565 0.03810754938926973 0.02
    vertex 0.03739361147172565 0.03810754938926973 0.009999999999999972
    vertex 0.03577500698290077 0.03493192027349724 0.015
  endloop
endfacet
facet normal -0.890945 0.454111 0
  outer loop
    vertex 0.03415640249407589 0.03175629115772477 0
    vertex 0.03415640249407589 0.03175629115772477 0.01000000000000003
    vertex 0.03577500698290077 0.03493192027349724 0.005
  endloop
endfacet
facet normal -0.890945 0.454111 0
  outer loop
    vertex 0.03415640249407589 0.03175629115772477 0.01000000000000003
    vertex 0.03415640249407589 0.03175629115772477 0.02
    vertex 0.03577500698290077 0.03493192027349724 0.015
  endloop
endfacet
facet normal -0.885217 -0.465179 1.36946e-15
  outer loop
    vertex 0.03749397090007899 0.02540503292617982 0.01000000000000003
    vertex 0.03415640249407589 0.03175629115772477 0.009999999999999972
    vertex 0.03582518669707743 0.02858066204195229 0.004999999999999999
  endloop
endfacet
facet normal -0.885217 -0.465179 -1.41668e-15
  outer loop
    vertex 0.03415640249407589 0.03175629115772477 0.009999999999999972
    vertex 0.03749397090007899 0.02540503292617982 0.01000000000000003
    vertex 0.03582518669707743 0.02858066204195229 0.015
  endloop
endfacet
facet normal -0.885217 -0.465179 -1.41668e-15
  outer loop
    vertex 0.03415640249407589 0.03175629115772477 0
    vertex 0.03749397090007899 0.02540503292617982 0
    vertex 0.03582518669707743 0.02858066204195229 0.004999999999999999
  endloop
endfacet
facet normal -0.885217 -0.465179 1.36946e-15
  outer loop
    vertex 0.03749397090007899 0.02540503292617982 0.02
    vertex 0.03415640249407589 0.03175629115772477 0.02
    vertex 0.03582518669707743 0.02858066204195229 0.015
  endloop
endfacet
facet normal -0.885217 -0.465179 -0
  outer loop
    vertex 0.03415640249407589 0.03175629115772477 0.009999999999999972
    vertex 0.03415640249407589 0.03175629115772477 0
    vertex 0.03582518669707743 0.02858066204195229 0.004999999999999999
  endloop
endfacet
facet normal -0.885217 -0.465179 -0
  outer loop
    vertex 0.03415640249407589 0.03175629115772477 0.02
    vertex 0.03415640249407589 0.03175629115772477 0.009999999999999972
    vertex 0.03582518669707743 0.02858066204195229 0.015
  endloop
endfacet
facet normal -0.885217 -0.465179 0
  outer loop
    vertex 0.03749397090007899 0.02540503292617982 0
    vertex 0.03749397090007899 0.02540503292617982 0.01000000000000003
    vertex 0.03582518669707743 0.02858066204195229 0.004999999999999999
  endloop
endfacet
facet normal -0.885217 -0.465179 0
  outer loop
    vertex 0.03749397090007899 0.02540503292617982 0.01000000000000003
    vertex 0.03749397090007899 0.02540503292617982 0.02
    vertex 0.03582518669707743 0.02858066204195229 0.015
  endloop
endfacet
facet normal -0.802784 -0.59627 -0
  outer loop
    vertex 0.03749397090007899 0.02540503292617982 0.02
    vertex 0.03749397090007899 0.02540503292617982 0.009999999999999972
    vertex 0.03985268002111116 0.02222940381040735 0.015
  endloop
endfacet
facet normal -0.802784 -0.59627 0
  outer loop
    vertex 0.04221138914214331 0.01905377469463487 0
    vertex 0.04221138914214331 0.01905377469463487 0.01000000000000003
    vertex 0.03985268002111116 0.02222940381040735 0.005
  endloop
endfacet
facet normal -0.802784 -0.59627 -0
  outer loop
    vertex 0.03749397090007899 0.02540503292617982 0.009999999999999972
    vertex 0.03749397090007899 0.02540503292617982 0
    vertex 0.03985268002111116 0.02222940381040735 0.005
  endloop
endfacet
facet normal -0.802784 -0.59627 0
  outer loop
    vertex 0.04221138914214331 0.01905377469463487 0.01000000000000003
    vertex 0.04221138914214331 0.01905377469463487 0.02
    vertex 0.03985268002111116 0.02222940381040735 0.015
  endloop
endfacet
facet normal -0.802784 -0.59627 1.1991e-15
  outer loop
    vertex 0.03749397090007899 0.02540503292617982 0.009999999999999972
    vertex 0.04221138914214331 0.01905377469463487 0.01000000000000003
    vertex 0.03985268002111116 0.02222940381040735 0.015
  endloop
endfacet
facet normal -0.802784 -0.59627 1.1991e-15
  outer loop
    vertex 0.03749397090007899 0.02540503292617982 0
    vertex 0.04221138914214331 0.01905377469463487 0
    vertex 0.03985268002111116 0.02222940381040735 0.005
  endloop
endfacet
facet normal -0.802784 -0.59627 -1.15628e-15
  outer loop
    vertex 0.04221138914214331 0.01905377469463487 0.02
    vertex 0.03749397090007899 0.02540503292617982 0.02
    vertex 0.03985268002111116 0.02222940381040735 0.015
  endloop
endfacet
facet normal -0.802784 -0.59627 -1.15628e-15
  outer loop
    vertex 0.04221138914214331 0.01905377469463487 0.01000000000000003
    vertex 0.03749397090007899 0.02540503292617982 0.009999999999999972
    vertex 0.03985268002111116 0.02222940381040735 0.005
  endloop
endfacet
facet normal -0.991814 -0.127695 -6.87819e-16
  outer loop
    vertex 0.04302910514437084 0.01270251646308991 0.01000000000000003
    vertex 0.04221138914214331 0.01905377469463487 0.009999999999999972
    vertex 0.04262024714325708 0.01587814557886239 0.005000000000000001
  endloop
endfacet
facet normal -0.991814 -0.127695 6.87819e-16
  outer loop
    vertex 0.04221138914214331 0.01905377469463487 0.009999999999999972
    vertex 0.04302910514437084 0.01270251646308991 0.01000000000000003
    vertex 0.04262024714325708 0.01587814557886239 0.015
  endloop
endfacet
facet normal -0.991814 -0.127695 -6.87819e-16
  outer loop
    vertex 0.04302910514437084 0.01270251646308991 0.02
    vertex 0.04221138914214331 0.01905377469463487 0.02
    vertex 0.04262024714325708 0.01587814557886239 0.015
  endloop
endfacet
facet normal -0.991814 -0.127695 6.87819e-16
  outer loop
    vertex 0.04221138914214331 0.01905377469463487 0
    vertex 0.04302910514437084 0.01270251646308991 0
    vertex 0.04262024714325708 0.01587814557886239 0.005000000000000001
  endloop
endfacet
facet normal -0.991814 -0.127695 -0
  outer loop
    vertex 0.04221138914214331 0.01905377469463487 0.009999999999999972
    vertex 0.04221138914214331 0.01905377469463487 0
    vertex 0.04262024714325708 0.01587814557886239 0.005000000000000001
  endloop
endfacet
facet normal -0.991814 -0.127695 -0
  outer loop
    vertex 0.04221138914214331 0.01905377469463487 0.02
    vertex 0.04221138914214331 0.01905377469463487 0.009999999999999972
    vertex 0.04262024714325708 0.01587814557886239 0.015
  endloop
endfacet
facet normal -0.991814 -0.127695 0
  outer loop
    vertex 0.04302910514437084 0.01270251646308991 0
    vertex 0.04302910514437084 0.01270251646308991 0.01000000000000003
    vertex 0.04262024714325708 0.01587814557886239 0.005000000000000001
  endloop
endfacet
facet normal -0.991814 -0.127695 0
  outer loop
    vertex 0.04302910514437084 0.01270251646308991 0.01000000000000003
    vertex 0.04302910514437084 0.01270251646308991 0.02
    vertex 0.04262024714325708 0.01587814557886239 0.015
  endloop
endfacet
facet normal -0.35226 0.935902 1.94376e-16
  outer loop
    vertex 0.02615474330293137 0.006351258231544955 0.02
    vertex 0.03459192422365108 0.009526887347317424 0.02
    vertex 0.0332117805803279 0.009007421855363566 0.01226588302712375
  endloop
endfacet
facet normal -0.35226 0.935902 0
  outer loop
    vertex 0.02615474330293137 0.006351258231544955 0.01000000000000003
    vertex 0.02615474330293137 0.006351258231544955 0.02
    vertex 0.0332117805803279 0.009007421855363566 0.01226588302712375
  endloop
endfacet
facet normal -0.35226 0.935902 0
  outer loop
    vertex 0.04302910514437084 0.01270251646308991 0.009999999999999972
    vertex 0.04302910514437084 0.01270251646308991 0
    vertex 0.03719514566448272 0.01050670108842219 0.006555994576767026
  endloop
endfacet
facet normal -0.35226 0.935902 -2.86632e-16
  outer loop
    vertex 0.04302910514437084 0.01270251646308991 0
    vertex 0.03459192422365113 0.009526887347317442 0
    vertex 0.03719514566448272 0.01050670108842219 0.006555994576767026
  endloop
endfacet
facet normal -0.35226 0.935902 0
  outer loop
    vertex 0.04302910514437084 0.01270251646308991 0.02
    vertex 0.04302910514437084 0.01270251646308991 0.009999999999999972
    vertex 0.03865456337919779 0.01105600415901795 0.01477666585950308
  endloop
endfacet
facet normal -0.35226 0.935902 0
  outer loop
    vertex 0.02615474330293137 0.006351258231544955 0
    vertex 0.02615474330293137 0.006351258231544955 0.01000000000000003
    vertex 0.0314616674148649 0.008348705350838623 0.005764375520778161
  endloop
endfacet
facet normal -0.35226 0.935902 6.11596e-16
  outer loop
    vertex 0.03459192422365108 0.009526887347317424 0.02
    vertex 0.04302910514437084 0.01270251646308991 0.02
    vertex 0.03865456337919779 0.01105600415901795 0.01477666585950308
  endloop
endfacet
facet normal -0.35226 0.935902 -4.23794e-16
  outer loop
    vertex 0.03459192422365113 0.009526887347317442 0
    vertex 0.02615474330293137 0.006351258231544955 0
    vertex 0.0314616674148649 0.008348705350838623 0.005764375520778161
  endloop
endfacet
facet normal -0.35226 0.935902 -1.8333e-16
  outer loop
    vertex 0.03719514566448272 0.01050670108842219 0.006555994576767026
    vertex 0.0332117805803279 0.009007421855363566 0.01226588302712375
    vertex 0.03865456337919779 0.01105600415901795 0.01477666585950308
  endloop
endfacet
facet normal -0.35226 0.935902 -2.95435e-16
  outer loop
    vertex 0.04302910514437084 0.01270251646308991 0.009999999999999972
    vertex 0.03719514566448272 0.01050670108842219 0.006555994576767026
    vertex 0.03865456337919779 0.01105600415901795 0.01477666585950308
  endloop
endfacet
facet normal -0.35226 0.935902 2.20875e-17
  outer loop
    vertex 0.0314616674148649 0.008348705350838623 0.005764375520778161
    vertex 0.0332117805803279 0.009007421855363566 0.01226588302712375
    vertex 0.03719514566448272 0.01050670108842219 0.006555994576767026
  endloop
endfacet
facet normal -0.35226 0.935902 1.13476e-16
  outer loop
    vertex 0.0314616674148649 0.008348705350838623 0.005764375520778161
    vertex 0.02615474330293137 0.006351258231544955 0.01000000000000003
    vertex 0.0332117805803279 0.009007421855363566 0.01226588302712375
  endloop
endfacet
facet normal -0.35226 0.935902 2.56518e-16
  outer loop
    vertex 0.0332117805803279 0.009007421855363566 0.01226588302712375
    vertex 0.03459192422365108 0.009526887347317424 0.02
    vertex 0.03865456337919779 0.01105600415901795 0.01477666585950308
  endloop
endfacet
facet normal -0.35226 0.935902 -3.68167e-16
  outer loop
    vertex 0.03459192422365113 0.009526887347317442 0
    vertex 0.0314616674148649 0.008348705350838623 0.005764375520778161
    vertex 0.03719514566448272 0.01050670108842219 0.006555994576767026
  endloop
endfacet
endsolid Created by Gmsh
