solid Created by Gmsh
facet normal 0.994806 -0.101793 -6.24391e-18
  outer loop
    vertex 0.01278106477586058 0.04672441875670538 0.02
    vertex 0.01307988132435187 0.04964469492899946 0.008446921700848341
    vertex 0.01397633096982573 0.05840552344588172 0.02
  endloop
endfacet
facet normal 0.994806 -0.101793 0
  outer loop
    vertex 0.01397633096982573 0.05840552344588172 0.009999999999999972
    vertex 0.01307988132435187 0.04964469492899946 0.008446921700848341
    vertex 0.01397633096982573 0.05840552344588172 0
  endloop
endfacet
facet normal 0.994806 -0.101793 0
  outer loop
    vertex 0.008 0 0
    vertex 0.008896449645473859 0.008760828516882254 0.008446921700848341
    vertex 0.008 0 0.01000000000000003
  endloop
endfacet
facet normal 0.994806 -0.101793 1.70799e-17
  outer loop
    vertex 0.01397633096982573 0.05840552344588172 0
    vertex 0.01307988132435187 0.04964469492899946 0.008446921700848341
    vertex 0.01278106477586058 0.04672441875670538 0
  endloop
endfacet
facet normal 0.994806 -0.101793 -8.11297e-17
  outer loop
    vertex 0.009195266193965145 0.01168110468917634 0
    vertex 0.008896449645473859 0.008760828516882254 0.008446921700848341
    vertex 0.008 0 0
  endloop
endfacet
facet normal 0.994806 -0.101793 -1.48107e-17
  outer loop
    vertex 0.01278106477586058 0.04672441875670538 0
    vertex 0.01213362892079613 0.04039715371673486 0.009741153616808058
    vertex 0.01158579858189544 0.03504331406752903 0
  endloop
endfacet
facet normal 0.994806 -0.101793 -1.40633e-17
  outer loop
    vertex 0.009195266193965145 0.01168110468917634 0.02
    vertex 0.009842702049029598 0.01800836972914686 0.009741153616808057
    vertex 0.01039053238793029 0.02336220937835269 0.02
  endloop
endfacet
facet normal 0.994806 -0.101793 4.4432e-17
  outer loop
    vertex 0.01039053238793029 0.02336220937835268 0
    vertex 0.009842702049029598 0.01800836972914686 0.009741153616808057
    vertex 0.009195266193965145 0.01168110468917634 0
  endloop
endfacet
facet normal 0.994806 -0.101793 5.6253e-17
  outer loop
    vertex 0.01158579858189544 0.03504331406752904 0.02
    vertex 0.01213362892079613 0.04039715371673486 0.009741153616808058
    vertex 0.01278106477586058 0.04672441875670538 0.02
  endloop
endfacet
facet normal 0.994806 -0.101793 7.21364e-17
  outer loop
    vertex 0.01158579858189544 0.03504331406752903 0
    vertex 0.01098816548491286 0.02920276172294086 0.01
    vertex 0.01039053238793029 0.02336220937835268 0
  endloop
endfacet
facet normal 0.994806 -0.101793 2.2891e-17
  outer loop
    vertex 0.01039053238793029 0.02336220937835268 0
    vertex 0.01098816548491286 0.02920276172294086 0.01
    vertex 0.009842702049029598 0.01800836972914686 0.009741153616808057
  endloop
endfacet
facet normal 0.994806 -0.101793 -1.11405e-17
  outer loop
    vertex 0.01158579858189544 0.03504331406752904 0.02
    vertex 0.01098816548491286 0.02920276172294086 0.01
    vertex 0.01213362892079613 0.04039715371673486 0.009741153616808058
  endloop
endfacet
facet normal 0.994806 -0.101793 4.45619e-17
  outer loop
    vertex 0.009842702049029598 0.01800836972914686 0.009741153616808057
    vertex 0.01098816548491286 0.02920276172294086 0.01
    vertex 0.01039053238793029 0.02336220937835269 0.02
  endloop
endfacet
facet normal 0.994806 -0.101793 8.39336e-17
  outer loop
    vertex 0.01213362892079613 0.04039715371673486 0.009741153616808058
    vertex 0.01098816548491286 0.02920276172294086 0.01
    vertex 0.01158579858189544 0.03504331406752903 0
  endloop
endfacet
facet normal 0.994806 -0.101793 0
  outer loop
    vertex 0.01039053238793029 0.02336220937835269 0.02
    vertex 0.01098816548491286 0.02920276172294086 0.01
    vertex 0.01158579858189544 0.03504331406752904 0.02
  endloop
endfacet
facet normal 0.994806 -0.101793 2.45289e-17
  outer loop
    vertex 0.01213362892079613 0.04039715371673486 0.009741153616808058
    vertex 0.01307988132435187 0.04964469492899946 0.008446921700848341
    vertex 0.01278106477586058 0.04672441875670538 0.02
  endloop
endfacet
facet normal 0.994806 -0.101793 0
  outer loop
    vertex 0.009195266193965145 0.01168110468917634 0.02
    vertex 0.008896449645473859 0.008760828516882254 0.008446921700848341
    vertex 0.009842702049029598 0.01800836972914686 0.009741153616808057
  endloop
endfacet
facet normal 0.994806 -0.101793 -2.74118e-16
  outer loop
    vertex 0.008 0 0.02
    vertex 0.008551923456830111 0.005393840896861044 0.01500000000000002
    vertex 0.009195266193965145 0.01168110468917634 0.02
  endloop
endfacet
facet normal 0.994806 -0.101793 1.12524e-16
  outer loop
    vertex 0.009195266193965145 0.01168110468917634 0.02
    vertex 0.008551923456830111 0.005393840896861044 0.01500000000000002
    vertex 0.008896449645473859 0.008760828516882254 0.008446921700848341
  endloop
endfacet
facet normal 0.994806 -0.101793 -2.8296e-17
  outer loop
    vertex 0.01278106477586058 0.04672441875670538 0
    vertex 0.01307988132435187 0.04964469492899946 0.008446921700848341
    vertex 0.01213362892079613 0.04039715371673486 0.009741153616808058
  endloop
endfacet
facet normal 0.994806 -0.101793 -4.11579e-17
  outer loop
    vertex 0.009842702049029598 0.01800836972914686 0.009741153616808057
    vertex 0.008896449645473859 0.008760828516882254 0.008446921700848341
    vertex 0.009195266193965145 0.01168110468917634 0
  endloop
endfacet
facet normal 0.994806 -0.101793 0
  outer loop
    vertex 0.008 0 0.01000000000000003
    vertex 0.008551923456830111 0.005393840896861044 0.01500000000000002
    vertex 0.008 0 0.02
  endloop
endfacet
facet normal 0.994806 -0.101793 2.66446e-16
  outer loop
    vertex 0.008896449645473859 0.008760828516882254 0.008446921700848341
    vertex 0.008551923456830111 0.005393840896861044 0.01500000000000002
    vertex 0.008 0 0.01000000000000003
  endloop
endfacet
facet normal 0.994806 -0.101793 0
  outer loop
    vertex 0.01397633096982573 0.05840552344588172 0.02
    vertex 0.01307988132435187 0.04964469492899946 0.008446921700848341
    vertex 0.01397633096982573 0.05840552344588172 0.009999999999999972
  endloop
endfacet
endsolid Created by Gmsh
