solid Created by Gmsh
facet normal -0.545883 0.837862 7.6878e-17
  outer loop
    vertex 0.03260940962205898 0.05413026017973638 0
    vertex 0.02707053075353352 0.05052157616775396 0.01000000000000003
    vertex 0.03814828849058445 0.05773894419171881 0.009999999999999972
  endloop
endfacet
facet normal -0.545883 0.837862 1.02504e-16
  outer loop
    vertex 0.02707053075353352 0.05052157616775396 0.01000000000000003
    vertex 0.03260940962205899 0.05413026017973638 0.02
    vertex 0.03814828849058445 0.05773894419171881 0.009999999999999972
  endloop
endfacet
facet normal -0.545883 0.837862 0
  outer loop
    vertex 0.03260940962205898 0.05413026017973638 0
    vertex 0.03814828849058445 0.05773894419171881 0.009999999999999972
    vertex 0.03814828849058445 0.05773894419171881 0
  endloop
endfacet
facet normal -0.545883 0.837862 0
  outer loop
    vertex 0.03814828849058445 0.05773894419171881 0.009999999999999972
    vertex 0.03260940962205899 0.05413026017973638 0.02
    vertex 0.03814828849058445 0.05773894419171881 0.02
  endloop
endfacet
facet normal -0.545883 0.837862 0
  outer loop
    vertex 0.02707053075353352 0.05052157616775396 0.01000000000000003
    vertex 0.03260940962205898 0.05413026017973638 0
    vertex 0.02707053075353352 0.05052157616775396 0
  endloop
endfacet
facet normal -0.545883 0.837862 0
  outer loop
    vertex 0.03260940962205899 0.05413026017973638 0.02
    vertex 0.02707053075353352 0.05052157616775396 0.01000000000000003
    vertex 0.02707053075353352 0.05052157616775396 0.02
  endloop
endfacet
facet normal -0.979247 -0.202672 5.51639e-16
  outer loop
    vertex 0.02856429154930467 0.0433042081437891 0.02
    vertex 0.02707053075353352 0.05052157616775396 0.02
    vertex 0.02781741115141909 0.04691289215577153 0.015
  endloop
endfacet
facet normal -0.979247 -0.202672 5.51639e-16
  outer loop
    vertex 0.02856429154930467 0.0433042081437891 0.01000000000000003
    vertex 0.02707053075353352 0.05052157616775396 0.009999999999999972
    vertex 0.02781741115141909 0.04691289215577153 0.005
  endloop
endfacet
facet normal -0.979247 -0.202672 -5.51639e-16
  outer loop
    vertex 0.02707053075353352 0.05052157616775396 0
    vertex 0.02856429154930467 0.0433042081437891 0
    vertex 0.02781741115141909 0.04691289215577153 0.005
  endloop
endfacet
facet normal -0.979247 -0.202672 -5.51639e-16
  outer loop
    vertex 0.02707053075353352 0.05052157616775396 0.009999999999999972
    vertex 0.02856429154930467 0.0433042081437891 0.01000000000000003
    vertex 0.02781741115141909 0.04691289215577153 0.015
  endloop
endfacet
facet normal -0.979247 -0.202672 -0
  outer loop
    vertex 0.02707053075353352 0.05052157616775396 0.009999999999999972
    vertex 0.02707053075353352 0.05052157616775396 0
    vertex 0.02781741115141909 0.04691289215577153 0.005
  endloop
endfacet
facet normal -0.979247 -0.202672 -0
  outer loop
    vertex 0.02707053075353352 0.05052157616775396 0.02
    vertex 0.02707053075353352 0.05052157616775396 0.009999999999999972
    vertex 0.02781741115141909 0.04691289215577153 0.015
  endloop
endfacet
facet normal -0.979247 -0.202672 0
  outer loop
    vertex 0.02856429154930467 0.0433042081437891 0
    vertex 0.02856429154930467 0.0433042081437891 0.01000000000000003
    vertex 0.02781741115141909 0.04691289215577153 0.005
  endloop
endfacet
facet normal -0.979247 -0.202672 0
  outer loop
    vertex 0.02856429154930467 0.0433042081437891 0.01000000000000003
    vertex 0.02856429154930467 0.0433042081437891 0.02
    vertex 0.02781741115141909 0.04691289215577153 0.015
  endloop
endfacet
facet normal -0.766564 0.642168 0
  outer loop
    vertex 0.02856429154930467 0.0433042081437891 0.02
    vertex 0.02856429154930467 0.0433042081437891 0.009999999999999972
    vertex 0.02554121186714128 0.03969552413180668 0.015
  endloop
endfacet
facet normal -0.766564 0.642168 0
  outer loop
    vertex 0.0225181321849779 0.03608684011982426 0
    vertex 0.0225181321849779 0.03608684011982426 0.01000000000000003
    vertex 0.02554121186714128 0.03969552413180668 0.004999999999999999
  endloop
endfacet
facet normal -0.766564 0.642168 0
  outer loop
    vertex 0.02856429154930467 0.0433042081437891 0.009999999999999972
    vertex 0.02856429154930467 0.0433042081437891 0
    vertex 0.02554121186714128 0.03969552413180668 0.004999999999999999
  endloop
endfacet
facet normal -0.766564 0.642168 0
  outer loop
    vertex 0.0225181321849779 0.03608684011982426 0.01000000000000003
    vertex 0.0225181321849779 0.03608684011982426 0.02
    vertex 0.02554121186714128 0.03969552413180668 0.015
  endloop
endfacet
facet normal -0.766564 0.642168 5.03799e-16
  outer loop
    vertex 0.0225181321849779 0.03608684011982426 0.01000000000000003
    vertex 0.02856429154930467 0.0433042081437891 0.009999999999999972
    vertex 0.02554121186714128 0.03969552413180668 0.004999999999999999
  endloop
endfacet
facet normal -0.766564 0.642168 5.03799e-16
  outer loop
    vertex 0.0225181321849779 0.03608684011982426 0.02
    vertex 0.02856429154930467 0.0433042081437891 0.02
    vertex 0.02554121186714128 0.03969552413180668 0.015
  endloop
endfacet
facet normal -0.766564 0.642168 -5.03799e-16
  outer loop
    vertex 0.02856429154930467 0.0433042081437891 0.009999999999999972
    vertex 0.0225181321849779 0.03608684011982426 0.01000000000000003
    vertex 0.02554121186714128 0.03969552413180668 0.015
  endloop
endfacet
facet normal -0.766564 0.642168 -5.03799e-16
  outer loop
    vertex 0.02856429154930467 0.0433042081437891 0
    vertex 0.0225181321849779 0.03608684011982426 0
    vertex 0.02554121186714128 0.03969552413180668 0.004999999999999999
  endloop
endfacet
facet normal -0.998818 -0.048602 -2.93054e-17
  outer loop
    vertex 0.02286932582130926 0.0288694720958594 0.01000000000000003
    vertex 0.0225181321849779 0.03608684011982426 0.009999999999999972
    vertex 0.02269372900314358 0.03247815610784183 0.004999999999999996
  endloop
endfacet
facet normal -0.998818 -0.048602 -2.93054e-17
  outer loop
    vertex 0.0225181321849779 0.03608684011982426 0.009999999999999972
    vertex 0.02286932582130926 0.0288694720958594 0.01000000000000003
    vertex 0.02269372900314358 0.03247815610784183 0.015
  endloop
endfacet
facet normal -0.998818 -0.048602 3.51665e-17
  outer loop
    vertex 0.0225181321849779 0.03608684011982426 0
    vertex 0.02286932582130926 0.0288694720958594 0
    vertex 0.02269372900314358 0.03247815610784183 0.004999999999999996
  endloop
endfacet
facet normal -0.998818 -0.048602 3.51665e-17
  outer loop
    vertex 0.02286932582130926 0.0288694720958594 0.02
    vertex 0.0225181321849779 0.03608684011982426 0.02
    vertex 0.02269372900314358 0.03247815610784183 0.015
  endloop
endfacet
facet normal -0.998818 -0.048602 -0
  outer loop
    vertex 0.0225181321849779 0.03608684011982426 0.009999999999999972
    vertex 0.0225181321849779 0.03608684011982426 0
    vertex 0.02269372900314358 0.03247815610784183 0.004999999999999996
  endloop
endfacet
facet normal -0.998818 -0.048602 -0
  outer loop
    vertex 0.0225181321849779 0.03608684011982426 0.02
    vertex 0.0225181321849779 0.03608684011982426 0.009999999999999972
    vertex 0.02269372900314358 0.03247815610784183 0.015
  endloop
endfacet
facet normal -0.998818 -0.048602 0
  outer loop
    vertex 0.02286932582130926 0.0288694720958594 0
    vertex 0.02286932582130926 0.0288694720958594 0.01000000000000003
    vertex 0.02269372900314358 0.03247815610784183 0.004999999999999996
  endloop
endfacet
facet normal -0.998818 -0.048602 0
  outer loop
    vertex 0.02286932582130926 0.0288694720958594 0.01000000000000003
    vertex 0.02286932582130926 0.0288694720958594 0.02
    vertex 0.02269372900314358 0.03247815610784183 0.015
  endloop
endfacet
facet normal -0.876377 -0.481625 0
  outer loop
    vertex 0.02683572735120283 0.02165210407189455 0
    vertex 0.02683572735120283 0.02165210407189455 0.01000000000000003
    vertex 0.02485252658625604 0.02526078808387698 0.005000000000000001
  endloop
endfacet
facet normal -0.876377 -0.481625 -0
  outer loop
    vertex 0.02286932582130926 0.0288694720958594 0.02
    vertex 0.02286932582130926 0.0288694720958594 0.009999999999999972
    vertex 0.02485252658625604 0.02526078808387698 0.015
  endloop
endfacet
facet normal -0.876377 -0.481625 0
  outer loop
    vertex 0.02683572735120283 0.02165210407189455 0.01000000000000003
    vertex 0.02683572735120283 0.02165210407189455 0.02
    vertex 0.02485252658625604 0.02526078808387698 0.015
  endloop
endfacet
facet normal -0.876377 -0.481625 -0
  outer loop
    vertex 0.02286932582130926 0.0288694720958594 0.009999999999999972
    vertex 0.02286932582130926 0.0288694720958594 0
    vertex 0.02485252658625604 0.02526078808387698 0.005000000000000001
  endloop
endfacet
facet normal -0.876377 -0.481625 -6.17112e-16
  outer loop
    vertex 0.02286932582130926 0.0288694720958594 0.009999999999999972
    vertex 0.02683572735120283 0.02165210407189455 0.01000000000000003
    vertex 0.02485252658625604 0.02526078808387698 0.015
  endloop
endfacet
facet normal -0.876377 -0.481625 -6.17112e-16
  outer loop
    vertex 0.02286932582130926 0.0288694720958594 0
    vertex 0.02683572735120283 0.02165210407189455 0
    vertex 0.02485252658625604 0.02526078808387698 0.005000000000000001
  endloop
endfacet
facet normal -0.876377 -0.481625 6.17112e-16
  outer loop
    vertex 0.02683572735120283 0.02165210407189455 0.02
    vertex 0.02286932582130926 0.0288694720958594 0.02
    vertex 0.02485252658625604 0.02526078808387698 0.015
  endloop
endfacet
facet normal -0.876377 -0.481625 6.17112e-16
  outer loop
    vertex 0.02683572735120283 0.02165210407189455 0.01000000000000003
    vertex 0.02286932582130926 0.0288694720958594 0.009999999999999972
    vertex 0.02485252658625604 0.02526078808387698 0.005000000000000001
  endloop
endfacet
facet normal -0.501097 -0.865391 -2.17593e-16
  outer loop
    vertex 0.03306790332909953 0.01804342005991214 0.02
    vertex 0.02683572735120283 0.02165210407189455 0.02
    vertex 0.03294071606424451 0.01811706667240157 0.01246623357005177
  endloop
endfacet
facet normal -0.501097 -0.865391 -2.49793e-16
  outer loop
    vertex 0.03930007930699626 0.01443473604792971 0.02
    vertex 0.03306790332909953 0.01804342005991214 0.02
    vertex 0.03294071606424451 0.01811706667240157 0.01246623357005177
  endloop
endfacet
facet normal -0.501097 -0.865391 -0
  outer loop
    vertex 0.02683572735120283 0.02165210407189455 0.02
    vertex 0.02683572735120283 0.02165210407189455 0.009999999999999972
    vertex 0.03294071606424451 0.01811706667240157 0.01246623357005177
  endloop
endfacet
facet normal -0.501097 -0.865391 0
  outer loop
    vertex 0.03930007930699626 0.01443473604792971 0.01000000000000003
    vertex 0.03930007930699626 0.01443473604792971 0.02
    vertex 0.03294071606424451 0.01811706667240157 0.01246623357005177
  endloop
endfacet
facet normal -0.501097 -0.865391 0
  outer loop
    vertex 0.03930007930699626 0.01443473604792971 0
    vertex 0.03930007930699626 0.01443473604792971 0.01000000000000003
    vertex 0.03493755612246856 0.0169608148563174 0.005277939265767161
  endloop
endfacet
facet normal -0.501097 -0.865391 -0
  outer loop
    vertex 0.02683572735120283 0.02165210407189455 0.009999999999999972
    vertex 0.02683572735120283 0.02165210407189455 0
    vertex 0.03064589441407438 0.01944586198060384 0.005392024690831269
  endloop
endfacet
facet normal -0.501097 -0.865391 -2.22848e-16
  outer loop
    vertex 0.03306790332909956 0.01804342005991212 0
    vertex 0.03930007930699626 0.01443473604792971 0
    vertex 0.03493755612246856 0.0169608148563174 0.005277939265767161
  endloop
endfacet
facet normal -0.501097 -0.865391 -3.49013e-16
  outer loop
    vertex 0.02683572735120283 0.02165210407189455 0
    vertex 0.03306790332909956 0.01804342005991212 0
    vertex 0.03064589441407438 0.01944586198060384 0.005392024690831269
  endloop
endfacet
facet normal -0.501097 -0.865391 2.39376e-16
  outer loop
    vertex 0.03493755612246856 0.0169608148563174 0.005277939265767161
    vertex 0.03294071606424451 0.01811706667240157 0.01246623357005177
    vertex 0.03064589441407438 0.01944586198060384 0.005392024690831269
  endloop
endfacet
facet normal -0.501097 -0.865391 -3.52651e-16
  outer loop
    vertex 0.03306790332909956 0.01804342005991212 0
    vertex 0.03493755612246856 0.0169608148563174 0.005277939265767161
    vertex 0.03064589441407438 0.01944586198060384 0.005392024690831269
  endloop
endfacet
facet normal -0.501097 -0.865391 3.12516e-16
  outer loop
    vertex 0.03294071606424451 0.01811706667240157 0.01246623357005177
    vertex 0.02683572735120283 0.02165210407189455 0.009999999999999972
    vertex 0.03064589441407438 0.01944586198060384 0.005392024690831269
  endloop
endfacet
facet normal -0.501097 -0.865391 1.4377e-16
  outer loop
    vertex 0.03493755612246856 0.0169608148563174 0.005277939265767161
    vertex 0.03930007930699626 0.01443473604792971 0.01000000000000003
    vertex 0.03294071606424451 0.01811706667240157 0.01246623357005177
  endloop
endfacet
facet normal -0.873305 0.487174 0
  outer loop
    vertex 0.03930007930699626 0.01443473604792971 0.02
    vertex 0.03930007930699626 0.01443473604792971 0.009999999999999972
    vertex 0.03728696959698527 0.01082605203594728 0.015
  endloop
endfacet
facet normal -0.873305 0.487174 0
  outer loop
    vertex 0.0352738598869743 0.007217368023964853 0
    vertex 0.0352738598869743 0.007217368023964853 0.01000000000000003
    vertex 0.03728696959698527 0.01082605203594728 0.004999999999999999
  endloop
endfacet
facet normal -0.873305 0.487174 0
  outer loop
    vertex 0.03930007930699626 0.01443473604792971 0.009999999999999972
    vertex 0.03930007930699626 0.01443473604792971 0
    vertex 0.03728696959698527 0.01082605203594728 0.004999999999999999
  endloop
endfacet
facet normal -0.873305 0.487174 0
  outer loop
    vertex 0.0352738598869743 0.007217368023964853 0.01000000000000003
    vertex 0.0352738598869743 0.007217368023964853 0.02
    vertex 0.03728696959698527 0.01082605203594728 0.015
  endloop
endfacet
facet normal -0.873305 0.487174 -1.39388e-15
  outer loop
    vertex 0.03930007930699626 0.01443473604792971 0
    vertex 0.0352738598869743 0.007217368023964853 0
    vertex 0.03728696959698527 0.01082605203594728 0.004999999999999999
  endloop
endfacet
facet normal -0.873305 0.487174 1.39388e-15
  outer loop
    vertex 0.0352738598869743 0.007217368023964853 0.02
    vertex 0.03930007930699626 0.01443473604792971 0.02
    vertex 0.03728696959698527 0.01082605203594728 0.015
  endloop
endfacet
facet normal -0.873305 0.487174 1.39388e-15
  outer loop
    vertex 0.0352738598869743 0.007217368023964853 0.01000000000000003
    vertex 0.03930007930699626 0.01443473604792971 0.009999999999999972
    vertex 0.03728696959698527 0.01082605203594728 0.004999999999999999
  endloop
endfacet
facet normal -0.873305 0.487174 -1.39388e-15
  outer loop
    vertex 0.03930007930699626 0.01443473604792971 0.009999999999999972
    vertex 0.0352738598869743 0.007217368023964853 0.01000000000000003
    vertex 0.03728696959698527 0.01082605203594728 0.015
  endloop
endfacet
endsolid Created by Gmsh
