solid Created by Gmsh
facet normal 1 0 0
  outer loop
    vertex 0.04 0.05662231783557501 0
    vertex 0.04 0.06 0
    vertex 0.04 0.06 0.009999999999999972
  endloop
endfacet
facet normal 1 0 0
  outer loop
    vertex 0.04 0.05662231783557501 0.01000000000000003
    vertex 0.04 0.06 0.02
    vertex 0.04 0.05662231783557501 0.02
  endloop
endfacet
facet normal 1 0 -0
  outer loop
    vertex 0.04 0.06 0.009999999999999972
    vertex 0.04 0.06 0.02
    vertex 0.04 0.05662231783557501 0.01000000000000003
  endloop
endfacet
facet normal 1 0 0
  outer loop
    vertex 0.04 0.05662231783557501 0
    vertex 0.04 0.06 0.009999999999999972
    vertex 0.04 0.05662231783557501 0.01000000000000003
  endloop
endfacet
facet normal 0.936035 -0.351908 0
  outer loop
    vertex 0.03733906040996935 0.04954452810612813 0
    vertex 0.03866953020498467 0.05308342297085157 0.005
    vertex 0.03733906040996935 0.04954452810612813 0.01000000000000003
  endloop
endfacet
facet normal 0.936035 -0.351908 0
  outer loop
    vertex 0.04 0.05662231783557501 0.02
    vertex 0.03866953020498467 0.05308342297085157 0.015
    vertex 0.04 0.05662231783557501 0.009999999999999972
  endloop
endfacet
facet normal 0.936035 -0.351908 0
  outer loop
    vertex 0.04 0.05662231783557501 0.009999999999999972
    vertex 0.03866953020498467 0.05308342297085157 0.005
    vertex 0.04 0.05662231783557501 0
  endloop
endfacet
facet normal 0.936035 -0.351908 0
  outer loop
    vertex 0.03733906040996935 0.04954452810612813 0.01000000000000003
    vertex 0.03866953020498467 0.05308342297085157 0.015
    vertex 0.03733906040996935 0.04954452810612813 0.02
  endloop
endfacet
facet normal 0.936035 -0.351908 1.29943e-15
  outer loop
    vertex 0.04 0.05662231783557501 0.009999999999999972
    vertex 0.03866953020498467 0.05308342297085157 0.015
    vertex 0.03733906040996935 0.04954452810612813 0.01000000000000003
  endloop
endfacet
facet normal 0.936035 -0.351908 -1.29943e-15
  outer loop
    vertex 0.03733906040996935 0.04954452810612813 0.01000000000000003
    vertex 0.03866953020498467 0.05308342297085157 0.005
    vertex 0.04 0.05662231783557501 0.009999999999999972
  endloop
endfacet
facet normal 0.936035 -0.351908 1.29943e-15
  outer loop
    vertex 0.04 0.05662231783557501 0
    vertex 0.03866953020498467 0.05308342297085157 0.005
    vertex 0.03733906040996935 0.04954452810612813 0
  endloop
endfacet
facet normal 0.936035 -0.351908 -1.29943e-15
  outer loop
    vertex 0.03733906040996935 0.04954452810612813 0.02
    vertex 0.03866953020498467 0.05308342297085157 0.015
    vertex 0.04 0.05662231783557501 0.02
  endloop
endfacet
facet normal 0.697206 0.71687 6.67504e-17
  outer loop
    vertex 0.03733906040996935 0.04954452810612813 0
    vertex 0.04097776613157841 0.04600563324140468 0.005000000000000015
    vertex 0.04461647185318744 0.04246673837668126 0
  endloop
endfacet
facet normal 0.697206 0.71687 0
  outer loop
    vertex 0.04461647185318744 0.04246673837668126 0.02
    vertex 0.0409777661315784 0.04600563324140469 0.01500000000000002
    vertex 0.03733906040996935 0.04954452810612813 0.02
  endloop
endfacet
facet normal 0.697206 0.71687 0
  outer loop
    vertex 0.03733906040996935 0.04954452810612813 0.02
    vertex 0.0409777661315784 0.04600563324140469 0.01500000000000002
    vertex 0.03733906040996935 0.04954452810612813 0.009999999999999972
  endloop
endfacet
facet normal 0.697206 0.71687 -0
  outer loop
    vertex 0.04461647185318744 0.04246673837668126 0
    vertex 0.04097776613157841 0.04600563324140468 0.005000000000000015
    vertex 0.04461647185318744 0.04246673837668126 0.01000000000000003
  endloop
endfacet
facet normal 0.697206 0.71687 -3.33752e-17
  outer loop
    vertex 0.04461647185318744 0.04246673837668126 0.01000000000000003
    vertex 0.04097776613157841 0.04600563324140468 0.005000000000000015
    vertex 0.0409777661315784 0.04600563324140469 0.01500000000000002
  endloop
endfacet
facet normal 0.697206 0.71687 -2.72893e-17
  outer loop
    vertex 0.0409777661315784 0.04600563324140469 0.01500000000000002
    vertex 0.04097776613157841 0.04600563324140468 0.005000000000000015
    vertex 0.03733906040996935 0.04954452810612813 0.009999999999999972
  endloop
endfacet
facet normal 0.697206 0.71687 0
  outer loop
    vertex 0.03733906040996935 0.04954452810612813 0.009999999999999972
    vertex 0.04097776613157841 0.04600563324140468 0.005000000000000015
    vertex 0.03733906040996935 0.04954452810612813 0
  endloop
endfacet
facet normal 0.697206 0.71687 -0
  outer loop
    vertex 0.04461647185318744 0.04246673837668126 0.01000000000000003
    vertex 0.0409777661315784 0.04600563324140469 0.01500000000000002
    vertex 0.04461647185318744 0.04246673837668126 0.02
  endloop
endfacet
facet normal 0.916599 0.399807 -0
  outer loop
    vertex 0.04770370038344129 0.03538894864723438 0
    vertex 0.04616008611831437 0.03892784351195782 0.005
    vertex 0.04770370038344129 0.03538894864723438 0.01000000000000003
  endloop
endfacet
facet normal 0.916599 0.399807 0
  outer loop
    vertex 0.04461647185318744 0.04246673837668126 0.02
    vertex 0.04616008611831437 0.03892784351195782 0.015
    vertex 0.04461647185318744 0.04246673837668126 0.009999999999999972
  endloop
endfacet
facet normal 0.916599 0.399807 -0
  outer loop
    vertex 0.04770370038344129 0.03538894864723438 0.01000000000000003
    vertex 0.04616008611831437 0.03892784351195782 0.015
    vertex 0.04770370038344129 0.03538894864723438 0.02
  endloop
endfacet
facet normal 0.916599 0.399807 0
  outer loop
    vertex 0.04461647185318744 0.04246673837668126 0.009999999999999972
    vertex 0.04616008611831437 0.03892784351195782 0.005
    vertex 0.04461647185318744 0.04246673837668126 0
  endloop
endfacet
facet normal 0.916599 0.399807 0
  outer loop
    vertex 0.04461647185318744 0.04246673837668126 0
    vertex 0.04616008611831437 0.03892784351195782 0.005
    vertex 0.04770370038344129 0.03538894864723438 0
  endloop
endfacet
facet normal 0.916599 0.399807 0
  outer loop
    vertex 0.04461647185318744 0.04246673837668126 0.009999999999999972
    vertex 0.04616008611831437 0.03892784351195782 0.015
    vertex 0.04770370038344129 0.03538894864723438 0.01000000000000003
  endloop
endfacet
facet normal 0.916599 0.399807 0
  outer loop
    vertex 0.04770370038344129 0.03538894864723438 0.02
    vertex 0.04616008611831437 0.03892784351195782 0.015
    vertex 0.04461647185318744 0.04246673837668126 0.02
  endloop
endfacet
facet normal 0.916599 0.399807 0
  outer loop
    vertex 0.04770370038344129 0.03538894864723438 0.01000000000000003
    vertex 0.04616008611831437 0.03892784351195782 0.005
    vertex 0.04461647185318744 0.04246673837668126 0.009999999999999972
  endloop
endfacet
facet normal 0.858489 -0.512832 0
  outer loop
    vertex 0.04770370038344129 0.03538894864723438 0.02
    vertex 0.04558968531811668 0.03185005378251094 0.015
    vertex 0.04770370038344129 0.03538894864723438 0.009999999999999972
  endloop
endfacet
facet normal 0.858489 -0.512832 0
  outer loop
    vertex 0.04347567025279207 0.02831115891778751 0
    vertex 0.04558968531811668 0.03185005378251094 0.004999999999999999
    vertex 0.04347567025279207 0.02831115891778751 0.01000000000000003
  endloop
endfacet
facet normal 0.858489 -0.512832 0
  outer loop
    vertex 0.04770370038344129 0.03538894864723438 0.009999999999999972
    vertex 0.04558968531811668 0.03185005378251094 0.004999999999999999
    vertex 0.04770370038344129 0.03538894864723438 0
  endloop
endfacet
facet normal 0.858489 -0.512832 0
  outer loop
    vertex 0.04347567025279207 0.02831115891778751 0.01000000000000003
    vertex 0.04558968531811668 0.03185005378251094 0.015
    vertex 0.04347567025279207 0.02831115891778751 0.02
  endloop
endfacet
facet normal 0.858489 -0.512832 -1.02739e-15
  outer loop
    vertex 0.04347567025279207 0.02831115891778751 0.02
    vertex 0.04558968531811668 0.03185005378251094 0.015
    vertex 0.04770370038344129 0.03538894864723438 0.02
  endloop
endfacet
facet normal 0.858489 -0.512832 9.86299e-16
  outer loop
    vertex 0.04770370038344129 0.03538894864723438 0
    vertex 0.04558968531811668 0.03185005378251094 0.004999999999999999
    vertex 0.04347567025279207 0.02831115891778751 0
  endloop
endfacet
facet normal 0.858489 -0.512832 9.86299e-16
  outer loop
    vertex 0.04770370038344129 0.03538894864723438 0.009999999999999972
    vertex 0.04558968531811668 0.03185005378251094 0.015
    vertex 0.04347567025279207 0.02831115891778751 0.01000000000000003
  endloop
endfacet
facet normal 0.858489 -0.512832 -1.02739e-15
  outer loop
    vertex 0.04347567025279207 0.02831115891778751 0.01000000000000003
    vertex 0.04558968531811668 0.03185005378251094 0.004999999999999999
    vertex 0.04770370038344129 0.03538894864723438 0.009999999999999972
  endloop
endfacet
facet normal 0.948056 0.318102 -0
  outer loop
    vertex 0.04585048796629694 0.02123336918834063 0
    vertex 0.04466307910954451 0.02477226405306407 0.005
    vertex 0.04585048796629694 0.02123336918834063 0.01000000000000003
  endloop
endfacet
facet normal 0.948056 0.318102 0
  outer loop
    vertex 0.04347567025279207 0.02831115891778751 0.02
    vertex 0.04466307910954451 0.02477226405306407 0.015
    vertex 0.04347567025279207 0.02831115891778751 0.009999999999999972
  endloop
endfacet
facet normal 0.948056 0.318102 -0
  outer loop
    vertex 0.04585048796629694 0.02123336918834063 0.01000000000000003
    vertex 0.04466307910954451 0.02477226405306407 0.015
    vertex 0.04585048796629694 0.02123336918834063 0.02
  endloop
endfacet
facet normal 0.948056 0.318102 0
  outer loop
    vertex 0.04347567025279207 0.02831115891778751 0.009999999999999972
    vertex 0.04466307910954451 0.02477226405306407 0.005
    vertex 0.04347567025279207 0.02831115891778751 0
  endloop
endfacet
facet normal 0.948056 0.318102 -1.3615e-16
  outer loop
    vertex 0.04347567025279207 0.02831115891778751 0.009999999999999972
    vertex 0.04466307910954451 0.02477226405306407 0.015
    vertex 0.04585048796629694 0.02123336918834063 0.01000000000000003
  endloop
endfacet
facet normal 0.948056 0.318102 -1.3615e-16
  outer loop
    vertex 0.04347567025279207 0.02831115891778751 0
    vertex 0.04466307910954451 0.02477226405306407 0.005
    vertex 0.04585048796629694 0.02123336918834063 0
  endloop
endfacet
facet normal 0.948056 0.318102 9.07668e-17
  outer loop
    vertex 0.04585048796629694 0.02123336918834063 0.01000000000000003
    vertex 0.04466307910954451 0.02477226405306407 0.005
    vertex 0.04347567025279207 0.02831115891778751 0.009999999999999972
  endloop
endfacet
facet normal 0.948056 0.318102 9.07668e-17
  outer loop
    vertex 0.04585048796629694 0.02123336918834063 0.02
    vertex 0.04466307910954451 0.02477226405306407 0.015
    vertex 0.04347567025279207 0.02831115891778751 0.02
  endloop
endfacet
facet normal 0.85961 -0.51095 0
  outer loop
    vertex 0.04585048796629694 0.02123336918834063 0.02
    vertex 0.04374697776967928 0.01769447432361719 0.015
    vertex 0.04585048796629694 0.02123336918834063 0.009999999999999972
  endloop
endfacet
facet normal 0.85961 -0.51095 0
  outer loop
    vertex 0.04164346757306162 0.01415557945889375 0
    vertex 0.04374697776967928 0.01769447432361719 0.005
    vertex 0.04164346757306162 0.01415557945889375 0.01000000000000003
  endloop
endfacet
facet normal 0.85961 -0.51095 0
  outer loop
    vertex 0.04585048796629694 0.02123336918834063 0.009999999999999972
    vertex 0.04374697776967928 0.01769447432361719 0.005
    vertex 0.04585048796629694 0.02123336918834063 0
  endloop
endfacet
facet normal 0.85961 -0.51095 0
  outer loop
    vertex 0.04164346757306162 0.01415557945889375 0.01000000000000003
    vertex 0.04374697776967928 0.01769447432361719 0.015
    vertex 0.04164346757306162 0.01415557945889375 0.02
  endloop
endfacet
facet normal 0.85961 -0.51095 1.56368e-15
  outer loop
    vertex 0.04164346757306162 0.01415557945889375 0.02
    vertex 0.04374697776967928 0.01769447432361719 0.015
    vertex 0.04585048796629694 0.02123336918834063 0.02
  endloop
endfacet
facet normal 0.85961 -0.51095 1.56368e-15
  outer loop
    vertex 0.04164346757306162 0.01415557945889375 0.01000000000000003
    vertex 0.04374697776967928 0.01769447432361719 0.005
    vertex 0.04585048796629694 0.02123336918834063 0.009999999999999972
  endloop
endfacet
facet normal 0.85961 -0.51095 -1.56368e-15
  outer loop
    vertex 0.04585048796629694 0.02123336918834063 0
    vertex 0.04374697776967928 0.01769447432361719 0.005
    vertex 0.04164346757306162 0.01415557945889375 0
  endloop
endfacet
facet normal 0.85961 -0.51095 -1.56368e-15
  outer loop
    vertex 0.04585048796629694 0.02123336918834063 0.009999999999999972
    vertex 0.04374697776967928 0.01769447432361719 0.015
    vertex 0.04164346757306162 0.01415557945889375 0.01000000000000003
  endloop
endfacet
facet normal 0.999816 -0.019171 -2.08196e-15
  outer loop
    vertex 0.04150775437693844 0.007077789729446879 0.01000000000000003
    vertex 0.04157561097500002 0.01061668459417031 0.004999999999999999
    vertex 0.04164346757306162 0.01415557945889375 0.009999999999999972
  endloop
endfacet
facet normal 0.999816 -0.019171 2.08196e-15
  outer loop
    vertex 0.04164346757306162 0.01415557945889375 0.009999999999999972
    vertex 0.04157561097500002 0.01061668459417031 0.015
    vertex 0.04150775437693844 0.007077789729446879 0.01000000000000003
  endloop
endfacet
facet normal 0.999816 -0.019171 2.08196e-15
  outer loop
    vertex 0.04164346757306162 0.01415557945889375 0
    vertex 0.04157561097500002 0.01061668459417031 0.004999999999999999
    vertex 0.04150775437693844 0.007077789729446879 0
  endloop
endfacet
facet normal 0.999816 -0.019171 -2.08196e-15
  outer loop
    vertex 0.04150775437693844 0.007077789729446879 0.02
    vertex 0.04157561097500002 0.01061668459417031 0.015
    vertex 0.04164346757306162 0.01415557945889375 0.02
  endloop
endfacet
facet normal 0.999816 -0.019171 0
  outer loop
    vertex 0.04164346757306162 0.01415557945889375 0.009999999999999972
    vertex 0.04157561097500002 0.01061668459417031 0.004999999999999999
    vertex 0.04164346757306162 0.01415557945889375 0
  endloop
endfacet
facet normal 0.999816 -0.019171 0
  outer loop
    vertex 0.04164346757306162 0.01415557945889375 0.02
    vertex 0.04157561097500002 0.01061668459417031 0.015
    vertex 0.04164346757306162 0.01415557945889375 0.009999999999999972
  endloop
endfacet
facet normal 0.999816 -0.019171 0
  outer loop
    vertex 0.04150775437693844 0.007077789729446879 0
    vertex 0.04157561097500002 0.01061668459417031 0.004999999999999999
    vertex 0.04150775437693844 0.007077789729446879 0.01000000000000003
  endloop
endfacet
facet normal 0.999816 -0.019171 0
  outer loop
    vertex 0.04150775437693844 0.007077789729446879 0.01000000000000003
    vertex 0.04157561097500002 0.01061668459417031 0.015
    vertex 0.04150775437693844 0.007077789729446879 0.02
  endloop
endfacet
endsolid Created by Gmsh
