solid Created by Gmsh
facet normal 0.999911 0.01333 0
  outer loop
    vertex 0.007227636612256421 0.05793666987337793 0.02
    vertex 0.007343491120417958 0.04924616939237125 0.0116427457387805
    vertex 0.007227636612256421 0.05793666987337793 0.009999999999999972
  endloop
endfacet
facet normal 0.999911 0.01333 -0
  outer loop
    vertex 0.008 0 0
    vertex 0.007884145491838464 0.008690500481006676 0.008357254261219506
    vertex 0.008 0 0.01000000000000003
  endloop
endfacet
facet normal 0.999911 0.01333 -1.32831e-16
  outer loop
    vertex 0.007845527322451284 0.01158733397467559 0
    vertex 0.007884145491838464 0.008690500481006676 0.008357254261219506
    vertex 0.008 0 0
  endloop
endfacet
facet normal 0.999911 0.01333 7.7075e-17
  outer loop
    vertex 0.007382109289805137 0.04634933589870234 0.02
    vertex 0.007343491120417958 0.04924616939237125 0.0116427457387805
    vertex 0.007227636612256421 0.05793666987337793 0.02
  endloop
endfacet
facet normal 0.999911 0.01333 9.62373e-17
  outer loop
    vertex 0.007536581967353852 0.03476200192402677 0.02
    vertex 0.007613818306128211 0.02896833493668896 0.01
    vertex 0.007465781990144025 0.0400728633290864 0.01027379095646342
  endloop
endfacet
facet normal 0.999911 0.01333 1.15611e-16
  outer loop
    vertex 0.007845527322451284 0.01158733397467555 0.02
    vertex 0.007761854622112398 0.01786380654429152 0.009726209043536582
    vertex 0.007691054644902568 0.02317466794935118 0.02
  endloop
endfacet
facet normal 0.999911 0.01333 -8.18173e-17
  outer loop
    vertex 0.007382109289805136 0.04634933589870237 0
    vertex 0.007465781990144025 0.0400728633290864 0.01027379095646342
    vertex 0.007536581967353853 0.03476200192402674 0
  endloop
endfacet
facet normal 0.999911 0.01333 9.58175e-17
  outer loop
    vertex 0.007536581967353852 0.03476200192402677 0.02
    vertex 0.007465781990144025 0.0400728633290864 0.01027379095646342
    vertex 0.007382109289805137 0.04634933589870234 0.02
  endloop
endfacet
facet normal 0.999911 0.01333 -7.70297e-17
  outer loop
    vertex 0.007691054644902569 0.02317466794935115 0
    vertex 0.007761854622112398 0.01786380654429152 0.009726209043536582
    vertex 0.007845527322451284 0.01158733397467559 0
  endloop
endfacet
facet normal 0.999911 0.01333 -3.67539e-17
  outer loop
    vertex 0.007691054644902569 0.02317466794935115 0
    vertex 0.007613818306128211 0.02896833493668896 0.01
    vertex 0.007761854622112398 0.01786380654429152 0.009726209043536582
  endloop
endfacet
facet normal 0.999911 0.01333 -4.51183e-17
  outer loop
    vertex 0.007465781990144025 0.0400728633290864 0.01027379095646342
    vertex 0.007613818306128211 0.02896833493668896 0.01
    vertex 0.007536581967353853 0.03476200192402674 0
  endloop
endfacet
facet normal 0.999911 0.01333 6.85251e-17
  outer loop
    vertex 0.007691054644902568 0.02317466794935118 0.02
    vertex 0.007613818306128211 0.02896833493668896 0.01
    vertex 0.007536581967353852 0.03476200192402677 0.02
  endloop
endfacet
facet normal 0.999911 0.01333 8.0837e-17
  outer loop
    vertex 0.007761854622112398 0.01786380654429152 0.009726209043536582
    vertex 0.007613818306128211 0.02896833493668896 0.01
    vertex 0.007691054644902568 0.02317466794935118 0.02
  endloop
endfacet
facet normal 0.999911 0.01333 -2.10144e-17
  outer loop
    vertex 0.007536581967353853 0.03476200192402674 0
    vertex 0.007613818306128211 0.02896833493668896 0.01
    vertex 0.007691054644902569 0.02317466794935115 0
  endloop
endfacet
facet normal 0.999911 0.01333 -9.26543e-17
  outer loop
    vertex 0.007382109289805136 0.04634933589870237 0
    vertex 0.007343491120417958 0.04924616939237125 0.0116427457387805
    vertex 0.007465781990144025 0.0400728633290864 0.01027379095646342
  endloop
endfacet
facet normal 0.999911 0.01333 1.36922e-16
  outer loop
    vertex 0.007845527322451284 0.01158733397467555 0.02
    vertex 0.007884145491838464 0.008690500481006676 0.008357254261219506
    vertex 0.007761854622112398 0.01786380654429152 0.009726209043536582
  endloop
endfacet
facet normal 0.999911 0.01333 -8.54025e-17
  outer loop
    vertex 0.007382109289805136 0.04634933589870237 0
    vertex 0.007300230888655468 0.05249121415503324 0.004999999999999992
    vertex 0.007343491120417958 0.04924616939237125 0.0116427457387805
  endloop
endfacet
facet normal 0.999911 0.01333 1.03968e-16
  outer loop
    vertex 0.007845527322451284 0.01158733397467555 0.02
    vertex 0.007927405723600954 0.005445455718344688 0.01500000000000001
    vertex 0.007884145491838464 0.008690500481006676 0.008357254261219506
  endloop
endfacet
facet normal 0.999911 0.01333 -6.39567e-17
  outer loop
    vertex 0.007227636612256421 0.05793666987337793 0
    vertex 0.007300230888655468 0.05249121415503324 0.004999999999999992
    vertex 0.007382109289805136 0.04634933589870237 0
  endloop
endfacet
facet normal 0.999911 0.01333 2.01007e-16
  outer loop
    vertex 0.008 0 0.02
    vertex 0.007927405723600954 0.005445455718344688 0.01500000000000001
    vertex 0.007845527322451284 0.01158733397467555 0.02
  endloop
endfacet
facet normal 0.999911 0.01333 7.09043e-17
  outer loop
    vertex 0.007465781990144025 0.0400728633290864 0.01027379095646342
    vertex 0.007343491120417958 0.04924616939237125 0.0116427457387805
    vertex 0.007382109289805137 0.04634933589870234 0.02
  endloop
endfacet
facet normal 0.999911 0.01333 -1.24739e-16
  outer loop
    vertex 0.007761854622112398 0.01786380654429152 0.009726209043536582
    vertex 0.007884145491838464 0.008690500481006676 0.008357254261219506
    vertex 0.007845527322451284 0.01158733397467559 0
  endloop
endfacet
facet normal 0.999911 0.01333 0
  outer loop
    vertex 0.007227636612256421 0.05793666987337793 0.009999999999999972
    vertex 0.007300230888655468 0.05249121415503324 0.004999999999999992
    vertex 0.007227636612256421 0.05793666987337793 0
  endloop
endfacet
facet normal 0.999911 0.01333 -0
  outer loop
    vertex 0.008 0 0.01000000000000003
    vertex 0.007927405723600954 0.005445455718344688 0.01500000000000001
    vertex 0.008 0 0.02
  endloop
endfacet
facet normal 0.999911 0.01333 -1.71742e-17
  outer loop
    vertex 0.007884145491838464 0.008690500481006676 0.008357254261219506
    vertex 0.007927405723600954 0.005445455718344688 0.01500000000000001
    vertex 0.008 0 0.01000000000000003
  endloop
endfacet
facet normal 0.999911 0.01333 -4.64713e-17
  outer loop
    vertex 0.007343491120417958 0.04924616939237125 0.0116427457387805
    vertex 0.007300230888655468 0.05249121415503324 0.004999999999999992
    vertex 0.007227636612256421 0.05793666987337793 0.009999999999999972
  endloop
endfacet
endsolid Created by Gmsh
