solid Created by Gmsh
facet normal -0.269125 0.963105 0
  outer loop
    vertex 0.03 0.045 0.009999999999999972
    vertex 0.03 0.045 0
    vertex 0.02234513322613696 0.04286096566745411 0.007845515385656908
  endloop
endfacet
facet normal -0.269125 0.963105 5.78533e-16
  outer loop
    vertex 0.03 0.045 0
    vertex 0.01993503167578171 0.0421875 0
    vertex 0.02234513322613696 0.04286096566745411 0.007845515385656908
  endloop
endfacet
facet normal -0.269125 0.963105 2.63731e-16
  outer loop
    vertex 0.00987006335156341 0.039375 0.02
    vertex 0.0199350316757817 0.0421875 0.02
    vertex 0.01687205328861831 0.04133159798059984 0.01262415180790052
  endloop
endfacet
facet normal -0.269125 0.963105 0
  outer loop
    vertex 0.00987006335156341 0.039375 0.01000000000000003
    vertex 0.00987006335156341 0.039375 0.02
    vertex 0.01687205328861831 0.04133159798059984 0.01262415180790052
  endloop
endfacet
facet normal -0.269125 0.963105 4.8631e-16
  outer loop
    vertex 0.0199350316757817 0.0421875 0.02
    vertex 0.03 0.045 0.02
    vertex 0.02496751583789086 0.04359375 0.01499999999999999
  endloop
endfacet
facet normal -0.269125 0.963105 8.93543e-16
  outer loop
    vertex 0.01993503167578171 0.0421875 0
    vertex 0.00987006335156341 0.039375 0
    vertex 0.01572699392202272 0.04101162881976294 0.0059867341777395
  endloop
endfacet
facet normal -0.269125 0.963105 0
  outer loop
    vertex 0.03 0.045 0.02
    vertex 0.03 0.045 0.009999999999999972
    vertex 0.02496751583789086 0.04359375 0.01499999999999999
  endloop
endfacet
facet normal -0.269125 0.963105 0
  outer loop
    vertex 0.00987006335156341 0.039375 0
    vertex 0.00987006335156341 0.039375 0.01000000000000003
    vertex 0.01572699392202272 0.04101162881976294 0.0059867341777395
  endloop
endfacet
facet normal -0.269125 0.963105 4.6675e-16
  outer loop
    vertex 0.01687205328861831 0.04133159798059984 0.01262415180790052
    vertex 0.0199350316757817 0.0421875 0.02
    vertex 0.02496751583789086 0.04359375 0.01499999999999999
  endloop
endfacet
facet normal -0.269125 0.963105 -4.57697e-16
  outer loop
    vertex 0.02234513322613696 0.04286096566745411 0.007845515385656908
    vertex 0.01687205328861831 0.04133159798059984 0.01262415180790052
    vertex 0.02496751583789086 0.04359375 0.01499999999999999
  endloop
endfacet
facet normal -0.269125 0.963105 8.08167e-16
  outer loop
    vertex 0.01993503167578171 0.0421875 0
    vertex 0.01572699392202272 0.04101162881976294 0.0059867341777395
    vertex 0.02234513322613696 0.04286096566745411 0.007845515385656908
  endloop
endfacet
facet normal -0.269125 0.963105 -3.98617e-16
  outer loop
    vertex 0.03 0.045 0.009999999999999972
    vertex 0.02234513322613696 0.04286096566745411 0.007845515385656908
    vertex 0.02496751583789086 0.04359375 0.01499999999999999
  endloop
endfacet
facet normal -0.269125 0.963105 -5.07437e-16
  outer loop
    vertex 0.02234513322613696 0.04286096566745411 0.007845515385656908
    vertex 0.01572699392202272 0.04101162881976294 0.0059867341777395
    vertex 0.01687205328861831 0.04133159798059984 0.01262415180790052
  endloop
endfacet
facet normal -0.269125 0.963105 -5.48918e-16
  outer loop
    vertex 0.01572699392202272 0.04101162881976294 0.0059867341777395
    vertex 0.00987006335156341 0.039375 0.01000000000000003
    vertex 0.01687205328861831 0.04133159798059984 0.01262415180790052
  endloop
endfacet
facet normal -0.282086 -0.959389 -0
  outer loop
    vertex 0.00987006335156341 0.039375 0.009999999999999972
    vertex 0.00987006335156341 0.039375 0
    vertex 0.01659791422646224 0.037396833183461 0.007126971946048409
  endloop
endfacet
facet normal -0.282086 -0.959389 -6.78971e-16
  outer loop
    vertex 0.0290009884357876 0.03375 0.02
    vertex 0.0194355258936755 0.0365625 0.02
    vertex 0.02180553808549256 0.03586565347949566 0.01249260287368188
  endloop
endfacet
facet normal -0.282086 -0.959389 0
  outer loop
    vertex 0.0290009884357876 0.03375 0.01000000000000003
    vertex 0.0290009884357876 0.03375 0.02
    vertex 0.02180553808549256 0.03586565347949566 0.01249260287368188
  endloop
endfacet
facet normal -0.282086 -0.959389 4.76809e-16
  outer loop
    vertex 0.00987006335156341 0.039375 0
    vertex 0.01943552589367551 0.0365625 0
    vertex 0.01659791422646224 0.037396833183461 0.007126971946048409
  endloop
endfacet
facet normal -0.282086 -0.959389 -0
  outer loop
    vertex 0.00987006335156341 0.039375 0.02
    vertex 0.00987006335156341 0.039375 0.009999999999999972
    vertex 0.01523195298056565 0.03779846206310699 0.01439811475986028
  endloop
endfacet
facet normal -0.282086 -0.959389 -2.42647e-16
  outer loop
    vertex 0.0194355258936755 0.0365625 0.02
    vertex 0.00987006335156341 0.039375 0.02
    vertex 0.01523195298056565 0.03779846206310699 0.01439811475986028
  endloop
endfacet
facet normal -0.282086 -0.959389 0
  outer loop
    vertex 0.0290009884357876 0.03375 0
    vertex 0.0290009884357876 0.03375 0.01000000000000003
    vertex 0.0233743416959129 0.03540438355816335 0.005871114042748322
  endloop
endfacet
facet normal -0.282086 -0.959389 3.1834e-16
  outer loop
    vertex 0.01943552589367551 0.0365625 0
    vertex 0.0290009884357876 0.03375 0
    vertex 0.0233743416959129 0.03540438355816335 0.005871114042748322
  endloop
endfacet
facet normal -0.282086 -0.959389 3.61213e-17
  outer loop
    vertex 0.00987006335156341 0.039375 0.009999999999999972
    vertex 0.01659791422646224 0.037396833183461 0.007126971946048409
    vertex 0.01523195298056565 0.03779846206310699 0.01439811475986028
  endloop
endfacet
facet normal -0.282086 -0.959389 6.03889e-16
  outer loop
    vertex 0.0233743416959129 0.03540438355816335 0.005871114042748322
    vertex 0.0290009884357876 0.03375 0.01000000000000003
    vertex 0.02180553808549256 0.03586565347949566 0.01249260287368188
  endloop
endfacet
facet normal -0.282086 -0.959389 7.19231e-17
  outer loop
    vertex 0.01659791422646224 0.037396833183461 0.007126971946048409
    vertex 0.02180553808549256 0.03586565347949566 0.01249260287368188
    vertex 0.01523195298056565 0.03779846206310699 0.01439811475986028
  endloop
endfacet
facet normal -0.282086 -0.959389 7.38761e-16
  outer loop
    vertex 0.0233743416959129 0.03540438355816335 0.005871114042748322
    vertex 0.02180553808549256 0.03586565347949566 0.01249260287368188
    vertex 0.01659791422646224 0.037396833183461 0.007126971946048409
  endloop
endfacet
facet normal -0.282086 -0.959389 -5.07506e-16
  outer loop
    vertex 0.02180553808549256 0.03586565347949566 0.01249260287368188
    vertex 0.0194355258936755 0.0365625 0.02
    vertex 0.01523195298056565 0.03779846206310699 0.01439811475986028
  endloop
endfacet
facet normal -0.282086 -0.959389 5.17754e-16
  outer loop
    vertex 0.01943552589367551 0.0365625 0
    vertex 0.0233743416959129 0.03540438355816335 0.005871114042748322
    vertex 0.01659791422646224 0.037396833183461 0.007126971946048409
  endloop
endfacet
facet normal -0.282086 0.959389 0
  outer loop
    vertex 0.00987006335156341 0.028125 0.01000000000000003
    vertex 0.00987006335156341 0.028125 0.02
    vertex 0.01659791422646224 0.030103166816539 0.01287302805395159
  endloop
endfacet
facet normal -0.282086 0.959389 -6.78971e-16
  outer loop
    vertex 0.0290009884357876 0.03375 0
    vertex 0.0194355258936755 0.0309375 0
    vertex 0.02180553808549255 0.03163434652050435 0.007507397126318122
  endloop
endfacet
facet normal -0.282086 0.959389 0
  outer loop
    vertex 0.0290009884357876 0.03375 0.009999999999999972
    vertex 0.0290009884357876 0.03375 0
    vertex 0.02180553808549255 0.03163434652050435 0.007507397126318122
  endloop
endfacet
facet normal -0.282086 0.959389 2.38404e-16
  outer loop
    vertex 0.00987006335156341 0.028125 0.02
    vertex 0.01943552589367551 0.0309375 0.02
    vertex 0.01659791422646224 0.030103166816539 0.01287302805395159
  endloop
endfacet
facet normal -0.282086 0.959389 0
  outer loop
    vertex 0.00987006335156341 0.028125 0
    vertex 0.00987006335156341 0.028125 0.01000000000000003
    vertex 0.01523195298056564 0.02970153793689301 0.00560188524013972
  endloop
endfacet
facet normal -0.282086 0.959389 -9.70588e-16
  outer loop
    vertex 0.0194355258936755 0.0309375 0
    vertex 0.00987006335156341 0.028125 0
    vertex 0.01523195298056564 0.02970153793689301 0.00560188524013972
  endloop
endfacet
facet normal -0.282086 0.959389 0
  outer loop
    vertex 0.0290009884357876 0.03375 0.02
    vertex 0.0290009884357876 0.03375 0.009999999999999972
    vertex 0.0233743416959129 0.03209561644183666 0.01412888595725168
  endloop
endfacet
facet normal -0.282086 0.959389 1.447e-16
  outer loop
    vertex 0.01943552589367551 0.0309375 0.02
    vertex 0.0290009884357876 0.03375 0.02
    vertex 0.0233743416959129 0.03209561644183666 0.01412888595725168
  endloop
endfacet
facet normal -0.282086 0.959389 3.61213e-16
  outer loop
    vertex 0.00987006335156341 0.028125 0.01000000000000003
    vertex 0.01659791422646224 0.030103166816539 0.01287302805395159
    vertex 0.01523195298056564 0.02970153793689301 0.00560188524013972
  endloop
endfacet
facet normal -0.282086 0.959389 2.13684e-16
  outer loop
    vertex 0.0233743416959129 0.03209561644183666 0.01412888595725168
    vertex 0.0290009884357876 0.03375 0.009999999999999972
    vertex 0.02180553808549255 0.03163434652050435 0.007507397126318122
  endloop
endfacet
facet normal -0.282086 0.959389 2.4274e-16
  outer loop
    vertex 0.01659791422646224 0.030103166816539 0.01287302805395159
    vertex 0.02180553808549255 0.03163434652050435 0.007507397126318122
    vertex 0.01523195298056564 0.02970153793689301 0.00560188524013972
  endloop
endfacet
facet normal -0.282086 0.959389 3.12553e-16
  outer loop
    vertex 0.0233743416959129 0.03209561644183666 0.01412888595725168
    vertex 0.02180553808549255 0.03163434652050435 0.007507397126318122
    vertex 0.01659791422646224 0.030103166816539 0.01287302805395159
  endloop
endfacet
facet normal -0.282086 0.959389 -7.9751e-16
  outer loop
    vertex 0.02180553808549255 0.03163434652050435 0.007507397126318122
    vertex 0.0194355258936755 0.0309375 0
    vertex 0.01523195298056564 0.02970153793689301 0.00560188524013972
  endloop
endfacet
facet normal -0.282086 0.959389 1.45335e-16
  outer loop
    vertex 0.01943552589367551 0.0309375 0.02
    vertex 0.0233743416959129 0.03209561644183666 0.01412888595725168
    vertex 0.01659791422646224 0.030103166816539 0.01287302805395159
  endloop
endfacet
facet normal -0.222024 -0.975041 2.6818e-17
  outer loop
    vertex 0.02633854867128284 0.024375 0.02
    vertex 0.01810430601142312 0.02625 0.02
    vertex 0.02222142734135299 0.0253125 0.01251997472784721
  endloop
endfacet
facet normal -0.222024 -0.975041 -0
  outer loop
    vertex 0.00987006335156341 0.028125 0.02
    vertex 0.00987006335156341 0.028125 0.009999999999999972
    vertex 0.01557374722139652 0.02682622758124798 0.01362584732662332
  endloop
endfacet
facet normal -0.222024 -0.975041 0
  outer loop
    vertex 0.03457279133114258 0.0225 0.01000000000000003
    vertex 0.03457279133114258 0.0225 0.02
    vertex 0.02886910746130944 0.02379877241875203 0.01362584732662332
  endloop
endfacet
facet normal -0.222024 -0.975041 0
  outer loop
    vertex 0.03457279133114258 0.0225 0
    vertex 0.03457279133114258 0.0225 0.01000000000000003
    vertex 0.02813268224626391 0.023966462069792 0.006865501061576549
  endloop
endfacet
facet normal -0.222024 -0.975041 -0
  outer loop
    vertex 0.00987006335156341 0.028125 0.009999999999999972
    vertex 0.00987006335156341 0.028125 0
    vertex 0.01631017243644208 0.02665853793020799 0.006865501061576539
  endloop
endfacet
facet normal -0.222024 -0.975041 -6.27148e-17
  outer loop
    vertex 0.02222142734135299 0.0253125 0.01251997472784721
    vertex 0.022221427341353 0.02531249999999999 0.005047184314988734
    vertex 0.02813268224626391 0.023966462069792 0.006865501061576549
  endloop
endfacet
facet normal -0.222024 -0.975041 -6.27148e-17
  outer loop
    vertex 0.022221427341353 0.02531249999999999 0.005047184314988734
    vertex 0.02222142734135299 0.0253125 0.01251997472784721
    vertex 0.01631017243644208 0.02665853793020799 0.006865501061576539
  endloop
endfacet
facet normal -0.222024 -0.975041 -2.83237e-16
  outer loop
    vertex 0.03457279133114258 0.0225 0.02
    vertex 0.02633854867128284 0.024375 0.02
    vertex 0.02886910746130944 0.02379877241875203 0.01362584732662332
  endloop
endfacet
facet normal -0.222024 -0.975041 -2.0456e-16
  outer loop
    vertex 0.01810430601142312 0.02625 0.02
    vertex 0.00987006335156341 0.028125 0.02
    vertex 0.01557374722139652 0.02682622758124798 0.01362584732662332
  endloop
endfacet
facet normal -0.222024 -0.975041 -2.04529e-16
  outer loop
    vertex 0.00987006335156341 0.028125 0
    vertex 0.01810430601142315 0.02625 0
    vertex 0.01631017243644208 0.02665853793020799 0.006865501061576539
  endloop
endfacet
facet normal -0.222024 -0.975041 -1.24178e-16
  outer loop
    vertex 0.02633854867128287 0.024375 0
    vertex 0.03457279133114258 0.0225 0
    vertex 0.02813268224626391 0.023966462069792 0.006865501061576549
  endloop
endfacet
facet normal -0.222024 -0.975041 6.5508e-17
  outer loop
    vertex 0.02886910746130944 0.02379877241875203 0.01362584732662332
    vertex 0.02222142734135299 0.0253125 0.01251997472784721
    vertex 0.02813268224626391 0.023966462069792 0.006865501061576549
  endloop
endfacet
facet normal -0.222024 -0.975041 7.48663e-17
  outer loop
    vertex 0.02222142734135299 0.0253125 0.01251997472784721
    vertex 0.01557374722139652 0.02682622758124798 0.01362584732662332
    vertex 0.01631017243644208 0.02665853793020799 0.006865501061576539
  endloop
endfacet
facet normal -0.222024 -0.975041 -4.76938e-16
  outer loop
    vertex 0.01810430601142315 0.02625 0
    vertex 0.02633854867128287 0.024375 0
    vertex 0.022221427341353 0.02531249999999999 0.005047184314988734
  endloop
endfacet
facet normal -0.222024 -0.975041 -1.6455e-16
  outer loop
    vertex 0.02222142734135299 0.0253125 0.01251997472784721
    vertex 0.01810430601142312 0.02625 0.02
    vertex 0.01557374722139652 0.02682622758124798 0.01362584732662332
  endloop
endfacet
facet normal -0.222024 -0.975041 -2.01117e-16
  outer loop
    vertex 0.02633854867128284 0.024375 0.02
    vertex 0.02222142734135299 0.0253125 0.01251997472784721
    vertex 0.02886910746130944 0.02379877241875203 0.01362584732662332
  endloop
endfacet
facet normal -0.222024 -0.975041 -2.6555e-16
  outer loop
    vertex 0.022221427341353 0.02531249999999999 0.005047184314988734
    vertex 0.02633854867128287 0.024375 0
    vertex 0.02813268224626391 0.023966462069792 0.006865501061576549
  endloop
endfacet
facet normal -0.222024 -0.975041 -2.93211e-16
  outer loop
    vertex 0.01810430601142315 0.02625 0
    vertex 0.022221427341353 0.02531249999999999 0.005047184314988734
    vertex 0.01631017243644208 0.02665853793020799 0.006865501061576539
  endloop
endfacet
facet normal -0.222024 -0.975041 1.20191e-16
  outer loop
    vertex 0.03457279133114258 0.0225 0.01000000000000003
    vertex 0.02886910746130944 0.02379877241875203 0.01362584732662332
    vertex 0.02813268224626391 0.023966462069792 0.006865501061576549
  endloop
endfacet
facet normal -0.222024 -0.975041 9.01431e-17
  outer loop
    vertex 0.01557374722139652 0.02682622758124798 0.01362584732662332
    vertex 0.00987006335156341 0.028125 0.009999999999999972
    vertex 0.01631017243644208 0.02665853793020799 0.006865501061576539
  endloop
endfacet
facet normal -0.32199 0.946743 9.95064e-17
  outer loop
    vertex 0.03457279133114258 0.0225 0
    vertex 0.02630322060534563 0.0196875 0
    vertex 0.02740715003773001 0.02006294893580698 0.007796300547013021
  endloop
endfacet
facet normal -0.32199 0.946743 0
  outer loop
    vertex 0.03457279133114258 0.0225 0.009999999999999972
    vertex 0.03457279133114258 0.0225 0
    vertex 0.02740715003773001 0.02006294893580698 0.007796300547013021
  endloop
endfacet
facet normal -0.32199 0.946743 0
  outer loop
    vertex 0.01803364987954869 0.016875 0.01000000000000003
    vertex 0.01803364987954869 0.016875 0.02
    vertex 0.02370707232478686 0.01880454400613034 0.01358043674340165
  endloop
endfacet
facet normal -0.32199 0.946743 0
  outer loop
    vertex 0.01803364987954869 0.016875 0
    vertex 0.01803364987954869 0.016875 0.01000000000000003
    vertex 0.02230601159161022 0.01832804003237908 0.005064614083171152
  endloop
endfacet
facet normal -0.32199 0.946743 0
  outer loop
    vertex 0.03457279133114258 0.0225 0.02
    vertex 0.03457279133114258 0.0225 0.009999999999999972
    vertex 0.02931260512602953 0.02071099858838747 0.01427534745808293
  endloop
endfacet
facet normal -0.32199 0.946743 1.8127e-16
  outer loop
    vertex 0.01803364987954869 0.016875 0.02
    vertex 0.02630322060534563 0.0196875 0.02
    vertex 0.02370707232478686 0.01880454400613034 0.01358043674340165
  endloop
endfacet
facet normal -0.32199 0.946743 -4.04877e-17
  outer loop
    vertex 0.02370707232478686 0.01880454400613034 0.01358043674340165
    vertex 0.02740715003773001 0.02006294893580698 0.007796300547013021
    vertex 0.02230601159161022 0.01832804003237908 0.005064614083171152
  endloop
endfacet
facet normal -0.32199 0.946743 -3.82942e-16
  outer loop
    vertex 0.02630322060534563 0.0196875 0
    vertex 0.01803364987954869 0.016875 0
    vertex 0.02230601159161022 0.01832804003237908 0.005064614083171152
  endloop
endfacet
facet normal -0.32199 0.946743 2.37153e-16
  outer loop
    vertex 0.02630322060534563 0.0196875 0.02
    vertex 0.03457279133114258 0.0225 0.02
    vertex 0.02931260512602953 0.02071099858838747 0.01427534745808293
  endloop
endfacet
facet normal -0.32199 0.946743 7.4085e-17
  outer loop
    vertex 0.01803364987954869 0.016875 0.01000000000000003
    vertex 0.02370707232478686 0.01880454400613034 0.01358043674340165
    vertex 0.02230601159161022 0.01832804003237908 0.005064614083171152
  endloop
endfacet
facet normal -0.32199 0.946743 -3.7811e-16
  outer loop
    vertex 0.02931260512602953 0.02071099858838747 0.01427534745808293
    vertex 0.02740715003773001 0.02006294893580698 0.007796300547013021
    vertex 0.02370707232478686 0.01880454400613034 0.01358043674340165
  endloop
endfacet
facet normal -0.32199 0.946743 -3.6082e-16
  outer loop
    vertex 0.02931260512602953 0.02071099858838747 0.01427534745808293
    vertex 0.03457279133114258 0.0225 0.009999999999999972
    vertex 0.02740715003773001 0.02006294893580698 0.007796300547013021
  endloop
endfacet
facet normal -0.32199 0.946743 5.4546e-17
  outer loop
    vertex 0.02740715003773001 0.02006294893580698 0.007796300547013021
    vertex 0.02630322060534563 0.0196875 0
    vertex 0.02230601159161022 0.01832804003237908 0.005064614083171152
  endloop
endfacet
facet normal -0.32199 0.946743 2.2288e-16
  outer loop
    vertex 0.02630322060534563 0.0196875 0.02
    vertex 0.02931260512602953 0.02071099858838747 0.01427534745808293
    vertex 0.02370707232478686 0.01880454400613034 0.01358043674340165
  endloop
endfacet
facet normal -0.3123 -0.949983 4.86309e-17
  outer loop
    vertex 0.03514429836058057 0.01125 0.02
    vertex 0.02658897412006463 0.0140625 0.02
    vertex 0.0279803192468826 0.01360510550983634 0.0122637966138795
  endloop
endfacet
facet normal -0.3123 -0.949983 0
  outer loop
    vertex 0.03514429836058057 0.01125 0.01000000000000003
    vertex 0.03514429836058057 0.01125 0.02
    vertex 0.0279803192468826 0.01360510550983634 0.0122637966138795
  endloop
endfacet
facet normal -0.3123 -0.949983 -0
  outer loop
    vertex 0.01803364987954869 0.016875 0.009999999999999972
    vertex 0.01803364987954869 0.016875 0
    vertex 0.02394780431512513 0.01493076517237228 0.0065513804702365
  endloop
endfacet
facet normal -0.3123 -0.949983 1.14852e-16
  outer loop
    vertex 0.01803364987954869 0.016875 0
    vertex 0.02658897412006463 0.0140625 0
    vertex 0.02394780431512513 0.01493076517237228 0.0065513804702365
  endloop
endfacet
facet normal -0.3123 -0.949983 -0
  outer loop
    vertex 0.01803364987954869 0.016875 0.02
    vertex 0.01803364987954869 0.016875 0.009999999999999972
    vertex 0.02246894618567382 0.01541692891931532 0.01478214674926582
  endloop
endfacet
facet normal -0.3123 -0.949983 0
  outer loop
    vertex 0.03514429836058057 0.01125 0
    vertex 0.03514429836058057 0.01125 0.01000000000000003
    vertex 0.0297611388806467 0.01301967413644172 0.005763035416823207
  endloop
endfacet
facet normal -0.3123 -0.949983 1.08153e-16
  outer loop
    vertex 0.02658897412006463 0.0140625 0.02
    vertex 0.01803364987954869 0.016875 0.02
    vertex 0.02246894618567382 0.01541692891931532 0.01478214674926582
  endloop
endfacet
facet normal -0.3123 -0.949983 1.63203e-16
  outer loop
    vertex 0.02658897412006463 0.0140625 0
    vertex 0.03514429836058057 0.01125 0
    vertex 0.0297611388806467 0.01301967413644172 0.005763035416823207
  endloop
endfacet
facet normal -0.3123 -0.949983 0
  outer loop
    vertex 0.02394780431512513 0.01493076517237228 0.0065513804702365
    vertex 0.0279803192468826 0.01360510550983634 0.0122637966138795
    vertex 0.02246894618567382 0.01541692891931532 0.01478214674926582
  endloop
endfacet
facet normal -0.3123 -0.949983 -3.693e-17
  outer loop
    vertex 0.01803364987954869 0.016875 0.009999999999999972
    vertex 0.02394780431512513 0.01493076517237228 0.0065513804702365
    vertex 0.02246894618567382 0.01541692891931532 0.01478214674926582
  endloop
endfacet
facet normal -0.3123 -0.949983 8.84561e-17
  outer loop
    vertex 0.0297611388806467 0.01301967413644172 0.005763035416823207
    vertex 0.0279803192468826 0.01360510550983634 0.0122637966138795
    vertex 0.02394780431512513 0.01493076517237228 0.0065513804702365
  endloop
endfacet
facet normal -0.3123 -0.949983 5.67468e-17
  outer loop
    vertex 0.0297611388806467 0.01301967413644172 0.005763035416823207
    vertex 0.03514429836058057 0.01125 0.01000000000000003
    vertex 0.0279803192468826 0.01360510550983634 0.0122637966138795
  endloop
endfacet
facet normal -0.3123 -0.949983 7.19679e-17
  outer loop
    vertex 0.0279803192468826 0.01360510550983634 0.0122637966138795
    vertex 0.02658897412006463 0.0140625 0.02
    vertex 0.02246894618567382 0.01541692891931532 0.01478214674926582
  endloop
endfacet
facet normal -0.3123 -0.949983 2.12324e-16
  outer loop
    vertex 0.02658897412006463 0.0140625 0
    vertex 0.0297611388806467 0.01301967413644172 0.005763035416823207
    vertex 0.02394780431512513 0.01493076517237228 0.0065513804702365
  endloop
endfacet
facet normal -0.48079 0.876836 -2.52752e-16
  outer loop
    vertex 0.03514429836058057 0.01125 0
    vertex 0.02488575159205599 0.005624999999999998 0
    vertex 0.03001502497631828 0.008437499999999999 0.005728862973760925
  endloop
endfacet
facet normal -0.48079 0.876836 2.4352e-16
  outer loop
    vertex 0.02488575159205599 0.005624999999999998 0.02
    vertex 0.03514429836058057 0.01125 0.02
    vertex 0.03001502497631828 0.008437499999999999 0.01405396560956745
  endloop
endfacet
facet normal -0.48079 0.876836 0
  outer loop
    vertex 0.03001502497631828 0.008437499999999999 0.005728862973760925
    vertex 0.02488575159205599 0.005624999999999998 0.01000000000000003
    vertex 0.03001502497631828 0.008437499999999999 0.01405396560956745
  endloop
endfacet
facet normal -0.48079 0.876836 0
  outer loop
    vertex 0.03514429836058057 0.01125 0.009999999999999972
    vertex 0.03001502497631828 0.008437499999999999 0.005728862973760925
    vertex 0.03001502497631828 0.008437499999999999 0.01405396560956745
  endloop
endfacet
facet normal -0.48079 0.876836 0
  outer loop
    vertex 0.03514429836058057 0.01125 0.02
    vertex 0.03514429836058057 0.01125 0.009999999999999972
    vertex 0.03001502497631828 0.008437499999999999 0.01405396560956745
  endloop
endfacet
facet normal -0.48079 0.876836 0
  outer loop
    vertex 0.02488575159205599 0.005624999999999998 0
    vertex 0.02488575159205599 0.005624999999999998 0.01000000000000003
    vertex 0.03001502497631828 0.008437499999999999 0.005728862973760925
  endloop
endfacet
facet normal -0.48079 0.876836 0
  outer loop
    vertex 0.03514429836058057 0.01125 0.009999999999999972
    vertex 0.03514429836058057 0.01125 0
    vertex 0.03001502497631828 0.008437499999999999 0.005728862973760925
  endloop
endfacet
facet normal -0.48079 0.876836 0
  outer loop
    vertex 0.02488575159205599 0.005624999999999998 0.01000000000000003
    vertex 0.02488575159205599 0.005624999999999998 0.02
    vertex 0.03001502497631828 0.008437499999999999 0.01405396560956745
  endloop
endfacet
endsolid Created by Gmsh
