solid Created by Gmsh
facet normal 1 0 0
  outer loop
    vertex 0.04 0.05632963022345701 0
    vertex 0.04 0.06 0
    vertex 0.04 0.06 0.009999999999999972
  endloop
endfacet
facet normal 1 0 0
  outer loop
    vertex 0.04 0.05632963022345701 0.01000000000000003
    vertex 0.04 0.06 0.02
    vertex 0.04 0.05632963022345701 0.02
  endloop
endfacet
facet normal 1 0 -0
  outer loop
    vertex 0.04 0.06 0.009999999999999972
    vertex 0.04 0.06 0.02
    vertex 0.04 0.05632963022345701 0.01000000000000003
  endloop
endfacet
facet normal 1 0 0
  outer loop
    vertex 0.04 0.05632963022345701 0
    vertex 0.04 0.06 0.009999999999999972
    vertex 0.04 0.05632963022345701 0.01000000000000003
  endloop
endfacet
facet normal 0.433069 -0.901361 -6.87049e-16
  outer loop
    vertex 0.03267245877460911 0.05280902833449094 0
    vertex 0.0330943085417049 0.05301171093172437 0.007923906274120067
    vertex 0.02534491754921824 0.04928842644552488 0
  endloop
endfacet
facet normal 0.433069 -0.901361 0
  outer loop
    vertex 0.02534491754921824 0.04928842644552488 0
    vertex 0.0330943085417049 0.05301171093172437 0.007923906274120067
    vertex 0.02534491754921824 0.04928842644552488 0.01000000000000003
  endloop
endfacet
facet normal 0.433069 -0.901361 -6.83762e-16
  outer loop
    vertex 0.04 0.05632963022345701 0
    vertex 0.0330943085417049 0.05301171093172437 0.007923906274120067
    vertex 0.03267245877460911 0.05280902833449094 0
  endloop
endfacet
facet normal 0.433069 -0.901361 0
  outer loop
    vertex 0.04 0.05632963022345701 0.009999999999999972
    vertex 0.0330943085417049 0.05301171093172437 0.007923906274120067
    vertex 0.04 0.05632963022345701 0
  endloop
endfacet
facet normal 0.433069 -0.901361 0
  outer loop
    vertex 0.04 0.05632963022345701 0.02
    vertex 0.03524660437410284 0.05404580634518959 0.01435638621589094
    vertex 0.04 0.05632963022345701 0.009999999999999972
  endloop
endfacet
facet normal 0.433069 -0.901361 0
  outer loop
    vertex 0.02534491754921824 0.04928842644552488 0.01000000000000003
    vertex 0.03034064135777067 0.05168867970049093 0.01445605849800221
    vertex 0.02534491754921824 0.04928842644552488 0.02
  endloop
endfacet
facet normal 0.433069 -0.901361 1.278e-15
  outer loop
    vertex 0.02534491754921824 0.04928842644552488 0.02
    vertex 0.03034064135777067 0.05168867970049093 0.01445605849800221
    vertex 0.03267245877460913 0.05280902833449095 0.02
  endloop
endfacet
facet normal 0.433069 -0.901361 1.07081e-15
  outer loop
    vertex 0.03267245877460913 0.05280902833449095 0.02
    vertex 0.03524660437410284 0.05404580634518959 0.01435638621589094
    vertex 0.04 0.05632963022345701 0.02
  endloop
endfacet
facet normal 0.433069 -0.901361 -5.44089e-16
  outer loop
    vertex 0.0330943085417049 0.05301171093172437 0.007923906274120067
    vertex 0.03034064135777067 0.05168867970049093 0.01445605849800221
    vertex 0.02534491754921824 0.04928842644552488 0.01000000000000003
  endloop
endfacet
facet normal 0.433069 -0.901361 -3.82196e-16
  outer loop
    vertex 0.03524660437410284 0.05404580634518959 0.01435638621589094
    vertex 0.0330943085417049 0.05301171093172437 0.007923906274120067
    vertex 0.04 0.05632963022345701 0.009999999999999972
  endloop
endfacet
facet normal 0.433069 -0.901361 -1.2015e-16
  outer loop
    vertex 0.03524660437410284 0.05404580634518959 0.01435638621589094
    vertex 0.03034064135777067 0.05168867970049093 0.01445605849800221
    vertex 0.0330943085417049 0.05301171093172437 0.007923906274120067
  endloop
endfacet
facet normal 0.433069 -0.901361 1.16899e-15
  outer loop
    vertex 0.03267245877460913 0.05280902833449095 0.02
    vertex 0.03034064135777067 0.05168867970049093 0.01445605849800221
    vertex 0.03524660437410284 0.05404580634518959 0.01435638621589094
  endloop
endfacet
facet normal 0.993739 0.111726 8.36804e-17
  outer loop
    vertex 0.02613655849152087 0.04224722266759276 0.01000000000000003
    vertex 0.02574073802036956 0.04576782455655883 0.005
    vertex 0.02534491754921824 0.04928842644552488 0.009999999999999972
  endloop
endfacet
facet normal 0.993739 0.111726 8.36804e-17
  outer loop
    vertex 0.02534491754921824 0.04928842644552488 0.009999999999999972
    vertex 0.02574073802036956 0.04576782455655882 0.015
    vertex 0.02613655849152087 0.04224722266759276 0.01000000000000003
  endloop
endfacet
facet normal 0.993739 0.111726 -7.17261e-17
  outer loop
    vertex 0.02613655849152087 0.04224722266759276 0.02
    vertex 0.02574073802036956 0.04576782455655882 0.015
    vertex 0.02534491754921824 0.04928842644552488 0.02
  endloop
endfacet
facet normal 0.993739 0.111726 -7.17261e-17
  outer loop
    vertex 0.02534491754921824 0.04928842644552488 0
    vertex 0.02574073802036956 0.04576782455655883 0.005
    vertex 0.02613655849152087 0.04224722266759276 0
  endloop
endfacet
facet normal 0.993739 0.111726 0
  outer loop
    vertex 0.02534491754921824 0.04928842644552488 0.009999999999999972
    vertex 0.02574073802036956 0.04576782455655883 0.005
    vertex 0.02534491754921824 0.04928842644552488 0
  endloop
endfacet
facet normal 0.993739 0.111726 0
  outer loop
    vertex 0.02534491754921824 0.04928842644552488 0.02
    vertex 0.02574073802036956 0.04576782455655882 0.015
    vertex 0.02534491754921824 0.04928842644552488 0.009999999999999972
  endloop
endfacet
facet normal 0.993739 0.111726 -0
  outer loop
    vertex 0.02613655849152087 0.04224722266759276 0
    vertex 0.02574073802036956 0.04576782455655883 0.005
    vertex 0.02613655849152087 0.04224722266759276 0.01000000000000003
  endloop
endfacet
facet normal 0.993739 0.111726 -0
  outer loop
    vertex 0.02613655849152087 0.04224722266759276 0.01000000000000003
    vertex 0.02574073802036956 0.04576782455655882 0.015
    vertex 0.02613655849152087 0.04224722266759276 0.02
  endloop
endfacet
facet normal 0.901689 0.432386 0
  outer loop
    vertex 0.02613655849152087 0.04224722266759276 0.02
    vertex 0.02782478788589737 0.03872662077862669 0.015
    vertex 0.02613655849152087 0.04224722266759276 0.009999999999999972
  endloop
endfacet
facet normal 0.901689 0.432386 -0
  outer loop
    vertex 0.02951301728027386 0.03520601888966063 0
    vertex 0.02782478788589737 0.03872662077862669 0.005000000000000001
    vertex 0.02951301728027386 0.03520601888966063 0.01000000000000003
  endloop
endfacet
facet normal 0.901689 0.432386 0
  outer loop
    vertex 0.02613655849152087 0.04224722266759276 0.009999999999999972
    vertex 0.02782478788589737 0.03872662077862669 0.005000000000000001
    vertex 0.02613655849152087 0.04224722266759276 0
  endloop
endfacet
facet normal 0.901689 0.432386 -0
  outer loop
    vertex 0.02951301728027386 0.03520601888966063 0.01000000000000003
    vertex 0.02782478788589737 0.03872662077862669 0.015
    vertex 0.02951301728027386 0.03520601888966063 0.02
  endloop
endfacet
facet normal 0.901689 0.432386 0
  outer loop
    vertex 0.02951301728027386 0.03520601888966063 0.01000000000000003
    vertex 0.02782478788589737 0.03872662077862669 0.005000000000000001
    vertex 0.02613655849152087 0.04224722266759276 0.009999999999999972
  endloop
endfacet
facet normal 0.901689 0.432386 0
  outer loop
    vertex 0.02613655849152087 0.04224722266759276 0.009999999999999972
    vertex 0.02782478788589737 0.03872662077862669 0.015
    vertex 0.02951301728027386 0.03520601888966063 0.01000000000000003
  endloop
endfacet
facet normal 0.901689 0.432386 0
  outer loop
    vertex 0.02613655849152087 0.04224722266759276 0
    vertex 0.02782478788589737 0.03872662077862669 0.005000000000000001
    vertex 0.02951301728027386 0.03520601888966063 0
  endloop
endfacet
facet normal 0.901689 0.432386 0
  outer loop
    vertex 0.02951301728027386 0.03520601888966063 0.02
    vertex 0.02782478788589737 0.03872662077862669 0.015
    vertex 0.02613655849152087 0.04224722266759276 0.02
  endloop
endfacet
facet normal 0.975523 -0.219896 4.92879e-16
  outer loop
    vertex 0.02951301728027386 0.03520601888966063 0
    vertex 0.02871942648392953 0.03168541700069457 0.004999999999999999
    vertex 0.02792583568758521 0.0281648151117285 0
  endloop
endfacet
facet normal 0.975523 -0.219896 -4.92879e-16
  outer loop
    vertex 0.02792583568758521 0.0281648151117285 0.02
    vertex 0.02871942648392953 0.03168541700069457 0.015
    vertex 0.02951301728027386 0.03520601888966063 0.02
  endloop
endfacet
facet normal 0.975523 -0.219896 4.92879e-16
  outer loop
    vertex 0.02951301728027386 0.03520601888966063 0.009999999999999972
    vertex 0.02871942648392953 0.03168541700069457 0.015
    vertex 0.02792583568758521 0.0281648151117285 0.01000000000000003
  endloop
endfacet
facet normal 0.975523 -0.219896 -4.92879e-16
  outer loop
    vertex 0.02792583568758521 0.0281648151117285 0.01000000000000003
    vertex 0.02871942648392953 0.03168541700069457 0.004999999999999999
    vertex 0.02951301728027386 0.03520601888966063 0.009999999999999972
  endloop
endfacet
facet normal 0.975523 -0.219896 0
  outer loop
    vertex 0.02951301728027386 0.03520601888966063 0.009999999999999972
    vertex 0.02871942648392953 0.03168541700069457 0.004999999999999999
    vertex 0.02951301728027386 0.03520601888966063 0
  endloop
endfacet
facet normal 0.975523 -0.219896 0
  outer loop
    vertex 0.02951301728027386 0.03520601888966063 0.02
    vertex 0.02871942648392953 0.03168541700069457 0.015
    vertex 0.02951301728027386 0.03520601888966063 0.009999999999999972
  endloop
endfacet
facet normal 0.975523 -0.219896 0
  outer loop
    vertex 0.02792583568758521 0.0281648151117285 0
    vertex 0.02871942648392953 0.03168541700069457 0.004999999999999999
    vertex 0.02792583568758521 0.0281648151117285 0.01000000000000003
  endloop
endfacet
facet normal 0.975523 -0.219896 0
  outer loop
    vertex 0.02792583568758521 0.0281648151117285 0.01000000000000003
    vertex 0.02871942648392953 0.03168541700069457 0.015
    vertex 0.02792583568758521 0.0281648151117285 0.02
  endloop
endfacet
facet normal 0.782167 0.623069 -0
  outer loop
    vertex 0.03353481860818635 0.02112361133379638 0
    vertex 0.03073032714788578 0.02464421322276245 0.005
    vertex 0.03353481860818635 0.02112361133379638 0.01000000000000003
  endloop
endfacet
facet normal 0.782167 0.623069 0
  outer loop
    vertex 0.02792583568758521 0.0281648151117285 0.02
    vertex 0.03073032714788578 0.02464421322276245 0.015
    vertex 0.02792583568758521 0.0281648151117285 0.009999999999999972
  endloop
endfacet
facet normal 0.782167 0.623069 -0
  outer loop
    vertex 0.03353481860818635 0.02112361133379638 0.01000000000000003
    vertex 0.03073032714788578 0.02464421322276245 0.015
    vertex 0.03353481860818635 0.02112361133379638 0.02
  endloop
endfacet
facet normal 0.782167 0.623069 0
  outer loop
    vertex 0.02792583568758521 0.0281648151117285 0.009999999999999972
    vertex 0.03073032714788578 0.02464421322276245 0.005
    vertex 0.02792583568758521 0.0281648151117285 0
  endloop
endfacet
facet normal 0.782167 0.623069 -6.77462e-16
  outer loop
    vertex 0.02792583568758521 0.0281648151117285 0
    vertex 0.03073032714788578 0.02464421322276245 0.005
    vertex 0.03353481860818635 0.02112361133379638 0
  endloop
endfacet
facet normal 0.782167 0.623069 -6.77462e-16
  outer loop
    vertex 0.02792583568758521 0.0281648151117285 0.009999999999999972
    vertex 0.03073032714788578 0.02464421322276245 0.015
    vertex 0.03353481860818635 0.02112361133379638 0.01000000000000003
  endloop
endfacet
facet normal 0.782167 0.623069 6.77462e-16
  outer loop
    vertex 0.03353481860818635 0.02112361133379638 0.02
    vertex 0.03073032714788578 0.02464421322276245 0.015
    vertex 0.02792583568758521 0.0281648151117285 0.02
  endloop
endfacet
facet normal 0.782167 0.623069 6.77462e-16
  outer loop
    vertex 0.03353481860818635 0.02112361133379638 0.01000000000000003
    vertex 0.03073032714788578 0.02464421322276245 0.005
    vertex 0.02792583568758521 0.0281648151117285 0.009999999999999972
  endloop
endfacet
facet normal 0.954242 -0.299035 1.51526e-15
  outer loop
    vertex 0.03353481860818635 0.02112361133379638 0.009999999999999972
    vertex 0.03243155325809031 0.01760300944483032 0.015
    vertex 0.03132828790799429 0.01408240755586425 0.01000000000000003
  endloop
endfacet
facet normal 0.954242 -0.299035 -1.51526e-15
  outer loop
    vertex 0.03132828790799429 0.01408240755586425 0.01000000000000003
    vertex 0.03243155325809031 0.01760300944483032 0.005
    vertex 0.03353481860818635 0.02112361133379638 0.009999999999999972
  endloop
endfacet
facet normal 0.954242 -0.299035 1.51526e-15
  outer loop
    vertex 0.03353481860818635 0.02112361133379638 0
    vertex 0.03243155325809031 0.01760300944483032 0.005
    vertex 0.03132828790799429 0.01408240755586425 0
  endloop
endfacet
facet normal 0.954242 -0.299035 -1.51526e-15
  outer loop
    vertex 0.03132828790799429 0.01408240755586425 0.02
    vertex 0.03243155325809031 0.01760300944483032 0.015
    vertex 0.03353481860818635 0.02112361133379638 0.02
  endloop
endfacet
facet normal 0.954242 -0.299035 0
  outer loop
    vertex 0.03353481860818635 0.02112361133379638 0.009999999999999972
    vertex 0.03243155325809031 0.01760300944483032 0.005
    vertex 0.03353481860818635 0.02112361133379638 0
  endloop
endfacet
facet normal 0.954242 -0.299035 0
  outer loop
    vertex 0.03353481860818635 0.02112361133379638 0.02
    vertex 0.03243155325809031 0.01760300944483032 0.015
    vertex 0.03353481860818635 0.02112361133379638 0.009999999999999972
  endloop
endfacet
facet normal 0.954242 -0.299035 0
  outer loop
    vertex 0.03132828790799429 0.01408240755586425 0
    vertex 0.03243155325809031 0.01760300944483032 0.005
    vertex 0.03132828790799429 0.01408240755586425 0.01000000000000003
  endloop
endfacet
facet normal 0.954242 -0.299035 0
  outer loop
    vertex 0.03132828790799429 0.01408240755586425 0.01000000000000003
    vertex 0.03243155325809031 0.01760300944483032 0.015
    vertex 0.03132828790799429 0.01408240755586425 0.02
  endloop
endfacet
facet normal 0.807398 -0.590007 0
  outer loop
    vertex 0.02618291661235474 0.007041203777932124 0
    vertex 0.02875560226017452 0.01056180566689819 0.005000000000000001
    vertex 0.02618291661235474 0.007041203777932124 0.01000000000000003
  endloop
endfacet
facet normal 0.807398 -0.590007 0
  outer loop
    vertex 0.03132828790799429 0.01408240755586425 0.02
    vertex 0.02875560226017452 0.01056180566689819 0.015
    vertex 0.03132828790799429 0.01408240755586425 0.009999999999999972
  endloop
endfacet
facet normal 0.807398 -0.590007 0
  outer loop
    vertex 0.02618291661235474 0.007041203777932124 0.01000000000000003
    vertex 0.02875560226017452 0.01056180566689819 0.015
    vertex 0.02618291661235474 0.007041203777932124 0.02
  endloop
endfacet
facet normal 0.807398 -0.590007 0
  outer loop
    vertex 0.03132828790799429 0.01408240755586425 0.009999999999999972
    vertex 0.02875560226017452 0.01056180566689819 0.005000000000000001
    vertex 0.03132828790799429 0.01408240755586425 0
  endloop
endfacet
facet normal 0.807398 -0.590007 2.33105e-16
  outer loop
    vertex 0.03132828790799429 0.01408240755586425 0
    vertex 0.02875560226017452 0.01056180566689819 0.005000000000000001
    vertex 0.02618291661235474 0.007041203777932124 0
  endloop
endfacet
facet normal 0.807398 -0.590007 2.33105e-16
  outer loop
    vertex 0.03132828790799429 0.01408240755586425 0.009999999999999972
    vertex 0.02875560226017452 0.01056180566689819 0.015
    vertex 0.02618291661235474 0.007041203777932124 0.01000000000000003
  endloop
endfacet
facet normal 0.807398 -0.590007 -1.55404e-16
  outer loop
    vertex 0.02618291661235474 0.007041203777932124 0.02
    vertex 0.02875560226017452 0.01056180566689819 0.015
    vertex 0.03132828790799429 0.01408240755586425 0.02
  endloop
endfacet
facet normal 0.807398 -0.590007 -1.55404e-16
  outer loop
    vertex 0.02618291661235474 0.007041203777932124 0.01000000000000003
    vertex 0.02875560226017452 0.01056180566689819 0.005000000000000001
    vertex 0.03132828790799429 0.01408240755586425 0.009999999999999972
  endloop
endfacet
endsolid Created by Gmsh
