solid Created by Gmsh
facet normal -0.9216 -0.38814 3.29475e-16
  outer loop
    vertex 0.03027582357412018 0.05307230338489586 0
    vertex 0.03306981025717966 0.04643826546178387 0
    vertex 0.03167281691564992 0.04975528442333987 0.005000000000000001
  endloop
endfacet
facet normal -0.9216 -0.38814 -2.82407e-16
  outer loop
    vertex 0.03306981025717966 0.04643826546178387 0.02
    vertex 0.03027582357412018 0.05307230338489586 0.02
    vertex 0.03167281691564992 0.04975528442333987 0.015
  endloop
endfacet
facet normal -0.9216 -0.38814 3.29475e-16
  outer loop
    vertex 0.03027582357412018 0.05307230338489586 0.009999999999999972
    vertex 0.03306981025717966 0.04643826546178387 0.01000000000000003
    vertex 0.03167281691564992 0.04975528442333987 0.015
  endloop
endfacet
facet normal -0.9216 -0.38814 -2.82407e-16
  outer loop
    vertex 0.03306981025717966 0.04643826546178387 0.01000000000000003
    vertex 0.03027582357412018 0.05307230338489586 0.009999999999999972
    vertex 0.03167281691564992 0.04975528442333987 0.005000000000000001
  endloop
endfacet
facet normal -0.9216 -0.38814 -0
  outer loop
    vertex 0.03027582357412018 0.05307230338489586 0.009999999999999972
    vertex 0.03027582357412018 0.05307230338489586 0
    vertex 0.03167281691564992 0.04975528442333987 0.005000000000000001
  endloop
endfacet
facet normal -0.9216 -0.38814 -0
  outer loop
    vertex 0.03027582357412018 0.05307230338489586 0.02
    vertex 0.03027582357412018 0.05307230338489586 0.009999999999999972
    vertex 0.03167281691564992 0.04975528442333987 0.015
  endloop
endfacet
facet normal -0.9216 -0.38814 0
  outer loop
    vertex 0.03306981025717966 0.04643826546178387 0
    vertex 0.03306981025717966 0.04643826546178387 0.01000000000000003
    vertex 0.03167281691564992 0.04975528442333987 0.005000000000000001
  endloop
endfacet
facet normal -0.9216 -0.38814 0
  outer loop
    vertex 0.03306981025717966 0.04643826546178387 0.01000000000000003
    vertex 0.03306981025717966 0.04643826546178387 0.02
    vertex 0.03167281691564992 0.04975528442333987 0.015
  endloop
endfacet
facet normal -0.85499 -0.518645 -0
  outer loop
    vertex 0.03306981025717966 0.04643826546178387 0.02
    vertex 0.03306981025717966 0.04643826546178387 0.009999999999999972
    vertex 0.03508194467390274 0.04312124650022789 0.015
  endloop
endfacet
facet normal -0.85499 -0.518645 0
  outer loop
    vertex 0.03709407909062582 0.0398042275386719 0
    vertex 0.03709407909062582 0.0398042275386719 0.01000000000000003
    vertex 0.03508194467390274 0.04312124650022789 0.005
  endloop
endfacet
facet normal -0.85499 -0.518645 -0
  outer loop
    vertex 0.03306981025717966 0.04643826546178387 0.009999999999999972
    vertex 0.03306981025717966 0.04643826546178387 0
    vertex 0.03508194467390274 0.04312124650022789 0.005
  endloop
endfacet
facet normal -0.85499 -0.518645 0
  outer loop
    vertex 0.03709407909062582 0.0398042275386719 0.01000000000000003
    vertex 0.03709407909062582 0.0398042275386719 0.02
    vertex 0.03508194467390274 0.04312124650022789 0.015
  endloop
endfacet
facet normal -0.85499 -0.518645 -3.49328e-16
  outer loop
    vertex 0.03709407909062582 0.0398042275386719 0.02
    vertex 0.03306981025717966 0.04643826546178387 0.02
    vertex 0.03508194467390274 0.04312124650022789 0.015
  endloop
endfacet
facet normal -0.85499 -0.518645 -3.49328e-16
  outer loop
    vertex 0.03709407909062582 0.0398042275386719 0.01000000000000003
    vertex 0.03306981025717966 0.04643826546178387 0.009999999999999972
    vertex 0.03508194467390274 0.04312124650022789 0.005
  endloop
endfacet
facet normal -0.85499 -0.518645 3.49328e-16
  outer loop
    vertex 0.03306981025717966 0.04643826546178387 0.009999999999999972
    vertex 0.03709407909062582 0.0398042275386719 0.01000000000000003
    vertex 0.03508194467390274 0.04312124650022789 0.015
  endloop
endfacet
facet normal -0.85499 -0.518645 3.49328e-16
  outer loop
    vertex 0.03306981025717966 0.04643826546178387 0
    vertex 0.03709407909062582 0.0398042275386719 0
    vertex 0.03508194467390274 0.04312124650022789 0.005
  endloop
endfacet
facet normal -0.289302 0.957238 0
  outer loop
    vertex 0.0151434631941254 0.03317018961555991 0
    vertex 0.0151434631941254 0.03317018961555991 0.01000000000000003
    vertex 0.02370325997631117 0.03575717928067476 0.008679749975634241
  endloop
endfacet
facet normal -0.289302 0.957238 2.21294e-16
  outer loop
    vertex 0.02611877114237558 0.0364872085771159 0
    vertex 0.0151434631941254 0.03317018961555991 0
    vertex 0.02370325997631117 0.03575717928067476 0.008679749975634241
  endloop
endfacet
facet normal -0.289302 0.957238 -6.4633e-16
  outer loop
    vertex 0.02611877114237564 0.03648720857711591 0.02
    vertex 0.03709407909062582 0.0398042275386719 0.02
    vertex 0.03005518282236961 0.03767689293445662 0.01314195362954654
  endloop
endfacet
facet normal -0.289302 0.957238 -5.72076e-17
  outer loop
    vertex 0.0151434631941254 0.03317018961555991 0.02
    vertex 0.02611877114237564 0.03648720857711591 0.02
    vertex 0.0206943377325309 0.03484780596891653 0.01483453267415561
  endloop
endfacet
facet normal -0.289302 0.957238 4.64312e-17
  outer loop
    vertex 0.03709407909062582 0.0398042275386719 0
    vertex 0.02611877114237558 0.0364872085771159 0
    vertex 0.0308130744244616 0.03790594717391822 0.006364340721036152
  endloop
endfacet
facet normal -0.289302 0.957238 0
  outer loop
    vertex 0.03709407909062582 0.0398042275386719 0.02
    vertex 0.03709407909062582 0.0398042275386719 0.009999999999999972
    vertex 0.03005518282236961 0.03767689293445662 0.01314195362954654
  endloop
endfacet
facet normal -0.289302 0.957238 2.47005e-16
  outer loop
    vertex 0.03005518282236961 0.03767689293445662 0.01314195362954654
    vertex 0.02370325997631117 0.03575717928067476 0.008679749975634241
    vertex 0.0206943377325309 0.03484780596891653 0.01483453267415561
  endloop
endfacet
facet normal -0.289302 0.957238 0
  outer loop
    vertex 0.0151434631941254 0.03317018961555991 0.01000000000000003
    vertex 0.0151434631941254 0.03317018961555991 0.02
    vertex 0.0206943377325309 0.03484780596891653 0.01483453267415561
  endloop
endfacet
facet normal -0.289302 0.957238 0
  outer loop
    vertex 0.03709407909062582 0.0398042275386719 0.009999999999999972
    vertex 0.03709407909062582 0.0398042275386719 0
    vertex 0.0308130744244616 0.03790594717391822 0.006364340721036152
  endloop
endfacet
facet normal -0.289302 0.957238 -3.66409e-16
  outer loop
    vertex 0.02611877114237564 0.03648720857711591 0.02
    vertex 0.03005518282236961 0.03767689293445662 0.01314195362954654
    vertex 0.0206943377325309 0.03484780596891653 0.01483453267415561
  endloop
endfacet
facet normal -0.289302 0.957238 8.33814e-16
  outer loop
    vertex 0.0308130744244616 0.03790594717391822 0.006364340721036152
    vertex 0.02370325997631117 0.03575717928067476 0.008679749975634241
    vertex 0.03005518282236961 0.03767689293445662 0.01314195362954654
  endloop
endfacet
facet normal -0.289302 0.957238 2.60068e-16
  outer loop
    vertex 0.0308130744244616 0.03790594717391822 0.006364340721036152
    vertex 0.02611877114237558 0.0364872085771159 0
    vertex 0.02370325997631117 0.03575717928067476 0.008679749975634241
  endloop
endfacet
facet normal -0.289302 0.957238 9.98718e-17
  outer loop
    vertex 0.02370325997631117 0.03575717928067476 0.008679749975634241
    vertex 0.0151434631941254 0.03317018961555991 0.01000000000000003
    vertex 0.0206943377325309 0.03484780596891653 0.01483453267415561
  endloop
endfacet
facet normal -0.289302 0.957238 7.87098e-16
  outer loop
    vertex 0.03709407909062582 0.0398042275386719 0.009999999999999972
    vertex 0.0308130744244616 0.03790594717391822 0.006364340721036152
    vertex 0.03005518282236961 0.03767689293445662 0.01314195362954654
  endloop
endfacet
facet normal -0.445437 -0.895313 -1.83183e-16
  outer loop
    vertex 0.02847766589900732 0.02653615169244793 0.02
    vertex 0.02181056454656636 0.02985317065400392 0.02
    vertex 0.0216745012536594 0.02992086491852547 0.01254866249264128
  endloop
endfacet
facet normal -0.445437 -0.895313 -2.05127e-16
  outer loop
    vertex 0.02181056454656636 0.02985317065400392 0.02
    vertex 0.0151434631941254 0.03317018961555991 0.02
    vertex 0.0216745012536594 0.02992086491852547 0.01254866249264128
  endloop
endfacet
facet normal -0.445437 -0.895313 -0
  outer loop
    vertex 0.0151434631941254 0.03317018961555991 0.02
    vertex 0.0151434631941254 0.03317018961555991 0.009999999999999972
    vertex 0.0216745012536594 0.02992086491852547 0.01254866249264128
  endloop
endfacet
facet normal -0.445437 -0.895313 0
  outer loop
    vertex 0.02847766589900732 0.02653615169244793 0.01000000000000003
    vertex 0.02847766589900732 0.02653615169244793 0.02
    vertex 0.0216745012536594 0.02992086491852547 0.01254866249264128
  endloop
endfacet
facet normal -0.445437 -0.895313 0
  outer loop
    vertex 0.02847766589900732 0.02653615169244793 0
    vertex 0.02847766589900732 0.02653615169244793 0.01000000000000003
    vertex 0.02381069495229865 0.02885806496553713 0.005331792828525636
  endloop
endfacet
facet normal -0.445437 -0.895313 -0
  outer loop
    vertex 0.0151434631941254 0.03317018961555991 0.009999999999999972
    vertex 0.0151434631941254 0.03317018961555991 0
    vertex 0.01921953069735242 0.0311422628626786 0.005411493617309551
  endloop
endfacet
facet normal -0.445437 -0.895313 6.40009e-17
  outer loop
    vertex 0.02181056454656636 0.02985317065400392 0
    vertex 0.02847766589900732 0.02653615169244793 0
    vertex 0.02381069495229865 0.02885806496553713 0.005331792828525636
  endloop
endfacet
facet normal -0.445437 -0.895313 3.7835e-16
  outer loop
    vertex 0.0151434631941254 0.03317018961555991 0
    vertex 0.02181056454656636 0.02985317065400392 0
    vertex 0.01921953069735242 0.0311422628626786 0.005411493617309551
  endloop
endfacet
facet normal -0.445437 -0.895313 -1.1503e-16
  outer loop
    vertex 0.02381069495229865 0.02885806496553713 0.005331792828525636
    vertex 0.0216745012536594 0.02992086491852547 0.01254866249264128
    vertex 0.01921953069735242 0.0311422628626786 0.005411493617309551
  endloop
endfacet
facet normal -0.445437 -0.895313 1.38507e-16
  outer loop
    vertex 0.02181056454656636 0.02985317065400392 0
    vertex 0.02381069495229865 0.02885806496553713 0.005331792828525636
    vertex 0.01921953069735242 0.0311422628626786 0.005411493617309551
  endloop
endfacet
facet normal -0.445437 -0.895313 -3.00666e-16
  outer loop
    vertex 0.0216745012536594 0.02992086491852547 0.01254866249264128
    vertex 0.0151434631941254 0.03317018961555991 0.009999999999999972
    vertex 0.01921953069735242 0.0311422628626786 0.005411493617309551
  endloop
endfacet
facet normal -0.445437 -0.895313 -5.21172e-17
  outer loop
    vertex 0.02381069495229865 0.02885806496553713 0.005331792828525636
    vertex 0.02847766589900732 0.02653615169244793 0.01000000000000003
    vertex 0.0216745012536594 0.02992086491852547 0.01254866249264128
  endloop
endfacet
facet normal -0.481865 -0.876245 0
  outer loop
    vertex 0.04054129985277882 0.01990211376933595 0
    vertex 0.04054129985277882 0.01990211376933595 0.01000000000000003
    vertex 0.03631902796895879 0.02222402704242513 0.005000000000000005
  endloop
endfacet
facet normal -0.481865 -0.876245 -0
  outer loop
    vertex 0.02847766589900732 0.02653615169244793 0.02
    vertex 0.02847766589900732 0.02653615169244793 0.009999999999999972
    vertex 0.03269993778282734 0.02421423841935873 0.015
  endloop
endfacet
facet normal -0.481865 -0.876245 0
  outer loop
    vertex 0.04054129985277882 0.01990211376933595 0.01000000000000003
    vertex 0.04054129985277882 0.01990211376933595 0.02
    vertex 0.03656030064803423 0.0220913462839629 0.01500000000000001
  endloop
endfacet
facet normal -0.481865 -0.876245 -0
  outer loop
    vertex 0.02847766589900732 0.02653615169244793 0.009999999999999972
    vertex 0.02847766589900732 0.02653615169244793 0
    vertex 0.03245866510375191 0.02434691917782097 0.004999999999999998
  endloop
endfacet
facet normal -0.481865 -0.876245 1.32893e-15
  outer loop
    vertex 0.03450948287589307 0.02321913273089194 0.02
    vertex 0.02847766589900732 0.02653615169244793 0.02
    vertex 0.03269993778282734 0.02421423841935873 0.015
  endloop
endfacet
facet normal -0.481865 -0.876245 -1.69808e-15
  outer loop
    vertex 0.03450948287589307 0.02321913273089194 0
    vertex 0.04054129985277882 0.01990211376933595 0
    vertex 0.03631902796895879 0.02222402704242513 0.005000000000000005
  endloop
endfacet
facet normal -0.481865 -0.876245 2.95317e-16
  outer loop
    vertex 0.04054129985277882 0.01990211376933595 0.02
    vertex 0.03450948287589307 0.02321913273089194 0.02
    vertex 0.03656030064803423 0.0220913462839629 0.01500000000000001
  endloop
endfacet
facet normal -0.481865 -0.876245 -1.42737e-15
  outer loop
    vertex 0.02847766589900732 0.02653615169244793 0
    vertex 0.03450948287589307 0.02321913273089194 0
    vertex 0.03245866510375191 0.02434691917782097 0.004999999999999998
  endloop
endfacet
facet normal -0.481865 -0.876245 -1.69192e-15
  outer loop
    vertex 0.03450948287589307 0.02321913273089194 0
    vertex 0.03631902796895879 0.02222402704242513 0.005000000000000005
    vertex 0.03245866510375191 0.02434691917782097 0.004999999999999998
  endloop
endfacet
facet normal -0.481865 -0.876245 7.49829e-16
  outer loop
    vertex 0.03450948287589307 0.02321913273089194 0.02
    vertex 0.03269993778282734 0.02421423841935873 0.015
    vertex 0.03656030064803423 0.0220913462839629 0.01500000000000001
  endloop
endfacet
facet normal -0.481865 -0.876245 4.99886e-16
  outer loop
    vertex 0.03245866510375191 0.02434691917782097 0.004999999999999998
    vertex 0.03631902796895879 0.02222402704242513 0.005000000000000005
    vertex 0.03450948287589307 0.02321913273089193 0.01
  endloop
endfacet
facet normal -0.481865 -0.876245 -1.53811e-16
  outer loop
    vertex 0.03656030064803423 0.0220913462839629 0.01500000000000001
    vertex 0.03269993778282734 0.02421423841935873 0.015
    vertex 0.03450948287589307 0.02321913273089193 0.01
  endloop
endfacet
facet normal -0.481865 -0.876245 6.39855e-16
  outer loop
    vertex 0.02847766589900732 0.02653615169244793 0.009999999999999972
    vertex 0.03245866510375191 0.02434691917782097 0.004999999999999998
    vertex 0.03450948287589307 0.02321913273089193 0.01
  endloop
endfacet
facet normal -0.481865 -0.876245 -9.10562e-16
  outer loop
    vertex 0.03269993778282734 0.02421423841935873 0.015
    vertex 0.02847766589900732 0.02653615169244793 0.009999999999999972
    vertex 0.03450948287589307 0.02321913273089193 0.01
  endloop
endfacet
facet normal -0.481865 -0.876245 8.36733e-16
  outer loop
    vertex 0.03631902796895879 0.02222402704242513 0.005000000000000005
    vertex 0.04054129985277882 0.01990211376933595 0.01000000000000003
    vertex 0.03450948287589307 0.02321913273089193 0.01
  endloop
endfacet
facet normal -0.481865 -0.876245 9.84392e-17
  outer loop
    vertex 0.04054129985277882 0.01990211376933595 0.01000000000000003
    vertex 0.03656030064803423 0.0220913462839629 0.01500000000000001
    vertex 0.03450948287589307 0.02321913273089193 0.01
  endloop
endfacet
facet normal -0.334529 0.942385 0
  outer loop
    vertex 0.04054129985277882 0.01990211376933595 0.009999999999999972
    vertex 0.04054129985277882 0.01990211376933595 0
    vertex 0.03398341414565471 0.01757418638308311 0.00713060595471577
  endloop
endfacet
facet normal -0.334529 0.942385 0
  outer loop
    vertex 0.02185288940947723 0.01326807584622396 0.02
    vertex 0.03119709463112803 0.01658509480777996 0.02
    vertex 0.02892103421411981 0.01577713571636677 0.01247895982519561
  endloop
endfacet
facet normal -0.334529 0.942385 0
  outer loop
    vertex 0.02185288940947723 0.01326807584622396 0.01000000000000003
    vertex 0.02185288940947723 0.01326807584622396 0.02
    vertex 0.02892103421411981 0.01577713571636677 0.01247895982519561
  endloop
endfacet
facet normal -0.334529 0.942385 0
  outer loop
    vertex 0.04054129985277882 0.01990211376933595 0
    vertex 0.03119709463112801 0.01658509480777995 0
    vertex 0.03398341414565471 0.01757418638308311 0.00713060595471577
  endloop
endfacet
facet normal -0.334529 0.942385 0
  outer loop
    vertex 0.04054129985277882 0.01990211376933595 0.02
    vertex 0.04054129985277882 0.01990211376933595 0.009999999999999972
    vertex 0.03533766832048454 0.01805492141298898 0.01444074200005687
  endloop
endfacet
facet normal -0.334529 0.942385 6.14652e-17
  outer loop
    vertex 0.03119709463112803 0.01658509480777996 0.02
    vertex 0.04054129985277882 0.01990211376933595 0.02
    vertex 0.03533766832048454 0.01805492141298898 0.01444074200005687
  endloop
endfacet
facet normal -0.334529 0.942385 0
  outer loop
    vertex 0.02185288940947723 0.01326807584622396 0
    vertex 0.02185288940947723 0.01326807584622396 0.01000000000000003
    vertex 0.02736208800263825 0.01522373882269103 0.005863933903042166
  endloop
endfacet
facet normal -0.334529 0.942385 -5.82717e-17
  outer loop
    vertex 0.03119709463112801 0.01658509480777995 0
    vertex 0.02185288940947723 0.01326807584622396 0
    vertex 0.02736208800263825 0.01522373882269103 0.005863933903042166
  endloop
endfacet
facet normal -0.334529 0.942385 0
  outer loop
    vertex 0.04054129985277882 0.01990211376933595 0.009999999999999972
    vertex 0.03398341414565471 0.01757418638308311 0.00713060595471577
    vertex 0.03533766832048454 0.01805492141298898 0.01444074200005687
  endloop
endfacet
facet normal -0.334529 0.942385 1.11663e-16
  outer loop
    vertex 0.02736208800263825 0.01522373882269103 0.005863933903042166
    vertex 0.02185288940947723 0.01326807584622396 0.01000000000000003
    vertex 0.02892103421411981 0.01577713571636677 0.01247895982519561
  endloop
endfacet
facet normal -0.334529 0.942385 9.01962e-18
  outer loop
    vertex 0.03398341414565471 0.01757418638308311 0.00713060595471577
    vertex 0.02892103421411981 0.01577713571636677 0.01247895982519561
    vertex 0.03533766832048454 0.01805492141298898 0.01444074200005687
  endloop
endfacet
facet normal -0.334529 0.942385 1.04966e-16
  outer loop
    vertex 0.02736208800263825 0.01522373882269103 0.005863933903042166
    vertex 0.02892103421411981 0.01577713571636677 0.01247895982519561
    vertex 0.03398341414565471 0.01757418638308311 0.00713060595471577
  endloop
endfacet
facet normal -0.334529 0.942385 1.82267e-17
  outer loop
    vertex 0.02892103421411981 0.01577713571636677 0.01247895982519561
    vertex 0.03119709463112803 0.01658509480777996 0.02
    vertex 0.03533766832048454 0.01805492141298898 0.01444074200005687
  endloop
endfacet
facet normal -0.334529 0.942385 -9.13628e-18
  outer loop
    vertex 0.03119709463112801 0.01658509480777995 0
    vertex 0.02736208800263825 0.01522373882269103 0.005863933903042166
    vertex 0.03398341414565471 0.01757418638308311 0.00713060595471577
  endloop
endfacet
facet normal -0.92366 -0.383214 -4.71731e-16
  outer loop
    vertex 0.02460526023633334 0.006634037923111985 0.01000000000000003
    vertex 0.02185288940947723 0.01326807584622396 0.009999999999999972
    vertex 0.02322907482290528 0.009951056884667976 0.005
  endloop
endfacet
facet normal -0.92366 -0.383214 3.30212e-16
  outer loop
    vertex 0.02185288940947723 0.01326807584622396 0.009999999999999972
    vertex 0.02460526023633334 0.006634037923111985 0.01000000000000003
    vertex 0.02322907482290528 0.009951056884667974 0.015
  endloop
endfacet
facet normal -0.92366 -0.383214 4.71731e-16
  outer loop
    vertex 0.02185288940947723 0.01326807584622396 0
    vertex 0.02460526023633334 0.006634037923111985 0
    vertex 0.02322907482290528 0.009951056884667976 0.005
  endloop
endfacet
facet normal -0.92366 -0.383214 -3.30212e-16
  outer loop
    vertex 0.02460526023633334 0.006634037923111985 0.02
    vertex 0.02185288940947723 0.01326807584622396 0.02
    vertex 0.02322907482290528 0.009951056884667974 0.015
  endloop
endfacet
facet normal -0.92366 -0.383214 -0
  outer loop
    vertex 0.02185288940947723 0.01326807584622396 0.009999999999999972
    vertex 0.02185288940947723 0.01326807584622396 0
    vertex 0.02322907482290528 0.009951056884667976 0.005
  endloop
endfacet
facet normal -0.92366 -0.383214 -0
  outer loop
    vertex 0.02185288940947723 0.01326807584622396 0.02
    vertex 0.02185288940947723 0.01326807584622396 0.009999999999999972
    vertex 0.02322907482290528 0.009951056884667974 0.015
  endloop
endfacet
facet normal -0.92366 -0.383214 0
  outer loop
    vertex 0.02460526023633334 0.006634037923111985 0
    vertex 0.02460526023633334 0.006634037923111985 0.01000000000000003
    vertex 0.02322907482290528 0.009951056884667976 0.005
  endloop
endfacet
facet normal -0.92366 -0.383214 0
  outer loop
    vertex 0.02460526023633334 0.006634037923111985 0.01000000000000003
    vertex 0.02460526023633334 0.006634037923111985 0.02
    vertex 0.02322907482290528 0.009951056884667974 0.015
  endloop
endfacet
endsolid Created by Gmsh
