solid Created by Gmsh
facet normal 1 0 0
  outer loop
    vertex 0.04 0.05632384232857058 0
    vertex 0.04 0.06 0
    vertex 0.04 0.06 0.009999999999999972
  endloop
endfacet
facet normal 1 0 0
  outer loop
    vertex 0.04 0.05632384232857058 0.01000000000000003
    vertex 0.04 0.06 0.02
    vertex 0.04 0.05632384232857058 0.02
  endloop
endfacet
facet normal 1 0 -0
  outer loop
    vertex 0.04 0.06 0.009999999999999972
    vertex 0.04 0.06 0.02
    vertex 0.04 0.05632384232857058 0.01000000000000003
  endloop
endfacet
facet normal 1 0 0
  outer loop
    vertex 0.04 0.05632384232857058 0
    vertex 0.04 0.06 0.009999999999999972
    vertex 0.04 0.05632384232857058 0.01000000000000003
  endloop
endfacet
facet normal 0.705324 -0.708885 0
  outer loop
    vertex 0.04 0.05632384232857058 0.02
    vertex 0.03646198299805981 0.05280360218303492 0.015
    vertex 0.04 0.05632384232857058 0.009999999999999972
  endloop
endfacet
facet normal 0.705324 -0.708885 0
  outer loop
    vertex 0.0329239659961196 0.04928336203749926 0
    vertex 0.03646198299805981 0.05280360218303492 0.005000000000000001
    vertex 0.0329239659961196 0.04928336203749926 0.01000000000000003
  endloop
endfacet
facet normal 0.705324 -0.708885 0
  outer loop
    vertex 0.04 0.05632384232857058 0.009999999999999972
    vertex 0.03646198299805981 0.05280360218303492 0.005000000000000001
    vertex 0.04 0.05632384232857058 0
  endloop
endfacet
facet normal 0.705324 -0.708885 0
  outer loop
    vertex 0.0329239659961196 0.04928336203749926 0.01000000000000003
    vertex 0.03646198299805981 0.05280360218303492 0.015
    vertex 0.0329239659961196 0.04928336203749926 0.02
  endloop
endfacet
facet normal 0.705324 -0.708885 4.75198e-16
  outer loop
    vertex 0.0329239659961196 0.04928336203749926 0.02
    vertex 0.03646198299805981 0.05280360218303492 0.015
    vertex 0.04 0.05632384232857058 0.02
  endloop
endfacet
facet normal 0.705324 -0.708885 4.75198e-16
  outer loop
    vertex 0.0329239659961196 0.04928336203749926 0.01000000000000003
    vertex 0.03646198299805981 0.05280360218303492 0.005000000000000001
    vertex 0.04 0.05632384232857058 0.009999999999999972
  endloop
endfacet
facet normal 0.705324 -0.708885 -4.75198e-16
  outer loop
    vertex 0.04 0.05632384232857058 0
    vertex 0.03646198299805981 0.05280360218303492 0.005000000000000001
    vertex 0.0329239659961196 0.04928336203749926 0
  endloop
endfacet
facet normal 0.705324 -0.708885 -4.75198e-16
  outer loop
    vertex 0.04 0.05632384232857058 0.009999999999999972
    vertex 0.03646198299805981 0.05280360218303492 0.015
    vertex 0.0329239659961196 0.04928336203749926 0.01000000000000003
  endloop
endfacet
facet normal 0.785148 0.619308 -0
  outer loop
    vertex 0.03847734926723725 0.04224288174642794 0
    vertex 0.03570065763167842 0.0457631218919636 0.005000000000000001
    vertex 0.03847734926723725 0.04224288174642794 0.01000000000000003
  endloop
endfacet
facet normal 0.785148 0.619308 0
  outer loop
    vertex 0.0329239659961196 0.04928336203749926 0.02
    vertex 0.03570065763167842 0.0457631218919636 0.015
    vertex 0.0329239659961196 0.04928336203749926 0.009999999999999972
  endloop
endfacet
facet normal 0.785148 0.619308 -0
  outer loop
    vertex 0.03847734926723725 0.04224288174642794 0.01000000000000003
    vertex 0.03570065763167842 0.0457631218919636 0.015
    vertex 0.03847734926723725 0.04224288174642794 0.02
  endloop
endfacet
facet normal 0.785148 0.619308 0
  outer loop
    vertex 0.0329239659961196 0.04928336203749926 0.009999999999999972
    vertex 0.03570065763167842 0.0457631218919636 0.005000000000000001
    vertex 0.0329239659961196 0.04928336203749926 0
  endloop
endfacet
facet normal 0.785148 0.619308 5.28978e-16
  outer loop
    vertex 0.0329239659961196 0.04928336203749926 0.009999999999999972
    vertex 0.03570065763167842 0.0457631218919636 0.015
    vertex 0.03847734926723725 0.04224288174642794 0.01000000000000003
  endloop
endfacet
facet normal 0.785148 0.619308 5.28978e-16
  outer loop
    vertex 0.0329239659961196 0.04928336203749926 0
    vertex 0.03570065763167842 0.0457631218919636 0.005000000000000001
    vertex 0.03847734926723725 0.04224288174642794 0
  endloop
endfacet
facet normal 0.785148 0.619308 -5.28978e-16
  outer loop
    vertex 0.03847734926723725 0.04224288174642794 0.01000000000000003
    vertex 0.03570065763167842 0.0457631218919636 0.005000000000000001
    vertex 0.0329239659961196 0.04928336203749926 0.009999999999999972
  endloop
endfacet
facet normal 0.785148 0.619308 -5.28978e-16
  outer loop
    vertex 0.03847734926723725 0.04224288174642794 0.02
    vertex 0.03570065763167842 0.0457631218919636 0.015
    vertex 0.0329239659961196 0.04928336203749926 0.02
  endloop
endfacet
facet normal 0.609341 -0.792908 1.0333e-16
  outer loop
    vertex 0.02931588332702191 0.03520240145535661 0.02
    vertex 0.03389661629712958 0.03872264160089227 0.01432426114969104
    vertex 0.03847734926723725 0.04224288174642794 0.02
  endloop
endfacet
facet normal 0.609341 -0.792908 -3.07115e-16
  outer loop
    vertex 0.03847734926723725 0.04224288174642794 0
    vertex 0.03389661629712957 0.03872264160089226 0.005728862973760944
    vertex 0.02931588332702191 0.03520240145535661 0
  endloop
endfacet
facet normal 0.609341 -0.792908 1.36462e-16
  outer loop
    vertex 0.03847734926723725 0.04224288174642794 0.009999999999999972
    vertex 0.03389661629712958 0.03872264160089227 0.01432426114969104
    vertex 0.03389661629712957 0.03872264160089226 0.005728862973760944
  endloop
endfacet
facet normal 0.609341 -0.792908 0
  outer loop
    vertex 0.03847734926723725 0.04224288174642794 0.02
    vertex 0.03389661629712958 0.03872264160089227 0.01432426114969104
    vertex 0.03847734926723725 0.04224288174642794 0.009999999999999972
  endloop
endfacet
facet normal 0.609341 -0.792908 0
  outer loop
    vertex 0.02931588332702191 0.03520240145535661 0
    vertex 0.03389661629712957 0.03872264160089226 0.005728862973760944
    vertex 0.02931588332702191 0.03520240145535661 0.01000000000000003
  endloop
endfacet
facet normal 0.609341 -0.792908 1.4819e-16
  outer loop
    vertex 0.03389661629712957 0.03872264160089226 0.005728862973760944
    vertex 0.03389661629712958 0.03872264160089227 0.01432426114969104
    vertex 0.02931588332702191 0.03520240145535661 0.01000000000000003
  endloop
endfacet
facet normal 0.609341 -0.792908 0
  outer loop
    vertex 0.03847734926723725 0.04224288174642794 0.009999999999999972
    vertex 0.03389661629712957 0.03872264160089226 0.005728862973760944
    vertex 0.03847734926723725 0.04224288174642794 0
  endloop
endfacet
facet normal 0.609341 -0.792908 0
  outer loop
    vertex 0.02931588332702191 0.03520240145535661 0.01000000000000003
    vertex 0.03389661629712958 0.03872264160089227 0.01432426114969104
    vertex 0.02931588332702191 0.03520240145535661 0.02
  endloop
endfacet
facet normal 0.870268 0.492579 0
  outer loop
    vertex 0.02931588332702191 0.03520240145535661 0.02
    vertex 0.03130836832892969 0.03168216130982095 0.015
    vertex 0.02931588332702191 0.03520240145535661 0.009999999999999972
  endloop
endfacet
facet normal 0.870268 0.492579 -0
  outer loop
    vertex 0.03330085333083746 0.02816192116428529 0
    vertex 0.03130836832892969 0.03168216130982095 0.005
    vertex 0.03330085333083746 0.02816192116428529 0.01000000000000003
  endloop
endfacet
facet normal 0.870268 0.492579 0
  outer loop
    vertex 0.02931588332702191 0.03520240145535661 0.009999999999999972
    vertex 0.03130836832892969 0.03168216130982095 0.005
    vertex 0.02931588332702191 0.03520240145535661 0
  endloop
endfacet
facet normal 0.870268 0.492579 -0
  outer loop
    vertex 0.03330085333083746 0.02816192116428529 0.01000000000000003
    vertex 0.03130836832892969 0.03168216130982095 0.015
    vertex 0.03330085333083746 0.02816192116428529 0.02
  endloop
endfacet
facet normal 0.870268 0.492579 -1.67522e-16
  outer loop
    vertex 0.03330085333083746 0.02816192116428529 0.02
    vertex 0.03130836832892969 0.03168216130982095 0.015
    vertex 0.02931588332702191 0.03520240145535661 0.02
  endloop
endfacet
facet normal 0.870268 0.492579 -1.67522e-16
  outer loop
    vertex 0.03330085333083746 0.02816192116428529 0.01000000000000003
    vertex 0.03130836832892969 0.03168216130982095 0.005
    vertex 0.02931588332702191 0.03520240145535661 0.009999999999999972
  endloop
endfacet
facet normal 0.870268 0.492579 1.67522e-16
  outer loop
    vertex 0.02931588332702191 0.03520240145535661 0
    vertex 0.03130836832892969 0.03168216130982095 0.005
    vertex 0.03330085333083746 0.02816192116428529 0
  endloop
endfacet
facet normal 0.870268 0.492579 1.67522e-16
  outer loop
    vertex 0.02931588332702191 0.03520240145535661 0.009999999999999972
    vertex 0.03130836832892969 0.03168216130982095 0.015
    vertex 0.03330085333083746 0.02816192116428529 0.01000000000000003
  endloop
endfacet
facet normal 0.475147 0.879906 3.67604e-16
  outer loop
    vertex 0.04633883578407504 0.02112144087321396 0.02
    vertex 0.03968680392017832 0.02471352265437281 0.01253572458075195
    vertex 0.03981984455745625 0.02464168101874963 0.02
  endloop
endfacet
facet normal 0.475147 0.879906 3.34098e-16
  outer loop
    vertex 0.03981984455745625 0.02464168101874963 0.02
    vertex 0.03968680392017832 0.02471352265437281 0.01253572458075195
    vertex 0.03330085333083746 0.02816192116428529 0.02
  endloop
endfacet
facet normal 0.475147 0.879906 0
  outer loop
    vertex 0.03330085333083746 0.02816192116428529 0.02
    vertex 0.03968680392017832 0.02471352265437281 0.01253572458075195
    vertex 0.03330085333083746 0.02816192116428529 0.009999999999999972
  endloop
endfacet
facet normal 0.475147 0.879906 -0
  outer loop
    vertex 0.04633883578407504 0.02112144087321396 0.01000000000000003
    vertex 0.03968680392017832 0.02471352265437281 0.01253572458075195
    vertex 0.04633883578407504 0.02112144087321396 0.02
  endloop
endfacet
facet normal 0.475147 0.879906 -0
  outer loop
    vertex 0.04633883578407504 0.02112144087321396 0
    vertex 0.04177554192544189 0.02358560897508893 0.00532334005942461
    vertex 0.04633883578407504 0.02112144087321396 0.01000000000000003
  endloop
endfacet
facet normal 0.475147 0.879906 0
  outer loop
    vertex 0.03330085333083746 0.02816192116428529 0.009999999999999972
    vertex 0.03728637070757787 0.02600975102283098 0.005408437805739501
    vertex 0.03330085333083746 0.02816192116428529 0
  endloop
endfacet
facet normal 0.475147 0.879906 -3.86585e-16
  outer loop
    vertex 0.03981984455745625 0.02464168101874963 0
    vertex 0.04177554192544189 0.02358560897508893 0.00532334005942461
    vertex 0.04633883578407504 0.02112144087321396 0
  endloop
endfacet
facet normal 0.475147 0.879906 -9.30116e-16
  outer loop
    vertex 0.03330085333083746 0.02816192116428529 0
    vertex 0.03728637070757787 0.02600975102283098 0.005408437805739501
    vertex 0.03981984455745625 0.02464168101874963 0
  endloop
endfacet
facet normal 0.475147 0.879906 1.62024e-16
  outer loop
    vertex 0.04177554192544189 0.02358560897508893 0.00532334005942461
    vertex 0.03728637070757787 0.02600975102283098 0.005408437805739501
    vertex 0.03968680392017832 0.02471352265437281 0.01253572458075195
  endloop
endfacet
facet normal 0.475147 0.879906 -6.19444e-16
  outer loop
    vertex 0.03981984455745625 0.02464168101874963 0
    vertex 0.03728637070757787 0.02600975102283098 0.005408437805739501
    vertex 0.04177554192544189 0.02358560897508893 0.00532334005942461
  endloop
endfacet
facet normal 0.475147 0.879906 5.67096e-16
  outer loop
    vertex 0.03968680392017832 0.02471352265437281 0.01253572458075195
    vertex 0.03728637070757787 0.02600975102283098 0.005408437805739501
    vertex 0.03330085333083746 0.02816192116428529 0.009999999999999972
  endloop
endfacet
facet normal 0.475147 0.879906 8.73126e-17
  outer loop
    vertex 0.04177554192544189 0.02358560897508893 0.00532334005942461
    vertex 0.03968680392017832 0.02471352265437281 0.01253572458075195
    vertex 0.04633883578407504 0.02112144087321396 0.01000000000000003
  endloop
endfacet
facet normal 0.954258 -0.298985 -1.51544e-15
  outer loop
    vertex 0.04413293675167216 0.01408096058214264 0.01000000000000003
    vertex 0.04523588626787359 0.01760120072767831 0.005000000000000001
    vertex 0.04633883578407504 0.02112144087321396 0.009999999999999972
  endloop
endfacet
facet normal 0.954258 -0.298985 1.56136e-15
  outer loop
    vertex 0.04633883578407504 0.02112144087321396 0.009999999999999972
    vertex 0.04523588626787359 0.01760120072767831 0.015
    vertex 0.04413293675167216 0.01408096058214264 0.01000000000000003
  endloop
endfacet
facet normal 0.954258 -0.298985 1.56136e-15
  outer loop
    vertex 0.04633883578407504 0.02112144087321396 0
    vertex 0.04523588626787359 0.01760120072767831 0.005000000000000001
    vertex 0.04413293675167216 0.01408096058214264 0
  endloop
endfacet
facet normal 0.954258 -0.298985 -1.51544e-15
  outer loop
    vertex 0.04413293675167216 0.01408096058214264 0.02
    vertex 0.04523588626787359 0.01760120072767831 0.015
    vertex 0.04633883578407504 0.02112144087321396 0.02
  endloop
endfacet
facet normal 0.954258 -0.298985 0
  outer loop
    vertex 0.04633883578407504 0.02112144087321396 0.009999999999999972
    vertex 0.04523588626787359 0.01760120072767831 0.005000000000000001
    vertex 0.04633883578407504 0.02112144087321396 0
  endloop
endfacet
facet normal 0.954258 -0.298985 0
  outer loop
    vertex 0.04633883578407504 0.02112144087321396 0.02
    vertex 0.04523588626787359 0.01760120072767831 0.015
    vertex 0.04633883578407504 0.02112144087321396 0.009999999999999972
  endloop
endfacet
facet normal 0.954258 -0.298985 0
  outer loop
    vertex 0.04413293675167216 0.01408096058214264 0
    vertex 0.04523588626787359 0.01760120072767831 0.005000000000000001
    vertex 0.04413293675167216 0.01408096058214264 0.01000000000000003
  endloop
endfacet
facet normal 0.954258 -0.298985 0
  outer loop
    vertex 0.04413293675167216 0.01408096058214264 0.01000000000000003
    vertex 0.04523588626787359 0.01760120072767831 0.015
    vertex 0.04413293675167216 0.01408096058214264 0.02
  endloop
endfacet
facet normal 0.91971 -0.392599 0
  outer loop
    vertex 0.0411275507464626 0.007040480291071322 0
    vertex 0.04263024374906738 0.01056072043660698 0.005
    vertex 0.0411275507464626 0.007040480291071322 0.01000000000000003
  endloop
endfacet
facet normal 0.91971 -0.392599 0
  outer loop
    vertex 0.04413293675167216 0.01408096058214264 0.02
    vertex 0.04263024374906738 0.01056072043660698 0.015
    vertex 0.04413293675167216 0.01408096058214264 0.009999999999999972
  endloop
endfacet
facet normal 0.91971 -0.392599 0
  outer loop
    vertex 0.0411275507464626 0.007040480291071322 0.01000000000000003
    vertex 0.04263024374906738 0.01056072043660698 0.015
    vertex 0.0411275507464626 0.007040480291071322 0.02
  endloop
endfacet
facet normal 0.91971 -0.392599 0
  outer loop
    vertex 0.04413293675167216 0.01408096058214264 0.009999999999999972
    vertex 0.04263024374906738 0.01056072043660698 0.005
    vertex 0.04413293675167216 0.01408096058214264 0
  endloop
endfacet
facet normal 0.91971 -0.392599 -7.96675e-16
  outer loop
    vertex 0.04413293675167216 0.01408096058214264 0
    vertex 0.04263024374906738 0.01056072043660698 0.005
    vertex 0.0411275507464626 0.007040480291071322 0
  endloop
endfacet
facet normal 0.91971 -0.392599 -7.96675e-16
  outer loop
    vertex 0.04413293675167216 0.01408096058214264 0.009999999999999972
    vertex 0.04263024374906738 0.01056072043660698 0.015
    vertex 0.0411275507464626 0.007040480291071322 0.01000000000000003
  endloop
endfacet
facet normal 0.91971 -0.392599 7.96675e-16
  outer loop
    vertex 0.0411275507464626 0.007040480291071322 0.01000000000000003
    vertex 0.04263024374906738 0.01056072043660698 0.005
    vertex 0.04413293675167216 0.01408096058214264 0.009999999999999972
  endloop
endfacet
facet normal 0.91971 -0.392599 7.96675e-16
  outer loop
    vertex 0.0411275507464626 0.007040480291071322 0.02
    vertex 0.04263024374906738 0.01056072043660698 0.015
    vertex 0.04413293675167216 0.01408096058214264 0.02
  endloop
endfacet
endsolid Created by Gmsh
