solid Created by Gmsh
facet normal 1 0 0
  outer loop
    vertex 0.04 0.05203636950024351 0
    vertex 0.04 0.05601818475012176 0.005
    vertex 0.04 0.05203636950024351 0.01000000000000003
  endloop
endfacet
facet normal 1 0 0
  outer loop
    vertex 0.04 0.06 0.02
    vertex 0.04 0.05601818475012176 0.015
    vertex 0.04 0.06 0.009999999999999972
  endloop
endfacet
facet normal 1 0 0
  outer loop
    vertex 0.04 0.05203636950024351 0.01000000000000003
    vertex 0.04 0.05601818475012176 0.015
    vertex 0.04 0.05203636950024351 0.02
  endloop
endfacet
facet normal 1 0 0
  outer loop
    vertex 0.04 0.06 0.009999999999999972
    vertex 0.04 0.05601818475012176 0.005
    vertex 0.04 0.06 0
  endloop
endfacet
facet normal 1 0 0
  outer loop
    vertex 0.04 0.06 0
    vertex 0.04 0.05601818475012176 0.005
    vertex 0.04 0.05203636950024351 0
  endloop
endfacet
facet normal 1 0 0
  outer loop
    vertex 0.04 0.06 0.009999999999999972
    vertex 0.04 0.05601818475012176 0.015
    vertex 0.04 0.05203636950024351 0.01000000000000003
  endloop
endfacet
facet normal 1 -0 0
  outer loop
    vertex 0.04 0.05203636950024351 0.02
    vertex 0.04 0.05601818475012176 0.015
    vertex 0.04 0.06 0.02
  endloop
endfacet
facet normal 1 0 0
  outer loop
    vertex 0.04 0.05203636950024351 0.01000000000000003
    vertex 0.04 0.05601818475012176 0.005
    vertex 0.04 0.06 0.009999999999999972
  endloop
endfacet
facet normal 0.519383 -0.854542 0
  outer loop
    vertex 0.02929805540166814 0.04553182331271308 0.01000000000000003
    vertex 0.04 0.05203636950024351 0.009999999999999972
    vertex 0.03464902770083407 0.04878409640647829 0.02
  endloop
endfacet
facet normal 0.519383 -0.854542 0
  outer loop
    vertex 0.03464902770083407 0.04878409640647829 0
    vertex 0.04 0.05203636950024351 0.009999999999999972
    vertex 0.02929805540166814 0.04553182331271308 0.01000000000000003
  endloop
endfacet
facet normal 0.519383 -0.854542 0
  outer loop
    vertex 0.03464902770083407 0.04878409640647829 0
    vertex 0.04 0.05203636950024351 0
    vertex 0.04 0.05203636950024351 0.009999999999999972
  endloop
endfacet
facet normal 0.519383 -0.854542 0
  outer loop
    vertex 0.04 0.05203636950024351 0.009999999999999972
    vertex 0.04 0.05203636950024351 0.02
    vertex 0.03464902770083407 0.04878409640647829 0.02
  endloop
endfacet
facet normal 0.519383 -0.854542 0
  outer loop
    vertex 0.02929805540166814 0.04553182331271308 0.01000000000000003
    vertex 0.02929805540166814 0.04553182331271308 0
    vertex 0.03464902770083407 0.04878409640647829 0
  endloop
endfacet
facet normal 0.519383 -0.854542 0
  outer loop
    vertex 0.03464902770083407 0.04878409640647829 0.02
    vertex 0.02929805540166814 0.04553182331271308 0.02
    vertex 0.02929805540166814 0.04553182331271308 0.01000000000000003
  endloop
endfacet
facet normal 0.95625 0.292552 1.12072e-15
  outer loop
    vertex 0.02929805540166814 0.04553182331271308 0.009999999999999972
    vertex 0.03029304413699163 0.04227955021894786 0.015
    vertex 0.03128803287231513 0.03902727712518263 0.01000000000000003
  endloop
endfacet
facet normal 0.95625 0.292552 1.5192e-15
  outer loop
    vertex 0.02929805540166814 0.04553182331271308 0
    vertex 0.03029304413699163 0.04227955021894785 0.005
    vertex 0.03128803287231513 0.03902727712518263 0
  endloop
endfacet
facet normal 0.95625 0.292552 -1.14562e-15
  outer loop
    vertex 0.03128803287231513 0.03902727712518263 0.02
    vertex 0.03029304413699163 0.04227955021894786 0.015
    vertex 0.02929805540166814 0.04553182331271308 0.02
  endloop
endfacet
facet normal 0.95625 0.292552 -1.5441e-15
  outer loop
    vertex 0.03128803287231513 0.03902727712518263 0.01000000000000003
    vertex 0.03029304413699163 0.04227955021894785 0.005
    vertex 0.02929805540166814 0.04553182331271308 0.009999999999999972
  endloop
endfacet
facet normal 0.95625 0.292552 0
  outer loop
    vertex 0.02929805540166814 0.04553182331271308 0.009999999999999972
    vertex 0.03029304413699163 0.04227955021894785 0.005
    vertex 0.02929805540166814 0.04553182331271308 0
  endloop
endfacet
facet normal 0.95625 0.292552 0
  outer loop
    vertex 0.02929805540166814 0.04553182331271308 0.02
    vertex 0.03029304413699163 0.04227955021894786 0.015
    vertex 0.02929805540166814 0.04553182331271308 0.009999999999999972
  endloop
endfacet
facet normal 0.95625 0.292552 -0
  outer loop
    vertex 0.03128803287231513 0.03902727712518263 0
    vertex 0.03029304413699163 0.04227955021894785 0.005
    vertex 0.03128803287231513 0.03902727712518263 0.01000000000000003
  endloop
endfacet
facet normal 0.95625 0.292552 -0
  outer loop
    vertex 0.03128803287231513 0.03902727712518263 0.01000000000000003
    vertex 0.03029304413699163 0.04227955021894786 0.015
    vertex 0.03128803287231513 0.03902727712518263 0.02
  endloop
endfacet
facet normal 0.900517 0.434821 2.8144e-16
  outer loop
    vertex 0.03128803287231513 0.03902727712518263 0
    vertex 0.03285841580547549 0.03577500403141741 0.005
    vertex 0.03442879873863586 0.03252273093765219 0
  endloop
endfacet
facet normal 0.900517 0.434821 -3.28347e-16
  outer loop
    vertex 0.03442879873863586 0.03252273093765219 0.02
    vertex 0.03285841580547549 0.03577500403141741 0.015
    vertex 0.03128803287231513 0.03902727712518263 0.02
  endloop
endfacet
facet normal 0.900517 0.434821 -3.28347e-16
  outer loop
    vertex 0.03442879873863586 0.03252273093765219 0.01000000000000003
    vertex 0.03285841580547549 0.03577500403141741 0.005
    vertex 0.03128803287231513 0.03902727712518263 0.009999999999999972
  endloop
endfacet
facet normal 0.900517 0.434821 2.8144e-16
  outer loop
    vertex 0.03128803287231513 0.03902727712518263 0.009999999999999972
    vertex 0.03285841580547549 0.03577500403141741 0.015
    vertex 0.03442879873863586 0.03252273093765219 0.01000000000000003
  endloop
endfacet
facet normal 0.900517 0.434821 0
  outer loop
    vertex 0.03128803287231513 0.03902727712518263 0.009999999999999972
    vertex 0.03285841580547549 0.03577500403141741 0.005
    vertex 0.03128803287231513 0.03902727712518263 0
  endloop
endfacet
facet normal 0.900517 0.434821 0
  outer loop
    vertex 0.03128803287231513 0.03902727712518263 0.02
    vertex 0.03285841580547549 0.03577500403141741 0.015
    vertex 0.03128803287231513 0.03902727712518263 0.009999999999999972
  endloop
endfacet
facet normal 0.900517 0.434821 -0
  outer loop
    vertex 0.03442879873863586 0.03252273093765219 0
    vertex 0.03285841580547549 0.03577500403141741 0.005
    vertex 0.03442879873863586 0.03252273093765219 0.01000000000000003
  endloop
endfacet
facet normal 0.900517 0.434821 -0
  outer loop
    vertex 0.03442879873863586 0.03252273093765219 0.01000000000000003
    vertex 0.03285841580547549 0.03577500403141741 0.015
    vertex 0.03442879873863586 0.03252273093765219 0.02
  endloop
endfacet
facet normal 0.999835 0.0181721 0
  outer loop
    vertex 0.03454701945007035 0.02601818475012176 0.02
    vertex 0.03448790909435311 0.02927045784388697 0.015
    vertex 0.03442879873863586 0.03252273093765219 0.02
  endloop
endfacet
facet normal 0.999835 0.0181721 0
  outer loop
    vertex 0.03454701945007035 0.02601818475012176 0.01000000000000003
    vertex 0.03448790909435311 0.02927045784388697 0.005
    vertex 0.03442879873863586 0.03252273093765219 0.009999999999999972
  endloop
endfacet
facet normal 0.999835 0.0181721 0
  outer loop
    vertex 0.03442879873863586 0.03252273093765219 0
    vertex 0.03448790909435311 0.02927045784388697 0.005
    vertex 0.03454701945007035 0.02601818475012176 0
  endloop
endfacet
facet normal 0.999835 0.0181721 0
  outer loop
    vertex 0.03442879873863586 0.03252273093765219 0.009999999999999972
    vertex 0.03448790909435311 0.02927045784388697 0.015
    vertex 0.03454701945007035 0.02601818475012176 0.01000000000000003
  endloop
endfacet
facet normal 0.999835 0.0181721 0
  outer loop
    vertex 0.03442879873863586 0.03252273093765219 0.009999999999999972
    vertex 0.03448790909435311 0.02927045784388697 0.005
    vertex 0.03442879873863586 0.03252273093765219 0
  endloop
endfacet
facet normal 0.999835 0.0181721 0
  outer loop
    vertex 0.03442879873863586 0.03252273093765219 0.02
    vertex 0.03448790909435311 0.02927045784388697 0.015
    vertex 0.03442879873863586 0.03252273093765219 0.009999999999999972
  endloop
endfacet
facet normal 0.999835 0.0181721 -0
  outer loop
    vertex 0.03454701945007035 0.02601818475012176 0
    vertex 0.03448790909435311 0.02927045784388697 0.005
    vertex 0.03454701945007035 0.02601818475012176 0.01000000000000003
  endloop
endfacet
facet normal 0.999835 0.0181721 -0
  outer loop
    vertex 0.03454701945007035 0.02601818475012176 0.01000000000000003
    vertex 0.03448790909435311 0.02927045784388697 0.015
    vertex 0.03454701945007035 0.02601818475012176 0.02
  endloop
endfacet
facet normal 0.975928 -0.218092 0
  outer loop
    vertex 0.03309343920130016 0.01951363856259132 0.01000000000000003
    vertex 0.03382022932568526 0.02276591165635654 0.005
    vertex 0.03454701945007035 0.02601818475012176 0.009999999999999972
  endloop
endfacet
facet normal 0.975928 -0.218092 0
  outer loop
    vertex 0.03454701945007035 0.02601818475012176 0.009999999999999972
    vertex 0.03382022932568526 0.02276591165635654 0.015
    vertex 0.03309343920130016 0.01951363856259132 0.01000000000000003
  endloop
endfacet
facet normal 0.975928 -0.218092 0
  outer loop
    vertex 0.03454701945007035 0.02601818475012176 0
    vertex 0.03382022932568526 0.02276591165635654 0.005
    vertex 0.03309343920130016 0.01951363856259132 0
  endloop
endfacet
facet normal 0.975928 -0.218092 0
  outer loop
    vertex 0.03309343920130016 0.01951363856259132 0.02
    vertex 0.03382022932568526 0.02276591165635654 0.015
    vertex 0.03454701945007035 0.02601818475012176 0.02
  endloop
endfacet
facet normal 0.975928 -0.218092 0
  outer loop
    vertex 0.03454701945007035 0.02601818475012176 0.009999999999999972
    vertex 0.03382022932568526 0.02276591165635654 0.005
    vertex 0.03454701945007035 0.02601818475012176 0
  endloop
endfacet
facet normal 0.975928 -0.218092 0
  outer loop
    vertex 0.03454701945007035 0.02601818475012176 0.02
    vertex 0.03382022932568526 0.02276591165635654 0.015
    vertex 0.03454701945007035 0.02601818475012176 0.009999999999999972
  endloop
endfacet
facet normal 0.975928 -0.218092 0
  outer loop
    vertex 0.03309343920130016 0.01951363856259132 0
    vertex 0.03382022932568526 0.02276591165635654 0.005
    vertex 0.03309343920130016 0.01951363856259132 0.01000000000000003
  endloop
endfacet
facet normal 0.975928 -0.218092 0
  outer loop
    vertex 0.03309343920130016 0.01951363856259132 0.01000000000000003
    vertex 0.03382022932568526 0.02276591165635654 0.015
    vertex 0.03309343920130016 0.01951363856259132 0.02
  endloop
endfacet
facet normal 0.900745 0.434349 -1.54831e-15
  outer loop
    vertex 0.03309343920130016 0.01951363856259132 0
    vertex 0.03466172200110757 0.0162613654688261 0.005000000000000001
    vertex 0.03623000480091497 0.01300909237506088 0
  endloop
endfacet
facet normal 0.900745 0.434349 1.54831e-15
  outer loop
    vertex 0.03623000480091497 0.01300909237506088 0.02
    vertex 0.03466172200110757 0.0162613654688261 0.015
    vertex 0.03309343920130016 0.01951363856259132 0.02
  endloop
endfacet
facet normal 0.900745 0.434349 -1.54831e-15
  outer loop
    vertex 0.03309343920130016 0.01951363856259132 0.009999999999999972
    vertex 0.03466172200110757 0.0162613654688261 0.015
    vertex 0.03623000480091497 0.01300909237506088 0.01000000000000003
  endloop
endfacet
facet normal 0.900745 0.434349 1.54831e-15
  outer loop
    vertex 0.03623000480091497 0.01300909237506088 0.01000000000000003
    vertex 0.03466172200110757 0.0162613654688261 0.005000000000000001
    vertex 0.03309343920130016 0.01951363856259132 0.009999999999999972
  endloop
endfacet
facet normal 0.900745 0.434349 0
  outer loop
    vertex 0.03309343920130016 0.01951363856259132 0.009999999999999972
    vertex 0.03466172200110757 0.0162613654688261 0.005000000000000001
    vertex 0.03309343920130016 0.01951363856259132 0
  endloop
endfacet
facet normal 0.900745 0.434349 0
  outer loop
    vertex 0.03309343920130016 0.01951363856259132 0.02
    vertex 0.03466172200110757 0.0162613654688261 0.015
    vertex 0.03309343920130016 0.01951363856259132 0.009999999999999972
  endloop
endfacet
facet normal 0.900745 0.434349 -0
  outer loop
    vertex 0.03623000480091497 0.01300909237506088 0
    vertex 0.03466172200110757 0.0162613654688261 0.005000000000000001
    vertex 0.03623000480091497 0.01300909237506088 0.01000000000000003
  endloop
endfacet
facet normal 0.900745 0.434349 -0
  outer loop
    vertex 0.03623000480091497 0.01300909237506088 0.01000000000000003
    vertex 0.03466172200110757 0.0162613654688261 0.015
    vertex 0.03623000480091497 0.01300909237506088 0.02
  endloop
endfacet
facet normal 0.832501 -0.554023 0
  outer loop
    vertex 0.03623000480091497 0.01300909237506088 0.02
    vertex 0.03406564344915809 0.009756819281295657 0.015
    vertex 0.03623000480091497 0.01300909237506088 0.009999999999999972
  endloop
endfacet
facet normal 0.832501 -0.554023 0
  outer loop
    vertex 0.03190128209740121 0.006504546187530436 0
    vertex 0.03406564344915809 0.009756819281295657 0.005000000000000001
    vertex 0.03190128209740121 0.006504546187530436 0.01000000000000003
  endloop
endfacet
facet normal 0.832501 -0.554023 0
  outer loop
    vertex 0.03623000480091497 0.01300909237506088 0.009999999999999972
    vertex 0.03406564344915809 0.009756819281295657 0.005000000000000001
    vertex 0.03623000480091497 0.01300909237506088 0
  endloop
endfacet
facet normal 0.832501 -0.554023 0
  outer loop
    vertex 0.03190128209740121 0.006504546187530436 0.01000000000000003
    vertex 0.03406564344915809 0.009756819281295657 0.015
    vertex 0.03190128209740121 0.006504546187530436 0.02
  endloop
endfacet
facet normal 0.832501 -0.554023 -5.63731e-16
  outer loop
    vertex 0.03190128209740121 0.006504546187530436 0.02
    vertex 0.03406564344915809 0.009756819281295657 0.015
    vertex 0.03623000480091497 0.01300909237506088 0.02
  endloop
endfacet
facet normal 0.832501 -0.554023 6.07095e-16
  outer loop
    vertex 0.03623000480091497 0.01300909237506088 0
    vertex 0.03406564344915809 0.009756819281295657 0.005000000000000001
    vertex 0.03190128209740121 0.006504546187530436 0
  endloop
endfacet
facet normal 0.832501 -0.554023 -5.63731e-16
  outer loop
    vertex 0.03190128209740121 0.006504546187530436 0.01000000000000003
    vertex 0.03406564344915809 0.009756819281295657 0.005000000000000001
    vertex 0.03623000480091497 0.01300909237506088 0.009999999999999972
  endloop
endfacet
facet normal 0.832501 -0.554023 6.07095e-16
  outer loop
    vertex 0.03623000480091497 0.01300909237506088 0.009999999999999972
    vertex 0.03406564344915809 0.009756819281295657 0.015
    vertex 0.03190128209740121 0.006504546187530436 0.01000000000000003
  endloop
endfacet
endsolid Created by Gmsh
