solid Created by Gmsh
facet normal 0.999528 0.0307318 -3.68494e-17
  outer loop
    vertex 0.007320050174597556 0.02211480572456061 0
    vertex 0.007526373118504588 0.01540432261160027 0.0103892012499615
    vertex 0.007660025087298778 0.01105740286228031 0
  endloop
endfacet
facet normal 0.999528 0.0307318 -2.18728e-17
  outer loop
    vertex 0.006980075261896332 0.03317220858684095 0.02
    vertex 0.006773883376477602 0.03987842913086005 0.009498332935650422
    vertex 0.006640100349195111 0.04422961144912124 0.02
  endloop
endfacet
facet normal 0.999528 0.0307318 -5.06942e-18
  outer loop
    vertex 0.006980075261896332 0.03317220858684095 0.02
    vertex 0.007150084561328328 0.0276427967275439 0.009981255697601988
    vertex 0.006773883376477602 0.03987842913086005 0.009498332935650422
  endloop
endfacet
facet normal 0.999528 0.0307318 0
  outer loop
    vertex 0.007320050174597555 0.02211480572456063 0.02
    vertex 0.007150084561328328 0.0276427967275439 0.009981255697601988
    vertex 0.006980075261896332 0.03317220858684095 0.02
  endloop
endfacet
facet normal 0.999528 0.0307318 0
  outer loop
    vertex 0.007320050174597556 0.02211480572456061 0
    vertex 0.007150084561328328 0.0276427967275439 0.009981255697601988
    vertex 0.007526373118504588 0.01540432261160027 0.0103892012499615
  endloop
endfacet
facet normal 0.999528 0.0307318 2.46198e-17
  outer loop
    vertex 0.007526373118504588 0.01540432261160027 0.0103892012499615
    vertex 0.007150084561328328 0.0276427967275439 0.009981255697601988
    vertex 0.007320050174597555 0.02211480572456063 0.02
  endloop
endfacet
facet normal 0.999528 0.0307318 -0
  outer loop
    vertex 0.008 0 0
    vertex 0.007774003529479913 0.007350348295229025 0.007587325401059968
    vertex 0.008 0 0.01000000000000003
  endloop
endfacet
facet normal 0.999528 0.0307318 0
  outer loop
    vertex 0.006300125436493888 0.05528701431140155 0.02
    vertex 0.006526135280329109 0.04793623106015811 0.01240119849543105
    vertex 0.006300125436493888 0.05528701431140155 0.009999999999999972
  endloop
endfacet
facet normal 0.999528 0.0307318 -7.56858e-17
  outer loop
    vertex 0.007660025087298778 0.01105740286228031 0
    vertex 0.007774003529479913 0.007350348295229025 0.007587325401059968
    vertex 0.008 0 0
  endloop
endfacet
facet normal 0.999528 0.0307318 -5.79382e-17
  outer loop
    vertex 0.006640100349195111 0.04422961144912124 0.02
    vertex 0.006526135280329109 0.04793623106015811 0.01240119849543105
    vertex 0.006300125436493888 0.05528701431140155 0.02
  endloop
endfacet
facet normal 0.999528 0.0307318 2.83494e-17
  outer loop
    vertex 0.006773883376477602 0.03987842913086005 0.009498332935650422
    vertex 0.007150084561328328 0.0276427967275439 0.009981255697601988
    vertex 0.006980075261896333 0.03317220858684092 0
  endloop
endfacet
facet normal 0.999528 0.0307318 2.4931e-17
  outer loop
    vertex 0.006980075261896333 0.03317220858684092 0
    vertex 0.007150084561328328 0.0276427967275439 0.009981255697601988
    vertex 0.007320050174597556 0.02211480572456061 0
  endloop
endfacet
facet normal 0.999528 0.0307318 4.83666e-17
  outer loop
    vertex 0.00664010034919511 0.04422961144912128 0
    vertex 0.006773883376477602 0.03987842913086005 0.009498332935650422
    vertex 0.006980075261896333 0.03317220858684092 0
  endloop
endfacet
facet normal 0.999528 0.0307318 6.57259e-17
  outer loop
    vertex 0.007660025087298778 0.01105740286228028 0.02
    vertex 0.007526373118504588 0.01540432261160027 0.0103892012499615
    vertex 0.007320050174597555 0.02211480572456063 0.02
  endloop
endfacet
facet normal 0.999528 0.0307318 7.46631e-17
  outer loop
    vertex 0.00664010034919511 0.04422961144912128 0
    vertex 0.006483608016162882 0.04931939515535665 0.005502881299641499
    vertex 0.006773883376477602 0.03987842913086005 0.009498332935650422
  endloop
endfacet
facet normal 0.999528 0.0307318 1.19072e-16
  outer loop
    vertex 0.007660025087298778 0.01105740286228028 0.02
    vertex 0.007816527947430383 0.005967276770844059 0.01448808503287329
    vertex 0.007526373118504588 0.01540432261160027 0.0103892012499615
  endloop
endfacet
facet normal 0.999528 0.0307318 1.42052e-17
  outer loop
    vertex 0.006773883376477602 0.03987842913086005 0.009498332935650422
    vertex 0.006483608016162882 0.04931939515535665 0.005502881299641499
    vertex 0.006526135280329109 0.04793623106015811 0.01240119849543105
  endloop
endfacet
facet normal 0.999528 0.0307318 -3.56005e-17
  outer loop
    vertex 0.007526373118504588 0.01540432261160027 0.0103892012499615
    vertex 0.007816527947430383 0.005967276770844059 0.01448808503287329
    vertex 0.007774003529479913 0.007350348295229025 0.007587325401059968
  endloop
endfacet
facet normal 0.999528 0.0307318 -6.21698e-17
  outer loop
    vertex 0.007526373118504588 0.01540432261160027 0.0103892012499615
    vertex 0.007774003529479913 0.007350348295229025 0.007587325401059968
    vertex 0.007660025087298778 0.01105740286228031 0
  endloop
endfacet
facet normal 0.999528 0.0307318 -4.99822e-17
  outer loop
    vertex 0.006773883376477602 0.03987842913086005 0.009498332935650422
    vertex 0.006526135280329109 0.04793623106015811 0.01240119849543105
    vertex 0.006640100349195111 0.04422961144912124 0.02
  endloop
endfacet
facet normal 0.999528 0.0307318 1.80585e-16
  outer loop
    vertex 0.008 0 0.02
    vertex 0.007816527947430383 0.005967276770844059 0.01448808503287329
    vertex 0.007660025087298778 0.01105740286228028 0.02
  endloop
endfacet
facet normal 0.999528 0.0307318 7.6527e-17
  outer loop
    vertex 0.006300125436493888 0.05528701431140155 0
    vertex 0.006483608016162882 0.04931939515535665 0.005502881299641499
    vertex 0.00664010034919511 0.04422961144912128 0
  endloop
endfacet
facet normal 0.999528 0.0307318 0
  outer loop
    vertex 0.006300125436493888 0.05528701431140155 0.009999999999999972
    vertex 0.006483608016162882 0.04931939515535665 0.005502881299641499
    vertex 0.006300125436493888 0.05528701431140155 0
  endloop
endfacet
facet normal 0.999528 0.0307318 -0
  outer loop
    vertex 0.008 0 0.01000000000000003
    vertex 0.007816527947430383 0.005967276770844059 0.01448808503287329
    vertex 0.008 0 0.02
  endloop
endfacet
facet normal 0.999528 0.0307318 3.34996e-18
  outer loop
    vertex 0.006526135280329109 0.04793623106015811 0.01240119849543105
    vertex 0.006483608016162882 0.04931939515535665 0.005502881299641499
    vertex 0.006300125436493888 0.05528701431140155 0.009999999999999972
  endloop
endfacet
facet normal 0.999528 0.0307318 -5.91834e-17
  outer loop
    vertex 0.007774003529479913 0.007350348295229025 0.007587325401059968
    vertex 0.007816527947430383 0.005967276770844059 0.01448808503287329
    vertex 0.008 0 0.01000000000000003
  endloop
endfacet
endsolid Created by Gmsh
