solid Created by Gmsh
facet normal -0.550956 0.834535 -2.07067e-16
  outer loop
    vertex 0.02300964947149926 0.05048405916734024 0.01000000000000003
    vertex 0.02847167826243252 0.05409006339357882 0.02
    vertex 0.03393370705336579 0.05769606761981741 0.009999999999999972
  endloop
endfacet
facet normal -0.550956 0.834535 -2.07067e-16
  outer loop
    vertex 0.02847167826243253 0.05409006339357882 0
    vertex 0.02300964947149926 0.05048405916734024 0.01000000000000003
    vertex 0.03393370705336579 0.05769606761981741 0.009999999999999972
  endloop
endfacet
facet normal -0.550956 0.834535 0
  outer loop
    vertex 0.02847167826243253 0.05409006339357882 0
    vertex 0.03393370705336579 0.05769606761981741 0.009999999999999972
    vertex 0.03393370705336579 0.05769606761981741 0
  endloop
endfacet
facet normal -0.550956 0.834535 0
  outer loop
    vertex 0.03393370705336579 0.05769606761981741 0.009999999999999972
    vertex 0.02847167826243252 0.05409006339357882 0.02
    vertex 0.03393370705336579 0.05769606761981741 0.02
  endloop
endfacet
facet normal -0.550956 0.834535 0
  outer loop
    vertex 0.02300964947149926 0.05048405916734024 0.01000000000000003
    vertex 0.02847167826243253 0.05409006339357882 0
    vertex 0.02300964947149926 0.05048405916734024 0
  endloop
endfacet
facet normal -0.550956 0.834535 0
  outer loop
    vertex 0.02847167826243252 0.05409006339357882 0.02
    vertex 0.02300964947149926 0.05048405916734024 0.01000000000000003
    vertex 0.02300964947149926 0.05048405916734024 0.02
  endloop
endfacet
facet normal -0.912086 -0.409999 -0
  outer loop
    vertex 0.02300964947149926 0.05048405916734024 0.02
    vertex 0.02300964947149926 0.05048405916734024 0.009999999999999972
    vertex 0.02463061094420379 0.04687805494110164 0.015
  endloop
endfacet
facet normal -0.912086 -0.409999 0
  outer loop
    vertex 0.02625157241690831 0.04327205071486306 0
    vertex 0.02625157241690831 0.04327205071486306 0.01000000000000003
    vertex 0.02463061094420379 0.04687805494110164 0.005000000000000001
  endloop
endfacet
facet normal -0.912086 -0.409999 -0
  outer loop
    vertex 0.02300964947149926 0.05048405916734024 0.009999999999999972
    vertex 0.02300964947149926 0.05048405916734024 0
    vertex 0.02463061094420379 0.04687805494110164 0.005000000000000001
  endloop
endfacet
facet normal -0.912086 -0.409999 0
  outer loop
    vertex 0.02625157241690831 0.04327205071486306 0.01000000000000003
    vertex 0.02625157241690831 0.04327205071486306 0.02
    vertex 0.02463061094420379 0.04687805494110164 0.015
  endloop
endfacet
facet normal -0.912086 -0.409999 2.99942e-16
  outer loop
    vertex 0.02625157241690831 0.04327205071486306 0.01000000000000003
    vertex 0.02300964947149926 0.05048405916734024 0.009999999999999972
    vertex 0.02463061094420379 0.04687805494110164 0.005000000000000001
  endloop
endfacet
facet normal -0.912086 -0.409999 -2.99942e-16
  outer loop
    vertex 0.02300964947149926 0.05048405916734024 0.009999999999999972
    vertex 0.02625157241690831 0.04327205071486306 0.01000000000000003
    vertex 0.02463061094420379 0.04687805494110164 0.015
  endloop
endfacet
facet normal -0.912086 -0.409999 -2.99942e-16
  outer loop
    vertex 0.02300964947149926 0.05048405916734024 0
    vertex 0.02625157241690831 0.04327205071486306 0
    vertex 0.02463061094420379 0.04687805494110164 0.005000000000000001
  endloop
endfacet
facet normal -0.912086 -0.409999 2.99942e-16
  outer loop
    vertex 0.02625157241690831 0.04327205071486306 0.02
    vertex 0.02300964947149926 0.05048405916734024 0.02
    vertex 0.02463061094420379 0.04687805494110164 0.015
  endloop
endfacet
facet normal -0.782177 0.623056 0
  outer loop
    vertex 0.02625157241690831 0.04327205071486306 0.02
    vertex 0.02625157241690831 0.04327205071486306 0.009999999999999972
    vertex 0.02337915292121396 0.03966604648862447 0.015
  endloop
endfacet
facet normal -0.782177 0.623056 0
  outer loop
    vertex 0.0205067334255196 0.03606004226238588 0
    vertex 0.0205067334255196 0.03606004226238588 0.01000000000000003
    vertex 0.02337915292121396 0.03966604648862447 0.004999999999999999
  endloop
endfacet
facet normal -0.782177 0.623056 0
  outer loop
    vertex 0.02625157241690831 0.04327205071486306 0.009999999999999972
    vertex 0.02625157241690831 0.04327205071486306 0
    vertex 0.02337915292121396 0.03966604648862447 0.004999999999999999
  endloop
endfacet
facet normal -0.782177 0.623056 0
  outer loop
    vertex 0.0205067334255196 0.03606004226238588 0.01000000000000003
    vertex 0.0205067334255196 0.03606004226238588 0.02
    vertex 0.02337915292121396 0.03966604648862447 0.015
  endloop
endfacet
facet normal -0.782177 0.623056 9.55394e-16
  outer loop
    vertex 0.0205067334255196 0.03606004226238588 0.01000000000000003
    vertex 0.02625157241690831 0.04327205071486306 0.009999999999999972
    vertex 0.02337915292121396 0.03966604648862447 0.004999999999999999
  endloop
endfacet
facet normal -0.782177 0.623056 9.55394e-16
  outer loop
    vertex 0.0205067334255196 0.03606004226238588 0.02
    vertex 0.02625157241690831 0.04327205071486306 0.02
    vertex 0.02337915292121396 0.03966604648862447 0.015
  endloop
endfacet
facet normal -0.782177 0.623056 -9.55394e-16
  outer loop
    vertex 0.02625157241690831 0.04327205071486306 0.009999999999999972
    vertex 0.0205067334255196 0.03606004226238588 0.01000000000000003
    vertex 0.02337915292121396 0.03966604648862447 0.015
  endloop
endfacet
facet normal -0.782177 0.623056 -9.55394e-16
  outer loop
    vertex 0.02625157241690831 0.04327205071486306 0
    vertex 0.0205067334255196 0.03606004226238588 0
    vertex 0.02337915292121396 0.03966604648862447 0.004999999999999999
  endloop
endfacet
facet normal -0.7657 -0.643198 -0
  outer loop
    vertex 0.0205067334255196 0.03606004226238588 0.02
    vertex 0.0205067334255196 0.03606004226238588 0.009999999999999972
    vertex 0.02353582095227227 0.0324540380361473 0.015
  endloop
endfacet
facet normal -0.7657 -0.643198 0
  outer loop
    vertex 0.02656490847902493 0.0288480338099087 0
    vertex 0.02656490847902493 0.0288480338099087 0.01000000000000003
    vertex 0.02353582095227227 0.0324540380361473 0.005000000000000001
  endloop
endfacet
facet normal -0.7657 -0.643198 -0
  outer loop
    vertex 0.0205067334255196 0.03606004226238588 0.009999999999999972
    vertex 0.0205067334255196 0.03606004226238588 0
    vertex 0.02353582095227227 0.0324540380361473 0.005000000000000001
  endloop
endfacet
facet normal -0.7657 -0.643198 0
  outer loop
    vertex 0.02656490847902493 0.0288480338099087 0.01000000000000003
    vertex 0.02656490847902493 0.0288480338099087 0.02
    vertex 0.02353582095227227 0.0324540380361473 0.015
  endloop
endfacet
facet normal -0.7657 -0.643198 1.72665e-15
  outer loop
    vertex 0.0205067334255196 0.03606004226238588 0
    vertex 0.02656490847902493 0.0288480338099087 0
    vertex 0.02353582095227227 0.0324540380361473 0.005000000000000001
  endloop
endfacet
facet normal -0.7657 -0.643198 -1.65471e-15
  outer loop
    vertex 0.02656490847902493 0.0288480338099087 0.02
    vertex 0.0205067334255196 0.03606004226238588 0.02
    vertex 0.02353582095227227 0.0324540380361473 0.015
  endloop
endfacet
facet normal -0.7657 -0.643198 -1.65471e-15
  outer loop
    vertex 0.02656490847902493 0.0288480338099087 0.01000000000000003
    vertex 0.0205067334255196 0.03606004226238588 0.009999999999999972
    vertex 0.02353582095227227 0.0324540380361473 0.005000000000000001
  endloop
endfacet
facet normal -0.7657 -0.643198 1.72665e-15
  outer loop
    vertex 0.0205067334255196 0.03606004226238588 0.009999999999999972
    vertex 0.02656490847902493 0.0288480338099087 0.01000000000000003
    vertex 0.02353582095227227 0.0324540380361473 0.015
  endloop
endfacet
facet normal -0.992457 -0.122591 -1.02574e-15
  outer loop
    vertex 0.02745575265908402 0.02163602535743153 0.01000000000000003
    vertex 0.02656490847902493 0.0288480338099087 0.009999999999999972
    vertex 0.02701033056905448 0.02524202958367012 0.005
  endloop
endfacet
facet normal -0.992457 -0.122591 1.0374e-15
  outer loop
    vertex 0.02656490847902493 0.0288480338099087 0.009999999999999972
    vertex 0.02745575265908402 0.02163602535743153 0.01000000000000003
    vertex 0.02701033056905448 0.02524202958367012 0.015
  endloop
endfacet
facet normal -0.992457 -0.122591 1.0374e-15
  outer loop
    vertex 0.02656490847902493 0.0288480338099087 0
    vertex 0.02745575265908402 0.02163602535743153 0
    vertex 0.02701033056905448 0.02524202958367012 0.005
  endloop
endfacet
facet normal -0.992457 -0.122591 -1.02574e-15
  outer loop
    vertex 0.02745575265908402 0.02163602535743153 0.02
    vertex 0.02656490847902493 0.0288480338099087 0.02
    vertex 0.02701033056905448 0.02524202958367012 0.015
  endloop
endfacet
facet normal -0.992457 -0.122591 -0
  outer loop
    vertex 0.02656490847902493 0.0288480338099087 0.009999999999999972
    vertex 0.02656490847902493 0.0288480338099087 0
    vertex 0.02701033056905448 0.02524202958367012 0.005
  endloop
endfacet
facet normal -0.992457 -0.122591 -0
  outer loop
    vertex 0.02656490847902493 0.0288480338099087 0.02
    vertex 0.02656490847902493 0.0288480338099087 0.009999999999999972
    vertex 0.02701033056905448 0.02524202958367012 0.015
  endloop
endfacet
facet normal -0.992457 -0.122591 0
  outer loop
    vertex 0.02745575265908402 0.02163602535743153 0
    vertex 0.02745575265908402 0.02163602535743153 0.01000000000000003
    vertex 0.02701033056905448 0.02524202958367012 0.005
  endloop
endfacet
facet normal -0.992457 -0.122591 0
  outer loop
    vertex 0.02745575265908402 0.02163602535743153 0.01000000000000003
    vertex 0.02745575265908402 0.02163602535743153 0.02
    vertex 0.02701033056905448 0.02524202958367012 0.015
  endloop
endfacet
facet normal -0.847202 0.531271 0
  outer loop
    vertex 0.02745575265908402 0.02163602535743153 0.02
    vertex 0.02745575265908402 0.02163602535743153 0.009999999999999972
    vertex 0.02519446924108655 0.01803002113119294 0.015
  endloop
endfacet
facet normal -0.847202 0.531271 0
  outer loop
    vertex 0.02293318582308908 0.01442401690495435 0
    vertex 0.02293318582308908 0.01442401690495435 0.01000000000000003
    vertex 0.02519446924108655 0.01803002113119294 0.005
  endloop
endfacet
facet normal -0.847202 0.531271 0
  outer loop
    vertex 0.02745575265908402 0.02163602535743153 0.009999999999999972
    vertex 0.02745575265908402 0.02163602535743153 0
    vertex 0.02519446924108655 0.01803002113119294 0.005
  endloop
endfacet
facet normal -0.847202 0.531271 0
  outer loop
    vertex 0.02293318582308908 0.01442401690495435 0.01000000000000003
    vertex 0.02293318582308908 0.01442401690495435 0.02
    vertex 0.02519446924108655 0.01803002113119294 0.015
  endloop
endfacet
facet normal -0.847202 0.531271 0
  outer loop
    vertex 0.02293318582308908 0.01442401690495435 0.01000000000000003
    vertex 0.02745575265908402 0.02163602535743153 0.009999999999999972
    vertex 0.02519446924108655 0.01803002113119294 0.005
  endloop
endfacet
facet normal -0.847202 0.531271 0
  outer loop
    vertex 0.02745575265908402 0.02163602535743153 0.009999999999999972
    vertex 0.02293318582308908 0.01442401690495435 0.01000000000000003
    vertex 0.02519446924108655 0.01803002113119294 0.015
  endloop
endfacet
facet normal -0.847202 0.531271 0
  outer loop
    vertex 0.02745575265908402 0.02163602535743153 0
    vertex 0.02293318582308908 0.01442401690495435 0
    vertex 0.02519446924108655 0.01803002113119294 0.005
  endloop
endfacet
facet normal -0.847202 0.531271 0
  outer loop
    vertex 0.02293318582308908 0.01442401690495435 0.02
    vertex 0.02745575265908402 0.02163602535743153 0.02
    vertex 0.02519446924108655 0.01803002113119294 0.015
  endloop
endfacet
facet normal -0.998128 -0.0611522 -3.45822e-16
  outer loop
    vertex 0.02337504281534261 0.007212008452477173 0.01000000000000003
    vertex 0.02293318582308908 0.01442401690495435 0.009999999999999972
    vertex 0.02315411431921585 0.01081801267871576 0.005
  endloop
endfacet
facet normal -0.998128 -0.0611522 3.45822e-16
  outer loop
    vertex 0.02293318582308908 0.01442401690495435 0.009999999999999972
    vertex 0.02337504281534261 0.007212008452477173 0.01000000000000003
    vertex 0.02315411431921585 0.01081801267871576 0.015
  endloop
endfacet
facet normal -0.998128 -0.0611522 -3.45822e-16
  outer loop
    vertex 0.02337504281534261 0.007212008452477173 0.02
    vertex 0.02293318582308908 0.01442401690495435 0.02
    vertex 0.02315411431921585 0.01081801267871576 0.015
  endloop
endfacet
facet normal -0.998128 -0.0611522 3.45822e-16
  outer loop
    vertex 0.02293318582308908 0.01442401690495435 0
    vertex 0.02337504281534261 0.007212008452477173 0
    vertex 0.02315411431921585 0.01081801267871576 0.005
  endloop
endfacet
facet normal -0.998128 -0.0611522 -0
  outer loop
    vertex 0.02293318582308908 0.01442401690495435 0.009999999999999972
    vertex 0.02293318582308908 0.01442401690495435 0
    vertex 0.02315411431921585 0.01081801267871576 0.005
  endloop
endfacet
facet normal -0.998128 -0.0611522 -0
  outer loop
    vertex 0.02293318582308908 0.01442401690495435 0.02
    vertex 0.02293318582308908 0.01442401690495435 0.009999999999999972
    vertex 0.02315411431921585 0.01081801267871576 0.015
  endloop
endfacet
facet normal -0.998128 -0.0611522 0
  outer loop
    vertex 0.02337504281534261 0.007212008452477173 0
    vertex 0.02337504281534261 0.007212008452477173 0.01000000000000003
    vertex 0.02315411431921585 0.01081801267871576 0.005
  endloop
endfacet
facet normal -0.998128 -0.0611522 0
  outer loop
    vertex 0.02337504281534261 0.007212008452477173 0.01000000000000003
    vertex 0.02337504281534261 0.007212008452477173 0.02
    vertex 0.02315411431921585 0.01081801267871576 0.015
  endloop
endfacet
endsolid Created by Gmsh
