solid Created by Gmsh
facet normal 1 0 0
  outer loop
    vertex 0.04 0.05455975100733394 0.01000000000000003
    vertex 0.04 0.05727987550366697 0.005
    vertex 0.04 0.06 0.009999999999999972
  endloop
endfacet
facet normal 1 -0 0
  outer loop
    vertex 0.04 0.05455975100733394 0.02
    vertex 0.04 0.05727987550366697 0.015
    vertex 0.04 0.06 0.02
  endloop
endfacet
facet normal 1 0 0
  outer loop
    vertex 0.04 0.06 0.009999999999999972
    vertex 0.04 0.05727987550366697 0.015
    vertex 0.04 0.05455975100733394 0.01000000000000003
  endloop
endfacet
facet normal 1 0 0
  outer loop
    vertex 0.04 0.06 0
    vertex 0.04 0.05727987550366697 0.005
    vertex 0.04 0.05455975100733394 0
  endloop
endfacet
facet normal 1 0 0
  outer loop
    vertex 0.04 0.06 0.009999999999999972
    vertex 0.04 0.05727987550366697 0.005
    vertex 0.04 0.06 0
  endloop
endfacet
facet normal 1 0 0
  outer loop
    vertex 0.04 0.06 0.02
    vertex 0.04 0.05727987550366697 0.015
    vertex 0.04 0.06 0.009999999999999972
  endloop
endfacet
facet normal 1 0 0
  outer loop
    vertex 0.04 0.05455975100733394 0
    vertex 0.04 0.05727987550366697 0.005
    vertex 0.04 0.05455975100733394 0.01000000000000003
  endloop
endfacet
facet normal 1 0 0
  outer loop
    vertex 0.04 0.05455975100733394 0.01000000000000003
    vertex 0.04 0.05727987550366697 0.015
    vertex 0.04 0.05455975100733394 0.02
  endloop
endfacet
facet normal 0.694409 -0.719581 0
  outer loop
    vertex 0.04 0.05455975100733394 0.02
    vertex 0.03646640655337602 0.05114976656937557 0.015
    vertex 0.04 0.05455975100733394 0.009999999999999972
  endloop
endfacet
facet normal 0.694409 -0.719581 0
  outer loop
    vertex 0.03293281310675203 0.0477397821314172 0
    vertex 0.03646640655337601 0.05114976656937557 0.005000000000000001
    vertex 0.03293281310675203 0.0477397821314172 0.01000000000000003
  endloop
endfacet
facet normal 0.694409 -0.719581 0
  outer loop
    vertex 0.04 0.05455975100733394 0.009999999999999972
    vertex 0.03646640655337601 0.05114976656937557 0.005000000000000001
    vertex 0.04 0.05455975100733394 0
  endloop
endfacet
facet normal 0.694409 -0.719581 0
  outer loop
    vertex 0.03293281310675203 0.0477397821314172 0.01000000000000003
    vertex 0.03646640655337602 0.05114976656937557 0.015
    vertex 0.03293281310675203 0.0477397821314172 0.02
  endloop
endfacet
facet normal 0.694409 -0.719581 9.65942e-16
  outer loop
    vertex 0.04 0.05455975100733394 0
    vertex 0.03646640655337601 0.05114976656937557 0.005000000000000001
    vertex 0.03293281310675203 0.0477397821314172 0
  endloop
endfacet
facet normal 0.694409 -0.719581 0
  outer loop
    vertex 0.03293281310675203 0.0477397821314172 0.02
    vertex 0.03646640655337602 0.05114976656937557 0.015
    vertex 0.04 0.05455975100733394 0.02
  endloop
endfacet
facet normal 0.694409 -0.719581 -9.65942e-16
  outer loop
    vertex 0.03293281310675203 0.0477397821314172 0.01000000000000003
    vertex 0.03646640655337601 0.05114976656937557 0.005000000000000001
    vertex 0.04 0.05455975100733394 0.009999999999999972
  endloop
endfacet
facet normal 0.694409 -0.719581 0
  outer loop
    vertex 0.04 0.05455975100733394 0.009999999999999972
    vertex 0.03646640655337602 0.05114976656937557 0.015
    vertex 0.03293281310675203 0.0477397821314172 0.01000000000000003
  endloop
endfacet
facet normal 0.941628 0.336655 2.19864e-15
  outer loop
    vertex 0.03537112076279433 0.04091981325550045 0.02
    vertex 0.03415196693477319 0.04432979769345883 0.015
    vertex 0.03293281310675203 0.0477397821314172 0.02
  endloop
endfacet
facet normal 0.941628 0.336655 2.19864e-15
  outer loop
    vertex 0.03537112076279433 0.04091981325550045 0.01000000000000003
    vertex 0.03415196693477319 0.04432979769345883 0.005
    vertex 0.03293281310675203 0.0477397821314172 0.009999999999999972
  endloop
endfacet
facet normal 0.941628 0.336655 -2.19864e-15
  outer loop
    vertex 0.03293281310675203 0.0477397821314172 0.009999999999999972
    vertex 0.03415196693477319 0.04432979769345883 0.015
    vertex 0.03537112076279433 0.04091981325550045 0.01000000000000003
  endloop
endfacet
facet normal 0.941628 0.336655 -2.19864e-15
  outer loop
    vertex 0.03293281310675203 0.0477397821314172 0
    vertex 0.03415196693477319 0.04432979769345883 0.005
    vertex 0.03537112076279433 0.04091981325550045 0
  endloop
endfacet
facet normal 0.941628 0.336655 0
  outer loop
    vertex 0.03293281310675203 0.0477397821314172 0.009999999999999972
    vertex 0.03415196693477319 0.04432979769345883 0.005
    vertex 0.03293281310675203 0.0477397821314172 0
  endloop
endfacet
facet normal 0.941628 0.336655 0
  outer loop
    vertex 0.03293281310675203 0.0477397821314172 0.02
    vertex 0.03415196693477319 0.04432979769345883 0.015
    vertex 0.03293281310675203 0.0477397821314172 0.009999999999999972
  endloop
endfacet
facet normal 0.941628 0.336655 -0
  outer loop
    vertex 0.03537112076279433 0.04091981325550045 0
    vertex 0.03415196693477319 0.04432979769345883 0.005
    vertex 0.03537112076279433 0.04091981325550045 0.01000000000000003
  endloop
endfacet
facet normal 0.941628 0.336655 -0
  outer loop
    vertex 0.03537112076279433 0.04091981325550045 0.01000000000000003
    vertex 0.03415196693477319 0.04432979769345883 0.015
    vertex 0.03537112076279433 0.04091981325550045 0.02
  endloop
endfacet
facet normal 0.999928 -0.0119855 0
  outer loop
    vertex 0.03528937404720948 0.03409984437958372 0.01000000000000003
    vertex 0.0353302474050019 0.03750982881754208 0.005
    vertex 0.03537112076279433 0.04091981325550045 0.009999999999999972
  endloop
endfacet
facet normal 0.999928 -0.0119855 0
  outer loop
    vertex 0.03537112076279433 0.04091981325550045 0.009999999999999972
    vertex 0.0353302474050019 0.03750982881754208 0.015
    vertex 0.03528937404720948 0.03409984437958372 0.01000000000000003
  endloop
endfacet
facet normal 0.999928 -0.0119855 0
  outer loop
    vertex 0.03528937404720948 0.03409984437958372 0.02
    vertex 0.0353302474050019 0.03750982881754208 0.015
    vertex 0.03537112076279433 0.04091981325550045 0.02
  endloop
endfacet
facet normal 0.999928 -0.0119855 0
  outer loop
    vertex 0.03537112076279433 0.04091981325550045 0
    vertex 0.0353302474050019 0.03750982881754208 0.005
    vertex 0.03528937404720948 0.03409984437958372 0
  endloop
endfacet
facet normal 0.999928 -0.0119855 0
  outer loop
    vertex 0.03537112076279433 0.04091981325550045 0.009999999999999972
    vertex 0.0353302474050019 0.03750982881754208 0.005
    vertex 0.03537112076279433 0.04091981325550045 0
  endloop
endfacet
facet normal 0.999928 -0.0119855 0
  outer loop
    vertex 0.03537112076279433 0.04091981325550045 0.02
    vertex 0.0353302474050019 0.03750982881754208 0.015
    vertex 0.03537112076279433 0.04091981325550045 0.009999999999999972
  endloop
endfacet
facet normal 0.999928 -0.0119855 0
  outer loop
    vertex 0.03528937404720948 0.03409984437958372 0
    vertex 0.0353302474050019 0.03750982881754208 0.005
    vertex 0.03528937404720948 0.03409984437958372 0.01000000000000003
  endloop
endfacet
facet normal 0.999928 -0.0119855 0
  outer loop
    vertex 0.03528937404720948 0.03409984437958372 0.01000000000000003
    vertex 0.0353302474050019 0.03750982881754208 0.015
    vertex 0.03528937404720948 0.03409984437958372 0.02
  endloop
endfacet
facet normal 0.999723 -0.0235222 6.95322e-16
  outer loop
    vertex 0.03512890927727158 0.02727987550366697 0.01000000000000003
    vertex 0.03520914166224053 0.03068985994162534 0.005000000000000001
    vertex 0.03528937404720948 0.03409984437958372 0.009999999999999972
  endloop
endfacet
facet normal 0.999723 -0.0235222 -6.92218e-16
  outer loop
    vertex 0.03528937404720948 0.03409984437958372 0.009999999999999972
    vertex 0.03520914166224053 0.03068985994162534 0.015
    vertex 0.03512890927727158 0.02727987550366697 0.01000000000000003
  endloop
endfacet
facet normal 0.999723 -0.0235222 6.95322e-16
  outer loop
    vertex 0.03512890927727158 0.02727987550366697 0.02
    vertex 0.03520914166224053 0.03068985994162534 0.015
    vertex 0.03528937404720948 0.03409984437958372 0.02
  endloop
endfacet
facet normal 0.999723 -0.0235222 -6.92218e-16
  outer loop
    vertex 0.03528937404720948 0.03409984437958372 0
    vertex 0.03520914166224053 0.03068985994162534 0.005000000000000001
    vertex 0.03512890927727158 0.02727987550366697 0
  endloop
endfacet
facet normal 0.999723 -0.0235222 0
  outer loop
    vertex 0.03528937404720948 0.03409984437958372 0.009999999999999972
    vertex 0.03520914166224053 0.03068985994162534 0.005000000000000001
    vertex 0.03528937404720948 0.03409984437958372 0
  endloop
endfacet
facet normal 0.999723 -0.0235222 0
  outer loop
    vertex 0.03528937404720948 0.03409984437958372 0.02
    vertex 0.03520914166224053 0.03068985994162534 0.015
    vertex 0.03528937404720948 0.03409984437958372 0.009999999999999972
  endloop
endfacet
facet normal 0.999723 -0.0235222 0
  outer loop
    vertex 0.03512890927727158 0.02727987550366697 0
    vertex 0.03520914166224053 0.03068985994162534 0.005000000000000001
    vertex 0.03512890927727158 0.02727987550366697 0.01000000000000003
  endloop
endfacet
facet normal 0.999723 -0.0235222 0
  outer loop
    vertex 0.03512890927727158 0.02727987550366697 0.01000000000000003
    vertex 0.03520914166224053 0.03068985994162534 0.015
    vertex 0.03512890927727158 0.02727987550366697 0.02
  endloop
endfacet
facet normal 0.892571 -0.450906 0
  outer loop
    vertex 0.03168362152245163 0.02045990662775023 0
    vertex 0.0334062653998616 0.0238698910657086 0.005000000000000001
    vertex 0.03168362152245163 0.02045990662775023 0.01000000000000003
  endloop
endfacet
facet normal 0.892571 -0.450906 0
  outer loop
    vertex 0.03512890927727158 0.02727987550366697 0.02
    vertex 0.0334062653998616 0.0238698910657086 0.015
    vertex 0.03512890927727158 0.02727987550366697 0.009999999999999972
  endloop
endfacet
facet normal 0.892571 -0.450906 0
  outer loop
    vertex 0.03512890927727158 0.02727987550366697 0.009999999999999972
    vertex 0.0334062653998616 0.0238698910657086 0.005000000000000001
    vertex 0.03512890927727158 0.02727987550366697 0
  endloop
endfacet
facet normal 0.892571 -0.450906 0
  outer loop
    vertex 0.03168362152245163 0.02045990662775023 0.01000000000000003
    vertex 0.0334062653998616 0.0238698910657086 0.015
    vertex 0.03168362152245163 0.02045990662775023 0.02
  endloop
endfacet
facet normal 0.892571 -0.450906 9.31194e-16
  outer loop
    vertex 0.03512890927727158 0.02727987550366697 0
    vertex 0.0334062653998616 0.0238698910657086 0.005000000000000001
    vertex 0.03168362152245163 0.02045990662775023 0
  endloop
endfacet
facet normal 0.892571 -0.450906 -9.31194e-16
  outer loop
    vertex 0.03168362152245163 0.02045990662775023 0.02
    vertex 0.0334062653998616 0.0238698910657086 0.015
    vertex 0.03512890927727158 0.02727987550366697 0.02
  endloop
endfacet
facet normal 0.892571 -0.450906 9.31194e-16
  outer loop
    vertex 0.03512890927727158 0.02727987550366697 0.009999999999999972
    vertex 0.0334062653998616 0.0238698910657086 0.015
    vertex 0.03168362152245163 0.02045990662775023 0.01000000000000003
  endloop
endfacet
facet normal 0.892571 -0.450906 -9.31194e-16
  outer loop
    vertex 0.03168362152245163 0.02045990662775023 0.01000000000000003
    vertex 0.0334062653998616 0.0238698910657086 0.005000000000000001
    vertex 0.03512890927727158 0.02727987550366697 0.009999999999999972
  endloop
endfacet
facet normal 0.938222 0.346034 -6.52547e-16
  outer loop
    vertex 0.03168362152245163 0.02045990662775023 0
    vertex 0.03294128835539846 0.01704992218979186 0.005000000000000001
    vertex 0.03419895518834529 0.01363993775183349 0
  endloop
endfacet
facet normal 0.938222 0.346034 6.52547e-16
  outer loop
    vertex 0.03419895518834529 0.01363993775183349 0.02
    vertex 0.03294128835539846 0.01704992218979186 0.015
    vertex 0.03168362152245163 0.02045990662775023 0.02
  endloop
endfacet
facet normal 0.938222 0.346034 6.52547e-16
  outer loop
    vertex 0.03419895518834529 0.01363993775183349 0.01000000000000003
    vertex 0.03294128835539846 0.01704992218979186 0.005000000000000001
    vertex 0.03168362152245163 0.02045990662775023 0.009999999999999972
  endloop
endfacet
facet normal 0.938222 0.346034 -6.52547e-16
  outer loop
    vertex 0.03168362152245163 0.02045990662775023 0.009999999999999972
    vertex 0.03294128835539846 0.01704992218979186 0.015
    vertex 0.03419895518834529 0.01363993775183349 0.01000000000000003
  endloop
endfacet
facet normal 0.938222 0.346034 0
  outer loop
    vertex 0.03168362152245163 0.02045990662775023 0.009999999999999972
    vertex 0.03294128835539846 0.01704992218979186 0.005000000000000001
    vertex 0.03168362152245163 0.02045990662775023 0
  endloop
endfacet
facet normal 0.938222 0.346034 0
  outer loop
    vertex 0.03168362152245163 0.02045990662775023 0.02
    vertex 0.03294128835539846 0.01704992218979186 0.015
    vertex 0.03168362152245163 0.02045990662775023 0.009999999999999972
  endloop
endfacet
facet normal 0.938222 0.346034 -0
  outer loop
    vertex 0.03419895518834529 0.01363993775183349 0
    vertex 0.03294128835539846 0.01704992218979186 0.005000000000000001
    vertex 0.03419895518834529 0.01363993775183349 0.01000000000000003
  endloop
endfacet
facet normal 0.938222 0.346034 -0
  outer loop
    vertex 0.03419895518834529 0.01363993775183349 0.01000000000000003
    vertex 0.03294128835539846 0.01704992218979186 0.015
    vertex 0.03419895518834529 0.01363993775183349 0.02
  endloop
endfacet
facet normal 0.983249 -0.182267 0
  outer loop
    vertex 0.03293472168661429 0.006819968875916745 0.01000000000000003
    vertex 0.03356683843747979 0.01022995331387512 0.005
    vertex 0.03419895518834529 0.01363993775183349 0.009999999999999972
  endloop
endfacet
facet normal 0.983249 -0.182267 0
  outer loop
    vertex 0.03419895518834529 0.01363993775183349 0.009999999999999972
    vertex 0.03356683843747979 0.01022995331387512 0.015
    vertex 0.03293472168661429 0.006819968875916745 0.01000000000000003
  endloop
endfacet
facet normal 0.983249 -0.182267 0
  outer loop
    vertex 0.03419895518834529 0.01363993775183349 0
    vertex 0.03356683843747979 0.01022995331387512 0.005
    vertex 0.03293472168661429 0.006819968875916745 0
  endloop
endfacet
facet normal 0.983249 -0.182267 0
  outer loop
    vertex 0.03293472168661429 0.006819968875916745 0.02
    vertex 0.03356683843747979 0.01022995331387512 0.015
    vertex 0.03419895518834529 0.01363993775183349 0.02
  endloop
endfacet
facet normal 0.983249 -0.182267 0
  outer loop
    vertex 0.03419895518834529 0.01363993775183349 0.009999999999999972
    vertex 0.03356683843747979 0.01022995331387512 0.005
    vertex 0.03419895518834529 0.01363993775183349 0
  endloop
endfacet
facet normal 0.983249 -0.182267 0
  outer loop
    vertex 0.03419895518834529 0.01363993775183349 0.02
    vertex 0.03356683843747979 0.01022995331387512 0.015
    vertex 0.03419895518834529 0.01363993775183349 0.009999999999999972
  endloop
endfacet
facet normal 0.983249 -0.182267 0
  outer loop
    vertex 0.03293472168661429 0.006819968875916745 0
    vertex 0.03356683843747979 0.01022995331387512 0.005
    vertex 0.03293472168661429 0.006819968875916745 0.01000000000000003
  endloop
endfacet
facet normal 0.983249 -0.182267 0
  outer loop
    vertex 0.03293472168661429 0.006819968875916745 0.01000000000000003
    vertex 0.03356683843747979 0.01022995331387512 0.015
    vertex 0.03293472168661429 0.006819968875916745 0.02
  endloop
endfacet
endsolid Created by Gmsh
