solid Created by Gmsh
facet normal 0.994174 -0.10779 -2.23574e-17
  outer loop
    vertex 0.01235491212828131 0.04016631466749135 0
    vertex 0.01181054811224615 0.03514552533405497 0.01125277340306607
    vertex 0.01126618409621098 0.03012473600061848 0
  endloop
endfacet
facet normal 0.994174 -0.10779 -2.23574e-17
  outer loop
    vertex 0.00908872803207033 0.01004157866687286 0.02
    vertex 0.009633092048105489 0.01506236800030924 0.008747226596933923
    vertex 0.01017745606414066 0.02008315733374573 0.02
  endloop
endfacet
facet normal 0.994174 -0.10779 0
  outer loop
    vertex 0.009633092048105489 0.01506236800030924 0.008747226596933923
    vertex 0.01072182008017582 0.0251039466671821 0.009999999999999998
    vertex 0.01017745606414066 0.02008315733374573 0.02
  endloop
endfacet
facet normal 0.994174 -0.10779 -2.51583e-17
  outer loop
    vertex 0.01017745606414066 0.02008315733374573 0.02
    vertex 0.01072182008017582 0.0251039466671821 0.009999999999999998
    vertex 0.01126618409621099 0.03012473600061856 0.02
  endloop
endfacet
facet normal 0.994174 -0.10779 0
  outer loop
    vertex 0.01181054811224615 0.03514552533405497 0.01125277340306607
    vertex 0.01072182008017582 0.0251039466671821 0.009999999999999998
    vertex 0.01126618409621098 0.03012473600061848 0
  endloop
endfacet
facet normal 0.994174 -0.10779 -4.02593e-17
  outer loop
    vertex 0.01126618409621099 0.03012473600061856 0.02
    vertex 0.01072182008017582 0.0251039466671821 0.009999999999999998
    vertex 0.01181054811224615 0.03514552533405497 0.01125277340306607
  endloop
endfacet
facet normal 0.994174 -0.10779 -2.78018e-18
  outer loop
    vertex 0.01235491212828131 0.04016631466749135 0
    vertex 0.01272951511076024 0.04362136056196899 0.00733839880058218
    vertex 0.01181054811224615 0.03514552533405497 0.01125277340306607
  endloop
endfacet
facet normal 0.994174 -0.10779 -2.78018e-18
  outer loop
    vertex 0.00908872803207033 0.01004157866687286 0.02
    vertex 0.008714125049591405 0.006586532772395216 0.01266160119941782
    vertex 0.009633092048105489 0.01506236800030924 0.008747226596933923
  endloop
endfacet
facet normal 0.994174 -0.10779 -2.51583e-17
  outer loop
    vertex 0.01126618409621098 0.03012473600061848 0
    vertex 0.01072182008017582 0.0251039466671821 0.009999999999999998
    vertex 0.01017745606414065 0.02008315733374565 0
  endloop
endfacet
facet normal 0.994174 -0.10779 -4.02593e-17
  outer loop
    vertex 0.01017745606414065 0.02008315733374565 0
    vertex 0.01072182008017582 0.0251039466671821 0.009999999999999998
    vertex 0.009633092048105489 0.01506236800030924 0.008747226596933923
  endloop
endfacet
facet normal 0.994174 -0.10779 7.66973e-17
  outer loop
    vertex 0.01126618409621099 0.03012473600061856 0.02
    vertex 0.01181054811224615 0.03514552533405497 0.01125277340306607
    vertex 0.01235491212828131 0.04016631466749138 0.02
  endloop
endfacet
facet normal 0.994174 -0.10779 4.79358e-17
  outer loop
    vertex 0.01017745606414065 0.02008315733374565 0
    vertex 0.009633092048105489 0.01506236800030924 0.008747226596933923
    vertex 0.009088728032070328 0.01004157866687283 0
  endloop
endfacet
facet normal 0.994174 -0.10779 0
  outer loop
    vertex 0.01344364016035164 0.05020789333436421 0.009999999999999972
    vertex 0.01272951511076024 0.04362136056196899 0.00733839880058218
    vertex 0.01344364016035164 0.05020789333436421 0
  endloop
endfacet
facet normal 0.994174 -0.10779 0
  outer loop
    vertex 0.008 0 0.01000000000000003
    vertex 0.008714125049591405 0.006586532772395216 0.01266160119941782
    vertex 0.008 0 0.02
  endloop
endfacet
facet normal 0.994174 -0.10779 -1.14277e-17
  outer loop
    vertex 0.008 0 0.02
    vertex 0.008714125049591405 0.006586532772395216 0.01266160119941782
    vertex 0.00908872803207033 0.01004157866687286 0.02
  endloop
endfacet
facet normal 0.994174 -0.10779 -1.14277e-17
  outer loop
    vertex 0.01344364016035164 0.05020789333436421 0
    vertex 0.01272951511076024 0.04362136056196899 0.00733839880058218
    vertex 0.01235491212828131 0.04016631466749135 0
  endloop
endfacet
facet normal 0.994174 -0.10779 8.91503e-17
  outer loop
    vertex 0.01181054811224615 0.03514552533405497 0.01125277340306607
    vertex 0.01281608679597926 0.04441983030082332 0.01424109415886959
    vertex 0.01235491212828131 0.04016631466749138 0.02
  endloop
endfacet
facet normal 0.994174 -0.10779 1.01886e-16
  outer loop
    vertex 0.009633092048105489 0.01506236800030924 0.008747226596933923
    vertex 0.008627553364372383 0.005788063033540895 0.005758905841130414
    vertex 0.009088728032070328 0.01004157866687283 0
  endloop
endfacet
facet normal 0.994174 -0.10779 5.97774e-17
  outer loop
    vertex 0.008714125049591405 0.006586532772395216 0.01266160119941782
    vertex 0.008627553364372383 0.005788063033540895 0.005758905841130414
    vertex 0.009633092048105489 0.01506236800030924 0.008747226596933923
  endloop
endfacet
facet normal 0.994174 -0.10779 1.62253e-16
  outer loop
    vertex 0.01272951511076024 0.04362136056196899 0.00733839880058218
    vertex 0.01281608679597926 0.04441983030082332 0.01424109415886959
    vertex 0.01181054811224615 0.03514552533405497 0.01125277340306607
  endloop
endfacet
facet normal 0.994174 -0.10779 4.3686e-17
  outer loop
    vertex 0.009088728032070328 0.01004157866687283 0
    vertex 0.008627553364372383 0.005788063033540895 0.005758905841130414
    vertex 0.008 0 0
  endloop
endfacet
facet normal 0.994174 -0.10779 -5.82479e-17
  outer loop
    vertex 0.01235491212828131 0.04016631466749138 0.02
    vertex 0.01281608679597926 0.04441983030082332 0.01424109415886959
    vertex 0.01344364016035164 0.05020789333436421 0.02
  endloop
endfacet
facet normal 0.994174 -0.10779 0
  outer loop
    vertex 0.01344364016035164 0.05020789333436421 0.02
    vertex 0.01281608679597926 0.04441983030082332 0.01424109415886959
    vertex 0.01344364016035164 0.05020789333436421 0.009999999999999972
  endloop
endfacet
facet normal 0.994174 -0.10779 0
  outer loop
    vertex 0.008 0 0
    vertex 0.008627553364372383 0.005788063033540895 0.005758905841130414
    vertex 0.008 0 0.01000000000000003
  endloop
endfacet
facet normal 0.994174 -0.10779 5.82906e-17
  outer loop
    vertex 0.008 0 0.01000000000000003
    vertex 0.008627553364372383 0.005788063033540895 0.005758905841130414
    vertex 0.008714125049591405 0.006586532772395216 0.01266160119941782
  endloop
endfacet
facet normal 0.994174 -0.10779 1.74872e-16
  outer loop
    vertex 0.01344364016035164 0.05020789333436421 0.009999999999999972
    vertex 0.01281608679597926 0.04441983030082332 0.01424109415886959
    vertex 0.01272951511076024 0.04362136056196899 0.00733839880058218
  endloop
endfacet
endsolid Created by Gmsh
