solid Created by Gmsh
facet normal -0.625661 -0.780095 6.85735e-16
  outer loop
    vertex 0.03052258925470923 0.05822824728049784 0
    vertex 0.03959769985665859 0.05094971637043561 0
    vertex 0.03506014455568391 0.05458898182546673 0.00594603439043255
  endloop
endfacet
facet normal -0.625661 -0.780095 -9.15082e-16
  outer loop
    vertex 0.03959769985665859 0.05094971637043561 0.02
    vertex 0.03052258925470923 0.05822824728049784 0.02
    vertex 0.0350601445556839 0.05458898182546674 0.01427113702623906
  endloop
endfacet
facet normal -0.625661 -0.780095 0
  outer loop
    vertex 0.03959769985665859 0.05094971637043561 0
    vertex 0.03959769985665859 0.05094971637043561 0.01000000000000003
    vertex 0.03506014455568391 0.05458898182546673 0.00594603439043255
  endloop
endfacet
facet normal -0.625661 -0.780095 1.39935e-16
  outer loop
    vertex 0.03959769985665859 0.05094971637043561 0.01000000000000003
    vertex 0.0350601445556839 0.05458898182546674 0.01427113702623906
    vertex 0.03506014455568391 0.05458898182546673 0.00594603439043255
  endloop
endfacet
facet normal -0.625661 -0.780095 -0
  outer loop
    vertex 0.03052258925470923 0.05822824728049784 0.02
    vertex 0.03052258925470923 0.05822824728049784 0.009999999999999972
    vertex 0.0350601445556839 0.05458898182546674 0.01427113702623906
  endloop
endfacet
facet normal -0.625661 -0.780095 1.28719e-16
  outer loop
    vertex 0.0350601445556839 0.05458898182546674 0.01427113702623906
    vertex 0.03052258925470923 0.05822824728049784 0.009999999999999972
    vertex 0.03506014455568391 0.05458898182546673 0.00594603439043255
  endloop
endfacet
facet normal -0.625661 -0.780095 0
  outer loop
    vertex 0.03959769985665859 0.05094971637043561 0.01000000000000003
    vertex 0.03959769985665859 0.05094971637043561 0.02
    vertex 0.0350601445556839 0.05458898182546674 0.01427113702623906
  endloop
endfacet
facet normal -0.625661 -0.780095 -0
  outer loop
    vertex 0.03052258925470923 0.05822824728049784 0.009999999999999972
    vertex 0.03052258925470923 0.05822824728049784 0
    vertex 0.03506014455568391 0.05458898182546673 0.00594603439043255
  endloop
endfacet
facet normal -0.880527 0.473996 0
  outer loop
    vertex 0.03567959919524666 0.04367118546037338 0
    vertex 0.03567959919524666 0.04367118546037338 0.01000000000000003
    vertex 0.03763864952595262 0.04731045091540449 0.005000000000000001
  endloop
endfacet
facet normal -0.880527 0.473996 0
  outer loop
    vertex 0.03959769985665859 0.05094971637043561 0.02
    vertex 0.03959769985665859 0.05094971637043561 0.009999999999999972
    vertex 0.03763864952595262 0.04731045091540449 0.015
  endloop
endfacet
facet normal -0.880527 0.473996 0
  outer loop
    vertex 0.03567959919524666 0.04367118546037338 0.01000000000000003
    vertex 0.03567959919524666 0.04367118546037338 0.02
    vertex 0.03763864952595262 0.04731045091540449 0.015
  endloop
endfacet
facet normal -0.880527 0.473996 0
  outer loop
    vertex 0.03959769985665859 0.05094971637043561 0.009999999999999972
    vertex 0.03959769985665859 0.05094971637043561 0
    vertex 0.03763864952595262 0.04731045091540449 0.005000000000000001
  endloop
endfacet
facet normal -0.880527 0.473996 9.01741e-16
  outer loop
    vertex 0.03567959919524666 0.04367118546037338 0.01000000000000003
    vertex 0.03959769985665859 0.05094971637043561 0.009999999999999972
    vertex 0.03763864952595262 0.04731045091540449 0.005000000000000001
  endloop
endfacet
facet normal -0.880527 0.473996 -9.01741e-16
  outer loop
    vertex 0.03959769985665859 0.05094971637043561 0.009999999999999972
    vertex 0.03567959919524666 0.04367118546037338 0.01000000000000003
    vertex 0.03763864952595262 0.04731045091540449 0.015
  endloop
endfacet
facet normal -0.880527 0.473996 -9.01741e-16
  outer loop
    vertex 0.03959769985665859 0.05094971637043561 0
    vertex 0.03567959919524666 0.04367118546037338 0
    vertex 0.03763864952595262 0.04731045091540449 0.005000000000000001
  endloop
endfacet
facet normal -0.880527 0.473996 9.01741e-16
  outer loop
    vertex 0.03567959919524666 0.04367118546037338 0.02
    vertex 0.03959769985665859 0.05094971637043561 0.02
    vertex 0.03763864952595262 0.04731045091540449 0.015
  endloop
endfacet
facet normal -0.959009 0.283377 0
  outer loop
    vertex 0.03352886836402107 0.03639265455031115 0
    vertex 0.03352886836402107 0.03639265455031115 0.01000000000000003
    vertex 0.03460423377963386 0.04003192000534227 0.005000000000000001
  endloop
endfacet
facet normal -0.959009 0.283377 0
  outer loop
    vertex 0.03567959919524666 0.04367118546037338 0.02
    vertex 0.03567959919524666 0.04367118546037338 0.009999999999999972
    vertex 0.03460423377963386 0.04003192000534227 0.015
  endloop
endfacet
facet normal -0.959009 0.283377 0
  outer loop
    vertex 0.03567959919524666 0.04367118546037338 0.009999999999999972
    vertex 0.03567959919524666 0.04367118546037338 0
    vertex 0.03460423377963386 0.04003192000534227 0.005000000000000001
  endloop
endfacet
facet normal -0.959009 0.283377 0
  outer loop
    vertex 0.03352886836402107 0.03639265455031115 0.01000000000000003
    vertex 0.03352886836402107 0.03639265455031115 0.02
    vertex 0.03460423377963386 0.04003192000534227 0.015
  endloop
endfacet
facet normal -0.959009 0.283377 0
  outer loop
    vertex 0.03352886836402107 0.03639265455031115 0.01000000000000003
    vertex 0.03567959919524666 0.04367118546037338 0.009999999999999972
    vertex 0.03460423377963386 0.04003192000534227 0.005000000000000001
  endloop
endfacet
facet normal -0.959009 0.283377 0
  outer loop
    vertex 0.03567959919524666 0.04367118546037338 0.009999999999999972
    vertex 0.03352886836402107 0.03639265455031115 0.01000000000000003
    vertex 0.03460423377963386 0.04003192000534227 0.015
  endloop
endfacet
facet normal -0.959009 0.283377 0
  outer loop
    vertex 0.03567959919524666 0.04367118546037338 0
    vertex 0.03352886836402107 0.03639265455031115 0
    vertex 0.03460423377963386 0.04003192000534227 0.005000000000000001
  endloop
endfacet
facet normal -0.959009 0.283377 0
  outer loop
    vertex 0.03352886836402107 0.03639265455031115 0.02
    vertex 0.03567959919524666 0.04367118546037338 0.02
    vertex 0.03460423377963386 0.04003192000534227 0.015
  endloop
endfacet
facet normal -0.809676 -0.586877 -0
  outer loop
    vertex 0.03352886836402107 0.03639265455031115 0.02
    vertex 0.03352886836402107 0.03639265455031115 0.009999999999999972
    vertex 0.03616671597043907 0.03275338909528004 0.015
  endloop
endfacet
facet normal -0.809676 -0.586877 0
  outer loop
    vertex 0.03880456357685708 0.02911412364024892 0
    vertex 0.03880456357685708 0.02911412364024892 0.01000000000000003
    vertex 0.03616671597043907 0.03275338909528004 0.005
  endloop
endfacet
facet normal -0.809676 -0.586877 -0
  outer loop
    vertex 0.03352886836402107 0.03639265455031115 0.009999999999999972
    vertex 0.03352886836402107 0.03639265455031115 0
    vertex 0.03616671597043907 0.03275338909528004 0.005
  endloop
endfacet
facet normal -0.809676 -0.586877 0
  outer loop
    vertex 0.03880456357685708 0.02911412364024892 0.01000000000000003
    vertex 0.03880456357685708 0.02911412364024892 0.02
    vertex 0.03616671597043907 0.03275338909528004 0.015
  endloop
endfacet
facet normal -0.809676 -0.586877 -4.52282e-16
  outer loop
    vertex 0.03880456357685708 0.02911412364024892 0.01000000000000003
    vertex 0.03352886836402107 0.03639265455031115 0.009999999999999972
    vertex 0.03616671597043907 0.03275338909528004 0.005
  endloop
endfacet
facet normal -0.809676 -0.586877 -4.52282e-16
  outer loop
    vertex 0.03880456357685708 0.02911412364024892 0.02
    vertex 0.03352886836402107 0.03639265455031115 0.02
    vertex 0.03616671597043907 0.03275338909528004 0.015
  endloop
endfacet
facet normal -0.809676 -0.586877 3.76901e-16
  outer loop
    vertex 0.03352886836402107 0.03639265455031115 0.009999999999999972
    vertex 0.03880456357685708 0.02911412364024892 0.01000000000000003
    vertex 0.03616671597043907 0.03275338909528004 0.015
  endloop
endfacet
facet normal -0.809676 -0.586877 3.76901e-16
  outer loop
    vertex 0.03352886836402107 0.03639265455031115 0
    vertex 0.03880456357685708 0.02911412364024892 0
    vertex 0.03616671597043907 0.03275338909528004 0.005
  endloop
endfacet
facet normal -0.691509 0.722368 -6.44551e-16
  outer loop
    vertex 0.03120122941398453 0.02183559273018669 0.02
    vertex 0.03880456357685708 0.02911412364024892 0.02
    vertex 0.03500289649542081 0.0254748581852178 0.01450648773478912
  endloop
endfacet
facet normal -0.691509 0.722368 2.91539e-16
  outer loop
    vertex 0.03880456357685708 0.02911412364024892 0
    vertex 0.03120122941398453 0.02183559273018669 0
    vertex 0.03500289649542079 0.02547485818521779 0.005520616409829249
  endloop
endfacet
facet normal -0.691509 0.722368 0
  outer loop
    vertex 0.03880456357685708 0.02911412364024892 0.02
    vertex 0.03880456357685708 0.02911412364024892 0.009999999999999972
    vertex 0.03500289649542081 0.0254748581852178 0.01450648773478912
  endloop
endfacet
facet normal -0.691509 0.722368 0
  outer loop
    vertex 0.03120122941398453 0.02183559273018669 0
    vertex 0.03120122941398453 0.02183559273018669 0.01000000000000003
    vertex 0.03500289649542079 0.02547485818521779 0.005520616409829249
  endloop
endfacet
facet normal -0.691509 0.722368 2.14934e-16
  outer loop
    vertex 0.03880456357685708 0.02911412364024892 0.009999999999999972
    vertex 0.03500289649542079 0.02547485818521779 0.005520616409829249
    vertex 0.03500289649542081 0.0254748581852178 0.01450648773478912
  endloop
endfacet
facet normal -0.691509 0.722368 2.31248e-16
  outer loop
    vertex 0.03500289649542079 0.02547485818521779 0.005520616409829249
    vertex 0.03120122941398453 0.02183559273018669 0.01000000000000003
    vertex 0.03500289649542081 0.0254748581852178 0.01450648773478912
  endloop
endfacet
facet normal -0.691509 0.722368 0
  outer loop
    vertex 0.03880456357685708 0.02911412364024892 0.009999999999999972
    vertex 0.03880456357685708 0.02911412364024892 0
    vertex 0.03500289649542079 0.02547485818521779 0.005520616409829249
  endloop
endfacet
facet normal -0.691509 0.722368 0
  outer loop
    vertex 0.03120122941398453 0.02183559273018669 0.01000000000000003
    vertex 0.03120122941398453 0.02183559273018669 0.02
    vertex 0.03500289649542081 0.0254748581852178 0.01450648773478912
  endloop
endfacet
facet normal -0.806159 -0.591699 -0
  outer loop
    vertex 0.03120122941398453 0.02183559273018669 0.02
    vertex 0.03120122941398453 0.02183559273018669 0.009999999999999972
    vertex 0.03387235091721545 0.01819632727515557 0.015
  endloop
endfacet
facet normal -0.806159 -0.591699 0
  outer loop
    vertex 0.03654347242044638 0.01455706182012446 0
    vertex 0.03654347242044638 0.01455706182012446 0.01000000000000003
    vertex 0.03387235091721545 0.01819632727515558 0.004999999999999999
  endloop
endfacet
facet normal -0.806159 -0.591699 -0
  outer loop
    vertex 0.03120122941398453 0.02183559273018669 0.009999999999999972
    vertex 0.03120122941398453 0.02183559273018669 0
    vertex 0.03387235091721545 0.01819632727515558 0.004999999999999999
  endloop
endfacet
facet normal -0.806159 -0.591699 0
  outer loop
    vertex 0.03654347242044638 0.01455706182012446 0.01000000000000003
    vertex 0.03654347242044638 0.01455706182012446 0.02
    vertex 0.03387235091721545 0.01819632727515557 0.015
  endloop
endfacet
facet normal -0.806159 -0.591699 -1.2759e-15
  outer loop
    vertex 0.03120122941398453 0.02183559273018669 0.009999999999999972
    vertex 0.03654347242044638 0.01455706182012446 0.01000000000000003
    vertex 0.03387235091721545 0.01819632727515557 0.015
  endloop
endfacet
facet normal -0.806159 -0.591699 -9.00635e-16
  outer loop
    vertex 0.03120122941398453 0.02183559273018669 0
    vertex 0.03654347242044638 0.01455706182012446 0
    vertex 0.03387235091721545 0.01819632727515558 0.004999999999999999
  endloop
endfacet
facet normal -0.806159 -0.591699 8.25582e-16
  outer loop
    vertex 0.03654347242044638 0.01455706182012446 0.01000000000000003
    vertex 0.03120122941398453 0.02183559273018669 0.009999999999999972
    vertex 0.03387235091721545 0.01819632727515558 0.004999999999999999
  endloop
endfacet
facet normal -0.806159 -0.591699 1.2759e-15
  outer loop
    vertex 0.03654347242044638 0.01455706182012446 0.02
    vertex 0.03120122941398453 0.02183559273018669 0.02
    vertex 0.03387235091721545 0.01819632727515557 0.015
  endloop
endfacet
facet normal -0.714543 -0.699591 7.31759e-16
  outer loop
    vertex 0.04366969567521421 0.007278530910062232 0.02
    vertex 0.03654347242044638 0.01455706182012446 0.02
    vertex 0.04010658404783029 0.01091779636509335 0.01500000000000001
  endloop
endfacet
facet normal -0.714543 -0.699591 -9.31329e-16
  outer loop
    vertex 0.03654347242044638 0.01455706182012446 0
    vertex 0.04366969567521421 0.007278530910062232 0
    vertex 0.04010658404783029 0.01091779636509334 0.004999999999999987
  endloop
endfacet
facet normal -0.714543 -0.699591 1.33047e-16
  outer loop
    vertex 0.03654347242044638 0.01455706182012446 0.009999999999999972
    vertex 0.04010658404783029 0.01091779636509334 0.004999999999999987
    vertex 0.04010658404783029 0.01091779636509335 0.01500000000000001
  endloop
endfacet
facet normal -0.714543 -0.699591 1.2136e-16
  outer loop
    vertex 0.04010658404783029 0.01091779636509334 0.004999999999999987
    vertex 0.04366969567521421 0.007278530910062232 0.01000000000000003
    vertex 0.04010658404783029 0.01091779636509335 0.01500000000000001
  endloop
endfacet
facet normal -0.714543 -0.699591 -0
  outer loop
    vertex 0.03654347242044638 0.01455706182012446 0.02
    vertex 0.03654347242044638 0.01455706182012446 0.009999999999999972
    vertex 0.04010658404783029 0.01091779636509335 0.01500000000000001
  endloop
endfacet
facet normal -0.714543 -0.699591 0
  outer loop
    vertex 0.04366969567521421 0.007278530910062232 0
    vertex 0.04366969567521421 0.007278530910062232 0.01000000000000003
    vertex 0.04010658404783029 0.01091779636509334 0.004999999999999987
  endloop
endfacet
facet normal -0.714543 -0.699591 -0
  outer loop
    vertex 0.03654347242044638 0.01455706182012446 0.009999999999999972
    vertex 0.03654347242044638 0.01455706182012446 0
    vertex 0.04010658404783029 0.01091779636509334 0.004999999999999987
  endloop
endfacet
facet normal -0.714543 -0.699591 0
  outer loop
    vertex 0.04366969567521421 0.007278530910062232 0.01000000000000003
    vertex 0.04366969567521421 0.007278530910062232 0.02
    vertex 0.04010658404783029 0.01091779636509335 0.01500000000000001
  endloop
endfacet
endsolid Created by Gmsh
