solid Created by Gmsh
facet normal 0.99409 -0.108561 9.96257e-17
  outer loop
    vertex 0.0131346322272953 0.04701775039169526 0.02
    vertex 0.01345554674150126 0.04995635979117626 0.008495364531258327
    vertex 0.01441829028411913 0.0587721879896191 0.02
  endloop
endfacet
facet normal 0.99409 -0.108561 -2.80197e-17
  outer loop
    vertex 0.009283658056823827 0.01175443759792384 0
    vertex 0.008962743542617866 0.008815828198442836 0.01150463546874167
    vertex 0.008 0 0
  endloop
endfacet
facet normal 0.99409 -0.108561 0
  outer loop
    vertex 0.01441829028411913 0.0587721879896191 0.009999999999999972
    vertex 0.01345554674150126 0.04995635979117626 0.008495364531258327
    vertex 0.01441829028411913 0.0587721879896191 0
  endloop
endfacet
facet normal 0.99409 -0.108561 0
  outer loop
    vertex 0.008 0 0.01000000000000003
    vertex 0.008962743542617866 0.008815828198442836 0.01150463546874167
    vertex 0.008 0 0.02
  endloop
endfacet
facet normal 0.99409 -0.108561 8.43222e-17
  outer loop
    vertex 0.008 0 0.02
    vertex 0.008962743542617866 0.008815828198442836 0.01150463546874167
    vertex 0.00928365805682382 0.01175443759792378 0.02
  endloop
endfacet
facet normal 0.99409 -0.108561 -2.69831e-16
  outer loop
    vertex 0.01441829028411913 0.0587721879896191 0
    vertex 0.01345554674150126 0.04995635979117626 0.008495364531258327
    vertex 0.0131346322272953 0.04701775039169532 0
  endloop
endfacet
facet normal 0.99409 -0.108561 -2.27221e-17
  outer loop
    vertex 0.009978972837603396 0.01812142463013255 0.01025077257812361
    vertex 0.01120914514205956 0.02938609399480955 0.009999999999999998
    vertex 0.01056731611364765 0.02350887519584759 0.02
  endloop
endfacet
facet normal 0.99409 -0.108561 9.223e-17
  outer loop
    vertex 0.01056731611364765 0.02350887519584767 0
    vertex 0.01120914514205956 0.02938609399480955 0.009999999999999998
    vertex 0.009978972837603396 0.01812142463013255 0.01025077257812361
  endloop
endfacet
facet normal 0.99409 -0.108561 6.44713e-17
  outer loop
    vertex 0.01056731611364765 0.02350887519584759 0.02
    vertex 0.01120914514205956 0.02938609399480955 0.009999999999999998
    vertex 0.01185097417047147 0.03526331279377143 0.02
  endloop
endfacet
facet normal 0.99409 -0.108561 4.42704e-17
  outer loop
    vertex 0.01185097417047147 0.03526331279377143 0.02
    vertex 0.01120914514205956 0.02938609399480955 0.009999999999999998
    vertex 0.01243931744651573 0.04065076335948656 0.009749227421876384
  endloop
endfacet
facet normal 0.99409 -0.108561 1.39765e-16
  outer loop
    vertex 0.01056731611364765 0.02350887519584767 0
    vertex 0.009978972837603396 0.01812142463013255 0.01025077257812361
    vertex 0.009283658056823827 0.01175443759792384 0
  endloop
endfacet
facet normal 0.99409 -0.108561 -6.98823e-18
  outer loop
    vertex 0.01185097417047147 0.03526331279377143 0.02
    vertex 0.01243931744651573 0.04065076335948656 0.009749227421876384
    vertex 0.0131346322272953 0.04701775039169526 0.02
  endloop
endfacet
facet normal 0.99409 -0.108561 -7.57403e-18
  outer loop
    vertex 0.01243931744651573 0.04065076335948656 0.009749227421876384
    vertex 0.01120914514205956 0.02938609399480955 0.009999999999999998
    vertex 0.01185097417047148 0.0352633127937715 0
  endloop
endfacet
facet normal 0.99409 -0.108561 -5.87819e-17
  outer loop
    vertex 0.0131346322272953 0.04701775039169532 0
    vertex 0.01243931744651573 0.04065076335948656 0.009749227421876384
    vertex 0.01185097417047148 0.0352633127937715 0
  endloop
endfacet
facet normal 0.99409 -0.108561 -8.81729e-17
  outer loop
    vertex 0.00928365805682382 0.01175443759792378 0.02
    vertex 0.009978972837603396 0.01812142463013255 0.01025077257812361
    vertex 0.01056731611364765 0.02350887519584759 0.02
  endloop
endfacet
facet normal 0.99409 -0.108561 -1.4327e-17
  outer loop
    vertex 0.01185097417047148 0.0352633127937715 0
    vertex 0.01120914514205956 0.02938609399480955 0.009999999999999998
    vertex 0.01056731611364765 0.02350887519584767 0
  endloop
endfacet
facet normal 0.99409 -0.108561 4.88732e-17
  outer loop
    vertex 0.01243931744651573 0.04065076335948656 0.009749227421876384
    vertex 0.01345554674150126 0.04995635979117626 0.008495364531258327
    vertex 0.0131346322272953 0.04701775039169526 0.02
  endloop
endfacet
facet normal 0.99409 -0.108561 0
  outer loop
    vertex 0.009978972837603396 0.01812142463013255 0.01025077257812361
    vertex 0.008962743542617866 0.008815828198442836 0.01150463546874167
    vertex 0.009283658056823827 0.01175443759792384 0
  endloop
endfacet
facet normal 0.99409 -0.108561 4.5796e-17
  outer loop
    vertex 0.00928365805682382 0.01175443759792378 0.02
    vertex 0.008962743542617866 0.008815828198442836 0.01150463546874167
    vertex 0.009978972837603396 0.01812142463013255 0.01025077257812361
  endloop
endfacet
facet normal 0.99409 -0.108561 -2.39157e-16
  outer loop
    vertex 0.0131346322272953 0.04701775039169532 0
    vertex 0.01345554674150126 0.04995635979117626 0.008495364531258327
    vertex 0.01243931744651573 0.04065076335948656 0.009749227421876384
  endloop
endfacet
facet normal 0.99409 -0.108561 0
  outer loop
    vertex 0.008 0 0
    vertex 0.008962743542617866 0.008815828198442836 0.01150463546874167
    vertex 0.008 0 0.01000000000000003
  endloop
endfacet
facet normal 0.99409 -0.108561 0
  outer loop
    vertex 0.01441829028411913 0.0587721879896191 0.02
    vertex 0.01345554674150126 0.04995635979117626 0.008495364531258327
    vertex 0.01441829028411913 0.0587721879896191 0.009999999999999972
  endloop
endfacet
endsolid Created by Gmsh
