solid Created by Gmsh
facet normal 1 1.39671e-15 0
  outer loop
    vertex 0.04 0.06 0.02
    vertex 0.04000000000000001 0.05503197297036847 0.015
    vertex 0.04 0.06 0.009999999999999972
  endloop
endfacet
facet normal 1 -1.39671e-15 0
  outer loop
    vertex 0.04 0.05006394594073695 0
    vertex 0.04000000000000001 0.05503197297036848 0.005000000000000001
    vertex 0.04 0.05006394594073695 0.01000000000000003
  endloop
endfacet
facet normal 1 1.39671e-15 0
  outer loop
    vertex 0.04 0.06 0.009999999999999972
    vertex 0.04000000000000001 0.05503197297036848 0.005000000000000001
    vertex 0.04 0.06 0
  endloop
endfacet
facet normal 1 -1.39671e-15 0
  outer loop
    vertex 0.04 0.05006394594073695 0.01000000000000003
    vertex 0.04000000000000001 0.05503197297036847 0.015
    vertex 0.04 0.05006394594073695 0.02
  endloop
endfacet
facet normal 1 -0 1.38778e-15
  outer loop
    vertex 0.04 0.05006394594073695 0.02
    vertex 0.04000000000000001 0.05503197297036847 0.015
    vertex 0.04 0.06 0.02
  endloop
endfacet
facet normal 1 7.7533e-30 1.38778e-15
  outer loop
    vertex 0.04 0.05006394594073695 0.01000000000000003
    vertex 0.04000000000000001 0.05503197297036848 0.005000000000000001
    vertex 0.04 0.06 0.009999999999999972
  endloop
endfacet
facet normal 1 0 -1.38778e-15
  outer loop
    vertex 0.04 0.06 0
    vertex 0.04000000000000001 0.05503197297036848 0.005000000000000001
    vertex 0.04 0.05006394594073695 0
  endloop
endfacet
facet normal 1 -7.7533e-30 -1.38778e-15
  outer loop
    vertex 0.04 0.06 0.009999999999999972
    vertex 0.04000000000000001 0.05503197297036847 0.015
    vertex 0.04 0.05006394594073695 0.01000000000000003
  endloop
endfacet
facet normal 0.854174 0.519987 2.49727e-15
  outer loop
    vertex 0.04 0.05006394594073695 0
    vertex 0.04190480999980958 0.04693494931944089 0.004999999999999999
    vertex 0.04380961999961917 0.04380595269814484 0
  endloop
endfacet
facet normal 0.854174 0.519987 2.49727e-15
  outer loop
    vertex 0.04 0.05006394594073695 0.009999999999999972
    vertex 0.04190480999980958 0.04693494931944089 0.015
    vertex 0.04380961999961917 0.04380595269814484 0.01000000000000003
  endloop
endfacet
facet normal 0.854174 0.519987 -2.49727e-15
  outer loop
    vertex 0.04380961999961917 0.04380595269814484 0.01000000000000003
    vertex 0.04190480999980958 0.04693494931944089 0.004999999999999999
    vertex 0.04 0.05006394594073695 0.009999999999999972
  endloop
endfacet
facet normal 0.854174 0.519987 -2.49727e-15
  outer loop
    vertex 0.04380961999961917 0.04380595269814484 0.02
    vertex 0.04190480999980958 0.04693494931944089 0.015
    vertex 0.04 0.05006394594073695 0.02
  endloop
endfacet
facet normal 0.854174 0.519987 0
  outer loop
    vertex 0.04 0.05006394594073695 0.009999999999999972
    vertex 0.04190480999980958 0.04693494931944089 0.004999999999999999
    vertex 0.04 0.05006394594073695 0
  endloop
endfacet
facet normal 0.854174 0.519987 0
  outer loop
    vertex 0.04 0.05006394594073695 0.02
    vertex 0.04190480999980958 0.04693494931944089 0.015
    vertex 0.04 0.05006394594073695 0.009999999999999972
  endloop
endfacet
facet normal 0.854174 0.519987 -0
  outer loop
    vertex 0.04380961999961917 0.04380595269814484 0
    vertex 0.04190480999980958 0.04693494931944089 0.004999999999999999
    vertex 0.04380961999961917 0.04380595269814484 0.01000000000000003
  endloop
endfacet
facet normal 0.854174 0.519987 -0
  outer loop
    vertex 0.04380961999961917 0.04380595269814484 0.01000000000000003
    vertex 0.04190480999980958 0.04693494931944089 0.015
    vertex 0.04380961999961917 0.04380595269814484 0.02
  endloop
endfacet
facet normal 0.814072 -0.580763 0
  outer loop
    vertex 0.04380961999961917 0.04380595269814484 0.02
    vertex 0.04157737783555039 0.04067695607684878 0.015
    vertex 0.04380961999961917 0.04380595269814484 0.009999999999999972
  endloop
endfacet
facet normal 0.814072 -0.580763 0
  outer loop
    vertex 0.03934513567148161 0.03754795945555271 0
    vertex 0.04157737783555039 0.04067695607684878 0.005
    vertex 0.03934513567148161 0.03754795945555271 0.01000000000000003
  endloop
endfacet
facet normal 0.814072 -0.580763 0
  outer loop
    vertex 0.04380961999961917 0.04380595269814484 0.009999999999999972
    vertex 0.04157737783555039 0.04067695607684878 0.005
    vertex 0.04380961999961917 0.04380595269814484 0
  endloop
endfacet
facet normal 0.814072 -0.580763 0
  outer loop
    vertex 0.03934513567148161 0.03754795945555271 0.01000000000000003
    vertex 0.04157737783555039 0.04067695607684878 0.015
    vertex 0.03934513567148161 0.03754795945555271 0.02
  endloop
endfacet
facet normal 0.814072 -0.580763 -3.96671e-16
  outer loop
    vertex 0.03934513567148161 0.03754795945555271 0.01000000000000003
    vertex 0.04157737783555039 0.04067695607684878 0.005
    vertex 0.04380961999961917 0.04380595269814484 0.009999999999999972
  endloop
endfacet
facet normal 0.814072 -0.580763 3.96671e-16
  outer loop
    vertex 0.04380961999961917 0.04380595269814484 0
    vertex 0.04157737783555039 0.04067695607684878 0.005
    vertex 0.03934513567148161 0.03754795945555271 0
  endloop
endfacet
facet normal 0.814072 -0.580763 -3.96671e-16
  outer loop
    vertex 0.03934513567148161 0.03754795945555271 0.02
    vertex 0.04157737783555039 0.04067695607684878 0.015
    vertex 0.04380961999961917 0.04380595269814484 0.02
  endloop
endfacet
facet normal 0.814072 -0.580763 3.96671e-16
  outer loop
    vertex 0.04380961999961917 0.04380595269814484 0.009999999999999972
    vertex 0.04157737783555039 0.04067695607684878 0.015
    vertex 0.03934513567148161 0.03754795945555271 0.01000000000000003
  endloop
endfacet
facet normal 0.568331 -0.8228 0
  outer loop
    vertex 0.03934513567148161 0.03754795945555271 0
    vertex 0.03481513155723438 0.03441896283425665 0.00549351226521088
    vertex 0.03028512744298714 0.0312899662129606 0
  endloop
endfacet
facet normal 0.568331 -0.8228 0
  outer loop
    vertex 0.03028512744298714 0.0312899662129606 0.02
    vertex 0.03481513155723438 0.03441896283425665 0.01447938359017077
    vertex 0.03934513567148161 0.03754795945555271 0.02
  endloop
endfacet
facet normal 0.568331 -0.8228 0
  outer loop
    vertex 0.03028512744298714 0.0312899662129606 0.01000000000000003
    vertex 0.03481513155723438 0.03441896283425665 0.00549351226521088
    vertex 0.03481513155723438 0.03441896283425665 0.01447938359017077
  endloop
endfacet
facet normal 0.568331 -0.8228 0
  outer loop
    vertex 0.03481513155723438 0.03441896283425665 0.01447938359017077
    vertex 0.03481513155723438 0.03441896283425665 0.00549351226521088
    vertex 0.03934513567148161 0.03754795945555271 0.009999999999999972
  endloop
endfacet
facet normal 0.568331 -0.8228 0
  outer loop
    vertex 0.03934513567148161 0.03754795945555271 0.02
    vertex 0.03481513155723438 0.03441896283425665 0.01447938359017077
    vertex 0.03934513567148161 0.03754795945555271 0.009999999999999972
  endloop
endfacet
facet normal 0.568331 -0.8228 0
  outer loop
    vertex 0.03028512744298714 0.0312899662129606 0
    vertex 0.03481513155723438 0.03441896283425665 0.00549351226521088
    vertex 0.03028512744298714 0.0312899662129606 0.01000000000000003
  endloop
endfacet
facet normal 0.568331 -0.8228 0
  outer loop
    vertex 0.03934513567148161 0.03754795945555271 0.009999999999999972
    vertex 0.03481513155723438 0.03441896283425665 0.00549351226521088
    vertex 0.03934513567148161 0.03754795945555271 0
  endloop
endfacet
facet normal 0.568331 -0.8228 0
  outer loop
    vertex 0.03028512744298714 0.0312899662129606 0.01000000000000003
    vertex 0.03481513155723438 0.03441896283425665 0.01447938359017077
    vertex 0.03028512744298714 0.0312899662129606 0.02
  endloop
endfacet
facet normal 0.935648 0.352935 -5.31896e-16
  outer loop
    vertex 0.03028512744298714 0.0312899662129606 0.009999999999999972
    vertex 0.03146541199656528 0.02816096959166453 0.015
    vertex 0.03264569655014341 0.02503197297036848 0.01000000000000003
  endloop
endfacet
facet normal 0.935648 0.352935 -5.31896e-16
  outer loop
    vertex 0.03028512744298714 0.0312899662129606 0
    vertex 0.03146541199656528 0.02816096959166453 0.005000000000000001
    vertex 0.03264569655014341 0.02503197297036848 0
  endloop
endfacet
facet normal 0.935648 0.352935 5.31896e-16
  outer loop
    vertex 0.03264569655014341 0.02503197297036848 0.02
    vertex 0.03146541199656528 0.02816096959166453 0.015
    vertex 0.03028512744298714 0.0312899662129606 0.02
  endloop
endfacet
facet normal 0.935648 0.352935 5.31896e-16
  outer loop
    vertex 0.03264569655014341 0.02503197297036848 0.01000000000000003
    vertex 0.03146541199656528 0.02816096959166453 0.005000000000000001
    vertex 0.03028512744298714 0.0312899662129606 0.009999999999999972
  endloop
endfacet
facet normal 0.935648 0.352935 0
  outer loop
    vertex 0.03028512744298714 0.0312899662129606 0.009999999999999972
    vertex 0.03146541199656528 0.02816096959166453 0.005000000000000001
    vertex 0.03028512744298714 0.0312899662129606 0
  endloop
endfacet
facet normal 0.935648 0.352935 0
  outer loop
    vertex 0.03028512744298714 0.0312899662129606 0.02
    vertex 0.03146541199656528 0.02816096959166453 0.015
    vertex 0.03028512744298714 0.0312899662129606 0.009999999999999972
  endloop
endfacet
facet normal 0.935648 0.352935 -0
  outer loop
    vertex 0.03264569655014341 0.02503197297036848 0
    vertex 0.03146541199656528 0.02816096959166453 0.005000000000000001
    vertex 0.03264569655014341 0.02503197297036848 0.01000000000000003
  endloop
endfacet
facet normal 0.935648 0.352935 -0
  outer loop
    vertex 0.03264569655014341 0.02503197297036848 0.01000000000000003
    vertex 0.03146541199656528 0.02816096959166453 0.015
    vertex 0.03264569655014341 0.02503197297036848 0.02
  endloop
endfacet
facet normal 0.439722 -0.898134 -1.88895e-16
  outer loop
    vertex 0.03264569655014341 0.02503197297036848 0
    vertex 0.02612427148187696 0.02183911927516841 0.007561941038857098
    vertex 0.02625469998324229 0.02190297634907241 0
  endloop
endfacet
facet normal 0.439722 -0.898134 -1.94798e-16
  outer loop
    vertex 0.02625469998324229 0.02190297634907241 0
    vertex 0.02612427148187696 0.02183911927516841 0.007561941038857098
    vertex 0.01986370341634117 0.01877397972777636 0
  endloop
endfacet
facet normal 0.439722 -0.898134 0
  outer loop
    vertex 0.01986370341634117 0.01877397972777636 0
    vertex 0.02612427148187696 0.02183911927516841 0.007561941038857098
    vertex 0.01986370341634117 0.01877397972777636 0.01000000000000003
  endloop
endfacet
facet normal 0.439722 -0.898134 0
  outer loop
    vertex 0.03264569655014341 0.02503197297036848 0.009999999999999972
    vertex 0.02612427148187696 0.02183911927516841 0.007561941038857098
    vertex 0.03264569655014341 0.02503197297036848 0
  endloop
endfacet
facet normal 0.439722 -0.898134 0
  outer loop
    vertex 0.03264569655014341 0.02503197297036848 0.02
    vertex 0.02817199895331263 0.02284167533546123 0.01474046814538663
    vertex 0.03264569655014341 0.02503197297036848 0.009999999999999972
  endloop
endfacet
facet normal 0.439722 -0.898134 0
  outer loop
    vertex 0.01986370341634117 0.01877397972777636 0.01000000000000003
    vertex 0.02356760667450148 0.020587390306091 0.01472473563104529
    vertex 0.01986370341634117 0.01877397972777636 0.02
  endloop
endfacet
facet normal 0.439722 -0.898134 1.13161e-16
  outer loop
    vertex 0.02625469998324229 0.02190297634907242 0.02
    vertex 0.02817199895331263 0.02284167533546123 0.01474046814538663
    vertex 0.03264569655014341 0.02503197297036848 0.02
  endloop
endfacet
facet normal 0.439722 -0.898134 1.35388e-16
  outer loop
    vertex 0.01986370341634117 0.01877397972777636 0.02
    vertex 0.02356760667450148 0.020587390306091 0.01472473563104529
    vertex 0.02625469998324229 0.02190297634907242 0.02
  endloop
endfacet
facet normal 0.439722 -0.898134 1.72562e-16
  outer loop
    vertex 0.02625469998324229 0.02190297634907242 0.02
    vertex 0.02356760667450148 0.020587390306091 0.01472473563104529
    vertex 0.02817199895331263 0.02284167533546123 0.01474046814538663
  endloop
endfacet
facet normal 0.439722 -0.898134 9.21547e-17
  outer loop
    vertex 0.02817199895331263 0.02284167533546123 0.01474046814538663
    vertex 0.02356760667450148 0.020587390306091 0.01472473563104529
    vertex 0.02612427148187696 0.02183911927516841 0.007561941038857098
  endloop
endfacet
facet normal 0.439722 -0.898134 3.9407e-17
  outer loop
    vertex 0.02612427148187696 0.02183911927516841 0.007561941038857098
    vertex 0.02356760667450148 0.020587390306091 0.01472473563104529
    vertex 0.01986370341634117 0.01877397972777636 0.01000000000000003
  endloop
endfacet
facet normal 0.439722 -0.898134 5.45708e-17
  outer loop
    vertex 0.02817199895331263 0.02284167533546123 0.01474046814538663
    vertex 0.02612427148187696 0.02183911927516841 0.007561941038857098
    vertex 0.03264569655014341 0.02503197297036848 0.009999999999999972
  endloop
endfacet
facet normal 0.363615 0.931549 -1.54801e-16
  outer loop
    vertex 0.03589611170965082 0.01251598648518424 0.02
    vertex 0.02912001397742481 0.01516092747244126 0.0123696471383584
    vertex 0.02787990756299599 0.0156449831064803 0.02
  endloop
endfacet
facet normal 0.363615 0.931549 -0
  outer loop
    vertex 0.03589611170965082 0.01251598648518424 0.01000000000000003
    vertex 0.02912001397742481 0.01516092747244126 0.0123696471383584
    vertex 0.03589611170965082 0.01251598648518424 0.02
  endloop
endfacet
facet normal 0.363615 0.931549 0
  outer loop
    vertex 0.01986370341634117 0.01877397972777636 0.02
    vertex 0.0240129499861433 0.01715438792842667 0.01501383825645342
    vertex 0.01986370341634117 0.01877397972777636 0.009999999999999972
  endloop
endfacet
facet normal 0.363615 0.931549 0
  outer loop
    vertex 0.01986370341634117 0.01877397972777636 0.009999999999999972
    vertex 0.02534280256352633 0.01663530132018581 0.006358842042652411
    vertex 0.01986370341634117 0.01877397972777636 0
  endloop
endfacet
facet normal 0.363615 0.931549 -0
  outer loop
    vertex 0.03589611170965082 0.01251598648518424 0
    vertex 0.03076909083249976 0.0145172367912427 0.00570689378047281
    vertex 0.03589611170965082 0.01251598648518424 0.01000000000000003
  endloop
endfacet
facet normal 0.363615 0.931549 0
  outer loop
    vertex 0.01986370341634117 0.01877397972777636 0
    vertex 0.02534280256352633 0.01663530132018581 0.006358842042652411
    vertex 0.027879907562996 0.01564498310648029 0
  endloop
endfacet
facet normal 0.363615 0.931549 -6.78793e-17
  outer loop
    vertex 0.02534280256352633 0.01663530132018581 0.006358842042652411
    vertex 0.0240129499861433 0.01715438792842667 0.01501383825645342
    vertex 0.02912001397742481 0.01516092747244126 0.0123696471383584
  endloop
endfacet
facet normal 0.363615 0.931549 -7.41254e-17
  outer loop
    vertex 0.01986370341634117 0.01877397972777636 0.009999999999999972
    vertex 0.0240129499861433 0.01715438792842667 0.01501383825645342
    vertex 0.02534280256352633 0.01663530132018581 0.006358842042652411
  endloop
endfacet
facet normal 0.363615 0.931549 0
  outer loop
    vertex 0.02787990756299599 0.0156449831064803 0.02
    vertex 0.0240129499861433 0.01715438792842667 0.01501383825645342
    vertex 0.01986370341634117 0.01877397972777636 0.02
  endloop
endfacet
facet normal 0.363615 0.931549 -1.7248e-16
  outer loop
    vertex 0.027879907562996 0.01564498310648029 0
    vertex 0.03076909083249976 0.0145172367912427 0.00570689378047281
    vertex 0.03589611170965082 0.01251598648518424 0
  endloop
endfacet
facet normal 0.363615 0.931549 1.23715e-16
  outer loop
    vertex 0.03076909083249976 0.0145172367912427 0.00570689378047281
    vertex 0.02534280256352633 0.01663530132018581 0.006358842042652411
    vertex 0.02912001397742481 0.01516092747244126 0.0123696471383584
  endloop
endfacet
facet normal 0.363615 0.931549 1.435e-16
  outer loop
    vertex 0.03076909083249976 0.0145172367912427 0.00570689378047281
    vertex 0.02912001397742481 0.01516092747244126 0.0123696471383584
    vertex 0.03589611170965082 0.01251598648518424 0.01000000000000003
  endloop
endfacet
facet normal 0.363615 0.931549 -1.10544e-16
  outer loop
    vertex 0.02912001397742481 0.01516092747244126 0.0123696471383584
    vertex 0.0240129499861433 0.01715438792842667 0.01501383825645342
    vertex 0.02787990756299599 0.0156449831064803 0.02
  endloop
endfacet
facet normal 0.363615 0.931549 -1.68135e-16
  outer loop
    vertex 0.027879907562996 0.01564498310648029 0
    vertex 0.02534280256352633 0.01663530132018581 0.006358842042652411
    vertex 0.03076909083249976 0.0145172367912427 0.00570689378047281
  endloop
endfacet
facet normal 0.803819 0.594873 0
  outer loop
    vertex 0.03589611170965082 0.01251598648518424 0.02
    vertex 0.03821175173401501 0.009386989863888178 0.015
    vertex 0.03589611170965082 0.01251598648518424 0.009999999999999972
  endloop
endfacet
facet normal 0.803819 0.594873 -0
  outer loop
    vertex 0.0405273917583792 0.006257993242592116 0
    vertex 0.03821175173401501 0.009386989863888178 0.005
    vertex 0.0405273917583792 0.006257993242592116 0.01000000000000003
  endloop
endfacet
facet normal 0.803819 0.594873 0
  outer loop
    vertex 0.03589611170965082 0.01251598648518424 0.009999999999999972
    vertex 0.03821175173401501 0.009386989863888178 0.005
    vertex 0.03589611170965082 0.01251598648518424 0
  endloop
endfacet
facet normal 0.803819 0.594873 -0
  outer loop
    vertex 0.0405273917583792 0.006257993242592116 0.01000000000000003
    vertex 0.03821175173401501 0.009386989863888178 0.015
    vertex 0.0405273917583792 0.006257993242592116 0.02
  endloop
endfacet
facet normal 0.803819 0.594873 0
  outer loop
    vertex 0.0405273917583792 0.006257993242592116 0.01000000000000003
    vertex 0.03821175173401501 0.009386989863888178 0.005
    vertex 0.03589611170965082 0.01251598648518424 0.009999999999999972
  endloop
endfacet
facet normal 0.803819 0.594873 0
  outer loop
    vertex 0.03589611170965082 0.01251598648518424 0.009999999999999972
    vertex 0.03821175173401501 0.009386989863888178 0.015
    vertex 0.0405273917583792 0.006257993242592116 0.01000000000000003
  endloop
endfacet
facet normal 0.803819 0.594873 0
  outer loop
    vertex 0.03589611170965082 0.01251598648518424 0
    vertex 0.03821175173401501 0.009386989863888178 0.005
    vertex 0.0405273917583792 0.006257993242592116 0
  endloop
endfacet
facet normal 0.803819 0.594873 0
  outer loop
    vertex 0.0405273917583792 0.006257993242592116 0.02
    vertex 0.03821175173401501 0.009386989863888178 0.015
    vertex 0.03589611170965082 0.01251598648518424 0.02
  endloop
endfacet
endsolid Created by Gmsh
