solid Created by Gmsh
facet normal -0.463943 -0.885865 -1.8198e-15
  outer loop
    vertex 0.03786486815017943 0.05458898182546673 0
    vertex 0.0448137869178945 0.05094971637043561 0
    vertex 0.03775675488395217 0.05464560255858558 0.007980853436343921
  endloop
endfacet
facet normal -0.463943 -0.885865 -1.8401e-15
  outer loop
    vertex 0.03091594938246435 0.05822824728049784 0
    vertex 0.03786486815017943 0.05458898182546673 0
    vertex 0.03775675488395217 0.05464560255858558 0.007980853436343921
  endloop
endfacet
facet normal -0.463943 -0.885865 0
  outer loop
    vertex 0.0448137869178945 0.05094971637043561 0
    vertex 0.0448137869178945 0.05094971637043561 0.01000000000000003
    vertex 0.03775675488395217 0.05464560255858558 0.007980853436343921
  endloop
endfacet
facet normal -0.463943 -0.885865 -0
  outer loop
    vertex 0.03091594938246435 0.05822824728049784 0.009999999999999972
    vertex 0.03091594938246435 0.05822824728049784 0
    vertex 0.03775675488395217 0.05464560255858558 0.007980853436343921
  endloop
endfacet
facet normal -0.463943 -0.885865 -0
  outer loop
    vertex 0.03091594938246435 0.05822824728049784 0.02
    vertex 0.03091594938246435 0.05822824728049784 0.009999999999999972
    vertex 0.03551490120864025 0.05581969897682302 0.01438896007419255
  endloop
endfacet
facet normal -0.463943 -0.885865 0
  outer loop
    vertex 0.0448137869178945 0.05094971637043561 0.01000000000000003
    vertex 0.0448137869178945 0.05094971637043561 0.02
    vertex 0.04015281961571217 0.0533907432203493 0.0144739627021073
  endloop
endfacet
facet normal -0.463943 -0.885865 2.81384e-15
  outer loop
    vertex 0.0448137869178945 0.05094971637043561 0.02
    vertex 0.03786486815017943 0.05458898182546672 0.02
    vertex 0.04015281961571217 0.0533907432203493 0.0144739627021073
  endloop
endfacet
facet normal -0.463943 -0.885865 2.42481e-15
  outer loop
    vertex 0.03786486815017943 0.05458898182546672 0.02
    vertex 0.03091594938246435 0.05822824728049784 0.02
    vertex 0.03551490120864025 0.05581969897682302 0.01438896007419255
  endloop
endfacet
facet normal -0.463943 -0.885865 -9.92587e-16
  outer loop
    vertex 0.03551490120864025 0.05581969897682302 0.01438896007419255
    vertex 0.03091594938246435 0.05822824728049784 0.009999999999999972
    vertex 0.03775675488395217 0.05464560255858558 0.007980853436343921
  endloop
endfacet
facet normal -0.463943 -0.885865 -4.01383e-16
  outer loop
    vertex 0.03551490120864025 0.05581969897682302 0.01438896007419255
    vertex 0.03775675488395217 0.05464560255858558 0.007980853436343921
    vertex 0.04015281961571217 0.0533907432203493 0.0144739627021073
  endloop
endfacet
facet normal -0.463943 -0.885865 -1.31821e-15
  outer loop
    vertex 0.03775675488395217 0.05464560255858558 0.007980853436343921
    vertex 0.0448137869178945 0.05094971637043561 0.01000000000000003
    vertex 0.04015281961571217 0.0533907432203493 0.0144739627021073
  endloop
endfacet
facet normal -0.463943 -0.885865 2.557e-15
  outer loop
    vertex 0.03786486815017943 0.05458898182546672 0.02
    vertex 0.03551490120864025 0.05581969897682302 0.01438896007419255
    vertex 0.04015281961571217 0.0533907432203493 0.0144739627021073
  endloop
endfacet
facet normal -0.349267 0.937023 0
  outer loop
    vertex 0.0448137869178945 0.05094971637043561 0.02
    vertex 0.0448137869178945 0.05094971637043561 0.009999999999999972
    vertex 0.03739479212895828 0.04818435574069418 0.01217859344132423
  endloop
endfacet
facet normal -0.349267 0.937023 5.82032e-16
  outer loop
    vertex 0.03505025330999904 0.0473104509154045 0.02
    vertex 0.0448137869178945 0.05094971637043561 0.02
    vertex 0.03739479212895828 0.04818435574069418 0.01217859344132423
  endloop
endfacet
facet normal -0.349267 0.937023 -4.40259e-16
  outer loop
    vertex 0.03505025330999904 0.04731045091540449 0
    vertex 0.02528671970210357 0.04367118546037338 0
    vertex 0.03208529144050764 0.04620528922492814 0.007385759784267156
  endloop
endfacet
facet normal -0.349267 0.937023 0
  outer loop
    vertex 0.02528671970210357 0.04367118546037338 0
    vertex 0.02528671970210357 0.04367118546037338 0.01000000000000003
    vertex 0.03208529144050764 0.04620528922492814 0.007385759784267156
  endloop
endfacet
facet normal -0.349267 0.937023 -9.10462e-16
  outer loop
    vertex 0.0448137869178945 0.05094971637043561 0
    vertex 0.03505025330999904 0.04731045091540449 0
    vertex 0.03993202011394677 0.04913008364292006 0.004999999999999986
  endloop
endfacet
facet normal -0.349267 0.937023 5.43848e-17
  outer loop
    vertex 0.02528671970210357 0.04367118546037338 0.02
    vertex 0.03505025330999904 0.0473104509154045 0.02
    vertex 0.03097177835838543 0.04579023768147715 0.014021028182674
  endloop
endfacet
facet normal -0.349267 0.937023 0
  outer loop
    vertex 0.0448137869178945 0.05094971637043561 0.009999999999999972
    vertex 0.0448137869178945 0.05094971637043561 0
    vertex 0.03993202011394677 0.04913008364292006 0.004999999999999986
  endloop
endfacet
facet normal -0.349267 0.937023 0
  outer loop
    vertex 0.02528671970210357 0.04367118546037338 0.01000000000000003
    vertex 0.02528671970210357 0.04367118546037338 0.02
    vertex 0.03097177835838543 0.04579023768147715 0.014021028182674
  endloop
endfacet
facet normal -0.349267 0.937023 -7.1756e-16
  outer loop
    vertex 0.03505025330999904 0.04731045091540449 0
    vertex 0.03208529144050764 0.04620528922492814 0.007385759784267156
    vertex 0.03993202011394677 0.04913008364292006 0.004999999999999986
  endloop
endfacet
facet normal -0.349267 0.937023 -4.42033e-16
  outer loop
    vertex 0.03208529144050764 0.04620528922492814 0.007385759784267156
    vertex 0.03739479212895828 0.04818435574069418 0.01217859344132423
    vertex 0.03993202011394677 0.04913008364292006 0.004999999999999986
  endloop
endfacet
facet normal -0.349267 0.937023 3.45704e-16
  outer loop
    vertex 0.03097177835838543 0.04579023768147715 0.014021028182674
    vertex 0.03505025330999904 0.0473104509154045 0.02
    vertex 0.03739479212895828 0.04818435574069418 0.01217859344132423
  endloop
endfacet
facet normal -0.349267 0.937023 -8.31431e-17
  outer loop
    vertex 0.03739479212895828 0.04818435574069418 0.01217859344132423
    vertex 0.0448137869178945 0.05094971637043561 0.009999999999999972
    vertex 0.03993202011394677 0.04913008364292006 0.004999999999999986
  endloop
endfacet
facet normal -0.349267 0.937023 -1.07607e-16
  outer loop
    vertex 0.03097177835838543 0.04579023768147715 0.014021028182674
    vertex 0.03739479212895828 0.04818435574069418 0.01217859344132423
    vertex 0.03208529144050764 0.04620528922492814 0.007385759784267156
  endloop
endfacet
facet normal -0.349267 0.937023 0
  outer loop
    vertex 0.02528671970210357 0.04367118546037338 0.01000000000000003
    vertex 0.03097177835838543 0.04579023768147715 0.014021028182674
    vertex 0.03208529144050764 0.04620528922492814 0.007385759784267156
  endloop
endfacet
facet normal -0.695302 -0.718718 -2.58929e-16
  outer loop
    vertex 0.02528671970210357 0.04367118546037338 0
    vertex 0.03281037221417905 0.03639265455031115 0
    vertex 0.02904854595814131 0.04003192000534227 0.004999999999999986
  endloop
endfacet
facet normal -0.695302 -0.718718 -3.23661e-16
  outer loop
    vertex 0.03281037221417905 0.03639265455031115 0.02
    vertex 0.02528671970210357 0.04367118546037338 0.02
    vertex 0.02904854595814129 0.04003192000534229 0.01499999999999999
  endloop
endfacet
facet normal -0.695302 -0.718718 -0
  outer loop
    vertex 0.02528671970210357 0.04367118546037338 0.02
    vertex 0.02528671970210357 0.04367118546037338 0.009999999999999972
    vertex 0.02904854595814129 0.04003192000534229 0.01499999999999999
  endloop
endfacet
facet normal -0.695302 -0.718718 0
  outer loop
    vertex 0.03281037221417905 0.03639265455031115 0
    vertex 0.03281037221417905 0.03639265455031115 0.01000000000000003
    vertex 0.02904854595814131 0.04003192000534227 0.004999999999999986
  endloop
endfacet
facet normal -0.695302 -0.718718 2.89975e-16
  outer loop
    vertex 0.02904854595814131 0.04003192000534227 0.004999999999999986
    vertex 0.03281037221417905 0.03639265455031115 0.01000000000000003
    vertex 0.02904854595814129 0.04003192000534229 0.01499999999999999
  endloop
endfacet
facet normal -0.695302 -0.718718 2.91295e-16
  outer loop
    vertex 0.02528671970210357 0.04367118546037338 0.009999999999999972
    vertex 0.02904854595814131 0.04003192000534227 0.004999999999999986
    vertex 0.02904854595814129 0.04003192000534229 0.01499999999999999
  endloop
endfacet
facet normal -0.695302 -0.718718 0
  outer loop
    vertex 0.03281037221417905 0.03639265455031115 0.01000000000000003
    vertex 0.03281037221417905 0.03639265455031115 0.02
    vertex 0.02904854595814129 0.04003192000534229 0.01499999999999999
  endloop
endfacet
facet normal -0.695302 -0.718718 -0
  outer loop
    vertex 0.02528671970210357 0.04367118546037338 0.009999999999999972
    vertex 0.02528671970210357 0.04367118546037338 0
    vertex 0.02904854595814131 0.04003192000534227 0.004999999999999986
  endloop
endfacet
facet normal -0.927201 -0.374565 0
  outer loop
    vertex 0.03575071152450983 0.02911412364024892 0
    vertex 0.03575071152450983 0.02911412364024892 0.01000000000000003
    vertex 0.03428054186934443 0.03275338909528003 0.004999999999999999
  endloop
endfacet
facet normal -0.927201 -0.374565 -0
  outer loop
    vertex 0.03281037221417905 0.03639265455031115 0.02
    vertex 0.03281037221417905 0.03639265455031115 0.009999999999999972
    vertex 0.03428054186934443 0.03275338909528003 0.015
  endloop
endfacet
facet normal -0.927201 -0.374565 0
  outer loop
    vertex 0.03575071152450983 0.02911412364024892 0.01000000000000003
    vertex 0.03575071152450983 0.02911412364024892 0.02
    vertex 0.03428054186934443 0.03275338909528003 0.015
  endloop
endfacet
facet normal -0.927201 -0.374565 -0
  outer loop
    vertex 0.03281037221417905 0.03639265455031115 0.009999999999999972
    vertex 0.03281037221417905 0.03639265455031115 0
    vertex 0.03428054186934443 0.03275338909528003 0.004999999999999999
  endloop
endfacet
facet normal -0.927201 -0.374565 -2.2012e-15
  outer loop
    vertex 0.03281037221417905 0.03639265455031115 0
    vertex 0.03575071152450983 0.02911412364024892 0
    vertex 0.03428054186934443 0.03275338909528003 0.004999999999999999
  endloop
endfacet
facet normal -0.927201 -0.374565 -2.71914e-15
  outer loop
    vertex 0.03281037221417905 0.03639265455031115 0.009999999999999972
    vertex 0.03575071152450983 0.02911412364024892 0.01000000000000003
    vertex 0.03428054186934443 0.03275338909528003 0.015
  endloop
endfacet
facet normal -0.927201 -0.374565 2.2012e-15
  outer loop
    vertex 0.03575071152450983 0.02911412364024892 0.01000000000000003
    vertex 0.03281037221417905 0.03639265455031115 0.009999999999999972
    vertex 0.03428054186934443 0.03275338909528003 0.004999999999999999
  endloop
endfacet
facet normal -0.927201 -0.374565 2.71914e-15
  outer loop
    vertex 0.03575071152450983 0.02911412364024892 0.02
    vertex 0.03281037221417905 0.03639265455031115 0.02
    vertex 0.03428054186934443 0.03275338909528003 0.015
  endloop
endfacet
facet normal -0.839707 -0.54304 -0
  outer loop
    vertex 0.03575071152450983 0.02911412364024892 0.02
    vertex 0.03575071152450983 0.02911412364024892 0.009999999999999972
    vertex 0.03810423283584004 0.0254748581852178 0.015
  endloop
endfacet
facet normal -0.839707 -0.54304 0
  outer loop
    vertex 0.04045775414717027 0.02183559273018669 0
    vertex 0.04045775414717027 0.02183559273018669 0.01000000000000003
    vertex 0.03810423283584004 0.0254748581852178 0.005
  endloop
endfacet
facet normal -0.839707 -0.54304 -0
  outer loop
    vertex 0.03575071152450983 0.02911412364024892 0.009999999999999972
    vertex 0.03575071152450983 0.02911412364024892 0
    vertex 0.03810423283584004 0.0254748581852178 0.005
  endloop
endfacet
facet normal -0.839707 -0.54304 0
  outer loop
    vertex 0.04045775414717027 0.02183559273018669 0.01000000000000003
    vertex 0.04045775414717027 0.02183559273018669 0.02
    vertex 0.03810423283584004 0.0254748581852178 0.015
  endloop
endfacet
facet normal -0.839707 -0.54304 1.56352e-15
  outer loop
    vertex 0.04045775414717027 0.02183559273018669 0.01000000000000003
    vertex 0.03575071152450983 0.02911412364024892 0.009999999999999972
    vertex 0.03810423283584004 0.0254748581852178 0.005
  endloop
endfacet
facet normal -0.839707 -0.54304 -1.56352e-15
  outer loop
    vertex 0.03575071152450983 0.02911412364024892 0.009999999999999972
    vertex 0.04045775414717027 0.02183559273018669 0.01000000000000003
    vertex 0.03810423283584004 0.0254748581852178 0.015
  endloop
endfacet
facet normal -0.839707 -0.54304 -1.56352e-15
  outer loop
    vertex 0.03575071152450983 0.02911412364024892 0
    vertex 0.04045775414717027 0.02183559273018669 0
    vertex 0.03810423283584004 0.0254748581852178 0.005
  endloop
endfacet
facet normal -0.839707 -0.54304 1.56352e-15
  outer loop
    vertex 0.04045775414717027 0.02183559273018669 0.02
    vertex 0.03575071152450983 0.02911412364024892 0.02
    vertex 0.03810423283584004 0.0254748581852178 0.015
  endloop
endfacet
facet normal -0.544658 0.838658 0
  outer loop
    vertex 0.04045775414717027 0.02183559273018669 0.02
    vertex 0.04045775414717027 0.02183559273018669 0.009999999999999972
    vertex 0.03653516860498134 0.01928810691166491 0.015
  endloop
endfacet
facet normal -0.544658 0.838658 0
  outer loop
    vertex 0.02925036688377331 0.01455706182012446 0
    vertex 0.02925036688377331 0.01455706182012446 0.01000000000000003
    vertex 0.03317295242596225 0.01710454763864624 0.005
  endloop
endfacet
facet normal -0.544658 0.838658 0
  outer loop
    vertex 0.04045775414717027 0.02183559273018669 0.009999999999999972
    vertex 0.04045775414717027 0.02183559273018669 0
    vertex 0.03675931635024928 0.01943367752986615 0.004999999999999992
  endloop
endfacet
facet normal -0.544658 0.838658 0
  outer loop
    vertex 0.02925036688377331 0.01455706182012446 0.01000000000000003
    vertex 0.02925036688377331 0.01455706182012446 0.02
    vertex 0.03294880468069431 0.016958977020445 0.015
  endloop
endfacet
facet normal -0.544658 0.838658 9.12732e-16
  outer loop
    vertex 0.03485406051547179 0.01819632727515558 0
    vertex 0.02925036688377331 0.01455706182012446 0
    vertex 0.03317295242596225 0.01710454763864624 0.005
  endloop
endfacet
facet normal -0.544658 0.838658 -1.06485e-15
  outer loop
    vertex 0.03485406051547179 0.01819632727515558 0.02
    vertex 0.04045775414717027 0.02183559273018669 0.02
    vertex 0.03653516860498134 0.01928810691166491 0.015
  endloop
endfacet
facet normal -0.544658 0.838658 -4.56366e-16
  outer loop
    vertex 0.02925036688377331 0.01455706182012446 0.02
    vertex 0.03485406051547179 0.01819632727515558 0.02
    vertex 0.03294880468069431 0.016958977020445 0.015
  endloop
endfacet
facet normal -0.544658 0.838658 9.12732e-16
  outer loop
    vertex 0.04045775414717027 0.02183559273018669 0
    vertex 0.03485406051547179 0.01819632727515558 0
    vertex 0.03675931635024928 0.01943367752986615 0.004999999999999992
  endloop
endfacet
facet normal -0.544658 0.838658 -8.31917e-16
  outer loop
    vertex 0.03485406051547179 0.01819632727515558 0.02
    vertex 0.03653516860498134 0.01928810691166491 0.015
    vertex 0.03294880468069431 0.016958977020445 0.015
  endloop
endfacet
facet normal -0.544658 0.838658 9.7057e-16
  outer loop
    vertex 0.03485406051547179 0.01819632727515558 0
    vertex 0.03317295242596225 0.01710454763864624 0.005
    vertex 0.03675931635024928 0.01943367752986615 0.004999999999999992
  endloop
endfacet
facet normal -0.544658 0.838658 7.92302e-17
  outer loop
    vertex 0.03294880468069431 0.016958977020445 0.015
    vertex 0.03653516860498134 0.01928810691166491 0.015
    vertex 0.0348540605154718 0.01819632727515558 0.009999999999999998
  endloop
endfacet
facet normal -0.544658 0.838658 -2.37691e-16
  outer loop
    vertex 0.03675931635024928 0.01943367752986615 0.004999999999999992
    vertex 0.03317295242596225 0.01710454763864624 0.005
    vertex 0.0348540605154718 0.01819632727515558 0.009999999999999998
  endloop
endfacet
facet normal -0.544658 0.838658 -5.07073e-17
  outer loop
    vertex 0.02925036688377331 0.01455706182012446 0.01000000000000003
    vertex 0.03294880468069431 0.016958977020445 0.015
    vertex 0.0348540605154718 0.01819632727515558 0.009999999999999998
  endloop
endfacet
facet normal -0.544658 0.838658 -4.05659e-16
  outer loop
    vertex 0.03317295242596225 0.01710454763864624 0.005
    vertex 0.02925036688377331 0.01455706182012446 0.01000000000000003
    vertex 0.0348540605154718 0.01819632727515558 0.009999999999999998
  endloop
endfacet
facet normal -0.544658 0.838658 -4.05659e-16
  outer loop
    vertex 0.04045775414717027 0.02183559273018669 0.009999999999999972
    vertex 0.03675931635024928 0.01943367752986615 0.004999999999999992
    vertex 0.0348540605154718 0.01819632727515558 0.009999999999999998
  endloop
endfacet
facet normal -0.544658 0.838658 5.32427e-16
  outer loop
    vertex 0.03653516860498134 0.01928810691166491 0.015
    vertex 0.04045775414717027 0.02183559273018669 0.009999999999999972
    vertex 0.0348540605154718 0.01819632727515558 0.009999999999999998
  endloop
endfacet
facet normal -0.897471 0.441074 0
  outer loop
    vertex 0.02925036688377331 0.01455706182012446 0.02
    vertex 0.02925036688377331 0.01455706182012446 0.009999999999999972
    vertex 0.02746180350333315 0.01091779636509335 0.015
  endloop
endfacet
facet normal -0.897471 0.441074 0
  outer loop
    vertex 0.02567324012289299 0.007278530910062232 0
    vertex 0.02567324012289299 0.007278530910062232 0.01000000000000003
    vertex 0.02746180350333315 0.01091779636509335 0.005
  endloop
endfacet
facet normal -0.897471 0.441074 0
  outer loop
    vertex 0.02925036688377331 0.01455706182012446 0.009999999999999972
    vertex 0.02925036688377331 0.01455706182012446 0
    vertex 0.02746180350333315 0.01091779636509335 0.005
  endloop
endfacet
facet normal -0.897471 0.441074 0
  outer loop
    vertex 0.02567324012289299 0.007278530910062232 0.01000000000000003
    vertex 0.02567324012289299 0.007278530910062232 0.02
    vertex 0.02746180350333315 0.01091779636509335 0.015
  endloop
endfacet
facet normal -0.897471 0.441074 2.92439e-16
  outer loop
    vertex 0.02567324012289299 0.007278530910062232 0.01000000000000003
    vertex 0.02925036688377331 0.01455706182012446 0.009999999999999972
    vertex 0.02746180350333315 0.01091779636509335 0.005
  endloop
endfacet
facet normal -0.897471 0.441074 -3.34216e-16
  outer loop
    vertex 0.02925036688377331 0.01455706182012446 0.009999999999999972
    vertex 0.02567324012289299 0.007278530910062232 0.01000000000000003
    vertex 0.02746180350333315 0.01091779636509335 0.015
  endloop
endfacet
facet normal -0.897471 0.441074 -3.34216e-16
  outer loop
    vertex 0.02925036688377331 0.01455706182012446 0
    vertex 0.02567324012289299 0.007278530910062232 0
    vertex 0.02746180350333315 0.01091779636509335 0.005
  endloop
endfacet
facet normal -0.897471 0.441074 2.92439e-16
  outer loop
    vertex 0.02567324012289299 0.007278530910062232 0.02
    vertex 0.02925036688377331 0.01455706182012446 0.02
    vertex 0.02746180350333315 0.01091779636509335 0.015
  endloop
endfacet
endsolid Created by Gmsh
