solid Created by Gmsh
facet normal 1 0 0
  outer loop
    vertex 0.04 0.05780385994065231 0
    vertex 0.04 0.06 0
    vertex 0.04 0.06 0.009999999999999972
  endloop
endfacet
facet normal 1 0 0
  outer loop
    vertex 0.04 0.05780385994065231 0.01000000000000003
    vertex 0.04 0.06 0.02
    vertex 0.04 0.05780385994065231 0.02
  endloop
endfacet
facet normal 1 0 -0
  outer loop
    vertex 0.04 0.06 0.009999999999999972
    vertex 0.04 0.06 0.02
    vertex 0.04 0.05780385994065231 0.01000000000000003
  endloop
endfacet
facet normal 1 0 0
  outer loop
    vertex 0.04 0.05780385994065231 0
    vertex 0.04 0.06 0.009999999999999972
    vertex 0.04 0.05780385994065231 0.01000000000000003
  endloop
endfacet
facet normal 0.621107 0.783726 -3.91852e-16
  outer loop
    vertex 0.04911727255619307 0.05057837744807077 0.02
    vertex 0.04455863627809653 0.05419111869436154 0.01405396560956745
    vertex 0.04 0.05780385994065231 0.02
  endloop
endfacet
facet normal 0.621107 0.783726 4.06707e-16
  outer loop
    vertex 0.04 0.05780385994065231 0
    vertex 0.04455863627809653 0.05419111869436154 0.005728862973760926
    vertex 0.04911727255619307 0.05057837744807077 0
  endloop
endfacet
facet normal 0.621107 0.783726 -0
  outer loop
    vertex 0.04455863627809653 0.05419111869436154 0.005728862973760926
    vertex 0.04455863627809653 0.05419111869436154 0.01405396560956745
    vertex 0.04911727255619307 0.05057837744807077 0.01000000000000003
  endloop
endfacet
facet normal 0.621107 0.783726 0
  outer loop
    vertex 0.04 0.05780385994065231 0.02
    vertex 0.04455863627809653 0.05419111869436154 0.01405396560956745
    vertex 0.04 0.05780385994065231 0.009999999999999972
  endloop
endfacet
facet normal 0.621107 0.783726 -0
  outer loop
    vertex 0.04911727255619307 0.05057837744807077 0
    vertex 0.04455863627809653 0.05419111869436154 0.005728862973760926
    vertex 0.04911727255619307 0.05057837744807077 0.01000000000000003
  endloop
endfacet
facet normal 0.621107 0.783726 0
  outer loop
    vertex 0.04 0.05780385994065231 0.009999999999999972
    vertex 0.04455863627809653 0.05419111869436154 0.01405396560956745
    vertex 0.04455863627809653 0.05419111869436154 0.005728862973760926
  endloop
endfacet
facet normal 0.621107 0.783726 0
  outer loop
    vertex 0.04 0.05780385994065231 0.009999999999999972
    vertex 0.04455863627809653 0.05419111869436154 0.005728862973760926
    vertex 0.04 0.05780385994065231 0
  endloop
endfacet
facet normal 0.621107 0.783726 -0
  outer loop
    vertex 0.04911727255619307 0.05057837744807077 0.01000000000000003
    vertex 0.04455863627809653 0.05419111869436154 0.01405396560956745
    vertex 0.04911727255619307 0.05057837744807077 0.02
  endloop
endfacet
facet normal 0.945587 -0.32537 0
  outer loop
    vertex 0.04663103724504034 0.04335289495548923 0
    vertex 0.0478741549006167 0.04696563620178 0.005000000000000001
    vertex 0.04663103724504034 0.04335289495548923 0.01000000000000003
  endloop
endfacet
facet normal 0.945587 -0.32537 0
  outer loop
    vertex 0.04911727255619307 0.05057837744807077 0.02
    vertex 0.0478741549006167 0.04696563620178 0.015
    vertex 0.04911727255619307 0.05057837744807077 0.009999999999999972
  endloop
endfacet
facet normal 0.945587 -0.32537 0
  outer loop
    vertex 0.04911727255619307 0.05057837744807077 0.009999999999999972
    vertex 0.0478741549006167 0.04696563620178 0.005000000000000001
    vertex 0.04911727255619307 0.05057837744807077 0
  endloop
endfacet
facet normal 0.945587 -0.32537 0
  outer loop
    vertex 0.04663103724504034 0.04335289495548923 0.01000000000000003
    vertex 0.0478741549006167 0.04696563620178 0.015
    vertex 0.04663103724504034 0.04335289495548923 0.02
  endloop
endfacet
facet normal 0.945587 -0.32537 -6.20759e-16
  outer loop
    vertex 0.04663103724504034 0.04335289495548923 0.01000000000000003
    vertex 0.0478741549006167 0.04696563620178 0.005000000000000001
    vertex 0.04911727255619307 0.05057837744807077 0.009999999999999972
  endloop
endfacet
facet normal 0.945587 -0.32537 6.65099e-16
  outer loop
    vertex 0.04911727255619307 0.05057837744807077 0.009999999999999972
    vertex 0.0478741549006167 0.04696563620178 0.015
    vertex 0.04663103724504034 0.04335289495548923 0.01000000000000003
  endloop
endfacet
facet normal 0.945587 -0.32537 -6.20759e-16
  outer loop
    vertex 0.04663103724504034 0.04335289495548923 0.02
    vertex 0.0478741549006167 0.04696563620178 0.015
    vertex 0.04911727255619307 0.05057837744807077 0.02
  endloop
endfacet
facet normal 0.945587 -0.32537 6.65099e-16
  outer loop
    vertex 0.04911727255619307 0.05057837744807077 0
    vertex 0.0478741549006167 0.04696563620178 0.005000000000000001
    vertex 0.04663103724504034 0.04335289495548923 0
  endloop
endfacet
facet normal 0.830893 0.556432 -0
  outer loop
    vertex 0.05146978970309946 0.03612741246290769 0
    vertex 0.0490504134740699 0.03974015370919846 0.005000000000000001
    vertex 0.05146978970309946 0.03612741246290769 0.01000000000000003
  endloop
endfacet
facet normal 0.830893 0.556432 0
  outer loop
    vertex 0.04663103724504034 0.04335289495548923 0.02
    vertex 0.0490504134740699 0.03974015370919846 0.015
    vertex 0.04663103724504034 0.04335289495548923 0.009999999999999972
  endloop
endfacet
facet normal 0.830893 0.556432 -0
  outer loop
    vertex 0.05146978970309946 0.03612741246290769 0.01000000000000003
    vertex 0.0490504134740699 0.03974015370919846 0.015
    vertex 0.05146978970309946 0.03612741246290769 0.02
  endloop
endfacet
facet normal 0.830893 0.556432 0
  outer loop
    vertex 0.04663103724504034 0.04335289495548923 0.009999999999999972
    vertex 0.0490504134740699 0.03974015370919846 0.005000000000000001
    vertex 0.04663103724504034 0.04335289495548923 0
  endloop
endfacet
facet normal 0.830893 0.556432 9.35083e-16
  outer loop
    vertex 0.05146978970309946 0.03612741246290769 0.01000000000000003
    vertex 0.0490504134740699 0.03974015370919846 0.005000000000000001
    vertex 0.04663103724504034 0.04335289495548923 0.009999999999999972
  endloop
endfacet
facet normal 0.830893 0.556432 9.35083e-16
  outer loop
    vertex 0.05146978970309946 0.03612741246290769 0.02
    vertex 0.0490504134740699 0.03974015370919846 0.015
    vertex 0.04663103724504034 0.04335289495548923 0.02
  endloop
endfacet
facet normal 0.830893 0.556432 -9.35083e-16
  outer loop
    vertex 0.04663103724504034 0.04335289495548923 0.009999999999999972
    vertex 0.0490504134740699 0.03974015370919846 0.015
    vertex 0.05146978970309946 0.03612741246290769 0.01000000000000003
  endloop
endfacet
facet normal 0.830893 0.556432 -9.35083e-16
  outer loop
    vertex 0.04663103724504034 0.04335289495548923 0
    vertex 0.0490504134740699 0.03974015370919846 0.005000000000000001
    vertex 0.05146978970309946 0.03612741246290769 0
  endloop
endfacet
facet normal 0.990176 0.139825 6.84854e-16
  outer loop
    vertex 0.05146978970309946 0.03612741246290769 0
    vertex 0.05197995242445507 0.03251467121661692 0.005000000000000001
    vertex 0.05249011514581069 0.02890192997032615 0
  endloop
endfacet
facet normal 0.990176 0.139825 -6.84854e-16
  outer loop
    vertex 0.05249011514581069 0.02890192997032615 0.02
    vertex 0.05197995242445507 0.03251467121661692 0.015
    vertex 0.05146978970309946 0.03612741246290769 0.02
  endloop
endfacet
facet normal 0.990176 0.139825 -6.84854e-16
  outer loop
    vertex 0.05249011514581069 0.02890192997032615 0.01000000000000003
    vertex 0.05197995242445507 0.03251467121661692 0.005000000000000001
    vertex 0.05146978970309946 0.03612741246290769 0.009999999999999972
  endloop
endfacet
facet normal 0.990176 0.139825 6.84854e-16
  outer loop
    vertex 0.05146978970309946 0.03612741246290769 0.009999999999999972
    vertex 0.05197995242445507 0.03251467121661692 0.015
    vertex 0.05249011514581069 0.02890192997032615 0.01000000000000003
  endloop
endfacet
facet normal 0.990176 0.139825 0
  outer loop
    vertex 0.05146978970309946 0.03612741246290769 0.009999999999999972
    vertex 0.05197995242445507 0.03251467121661692 0.005000000000000001
    vertex 0.05146978970309946 0.03612741246290769 0
  endloop
endfacet
facet normal 0.990176 0.139825 0
  outer loop
    vertex 0.05146978970309946 0.03612741246290769 0.02
    vertex 0.05197995242445507 0.03251467121661692 0.015
    vertex 0.05146978970309946 0.03612741246290769 0.009999999999999972
  endloop
endfacet
facet normal 0.990176 0.139825 -0
  outer loop
    vertex 0.05249011514581069 0.02890192997032615 0
    vertex 0.05197995242445507 0.03251467121661692 0.005000000000000001
    vertex 0.05249011514581069 0.02890192997032615 0.01000000000000003
  endloop
endfacet
facet normal 0.990176 0.139825 -0
  outer loop
    vertex 0.05249011514581069 0.02890192997032615 0.01000000000000003
    vertex 0.05197995242445507 0.03251467121661692 0.015
    vertex 0.05249011514581069 0.02890192997032615 0.02
  endloop
endfacet
facet normal 0.605909 -0.795534 3.77542e-16
  outer loop
    vertex 0.05249011514581069 0.02890192997032615 0
    vertex 0.04774673124350658 0.02528918872403539 0.0060204081632653
    vertex 0.04300334734120247 0.02167644747774462 0
  endloop
endfacet
facet normal 0.605909 -0.795534 -9.60465e-16
  outer loop
    vertex 0.04300334734120247 0.02167644747774462 0.02
    vertex 0.04774673124350658 0.02528918872403539 0.01408371511870055
    vertex 0.05249011514581069 0.02890192997032615 0.02
  endloop
endfacet
facet normal 0.605909 -0.795534 3.42299e-16
  outer loop
    vertex 0.04774673124350658 0.02528918872403539 0.0060204081632653
    vertex 0.04774673124350658 0.02528918872403539 0.01408371511870055
    vertex 0.04300334734120247 0.02167644747774462 0.01000000000000003
  endloop
endfacet
facet normal 0.605909 -0.795534 0
  outer loop
    vertex 0.04300334734120247 0.02167644747774462 0
    vertex 0.04774673124350658 0.02528918872403539 0.0060204081632653
    vertex 0.04300334734120247 0.02167644747774462 0.01000000000000003
  endloop
endfacet
facet normal 0.605909 -0.795534 3.52361e-16
  outer loop
    vertex 0.05249011514581069 0.02890192997032615 0.009999999999999972
    vertex 0.04774673124350658 0.02528918872403539 0.01408371511870055
    vertex 0.04774673124350658 0.02528918872403539 0.0060204081632653
  endloop
endfacet
facet normal 0.605909 -0.795534 0
  outer loop
    vertex 0.05249011514581069 0.02890192997032615 0.02
    vertex 0.04774673124350658 0.02528918872403539 0.01408371511870055
    vertex 0.05249011514581069 0.02890192997032615 0.009999999999999972
  endloop
endfacet
facet normal 0.605909 -0.795534 0
  outer loop
    vertex 0.05249011514581069 0.02890192997032615 0.009999999999999972
    vertex 0.04774673124350658 0.02528918872403539 0.0060204081632653
    vertex 0.05249011514581069 0.02890192997032615 0
  endloop
endfacet
facet normal 0.605909 -0.795534 0
  outer loop
    vertex 0.04300334734120247 0.02167644747774462 0.01000000000000003
    vertex 0.04774673124350658 0.02528918872403539 0.01408371511870055
    vertex 0.04300334734120247 0.02167644747774462 0.02
  endloop
endfacet
facet normal 0.983488 0.180974 2.16751e-15
  outer loop
    vertex 0.04433292425488687 0.01445096498516307 0.01000000000000003
    vertex 0.04366813579804468 0.01806370623145385 0.005000000000000001
    vertex 0.04300334734120247 0.02167644747774462 0.009999999999999972
  endloop
endfacet
facet normal 0.983488 0.180974 -2.16751e-15
  outer loop
    vertex 0.04300334734120247 0.02167644747774462 0.009999999999999972
    vertex 0.04366813579804468 0.01806370623145385 0.015
    vertex 0.04433292425488687 0.01445096498516307 0.01000000000000003
  endloop
endfacet
facet normal 0.983488 0.180974 2.16751e-15
  outer loop
    vertex 0.04433292425488687 0.01445096498516307 0.02
    vertex 0.04366813579804468 0.01806370623145385 0.015
    vertex 0.04300334734120247 0.02167644747774462 0.02
  endloop
endfacet
facet normal 0.983488 0.180974 -2.16751e-15
  outer loop
    vertex 0.04300334734120247 0.02167644747774462 0
    vertex 0.04366813579804468 0.01806370623145385 0.005000000000000001
    vertex 0.04433292425488687 0.01445096498516307 0
  endloop
endfacet
facet normal 0.983488 0.180974 0
  outer loop
    vertex 0.04300334734120247 0.02167644747774462 0.009999999999999972
    vertex 0.04366813579804468 0.01806370623145385 0.005000000000000001
    vertex 0.04300334734120247 0.02167644747774462 0
  endloop
endfacet
facet normal 0.983488 0.180974 0
  outer loop
    vertex 0.04300334734120247 0.02167644747774462 0.02
    vertex 0.04366813579804468 0.01806370623145385 0.015
    vertex 0.04300334734120247 0.02167644747774462 0.009999999999999972
  endloop
endfacet
facet normal 0.983488 0.180974 -0
  outer loop
    vertex 0.04433292425488687 0.01445096498516307 0
    vertex 0.04366813579804468 0.01806370623145385 0.005000000000000001
    vertex 0.04433292425488687 0.01445096498516307 0.01000000000000003
  endloop
endfacet
facet normal 0.983488 0.180974 -0
  outer loop
    vertex 0.04433292425488687 0.01445096498516307 0.01000000000000003
    vertex 0.04366813579804468 0.01806370623145385 0.015
    vertex 0.04433292425488687 0.01445096498516307 0.02
  endloop
endfacet
facet normal 0.971571 -0.236748 0
  outer loop
    vertex 0.04257225264219217 0.007225482492581536 0
    vertex 0.04345258844853952 0.0108382237388723 0.005
    vertex 0.04257225264219217 0.007225482492581536 0.01000000000000003
  endloop
endfacet
facet normal 0.971571 -0.236748 0
  outer loop
    vertex 0.04433292425488687 0.01445096498516307 0.02
    vertex 0.04345258844853952 0.0108382237388723 0.015
    vertex 0.04433292425488687 0.01445096498516307 0.009999999999999972
  endloop
endfacet
facet normal 0.971571 -0.236748 0
  outer loop
    vertex 0.04257225264219217 0.007225482492581536 0.01000000000000003
    vertex 0.04345258844853952 0.0108382237388723 0.015
    vertex 0.04257225264219217 0.007225482492581536 0.02
  endloop
endfacet
facet normal 0.971571 -0.236748 0
  outer loop
    vertex 0.04433292425488687 0.01445096498516307 0.009999999999999972
    vertex 0.04345258844853952 0.0108382237388723 0.005
    vertex 0.04433292425488687 0.01445096498516307 0
  endloop
endfacet
facet normal 0.971571 -0.236748 0
  outer loop
    vertex 0.04433292425488687 0.01445096498516307 0
    vertex 0.04345258844853952 0.0108382237388723 0.005
    vertex 0.04257225264219217 0.007225482492581536 0
  endloop
endfacet
facet normal 0.971571 -0.236748 0
  outer loop
    vertex 0.04433292425488687 0.01445096498516307 0.009999999999999972
    vertex 0.04345258844853952 0.0108382237388723 0.015
    vertex 0.04257225264219217 0.007225482492581536 0.01000000000000003
  endloop
endfacet
facet normal 0.971571 -0.236748 0
  outer loop
    vertex 0.04257225264219217 0.007225482492581536 0.02
    vertex 0.04345258844853952 0.0108382237388723 0.015
    vertex 0.04433292425488687 0.01445096498516307 0.02
  endloop
endfacet
facet normal 0.971571 -0.236748 0
  outer loop
    vertex 0.04257225264219217 0.007225482492581536 0.01000000000000003
    vertex 0.04345258844853952 0.0108382237388723 0.005
    vertex 0.04433292425488687 0.01445096498516307 0.009999999999999972
  endloop
endfacet
endsolid Created by Gmsh
