solid Created by Gmsh
facet normal 1 -1.9091e-29 -1.38778e-15
  outer loop
    vertex 0.04 0.0559647380999071 0.01000000000000003
    vertex 0.03999999999999999 0.05798236904995355 0.005000000000000001
    vertex 0.04 0.06 0.009999999999999972
  endloop
endfacet
facet normal 1 1.9091e-29 1.38778e-15
  outer loop
    vertex 0.04 0.06 0.009999999999999972
    vertex 0.03999999999999999 0.05798236904995355 0.015
    vertex 0.04 0.0559647380999071 0.01000000000000003
  endloop
endfacet
facet normal 1 0 -1.38778e-15
  outer loop
    vertex 0.04 0.0559647380999071 0.02
    vertex 0.03999999999999999 0.05798236904995355 0.015
    vertex 0.04 0.06 0.02
  endloop
endfacet
facet normal 1 0 1.38778e-15
  outer loop
    vertex 0.04 0.06 0
    vertex 0.03999999999999999 0.05798236904995355 0.005000000000000001
    vertex 0.04 0.0559647380999071 0
  endloop
endfacet
facet normal 1 -3.43913e-15 0
  outer loop
    vertex 0.04 0.06 0.009999999999999972
    vertex 0.03999999999999999 0.05798236904995355 0.005000000000000001
    vertex 0.04 0.06 0
  endloop
endfacet
facet normal 1 -3.43913e-15 0
  outer loop
    vertex 0.04 0.06 0.02
    vertex 0.03999999999999999 0.05798236904995355 0.015
    vertex 0.04 0.06 0.009999999999999972
  endloop
endfacet
facet normal 1 3.43913e-15 -0
  outer loop
    vertex 0.04 0.0559647380999071 0
    vertex 0.03999999999999999 0.05798236904995355 0.005000000000000001
    vertex 0.04 0.0559647380999071 0.01000000000000003
  endloop
endfacet
facet normal 1 3.43913e-15 -0
  outer loop
    vertex 0.04 0.0559647380999071 0.01000000000000003
    vertex 0.03999999999999999 0.05798236904995355 0.015
    vertex 0.04 0.0559647380999071 0.02
  endloop
endfacet
facet normal 0.315849 -0.948809 6.82229e-16
  outer loop
    vertex 0.02949264393551701 0.0524669419686629 0.02
    vertex 0.03284448849089384 0.0535827382590312 0.009909845203719406
    vertex 0.04 0.0559647380999071 0.02
  endloop
endfacet
facet normal 0.315849 -0.948809 0
  outer loop
    vertex 0.04 0.0559647380999071 0.009999999999999972
    vertex 0.03284448849089384 0.0535827382590312 0.009909845203719406
    vertex 0.04 0.0559647380999071 0
  endloop
endfacet
facet normal 0.315849 -0.948809 -4.01349e-16
  outer loop
    vertex 0.04 0.0559647380999071 0
    vertex 0.03284448849089384 0.0535827382590312 0.009909845203719406
    vertex 0.02949264393551707 0.05246694196866292 0
  endloop
endfacet
facet normal 0.315849 -0.948809 1.03733e-15
  outer loop
    vertex 0.02949264393551701 0.0524669419686629 0.02
    vertex 0.02546779936743106 0.05112711055220437 0.01316251545588927
    vertex 0.03284448849089384 0.0535827382590312 0.009909845203719406
  endloop
endfacet
facet normal 0.315849 -0.948809 1.43186e-15
  outer loop
    vertex 0.01898528787103408 0.04896914583741872 0.02
    vertex 0.02546779936743106 0.05112711055220437 0.01316251545588927
    vertex 0.02949264393551701 0.0524669419686629 0.02
  endloop
endfacet
facet normal 0.315849 -0.948809 0
  outer loop
    vertex 0.01898528787103408 0.04896914583741872 0.01000000000000003
    vertex 0.02546779936743106 0.05112711055220437 0.01316251545588927
    vertex 0.01898528787103408 0.04896914583741872 0.02
  endloop
endfacet
facet normal 0.315849 -0.948809 -4.86687e-16
  outer loop
    vertex 0.02949264393551707 0.05246694196866292 0
    vertex 0.02504439628440107 0.05098616380435549 0.00628631383709915
    vertex 0.01898528787103408 0.04896914583741872 0
  endloop
endfacet
facet normal 0.315849 -0.948809 0
  outer loop
    vertex 0.01898528787103408 0.04896914583741872 0
    vertex 0.02504439628440107 0.05098616380435549 0.00628631383709915
    vertex 0.01898528787103408 0.04896914583741872 0.01000000000000003
  endloop
endfacet
facet normal 0.315849 -0.948809 -6.17014e-16
  outer loop
    vertex 0.03284448849089384 0.0535827382590312 0.009909845203719406
    vertex 0.02546779936743106 0.05112711055220437 0.01316251545588927
    vertex 0.02504439628440107 0.05098616380435549 0.00628631383709915
  endloop
endfacet
facet normal 0.315849 -0.948809 -3.20718e-16
  outer loop
    vertex 0.02949264393551707 0.05246694196866292 0
    vertex 0.03284448849089384 0.0535827382590312 0.009909845203719406
    vertex 0.02504439628440107 0.05098616380435549 0.00628631383709915
  endloop
endfacet
facet normal 0.315849 -0.948809 -5.5067e-16
  outer loop
    vertex 0.02504439628440107 0.05098616380435549 0.00628631383709915
    vertex 0.02546779936743106 0.05112711055220437 0.01316251545588927
    vertex 0.01898528787103408 0.04896914583741872 0.01000000000000003
  endloop
endfacet
facet normal 0.315849 -0.948809 0
  outer loop
    vertex 0.04 0.0559647380999071 0.02
    vertex 0.03284448849089384 0.0535827382590312 0.009909845203719406
    vertex 0.04 0.0559647380999071 0.009999999999999972
  endloop
endfacet
facet normal 0.410369 0.911919 2.1017e-16
  outer loop
    vertex 0.01898528787103408 0.04896914583741872 0
    vertex 0.02546715168025294 0.04605226650828598 0.007565362013876257
    vertex 0.02675805993215275 0.04547134970617453 0
  endloop
endfacet
facet normal 0.410369 0.911919 0
  outer loop
    vertex 0.01898528787103408 0.04896914583741872 0.009999999999999972
    vertex 0.02546715168025294 0.04605226650828598 0.007565362013876257
    vertex 0.01898528787103408 0.04896914583741872 0
  endloop
endfacet
facet normal 0.410369 0.911919 -0
  outer loop
    vertex 0.03453083199327144 0.04197355357493033 0.01000000000000003
    vertex 0.02887105419723174 0.04452048904698896 0.01370876196535751
    vertex 0.03453083199327144 0.04197355357493033 0.02
  endloop
endfacet
facet normal 0.410369 0.911919 -0
  outer loop
    vertex 0.03453083199327144 0.04197355357493033 0
    vertex 0.03042110048039575 0.04382295850706468 0.005126754959290139
    vertex 0.03453083199327144 0.04197355357493033 0.01000000000000003
  endloop
endfacet
facet normal 0.410369 0.911919 0
  outer loop
    vertex 0.01898528787103408 0.04896914583741872 0.02
    vertex 0.02390236692131284 0.04675642945465995 0.01431012598484686
    vertex 0.01898528787103408 0.04896914583741872 0.009999999999999972
  endloop
endfacet
facet normal 0.410369 0.911919 7.58204e-16
  outer loop
    vertex 0.03453083199327144 0.04197355357493033 0.02
    vertex 0.02887105419723174 0.04452048904698896 0.01370876196535751
    vertex 0.02675805993215277 0.04547134970617452 0.02
  endloop
endfacet
facet normal 0.410369 0.911919 -4.98534e-17
  outer loop
    vertex 0.02887105419723174 0.04452048904698896 0.01370876196535751
    vertex 0.03042110048039575 0.04382295850706468 0.005126754959290139
    vertex 0.02546715168025294 0.04605226650828598 0.007565362013876257
  endloop
endfacet
facet normal 0.410369 0.911919 2.52524e-16
  outer loop
    vertex 0.03453083199327144 0.04197355357493033 0.01000000000000003
    vertex 0.03042110048039575 0.04382295850706468 0.005126754959290139
    vertex 0.02887105419723174 0.04452048904698896 0.01370876196535751
  endloop
endfacet
facet normal 0.410369 0.911919 -6.20281e-16
  outer loop
    vertex 0.02675805993215275 0.04547134970617453 0
    vertex 0.03042110048039575 0.04382295850706468 0.005126754959290139
    vertex 0.03453083199327144 0.04197355357493033 0
  endloop
endfacet
facet normal 0.410369 0.911919 -3.49308e-17
  outer loop
    vertex 0.02675805993215277 0.04547134970617452 0.02
    vertex 0.02390236692131284 0.04675642945465995 0.01431012598484686
    vertex 0.01898528787103408 0.04896914583741872 0.02
  endloop
endfacet
facet normal 0.410369 0.911919 2.32256e-16
  outer loop
    vertex 0.02390236692131284 0.04675642945465995 0.01431012598484686
    vertex 0.02546715168025294 0.04605226650828598 0.007565362013876257
    vertex 0.01898528787103408 0.04896914583741872 0.009999999999999972
  endloop
endfacet
facet normal 0.410369 0.911919 1.34999e-16
  outer loop
    vertex 0.02546715168025294 0.04605226650828598 0.007565362013876257
    vertex 0.03042110048039575 0.04382295850706468 0.005126754959290139
    vertex 0.02675805993215275 0.04547134970617453 0
  endloop
endfacet
facet normal 0.410369 0.911919 0
  outer loop
    vertex 0.02390236692131284 0.04675642945465995 0.01431012598484686
    vertex 0.02887105419723174 0.04452048904698896 0.01370876196535751
    vertex 0.02546715168025294 0.04605226650828598 0.007565362013876257
  endloop
endfacet
facet normal 0.410369 0.911919 5.53784e-16
  outer loop
    vertex 0.02675805993215277 0.04547134970617452 0.02
    vertex 0.02887105419723174 0.04452048904698896 0.01370876196535751
    vertex 0.02390236692131284 0.04675642945465995 0.01431012598484686
  endloop
endfacet
facet normal 0.996366 0.0851798 -6.03204e-17
  outer loop
    vertex 0.03512888865536028 0.03497796131244194 0.01000000000000003
    vertex 0.03482986032431586 0.03847575744368613 0.005
    vertex 0.03453083199327144 0.04197355357493033 0.009999999999999972
  endloop
endfacet
facet normal 0.996366 0.0851798 -6.03204e-17
  outer loop
    vertex 0.03453083199327144 0.04197355357493033 0.009999999999999972
    vertex 0.03482986032431586 0.03847575744368614 0.015
    vertex 0.03512888865536028 0.03497796131244194 0.01000000000000003
  endloop
endfacet
facet normal 0.996366 0.0851798 6.03204e-17
  outer loop
    vertex 0.03512888865536028 0.03497796131244194 0.02
    vertex 0.03482986032431586 0.03847575744368614 0.015
    vertex 0.03453083199327144 0.04197355357493033 0.02
  endloop
endfacet
facet normal 0.996366 0.0851798 6.03204e-17
  outer loop
    vertex 0.03453083199327144 0.04197355357493033 0
    vertex 0.03482986032431586 0.03847575744368613 0.005
    vertex 0.03512888865536028 0.03497796131244194 0
  endloop
endfacet
facet normal 0.996366 0.0851798 0
  outer loop
    vertex 0.03453083199327144 0.04197355357493033 0.009999999999999972
    vertex 0.03482986032431586 0.03847575744368613 0.005
    vertex 0.03453083199327144 0.04197355357493033 0
  endloop
endfacet
facet normal 0.996366 0.0851798 0
  outer loop
    vertex 0.03453083199327144 0.04197355357493033 0.02
    vertex 0.03482986032431586 0.03847575744368614 0.015
    vertex 0.03453083199327144 0.04197355357493033 0.009999999999999972
  endloop
endfacet
facet normal 0.996366 0.0851798 -0
  outer loop
    vertex 0.03512888865536028 0.03497796131244194 0
    vertex 0.03482986032431586 0.03847575744368613 0.005
    vertex 0.03512888865536028 0.03497796131244194 0.01000000000000003
  endloop
endfacet
facet normal 0.996366 0.0851798 -0
  outer loop
    vertex 0.03512888865536028 0.03497796131244194 0.01000000000000003
    vertex 0.03482986032431586 0.03847575744368614 0.015
    vertex 0.03512888865536028 0.03497796131244194 0.02
  endloop
endfacet
facet normal 0.734568 0.678535 0
  outer loop
    vertex 0.03512888865536028 0.03497796131244194 0.02
    vertex 0.03835987510468316 0.03148016518119775 0.015
    vertex 0.03512888865536028 0.03497796131244194 0.009999999999999972
  endloop
endfacet
facet normal 0.734568 0.678535 -0
  outer loop
    vertex 0.04159086155400602 0.02798236904995355 0
    vertex 0.03835987510468316 0.03148016518119775 0.005000000000000001
    vertex 0.04159086155400602 0.02798236904995355 0.01000000000000003
  endloop
endfacet
facet normal 0.734568 0.678535 0
  outer loop
    vertex 0.03512888865536028 0.03497796131244194 0.009999999999999972
    vertex 0.03835987510468316 0.03148016518119775 0.005000000000000001
    vertex 0.03512888865536028 0.03497796131244194 0
  endloop
endfacet
facet normal 0.734568 0.678535 -0
  outer loop
    vertex 0.04159086155400602 0.02798236904995355 0.01000000000000003
    vertex 0.03835987510468316 0.03148016518119775 0.015
    vertex 0.04159086155400602 0.02798236904995355 0.02
  endloop
endfacet
facet normal 0.734568 0.678535 -2.20577e-15
  outer loop
    vertex 0.03512888865536028 0.03497796131244194 0.009999999999999972
    vertex 0.03835987510468316 0.03148016518119775 0.015
    vertex 0.04159086155400602 0.02798236904995355 0.01000000000000003
  endloop
endfacet
facet normal 0.734568 0.678535 -2.20577e-15
  outer loop
    vertex 0.03512888865536028 0.03497796131244194 0
    vertex 0.03835987510468316 0.03148016518119775 0.005000000000000001
    vertex 0.04159086155400602 0.02798236904995355 0
  endloop
endfacet
facet normal 0.734568 0.678535 2.27692e-15
  outer loop
    vertex 0.04159086155400602 0.02798236904995355 0.01000000000000003
    vertex 0.03835987510468316 0.03148016518119775 0.005000000000000001
    vertex 0.03512888865536028 0.03497796131244194 0.009999999999999972
  endloop
endfacet
facet normal 0.734568 0.678535 2.27692e-15
  outer loop
    vertex 0.04159086155400602 0.02798236904995355 0.02
    vertex 0.03835987510468316 0.03148016518119775 0.015
    vertex 0.03512888865536028 0.03497796131244194 0.02
  endloop
endfacet
facet normal 0.649181 -0.760634 -6.83432e-16
  outer loop
    vertex 0.04159086155400602 0.02798236904995355 0
    vertex 0.03749255237117219 0.02448457291870935 0.005520616409829229
    vertex 0.03339424318833835 0.02098677678746516 0
  endloop
endfacet
facet normal 0.649181 -0.760634 -1.71701e-16
  outer loop
    vertex 0.03339424318833835 0.02098677678746516 0.02
    vertex 0.03749255237117218 0.02448457291870935 0.01450648773478912
    vertex 0.04159086155400602 0.02798236904995355 0.02
  endloop
endfacet
facet normal 0.649181 -0.760634 5.24847e-16
  outer loop
    vertex 0.04159086155400602 0.02798236904995355 0.009999999999999972
    vertex 0.03749255237117218 0.02448457291870935 0.01450648773478912
    vertex 0.03749255237117219 0.02448457291870935 0.005520616409829229
  endloop
endfacet
facet normal 0.649181 -0.760634 5.01298e-16
  outer loop
    vertex 0.03749255237117219 0.02448457291870935 0.005520616409829229
    vertex 0.03749255237117218 0.02448457291870935 0.01450648773478912
    vertex 0.03339424318833835 0.02098677678746516 0.01000000000000003
  endloop
endfacet
facet normal 0.649181 -0.760634 0
  outer loop
    vertex 0.04159086155400602 0.02798236904995355 0.02
    vertex 0.03749255237117218 0.02448457291870935 0.01450648773478912
    vertex 0.04159086155400602 0.02798236904995355 0.009999999999999972
  endloop
endfacet
facet normal 0.649181 -0.760634 0
  outer loop
    vertex 0.03339424318833835 0.02098677678746516 0
    vertex 0.03749255237117219 0.02448457291870935 0.005520616409829229
    vertex 0.03339424318833835 0.02098677678746516 0.01000000000000003
  endloop
endfacet
facet normal 0.649181 -0.760634 0
  outer loop
    vertex 0.04159086155400602 0.02798236904995355 0.009999999999999972
    vertex 0.03749255237117219 0.02448457291870935 0.005520616409829229
    vertex 0.04159086155400602 0.02798236904995355 0
  endloop
endfacet
facet normal 0.649181 -0.760634 0
  outer loop
    vertex 0.03339424318833835 0.02098677678746516 0.01000000000000003
    vertex 0.03749255237117218 0.02448457291870935 0.01450648773478912
    vertex 0.03339424318833835 0.02098677678746516 0.02
  endloop
endfacet
facet normal 0.73645 -0.676492 0
  outer loop
    vertex 0.02696819652937163 0.01399118452497677 0
    vertex 0.03018121985885499 0.01748898065622096 0.005
    vertex 0.02696819652937163 0.01399118452497677 0.01000000000000003
  endloop
endfacet
facet normal 0.73645 -0.676492 0
  outer loop
    vertex 0.03339424318833835 0.02098677678746516 0.02
    vertex 0.03018121985885499 0.01748898065622096 0.015
    vertex 0.03339424318833835 0.02098677678746516 0.009999999999999972
  endloop
endfacet
facet normal 0.73645 -0.676492 0
  outer loop
    vertex 0.03339424318833835 0.02098677678746516 0.009999999999999972
    vertex 0.03018121985885499 0.01748898065622096 0.005
    vertex 0.03339424318833835 0.02098677678746516 0
  endloop
endfacet
facet normal 0.73645 -0.676492 0
  outer loop
    vertex 0.02696819652937163 0.01399118452497677 0.01000000000000003
    vertex 0.03018121985885499 0.01748898065622096 0.015
    vertex 0.02696819652937163 0.01399118452497677 0.02
  endloop
endfacet
facet normal 0.73645 -0.676492 9.98705e-16
  outer loop
    vertex 0.02696819652937163 0.01399118452497677 0.01000000000000003
    vertex 0.03018121985885499 0.01748898065622096 0.005
    vertex 0.03339424318833835 0.02098677678746516 0.009999999999999972
  endloop
endfacet
facet normal 0.73645 -0.676492 -9.98705e-16
  outer loop
    vertex 0.03339424318833835 0.02098677678746516 0.009999999999999972
    vertex 0.03018121985885499 0.01748898065622096 0.015
    vertex 0.02696819652937163 0.01399118452497677 0.01000000000000003
  endloop
endfacet
facet normal 0.73645 -0.676492 -9.98705e-16
  outer loop
    vertex 0.03339424318833835 0.02098677678746516 0
    vertex 0.03018121985885499 0.01748898065622096 0.005
    vertex 0.02696819652937163 0.01399118452497677 0
  endloop
endfacet
facet normal 0.73645 -0.676492 9.98705e-16
  outer loop
    vertex 0.02696819652937163 0.01399118452497677 0.02
    vertex 0.03018121985885499 0.01748898065622096 0.015
    vertex 0.03339424318833835 0.02098677678746516 0.02
  endloop
endfacet
facet normal 0.573219 -0.819402 -5.55247e-17
  outer loop
    vertex 0.01696816277655991 0.006995592262488387 0.01000000000000003
    vertex 0.02696819652937163 0.01399118452497677 0.009999999999999972
    vertex 0.02196817965296576 0.01049338839373257 0.02
  endloop
endfacet
facet normal 0.573219 -0.819402 -5.55247e-17
  outer loop
    vertex 0.02196817965296578 0.01049338839373259 0
    vertex 0.02696819652937163 0.01399118452497677 0.009999999999999972
    vertex 0.01696816277655991 0.006995592262488387 0.01000000000000003
  endloop
endfacet
facet normal 0.573219 -0.819402 0
  outer loop
    vertex 0.02196817965296578 0.01049338839373259 0
    vertex 0.02696819652937163 0.01399118452497677 0
    vertex 0.02696819652937163 0.01399118452497677 0.009999999999999972
  endloop
endfacet
facet normal 0.573219 -0.819402 0
  outer loop
    vertex 0.02696819652937163 0.01399118452497677 0.009999999999999972
    vertex 0.02696819652937163 0.01399118452497677 0.02
    vertex 0.02196817965296576 0.01049338839373257 0.02
  endloop
endfacet
facet normal 0.573219 -0.819402 0
  outer loop
    vertex 0.01696816277655991 0.006995592262488387 0.01000000000000003
    vertex 0.01696816277655991 0.006995592262488387 0
    vertex 0.02196817965296578 0.01049338839373259 0
  endloop
endfacet
facet normal 0.573219 -0.819402 0
  outer loop
    vertex 0.02196817965296576 0.01049338839373257 0.02
    vertex 0.01696816277655991 0.006995592262488387 0.02
    vertex 0.01696816277655991 0.006995592262488387 0.01000000000000003
  endloop
endfacet
endsolid Created by Gmsh
