solid Created by Gmsh
facet normal 0.992792 0.119848 -1.89385e-16
  outer loop
    vertex 0.006704992356871256 0.01072755423858025 0.02
    vertex 0.006195269163973048 0.01494998738597611 0.009652101967692398
    vertex 0.005409984713742507 0.02145510847716053 0.02
  endloop
endfacet
facet normal 0.992792 0.119848 8.94665e-17
  outer loop
    vertex 0.002819969427485015 0.04291021695432105 0
    vertex 0.003330877652540392 0.03867796726506307 0.01051426247660149
    vertex 0.004114977070613764 0.03218266271574077 0
  endloop
endfacet
facet normal 0.992792 0.119848 1.24534e-16
  outer loop
    vertex 0.003330877652540392 0.03867796726506307 0.01051426247660149
    vertex 0.004762678397537663 0.02681724950614029 0.01002772740738231
    vertex 0.004114977070613764 0.03218266271574077 0
  endloop
endfacet
facet normal 0.992792 0.119848 1.56346e-16
  outer loop
    vertex 0.004114977070613764 0.03218266271574077 0
    vertex 0.004762678397537663 0.02681724950614029 0.01002772740738231
    vertex 0.005409984713742507 0.02145510847716053 0
  endloop
endfacet
facet normal 0.992792 0.119848 -1.67686e-16
  outer loop
    vertex 0.006195269163973048 0.01494998738597611 0.009652101967692398
    vertex 0.004762678397537663 0.02681724950614029 0.01002772740738231
    vertex 0.005409984713742507 0.02145510847716053 0.02
  endloop
endfacet
facet normal 0.992792 0.119848 1.72516e-16
  outer loop
    vertex 0.005409984713742507 0.02145510847716053 0
    vertex 0.004762678397537663 0.02681724950614029 0.01002772740738231
    vertex 0.006195269163973048 0.01494998738597611 0.009652101967692398
  endloop
endfacet
facet normal 0.992792 0.119848 0
  outer loop
    vertex 0.001524961784356271 0.05363777119290129 0.009999999999999972
    vertex 0.002422422783820934 0.04620340460838648 0.007684212916071935
    vertex 0.001524961784356271 0.05363777119290129 0
  endloop
endfacet
facet normal 0.992792 0.119848 -0
  outer loop
    vertex 0.008 0 0.01000000000000003
    vertex 0.007102625373141542 0.007433651093125448 0.01232791277228768
    vertex 0.008 0 0.02
  endloop
endfacet
facet normal 0.992792 0.119848 -1.30864e-16
  outer loop
    vertex 0.004114977070613764 0.03218266271574077 0.02
    vertex 0.004762678397537663 0.02681724950614029 0.01002772740738231
    vertex 0.003330877652540392 0.03867796726506307 0.01051426247660149
  endloop
endfacet
facet normal 0.992792 0.119848 -1.57215e-16
  outer loop
    vertex 0.005409984713742507 0.02145510847716053 0.02
    vertex 0.004762678397537663 0.02681724950614029 0.01002772740738231
    vertex 0.004114977070613764 0.03218266271574077 0.02
  endloop
endfacet
facet normal 0.992792 0.119848 8.1611e-17
  outer loop
    vertex 0.001524961784356271 0.05363777119290129 0
    vertex 0.002422422783820934 0.04620340460838648 0.007684212916071935
    vertex 0.002819969427485015 0.04291021695432105 0
  endloop
endfacet
facet normal 0.992792 0.119848 -2.24785e-16
  outer loop
    vertex 0.008 0 0.02
    vertex 0.007102625373141542 0.007433651093125448 0.01232791277228768
    vertex 0.006704992356871256 0.01072755423858025 0.02
  endloop
endfacet
facet normal 0.992792 0.119848 1.78673e-16
  outer loop
    vertex 0.005409984713742507 0.02145510847716053 0
    vertex 0.006195269163973048 0.01494998738597611 0.009652101967692398
    vertex 0.006704992356871256 0.01072755423858025 0
  endloop
endfacet
facet normal 0.992792 0.119848 -1.15695e-16
  outer loop
    vertex 0.004114977070613764 0.03218266271574077 0.02
    vertex 0.003330877652540392 0.03867796726506307 0.01051426247660149
    vertex 0.002819969427485016 0.04291021695432104 0.02
  endloop
endfacet
facet normal 0.992792 0.119848 2.4132e-16
  outer loop
    vertex 0.006195269163973048 0.01494998738597611 0.009652101967692398
    vertex 0.007274986586783352 0.006005849274517795 0.005712246402038793
    vertex 0.006704992356871256 0.01072755423858025 0
  endloop
endfacet
facet normal 0.992792 0.119848 -7.32545e-17
  outer loop
    vertex 0.003330877652540392 0.03867796726506307 0.01051426247660149
    vertex 0.002250104932752853 0.04763084722111294 0.0143059668768034
    vertex 0.002819969427485016 0.04291021695432104 0.02
  endloop
endfacet
facet normal 0.992792 0.119848 6.26185e-17
  outer loop
    vertex 0.002819969427485015 0.04291021695432105 0
    vertex 0.002422422783820934 0.04620340460838648 0.007684212916071935
    vertex 0.003330877652540392 0.03867796726506307 0.01051426247660149
  endloop
endfacet
facet normal 0.992792 0.119848 -2.30851e-16
  outer loop
    vertex 0.006704992356871256 0.01072755423858025 0.02
    vertex 0.007102625373141542 0.007433651093125448 0.01232791277228768
    vertex 0.006195269163973048 0.01494998738597611 0.009652101967692398
  endloop
endfacet
facet normal 0.992792 0.119848 1.95124e-17
  outer loop
    vertex 0.002422422783820934 0.04620340460838648 0.007684212916071935
    vertex 0.002250104932752853 0.04763084722111294 0.0143059668768034
    vertex 0.003330877652540392 0.03867796726506307 0.01051426247660149
  endloop
endfacet
facet normal 0.992792 0.119848 -7.06713e-17
  outer loop
    vertex 0.007102625373141542 0.007433651093125448 0.01232791277228768
    vertex 0.007274986586783352 0.006005849274517795 0.005712246402038793
    vertex 0.006195269163973048 0.01494998738597611 0.009652101967692398
  endloop
endfacet
facet normal 0.992792 0.119848 -1.3767e-16
  outer loop
    vertex 0.002819969427485016 0.04291021695432104 0.02
    vertex 0.002250104932752853 0.04763084722111294 0.0143059668768034
    vertex 0.001524961784356271 0.05363777119290129 0.02
  endloop
endfacet
facet normal 0.992792 0.119848 3.43077e-16
  outer loop
    vertex 0.006704992356871256 0.01072755423858025 0
    vertex 0.007274986586783352 0.006005849274517795 0.005712246402038793
    vertex 0.008 0 0
  endloop
endfacet
facet normal 0.992792 0.119848 -0
  outer loop
    vertex 0.008 0 0
    vertex 0.007274986586783352 0.006005849274517795 0.005712246402038793
    vertex 0.008 0 0.01000000000000003
  endloop
endfacet
facet normal 0.992792 0.119848 0
  outer loop
    vertex 0.001524961784356271 0.05363777119290129 0.02
    vertex 0.002250104932752853 0.04763084722111294 0.0143059668768034
    vertex 0.001524961784356271 0.05363777119290129 0.009999999999999972
  endloop
endfacet
facet normal 0.992792 0.119848 -1.28373e-16
  outer loop
    vertex 0.008 0 0.01000000000000003
    vertex 0.007274986586783352 0.006005849274517795 0.005712246402038793
    vertex 0.007102625373141542 0.007433651093125448 0.01232791277228768
  endloop
endfacet
facet normal 0.992792 0.119848 3.66235e-17
  outer loop
    vertex 0.001524961784356271 0.05363777119290129 0.009999999999999972
    vertex 0.002250104932752853 0.04763084722111294 0.0143059668768034
    vertex 0.002422422783820934 0.04620340460838648 0.007684212916071935
  endloop
endfacet
endsolid Created by Gmsh
