solid Created by Gmsh
facet normal 1 0 0
  outer loop
    vertex 0.04 0.06 0.02
    vertex 0.04 0.05559167965310974 0.015
    vertex 0.04 0.06 0.009999999999999972
  endloop
endfacet
facet normal 1 0 0
  outer loop
    vertex 0.04 0.05118335930621949 0
    vertex 0.04 0.05559167965310974 0.005
    vertex 0.04 0.05118335930621949 0.01000000000000003
  endloop
endfacet
facet normal 1 0 0
  outer loop
    vertex 0.04 0.06 0.009999999999999972
    vertex 0.04 0.05559167965310974 0.005
    vertex 0.04 0.06 0
  endloop
endfacet
facet normal 1 0 0
  outer loop
    vertex 0.04 0.05118335930621949 0.01000000000000003
    vertex 0.04 0.05559167965310974 0.015
    vertex 0.04 0.05118335930621949 0.02
  endloop
endfacet
facet normal 1 0 0
  outer loop
    vertex 0.04 0.06 0
    vertex 0.04 0.05559167965310974 0.005
    vertex 0.04 0.05118335930621949 0
  endloop
endfacet
facet normal 1 -0 0
  outer loop
    vertex 0.04 0.05118335930621949 0.02
    vertex 0.04 0.05559167965310974 0.015
    vertex 0.04 0.06 0.02
  endloop
endfacet
facet normal 1 0 0
  outer loop
    vertex 0.04 0.06 0.009999999999999972
    vertex 0.04 0.05559167965310974 0.015
    vertex 0.04 0.05118335930621949 0.01000000000000003
  endloop
endfacet
facet normal 1 0 0
  outer loop
    vertex 0.04 0.05118335930621949 0.01000000000000003
    vertex 0.04 0.05559167965310974 0.005
    vertex 0.04 0.06 0.009999999999999972
  endloop
endfacet
facet normal 0.410819 -0.911717 5.65698e-17
  outer loop
    vertex 0.03290065930618507 0.04798439934958077 0
    vertex 0.03294705307053888 0.04800530436045521 0.007992075211362061
    vertex 0.02580131861237015 0.04478543939294206 0
  endloop
endfacet
facet normal 0.410819 -0.911717 5.44431e-17
  outer loop
    vertex 0.04 0.05118335930621949 0
    vertex 0.03294705307053888 0.04800530436045521 0.007992075211362061
    vertex 0.03290065930618507 0.04798439934958077 0
  endloop
endfacet
facet normal 0.410819 -0.911717 0
  outer loop
    vertex 0.02580131861237015 0.04478543939294206 0
    vertex 0.03294705307053888 0.04800530436045521 0.007992075211362061
    vertex 0.02580131861237015 0.04478543939294206 0.01000000000000003
  endloop
endfacet
facet normal 0.410819 -0.911717 0
  outer loop
    vertex 0.04 0.05118335930621949 0.009999999999999972
    vertex 0.03294705307053888 0.04800530436045521 0.007992075211362061
    vertex 0.04 0.05118335930621949 0
  endloop
endfacet
facet normal 0.410819 -0.911717 0
  outer loop
    vertex 0.04 0.05118335930621949 0.02
    vertex 0.0352815443507426 0.0490572251579738 0.01439542510309996
    vertex 0.04 0.05118335930621949 0.009999999999999972
  endloop
endfacet
facet normal 0.410819 -0.911717 0
  outer loop
    vertex 0.02580131861237015 0.04478543939294206 0.01000000000000003
    vertex 0.03054637879044137 0.04692356153077878 0.01447750006289241
    vertex 0.02580131861237015 0.04478543939294206 0.02
  endloop
endfacet
facet normal 0.410819 -0.911717 -4.72735e-16
  outer loop
    vertex 0.02580131861237015 0.04478543939294206 0.02
    vertex 0.03054637879044137 0.04692356153077878 0.01447750006289241
    vertex 0.03290065930618508 0.04798439934958078 0.02
  endloop
endfacet
facet normal 0.410819 -0.911717 -3.68768e-16
  outer loop
    vertex 0.03290065930618508 0.04798439934958078 0.02
    vertex 0.0352815443507426 0.0490572251579738 0.01439542510309996
    vertex 0.04 0.05118335930621949 0.02
  endloop
endfacet
facet normal 0.410819 -0.911717 4.00675e-16
  outer loop
    vertex 0.0352815443507426 0.0490572251579738 0.01439542510309996
    vertex 0.03294705307053888 0.04800530436045521 0.007992075211362061
    vertex 0.04 0.05118335930621949 0.009999999999999972
  endloop
endfacet
facet normal 0.410819 -0.911717 3.29022e-16
  outer loop
    vertex 0.0352815443507426 0.0490572251579738 0.01439542510309996
    vertex 0.03054637879044137 0.04692356153077878 0.01447750006289241
    vertex 0.03294705307053888 0.04800530436045521 0.007992075211362061
  endloop
endfacet
facet normal 0.410819 -0.911717 4.4636e-16
  outer loop
    vertex 0.03294705307053888 0.04800530436045521 0.007992075211362061
    vertex 0.03054637879044137 0.04692356153077878 0.01447750006289241
    vertex 0.02580131861237015 0.04478543939294206 0.01000000000000003
  endloop
endfacet
facet normal 0.410819 -0.911717 -3.51782e-16
  outer loop
    vertex 0.03290065930618508 0.04798439934958078 0.02
    vertex 0.03054637879044137 0.04692356153077878 0.01447750006289241
    vertex 0.0352815443507426 0.0490572251579738 0.01439542510309996
  endloop
endfacet
facet normal 0.382541 0.923938 -5.7874e-16
  outer loop
    vertex 0.03352764825709877 0.04158647943630335 0.02
    vertex 0.03421332710939694 0.04130258536337671 0.01212411893228989
    vertex 0.02580131861237015 0.04478543939294206 0.02
  endloop
endfacet
facet normal 0.382541 0.923938 0
  outer loop
    vertex 0.02580131861237015 0.04478543939294206 0.02
    vertex 0.03421332710939694 0.04130258536337671 0.01212411893228989
    vertex 0.02580131861237015 0.04478543939294206 0.009999999999999972
  endloop
endfacet
facet normal 0.382541 0.923938 -5.14435e-16
  outer loop
    vertex 0.04125397790182743 0.03838751947966462 0.02
    vertex 0.03421332710939694 0.04130258536337671 0.01212411893228989
    vertex 0.03352764825709877 0.04158647943630335 0.02
  endloop
endfacet
facet normal 0.382541 0.923938 -0
  outer loop
    vertex 0.04125397790182743 0.03838751947966462 0.01000000000000003
    vertex 0.03421332710939694 0.04130258536337671 0.01212411893228989
    vertex 0.04125397790182743 0.03838751947966462 0.02
  endloop
endfacet
facet normal 0.382541 0.923938 0
  outer loop
    vertex 0.02580131861237015 0.04478543939294206 0.009999999999999972
    vertex 0.03123312751630852 0.04253648808296688 0.00588755523229003
    vertex 0.02580131861237015 0.04478543939294206 0
  endloop
endfacet
facet normal 0.382541 0.923938 -0
  outer loop
    vertex 0.04125397790182743 0.03838751947966462 0
    vertex 0.03631743626741241 0.04043141350683023 0.00567078772876576
    vertex 0.04125397790182743 0.03838751947966462 0.01000000000000003
  endloop
endfacet
facet normal 0.382541 0.923938 3.44084e-16
  outer loop
    vertex 0.02580131861237015 0.04478543939294206 0
    vertex 0.03123312751630852 0.04253648808296688 0.00588755523229003
    vertex 0.03352764825709881 0.04158647943630333 0
  endloop
endfacet
facet normal 0.382541 0.923938 -6.10726e-16
  outer loop
    vertex 0.03421332710939694 0.04130258536337671 0.01212411893228989
    vertex 0.03123312751630852 0.04253648808296688 0.00588755523229003
    vertex 0.02580131861237015 0.04478543939294206 0.009999999999999972
  endloop
endfacet
facet normal 0.382541 0.923938 6.43027e-16
  outer loop
    vertex 0.03352764825709881 0.04158647943630333 0
    vertex 0.03631743626741241 0.04043141350683023 0.00567078772876576
    vertex 0.04125397790182743 0.03838751947966462 0
  endloop
endfacet
facet normal 0.382541 0.923938 -8.02354e-16
  outer loop
    vertex 0.03631743626741241 0.04043141350683023 0.00567078772876576
    vertex 0.03421332710939694 0.04130258536337671 0.01212411893228989
    vertex 0.04125397790182743 0.03838751947966462 0.01000000000000003
  endloop
endfacet
facet normal 0.382541 0.923938 -5.32145e-16
  outer loop
    vertex 0.03631743626741241 0.04043141350683023 0.00567078772876576
    vertex 0.03123312751630852 0.04253648808296688 0.00588755523229003
    vertex 0.03421332710939694 0.04130258536337671 0.01212411893228989
  endloop
endfacet
facet normal 0.382541 0.923938 2.79153e-16
  outer loop
    vertex 0.03352764825709881 0.04158647943630333 0
    vertex 0.03123312751630852 0.04253648808296688 0.00588755523229003
    vertex 0.03631743626741241 0.04043141350683023 0.00567078772876576
  endloop
endfacet
facet normal 0.593359 -0.804938 -9.6761e-16
  outer loop
    vertex 0.04125397790182743 0.03838751947966462 0
    vertex 0.03691433976583949 0.03518855952302589 0.005520616409829227
    vertex 0.03257470162985156 0.03198959956638718 0
  endloop
endfacet
facet normal 0.593359 -0.804938 1.25838e-15
  outer loop
    vertex 0.03257470162985156 0.03198959956638718 0.02
    vertex 0.03691433976583951 0.03518855952302591 0.0145064877347891
    vertex 0.04125397790182743 0.03838751947966462 0.02
  endloop
endfacet
facet normal 0.593359 -0.804938 0
  outer loop
    vertex 0.04125397790182743 0.03838751947966462 0.02
    vertex 0.03691433976583951 0.03518855952302591 0.0145064877347891
    vertex 0.04125397790182743 0.03838751947966462 0.009999999999999972
  endloop
endfacet
facet normal 0.593359 -0.804938 0
  outer loop
    vertex 0.03257470162985156 0.03198959956638718 0
    vertex 0.03691433976583949 0.03518855952302589 0.005520616409829227
    vertex 0.03257470162985156 0.03198959956638718 0.01000000000000003
  endloop
endfacet
facet normal 0.593359 -0.804938 -1.39875e-16
  outer loop
    vertex 0.04125397790182743 0.03838751947966462 0.009999999999999972
    vertex 0.03691433976583951 0.03518855952302591 0.0145064877347891
    vertex 0.03691433976583949 0.03518855952302589 0.005520616409829227
  endloop
endfacet
facet normal 0.593359 -0.804938 -1.3143e-16
  outer loop
    vertex 0.03691433976583949 0.03518855952302589 0.005520616409829227
    vertex 0.03691433976583951 0.03518855952302591 0.0145064877347891
    vertex 0.03257470162985156 0.03198959956638718 0.01000000000000003
  endloop
endfacet
facet normal 0.593359 -0.804938 0
  outer loop
    vertex 0.04125397790182743 0.03838751947966462 0.009999999999999972
    vertex 0.03691433976583949 0.03518855952302589 0.005520616409829227
    vertex 0.04125397790182743 0.03838751947966462 0
  endloop
endfacet
facet normal 0.593359 -0.804938 0
  outer loop
    vertex 0.03257470162985156 0.03198959956638718 0.01000000000000003
    vertex 0.03691433976583951 0.03518855952302591 0.0145064877347891
    vertex 0.03257470162985156 0.03198959956638718 0.02
  endloop
endfacet
facet normal 0.517268 0.855823 -5.47857e-17
  outer loop
    vertex 0.0431601048999477 0.02559167965310975 0.01000000000000003
    vertex 0.03257470162985156 0.03198959956638718 0.009999999999999972
    vertex 0.03786740326489964 0.02879063960974846 0.02
  endloop
endfacet
facet normal 0.517268 0.855823 -5.47857e-17
  outer loop
    vertex 0.03786740326489962 0.02879063960974847 0
    vertex 0.03257470162985156 0.03198959956638718 0.009999999999999972
    vertex 0.0431601048999477 0.02559167965310975 0.01000000000000003
  endloop
endfacet
facet normal 0.517268 0.855823 0
  outer loop
    vertex 0.03786740326489962 0.02879063960974847 0
    vertex 0.03257470162985156 0.03198959956638718 0
    vertex 0.03257470162985156 0.03198959956638718 0.009999999999999972
  endloop
endfacet
facet normal 0.517268 0.855823 -0
  outer loop
    vertex 0.03257470162985156 0.03198959956638718 0.009999999999999972
    vertex 0.03257470162985156 0.03198959956638718 0.02
    vertex 0.03786740326489964 0.02879063960974846 0.02
  endloop
endfacet
facet normal 0.517268 0.855823 0
  outer loop
    vertex 0.0431601048999477 0.02559167965310975 0.01000000000000003
    vertex 0.0431601048999477 0.02559167965310975 0
    vertex 0.03786740326489962 0.02879063960974847 0
  endloop
endfacet
facet normal 0.517268 0.855823 0
  outer loop
    vertex 0.03786740326489964 0.02879063960974846 0.02
    vertex 0.0431601048999477 0.02559167965310975 0.02
    vertex 0.0431601048999477 0.02559167965310975 0.01000000000000003
  endloop
endfacet
facet normal 0.363287 -0.931677 -9.89029e-17
  outer loop
    vertex 0.0431601048999477 0.02559167965310975 0
    vertex 0.0361159227241597 0.02284495308699287 0.007780769564003894
    vertex 0.03495613695294122 0.02239271969647103 0
  endloop
endfacet
facet normal 0.363287 -0.931677 0
  outer loop
    vertex 0.0431601048999477 0.02559167965310975 0.009999999999999972
    vertex 0.0361159227241597 0.02284495308699287 0.007780769564003894
    vertex 0.0431601048999477 0.02559167965310975 0
  endloop
endfacet
facet normal 0.363287 -0.931677 0
  outer loop
    vertex 0.02675216900593472 0.01919375973983231 0.01000000000000003
    vertex 0.03239193546738343 0.02139286475724666 0.01354659052703648
    vertex 0.02675216900593472 0.01919375973983231 0.02
  endloop
endfacet
facet normal 0.363287 -0.931677 0
  outer loop
    vertex 0.02675216900593472 0.01919375973983231 0
    vertex 0.0309945928096735 0.02084800119407925 0.005103335633707642
    vertex 0.02675216900593472 0.01919375973983231 0.01000000000000003
  endloop
endfacet
facet normal 0.363287 -0.931677 0
  outer loop
    vertex 0.0431601048999477 0.02559167965310975 0.02
    vertex 0.03795684098887595 0.02356277936938601 0.01426547201820807
    vertex 0.0431601048999477 0.02559167965310975 0.009999999999999972
  endloop
endfacet
facet normal 0.363287 -0.931677 2.38491e-16
  outer loop
    vertex 0.02675216900593472 0.01919375973983231 0.02
    vertex 0.03239193546738343 0.02139286475724666 0.01354659052703648
    vertex 0.0349561369529412 0.02239271969647103 0.02
  endloop
endfacet
facet normal 0.363287 -0.931677 2.63886e-16
  outer loop
    vertex 0.03495613695294122 0.02239271969647103 0
    vertex 0.0309945928096735 0.02084800119407925 0.005103335633707642
    vertex 0.02675216900593472 0.01919375973983231 0
  endloop
endfacet
facet normal 0.363287 -0.931677 -3.01937e-16
  outer loop
    vertex 0.0349561369529412 0.02239271969647103 0.02
    vertex 0.03795684098887595 0.02356277936938601 0.01426547201820807
    vertex 0.0431601048999477 0.02559167965310975 0.02
  endloop
endfacet
facet normal 0.363287 -0.931677 -1.79812e-16
  outer loop
    vertex 0.03239193546738343 0.02139286475724666 0.01354659052703648
    vertex 0.0309945928096735 0.02084800119407925 0.005103335633707642
    vertex 0.0361159227241597 0.02284495308699287 0.007780769564003894
  endloop
endfacet
facet normal 0.363287 -0.931677 -2.21975e-16
  outer loop
    vertex 0.02675216900593472 0.01919375973983231 0.01000000000000003
    vertex 0.0309945928096735 0.02084800119407925 0.005103335633707642
    vertex 0.03239193546738343 0.02139286475724666 0.01354659052703648
  endloop
endfacet
facet normal 0.363287 -0.931677 3.63215e-16
  outer loop
    vertex 0.03795684098887595 0.02356277936938601 0.01426547201820807
    vertex 0.03239193546738343 0.02139286475724666 0.01354659052703648
    vertex 0.0361159227241597 0.02284495308699287 0.007780769564003894
  endloop
endfacet
facet normal 0.363287 -0.931677 4.8381e-16
  outer loop
    vertex 0.03795684098887595 0.02356277936938601 0.01426547201820807
    vertex 0.0361159227241597 0.02284495308699287 0.007780769564003894
    vertex 0.0431601048999477 0.02559167965310975 0.009999999999999972
  endloop
endfacet
facet normal 0.363287 -0.931677 -2.14781e-17
  outer loop
    vertex 0.0361159227241597 0.02284495308699287 0.007780769564003894
    vertex 0.0309945928096735 0.02084800119407925 0.005103335633707642
    vertex 0.03495613695294122 0.02239271969647103 0
  endloop
endfacet
facet normal 0.363287 -0.931677 1.15817e-17
  outer loop
    vertex 0.0349561369529412 0.02239271969647103 0.02
    vertex 0.03239193546738343 0.02139286475724666 0.01354659052703648
    vertex 0.03795684098887595 0.02356277936938601 0.01426547201820807
  endloop
endfacet
facet normal 0.568163 0.822916 9.54212e-16
  outer loop
    vertex 0.02675216900593472 0.01919375973983231 0
    vertex 0.03138547450986267 0.01599479978319358 0.005675738850308981
    vertex 0.03601878001379059 0.01279583982655487 0
  endloop
endfacet
facet normal 0.568163 0.822916 -8.92843e-16
  outer loop
    vertex 0.03601878001379059 0.01279583982655487 0.02
    vertex 0.03138547450986266 0.01599479978319359 0.01427113702623907
    vertex 0.02675216900593472 0.01919375973983231 0.02
  endloop
endfacet
facet normal 0.568163 0.822916 0
  outer loop
    vertex 0.02675216900593472 0.01919375973983231 0.02
    vertex 0.03138547450986266 0.01599479978319359 0.01427113702623907
    vertex 0.02675216900593472 0.01919375973983231 0.009999999999999972
  endloop
endfacet
facet normal 0.568163 0.822916 -0
  outer loop
    vertex 0.03601878001379059 0.01279583982655487 0
    vertex 0.03138547450986267 0.01599479978319358 0.005675738850308981
    vertex 0.03601878001379059 0.01279583982655487 0.01000000000000003
  endloop
endfacet
facet normal 0.568163 0.822916 -7.91513e-17
  outer loop
    vertex 0.03138547450986266 0.01599479978319359 0.01427113702623907
    vertex 0.03138547450986267 0.01599479978319358 0.005675738850308981
    vertex 0.02675216900593472 0.01919375973983231 0.009999999999999972
  endloop
endfacet
facet normal 0.568163 0.822916 -7.00098e-17
  outer loop
    vertex 0.03601878001379059 0.01279583982655487 0.01000000000000003
    vertex 0.03138547450986267 0.01599479978319358 0.005675738850308981
    vertex 0.03138547450986266 0.01599479978319359 0.01427113702623907
  endloop
endfacet
facet normal 0.568163 0.822916 0
  outer loop
    vertex 0.02675216900593472 0.01919375973983231 0.009999999999999972
    vertex 0.03138547450986267 0.01599479978319358 0.005675738850308981
    vertex 0.02675216900593472 0.01919375973983231 0
  endloop
endfacet
facet normal 0.568163 0.822916 -0
  outer loop
    vertex 0.03601878001379059 0.01279583982655487 0.01000000000000003
    vertex 0.03138547450986266 0.01599479978319359 0.01427113702623907
    vertex 0.03601878001379059 0.01279583982655487 0.02
  endloop
endfacet
facet normal 0.372225 0.928143 -9.29798e-16
  outer loop
    vertex 0.05197198904436656 0.006397919913277435 0.02
    vertex 0.04522147300102385 0.00910516589343255 0.01236795482778772
    vertex 0.04399538452907858 0.009596879869916152 0.02
  endloop
endfacet
facet normal 0.372225 0.928143 -0
  outer loop
    vertex 0.05197198904436656 0.006397919913277435 0.01000000000000003
    vertex 0.04522147300102385 0.00910516589343255 0.01236795482778772
    vertex 0.05197198904436656 0.006397919913277435 0.02
  endloop
endfacet
facet normal 0.372225 0.928143 0
  outer loop
    vertex 0.03601878001379059 0.01279583982655487 0.02
    vertex 0.04014702722458348 0.0111402359297939 0.01501957469444839
    vertex 0.03601878001379059 0.01279583982655487 0.009999999999999972
  endloop
endfacet
facet normal 0.372225 0.928143 0
  outer loop
    vertex 0.03601878001379059 0.01279583982655487 0.009999999999999972
    vertex 0.04146905645957319 0.01061004559929271 0.006353718571471552
    vertex 0.03601878001379059 0.01279583982655487 0
  endloop
endfacet
facet normal 0.372225 0.928143 -0
  outer loop
    vertex 0.05197198904436656 0.006397919913277435 0
    vertex 0.04686785948239219 0.00844489441865222 0.005705392625288044
    vertex 0.05197198904436656 0.006397919913277435 0.01000000000000003
  endloop
endfacet
facet normal 0.372225 0.928143 7.44578e-16
  outer loop
    vertex 0.03601878001379059 0.01279583982655487 0
    vertex 0.04146905645957319 0.01061004559929271 0.006353718571471552
    vertex 0.04399538452907857 0.009596879869916152 0
  endloop
endfacet
facet normal 0.372225 0.928143 -3.0111e-16
  outer loop
    vertex 0.04146905645957319 0.01061004559929271 0.006353718571471552
    vertex 0.04014702722458348 0.0111402359297939 0.01501957469444839
    vertex 0.04522147300102385 0.00910516589343255 0.01236795482778772
  endloop
endfacet
facet normal 0.372225 0.928143 -1.48296e-16
  outer loop
    vertex 0.03601878001379059 0.01279583982655487 0.009999999999999972
    vertex 0.04014702722458348 0.0111402359297939 0.01501957469444839
    vertex 0.04146905645957319 0.01061004559929271 0.006353718571471552
  endloop
endfacet
facet normal 0.372225 0.928143 -1.06862e-15
  outer loop
    vertex 0.04399538452907858 0.009596879869916152 0.02
    vertex 0.04014702722458348 0.0111402359297939 0.01501957469444839
    vertex 0.03601878001379059 0.01279583982655487 0.02
  endloop
endfacet
facet normal 0.372225 0.928143 5.87341e-16
  outer loop
    vertex 0.04399538452907857 0.009596879869916152 0
    vertex 0.04686785948239219 0.00844489441865222 0.005705392625288044
    vertex 0.05197198904436656 0.006397919913277435 0
  endloop
endfacet
facet normal 0.372225 0.928143 -6.75741e-17
  outer loop
    vertex 0.04686785948239219 0.00844489441865222 0.005705392625288044
    vertex 0.04146905645957319 0.01061004559929271 0.006353718571471552
    vertex 0.04522147300102385 0.00910516589343255 0.01236795482778772
  endloop
endfacet
facet normal 0.372225 0.928143 -1.91388e-16
  outer loop
    vertex 0.04686785948239219 0.00844489441865222 0.005705392625288044
    vertex 0.04522147300102385 0.00910516589343255 0.01236795482778772
    vertex 0.05197198904436656 0.006397919913277435 0.01000000000000003
  endloop
endfacet
facet normal 0.372225 0.928143 -1.04151e-15
  outer loop
    vertex 0.04522147300102385 0.00910516589343255 0.01236795482778772
    vertex 0.04014702722458348 0.0111402359297939 0.01501957469444839
    vertex 0.04399538452907858 0.009596879869916152 0.02
  endloop
endfacet
facet normal 0.372225 0.928143 5.41527e-16
  outer loop
    vertex 0.04399538452907857 0.009596879869916152 0
    vertex 0.04146905645957319 0.01061004559929271 0.006353718571471552
    vertex 0.04686785948239219 0.00844489441865222 0.005705392625288044
  endloop
endfacet
endsolid Created by Gmsh
