solid Created by Gmsh
facet normal 0.999427 -0.0338338 0
  outer loop
    vertex 0.009556301138578173 0.04597207408474416 0.02
    vertex 0.009264356996887308 0.03734824327351634 0.01168929916656782
    vertex 0.009556301138578173 0.04597207408474416 0.009999999999999972
  endloop
endfacet
facet normal 0.999427 -0.0338338 0
  outer loop
    vertex 0.008 0 0
    vertex 0.008291944141690861 0.008623830811227823 0.008310700833432178
    vertex 0.008 0 0.01000000000000003
  endloop
endfacet
facet normal 0.999427 -0.0338338 -1.97201e-16
  outer loop
    vertex 0.00916722585393363 0.03447905556355813 0.02
    vertex 0.009264356996887308 0.03734824327351634 0.01168929916656782
    vertex 0.009556301138578173 0.04597207408474416 0.02
  endloop
endfacet
facet normal 0.999427 -0.0338338 2.37085e-16
  outer loop
    vertex 0.008389075284644543 0.01149301852118603 0
    vertex 0.008291944141690861 0.008623830811227823 0.008310700833432178
    vertex 0.008 0 0
  endloop
endfacet
facet normal 0.999427 -0.0338338 -1.2067e-16
  outer loop
    vertex 0.008778150569289087 0.0229860370423721 0.02
    vertex 0.008959159531143497 0.02833291830982138 0.01023348454458397
    vertex 0.00916722585393363 0.03447905556355813 0.02
  endloop
endfacet
facet normal 0.999427 -0.0338338 2.46496e-16
  outer loop
    vertex 0.008778150569289087 0.02298603704237206 0
    vertex 0.008599847343528245 0.01771908137355152 0.009711608100935997
    vertex 0.008389075284644543 0.01149301852118603 0
  endloop
endfacet
facet normal 0.999427 -0.0338338 -1.17299e-16
  outer loop
    vertex 0.008599847343528245 0.01771908137355152 0.009711608100935997
    vertex 0.008959159531143497 0.02833291830982138 0.01023348454458397
    vertex 0.008778150569289087 0.0229860370423721 0.02
  endloop
endfacet
facet normal 0.999427 -0.0338338 2.35983e-16
  outer loop
    vertex 0.008778150569289087 0.02298603704237206 0
    vertex 0.008959159531143497 0.02833291830982138 0.01023348454458397
    vertex 0.008599847343528245 0.01771908137355152 0.009711608100935997
  endloop
endfacet
facet normal 0.999427 -0.0338338 1.8714e-16
  outer loop
    vertex 0.00916722585393363 0.03447905556355812 0
    vertex 0.008959159531143497 0.02833291830982138 0.01023348454458397
    vertex 0.008778150569289087 0.02298603704237206 0
  endloop
endfacet
facet normal 0.999427 -0.0338338 -1.57504e-16
  outer loop
    vertex 0.008389075284644543 0.01149301852118604 0.02
    vertex 0.008599847343528245 0.01771908137355152 0.009711608100935997
    vertex 0.008778150569289087 0.0229860370423721 0.02
  endloop
endfacet
facet normal 0.999427 -0.0338338 6.58679e-17
  outer loop
    vertex 0.00916722585393363 0.03447905556355812 0
    vertex 0.0093716151678595 0.04051657648352261 0.00499999999999999
    vertex 0.009264356996887308 0.03734824327351634 0.01168929916656782
  endloop
endfacet
facet normal 0.999427 -0.0338338 -7.15137e-17
  outer loop
    vertex 0.008389075284644543 0.01149301852118604 0.02
    vertex 0.008184685970718667 0.005455497601221538 0.01500000000000001
    vertex 0.008291944141690861 0.008623830811227823 0.008310700833432178
  endloop
endfacet
facet normal 0.999427 -0.0338338 -1.61369e-16
  outer loop
    vertex 0.008389075284644543 0.01149301852118604 0.02
    vertex 0.008291944141690861 0.008623830811227823 0.008310700833432178
    vertex 0.008599847343528245 0.01771908137355152 0.009711608100935997
  endloop
endfacet
facet normal 0.999427 -0.0338338 1.56837e-16
  outer loop
    vertex 0.00916722585393363 0.03447905556355812 0
    vertex 0.009264356996887308 0.03734824327351634 0.01168929916656782
    vertex 0.008959159531143497 0.02833291830982138 0.01023348454458397
  endloop
endfacet
facet normal 0.999427 -0.0338338 -4.64043e-16
  outer loop
    vertex 0.008 0 0.02
    vertex 0.008184685970718667 0.005455497601221538 0.01500000000000001
    vertex 0.008389075284644543 0.01149301852118604 0.02
  endloop
endfacet
facet normal 0.999427 -0.0338338 5.08237e-16
  outer loop
    vertex 0.009556301138578173 0.04597207408474416 0
    vertex 0.0093716151678595 0.04051657648352261 0.00499999999999999
    vertex 0.00916722585393363 0.03447905556355812 0
  endloop
endfacet
facet normal 0.999427 -0.0338338 -1.7391e-16
  outer loop
    vertex 0.008959159531143497 0.02833291830982138 0.01023348454458397
    vertex 0.009264356996887308 0.03734824327351634 0.01168929916656782
    vertex 0.00916722585393363 0.03447905556355813 0.02
  endloop
endfacet
facet normal 0.999427 -0.0338338 2.44583e-16
  outer loop
    vertex 0.008599847343528245 0.01771908137355152 0.009711608100935997
    vertex 0.008291944141690861 0.008623830811227823 0.008310700833432178
    vertex 0.008389075284644543 0.01149301852118603 0
  endloop
endfacet
facet normal 0.999427 -0.0338338 0
  outer loop
    vertex 0.009556301138578173 0.04597207408474416 0.009999999999999972
    vertex 0.0093716151678595 0.04051657648352261 0.00499999999999999
    vertex 0.009556301138578173 0.04597207408474416 0
  endloop
endfacet
facet normal 0.999427 -0.0338338 0
  outer loop
    vertex 0.008 0 0.01000000000000003
    vertex 0.008184685970718667 0.005455497601221538 0.01500000000000001
    vertex 0.008 0 0.02
  endloop
endfacet
facet normal 0.999427 -0.0338338 -2.28479e-16
  outer loop
    vertex 0.009264356996887308 0.03734824327351634 0.01168929916656782
    vertex 0.0093716151678595 0.04051657648352261 0.00499999999999999
    vertex 0.009556301138578173 0.04597207408474416 0.009999999999999972
  endloop
endfacet
facet normal 0.999427 -0.0338338 1.94106e-16
  outer loop
    vertex 0.008291944141690861 0.008623830811227823 0.008310700833432178
    vertex 0.008184685970718667 0.005455497601221538 0.01500000000000001
    vertex 0.008 0 0.01000000000000003
  endloop
endfacet
endsolid Created by Gmsh
