solid Created by Gmsh
facet normal 1 0 0
  outer loop
    vertex 0.04 0.05822824728049784 0
    vertex 0.04 0.06 0
    vertex 0.04 0.06 0.009999999999999972
  endloop
endfacet
facet normal 1 0 0
  outer loop
    vertex 0.04 0.05822824728049784 0.01000000000000003
    vertex 0.04 0.06 0.02
    vertex 0.04 0.05822824728049784 0.02
  endloop
endfacet
facet normal 1 0 -0
  outer loop
    vertex 0.04 0.06 0.009999999999999972
    vertex 0.04 0.06 0.02
    vertex 0.04 0.05822824728049784 0.01000000000000003
  endloop
endfacet
facet normal 1 0 0
  outer loop
    vertex 0.04 0.05822824728049784 0
    vertex 0.04 0.06 0.009999999999999972
    vertex 0.04 0.05822824728049784 0.01000000000000003
  endloop
endfacet
facet normal 0.757161 0.653228 0
  outer loop
    vertex 0.04 0.05822824728049784 0.02
    vertex 0.04313971831850172 0.05458898182546672 0.015
    vertex 0.04 0.05822824728049784 0.009999999999999972
  endloop
endfacet
facet normal 0.757161 0.653228 -0
  outer loop
    vertex 0.04627943663700347 0.05094971637043561 0
    vertex 0.04313971831850173 0.05458898182546672 0.004999999999999999
    vertex 0.04627943663700347 0.05094971637043561 0.01000000000000003
  endloop
endfacet
facet normal 0.757161 0.653228 0
  outer loop
    vertex 0.04 0.05822824728049784 0.009999999999999972
    vertex 0.04313971831850173 0.05458898182546672 0.004999999999999999
    vertex 0.04 0.05822824728049784 0
  endloop
endfacet
facet normal 0.757161 0.653228 -0
  outer loop
    vertex 0.04627943663700347 0.05094971637043561 0.01000000000000003
    vertex 0.04313971831850172 0.05458898182546672 0.015
    vertex 0.04627943663700347 0.05094971637043561 0.02
  endloop
endfacet
facet normal 0.757161 0.653228 -2.04424e-15
  outer loop
    vertex 0.04627943663700347 0.05094971637043561 0.01000000000000003
    vertex 0.04313971831850173 0.05458898182546672 0.004999999999999999
    vertex 0.04 0.05822824728049784 0.009999999999999972
  endloop
endfacet
facet normal 0.757161 0.653228 3.10161e-15
  outer loop
    vertex 0.04 0.05822824728049784 0.009999999999999972
    vertex 0.04313971831850172 0.05458898182546672 0.015
    vertex 0.04627943663700347 0.05094971637043561 0.01000000000000003
  endloop
endfacet
facet normal 0.757161 0.653228 2.04424e-15
  outer loop
    vertex 0.04 0.05822824728049784 0
    vertex 0.04313971831850173 0.05458898182546672 0.004999999999999999
    vertex 0.04627943663700347 0.05094971637043561 0
  endloop
endfacet
facet normal 0.757161 0.653228 -3.10161e-15
  outer loop
    vertex 0.04627943663700347 0.05094971637043561 0.02
    vertex 0.04313971831850172 0.05458898182546672 0.015
    vertex 0.04 0.05822824728049784 0.02
  endloop
endfacet
facet normal 0.526167 -0.850381 0
  outer loop
    vertex 0.04627943663700347 0.05094971637043561 0.02
    vertex 0.04216224052345725 0.04840223055191384 0.015
    vertex 0.04627943663700347 0.05094971637043561 0.009999999999999972
  endloop
endfacet
facet normal 0.526167 -0.850381 0
  outer loop
    vertex 0.03451601916972856 0.04367118546037338 0
    vertex 0.03863321528327478 0.04621867127889517 0.005000000000000001
    vertex 0.03451601916972856 0.04367118546037338 0.01000000000000003
  endloop
endfacet
facet normal 0.526167 -0.850381 0
  outer loop
    vertex 0.04627943663700347 0.05094971637043561 0.009999999999999972
    vertex 0.04239750887280275 0.04854780117011508 0.004999999999999991
    vertex 0.04627943663700347 0.05094971637043561 0
  endloop
endfacet
facet normal 0.526167 -0.850381 0
  outer loop
    vertex 0.03451601916972856 0.04367118546037338 0.01000000000000003
    vertex 0.03839794693392928 0.04607310066069392 0.015
    vertex 0.03451601916972856 0.04367118546037338 0.02
  endloop
endfacet
facet normal 0.526167 -0.850381 1.56755e-15
  outer loop
    vertex 0.04039772790336602 0.04731045091540449 0
    vertex 0.03863321528327478 0.04621867127889517 0.005000000000000001
    vertex 0.03451601916972856 0.04367118546037338 0
  endloop
endfacet
facet normal 0.526167 -0.850381 -7.83773e-16
  outer loop
    vertex 0.04039772790336602 0.0473104509154045 0.02
    vertex 0.04216224052345725 0.04840223055191384 0.015
    vertex 0.04627943663700347 0.05094971637043561 0.02
  endloop
endfacet
facet normal 0.526167 -0.850381 -2.93915e-16
  outer loop
    vertex 0.03451601916972856 0.04367118546037338 0.02
    vertex 0.03839794693392928 0.04607310066069392 0.015
    vertex 0.04039772790336602 0.0473104509154045 0.02
  endloop
endfacet
facet normal 0.526167 -0.850381 1.3716e-15
  outer loop
    vertex 0.04627943663700347 0.05094971637043561 0
    vertex 0.04239750887280275 0.04854780117011508 0.004999999999999991
    vertex 0.04039772790336602 0.04731045091540449 0
  endloop
endfacet
facet normal 0.526167 -0.850381 -3.63567e-16
  outer loop
    vertex 0.04039772790336602 0.0473104509154045 0.02
    vertex 0.03839794693392928 0.04607310066069392 0.015
    vertex 0.04216224052345725 0.04840223055191384 0.015
  endloop
endfacet
facet normal 0.526167 -0.850381 1.64562e-15
  outer loop
    vertex 0.04039772790336602 0.04731045091540449 0
    vertex 0.04239750887280275 0.04854780117011508 0.004999999999999991
    vertex 0.03863321528327478 0.04621867127889517 0.005000000000000001
  endloop
endfacet
facet normal 0.526167 -0.850381 -8.41944e-16
  outer loop
    vertex 0.03839794693392928 0.04607310066069392 0.015
    vertex 0.04039772790336602 0.04731045091540451 0.009999999999999998
    vertex 0.04216224052345725 0.04840223055191384 0.015
  endloop
endfacet
facet normal 0.526167 -0.850381 6.88863e-16
  outer loop
    vertex 0.04239750887280275 0.04854780117011508 0.004999999999999991
    vertex 0.04039772790336602 0.04731045091540451 0.009999999999999998
    vertex 0.03863321528327478 0.04621867127889517 0.005000000000000001
  endloop
endfacet
facet normal 0.526167 -0.850381 -4.89858e-16
  outer loop
    vertex 0.03451601916972856 0.04367118546037338 0.01000000000000003
    vertex 0.04039772790336602 0.04731045091540451 0.009999999999999998
    vertex 0.03839794693392928 0.04607310066069392 0.015
  endloop
endfacet
facet normal 0.526167 -0.850381 7.34787e-17
  outer loop
    vertex 0.03863321528327478 0.04621867127889517 0.005000000000000001
    vertex 0.04039772790336602 0.04731045091540451 0.009999999999999998
    vertex 0.03451601916972856 0.04367118546037338 0.01000000000000003
  endloop
endfacet
facet normal 0.526167 -0.850381 -2.44929e-17
  outer loop
    vertex 0.04216224052345725 0.04840223055191384 0.015
    vertex 0.04039772790336602 0.04731045091540451 0.009999999999999998
    vertex 0.04627943663700347 0.05094971637043561 0.009999999999999972
  endloop
endfacet
facet normal 0.526167 -0.850381 1.95943e-16
  outer loop
    vertex 0.04627943663700347 0.05094971637043561 0.009999999999999972
    vertex 0.04039772790336602 0.04731045091540451 0.009999999999999998
    vertex 0.04239750887280275 0.04854780117011508 0.004999999999999991
  endloop
endfacet
facet normal 0.787592 0.616197 0
  outer loop
    vertex 0.03451601916972856 0.04367118546037338 0.02
    vertex 0.03736331215704725 0.04003192000534227 0.015
    vertex 0.03451601916972856 0.04367118546037338 0.009999999999999972
  endloop
endfacet
facet normal 0.787592 0.616197 -0
  outer loop
    vertex 0.04021060514436594 0.03639265455031115 0
    vertex 0.03736331215704725 0.04003192000534227 0.005000000000000001
    vertex 0.04021060514436594 0.03639265455031115 0.01000000000000003
  endloop
endfacet
facet normal 0.787592 0.616197 0
  outer loop
    vertex 0.03451601916972856 0.04367118546037338 0.009999999999999972
    vertex 0.03736331215704725 0.04003192000534227 0.005000000000000001
    vertex 0.03451601916972856 0.04367118546037338 0
  endloop
endfacet
facet normal 0.787592 0.616197 -0
  outer loop
    vertex 0.04021060514436594 0.03639265455031115 0.01000000000000003
    vertex 0.03736331215704725 0.04003192000534227 0.015
    vertex 0.04021060514436594 0.03639265455031115 0.02
  endloop
endfacet
facet normal 0.787592 0.616197 1.39316e-15
  outer loop
    vertex 0.04021060514436594 0.03639265455031115 0.01000000000000003
    vertex 0.03736331215704725 0.04003192000534227 0.005000000000000001
    vertex 0.03451601916972856 0.04367118546037338 0.009999999999999972
  endloop
endfacet
facet normal 0.787592 0.616197 -1.39316e-15
  outer loop
    vertex 0.03451601916972856 0.04367118546037338 0.009999999999999972
    vertex 0.03736331215704725 0.04003192000534227 0.015
    vertex 0.04021060514436594 0.03639265455031115 0.01000000000000003
  endloop
endfacet
facet normal 0.787592 0.616197 -1.39316e-15
  outer loop
    vertex 0.03451601916972856 0.04367118546037338 0
    vertex 0.03736331215704725 0.04003192000534227 0.005000000000000001
    vertex 0.04021060514436594 0.03639265455031115 0
  endloop
endfacet
facet normal 0.787592 0.616197 1.39316e-15
  outer loop
    vertex 0.04021060514436594 0.03639265455031115 0.02
    vertex 0.03736331215704725 0.04003192000534227 0.015
    vertex 0.03451601916972856 0.04367118546037338 0.02
  endloop
endfacet
facet normal 0.737954 -0.674851 0
  outer loop
    vertex 0.04021060514436594 0.03639265455031115 0.02
    vertex 0.03688254009716057 0.03275338909528003 0.015
    vertex 0.04021060514436594 0.03639265455031115 0.009999999999999972
  endloop
endfacet
facet normal 0.737954 -0.674851 0
  outer loop
    vertex 0.03355447504995519 0.02911412364024892 0
    vertex 0.03688254009716057 0.03275338909528003 0.005000000000000001
    vertex 0.03355447504995519 0.02911412364024892 0.01000000000000003
  endloop
endfacet
facet normal 0.737954 -0.674851 0
  outer loop
    vertex 0.04021060514436594 0.03639265455031115 0.009999999999999972
    vertex 0.03688254009716057 0.03275338909528003 0.005000000000000001
    vertex 0.04021060514436594 0.03639265455031115 0
  endloop
endfacet
facet normal 0.737954 -0.674851 0
  outer loop
    vertex 0.03355447504995519 0.02911412364024892 0.01000000000000003
    vertex 0.03688254009716057 0.03275338909528003 0.015
    vertex 0.03355447504995519 0.02911412364024892 0.02
  endloop
endfacet
facet normal 0.737954 -0.674851 -1.44276e-15
  outer loop
    vertex 0.04021060514436594 0.03639265455031115 0
    vertex 0.03688254009716057 0.03275338909528003 0.005000000000000001
    vertex 0.03355447504995519 0.02911412364024892 0
  endloop
endfacet
facet normal 0.737954 -0.674851 1.51147e-15
  outer loop
    vertex 0.03355447504995519 0.02911412364024892 0.02
    vertex 0.03688254009716057 0.03275338909528003 0.015
    vertex 0.04021060514436594 0.03639265455031115 0.02
  endloop
endfacet
facet normal 0.737954 -0.674851 1.51147e-15
  outer loop
    vertex 0.03355447504995519 0.02911412364024892 0.01000000000000003
    vertex 0.03688254009716057 0.03275338909528003 0.005000000000000001
    vertex 0.04021060514436594 0.03639265455031115 0.009999999999999972
  endloop
endfacet
facet normal 0.737954 -0.674851 -1.44276e-15
  outer loop
    vertex 0.04021060514436594 0.03639265455031115 0.009999999999999972
    vertex 0.03688254009716057 0.03275338909528003 0.015
    vertex 0.03355447504995519 0.02911412364024892 0.01000000000000003
  endloop
endfacet
facet normal 0.859499 0.511138 0
  outer loop
    vertex 0.03355447504995519 0.02911412364024892 0.02
    vertex 0.0357187206221423 0.02547485818521781 0.015
    vertex 0.03355447504995519 0.02911412364024892 0.009999999999999972
  endloop
endfacet
facet normal 0.859499 0.511138 -0
  outer loop
    vertex 0.03788296619432941 0.02183559273018669 0
    vertex 0.0357187206221423 0.02547485818521781 0.004999999999999999
    vertex 0.03788296619432941 0.02183559273018669 0.01000000000000003
  endloop
endfacet
facet normal 0.859499 0.511138 0
  outer loop
    vertex 0.03355447504995519 0.02911412364024892 0.009999999999999972
    vertex 0.0357187206221423 0.02547485818521781 0.004999999999999999
    vertex 0.03355447504995519 0.02911412364024892 0
  endloop
endfacet
facet normal 0.859499 0.511138 -0
  outer loop
    vertex 0.03788296619432941 0.02183559273018669 0.01000000000000003
    vertex 0.0357187206221423 0.02547485818521781 0.015
    vertex 0.03788296619432941 0.02183559273018669 0.02
  endloop
endfacet
facet normal 0.859499 0.511138 0
  outer loop
    vertex 0.03355447504995519 0.02911412364024892 0
    vertex 0.0357187206221423 0.02547485818521781 0.004999999999999999
    vertex 0.03788296619432941 0.02183559273018669 0
  endloop
endfacet
facet normal 0.859499 0.511138 0
  outer loop
    vertex 0.03788296619432941 0.02183559273018669 0.02
    vertex 0.0357187206221423 0.02547485818521781 0.015
    vertex 0.03355447504995519 0.02911412364024892 0.02
  endloop
endfacet
facet normal 0.859499 0.511138 0
  outer loop
    vertex 0.03788296619432941 0.02183559273018669 0.01000000000000003
    vertex 0.0357187206221423 0.02547485818521781 0.004999999999999999
    vertex 0.03355447504995519 0.02911412364024892 0.009999999999999972
  endloop
endfacet
facet normal 0.859499 0.511138 0
  outer loop
    vertex 0.03355447504995519 0.02911412364024892 0.009999999999999972
    vertex 0.0357187206221423 0.02547485818521781 0.015
    vertex 0.03788296619432941 0.02183559273018669 0.01000000000000003
  endloop
endfacet
facet normal 0.720138 -0.693831 -4.69311e-16
  outer loop
    vertex 0.03788296619432941 0.02183559273018669 0
    vertex 0.03437664720125229 0.01819632727515557 0.004999999999999986
    vertex 0.03087032820817517 0.01455706182012446 0
  endloop
endfacet
facet normal 0.720138 -0.693831 4.69311e-16
  outer loop
    vertex 0.03087032820817517 0.01455706182012446 0.02
    vertex 0.03437664720125229 0.01819632727515557 0.01500000000000002
    vertex 0.03788296619432941 0.02183559273018669 0.02
  endloop
endfacet
facet normal 0.720138 -0.693831 0
  outer loop
    vertex 0.03437664720125229 0.01819632727515557 0.004999999999999986
    vertex 0.03437664720125229 0.01819632727515557 0.01500000000000002
    vertex 0.03087032820817517 0.01455706182012446 0.01000000000000003
  endloop
endfacet
facet normal 0.720138 -0.693831 0
  outer loop
    vertex 0.03788296619432941 0.02183559273018669 0.02
    vertex 0.03437664720125229 0.01819632727515557 0.01500000000000002
    vertex 0.03788296619432941 0.02183559273018669 0.009999999999999972
  endloop
endfacet
facet normal 0.720138 -0.693831 0
  outer loop
    vertex 0.03087032820817517 0.01455706182012446 0
    vertex 0.03437664720125229 0.01819632727515557 0.004999999999999986
    vertex 0.03087032820817517 0.01455706182012446 0.01000000000000003
  endloop
endfacet
facet normal 0.720138 -0.693831 0
  outer loop
    vertex 0.03788296619432941 0.02183559273018669 0.009999999999999972
    vertex 0.03437664720125229 0.01819632727515557 0.01500000000000002
    vertex 0.03437664720125229 0.01819632727515557 0.004999999999999986
  endloop
endfacet
facet normal 0.720138 -0.693831 0
  outer loop
    vertex 0.03788296619432941 0.02183559273018669 0.009999999999999972
    vertex 0.03437664720125229 0.01819632727515557 0.004999999999999986
    vertex 0.03788296619432941 0.02183559273018669 0
  endloop
endfacet
facet normal 0.720138 -0.693831 0
  outer loop
    vertex 0.03087032820817517 0.01455706182012446 0.01000000000000003
    vertex 0.03437664720125229 0.01819632727515557 0.01500000000000002
    vertex 0.03087032820817517 0.01455706182012446 0.02
  endloop
endfacet
facet normal 0.34999 0.936753 -0
  outer loop
    vertex 0.05035143245555908 0.007278530910062232 0.01000000000000003
    vertex 0.0429545496419866 0.01004215454828208 0.01219540217275465
    vertex 0.05035143245555908 0.007278530910062232 0.02
  endloop
endfacet
facet normal 0.34999 0.936753 -3.33996e-16
  outer loop
    vertex 0.05035143245555908 0.007278530910062232 0.02
    vertex 0.0429545496419866 0.01004215454828208 0.01219540217275465
    vertex 0.04061088033186713 0.01091779636509334 0.02
  endloop
endfacet
facet normal 0.34999 0.936753 4.40758e-16
  outer loop
    vertex 0.03087032820817517 0.01455706182012446 0
    vertex 0.03765730570814452 0.01202131102837673 0.007392677388668588
    vertex 0.04061088033186711 0.01091779636509335 0
  endloop
endfacet
facet normal 0.34999 0.936753 0
  outer loop
    vertex 0.03087032820817517 0.01455706182012446 0.009999999999999972
    vertex 0.03765730570814452 0.01202131102837673 0.007392677388668588
    vertex 0.03087032820817517 0.01455706182012446 0
  endloop
endfacet
facet normal 0.34999 0.936753 -6.00014e-16
  outer loop
    vertex 0.04061088033186713 0.01091779636509334 0.02
    vertex 0.03654448758226302 0.01243708217890552 0.01402644296755217
    vertex 0.03087032820817517 0.01455706182012446 0.02
  endloop
endfacet
facet normal 0.34999 0.936753 4.56174e-16
  outer loop
    vertex 0.04061088033186711 0.01091779636509335 0
    vertex 0.0454811563937131 0.009098163637577789 0.005000000000000015
    vertex 0.05035143245555908 0.007278530910062232 0
  endloop
endfacet
facet normal 0.34999 0.936753 0
  outer loop
    vertex 0.03087032820817517 0.01455706182012446 0.02
    vertex 0.03654448758226302 0.01243708217890552 0.01402644296755217
    vertex 0.03087032820817517 0.01455706182012446 0.009999999999999972
  endloop
endfacet
facet normal 0.34999 0.936753 -0
  outer loop
    vertex 0.05035143245555908 0.007278530910062232 0
    vertex 0.0454811563937131 0.009098163637577789 0.005000000000000015
    vertex 0.05035143245555908 0.007278530910062232 0.01000000000000003
  endloop
endfacet
facet normal 0.34999 0.936753 3.75068e-16
  outer loop
    vertex 0.03765730570814452 0.01202131102837673 0.007392677388668588
    vertex 0.0454811563937131 0.009098163637577789 0.005000000000000015
    vertex 0.04061088033186711 0.01091779636509335 0
  endloop
endfacet
facet normal 0.34999 0.936753 -7.89507e-17
  outer loop
    vertex 0.0429545496419866 0.01004215454828208 0.01219540217275465
    vertex 0.0454811563937131 0.009098163637577789 0.005000000000000015
    vertex 0.03765730570814452 0.01202131102837673 0.007392677388668588
  endloop
endfacet
facet normal 0.34999 0.936753 -4.16364e-16
  outer loop
    vertex 0.04061088033186713 0.01091779636509334 0.02
    vertex 0.0429545496419866 0.01004215454828208 0.01219540217275465
    vertex 0.03654448758226302 0.01243708217890552 0.01402644296755217
  endloop
endfacet
facet normal 0.34999 0.936753 -9.98553e-17
  outer loop
    vertex 0.05035143245555908 0.007278530910062232 0.01000000000000003
    vertex 0.0454811563937131 0.009098163637577789 0.005000000000000015
    vertex 0.0429545496419866 0.01004215454828208 0.01219540217275465
  endloop
endfacet
facet normal 0.34999 0.936753 -3.91976e-17
  outer loop
    vertex 0.0429545496419866 0.01004215454828208 0.01219540217275465
    vertex 0.03765730570814452 0.01202131102837673 0.007392677388668588
    vertex 0.03654448758226302 0.01243708217890552 0.01402644296755217
  endloop
endfacet
facet normal 0.34999 0.936753 8.4768e-17
  outer loop
    vertex 0.03654448758226302 0.01243708217890552 0.01402644296755217
    vertex 0.03765730570814452 0.01202131102837673 0.007392677388668588
    vertex 0.03087032820817517 0.01455706182012446 0.009999999999999972
  endloop
endfacet
endsolid Created by Gmsh
