solid Created by Gmsh
facet normal 0.998629 0.0523464 0
  outer loop
    vertex 0.00548975489178423 0.04788873235204318 0.02
    vertex 0.005960425849574688 0.03890959503603507 0.01140682497376723
    vertex 0.00548975489178423 0.04788873235204318 0.009999999999999972
  endloop
endfacet
facet normal 0.998629 0.0523464 -0
  outer loop
    vertex 0.008 0 0
    vertex 0.007529329042209545 0.008979137316008075 0.008593175026232715
    vertex 0.008 0 0.01000000000000003
  endloop
endfacet
facet normal 0.998629 0.0523464 3.6999e-17
  outer loop
    vertex 0.006117316168838172 0.03591654926403241 0.02
    vertex 0.005960425849574688 0.03890959503603507 0.01140682497376723
    vertex 0.00548975489178423 0.04788873235204318 0.02
  endloop
endfacet
facet normal 0.998629 0.0523464 -1.27441e-16
  outer loop
    vertex 0.007372438722946058 0.01197218308801078 0
    vertex 0.007529329042209545 0.008979137316008075 0.008593175026232715
    vertex 0.008 0 0
  endloop
endfacet
facet normal 0.998629 0.0523464 5.06446e-17
  outer loop
    vertex 0.006744877445892112 0.02394436617602164 0.02
    vertex 0.006457245193909059 0.02943161675802653 0.0102344708289612
    vertex 0.006117316168838172 0.03591654926403241 0.02
  endloop
endfacet
facet normal 0.998629 0.0523464 4.85093e-17
  outer loop
    vertex 0.007372438722946056 0.01197218308801083 0.02
    vertex 0.007036867762299158 0.01837397543368323 0.009804607642532321
    vertex 0.006744877445892112 0.02394436617602164 0.02
  endloop
endfacet
facet normal 0.998629 0.0523464 7.09093e-17
  outer loop
    vertex 0.006744877445892112 0.02394436617602164 0.02
    vertex 0.007036867762299158 0.01837397543368323 0.009804607642532321
    vertex 0.006457245193909059 0.02943161675802653 0.0102344708289612
  endloop
endfacet
facet normal 0.998629 0.0523464 -1.14503e-17
  outer loop
    vertex 0.006457245193909059 0.02943161675802653 0.0102344708289612
    vertex 0.007036867762299158 0.01837397543368323 0.009804607642532321
    vertex 0.006744877445892118 0.02394436617602154 0
  endloop
endfacet
facet normal 0.998629 0.0523464 -2.88244e-17
  outer loop
    vertex 0.006744877445892118 0.02394436617602154 0
    vertex 0.007036867762299158 0.01837397543368323 0.009804607642532321
    vertex 0.007372438722946058 0.01197218308801078 0
  endloop
endfacet
facet normal 0.998629 0.0523464 -3.45172e-17
  outer loop
    vertex 0.006117316168838175 0.03591654926403235 0
    vertex 0.006457245193909059 0.02943161675802653 0.0102344708289612
    vertex 0.006744877445892118 0.02394436617602154 0
  endloop
endfacet
facet normal 0.998629 0.0523464 -1.30886e-16
  outer loop
    vertex 0.00548975489178423 0.04788873235204318 0
    vertex 0.005769073188391478 0.04256008970138163 0.005128172829242631
    vertex 0.006117316168838175 0.03591654926403235 0
  endloop
endfacet
facet normal 0.998629 0.0523464 1.79107e-16
  outer loop
    vertex 0.008 0 0.02
    vertex 0.007720681703392753 0.005328642650661568 0.01487182717075737
    vertex 0.007372438722946056 0.01197218308801083 0.02
  endloop
endfacet
facet normal 0.998629 0.0523464 6.73989e-17
  outer loop
    vertex 0.007372438722946056 0.01197218308801083 0.02
    vertex 0.007529329042209545 0.008979137316008075 0.008593175026232715
    vertex 0.007036867762299158 0.01837397543368323 0.009804607642532321
  endloop
endfacet
facet normal 0.998629 0.0523464 -4.64966e-17
  outer loop
    vertex 0.006117316168838175 0.03591654926403235 0
    vertex 0.005960425849574688 0.03890959503603507 0.01140682497376723
    vertex 0.006457245193909059 0.02943161675802653 0.0102344708289612
  endloop
endfacet
facet normal 0.998629 0.0523464 5.59875e-17
  outer loop
    vertex 0.007372438722946056 0.01197218308801083 0.02
    vertex 0.007720681703392753 0.005328642650661568 0.01487182717075737
    vertex 0.007529329042209545 0.008979137316008075 0.008593175026232715
  endloop
endfacet
facet normal 0.998629 0.0523464 -2.44946e-17
  outer loop
    vertex 0.006117316168838175 0.03591654926403235 0
    vertex 0.005769073188391478 0.04256008970138163 0.005128172829242631
    vertex 0.005960425849574688 0.03890959503603507 0.01140682497376723
  endloop
endfacet
facet normal 0.998629 0.0523464 2.48918e-17
  outer loop
    vertex 0.006457245193909059 0.02943161675802653 0.0102344708289612
    vertex 0.005960425849574688 0.03890959503603507 0.01140682497376723
    vertex 0.006117316168838172 0.03591654926403241 0.02
  endloop
endfacet
facet normal 0.998629 0.0523464 -1.05286e-16
  outer loop
    vertex 0.007036867762299158 0.01837397543368323 0.009804607642532321
    vertex 0.007529329042209545 0.008979137316008075 0.008593175026232715
    vertex 0.007372438722946058 0.01197218308801078 0
  endloop
endfacet
facet normal 0.998629 0.0523464 -0
  outer loop
    vertex 0.008 0 0.01000000000000003
    vertex 0.007720681703392753 0.005328642650661568 0.01487182717075737
    vertex 0.008 0 0.02
  endloop
endfacet
facet normal 0.998629 0.0523464 0
  outer loop
    vertex 0.00548975489178423 0.04788873235204318 0.009999999999999972
    vertex 0.005769073188391478 0.04256008970138163 0.005128172829242631
    vertex 0.00548975489178423 0.04788873235204318 0
  endloop
endfacet
facet normal 0.998629 0.0523464 6.19036e-17
  outer loop
    vertex 0.005960425849574688 0.03890959503603507 0.01140682497376723
    vertex 0.005769073188391478 0.04256008970138163 0.005128172829242631
    vertex 0.00548975489178423 0.04788873235204318 0.009999999999999972
  endloop
endfacet
facet normal 0.998629 0.0523464 -6.19036e-17
  outer loop
    vertex 0.007529329042209545 0.008979137316008075 0.008593175026232715
    vertex 0.007720681703392753 0.005328642650661568 0.01487182717075737
    vertex 0.008 0 0.01000000000000003
  endloop
endfacet
endsolid Created by Gmsh
