solid Created by Gmsh
facet normal 1 0 0
  outer loop
    vertex 0.04 0.05721745686255057 0
    vertex 0.04 0.06 0
    vertex 0.04 0.06 0.009999999999999972
  endloop
endfacet
facet normal 1 0 0
  outer loop
    vertex 0.04 0.05721745686255057 0.01000000000000003
    vertex 0.04 0.06 0.02
    vertex 0.04 0.05721745686255057 0.02
  endloop
endfacet
facet normal 1 0 -0
  outer loop
    vertex 0.04 0.06 0.009999999999999972
    vertex 0.04 0.06 0.02
    vertex 0.04 0.05721745686255057 0.01000000000000003
  endloop
endfacet
facet normal 1 0 0
  outer loop
    vertex 0.04 0.05721745686255057 0
    vertex 0.04 0.06 0.009999999999999972
    vertex 0.04 0.05721745686255057 0.01000000000000003
  endloop
endfacet
facet normal 0.548852 0.835919 1.04001e-16
  outer loop
    vertex 0.04544650162520836 0.05364136580864116 0
    vertex 0.04 0.05721745686255057 0.009999999999999972
    vertex 0.05089300325041672 0.05006527475473175 0.01000000000000003
  endloop
endfacet
facet normal 0.548852 0.835919 1.04001e-16
  outer loop
    vertex 0.05089300325041672 0.05006527475473175 0.01000000000000003
    vertex 0.04 0.05721745686255057 0.009999999999999972
    vertex 0.04544650162520836 0.05364136580864116 0.02
  endloop
endfacet
facet normal 0.548852 0.835919 0
  outer loop
    vertex 0.04544650162520836 0.05364136580864116 0
    vertex 0.04 0.05721745686255057 0
    vertex 0.04 0.05721745686255057 0.009999999999999972
  endloop
endfacet
facet normal 0.548852 0.835919 -0
  outer loop
    vertex 0.04 0.05721745686255057 0.009999999999999972
    vertex 0.04 0.05721745686255057 0.02
    vertex 0.04544650162520836 0.05364136580864116 0.02
  endloop
endfacet
facet normal 0.548852 0.835919 0
  outer loop
    vertex 0.05089300325041672 0.05006527475473175 0.01000000000000003
    vertex 0.05089300325041672 0.05006527475473175 0
    vertex 0.04544650162520836 0.05364136580864116 0
  endloop
endfacet
facet normal 0.548852 0.835919 0
  outer loop
    vertex 0.04544650162520836 0.05364136580864116 0.02
    vertex 0.05089300325041672 0.05006527475473175 0.02
    vertex 0.05089300325041672 0.05006527475473175 0.01000000000000003
  endloop
endfacet
facet normal 0.421609 -0.906778 1.28538e-15
  outer loop
    vertex 0.05089300325041672 0.05006527475473175 0
    vertex 0.04463318101763928 0.04715475111904519 0.007458319754620506
    vertex 0.04320170880043435 0.04648918370082233 0
  endloop
endfacet
facet normal 0.421609 -0.906778 0
  outer loop
    vertex 0.05089300325041672 0.05006527475473175 0.009999999999999972
    vertex 0.04463318101763928 0.04715475111904519 0.007458319754620506
    vertex 0.05089300325041672 0.05006527475473175 0
  endloop
endfacet
facet normal 0.421609 -0.906778 0
  outer loop
    vertex 0.035510414350452 0.04291309264691293 0.01000000000000003
    vertex 0.04108844253402014 0.04550661403858951 0.01372463789292947
    vertex 0.035510414350452 0.04291309264691293 0.02
  endloop
endfacet
facet normal 0.421609 -0.906778 0
  outer loop
    vertex 0.035510414350452 0.04291309264691293 0
    vertex 0.03958666311886751 0.04480835707204145 0.005101176288765212
    vertex 0.035510414350452 0.04291309264691293 0.01000000000000003
  endloop
endfacet
facet normal 0.421609 -0.906778 0
  outer loop
    vertex 0.05089300325041672 0.05006527475473175 0.02
    vertex 0.04601518988214649 0.04779732039901848 0.01431506648473044
    vertex 0.05089300325041672 0.05006527475473175 0.009999999999999972
  endloop
endfacet
facet normal 0.421609 -0.906778 -1.84595e-15
  outer loop
    vertex 0.035510414350452 0.04291309264691293 0.02
    vertex 0.04108844253402014 0.04550661403858951 0.01372463789292947
    vertex 0.04320170880043437 0.04648918370082234 0.02
  endloop
endfacet
facet normal 0.421609 -0.906778 2.68969e-16
  outer loop
    vertex 0.04108844253402014 0.04550661403858951 0.01372463789292947
    vertex 0.03958666311886751 0.04480835707204145 0.005101176288765212
    vertex 0.04463318101763928 0.04715475111904519 0.007458319754620506
  endloop
endfacet
facet normal 0.421609 -0.906778 3.61374e-17
  outer loop
    vertex 0.035510414350452 0.04291309264691293 0.01000000000000003
    vertex 0.03958666311886751 0.04480835707204145 0.005101176288765212
    vertex 0.04108844253402014 0.04550661403858951 0.01372463789292947
  endloop
endfacet
facet normal 0.421609 -0.906778 1.33119e-15
  outer loop
    vertex 0.04320170880043435 0.04648918370082233 0
    vertex 0.03958666311886751 0.04480835707204145 0.005101176288765212
    vertex 0.035510414350452 0.04291309264691293 0
  endloop
endfacet
facet normal 0.421609 -0.906778 -2.14307e-15
  outer loop
    vertex 0.04320170880043437 0.04648918370082234 0.02
    vertex 0.04601518988214649 0.04779732039901848 0.01431506648473044
    vertex 0.05089300325041672 0.05006527475473175 0.02
  endloop
endfacet
facet normal 0.421609 -0.906778 4.77494e-16
  outer loop
    vertex 0.04601518988214649 0.04779732039901848 0.01431506648473044
    vertex 0.04463318101763928 0.04715475111904519 0.007458319754620506
    vertex 0.05089300325041672 0.05006527475473175 0.009999999999999972
  endloop
endfacet
facet normal 0.421609 -0.906778 1.2553e-15
  outer loop
    vertex 0.04463318101763928 0.04715475111904519 0.007458319754620506
    vertex 0.03958666311886751 0.04480835707204145 0.005101176288765212
    vertex 0.04320170880043435 0.04648918370082233 0
  endloop
endfacet
facet normal 0.421609 -0.906778 6.98977e-17
  outer loop
    vertex 0.04601518988214649 0.04779732039901848 0.01431506648473044
    vertex 0.04108844253402014 0.04550661403858951 0.01372463789292947
    vertex 0.04463318101763928 0.04715475111904519 0.007458319754620506
  endloop
endfacet
facet normal 0.421609 -0.906778 -2.01924e-15
  outer loop
    vertex 0.04320170880043437 0.04648918370082234 0.02
    vertex 0.04108844253402014 0.04550661403858951 0.01372463789292947
    vertex 0.04601518988214649 0.04779732039901848 0.01431506648473044
  endloop
endfacet
facet normal 0.525472 0.850811 0
  outer loop
    vertex 0.035510414350452 0.04291309264691293 0.02
    vertex 0.03956353559169209 0.04040982890917633 0.015
    vertex 0.035510414350452 0.04291309264691293 0.009999999999999972
  endloop
endfacet
facet normal 0.525472 0.850811 -0
  outer loop
    vertex 0.0470907607539951 0.03576091053909411 0
    vertex 0.04303763951275501 0.0382641742768307 0.005000000000000005
    vertex 0.0470907607539951 0.03576091053909411 0.01000000000000003
  endloop
endfacet
facet normal 0.525472 0.850811 0
  outer loop
    vertex 0.035510414350452 0.04291309264691293 0.009999999999999972
    vertex 0.03933192866362122 0.04055287255133271 0.004999999999999998
    vertex 0.035510414350452 0.04291309264691293 0
  endloop
endfacet
facet normal 0.525472 0.850811 -0
  outer loop
    vertex 0.0470907607539951 0.03576091053909411 0.01000000000000003
    vertex 0.04326924644082588 0.03812113063467432 0.01500000000000001
    vertex 0.0470907607539951 0.03576091053909411 0.02
  endloop
endfacet
facet normal 0.525472 0.850811 -4.23176e-16
  outer loop
    vertex 0.04130058755222354 0.03933700159300352 0
    vertex 0.04303763951275501 0.0382641742768307 0.005000000000000005
    vertex 0.0470907607539951 0.03576091053909411 0
  endloop
endfacet
facet normal 0.525472 0.850811 -8.96136e-16
  outer loop
    vertex 0.04130058755222355 0.03933700159300352 0.02
    vertex 0.03956353559169209 0.04040982890917633 0.015
    vertex 0.035510414350452 0.04291309264691293 0.02
  endloop
endfacet
facet normal 0.525472 0.850811 -1.49356e-16
  outer loop
    vertex 0.0470907607539951 0.03576091053909411 0.02
    vertex 0.04326924644082588 0.03812113063467432 0.01500000000000001
    vertex 0.04130058755222355 0.03933700159300352 0.02
  endloop
endfacet
facet normal 0.525472 0.850811 2.98712e-16
  outer loop
    vertex 0.035510414350452 0.04291309264691293 0
    vertex 0.03933192866362122 0.04055287255133271 0.004999999999999998
    vertex 0.04130058755222354 0.03933700159300352 0
  endloop
endfacet
facet normal 0.525472 0.850811 -2.13921e-16
  outer loop
    vertex 0.04130058755222354 0.03933700159300352 0
    vertex 0.03933192866362122 0.04055287255133271 0.004999999999999998
    vertex 0.04303763951275501 0.0382641742768307 0.005000000000000005
  endloop
endfacet
facet normal 0.525472 0.850811 -6.61212e-16
  outer loop
    vertex 0.04130058755222355 0.03933700159300352 0.02
    vertex 0.04326924644082588 0.03812113063467432 0.01500000000000001
    vertex 0.03956353559169209 0.04040982890917633 0.015
  endloop
endfacet
facet normal 0.525472 0.850811 -5.05633e-16
  outer loop
    vertex 0.03933192866362122 0.04055287255133271 0.004999999999999998
    vertex 0.04130058755222355 0.03933700159300352 0.01
    vertex 0.04303763951275501 0.0382641742768307 0.005000000000000005
  endloop
endfacet
facet normal 0.525472 0.850811 6.61212e-16
  outer loop
    vertex 0.04326924644082588 0.03812113063467432 0.01500000000000001
    vertex 0.04130058755222355 0.03933700159300352 0.01
    vertex 0.03956353559169209 0.04040982890917633 0.015
  endloop
endfacet
facet normal 0.525472 0.850811 -7.96566e-16
  outer loop
    vertex 0.035510414350452 0.04291309264691293 0.009999999999999972
    vertex 0.04130058755222355 0.03933700159300352 0.01
    vertex 0.03933192866362122 0.04055287255133271 0.004999999999999998
  endloop
endfacet
facet normal 0.525472 0.850811 8.96136e-16
  outer loop
    vertex 0.03956353559169209 0.04040982890917633 0.015
    vertex 0.04130058755222355 0.03933700159300352 0.01
    vertex 0.035510414350452 0.04291309264691293 0.009999999999999972
  endloop
endfacet
facet normal 0.525472 0.850811 -7.4678e-17
  outer loop
    vertex 0.04303763951275501 0.0382641742768307 0.005000000000000005
    vertex 0.04130058755222355 0.03933700159300352 0.01
    vertex 0.0470907607539951 0.03576091053909411 0.01000000000000003
  endloop
endfacet
facet normal 0.525472 0.850811 1.49356e-16
  outer loop
    vertex 0.0470907607539951 0.03576091053909411 0.01000000000000003
    vertex 0.04130058755222355 0.03933700159300352 0.01
    vertex 0.04326924644082588 0.03812113063467432 0.01500000000000001
  endloop
endfacet
facet normal 0.831515 -0.555502 0
  outer loop
    vertex 0.04231267170640048 0.02860872843127529 0
    vertex 0.04470171623019779 0.0321848194851847 0.005000000000000001
    vertex 0.04231267170640048 0.02860872843127529 0.01000000000000003
  endloop
endfacet
facet normal 0.831515 -0.555502 0
  outer loop
    vertex 0.0470907607539951 0.03576091053909411 0.02
    vertex 0.04470171623019779 0.0321848194851847 0.015
    vertex 0.0470907607539951 0.03576091053909411 0.009999999999999972
  endloop
endfacet
facet normal 0.831515 -0.555502 0
  outer loop
    vertex 0.04231267170640048 0.02860872843127529 0.01000000000000003
    vertex 0.04470171623019779 0.0321848194851847 0.015
    vertex 0.04231267170640048 0.02860872843127529 0.02
  endloop
endfacet
facet normal 0.831515 -0.555502 0
  outer loop
    vertex 0.0470907607539951 0.03576091053909411 0.009999999999999972
    vertex 0.04470171623019779 0.0321848194851847 0.005000000000000001
    vertex 0.0470907607539951 0.03576091053909411 0
  endloop
endfacet
facet normal 0.831515 -0.555502 9.45373e-16
  outer loop
    vertex 0.0470907607539951 0.03576091053909411 0
    vertex 0.04470171623019779 0.0321848194851847 0.005000000000000001
    vertex 0.04231267170640048 0.02860872843127529 0
  endloop
endfacet
facet normal 0.831515 -0.555502 -9.45373e-16
  outer loop
    vertex 0.04231267170640048 0.02860872843127529 0.01000000000000003
    vertex 0.04470171623019779 0.0321848194851847 0.005000000000000001
    vertex 0.0470907607539951 0.03576091053909411 0.009999999999999972
  endloop
endfacet
facet normal 0.831515 -0.555502 9.45373e-16
  outer loop
    vertex 0.0470907607539951 0.03576091053909411 0.009999999999999972
    vertex 0.04470171623019779 0.0321848194851847 0.015
    vertex 0.04231267170640048 0.02860872843127529 0.01000000000000003
  endloop
endfacet
facet normal 0.831515 -0.555502 -9.45373e-16
  outer loop
    vertex 0.04231267170640048 0.02860872843127529 0.02
    vertex 0.04470171623019779 0.0321848194851847 0.015
    vertex 0.0470907607539951 0.03576091053909411 0.02
  endloop
endfacet
facet normal 0.625469 0.780249 -5.172e-16
  outer loop
    vertex 0.04231267170640048 0.02860872843127529 0
    vertex 0.04677371645263789 0.02503263737736588 0.005728862973760923
    vertex 0.05123476119887529 0.02145654632345646 0
  endloop
endfacet
facet normal 0.625469 0.780249 4.17633e-16
  outer loop
    vertex 0.05123476119887529 0.02145654632345646 0.02
    vertex 0.04677371645263787 0.02503263737736589 0.01432426114969102
    vertex 0.04231267170640048 0.02860872843127529 0.02
  endloop
endfacet
facet normal 0.625469 0.780249 -0
  outer loop
    vertex 0.05123476119887529 0.02145654632345646 0
    vertex 0.04677371645263789 0.02503263737736588 0.005728862973760923
    vertex 0.05123476119887529 0.02145654632345646 0.01000000000000003
  endloop
endfacet
facet normal 0.625469 0.780249 0
  outer loop
    vertex 0.04231267170640048 0.02860872843127529 0.02
    vertex 0.04677371645263787 0.02503263737736589 0.01432426114969102
    vertex 0.04231267170640048 0.02860872843127529 0.009999999999999972
  endloop
endfacet
facet normal 0.625469 0.780249 6.50368e-17
  outer loop
    vertex 0.04677371645263789 0.02503263737736588 0.005728862973760923
    vertex 0.04677371645263787 0.02503263737736589 0.01432426114969102
    vertex 0.05123476119887529 0.02145654632345646 0.01000000000000003
  endloop
endfacet
facet normal 0.625469 0.780249 6.89432e-17
  outer loop
    vertex 0.04231267170640048 0.02860872843127529 0.009999999999999972
    vertex 0.04677371645263787 0.02503263737736589 0.01432426114969102
    vertex 0.04677371645263789 0.02503263737736588 0.005728862973760923
  endloop
endfacet
facet normal 0.625469 0.780249 -0
  outer loop
    vertex 0.05123476119887529 0.02145654632345646 0.01000000000000003
    vertex 0.04677371645263787 0.02503263737736589 0.01432426114969102
    vertex 0.05123476119887529 0.02145654632345646 0.02
  endloop
endfacet
facet normal 0.625469 0.780249 0
  outer loop
    vertex 0.04231267170640048 0.02860872843127529 0.009999999999999972
    vertex 0.04677371645263789 0.02503263737736588 0.005728862973760923
    vertex 0.04231267170640048 0.02860872843127529 0
  endloop
endfacet
facet normal 0.413453 -0.910525 5.13828e-17
  outer loop
    vertex 0.03548389482158842 0.01430436421563765 0.02
    vertex 0.04211029047396189 0.01731329002892345 0.01237639516056344
    vertex 0.04335932801023186 0.01788045526954706 0.02
  endloop
endfacet
facet normal 0.413453 -0.910525 0
  outer loop
    vertex 0.03548389482158842 0.01430436421563765 0.01000000000000003
    vertex 0.04211029047396189 0.01731329002892345 0.01237639516056344
    vertex 0.03548389482158842 0.01430436421563765 0.02
  endloop
endfacet
facet normal 0.413453 -0.910525 0
  outer loop
    vertex 0.05123476119887529 0.02145654632345646 0.009999999999999972
    vertex 0.04584499621106963 0.01900915201588238 0.006379340138533879
    vertex 0.05123476119887529 0.02145654632345646 0
  endloop
endfacet
facet normal 0.413453 -0.910525 0
  outer loop
    vertex 0.05123476119887529 0.02145654632345646 0.02
    vertex 0.0471564216386147 0.01960464646386729 0.01499078305486736
    vertex 0.05123476119887529 0.02145654632345646 0.009999999999999972
  endloop
endfacet
facet normal 0.413453 -0.910525 0
  outer loop
    vertex 0.03548389482158842 0.01430436421563765 0
    vertex 0.04051139348603341 0.01658725997093262 0.005712895215543376
    vertex 0.03548389482158842 0.01430436421563765 0.01000000000000003
  endloop
endfacet
facet normal 0.413453 -0.910525 0
  outer loop
    vertex 0.05123476119887529 0.02145654632345646 0
    vertex 0.04584499621106963 0.01900915201588238 0.006379340138533879
    vertex 0.04335932801023185 0.01788045526954705 0
  endloop
endfacet
facet normal 0.413453 -0.910525 1.54149e-16
  outer loop
    vertex 0.04584499621106963 0.01900915201588238 0.006379340138533879
    vertex 0.0471564216386147 0.01960464646386729 0.01499078305486736
    vertex 0.04211029047396189 0.01731329002892345 0.01237639516056344
  endloop
endfacet
facet normal 0.413453 -0.910525 -2.73701e-16
  outer loop
    vertex 0.04335932801023186 0.01788045526954706 0.02
    vertex 0.0471564216386147 0.01960464646386729 0.01499078305486736
    vertex 0.05123476119887529 0.02145654632345646 0.02
  endloop
endfacet
facet normal 0.413453 -0.910525 -4.11408e-16
  outer loop
    vertex 0.04335932801023185 0.01788045526954705 0
    vertex 0.04051139348603341 0.01658725997093262 0.005712895215543376
    vertex 0.03548389482158842 0.01430436421563765 0
  endloop
endfacet
facet normal 0.413453 -0.910525 2.22125e-16
  outer loop
    vertex 0.05123476119887529 0.02145654632345646 0.009999999999999972
    vertex 0.0471564216386147 0.01960464646386729 0.01499078305486736
    vertex 0.04584499621106963 0.01900915201588238 0.006379340138533879
  endloop
endfacet
facet normal 0.413453 -0.910525 3.13197e-16
  outer loop
    vertex 0.04051139348603341 0.01658725997093262 0.005712895215543376
    vertex 0.04584499621106963 0.01900915201588238 0.006379340138533879
    vertex 0.04211029047396189 0.01731329002892345 0.01237639516056344
  endloop
endfacet
facet normal 0.413453 -0.910525 4.20449e-16
  outer loop
    vertex 0.04051139348603341 0.01658725997093262 0.005712895215543376
    vertex 0.04211029047396189 0.01731329002892345 0.01237639516056344
    vertex 0.03548389482158842 0.01430436421563765 0.01000000000000003
  endloop
endfacet
facet normal 0.413453 -0.910525 3.28616e-17
  outer loop
    vertex 0.04211029047396189 0.01731329002892345 0.01237639516056344
    vertex 0.0471564216386147 0.01960464646386729 0.01499078305486736
    vertex 0.04335932801023186 0.01788045526954706 0.02
  endloop
endfacet
facet normal 0.413453 -0.910525 -2.38272e-16
  outer loop
    vertex 0.04335932801023185 0.01788045526954705 0
    vertex 0.04584499621106963 0.01900915201588238 0.006379340138533879
    vertex 0.04051139348603341 0.01658725997093262 0.005712895215543376
  endloop
endfacet
facet normal 0.687656 0.726037 9.77269e-16
  outer loop
    vertex 0.04303526641720409 0.007152182107818823 0.02
    vertex 0.03925958061939626 0.01072827316172824 0.01500000000000001
    vertex 0.03548389482158842 0.01430436421563765 0.02
  endloop
endfacet
facet normal 0.687656 0.726037 -3.90908e-16
  outer loop
    vertex 0.03548389482158842 0.01430436421563765 0
    vertex 0.03925958061939627 0.01072827316172822 0.005000000000000013
    vertex 0.04303526641720409 0.007152182107818823 0
  endloop
endfacet
facet normal 0.687656 0.726037 0
  outer loop
    vertex 0.03548389482158842 0.01430436421563765 0.02
    vertex 0.03925958061939626 0.01072827316172824 0.01500000000000001
    vertex 0.03548389482158842 0.01430436421563765 0.009999999999999972
  endloop
endfacet
facet normal 0.687656 0.726037 -0
  outer loop
    vertex 0.04303526641720409 0.007152182107818823 0
    vertex 0.03925958061939627 0.01072827316172822 0.005000000000000013
    vertex 0.04303526641720409 0.007152182107818823 0.01000000000000003
  endloop
endfacet
facet normal 0.687656 0.726037 -3.05158e-16
  outer loop
    vertex 0.03925958061939626 0.01072827316172824 0.01500000000000001
    vertex 0.03925958061939627 0.01072827316172822 0.005000000000000013
    vertex 0.03548389482158842 0.01430436421563765 0.009999999999999972
  endloop
endfacet
facet normal 0.687656 0.726037 -2.93181e-16
  outer loop
    vertex 0.04303526641720409 0.007152182107818823 0.01000000000000003
    vertex 0.03925958061939627 0.01072827316172822 0.005000000000000013
    vertex 0.03925958061939626 0.01072827316172824 0.01500000000000001
  endloop
endfacet
facet normal 0.687656 0.726037 0
  outer loop
    vertex 0.03548389482158842 0.01430436421563765 0.009999999999999972
    vertex 0.03925958061939627 0.01072827316172822 0.005000000000000013
    vertex 0.03548389482158842 0.01430436421563765 0
  endloop
endfacet
facet normal 0.687656 0.726037 -0
  outer loop
    vertex 0.04303526641720409 0.007152182107818823 0.01000000000000003
    vertex 0.03925958061939626 0.01072827316172824 0.01500000000000001
    vertex 0.04303526641720409 0.007152182107818823 0.02
  endloop
endfacet
endsolid Created by Gmsh
