solid Created by Gmsh
facet normal 1 0 9.03988e-16
  outer loop
    vertex 0.04 0.06 0
    vertex 0.03999999999999999 0.05239154179093761 0.007675869879481472
    vertex 0.04 0.05250085871922874 0
  endloop
endfacet
facet normal 1 0 9.03988e-16
  outer loop
    vertex 0.04 0.05250085871922874 0
    vertex 0.03999999999999999 0.05239154179093761 0.007675869879481472
    vertex 0.04 0.04500171743845749 0
  endloop
endfacet
facet normal 1 9.3898e-16 -0
  outer loop
    vertex 0.04 0.04500171743845749 0
    vertex 0.03999999999999999 0.05239154179093761 0.007675869879481472
    vertex 0.04 0.04500171743845749 0.01000000000000003
  endloop
endfacet
facet normal 1 -9.11997e-16 0
  outer loop
    vertex 0.04 0.06 0.009999999999999972
    vertex 0.03999999999999999 0.05239154179093761 0.007675869879481472
    vertex 0.04 0.06 0
  endloop
endfacet
facet normal 1 -1.32185e-15 0
  outer loop
    vertex 0.04 0.06 0.02
    vertex 0.03999999999999999 0.05475060110346012 0.01465644320076548
    vertex 0.04 0.06 0.009999999999999972
  endloop
endfacet
facet normal 1 1.51141e-15 -0
  outer loop
    vertex 0.04 0.04500171743845749 0.01000000000000003
    vertex 0.03999999999999999 0.04959271609260395 0.01461890186860672
    vertex 0.04 0.04500171743845749 0.02
  endloop
endfacet
facet normal 1 0 -1.29855e-15
  outer loop
    vertex 0.04 0.05250085871922875 0.02
    vertex 0.03999999999999999 0.05475060110346012 0.01465644320076548
    vertex 0.04 0.06 0.02
  endloop
endfacet
facet normal 1 0 -1.28949e-15
  outer loop
    vertex 0.04 0.04500171743845749 0.02
    vertex 0.03999999999999999 0.04959271609260395 0.01461890186860672
    vertex 0.04 0.05250085871922875 0.02
  endloop
endfacet
facet normal 1 0 0
  outer loop
    vertex 0.03999999999999999 0.05475060110346012 0.01465644320076548
    vertex 0.03999999999999999 0.04959271609260395 0.01461890186860672
    vertex 0.03999999999999999 0.05239154179093761 0.007675869879481472
  endloop
endfacet
facet normal 1 9.42256e-18 -1.29459e-15
  outer loop
    vertex 0.04 0.05250085871922875 0.02
    vertex 0.03999999999999999 0.04959271609260395 0.01461890186860672
    vertex 0.03999999999999999 0.05475060110346012 0.01465644320076548
  endloop
endfacet
facet normal 1 1.07531e-15 4.3347e-16
  outer loop
    vertex 0.03999999999999999 0.05239154179093761 0.007675869879481472
    vertex 0.03999999999999999 0.04959271609260395 0.01461890186860672
    vertex 0.04 0.04500171743845749 0.01000000000000003
  endloop
endfacet
facet normal 1 -1.01698e-15 3.43685e-16
  outer loop
    vertex 0.03999999999999999 0.05475060110346012 0.01465644320076548
    vertex 0.03999999999999999 0.05239154179093761 0.007675869879481472
    vertex 0.04 0.06 0.009999999999999972
  endloop
endfacet
facet normal 0.844046 -0.53627 -5.59217e-16
  outer loop
    vertex 0.03642598344226598 0.0393765027586503 0.01000000000000003
    vertex 0.03821299172113299 0.0421891100985539 0.005000000000000001
    vertex 0.04 0.04500171743845749 0.009999999999999972
  endloop
endfacet
facet normal 0.844046 -0.53627 6.10055e-16
  outer loop
    vertex 0.04 0.04500171743845749 0.009999999999999972
    vertex 0.03821299172113299 0.0421891100985539 0.015
    vertex 0.03642598344226598 0.0393765027586503 0.01000000000000003
  endloop
endfacet
facet normal 0.844046 -0.53627 6.10055e-16
  outer loop
    vertex 0.04 0.04500171743845749 0
    vertex 0.03821299172113299 0.0421891100985539 0.005000000000000001
    vertex 0.03642598344226598 0.0393765027586503 0
  endloop
endfacet
facet normal 0.844046 -0.53627 -5.59217e-16
  outer loop
    vertex 0.03642598344226598 0.0393765027586503 0.02
    vertex 0.03821299172113299 0.0421891100985539 0.015
    vertex 0.04 0.04500171743845749 0.02
  endloop
endfacet
facet normal 0.844046 -0.53627 0
  outer loop
    vertex 0.04 0.04500171743845749 0.009999999999999972
    vertex 0.03821299172113299 0.0421891100985539 0.005000000000000001
    vertex 0.04 0.04500171743845749 0
  endloop
endfacet
facet normal 0.844046 -0.53627 0
  outer loop
    vertex 0.04 0.04500171743845749 0.02
    vertex 0.03821299172113299 0.0421891100985539 0.015
    vertex 0.04 0.04500171743845749 0.009999999999999972
  endloop
endfacet
facet normal 0.844046 -0.53627 0
  outer loop
    vertex 0.03642598344226598 0.0393765027586503 0
    vertex 0.03821299172113299 0.0421891100985539 0.005000000000000001
    vertex 0.03642598344226598 0.0393765027586503 0.01000000000000003
  endloop
endfacet
facet normal 0.844046 -0.53627 0
  outer loop
    vertex 0.03642598344226598 0.0393765027586503 0.01000000000000003
    vertex 0.03821299172113299 0.0421891100985539 0.015
    vertex 0.03642598344226598 0.0393765027586503 0.02
  endloop
endfacet
facet normal 0.411862 -0.911246 0
  outer loop
    vertex 0.03642598344226598 0.0393765027586503 0.02
    vertex 0.03206994777130277 0.03740767762071779 0.01499999999999999
    vertex 0.03642598344226598 0.0393765027586503 0.009999999999999972
  endloop
endfacet
facet normal 0.411862 -0.911246 0
  outer loop
    vertex 0.02398016723951393 0.03375128807884312 0
    vertex 0.02833620291047715 0.03572011321677563 0.005000000000000002
    vertex 0.02398016723951393 0.03375128807884312 0.01000000000000003
  endloop
endfacet
facet normal 0.411862 -0.911246 0
  outer loop
    vertex 0.03642598344226598 0.0393765027586503 0.009999999999999972
    vertex 0.03231886409535781 0.03752018191431393 0.004999999999999992
    vertex 0.03642598344226598 0.0393765027586503 0
  endloop
endfacet
facet normal 0.411862 -0.911246 0
  outer loop
    vertex 0.02398016723951393 0.03375128807884312 0.01000000000000003
    vertex 0.02808728658642211 0.03560760892317949 0.015
    vertex 0.02398016723951393 0.03375128807884312 0.02
  endloop
endfacet
facet normal 0.411862 -0.911246 -9.17856e-16
  outer loop
    vertex 0.03020307534088995 0.03656389541874671 0
    vertex 0.02833620291047715 0.03572011321677563 0.005000000000000002
    vertex 0.02398016723951393 0.03375128807884312 0
  endloop
endfacet
facet normal 0.411862 -0.911246 -7.93821e-16
  outer loop
    vertex 0.03642598344226598 0.0393765027586503 0
    vertex 0.03231886409535781 0.03752018191431393 0.004999999999999992
    vertex 0.03020307534088995 0.03656389541874671 0
  endloop
endfacet
facet normal 0.411862 -0.911246 -3.2249e-16
  outer loop
    vertex 0.03020307534088996 0.03656389541874671 0.02
    vertex 0.03206994777130277 0.03740767762071779 0.01499999999999999
    vertex 0.03642598344226598 0.0393765027586503 0.02
  endloop
endfacet
facet normal 0.411862 -0.911246 -2.48069e-16
  outer loop
    vertex 0.02398016723951393 0.03375128807884312 0.02
    vertex 0.02808728658642211 0.03560760892317949 0.015
    vertex 0.03020307534088996 0.03656389541874671 0.02
  endloop
endfacet
facet normal 0.411862 -0.911246 -3.68228e-16
  outer loop
    vertex 0.03020307534088996 0.03656389541874671 0.02
    vertex 0.02808728658642211 0.03560760892317949 0.015
    vertex 0.03206994777130277 0.03740767762071779 0.01499999999999999
  endloop
endfacet
facet normal 0.411862 -0.911246 -9.4964e-16
  outer loop
    vertex 0.03020307534088995 0.03656389541874671 0
    vertex 0.03231886409535781 0.03752018191431393 0.004999999999999992
    vertex 0.02833620291047715 0.03572011321677563 0.005000000000000002
  endloop
endfacet
facet normal 0.411862 -0.911246 3.68228e-16
  outer loop
    vertex 0.02808728658642211 0.03560760892317949 0.015
    vertex 0.03020307534088996 0.03656389541874671 0.009999999999999998
    vertex 0.03206994777130277 0.03740767762071779 0.01499999999999999
  endloop
endfacet
facet normal 0.411862 -0.911246 3.68228e-16
  outer loop
    vertex 0.03231886409535781 0.03752018191431393 0.004999999999999992
    vertex 0.03020307534088996 0.03656389541874671 0.009999999999999998
    vertex 0.02833620291047715 0.03572011321677563 0.005000000000000002
  endloop
endfacet
facet normal 0.411862 -0.911246 2.48069e-16
  outer loop
    vertex 0.02398016723951393 0.03375128807884312 0.01000000000000003
    vertex 0.03020307534088996 0.03656389541874671 0.009999999999999998
    vertex 0.02808728658642211 0.03560760892317949 0.015
  endloop
endfacet
facet normal 0.411862 -0.911246 4.96138e-16
  outer loop
    vertex 0.02833620291047715 0.03572011321677563 0.005000000000000002
    vertex 0.03020307534088996 0.03656389541874671 0.009999999999999998
    vertex 0.02398016723951393 0.03375128807884312 0.01000000000000003
  endloop
endfacet
facet normal 0.411862 -0.911246 3.96911e-16
  outer loop
    vertex 0.03642598344226598 0.0393765027586503 0.009999999999999972
    vertex 0.03020307534088996 0.03656389541874671 0.009999999999999998
    vertex 0.03231886409535781 0.03752018191431393 0.004999999999999992
  endloop
endfacet
facet normal 0.411862 -0.911246 3.2249e-16
  outer loop
    vertex 0.03206994777130277 0.03740767762071779 0.01499999999999999
    vertex 0.03020307534088996 0.03656389541874671 0.009999999999999998
    vertex 0.03642598344226598 0.0393765027586503 0.009999999999999972
  endloop
endfacet
facet normal 0.309269 0.950975 -7.72514e-16
  outer loop
    vertex 0.02398016723951393 0.03375128807884312 0
    vertex 0.03114463761913435 0.03142131386480462 0.007716153029782282
    vertex 0.03262869298491915 0.03093868073893953 0
  endloop
endfacet
facet normal 0.309269 0.950975 0
  outer loop
    vertex 0.02398016723951393 0.03375128807884312 0.009999999999999972
    vertex 0.03114463761913435 0.03142131386480462 0.007716153029782282
    vertex 0.02398016723951393 0.03375128807884312 0
  endloop
endfacet
facet normal 0.309269 0.950975 -0
  outer loop
    vertex 0.0412772187303244 0.02812607339903593 0.01000000000000003
    vertex 0.03486149167369811 0.0302125470410751 0.01331235030255674
    vertex 0.0412772187303244 0.02812607339903593 0.02
  endloop
endfacet
facet normal 0.309269 0.950975 7.79905e-16
  outer loop
    vertex 0.0412772187303244 0.02812607339903593 0.02
    vertex 0.03486149167369811 0.0302125470410751 0.01331235030255674
    vertex 0.03262869298491917 0.03093868073893952 0.02
  endloop
endfacet
facet normal 0.309269 0.950975 -0
  outer loop
    vertex 0.0412772187303244 0.02812607339903593 0
    vertex 0.03676680844249743 0.02959291450640716 0.005266171196542746
    vertex 0.0412772187303244 0.02812607339903593 0.01000000000000003
  endloop
endfacet
facet normal 0.309269 0.950975 0
  outer loop
    vertex 0.02398016723951393 0.03375128807884312 0.02
    vertex 0.02927925297699949 0.03202795997891249 0.0142406778356286
    vertex 0.02398016723951393 0.03375128807884312 0.009999999999999972
  endloop
endfacet
facet normal 0.309269 0.950975 -7.78189e-16
  outer loop
    vertex 0.03262869298491915 0.03093868073893953 0
    vertex 0.03676680844249743 0.02959291450640716 0.005266171196542746
    vertex 0.0412772187303244 0.02812607339903593 0
  endloop
endfacet
facet normal 0.309269 0.950975 2.58747e-16
  outer loop
    vertex 0.03262869298491917 0.03093868073893952 0.02
    vertex 0.02927925297699949 0.03202795997891249 0.0142406778356286
    vertex 0.02398016723951393 0.03375128807884312 0.02
  endloop
endfacet
facet normal 0.309269 0.950975 -1.06664e-16
  outer loop
    vertex 0.0412772187303244 0.02812607339903593 0.01000000000000003
    vertex 0.03676680844249743 0.02959291450640716 0.005266171196542746
    vertex 0.03486149167369811 0.0302125470410751 0.01331235030255674
  endloop
endfacet
facet normal 0.309269 0.950975 -2.58118e-16
  outer loop
    vertex 0.03486149167369811 0.0302125470410751 0.01331235030255674
    vertex 0.03676680844249743 0.02959291450640716 0.005266171196542746
    vertex 0.03114463761913435 0.03142131386480462 0.007716153029782282
  endloop
endfacet
facet normal 0.309269 0.950975 3.0336e-16
  outer loop
    vertex 0.02927925297699949 0.03202795997891249 0.0142406778356286
    vertex 0.03114463761913435 0.03142131386480462 0.007716153029782282
    vertex 0.02398016723951393 0.03375128807884312 0.009999999999999972
  endloop
endfacet
facet normal 0.309269 0.950975 -8.51195e-16
  outer loop
    vertex 0.03114463761913435 0.03142131386480462 0.007716153029782282
    vertex 0.03676680844249743 0.02959291450640716 0.005266171196542746
    vertex 0.03262869298491915 0.03093868073893953 0
  endloop
endfacet
facet normal 0.309269 0.950975 2.55423e-16
  outer loop
    vertex 0.02927925297699949 0.03202795997891249 0.0142406778356286
    vertex 0.03486149167369811 0.0302125470410751 0.01331235030255674
    vertex 0.03114463761913435 0.03142131386480462 0.007716153029782282
  endloop
endfacet
facet normal 0.309269 0.950975 6.05399e-16
  outer loop
    vertex 0.03262869298491917 0.03093868073893952 0.02
    vertex 0.03486149167369811 0.0302125470410751 0.01331235030255674
    vertex 0.02927925297699949 0.03202795997891249 0.0142406778356286
  endloop
endfacet
facet normal 0.32369 -0.946163 -3.49653e-16
  outer loop
    vertex 0.0412772187303244 0.02812607339903593 0
    vertex 0.03411083477533909 0.02567439676043293 0.007806221953672476
    vertex 0.03305581473479408 0.02531346605913234 0
  endloop
endfacet
facet normal 0.32369 -0.946163 0
  outer loop
    vertex 0.0412772187303244 0.02812607339903593 0.009999999999999972
    vertex 0.03411083477533909 0.02567439676043293 0.007806221953672476
    vertex 0.0412772187303244 0.02812607339903593 0
  endloop
endfacet
facet normal 0.32369 -0.946163 0
  outer loop
    vertex 0.02483441073926377 0.02250085871922874 0.01000000000000003
    vertex 0.03046742411938983 0.02442795715488903 0.01360196719380019
    vertex 0.02483441073926377 0.02250085871922874 0.02
  endloop
endfacet
facet normal 0.32369 -0.946163 0
  outer loop
    vertex 0.02483441073926377 0.02250085871922874 0
    vertex 0.02907929284026226 0.02395306646388947 0.005040212526660124
    vertex 0.02483441073926377 0.02250085871922874 0.01000000000000003
  endloop
endfacet
facet normal 0.32369 -0.946163 0
  outer loop
    vertex 0.0412772187303244 0.02812607339903593 0.02
    vertex 0.03603770221803437 0.02633359335450523 0.01428163782949453
    vertex 0.0412772187303244 0.02812607339903593 0.009999999999999972
  endloop
endfacet
facet normal 0.32369 -0.946163 1.82833e-16
  outer loop
    vertex 0.02483441073926377 0.02250085871922874 0.02
    vertex 0.03046742411938983 0.02442795715488903 0.01360196719380019
    vertex 0.03305581473479409 0.02531346605913234 0.02
  endloop
endfacet
facet normal 0.32369 -0.946163 -5.61666e-17
  outer loop
    vertex 0.03046742411938983 0.02442795715488903 0.01360196719380019
    vertex 0.02907929284026226 0.02395306646388947 0.005040212526660124
    vertex 0.03411083477533909 0.02567439676043293 0.007806221953672476
  endloop
endfacet
facet normal 0.32369 -0.946163 -3.86813e-16
  outer loop
    vertex 0.03305581473479408 0.02531346605913234 0
    vertex 0.02907929284026226 0.02395306646388947 0.005040212526660124
    vertex 0.02483441073926377 0.02250085871922874 0
  endloop
endfacet
facet normal 0.32369 -0.946163 5.79599e-16
  outer loop
    vertex 0.03305581473479409 0.02531346605913234 0.02
    vertex 0.03603770221803437 0.02633359335450523 0.01428163782949453
    vertex 0.0412772187303244 0.02812607339903593 0.02
  endloop
endfacet
facet normal 0.32369 -0.946163 0
  outer loop
    vertex 0.02483441073926377 0.02250085871922874 0.01000000000000003
    vertex 0.02907929284026226 0.02395306646388947 0.005040212526660124
    vertex 0.03046742411938983 0.02442795715488903 0.01360196719380019
  endloop
endfacet
facet normal 0.32369 -0.946163 -2.76672e-16
  outer loop
    vertex 0.03603770221803437 0.02633359335450523 0.01428163782949453
    vertex 0.03046742411938983 0.02442795715488903 0.01360196719380019
    vertex 0.03411083477533909 0.02567439676043293 0.007806221953672476
  endloop
endfacet
facet normal 0.32369 -0.946163 -4.84528e-16
  outer loop
    vertex 0.03603770221803437 0.02633359335450523 0.01428163782949453
    vertex 0.03411083477533909 0.02567439676043293 0.007806221953672476
    vertex 0.0412772187303244 0.02812607339903593 0.009999999999999972
  endloop
endfacet
facet normal 0.32369 -0.946163 -3.74716e-16
  outer loop
    vertex 0.03411083477533909 0.02567439676043293 0.007806221953672476
    vertex 0.02907929284026226 0.02395306646388947 0.005040212526660124
    vertex 0.03305581473479408 0.02531346605913234 0
  endloop
endfacet
facet normal 0.32369 -0.946163 2.95691e-16
  outer loop
    vertex 0.03305581473479409 0.02531346605913234 0.02
    vertex 0.03046742411938983 0.02442795715488903 0.01360196719380019
    vertex 0.03603770221803437 0.02633359335450523 0.01428163782949453
  endloop
endfacet
facet normal 0.790929 0.611909 -5.24024e-16
  outer loop
    vertex 0.02483441073926377 0.02250085871922874 0
    vertex 0.02701040816761691 0.01968825137932515 0.005000000000000001
    vertex 0.02918640559597005 0.01687564403942156 0
  endloop
endfacet
facet normal 0.790929 0.611909 -5.24024e-16
  outer loop
    vertex 0.02483441073926377 0.02250085871922874 0.009999999999999972
    vertex 0.02701040816761691 0.01968825137932515 0.015
    vertex 0.02918640559597005 0.01687564403942156 0.01000000000000003
  endloop
endfacet
facet normal 0.790929 0.611909 5.71662e-16
  outer loop
    vertex 0.02918640559597005 0.01687564403942156 0.01000000000000003
    vertex 0.02701040816761691 0.01968825137932515 0.005000000000000001
    vertex 0.02483441073926377 0.02250085871922874 0.009999999999999972
  endloop
endfacet
facet normal 0.790929 0.611909 5.71662e-16
  outer loop
    vertex 0.02918640559597005 0.01687564403942156 0.02
    vertex 0.02701040816761691 0.01968825137932515 0.015
    vertex 0.02483441073926377 0.02250085871922874 0.02
  endloop
endfacet
facet normal 0.790929 0.611909 0
  outer loop
    vertex 0.02483441073926377 0.02250085871922874 0.009999999999999972
    vertex 0.02701040816761691 0.01968825137932515 0.005000000000000001
    vertex 0.02483441073926377 0.02250085871922874 0
  endloop
endfacet
facet normal 0.790929 0.611909 0
  outer loop
    vertex 0.02483441073926377 0.02250085871922874 0.02
    vertex 0.02701040816761691 0.01968825137932515 0.015
    vertex 0.02483441073926377 0.02250085871922874 0.009999999999999972
  endloop
endfacet
facet normal 0.790929 0.611909 -0
  outer loop
    vertex 0.02918640559597005 0.01687564403942156 0
    vertex 0.02701040816761691 0.01968825137932515 0.005000000000000001
    vertex 0.02918640559597005 0.01687564403942156 0.01000000000000003
  endloop
endfacet
facet normal 0.790929 0.611909 -0
  outer loop
    vertex 0.02918640559597005 0.01687564403942156 0.01000000000000003
    vertex 0.02701040816761691 0.01968825137932515 0.015
    vertex 0.02918640559597005 0.01687564403942156 0.02
  endloop
endfacet
facet normal 0.570964 0.820975 0
  outer loop
    vertex 0.02918640559597005 0.01687564403942156 0.02
    vertex 0.03323058294133174 0.01406303669951796 0.015
    vertex 0.02918640559597005 0.01687564403942156 0.009999999999999972
  endloop
endfacet
facet normal 0.570964 0.820975 -0
  outer loop
    vertex 0.03727476028669344 0.01125042935961437 0
    vertex 0.03323058294133174 0.01406303669951796 0.005000000000000001
    vertex 0.03727476028669344 0.01125042935961437 0.01000000000000003
  endloop
endfacet
facet normal 0.570964 0.820975 0
  outer loop
    vertex 0.02918640559597005 0.01687564403942156 0.009999999999999972
    vertex 0.03323058294133174 0.01406303669951796 0.005000000000000001
    vertex 0.02918640559597005 0.01687564403942156 0
  endloop
endfacet
facet normal 0.570964 0.820975 -0
  outer loop
    vertex 0.03727476028669344 0.01125042935961437 0.01000000000000003
    vertex 0.03323058294133174 0.01406303669951796 0.015
    vertex 0.03727476028669344 0.01125042935961437 0.02
  endloop
endfacet
facet normal 0.570964 0.820975 -6.87797e-16
  outer loop
    vertex 0.03727476028669344 0.01125042935961437 0.02
    vertex 0.03323058294133174 0.01406303669951796 0.015
    vertex 0.02918640559597005 0.01687564403942156 0.02
  endloop
endfacet
facet normal 0.570964 0.820975 -6.87797e-16
  outer loop
    vertex 0.03727476028669344 0.01125042935961437 0.01000000000000003
    vertex 0.03323058294133174 0.01406303669951796 0.005000000000000001
    vertex 0.02918640559597005 0.01687564403942156 0.009999999999999972
  endloop
endfacet
facet normal 0.570964 0.820975 6.87797e-16
  outer loop
    vertex 0.02918640559597005 0.01687564403942156 0.009999999999999972
    vertex 0.03323058294133174 0.01406303669951796 0.015
    vertex 0.03727476028669344 0.01125042935961437 0.01000000000000003
  endloop
endfacet
facet normal 0.570964 0.820975 6.87797e-16
  outer loop
    vertex 0.02918640559597005 0.01687564403942156 0
    vertex 0.03323058294133174 0.01406303669951796 0.005000000000000001
    vertex 0.03727476028669344 0.01125042935961437 0
  endloop
endfacet
facet normal 0.597918 0.801558 -0
  outer loop
    vertex 0.04481582347755406 0.005625214679807186 0
    vertex 0.04104529188212375 0.008437822019710776 0.004999999999999999
    vertex 0.04481582347755406 0.005625214679807186 0.01000000000000003
  endloop
endfacet
facet normal 0.597918 0.801558 0
  outer loop
    vertex 0.03727476028669344 0.01125042935961437 0.02
    vertex 0.04104529188212375 0.008437822019710776 0.015
    vertex 0.03727476028669344 0.01125042935961437 0.009999999999999972
  endloop
endfacet
facet normal 0.597918 0.801558 0
  outer loop
    vertex 0.03727476028669344 0.01125042935961437 0.009999999999999972
    vertex 0.04104529188212375 0.008437822019710776 0.004999999999999999
    vertex 0.03727476028669344 0.01125042935961437 0
  endloop
endfacet
facet normal 0.597918 0.801558 -0
  outer loop
    vertex 0.04481582347755406 0.005625214679807186 0.01000000000000003
    vertex 0.04104529188212375 0.008437822019710776 0.015
    vertex 0.04481582347755406 0.005625214679807186 0.02
  endloop
endfacet
facet normal 0.597918 0.801558 1.3685e-15
  outer loop
    vertex 0.03727476028669344 0.01125042935961437 0.009999999999999972
    vertex 0.04104529188212375 0.008437822019710776 0.015
    vertex 0.04481582347755406 0.005625214679807186 0.01000000000000003
  endloop
endfacet
facet normal 0.597918 0.801558 1.3685e-15
  outer loop
    vertex 0.03727476028669344 0.01125042935961437 0
    vertex 0.04104529188212375 0.008437822019710776 0.004999999999999999
    vertex 0.04481582347755406 0.005625214679807186 0
  endloop
endfacet
facet normal 0.597918 0.801558 -1.3685e-15
  outer loop
    vertex 0.04481582347755406 0.005625214679807186 0.01000000000000003
    vertex 0.04104529188212375 0.008437822019710776 0.004999999999999999
    vertex 0.03727476028669344 0.01125042935961437 0.009999999999999972
  endloop
endfacet
facet normal 0.597918 0.801558 -1.3685e-15
  outer loop
    vertex 0.04481582347755406 0.005625214679807186 0.02
    vertex 0.04104529188212375 0.008437822019710776 0.015
    vertex 0.03727476028669344 0.01125042935961437 0.02
  endloop
endfacet
endsolid Created by Gmsh
