solid Created by Gmsh
facet normal -0.78614 -0.618048 -0
  outer loop
    vertex 0.03533766585597689 0.05822824728049784 0.02
    vertex 0.03533766585597689 0.05822824728049784 0.009999999999999972
    vertex 0.03819878366075103 0.05458898182546672 0.015
  endloop
endfacet
facet normal -0.78614 -0.618048 0
  outer loop
    vertex 0.0410599014655252 0.05094971637043561 0
    vertex 0.0410599014655252 0.05094971637043561 0.01000000000000003
    vertex 0.03819878366075104 0.05458898182546672 0.004999999999999999
  endloop
endfacet
facet normal -0.78614 -0.618048 -0
  outer loop
    vertex 0.03533766585597689 0.05822824728049784 0.009999999999999972
    vertex 0.03533766585597689 0.05822824728049784 0
    vertex 0.03819878366075104 0.05458898182546672 0.004999999999999999
  endloop
endfacet
facet normal -0.78614 -0.618048 0
  outer loop
    vertex 0.0410599014655252 0.05094971637043561 0.01000000000000003
    vertex 0.0410599014655252 0.05094971637043561 0.02
    vertex 0.03819878366075103 0.05458898182546672 0.015
  endloop
endfacet
facet normal -0.78614 -0.618048 2.92757e-15
  outer loop
    vertex 0.0410599014655252 0.05094971637043561 0.01000000000000003
    vertex 0.03533766585597689 0.05822824728049784 0.009999999999999972
    vertex 0.03819878366075104 0.05458898182546672 0.004999999999999999
  endloop
endfacet
facet normal -0.78614 -0.618048 3.14713e-15
  outer loop
    vertex 0.0410599014655252 0.05094971637043561 0.02
    vertex 0.03533766585597689 0.05822824728049784 0.02
    vertex 0.03819878366075103 0.05458898182546672 0.015
  endloop
endfacet
facet normal -0.78614 -0.618048 -3.14713e-15
  outer loop
    vertex 0.03533766585597689 0.05822824728049784 0.009999999999999972
    vertex 0.0410599014655252 0.05094971637043561 0.01000000000000003
    vertex 0.03819878366075103 0.05458898182546672 0.015
  endloop
endfacet
facet normal -0.78614 -0.618048 -2.92757e-15
  outer loop
    vertex 0.03533766585597689 0.05822824728049784 0
    vertex 0.0410599014655252 0.05094971637043561 0
    vertex 0.03819878366075104 0.05458898182546672 0.004999999999999999
  endloop
endfacet
facet normal -0.370709 0.928749 0
  outer loop
    vertex 0.0410599014655252 0.05094971637043561 0.009999999999999972
    vertex 0.0410599014655252 0.05094971637043561 0
    vertex 0.03441391261407624 0.04829698131444608 0.007041015254010749
  endloop
endfacet
facet normal -0.370709 0.928749 -1.18926e-15
  outer loop
    vertex 0.02282474632857312 0.04367118546037338 0.02
    vertex 0.03194232389704918 0.04731045091540451 0.02
    vertex 0.02979155284006313 0.04645197433534965 0.01245468092211701
  endloop
endfacet
facet normal -0.370709 0.928749 0
  outer loop
    vertex 0.02282474632857312 0.04367118546037338 0.01000000000000003
    vertex 0.02282474632857312 0.04367118546037338 0.02
    vertex 0.02979155284006313 0.04645197433534965 0.01245468092211701
  endloop
endfacet
facet normal -0.370709 0.928749 2.45083e-16
  outer loop
    vertex 0.0410599014655252 0.05094971637043561 0
    vertex 0.03194232389704914 0.04731045091540449 0
    vertex 0.03441391261407624 0.04829698131444608 0.007041015254010749
  endloop
endfacet
facet normal -0.370709 0.928749 0
  outer loop
    vertex 0.0410599014655252 0.05094971637043561 0.02
    vertex 0.0410599014655252 0.05094971637043561 0.009999999999999972
    vertex 0.03604378536423578 0.04894754222837353 0.01451659660485289
  endloop
endfacet
facet normal -0.370709 0.928749 0
  outer loop
    vertex 0.02282474632857312 0.04367118546037338 0
    vertex 0.02282474632857312 0.04367118546037338 0.01000000000000003
    vertex 0.02822303749785095 0.04582590412561156 0.005851114216907794
  endloop
endfacet
facet normal -0.370709 0.928749 -1.51057e-15
  outer loop
    vertex 0.03194232389704918 0.04731045091540451 0.02
    vertex 0.0410599014655252 0.05094971637043561 0.02
    vertex 0.03604378536423578 0.04894754222837353 0.01451659660485289
  endloop
endfacet
facet normal -0.370709 0.928749 7.96296e-16
  outer loop
    vertex 0.03194232389704914 0.04731045091540449 0
    vertex 0.02282474632857312 0.04367118546037338 0
    vertex 0.02822303749785095 0.04582590412561156 0.005851114216907794
  endloop
endfacet
facet normal -0.370709 0.928749 7.01457e-16
  outer loop
    vertex 0.0410599014655252 0.05094971637043561 0.009999999999999972
    vertex 0.03441391261407624 0.04829698131444608 0.007041015254010749
    vertex 0.03604378536423578 0.04894754222837353 0.01451659660485289
  endloop
endfacet
facet normal -0.370709 0.928749 -1.86614e-17
  outer loop
    vertex 0.02822303749785095 0.04582590412561156 0.005851114216907794
    vertex 0.02282474632857312 0.04367118546037338 0.01000000000000003
    vertex 0.02979155284006313 0.04645197433534965 0.01245468092211701
  endloop
endfacet
facet normal -0.370709 0.928749 6.07533e-16
  outer loop
    vertex 0.03441391261407624 0.04829698131444608 0.007041015254010749
    vertex 0.02979155284006313 0.04645197433534965 0.01245468092211701
    vertex 0.03604378536423578 0.04894754222837353 0.01451659660485289
  endloop
endfacet
facet normal -0.370709 0.928749 -1.41727e-15
  outer loop
    vertex 0.02979155284006313 0.04645197433534965 0.01245468092211701
    vertex 0.03194232389704918 0.04731045091540451 0.02
    vertex 0.03604378536423578 0.04894754222837353 0.01451659660485289
  endloop
endfacet
facet normal -0.370709 0.928749 3.22613e-16
  outer loop
    vertex 0.02822303749785095 0.04582590412561156 0.005851114216907794
    vertex 0.02979155284006313 0.04645197433534965 0.01245468092211701
    vertex 0.03441391261407624 0.04829698131444608 0.007041015254010749
  endloop
endfacet
facet normal -0.370709 0.928749 4.16089e-16
  outer loop
    vertex 0.03194232389704914 0.04731045091540449 0
    vertex 0.02822303749785095 0.04582590412561156 0.005851114216907794
    vertex 0.03441391261407624 0.04829698131444608 0.007041015254010749
  endloop
endfacet
facet normal -0.562296 -0.826936 0
  outer loop
    vertex 0.02817680734629709 0.04003192000534227 0
    vertex 0.03352886836402107 0.03639265455031115 0.01000000000000003
    vertex 0.02282474632857312 0.04367118546037338 0.009999999999999972
  endloop
endfacet
facet normal -0.562296 -0.826936 0
  outer loop
    vertex 0.03352886836402107 0.03639265455031115 0.01000000000000003
    vertex 0.02817680734629709 0.04003192000534227 0.02
    vertex 0.02282474632857312 0.04367118546037338 0.009999999999999972
  endloop
endfacet
facet normal -0.562296 -0.826936 0
  outer loop
    vertex 0.02817680734629709 0.04003192000534227 0
    vertex 0.02282474632857312 0.04367118546037338 0.009999999999999972
    vertex 0.02282474632857312 0.04367118546037338 0
  endloop
endfacet
facet normal -0.562296 -0.826936 0
  outer loop
    vertex 0.02282474632857312 0.04367118546037338 0.009999999999999972
    vertex 0.02817680734629709 0.04003192000534227 0.02
    vertex 0.02282474632857312 0.04367118546037338 0.02
  endloop
endfacet
facet normal -0.562296 -0.826936 -0
  outer loop
    vertex 0.03352886836402107 0.03639265455031115 0.01000000000000003
    vertex 0.02817680734629709 0.04003192000534227 0
    vertex 0.03352886836402107 0.03639265455031115 0
  endloop
endfacet
facet normal -0.562296 -0.826936 0
  outer loop
    vertex 0.02817680734629709 0.04003192000534227 0.02
    vertex 0.03352886836402107 0.03639265455031115 0.01000000000000003
    vertex 0.03352886836402107 0.03639265455031115 0.02
  endloop
endfacet
facet normal -0.737954 0.674851 0
  outer loop
    vertex 0.03352886836402107 0.03639265455031115 0.02
    vertex 0.03352886836402107 0.03639265455031115 0.009999999999999972
    vertex 0.03020080331681569 0.03275338909528003 0.015
  endloop
endfacet
facet normal -0.737954 0.674851 0
  outer loop
    vertex 0.02687273826961031 0.02911412364024892 0
    vertex 0.02687273826961031 0.02911412364024892 0.01000000000000003
    vertex 0.03020080331681569 0.03275338909528003 0.005
  endloop
endfacet
facet normal -0.737954 0.674851 0
  outer loop
    vertex 0.03352886836402107 0.03639265455031115 0.009999999999999972
    vertex 0.03352886836402107 0.03639265455031115 0
    vertex 0.03020080331681569 0.03275338909528003 0.005
  endloop
endfacet
facet normal -0.737954 0.674851 0
  outer loop
    vertex 0.02687273826961031 0.02911412364024892 0.01000000000000003
    vertex 0.02687273826961031 0.02911412364024892 0.02
    vertex 0.03020080331681569 0.03275338909528003 0.015
  endloop
endfacet
facet normal -0.737954 0.674851 9.61843e-16
  outer loop
    vertex 0.03352886836402107 0.03639265455031115 0
    vertex 0.02687273826961031 0.02911412364024892 0
    vertex 0.03020080331681569 0.03275338909528003 0.005
  endloop
endfacet
facet normal -0.737954 0.674851 -9.61843e-16
  outer loop
    vertex 0.02687273826961031 0.02911412364024892 0.02
    vertex 0.03352886836402107 0.03639265455031115 0.02
    vertex 0.03020080331681569 0.03275338909528003 0.015
  endloop
endfacet
facet normal -0.737954 0.674851 -9.61843e-16
  outer loop
    vertex 0.02687273826961031 0.02911412364024892 0.01000000000000003
    vertex 0.03352886836402107 0.03639265455031115 0.009999999999999972
    vertex 0.03020080331681569 0.03275338909528003 0.005
  endloop
endfacet
facet normal -0.737954 0.674851 9.61843e-16
  outer loop
    vertex 0.03352886836402107 0.03639265455031115 0.009999999999999972
    vertex 0.02687273826961031 0.02911412364024892 0.01000000000000003
    vertex 0.03020080331681569 0.03275338909528003 0.015
  endloop
endfacet
facet normal -0.859499 -0.511138 0
  outer loop
    vertex 0.03120122941398453 0.02183559273018669 0
    vertex 0.03120122941398453 0.02183559273018669 0.01000000000000003
    vertex 0.02903698384179742 0.02547485818521781 0.005
  endloop
endfacet
facet normal -0.859499 -0.511138 -0
  outer loop
    vertex 0.02687273826961031 0.02911412364024892 0.02
    vertex 0.02687273826961031 0.02911412364024892 0.009999999999999972
    vertex 0.02903698384179742 0.02547485818521781 0.015
  endloop
endfacet
facet normal -0.859499 -0.511138 0
  outer loop
    vertex 0.03120122941398453 0.02183559273018669 0.01000000000000003
    vertex 0.03120122941398453 0.02183559273018669 0.02
    vertex 0.02903698384179742 0.02547485818521781 0.015
  endloop
endfacet
facet normal -0.859499 -0.511138 -0
  outer loop
    vertex 0.02687273826961031 0.02911412364024892 0.009999999999999972
    vertex 0.02687273826961031 0.02911412364024892 0
    vertex 0.02903698384179742 0.02547485818521781 0.005
  endloop
endfacet
facet normal -0.859499 -0.511138 -3.20075e-16
  outer loop
    vertex 0.02687273826961031 0.02911412364024892 0
    vertex 0.03120122941398453 0.02183559273018669 0
    vertex 0.02903698384179742 0.02547485818521781 0.005
  endloop
endfacet
facet normal -0.859499 -0.511138 -3.20075e-16
  outer loop
    vertex 0.02687273826961031 0.02911412364024892 0.009999999999999972
    vertex 0.03120122941398453 0.02183559273018669 0.01000000000000003
    vertex 0.02903698384179742 0.02547485818521781 0.015
  endloop
endfacet
facet normal -0.859499 -0.511138 2.40056e-16
  outer loop
    vertex 0.03120122941398453 0.02183559273018669 0.02
    vertex 0.02687273826961031 0.02911412364024892 0.02
    vertex 0.02903698384179742 0.02547485818521781 0.015
  endloop
endfacet
facet normal -0.859499 -0.511138 2.40056e-16
  outer loop
    vertex 0.03120122941398453 0.02183559273018669 0.01000000000000003
    vertex 0.02687273826961031 0.02911412364024892 0.009999999999999972
    vertex 0.02903698384179742 0.02547485818521781 0.005
  endloop
endfacet
facet normal -0.855114 0.51844 0
  outer loop
    vertex 0.02678839351024286 0.01455706182012446 0
    vertex 0.02678839351024286 0.01455706182012446 0.01000000000000003
    vertex 0.02899481146211369 0.01819632727515558 0.005
  endloop
endfacet
facet normal -0.855114 0.51844 0
  outer loop
    vertex 0.03120122941398453 0.02183559273018669 0.02
    vertex 0.03120122941398453 0.02183559273018669 0.009999999999999972
    vertex 0.02899481146211369 0.01819632727515558 0.015
  endloop
endfacet
facet normal -0.855114 0.51844 0
  outer loop
    vertex 0.02678839351024286 0.01455706182012446 0.01000000000000003
    vertex 0.02678839351024286 0.01455706182012446 0.02
    vertex 0.02899481146211369 0.01819632727515558 0.015
  endloop
endfacet
facet normal -0.855114 0.51844 0
  outer loop
    vertex 0.03120122941398453 0.02183559273018669 0.009999999999999972
    vertex 0.03120122941398453 0.02183559273018669 0
    vertex 0.02899481146211369 0.01819632727515558 0.005
  endloop
endfacet
facet normal -0.855114 0.51844 -2.38832e-16
  outer loop
    vertex 0.03120122941398453 0.02183559273018669 0.009999999999999972
    vertex 0.02678839351024286 0.01455706182012446 0.01000000000000003
    vertex 0.02899481146211369 0.01819632727515558 0.015
  endloop
endfacet
facet normal -0.855114 0.51844 -2.38832e-16
  outer loop
    vertex 0.03120122941398453 0.02183559273018669 0
    vertex 0.02678839351024286 0.01455706182012446 0
    vertex 0.02899481146211369 0.01819632727515558 0.005
  endloop
endfacet
facet normal -0.855114 0.51844 3.18442e-16
  outer loop
    vertex 0.02678839351024286 0.01455706182012446 0.02
    vertex 0.03120122941398453 0.02183559273018669 0.02
    vertex 0.02899481146211369 0.01819632727515558 0.015
  endloop
endfacet
facet normal -0.855114 0.51844 3.18442e-16
  outer loop
    vertex 0.02678839351024286 0.01455706182012446 0.01000000000000003
    vertex 0.03120122941398453 0.02183559273018669 0.009999999999999972
    vertex 0.02899481146211369 0.01819632727515558 0.005
  endloop
endfacet
facet normal -0.395926 -0.918282 -1.43726e-16
  outer loop
    vertex 0.02678839351024286 0.01455706182012446 0
    vertex 0.03522904459272853 0.01091779636509334 0
    vertex 0.03369998335573855 0.01157706538166855 0.007693889453144375
  endloop
endfacet
facet normal -0.395926 -0.918282 -0
  outer loop
    vertex 0.02678839351024286 0.01455706182012446 0.009999999999999972
    vertex 0.02678839351024286 0.01455706182012446 0
    vertex 0.03369998335573855 0.01157706538166855 0.007693889453144375
  endloop
endfacet
facet normal -0.395926 -0.918282 0
  outer loop
    vertex 0.04366969567521421 0.007278530910062232 0.01000000000000003
    vertex 0.04366969567521421 0.007278530910062232 0.02
    vertex 0.03744884955821794 0.009960706746192392 0.01321983828478633
  endloop
endfacet
facet normal -0.395926 -0.918282 5.43651e-16
  outer loop
    vertex 0.04366969567521421 0.007278530910062232 0.02
    vertex 0.03522904459272853 0.01091779636509335 0.02
    vertex 0.03744884955821794 0.009960706746192392 0.01321983828478633
  endloop
endfacet
facet normal -0.395926 -0.918282 -0
  outer loop
    vertex 0.02678839351024286 0.01455706182012446 0.02
    vertex 0.02678839351024286 0.01455706182012446 0.009999999999999972
    vertex 0.03193437579761356 0.01233832355128523 0.01422855189994899
  endloop
endfacet
facet normal -0.395926 -0.918282 0
  outer loop
    vertex 0.04366969567521421 0.007278530910062232 0
    vertex 0.04366969567521421 0.007278530910062232 0.01000000000000003
    vertex 0.03944937013397137 0.009098163637577785 0.005000000000000015
  endloop
endfacet
facet normal -0.395926 -0.918282 -3.68604e-16
  outer loop
    vertex 0.03522904459272853 0.01091779636509334 0
    vertex 0.04366969567521421 0.007278530910062232 0
    vertex 0.03944937013397137 0.009098163637577785 0.005000000000000015
  endloop
endfacet
facet normal -0.395926 -0.918282 7.66403e-16
  outer loop
    vertex 0.03522904459272853 0.01091779636509335 0.02
    vertex 0.02678839351024286 0.01455706182012446 0.02
    vertex 0.03193437579761356 0.01233832355128523 0.01422855189994899
  endloop
endfacet
facet normal -0.395926 -0.918282 1.74035e-16
  outer loop
    vertex 0.04366969567521421 0.007278530910062232 0.01000000000000003
    vertex 0.03744884955821794 0.009960706746192392 0.01321983828478633
    vertex 0.03944937013397137 0.009098163637577785 0.005000000000000015
  endloop
endfacet
facet normal -0.395926 -0.918282 4.64425e-17
  outer loop
    vertex 0.03744884955821794 0.009960706746192392 0.01321983828478633
    vertex 0.03369998335573855 0.01157706538166855 0.007693889453144375
    vertex 0.03944937013397137 0.009098163637577785 0.005000000000000015
  endloop
endfacet
facet normal -0.395926 -0.918282 -2.08209e-16
  outer loop
    vertex 0.03193437579761356 0.01233832355128523 0.01422855189994899
    vertex 0.02678839351024286 0.01455706182012446 0.009999999999999972
    vertex 0.03369998335573855 0.01157706538166855 0.007693889453144375
  endloop
endfacet
facet normal -0.395926 -0.918282 -1.35724e-16
  outer loop
    vertex 0.03369998335573855 0.01157706538166855 0.007693889453144375
    vertex 0.03522904459272853 0.01091779636509334 0
    vertex 0.03944937013397137 0.009098163637577785 0.005000000000000015
  endloop
endfacet
facet normal -0.395926 -0.918282 -4.54143e-17
  outer loop
    vertex 0.03193437579761356 0.01233832355128523 0.01422855189994899
    vertex 0.03369998335573855 0.01157706538166855 0.007693889453144375
    vertex 0.03744884955821794 0.009960706746192392 0.01321983828478633
  endloop
endfacet
facet normal -0.395926 -0.918282 7.30242e-16
  outer loop
    vertex 0.03522904459272853 0.01091779636509335 0.02
    vertex 0.03193437579761356 0.01233832355128523 0.01422855189994899
    vertex 0.03744884955821794 0.009960706746192392 0.01321983828478633
  endloop
endfacet
endsolid Created by Gmsh
