solid Created by Gmsh
facet normal 0.995627 -0.093418 0
  outer loop
    vertex 0.008 0 0
    vertex 0.008841391617308583 0.008967348952316543 0.008605390537168441
    vertex 0.008 0 0.01000000000000003
  endloop
endfacet
facet normal 0.995627 -0.093418 0
  outer loop
    vertex 0.01248742195897912 0.04782586107902166 0.02
    vertex 0.01164603034167053 0.03885851212670512 0.01139460946283156
    vertex 0.01248742195897912 0.04782586107902166 0.009999999999999972
  endloop
endfacet
facet normal 0.995627 -0.093418 0
  outer loop
    vertex 0.009121855489744778 0.01195646526975539 0
    vertex 0.008841391617308583 0.008967348952316543 0.008605390537168441
    vertex 0.008 0 0
  endloop
endfacet
facet normal 0.995627 -0.093418 1.63928e-17
  outer loop
    vertex 0.01136556646923434 0.03586939580926627 0.02
    vertex 0.01164603034167053 0.03885851212670512 0.01139460946283156
    vertex 0.01248742195897912 0.04782586107902166 0.02
  endloop
endfacet
facet normal 0.995627 -0.093418 -1.10965e-16
  outer loop
    vertex 0.01024371097948956 0.0239129305395108 0
    vertex 0.01076568540874581 0.02947600813029981 0.01019369575872661
    vertex 0.009729527213356536 0.0184328839575396 0.009767565089528075
  endloop
endfacet
facet normal 0.995627 -0.093418 -6.09656e-17
  outer loop
    vertex 0.009729527213356536 0.0184328839575396 0.009767565089528075
    vertex 0.01076568540874581 0.02947600813029981 0.01019369575872661
    vertex 0.01024371097948956 0.02391293053951086 0.02
  endloop
endfacet
facet normal 0.995627 -0.093418 -1.37862e-17
  outer loop
    vertex 0.009121855489744781 0.01195646526975543 0.02
    vertex 0.009729527213356536 0.0184328839575396 0.009767565089528075
    vertex 0.01024371097948956 0.02391293053951086 0.02
  endloop
endfacet
facet normal 0.995627 -0.093418 -6.22737e-17
  outer loop
    vertex 0.01136556646923434 0.03586939580926624 0
    vertex 0.01076568540874581 0.02947600813029981 0.01019369575872661
    vertex 0.01024371097948956 0.0239129305395108 0
  endloop
endfacet
facet normal 0.995627 -0.093418 -8.66541e-17
  outer loop
    vertex 0.01024371097948956 0.0239129305395108 0
    vertex 0.009729527213356536 0.0184328839575396 0.009767565089528075
    vertex 0.009121855489744778 0.01195646526975539 0
  endloop
endfacet
facet normal 0.995627 -0.093418 -3.59632e-17
  outer loop
    vertex 0.01024371097948956 0.02391293053951086 0.02
    vertex 0.01076568540874581 0.02947600813029981 0.01019369575872661
    vertex 0.01136556646923434 0.03586939580926627 0.02
  endloop
endfacet
facet normal 0.995627 -0.093418 5.50283e-17
  outer loop
    vertex 0.01248742195897912 0.04782586107902166 0
    vertex 0.01198879582041821 0.04251162393992981 0.005127059900039308
    vertex 0.01136556646923434 0.03586939580926624 0
  endloop
endfacet
facet normal 0.995627 -0.093418 5.50283e-17
  outer loop
    vertex 0.008 0 0.02
    vertex 0.008498626138560911 0.005314237139091849 0.01487294009996069
    vertex 0.009121855489744781 0.01195646526975543 0.02
  endloop
endfacet
facet normal 0.995627 -0.093418 -4.89737e-17
  outer loop
    vertex 0.01136556646923434 0.03586939580926624 0
    vertex 0.01164603034167053 0.03885851212670512 0.01139460946283156
    vertex 0.01076568540874581 0.02947600813029981 0.01019369575872661
  endloop
endfacet
facet normal 0.995627 -0.093418 -2.42377e-17
  outer loop
    vertex 0.009121855489744781 0.01195646526975543 0.02
    vertex 0.008841391617308583 0.008967348952316543 0.008605390537168441
    vertex 0.009729527213356536 0.0184328839575396 0.009767565089528075
  endloop
endfacet
facet normal 0.995627 -0.093418 -4.89006e-17
  outer loop
    vertex 0.01136556646923434 0.03586939580926624 0
    vertex 0.01198879582041821 0.04251162393992981 0.005127059900039308
    vertex 0.01164603034167053 0.03885851212670512 0.01139460946283156
  endloop
endfacet
facet normal 0.995627 -0.093418 -3.14361e-17
  outer loop
    vertex 0.009121855489744781 0.01195646526975543 0.02
    vertex 0.008498626138560911 0.005314237139091849 0.01487294009996069
    vertex 0.008841391617308583 0.008967348952316543 0.008605390537168441
  endloop
endfacet
facet normal 0.995627 -0.093418 9.92987e-18
  outer loop
    vertex 0.009729527213356536 0.0184328839575396 0.009767565089528075
    vertex 0.008841391617308583 0.008967348952316543 0.008605390537168441
    vertex 0.009121855489744778 0.01195646526975539 0
  endloop
endfacet
facet normal 0.995627 -0.093418 4.00015e-17
  outer loop
    vertex 0.01076568540874581 0.02947600813029981 0.01019369575872661
    vertex 0.01164603034167053 0.03885851212670512 0.01139460946283156
    vertex 0.01136556646923434 0.03586939580926627 0.02
  endloop
endfacet
facet normal 0.995627 -0.093418 0
  outer loop
    vertex 0.01248742195897912 0.04782586107902166 0.009999999999999972
    vertex 0.01198879582041821 0.04251162393992981 0.005127059900039308
    vertex 0.01248742195897912 0.04782586107902166 0
  endloop
endfacet
facet normal 0.995627 -0.093418 0
  outer loop
    vertex 0.008 0 0.01000000000000003
    vertex 0.008498626138560911 0.005314237139091849 0.01487294009996069
    vertex 0.008 0 0.02
  endloop
endfacet
facet normal 0.995627 -0.093418 -8.25036e-17
  outer loop
    vertex 0.01164603034167053 0.03885851212670512 0.01139460946283156
    vertex 0.01198879582041821 0.04251162393992981 0.005127059900039308
    vertex 0.01248742195897912 0.04782586107902166 0.009999999999999972
  endloop
endfacet
facet normal 0.995627 -0.093418 -6.60028e-17
  outer loop
    vertex 0.008841391617308583 0.008967348952316543 0.008605390537168441
    vertex 0.008498626138560911 0.005314237139091849 0.01487294009996069
    vertex 0.008 0 0.01000000000000003
  endloop
endfacet
endsolid Created by Gmsh
