solid Created by Gmsh
facet normal -0.573528 0.819186 3.88755e-16
  outer loop
    vertex 0.02489924747886394 0.04707591851493401 0.02
    vertex 0.03450494918691734 0.05380104973135315 0.02
    vertex 0.02970209833289063 0.05043848412314358 0.01405396560956745
  endloop
endfacet
facet normal -0.573528 0.819186 -4.03492e-16
  outer loop
    vertex 0.03450494918691734 0.05380104973135315 0
    vertex 0.02489924747886394 0.04707591851493401 0
    vertex 0.02970209833289062 0.05043848412314357 0.005728862973760943
  endloop
endfacet
facet normal -0.573528 0.819186 0
  outer loop
    vertex 0.03450494918691734 0.05380104973135315 0.02
    vertex 0.03450494918691734 0.05380104973135315 0.009999999999999972
    vertex 0.02970209833289063 0.05043848412314358 0.01405396560956745
  endloop
endfacet
facet normal -0.573528 0.819186 0
  outer loop
    vertex 0.02489924747886394 0.04707591851493401 0
    vertex 0.02489924747886394 0.04707591851493401 0.01000000000000003
    vertex 0.02970209833289062 0.05043848412314357 0.005728862973760943
  endloop
endfacet
facet normal -0.573528 0.819186 6.94151e-17
  outer loop
    vertex 0.03450494918691734 0.05380104973135315 0.009999999999999972
    vertex 0.02970209833289062 0.05043848412314357 0.005728862973760943
    vertex 0.02970209833289063 0.05043848412314358 0.01405396560956745
  endloop
endfacet
facet normal -0.573528 0.819186 3.42607e-17
  outer loop
    vertex 0.02970209833289062 0.05043848412314357 0.005728862973760943
    vertex 0.02489924747886394 0.04707591851493401 0.01000000000000003
    vertex 0.02970209833289063 0.05043848412314358 0.01405396560956745
  endloop
endfacet
facet normal -0.573528 0.819186 0
  outer loop
    vertex 0.03450494918691734 0.05380104973135315 0.009999999999999972
    vertex 0.03450494918691734 0.05380104973135315 0
    vertex 0.02970209833289062 0.05043848412314357 0.005728862973760943
  endloop
endfacet
facet normal -0.573528 0.819186 0
  outer loop
    vertex 0.02489924747886394 0.04707591851493401 0.01000000000000003
    vertex 0.02489924747886394 0.04707591851493401 0.02
    vertex 0.02970209833289063 0.05043848412314358 0.01405396560956745
  endloop
endfacet
facet normal -0.433225 -0.901286 -1.44993e-17
  outer loop
    vertex 0.03189475649317491 0.04371335290672444 0.02
    vertex 0.02489924747886394 0.04707591851493401 0.02
    vertex 0.0319124642864143 0.04370484121494872 0.01200304992298525
  endloop
endfacet
facet normal -0.433225 -0.901286 -5.45857e-17
  outer loop
    vertex 0.03889026550748588 0.04035078729851486 0.02
    vertex 0.03189475649317491 0.04371335290672444 0.02
    vertex 0.0319124642864143 0.04370484121494872 0.01200304992298525
  endloop
endfacet
facet normal -0.433225 -0.901286 -0
  outer loop
    vertex 0.02489924747886394 0.04707591851493401 0.02
    vertex 0.02489924747886394 0.04707591851493401 0.009999999999999972
    vertex 0.0319124642864143 0.04370484121494872 0.01200304992298525
  endloop
endfacet
facet normal -0.433225 -0.901286 0
  outer loop
    vertex 0.03889026550748588 0.04035078729851486 0.01000000000000003
    vertex 0.03889026550748588 0.04035078729851486 0.02
    vertex 0.0319124642864143 0.04370484121494872 0.01200304992298525
  endloop
endfacet
facet normal -0.433225 -0.901286 0
  outer loop
    vertex 0.03889026550748588 0.04035078729851486 0
    vertex 0.03889026550748588 0.04035078729851486 0.01000000000000003
    vertex 0.03423210258881509 0.04258984930182532 0.005601761603914328
  endloop
endfacet
facet normal -0.433225 -0.901286 -0
  outer loop
    vertex 0.02489924747886394 0.04707591851493401 0.009999999999999972
    vertex 0.02489924747886394 0.04707591851493401 0
    vertex 0.02956756366522644 0.0448319760906733 0.005520962305379911
  endloop
endfacet
facet normal -0.433225 -0.901286 -2.37197e-16
  outer loop
    vertex 0.02489924747886394 0.04707591851493401 0
    vertex 0.03189475649317491 0.04371335290672444 0
    vertex 0.02956756366522644 0.0448319760906733 0.005520962305379911
  endloop
endfacet
facet normal -0.433225 -0.901286 -8.18216e-16
  outer loop
    vertex 0.03189475649317491 0.04371335290672444 0
    vertex 0.03889026550748588 0.04035078729851486 0
    vertex 0.03423210258881509 0.04258984930182532 0.005601761603914328
  endloop
endfacet
facet normal -0.433225 -0.901286 4.3874e-16
  outer loop
    vertex 0.03423210258881509 0.04258984930182532 0.005601761603914328
    vertex 0.03889026550748588 0.04035078729851486 0.01000000000000003
    vertex 0.0319124642864143 0.04370484121494872 0.01200304992298525
  endloop
endfacet
facet normal -0.433225 -0.901286 1.01632e-16
  outer loop
    vertex 0.03423210258881509 0.04258984930182532 0.005601761603914328
    vertex 0.0319124642864143 0.04370484121494872 0.01200304992298525
    vertex 0.02956756366522644 0.0448319760906733 0.005520962305379911
  endloop
endfacet
facet normal -0.433225 -0.901286 -7.49123e-17
  outer loop
    vertex 0.0319124642864143 0.04370484121494872 0.01200304992298525
    vertex 0.02489924747886394 0.04707591851493401 0.009999999999999972
    vertex 0.02956756366522644 0.0448319760906733 0.005520962305379911
  endloop
endfacet
facet normal -0.433225 -0.901286 -6.18015e-16
  outer loop
    vertex 0.03189475649317491 0.04371335290672444 0
    vertex 0.03423210258881509 0.04258984930182532 0.005601761603914328
    vertex 0.02956756366522644 0.0448319760906733 0.005520962305379911
  endloop
endfacet
facet normal -0.516996 0.855988 5.20927e-17
  outer loop
    vertex 0.02775549976226585 0.03362565608209572 0.01000000000000003
    vertex 0.03332288263487587 0.03698822169030529 0.02
    vertex 0.03889026550748588 0.04035078729851486 0.009999999999999972
  endloop
endfacet
facet normal -0.516996 0.855988 5.20927e-17
  outer loop
    vertex 0.03332288263487586 0.03698822169030529 0
    vertex 0.02775549976226585 0.03362565608209572 0.01000000000000003
    vertex 0.03889026550748588 0.04035078729851486 0.009999999999999972
  endloop
endfacet
facet normal -0.516996 0.855988 0
  outer loop
    vertex 0.03332288263487586 0.03698822169030529 0
    vertex 0.03889026550748588 0.04035078729851486 0.009999999999999972
    vertex 0.03889026550748588 0.04035078729851486 0
  endloop
endfacet
facet normal -0.516996 0.855988 0
  outer loop
    vertex 0.03889026550748588 0.04035078729851486 0.009999999999999972
    vertex 0.03332288263487587 0.03698822169030529 0.02
    vertex 0.03889026550748588 0.04035078729851486 0.02
  endloop
endfacet
facet normal -0.516996 0.855988 0
  outer loop
    vertex 0.02775549976226585 0.03362565608209572 0.01000000000000003
    vertex 0.03332288263487586 0.03698822169030529 0
    vertex 0.02775549976226585 0.03362565608209572 0
  endloop
endfacet
facet normal -0.516996 0.855988 0
  outer loop
    vertex 0.03332288263487587 0.03698822169030529 0.02
    vertex 0.02775549976226585 0.03362565608209572 0.01000000000000003
    vertex 0.02775549976226585 0.03362565608209572 0.02
  endloop
endfacet
facet normal -0.771262 0.636518 0
  outer loop
    vertex 0.02220529265655133 0.02690052486567657 0
    vertex 0.02220529265655133 0.02690052486567657 0.01000000000000003
    vertex 0.02498039620940859 0.03026309047388615 0.005000000000000001
  endloop
endfacet
facet normal -0.771262 0.636518 0
  outer loop
    vertex 0.02775549976226585 0.03362565608209572 0.02
    vertex 0.02775549976226585 0.03362565608209572 0.009999999999999972
    vertex 0.02498039620940859 0.03026309047388615 0.015
  endloop
endfacet
facet normal -0.771262 0.636518 0
  outer loop
    vertex 0.02220529265655133 0.02690052486567657 0.01000000000000003
    vertex 0.02220529265655133 0.02690052486567657 0.02
    vertex 0.02498039620940859 0.03026309047388615 0.015
  endloop
endfacet
facet normal -0.771262 0.636518 0
  outer loop
    vertex 0.02775549976226585 0.03362565608209572 0.009999999999999972
    vertex 0.02775549976226585 0.03362565608209572 0
    vertex 0.02498039620940859 0.03026309047388615 0.005000000000000001
  endloop
endfacet
facet normal -0.771262 0.636518 -5.43988e-16
  outer loop
    vertex 0.02775549976226585 0.03362565608209572 0
    vertex 0.02220529265655133 0.02690052486567657 0
    vertex 0.02498039620940859 0.03026309047388615 0.005000000000000001
  endloop
endfacet
facet normal -0.771262 0.636518 -5.43988e-16
  outer loop
    vertex 0.02775549976226585 0.03362565608209572 0.009999999999999972
    vertex 0.02220529265655133 0.02690052486567657 0.01000000000000003
    vertex 0.02498039620940859 0.03026309047388615 0.015
  endloop
endfacet
facet normal -0.771262 0.636518 5.43988e-16
  outer loop
    vertex 0.02220529265655133 0.02690052486567657 0.02
    vertex 0.02775549976226585 0.03362565608209572 0.02
    vertex 0.02498039620940859 0.03026309047388615 0.015
  endloop
endfacet
facet normal -0.771262 0.636518 5.43988e-16
  outer loop
    vertex 0.02220529265655133 0.02690052486567657 0.01000000000000003
    vertex 0.02775549976226585 0.03362565608209572 0.009999999999999972
    vertex 0.02498039620940859 0.03026309047388615 0.005000000000000001
  endloop
endfacet
facet normal -0.859539 0.51107 0
  outer loop
    vertex 0.02220529265655133 0.02690052486567657 0.02
    vertex 0.02220529265655133 0.02690052486567657 0.009999999999999972
    vertex 0.02020595974409051 0.02353795925746701 0.015
  endloop
endfacet
facet normal -0.859539 0.51107 0
  outer loop
    vertex 0.01820662683162971 0.02017539364925743 0
    vertex 0.01820662683162971 0.02017539364925743 0.01000000000000003
    vertex 0.02020595974409051 0.02353795925746701 0.005
  endloop
endfacet
facet normal -0.859539 0.51107 0
  outer loop
    vertex 0.02220529265655133 0.02690052486567657 0.009999999999999972
    vertex 0.02220529265655133 0.02690052486567657 0
    vertex 0.02020595974409051 0.02353795925746701 0.005
  endloop
endfacet
facet normal -0.859539 0.51107 0
  outer loop
    vertex 0.01820662683162971 0.02017539364925743 0.01000000000000003
    vertex 0.01820662683162971 0.02017539364925743 0.02
    vertex 0.02020595974409051 0.02353795925746701 0.015
  endloop
endfacet
facet normal -0.859539 0.51107 9.52682e-16
  outer loop
    vertex 0.01820662683162971 0.02017539364925743 0.01000000000000003
    vertex 0.02220529265655133 0.02690052486567657 0.009999999999999972
    vertex 0.02020595974409051 0.02353795925746701 0.005
  endloop
endfacet
facet normal -0.859539 0.51107 -9.52682e-16
  outer loop
    vertex 0.02220529265655133 0.02690052486567657 0.009999999999999972
    vertex 0.01820662683162971 0.02017539364925743 0.01000000000000003
    vertex 0.02020595974409051 0.02353795925746701 0.015
  endloop
endfacet
facet normal -0.859539 0.51107 -9.52682e-16
  outer loop
    vertex 0.02220529265655133 0.02690052486567657 0
    vertex 0.01820662683162971 0.02017539364925743 0
    vertex 0.02020595974409051 0.02353795925746701 0.005
  endloop
endfacet
facet normal -0.859539 0.51107 9.52682e-16
  outer loop
    vertex 0.01820662683162971 0.02017539364925743 0.02
    vertex 0.02220529265655133 0.02690052486567657 0.02
    vertex 0.02020595974409051 0.02353795925746701 0.015
  endloop
endfacet
facet normal -0.520722 -0.853726 -1.83638e-16
  outer loop
    vertex 0.02371956616381628 0.01681282804104786 0
    vertex 0.02923250549600284 0.01345026243283828 0.01000000000000003
    vertex 0.01820662683162971 0.02017539364925743 0.009999999999999972
  endloop
endfacet
facet normal -0.520722 -0.853726 -2.09873e-16
  outer loop
    vertex 0.02923250549600284 0.01345026243283828 0.01000000000000003
    vertex 0.02371956616381627 0.01681282804104786 0.02
    vertex 0.01820662683162971 0.02017539364925743 0.009999999999999972
  endloop
endfacet
facet normal -0.520722 -0.853726 0
  outer loop
    vertex 0.02371956616381628 0.01681282804104786 0
    vertex 0.01820662683162971 0.02017539364925743 0.009999999999999972
    vertex 0.01820662683162971 0.02017539364925743 0
  endloop
endfacet
facet normal -0.520722 -0.853726 0
  outer loop
    vertex 0.01820662683162971 0.02017539364925743 0.009999999999999972
    vertex 0.02371956616381627 0.01681282804104786 0.02
    vertex 0.01820662683162971 0.02017539364925743 0.02
  endloop
endfacet
facet normal -0.520722 -0.853726 -0
  outer loop
    vertex 0.02923250549600284 0.01345026243283828 0.01000000000000003
    vertex 0.02371956616381628 0.01681282804104786 0
    vertex 0.02923250549600284 0.01345026243283828 0
  endloop
endfacet
facet normal -0.520722 -0.853726 0
  outer loop
    vertex 0.02371956616381627 0.01681282804104786 0.02
    vertex 0.02923250549600284 0.01345026243283828 0.01000000000000003
    vertex 0.02923250549600284 0.01345026243283828 0.02
  endloop
endfacet
facet normal -0.408288 0.912853 -3.41649e-16
  outer loop
    vertex 0.02171445558442692 0.01008769682462871 0
    vertex 0.01419640567285099 0.006725131216419142 0
    vertex 0.02225673509651767 0.0103302398323022 0.007902150975719236
  endloop
endfacet
facet normal -0.408288 0.912853 0
  outer loop
    vertex 0.01419640567285099 0.006725131216419142 0
    vertex 0.01419640567285099 0.006725131216419142 0.01000000000000003
    vertex 0.02225673509651767 0.0103302398323022 0.007902150975719236
  endloop
endfacet
facet normal -0.408288 0.912853 -3.64425e-16
  outer loop
    vertex 0.02923250549600284 0.01345026243283828 0
    vertex 0.02171445558442692 0.01008769682462871 0
    vertex 0.02225673509651767 0.0103302398323022 0.007902150975719236
  endloop
endfacet
facet normal -0.408288 0.912853 0
  outer loop
    vertex 0.02923250549600284 0.01345026243283828 0.009999999999999972
    vertex 0.02923250549600284 0.01345026243283828 0
    vertex 0.02225673509651767 0.0103302398323022 0.007902150975719236
  endloop
endfacet
facet normal -0.408288 0.912853 0
  outer loop
    vertex 0.01419640567285099 0.006725131216419142 0.01000000000000003
    vertex 0.01419640567285099 0.006725131216419142 0.02
    vertex 0.01939709237845378 0.009051219824637351 0.01426890384534259
  endloop
endfacet
facet normal -0.408288 0.912853 0
  outer loop
    vertex 0.02923250549600284 0.01345026243283828 0.02
    vertex 0.02923250549600284 0.01345026243283828 0.009999999999999972
    vertex 0.02438982254258458 0.01128429661162793 0.01434404344482884
  endloop
endfacet
facet normal -0.408288 0.912853 2.15347e-16
  outer loop
    vertex 0.01419640567285099 0.006725131216419142 0.02
    vertex 0.02171445558442691 0.01008769682462871 0.02
    vertex 0.01939709237845378 0.009051219824637351 0.01426890384534259
  endloop
endfacet
facet normal -0.408288 0.912853 -2.0474e-16
  outer loop
    vertex 0.02225673509651767 0.0103302398323022 0.007902150975719236
    vertex 0.01419640567285099 0.006725131216419142 0.01000000000000003
    vertex 0.01939709237845378 0.009051219824637351 0.01426890384534259
  endloop
endfacet
facet normal -0.408288 0.912853 1.09104e-16
  outer loop
    vertex 0.02171445558442691 0.01008769682462871 0.02
    vertex 0.02923250549600284 0.01345026243283828 0.02
    vertex 0.02438982254258458 0.01128429661162793 0.01434404344482884
  endloop
endfacet
facet normal -0.408288 0.912853 -5.73287e-17
  outer loop
    vertex 0.02438982254258458 0.01128429661162793 0.01434404344482884
    vertex 0.02923250549600284 0.01345026243283828 0.009999999999999972
    vertex 0.02225673509651767 0.0103302398323022 0.007902150975719236
  endloop
endfacet
facet normal -0.408288 0.912853 -2.41612e-17
  outer loop
    vertex 0.02438982254258458 0.01128429661162793 0.01434404344482884
    vertex 0.02225673509651767 0.0103302398323022 0.007902150975719236
    vertex 0.01939709237845378 0.009051219824637351 0.01426890384534259
  endloop
endfacet
facet normal -0.408288 0.912853 6.79699e-17
  outer loop
    vertex 0.02171445558442691 0.01008769682462871 0.02
    vertex 0.02438982254258458 0.01128429661162793 0.01434404344482884
    vertex 0.01939709237845378 0.009051219824637351 0.01426890384534259
  endloop
endfacet
endsolid Created by Gmsh
