solid Created by Gmsh
facet normal -0.996229 -0.0867684 2.8503e-16
  outer loop
    vertex 0.030489919932433 0.039375 0.01000000000000003
    vertex 0.03 0.045 0.009999999999999972
    vertex 0.0302449599662165 0.0421875 0.005
  endloop
endfacet
facet normal -0.996229 -0.0867684 -2.8503e-16
  outer loop
    vertex 0.03 0.045 0.009999999999999972
    vertex 0.030489919932433 0.039375 0.01000000000000003
    vertex 0.0302449599662165 0.0421875 0.015
  endloop
endfacet
facet normal -0.996229 -0.0867684 2.8503e-16
  outer loop
    vertex 0.030489919932433 0.039375 0.02
    vertex 0.03 0.045 0.02
    vertex 0.0302449599662165 0.0421875 0.015
  endloop
endfacet
facet normal -0.996229 -0.0867684 -2.8503e-16
  outer loop
    vertex 0.03 0.045 0
    vertex 0.030489919932433 0.039375 0
    vertex 0.0302449599662165 0.0421875 0.005
  endloop
endfacet
facet normal -0.996229 -0.0867684 -0
  outer loop
    vertex 0.03 0.045 0.009999999999999972
    vertex 0.03 0.045 0
    vertex 0.0302449599662165 0.0421875 0.005
  endloop
endfacet
facet normal -0.996229 -0.0867684 -0
  outer loop
    vertex 0.03 0.045 0.02
    vertex 0.03 0.045 0.009999999999999972
    vertex 0.0302449599662165 0.0421875 0.015
  endloop
endfacet
facet normal -0.996229 -0.0867684 0
  outer loop
    vertex 0.030489919932433 0.039375 0
    vertex 0.030489919932433 0.039375 0.01000000000000003
    vertex 0.0302449599662165 0.0421875 0.005
  endloop
endfacet
facet normal -0.996229 -0.0867684 0
  outer loop
    vertex 0.030489919932433 0.039375 0.01000000000000003
    vertex 0.030489919932433 0.039375 0.02
    vertex 0.0302449599662165 0.0421875 0.015
  endloop
endfacet
facet normal -0.30699 -0.951713 -4.32212e-16
  outer loop
    vertex 0.030489919932433 0.039375 0
    vertex 0.03920907875588955 0.0365625 0
    vertex 0.03765515214420669 0.0370637431455659 0.007700826414516741
  endloop
endfacet
facet normal -0.30699 -0.951713 -0
  outer loop
    vertex 0.030489919932433 0.039375 0.009999999999999972
    vertex 0.030489919932433 0.039375 0
    vertex 0.03765515214420669 0.0370637431455659 0.007700826414516741
  endloop
endfacet
facet normal -0.30699 -0.951713 0
  outer loop
    vertex 0.0479282375793461 0.03375 0.01000000000000003
    vertex 0.0479282375793461 0.03375 0.02
    vertex 0.04187549393105824 0.03570240640244021 0.01337009672253775
  endloop
endfacet
facet normal -0.30699 -0.951713 8.36711e-16
  outer loop
    vertex 0.0479282375793461 0.03375 0.02
    vertex 0.03920907875588955 0.0365625 0.02
    vertex 0.04187549393105824 0.03570240640244021 0.01337009672253775
  endloop
endfacet
facet normal -0.30699 -0.951713 0
  outer loop
    vertex 0.0479282375793461 0.03375 0
    vertex 0.0479282375793461 0.03375 0.01000000000000003
    vertex 0.04356865816761783 0.03515624999999999 0.004994745706846451
  endloop
endfacet
facet normal -0.30699 -0.951713 -0
  outer loop
    vertex 0.030489919932433 0.039375 0.02
    vertex 0.030489919932433 0.039375 0.009999999999999972
    vertex 0.03594391293920409 0.03761572990960122 0.01421418462741089
  endloop
endfacet
facet normal -0.30699 -0.951713 -1.11063e-15
  outer loop
    vertex 0.03920907875588955 0.0365625 0
    vertex 0.0479282375793461 0.03375 0
    vertex 0.04356865816761783 0.03515624999999999 0.004994745706846451
  endloop
endfacet
facet normal -0.30699 -0.951713 7.03104e-16
  outer loop
    vertex 0.03920907875588955 0.0365625 0.02
    vertex 0.030489919932433 0.039375 0.02
    vertex 0.03594391293920409 0.03761572990960122 0.01421418462741089
  endloop
endfacet
facet normal -0.30699 -0.951713 2.8697e-16
  outer loop
    vertex 0.03765515214420669 0.0370637431455659 0.007700826414516741
    vertex 0.04356865816761783 0.03515624999999999 0.004994745706846451
    vertex 0.04187549393105824 0.03570240640244021 0.01337009672253775
  endloop
endfacet
facet normal -0.30699 -0.951713 3.46816e-16
  outer loop
    vertex 0.03594391293920409 0.03761572990960122 0.01421418462741089
    vertex 0.03765515214420669 0.0370637431455659 0.007700826414516741
    vertex 0.04187549393105824 0.03570240640244021 0.01337009672253775
  endloop
endfacet
facet normal -0.30699 -0.951713 5.0173e-16
  outer loop
    vertex 0.04356865816761783 0.03515624999999999 0.004994745706846451
    vertex 0.0479282375793461 0.03375 0.01000000000000003
    vertex 0.04187549393105824 0.03570240640244021 0.01337009672253775
  endloop
endfacet
facet normal -0.30699 -0.951713 2.26361e-16
  outer loop
    vertex 0.03594391293920409 0.03761572990960122 0.01421418462741089
    vertex 0.030489919932433 0.039375 0.009999999999999972
    vertex 0.03765515214420669 0.0370637431455659 0.007700826414516741
  endloop
endfacet
facet normal -0.30699 -0.951713 -4.77823e-16
  outer loop
    vertex 0.03765515214420669 0.0370637431455659 0.007700826414516741
    vertex 0.03920907875588955 0.0365625 0
    vertex 0.04356865816761783 0.03515624999999999 0.004994745706846451
  endloop
endfacet
facet normal -0.30699 -0.951713 9.13215e-16
  outer loop
    vertex 0.03920907875588955 0.0365625 0.02
    vertex 0.03594391293920409 0.03761572990960122 0.01421418462741089
    vertex 0.04187549393105824 0.03570240640244021 0.01337009672253775
  endloop
endfacet
facet normal -0.480351 0.877076 -5.55547e-16
  outer loop
    vertex 0.0479282375793461 0.03375 0
    vertex 0.03765750350357788 0.028125 0
    vertex 0.04279287054146199 0.0309375 0.005728862973760926
  endloop
endfacet
facet normal -0.480351 0.877076 4.86596e-16
  outer loop
    vertex 0.03765750350357788 0.028125 0.02
    vertex 0.0479282375793461 0.03375 0.02
    vertex 0.04279287054146199 0.0309375 0.01405396560956745
  endloop
endfacet
facet normal -0.480351 0.877076 0
  outer loop
    vertex 0.04279287054146199 0.0309375 0.005728862973760926
    vertex 0.03765750350357788 0.028125 0.01000000000000003
    vertex 0.04279287054146199 0.0309375 0.01405396560956745
  endloop
endfacet
facet normal -0.480351 0.877076 0
  outer loop
    vertex 0.0479282375793461 0.03375 0.009999999999999972
    vertex 0.04279287054146199 0.0309375 0.005728862973760926
    vertex 0.04279287054146199 0.0309375 0.01405396560956745
  endloop
endfacet
facet normal -0.480351 0.877076 0
  outer loop
    vertex 0.0479282375793461 0.03375 0.02
    vertex 0.0479282375793461 0.03375 0.009999999999999972
    vertex 0.04279287054146199 0.0309375 0.01405396560956745
  endloop
endfacet
facet normal -0.480351 0.877076 0
  outer loop
    vertex 0.03765750350357788 0.028125 0
    vertex 0.03765750350357788 0.028125 0.01000000000000003
    vertex 0.04279287054146199 0.0309375 0.005728862973760926
  endloop
endfacet
facet normal -0.480351 0.877076 0
  outer loop
    vertex 0.0479282375793461 0.03375 0.009999999999999972
    vertex 0.0479282375793461 0.03375 0
    vertex 0.04279287054146199 0.0309375 0.005728862973760926
  endloop
endfacet
facet normal -0.480351 0.877076 0
  outer loop
    vertex 0.03765750350357788 0.028125 0.01000000000000003
    vertex 0.03765750350357788 0.028125 0.02
    vertex 0.04279287054146199 0.0309375 0.01405396560956745
  endloop
endfacet
facet normal -0.705088 -0.70912 0
  outer loop
    vertex 0.04331467337574788 0.0225 0
    vertex 0.04331467337574788 0.0225 0.01000000000000003
    vertex 0.04048608843966287 0.0253125 0.005
  endloop
endfacet
facet normal -0.705088 -0.70912 -0
  outer loop
    vertex 0.03765750350357788 0.028125 0.02
    vertex 0.03765750350357788 0.028125 0.009999999999999972
    vertex 0.04048608843966287 0.0253125 0.015
  endloop
endfacet
facet normal -0.705088 -0.70912 0
  outer loop
    vertex 0.04331467337574788 0.0225 0.01000000000000003
    vertex 0.04331467337574788 0.0225 0.02
    vertex 0.04048608843966287 0.0253125 0.015
  endloop
endfacet
facet normal -0.705088 -0.70912 -0
  outer loop
    vertex 0.03765750350357788 0.028125 0.009999999999999972
    vertex 0.03765750350357788 0.028125 0
    vertex 0.04048608843966287 0.0253125 0.005
  endloop
endfacet
facet normal -0.705088 -0.70912 -5.09638e-16
  outer loop
    vertex 0.03765750350357788 0.028125 0
    vertex 0.04331467337574788 0.0225 0
    vertex 0.04048608843966287 0.0253125 0.005
  endloop
endfacet
facet normal -0.705088 -0.70912 -5.09638e-16
  outer loop
    vertex 0.03765750350357788 0.028125 0.009999999999999972
    vertex 0.04331467337574788 0.0225 0.01000000000000003
    vertex 0.04048608843966287 0.0253125 0.015
  endloop
endfacet
facet normal -0.705088 -0.70912 4.24699e-16
  outer loop
    vertex 0.04331467337574788 0.0225 0.02
    vertex 0.03765750350357788 0.028125 0.02
    vertex 0.04048608843966287 0.0253125 0.015
  endloop
endfacet
facet normal -0.705088 -0.70912 4.24699e-16
  outer loop
    vertex 0.04331467337574788 0.0225 0.01000000000000003
    vertex 0.03765750350357788 0.028125 0.009999999999999972
    vertex 0.04048608843966287 0.0253125 0.005
  endloop
endfacet
facet normal -0.31632 0.948652 9.81888e-17
  outer loop
    vertex 0.04331467337574788 0.0225 0
    vertex 0.03487992110404937 0.0196875 0
    vertex 0.03615059894335294 0.02011119725961396 0.007761809973313452
  endloop
endfacet
facet normal -0.31632 0.948652 0
  outer loop
    vertex 0.04331467337574788 0.0225 0.009999999999999972
    vertex 0.04331467337574788 0.0225 0
    vertex 0.03615059894335294 0.02011119725961396 0.007761809973313452
  endloop
endfacet
facet normal -0.31632 0.948652 0
  outer loop
    vertex 0.02644516883235085 0.016875 0.01000000000000003
    vertex 0.02644516883235085 0.016875 0.02
    vertex 0.03225756806161545 0.01881309756418784 0.01350505540651251
  endloop
endfacet
facet normal -0.31632 0.948652 0
  outer loop
    vertex 0.02644516883235085 0.016875 0
    vertex 0.02644516883235085 0.016875 0.01000000000000003
    vertex 0.03081173806132375 0.01833099723155986 0.005151448803187859
  endloop
endfacet
facet normal -0.31632 0.948652 2.34682e-16
  outer loop
    vertex 0.02644516883235085 0.016875 0.02
    vertex 0.03487992110404935 0.0196875 0.02
    vertex 0.03225756806161545 0.01881309756418784 0.01350505540651251
  endloop
endfacet
facet normal -0.31632 0.948652 0
  outer loop
    vertex 0.04331467337574788 0.0225 0.02
    vertex 0.04331467337574788 0.0225 0.009999999999999972
    vertex 0.0379834869721027 0.02072235896476036 0.01425337307596519
  endloop
endfacet
facet normal -0.31632 0.948652 -3.69859e-17
  outer loop
    vertex 0.03487992110404937 0.0196875 0
    vertex 0.02644516883235085 0.016875 0
    vertex 0.03081173806132375 0.01833099723155986 0.005151448803187859
  endloop
endfacet
facet normal -0.31632 0.948652 -1.32621e-16
  outer loop
    vertex 0.03487992110404935 0.0196875 0.02
    vertex 0.04331467337574788 0.0225 0.02
    vertex 0.0379834869721027 0.02072235896476036 0.01425337307596519
  endloop
endfacet
facet normal -0.31632 0.948652 -3.93655e-17
  outer loop
    vertex 0.03225756806161545 0.01881309756418784 0.01350505540651251
    vertex 0.03615059894335294 0.02011119725961396 0.007761809973313452
    vertex 0.03081173806132375 0.01833099723155986 0.005151448803187859
  endloop
endfacet
facet normal -0.31632 0.948652 3.69556e-17
  outer loop
    vertex 0.02644516883235085 0.016875 0.01000000000000003
    vertex 0.03225756806161545 0.01881309756418784 0.01350505540651251
    vertex 0.03081173806132375 0.01833099723155986 0.005151448803187859
  endloop
endfacet
facet normal -0.31632 0.948652 1.68346e-16
  outer loop
    vertex 0.0379834869721027 0.02072235896476036 0.01425337307596519
    vertex 0.03615059894335294 0.02011119725961396 0.007761809973313452
    vertex 0.03225756806161545 0.01881309756418784 0.01350505540651251
  endloop
endfacet
facet normal -0.31632 0.948652 3.03196e-16
  outer loop
    vertex 0.0379834869721027 0.02072235896476036 0.01425337307596519
    vertex 0.04331467337574788 0.0225 0.009999999999999972
    vertex 0.03615059894335294 0.02011119725961396 0.007761809973313452
  endloop
endfacet
facet normal -0.31632 0.948652 8.43118e-17
  outer loop
    vertex 0.03615059894335294 0.02011119725961396 0.007761809973313452
    vertex 0.03487992110404937 0.0196875 0
    vertex 0.03081173806132375 0.01833099723155986 0.005151448803187859
  endloop
endfacet
facet normal -0.31632 0.948652 1.59672e-16
  outer loop
    vertex 0.03487992110404935 0.0196875 0.02
    vertex 0.0379834869721027 0.02072235896476036 0.01425337307596519
    vertex 0.03225756806161545 0.01881309756418784 0.01350505540651251
  endloop
endfacet
facet normal -0.343302 -0.939225 4.11682e-16
  outer loop
    vertex 0.03413976075773217 0.0140625 0
    vertex 0.0418343526831135 0.01125 0
    vertex 0.03362981422068771 0.01424889385289643 0.007911038735648199
  endloop
endfacet
facet normal -0.343302 -0.939225 0
  outer loop
    vertex 0.0418343526831135 0.01125 0
    vertex 0.0418343526831135 0.01125 0.01000000000000003
    vertex 0.03362981422068771 0.01424889385289643 0.007911038735648199
  endloop
endfacet
facet normal -0.343302 -0.939225 3.65939e-16
  outer loop
    vertex 0.02644516883235085 0.016875 0
    vertex 0.03413976075773217 0.0140625 0
    vertex 0.03362981422068771 0.01424889385289643 0.007911038735648199
  endloop
endfacet
facet normal -0.343302 -0.939225 -0
  outer loop
    vertex 0.02644516883235085 0.016875 0.009999999999999972
    vertex 0.02644516883235085 0.016875 0
    vertex 0.03362981422068771 0.01424889385289643 0.007911038735648199
  endloop
endfacet
facet normal -0.343302 -0.939225 0
  outer loop
    vertex 0.0418343526831135 0.01125 0.01000000000000003
    vertex 0.0418343526831135 0.01125 0.02
    vertex 0.0365707955766351 0.01317391675939811 0.01445202358972146
  endloop
endfacet
facet normal -0.343302 -0.939225 -0
  outer loop
    vertex 0.02644516883235085 0.016875 0.02
    vertex 0.02644516883235085 0.016875 0.009999999999999972
    vertex 0.03141569753852862 0.01505818994409412 0.01434907921295905
  endloop
endfacet
facet normal -0.343302 -0.939225 -5.21804e-16
  outer loop
    vertex 0.0418343526831135 0.01125 0.02
    vertex 0.03413976075773218 0.0140625 0.02
    vertex 0.0365707955766351 0.01317391675939811 0.01445202358972146
  endloop
endfacet
facet normal -0.343302 -0.939225 -5.48891e-16
  outer loop
    vertex 0.03413976075773218 0.0140625 0.02
    vertex 0.02644516883235085 0.016875 0.02
    vertex 0.03141569753852862 0.01505818994409412 0.01434907921295905
  endloop
endfacet
facet normal -0.343302 -0.939225 3.01333e-16
  outer loop
    vertex 0.03362981422068771 0.01424889385289643 0.007911038735648199
    vertex 0.0418343526831135 0.01125 0.01000000000000003
    vertex 0.0365707955766351 0.01317391675939811 0.01445202358972146
  endloop
endfacet
facet normal -0.343302 -0.939225 3.43984e-16
  outer loop
    vertex 0.03141569753852862 0.01505818994409412 0.01434907921295905
    vertex 0.02644516883235085 0.016875 0.009999999999999972
    vertex 0.03362981422068771 0.01424889385289643 0.007911038735648199
  endloop
endfacet
facet normal -0.343302 -0.939225 1.6665e-16
  outer loop
    vertex 0.03141569753852862 0.01505818994409412 0.01434907921295905
    vertex 0.03362981422068771 0.01424889385289643 0.007911038735648199
    vertex 0.0365707955766351 0.01317391675939811 0.01445202358972146
  endloop
endfacet
facet normal -0.343302 -0.939225 -4.82562e-16
  outer loop
    vertex 0.03413976075773218 0.0140625 0.02
    vertex 0.03141569753852862 0.01505818994409412 0.01434907921295905
    vertex 0.0365707955766351 0.01317391675939811 0.01445202358972146
  endloop
endfacet
facet normal -0.501531 0.86514 -2.73601e-16
  outer loop
    vertex 0.0418343526831135 0.01125 0
    vertex 0.03213124639780628 0.005624999999999998 0
    vertex 0.03698279954045989 0.008437499999999999 0.005520616409829229
  endloop
endfacet
facet normal -0.501531 0.86514 2.65414e-16
  outer loop
    vertex 0.03213124639780628 0.005624999999999998 0.02
    vertex 0.0418343526831135 0.01125 0.02
    vertex 0.03698279954045989 0.008437499999999999 0.01430908282870476
  endloop
endfacet
facet normal -0.501531 0.86514 0
  outer loop
    vertex 0.0418343526831135 0.01125 0.009999999999999972
    vertex 0.03698279954045989 0.008437499999999999 0.005520616409829229
    vertex 0.03698279954045989 0.008437499999999999 0.01430908282870476
  endloop
endfacet
facet normal -0.501531 0.86514 0
  outer loop
    vertex 0.03698279954045989 0.008437499999999999 0.005520616409829229
    vertex 0.03213124639780628 0.005624999999999998 0.01000000000000003
    vertex 0.03698279954045989 0.008437499999999999 0.01430908282870476
  endloop
endfacet
facet normal -0.501531 0.86514 0
  outer loop
    vertex 0.03213124639780628 0.005624999999999998 0
    vertex 0.03213124639780628 0.005624999999999998 0.01000000000000003
    vertex 0.03698279954045989 0.008437499999999999 0.005520616409829229
  endloop
endfacet
facet normal -0.501531 0.86514 0
  outer loop
    vertex 0.0418343526831135 0.01125 0.02
    vertex 0.0418343526831135 0.01125 0.009999999999999972
    vertex 0.03698279954045989 0.008437499999999999 0.01430908282870476
  endloop
endfacet
facet normal -0.501531 0.86514 0
  outer loop
    vertex 0.0418343526831135 0.01125 0.009999999999999972
    vertex 0.0418343526831135 0.01125 0
    vertex 0.03698279954045989 0.008437499999999999 0.005520616409829229
  endloop
endfacet
facet normal -0.501531 0.86514 0
  outer loop
    vertex 0.03213124639780628 0.005624999999999998 0.01000000000000003
    vertex 0.03213124639780628 0.005624999999999998 0.02
    vertex 0.03698279954045989 0.008437499999999999 0.01430908282870476
  endloop
endfacet
endsolid Created by Gmsh
