solid Created by Gmsh
facet normal -0.679727 0.733465 4.66244e-16
  outer loop
    vertex 0.02476831704112287 0.0484069394336204 0.02
    vertex 0.03223030892830628 0.05532221649556617 0.02
    vertex 0.02849931298471458 0.05186457796459329 0.01500000000000001
  endloop
endfacet
facet normal -0.679727 0.733465 -5.3285e-16
  outer loop
    vertex 0.03223030892830628 0.05532221649556617 0
    vertex 0.02476831704112287 0.0484069394336204 0
    vertex 0.02849931298471458 0.05186457796459329 0.004999999999999984
  endloop
endfacet
facet normal -0.679727 0.733465 0
  outer loop
    vertex 0.02849931298471458 0.05186457796459329 0.004999999999999984
    vertex 0.02476831704112287 0.0484069394336204 0.01000000000000003
    vertex 0.02849931298471458 0.05186457796459329 0.01500000000000001
  endloop
endfacet
facet normal -0.679727 0.733465 0
  outer loop
    vertex 0.03223030892830628 0.05532221649556617 0.02
    vertex 0.03223030892830628 0.05532221649556617 0.009999999999999972
    vertex 0.02849931298471458 0.05186457796459329 0.01500000000000001
  endloop
endfacet
facet normal -0.679727 0.733465 0
  outer loop
    vertex 0.02476831704112287 0.0484069394336204 0
    vertex 0.02476831704112287 0.0484069394336204 0.01000000000000003
    vertex 0.02849931298471458 0.05186457796459329 0.004999999999999984
  endloop
endfacet
facet normal -0.679727 0.733465 0
  outer loop
    vertex 0.03223030892830628 0.05532221649556617 0.009999999999999972
    vertex 0.02849931298471458 0.05186457796459329 0.004999999999999984
    vertex 0.02849931298471458 0.05186457796459329 0.01500000000000001
  endloop
endfacet
facet normal -0.679727 0.733465 0
  outer loop
    vertex 0.03223030892830628 0.05532221649556617 0.009999999999999972
    vertex 0.03223030892830628 0.05532221649556617 0
    vertex 0.02849931298471458 0.05186457796459329 0.004999999999999984
  endloop
endfacet
facet normal -0.679727 0.733465 0
  outer loop
    vertex 0.02476831704112287 0.0484069394336204 0.01000000000000003
    vertex 0.02476831704112287 0.0484069394336204 0.02
    vertex 0.02849931298471458 0.05186457796459329 0.01500000000000001
  endloop
endfacet
facet normal -0.302085 -0.953281 1.17495e-16
  outer loop
    vertex 0.03567949604593489 0.04494930090264752 0.02
    vertex 0.02476831704112287 0.0484069394336204 0.02
    vertex 0.03327452788651829 0.04571141016417594 0.008662840930721956
  endloop
endfacet
facet normal -0.302085 -0.953281 -0
  outer loop
    vertex 0.02476831704112287 0.0484069394336204 0.009999999999999972
    vertex 0.02476831704112287 0.0484069394336204 0
    vertex 0.03327452788651829 0.04571141016417594 0.008662840930721956
  endloop
endfacet
facet normal -0.302085 -0.953281 4.44214e-16
  outer loop
    vertex 0.02476831704112287 0.0484069394336204 0
    vertex 0.03567949604593489 0.04494930090264751 0
    vertex 0.03327452788651829 0.04571141016417594 0.008662840930721956
  endloop
endfacet
facet normal -0.302085 -0.953281 -1.28152e-16
  outer loop
    vertex 0.04659067505074691 0.04149166237167463 0.02
    vertex 0.03567949604593489 0.04494930090264752 0.02
    vertex 0.04004981521380362 0.04356439245775737 0.01307045523058772
  endloop
endfacet
facet normal -0.302085 -0.953281 1.11696e-15
  outer loop
    vertex 0.03567949604593489 0.04494930090264751 0
    vertex 0.04659067505074691 0.04149166237167463 0
    vertex 0.04034410441697096 0.04347113528658714 0.006360370271860127
  endloop
endfacet
facet normal -0.302085 -0.953281 1.52438e-16
  outer loop
    vertex 0.03567949604593489 0.04494930090264752 0.02
    vertex 0.03327452788651829 0.04571141016417594 0.008662840930721956
    vertex 0.04004981521380362 0.04356439245775737 0.01307045523058772
  endloop
endfacet
facet normal -0.302085 -0.953281 0
  outer loop
    vertex 0.04659067505074691 0.04149166237167463 0.01000000000000003
    vertex 0.04659067505074691 0.04149166237167463 0.02
    vertex 0.04004981521380362 0.04356439245775737 0.01307045523058772
  endloop
endfacet
facet normal -0.302085 -0.953281 0
  outer loop
    vertex 0.04659067505074691 0.04149166237167463 0
    vertex 0.04659067505074691 0.04149166237167463 0.01000000000000003
    vertex 0.04034410441697096 0.04347113528658714 0.006360370271860127
  endloop
endfacet
facet normal -0.302085 -0.953281 -3.45365e-16
  outer loop
    vertex 0.03327452788651829 0.04571141016417594 0.008662840930721956
    vertex 0.04034410441697096 0.04347113528658714 0.006360370271860127
    vertex 0.04004981521380362 0.04356439245775737 0.01307045523058772
  endloop
endfacet
facet normal -0.302085 -0.953281 7.53752e-16
  outer loop
    vertex 0.03567949604593489 0.04494930090264751 0
    vertex 0.04034410441697096 0.04347113528658714 0.006360370271860127
    vertex 0.03327452788651829 0.04571141016417594 0.008662840930721956
  endloop
endfacet
facet normal -0.302085 -0.953281 -3.85076e-16
  outer loop
    vertex 0.04034410441697096 0.04347113528658714 0.006360370271860127
    vertex 0.04659067505074691 0.04149166237167463 0.01000000000000003
    vertex 0.04004981521380362 0.04356439245775737 0.01307045523058772
  endloop
endfacet
facet normal -0.302085 -0.953281 -0
  outer loop
    vertex 0.02476831704112287 0.0484069394336204 0.02
    vertex 0.02476831704112287 0.0484069394336204 0.009999999999999972
    vertex 0.03327452788651829 0.04571141016417594 0.008662840930721956
  endloop
endfacet
facet normal -0.452655 0.891686 -8.75897e-16
  outer loop
    vertex 0.03296827116132132 0.03457638530972885 0.02
    vertex 0.03977947310603411 0.03803402384070174 0.02
    vertex 0.03987876176412031 0.03808442673473924 0.01240397048527492
  endloop
endfacet
facet normal -0.452655 0.891686 -8.84108e-16
  outer loop
    vertex 0.03977947310603411 0.03803402384070174 0.02
    vertex 0.04659067505074691 0.04149166237167463 0.02
    vertex 0.03987876176412031 0.03808442673473924 0.01240397048527492
  endloop
endfacet
facet normal -0.452655 0.891686 0
  outer loop
    vertex 0.04659067505074691 0.04149166237167463 0.02
    vertex 0.04659067505074691 0.04149166237167463 0.009999999999999972
    vertex 0.03987876176412031 0.03808442673473924 0.01240397048527492
  endloop
endfacet
facet normal -0.452655 0.891686 0
  outer loop
    vertex 0.03296827116132132 0.03457638530972885 0.01000000000000003
    vertex 0.03296827116132132 0.03457638530972885 0.02
    vertex 0.03987876176412031 0.03808442673473924 0.01240397048527492
  endloop
endfacet
facet normal -0.452655 0.891686 0
  outer loop
    vertex 0.03296827116132132 0.03457638530972885 0
    vertex 0.03296827116132132 0.03457638530972885 0.01000000000000003
    vertex 0.03773611252262028 0.03699673228140987 0.005375216042137921
  endloop
endfacet
facet normal -0.452655 0.891686 0
  outer loop
    vertex 0.04659067505074691 0.04149166237167463 0.009999999999999972
    vertex 0.04659067505074691 0.04149166237167463 0
    vertex 0.04242083509300708 0.03937488483036806 0.005397026646773256
  endloop
endfacet
facet normal -0.452655 0.891686 4.59406e-16
  outer loop
    vertex 0.03773611252262028 0.03699673228140987 0.005375216042137921
    vertex 0.03987876176412031 0.03808442673473924 0.01240397048527492
    vertex 0.04242083509300708 0.03937488483036806 0.005397026646773256
  endloop
endfacet
facet normal -0.452655 0.891686 4.95112e-16
  outer loop
    vertex 0.03977947310603412 0.03803402384070174 0
    vertex 0.03296827116132132 0.03457638530972885 0
    vertex 0.03773611252262028 0.03699673228140987 0.005375216042137921
  endloop
endfacet
facet normal -0.452655 0.891686 7.39667e-16
  outer loop
    vertex 0.04659067505074691 0.04149166237167463 0
    vertex 0.03977947310603412 0.03803402384070174 0
    vertex 0.04242083509300708 0.03937488483036806 0.005397026646773256
  endloop
endfacet
facet normal -0.452655 0.891686 5.98817e-16
  outer loop
    vertex 0.03977947310603412 0.03803402384070174 0
    vertex 0.03773611252262028 0.03699673228140987 0.005375216042137921
    vertex 0.04242083509300708 0.03937488483036806 0.005397026646773256
  endloop
endfacet
facet normal -0.452655 0.891686 0
  outer loop
    vertex 0.03987876176412031 0.03808442673473924 0.01240397048527492
    vertex 0.04659067505074691 0.04149166237167463 0.009999999999999972
    vertex 0.04242083509300708 0.03937488483036806 0.005397026646773256
  endloop
endfacet
facet normal -0.452655 0.891686 2.7831e-16
  outer loop
    vertex 0.03773611252262028 0.03699673228140987 0.005375216042137921
    vertex 0.03296827116132132 0.03457638530972885 0.01000000000000003
    vertex 0.03987876176412031 0.03808442673473924 0.01240397048527492
  endloop
endfacet
facet normal -0.748196 -0.663478 -0
  outer loop
    vertex 0.03296827116132132 0.03457638530972885 0.02
    vertex 0.03296827116132132 0.03457638530972885 0.009999999999999972
    vertex 0.03603440474441648 0.03111874677875597 0.015
  endloop
endfacet
facet normal -0.748196 -0.663478 0
  outer loop
    vertex 0.03910053832751163 0.02766110824778309 0
    vertex 0.03910053832751163 0.02766110824778309 0.01000000000000003
    vertex 0.03603440474441648 0.03111874677875597 0.004999999999999999
  endloop
endfacet
facet normal -0.748196 -0.663478 -0
  outer loop
    vertex 0.03296827116132132 0.03457638530972885 0.009999999999999972
    vertex 0.03296827116132132 0.03457638530972885 0
    vertex 0.03603440474441648 0.03111874677875597 0.004999999999999999
  endloop
endfacet
facet normal -0.748196 -0.663478 0
  outer loop
    vertex 0.03910053832751163 0.02766110824778309 0.01000000000000003
    vertex 0.03910053832751163 0.02766110824778309 0.02
    vertex 0.03603440474441648 0.03111874677875597 0.015
  endloop
endfacet
facet normal -0.748196 -0.663478 -8.06471e-16
  outer loop
    vertex 0.03910053832751163 0.02766110824778309 0.02
    vertex 0.03296827116132132 0.03457638530972885 0.02
    vertex 0.03603440474441648 0.03111874677875597 0.015
  endloop
endfacet
facet normal -0.748196 -0.663478 7.33155e-16
  outer loop
    vertex 0.03296827116132132 0.03457638530972885 0.009999999999999972
    vertex 0.03910053832751163 0.02766110824778309 0.01000000000000003
    vertex 0.03603440474441648 0.03111874677875597 0.015
  endloop
endfacet
facet normal -0.748196 -0.663478 7.33155e-16
  outer loop
    vertex 0.03296827116132132 0.03457638530972885 0
    vertex 0.03910053832751163 0.02766110824778309 0
    vertex 0.03603440474441648 0.03111874677875597 0.004999999999999999
  endloop
endfacet
facet normal -0.748196 -0.663478 -8.06471e-16
  outer loop
    vertex 0.03910053832751163 0.02766110824778309 0.01000000000000003
    vertex 0.03296827116132132 0.03457638530972885 0.009999999999999972
    vertex 0.03603440474441648 0.03111874677875597 0.004999999999999999
  endloop
endfacet
facet normal -0.998065 0.0621786 6.72376e-16
  outer loop
    vertex 0.03910053832751163 0.02766110824778309 0
    vertex 0.03866972265648762 0.02074583118583732 0
    vertex 0.03888513049199963 0.0242034697168102 0.004999999999999999
  endloop
endfacet
facet normal -0.998065 0.0621786 6.72376e-16
  outer loop
    vertex 0.03910053832751163 0.02766110824778309 0.009999999999999972
    vertex 0.03866972265648762 0.02074583118583732 0.01000000000000003
    vertex 0.03888513049199963 0.0242034697168102 0.015
  endloop
endfacet
facet normal -0.998065 0.0621786 -6.66264e-16
  outer loop
    vertex 0.03866972265648762 0.02074583118583732 0.02
    vertex 0.03910053832751163 0.02766110824778309 0.02
    vertex 0.03888513049199963 0.0242034697168102 0.015
  endloop
endfacet
facet normal -0.998065 0.0621786 -6.66264e-16
  outer loop
    vertex 0.03866972265648762 0.02074583118583732 0.01000000000000003
    vertex 0.03910053832751163 0.02766110824778309 0.009999999999999972
    vertex 0.03888513049199963 0.0242034697168102 0.004999999999999999
  endloop
endfacet
facet normal -0.998065 0.0621786 0
  outer loop
    vertex 0.03910053832751163 0.02766110824778309 0.009999999999999972
    vertex 0.03910053832751163 0.02766110824778309 0
    vertex 0.03888513049199963 0.0242034697168102 0.004999999999999999
  endloop
endfacet
facet normal -0.998065 0.0621786 0
  outer loop
    vertex 0.03910053832751163 0.02766110824778309 0.02
    vertex 0.03910053832751163 0.02766110824778309 0.009999999999999972
    vertex 0.03888513049199963 0.0242034697168102 0.015
  endloop
endfacet
facet normal -0.998065 0.0621786 0
  outer loop
    vertex 0.03866972265648762 0.02074583118583732 0
    vertex 0.03866972265648762 0.02074583118583732 0.01000000000000003
    vertex 0.03888513049199963 0.0242034697168102 0.004999999999999999
  endloop
endfacet
facet normal -0.998065 0.0621786 0
  outer loop
    vertex 0.03866972265648762 0.02074583118583732 0.01000000000000003
    vertex 0.03866972265648762 0.02074583118583732 0.02
    vertex 0.03888513049199963 0.0242034697168102 0.015
  endloop
endfacet
facet normal -0.794285 -0.607546 0
  outer loop
    vertex 0.04395919792330904 0.01383055412389154 0
    vertex 0.04395919792330904 0.01383055412389154 0.01000000000000003
    vertex 0.04131446028989834 0.01728819265486443 0.005
  endloop
endfacet
facet normal -0.794285 -0.607546 -0
  outer loop
    vertex 0.03866972265648762 0.02074583118583732 0.02
    vertex 0.03866972265648762 0.02074583118583732 0.009999999999999972
    vertex 0.04131446028989834 0.01728819265486443 0.015
  endloop
endfacet
facet normal -0.794285 -0.607546 0
  outer loop
    vertex 0.04395919792330904 0.01383055412389154 0.01000000000000003
    vertex 0.04395919792330904 0.01383055412389154 0.02
    vertex 0.04131446028989834 0.01728819265486443 0.015
  endloop
endfacet
facet normal -0.794285 -0.607546 -0
  outer loop
    vertex 0.03866972265648762 0.02074583118583732 0.009999999999999972
    vertex 0.03866972265648762 0.02074583118583732 0
    vertex 0.04131446028989834 0.01728819265486443 0.005
  endloop
endfacet
facet normal -0.794285 -0.607546 1.55664e-15
  outer loop
    vertex 0.03866972265648762 0.02074583118583732 0.009999999999999972
    vertex 0.04395919792330904 0.01383055412389154 0.01000000000000003
    vertex 0.04131446028989834 0.01728819265486443 0.015
  endloop
endfacet
facet normal -0.794285 -0.607546 1.55664e-15
  outer loop
    vertex 0.03866972265648762 0.02074583118583732 0
    vertex 0.04395919792330904 0.01383055412389154 0
    vertex 0.04131446028989834 0.01728819265486443 0.005
  endloop
endfacet
facet normal -0.794285 -0.607546 -1.4788e-15
  outer loop
    vertex 0.04395919792330904 0.01383055412389154 0.01000000000000003
    vertex 0.03866972265648762 0.02074583118583732 0.009999999999999972
    vertex 0.04131446028989834 0.01728819265486443 0.005
  endloop
endfacet
facet normal -0.794285 -0.607546 -1.4788e-15
  outer loop
    vertex 0.04395919792330904 0.01383055412389154 0.02
    vertex 0.03866972265648762 0.02074583118583732 0.02
    vertex 0.04131446028989834 0.01728819265486443 0.015
  endloop
endfacet
facet normal -0.519148 0.854685 1.01742e-16
  outer loop
    vertex 0.03257441611586336 0.006915277061945772 0.01000000000000003
    vertex 0.03826680701958621 0.01037291559291866 0.02
    vertex 0.04395919792330904 0.01383055412389154 0.009999999999999972
  endloop
endfacet
facet normal -0.519148 0.854685 1.01742e-16
  outer loop
    vertex 0.03826680701958619 0.01037291559291865 0
    vertex 0.03257441611586336 0.006915277061945772 0.01000000000000003
    vertex 0.04395919792330904 0.01383055412389154 0.009999999999999972
  endloop
endfacet
facet normal -0.519148 0.854685 0
  outer loop
    vertex 0.03826680701958619 0.01037291559291865 0
    vertex 0.04395919792330904 0.01383055412389154 0.009999999999999972
    vertex 0.04395919792330904 0.01383055412389154 0
  endloop
endfacet
facet normal -0.519148 0.854685 0
  outer loop
    vertex 0.04395919792330904 0.01383055412389154 0.009999999999999972
    vertex 0.03826680701958621 0.01037291559291866 0.02
    vertex 0.04395919792330904 0.01383055412389154 0.02
  endloop
endfacet
facet normal -0.519148 0.854685 0
  outer loop
    vertex 0.03257441611586336 0.006915277061945772 0.01000000000000003
    vertex 0.03826680701958619 0.01037291559291865 0
    vertex 0.03257441611586336 0.006915277061945772 0
  endloop
endfacet
facet normal -0.519148 0.854685 0
  outer loop
    vertex 0.03826680701958621 0.01037291559291866 0.02
    vertex 0.03257441611586336 0.006915277061945772 0.01000000000000003
    vertex 0.03257441611586336 0.006915277061945772 0.02
  endloop
endfacet
endsolid Created by Gmsh
