solid Created by Gmsh
facet normal 0.999848 -0.0174539 4.69356e-17
  outer loop
    vertex 0.008356101188872504 0.02039928147052796 0.02
    vertex 0.00844512648609063 0.02549910183815991 0.009606664527044831
    vertex 0.008534151783308757 0.03059892220579191 0.02
  endloop
endfacet
facet normal 0.999848 -0.0174539 6.1127e-17
  outer loop
    vertex 0.008356101188872504 0.02039928147052791 0
    vertex 0.008260315142377 0.01491217110844922 0.01086691533024337
    vertex 0.008178050594436253 0.01019964073526396 0
  endloop
endfacet
facet normal 0.999848 -0.0174539 2.53989e-17
  outer loop
    vertex 0.008712202377745008 0.04079856294105585 0
    vertex 0.008632703633717573 0.03624447183817634 0.01062470629586536
    vertex 0.008534151783308757 0.03059892220579187 0
  endloop
endfacet
facet normal 0.999848 -0.0174539 -1.19295e-17
  outer loop
    vertex 0.00844512648609063 0.02549910183815991 0.009606664527044831
    vertex 0.008632703633717573 0.03624447183817634 0.01062470629586536
    vertex 0.008534151783308757 0.03059892220579191 0.02
  endloop
endfacet
facet normal 0.999848 -0.0174539 9.79015e-19
  outer loop
    vertex 0.00844512648609063 0.02549910183815991 0.009606664527044831
    vertex 0.008260315142377 0.01491217110844922 0.01086691533024337
    vertex 0.008356101188872504 0.02039928147052791 0
  endloop
endfacet
facet normal 0.999848 -0.0174539 7.35681e-17
  outer loop
    vertex 0.008356101188872504 0.02039928147052796 0.02
    vertex 0.008260315142377 0.01491217110844922 0.01086691533024337
    vertex 0.00844512648609063 0.02549910183815991 0.009606664527044831
  endloop
endfacet
facet normal 0.999848 -0.0174539 8.29961e-17
  outer loop
    vertex 0.008534151783308757 0.03059892220579187 0
    vertex 0.008632703633717573 0.03624447183817634 0.01062470629586536
    vertex 0.00844512648609063 0.02549910183815991 0.009606664527044831
  endloop
endfacet
facet normal 0.999848 -0.0174539 1.37843e-16
  outer loop
    vertex 0.008260315142377 0.01491217110844922 0.01086691533024337
    vertex 0.008125649379910508 0.007197833502065199 0.007582156452812659
    vertex 0.008178050594436253 0.01019964073526396 0
  endloop
endfacet
facet normal 0.999848 -0.0174539 -1.71113e-17
  outer loop
    vertex 0.008712202377745008 0.04079856294105585 0
    vertex 0.00876206718160223 0.04365507171199494 0.007600033634594043
    vertex 0.008632703633717573 0.03624447183817634 0.01062470629586536
  endloop
endfacet
facet normal 0.999848 -0.0174539 2.21414e-17
  outer loop
    vertex 0.008534151783308757 0.03059892220579191 0.02
    vertex 0.008632703633717573 0.03624447183817634 0.01062470629586536
    vertex 0.008712202377745008 0.04079856294105587 0.02
  endloop
endfacet
facet normal 0.999848 -0.0174539 -2.3865e-17
  outer loop
    vertex 0.008178050594436253 0.01019964073526397 0.02
    vertex 0.008260315142377 0.01491217110844922 0.01086691533024337
    vertex 0.008356101188872504 0.02039928147052796 0.02
  endloop
endfacet
facet normal 0.999848 -0.0174539 2.59297e-17
  outer loop
    vertex 0.008534151783308757 0.03059892220579187 0
    vertex 0.00844512648609063 0.02549910183815991 0.009606664527044831
    vertex 0.008356101188872504 0.02039928147052791 0
  endloop
endfacet
facet normal 0.999848 -0.0174539 0
  outer loop
    vertex 0.008 0 0
    vertex 0.008125649379910508 0.007197833502065199 0.007582156452812659
    vertex 0.008 0 0.01000000000000003
  endloop
endfacet
facet normal 0.999848 -0.0174539 1.43733e-16
  outer loop
    vertex 0.008178050594436253 0.01019964073526396 0
    vertex 0.008125649379910508 0.007197833502065199 0.007582156452812659
    vertex 0.008 0 0
  endloop
endfacet
facet normal 0.999848 -0.0174539 0
  outer loop
    vertex 0.00889025297218126 0.05099820367631983 0.009999999999999972
    vertex 0.00876206718160223 0.04365507171199494 0.007600033634594043
    vertex 0.00889025297218126 0.05099820367631983 0
  endloop
endfacet
facet normal 0.999848 -0.0174539 1.91193e-17
  outer loop
    vertex 0.00889025297218126 0.05099820367631983 0
    vertex 0.00876206718160223 0.04365507171199494 0.007600033634594043
    vertex 0.008712202377745008 0.04079856294105585 0
  endloop
endfacet
facet normal 0.999848 -0.0174539 1.60674e-16
  outer loop
    vertex 0.008632703633717573 0.03624447183817634 0.01062470629586536
    vertex 0.00878427635533623 0.0449273257801775 0.01403210570435134
    vertex 0.008712202377745008 0.04079856294105587 0.02
  endloop
endfacet
facet normal 0.999848 -0.0174539 -1.07211e-16
  outer loop
    vertex 0.008178050594436253 0.01019964073526397 0.02
    vertex 0.008106009387308573 0.00607275515443462 0.01406415311186516
    vertex 0.008260315142377 0.01491217110844922 0.01086691533024337
  endloop
endfacet
facet normal 0.999848 -0.0174539 -2.24514e-16
  outer loop
    vertex 0.00876206718160223 0.04365507171199494 0.007600033634594043
    vertex 0.00878427635533623 0.0449273257801775 0.01403210570435134
    vertex 0.008632703633717573 0.03624447183817634 0.01062470629586536
  endloop
endfacet
facet normal 0.999848 -0.0174539 -5.91414e-17
  outer loop
    vertex 0.008260315142377 0.01491217110844922 0.01086691533024337
    vertex 0.008106009387308573 0.00607275515443462 0.01406415311186516
    vertex 0.008125649379910508 0.007197833502065199 0.007582156452812659
  endloop
endfacet
facet normal 0.999848 -0.0174539 -8.39301e-17
  outer loop
    vertex 0.008 0 0.02
    vertex 0.008106009387308573 0.00607275515443462 0.01406415311186516
    vertex 0.008178050594436253 0.01019964073526397 0.02
  endloop
endfacet
facet normal 0.999848 -0.0174539 2.40003e-16
  outer loop
    vertex 0.008712202377745008 0.04079856294105587 0.02
    vertex 0.00878427635533623 0.0449273257801775 0.01403210570435134
    vertex 0.00889025297218126 0.05099820367631983 0.02
  endloop
endfacet
facet normal 0.999848 -0.0174539 0
  outer loop
    vertex 0.00889025297218126 0.05099820367631983 0.02
    vertex 0.00878427635533623 0.0449273257801775 0.01403210570435134
    vertex 0.00889025297218126 0.05099820367631983 0.009999999999999972
  endloop
endfacet
facet normal 0.999848 -0.0174539 0
  outer loop
    vertex 0.008 0 0.01000000000000003
    vertex 0.008106009387308573 0.00607275515443462 0.01406415311186516
    vertex 0.008 0 0.02
  endloop
endfacet
facet normal 0.999848 -0.0174539 -4.69848e-17
  outer loop
    vertex 0.008125649379910508 0.007197833502065199 0.007582156452812659
    vertex 0.008106009387308573 0.00607275515443462 0.01406415311186516
    vertex 0.008 0 0.01000000000000003
  endloop
endfacet
facet normal 0.999848 -0.0174539 -2.32438e-16
  outer loop
    vertex 0.00889025297218126 0.05099820367631983 0.009999999999999972
    vertex 0.00878427635533623 0.0449273257801775 0.01403210570435134
    vertex 0.00876206718160223 0.04365507171199494 0.007600033634594043
  endloop
endfacet
endsolid Created by Gmsh
