solid Created by Gmsh
facet normal 1 0 0
  outer loop
    vertex 0.04 0.06 0
    vertex 0.04 0.05664520996927047 0.005000000000000001
    vertex 0.04 0.05329041993854094 0
  endloop
endfacet
facet normal 1 -0 0
  outer loop
    vertex 0.04 0.05329041993854094 0.02
    vertex 0.04 0.05664520996927046 0.015
    vertex 0.04 0.06 0.02
  endloop
endfacet
facet normal 1 0 0
  outer loop
    vertex 0.04 0.06 0.009999999999999972
    vertex 0.04 0.05664520996927046 0.015
    vertex 0.04 0.05329041993854094 0.01000000000000003
  endloop
endfacet
facet normal 1 0 0
  outer loop
    vertex 0.04 0.05329041993854094 0.01000000000000003
    vertex 0.04 0.05664520996927047 0.005000000000000001
    vertex 0.04 0.06 0.009999999999999972
  endloop
endfacet
facet normal 1 0 0
  outer loop
    vertex 0.04 0.06 0.009999999999999972
    vertex 0.04 0.05664520996927047 0.005000000000000001
    vertex 0.04 0.06 0
  endloop
endfacet
facet normal 1 0 0
  outer loop
    vertex 0.04 0.06 0.02
    vertex 0.04 0.05664520996927046 0.015
    vertex 0.04 0.06 0.009999999999999972
  endloop
endfacet
facet normal 1 0 0
  outer loop
    vertex 0.04 0.05329041993854094 0
    vertex 0.04 0.05664520996927047 0.005000000000000001
    vertex 0.04 0.05329041993854094 0.01000000000000003
  endloop
endfacet
facet normal 1 0 0
  outer loop
    vertex 0.04 0.05329041993854094 0.01000000000000003
    vertex 0.04 0.05664520996927046 0.015
    vertex 0.04 0.05329041993854094 0.02
  endloop
endfacet
facet normal 0.618859 -0.785502 -5.15686e-16
  outer loop
    vertex 0.04 0.05329041993854094 0
    vertex 0.03577249377801289 0.04995976869238213 0.005493512265210878
    vertex 0.03154498755602577 0.04662911744622332 0
  endloop
endfacet
facet normal 0.618859 -0.785502 8.55257e-16
  outer loop
    vertex 0.03154498755602577 0.04662911744622332 0.02
    vertex 0.03577249377801291 0.04995976869238214 0.01447938359017075
    vertex 0.04 0.05329041993854094 0.02
  endloop
endfacet
facet normal 0.618859 -0.785502 0
  outer loop
    vertex 0.03154498755602577 0.04662911744622332 0
    vertex 0.03577249377801289 0.04995976869238213 0.005493512265210878
    vertex 0.03154498755602577 0.04662911744622332 0.01000000000000003
  endloop
endfacet
facet normal 0.618859 -0.785502 0
  outer loop
    vertex 0.04 0.05329041993854094 0.02
    vertex 0.03577249377801291 0.04995976869238214 0.01447938359017075
    vertex 0.04 0.05329041993854094 0.009999999999999972
  endloop
endfacet
facet normal 0.618859 -0.785502 -2.20521e-16
  outer loop
    vertex 0.03577249377801291 0.04995976869238214 0.01447938359017075
    vertex 0.03577249377801289 0.04995976869238213 0.005493512265210878
    vertex 0.04 0.05329041993854094 0.009999999999999972
  endloop
endfacet
facet normal 0.618859 -0.785502 -2.45206e-16
  outer loop
    vertex 0.03154498755602577 0.04662911744622332 0.01000000000000003
    vertex 0.03577249377801289 0.04995976869238213 0.005493512265210878
    vertex 0.03577249377801291 0.04995976869238214 0.01447938359017075
  endloop
endfacet
facet normal 0.618859 -0.785502 0
  outer loop
    vertex 0.03154498755602577 0.04662911744622332 0.01000000000000003
    vertex 0.03577249377801291 0.04995976869238214 0.01447938359017075
    vertex 0.03154498755602577 0.04662911744622332 0.02
  endloop
endfacet
facet normal 0.618859 -0.785502 0
  outer loop
    vertex 0.04 0.05329041993854094 0.009999999999999972
    vertex 0.03577249377801289 0.04995976869238213 0.005493512265210878
    vertex 0.04 0.05329041993854094 0
  endloop
endfacet
facet normal 0.953884 0.300176 -8.49053e-16
  outer loop
    vertex 0.03154498755602577 0.04662911744622332 0.009999999999999972
    vertex 0.03259310352272515 0.04329846620006451 0.015
    vertex 0.03364121948942451 0.0399678149539057 0.01000000000000003
  endloop
endfacet
facet normal 0.953884 0.300176 -8.49053e-16
  outer loop
    vertex 0.03154498755602577 0.04662911744622332 0
    vertex 0.03259310352272515 0.04329846620006451 0.005000000000000001
    vertex 0.03364121948942451 0.0399678149539057 0
  endloop
endfacet
facet normal 0.953884 0.300176 8.73311e-16
  outer loop
    vertex 0.03364121948942451 0.0399678149539057 0.01000000000000003
    vertex 0.03259310352272515 0.04329846620006451 0.005000000000000001
    vertex 0.03154498755602577 0.04662911744622332 0.009999999999999972
  endloop
endfacet
facet normal 0.953884 0.300176 8.73311e-16
  outer loop
    vertex 0.03364121948942451 0.0399678149539057 0.02
    vertex 0.03259310352272515 0.04329846620006451 0.015
    vertex 0.03154498755602577 0.04662911744622332 0.02
  endloop
endfacet
facet normal 0.953884 0.300176 0
  outer loop
    vertex 0.03154498755602577 0.04662911744622332 0.009999999999999972
    vertex 0.03259310352272515 0.04329846620006451 0.005000000000000001
    vertex 0.03154498755602577 0.04662911744622332 0
  endloop
endfacet
facet normal 0.953884 0.300176 0
  outer loop
    vertex 0.03154498755602577 0.04662911744622332 0.02
    vertex 0.03259310352272515 0.04329846620006451 0.015
    vertex 0.03154498755602577 0.04662911744622332 0.009999999999999972
  endloop
endfacet
facet normal 0.953884 0.300176 -0
  outer loop
    vertex 0.03364121948942451 0.0399678149539057 0
    vertex 0.03259310352272515 0.04329846620006451 0.005000000000000001
    vertex 0.03364121948942451 0.0399678149539057 0.01000000000000003
  endloop
endfacet
facet normal 0.953884 0.300176 -0
  outer loop
    vertex 0.03364121948942451 0.0399678149539057 0.01000000000000003
    vertex 0.03259310352272515 0.04329846620006451 0.015
    vertex 0.03364121948942451 0.0399678149539057 0.02
  endloop
endfacet
facet normal 0.886444 0.462835 0
  outer loop
    vertex 0.03364121948942451 0.0399678149539057 0.02
    vertex 0.0353802366394653 0.0366371637077469 0.015
    vertex 0.03364121948942451 0.0399678149539057 0.009999999999999972
  endloop
endfacet
facet normal 0.886444 0.462835 -0
  outer loop
    vertex 0.03711925378950609 0.03330651246158808 0
    vertex 0.0353802366394653 0.0366371637077469 0.005000000000000001
    vertex 0.03711925378950609 0.03330651246158808 0.01000000000000003
  endloop
endfacet
facet normal 0.886444 0.462835 0
  outer loop
    vertex 0.03364121948942451 0.0399678149539057 0.009999999999999972
    vertex 0.0353802366394653 0.0366371637077469 0.005000000000000001
    vertex 0.03364121948942451 0.0399678149539057 0
  endloop
endfacet
facet normal 0.886444 0.462835 -0
  outer loop
    vertex 0.03711925378950609 0.03330651246158808 0.01000000000000003
    vertex 0.0353802366394653 0.0366371637077469 0.015
    vertex 0.03711925378950609 0.03330651246158808 0.02
  endloop
endfacet
facet normal 0.886444 0.462835 -3.1561e-16
  outer loop
    vertex 0.03364121948942451 0.0399678149539057 0.009999999999999972
    vertex 0.0353802366394653 0.0366371637077469 0.015
    vertex 0.03711925378950609 0.03330651246158808 0.01000000000000003
  endloop
endfacet
facet normal 0.886444 0.462835 3.1561e-16
  outer loop
    vertex 0.03711925378950609 0.03330651246158808 0.01000000000000003
    vertex 0.0353802366394653 0.0366371637077469 0.005000000000000001
    vertex 0.03364121948942451 0.0399678149539057 0.009999999999999972
  endloop
endfacet
facet normal 0.886444 0.462835 3.1561e-16
  outer loop
    vertex 0.03711925378950609 0.03330651246158808 0.02
    vertex 0.0353802366394653 0.0366371637077469 0.015
    vertex 0.03364121948942451 0.0399678149539057 0.02
  endloop
endfacet
facet normal 0.886444 0.462835 -3.1561e-16
  outer loop
    vertex 0.03364121948942451 0.0399678149539057 0
    vertex 0.0353802366394653 0.0366371637077469 0.005000000000000001
    vertex 0.03711925378950609 0.03330651246158808 0
  endloop
endfacet
facet normal 0.543725 -0.839264 5.53109e-17
  outer loop
    vertex 0.02683723773566089 0.02664520996927047 0.01000000000000003
    vertex 0.03711925378950609 0.03330651246158808 0.009999999999999972
    vertex 0.03197824576258348 0.02997586121542927 0.02
  endloop
endfacet
facet normal 0.543725 -0.839264 2.76554e-17
  outer loop
    vertex 0.03197824576258349 0.02997586121542928 0
    vertex 0.03711925378950609 0.03330651246158808 0.009999999999999972
    vertex 0.02683723773566089 0.02664520996927047 0.01000000000000003
  endloop
endfacet
facet normal 0.543725 -0.839264 0
  outer loop
    vertex 0.03197824576258349 0.02997586121542928 0
    vertex 0.03711925378950609 0.03330651246158808 0
    vertex 0.03711925378950609 0.03330651246158808 0.009999999999999972
  endloop
endfacet
facet normal 0.543725 -0.839264 0
  outer loop
    vertex 0.03711925378950609 0.03330651246158808 0.009999999999999972
    vertex 0.03711925378950609 0.03330651246158808 0.02
    vertex 0.03197824576258348 0.02997586121542927 0.02
  endloop
endfacet
facet normal 0.543725 -0.839264 0
  outer loop
    vertex 0.02683723773566089 0.02664520996927047 0.01000000000000003
    vertex 0.02683723773566089 0.02664520996927047 0
    vertex 0.03197824576258349 0.02997586121542928 0
  endloop
endfacet
facet normal 0.543725 -0.839264 0
  outer loop
    vertex 0.03197824576258348 0.02997586121542927 0.02
    vertex 0.02683723773566089 0.02664520996927047 0.02
    vertex 0.02683723773566089 0.02664520996927047 0.01000000000000003
  endloop
endfacet
facet normal 0.449525 0.893268 4.28851e-16
  outer loop
    vertex 0.02683723773566089 0.02664520996927047 0
    vertex 0.03359076383900461 0.02324658624870025 0.007464095081520747
    vertex 0.03345569331693773 0.02331455872311166 0
  endloop
endfacet
facet normal 0.449525 0.893268 4.23107e-16
  outer loop
    vertex 0.03345569331693773 0.02331455872311166 0
    vertex 0.03359076383900461 0.02324658624870025 0.007464095081520747
    vertex 0.04007414889821459 0.01998390747695285 0
  endloop
endfacet
facet normal 0.449525 0.893268 -0
  outer loop
    vertex 0.04007414889821459 0.01998390747695285 0
    vertex 0.03359076383900461 0.02324658624870025 0.007464095081520747
    vertex 0.04007414889821459 0.01998390747695285 0.01000000000000003
  endloop
endfacet
facet normal 0.449525 0.893268 0
  outer loop
    vertex 0.02683723773566089 0.02664520996927047 0.009999999999999972
    vertex 0.03359076383900461 0.02324658624870025 0.007464095081520747
    vertex 0.02683723773566089 0.02664520996927047 0
  endloop
endfacet
facet normal 0.449525 0.893268 0
  outer loop
    vertex 0.02683723773566089 0.02664520996927047 0.02
    vertex 0.03147015664255468 0.0243137540969593 0.01467654211992689
    vertex 0.02683723773566089 0.02664520996927047 0.009999999999999972
  endloop
endfacet
facet normal 0.449525 0.893268 -0
  outer loop
    vertex 0.04007414889821459 0.01998390747695285 0.01000000000000003
    vertex 0.03602782197286836 0.02202016860324877 0.01459151960020681
    vertex 0.04007414889821459 0.01998390747695285 0.02
  endloop
endfacet
facet normal 0.449525 0.893268 -4.08023e-16
  outer loop
    vertex 0.03345569331693774 0.02331455872311166 0.02
    vertex 0.03147015664255468 0.0243137540969593 0.01467654211992689
    vertex 0.02683723773566089 0.02664520996927047 0.02
  endloop
endfacet
facet normal 0.449525 0.893268 -7.18669e-16
  outer loop
    vertex 0.04007414889821459 0.01998390747695285 0.02
    vertex 0.03602782197286836 0.02202016860324877 0.01459151960020681
    vertex 0.03345569331693774 0.02331455872311166 0.02
  endloop
endfacet
facet normal 0.449525 0.893268 -4.62887e-17
  outer loop
    vertex 0.03147015664255468 0.0243137540969593 0.01467654211992689
    vertex 0.03602782197286836 0.02202016860324877 0.01459151960020681
    vertex 0.03359076383900461 0.02324658624870025 0.007464095081520747
  endloop
endfacet
facet normal 0.449525 0.893268 -5.41966e-16
  outer loop
    vertex 0.03345569331693774 0.02331455872311166 0.02
    vertex 0.03602782197286836 0.02202016860324877 0.01459151960020681
    vertex 0.03147015664255468 0.0243137540969593 0.01467654211992689
  endloop
endfacet
facet normal 0.449525 0.893268 0
  outer loop
    vertex 0.03147015664255468 0.0243137540969593 0.01467654211992689
    vertex 0.03359076383900461 0.02324658624870025 0.007464095081520747
    vertex 0.02683723773566089 0.02664520996927047 0.009999999999999972
  endloop
endfacet
facet normal 0.449525 0.893268 3.4023e-16
  outer loop
    vertex 0.03359076383900461 0.02324658624870025 0.007464095081520747
    vertex 0.03602782197286836 0.02202016860324877 0.01459151960020681
    vertex 0.04007414889821459 0.01998390747695285 0.01000000000000003
  endloop
endfacet
facet normal 0.557665 -0.830066 0
  outer loop
    vertex 0.04007414889821459 0.01998390747695285 0
    vertex 0.03511658943808901 0.01665325623079405 0.0060204081632653
    vertex 0.03015902997796344 0.01332260498463524 0
  endloop
endfacet
facet normal 0.557665 -0.830066 0
  outer loop
    vertex 0.03015902997796344 0.01332260498463524 0.02
    vertex 0.03511658943808901 0.01665325623079405 0.01408371511870055
    vertex 0.04007414889821459 0.01998390747695285 0.02
  endloop
endfacet
facet normal 0.557665 -0.830066 0
  outer loop
    vertex 0.03511658943808901 0.01665325623079405 0.0060204081632653
    vertex 0.03511658943808901 0.01665325623079405 0.01408371511870055
    vertex 0.03015902997796344 0.01332260498463524 0.01000000000000003
  endloop
endfacet
facet normal 0.557665 -0.830066 0
  outer loop
    vertex 0.04007414889821459 0.01998390747695285 0.02
    vertex 0.03511658943808901 0.01665325623079405 0.01408371511870055
    vertex 0.04007414889821459 0.01998390747695285 0.009999999999999972
  endloop
endfacet
facet normal 0.557665 -0.830066 0
  outer loop
    vertex 0.03015902997796344 0.01332260498463524 0
    vertex 0.03511658943808901 0.01665325623079405 0.0060204081632653
    vertex 0.03015902997796344 0.01332260498463524 0.01000000000000003
  endloop
endfacet
facet normal 0.557665 -0.830066 0
  outer loop
    vertex 0.04007414889821459 0.01998390747695285 0.009999999999999972
    vertex 0.03511658943808901 0.01665325623079405 0.01408371511870055
    vertex 0.03511658943808901 0.01665325623079405 0.0060204081632653
  endloop
endfacet
facet normal 0.557665 -0.830066 0
  outer loop
    vertex 0.04007414889821459 0.01998390747695285 0.009999999999999972
    vertex 0.03511658943808901 0.01665325623079405 0.0060204081632653
    vertex 0.04007414889821459 0.01998390747695285 0
  endloop
endfacet
facet normal 0.557665 -0.830066 0
  outer loop
    vertex 0.03015902997796344 0.01332260498463524 0.01000000000000003
    vertex 0.03511658943808901 0.01665325623079405 0.01408371511870055
    vertex 0.03015902997796344 0.01332260498463524 0.02
  endloop
endfacet
facet normal 0.919167 0.393867 0
  outer loop
    vertex 0.03301342466840111 0.006661302492317618 0.01000000000000003
    vertex 0.03158622732318227 0.009991953738476427 0.005
    vertex 0.03015902997796344 0.01332260498463524 0.009999999999999972
  endloop
endfacet
facet normal 0.919167 0.393867 0
  outer loop
    vertex 0.03015902997796344 0.01332260498463524 0.009999999999999972
    vertex 0.03158622732318227 0.009991953738476427 0.015
    vertex 0.03301342466840111 0.006661302492317618 0.01000000000000003
  endloop
endfacet
facet normal 0.919167 0.393867 0
  outer loop
    vertex 0.03301342466840111 0.006661302492317618 0.02
    vertex 0.03158622732318227 0.009991953738476427 0.015
    vertex 0.03015902997796344 0.01332260498463524 0.02
  endloop
endfacet
facet normal 0.919167 0.393867 0
  outer loop
    vertex 0.03015902997796344 0.01332260498463524 0
    vertex 0.03158622732318227 0.009991953738476427 0.005
    vertex 0.03301342466840111 0.006661302492317618 0
  endloop
endfacet
facet normal 0.919167 0.393867 0
  outer loop
    vertex 0.03015902997796344 0.01332260498463524 0.009999999999999972
    vertex 0.03158622732318227 0.009991953738476427 0.005
    vertex 0.03015902997796344 0.01332260498463524 0
  endloop
endfacet
facet normal 0.919167 0.393867 0
  outer loop
    vertex 0.03015902997796344 0.01332260498463524 0.02
    vertex 0.03158622732318227 0.009991953738476427 0.015
    vertex 0.03015902997796344 0.01332260498463524 0.009999999999999972
  endloop
endfacet
facet normal 0.919167 0.393867 -0
  outer loop
    vertex 0.03301342466840111 0.006661302492317618 0
    vertex 0.03158622732318227 0.009991953738476427 0.005
    vertex 0.03301342466840111 0.006661302492317618 0.01000000000000003
  endloop
endfacet
facet normal 0.919167 0.393867 -0
  outer loop
    vertex 0.03301342466840111 0.006661302492317618 0.01000000000000003
    vertex 0.03158622732318227 0.009991953738476427 0.015
    vertex 0.03301342466840111 0.006661302492317618 0.02
  endloop
endfacet
endsolid Created by Gmsh
