solid Created by Gmsh
facet normal 0.993861 0.110639 -5.30439e-17
  outer loop
    vertex 0.006867084603812175 0.0101769023239438 0.02
    vertex 0.006343095448783758 0.01488386143799043 0.009083776693784384
    vertex 0.005734169207624348 0.02035380464788759 0.02
  endloop
endfacet
facet normal 0.993861 0.110639 -3.86854e-17
  outer loop
    vertex 0.00346833841524871 0.04070760929577507 0
    vertex 0.003973645925519837 0.03616846613213859 0.01069136594721133
    vertex 0.004601253811436536 0.03053070697183128 0
  endloop
endfacet
facet normal 0.993861 0.110639 7.60076e-18
  outer loop
    vertex 0.006343095448783758 0.01488386143799043 0.009083776693784384
    vertex 0.005164597902070894 0.02547022513492779 0.009962523773499286
    vertex 0.005734169207624348 0.02035380464788759 0.02
  endloop
endfacet
facet normal 0.993861 0.110639 -1.64822e-17
  outer loop
    vertex 0.005734169207624348 0.02035380464788759 0.02
    vertex 0.005164597902070894 0.02547022513492779 0.009962523773499286
    vertex 0.004601253811436525 0.03053070697183137 0.02
  endloop
endfacet
facet normal 0.993861 0.110639 2.29029e-17
  outer loop
    vertex 0.003973645925519837 0.03616846613213859 0.01069136594721133
    vertex 0.005164597902070894 0.02547022513492779 0.009962523773499286
    vertex 0.004601253811436536 0.03053070697183128 0
  endloop
endfacet
facet normal 0.993861 0.110639 -2.02959e-17
  outer loop
    vertex 0.004601253811436525 0.03053070697183137 0.02
    vertex 0.005164597902070894 0.02547022513492779 0.009962523773499286
    vertex 0.003973645925519837 0.03616846613213859 0.01069136594721133
  endloop
endfacet
facet normal 0.993861 0.110639 -2.84379e-17
  outer loop
    vertex 0.00346833841524871 0.04070760929577507 0
    vertex 0.003132913258681041 0.0437207107743755 0.007576624686402857
    vertex 0.003973645925519837 0.03616846613213859 0.01069136594721133
  endloop
endfacet
facet normal 0.993861 0.110639 -9.21739e-17
  outer loop
    vertex 0.006867084603812175 0.0101769023239438 0.02
    vertex 0.007201148124464589 0.007176032328609416 0.01240698629326155
    vertex 0.006343095448783758 0.01488386143799043 0.009083776693784384
  endloop
endfacet
facet normal 0.993861 0.110639 7.50364e-17
  outer loop
    vertex 0.005734169207624359 0.0203538046478875 0
    vertex 0.005164597902070894 0.02547022513492779 0.009962523773499286
    vertex 0.006343095448783758 0.01488386143799043 0.009083776693784384
  endloop
endfacet
facet normal 0.993861 0.110639 5.81218e-17
  outer loop
    vertex 0.004601253811436536 0.03053070697183128 0
    vertex 0.005164597902070894 0.02547022513492779 0.009962523773499286
    vertex 0.005734169207624359 0.0203538046478875 0
  endloop
endfacet
facet normal 0.993861 0.110639 1.09276e-16
  outer loop
    vertex 0.005734169207624359 0.0203538046478875 0
    vertex 0.006343095448783758 0.01488386143799043 0.009083776693784384
    vertex 0.00686708460381218 0.01017690232394375 0
  endloop
endfacet
facet normal 0.993861 0.110639 3.55455e-17
  outer loop
    vertex 0.004601253811436525 0.03053070697183137 0.02
    vertex 0.003973645925519837 0.03616846613213859 0.01069136594721133
    vertex 0.003468338415248705 0.04070760929577512 0.02
  endloop
endfacet
facet normal 0.993861 0.110639 0
  outer loop
    vertex 0.002335423019060884 0.05088451161971887 0.009999999999999972
    vertex 0.003132913258681041 0.0437207107743755 0.007576624686402857
    vertex 0.002335423019060884 0.05088451161971887 0
  endloop
endfacet
facet normal 0.993861 0.110639 -0
  outer loop
    vertex 0.008 0 0.01000000000000003
    vertex 0.007201148124464589 0.007176032328609416 0.01240698629326155
    vertex 0.008 0 0.02
  endloop
endfacet
facet normal 0.993861 0.110639 -8.71537e-17
  outer loop
    vertex 0.008 0 0.02
    vertex 0.007201148124464589 0.007176032328609416 0.01240698629326155
    vertex 0.006867084603812175 0.0101769023239438 0.02
  endloop
endfacet
facet normal 0.993861 0.110639 -2.18356e-17
  outer loop
    vertex 0.002335423019060884 0.05088451161971887 0
    vertex 0.003132913258681041 0.0437207107743755 0.007576624686402857
    vertex 0.00346833841524871 0.04070760929577507 0
  endloop
endfacet
facet normal 0.993861 0.110639 3.84799e-17
  outer loop
    vertex 0.003973645925519837 0.03616846613213859 0.01069136594721133
    vertex 0.003007072153125849 0.04485113290817442 0.01403828437623059
    vertex 0.003468338415248705 0.04070760929577512 0.02
  endloop
endfacet
facet normal 0.993861 0.110639 9.02361e-17
  outer loop
    vertex 0.006343095448783758 0.01488386143799043 0.009083776693784384
    vertex 0.007325487540124673 0.006059099773498187 0.005927251855292285
    vertex 0.00686708460381218 0.01017690232394375 0
  endloop
endfacet
facet normal 0.993861 0.110639 -5.63142e-17
  outer loop
    vertex 0.003132913258681041 0.0437207107743755 0.007576624686402857
    vertex 0.003007072153125849 0.04485113290817442 0.01403828437623059
    vertex 0.003973645925519837 0.03616846613213859 0.01069136594721133
  endloop
endfacet
facet normal 0.993861 0.110639 2.3534e-17
  outer loop
    vertex 0.007201148124464589 0.007176032328609416 0.01240698629326155
    vertex 0.007325487540124673 0.006059099773498187 0.005927251855292285
    vertex 0.006343095448783758 0.01488386143799043 0.009083776693784384
  endloop
endfacet
facet normal 0.993861 0.110639 5.58235e-17
  outer loop
    vertex 0.00686708460381218 0.01017690232394375 0
    vertex 0.007325487540124673 0.006059099773498187 0.005927251855292285
    vertex 0.008 0 0
  endloop
endfacet
facet normal 0.993861 0.110639 6.9376e-17
  outer loop
    vertex 0.003468338415248705 0.04070760929577512 0.02
    vertex 0.003007072153125849 0.04485113290817442 0.01403828437623059
    vertex 0.002335423019060884 0.05088451161971887 0.02
  endloop
endfacet
facet normal 0.993861 0.110639 0
  outer loop
    vertex 0.002335423019060884 0.05088451161971887 0.02
    vertex 0.003007072153125849 0.04485113290817442 0.01403828437623059
    vertex 0.002335423019060884 0.05088451161971887 0.009999999999999972
  endloop
endfacet
facet normal 0.993861 0.110639 -0
  outer loop
    vertex 0.008 0 0
    vertex 0.007325487540124673 0.006059099773498187 0.005927251855292285
    vertex 0.008 0 0.01000000000000003
  endloop
endfacet
facet normal 0.993861 0.110639 -5.799e-17
  outer loop
    vertex 0.002335423019060884 0.05088451161971887 0.009999999999999972
    vertex 0.003007072153125849 0.04485113290817442 0.01403828437623059
    vertex 0.003132913258681041 0.0437207107743755 0.007576624686402857
  endloop
endfacet
facet normal 0.993861 0.110639 3.84308e-17
  outer loop
    vertex 0.008 0 0.01000000000000003
    vertex 0.007325487540124673 0.006059099773498187 0.005927251855292285
    vertex 0.007201148124464589 0.007176032328609416 0.01240698629326155
  endloop
endfacet
endsolid Created by Gmsh
