solid Created by Gmsh
facet normal 1 0 0
  outer loop
    vertex 0.04 0.05662231783557501 0
    vertex 0.04 0.06 0
    vertex 0.04 0.06 0.009999999999999972
  endloop
endfacet
facet normal 1 0 0
  outer loop
    vertex 0.04 0.05662231783557501 0.01000000000000003
    vertex 0.04 0.06 0.02
    vertex 0.04 0.05662231783557501 0.02
  endloop
endfacet
facet normal 1 0 -0
  outer loop
    vertex 0.04 0.06 0.009999999999999972
    vertex 0.04 0.06 0.02
    vertex 0.04 0.05662231783557501 0.01000000000000003
  endloop
endfacet
facet normal 1 0 0
  outer loop
    vertex 0.04 0.05662231783557501 0
    vertex 0.04 0.06 0.009999999999999972
    vertex 0.04 0.05662231783557501 0.01000000000000003
  endloop
endfacet
facet normal 0.901626 0.432516 0
  outer loop
    vertex 0.04 0.05662231783557501 0.02
    vertex 0.04169763011607704 0.05308342297085158 0.015
    vertex 0.04 0.05662231783557501 0.009999999999999972
  endloop
endfacet
facet normal 0.901626 0.432516 -0
  outer loop
    vertex 0.04339526023215406 0.04954452810612813 0
    vertex 0.04169763011607704 0.05308342297085158 0.005
    vertex 0.04339526023215406 0.04954452810612813 0.01000000000000003
  endloop
endfacet
facet normal 0.901626 0.432516 0
  outer loop
    vertex 0.04 0.05662231783557501 0.009999999999999972
    vertex 0.04169763011607704 0.05308342297085158 0.005
    vertex 0.04 0.05662231783557501 0
  endloop
endfacet
facet normal 0.901626 0.432516 -0
  outer loop
    vertex 0.04339526023215406 0.04954452810612813 0.01000000000000003
    vertex 0.04169763011607704 0.05308342297085158 0.015
    vertex 0.04339526023215406 0.04954452810612813 0.02
  endloop
endfacet
facet normal 0.901626 0.432516 -2.50332e-15
  outer loop
    vertex 0.04 0.05662231783557501 0.009999999999999972
    vertex 0.04169763011607704 0.05308342297085158 0.015
    vertex 0.04339526023215406 0.04954452810612813 0.01000000000000003
  endloop
endfacet
facet normal 0.901626 0.432516 2.46016e-15
  outer loop
    vertex 0.04339526023215406 0.04954452810612813 0.01000000000000003
    vertex 0.04169763011607704 0.05308342297085158 0.005
    vertex 0.04 0.05662231783557501 0.009999999999999972
  endloop
endfacet
facet normal 0.901626 0.432516 -2.50332e-15
  outer loop
    vertex 0.04 0.05662231783557501 0
    vertex 0.04169763011607704 0.05308342297085158 0.005
    vertex 0.04339526023215406 0.04954452810612813 0
  endloop
endfacet
facet normal 0.901626 0.432516 2.46016e-15
  outer loop
    vertex 0.04339526023215406 0.04954452810612813 0.02
    vertex 0.04169763011607704 0.05308342297085158 0.015
    vertex 0.04 0.05662231783557501 0.02
  endloop
endfacet
facet normal 0.38878 -0.921331 -2.89502e-16
  outer loop
    vertex 0.04339526023215406 0.04954452810612813 0
    vertex 0.03645471062895913 0.04661578030891075 0.00771429038278256
    vertex 0.03500878346811133 0.04600563324140469 0
  endloop
endfacet
facet normal 0.38878 -0.921331 0
  outer loop
    vertex 0.04339526023215406 0.04954452810612813 0.009999999999999972
    vertex 0.03645471062895913 0.04661578030891075 0.00771429038278256
    vertex 0.04339526023215406 0.04954452810612813 0
  endloop
endfacet
facet normal 0.38878 -0.921331 0
  outer loop
    vertex 0.02662230670406859 0.04246673837668126 0.01000000000000003
    vertex 0.0328470318006592 0.04509342516046727 0.01331015437871444
    vertex 0.02662230670406859 0.04246673837668126 0.02
  endloop
endfacet
facet normal 0.38878 -0.921331 6.1203e-16
  outer loop
    vertex 0.02662230670406859 0.04246673837668126 0.02
    vertex 0.0328470318006592 0.04509342516046727 0.01331015437871444
    vertex 0.03500878346811133 0.04600563324140469 0.02
  endloop
endfacet
facet normal 0.38878 -0.921331 0
  outer loop
    vertex 0.02662230670406859 0.04246673837668126 0
    vertex 0.03099658495882096 0.04431258035396854 0.005271253136115104
    vertex 0.02662230670406859 0.04246673837668126 0.01000000000000003
  endloop
endfacet
facet normal 0.38878 -0.921331 0
  outer loop
    vertex 0.04339526023215406 0.04954452810612813 0.02
    vertex 0.03825891543301708 0.04737711206903265 0.01423966139574873
    vertex 0.04339526023215406 0.04954452810612813 0.009999999999999972
  endloop
endfacet
facet normal 0.38878 -0.921331 -1.51817e-15
  outer loop
    vertex 0.03500878346811133 0.04600563324140469 0
    vertex 0.03099658495882096 0.04431258035396854 0.005271253136115104
    vertex 0.02662230670406859 0.04246673837668126 0
  endloop
endfacet
facet normal 0.38878 -0.921331 8.40024e-16
  outer loop
    vertex 0.03500878346811133 0.04600563324140469 0.02
    vertex 0.03825891543301708 0.04737711206903265 0.01423966139574873
    vertex 0.04339526023215406 0.04954452810612813 0.02
  endloop
endfacet
facet normal 0.38878 -0.921331 7.10831e-16
  outer loop
    vertex 0.02662230670406859 0.04246673837668126 0.01000000000000003
    vertex 0.03099658495882096 0.04431258035396854 0.005271253136115104
    vertex 0.0328470318006592 0.04509342516046727 0.01331015437871444
  endloop
endfacet
facet normal 0.38878 -0.921331 2.08203e-16
  outer loop
    vertex 0.0328470318006592 0.04509342516046727 0.01331015437871444
    vertex 0.03099658495882096 0.04431258035396854 0.005271253136115104
    vertex 0.03645471062895913 0.04661578030891075 0.00771429038278256
  endloop
endfacet
facet normal 0.38878 -0.921331 -4.92893e-16
  outer loop
    vertex 0.03825891543301708 0.04737711206903265 0.01423966139574873
    vertex 0.03645471062895913 0.04661578030891075 0.00771429038278256
    vertex 0.04339526023215406 0.04954452810612813 0.009999999999999972
  endloop
endfacet
facet normal 0.38878 -0.921331 -3.84401e-16
  outer loop
    vertex 0.03645471062895913 0.04661578030891075 0.00771429038278256
    vertex 0.03099658495882096 0.04431258035396854 0.005271253136115104
    vertex 0.03500878346811133 0.04600563324140469 0
  endloop
endfacet
facet normal 0.38878 -0.921331 -2.08802e-16
  outer loop
    vertex 0.03825891543301708 0.04737711206903265 0.01423966139574873
    vertex 0.0328470318006592 0.04509342516046727 0.01331015437871444
    vertex 0.03645471062895913 0.04661578030891075 0.00771429038278256
  endloop
endfacet
facet normal 0.38878 -0.921331 4.56435e-16
  outer loop
    vertex 0.03500878346811133 0.04600563324140469 0.02
    vertex 0.0328470318006592 0.04509342516046727 0.01331015437871444
    vertex 0.03825891543301708 0.04737711206903265 0.01423966139574873
  endloop
endfacet
facet normal 0.685196 0.728359 0
  outer loop
    vertex 0.02662230670406859 0.04246673837668126 0
    vertex 0.03038413296010633 0.03892784351195782 0.004999999999999986
    vertex 0.03414595921614406 0.03538894864723438 0
  endloop
endfacet
facet normal 0.685196 0.728359 6.56005e-16
  outer loop
    vertex 0.03414595921614406 0.03538894864723438 0.02
    vertex 0.03038413296010631 0.03892784351195784 0.01499999999999999
    vertex 0.02662230670406859 0.04246673837668126 0.02
  endloop
endfacet
facet normal 0.685196 0.728359 -0
  outer loop
    vertex 0.03414595921614406 0.03538894864723438 0
    vertex 0.03038413296010633 0.03892784351195782 0.004999999999999986
    vertex 0.03414595921614406 0.03538894864723438 0.01000000000000003
  endloop
endfacet
facet normal 0.685196 0.728359 0
  outer loop
    vertex 0.02662230670406859 0.04246673837668126 0.02
    vertex 0.03038413296010631 0.03892784351195784 0.01499999999999999
    vertex 0.02662230670406859 0.04246673837668126 0.009999999999999972
  endloop
endfacet
facet normal 0.685196 0.728359 -3.28003e-16
  outer loop
    vertex 0.02662230670406859 0.04246673837668126 0.009999999999999972
    vertex 0.03038413296010631 0.03892784351195784 0.01499999999999999
    vertex 0.03038413296010633 0.03892784351195782 0.004999999999999986
  endloop
endfacet
facet normal 0.685196 0.728359 -3.27577e-16
  outer loop
    vertex 0.03038413296010633 0.03892784351195782 0.004999999999999986
    vertex 0.03038413296010631 0.03892784351195784 0.01499999999999999
    vertex 0.03414595921614406 0.03538894864723438 0.01000000000000003
  endloop
endfacet
facet normal 0.685196 0.728359 0
  outer loop
    vertex 0.02662230670406859 0.04246673837668126 0.009999999999999972
    vertex 0.03038413296010633 0.03892784351195782 0.004999999999999986
    vertex 0.02662230670406859 0.04246673837668126 0
  endloop
endfacet
facet normal 0.685196 0.728359 -0
  outer loop
    vertex 0.03414595921614406 0.03538894864723438 0.01000000000000003
    vertex 0.03038413296010631 0.03892784351195784 0.01499999999999999
    vertex 0.03414595921614406 0.03538894864723438 0.02
  endloop
endfacet
facet normal 0.626506 -0.779416 7.32905e-16
  outer loop
    vertex 0.03414595921614406 0.03538894864723438 0
    vertex 0.02974333193941685 0.03185005378251095 0.005728862973760924
    vertex 0.02534070466268964 0.02831115891778751 0
  endloop
endfacet
facet normal 0.626506 -0.779416 -5.28403e-16
  outer loop
    vertex 0.02534070466268964 0.02831115891778751 0.02
    vertex 0.02974333193941687 0.03185005378251096 0.01432426114969102
    vertex 0.03414595921614406 0.03538894864723438 0.02
  endloop
endfacet
facet normal 0.626506 -0.779416 0
  outer loop
    vertex 0.02534070466268964 0.02831115891778751 0
    vertex 0.02974333193941685 0.03185005378251095 0.005728862973760924
    vertex 0.02534070466268964 0.02831115891778751 0.01000000000000003
  endloop
endfacet
facet normal 0.626506 -0.779416 0
  outer loop
    vertex 0.03414595921614406 0.03538894864723438 0.02
    vertex 0.02974333193941687 0.03185005378251096 0.01432426114969102
    vertex 0.03414595921614406 0.03538894864723438 0.009999999999999972
  endloop
endfacet
facet normal 0.626506 -0.779416 -1.29441e-16
  outer loop
    vertex 0.02974333193941685 0.03185005378251095 0.005728862973760924
    vertex 0.02974333193941687 0.03185005378251096 0.01432426114969102
    vertex 0.02534070466268964 0.02831115891778751 0.01000000000000003
  endloop
endfacet
facet normal 0.626506 -0.779416 -6.97834e-17
  outer loop
    vertex 0.03414595921614406 0.03538894864723438 0.009999999999999972
    vertex 0.02974333193941687 0.03185005378251096 0.01432426114969102
    vertex 0.02974333193941685 0.03185005378251095 0.005728862973760924
  endloop
endfacet
facet normal 0.626506 -0.779416 0
  outer loop
    vertex 0.02534070466268964 0.02831115891778751 0.01000000000000003
    vertex 0.02974333193941687 0.03185005378251096 0.01432426114969102
    vertex 0.02534070466268964 0.02831115891778751 0.02
  endloop
endfacet
facet normal 0.626506 -0.779416 0
  outer loop
    vertex 0.03414595921614406 0.03538894864723438 0.009999999999999972
    vertex 0.02974333193941685 0.03185005378251095 0.005728862973760924
    vertex 0.03414595921614406 0.03538894864723438 0
  endloop
endfacet
facet normal 0.33909 0.940754 -0
  outer loop
    vertex 0.04497694166585741 0.02123336918834063 0.01000000000000003
    vertex 0.03751285396473308 0.02392376466799316 0.01216552895844839
    vertex 0.04497694166585741 0.02123336918834063 0.02
  endloop
endfacet
facet normal 0.33909 0.940754 -6.21569e-16
  outer loop
    vertex 0.04497694166585741 0.02123336918834063 0.02
    vertex 0.03751285396473308 0.02392376466799316 0.01216552895844839
    vertex 0.03515882316427353 0.02477226405306407 0.02
  endloop
endfacet
facet normal 0.33909 0.940754 1.0557e-15
  outer loop
    vertex 0.02534070466268964 0.02831115891778751 0
    vertex 0.03217385306551304 0.02584818255538733 0.007380387223702436
    vertex 0.03515882316427352 0.02477226405306407 0
  endloop
endfacet
facet normal 0.33909 0.940754 0
  outer loop
    vertex 0.02534070466268964 0.02831115891778751 0.009999999999999972
    vertex 0.03217385306551304 0.02584818255538733 0.007380387223702436
    vertex 0.02534070466268964 0.02831115891778751 0
  endloop
endfacet
facet normal 0.33909 0.940754 -7.05374e-16
  outer loop
    vertex 0.03515882316427353 0.02477226405306407 0.02
    vertex 0.03105561480396795 0.02625124630336316 0.01401682119439446
    vertex 0.02534070466268964 0.02831115891778751 0.02
  endloop
endfacet
facet normal 0.33909 0.940754 1.29858e-15
  outer loop
    vertex 0.03515882316427352 0.02477226405306407 0
    vertex 0.04006788241506547 0.02300281662070234 0.005000000000000014
    vertex 0.04497694166585741 0.02123336918834063 0
  endloop
endfacet
facet normal 0.33909 0.940754 0
  outer loop
    vertex 0.02534070466268964 0.02831115891778751 0.02
    vertex 0.03105561480396795 0.02625124630336316 0.01401682119439446
    vertex 0.02534070466268964 0.02831115891778751 0.009999999999999972
  endloop
endfacet
facet normal 0.33909 0.940754 -0
  outer loop
    vertex 0.04497694166585741 0.02123336918834063 0
    vertex 0.04006788241506547 0.02300281662070234 0.005000000000000014
    vertex 0.04497694166585741 0.02123336918834063 0.01000000000000003
  endloop
endfacet
facet normal 0.33909 0.940754 1.1527e-15
  outer loop
    vertex 0.03217385306551304 0.02584818255538733 0.007380387223702436
    vertex 0.04006788241506547 0.02300281662070234 0.005000000000000014
    vertex 0.03515882316427352 0.02477226405306407 0
  endloop
endfacet
facet normal 0.33909 0.940754 -2.52552e-16
  outer loop
    vertex 0.03751285396473308 0.02392376466799316 0.01216552895844839
    vertex 0.04006788241506547 0.02300281662070234 0.005000000000000014
    vertex 0.03217385306551304 0.02584818255538733 0.007380387223702436
  endloop
endfacet
facet normal 0.33909 0.940754 -6.20505e-16
  outer loop
    vertex 0.03515882316427353 0.02477226405306407 0.02
    vertex 0.03751285396473308 0.02392376466799316 0.01216552895844839
    vertex 0.03105561480396795 0.02625124630336316 0.01401682119439446
  endloop
endfacet
facet normal 0.33909 0.940754 -4.32067e-16
  outer loop
    vertex 0.04497694166585741 0.02123336918834063 0.01000000000000003
    vertex 0.04006788241506547 0.02300281662070234 0.005000000000000014
    vertex 0.03751285396473308 0.02392376466799316 0.01216552895844839
  endloop
endfacet
facet normal 0.33909 0.940754 -4.68932e-16
  outer loop
    vertex 0.03751285396473308 0.02392376466799316 0.01216552895844839
    vertex 0.03217385306551304 0.02584818255538733 0.007380387223702436
    vertex 0.03105561480396795 0.02625124630336316 0.01401682119439446
  endloop
endfacet
facet normal 0.33909 0.940754 -2.72389e-16
  outer loop
    vertex 0.03105561480396795 0.02625124630336316 0.01401682119439446
    vertex 0.03217385306551304 0.02584818255538733 0.007380387223702436
    vertex 0.02534070466268964 0.02831115891778751 0.009999999999999972
  endloop
endfacet
facet normal 0.83653 -0.547922 0
  outer loop
    vertex 0.04034103279594185 0.01415557945889375 0
    vertex 0.04265898723089963 0.01769447432361719 0.005
    vertex 0.04034103279594185 0.01415557945889375 0.01000000000000003
  endloop
endfacet
facet normal 0.83653 -0.547922 0
  outer loop
    vertex 0.04497694166585741 0.02123336918834063 0.02
    vertex 0.04265898723089963 0.01769447432361719 0.015
    vertex 0.04497694166585741 0.02123336918834063 0.009999999999999972
  endloop
endfacet
facet normal 0.83653 -0.547922 0
  outer loop
    vertex 0.04034103279594185 0.01415557945889375 0.01000000000000003
    vertex 0.04265898723089963 0.01769447432361719 0.015
    vertex 0.04034103279594185 0.01415557945889375 0.02
  endloop
endfacet
facet normal 0.83653 -0.547922 0
  outer loop
    vertex 0.04497694166585741 0.02123336918834063 0.009999999999999972
    vertex 0.04265898723089963 0.01769447432361719 0.005
    vertex 0.04497694166585741 0.02123336918834063 0
  endloop
endfacet
facet normal 0.83653 -0.547922 0
  outer loop
    vertex 0.04497694166585741 0.02123336918834063 0.009999999999999972
    vertex 0.04265898723089963 0.01769447432361719 0.015
    vertex 0.04034103279594185 0.01415557945889375 0.01000000000000003
  endloop
endfacet
facet normal 0.83653 -0.547922 0
  outer loop
    vertex 0.04497694166585741 0.02123336918834063 0
    vertex 0.04265898723089963 0.01769447432361719 0.005
    vertex 0.04034103279594185 0.01415557945889375 0
  endloop
endfacet
facet normal 0.83653 -0.547922 0
  outer loop
    vertex 0.04034103279594185 0.01415557945889375 0.01000000000000003
    vertex 0.04265898723089963 0.01769447432361719 0.005
    vertex 0.04497694166585741 0.02123336918834063 0.009999999999999972
  endloop
endfacet
facet normal 0.83653 -0.547922 0
  outer loop
    vertex 0.04034103279594185 0.01415557945889375 0.02
    vertex 0.04265898723089963 0.01769447432361719 0.015
    vertex 0.04497694166585741 0.02123336918834063 0.02
  endloop
endfacet
facet normal 0.391084 -0.920355 -9.69197e-17
  outer loop
    vertex 0.04034103279594185 0.01415557945889375 0
    vertex 0.03340387084953587 0.0112077928699698 0.007726457130068106
    vertex 0.03201278851932595 0.01061668459417031 0
  endloop
endfacet
facet normal 0.391084 -0.920355 0
  outer loop
    vertex 0.04034103279594185 0.01415557945889375 0.009999999999999972
    vertex 0.03340387084953587 0.0112077928699698 0.007726457130068106
    vertex 0.04034103279594185 0.01415557945889375 0
  endloop
endfacet
facet normal 0.391084 -0.920355 0
  outer loop
    vertex 0.02368454424271008 0.007077789729446879 0.01000000000000003
    vertex 0.02984383741899889 0.009695038968052502 0.01332453092582034
    vertex 0.02368454424271008 0.007077789729446879 0.02
  endloop
endfacet
facet normal 0.391084 -0.920355 -5.60894e-17
  outer loop
    vertex 0.02368454424271008 0.007077789729446879 0.02
    vertex 0.02984383741899889 0.009695038968052502 0.01332453092582034
    vertex 0.03201278851932597 0.01061668459417032 0.02
  endloop
endfacet
facet normal 0.391084 -0.920355 0
  outer loop
    vertex 0.02368454424271008 0.007077789729446879 0
    vertex 0.02802496028814998 0.008922149181906647 0.005238208148747166
    vertex 0.02368454424271008 0.007077789729446879 0.01000000000000003
  endloop
endfacet
facet normal 0.391084 -0.920355 0
  outer loop
    vertex 0.04034103279594185 0.01415557945889375 0.02
    vertex 0.03522607969840905 0.0119820983926641 0.01424630719942805
    vertex 0.04034103279594185 0.01415557945889375 0.009999999999999972
  endloop
endfacet
facet normal 0.391084 -0.920355 -1.42958e-16
  outer loop
    vertex 0.03201278851932595 0.01061668459417031 0
    vertex 0.02802496028814998 0.008922149181906647 0.005238208148747166
    vertex 0.02368454424271008 0.007077789729446879 0
  endloop
endfacet
facet normal 0.391084 -0.920355 -3.25376e-16
  outer loop
    vertex 0.03201278851932597 0.01061668459417032 0.02
    vertex 0.03522607969840905 0.0119820983926641 0.01424630719942805
    vertex 0.04034103279594185 0.01415557945889375 0.02
  endloop
endfacet
facet normal 0.391084 -0.920355 0
  outer loop
    vertex 0.02368454424271008 0.007077789729446879 0.01000000000000003
    vertex 0.02802496028814998 0.008922149181906647 0.005238208148747166
    vertex 0.02984383741899889 0.009695038968052502 0.01332453092582034
  endloop
endfacet
facet normal 0.391084 -0.920355 -3.00068e-17
  outer loop
    vertex 0.02984383741899889 0.009695038968052502 0.01332453092582034
    vertex 0.02802496028814998 0.008922149181906647 0.005238208148747166
    vertex 0.03340387084953587 0.0112077928699698 0.007726457130068106
  endloop
endfacet
facet normal 0.391084 -0.920355 2.27687e-16
  outer loop
    vertex 0.03522607969840905 0.0119820983926641 0.01424630719942805
    vertex 0.03340387084953587 0.0112077928699698 0.007726457130068106
    vertex 0.04034103279594185 0.01415557945889375 0.009999999999999972
  endloop
endfacet
facet normal 0.391084 -0.920355 -1.12541e-16
  outer loop
    vertex 0.03340387084953587 0.0112077928699698 0.007726457130068106
    vertex 0.02802496028814998 0.008922149181906647 0.005238208148747166
    vertex 0.03201278851932595 0.01061668459417031 0
  endloop
endfacet
facet normal 0.391084 -0.920355 1.16661e-16
  outer loop
    vertex 0.03522607969840905 0.0119820983926641 0.01424630719942805
    vertex 0.02984383741899889 0.009695038968052502 0.01332453092582034
    vertex 0.03340387084953587 0.0112077928699698 0.007726457130068106
  endloop
endfacet
facet normal 0.391084 -0.920355 -1.95297e-16
  outer loop
    vertex 0.03201278851932597 0.01061668459417032 0.02
    vertex 0.02984383741899889 0.009695038968052502 0.01332453092582034
    vertex 0.03522607969840905 0.0119820983926641 0.01424630719942805
  endloop
endfacet
endsolid Created by Gmsh
