solid Created by Gmsh
facet normal -0.881011 0.473095 0
  outer loop
    vertex 0.03646340259498543 0.05875827032278325 0.02
    vertex 0.03646340259498543 0.05875827032278325 0.009999999999999972
    vertex 0.03449136197596151 0.05508587842760929 0.015
  endloop
endfacet
facet normal -0.881011 0.473095 0
  outer loop
    vertex 0.03251932135693758 0.05141348653243534 0
    vertex 0.03251932135693758 0.05141348653243534 0.01000000000000003
    vertex 0.03449136197596151 0.05508587842760929 0.005
  endloop
endfacet
facet normal -0.881011 0.473095 0
  outer loop
    vertex 0.03646340259498543 0.05875827032278325 0.009999999999999972
    vertex 0.03646340259498543 0.05875827032278325 0
    vertex 0.03449136197596151 0.05508587842760929 0.005
  endloop
endfacet
facet normal -0.881011 0.473095 0
  outer loop
    vertex 0.03251932135693758 0.05141348653243534 0.01000000000000003
    vertex 0.03251932135693758 0.05141348653243534 0.02
    vertex 0.03449136197596151 0.05508587842760929 0.015
  endloop
endfacet
facet normal -0.881011 0.473095 1.21923e-15
  outer loop
    vertex 0.03646340259498543 0.05875827032278325 0
    vertex 0.03251932135693758 0.05141348653243534 0
    vertex 0.03449136197596151 0.05508587842760929 0.005
  endloop
endfacet
facet normal -0.881011 0.473095 -1.21923e-15
  outer loop
    vertex 0.03251932135693758 0.05141348653243534 0.02
    vertex 0.03646340259498543 0.05875827032278325 0.02
    vertex 0.03449136197596151 0.05508587842760929 0.015
  endloop
endfacet
facet normal -0.881011 0.473095 -1.21923e-15
  outer loop
    vertex 0.03251932135693758 0.05141348653243534 0.01000000000000003
    vertex 0.03646340259498543 0.05875827032278325 0.009999999999999972
    vertex 0.03449136197596151 0.05508587842760929 0.005
  endloop
endfacet
facet normal -0.881011 0.473095 1.21923e-15
  outer loop
    vertex 0.03646340259498543 0.05875827032278325 0.009999999999999972
    vertex 0.03251932135693758 0.05141348653243534 0.01000000000000003
    vertex 0.03449136197596151 0.05508587842760929 0.015
  endloop
endfacet
facet normal -0.898671 -0.438624 0
  outer loop
    vertex 0.03610417039106534 0.04406870274208743 0
    vertex 0.03610417039106534 0.04406870274208743 0.01000000000000003
    vertex 0.03431174587400146 0.04774109463726139 0.005
  endloop
endfacet
facet normal -0.898671 -0.438624 -0
  outer loop
    vertex 0.03251932135693758 0.05141348653243534 0.02
    vertex 0.03251932135693758 0.05141348653243534 0.009999999999999972
    vertex 0.03431174587400146 0.04774109463726139 0.015
  endloop
endfacet
facet normal -0.898671 -0.438624 -0
  outer loop
    vertex 0.03251932135693758 0.05141348653243534 0.009999999999999972
    vertex 0.03251932135693758 0.05141348653243534 0
    vertex 0.03431174587400146 0.04774109463726139 0.005
  endloop
endfacet
facet normal -0.898671 -0.438624 0
  outer loop
    vertex 0.03610417039106534 0.04406870274208743 0.01000000000000003
    vertex 0.03610417039106534 0.04406870274208743 0.02
    vertex 0.03431174587400146 0.04774109463726139 0.015
  endloop
endfacet
facet normal -0.898671 -0.438624 0
  outer loop
    vertex 0.03251932135693758 0.05141348653243534 0
    vertex 0.03610417039106534 0.04406870274208743 0
    vertex 0.03431174587400146 0.04774109463726139 0.005
  endloop
endfacet
facet normal -0.898671 -0.438624 0
  outer loop
    vertex 0.03610417039106534 0.04406870274208743 0.02
    vertex 0.03251932135693758 0.05141348653243534 0.02
    vertex 0.03431174587400146 0.04774109463726139 0.015
  endloop
endfacet
facet normal -0.898671 -0.438624 0
  outer loop
    vertex 0.03610417039106534 0.04406870274208743 0.01000000000000003
    vertex 0.03251932135693758 0.05141348653243534 0.009999999999999972
    vertex 0.03431174587400146 0.04774109463726139 0.005
  endloop
endfacet
facet normal -0.898671 -0.438624 0
  outer loop
    vertex 0.03251932135693758 0.05141348653243534 0.009999999999999972
    vertex 0.03610417039106534 0.04406870274208743 0.01000000000000003
    vertex 0.03431174587400146 0.04774109463726139 0.015
  endloop
endfacet
facet normal -0.835702 -0.549183 -0
  outer loop
    vertex 0.03610417039106534 0.04406870274208743 0.02
    vertex 0.03610417039106534 0.04406870274208743 0.009999999999999972
    vertex 0.03851748559076515 0.04039631084691348 0.015
  endloop
endfacet
facet normal -0.835702 -0.549183 0
  outer loop
    vertex 0.04093080079046497 0.03672391895173953 0
    vertex 0.04093080079046497 0.03672391895173953 0.01000000000000003
    vertex 0.03851748559076515 0.04039631084691348 0.005
  endloop
endfacet
facet normal -0.835702 -0.549183 -0
  outer loop
    vertex 0.03610417039106534 0.04406870274208743 0.009999999999999972
    vertex 0.03610417039106534 0.04406870274208743 0
    vertex 0.03851748559076515 0.04039631084691348 0.005
  endloop
endfacet
facet normal -0.835702 -0.549183 0
  outer loop
    vertex 0.04093080079046497 0.03672391895173953 0.01000000000000003
    vertex 0.04093080079046497 0.03672391895173953 0.02
    vertex 0.03851748559076515 0.04039631084691348 0.015
  endloop
endfacet
facet normal -0.835702 -0.549183 1.15652e-15
  outer loop
    vertex 0.04093080079046497 0.03672391895173953 0.01000000000000003
    vertex 0.03610417039106534 0.04406870274208743 0.009999999999999972
    vertex 0.03851748559076515 0.04039631084691348 0.005
  endloop
endfacet
facet normal -0.835702 -0.549183 -1.15652e-15
  outer loop
    vertex 0.03610417039106534 0.04406870274208743 0.009999999999999972
    vertex 0.04093080079046497 0.03672391895173953 0.01000000000000003
    vertex 0.03851748559076515 0.04039631084691348 0.015
  endloop
endfacet
facet normal -0.835702 -0.549183 -1.15652e-15
  outer loop
    vertex 0.03610417039106534 0.04406870274208743 0
    vertex 0.04093080079046497 0.03672391895173953 0
    vertex 0.03851748559076515 0.04039631084691348 0.005
  endloop
endfacet
facet normal -0.835702 -0.549183 1.15652e-15
  outer loop
    vertex 0.04093080079046497 0.03672391895173953 0.02
    vertex 0.03610417039106534 0.04406870274208743 0.02
    vertex 0.03851748559076515 0.04039631084691348 0.015
  endloop
endfacet
facet normal -0.716527 -0.69756 0
  outer loop
    vertex 0.04093080079046497 0.03672391895173953 0
    vertex 0.04808116514346975 0.02937913516139162 0
    vertex 0.04450598296696736 0.03305152705656558 0.004999999999999987
  endloop
endfacet
facet normal -0.716527 -0.69756 0
  outer loop
    vertex 0.04808116514346975 0.02937913516139162 0.02
    vertex 0.04093080079046497 0.03672391895173953 0.02
    vertex 0.04450598296696736 0.03305152705656558 0.01500000000000001
  endloop
endfacet
facet normal -0.716527 -0.69756 0
  outer loop
    vertex 0.04093080079046497 0.03672391895173953 0.009999999999999972
    vertex 0.04450598296696736 0.03305152705656558 0.004999999999999987
    vertex 0.04450598296696736 0.03305152705656558 0.01500000000000001
  endloop
endfacet
facet normal -0.716527 -0.69756 0
  outer loop
    vertex 0.04450598296696736 0.03305152705656558 0.004999999999999987
    vertex 0.04808116514346975 0.02937913516139162 0.01000000000000003
    vertex 0.04450598296696736 0.03305152705656558 0.01500000000000001
  endloop
endfacet
facet normal -0.716527 -0.69756 -0
  outer loop
    vertex 0.04093080079046497 0.03672391895173953 0.02
    vertex 0.04093080079046497 0.03672391895173953 0.009999999999999972
    vertex 0.04450598296696736 0.03305152705656558 0.01500000000000001
  endloop
endfacet
facet normal -0.716527 -0.69756 0
  outer loop
    vertex 0.04808116514346975 0.02937913516139162 0
    vertex 0.04808116514346975 0.02937913516139162 0.01000000000000003
    vertex 0.04450598296696736 0.03305152705656558 0.004999999999999987
  endloop
endfacet
facet normal -0.716527 -0.69756 -0
  outer loop
    vertex 0.04093080079046497 0.03672391895173953 0.009999999999999972
    vertex 0.04093080079046497 0.03672391895173953 0
    vertex 0.04450598296696736 0.03305152705656558 0.004999999999999987
  endloop
endfacet
facet normal -0.716527 -0.69756 0
  outer loop
    vertex 0.04808116514346975 0.02937913516139162 0.01000000000000003
    vertex 0.04808116514346975 0.02937913516139162 0.02
    vertex 0.04450598296696736 0.03305152705656558 0.01500000000000001
  endloop
endfacet
facet normal -0.302851 0.953038 -8.62792e-16
  outer loop
    vertex 0.04037676249133222 0.02693087389794232 0
    vertex 0.03267235983919471 0.02448261263449302 0
    vertex 0.03652456116526347 0.02570674326621768 0.007529342424397888
  endloop
endfacet
facet normal -0.302851 0.953038 0
  outer loop
    vertex 0.03652456116526347 0.02570674326621768 0.007529342424397888
    vertex 0.03652456116526347 0.02570674326621768 0.01436871863333932
    vertex 0.04207350335456682 0.02747005456088656 0.01301089560185392
  endloop
endfacet
facet normal -0.302851 0.953038 0
  outer loop
    vertex 0.03652456116526347 0.02570674326621768 0.01436871863333932
    vertex 0.03652456116526347 0.02570674326621768 0.007529342424397888
    vertex 0.03097561897596011 0.0239434319715488 0.01301089560185393
  endloop
endfacet
facet normal -0.302851 0.953038 0
  outer loop
    vertex 0.02496795718705719 0.02203435137104372 0
    vertex 0.02496795718705719 0.02203435137104372 0.01000000000000003
    vertex 0.03019631731192466 0.02369578992027695 0.006167312553386329
  endloop
endfacet
facet normal -0.302851 0.953038 0
  outer loop
    vertex 0.04808116514346975 0.02937913516139162 0.009999999999999972
    vertex 0.04808116514346975 0.02937913516139162 0
    vertex 0.04285280501860225 0.0277176966121584 0.006167312553386319
  endloop
endfacet
facet normal -0.302851 0.953038 0
  outer loop
    vertex 0.04808116514346975 0.02937913516139162 0.02
    vertex 0.04808116514346975 0.02937913516139162 0.009999999999999972
    vertex 0.04207350335456682 0.02747005456088656 0.01301089560185392
  endloop
endfacet
facet normal -0.302851 0.953038 0
  outer loop
    vertex 0.02496795718705719 0.02203435137104372 0.01000000000000003
    vertex 0.02496795718705719 0.02203435137104372 0.02
    vertex 0.03097561897596011 0.0239434319715488 0.01301089560185393
  endloop
endfacet
facet normal -0.302851 0.953038 1.09872e-16
  outer loop
    vertex 0.04285280501860225 0.0277176966121584 0.006167312553386319
    vertex 0.03652456116526347 0.02570674326621768 0.007529342424397888
    vertex 0.04207350335456682 0.02747005456088656 0.01301089560185392
  endloop
endfacet
facet normal -0.302851 0.953038 1.52866e-16
  outer loop
    vertex 0.03652456116526347 0.02570674326621768 0.007529342424397888
    vertex 0.03019631731192466 0.02369578992027695 0.006167312553386329
    vertex 0.03097561897596011 0.0239434319715488 0.01301089560185393
  endloop
endfacet
facet normal -0.302851 0.953038 1.19081e-15
  outer loop
    vertex 0.03267235983919471 0.02448261263449302 0.02
    vertex 0.04037676249133222 0.02693087389794232 0.02
    vertex 0.03652456116526347 0.02570674326621768 0.01436871863333932
  endloop
endfacet
facet normal -0.302851 0.953038 -1.18925e-15
  outer loop
    vertex 0.03267235983919471 0.02448261263449302 0
    vertex 0.02496795718705719 0.02203435137104372 0
    vertex 0.03019631731192466 0.02369578992027695 0.006167312553386329
  endloop
endfacet
facet normal -0.302851 0.953038 -1.25721e-15
  outer loop
    vertex 0.04808116514346975 0.02937913516139162 0
    vertex 0.04037676249133222 0.02693087389794232 0
    vertex 0.04285280501860225 0.0277176966121584 0.006167312553386319
  endloop
endfacet
facet normal -0.302851 0.953038 1.00444e-15
  outer loop
    vertex 0.04037676249133222 0.02693087389794232 0.02
    vertex 0.04808116514346975 0.02937913516139162 0.02
    vertex 0.04207350335456682 0.02747005456088656 0.01301089560185392
  endloop
endfacet
facet normal -0.302851 0.953038 8.995e-16
  outer loop
    vertex 0.02496795718705719 0.02203435137104372 0.02
    vertex 0.03267235983919471 0.02448261263449302 0.02
    vertex 0.03097561897596011 0.0239434319715488 0.01301089560185393
  endloop
endfacet
facet normal -0.302851 0.953038 -9.90013e-16
  outer loop
    vertex 0.03652456116526347 0.02570674326621768 0.007529342424397888
    vertex 0.03267235983919471 0.02448261263449302 0
    vertex 0.03019631731192466 0.02369578992027695 0.006167312553386329
  endloop
endfacet
facet normal -0.302851 0.953038 -1.17088e-15
  outer loop
    vertex 0.04037676249133222 0.02693087389794232 0
    vertex 0.03652456116526347 0.02570674326621768 0.007529342424397888
    vertex 0.04285280501860225 0.0277176966121584 0.006167312553386319
  endloop
endfacet
facet normal -0.302851 0.953038 1.10649e-15
  outer loop
    vertex 0.03652456116526347 0.02570674326621768 0.01436871863333932
    vertex 0.04037676249133222 0.02693087389794232 0.02
    vertex 0.04207350335456682 0.02747005456088656 0.01301089560185392
  endloop
endfacet
facet normal -0.302851 0.953038 9.07319e-16
  outer loop
    vertex 0.03267235983919471 0.02448261263449302 0.02
    vertex 0.03652456116526347 0.02570674326621768 0.01436871863333932
    vertex 0.03097561897596011 0.0239434319715488 0.01301089560185393
  endloop
endfacet
facet normal -0.302851 0.953038 2.49875e-16
  outer loop
    vertex 0.04808116514346975 0.02937913516139162 0.009999999999999972
    vertex 0.04285280501860225 0.0277176966121584 0.006167312553386319
    vertex 0.04207350335456682 0.02747005456088656 0.01301089560185392
  endloop
endfacet
facet normal -0.302851 0.953038 3.12344e-16
  outer loop
    vertex 0.03019631731192466 0.02369578992027695 0.006167312553386329
    vertex 0.02496795718705719 0.02203435137104372 0.01000000000000003
    vertex 0.03097561897596011 0.0239434319715488 0.01301089560185393
  endloop
endfacet
facet normal -0.312373 -0.94996 -9.37471e-16
  outer loop
    vertex 0.03613610502981653 0.01836195947586976 0.02
    vertex 0.02496795718705719 0.02203435137104372 0.02
    vertex 0.03373004516668255 0.01915313764301816 0.008933024567605084
  endloop
endfacet
facet normal -0.312373 -0.94996 -0
  outer loop
    vertex 0.02496795718705719 0.02203435137104372 0.009999999999999972
    vertex 0.02496795718705719 0.02203435137104372 0
    vertex 0.03373004516668255 0.01915313764301816 0.008933024567605084
  endloop
endfacet
facet normal -0.312373 -0.94996 1.16142e-15
  outer loop
    vertex 0.02496795718705719 0.02203435137104372 0
    vertex 0.03613610502981649 0.01836195947586977 0
    vertex 0.03373004516668255 0.01915313764301816 0.008933024567605084
  endloop
endfacet
facet normal -0.312373 -0.94996 -1.32358e-15
  outer loop
    vertex 0.04730425287257584 0.01468956758069581 0.02
    vertex 0.03613610502981653 0.01836195947586976 0.02
    vertex 0.04049378428173435 0.01692903557552169 0.01281466565422109
  endloop
endfacet
facet normal -0.312373 -0.94996 1.6383e-15
  outer loop
    vertex 0.03613610502981649 0.01836195947586977 0
    vertex 0.04730425287257584 0.01468956758069581 0
    vertex 0.04095205252860739 0.01677834446547131 0.00633275244829549
  endloop
endfacet
facet normal -0.312373 -0.94996 0
  outer loop
    vertex 0.04730425287257584 0.01468956758069581 0.01000000000000003
    vertex 0.04730425287257584 0.01468956758069581 0.02
    vertex 0.04049378428173435 0.01692903557552169 0.01281466565422109
  endloop
endfacet
facet normal -0.312373 -0.94996 -1.03168e-15
  outer loop
    vertex 0.03613610502981653 0.01836195947586976 0.02
    vertex 0.03373004516668255 0.01915313764301816 0.008933024567605084
    vertex 0.04049378428173435 0.01692903557552169 0.01281466565422109
  endloop
endfacet
facet normal -0.312373 -0.94996 0
  outer loop
    vertex 0.04730425287257584 0.01468956758069581 0
    vertex 0.04730425287257584 0.01468956758069581 0.01000000000000003
    vertex 0.04095205252860739 0.01677834446547131 0.00633275244829549
  endloop
endfacet
facet normal -0.312373 -0.94996 1.25687e-15
  outer loop
    vertex 0.03613610502981649 0.01836195947586977 0
    vertex 0.04095205252860739 0.01677834446547131 0.00633275244829549
    vertex 0.03373004516668255 0.01915313764301816 0.008933024567605084
  endloop
endfacet
facet normal -0.312373 -0.94996 -1.41102e-16
  outer loop
    vertex 0.03373004516668255 0.01915313764301816 0.008933024567605084
    vertex 0.04095205252860739 0.01677834446547131 0.00633275244829549
    vertex 0.04049378428173435 0.01692903557552169 0.01281466565422109
  endloop
endfacet
facet normal -0.312373 -0.94996 -2.48783e-16
  outer loop
    vertex 0.04095205252860739 0.01677834446547131 0.00633275244829549
    vertex 0.04730425287257584 0.01468956758069581 0.01000000000000003
    vertex 0.04049378428173435 0.01692903557552169 0.01281466565422109
  endloop
endfacet
facet normal -0.312373 -0.94996 -0
  outer loop
    vertex 0.02496795718705719 0.02203435137104372 0.02
    vertex 0.02496795718705719 0.02203435137104372 0.009999999999999972
    vertex 0.03373004516668255 0.01915313764301816 0.008933024567605084
  endloop
endfacet
facet normal -0.459202 0.888332 1.36547e-16
  outer loop
    vertex 0.04019995818540585 0.01101717568552186 0
    vertex 0.03309566349823585 0.007344783790347906 0
    vertex 0.04047470132067724 0.01115919744949056 0.007950531684576352
  endloop
endfacet
facet normal -0.459202 0.888332 1.5986e-16
  outer loop
    vertex 0.04730425287257584 0.01468956758069581 0
    vertex 0.04019995818540585 0.01101717568552186 0
    vertex 0.04047470132067724 0.01115919744949056 0.007950531684576352
  endloop
endfacet
facet normal -0.459202 0.888332 0
  outer loop
    vertex 0.03309566349823585 0.007344783790347906 0
    vertex 0.03309566349823585 0.007344783790347906 0.01000000000000003
    vertex 0.04047470132067724 0.01115919744949056 0.007950531684576352
  endloop
endfacet
facet normal -0.459202 0.888332 0
  outer loop
    vertex 0.04730425287257584 0.01468956758069581 0.009999999999999972
    vertex 0.04730425287257584 0.01468956758069581 0
    vertex 0.04047470132067724 0.01115919744949056 0.007950531684576352
  endloop
endfacet
facet normal -0.459202 0.888332 0
  outer loop
    vertex 0.04730425287257584 0.01468956758069581 0.02
    vertex 0.04730425287257584 0.01468956758069581 0.009999999999999972
    vertex 0.04265369802319444 0.01228557665844798 0.01437156772057688
  endloop
endfacet
facet normal -0.459202 0.888332 0
  outer loop
    vertex 0.03309566349823585 0.007344783790347906 0.01000000000000003
    vertex 0.03309566349823585 0.007344783790347906 0.02
    vertex 0.03790393690514984 0.009830303474831241 0.01446441988103065
  endloop
endfacet
facet normal -0.459202 0.888332 0
  outer loop
    vertex 0.03309566349823585 0.007344783790347906 0.02
    vertex 0.04019995818540584 0.01101717568552186 0.02
    vertex 0.03790393690514984 0.009830303474831241 0.01446441988103065
  endloop
endfacet
facet normal -0.459202 0.888332 -2.25813e-16
  outer loop
    vertex 0.04019995818540584 0.01101717568552186 0.02
    vertex 0.04730425287257584 0.01468956758069581 0.02
    vertex 0.04265369802319444 0.01228557665844798 0.01437156772057688
  endloop
endfacet
facet normal -0.459202 0.888332 -1.75815e-16
  outer loop
    vertex 0.04047470132067724 0.01115919744949056 0.007950531684576352
    vertex 0.03309566349823585 0.007344783790347906 0.01000000000000003
    vertex 0.03790393690514984 0.009830303474831241 0.01446441988103065
  endloop
endfacet
facet normal -0.459202 0.888332 9.55196e-17
  outer loop
    vertex 0.04265369802319444 0.01228557665844798 0.01437156772057688
    vertex 0.04730425287257584 0.01468956758069581 0.009999999999999972
    vertex 0.04047470132067724 0.01115919744949056 0.007950531684576352
  endloop
endfacet
facet normal -0.459202 0.888332 -9.80364e-17
  outer loop
    vertex 0.04265369802319444 0.01228557665844798 0.01437156772057688
    vertex 0.04047470132067724 0.01115919744949056 0.007950531684576352
    vertex 0.03790393690514984 0.009830303474831241 0.01446441988103065
  endloop
endfacet
facet normal -0.459202 0.888332 -1.13552e-16
  outer loop
    vertex 0.04019995818540584 0.01101717568552186 0.02
    vertex 0.04265369802319444 0.01228557665844798 0.01437156772057688
    vertex 0.03790393690514984 0.009830303474831241 0.01446441988103065
  endloop
endfacet
endsolid Created by Gmsh
