solid Created by Gmsh
facet normal 0.996456 -0.0841166 0
  outer loop
    vertex 0.008 0 0
    vertex 0.008740742481262278 0.008774931059548984 0.008446582867705965
    vertex 0.008 0 0.01000000000000003
  endloop
endfacet
facet normal 0.996456 -0.0841166 0
  outer loop
    vertex 0.01293828320841517 0.05849954039699318 0.02
    vertex 0.0121975407271529 0.04972460933744421 0.01155341713229406
    vertex 0.01293828320841517 0.05849954039699318 0.009999999999999972
  endloop
endfacet
facet normal 0.996456 -0.0841166 -2.60492e-16
  outer loop
    vertex 0.008987656641683033 0.01169990807939864 0
    vertex 0.008740742481262278 0.008774931059548984 0.008446582867705965
    vertex 0.008 0 0
  endloop
endfacet
facet normal 0.996456 -0.0841166 2.3487e-16
  outer loop
    vertex 0.01195062656673214 0.04679963231759454 0.02
    vertex 0.0121975407271529 0.04972460933744421 0.01155341713229406
    vertex 0.01293828320841517 0.05849954039699318 0.02
  endloop
endfacet
facet normal 0.996456 -0.0841166 -2.66918e-16
  outer loop
    vertex 0.0109629699250491 0.03509972423819589 0
    vertex 0.01046914160420759 0.0292497701984966 0.01000000000000001
    vertex 0.009975313283366066 0.02339981615879725 0
  endloop
endfacet
facet normal 0.996456 -0.0841166 -2.93379e-16
  outer loop
    vertex 0.0109629699250491 0.03509972423819589 0
    vertex 0.01141564588582049 0.04046218210792028 0.01025890285538234
    vertex 0.01046914160420759 0.0292497701984966 0.01000000000000001
  endloop
endfacet
facet normal 0.996456 -0.0841166 -1.98399e-16
  outer loop
    vertex 0.01046914160420759 0.0292497701984966 0.01000000000000001
    vertex 0.009522637322594681 0.0180373582890729 0.009741097144617662
    vertex 0.009975313283366066 0.02339981615879725 0
  endloop
endfacet
facet normal 0.996456 -0.0841166 2.66918e-16
  outer loop
    vertex 0.00997531328336607 0.02339981615879728 0.02
    vertex 0.01046914160420759 0.0292497701984966 0.01000000000000001
    vertex 0.0109629699250491 0.03509972423819593 0.02
  endloop
endfacet
facet normal 0.996456 -0.0841166 -2.88824e-16
  outer loop
    vertex 0.009975313283366066 0.02339981615879725 0
    vertex 0.009522637322594681 0.0180373582890729 0.009741097144617662
    vertex 0.008987656641683033 0.01169990807939864 0
  endloop
endfacet
facet normal 0.996456 -0.0841166 -1.96894e-16
  outer loop
    vertex 0.01195062656673213 0.04679963231759451 0
    vertex 0.01141564588582049 0.04046218210792028 0.01025890285538234
    vertex 0.0109629699250491 0.03509972423819589 0
  endloop
endfacet
facet normal 0.996456 -0.0841166 3.05229e-16
  outer loop
    vertex 0.01046914160420759 0.0292497701984966 0.01000000000000001
    vertex 0.01141564588582049 0.04046218210792028 0.01025890285538234
    vertex 0.0109629699250491 0.03509972423819593 0.02
  endloop
endfacet
facet normal 0.996456 -0.0841166 1.70828e-16
  outer loop
    vertex 0.00997531328336607 0.02339981615879728 0.02
    vertex 0.009522637322594681 0.0180373582890729 0.009741097144617662
    vertex 0.01046914160420759 0.0292497701984966 0.01000000000000001
  endloop
endfacet
facet normal 0.996456 -0.0841166 1.85143e-16
  outer loop
    vertex 0.0109629699250491 0.03509972423819593 0.02
    vertex 0.01141564588582049 0.04046218210792028 0.01025890285538234
    vertex 0.01195062656673214 0.04679963231759454 0.02
  endloop
endfacet
facet normal 0.996456 -0.0841166 2.1799e-16
  outer loop
    vertex 0.008987656641683037 0.01169990807939867 0.02
    vertex 0.009522637322594681 0.0180373582890729 0.009741097144617662
    vertex 0.00997531328336607 0.02339981615879728 0.02
  endloop
endfacet
facet normal 0.996456 -0.0841166 -1.86016e-16
  outer loop
    vertex 0.01195062656673213 0.04679963231759451 0
    vertex 0.0121975407271529 0.04972460933744421 0.01155341713229406
    vertex 0.01141564588582049 0.04046218210792028 0.01025890285538234
  endloop
endfacet
facet normal 0.996456 -0.0841166 1.83972e-16
  outer loop
    vertex 0.008987656641683037 0.01169990807939867 0.02
    vertex 0.008740742481262278 0.008774931059548984 0.008446582867705965
    vertex 0.009522637322594681 0.0180373582890729 0.009741097144617662
  endloop
endfacet
facet normal 0.996456 -0.0841166 5.48264e-16
  outer loop
    vertex 0.008 0 0.02
    vertex 0.008456087765908471 0.005402874553826868 0.01500000000000001
    vertex 0.008987656641683037 0.01169990807939867 0.02
  endloop
endfacet
facet normal 0.996456 -0.0841166 -4.90552e-16
  outer loop
    vertex 0.01293828320841517 0.05849954039699318 0
    vertex 0.0124821954425067 0.05309666584316629 0.004999999999999986
    vertex 0.01195062656673213 0.04679963231759451 0
  endloop
endfacet
facet normal 0.996456 -0.0841166 -1.37944e-16
  outer loop
    vertex 0.01195062656673213 0.04679963231759451 0
    vertex 0.0124821954425067 0.05309666584316629 0.004999999999999986
    vertex 0.0121975407271529 0.04972460933744421 0.01155341713229406
  endloop
endfacet
facet normal 0.996456 -0.0841166 3.26708e-17
  outer loop
    vertex 0.008987656641683037 0.01169990807939867 0.02
    vertex 0.008456087765908471 0.005402874553826868 0.01500000000000001
    vertex 0.008740742481262278 0.008774931059548984 0.008446582867705965
  endloop
endfacet
facet normal 0.996456 -0.0841166 -3.29288e-16
  outer loop
    vertex 0.009522637322594681 0.0180373582890729 0.009741097144617662
    vertex 0.008740742481262278 0.008774931059548984 0.008446582867705965
    vertex 0.008987656641683033 0.01169990807939864 0
  endloop
endfacet
facet normal 0.996456 -0.0841166 1.74934e-16
  outer loop
    vertex 0.01141564588582049 0.04046218210792028 0.01025890285538234
    vertex 0.0121975407271529 0.04972460933744421 0.01155341713229406
    vertex 0.01195062656673214 0.04679963231759454 0.02
  endloop
endfacet
facet normal 0.996456 -0.0841166 0
  outer loop
    vertex 0.01293828320841517 0.05849954039699318 0.009999999999999972
    vertex 0.0124821954425067 0.05309666584316629 0.004999999999999986
    vertex 0.01293828320841517 0.05849954039699318 0
  endloop
endfacet
facet normal 0.996456 -0.0841166 0
  outer loop
    vertex 0.008 0 0.01000000000000003
    vertex 0.008456087765908471 0.005402874553826868 0.01500000000000001
    vertex 0.008 0 0.02
  endloop
endfacet
facet normal 0.996456 -0.0841166 -2.98743e-16
  outer loop
    vertex 0.008740742481262278 0.008774931059548984 0.008446582867705965
    vertex 0.008456087765908471 0.005402874553826868 0.01500000000000001
    vertex 0.008 0 0.01000000000000003
  endloop
endfacet
facet normal 0.996456 -0.0841166 1.61483e-16
  outer loop
    vertex 0.0121975407271529 0.04972460933744421 0.01155341713229406
    vertex 0.0124821954425067 0.05309666584316629 0.004999999999999986
    vertex 0.01293828320841517 0.05849954039699318 0.009999999999999972
  endloop
endfacet
endsolid Created by Gmsh
