solid Created by Gmsh
facet normal 0.995113 -0.0987438 -6.8692e-17
  outer loop
    vertex 0.01263633773700345 0.04672372121674488 0.02
    vertex 0.01292610884556617 0.04964395379279144 0.00844469023742446
    vertex 0.01379542217125432 0.05840465152093111 0.02
  endloop
endfacet
facet normal 0.995113 -0.0987438 0
  outer loop
    vertex 0.01379542217125432 0.05840465152093111 0.009999999999999972
    vertex 0.01292610884556617 0.04964395379279144 0.00844469023742446
    vertex 0.01379542217125432 0.05840465152093111 0
  endloop
endfacet
facet normal 0.995113 -0.0987438 0
  outer loop
    vertex 0.008 0 0
    vertex 0.008869313325688147 0.008760697728139664 0.008444690237424465
    vertex 0.008 0 0.01000000000000003
  endloop
endfacet
facet normal 0.995113 -0.0987438 8.54499e-17
  outer loop
    vertex 0.01379542217125432 0.05840465152093111 0
    vertex 0.01292610884556617 0.04964395379279144 0.00844469023742446
    vertex 0.01263633773700345 0.04672372121674488 0
  endloop
endfacet
facet normal 0.995113 -0.0987438 1.28175e-16
  outer loop
    vertex 0.009159084434250864 0.01168093030418622 0
    vertex 0.008869313325688147 0.008760697728139664 0.008444690237424465
    vertex 0.008 0 0
  endloop
endfacet
facet normal 0.995113 -0.0987438 -5.18276e-17
  outer loop
    vertex 0.009786921836136747 0.01800810088562042 0.009740781706237411
    vertex 0.01090064446662573 0.02923188755768015 0.009984255448629579
    vertex 0.01031816886850173 0.02336186060837244 0.02
  endloop
endfacet
facet normal 0.995113 -0.0987438 1.95139e-16
  outer loop
    vertex 0.01147725330275259 0.03504279091255866 0
    vertex 0.01090064446662573 0.02923188755768015 0.009984255448629579
    vertex 0.01031816886850173 0.02336186060837244 0
  endloop
endfacet
facet normal 0.995113 -0.0987438 1.98091e-16
  outer loop
    vertex 0.01031816886850173 0.02336186060837244 0
    vertex 0.01090064446662573 0.02923188755768015 0.009984255448629579
    vertex 0.009786921836136747 0.01800810088562042 0.009740781706237411
  endloop
endfacet
facet normal 0.995113 -0.0987438 1.30159e-16
  outer loop
    vertex 0.01147725330275259 0.03504279091255866 0
    vertex 0.01200898923195066 0.04040147760151312 0.00973815761434234
    vertex 0.01090064446662573 0.02923188755768015 0.009984255448629579
  endloop
endfacet
facet normal 0.995113 -0.0987438 -1.93423e-16
  outer loop
    vertex 0.01090064446662573 0.02923188755768015 0.009984255448629579
    vertex 0.01200898923195066 0.04040147760151312 0.00973815761434234
    vertex 0.01147725330275259 0.03504279091255866 0.02
  endloop
endfacet
facet normal 0.995113 -0.0987438 3.51683e-17
  outer loop
    vertex 0.009159084434250862 0.01168093030418622 0.02
    vertex 0.009786921836136747 0.01800810088562042 0.009740781706237411
    vertex 0.01031816886850173 0.02336186060837244 0.02
  endloop
endfacet
facet normal 0.995113 -0.0987438 -1.1251e-16
  outer loop
    vertex 0.01147725330275259 0.03504279091255866 0.02
    vertex 0.01200898923195066 0.04040147760151312 0.00973815761434234
    vertex 0.01263633773700345 0.04672372121674488 0.02
  endloop
endfacet
facet normal 0.995113 -0.0987438 8.151e-17
  outer loop
    vertex 0.01263633773700345 0.04672372121674488 0
    vertex 0.01200898923195066 0.04040147760151312 0.00973815761434234
    vertex 0.01147725330275259 0.03504279091255866 0
  endloop
endfacet
facet normal 0.995113 -0.0987438 -1.58502e-16
  outer loop
    vertex 0.01031816886850173 0.02336186060837244 0.02
    vertex 0.01090064446662573 0.02923188755768015 0.009984255448629579
    vertex 0.01147725330275259 0.03504279091255866 0.02
  endloop
endfacet
facet normal 0.995113 -0.0987438 1.33344e-16
  outer loop
    vertex 0.01031816886850173 0.02336186060837244 0
    vertex 0.009786921836136747 0.01800810088562042 0.009740781706237411
    vertex 0.009159084434250864 0.01168093030418622 0
  endloop
endfacet
facet normal 0.995113 -0.0987438 -4.90899e-17
  outer loop
    vertex 0.01200898923195066 0.04040147760151312 0.00973815761434234
    vertex 0.01292610884556617 0.04964395379279144 0.00844469023742446
    vertex 0.01263633773700345 0.04672372121674488 0.02
  endloop
endfacet
facet normal 0.995113 -0.0987438 6.95108e-17
  outer loop
    vertex 0.009159084434250862 0.01168093030418622 0.02
    vertex 0.008869313325688147 0.008760697728139664 0.008444690237424465
    vertex 0.009786921836136747 0.01800810088562042 0.009740781706237411
  endloop
endfacet
facet normal 0.995113 -0.0987438 1.01024e-16
  outer loop
    vertex 0.008 0 0.02
    vertex 0.008535445431424158 0.005396070019871246 0.01500000000000001
    vertex 0.009159084434250862 0.01168093030418622 0.02
  endloop
endfacet
facet normal 0.995113 -0.0987438 1.08953e-17
  outer loop
    vertex 0.009159084434250862 0.01168093030418622 0.02
    vertex 0.008535445431424158 0.005396070019871246 0.01500000000000001
    vertex 0.008869313325688147 0.008760697728139664 0.008444690237424465
  endloop
endfacet
facet normal 0.995113 -0.0987438 6.69559e-17
  outer loop
    vertex 0.01263633773700345 0.04672372121674488 0
    vertex 0.01292610884556617 0.04964395379279144 0.00844469023742446
    vertex 0.01200898923195066 0.04040147760151312 0.00973815761434234
  endloop
endfacet
facet normal 0.995113 -0.0987438 1.23537e-16
  outer loop
    vertex 0.009786921836136747 0.01800810088562042 0.009740781706237411
    vertex 0.008869313325688147 0.008760697728139664 0.008444690237424465
    vertex 0.009159084434250864 0.01168093030418622 0
  endloop
endfacet
facet normal 0.995113 -0.0987438 0
  outer loop
    vertex 0.008 0 0.01000000000000003
    vertex 0.008535445431424158 0.005396070019871246 0.01500000000000001
    vertex 0.008 0 0.02
  endloop
endfacet
facet normal 0.995113 -0.0987438 -5.65201e-17
  outer loop
    vertex 0.008869313325688147 0.008760697728139664 0.008444690237424465
    vertex 0.008535445431424158 0.005396070019871246 0.01500000000000001
    vertex 0.008 0 0.01000000000000003
  endloop
endfacet
facet normal 0.995113 -0.0987438 0
  outer loop
    vertex 0.01379542217125432 0.05840465152093111 0.02
    vertex 0.01292610884556617 0.04964395379279144 0.00844469023742446
    vertex 0.01379542217125432 0.05840465152093111 0.009999999999999972
  endloop
endfacet
endsolid Created by Gmsh
