solid Created by Gmsh
facet normal 0.9944 -0.105678 -7.7881e-17
  outer loop
    vertex 0.01299036144771953 0.04695805686243954 0.02
    vertex 0.013302259038202 0.04989293541634199 0.008484316893242173
    vertex 0.01423795180964942 0.05869757107804943 0.02
  endloop
endfacet
facet normal 0.9944 -0.105678 -9.65725e-17
  outer loop
    vertex 0.009247590361929882 0.01173951421560988 0
    vertex 0.008935692771447415 0.008804635661707434 0.01151568310675782
    vertex 0.008 0 0
  endloop
endfacet
facet normal 0.9944 -0.105678 0
  outer loop
    vertex 0.008 0 0.01000000000000003
    vertex 0.008935692771447415 0.008804635661707434 0.01151568310675782
    vertex 0.008 0 0.02
  endloop
endfacet
facet normal 0.9944 -0.105678 0
  outer loop
    vertex 0.01423795180964942 0.05869757107804943 0.009999999999999972
    vertex 0.013302259038202 0.04989293541634199 0.008484316893242173
    vertex 0.01423795180964942 0.05869757107804943 0
  endloop
endfacet
facet normal 0.9944 -0.105678 5.07395e-17
  outer loop
    vertex 0.008 0 0.02
    vertex 0.008935692771447415 0.008804635661707434 0.01151568310675782
    vertex 0.009247590361929889 0.01173951421560994 0.02
  endloop
endfacet
facet normal 0.9944 -0.105678 1.69132e-17
  outer loop
    vertex 0.01423795180964942 0.05869757107804943 0
    vertex 0.013302259038202 0.04989293541634199 0.008484316893242173
    vertex 0.01299036144771953 0.04695805686243949 0
  endloop
endfacet
facet normal 0.9944 -0.105678 -1.46959e-16
  outer loop
    vertex 0.01049518072385977 0.02347902843121977 0
    vertex 0.009923368474641906 0.01809841774906526 0.0102526138511263
    vertex 0.009247590361929882 0.01173951421560988 0
  endloop
endfacet
facet normal 0.9944 -0.105678 4.89863e-17
  outer loop
    vertex 0.01174277108578965 0.03521854264682966 0.02
    vertex 0.01231458333500751 0.04059915332898417 0.009747386148873695
    vertex 0.01299036144771953 0.04695805686243954 0.02
  endloop
endfacet
facet normal 0.9944 -0.105678 -2.86993e-17
  outer loop
    vertex 0.01049518072385977 0.02347902843121979 0.02
    vertex 0.01111897590482471 0.02934878553902471 0.01
    vertex 0.01174277108578965 0.03521854264682966 0.02
  endloop
endfacet
facet normal 0.9944 -0.105678 0
  outer loop
    vertex 0.01111897590482471 0.02934878553902471 0.01
    vertex 0.01231458333500751 0.04059915332898417 0.009747386148873695
    vertex 0.01174277108578965 0.03521854264682966 0.02
  endloop
endfacet
facet normal 0.9944 -0.105678 -2.86993e-17
  outer loop
    vertex 0.01174277108578965 0.03521854264682963 0
    vertex 0.01111897590482471 0.02934878553902471 0.01
    vertex 0.01049518072385977 0.02347902843121977 0
  endloop
endfacet
facet normal 0.9944 -0.105678 1.03051e-16
  outer loop
    vertex 0.009247590361929889 0.01173951421560994 0.02
    vertex 0.009923368474641906 0.01809841774906526 0.0102526138511263
    vertex 0.01049518072385977 0.02347902843121979 0.02
  endloop
endfacet
facet normal 0.9944 -0.105678 -1.17772e-16
  outer loop
    vertex 0.01299036144771953 0.04695805686243949 0
    vertex 0.01231458333500751 0.04059915332898417 0.009747386148873695
    vertex 0.01174277108578965 0.03521854264682963 0
  endloop
endfacet
facet normal 0.9944 -0.105678 -5.31074e-17
  outer loop
    vertex 0.01174277108578965 0.03521854264682963 0
    vertex 0.01231458333500751 0.04059915332898417 0.009747386148873695
    vertex 0.01111897590482471 0.02934878553902471 0.01
  endloop
endfacet
facet normal 0.9944 -0.105678 5.69008e-17
  outer loop
    vertex 0.01049518072385977 0.02347902843121979 0.02
    vertex 0.009923368474641906 0.01809841774906526 0.0102526138511263
    vertex 0.01111897590482471 0.02934878553902471 0.01
  endloop
endfacet
facet normal 0.9944 -0.105678 -1.10841e-16
  outer loop
    vertex 0.01111897590482471 0.02934878553902471 0.01
    vertex 0.009923368474641906 0.01809841774906526 0.0102526138511263
    vertex 0.01049518072385977 0.02347902843121977 0
  endloop
endfacet
facet normal 0.9944 -0.105678 -1.30439e-16
  outer loop
    vertex 0.009923368474641906 0.01809841774906526 0.0102526138511263
    vertex 0.008935692771447415 0.008804635661707434 0.01151568310675782
    vertex 0.009247590361929882 0.01173951421560988 0
  endloop
endfacet
facet normal 0.9944 -0.105678 -6.52197e-17
  outer loop
    vertex 0.01231458333500751 0.04059915332898417 0.009747386148873695
    vertex 0.013302259038202 0.04989293541634199 0.008484316893242173
    vertex 0.01299036144771953 0.04695805686243954 0.02
  endloop
endfacet
facet normal 0.9944 -0.105678 -3.06071e-17
  outer loop
    vertex 0.01299036144771953 0.04695805686243949 0
    vertex 0.013302259038202 0.04989293541634199 0.008484316893242173
    vertex 0.01231458333500751 0.04059915332898417 0.009747386148873695
  endloop
endfacet
facet normal 0.9944 -0.105678 7.14165e-17
  outer loop
    vertex 0.009247590361929889 0.01173951421560994 0.02
    vertex 0.008935692771447415 0.008804635661707434 0.01151568310675782
    vertex 0.009923368474641906 0.01809841774906526 0.0102526138511263
  endloop
endfacet
facet normal 0.9944 -0.105678 0
  outer loop
    vertex 0.008 0 0
    vertex 0.008935692771447415 0.008804635661707434 0.01151568310675782
    vertex 0.008 0 0.01000000000000003
  endloop
endfacet
facet normal 0.9944 -0.105678 0
  outer loop
    vertex 0.01423795180964942 0.05869757107804943 0.02
    vertex 0.013302259038202 0.04989293541634199 0.008484316893242173
    vertex 0.01423795180964942 0.05869757107804943 0.009999999999999972
  endloop
endfacet
endsolid Created by Gmsh
