solid Created by Gmsh
facet normal -0.496392 0.868099 5.49859e-17
  outer loop
    vertex 0.01979671815942874 0.04282143299313525 0.01000000000000003
    vertex 0.0251457842532163 0.04588010677835919 0.02
    vertex 0.03049485034700386 0.04893878056358314 0.009999999999999972
  endloop
endfacet
facet normal -0.496392 0.868099 8.24789e-17
  outer loop
    vertex 0.0251457842532163 0.04588010677835919 0
    vertex 0.01979671815942874 0.04282143299313525 0.01000000000000003
    vertex 0.03049485034700386 0.04893878056358314 0.009999999999999972
  endloop
endfacet
facet normal -0.496392 0.868099 0
  outer loop
    vertex 0.0251457842532163 0.04588010677835919 0
    vertex 0.03049485034700386 0.04893878056358314 0.009999999999999972
    vertex 0.03049485034700386 0.04893878056358314 0
  endloop
endfacet
facet normal -0.496392 0.868099 0
  outer loop
    vertex 0.03049485034700386 0.04893878056358314 0.009999999999999972
    vertex 0.0251457842532163 0.04588010677835919 0.02
    vertex 0.03049485034700386 0.04893878056358314 0.02
  endloop
endfacet
facet normal -0.496392 0.868099 0
  outer loop
    vertex 0.01979671815942874 0.04282143299313525 0.01000000000000003
    vertex 0.0251457842532163 0.04588010677835919 0
    vertex 0.01979671815942874 0.04282143299313525 0
  endloop
endfacet
facet normal -0.496392 0.868099 0
  outer loop
    vertex 0.0251457842532163 0.04588010677835919 0.02
    vertex 0.01979671815942874 0.04282143299313525 0.01000000000000003
    vertex 0.01979671815942874 0.04282143299313525 0.02
  endloop
endfacet
facet normal -0.275064 -0.961426 0
  outer loop
    vertex 0.04117857836571535 0.03670408542268735 0
    vertex 0.04117857836571535 0.03670408542268735 0.01000000000000003
    vertex 0.03290476693665467 0.03907122185308207 0.008386930192301705
  endloop
endfacet
facet normal -0.275064 -0.961426 -1.16254e-15
  outer loop
    vertex 0.03048764826257205 0.0397627592079113 0
    vertex 0.04117857836571535 0.03670408542268735 0
    vertex 0.03290476693665467 0.03907122185308207 0.008386930192301705
  endloop
endfacet
facet normal -0.275064 -0.961426 5.51147e-16
  outer loop
    vertex 0.03048764826257204 0.0397627592079113 0.02
    vertex 0.01979671815942874 0.04282143299313525 0.02
    vertex 0.02679392267904387 0.04081953364223548 0.0130895954395498
  endloop
endfacet
facet normal -0.275064 -0.961426 -0
  outer loop
    vertex 0.01979671815942874 0.04282143299313525 0.02
    vertex 0.01979671815942874 0.04282143299313525 0.009999999999999972
    vertex 0.02679392267904387 0.04081953364223548 0.0130895954395498
  endloop
endfacet
facet normal -0.275064 -0.961426 1.58711e-15
  outer loop
    vertex 0.04117857836571535 0.03670408542268735 0.02
    vertex 0.03048764826257204 0.0397627592079113 0.02
    vertex 0.03560830790681641 0.03829773911463621 0.01481656214243293
  endloop
endfacet
facet normal -0.275064 -0.961426 -1.4036e-15
  outer loop
    vertex 0.01979671815942874 0.04282143299313525 0
    vertex 0.03048764826257205 0.0397627592079113 0
    vertex 0.02595595483942561 0.04105927613789986 0.006295305126370295
  endloop
endfacet
facet normal -0.275064 -0.961426 0
  outer loop
    vertex 0.04117857836571535 0.03670408542268735 0.01000000000000003
    vertex 0.04117857836571535 0.03670408542268735 0.02
    vertex 0.03560830790681641 0.03829773911463621 0.01481656214243293
  endloop
endfacet
facet normal -0.275064 -0.961426 -0
  outer loop
    vertex 0.01979671815942874 0.04282143299313525 0.009999999999999972
    vertex 0.01979671815942874 0.04282143299313525 0
    vertex 0.02595595483942561 0.04105927613789986 0.006295305126370295
  endloop
endfacet
facet normal -0.275064 -0.961426 2.50551e-16
  outer loop
    vertex 0.02679392267904387 0.04081953364223548 0.0130895954395498
    vertex 0.03290476693665467 0.03907122185308207 0.008386930192301705
    vertex 0.03560830790681641 0.03829773911463621 0.01481656214243293
  endloop
endfacet
facet normal -0.275064 -0.961426 8.66149e-16
  outer loop
    vertex 0.03048764826257204 0.0397627592079113 0.02
    vertex 0.02679392267904387 0.04081953364223548 0.0130895954395498
    vertex 0.03560830790681641 0.03829773911463621 0.01481656214243293
  endloop
endfacet
facet normal -0.275064 -0.961426 5.59811e-16
  outer loop
    vertex 0.02595595483942561 0.04105927613789986 0.006295305126370295
    vertex 0.03290476693665467 0.03907122185308207 0.008386930192301705
    vertex 0.02679392267904387 0.04081953364223548 0.0130895954395498
  endloop
endfacet
facet normal -0.275064 -0.961426 -1.25466e-15
  outer loop
    vertex 0.02595595483942561 0.04105927613789986 0.006295305126370295
    vertex 0.03048764826257205 0.0397627592079113 0
    vertex 0.03290476693665467 0.03907122185308207 0.008386930192301705
  endloop
endfacet
facet normal -0.275064 -0.961426 -4.66906e-16
  outer loop
    vertex 0.03290476693665467 0.03907122185308207 0.008386930192301705
    vertex 0.04117857836571535 0.03670408542268735 0.01000000000000003
    vertex 0.03560830790681641 0.03829773911463621 0.01481656214243293
  endloop
endfacet
facet normal -0.275064 -0.961426 6.1595e-16
  outer loop
    vertex 0.01979671815942874 0.04282143299313525 0.009999999999999972
    vertex 0.02595595483942561 0.04105927613789986 0.006295305126370295
    vertex 0.02679392267904387 0.04081953364223548 0.0130895954395498
  endloop
endfacet
facet normal -0.873098 0.487544 -5.80285e-16
  outer loop
    vertex 0.03776260612483941 0.03058673785223946 0.02
    vertex 0.04117857836571535 0.03670408542268735 0.02
    vertex 0.03947059224527738 0.03364541163746341 0.015
  endloop
endfacet
facet normal -0.873098 0.487544 -5.80285e-16
  outer loop
    vertex 0.03776260612483941 0.03058673785223946 0.01000000000000003
    vertex 0.04117857836571535 0.03670408542268735 0.009999999999999972
    vertex 0.03947059224527738 0.03364541163746341 0.004999999999999999
  endloop
endfacet
facet normal -0.873098 0.487544 6.28642e-16
  outer loop
    vertex 0.04117857836571535 0.03670408542268735 0.009999999999999972
    vertex 0.03776260612483941 0.03058673785223946 0.01000000000000003
    vertex 0.03947059224527738 0.03364541163746341 0.015
  endloop
endfacet
facet normal -0.873098 0.487544 6.28642e-16
  outer loop
    vertex 0.04117857836571535 0.03670408542268735 0
    vertex 0.03776260612483941 0.03058673785223946 0
    vertex 0.03947059224527738 0.03364541163746341 0.004999999999999999
  endloop
endfacet
facet normal -0.873098 0.487544 0
  outer loop
    vertex 0.04117857836571535 0.03670408542268735 0.009999999999999972
    vertex 0.04117857836571535 0.03670408542268735 0
    vertex 0.03947059224527738 0.03364541163746341 0.004999999999999999
  endloop
endfacet
facet normal -0.873098 0.487544 0
  outer loop
    vertex 0.04117857836571535 0.03670408542268735 0.02
    vertex 0.04117857836571535 0.03670408542268735 0.009999999999999972
    vertex 0.03947059224527738 0.03364541163746341 0.015
  endloop
endfacet
facet normal -0.873098 0.487544 0
  outer loop
    vertex 0.03776260612483941 0.03058673785223946 0
    vertex 0.03776260612483941 0.03058673785223946 0.01000000000000003
    vertex 0.03947059224527738 0.03364541163746341 0.004999999999999999
  endloop
endfacet
facet normal -0.873098 0.487544 0
  outer loop
    vertex 0.03776260612483941 0.03058673785223946 0.01000000000000003
    vertex 0.03776260612483941 0.03058673785223946 0.02
    vertex 0.03947059224527738 0.03364541163746341 0.015
  endloop
endfacet
facet normal -0.922915 -0.385004 0
  outer loop
    vertex 0.04031452653057321 0.02446939028179157 0.02
    vertex 0.03776260612483941 0.03058673785223946 0.02
    vertex 0.03903856632770631 0.02752806406701552 0.015
  endloop
endfacet
facet normal -0.922915 -0.385004 0
  outer loop
    vertex 0.03776260612483941 0.03058673785223946 0
    vertex 0.04031452653057321 0.02446939028179157 0
    vertex 0.03903856632770631 0.02752806406701552 0.005000000000000001
  endloop
endfacet
facet normal -0.922915 -0.385004 0
  outer loop
    vertex 0.04031452653057321 0.02446939028179157 0.01000000000000003
    vertex 0.03776260612483941 0.03058673785223946 0.009999999999999972
    vertex 0.03903856632770631 0.02752806406701552 0.005000000000000001
  endloop
endfacet
facet normal -0.922915 -0.385004 0
  outer loop
    vertex 0.03776260612483941 0.03058673785223946 0.009999999999999972
    vertex 0.04031452653057321 0.02446939028179157 0.01000000000000003
    vertex 0.03903856632770631 0.02752806406701552 0.015
  endloop
endfacet
facet normal -0.922915 -0.385004 -0
  outer loop
    vertex 0.03776260612483941 0.03058673785223946 0.009999999999999972
    vertex 0.03776260612483941 0.03058673785223946 0
    vertex 0.03903856632770631 0.02752806406701552 0.005000000000000001
  endloop
endfacet
facet normal -0.922915 -0.385004 -0
  outer loop
    vertex 0.03776260612483941 0.03058673785223946 0.02
    vertex 0.03776260612483941 0.03058673785223946 0.009999999999999972
    vertex 0.03903856632770631 0.02752806406701552 0.015
  endloop
endfacet
facet normal -0.922915 -0.385004 0
  outer loop
    vertex 0.04031452653057321 0.02446939028179157 0
    vertex 0.04031452653057321 0.02446939028179157 0.01000000000000003
    vertex 0.03903856632770631 0.02752806406701552 0.005000000000000001
  endloop
endfacet
facet normal -0.922915 -0.385004 0
  outer loop
    vertex 0.04031452653057321 0.02446939028179157 0.01000000000000003
    vertex 0.04031452653057321 0.02446939028179157 0.02
    vertex 0.03903856632770631 0.02752806406701552 0.015
  endloop
endfacet
facet normal -0.980744 0.195299 -6.78989e-16
  outer loop
    vertex 0.04031452653057321 0.02446939028179157 0.009999999999999972
    vertex 0.0390963544678922 0.01835204271134368 0.01000000000000003
    vertex 0.03970544049923271 0.02141071649656762 0.015
  endloop
endfacet
facet normal -0.980744 0.195299 6.78989e-16
  outer loop
    vertex 0.0390963544678922 0.01835204271134368 0.01000000000000003
    vertex 0.04031452653057321 0.02446939028179157 0.009999999999999972
    vertex 0.03970544049923271 0.02141071649656762 0.005
  endloop
endfacet
facet normal -0.980744 0.195299 6.78989e-16
  outer loop
    vertex 0.0390963544678922 0.01835204271134368 0.02
    vertex 0.04031452653057321 0.02446939028179157 0.02
    vertex 0.03970544049923271 0.02141071649656762 0.015
  endloop
endfacet
facet normal -0.980744 0.195299 -6.78989e-16
  outer loop
    vertex 0.04031452653057321 0.02446939028179157 0
    vertex 0.0390963544678922 0.01835204271134368 0
    vertex 0.03970544049923271 0.02141071649656762 0.005
  endloop
endfacet
facet normal -0.980744 0.195299 0
  outer loop
    vertex 0.04031452653057321 0.02446939028179157 0.009999999999999972
    vertex 0.04031452653057321 0.02446939028179157 0
    vertex 0.03970544049923271 0.02141071649656762 0.005
  endloop
endfacet
facet normal -0.980744 0.195299 0
  outer loop
    vertex 0.04031452653057321 0.02446939028179157 0.02
    vertex 0.04031452653057321 0.02446939028179157 0.009999999999999972
    vertex 0.03970544049923271 0.02141071649656762 0.015
  endloop
endfacet
facet normal -0.980744 0.195299 0
  outer loop
    vertex 0.0390963544678922 0.01835204271134368 0
    vertex 0.0390963544678922 0.01835204271134368 0.01000000000000003
    vertex 0.03970544049923271 0.02141071649656762 0.005
  endloop
endfacet
facet normal -0.980744 0.195299 0
  outer loop
    vertex 0.0390963544678922 0.01835204271134368 0.01000000000000003
    vertex 0.0390963544678922 0.01835204271134368 0.02
    vertex 0.03970544049923271 0.02141071649656762 0.015
  endloop
endfacet
facet normal -0.24403 0.969768 -2.16099e-16
  outer loop
    vertex 0.022889589520042 0.01427381099771175 0.02
    vertex 0.0309929719939671 0.01631292685452771 0.02
    vertex 0.02694128075700455 0.01529336892611973 0.01249467825723506
  endloop
endfacet
facet normal -0.24403 0.969768 0
  outer loop
    vertex 0.0390963544678922 0.01835204271134368 0.02
    vertex 0.0390963544678922 0.01835204271134368 0.009999999999999972
    vertex 0.03350965088951241 0.01694621793500349 0.01367735650407198
  endloop
endfacet
facet normal -0.24403 0.969768 0
  outer loop
    vertex 0.0147862070461169 0.01223469514089578 0.01000000000000003
    vertex 0.0147862070461169 0.01223469514089578 0.02
    vertex 0.02037291062449671 0.01364051991723597 0.01367735650407199
  endloop
endfacet
facet normal -0.24403 0.969768 0
  outer loop
    vertex 0.0147862070461169 0.01223469514089578 0
    vertex 0.0147862070461169 0.01223469514089578 0.01000000000000003
    vertex 0.02111957929179694 0.01382840984149646 0.006948901643774458
  endloop
endfacet
facet normal -0.24403 0.969768 0
  outer loop
    vertex 0.0390963544678922 0.01835204271134368 0.009999999999999972
    vertex 0.0390963544678922 0.01835204271134368 0
    vertex 0.03276298222221218 0.016758328010743 0.006948901643774446
  endloop
endfacet
facet normal -0.24403 0.969768 0
  outer loop
    vertex 0.02694128075700455 0.01529336892611973 0.005521375101339664
    vertex 0.02694128075700455 0.01529336892611973 0.01249467825723506
    vertex 0.03276298222221218 0.016758328010743 0.006948901643774446
  endloop
endfacet
facet normal -0.24403 0.969768 0
  outer loop
    vertex 0.02694128075700455 0.01529336892611973 0.01249467825723506
    vertex 0.02694128075700455 0.01529336892611973 0.005521375101339664
    vertex 0.02111957929179694 0.01382840984149646 0.006948901643774458
  endloop
endfacet
facet normal -0.24403 0.969768 -4.00814e-16
  outer loop
    vertex 0.0309929719939671 0.01631292685452771 0.02
    vertex 0.0390963544678922 0.01835204271134368 0.02
    vertex 0.03350965088951241 0.01694621793500349 0.01367735650407198
  endloop
endfacet
facet normal -0.24403 0.969768 -1.28261e-16
  outer loop
    vertex 0.0147862070461169 0.01223469514089578 0.02
    vertex 0.022889589520042 0.01427381099771175 0.02
    vertex 0.02037291062449671 0.01364051991723597 0.01367735650407199
  endloop
endfacet
facet normal -0.24403 0.969768 3.28222e-16
  outer loop
    vertex 0.022889589520042 0.01427381099771175 0
    vertex 0.0147862070461169 0.01223469514089578 0
    vertex 0.02111957929179694 0.01382840984149646 0.006948901643774458
  endloop
endfacet
facet normal -0.24403 0.969768 3.50104e-16
  outer loop
    vertex 0.0390963544678922 0.01835204271134368 0
    vertex 0.0309929719939671 0.01631292685452771 0
    vertex 0.03276298222221218 0.016758328010743 0.006948901643774446
  endloop
endfacet
facet normal -0.24403 0.969768 3.79307e-17
  outer loop
    vertex 0.02694128075700455 0.01529336892611973 0.01249467825723506
    vertex 0.03350965088951241 0.01694621793500349 0.01367735650407198
    vertex 0.03276298222221218 0.016758328010743 0.006948901643774446
  endloop
endfacet
facet normal -0.24403 0.969768 -3.31893e-17
  outer loop
    vertex 0.02037291062449671 0.01364051991723597 0.01367735650407199
    vertex 0.02694128075700455 0.01529336892611973 0.01249467825723506
    vertex 0.02111957929179694 0.01382840984149646 0.006948901643774458
  endloop
endfacet
facet normal -0.24403 0.969768 4.40621e-16
  outer loop
    vertex 0.0309929719939671 0.01631292685452771 0
    vertex 0.022889589520042 0.01427381099771175 0
    vertex 0.02694128075700455 0.01529336892611973 0.005521375101339664
  endloop
endfacet
facet normal -0.24403 0.969768 -4.24501e-16
  outer loop
    vertex 0.02694128075700455 0.01529336892611973 0.01249467825723506
    vertex 0.0309929719939671 0.01631292685452771 0.02
    vertex 0.03350965088951241 0.01694621793500349 0.01367735650407198
  endloop
endfacet
facet normal -0.24403 0.969768 -7.38262e-17
  outer loop
    vertex 0.022889589520042 0.01427381099771175 0.02
    vertex 0.02694128075700455 0.01529336892611973 0.01249467825723506
    vertex 0.02037291062449671 0.01364051991723597 0.01367735650407199
  endloop
endfacet
facet normal -0.24403 0.969768 3.6818e-16
  outer loop
    vertex 0.02694128075700455 0.01529336892611973 0.005521375101339664
    vertex 0.022889589520042 0.01427381099771175 0
    vertex 0.02111957929179694 0.01382840984149646 0.006948901643774458
  endloop
endfacet
facet normal -0.24403 0.969768 4.11496e-16
  outer loop
    vertex 0.0309929719939671 0.01631292685452771 0
    vertex 0.02694128075700455 0.01529336892611973 0.005521375101339664
    vertex 0.03276298222221218 0.016758328010743 0.006948901643774446
  endloop
endfacet
facet normal -0.24403 0.969768 6.61854e-17
  outer loop
    vertex 0.03350965088951241 0.01694621793500349 0.01367735650407198
    vertex 0.0390963544678922 0.01835204271134368 0.009999999999999972
    vertex 0.03276298222221218 0.016758328010743 0.006948901643774446
  endloop
endfacet
facet normal -0.24403 0.969768 0
  outer loop
    vertex 0.0147862070461169 0.01223469514089578 0.01000000000000003
    vertex 0.02037291062449671 0.01364051991723597 0.01367735650407199
    vertex 0.02111957929179694 0.01382840984149646 0.006948901643774458
  endloop
endfacet
facet normal -0.34243 -0.939543 -3.91415e-16
  outer loop
    vertex 0.0147862070461169 0.01223469514089578 0
    vertex 0.02317844965760144 0.00917602135567184 0
    vertex 0.02187775155339887 0.009650079527961868 0.007752684732819579
  endloop
endfacet
facet normal -0.34243 -0.939543 -0
  outer loop
    vertex 0.0147862070461169 0.01223469514089578 0.009999999999999972
    vertex 0.0147862070461169 0.01223469514089578 0
    vertex 0.02187775155339887 0.009650079527961868 0.007752684732819579
  endloop
endfacet
facet normal -0.34243 -0.939543 0
  outer loop
    vertex 0.03157069226908598 0.006117347570447892 0.01000000000000003
    vertex 0.03157069226908598 0.006117347570447892 0.02
    vertex 0.02578099715260867 0.008227485408095042 0.01348498613359913
  endloop
endfacet
facet normal -0.34243 -0.939543 2.32886e-16
  outer loop
    vertex 0.03157069226908598 0.006117347570447892 0.02
    vertex 0.02317844965760145 0.009176021355671837 0.02
    vertex 0.02578099715260867 0.008227485408095042 0.01348498613359913
  endloop
endfacet
facet normal -0.34243 -0.939543 0
  outer loop
    vertex 0.03157069226908598 0.006117347570447892 0
    vertex 0.03157069226908598 0.006117347570447892 0.01000000000000003
    vertex 0.02722389041800127 0.007701602159713614 0.005174928153233071
  endloop
endfacet
facet normal -0.34243 -0.939543 -0
  outer loop
    vertex 0.0147862070461169 0.01223469514089578 0.02
    vertex 0.0147862070461169 0.01223469514089578 0.009999999999999972
    vertex 0.02008192249116856 0.01030459531470406 0.01424753417328374
  endloop
endfacet
facet normal -0.34243 -0.939543 -3.66492e-16
  outer loop
    vertex 0.02317844965760144 0.00917602135567184 0
    vertex 0.03157069226908598 0.006117347570447892 0
    vertex 0.02722389041800127 0.007701602159713614 0.005174928153233071
  endloop
endfacet
facet normal -0.34243 -0.939543 4.28606e-16
  outer loop
    vertex 0.02317844965760145 0.009176021355671837 0.02
    vertex 0.0147862070461169 0.01223469514089578 0.02
    vertex 0.02008192249116856 0.01030459531470406 0.01424753417328374
  endloop
endfacet
facet normal -0.34243 -0.939543 1.95499e-17
  outer loop
    vertex 0.02578099715260867 0.008227485408095042 0.01348498613359913
    vertex 0.02187775155339887 0.009650079527961868 0.007752684732819579
    vertex 0.02722389041800127 0.007701602159713614 0.005174928153233071
  endloop
endfacet
facet normal -0.34243 -0.939543 3.69427e-17
  outer loop
    vertex 0.03157069226908598 0.006117347570447892 0.01000000000000003
    vertex 0.02578099715260867 0.008227485408095042 0.01348498613359913
    vertex 0.02722389041800127 0.007701602159713614 0.005174928153233071
  endloop
endfacet
facet normal -0.34243 -0.939543 6.69787e-17
  outer loop
    vertex 0.02008192249116856 0.01030459531470406 0.01424753417328374
    vertex 0.02187775155339887 0.009650079527961868 0.007752684732819579
    vertex 0.02578099715260867 0.008227485408095042 0.01348498613359913
  endloop
endfacet
facet normal -0.34243 -0.939543 -1.13628e-16
  outer loop
    vertex 0.02008192249116856 0.01030459531470406 0.01424753417328374
    vertex 0.0147862070461169 0.01223469514089578 0.009999999999999972
    vertex 0.02187775155339887 0.009650079527961868 0.007752684732819579
  endloop
endfacet
facet normal -0.34243 -0.939543 -4.17821e-16
  outer loop
    vertex 0.02187775155339887 0.009650079527961868 0.007752684732819579
    vertex 0.02317844965760144 0.00917602135567184 0
    vertex 0.02722389041800127 0.007701602159713614 0.005174928153233071
  endloop
endfacet
facet normal -0.34243 -0.939543 2.94372e-16
  outer loop
    vertex 0.02317844965760145 0.009176021355671837 0.02
    vertex 0.02008192249116856 0.01030459531470406 0.01424753417328374
    vertex 0.02578099715260867 0.008227485408095042 0.01348498613359913
  endloop
endfacet
endsolid Created by Gmsh
