solid Created by Gmsh
facet normal -0.739941 -0.672672 -0
  outer loop
    vertex 0.03305956808774393 0.05822824728049784 0.02
    vertex 0.03305956808774393 0.05822824728049784 0.009999999999999972
    vertex 0.03636798178803661 0.05458898182546672 0.015
  endloop
endfacet
facet normal -0.739941 -0.672672 0
  outer loop
    vertex 0.0396763954883293 0.05094971637043561 0
    vertex 0.0396763954883293 0.05094971637043561 0.01000000000000003
    vertex 0.03636798178803661 0.05458898182546672 0.004999999999999999
  endloop
endfacet
facet normal -0.739941 -0.672672 -0
  outer loop
    vertex 0.03305956808774393 0.05822824728049784 0.009999999999999972
    vertex 0.03305956808774393 0.05822824728049784 0
    vertex 0.03636798178803661 0.05458898182546672 0.004999999999999999
  endloop
endfacet
facet normal -0.739941 -0.672672 0
  outer loop
    vertex 0.0396763954883293 0.05094971637043561 0.01000000000000003
    vertex 0.0396763954883293 0.05094971637043561 0.02
    vertex 0.03636798178803661 0.05458898182546672 0.015
  endloop
endfacet
facet normal -0.739941 -0.672672 1.99775e-15
  outer loop
    vertex 0.0396763954883293 0.05094971637043561 0.01000000000000003
    vertex 0.03305956808774393 0.05822824728049784 0.009999999999999972
    vertex 0.03636798178803661 0.05458898182546672 0.004999999999999999
  endloop
endfacet
facet normal -0.739941 -0.672672 -1.99775e-15
  outer loop
    vertex 0.03305956808774393 0.05822824728049784 0.009999999999999972
    vertex 0.0396763954883293 0.05094971637043561 0.01000000000000003
    vertex 0.03636798178803661 0.05458898182546672 0.015
  endloop
endfacet
facet normal -0.739941 -0.672672 1.99775e-15
  outer loop
    vertex 0.0396763954883293 0.05094971637043561 0.02
    vertex 0.03305956808774393 0.05822824728049784 0.02
    vertex 0.03636798178803661 0.05458898182546672 0.015
  endloop
endfacet
facet normal -0.739941 -0.672672 -1.99775e-15
  outer loop
    vertex 0.03305956808774393 0.05822824728049784 0
    vertex 0.0396763954883293 0.05094971637043561 0
    vertex 0.03636798178803661 0.05458898182546672 0.004999999999999999
  endloop
endfacet
facet normal -0.951206 -0.308558 0
  outer loop
    vertex 0.04203744848441507 0.04367118546037338 0
    vertex 0.04203744848441507 0.04367118546037338 0.01000000000000003
    vertex 0.04085692198637219 0.04731045091540449 0.005
  endloop
endfacet
facet normal -0.951206 -0.308558 -0
  outer loop
    vertex 0.0396763954883293 0.05094971637043561 0.02
    vertex 0.0396763954883293 0.05094971637043561 0.009999999999999972
    vertex 0.04085692198637219 0.04731045091540449 0.015
  endloop
endfacet
facet normal -0.951206 -0.308558 0
  outer loop
    vertex 0.04203744848441507 0.04367118546037338 0.01000000000000003
    vertex 0.04203744848441507 0.04367118546037338 0.02
    vertex 0.04085692198637219 0.04731045091540449 0.015
  endloop
endfacet
facet normal -0.951206 -0.308558 -0
  outer loop
    vertex 0.0396763954883293 0.05094971637043561 0.009999999999999972
    vertex 0.0396763954883293 0.05094971637043561 0
    vertex 0.04085692198637219 0.04731045091540449 0.005
  endloop
endfacet
facet normal -0.951206 -0.308558 -4.42783e-16
  outer loop
    vertex 0.04203744848441507 0.04367118546037338 0.01000000000000003
    vertex 0.0396763954883293 0.05094971637043561 0.009999999999999972
    vertex 0.04085692198637219 0.04731045091540449 0.005
  endloop
endfacet
facet normal -0.951206 -0.308558 4.42783e-16
  outer loop
    vertex 0.0396763954883293 0.05094971637043561 0.009999999999999972
    vertex 0.04203744848441507 0.04367118546037338 0.01000000000000003
    vertex 0.04085692198637219 0.04731045091540449 0.015
  endloop
endfacet
facet normal -0.951206 -0.308558 -4.42783e-16
  outer loop
    vertex 0.04203744848441507 0.04367118546037338 0.02
    vertex 0.0396763954883293 0.05094971637043561 0.02
    vertex 0.04085692198637219 0.04731045091540449 0.015
  endloop
endfacet
facet normal -0.951206 -0.308558 4.42783e-16
  outer loop
    vertex 0.0396763954883293 0.05094971637043561 0
    vertex 0.04203744848441507 0.04367118546037338 0
    vertex 0.04085692198637219 0.04731045091540449 0.005
  endloop
endfacet
facet normal -0.848831 0.528665 0
  outer loop
    vertex 0.04203744848441507 0.04367118546037338 0.02
    vertex 0.04203744848441507 0.04367118546037338 0.009999999999999972
    vertex 0.03977085857151035 0.04003192000534227 0.015
  endloop
endfacet
facet normal -0.848831 0.528665 0
  outer loop
    vertex 0.03750426865860563 0.03639265455031115 0
    vertex 0.03750426865860563 0.03639265455031115 0.01000000000000003
    vertex 0.03977085857151035 0.04003192000534227 0.005
  endloop
endfacet
facet normal -0.848831 0.528665 0
  outer loop
    vertex 0.04203744848441507 0.04367118546037338 0.009999999999999972
    vertex 0.04203744848441507 0.04367118546037338 0
    vertex 0.03977085857151035 0.04003192000534227 0.005
  endloop
endfacet
facet normal -0.848831 0.528665 0
  outer loop
    vertex 0.03750426865860563 0.03639265455031115 0.01000000000000003
    vertex 0.03750426865860563 0.03639265455031115 0.02
    vertex 0.03977085857151035 0.04003192000534227 0.015
  endloop
endfacet
facet normal -0.848831 0.528665 6.32205e-16
  outer loop
    vertex 0.04203744848441507 0.04367118546037338 0
    vertex 0.03750426865860563 0.03639265455031115 0
    vertex 0.03977085857151035 0.04003192000534227 0.005
  endloop
endfacet
facet normal -0.848831 0.528665 -5.53179e-16
  outer loop
    vertex 0.03750426865860563 0.03639265455031115 0.02
    vertex 0.04203744848441507 0.04367118546037338 0.02
    vertex 0.03977085857151035 0.04003192000534227 0.015
  endloop
endfacet
facet normal -0.848831 0.528665 6.32205e-16
  outer loop
    vertex 0.04203744848441507 0.04367118546037338 0.009999999999999972
    vertex 0.03750426865860563 0.03639265455031115 0.01000000000000003
    vertex 0.03977085857151035 0.04003192000534227 0.015
  endloop
endfacet
facet normal -0.848831 0.528665 -5.53179e-16
  outer loop
    vertex 0.03750426865860563 0.03639265455031115 0.01000000000000003
    vertex 0.04203744848441507 0.04367118546037338 0.009999999999999972
    vertex 0.03977085857151035 0.04003192000534227 0.005
  endloop
endfacet
facet normal -0.906387 -0.422449 -0
  outer loop
    vertex 0.03750426865860563 0.03639265455031115 0.02
    vertex 0.03750426865860563 0.03639265455031115 0.009999999999999972
    vertex 0.03920045777131265 0.03275338909528003 0.015
  endloop
endfacet
facet normal -0.906387 -0.422449 0
  outer loop
    vertex 0.0408966468840197 0.02911412364024892 0
    vertex 0.0408966468840197 0.02911412364024892 0.01000000000000003
    vertex 0.03920045777131265 0.03275338909528003 0.004999999999999999
  endloop
endfacet
facet normal -0.906387 -0.422449 -0
  outer loop
    vertex 0.03750426865860563 0.03639265455031115 0.009999999999999972
    vertex 0.03750426865860563 0.03639265455031115 0
    vertex 0.03920045777131265 0.03275338909528003 0.004999999999999999
  endloop
endfacet
facet normal -0.906387 -0.422449 0
  outer loop
    vertex 0.0408966468840197 0.02911412364024892 0.01000000000000003
    vertex 0.0408966468840197 0.02911412364024892 0.02
    vertex 0.03920045777131265 0.03275338909528003 0.015
  endloop
endfacet
facet normal -0.906387 -0.422449 2.15179e-15
  outer loop
    vertex 0.0408966468840197 0.02911412364024892 0.01000000000000003
    vertex 0.03750426865860563 0.03639265455031115 0.009999999999999972
    vertex 0.03920045777131265 0.03275338909528003 0.004999999999999999
  endloop
endfacet
facet normal -0.906387 -0.422449 2.15179e-15
  outer loop
    vertex 0.0408966468840197 0.02911412364024892 0.02
    vertex 0.03750426865860563 0.03639265455031115 0.02
    vertex 0.03920045777131265 0.03275338909528003 0.015
  endloop
endfacet
facet normal -0.906387 -0.422449 -2.19398e-15
  outer loop
    vertex 0.03750426865860563 0.03639265455031115 0.009999999999999972
    vertex 0.0408966468840197 0.02911412364024892 0.01000000000000003
    vertex 0.03920045777131265 0.03275338909528003 0.015
  endloop
endfacet
facet normal -0.906387 -0.422449 -2.19398e-15
  outer loop
    vertex 0.03750426865860563 0.03639265455031115 0
    vertex 0.0408966468840197 0.02911412364024892 0
    vertex 0.03920045777131265 0.03275338909528003 0.004999999999999999
  endloop
endfacet
facet normal -0.993883 0.110439 6.93974e-16
  outer loop
    vertex 0.04008786408080244 0.02183559273018669 0.01000000000000003
    vertex 0.0408966468840197 0.02911412364024892 0.009999999999999972
    vertex 0.04049225548241107 0.02547485818521781 0.005
  endloop
endfacet
facet normal -0.993883 0.110439 6.93974e-16
  outer loop
    vertex 0.04008786408080244 0.02183559273018669 0.02
    vertex 0.0408966468840197 0.02911412364024892 0.02
    vertex 0.04049225548241107 0.02547485818521781 0.015
  endloop
endfacet
facet normal -0.993883 0.110439 -6.93974e-16
  outer loop
    vertex 0.0408966468840197 0.02911412364024892 0
    vertex 0.04008786408080244 0.02183559273018669 0
    vertex 0.04049225548241107 0.02547485818521781 0.005
  endloop
endfacet
facet normal -0.993883 0.110439 -6.93974e-16
  outer loop
    vertex 0.0408966468840197 0.02911412364024892 0.009999999999999972
    vertex 0.04008786408080244 0.02183559273018669 0.01000000000000003
    vertex 0.04049225548241107 0.02547485818521781 0.015
  endloop
endfacet
facet normal -0.993883 0.110439 0
  outer loop
    vertex 0.0408966468840197 0.02911412364024892 0.009999999999999972
    vertex 0.0408966468840197 0.02911412364024892 0
    vertex 0.04049225548241107 0.02547485818521781 0.005
  endloop
endfacet
facet normal -0.993883 0.110439 0
  outer loop
    vertex 0.0408966468840197 0.02911412364024892 0.02
    vertex 0.0408966468840197 0.02911412364024892 0.009999999999999972
    vertex 0.04049225548241107 0.02547485818521781 0.015
  endloop
endfacet
facet normal -0.993883 0.110439 0
  outer loop
    vertex 0.04008786408080244 0.02183559273018669 0
    vertex 0.04008786408080244 0.02183559273018669 0.01000000000000003
    vertex 0.04049225548241107 0.02547485818521781 0.005
  endloop
endfacet
facet normal -0.993883 0.110439 0
  outer loop
    vertex 0.04008786408080244 0.02183559273018669 0.01000000000000003
    vertex 0.04008786408080244 0.02183559273018669 0.02
    vertex 0.04049225548241107 0.02547485818521781 0.015
  endloop
endfacet
facet normal -0.343446 0.939172 0
  outer loop
    vertex 0.04008786408080244 0.02183559273018669 0.009999999999999972
    vertex 0.04008786408080244 0.02183559273018669 0
    vertex 0.03248795870992898 0.01905638300495092 0.007960578814604092
  endloop
endfacet
facet normal -0.343446 0.939172 -1.60665e-16
  outer loop
    vertex 0.04008786408080244 0.02183559273018669 0
    vertex 0.03013608792422653 0.01819632727515558 0
    vertex 0.03248795870992898 0.01905638300495092 0.007960578814604092
  endloop
endfacet
facet normal -0.343446 0.939172 -4.36292e-16
  outer loop
    vertex 0.0201843117676506 0.01455706182012446 0.02
    vertex 0.03013608792422651 0.01819632727515557 0.02
    vertex 0.02707785374295885 0.01707796148454959 0.01267129327074025
  endloop
endfacet
facet normal -0.343446 0.939172 0
  outer loop
    vertex 0.0201843117676506 0.01455706182012446 0.01000000000000003
    vertex 0.0201843117676506 0.01455706182012446 0.02
    vertex 0.02707785374295885 0.01707796148454959 0.01267129327074025
  endloop
endfacet
facet normal -0.343446 0.939172 -5.75543e-16
  outer loop
    vertex 0.03013608792422651 0.01819632727515557 0.02
    vertex 0.04008786408080244 0.02183559273018669 0.02
    vertex 0.03511197600251448 0.02001596000267113 0.01499999999999999
  endloop
endfacet
facet normal -0.343446 0.939172 -7.96218e-17
  outer loop
    vertex 0.03013608792422653 0.01819632727515558 0
    vertex 0.0201843117676506 0.01455706182012446 0
    vertex 0.02595868100742603 0.01666869115827262 0.006023716913470503
  endloop
endfacet
facet normal -0.343446 0.939172 0
  outer loop
    vertex 0.0201843117676506 0.01455706182012446 0
    vertex 0.0201843117676506 0.01455706182012446 0.01000000000000003
    vertex 0.02595868100742603 0.01666869115827262 0.006023716913470503
  endloop
endfacet
facet normal -0.343446 0.939172 0
  outer loop
    vertex 0.04008786408080244 0.02183559273018669 0.02
    vertex 0.04008786408080244 0.02183559273018669 0.009999999999999972
    vertex 0.03511197600251448 0.02001596000267113 0.01499999999999999
  endloop
endfacet
facet normal -0.343446 0.939172 -5.53313e-16
  outer loop
    vertex 0.02707785374295885 0.01707796148454959 0.01267129327074025
    vertex 0.03013608792422651 0.01819632727515557 0.02
    vertex 0.03511197600251448 0.02001596000267113 0.01499999999999999
  endloop
endfacet
facet normal -0.343446 0.939172 3.15397e-16
  outer loop
    vertex 0.03248795870992898 0.01905638300495092 0.007960578814604092
    vertex 0.02707785374295885 0.01707796148454959 0.01267129327074025
    vertex 0.03511197600251448 0.02001596000267113 0.01499999999999999
  endloop
endfacet
facet normal -0.343446 0.939172 -1.7614e-16
  outer loop
    vertex 0.03013608792422653 0.01819632727515558 0
    vertex 0.02595868100742603 0.01666869115827262 0.006023716913470503
    vertex 0.03248795870992898 0.01905638300495092 0.007960578814604092
  endloop
endfacet
facet normal -0.343446 0.939172 3.30447e-16
  outer loop
    vertex 0.04008786408080244 0.02183559273018669 0.009999999999999972
    vertex 0.03248795870992898 0.01905638300495092 0.007960578814604092
    vertex 0.03511197600251448 0.02001596000267113 0.01499999999999999
  endloop
endfacet
facet normal -0.343446 0.939172 2.70082e-16
  outer loop
    vertex 0.03248795870992898 0.01905638300495092 0.007960578814604092
    vertex 0.02595868100742603 0.01666869115827262 0.006023716913470503
    vertex 0.02707785374295885 0.01707796148454959 0.01267129327074025
  endloop
endfacet
facet normal -0.343446 0.939172 2.13569e-16
  outer loop
    vertex 0.02595868100742603 0.01666869115827262 0.006023716913470503
    vertex 0.0201843117676506 0.01455706182012446 0.01000000000000003
    vertex 0.02707785374295885 0.01707796148454959 0.01267129327074025
  endloop
endfacet
facet normal -0.361973 -0.932189 -6.71419e-16
  outer loop
    vertex 0.0201843117676506 0.01455706182012446 0
    vertex 0.02955652138790833 0.01091779636509335 0
    vertex 0.02686535505185641 0.0119627867224758 0.0070267833897447
  endloop
endfacet
facet normal -0.361973 -0.932189 0
  outer loop
    vertex 0.03892873100816606 0.007278530910062232 0.01000000000000003
    vertex 0.03892873100816606 0.007278530910062232 0.02
    vertex 0.03188702707262239 0.01001285194165648 0.01245940376681622
  endloop
endfacet
facet normal -0.361973 -0.932189 5.36288e-16
  outer loop
    vertex 0.03892873100816606 0.007278530910062232 0.02
    vertex 0.02955652138790833 0.01091779636509335 0.02
    vertex 0.03188702707262239 0.01001285194165648 0.01245940376681622
  endloop
endfacet
facet normal -0.361973 -0.932189 -0
  outer loop
    vertex 0.0201843117676506 0.01455706182012446 0.009999999999999972
    vertex 0.0201843117676506 0.01455706182012446 0
    vertex 0.02686535505185641 0.0119627867224758 0.0070267833897447
  endloop
endfacet
facet normal -0.361973 -0.932189 -8.4407e-16
  outer loop
    vertex 0.02955652138790833 0.01091779636509335 0
    vertex 0.03892873100816606 0.007278530910062232 0
    vertex 0.03369606800264881 0.009310394311051177 0.005589482173531956
  endloop
endfacet
facet normal -0.361973 -0.932189 0
  outer loop
    vertex 0.03892873100816606 0.007278530910062232 0
    vertex 0.03892873100816606 0.007278530910062232 0.01000000000000003
    vertex 0.03369606800264881 0.009310394311051177 0.005589482173531956
  endloop
endfacet
facet normal -0.361973 -0.932189 7.72635e-16
  outer loop
    vertex 0.02955652138790833 0.01091779636509335 0.02
    vertex 0.0201843117676506 0.01455706182012446 0.02
    vertex 0.02568389031265772 0.01242155407680487 0.01411181439812005
  endloop
endfacet
facet normal -0.361973 -0.932189 -0
  outer loop
    vertex 0.0201843117676506 0.01455706182012446 0.02
    vertex 0.0201843117676506 0.01455706182012446 0.009999999999999972
    vertex 0.02568389031265772 0.01242155407680487 0.01411181439812005
  endloop
endfacet
facet normal -0.361973 -0.932189 -7.157e-16
  outer loop
    vertex 0.02686535505185641 0.0119627867224758 0.0070267833897447
    vertex 0.02955652138790833 0.01091779636509335 0
    vertex 0.03369606800264881 0.009310394311051177 0.005589482173531956
  endloop
endfacet
facet normal -0.361973 -0.932189 6.2543e-16
  outer loop
    vertex 0.02955652138790833 0.01091779636509335 0.02
    vertex 0.02568389031265772 0.01242155407680487 0.01411181439812005
    vertex 0.03188702707262239 0.01001285194165648 0.01245940376681622
  endloop
endfacet
facet normal -0.361973 -0.932189 6.23463e-17
  outer loop
    vertex 0.03188702707262239 0.01001285194165648 0.01245940376681622
    vertex 0.02686535505185641 0.0119627867224758 0.0070267833897447
    vertex 0.03369606800264881 0.009310394311051177 0.005589482173531956
  endloop
endfacet
facet normal -0.361973 -0.932189 0
  outer loop
    vertex 0.03188702707262239 0.01001285194165648 0.01245940376681622
    vertex 0.02568389031265772 0.01242155407680487 0.01411181439812005
    vertex 0.02686535505185641 0.0119627867224758 0.0070267833897447
  endloop
endfacet
facet normal -0.361973 -0.932189 2.51653e-16
  outer loop
    vertex 0.03892873100816606 0.007278530910062232 0.01000000000000003
    vertex 0.03188702707262239 0.01001285194165648 0.01245940376681622
    vertex 0.03369606800264881 0.009310394311051177 0.005589482173531956
  endloop
endfacet
facet normal -0.361973 -0.932189 -1.26126e-16
  outer loop
    vertex 0.02568389031265772 0.01242155407680487 0.01411181439812005
    vertex 0.0201843117676506 0.01455706182012446 0.009999999999999972
    vertex 0.02686535505185641 0.0119627867224758 0.0070267833897447
  endloop
endfacet
endsolid Created by Gmsh
