solid Created by Gmsh
facet normal 1 0 0
  outer loop
    vertex 0.04 0.06 0.02
    vertex 0.04 0.05529243225798043 0.015
    vertex 0.04 0.06 0.009999999999999972
  endloop
endfacet
facet normal 1 0 0
  outer loop
    vertex 0.04 0.04654980645137265 0
    vertex 0.04 0.05125737419339223 0.004999999999999999
    vertex 0.04 0.04654980645137265 0.01000000000000003
  endloop
endfacet
facet normal 1 0 0
  outer loop
    vertex 0.04 0.04654980645137265 0.01000000000000003
    vertex 0.04 0.05098837032241968 0.015
    vertex 0.04 0.04654980645137265 0.02
  endloop
endfacet
facet normal 1 0 0
  outer loop
    vertex 0.04 0.06 0.009999999999999972
    vertex 0.04 0.05556143612895298 0.004999999999999991
    vertex 0.04 0.06 0
  endloop
endfacet
facet normal 1 -0 0
  outer loop
    vertex 0.04 0.05327490322568632 0.02
    vertex 0.04 0.05529243225798043 0.015
    vertex 0.04 0.06 0.02
  endloop
endfacet
facet normal 1 0 0
  outer loop
    vertex 0.04 0.05327490322568632 0
    vertex 0.04 0.05125737419339223 0.004999999999999999
    vertex 0.04 0.04654980645137265 0
  endloop
endfacet
facet normal 1 0 0
  outer loop
    vertex 0.04 0.06 0
    vertex 0.04 0.05556143612895298 0.004999999999999991
    vertex 0.04 0.05327490322568632 0
  endloop
endfacet
facet normal 1 -0 0
  outer loop
    vertex 0.04 0.04654980645137265 0.02
    vertex 0.04 0.05098837032241968 0.015
    vertex 0.04 0.05327490322568632 0.02
  endloop
endfacet
facet normal 1 0 0
  outer loop
    vertex 0.04 0.05327490322568632 0.02
    vertex 0.04 0.05098837032241968 0.015
    vertex 0.04 0.05529243225798043 0.015
  endloop
endfacet
facet normal 1 0 -0
  outer loop
    vertex 0.04 0.05327490322568632 0
    vertex 0.04 0.05556143612895298 0.004999999999999991
    vertex 0.04 0.05125737419339223 0.004999999999999999
  endloop
endfacet
facet normal 1 0 0
  outer loop
    vertex 0.04 0.05098837032241968 0.015
    vertex 0.04 0.05327490322568632 0.009999999999999998
    vertex 0.04 0.05529243225798043 0.015
  endloop
endfacet
facet normal 1 0 0
  outer loop
    vertex 0.04 0.05556143612895298 0.004999999999999991
    vertex 0.04 0.05327490322568632 0.009999999999999998
    vertex 0.04 0.05125737419339223 0.004999999999999999
  endloop
endfacet
facet normal 1 -0 0
  outer loop
    vertex 0.04 0.04654980645137265 0.01000000000000003
    vertex 0.04 0.05327490322568632 0.009999999999999998
    vertex 0.04 0.05098837032241968 0.015
  endloop
endfacet
facet normal 1 0 -0
  outer loop
    vertex 0.04 0.05125737419339223 0.004999999999999999
    vertex 0.04 0.05327490322568632 0.009999999999999998
    vertex 0.04 0.04654980645137265 0.01000000000000003
  endloop
endfacet
facet normal 1 0 0
  outer loop
    vertex 0.04 0.05529243225798043 0.015
    vertex 0.04 0.05327490322568632 0.009999999999999998
    vertex 0.04 0.06 0.009999999999999972
  endloop
endfacet
facet normal 1 0 0
  outer loop
    vertex 0.04 0.06 0.009999999999999972
    vertex 0.04 0.05327490322568632 0.009999999999999998
    vertex 0.04 0.05556143612895298 0.004999999999999991
  endloop
endfacet
facet normal 0.715699 0.698408 -0
  outer loop
    vertex 0.04567814794585728 0.04073108064495107 0
    vertex 0.04283907397292864 0.04364044354816185 0.005000000000000004
    vertex 0.04567814794585728 0.04073108064495107 0.01000000000000003
  endloop
endfacet
facet normal 0.715699 0.698408 0
  outer loop
    vertex 0.04 0.04654980645137265 0.02
    vertex 0.04283907397292863 0.04364044354816186 0.015
    vertex 0.04 0.04654980645137265 0.009999999999999972
  endloop
endfacet
facet normal 0.715699 0.698408 -0
  outer loop
    vertex 0.04567814794585728 0.04073108064495107 0.01000000000000003
    vertex 0.04283907397292863 0.04364044354816186 0.015
    vertex 0.04567814794585728 0.04073108064495107 0.02
  endloop
endfacet
facet normal 0.715699 0.698408 0
  outer loop
    vertex 0.04 0.04654980645137265 0.009999999999999972
    vertex 0.04283907397292864 0.04364044354816185 0.005000000000000004
    vertex 0.04 0.04654980645137265 0
  endloop
endfacet
facet normal 0.715699 0.698408 1.00017e-15
  outer loop
    vertex 0.04 0.04654980645137265 0
    vertex 0.04283907397292864 0.04364044354816185 0.005000000000000004
    vertex 0.04567814794585728 0.04073108064495107 0
  endloop
endfacet
facet normal 0.715699 0.698408 -1.00017e-15
  outer loop
    vertex 0.04567814794585728 0.04073108064495107 0.02
    vertex 0.04283907397292863 0.04364044354816186 0.015
    vertex 0.04 0.04654980645137265 0.02
  endloop
endfacet
facet normal 0.715699 0.698408 1.00017e-15
  outer loop
    vertex 0.04 0.04654980645137265 0.009999999999999972
    vertex 0.04283907397292863 0.04364044354816186 0.015
    vertex 0.04567814794585728 0.04073108064495107 0.01000000000000003
  endloop
endfacet
facet normal 0.715699 0.698408 -1.00017e-15
  outer loop
    vertex 0.04567814794585728 0.04073108064495107 0.01000000000000003
    vertex 0.04283907397292864 0.04364044354816185 0.005000000000000004
    vertex 0.04 0.04654980645137265 0.009999999999999972
  endloop
endfacet
facet normal 0.259088 -0.965854 2.54369e-16
  outer loop
    vertex 0.03483231914018693 0.03782171774174029 0
    vertex 0.0313848315860011 0.03689693895543072 0.01008238869930259
    vertex 0.02398649033451655 0.03491235483852949 0
  endloop
endfacet
facet normal 0.259088 -0.965854 0
  outer loop
    vertex 0.02398649033451655 0.03491235483852949 0.01000000000000003
    vertex 0.0313848315860011 0.03689693895543072 0.01008238869930259
    vertex 0.02398649033451655 0.03491235483852949 0.02
  endloop
endfacet
facet normal 0.259088 -0.965854 -6.69306e-16
  outer loop
    vertex 0.02398649033451655 0.03491235483852949 0.02
    vertex 0.0313848315860011 0.03689693895543072 0.01008238869930259
    vertex 0.0348323191401869 0.03782171774174027 0.02
  endloop
endfacet
facet normal 0.259088 -0.965854 1.58104e-16
  outer loop
    vertex 0.03483231914018693 0.03782171774174029 0
    vertex 0.03918136801620621 0.03898833780285779 0.006793258972715071
    vertex 0.0313848315860011 0.03689693895543072 0.01008238869930259
  endloop
endfacet
facet normal 0.259088 -0.965854 3.99736e-16
  outer loop
    vertex 0.04567814794585728 0.04073108064495107 0
    vertex 0.03918136801620621 0.03898833780285779 0.006793258972715071
    vertex 0.03483231914018693 0.03782171774174029 0
  endloop
endfacet
facet normal 0.259088 -0.965854 0
  outer loop
    vertex 0.04567814794585728 0.04073108064495107 0.009999999999999972
    vertex 0.03918136801620621 0.03898833780285779 0.006793258972715071
    vertex 0.04567814794585728 0.04073108064495107 0
  endloop
endfacet
facet normal 0.259088 -0.965854 -7.88103e-16
  outer loop
    vertex 0.0348323191401869 0.03782171774174027 0.02
    vertex 0.03944329414062769 0.03905859874496072 0.0136830176805333
    vertex 0.04567814794585728 0.04073108064495107 0.02
  endloop
endfacet
facet normal 0.259088 -0.965854 0
  outer loop
    vertex 0.04567814794585728 0.04073108064495107 0.02
    vertex 0.03944329414062769 0.03905859874496072 0.0136830176805333
    vertex 0.04567814794585728 0.04073108064495107 0.009999999999999972
  endloop
endfacet
facet normal 0.259088 -0.965854 -1.79878e-16
  outer loop
    vertex 0.0313848315860011 0.03689693895543072 0.01008238869930259
    vertex 0.03918136801620621 0.03898833780285779 0.006793258972715071
    vertex 0.03944329414062769 0.03905859874496072 0.0136830176805333
  endloop
endfacet
facet normal 0.259088 -0.965854 -8.48315e-16
  outer loop
    vertex 0.0348323191401869 0.03782171774174027 0.02
    vertex 0.0313848315860011 0.03689693895543072 0.01008238869930259
    vertex 0.03944329414062769 0.03905859874496072 0.0136830176805333
  endloop
endfacet
facet normal 0.259088 -0.965854 -1.32715e-16
  outer loop
    vertex 0.03944329414062769 0.03905859874496072 0.0136830176805333
    vertex 0.03918136801620621 0.03898833780285779 0.006793258972715071
    vertex 0.04567814794585728 0.04073108064495107 0.009999999999999972
  endloop
endfacet
facet normal 0.259088 -0.965854 0
  outer loop
    vertex 0.02398649033451655 0.03491235483852949 0
    vertex 0.0313848315860011 0.03689693895543072 0.01008238869930259
    vertex 0.02398649033451655 0.03491235483852949 0.01000000000000003
  endloop
endfacet
facet normal 0.435535 0.900172 -0
  outer loop
    vertex 0.036012749783232 0.0290936290321079 0
    vertex 0.03180355897618159 0.03113018306435545 0.005000000000000005
    vertex 0.036012749783232 0.0290936290321079 0.01000000000000003
  endloop
endfacet
facet normal 0.435535 0.900172 0
  outer loop
    vertex 0.02398649033451655 0.03491235483852949 0.02
    vertex 0.02819568114156696 0.03287580080628193 0.015
    vertex 0.02398649033451655 0.03491235483852949 0.009999999999999972
  endloop
endfacet
facet normal 0.435535 0.900172 0
  outer loop
    vertex 0.02398649033451655 0.03491235483852949 0.009999999999999972
    vertex 0.02795515595259265 0.03299217532241036 0.004999999999999998
    vertex 0.02398649033451655 0.03491235483852949 0
  endloop
endfacet
facet normal 0.435535 0.900172 -0
  outer loop
    vertex 0.036012749783232 0.0290936290321079 0.01000000000000003
    vertex 0.0320440841651559 0.03101380854822702 0.01500000000000001
    vertex 0.036012749783232 0.0290936290321079 0.02
  endloop
endfacet
facet normal 0.435535 0.900172 4.31126e-16
  outer loop
    vertex 0.02999962005887426 0.0320029919353187 0
    vertex 0.03180355897618159 0.03113018306435545 0.005000000000000005
    vertex 0.036012749783232 0.0290936290321079 0
  endloop
endfacet
facet normal 0.435535 0.900172 -8.62252e-16
  outer loop
    vertex 0.02999962005887428 0.03200299193531869 0.02
    vertex 0.02819568114156696 0.03287580080628193 0.015
    vertex 0.02398649033451655 0.03491235483852949 0.02
  endloop
endfacet
facet normal 0.435535 0.900172 -8.11531e-16
  outer loop
    vertex 0.036012749783232 0.0290936290321079 0.02
    vertex 0.0320440841651559 0.03101380854822702 0.01500000000000001
    vertex 0.02999962005887428 0.03200299193531869 0.02
  endloop
endfacet
facet normal 0.435535 0.900172 4.56486e-16
  outer loop
    vertex 0.02398649033451655 0.03491235483852949 0
    vertex 0.02795515595259265 0.03299217532241036 0.004999999999999998
    vertex 0.02999962005887426 0.0320029919353187 0
  endloop
endfacet
facet normal 0.435535 0.900172 3.46723e-16
  outer loop
    vertex 0.02999962005887426 0.0320029919353187 0
    vertex 0.02795515595259265 0.03299217532241036 0.004999999999999998
    vertex 0.03180355897618159 0.03113018306435545 0.005000000000000005
  endloop
endfacet
facet normal 0.435535 0.900172 -9.312e-16
  outer loop
    vertex 0.02999962005887428 0.03200299193531869 0.02
    vertex 0.0320440841651559 0.03101380854822702 0.01500000000000001
    vertex 0.02819568114156696 0.03287580080628193 0.015
  endloop
endfacet
facet normal 0.435535 0.900172 -3.17004e-16
  outer loop
    vertex 0.02795515595259265 0.03299217532241036 0.004999999999999998
    vertex 0.02999962005887427 0.03200299193531869 0.01
    vertex 0.03180355897618159 0.03113018306435545 0.005000000000000005
  endloop
endfacet
facet normal 0.435535 0.900172 3.17004e-16
  outer loop
    vertex 0.0320440841651559 0.03101380854822702 0.01500000000000001
    vertex 0.02999962005887427 0.03200299193531869 0.01
    vertex 0.02819568114156696 0.03287580080628193 0.015
  endloop
endfacet
facet normal 0.435535 0.900172 4.18446e-16
  outer loop
    vertex 0.02819568114156696 0.03287580080628193 0.015
    vertex 0.02999962005887427 0.03200299193531869 0.01
    vertex 0.02398649033451655 0.03491235483852949 0.009999999999999972
  endloop
endfacet
facet normal 0.435535 0.900172 -4.05766e-16
  outer loop
    vertex 0.02398649033451655 0.03491235483852949 0.009999999999999972
    vertex 0.02999962005887427 0.03200299193531869 0.01
    vertex 0.02795515595259265 0.03299217532241036 0.004999999999999998
  endloop
endfacet
facet normal 0.435535 0.900172 -4.05766e-16
  outer loop
    vertex 0.03180355897618159 0.03113018306435545 0.005000000000000005
    vertex 0.02999962005887427 0.03200299193531869 0.01
    vertex 0.036012749783232 0.0290936290321079 0.01000000000000003
  endloop
endfacet
facet normal 0.435535 0.900172 4.05766e-16
  outer loop
    vertex 0.036012749783232 0.0290936290321079 0.01000000000000003
    vertex 0.02999962005887427 0.03200299193531869 0.01
    vertex 0.0320440841651559 0.03101380854822702 0.01500000000000001
  endloop
endfacet
facet normal 0.446147 -0.89496 1.5587e-16
  outer loop
    vertex 0.036012749783232 0.0290936290321079 0.009999999999999972
    vertex 0.02434053420426823 0.02327490322568632 0.01000000000000003
    vertex 0.03017664199375011 0.02618426612889711 0
  endloop
endfacet
facet normal 0.446147 -0.89496 1.5587e-16
  outer loop
    vertex 0.03017664199375012 0.02618426612889712 0.02
    vertex 0.02434053420426823 0.02327490322568632 0.01000000000000003
    vertex 0.036012749783232 0.0290936290321079 0.009999999999999972
  endloop
endfacet
facet normal 0.446147 -0.89496 0
  outer loop
    vertex 0.03017664199375011 0.02618426612889711 0
    vertex 0.036012749783232 0.0290936290321079 0
    vertex 0.036012749783232 0.0290936290321079 0.009999999999999972
  endloop
endfacet
facet normal 0.446147 -0.89496 0
  outer loop
    vertex 0.036012749783232 0.0290936290321079 0.009999999999999972
    vertex 0.036012749783232 0.0290936290321079 0.02
    vertex 0.03017664199375012 0.02618426612889712 0.02
  endloop
endfacet
facet normal 0.446147 -0.89496 0
  outer loop
    vertex 0.03017664199375011 0.02618426612889711 0
    vertex 0.02434053420426823 0.02327490322568632 0.01000000000000003
    vertex 0.02434053420426823 0.02327490322568632 0
  endloop
endfacet
facet normal 0.446147 -0.89496 0
  outer loop
    vertex 0.02434053420426823 0.02327490322568632 0.02
    vertex 0.02434053420426823 0.02327490322568632 0.01000000000000003
    vertex 0.03017664199375012 0.02618426612889712 0.02
  endloop
endfacet
facet normal 0.987317 0.15876 -6.89875e-16
  outer loop
    vertex 0.02527617988502272 0.01745617741926474 0.01000000000000003
    vertex 0.02480835704464547 0.02036554032247553 0.005
    vertex 0.02434053420426823 0.02327490322568632 0.009999999999999972
  endloop
endfacet
facet normal 0.987317 0.15876 -6.89875e-16
  outer loop
    vertex 0.02527617988502272 0.01745617741926474 0.02
    vertex 0.02480835704464547 0.02036554032247553 0.015
    vertex 0.02434053420426823 0.02327490322568632 0.02
  endloop
endfacet
facet normal 0.987317 0.15876 6.89875e-16
  outer loop
    vertex 0.02434053420426823 0.02327490322568632 0
    vertex 0.02480835704464547 0.02036554032247553 0.005
    vertex 0.02527617988502272 0.01745617741926474 0
  endloop
endfacet
facet normal 0.987317 0.15876 6.89875e-16
  outer loop
    vertex 0.02434053420426823 0.02327490322568632 0.009999999999999972
    vertex 0.02480835704464547 0.02036554032247553 0.015
    vertex 0.02527617988502272 0.01745617741926474 0.01000000000000003
  endloop
endfacet
facet normal 0.987317 0.15876 0
  outer loop
    vertex 0.02434053420426823 0.02327490322568632 0.009999999999999972
    vertex 0.02480835704464547 0.02036554032247553 0.005
    vertex 0.02434053420426823 0.02327490322568632 0
  endloop
endfacet
facet normal 0.987317 0.15876 0
  outer loop
    vertex 0.02434053420426823 0.02327490322568632 0.02
    vertex 0.02480835704464547 0.02036554032247553 0.015
    vertex 0.02434053420426823 0.02327490322568632 0.009999999999999972
  endloop
endfacet
facet normal 0.987317 0.15876 -0
  outer loop
    vertex 0.02527617988502272 0.01745617741926474 0
    vertex 0.02480835704464547 0.02036554032247553 0.005
    vertex 0.02527617988502272 0.01745617741926474 0.01000000000000003
  endloop
endfacet
facet normal 0.987317 0.15876 -0
  outer loop
    vertex 0.02527617988502272 0.01745617741926474 0.01000000000000003
    vertex 0.02480835704464547 0.02036554032247553 0.015
    vertex 0.02527617988502272 0.01745617741926474 0.02
  endloop
endfacet
facet normal 0.456216 0.889869 0
  outer loop
    vertex 0.03095101343143875 0.01454681451605395 0
    vertex 0.02527617988502272 0.01745617741926474 0.009999999999999972
    vertex 0.03662584697785477 0.01163745161284316 0.01000000000000003
  endloop
endfacet
facet normal 0.456216 0.889869 0
  outer loop
    vertex 0.03662584697785477 0.01163745161284316 0.01000000000000003
    vertex 0.02527617988502272 0.01745617741926474 0.009999999999999972
    vertex 0.03095101343143875 0.01454681451605395 0.02
  endloop
endfacet
facet normal 0.456216 0.889869 0
  outer loop
    vertex 0.03095101343143875 0.01454681451605395 0
    vertex 0.02527617988502272 0.01745617741926474 0
    vertex 0.02527617988502272 0.01745617741926474 0.009999999999999972
  endloop
endfacet
facet normal 0.456216 0.889869 0
  outer loop
    vertex 0.03095101343143875 0.01454681451605395 0.02
    vertex 0.02527617988502272 0.01745617741926474 0.009999999999999972
    vertex 0.02527617988502272 0.01745617741926474 0.02
  endloop
endfacet
facet normal 0.456216 0.889869 -0
  outer loop
    vertex 0.03662584697785477 0.01163745161284316 0
    vertex 0.03095101343143875 0.01454681451605395 0
    vertex 0.03662584697785477 0.01163745161284316 0.01000000000000003
  endloop
endfacet
facet normal 0.456216 0.889869 -0
  outer loop
    vertex 0.03662584697785477 0.01163745161284316 0.01000000000000003
    vertex 0.03095101343143875 0.01454681451605395 0.02
    vertex 0.03662584697785477 0.01163745161284316 0.02
  endloop
endfacet
facet normal 0.538882 -0.842381 -1.14237e-16
  outer loop
    vertex 0.02753001497552469 0.005818725806421579 0.02
    vertex 0.03207793097668975 0.008728088709632381 0.0145064877347891
    vertex 0.03662584697785477 0.01163745161284316 0.02
  endloop
endfacet
facet normal 0.538882 -0.842381 1.70514e-16
  outer loop
    vertex 0.03662584697785477 0.01163745161284316 0
    vertex 0.03207793097668973 0.008728088709632372 0.005520616409829228
    vertex 0.02753001497552469 0.005818725806421579 0
  endloop
endfacet
facet normal 0.538882 -0.842381 0
  outer loop
    vertex 0.02753001497552469 0.005818725806421579 0
    vertex 0.03207793097668973 0.008728088709632372 0.005520616409829228
    vertex 0.02753001497552469 0.005818725806421579 0.01000000000000003
  endloop
endfacet
facet normal 0.538882 -0.842381 0
  outer loop
    vertex 0.03662584697785477 0.01163745161284316 0.02
    vertex 0.03207793097668975 0.008728088709632381 0.0145064877347891
    vertex 0.03662584697785477 0.01163745161284316 0.009999999999999972
  endloop
endfacet
facet normal 0.538882 -0.842381 -1.91418e-17
  outer loop
    vertex 0.03207793097668973 0.008728088709632372 0.005520616409829228
    vertex 0.03207793097668975 0.008728088709632381 0.0145064877347891
    vertex 0.02753001497552469 0.005818725806421579 0.01000000000000003
  endloop
endfacet
facet normal 0.538882 -0.842381 0
  outer loop
    vertex 0.03662584697785477 0.01163745161284316 0.009999999999999972
    vertex 0.03207793097668975 0.008728088709632381 0.0145064877347891
    vertex 0.03207793097668973 0.008728088709632372 0.005520616409829228
  endloop
endfacet
facet normal 0.538882 -0.842381 0
  outer loop
    vertex 0.02753001497552469 0.005818725806421579 0.01000000000000003
    vertex 0.03207793097668975 0.008728088709632381 0.0145064877347891
    vertex 0.02753001497552469 0.005818725806421579 0.02
  endloop
endfacet
facet normal 0.538882 -0.842381 0
  outer loop
    vertex 0.03662584697785477 0.01163745161284316 0.009999999999999972
    vertex 0.03207793097668973 0.008728088709632372 0.005520616409829228
    vertex 0.03662584697785477 0.01163745161284316 0
  endloop
endfacet
endsolid Created by Gmsh
