solid Created by Gmsh
facet normal 0.997653 -0.0684753 -3.38689e-17
  outer loop
    vertex 0.009329515376131683 0.01937041258539238 0
    vertex 0.00899713653209876 0.01452780943904424 0.01159263163725158
    vertex 0.008664757688065843 0.009685206292696195 0
  endloop
endfacet
facet normal 0.997653 -0.0684753 -1.12896e-17
  outer loop
    vertex 0.009994273064197522 0.02905561887808851 0.02
    vertex 0.01032665190823044 0.03389822202443664 0.008407368362748418
    vertex 0.01065903075226336 0.03874082517078469 0.02
  endloop
endfacet
facet normal 0.997653 -0.0684753 -6.06117e-17
  outer loop
    vertex 0.009994273064197522 0.02905561887808851 0.02
    vertex 0.009661894220164603 0.02421301573174044 0.01
    vertex 0.01032665190823044 0.03389822202443664 0.008407368362748418
  endloop
endfacet
facet normal 0.997653 -0.0684753 -8.28885e-17
  outer loop
    vertex 0.009329515376131681 0.01937041258539233 0.02
    vertex 0.009661894220164603 0.02421301573174044 0.01
    vertex 0.009994273064197522 0.02905561887808851 0.02
  endloop
endfacet
facet normal 0.997653 -0.0684753 5.7531e-17
  outer loop
    vertex 0.00899713653209876 0.01452780943904424 0.01159263163725158
    vertex 0.008440237281226696 0.006414049755215395 0.007335168115625565
    vertex 0.008664757688065843 0.009685206292696195 0
  endloop
endfacet
facet normal 0.997653 -0.0684753 6.3284e-17
  outer loop
    vertex 0.01032665190823044 0.03389822202443664 0.008407368362748418
    vertex 0.01088355115910251 0.04201198170826549 0.01266483188437444
    vertex 0.01065903075226336 0.03874082517078469 0.02
  endloop
endfacet
facet normal 0.997653 -0.0684753 -7.07137e-17
  outer loop
    vertex 0.009329515376131683 0.01937041258539238 0
    vertex 0.009661894220164603 0.02421301573174044 0.01
    vertex 0.00899713653209876 0.01452780943904424 0.01159263163725158
  endloop
endfacet
facet normal 0.997653 -0.0684753 -9.00602e-17
  outer loop
    vertex 0.00899713653209876 0.01452780943904424 0.01159263163725158
    vertex 0.009661894220164603 0.02421301573174044 0.01
    vertex 0.009329515376131681 0.01937041258539233 0.02
  endloop
endfacet
facet normal 0.997653 -0.0684753 -8.28885e-17
  outer loop
    vertex 0.009994273064197524 0.02905561887808856 0
    vertex 0.009661894220164603 0.02421301573174044 0.01
    vertex 0.009329515376131683 0.01937041258539238 0
  endloop
endfacet
facet normal 0.997653 -0.0684753 -1.0428e-16
  outer loop
    vertex 0.01032665190823044 0.03389822202443664 0.008407368362748418
    vertex 0.009661894220164603 0.02421301573174044 0.01
    vertex 0.009994273064197524 0.02905561887808856 0
  endloop
endfacet
facet normal 0.997653 -0.0684753 -1.19346e-16
  outer loop
    vertex 0.01065903075226336 0.03874082517078473 0
    vertex 0.01032665190823044 0.03389822202443664 0.008407368362748418
    vertex 0.009994273064197524 0.02905561887808856 0
  endloop
endfacet
facet normal 0.997653 -0.0684753 -8.82124e-17
  outer loop
    vertex 0.008664757688065841 0.009685206292696161 0.02
    vertex 0.00899713653209876 0.01452780943904424 0.01159263163725158
    vertex 0.009329515376131681 0.01937041258539233 0.02
  endloop
endfacet
facet normal 0.997653 -0.0684753 1.01107e-16
  outer loop
    vertex 0.008664757688065843 0.009685206292696195 0
    vertex 0.008440237281226696 0.006414049755215395 0.007335168115625565
    vertex 0.008 0 0
  endloop
endfacet
facet normal 0.997653 -0.0684753 1.01107e-16
  outer loop
    vertex 0.01065903075226336 0.03874082517078469 0.02
    vertex 0.01088355115910251 0.04201198170826549 0.01266483188437444
    vertex 0.0113237884403292 0.04842603146348089 0.02
  endloop
endfacet
facet normal 0.997653 -0.0684753 0
  outer loop
    vertex 0.008 0 0
    vertex 0.008440237281226696 0.006414049755215395 0.007335168115625565
    vertex 0.008 0 0.01000000000000003
  endloop
endfacet
facet normal 0.997653 -0.0684753 0
  outer loop
    vertex 0.0113237884403292 0.04842603146348089 0.02
    vertex 0.01088355115910251 0.04201198170826549 0.01266483188437444
    vertex 0.0113237884403292 0.04842603146348089 0.009999999999999972
  endloop
endfacet
facet normal 0.997653 -0.0684753 -5.14058e-17
  outer loop
    vertex 0.008664757688065841 0.009685206292696161 0.02
    vertex 0.008392221086064605 0.005714476416111471 0.01416392737308594
    vertex 0.00899713653209876 0.01452780943904424 0.01159263163725158
  endloop
endfacet
facet normal 0.997653 -0.0684753 -8.56763e-17
  outer loop
    vertex 0.01065903075226336 0.03874082517078473 0
    vertex 0.0109315673542646 0.04271155504736941 0.005836072626914061
    vertex 0.01032665190823044 0.03389822202443664 0.008407368362748418
  endloop
endfacet
facet normal 0.997653 -0.0684753 0
  outer loop
    vertex 0.0113237884403292 0.04842603146348089 0.009999999999999972
    vertex 0.0109315673542646 0.04271155504736941 0.005836072626914061
    vertex 0.0113237884403292 0.04842603146348089 0
  endloop
endfacet
facet normal 0.997653 -0.0684753 0
  outer loop
    vertex 0.008 0 0.01000000000000003
    vertex 0.008392221086064605 0.005714476416111471 0.01416392737308594
    vertex 0.008 0 0.02
  endloop
endfacet
facet normal 0.997653 -0.0684753 4.48509e-17
  outer loop
    vertex 0.008 0 0.02
    vertex 0.008392221086064605 0.005714476416111471 0.01416392737308594
    vertex 0.008664757688065841 0.009685206292696161 0.02
  endloop
endfacet
facet normal 0.997653 -0.0684753 7.47515e-18
  outer loop
    vertex 0.0113237884403292 0.04842603146348089 0
    vertex 0.0109315673542646 0.04271155504736941 0.005836072626914061
    vertex 0.01065903075226336 0.03874082517078473 0
  endloop
endfacet
facet normal 0.997653 -0.0684753 -1.59209e-16
  outer loop
    vertex 0.01032665190823044 0.03389822202443664 0.008407368362748418
    vertex 0.0109315673542646 0.04271155504736941 0.005836072626914061
    vertex 0.01088355115910251 0.04201198170826549 0.01266483188437444
  endloop
endfacet
facet normal 0.997653 -0.0684753 -1.88157e-16
  outer loop
    vertex 0.00899713653209876 0.01452780943904424 0.01159263163725158
    vertex 0.008392221086064605 0.005714476416111471 0.01416392737308594
    vertex 0.008440237281226696 0.006414049755215395 0.007335168115625565
  endloop
endfacet
facet normal 0.997653 -0.0684753 -1.61207e-16
  outer loop
    vertex 0.01088355115910251 0.04201198170826549 0.01266483188437444
    vertex 0.0109315673542646 0.04271155504736941 0.005836072626914061
    vertex 0.0113237884403292 0.04842603146348089 0.009999999999999972
  endloop
endfacet
facet normal 0.997653 -0.0684753 -1.97731e-16
  outer loop
    vertex 0.008440237281226696 0.006414049755215395 0.007335168115625565
    vertex 0.008392221086064605 0.005714476416111471 0.01416392737308594
    vertex 0.008 0 0.01000000000000003
  endloop
endfacet
endsolid Created by Gmsh
