solid Created by Gmsh
facet normal -0.649379 0.760465 2.18715e-15
  outer loop
    vertex 0.0303634058829604 0.051625 0.02
    vertex 0.039 0.059 0.02
    vertex 0.03468170294148019 0.05531250000000001 0.01427113702623908
  endloop
endfacet
facet normal -0.649379 0.760465 -1.89224e-15
  outer loop
    vertex 0.039 0.059 0
    vertex 0.0303634058829604 0.051625 0
    vertex 0.03468170294148018 0.05531249999999999 0.005675738850308979
  endloop
endfacet
facet normal -0.649379 0.760465 0
  outer loop
    vertex 0.039 0.059 0.02
    vertex 0.039 0.059 0.009999999999999972
    vertex 0.03468170294148019 0.05531250000000001 0.01427113702623908
  endloop
endfacet
facet normal -0.649379 0.760465 0
  outer loop
    vertex 0.0303634058829604 0.051625 0
    vertex 0.0303634058829604 0.051625 0.01000000000000003
    vertex 0.03468170294148018 0.05531249999999999 0.005675738850308979
  endloop
endfacet
facet normal -0.649379 0.760465 -1.79354e-16
  outer loop
    vertex 0.03468170294148019 0.05531250000000001 0.01427113702623908
    vertex 0.039 0.059 0.009999999999999972
    vertex 0.03468170294148018 0.05531249999999999 0.005675738850308979
  endloop
endfacet
facet normal -0.649379 0.760465 -1.38832e-16
  outer loop
    vertex 0.0303634058829604 0.051625 0.01000000000000003
    vertex 0.03468170294148019 0.05531250000000001 0.01427113702623908
    vertex 0.03468170294148018 0.05531249999999999 0.005675738850308979
  endloop
endfacet
facet normal -0.649379 0.760465 0
  outer loop
    vertex 0.039 0.059 0.009999999999999972
    vertex 0.039 0.059 0
    vertex 0.03468170294148018 0.05531249999999999 0.005675738850308979
  endloop
endfacet
facet normal -0.649379 0.760465 0
  outer loop
    vertex 0.0303634058829604 0.051625 0.01000000000000003
    vertex 0.0303634058829604 0.051625 0.02
    vertex 0.03468170294148019 0.05531250000000001 0.01427113702623908
  endloop
endfacet
facet normal -0.79452 -0.607239 0
  outer loop
    vertex 0.03599999999999999 0.04425 0
    vertex 0.03599999999999999 0.04425 0.01000000000000003
    vertex 0.0331817029414802 0.0479375 0.005
  endloop
endfacet
facet normal -0.79452 -0.607239 -0
  outer loop
    vertex 0.0303634058829604 0.051625 0.02
    vertex 0.0303634058829604 0.051625 0.009999999999999972
    vertex 0.0331817029414802 0.0479375 0.015
  endloop
endfacet
facet normal -0.79452 -0.607239 0
  outer loop
    vertex 0.03599999999999999 0.04425 0.01000000000000003
    vertex 0.03599999999999999 0.04425 0.02
    vertex 0.0331817029414802 0.0479375 0.015
  endloop
endfacet
facet normal -0.79452 -0.607239 -0
  outer loop
    vertex 0.0303634058829604 0.051625 0.009999999999999972
    vertex 0.0303634058829604 0.051625 0
    vertex 0.0331817029414802 0.0479375 0.005
  endloop
endfacet
facet normal -0.79452 -0.607239 1.02202e-15
  outer loop
    vertex 0.0303634058829604 0.051625 0.009999999999999972
    vertex 0.03599999999999999 0.04425 0.01000000000000003
    vertex 0.0331817029414802 0.0479375 0.015
  endloop
endfacet
facet normal -0.79452 -0.607239 1.02202e-15
  outer loop
    vertex 0.0303634058829604 0.051625 0
    vertex 0.03599999999999999 0.04425 0
    vertex 0.0331817029414802 0.0479375 0.005
  endloop
endfacet
facet normal -0.79452 -0.607239 -9.49022e-16
  outer loop
    vertex 0.03599999999999999 0.04425 0.01000000000000003
    vertex 0.0303634058829604 0.051625 0.009999999999999972
    vertex 0.0331817029414802 0.0479375 0.005
  endloop
endfacet
facet normal -0.79452 -0.607239 -9.49022e-16
  outer loop
    vertex 0.03599999999999999 0.04425 0.02
    vertex 0.0303634058829604 0.051625 0.02
    vertex 0.0331817029414802 0.0479375 0.015
  endloop
endfacet
facet normal -0.313075 0.949728 -9.11327e-16
  outer loop
    vertex 0.02481378128401992 0.0405625 0
    vertex 0.01362756256803983 0.036875 0
    vertex 0.02240758499904957 0.03976930535343434 0.01104765704705964
  endloop
endfacet
facet normal -0.313075 0.949728 0
  outer loop
    vertex 0.01362756256803983 0.036875 0.01000000000000003
    vertex 0.01362756256803983 0.036875 0.02
    vertex 0.02240758499904957 0.03976930535343434 0.01104765704705964
  endloop
endfacet
facet normal -0.313075 0.949728 1.34955e-15
  outer loop
    vertex 0.01362756256803983 0.036875 0.02
    vertex 0.0248137812840199 0.04056249999999999 0.02
    vertex 0.02240758499904957 0.03976930535343434 0.01104765704705964
  endloop
endfacet
facet normal -0.313075 0.949728 -1.64358e-15
  outer loop
    vertex 0.03599999999999999 0.04425 0
    vertex 0.02481378128401992 0.0405625 0
    vertex 0.02918381637913072 0.04200306761470262 0.007175791087013599
  endloop
endfacet
facet normal -0.313075 0.949728 1.67907e-15
  outer loop
    vertex 0.0248137812840199 0.04056249999999999 0.02
    vertex 0.03599999999999999 0.04425 0.02
    vertex 0.02963962452633432 0.04215332326278969 0.01366116115320545
  endloop
endfacet
facet normal -0.313075 0.949728 0
  outer loop
    vertex 0.03599999999999999 0.04425 0.009999999999999972
    vertex 0.03599999999999999 0.04425 0
    vertex 0.02918381637913072 0.04200306761470262 0.007175791087013599
  endloop
endfacet
facet normal -0.313075 0.949728 -1.06164e-15
  outer loop
    vertex 0.02481378128401992 0.0405625 0
    vertex 0.02240758499904957 0.03976930535343434 0.01104765704705964
    vertex 0.02918381637913072 0.04200306761470262 0.007175791087013599
  endloop
endfacet
facet normal -0.313075 0.949728 0
  outer loop
    vertex 0.03599999999999999 0.04425 0.02
    vertex 0.03599999999999999 0.04425 0.009999999999999972
    vertex 0.02963962452633432 0.04215332326278969 0.01366116115320545
  endloop
endfacet
facet normal -0.313075 0.949728 1.45876e-15
  outer loop
    vertex 0.0248137812840199 0.04056249999999999 0.02
    vertex 0.02963962452633432 0.04215332326278969 0.01366116115320545
    vertex 0.02240758499904957 0.03976930535343434 0.01104765704705964
  endloop
endfacet
facet normal -0.313075 0.949728 2.81577e-16
  outer loop
    vertex 0.02240758499904957 0.03976930535343434 0.01104765704705964
    vertex 0.02963962452633432 0.04215332326278969 0.01366116115320545
    vertex 0.02918381637913072 0.04200306761470262 0.007175791087013599
  endloop
endfacet
facet normal -0.313075 0.949728 2.15554e-16
  outer loop
    vertex 0.02963962452633432 0.04215332326278969 0.01366116115320545
    vertex 0.03599999999999999 0.04425 0.009999999999999972
    vertex 0.02918381637913072 0.04200306761470262 0.007175791087013599
  endloop
endfacet
facet normal -0.313075 0.949728 0
  outer loop
    vertex 0.01362756256803983 0.036875 0
    vertex 0.01362756256803983 0.036875 0.01000000000000003
    vertex 0.02240758499904957 0.03976930535343434 0.01104765704705964
  endloop
endfacet
facet normal -0.511779 -0.859117 -9.98823e-16
  outer loop
    vertex 0.02600789446319629 0.0295 0.02
    vertex 0.01981772851561808 0.03318749999999999 0.02
    vertex 0.01969139859832055 0.03326275510204083 0.01246745483769647
  endloop
endfacet
facet normal -0.511779 -0.859117 -9.92971e-16
  outer loop
    vertex 0.01981772851561808 0.03318749999999999 0.02
    vertex 0.01362756256803983 0.036875 0.02
    vertex 0.01969139859832055 0.03326275510204083 0.01246745483769647
  endloop
endfacet
facet normal -0.511779 -0.859117 0
  outer loop
    vertex 0.02600789446319629 0.0295 0.01000000000000003
    vertex 0.02600789446319629 0.0295 0.02
    vertex 0.01969139859832055 0.03326275510204083 0.01246745483769647
  endloop
endfacet
facet normal -0.511779 -0.859117 -0
  outer loop
    vertex 0.01362756256803983 0.036875 0.02
    vertex 0.01362756256803983 0.036875 0.009999999999999972
    vertex 0.01969139859832055 0.03326275510204083 0.01246745483769647
  endloop
endfacet
facet normal -0.511779 -0.859117 0
  outer loop
    vertex 0.02600789446319629 0.0295 0
    vertex 0.02600789446319629 0.0295 0.01000000000000003
    vertex 0.02167477829989153 0.03208125000000001 0.005278737160628362
  endloop
endfacet
facet normal -0.511779 -0.859117 -0
  outer loop
    vertex 0.01362756256803983 0.036875 0.009999999999999972
    vertex 0.01362756256803983 0.036875 0
    vertex 0.01741204594765253 0.03462057215743441 0.005392313142617825
  endloop
endfacet
facet normal -0.511779 -0.859117 6.0129e-16
  outer loop
    vertex 0.01981772851561805 0.03318750000000001 0
    vertex 0.02600789446319629 0.0295 0
    vertex 0.02167477829989153 0.03208125000000001 0.005278737160628362
  endloop
endfacet
facet normal -0.511779 -0.859117 9.59242e-16
  outer loop
    vertex 0.01362756256803983 0.036875 0
    vertex 0.01981772851561805 0.03318750000000001 0
    vertex 0.01741204594765253 0.03462057215743441 0.005392313142617825
  endloop
endfacet
facet normal -0.511779 -0.859117 6.69847e-16
  outer loop
    vertex 0.02167477829989153 0.03208125000000001 0.005278737160628362
    vertex 0.01969139859832055 0.03326275510204083 0.01246745483769647
    vertex 0.01741204594765253 0.03462057215743441 0.005392313142617825
  endloop
endfacet
facet normal -0.511779 -0.859117 5.76707e-16
  outer loop
    vertex 0.01981772851561805 0.03318750000000001 0
    vertex 0.02167477829989153 0.03208125000000001 0.005278737160628362
    vertex 0.01741204594765253 0.03462057215743441 0.005392313142617825
  endloop
endfacet
facet normal -0.511779 -0.859117 0
  outer loop
    vertex 0.01969139859832055 0.03326275510204083 0.01246745483769647
    vertex 0.01362756256803983 0.036875 0.009999999999999972
    vertex 0.01741204594765253 0.03462057215743441 0.005392313142617825
  endloop
endfacet
facet normal -0.511779 -0.859117 3.41276e-16
  outer loop
    vertex 0.02167477829989153 0.03208125000000001 0.005278737160628362
    vertex 0.02600789446319629 0.0295 0.01000000000000003
    vertex 0.01969139859832055 0.03326275510204083 0.01246745483769647
  endloop
endfacet
facet normal -0.999614 -0.0277807 -6.94586e-16
  outer loop
    vertex 0.02621285634471488 0.022125 0.01000000000000003
    vertex 0.02600789446319629 0.0295 0.009999999999999972
    vertex 0.02611037540395559 0.0258125 0.005000000000000001
  endloop
endfacet
facet normal -0.999614 -0.0277807 6.94586e-16
  outer loop
    vertex 0.02600789446319629 0.0295 0.009999999999999972
    vertex 0.02621285634471488 0.022125 0.01000000000000003
    vertex 0.02611037540395559 0.0258125 0.015
  endloop
endfacet
facet normal -0.999614 -0.0277807 6.94586e-16
  outer loop
    vertex 0.02600789446319629 0.0295 0
    vertex 0.02621285634471488 0.022125 0
    vertex 0.02611037540395559 0.0258125 0.005000000000000001
  endloop
endfacet
facet normal -0.999614 -0.0277807 -6.94586e-16
  outer loop
    vertex 0.02621285634471488 0.022125 0.02
    vertex 0.02600789446319629 0.0295 0.02
    vertex 0.02611037540395559 0.0258125 0.015
  endloop
endfacet
facet normal -0.999614 -0.0277807 -0
  outer loop
    vertex 0.02600789446319629 0.0295 0.009999999999999972
    vertex 0.02600789446319629 0.0295 0
    vertex 0.02611037540395559 0.0258125 0.005000000000000001
  endloop
endfacet
facet normal -0.999614 -0.0277807 -0
  outer loop
    vertex 0.02600789446319629 0.0295 0.02
    vertex 0.02600789446319629 0.0295 0.009999999999999972
    vertex 0.02611037540395559 0.0258125 0.015
  endloop
endfacet
facet normal -0.999614 -0.0277807 0
  outer loop
    vertex 0.02621285634471488 0.022125 0
    vertex 0.02621285634471488 0.022125 0.01000000000000003
    vertex 0.02611037540395559 0.0258125 0.005000000000000001
  endloop
endfacet
facet normal -0.999614 -0.0277807 0
  outer loop
    vertex 0.02621285634471488 0.022125 0.01000000000000003
    vertex 0.02621285634471488 0.022125 0.02
    vertex 0.02611037540395559 0.0258125 0.015
  endloop
endfacet
facet normal -0.88479 -0.465989 -0
  outer loop
    vertex 0.02621285634471488 0.022125 0.02
    vertex 0.02621285634471488 0.022125 0.009999999999999972
    vertex 0.02815493743705676 0.0184375 0.015
  endloop
endfacet
facet normal -0.88479 -0.465989 0
  outer loop
    vertex 0.03009701852939865 0.01475 0
    vertex 0.03009701852939865 0.01475 0.01000000000000003
    vertex 0.02815493743705676 0.0184375 0.005000000000000001
  endloop
endfacet
facet normal -0.88479 -0.465989 -0
  outer loop
    vertex 0.02621285634471488 0.022125 0.009999999999999972
    vertex 0.02621285634471488 0.022125 0
    vertex 0.02815493743705676 0.0184375 0.005000000000000001
  endloop
endfacet
facet normal -0.88479 -0.465989 0
  outer loop
    vertex 0.03009701852939865 0.01475 0.01000000000000003
    vertex 0.03009701852939865 0.01475 0.02
    vertex 0.02815493743705676 0.0184375 0.015
  endloop
endfacet
facet normal -0.88479 -0.465989 -2.84536e-16
  outer loop
    vertex 0.02621285634471488 0.022125 0.009999999999999972
    vertex 0.03009701852939865 0.01475 0.01000000000000003
    vertex 0.02815493743705676 0.0184375 0.015
  endloop
endfacet
facet normal -0.88479 -0.465989 3.25184e-16
  outer loop
    vertex 0.03009701852939865 0.01475 0.01000000000000003
    vertex 0.02621285634471488 0.022125 0.009999999999999972
    vertex 0.02815493743705676 0.0184375 0.005000000000000001
  endloop
endfacet
facet normal -0.88479 -0.465989 3.25184e-16
  outer loop
    vertex 0.03009701852939865 0.01475 0.02
    vertex 0.02621285634471488 0.022125 0.02
    vertex 0.02815493743705676 0.0184375 0.015
  endloop
endfacet
facet normal -0.88479 -0.465989 -2.84536e-16
  outer loop
    vertex 0.02621285634471488 0.022125 0
    vertex 0.03009701852939865 0.01475 0
    vertex 0.02815493743705676 0.0184375 0.005000000000000001
  endloop
endfacet
facet normal -0.957397 -0.288774 0
  outer loop
    vertex 0.03232149779245579 0.007375 0
    vertex 0.03232149779245579 0.007375 0.01000000000000003
    vertex 0.03120925816092721 0.0110625 0.005000000000000001
  endloop
endfacet
facet normal -0.957397 -0.288774 -0
  outer loop
    vertex 0.03009701852939865 0.01475 0.02
    vertex 0.03009701852939865 0.01475 0.009999999999999972
    vertex 0.03120925816092721 0.0110625 0.015
  endloop
endfacet
facet normal -0.957397 -0.288774 0
  outer loop
    vertex 0.03232149779245579 0.007375 0.01000000000000003
    vertex 0.03232149779245579 0.007375 0.02
    vertex 0.03120925816092721 0.0110625 0.015
  endloop
endfacet
facet normal -0.957397 -0.288774 -0
  outer loop
    vertex 0.03009701852939865 0.01475 0.009999999999999972
    vertex 0.03009701852939865 0.01475 0
    vertex 0.03120925816092721 0.0110625 0.005000000000000001
  endloop
endfacet
facet normal -0.957397 -0.288774 -7.47721e-16
  outer loop
    vertex 0.03009701852939865 0.01475 0
    vertex 0.03232149779245579 0.007375 0
    vertex 0.03120925816092721 0.0110625 0.005000000000000001
  endloop
endfacet
facet normal -0.957397 -0.288774 -7.47721e-16
  outer loop
    vertex 0.03009701852939865 0.01475 0.009999999999999972
    vertex 0.03232149779245579 0.007375 0.01000000000000003
    vertex 0.03120925816092721 0.0110625 0.015
  endloop
endfacet
facet normal -0.957397 -0.288774 7.47721e-16
  outer loop
    vertex 0.03232149779245579 0.007375 0.01000000000000003
    vertex 0.03009701852939865 0.01475 0.009999999999999972
    vertex 0.03120925816092721 0.0110625 0.005000000000000001
  endloop
endfacet
facet normal -0.957397 -0.288774 7.47721e-16
  outer loop
    vertex 0.03232149779245579 0.007375 0.02
    vertex 0.03009701852939865 0.01475 0.02
    vertex 0.03120925816092721 0.0110625 0.015
  endloop
endfacet
endsolid Created by Gmsh
