solid Created by Gmsh
facet normal 0.994939 -0.100485 -8.70786e-17
  outer loop
    vertex 0.01276581635870752 0.04718792061211226 0.02
    vertex 0.01306367988112674 0.0501371656503693 0.008514707589468632
    vertex 0.0139572704483844 0.05898490076514033 0.02
  endloop
endfacet
facet normal 0.994939 -0.100485 7.46388e-17
  outer loop
    vertex 0.00919145408967688 0.01179698015302807 0
    vertex 0.008893590567257657 0.008847735114771028 0.01148529241053137
    vertex 0.008 0 0
  endloop
endfacet
facet normal 0.994939 -0.100485 0
  outer loop
    vertex 0.0139572704483844 0.05898490076514033 0.009999999999999972
    vertex 0.01306367988112674 0.0501371656503693 0.008514707589468632
    vertex 0.0139572704483844 0.05898490076514033 0
  endloop
endfacet
facet normal 0.994939 -0.100485 0
  outer loop
    vertex 0.008 0 0.01000000000000003
    vertex 0.008893590567257657 0.008847735114771028 0.01148529241053137
    vertex 0.008 0 0.02
  endloop
endfacet
facet normal 0.994939 -0.100485 -1.17458e-16
  outer loop
    vertex 0.008 0 0.02
    vertex 0.008893590567257657 0.008847735114771028 0.01148529241053137
    vertex 0.009191454089676875 0.01179698015302801 0.02
  endloop
endfacet
facet normal 0.994939 -0.100485 8.38988e-17
  outer loop
    vertex 0.0139572704483844 0.05898490076514033 0
    vertex 0.01306367988112674 0.0501371656503693 0.008514707589468632
    vertex 0.01276581635870752 0.04718792061211231 0
  endloop
endfacet
facet normal 0.994939 -0.100485 1.83127e-16
  outer loop
    vertex 0.01276581635870752 0.04718792061211231 0
    vertex 0.01212044539346587 0.04079788969588874 0.009752451264911437
    vertex 0.01157436226903064 0.03539094045908421 0
  endloop
endfacet
facet normal 0.994939 -0.100485 8.09522e-17
  outer loop
    vertex 0.01038290817935376 0.02359396030605614 0
    vertex 0.0109786352241922 0.02949245038257017 0.009999999999999997
    vertex 0.009836825054918522 0.01818701106925159 0.01024754873508856
  endloop
endfacet
facet normal 0.994939 -0.100485 -3.66254e-17
  outer loop
    vertex 0.009191454089676875 0.01179698015302801 0.02
    vertex 0.009836825054918522 0.01818701106925159 0.01024754873508856
    vertex 0.01038290817935376 0.02359396030605612 0.02
  endloop
endfacet
facet normal 0.994939 -0.100485 -1.51038e-17
  outer loop
    vertex 0.009836825054918522 0.01818701106925159 0.01024754873508856
    vertex 0.0109786352241922 0.02949245038257017 0.009999999999999997
    vertex 0.01038290817935376 0.02359396030605612 0.02
  endloop
endfacet
facet normal 0.994939 -0.100485 -1.39826e-16
  outer loop
    vertex 0.01157436226903064 0.03539094045908418 0.02
    vertex 0.0109786352241922 0.02949245038257017 0.009999999999999997
    vertex 0.01212044539346587 0.04079788969588874 0.009752451264911437
  endloop
endfacet
facet normal 0.994939 -0.100485 -1.53366e-16
  outer loop
    vertex 0.01157436226903064 0.03539094045908418 0.02
    vertex 0.01212044539346587 0.04079788969588874 0.009752451264911437
    vertex 0.01276581635870752 0.04718792061211226 0.02
  endloop
endfacet
facet normal 0.994939 -0.100485 5.57694e-17
  outer loop
    vertex 0.01038290817935376 0.02359396030605614 0
    vertex 0.009836825054918522 0.01818701106925159 0.01024754873508856
    vertex 0.00919145408967688 0.01179698015302807 0
  endloop
endfacet
facet normal 0.994939 -0.100485 -9.28686e-17
  outer loop
    vertex 0.01038290817935376 0.02359396030605612 0.02
    vertex 0.0109786352241922 0.02949245038257017 0.009999999999999997
    vertex 0.01157436226903064 0.03539094045908418 0.02
  endloop
endfacet
facet normal 0.994939 -0.100485 1.50019e-16
  outer loop
    vertex 0.01157436226903064 0.03539094045908421 0
    vertex 0.0109786352241922 0.02949245038257017 0.009999999999999997
    vertex 0.01038290817935376 0.02359396030605614 0
  endloop
endfacet
facet normal 0.994939 -0.100485 2.03901e-16
  outer loop
    vertex 0.01212044539346587 0.04079788969588874 0.009752451264911437
    vertex 0.0109786352241922 0.02949245038257017 0.009999999999999997
    vertex 0.01157436226903064 0.03539094045908421 0
  endloop
endfacet
facet normal 0.994939 -0.100485 8.94687e-17
  outer loop
    vertex 0.009836825054918522 0.01818701106925159 0.01024754873508856
    vertex 0.008893590567257657 0.008847735114771028 0.01148529241053137
    vertex 0.00919145408967688 0.01179698015302807 0
  endloop
endfacet
facet normal 0.994939 -0.100485 -9.76022e-17
  outer loop
    vertex 0.01212044539346587 0.04079788969588874 0.009752451264911437
    vertex 0.01306367988112674 0.0501371656503693 0.008514707589468632
    vertex 0.01276581635870752 0.04718792061211226 0.02
  endloop
endfacet
facet normal 0.994939 -0.100485 7.34614e-17
  outer loop
    vertex 0.01276581635870752 0.04718792061211231 0
    vertex 0.01306367988112674 0.0501371656503693 0.008514707589468632
    vertex 0.01212044539346587 0.04079788969588874 0.009752451264911437
  endloop
endfacet
facet normal 0.994939 -0.100485 -1.34257e-16
  outer loop
    vertex 0.009191454089676875 0.01179698015302801 0.02
    vertex 0.008893590567257657 0.008847735114771028 0.01148529241053137
    vertex 0.009836825054918522 0.01818701106925159 0.01024754873508856
  endloop
endfacet
facet normal 0.994939 -0.100485 0
  outer loop
    vertex 0.008 0 0
    vertex 0.008893590567257657 0.008847735114771028 0.01148529241053137
    vertex 0.008 0 0.01000000000000003
  endloop
endfacet
facet normal 0.994939 -0.100485 0
  outer loop
    vertex 0.0139572704483844 0.05898490076514033 0.02
    vertex 0.01306367988112674 0.0501371656503693 0.008514707589468632
    vertex 0.0139572704483844 0.05898490076514033 0.009999999999999972
  endloop
endfacet
endsolid Created by Gmsh
