solid Created by Gmsh
facet normal -0.599328 0.800504 0
  outer loop
    vertex 0.03135639448055278 0.04614866865758052 0.02
    vertex 0.03135639448055278 0.04614866865758052 0.009999999999999972
    vertex 0.02750393376697389 0.04326437686648173 0.015
  endloop
endfacet
facet normal -0.599328 0.800504 0
  outer loop
    vertex 0.023651473053395 0.04038008507538296 0
    vertex 0.023651473053395 0.04038008507538296 0.01000000000000003
    vertex 0.02750393376697388 0.04326437686648173 0.005000000000000004
  endloop
endfacet
facet normal -0.599328 0.800504 0
  outer loop
    vertex 0.03135639448055278 0.04614866865758052 0.009999999999999972
    vertex 0.03135639448055278 0.04614866865758052 0
    vertex 0.02750393376697388 0.04326437686648173 0.005000000000000004
  endloop
endfacet
facet normal -0.599328 0.800504 0
  outer loop
    vertex 0.023651473053395 0.04038008507538296 0.01000000000000003
    vertex 0.023651473053395 0.04038008507538296 0.02
    vertex 0.02750393376697389 0.04326437686648173 0.015
  endloop
endfacet
facet normal -0.599328 0.800504 4.92815e-16
  outer loop
    vertex 0.03135639448055278 0.04614866865758052 0
    vertex 0.023651473053395 0.04038008507538296 0
    vertex 0.02750393376697388 0.04326437686648173 0.005000000000000004
  endloop
endfacet
facet normal -0.599328 0.800504 1.33764e-15
  outer loop
    vertex 0.03135639448055278 0.04614866865758052 0.009999999999999972
    vertex 0.023651473053395 0.04038008507538296 0.01000000000000003
    vertex 0.02750393376697389 0.04326437686648173 0.015
  endloop
endfacet
facet normal -0.599328 0.800504 -1.33764e-15
  outer loop
    vertex 0.023651473053395 0.04038008507538296 0.02
    vertex 0.03135639448055278 0.04614866865758052 0.02
    vertex 0.02750393376697389 0.04326437686648173 0.015
  endloop
endfacet
facet normal -0.599328 0.800504 -4.92815e-16
  outer loop
    vertex 0.023651473053395 0.04038008507538296 0.01000000000000003
    vertex 0.03135639448055278 0.04614866865758052 0.009999999999999972
    vertex 0.02750393376697388 0.04326437686648173 0.005000000000000004
  endloop
endfacet
facet normal -0.915111 -0.403202 1.23621e-15
  outer loop
    vertex 0.02619313850369241 0.03461150149318539 0.01000000000000003
    vertex 0.023651473053395 0.04038008507538296 0.009999999999999972
    vertex 0.0249223057785437 0.03749579328428417 0.005000000000000001
  endloop
endfacet
facet normal -0.915111 -0.403202 -1.23621e-15
  outer loop
    vertex 0.023651473053395 0.04038008507538296 0.009999999999999972
    vertex 0.02619313850369241 0.03461150149318539 0.01000000000000003
    vertex 0.0249223057785437 0.03749579328428417 0.015
  endloop
endfacet
facet normal -0.915111 -0.403202 1.23621e-15
  outer loop
    vertex 0.02619313850369241 0.03461150149318539 0.02
    vertex 0.023651473053395 0.04038008507538296 0.02
    vertex 0.0249223057785437 0.03749579328428417 0.015
  endloop
endfacet
facet normal -0.915111 -0.403202 -1.23621e-15
  outer loop
    vertex 0.023651473053395 0.04038008507538296 0
    vertex 0.02619313850369241 0.03461150149318539 0
    vertex 0.0249223057785437 0.03749579328428417 0.005000000000000001
  endloop
endfacet
facet normal -0.915111 -0.403202 -0
  outer loop
    vertex 0.023651473053395 0.04038008507538296 0.009999999999999972
    vertex 0.023651473053395 0.04038008507538296 0
    vertex 0.0249223057785437 0.03749579328428417 0.005000000000000001
  endloop
endfacet
facet normal -0.915111 -0.403202 -0
  outer loop
    vertex 0.023651473053395 0.04038008507538296 0.02
    vertex 0.023651473053395 0.04038008507538296 0.009999999999999972
    vertex 0.0249223057785437 0.03749579328428417 0.015
  endloop
endfacet
facet normal -0.915111 -0.403202 0
  outer loop
    vertex 0.02619313850369241 0.03461150149318539 0
    vertex 0.02619313850369241 0.03461150149318539 0.01000000000000003
    vertex 0.0249223057785437 0.03749579328428417 0.005000000000000001
  endloop
endfacet
facet normal -0.915111 -0.403202 0
  outer loop
    vertex 0.02619313850369241 0.03461150149318539 0.01000000000000003
    vertex 0.02619313850369241 0.03461150149318539 0.02
    vertex 0.0249223057785437 0.03749579328428417 0.015
  endloop
endfacet
facet normal -0.956297 -0.292396 -1.12335e-16
  outer loop
    vertex 0.02795693456513497 0.02884291791098783 0.01000000000000003
    vertex 0.02619313850369241 0.03461150149318539 0.009999999999999972
    vertex 0.02707503653441369 0.03172720970208661 0.005
  endloop
endfacet
facet normal -0.956297 -0.292396 8.4251e-17
  outer loop
    vertex 0.02619313850369241 0.03461150149318539 0.009999999999999972
    vertex 0.02795693456513497 0.02884291791098783 0.01000000000000003
    vertex 0.02707503653441369 0.03172720970208661 0.015
  endloop
endfacet
facet normal -0.956297 -0.292396 -1.12335e-16
  outer loop
    vertex 0.02795693456513497 0.02884291791098783 0.02
    vertex 0.02619313850369241 0.03461150149318539 0.02
    vertex 0.02707503653441369 0.03172720970208661 0.015
  endloop
endfacet
facet normal -0.956297 -0.292396 8.4251e-17
  outer loop
    vertex 0.02619313850369241 0.03461150149318539 0
    vertex 0.02795693456513497 0.02884291791098783 0
    vertex 0.02707503653441369 0.03172720970208661 0.005
  endloop
endfacet
facet normal -0.956297 -0.292396 -0
  outer loop
    vertex 0.02619313850369241 0.03461150149318539 0.009999999999999972
    vertex 0.02619313850369241 0.03461150149318539 0
    vertex 0.02707503653441369 0.03172720970208661 0.005
  endloop
endfacet
facet normal -0.956297 -0.292396 -0
  outer loop
    vertex 0.02619313850369241 0.03461150149318539 0.02
    vertex 0.02619313850369241 0.03461150149318539 0.009999999999999972
    vertex 0.02707503653441369 0.03172720970208661 0.015
  endloop
endfacet
facet normal -0.956297 -0.292396 0
  outer loop
    vertex 0.02795693456513497 0.02884291791098783 0
    vertex 0.02795693456513497 0.02884291791098783 0.01000000000000003
    vertex 0.02707503653441369 0.03172720970208661 0.005
  endloop
endfacet
facet normal -0.956297 -0.292396 0
  outer loop
    vertex 0.02795693456513497 0.02884291791098783 0.01000000000000003
    vertex 0.02795693456513497 0.02884291791098783 0.02
    vertex 0.02707503653441369 0.03172720970208661 0.015
  endloop
endfacet
facet normal -0.998396 0.0566113 7.1101e-16
  outer loop
    vertex 0.02795693456513497 0.02884291791098783 0.009999999999999972
    vertex 0.02762984270597164 0.02307433432879026 0.01000000000000003
    vertex 0.02779338863555331 0.02595862611988904 0.015
  endloop
endfacet
facet normal -0.998396 0.0566113 -6.7436e-16
  outer loop
    vertex 0.02762984270597164 0.02307433432879026 0.01000000000000003
    vertex 0.02795693456513497 0.02884291791098783 0.009999999999999972
    vertex 0.02779338863555331 0.02595862611988905 0.004999999999999998
  endloop
endfacet
facet normal -0.998396 0.0566113 6.70695e-16
  outer loop
    vertex 0.02795693456513497 0.02884291791098783 0
    vertex 0.02762984270597164 0.02307433432879026 0
    vertex 0.02779338863555331 0.02595862611988905 0.004999999999999998
  endloop
endfacet
facet normal -0.998396 0.0566113 -7.14675e-16
  outer loop
    vertex 0.02762984270597164 0.02307433432879026 0.02
    vertex 0.02795693456513497 0.02884291791098783 0.02
    vertex 0.02779338863555331 0.02595862611988904 0.015
  endloop
endfacet
facet normal -0.998396 0.0566113 0
  outer loop
    vertex 0.02795693456513497 0.02884291791098783 0.009999999999999972
    vertex 0.02795693456513497 0.02884291791098783 0
    vertex 0.02779338863555331 0.02595862611988905 0.004999999999999998
  endloop
endfacet
facet normal -0.998396 0.0566113 0
  outer loop
    vertex 0.02795693456513497 0.02884291791098783 0.02
    vertex 0.02795693456513497 0.02884291791098783 0.009999999999999972
    vertex 0.02779338863555331 0.02595862611988904 0.015
  endloop
endfacet
facet normal -0.998396 0.0566113 0
  outer loop
    vertex 0.02762984270597164 0.02307433432879026 0
    vertex 0.02762984270597164 0.02307433432879026 0.01000000000000003
    vertex 0.02779338863555331 0.02595862611988905 0.004999999999999998
  endloop
endfacet
facet normal -0.998396 0.0566113 0
  outer loop
    vertex 0.02762984270597164 0.02307433432879026 0.01000000000000003
    vertex 0.02762984270597164 0.02307433432879026 0.02
    vertex 0.02779338863555331 0.02595862611988904 0.015
  endloop
endfacet
facet normal -0.279596 -0.960118 0
  outer loop
    vertex 0.04743884949209679 0.0173057507465927 0.01000000000000003
    vertex 0.04743884949209679 0.0173057507465927 0.02
    vertex 0.03993580161135676 0.01949071434868481 0.01225931275252296
  endloop
endfacet
facet normal -0.279596 -0.960118 0
  outer loop
    vertex 0.04743884949209679 0.0173057507465927 0.02
    vertex 0.03753434609903421 0.02019004253769148 0.02
    vertex 0.03993580161135676 0.01949071434868481 0.01225931275252296
  endloop
endfacet
facet normal -0.279596 -0.960118 1.35987e-16
  outer loop
    vertex 0.02762984270597164 0.02307433432879026 0
    vertex 0.03753434609903421 0.02019004253769148 0
    vertex 0.03459520914628043 0.02104594901268755 0.007245603601392627
  endloop
endfacet
facet normal -0.279596 -0.960118 -0
  outer loop
    vertex 0.02762984270597164 0.02307433432879026 0.009999999999999972
    vertex 0.02762984270597164 0.02307433432879026 0
    vertex 0.03459520914628043 0.02104594901268755 0.007245603601392627
  endloop
endfacet
facet normal -0.279596 -0.960118 4.24618e-16
  outer loop
    vertex 0.03753434609903421 0.02019004253769148 0
    vertex 0.04743884949209679 0.0173057507465927 0
    vertex 0.04210089202564798 0.01886021807228383 0.005414419188579435
  endloop
endfacet
facet normal -0.279596 -0.960118 -4.41377e-16
  outer loop
    vertex 0.03753434609903421 0.02019004253769148 0.02
    vertex 0.02762984270597164 0.02307433432879026 0.02
    vertex 0.03340927932110582 0.02139130379967932 0.01404705299358852
  endloop
endfacet
facet normal -0.279596 -0.960118 0
  outer loop
    vertex 0.04743884949209679 0.0173057507465927 0
    vertex 0.04743884949209679 0.0173057507465927 0.01000000000000003
    vertex 0.04210089202564798 0.01886021807228383 0.005414419188579435
  endloop
endfacet
facet normal -0.279596 -0.960118 -0
  outer loop
    vertex 0.02762984270597164 0.02307433432879026 0.02
    vertex 0.02762984270597164 0.02307433432879026 0.009999999999999972
    vertex 0.03340927932110582 0.02139130379967932 0.01404705299358852
  endloop
endfacet
facet normal -0.279596 -0.960118 1.65966e-16
  outer loop
    vertex 0.03459520914628043 0.02104594901268755 0.007245603601392627
    vertex 0.03753434609903421 0.02019004253769148 0
    vertex 0.04210089202564798 0.01886021807228383 0.005414419188579435
  endloop
endfacet
facet normal -0.279596 -0.960118 -8.79636e-17
  outer loop
    vertex 0.03753434609903421 0.02019004253769148 0.02
    vertex 0.03340927932110582 0.02139130379967932 0.01404705299358852
    vertex 0.03993580161135676 0.01949071434868481 0.01225931275252296
  endloop
endfacet
facet normal -0.279596 -0.960118 -2.91605e-16
  outer loop
    vertex 0.03993580161135676 0.01949071434868481 0.01225931275252296
    vertex 0.03459520914628043 0.02104594901268755 0.007245603601392627
    vertex 0.04210089202564798 0.01886021807228383 0.005414419188579435
  endloop
endfacet
facet normal -0.279596 -0.960118 -3.50042e-16
  outer loop
    vertex 0.04743884949209679 0.0173057507465927 0.01000000000000003
    vertex 0.03993580161135676 0.01949071434868481 0.01225931275252296
    vertex 0.04210089202564798 0.01886021807228383 0.005414419188579435
  endloop
endfacet
facet normal -0.279596 -0.960118 1.53917e-16
  outer loop
    vertex 0.03993580161135676 0.01949071434868481 0.01225931275252296
    vertex 0.03340927932110582 0.02139130379967932 0.01404705299358852
    vertex 0.03459520914628043 0.02104594901268755 0.007245603601392627
  endloop
endfacet
facet normal -0.279596 -0.960118 2.95003e-16
  outer loop
    vertex 0.03340927932110582 0.02139130379967932 0.01404705299358852
    vertex 0.02762984270597164 0.02307433432879026 0.009999999999999972
    vertex 0.03459520914628043 0.02104594901268755 0.007245603601392627
  endloop
endfacet
facet normal -0.240735 0.970591 0
  outer loop
    vertex 0.02418121274235362 0.01153716716439513 0
    vertex 0.02418121274235362 0.01153716716439513 0.01000000000000003
    vertex 0.0333438081865871 0.0138097625367735 0.01086692915255185
  endloop
endfacet
facet normal -0.240735 0.970591 -1.10597e-16
  outer loop
    vertex 0.03581003111722521 0.01442145895549391 0
    vertex 0.02418121274235362 0.01153716716439513 0
    vertex 0.0333438081865871 0.0138097625367735 0.01086692915255185
  endloop
endfacet
facet normal -0.240735 0.970591 0
  outer loop
    vertex 0.02418121274235362 0.01153716716439513 0.01000000000000003
    vertex 0.02418121274235362 0.01153716716439513 0.02
    vertex 0.0333438081865871 0.0138097625367735 0.01086692915255185
  endloop
endfacet
facet normal -0.240735 0.970591 2.78668e-16
  outer loop
    vertex 0.02418121274235362 0.01153716716439513 0.02
    vertex 0.0358100311172252 0.01442145895549391 0.02
    vertex 0.0333438081865871 0.0138097625367735 0.01086692915255185
  endloop
endfacet
facet normal -0.240735 0.970591 -4.43004e-16
  outer loop
    vertex 0.04743884949209679 0.0173057507465927 0
    vertex 0.03581003111722521 0.01442145895549391 0
    vertex 0.04059638525640501 0.01560861671373695 0.007021761093498429
  endloop
endfacet
facet normal -0.240735 0.970591 4.64261e-16
  outer loop
    vertex 0.0358100311172252 0.01442145895549391 0.02
    vertex 0.04743884949209679 0.0173057507465927 0.02
    vertex 0.04084657684028765 0.01567067164557371 0.01360430357983926
  endloop
endfacet
facet normal -0.240735 0.970591 0
  outer loop
    vertex 0.04743884949209679 0.0173057507465927 0.009999999999999972
    vertex 0.04743884949209679 0.0173057507465927 0
    vertex 0.04059638525640501 0.01560861671373695 0.007021761093498429
  endloop
endfacet
facet normal -0.240735 0.970591 -1.77871e-16
  outer loop
    vertex 0.03581003111722521 0.01442145895549391 0
    vertex 0.0333438081865871 0.0138097625367735 0.01086692915255185
    vertex 0.04059638525640501 0.01560861671373695 0.007021761093498429
  endloop
endfacet
facet normal -0.240735 0.970591 0
  outer loop
    vertex 0.04743884949209679 0.0173057507465927 0.02
    vertex 0.04743884949209679 0.0173057507465927 0.009999999999999972
    vertex 0.04084657684028765 0.01567067164557371 0.01360430357983926
  endloop
endfacet
facet normal -0.240735 0.970591 3.72649e-16
  outer loop
    vertex 0.0358100311172252 0.01442145895549391 0.02
    vertex 0.04084657684028765 0.01567067164557371 0.01360430357983926
    vertex 0.0333438081865871 0.0138097625367735 0.01086692915255185
  endloop
endfacet
facet normal -0.240735 0.970591 1.35044e-16
  outer loop
    vertex 0.0333438081865871 0.0138097625367735 0.01086692915255185
    vertex 0.04084657684028765 0.01567067164557371 0.01360430357983926
    vertex 0.04059638525640501 0.01560861671373695 0.007021761093498429
  endloop
endfacet
facet normal -0.240735 0.970591 1.21799e-16
  outer loop
    vertex 0.04084657684028765 0.01567067164557371 0.01360430357983926
    vertex 0.04743884949209679 0.0173057507465927 0.009999999999999972
    vertex 0.04059638525640501 0.01560861671373695 0.007021761093498429
  endloop
endfacet
facet normal -0.306415 -0.951898 -4.70976e-17
  outer loop
    vertex 0.04210170070631458 0.005768583582197562 0.02
    vertex 0.03314145672433411 0.008652875373296343 0.02
    vertex 0.03494939966450183 0.008070900709259551 0.01235756389191022
  endloop
endfacet
facet normal -0.306415 -0.951898 0
  outer loop
    vertex 0.04210170070631458 0.005768583582197562 0.01000000000000003
    vertex 0.04210170070631458 0.005768583582197562 0.02
    vertex 0.03494939966450183 0.008070900709259551 0.01235756389191022
  endloop
endfacet
facet normal -0.306415 -0.951898 -0
  outer loop
    vertex 0.02418121274235362 0.01153716716439513 0.009999999999999972
    vertex 0.02418121274235362 0.01153716716439513 0
    vertex 0.03073997934296353 0.009425908062085424 0.00692147780088266
  endloop
endfacet
facet normal -0.306415 -0.951898 -5.20034e-16
  outer loop
    vertex 0.02418121274235362 0.01153716716439513 0
    vertex 0.03314145672433409 0.00865287537329635 0
    vertex 0.03073997934296353 0.009425908062085424 0.00692147780088266
  endloop
endfacet
facet normal -0.306415 -0.951898 -0
  outer loop
    vertex 0.02418121274235362 0.01153716716439513 0.02
    vertex 0.02418121274235362 0.01153716716439513 0.009999999999999972
    vertex 0.02866133473334386 0.01009502126884573 0.01499999999999999
  endloop
endfacet
facet normal -0.306415 -0.951898 0
  outer loop
    vertex 0.04210170070631458 0.005768583582197562 0
    vertex 0.04210170070631458 0.005768583582197562 0.01000000000000003
    vertex 0.03669806930881889 0.007508006048066126 0.005799281310868219
  endloop
endfacet
facet normal -0.306415 -0.951898 -3.10332e-16
  outer loop
    vertex 0.03314145672433409 0.00865287537329635 0
    vertex 0.04210170070631458 0.005768583582197562 0
    vertex 0.03669806930881889 0.007508006048066126 0.005799281310868219
  endloop
endfacet
facet normal -0.306415 -0.951898 2.15964e-16
  outer loop
    vertex 0.03314145672433411 0.008652875373296343 0.02
    vertex 0.02418121274235362 0.01153716716439513 0.02
    vertex 0.02866133473334386 0.01009502126884573 0.01499999999999999
  endloop
endfacet
facet normal -0.306415 -0.951898 3.46151e-17
  outer loop
    vertex 0.02418121274235362 0.01153716716439513 0.009999999999999972
    vertex 0.03073997934296353 0.009425908062085424 0.00692147780088266
    vertex 0.02866133473334386 0.01009502126884573 0.01499999999999999
  endloop
endfacet
facet normal -0.306415 -0.951898 2.04662e-16
  outer loop
    vertex 0.03073997934296353 0.009425908062085424 0.00692147780088266
    vertex 0.03494939966450183 0.008070900709259551 0.01235756389191022
    vertex 0.02866133473334386 0.01009502126884573 0.01499999999999999
  endloop
endfacet
facet normal -0.306415 -0.951898 1.13073e-16
  outer loop
    vertex 0.03669806930881889 0.007508006048066126 0.005799281310868219
    vertex 0.04210170070631458 0.005768583582197562 0.01000000000000003
    vertex 0.03494939966450183 0.008070900709259551 0.01235756389191022
  endloop
endfacet
facet normal -0.306415 -0.951898 -5.58904e-17
  outer loop
    vertex 0.03494939966450183 0.008070900709259551 0.01235756389191022
    vertex 0.03314145672433411 0.008652875373296343 0.02
    vertex 0.02866133473334386 0.01009502126884573 0.01499999999999999
  endloop
endfacet
facet normal -0.306415 -0.951898 1.41216e-16
  outer loop
    vertex 0.03669806930881889 0.007508006048066126 0.005799281310868219
    vertex 0.03494939966450183 0.008070900709259551 0.01235756389191022
    vertex 0.03073997934296353 0.009425908062085424 0.00692147780088266
  endloop
endfacet
facet normal -0.306415 -0.951898 -4.81131e-16
  outer loop
    vertex 0.03314145672433409 0.00865287537329635 0
    vertex 0.03669806930881889 0.007508006048066126 0.005799281310868219
    vertex 0.03073997934296353 0.009425908062085424 0.00692147780088266
  endloop
endfacet
endsolid Created by Gmsh
