solid Created by Gmsh
facet normal 1 0 0
  outer loop
    vertex 0.04 0.05199064636545901 0
    vertex 0.04 0.0559953231827295 0.005
    vertex 0.04 0.05199064636545901 0.01000000000000003
  endloop
endfacet
facet normal 1 0 0
  outer loop
    vertex 0.04 0.06 0.02
    vertex 0.04 0.0559953231827295 0.015
    vertex 0.04 0.06 0.009999999999999972
  endloop
endfacet
facet normal 1 0 0
  outer loop
    vertex 0.04 0.05199064636545901 0.01000000000000003
    vertex 0.04 0.0559953231827295 0.015
    vertex 0.04 0.05199064636545901 0.02
  endloop
endfacet
facet normal 1 0 0
  outer loop
    vertex 0.04 0.06 0.009999999999999972
    vertex 0.04 0.0559953231827295 0.005
    vertex 0.04 0.06 0
  endloop
endfacet
facet normal 1 0 0
  outer loop
    vertex 0.04 0.06 0
    vertex 0.04 0.0559953231827295 0.005
    vertex 0.04 0.05199064636545901 0
  endloop
endfacet
facet normal 1 0 0
  outer loop
    vertex 0.04 0.06 0.009999999999999972
    vertex 0.04 0.0559953231827295 0.015
    vertex 0.04 0.05199064636545901 0.01000000000000003
  endloop
endfacet
facet normal 1 -0 0
  outer loop
    vertex 0.04 0.05199064636545901 0.02
    vertex 0.04 0.0559953231827295 0.015
    vertex 0.04 0.06 0.02
  endloop
endfacet
facet normal 1 0 0
  outer loop
    vertex 0.04 0.05199064636545901 0.01000000000000003
    vertex 0.04 0.0559953231827295 0.005
    vertex 0.04 0.06 0.009999999999999972
  endloop
endfacet
facet normal 0.685211 -0.728345 0
  outer loop
    vertex 0.04 0.05199064636545901 0.02
    vertex 0.03654603269404659 0.04874123096761782 0.015
    vertex 0.04 0.05199064636545901 0.009999999999999972
  endloop
endfacet
facet normal 0.685211 -0.728345 0
  outer loop
    vertex 0.03309206538809318 0.04549181556977663 0
    vertex 0.03654603269404659 0.04874123096761782 0.005000000000000001
    vertex 0.03309206538809318 0.04549181556977663 0.01000000000000003
  endloop
endfacet
facet normal 0.685211 -0.728345 0
  outer loop
    vertex 0.04 0.05199064636545901 0.009999999999999972
    vertex 0.03654603269404659 0.04874123096761782 0.005000000000000001
    vertex 0.04 0.05199064636545901 0
  endloop
endfacet
facet normal 0.685211 -0.728345 0
  outer loop
    vertex 0.03309206538809318 0.04549181556977663 0.01000000000000003
    vertex 0.03654603269404659 0.04874123096761782 0.015
    vertex 0.03309206538809318 0.04549181556977663 0.02
  endloop
endfacet
facet normal 0.685211 -0.728345 1.07169e-15
  outer loop
    vertex 0.03309206538809318 0.04549181556977663 0.01000000000000003
    vertex 0.03654603269404659 0.04874123096761782 0.005000000000000001
    vertex 0.04 0.05199064636545901 0.009999999999999972
  endloop
endfacet
facet normal 0.685211 -0.728345 -1.00025e-15
  outer loop
    vertex 0.04 0.05199064636545901 0.009999999999999972
    vertex 0.03654603269404659 0.04874123096761782 0.015
    vertex 0.03309206538809318 0.04549181556977663 0.01000000000000003
  endloop
endfacet
facet normal 0.685211 -0.728345 -1.00025e-15
  outer loop
    vertex 0.04 0.05199064636545901 0
    vertex 0.03654603269404659 0.04874123096761782 0.005000000000000001
    vertex 0.03309206538809318 0.04549181556977663 0
  endloop
endfacet
facet normal 0.685211 -0.728345 1.07169e-15
  outer loop
    vertex 0.03309206538809318 0.04549181556977663 0.02
    vertex 0.03654603269404659 0.04874123096761782 0.015
    vertex 0.04 0.05199064636545901 0.02
  endloop
endfacet
facet normal 0.412421 -0.910993 -9.23524e-16
  outer loop
    vertex 0.02591446458749929 0.04224240017193544 0
    vertex 0.02606453500684555 0.0423103394659881 0.007974041828994829
    vertex 0.01873686378690542 0.03899298477409426 0
  endloop
endfacet
facet normal 0.412421 -0.910993 -9.16783e-16
  outer loop
    vertex 0.03309206538809318 0.04549181556977663 0
    vertex 0.02606453500684555 0.0423103394659881 0.007974041828994829
    vertex 0.02591446458749929 0.04224240017193544 0
  endloop
endfacet
facet normal 0.412421 -0.910993 0
  outer loop
    vertex 0.01873686378690542 0.03899298477409426 0
    vertex 0.02606453500684555 0.0423103394659881 0.007974041828994829
    vertex 0.01873686378690542 0.03899298477409426 0.01000000000000003
  endloop
endfacet
facet normal 0.412421 -0.910993 0
  outer loop
    vertex 0.03309206538809318 0.04549181556977663 0.009999999999999972
    vertex 0.02606453500684555 0.0423103394659881 0.007974041828994829
    vertex 0.03309206538809318 0.04549181556977663 0
  endloop
endfacet
facet normal 0.412421 -0.910993 0
  outer loop
    vertex 0.03309206538809318 0.04549181556977663 0.02
    vertex 0.02835373458002546 0.04334669695485915 0.01438504330131911
    vertex 0.03309206538809318 0.04549181556977663 0.009999999999999972
  endloop
endfacet
facet normal 0.412421 -0.910993 0
  outer loop
    vertex 0.01873686378690542 0.03899298477409426 0.01000000000000003
    vertex 0.02356129234963623 0.04117708122819424 0.01447181702606279
    vertex 0.01873686378690542 0.03899298477409426 0.02
  endloop
endfacet
facet normal 0.412421 -0.910993 4.66729e-16
  outer loop
    vertex 0.01873686378690542 0.03899298477409426 0.02
    vertex 0.02356129234963623 0.04117708122819424 0.01447181702606279
    vertex 0.02591446458749931 0.04224240017193544 0.02
  endloop
endfacet
facet normal 0.412421 -0.910993 5.74395e-16
  outer loop
    vertex 0.02591446458749931 0.04224240017193544 0.02
    vertex 0.02835373458002546 0.04334669695485915 0.01438504330131911
    vertex 0.03309206538809318 0.04549181556977663 0.02
  endloop
endfacet
facet normal 0.412421 -0.910993 -3.6276e-16
  outer loop
    vertex 0.02835373458002546 0.04334669695485915 0.01438504330131911
    vertex 0.02606453500684555 0.0423103394659881 0.007974041828994829
    vertex 0.03309206538809318 0.04549181556977663 0.009999999999999972
  endloop
endfacet
facet normal 0.412421 -0.910993 -4.99073e-17
  outer loop
    vertex 0.02835373458002546 0.04334669695485915 0.01438504330131911
    vertex 0.02356129234963623 0.04117708122819424 0.01447181702606279
    vertex 0.02606453500684555 0.0423103394659881 0.007974041828994829
  endloop
endfacet
facet normal 0.412421 -0.910993 -2.90213e-16
  outer loop
    vertex 0.02606453500684555 0.0423103394659881 0.007974041828994829
    vertex 0.02356129234963623 0.04117708122819424 0.01447181702606279
    vertex 0.01873686378690542 0.03899298477409426 0.01000000000000003
  endloop
endfacet
facet normal 0.412421 -0.910993 3.32384e-16
  outer loop
    vertex 0.02591446458749931 0.04224240017193544 0.02
    vertex 0.02356129234963623 0.04117708122819424 0.01447181702606279
    vertex 0.02835373458002546 0.04334669695485915 0.01438504330131911
  endloop
endfacet
facet normal 0.247159 0.968975 -2.68263e-17
  outer loop
    vertex 0.04421520984534755 0.03249415397841188 0.02
    vertex 0.03787089185612154 0.03411241636606487 0.01279503248946241
    vertex 0.03572242782586683 0.03466043091030601 0.02
  endloop
endfacet
facet normal 0.247159 0.968975 -0
  outer loop
    vertex 0.04421520984534755 0.03249415397841188 0.01000000000000003
    vertex 0.03787089185612154 0.03411241636606487 0.01279503248946241
    vertex 0.04421520984534755 0.03249415397841188 0.02
  endloop
endfacet
facet normal 0.247159 0.968975 -2.40915e-16
  outer loop
    vertex 0.02722964580638613 0.03682670784220013 0
    vertex 0.03162764796843361 0.03570489750864744 0.007220581919037811
    vertex 0.03572242782586685 0.034660430910306 0
  endloop
endfacet
facet normal 0.247159 0.968975 0
  outer loop
    vertex 0.01873686378690542 0.03899298477409426 0.009999999999999972
    vertex 0.0248352139250639 0.03743746207298131 0.006486995416480234
    vertex 0.01873686378690542 0.03899298477409426 0
  endloop
endfacet
facet normal 0.247159 0.968975 0
  outer loop
    vertex 0.01873686378690542 0.03899298477409426 0.02
    vertex 0.02544037868163683 0.03728310105804507 0.01304610132717486
    vertex 0.01873686378690542 0.03899298477409426 0.009999999999999972
  endloop
endfacet
facet normal 0.247159 0.968975 3.54538e-17
  outer loop
    vertex 0.03162764796843361 0.03570489750864744 0.007220581919037811
    vertex 0.03873027746822342 0.03389321054836841 0.00600312288170005
    vertex 0.03572242782586685 0.034660430910306 0
  endloop
endfacet
facet normal 0.247159 0.968975 -0
  outer loop
    vertex 0.04421520984534755 0.03249415397841188 0
    vertex 0.03873027746822342 0.03389321054836841 0.00600312288170005
    vertex 0.04421520984534755 0.03249415397841188 0.01000000000000003
  endloop
endfacet
facet normal 0.247159 0.968975 -5.95908e-17
  outer loop
    vertex 0.01873686378690542 0.03899298477409426 0
    vertex 0.0248352139250639 0.03743746207298131 0.006486995416480234
    vertex 0.02722964580638613 0.03682670784220013 0
  endloop
endfacet
facet normal 0.247159 0.968975 -7.78256e-16
  outer loop
    vertex 0.02722964580638612 0.03682670784220014 0.02
    vertex 0.02544037868163683 0.03728310105804507 0.01304610132717486
    vertex 0.01873686378690542 0.03899298477409426 0.02
  endloop
endfacet
facet normal 0.247159 0.968975 -3.7869e-16
  outer loop
    vertex 0.03572242782586683 0.03466043091030601 0.02
    vertex 0.03787089185612154 0.03411241636606487 0.01279503248946241
    vertex 0.03147603681612648 0.03574356937625307 0.01456903062753112
  endloop
endfacet
facet normal 0.247159 0.968975 6.56982e-16
  outer loop
    vertex 0.03162764796843361 0.03570489750864744 0.007220581919037811
    vertex 0.02544037868163683 0.03728310105804507 0.01304610132717486
    vertex 0.03147603681612648 0.03574356937625307 0.01456903062753112
  endloop
endfacet
facet normal 0.247159 0.968975 -1.21003e-15
  outer loop
    vertex 0.03572242782586683 0.03466043091030601 0.02
    vertex 0.03147603681612648 0.03574356937625307 0.01456903062753112
    vertex 0.02722964580638612 0.03682670784220014 0.02
  endloop
endfacet
facet normal 0.247159 0.968975 -6.21728e-16
  outer loop
    vertex 0.03787089185612154 0.03411241636606487 0.01279503248946241
    vertex 0.03873027746822342 0.03389321054836841 0.00600312288170005
    vertex 0.03162764796843361 0.03570489750864744 0.007220581919037811
  endloop
endfacet
facet normal 0.247159 0.968975 4.09369e-16
  outer loop
    vertex 0.03162764796843361 0.03570489750864744 0.007220581919037811
    vertex 0.0248352139250639 0.03743746207298131 0.006486995416480234
    vertex 0.02544037868163683 0.03728310105804507 0.01304610132717486
  endloop
endfacet
facet normal 0.247159 0.968975 -1.7913e-16
  outer loop
    vertex 0.02722964580638613 0.03682670784220013 0
    vertex 0.0248352139250639 0.03743746207298131 0.006486995416480234
    vertex 0.03162764796843361 0.03570489750864744 0.007220581919037811
  endloop
endfacet
facet normal 0.247159 0.968975 4.50758e-16
  outer loop
    vertex 0.03572242782586685 0.034660430910306 0
    vertex 0.03873027746822342 0.03389321054836841 0.00600312288170005
    vertex 0.04421520984534755 0.03249415397841188 0
  endloop
endfacet
facet normal 0.247159 0.968975 6.40071e-16
  outer loop
    vertex 0.03147603681612648 0.03574356937625307 0.01456903062753112
    vertex 0.03787089185612154 0.03411241636606487 0.01279503248946241
    vertex 0.03162764796843361 0.03570489750864744 0.007220581919037811
  endloop
endfacet
facet normal 0.247159 0.968975 -9.41077e-16
  outer loop
    vertex 0.03147603681612648 0.03574356937625307 0.01456903062753112
    vertex 0.02544037868163683 0.03728310105804507 0.01304610132717486
    vertex 0.02722964580638612 0.03682670784220014 0.02
  endloop
endfacet
facet normal 0.247159 0.968975 3.60444e-16
  outer loop
    vertex 0.02544037868163683 0.03728310105804507 0.01304610132717486
    vertex 0.0248352139250639 0.03743746207298131 0.006486995416480234
    vertex 0.01873686378690542 0.03899298477409426 0.009999999999999972
  endloop
endfacet
facet normal 0.247159 0.968975 -7.26187e-16
  outer loop
    vertex 0.04421520984534755 0.03249415397841188 0.01000000000000003
    vertex 0.03873027746822342 0.03389321054836841 0.00600312288170005
    vertex 0.03787089185612154 0.03411241636606487 0.01279503248946241
  endloop
endfacet
facet normal 0.507279 -0.861782 1.05787e-16
  outer loop
    vertex 0.03869499634986445 0.0292447385805707 0.02
    vertex 0.03317478285438134 0.02599532318272951 0.01000000000000003
    vertex 0.04421520984534755 0.03249415397841188 0.009999999999999972
  endloop
endfacet
facet normal 0.507279 -0.861782 1.5868e-16
  outer loop
    vertex 0.04421520984534755 0.03249415397841188 0.009999999999999972
    vertex 0.03317478285438134 0.02599532318272951 0.01000000000000003
    vertex 0.03869499634986444 0.02924473858057069 0
  endloop
endfacet
facet normal 0.507279 -0.861782 0
  outer loop
    vertex 0.03869499634986444 0.02924473858057069 0
    vertex 0.04421520984534755 0.03249415397841188 0
    vertex 0.04421520984534755 0.03249415397841188 0.009999999999999972
  endloop
endfacet
facet normal 0.507279 -0.861782 0
  outer loop
    vertex 0.04421520984534755 0.03249415397841188 0.009999999999999972
    vertex 0.04421520984534755 0.03249415397841188 0.02
    vertex 0.03869499634986445 0.0292447385805707 0.02
  endloop
endfacet
facet normal 0.507279 -0.861782 0
  outer loop
    vertex 0.03869499634986444 0.02924473858057069 0
    vertex 0.03317478285438134 0.02599532318272951 0.01000000000000003
    vertex 0.03317478285438134 0.02599532318272951 0
  endloop
endfacet
facet normal 0.507279 -0.861782 0
  outer loop
    vertex 0.03317478285438134 0.02599532318272951 0.02
    vertex 0.03317478285438134 0.02599532318272951 0.01000000000000003
    vertex 0.03869499634986445 0.0292447385805707 0.02
  endloop
endfacet
facet normal 0.503154 -0.864197 -1.31158e-16
  outer loop
    vertex 0.02759372016174345 0.02274590778488832 0
    vertex 0.03317478285438134 0.02599532318272951 0.009999999999999972
    vertex 0.02201265746910556 0.01949649238704713 0.01000000000000003
  endloop
endfacet
facet normal 0.503154 -0.864197 -1.04927e-16
  outer loop
    vertex 0.02201265746910556 0.01949649238704713 0.01000000000000003
    vertex 0.03317478285438134 0.02599532318272951 0.009999999999999972
    vertex 0.02759372016174344 0.02274590778488831 0.02
  endloop
endfacet
facet normal 0.503154 -0.864197 0
  outer loop
    vertex 0.02759372016174345 0.02274590778488832 0
    vertex 0.03317478285438134 0.02599532318272951 0
    vertex 0.03317478285438134 0.02599532318272951 0.009999999999999972
  endloop
endfacet
facet normal 0.503154 -0.864197 0
  outer loop
    vertex 0.02759372016174344 0.02274590778488831 0.02
    vertex 0.03317478285438134 0.02599532318272951 0.009999999999999972
    vertex 0.03317478285438134 0.02599532318272951 0.02
  endloop
endfacet
facet normal 0.503154 -0.864197 0
  outer loop
    vertex 0.02201265746910556 0.01949649238704713 0
    vertex 0.02759372016174345 0.02274590778488832 0
    vertex 0.02201265746910556 0.01949649238704713 0.01000000000000003
  endloop
endfacet
facet normal 0.503154 -0.864197 0
  outer loop
    vertex 0.02201265746910556 0.01949649238704713 0.01000000000000003
    vertex 0.02759372016174344 0.02274590778488831 0.02
    vertex 0.02201265746910556 0.01949649238704713 0.02
  endloop
endfacet
facet normal 0.447896 0.894086 9.80577e-17
  outer loop
    vertex 0.02849911724782536 0.01624707698920595 0.02
    vertex 0.02836674051764741 0.01631339158916189 0.01248391772448494
    vertex 0.02201265746910556 0.01949649238704713 0.02
  endloop
endfacet
facet normal 0.447896 0.894086 6.21356e-17
  outer loop
    vertex 0.03498557702654517 0.01299766159136476 0.02
    vertex 0.02836674051764741 0.01631339158916189 0.01248391772448494
    vertex 0.02849911724782536 0.01624707698920595 0.02
  endloop
endfacet
facet normal 0.447896 0.894086 0
  outer loop
    vertex 0.02201265746910556 0.01949649238704713 0.02
    vertex 0.02836674051764741 0.01631339158916189 0.01248391772448494
    vertex 0.02201265746910556 0.01949649238704713 0.009999999999999972
  endloop
endfacet
facet normal 0.447896 0.894086 -0
  outer loop
    vertex 0.03498557702654517 0.01299766159136476 0.01000000000000003
    vertex 0.02836674051764741 0.01631339158916189 0.01248391772448494
    vertex 0.03498557702654517 0.01299766159136476 0.02
  endloop
endfacet
facet normal 0.447896 0.894086 -0
  outer loop
    vertex 0.03498557702654517 0.01299766159136476 0
    vertex 0.03044505518144131 0.01527225236985359 0.005289492913330163
    vertex 0.03498557702654517 0.01299766159136476 0.01000000000000003
  endloop
endfacet
facet normal 0.447896 0.894086 0
  outer loop
    vertex 0.02201265746910556 0.01949649238704713 0.009999999999999972
    vertex 0.02597828608600802 0.01750989644265268 0.005396201519687863
    vertex 0.02201265746910556 0.01949649238704713 0
  endloop
endfacet
facet normal 0.447896 0.894086 8.82913e-17
  outer loop
    vertex 0.02849911724782537 0.01624707698920594 0
    vertex 0.03044505518144131 0.01527225236985359 0.005289492913330163
    vertex 0.03498557702654517 0.01299766159136476 0
  endloop
endfacet
facet normal 0.447896 0.894086 0
  outer loop
    vertex 0.02201265746910556 0.01949649238704713 0
    vertex 0.02597828608600802 0.01750989644265268 0.005396201519687863
    vertex 0.02849911724782537 0.01624707698920594 0
  endloop
endfacet
facet normal 0.447896 0.894086 -1.4238e-16
  outer loop
    vertex 0.03044505518144131 0.01527225236985359 0.005289492913330163
    vertex 0.02597828608600802 0.01750989644265268 0.005396201519687863
    vertex 0.02836674051764741 0.01631339158916189 0.01248391772448494
  endloop
endfacet
facet normal 0.447896 0.894086 6.3548e-17
  outer loop
    vertex 0.02849911724782537 0.01624707698920594 0
    vertex 0.02597828608600802 0.01750989644265268 0.005396201519687863
    vertex 0.03044505518144131 0.01527225236985359 0.005289492913330163
  endloop
endfacet
facet normal 0.447896 0.894086 -9.68361e-17
  outer loop
    vertex 0.02836674051764741 0.01631339158916189 0.01248391772448494
    vertex 0.02597828608600802 0.01750989644265268 0.005396201519687863
    vertex 0.02201265746910556 0.01949649238704713 0.009999999999999972
  endloop
endfacet
facet normal 0.447896 0.894086 -1.60539e-16
  outer loop
    vertex 0.03044505518144131 0.01527225236985359 0.005289492913330163
    vertex 0.02836674051764741 0.01631339158916189 0.01248391772448494
    vertex 0.03498557702654517 0.01299766159136476 0.01000000000000003
  endloop
endfacet
facet normal 0.579951 -0.814651 -4.25034e-16
  outer loop
    vertex 0.03498557702654517 0.01299766159136476 0
    vertex 0.03042115596977058 0.009748246193523557 0.005690917171295254
    vertex 0.02585673491299601 0.006498830795682378 0
  endloop
endfacet
facet normal 0.579951 -0.814651 1.64305e-16
  outer loop
    vertex 0.02585673491299601 0.006498830795682378 0.02
    vertex 0.03042115596977061 0.009748246193523576 0.01447938359017075
    vertex 0.03498557702654517 0.01299766159136476 0.02
  endloop
endfacet
facet normal 0.579951 -0.814651 0
  outer loop
    vertex 0.03498557702654517 0.01299766159136476 0.02
    vertex 0.03042115596977061 0.009748246193523576 0.01447938359017075
    vertex 0.03498557702654517 0.01299766159136476 0.009999999999999972
  endloop
endfacet
facet normal 0.579951 -0.814651 0
  outer loop
    vertex 0.02585673491299601 0.006498830795682378 0
    vertex 0.03042115596977058 0.009748246193523557 0.005690917171295254
    vertex 0.02585673491299601 0.006498830795682378 0.01000000000000003
  endloop
endfacet
facet normal 0.579951 -0.814651 0
  outer loop
    vertex 0.03498557702654517 0.01299766159136476 0.009999999999999972
    vertex 0.03042115596977058 0.009748246193523557 0.005690917171295254
    vertex 0.03498557702654517 0.01299766159136476 0
  endloop
endfacet
facet normal 0.579951 -0.814651 0
  outer loop
    vertex 0.02585673491299601 0.006498830795682378 0.01000000000000003
    vertex 0.03042115596977061 0.009748246193523576 0.01447938359017075
    vertex 0.02585673491299601 0.006498830795682378 0.02
  endloop
endfacet
facet normal 0.579951 -0.814651 1.6617e-16
  outer loop
    vertex 0.03042115596977061 0.009748246193523576 0.01447938359017075
    vertex 0.03042115596977058 0.009748246193523557 0.005690917171295254
    vertex 0.03498557702654517 0.01299766159136476 0.009999999999999972
  endloop
endfacet
facet normal 0.579951 -0.814651 1.72018e-16
  outer loop
    vertex 0.02585673491299601 0.006498830795682378 0.01000000000000003
    vertex 0.03042115596977058 0.009748246193523557 0.005690917171295254
    vertex 0.03042115596977061 0.009748246193523576 0.01447938359017075
  endloop
endfacet
endsolid Created by Gmsh
