solid Created by Gmsh
facet normal 0.99968 -0.0252986 6.7032e-17
  outer loop
    vertex 0.009192223281393961 0.04711099494100196 0.02
    vertex 0.009266737236481085 0.05005543212481461 0.008470105063568444
    vertex 0.009490279101742452 0.05888874367625246 0.02
  endloop
endfacet
facet normal 0.99968 -0.0252986 -6.23553e-17
  outer loop
    vertex 0.008298055820348491 0.0117777487352505 0
    vertex 0.008223541865261369 0.008833311551437864 0.01152989493643155
    vertex 0.008 0 0
  endloop
endfacet
facet normal 0.99968 -0.0252986 0
  outer loop
    vertex 0.008 0 0.01000000000000003
    vertex 0.008223541865261369 0.008833311551437864 0.01152989493643155
    vertex 0.008 0 0.02
  endloop
endfacet
facet normal 0.99968 -0.0252986 0
  outer loop
    vertex 0.009490279101742452 0.05888874367625246 0.009999999999999972
    vertex 0.009266737236481085 0.05005543212481461 0.008470105063568444
    vertex 0.009490279101742452 0.05888874367625246 0
  endloop
endfacet
facet normal 0.99968 -0.0252986 1.69762e-16
  outer loop
    vertex 0.008 0 0.02
    vertex 0.008223541865261369 0.008833311551437864 0.01152989493643155
    vertex 0.008298055820348489 0.01177774873525047 0.02
  endloop
endfacet
facet normal 0.99968 -0.0252986 -1.69762e-17
  outer loop
    vertex 0.009490279101742452 0.05888874367625246 0
    vertex 0.009266737236481085 0.05005543212481461 0.008470105063568444
    vertex 0.009192223281393963 0.04711099494100199 0
  endloop
endfacet
facet normal 0.99968 -0.0252986 6.10797e-17
  outer loop
    vertex 0.008596111640696982 0.023555497470501 0
    vertex 0.008745139550871226 0.02944437183812623 0.01
    vertex 0.008459502723037256 0.01815736263351118 0.01025498248940526
  endloop
endfacet
facet normal 0.99968 -0.0252986 3.23138e-17
  outer loop
    vertex 0.008459502723037256 0.01815736263351118 0.01025498248940526
    vertex 0.008745139550871226 0.02944437183812623 0.01
    vertex 0.00859611164069698 0.02355549747050097 0.02
  endloop
endfacet
facet normal 0.99968 -0.0252986 6.01542e-17
  outer loop
    vertex 0.008894167461045471 0.03533324620575147 0.02
    vertex 0.008745139550871226 0.02944437183812623 0.01
    vertex 0.009030776378705196 0.04073138104274129 0.00974501751059474
  endloop
endfacet
facet normal 0.99968 -0.0252986 5.25806e-17
  outer loop
    vertex 0.008894167461045471 0.03533324620575147 0.02
    vertex 0.009030776378705196 0.04073138104274129 0.00974501751059474
    vertex 0.009192223281393961 0.04711099494100196 0.02
  endloop
endfacet
facet normal 0.99968 -0.0252986 5.21239e-17
  outer loop
    vertex 0.00859611164069698 0.02355549747050097 0.02
    vertex 0.008745139550871226 0.02944437183812623 0.01
    vertex 0.008894167461045471 0.03533324620575147 0.02
  endloop
endfacet
facet normal 0.99968 -0.0252986 4.24213e-17
  outer loop
    vertex 0.009192223281393963 0.04711099494100199 0
    vertex 0.009030776378705196 0.04073138104274129 0.00974501751059474
    vertex 0.008894167461045472 0.0353332462057515 0
  endloop
endfacet
facet normal 0.99968 -0.0252986 7.01074e-17
  outer loop
    vertex 0.008596111640696982 0.023555497470501 0
    vertex 0.008459502723037256 0.01815736263351118 0.01025498248940526
    vertex 0.008298055820348491 0.0117777487352505 0
  endloop
endfacet
facet normal 0.99968 -0.0252986 2.39773e-17
  outer loop
    vertex 0.008298055820348489 0.01177774873525047 0.02
    vertex 0.008459502723037256 0.01815736263351118 0.01025498248940526
    vertex 0.00859611164069698 0.02355549747050097 0.02
  endloop
endfacet
facet normal 0.99968 -0.0252986 4.37186e-17
  outer loop
    vertex 0.009030776378705196 0.04073138104274129 0.00974501751059474
    vertex 0.008745139550871226 0.02944437183812623 0.01
    vertex 0.008894167461045472 0.0353332462057515 0
  endloop
endfacet
facet normal 0.99968 -0.0252986 4.67318e-17
  outer loop
    vertex 0.008894167461045472 0.0353332462057515 0
    vertex 0.008745139550871226 0.02944437183812623 0.01
    vertex 0.008596111640696982 0.023555497470501 0
  endloop
endfacet
facet normal 0.99968 -0.0252986 5.71301e-17
  outer loop
    vertex 0.009030776378705196 0.04073138104274129 0.00974501751059474
    vertex 0.009266737236481085 0.05005543212481461 0.008470105063568444
    vertex 0.009192223281393961 0.04711099494100196 0.02
  endloop
endfacet
facet normal 0.99968 -0.0252986 -2.44843e-17
  outer loop
    vertex 0.008459502723037256 0.01815736263351118 0.01025498248940526
    vertex 0.008223541865261369 0.008833311551437864 0.01152989493643155
    vertex 0.008298055820348491 0.0117777487352505 0
  endloop
endfacet
facet normal 0.99968 -0.0252986 1.38176e-16
  outer loop
    vertex 0.008298055820348489 0.01177774873525047 0.02
    vertex 0.008223541865261369 0.008833311551437864 0.01152989493643155
    vertex 0.008459502723037256 0.01815736263351118 0.01025498248940526
  endloop
endfacet
facet normal 0.99968 -0.0252986 2.43088e-17
  outer loop
    vertex 0.009192223281393963 0.04711099494100199 0
    vertex 0.009266737236481085 0.05005543212481461 0.008470105063568444
    vertex 0.009030776378705196 0.04073138104274129 0.00974501751059474
  endloop
endfacet
facet normal 0.99968 -0.0252986 0
  outer loop
    vertex 0.008 0 0
    vertex 0.008223541865261369 0.008833311551437864 0.01152989493643155
    vertex 0.008 0 0.01000000000000003
  endloop
endfacet
facet normal 0.99968 -0.0252986 0
  outer loop
    vertex 0.009490279101742452 0.05888874367625246 0.02
    vertex 0.009266737236481085 0.05005543212481461 0.008470105063568444
    vertex 0.009490279101742452 0.05888874367625246 0.009999999999999972
  endloop
endfacet
endsolid Created by Gmsh
