solid Created by Gmsh
facet normal 1 -1.67712e-29 -1.38778e-15
  outer loop
    vertex 0.04 0.05540658328970419 0.01000000000000003
    vertex 0.03999999999999999 0.0577032916448521 0.004999999999999999
    vertex 0.04 0.06 0.009999999999999972
  endloop
endfacet
facet normal 1 1.67712e-29 1.38778e-15
  outer loop
    vertex 0.04 0.06 0.009999999999999972
    vertex 0.03999999999999999 0.05770329164485209 0.015
    vertex 0.04 0.05540658328970419 0.01000000000000003
  endloop
endfacet
facet normal 1 0 -1.38778e-15
  outer loop
    vertex 0.04 0.05540658328970419 0.02
    vertex 0.03999999999999999 0.05770329164485209 0.015
    vertex 0.04 0.06 0.02
  endloop
endfacet
facet normal 1 0 1.38778e-15
  outer loop
    vertex 0.04 0.06 0
    vertex 0.03999999999999999 0.0577032916448521 0.004999999999999999
    vertex 0.04 0.05540658328970419 0
  endloop
endfacet
facet normal 1 -3.02123e-15 0
  outer loop
    vertex 0.04 0.06 0.009999999999999972
    vertex 0.03999999999999999 0.0577032916448521 0.004999999999999999
    vertex 0.04 0.06 0
  endloop
endfacet
facet normal 1 -3.02123e-15 0
  outer loop
    vertex 0.04 0.06 0.02
    vertex 0.03999999999999999 0.05770329164485209 0.015
    vertex 0.04 0.06 0.009999999999999972
  endloop
endfacet
facet normal 1 3.02123e-15 -0
  outer loop
    vertex 0.04 0.05540658328970419 0
    vertex 0.03999999999999999 0.0577032916448521 0.004999999999999999
    vertex 0.04 0.05540658328970419 0.01000000000000003
  endloop
endfacet
facet normal 1 3.02123e-15 -0
  outer loop
    vertex 0.04 0.05540658328970419 0.01000000000000003
    vertex 0.03999999999999999 0.05770329164485209 0.015
    vertex 0.04 0.05540658328970419 0.02
  endloop
endfacet
facet normal 0.945313 0.326164 -1.06363e-15
  outer loop
    vertex 0.04238963574700324 0.04848076037849117 0.02
    vertex 0.04119481787350161 0.05194367183409768 0.015
    vertex 0.04 0.05540658328970419 0.02
  endloop
endfacet
facet normal 0.945313 0.326164 1.06363e-15
  outer loop
    vertex 0.04 0.05540658328970419 0
    vertex 0.04119481787350161 0.05194367183409768 0.005
    vertex 0.04238963574700324 0.04848076037849117 0
  endloop
endfacet
facet normal 0.945313 0.326164 -1.06363e-15
  outer loop
    vertex 0.04238963574700324 0.04848076037849117 0.01000000000000003
    vertex 0.04119481787350161 0.05194367183409768 0.005
    vertex 0.04 0.05540658328970419 0.009999999999999972
  endloop
endfacet
facet normal 0.945313 0.326164 1.06363e-15
  outer loop
    vertex 0.04 0.05540658328970419 0.009999999999999972
    vertex 0.04119481787350161 0.05194367183409768 0.015
    vertex 0.04238963574700324 0.04848076037849117 0.01000000000000003
  endloop
endfacet
facet normal 0.945313 0.326164 0
  outer loop
    vertex 0.04 0.05540658328970419 0.009999999999999972
    vertex 0.04119481787350161 0.05194367183409768 0.005
    vertex 0.04 0.05540658328970419 0
  endloop
endfacet
facet normal 0.945313 0.326164 0
  outer loop
    vertex 0.04 0.05540658328970419 0.02
    vertex 0.04119481787350161 0.05194367183409768 0.015
    vertex 0.04 0.05540658328970419 0.009999999999999972
  endloop
endfacet
facet normal 0.945313 0.326164 -0
  outer loop
    vertex 0.04238963574700324 0.04848076037849117 0
    vertex 0.04119481787350161 0.05194367183409768 0.005
    vertex 0.04238963574700324 0.04848076037849117 0.01000000000000003
  endloop
endfacet
facet normal 0.945313 0.326164 -0
  outer loop
    vertex 0.04238963574700324 0.04848076037849117 0.01000000000000003
    vertex 0.04119481787350161 0.05194367183409768 0.015
    vertex 0.04238963574700324 0.04848076037849117 0.02
  endloop
endfacet
facet normal 0.823326 -0.567569 0
  outer loop
    vertex 0.04238963574700324 0.04848076037849117 0.02
    vertex 0.04000243647397067 0.04501784892288466 0.015
    vertex 0.04238963574700324 0.04848076037849117 0.009999999999999972
  endloop
endfacet
facet normal 0.823326 -0.567569 0
  outer loop
    vertex 0.0376152372009381 0.04155493746727815 0
    vertex 0.04000243647397067 0.04501784892288466 0.005
    vertex 0.0376152372009381 0.04155493746727815 0.01000000000000003
  endloop
endfacet
facet normal 0.823326 -0.567569 0
  outer loop
    vertex 0.04238963574700324 0.04848076037849117 0.009999999999999972
    vertex 0.04000243647397067 0.04501784892288466 0.005
    vertex 0.04238963574700324 0.04848076037849117 0
  endloop
endfacet
facet normal 0.823326 -0.567569 0
  outer loop
    vertex 0.0376152372009381 0.04155493746727815 0.01000000000000003
    vertex 0.04000243647397067 0.04501784892288466 0.015
    vertex 0.0376152372009381 0.04155493746727815 0.02
  endloop
endfacet
facet normal 0.823326 -0.567569 0
  outer loop
    vertex 0.0376152372009381 0.04155493746727815 0.02
    vertex 0.04000243647397067 0.04501784892288466 0.015
    vertex 0.04238963574700324 0.04848076037849117 0.02
  endloop
endfacet
facet normal 0.823326 -0.567569 0
  outer loop
    vertex 0.0376152372009381 0.04155493746727815 0.01000000000000003
    vertex 0.04000243647397067 0.04501784892288466 0.005
    vertex 0.04238963574700324 0.04848076037849117 0.009999999999999972
  endloop
endfacet
facet normal 0.823326 -0.567569 0
  outer loop
    vertex 0.04238963574700324 0.04848076037849117 0
    vertex 0.04000243647397067 0.04501784892288466 0.005
    vertex 0.0376152372009381 0.04155493746727815 0
  endloop
endfacet
facet normal 0.823326 -0.567569 0
  outer loop
    vertex 0.04238963574700324 0.04848076037849117 0.009999999999999972
    vertex 0.04000243647397067 0.04501784892288466 0.015
    vertex 0.0376152372009381 0.04155493746727815 0.01000000000000003
  endloop
endfacet
facet normal 0.948064 0.31808 1.85518e-16
  outer loop
    vertex 0.0376152372009381 0.04155493746727815 0
    vertex 0.0387770592083398 0.03809202601167163 0.005
    vertex 0.0399388812157415 0.03462911455606512 0
  endloop
endfacet
facet normal 0.948064 0.31808 -2.31898e-16
  outer loop
    vertex 0.0399388812157415 0.03462911455606512 0.02
    vertex 0.0387770592083398 0.03809202601167163 0.015
    vertex 0.0376152372009381 0.04155493746727815 0.02
  endloop
endfacet
facet normal 0.948064 0.31808 1.85518e-16
  outer loop
    vertex 0.0376152372009381 0.04155493746727815 0.009999999999999972
    vertex 0.0387770592083398 0.03809202601167163 0.015
    vertex 0.0399388812157415 0.03462911455606512 0.01000000000000003
  endloop
endfacet
facet normal 0.948064 0.31808 -2.31898e-16
  outer loop
    vertex 0.0399388812157415 0.03462911455606512 0.01000000000000003
    vertex 0.0387770592083398 0.03809202601167163 0.005
    vertex 0.0376152372009381 0.04155493746727815 0.009999999999999972
  endloop
endfacet
facet normal 0.948064 0.31808 0
  outer loop
    vertex 0.0376152372009381 0.04155493746727815 0.009999999999999972
    vertex 0.0387770592083398 0.03809202601167163 0.005
    vertex 0.0376152372009381 0.04155493746727815 0
  endloop
endfacet
facet normal 0.948064 0.31808 0
  outer loop
    vertex 0.0376152372009381 0.04155493746727815 0.02
    vertex 0.0387770592083398 0.03809202601167163 0.015
    vertex 0.0376152372009381 0.04155493746727815 0.009999999999999972
  endloop
endfacet
facet normal 0.948064 0.31808 -0
  outer loop
    vertex 0.0399388812157415 0.03462911455606512 0
    vertex 0.0387770592083398 0.03809202601167163 0.005
    vertex 0.0399388812157415 0.03462911455606512 0.01000000000000003
  endloop
endfacet
facet normal 0.948064 0.31808 -0
  outer loop
    vertex 0.0399388812157415 0.03462911455606512 0.01000000000000003
    vertex 0.0387770592083398 0.03809202601167163 0.015
    vertex 0.0399388812157415 0.03462911455606512 0.02
  endloop
endfacet
facet normal 0.856684 0.515842 0
  outer loop
    vertex 0.0399388812157415 0.03462911455606512 0.02
    vertex 0.04202403223272441 0.03116620310045861 0.015
    vertex 0.0399388812157415 0.03462911455606512 0.009999999999999972
  endloop
endfacet
facet normal 0.856684 0.515842 -0
  outer loop
    vertex 0.04410918324970731 0.0277032916448521 0
    vertex 0.04202403223272441 0.03116620310045861 0.004999999999999999
    vertex 0.04410918324970731 0.0277032916448521 0.01000000000000003
  endloop
endfacet
facet normal 0.856684 0.515842 0
  outer loop
    vertex 0.0399388812157415 0.03462911455606512 0.009999999999999972
    vertex 0.04202403223272441 0.03116620310045861 0.004999999999999999
    vertex 0.0399388812157415 0.03462911455606512 0
  endloop
endfacet
facet normal 0.856684 0.515842 -0
  outer loop
    vertex 0.04410918324970731 0.0277032916448521 0.01000000000000003
    vertex 0.04202403223272441 0.03116620310045861 0.015
    vertex 0.04410918324970731 0.0277032916448521 0.02
  endloop
endfacet
facet normal 0.856684 0.515842 -1.67637e-16
  outer loop
    vertex 0.04410918324970731 0.0277032916448521 0.01000000000000003
    vertex 0.04202403223272441 0.03116620310045861 0.004999999999999999
    vertex 0.0399388812157415 0.03462911455606512 0.009999999999999972
  endloop
endfacet
facet normal 0.856684 0.515842 -1.67637e-16
  outer loop
    vertex 0.04410918324970731 0.0277032916448521 0.02
    vertex 0.04202403223272441 0.03116620310045861 0.015
    vertex 0.0399388812157415 0.03462911455606512 0.02
  endloop
endfacet
facet normal 0.856684 0.515842 1.67637e-16
  outer loop
    vertex 0.0399388812157415 0.03462911455606512 0.009999999999999972
    vertex 0.04202403223272441 0.03116620310045861 0.015
    vertex 0.04410918324970731 0.0277032916448521 0.01000000000000003
  endloop
endfacet
facet normal 0.856684 0.515842 1.67637e-16
  outer loop
    vertex 0.0399388812157415 0.03462911455606512 0
    vertex 0.04202403223272441 0.03116620310045861 0.004999999999999999
    vertex 0.04410918324970731 0.0277032916448521 0
  endloop
endfacet
facet normal 0.623184 -0.782075 -6.65942e-16
  outer loop
    vertex 0.04410918324970731 0.0277032916448521 0
    vertex 0.03976334373716432 0.02424038018924558 0.005493512265210879
    vertex 0.03541750422462131 0.02077746873363907 0
  endloop
endfacet
facet normal 0.623184 -0.782075 6.0745e-16
  outer loop
    vertex 0.03541750422462131 0.02077746873363907 0.02
    vertex 0.03976334373716432 0.02424038018924558 0.01447938359017077
    vertex 0.04410918324970731 0.0277032916448521 0.02
  endloop
endfacet
facet normal 0.623184 -0.782075 0
  outer loop
    vertex 0.03541750422462131 0.02077746873363907 0.01000000000000003
    vertex 0.03976334373716432 0.02424038018924558 0.005493512265210879
    vertex 0.03976334373716432 0.02424038018924558 0.01447938359017077
  endloop
endfacet
facet normal 0.623184 -0.782075 0
  outer loop
    vertex 0.03976334373716432 0.02424038018924558 0.01447938359017077
    vertex 0.03976334373716432 0.02424038018924558 0.005493512265210879
    vertex 0.04410918324970731 0.0277032916448521 0.009999999999999972
  endloop
endfacet
facet normal 0.623184 -0.782075 0
  outer loop
    vertex 0.04410918324970731 0.0277032916448521 0.02
    vertex 0.03976334373716432 0.02424038018924558 0.01447938359017077
    vertex 0.04410918324970731 0.0277032916448521 0.009999999999999972
  endloop
endfacet
facet normal 0.623184 -0.782075 0
  outer loop
    vertex 0.03541750422462131 0.02077746873363907 0
    vertex 0.03976334373716432 0.02424038018924558 0.005493512265210879
    vertex 0.03541750422462131 0.02077746873363907 0.01000000000000003
  endloop
endfacet
facet normal 0.623184 -0.782075 0
  outer loop
    vertex 0.03541750422462131 0.02077746873363907 0.01000000000000003
    vertex 0.03976334373716432 0.02424038018924558 0.01447938359017077
    vertex 0.03541750422462131 0.02077746873363907 0.02
  endloop
endfacet
facet normal 0.623184 -0.782075 0
  outer loop
    vertex 0.04410918324970731 0.0277032916448521 0.009999999999999972
    vertex 0.03976334373716432 0.02424038018924558 0.005493512265210879
    vertex 0.04410918324970731 0.0277032916448521 0
  endloop
endfacet
facet normal 0.991875 -0.127215 -6.9145e-16
  outer loop
    vertex 0.03452922046155057 0.01385164582242605 0.01000000000000003
    vertex 0.03497336234308594 0.01731455727803256 0.005
    vertex 0.03541750422462131 0.02077746873363907 0.009999999999999972
  endloop
endfacet
facet normal 0.991875 -0.127215 6.9145e-16
  outer loop
    vertex 0.03541750422462131 0.02077746873363907 0.009999999999999972
    vertex 0.03497336234308594 0.01731455727803256 0.015
    vertex 0.03452922046155057 0.01385164582242605 0.01000000000000003
  endloop
endfacet
facet normal 0.991875 -0.127215 -6.9145e-16
  outer loop
    vertex 0.03452922046155057 0.01385164582242605 0.02
    vertex 0.03497336234308594 0.01731455727803256 0.015
    vertex 0.03541750422462131 0.02077746873363907 0.02
  endloop
endfacet
facet normal 0.991875 -0.127215 6.9145e-16
  outer loop
    vertex 0.03541750422462131 0.02077746873363907 0
    vertex 0.03497336234308594 0.01731455727803256 0.005
    vertex 0.03452922046155057 0.01385164582242605 0
  endloop
endfacet
facet normal 0.991875 -0.127215 0
  outer loop
    vertex 0.03541750422462131 0.02077746873363907 0.009999999999999972
    vertex 0.03497336234308594 0.01731455727803256 0.005
    vertex 0.03541750422462131 0.02077746873363907 0
  endloop
endfacet
facet normal 0.991875 -0.127215 0
  outer loop
    vertex 0.03541750422462131 0.02077746873363907 0.02
    vertex 0.03497336234308594 0.01731455727803256 0.015
    vertex 0.03541750422462131 0.02077746873363907 0.009999999999999972
  endloop
endfacet
facet normal 0.991875 -0.127215 0
  outer loop
    vertex 0.03452922046155057 0.01385164582242605 0
    vertex 0.03497336234308594 0.01731455727803256 0.005
    vertex 0.03452922046155057 0.01385164582242605 0.01000000000000003
  endloop
endfacet
facet normal 0.991875 -0.127215 0
  outer loop
    vertex 0.03452922046155057 0.01385164582242605 0.01000000000000003
    vertex 0.03497336234308594 0.01731455727803256 0.015
    vertex 0.03452922046155057 0.01385164582242605 0.02
  endloop
endfacet
facet normal 0.873364 0.487069 0
  outer loop
    vertex 0.03452922046155057 0.01385164582242605 0.02
    vertex 0.03646046107068287 0.01038873436681954 0.015
    vertex 0.03452922046155057 0.01385164582242605 0.009999999999999972
  endloop
endfacet
facet normal 0.873364 0.487069 -0
  outer loop
    vertex 0.03839170167981517 0.006925822911213027 0
    vertex 0.03646046107068287 0.01038873436681953 0.004999999999999999
    vertex 0.03839170167981517 0.006925822911213027 0.01000000000000003
  endloop
endfacet
facet normal 0.873364 0.487069 0
  outer loop
    vertex 0.03452922046155057 0.01385164582242605 0.009999999999999972
    vertex 0.03646046107068287 0.01038873436681953 0.004999999999999999
    vertex 0.03452922046155057 0.01385164582242605 0
  endloop
endfacet
facet normal 0.873364 0.487069 -0
  outer loop
    vertex 0.03839170167981517 0.006925822911213027 0.01000000000000003
    vertex 0.03646046107068287 0.01038873436681954 0.015
    vertex 0.03839170167981517 0.006925822911213027 0.02
  endloop
endfacet
facet normal 0.873364 0.487069 -1.70901e-16
  outer loop
    vertex 0.03839170167981517 0.006925822911213027 0.01000000000000003
    vertex 0.03646046107068287 0.01038873436681953 0.004999999999999999
    vertex 0.03452922046155057 0.01385164582242605 0.009999999999999972
  endloop
endfacet
facet normal 0.873364 0.487069 0
  outer loop
    vertex 0.03839170167981517 0.006925822911213027 0.02
    vertex 0.03646046107068287 0.01038873436681954 0.015
    vertex 0.03452922046155057 0.01385164582242605 0.02
  endloop
endfacet
facet normal 0.873364 0.487069 0
  outer loop
    vertex 0.03452922046155057 0.01385164582242605 0.009999999999999972
    vertex 0.03646046107068287 0.01038873436681954 0.015
    vertex 0.03839170167981517 0.006925822911213027 0.01000000000000003
  endloop
endfacet
facet normal 0.873364 0.487069 1.70901e-16
  outer loop
    vertex 0.03452922046155057 0.01385164582242605 0
    vertex 0.03646046107068287 0.01038873436681953 0.004999999999999999
    vertex 0.03839170167981517 0.006925822911213027 0
  endloop
endfacet
endsolid Created by Gmsh
