solid Created by Gmsh
facet normal 0.999444 -0.0333463 6.31603e-18
  outer loop
    vertex 0.009527242736944665 0.04577396549004046 0.02
    vertex 0.009622408774847118 0.04862624746814005 0.008287323747725873
    vertex 0.009909053421180831 0.05721745686255057 0.02
  endloop
endfacet
facet normal 0.999444 -0.0333463 0
  outer loop
    vertex 0.008381810684236166 0.01144349137251011 0
    vertex 0.008286644646333713 0.008591209394410524 0.01171267625227412
    vertex 0.008 0 0
  endloop
endfacet
facet normal 0.999444 -0.0333463 0
  outer loop
    vertex 0.009909053421180831 0.05721745686255057 0.009999999999999972
    vertex 0.009622408774847118 0.04862624746814005 0.008287323747725873
    vertex 0.009909053421180831 0.05721745686255057 0
  endloop
endfacet
facet normal 0.999444 -0.0333463 0
  outer loop
    vertex 0.008 0 0.01000000000000003
    vertex 0.008286644646333713 0.008591209394410524 0.01171267625227412
    vertex 0.008 0 0.02
  endloop
endfacet
facet normal 0.999444 -0.0333463 4.4633e-18
  outer loop
    vertex 0.008 0 0.02
    vertex 0.008286644646333713 0.008591209394410524 0.01171267625227412
    vertex 0.008381810684236166 0.01144349137251011 0.02
  endloop
endfacet
facet normal 0.999444 -0.0333463 -8.9266e-18
  outer loop
    vertex 0.009909053421180831 0.05721745686255057 0
    vertex 0.009622408774847118 0.04862624746814005 0.008287323747725873
    vertex 0.009527242736944665 0.04577396549004046 0
  endloop
endfacet
facet normal 0.999444 -0.0333463 -1.5252e-17
  outer loop
    vertex 0.009527242736944665 0.04577396549004046 0
    vertex 0.009320384236606387 0.03957407753067872 0.009700708314502673
    vertex 0.009145432052708499 0.03433047411753034 0
  endloop
endfacet
facet normal 0.999444 -0.0333463 2.28129e-17
  outer loop
    vertex 0.008381810684236166 0.01144349137251011 0.02
    vertex 0.008588675969539264 0.01764358268837699 0.01027160039859405
    vertex 0.008763621368472332 0.02288698274502023 0.02
  endloop
endfacet
facet normal 0.999444 -0.0333463 6.65524e-17
  outer loop
    vertex 0.008588675969539264 0.01764358268837699 0.01027160039859405
    vertex 0.008954527841417885 0.02860876232402614 0.00999538478551612
    vertex 0.008763621368472332 0.02288698274502023 0.02
  endloop
endfacet
facet normal 0.999444 -0.0333463 1.10915e-17
  outer loop
    vertex 0.008763621368472332 0.02288698274502023 0.02
    vertex 0.008954527841417885 0.02860876232402614 0.00999538478551612
    vertex 0.009145432052708499 0.03433047411753035 0.02
  endloop
endfacet
facet normal 0.999444 -0.0333463 4.70676e-17
  outer loop
    vertex 0.009320384236606387 0.03957407753067872 0.009700708314502673
    vertex 0.008954527841417885 0.02860876232402614 0.00999538478551612
    vertex 0.009145432052708499 0.03433047411753034 0
  endloop
endfacet
facet normal 0.999444 -0.0333463 -2.09e-17
  outer loop
    vertex 0.009145432052708499 0.03433047411753035 0.02
    vertex 0.008954527841417885 0.02860876232402614 0.00999538478551612
    vertex 0.009320384236606387 0.03957407753067872 0.009700708314502673
  endloop
endfacet
facet normal 0.999444 -0.0333463 1.11018e-17
  outer loop
    vertex 0.009145432052708499 0.03433047411753034 0
    vertex 0.008954527841417885 0.02860876232402614 0.00999538478551612
    vertex 0.008763621368472332 0.02288698274502023 0
  endloop
endfacet
facet normal 0.999444 -0.0333463 -4.18782e-17
  outer loop
    vertex 0.008763621368472332 0.02288698274502023 0
    vertex 0.008954527841417885 0.02860876232402614 0.00999538478551612
    vertex 0.008588675969539264 0.01764358268837699 0.01027160039859405
  endloop
endfacet
facet normal 0.999444 -0.0333463 -7.20215e-18
  outer loop
    vertex 0.008763621368472332 0.02288698274502023 0
    vertex 0.008588675969539264 0.01764358268837699 0.01027160039859405
    vertex 0.008381810684236166 0.01144349137251011 0
  endloop
endfacet
facet normal 0.999444 -0.0333463 2.15484e-17
  outer loop
    vertex 0.009145432052708499 0.03433047411753035 0.02
    vertex 0.009320384236606387 0.03957407753067872 0.009700708314502673
    vertex 0.009527242736944665 0.04577396549004046 0.02
  endloop
endfacet
facet normal 0.999444 -0.0333463 0
  outer loop
    vertex 0.008588675969539264 0.01764358268837699 0.01027160039859405
    vertex 0.008286644646333713 0.008591209394410524 0.01171267625227412
    vertex 0.008381810684236166 0.01144349137251011 0
  endloop
endfacet
facet normal 0.999444 -0.0333463 1.24502e-17
  outer loop
    vertex 0.009320384236606387 0.03957407753067872 0.009700708314502673
    vertex 0.009622408774847118 0.04862624746814005 0.008287323747725873
    vertex 0.009527242736944665 0.04577396549004046 0.02
  endloop
endfacet
facet normal 0.999444 -0.0333463 8.02375e-18
  outer loop
    vertex 0.008381810684236166 0.01144349137251011 0.02
    vertex 0.008286644646333713 0.008591209394410524 0.01171267625227412
    vertex 0.008588675969539264 0.01764358268837699 0.01027160039859405
  endloop
endfacet
facet normal 0.999444 -0.0333463 -1.33866e-17
  outer loop
    vertex 0.009527242736944665 0.04577396549004046 0
    vertex 0.009622408774847118 0.04862624746814005 0.008287323747725873
    vertex 0.009320384236606387 0.03957407753067872 0.009700708314502673
  endloop
endfacet
facet normal 0.999444 -0.0333463 0
  outer loop
    vertex 0.008 0 0
    vertex 0.008286644646333713 0.008591209394410524 0.01171267625227412
    vertex 0.008 0 0.01000000000000003
  endloop
endfacet
facet normal 0.999444 -0.0333463 0
  outer loop
    vertex 0.009909053421180831 0.05721745686255057 0.02
    vertex 0.009622408774847118 0.04862624746814005 0.008287323747725873
    vertex 0.009909053421180831 0.05721745686255057 0.009999999999999972
  endloop
endfacet
endsolid Created by Gmsh
