solid Created by Gmsh
facet normal -0.76482 0.644244 0
  outer loop
    vertex 0.02938590112439488 0.03974259762377352 0
    vertex 0.02938590112439488 0.03974259762377352 0.01000000000000003
    vertex 0.03177712224073447 0.0425813545969002 0.005000000000000001
  endloop
endfacet
facet normal -0.76482 0.644244 0
  outer loop
    vertex 0.03416834335707405 0.04542011157002689 0.02
    vertex 0.03416834335707405 0.04542011157002689 0.009999999999999972
    vertex 0.03177712224073447 0.0425813545969002 0.015
  endloop
endfacet
facet normal -0.76482 0.644244 0
  outer loop
    vertex 0.02938590112439488 0.03974259762377352 0.01000000000000003
    vertex 0.02938590112439488 0.03974259762377352 0.02
    vertex 0.03177712224073447 0.0425813545969002 0.015
  endloop
endfacet
facet normal -0.76482 0.644244 0
  outer loop
    vertex 0.03416834335707405 0.04542011157002689 0.009999999999999972
    vertex 0.03416834335707405 0.04542011157002689 0
    vertex 0.03177712224073447 0.0425813545969002 0.005000000000000001
  endloop
endfacet
facet normal -0.76482 0.644244 5.477e-16
  outer loop
    vertex 0.03416834335707405 0.04542011157002689 0
    vertex 0.02938590112439488 0.03974259762377352 0
    vertex 0.03177712224073447 0.0425813545969002 0.005000000000000001
  endloop
endfacet
facet normal -0.76482 0.644244 5.477e-16
  outer loop
    vertex 0.03416834335707405 0.04542011157002689 0.009999999999999972
    vertex 0.02938590112439488 0.03974259762377352 0.01000000000000003
    vertex 0.03177712224073447 0.0425813545969002 0.015
  endloop
endfacet
facet normal -0.76482 0.644244 -5.02058e-16
  outer loop
    vertex 0.02938590112439488 0.03974259762377352 0.02
    vertex 0.03416834335707405 0.04542011157002689 0.02
    vertex 0.03177712224073447 0.0425813545969002 0.015
  endloop
endfacet
facet normal -0.76482 0.644244 -5.02058e-16
  outer loop
    vertex 0.02938590112439488 0.03974259762377352 0.01000000000000003
    vertex 0.03416834335707405 0.04542011157002689 0.009999999999999972
    vertex 0.03177712224073447 0.0425813545969002 0.005000000000000001
  endloop
endfacet
facet normal -0.512306 -0.858803 1.0522e-15
  outer loop
    vertex 0.02938590112439488 0.03974259762377352 0
    vertex 0.03890340081339811 0.03406508367752016 0
    vertex 0.0341446509688965 0.03690384065064685 0.005520616409829227
  endloop
endfacet
facet normal -0.512306 -0.858803 -8.3478e-16
  outer loop
    vertex 0.03890340081339811 0.03406508367752016 0.02
    vertex 0.02938590112439488 0.03974259762377352 0.02
    vertex 0.03414465096889648 0.03690384065064686 0.0145064877347891
  endloop
endfacet
facet normal -0.512306 -0.858803 0
  outer loop
    vertex 0.03890340081339811 0.03406508367752016 0
    vertex 0.03890340081339811 0.03406508367752016 0.01000000000000003
    vertex 0.0341446509688965 0.03690384065064685 0.005520616409829227
  endloop
endfacet
facet normal -0.512306 -0.858803 -0
  outer loop
    vertex 0.02938590112439488 0.03974259762377352 0.02
    vertex 0.02938590112439488 0.03974259762377352 0.009999999999999972
    vertex 0.03414465096889648 0.03690384065064686 0.0145064877347891
  endloop
endfacet
facet normal -0.512306 -0.858803 -1.28037e-16
  outer loop
    vertex 0.0341446509688965 0.03690384065064685 0.005520616409829227
    vertex 0.03890340081339811 0.03406508367752016 0.01000000000000003
    vertex 0.03414465096889648 0.03690384065064686 0.0145064877347891
  endloop
endfacet
facet normal -0.512306 -0.858803 -1.02069e-16
  outer loop
    vertex 0.02938590112439488 0.03974259762377352 0.009999999999999972
    vertex 0.0341446509688965 0.03690384065064685 0.005520616409829227
    vertex 0.03414465096889648 0.03690384065064686 0.0145064877347891
  endloop
endfacet
facet normal -0.512306 -0.858803 0
  outer loop
    vertex 0.03890340081339811 0.03406508367752016 0.01000000000000003
    vertex 0.03890340081339811 0.03406508367752016 0.02
    vertex 0.03414465096889648 0.03690384065064686 0.0145064877347891
  endloop
endfacet
facet normal -0.512306 -0.858803 -0
  outer loop
    vertex 0.02938590112439488 0.03974259762377352 0.009999999999999972
    vertex 0.02938590112439488 0.03974259762377352 0
    vertex 0.0341446509688965 0.03690384065064685 0.005520616409829227
  endloop
endfacet
facet normal -0.330773 0.94371 -8.79156e-16
  outer loop
    vertex 0.0227051754568962 0.02838756973126681 0.02
    vertex 0.03080428813514716 0.03122632670439349 0.02
    vertex 0.02956805086262934 0.03079302279602546 0.01236613020704906
  endloop
endfacet
facet normal -0.330773 0.94371 0
  outer loop
    vertex 0.0227051754568962 0.02838756973126681 0.01000000000000003
    vertex 0.0227051754568962 0.02838756973126681 0.02
    vertex 0.02956805086262934 0.03079302279602546 0.01236613020704906
  endloop
endfacet
facet normal -0.330773 0.94371 0
  outer loop
    vertex 0.03890340081339811 0.03406508367752016 0.02
    vertex 0.03890340081339811 0.03406508367752016 0.009999999999999972
    vertex 0.03471230246087587 0.032596094401049 0.01502573906500085
  endloop
endfacet
facet normal -0.330773 0.94371 0
  outer loop
    vertex 0.03890340081339811 0.03406508367752016 0.009999999999999972
    vertex 0.03890340081339811 0.03406508367752016 0
    vertex 0.03337134275346546 0.03212608504677548 0.006348202379018996
  endloop
endfacet
facet normal -0.330773 0.94371 0
  outer loop
    vertex 0.0227051754568962 0.02838756973126681 0
    vertex 0.0227051754568962 0.02838756973126681 0.01000000000000003
    vertex 0.02789037513014642 0.03020499372748066 0.005703775894122507
  endloop
endfacet
facet normal -0.330773 0.94371 9.95018e-16
  outer loop
    vertex 0.03890340081339811 0.03406508367752016 0
    vertex 0.03080428813514715 0.03122632670439348 0
    vertex 0.03337134275346546 0.03212608504677548 0.006348202379018996
  endloop
endfacet
facet normal -0.330773 0.94371 -3.89236e-17
  outer loop
    vertex 0.03337134275346546 0.03212608504677548 0.006348202379018996
    vertex 0.02956805086262934 0.03079302279602546 0.01236613020704906
    vertex 0.03471230246087587 0.032596094401049 0.01502573906500085
  endloop
endfacet
facet normal -0.330773 0.94371 1.48345e-16
  outer loop
    vertex 0.03890340081339811 0.03406508367752016 0.009999999999999972
    vertex 0.03337134275346546 0.03212608504677548 0.006348202379018996
    vertex 0.03471230246087587 0.032596094401049 0.01502573906500085
  endloop
endfacet
facet normal -0.330773 0.94371 -1.30953e-15
  outer loop
    vertex 0.03080428813514716 0.03122632670439349 0.02
    vertex 0.03890340081339811 0.03406508367752016 0.02
    vertex 0.03471230246087587 0.032596094401049 0.01502573906500085
  endloop
endfacet
facet normal -0.330773 0.94371 1.24587e-15
  outer loop
    vertex 0.03080428813514715 0.03122632670439348 0
    vertex 0.0227051754568962 0.02838756973126681 0
    vertex 0.02789037513014642 0.03020499372748066 0.005703775894122507
  endloop
endfacet
facet normal -0.330773 0.94371 -9.02332e-17
  outer loop
    vertex 0.02789037513014642 0.03020499372748066 0.005703775894122507
    vertex 0.02956805086262934 0.03079302279602546 0.01236613020704906
    vertex 0.03337134275346546 0.03212608504677548 0.006348202379018996
  endloop
endfacet
facet normal -0.330773 0.94371 -3.92466e-16
  outer loop
    vertex 0.02789037513014642 0.03020499372748066 0.005703775894122507
    vertex 0.0227051754568962 0.02838756973126681 0.01000000000000003
    vertex 0.02956805086262934 0.03079302279602546 0.01236613020704906
  endloop
endfacet
facet normal -0.330773 0.94371 -9.99674e-16
  outer loop
    vertex 0.02956805086262934 0.03079302279602546 0.01236613020704906
    vertex 0.03080428813514716 0.03122632670439349 0.02
    vertex 0.03471230246087587 0.032596094401049 0.01502573906500085
  endloop
endfacet
facet normal -0.330773 0.94371 1.09748e-15
  outer loop
    vertex 0.03080428813514715 0.03122632670439348 0
    vertex 0.02789037513014642 0.03020499372748066 0.005703775894122507
    vertex 0.03337134275346546 0.03212608504677548 0.006348202379018996
  endloop
endfacet
facet normal -0.545914 -0.837841 -1.95469e-16
  outer loop
    vertex 0.0227051754568962 0.02838756973126681 0
    vertex 0.0314187307169108 0.02271005578501344 0
    vertex 0.0270619530869035 0.02554881275814012 0.004999999999999986
  endloop
endfacet
facet normal -0.545914 -0.837841 1.95469e-16
  outer loop
    vertex 0.0314187307169108 0.02271005578501344 0.02
    vertex 0.0227051754568962 0.02838756973126681 0.02
    vertex 0.0270619530869035 0.02554881275814012 0.01500000000000001
  endloop
endfacet
facet normal -0.545914 -0.837841 0
  outer loop
    vertex 0.0227051754568962 0.02838756973126681 0.009999999999999972
    vertex 0.0270619530869035 0.02554881275814012 0.004999999999999986
    vertex 0.0270619530869035 0.02554881275814012 0.01500000000000001
  endloop
endfacet
facet normal -0.545914 -0.837841 0
  outer loop
    vertex 0.0270619530869035 0.02554881275814012 0.004999999999999986
    vertex 0.0314187307169108 0.02271005578501344 0.01000000000000003
    vertex 0.0270619530869035 0.02554881275814012 0.01500000000000001
  endloop
endfacet
facet normal -0.545914 -0.837841 -0
  outer loop
    vertex 0.0227051754568962 0.02838756973126681 0.02
    vertex 0.0227051754568962 0.02838756973126681 0.009999999999999972
    vertex 0.0270619530869035 0.02554881275814012 0.01500000000000001
  endloop
endfacet
facet normal -0.545914 -0.837841 0
  outer loop
    vertex 0.0314187307169108 0.02271005578501344 0
    vertex 0.0314187307169108 0.02271005578501344 0.01000000000000003
    vertex 0.0270619530869035 0.02554881275814012 0.004999999999999986
  endloop
endfacet
facet normal -0.545914 -0.837841 -0
  outer loop
    vertex 0.0227051754568962 0.02838756973126681 0.009999999999999972
    vertex 0.0227051754568962 0.02838756973126681 0
    vertex 0.0270619530869035 0.02554881275814012 0.004999999999999986
  endloop
endfacet
facet normal -0.545914 -0.837841 0
  outer loop
    vertex 0.0314187307169108 0.02271005578501344 0.01000000000000003
    vertex 0.0314187307169108 0.02271005578501344 0.02
    vertex 0.0270619530869035 0.02554881275814012 0.01500000000000001
  endloop
endfacet
facet normal -0.567968 -0.823051 -0
  outer loop
    vertex 0.0314187307169108 0.02271005578501344 0.02
    vertex 0.0314187307169108 0.02271005578501344 0.009999999999999972
    vertex 0.03553241411662383 0.01987129881188676 0.015
  endloop
endfacet
facet normal -0.567968 -0.823051 0
  outer loop
    vertex 0.03964609751633687 0.01703254183876008 0
    vertex 0.03964609751633687 0.01703254183876008 0.01000000000000003
    vertex 0.03553241411662383 0.01987129881188676 0.005
  endloop
endfacet
facet normal -0.567968 -0.823051 -0
  outer loop
    vertex 0.0314187307169108 0.02271005578501344 0.009999999999999972
    vertex 0.0314187307169108 0.02271005578501344 0
    vertex 0.03553241411662383 0.01987129881188676 0.005
  endloop
endfacet
facet normal -0.567968 -0.823051 0
  outer loop
    vertex 0.03964609751633687 0.01703254183876008 0.01000000000000003
    vertex 0.03964609751633687 0.01703254183876008 0.02
    vertex 0.03553241411662383 0.01987129881188676 0.015
  endloop
endfacet
facet normal -0.567968 -0.823051 0
  outer loop
    vertex 0.0314187307169108 0.02271005578501344 0
    vertex 0.03964609751633687 0.01703254183876008 0
    vertex 0.03553241411662383 0.01987129881188676 0.005
  endloop
endfacet
facet normal -0.567968 -0.823051 0
  outer loop
    vertex 0.03964609751633687 0.01703254183876008 0.01000000000000003
    vertex 0.0314187307169108 0.02271005578501344 0.009999999999999972
    vertex 0.03553241411662383 0.01987129881188676 0.005
  endloop
endfacet
facet normal -0.567968 -0.823051 0
  outer loop
    vertex 0.03964609751633687 0.01703254183876008 0.02
    vertex 0.0314187307169108 0.02271005578501344 0.02
    vertex 0.03553241411662383 0.01987129881188676 0.015
  endloop
endfacet
facet normal -0.567968 -0.823051 0
  outer loop
    vertex 0.0314187307169108 0.02271005578501344 0.009999999999999972
    vertex 0.03964609751633687 0.01703254183876008 0.01000000000000003
    vertex 0.03553241411662383 0.01987129881188676 0.015
  endloop
endfacet
facet normal -0.824399 0.56601 -7.37956e-16
  outer loop
    vertex 0.03574807230969405 0.01135502789250672 0.01000000000000003
    vertex 0.03964609751633687 0.01703254183876008 0.009999999999999972
    vertex 0.03769708491301546 0.0141937848656334 0.005
  endloop
endfacet
facet normal -0.824399 0.56601 7.87153e-16
  outer loop
    vertex 0.03964609751633687 0.01703254183876008 0.009999999999999972
    vertex 0.03574807230969405 0.01135502789250672 0.01000000000000003
    vertex 0.03769708491301546 0.0141937848656334 0.015
  endloop
endfacet
facet normal -0.824399 0.56601 -7.37956e-16
  outer loop
    vertex 0.03574807230969405 0.01135502789250672 0.02
    vertex 0.03964609751633687 0.01703254183876008 0.02
    vertex 0.03769708491301546 0.0141937848656334 0.015
  endloop
endfacet
facet normal -0.824399 0.56601 7.87153e-16
  outer loop
    vertex 0.03964609751633687 0.01703254183876008 0
    vertex 0.03574807230969405 0.01135502789250672 0
    vertex 0.03769708491301546 0.0141937848656334 0.005
  endloop
endfacet
facet normal -0.824399 0.56601 0
  outer loop
    vertex 0.03964609751633687 0.01703254183876008 0.009999999999999972
    vertex 0.03964609751633687 0.01703254183876008 0
    vertex 0.03769708491301546 0.0141937848656334 0.005
  endloop
endfacet
facet normal -0.824399 0.56601 0
  outer loop
    vertex 0.03964609751633687 0.01703254183876008 0.02
    vertex 0.03964609751633687 0.01703254183876008 0.009999999999999972
    vertex 0.03769708491301546 0.0141937848656334 0.015
  endloop
endfacet
facet normal -0.824399 0.56601 0
  outer loop
    vertex 0.03574807230969405 0.01135502789250672 0
    vertex 0.03574807230969405 0.01135502789250672 0.01000000000000003
    vertex 0.03769708491301546 0.0141937848656334 0.005
  endloop
endfacet
facet normal -0.824399 0.56601 0
  outer loop
    vertex 0.03574807230969405 0.01135502789250672 0.01000000000000003
    vertex 0.03574807230969405 0.01135502789250672 0.02
    vertex 0.03769708491301546 0.0141937848656334 0.015
  endloop
endfacet
facet normal -0.81962 0.572907 -7.33679e-16
  outer loop
    vertex 0.03574807230969405 0.01135502789250672 0
    vertex 0.03177954270432169 0.005677513946253362 0
    vertex 0.03376380750700787 0.008516270919380045 0.004999999999999999
  endloop
endfacet
facet normal -0.81962 0.572907 7.82591e-16
  outer loop
    vertex 0.03177954270432169 0.005677513946253362 0.02
    vertex 0.03574807230969405 0.01135502789250672 0.02
    vertex 0.03376380750700787 0.008516270919380045 0.015
  endloop
endfacet
facet normal -0.81962 0.572907 7.82591e-16
  outer loop
    vertex 0.03177954270432169 0.005677513946253362 0.01000000000000003
    vertex 0.03574807230969405 0.01135502789250672 0.009999999999999972
    vertex 0.03376380750700787 0.008516270919380045 0.004999999999999999
  endloop
endfacet
facet normal -0.81962 0.572907 -7.33679e-16
  outer loop
    vertex 0.03574807230969405 0.01135502789250672 0.009999999999999972
    vertex 0.03177954270432169 0.005677513946253362 0.01000000000000003
    vertex 0.03376380750700787 0.008516270919380045 0.015
  endloop
endfacet
facet normal -0.81962 0.572907 0
  outer loop
    vertex 0.03574807230969405 0.01135502789250672 0.009999999999999972
    vertex 0.03574807230969405 0.01135502789250672 0
    vertex 0.03376380750700787 0.008516270919380045 0.004999999999999999
  endloop
endfacet
facet normal -0.81962 0.572907 0
  outer loop
    vertex 0.03574807230969405 0.01135502789250672 0.02
    vertex 0.03574807230969405 0.01135502789250672 0.009999999999999972
    vertex 0.03376380750700787 0.008516270919380045 0.015
  endloop
endfacet
facet normal -0.81962 0.572907 0
  outer loop
    vertex 0.03177954270432169 0.005677513946253362 0
    vertex 0.03177954270432169 0.005677513946253362 0.01000000000000003
    vertex 0.03376380750700787 0.008516270919380045 0.004999999999999999
  endloop
endfacet
facet normal -0.81962 0.572907 0
  outer loop
    vertex 0.03177954270432169 0.005677513946253362 0.01000000000000003
    vertex 0.03177954270432169 0.005677513946253362 0.02
    vertex 0.03376380750700787 0.008516270919380045 0.015
  endloop
endfacet
endsolid Created by Gmsh
