solid Created by Gmsh
facet normal -0.486305 0.873789 -1.53681e-16
  outer loop
    vertex 0.02699357444212985 0.0450295735162148 0.01000000000000003
    vertex 0.03277277974243342 0.04824597162451585 0.02
    vertex 0.03855198504273701 0.05146236973281691 0.009999999999999972
  endloop
endfacet
facet normal -0.486305 0.873789 -1.53681e-16
  outer loop
    vertex 0.03277277974243343 0.04824597162451585 0
    vertex 0.02699357444212985 0.0450295735162148 0.01000000000000003
    vertex 0.03855198504273701 0.05146236973281691 0.009999999999999972
  endloop
endfacet
facet normal -0.486305 0.873789 0
  outer loop
    vertex 0.03277277974243343 0.04824597162451585 0
    vertex 0.03855198504273701 0.05146236973281691 0.009999999999999972
    vertex 0.03855198504273701 0.05146236973281691 0
  endloop
endfacet
facet normal -0.486305 0.873789 0
  outer loop
    vertex 0.03855198504273701 0.05146236973281691 0.009999999999999972
    vertex 0.03277277974243342 0.04824597162451585 0.02
    vertex 0.03855198504273701 0.05146236973281691 0.02
  endloop
endfacet
facet normal -0.486305 0.873789 0
  outer loop
    vertex 0.02699357444212985 0.0450295735162148 0.01000000000000003
    vertex 0.03277277974243343 0.04824597162451585 0
    vertex 0.02699357444212985 0.0450295735162148 0
  endloop
endfacet
facet normal -0.486305 0.873789 0
  outer loop
    vertex 0.03277277974243342 0.04824597162451585 0.02
    vertex 0.02699357444212985 0.0450295735162148 0.01000000000000003
    vertex 0.02699357444212985 0.0450295735162148 0.02
  endloop
endfacet
facet normal -0.595415 0.803419 3.9764e-16
  outer loop
    vertex 0.02699357444212985 0.0450295735162148 0
    vertex 0.01831352560603784 0.03859677729961268 0
    vertex 0.02265355002408384 0.04181317540791374 0.005520616409829228
  endloop
endfacet
facet normal -0.595415 0.803419 -1.25589e-15
  outer loop
    vertex 0.01831352560603784 0.03859677729961268 0.02
    vertex 0.02699357444212985 0.0450295735162148 0.02
    vertex 0.02265355002408386 0.04181317540791375 0.0145064877347891
  endloop
endfacet
facet normal -0.595415 0.803419 0
  outer loop
    vertex 0.01831352560603784 0.03859677729961268 0
    vertex 0.01831352560603784 0.03859677729961268 0.01000000000000003
    vertex 0.02265355002408384 0.04181317540791374 0.005520616409829228
  endloop
endfacet
facet normal -0.595415 0.803419 0
  outer loop
    vertex 0.02699357444212985 0.0450295735162148 0.02
    vertex 0.02699357444212985 0.0450295735162148 0.009999999999999972
    vertex 0.02265355002408386 0.04181317540791375 0.0145064877347891
  endloop
endfacet
facet normal -0.595415 0.803419 5.29048e-16
  outer loop
    vertex 0.02265355002408384 0.04181317540791374 0.005520616409829228
    vertex 0.01831352560603784 0.03859677729961268 0.01000000000000003
    vertex 0.02265355002408386 0.04181317540791375 0.0145064877347891
  endloop
endfacet
facet normal -0.595415 0.803419 5.23493e-16
  outer loop
    vertex 0.02699357444212985 0.0450295735162148 0.009999999999999972
    vertex 0.02265355002408384 0.04181317540791374 0.005520616409829228
    vertex 0.02265355002408386 0.04181317540791375 0.0145064877347891
  endloop
endfacet
facet normal -0.595415 0.803419 0
  outer loop
    vertex 0.01831352560603784 0.03859677729961268 0.01000000000000003
    vertex 0.01831352560603784 0.03859677729961268 0.02
    vertex 0.02265355002408386 0.04181317540791375 0.0145064877347891
  endloop
endfacet
facet normal -0.595415 0.803419 0
  outer loop
    vertex 0.02699357444212985 0.0450295735162148 0.009999999999999972
    vertex 0.02699357444212985 0.0450295735162148 0
    vertex 0.02265355002408384 0.04181317540791374 0.005520616409829228
  endloop
endfacet
facet normal -0.465929 -0.884822 0
  outer loop
    vertex 0.03052971263690966 0.03216398108301057 0
    vertex 0.03052971263690966 0.03216398108301057 0.01000000000000003
    vertex 0.02625404717610452 0.03441545975882131 0.005000000000000005
  endloop
endfacet
facet normal -0.465929 -0.884822 -0
  outer loop
    vertex 0.01831352560603784 0.03859677729961268 0.02
    vertex 0.01831352560603784 0.03859677729961268 0.009999999999999972
    vertex 0.02258919106684298 0.03634529862380194 0.015
  endloop
endfacet
facet normal -0.465929 -0.884822 -0
  outer loop
    vertex 0.01831352560603784 0.03859677729961268 0.009999999999999972
    vertex 0.01831352560603784 0.03859677729961268 0
    vertex 0.02234486732622554 0.03647395454813399 0.004999999999999998
  endloop
endfacet
facet normal -0.465929 -0.884822 0
  outer loop
    vertex 0.03052971263690966 0.03216398108301057 0.01000000000000003
    vertex 0.03052971263690966 0.03216398108301057 0.02
    vertex 0.02649837091672196 0.03428680383448927 0.01500000000000001
  endloop
endfacet
facet normal -0.465929 -0.884822 9.57073e-16
  outer loop
    vertex 0.02442161912147374 0.03538037919131163 0
    vertex 0.03052971263690966 0.03216398108301057 0
    vertex 0.02625404717610452 0.03441545975882131 0.005000000000000005
  endloop
endfacet
facet normal -0.465929 -0.884822 0
  outer loop
    vertex 0.02442161912147375 0.03538037919131162 0.02
    vertex 0.01831352560603784 0.03859677729961268 0.02
    vertex 0.02258919106684298 0.03634529862380194 0.015
  endloop
endfacet
facet normal -0.465929 -0.884822 -4.41726e-16
  outer loop
    vertex 0.03052971263690966 0.03216398108301057 0.02
    vertex 0.02442161912147375 0.03538037919131162 0.02
    vertex 0.02649837091672196 0.03428680383448927 0.01500000000000001
  endloop
endfacet
facet normal -0.465929 -0.884822 5.39887e-16
  outer loop
    vertex 0.01831352560603784 0.03859677729961268 0
    vertex 0.02442161912147374 0.03538037919131163 0
    vertex 0.02234486732622554 0.03647395454813399 0.004999999999999998
  endloop
endfacet
facet normal -0.465929 -0.884822 7.66886e-16
  outer loop
    vertex 0.02442161912147374 0.03538037919131163 0
    vertex 0.02625404717610452 0.03441545975882131 0.005000000000000005
    vertex 0.02234486732622554 0.03647395454813399 0.004999999999999998
  endloop
endfacet
facet normal -0.465929 -0.884822 -2.10894e-16
  outer loop
    vertex 0.02442161912147375 0.03538037919131162 0.02
    vertex 0.02258919106684298 0.03634529862380194 0.015
    vertex 0.02649837091672196 0.03428680383448927 0.01500000000000001
  endloop
endfacet
facet normal -0.465929 -0.884822 1.91721e-16
  outer loop
    vertex 0.02234486732622554 0.03647395454813399 0.004999999999999998
    vertex 0.02625404717610452 0.03441545975882131 0.005000000000000005
    vertex 0.02442161912147375 0.03538037919131163 0.01
  endloop
endfacet
facet normal -0.465929 -0.884822 -7.28541e-16
  outer loop
    vertex 0.02649837091672196 0.03428680383448927 0.01500000000000001
    vertex 0.02258919106684298 0.03634529862380194 0.015
    vertex 0.02442161912147375 0.03538037919131163 0.01
  endloop
endfacet
facet normal -0.465929 -0.884822 9.81613e-17
  outer loop
    vertex 0.01831352560603784 0.03859677729961268 0.009999999999999972
    vertex 0.02234486732622554 0.03647395454813399 0.004999999999999998
    vertex 0.02442161912147375 0.03538037919131163 0.01
  endloop
endfacet
facet normal -0.465929 -0.884822 -6.13508e-16
  outer loop
    vertex 0.02258919106684298 0.03634529862380194 0.015
    vertex 0.01831352560603784 0.03859677729961268 0.009999999999999972
    vertex 0.02442161912147375 0.03538037919131163 0.01
  endloop
endfacet
facet normal -0.465929 -0.884822 -2.94484e-16
  outer loop
    vertex 0.02625404717610452 0.03441545975882131 0.005000000000000005
    vertex 0.03052971263690966 0.03216398108301057 0.01000000000000003
    vertex 0.02442161912147375 0.03538037919131163 0.01
  endloop
endfacet
facet normal -0.465929 -0.884822 -1.47242e-16
  outer loop
    vertex 0.03052971263690966 0.03216398108301057 0.01000000000000003
    vertex 0.02649837091672196 0.03428680383448927 0.01500000000000001
    vertex 0.02442161912147375 0.03538037919131163 0.01
  endloop
endfacet
facet normal -0.677759 0.735284 0
  outer loop
    vertex 0.03052971263690966 0.03216398108301057 0.02
    vertex 0.03052971263690966 0.03216398108301057 0.009999999999999972
    vertex 0.0270403182724159 0.02894758297470951 0.015
  endloop
endfacet
facet normal -0.677759 0.735284 0
  outer loop
    vertex 0.02355092390792216 0.02573118486640846 0
    vertex 0.02355092390792216 0.02573118486640846 0.01000000000000003
    vertex 0.0270403182724159 0.02894758297470951 0.004999999999999999
  endloop
endfacet
facet normal -0.677759 0.735284 0
  outer loop
    vertex 0.03052971263690966 0.03216398108301057 0.009999999999999972
    vertex 0.03052971263690966 0.03216398108301057 0
    vertex 0.0270403182724159 0.02894758297470951 0.004999999999999999
  endloop
endfacet
facet normal -0.677759 0.735284 0
  outer loop
    vertex 0.02355092390792216 0.02573118486640846 0.01000000000000003
    vertex 0.02355092390792216 0.02573118486640846 0.02
    vertex 0.0270403182724159 0.02894758297470951 0.015
  endloop
endfacet
facet normal -0.677759 0.735284 -4.99762e-16
  outer loop
    vertex 0.03052971263690966 0.03216398108301057 0.009999999999999972
    vertex 0.02355092390792216 0.02573118486640846 0.01000000000000003
    vertex 0.0270403182724159 0.02894758297470951 0.015
  endloop
endfacet
facet normal -0.677759 0.735284 4.99762e-16
  outer loop
    vertex 0.02355092390792216 0.02573118486640846 0.01000000000000003
    vertex 0.03052971263690966 0.03216398108301057 0.009999999999999972
    vertex 0.0270403182724159 0.02894758297470951 0.004999999999999999
  endloop
endfacet
facet normal -0.677759 0.735284 -4.99762e-16
  outer loop
    vertex 0.03052971263690966 0.03216398108301057 0
    vertex 0.02355092390792216 0.02573118486640846 0
    vertex 0.0270403182724159 0.02894758297470951 0.004999999999999999
  endloop
endfacet
facet normal -0.677759 0.735284 4.99762e-16
  outer loop
    vertex 0.02355092390792216 0.02573118486640846 0.02
    vertex 0.03052971263690966 0.03216398108301057 0.02
    vertex 0.0270403182724159 0.02894758297470951 0.015
  endloop
endfacet
facet normal -0.760934 0.648829 0
  outer loop
    vertex 0.02355092390792216 0.02573118486640846 0.02
    vertex 0.02355092390792216 0.02573118486640846 0.009999999999999972
    vertex 0.0208083833668508 0.02251478675810739 0.015
  endloop
endfacet
facet normal -0.760934 0.648829 0
  outer loop
    vertex 0.01806584282577943 0.01929838864980634 0
    vertex 0.01806584282577943 0.01929838864980634 0.01000000000000003
    vertex 0.0208083833668508 0.02251478675810739 0.005000000000000001
  endloop
endfacet
facet normal -0.760934 0.648829 0
  outer loop
    vertex 0.02355092390792216 0.02573118486640846 0.009999999999999972
    vertex 0.02355092390792216 0.02573118486640846 0
    vertex 0.0208083833668508 0.02251478675810739 0.005000000000000001
  endloop
endfacet
facet normal -0.760934 0.648829 0
  outer loop
    vertex 0.01806584282577943 0.01929838864980634 0.01000000000000003
    vertex 0.01806584282577943 0.01929838864980634 0.02
    vertex 0.0208083833668508 0.02251478675810739 0.015
  endloop
endfacet
facet normal -0.760934 0.648829 -1.04203e-15
  outer loop
    vertex 0.01806584282577943 0.01929838864980634 0.02
    vertex 0.02355092390792216 0.02573118486640846 0.02
    vertex 0.0208083833668508 0.02251478675810739 0.015
  endloop
endfacet
facet normal -0.760934 0.648829 -1.04203e-15
  outer loop
    vertex 0.01806584282577943 0.01929838864980634 0.01000000000000003
    vertex 0.02355092390792216 0.02573118486640846 0.009999999999999972
    vertex 0.0208083833668508 0.02251478675810739 0.005000000000000001
  endloop
endfacet
facet normal -0.760934 0.648829 1.04203e-15
  outer loop
    vertex 0.02355092390792216 0.02573118486640846 0
    vertex 0.01806584282577943 0.01929838864980634 0
    vertex 0.0208083833668508 0.02251478675810739 0.005000000000000001
  endloop
endfacet
facet normal -0.760934 0.648829 1.04203e-15
  outer loop
    vertex 0.02355092390792216 0.02573118486640846 0.009999999999999972
    vertex 0.01806584282577943 0.01929838864980634 0.01000000000000003
    vertex 0.0208083833668508 0.02251478675810739 0.015
  endloop
endfacet
facet normal -0.389347 -0.921091 -1.06144e-15
  outer loop
    vertex 0.02567497776919946 0.01608199054150529 0
    vertex 0.0332841127126195 0.01286559243320423 0
    vertex 0.02510047010934658 0.01632483619532736 0.007896948107771763
  endloop
endfacet
facet normal -0.389347 -0.921091 0
  outer loop
    vertex 0.0332841127126195 0.01286559243320423 0
    vertex 0.0332841127126195 0.01286559243320423 0.01000000000000003
    vertex 0.02510047010934658 0.01632483619532736 0.007896948107771763
  endloop
endfacet
facet normal -0.389347 -0.921091 -1.03872e-15
  outer loop
    vertex 0.01806584282577943 0.01929838864980634 0
    vertex 0.02567497776919946 0.01608199054150529 0
    vertex 0.02510047010934658 0.01632483619532736 0.007896948107771763
  endloop
endfacet
facet normal -0.389347 -0.921091 -0
  outer loop
    vertex 0.01806584282577943 0.01929838864980634 0.009999999999999972
    vertex 0.01806584282577943 0.01929838864980634 0
    vertex 0.02510047010934658 0.01632483619532736 0.007896948107771763
  endloop
endfacet
facet normal -0.389347 -0.921091 0
  outer loop
    vertex 0.0332841127126195 0.01286559243320423 0.01000000000000003
    vertex 0.0332841127126195 0.01286559243320423 0.02
    vertex 0.02801143532868529 0.01509436478242284 0.01426502133323248
  endloop
endfacet
facet normal -0.389347 -0.921091 -0
  outer loop
    vertex 0.01806584282577943 0.01929838864980634 0.02
    vertex 0.01806584282577943 0.01929838864980634 0.009999999999999972
    vertex 0.02295914918702016 0.01722997726787358 0.014341099767309
  endloop
endfacet
facet normal -0.389347 -0.921091 1.71635e-15
  outer loop
    vertex 0.0332841127126195 0.01286559243320423 0.02
    vertex 0.02567497776919946 0.01608199054150529 0.02
    vertex 0.02801143532868529 0.01509436478242284 0.01426502133323248
  endloop
endfacet
facet normal -0.389347 -0.921091 -8.48183e-16
  outer loop
    vertex 0.02510047010934658 0.01632483619532736 0.007896948107771763
    vertex 0.0332841127126195 0.01286559243320423 0.01000000000000003
    vertex 0.02801143532868529 0.01509436478242284 0.01426502133323248
  endloop
endfacet
facet normal -0.389347 -0.921091 1.73943e-15
  outer loop
    vertex 0.02567497776919946 0.01608199054150529 0.02
    vertex 0.01806584282577943 0.01929838864980634 0.02
    vertex 0.02295914918702016 0.01722997726787358 0.014341099767309
  endloop
endfacet
facet normal -0.389347 -0.921091 -6.8792e-16
  outer loop
    vertex 0.02295914918702016 0.01722997726787358 0.014341099767309
    vertex 0.01806584282577943 0.01929838864980634 0.009999999999999972
    vertex 0.02510047010934658 0.01632483619532736 0.007896948107771763
  endloop
endfacet
facet normal -0.389347 -0.921091 -2.40839e-16
  outer loop
    vertex 0.02295914918702016 0.01722997726787358 0.014341099767309
    vertex 0.02510047010934658 0.01632483619532736 0.007896948107771763
    vertex 0.02801143532868529 0.01509436478242284 0.01426502133323248
  endloop
endfacet
facet normal -0.389347 -0.921091 1.76104e-15
  outer loop
    vertex 0.02567497776919946 0.01608199054150529 0.02
    vertex 0.02295914918702016 0.01722997726787358 0.014341099767309
    vertex 0.02801143532868529 0.01509436478242284 0.01426502133323248
  endloop
endfacet
facet normal -0.29423 0.955735 0
  outer loop
    vertex 0.01238870298018692 0.006432796216602116 0.01000000000000003
    vertex 0.01238870298018692 0.006432796216602116 0.02
    vertex 0.02043758632866783 0.008910700551333346 0.01176875923390093
  endloop
endfacet
facet normal -0.29423 0.955735 2.63578e-16
  outer loop
    vertex 0.01238870298018692 0.006432796216602116 0.02
    vertex 0.02283640784640319 0.009649194324903167 0.02
    vertex 0.02043758632866783 0.008910700551333346 0.01176875923390093
  endloop
endfacet
facet normal -0.29423 0.955735 8.43318e-17
  outer loop
    vertex 0.0332841127126195 0.01286559243320423 0
    vertex 0.02283640784640322 0.009649194324903181 0
    vertex 0.02621179667448767 0.01068833109038908 0.00735047118270861
  endloop
endfacet
facet normal -0.29423 0.955735 0
  outer loop
    vertex 0.0332841127126195 0.01286559243320423 0.009999999999999972
    vertex 0.0332841127126195 0.01286559243320423 0
    vertex 0.02621179667448767 0.01068833109038908 0.00735047118270861
  endloop
endfacet
facet normal -0.29423 0.955735 -2.47952e-16
  outer loop
    vertex 0.02283640784640322 0.009649194324903181 0
    vertex 0.01238870298018692 0.006432796216602116 0
    vertex 0.01759430416352155 0.008035376497443354 0.005000000000000015
  endloop
endfacet
facet normal -0.29423 0.955735 2.28258e-16
  outer loop
    vertex 0.02283640784640319 0.009649194324903167 0.02
    vertex 0.0332841127126195 0.01286559243320423 0.02
    vertex 0.02726000529974826 0.01101102935594738 0.01388967919995785
  endloop
endfacet
facet normal -0.29423 0.955735 0
  outer loop
    vertex 0.01238870298018692 0.006432796216602116 0
    vertex 0.01238870298018692 0.006432796216602116 0.01000000000000003
    vertex 0.01759430416352155 0.008035376497443354 0.005000000000000015
  endloop
endfacet
facet normal -0.29423 0.955735 0
  outer loop
    vertex 0.0332841127126195 0.01286559243320423 0.02
    vertex 0.0332841127126195 0.01286559243320423 0.009999999999999972
    vertex 0.02726000529974826 0.01101102935594738 0.01388967919995785
  endloop
endfacet
facet normal -0.29423 0.955735 8.76616e-17
  outer loop
    vertex 0.02621179667448767 0.01068833109038908 0.00735047118270861
    vertex 0.02283640784640322 0.009649194324903181 0
    vertex 0.01759430416352155 0.008035376497443354 0.005000000000000015
  endloop
endfacet
facet normal -0.29423 0.955735 7.83728e-17
  outer loop
    vertex 0.02043758632866783 0.008910700551333346 0.01176875923390093
    vertex 0.02621179667448767 0.01068833109038908 0.00735047118270861
    vertex 0.01759430416352155 0.008035376497443354 0.005000000000000015
  endloop
endfacet
facet normal -0.29423 0.955735 3.17036e-16
  outer loop
    vertex 0.02283640784640319 0.009649194324903167 0.02
    vertex 0.02726000529974826 0.01101102935594738 0.01388967919995785
    vertex 0.02043758632866783 0.008910700551333346 0.01176875923390093
  endloop
endfacet
facet normal -0.29423 0.955735 2.29183e-16
  outer loop
    vertex 0.01238870298018692 0.006432796216602116 0.01000000000000003
    vertex 0.02043758632866783 0.008910700551333346 0.01176875923390093
    vertex 0.01759430416352155 0.008035376497443354 0.005000000000000015
  endloop
endfacet
facet normal -0.29423 0.955735 -3.81948e-17
  outer loop
    vertex 0.02043758632866783 0.008910700551333346 0.01176875923390093
    vertex 0.02726000529974826 0.01101102935594738 0.01388967919995785
    vertex 0.02621179667448767 0.01068833109038908 0.00735047118270861
  endloop
endfacet
facet normal -0.29423 0.955735 -4.65572e-17
  outer loop
    vertex 0.02726000529974826 0.01101102935594738 0.01388967919995785
    vertex 0.0332841127126195 0.01286559243320423 0.009999999999999972
    vertex 0.02621179667448767 0.01068833109038908 0.00735047118270861
  endloop
endfacet
endsolid Created by Gmsh
