solid Created by Gmsh
facet normal -0.455289 -0.890344 -1.64542e-16
  outer loop
    vertex 0.03749999999999999 0.0421875 0
    vertex 0.04299999999999999 0.039375 0.01000000000000003
    vertex 0.032 0.045 0.009999999999999972
  endloop
endfacet
facet normal -0.455289 -0.890344 -1.64542e-16
  outer loop
    vertex 0.04299999999999999 0.039375 0.01000000000000003
    vertex 0.0375 0.0421875 0.02
    vertex 0.032 0.045 0.009999999999999972
  endloop
endfacet
facet normal -0.455289 -0.890344 0
  outer loop
    vertex 0.03749999999999999 0.0421875 0
    vertex 0.032 0.045 0.009999999999999972
    vertex 0.032 0.045 0
  endloop
endfacet
facet normal -0.455289 -0.890344 0
  outer loop
    vertex 0.032 0.045 0.009999999999999972
    vertex 0.0375 0.0421875 0.02
    vertex 0.032 0.045 0.02
  endloop
endfacet
facet normal -0.455289 -0.890344 -0
  outer loop
    vertex 0.04299999999999999 0.039375 0.01000000000000003
    vertex 0.03749999999999999 0.0421875 0
    vertex 0.04299999999999999 0.039375 0
  endloop
endfacet
facet normal -0.455289 -0.890344 0
  outer loop
    vertex 0.0375 0.0421875 0.02
    vertex 0.04299999999999999 0.039375 0.01000000000000003
    vertex 0.04299999999999999 0.039375 0.02
  endloop
endfacet
facet normal -0.203954 0.97898 0
  outer loop
    vertex 0.02499999999999998 0.035625 0.02
    vertex 0.03399999999999997 0.0375 0.02
    vertex 0.02949999999999998 0.0365625 0.01203842234541421
  endloop
endfacet
facet normal -0.203954 0.97898 0
  outer loop
    vertex 0.04299999999999999 0.039375 0.02
    vertex 0.04299999999999999 0.039375 0.009999999999999972
    vertex 0.03656282035998136 0.03803392090832945 0.013180867244295
  endloop
endfacet
facet normal -0.203954 0.97898 0
  outer loop
    vertex 0.016 0.03375 0.01000000000000003
    vertex 0.016 0.03375 0.02
    vertex 0.02243717964001862 0.03509107909167054 0.01318086724429502
  endloop
endfacet
facet normal -0.203954 0.97898 -1.89161e-16
  outer loop
    vertex 0.03399999999999997 0.0375 0.02
    vertex 0.04299999999999999 0.039375 0.02
    vertex 0.03656282035998136 0.03803392090832945 0.013180867244295
  endloop
endfacet
facet normal -0.203954 0.97898 -6.48551e-16
  outer loop
    vertex 0.016 0.03375 0.02
    vertex 0.02499999999999998 0.035625 0.02
    vertex 0.02243717964001862 0.03509107909167054 0.01318086724429502
  endloop
endfacet
facet normal -0.203954 0.97898 -4.94664e-16
  outer loop
    vertex 0.02949999999999999 0.0365625 0.004886006976090676
    vertex 0.02949999999999998 0.0365625 0.01203842234541421
    vertex 0.03675303190574632 0.03807354831369715 0.006373798186900196
  endloop
endfacet
facet normal -0.203954 0.97898 -4.94664e-16
  outer loop
    vertex 0.02949999999999998 0.0365625 0.01203842234541421
    vertex 0.02949999999999999 0.0365625 0.004886006976090676
    vertex 0.02224696809425366 0.03505145168630285 0.006373798186900199
  endloop
endfacet
facet normal -0.203954 0.97898 0
  outer loop
    vertex 0.016 0.03375 0
    vertex 0.016 0.03375 0.01000000000000003
    vertex 0.02224696809425366 0.03505145168630285 0.006373798186900199
  endloop
endfacet
facet normal -0.203954 0.97898 0
  outer loop
    vertex 0.04299999999999999 0.039375 0.009999999999999972
    vertex 0.04299999999999999 0.039375 0
    vertex 0.03675303190574632 0.03807354831369715 0.006373798186900196
  endloop
endfacet
facet normal -0.203954 0.97898 -3.77746e-16
  outer loop
    vertex 0.02949999999999998 0.0365625 0.01203842234541421
    vertex 0.03656282035998136 0.03803392090832945 0.013180867244295
    vertex 0.03675303190574632 0.03807354831369715 0.006373798186900196
  endloop
endfacet
facet normal -0.203954 0.97898 3.93843e-16
  outer loop
    vertex 0.02243717964001862 0.03509107909167054 0.01318086724429502
    vertex 0.02949999999999998 0.0365625 0.01203842234541421
    vertex 0.02224696809425366 0.03505145168630285 0.006373798186900199
  endloop
endfacet
facet normal -0.203954 0.97898 2.45744e-16
  outer loop
    vertex 0.02500000000000002 0.035625 0
    vertex 0.016 0.03375 0
    vertex 0.02224696809425366 0.03505145168630285 0.006373798186900199
  endloop
endfacet
facet normal -0.203954 0.97898 5.7822e-16
  outer loop
    vertex 0.04299999999999999 0.039375 0
    vertex 0.03400000000000001 0.03750000000000001 0
    vertex 0.03675303190574632 0.03807354831369715 0.006373798186900196
  endloop
endfacet
facet normal -0.203954 0.97898 -2.75922e-16
  outer loop
    vertex 0.02499999999999998 0.035625 0.02
    vertex 0.02949999999999998 0.0365625 0.01203842234541421
    vertex 0.02243717964001862 0.03509107909167054 0.01318086724429502
  endloop
endfacet
facet normal -0.203954 0.97898 -2.2723e-16
  outer loop
    vertex 0.02949999999999998 0.0365625 0.01203842234541421
    vertex 0.03399999999999997 0.0375 0.02
    vertex 0.03656282035998136 0.03803392090832945 0.013180867244295
  endloop
endfacet
facet normal -0.203954 0.97898 6.7886e-16
  outer loop
    vertex 0.03400000000000001 0.03750000000000001 0
    vertex 0.02500000000000002 0.035625 0
    vertex 0.02949999999999999 0.0365625 0.004886006976090676
  endloop
endfacet
facet normal -0.203954 0.97898 2.55853e-16
  outer loop
    vertex 0.02949999999999999 0.0365625 0.004886006976090676
    vertex 0.02500000000000002 0.035625 0
    vertex 0.02224696809425366 0.03505145168630285 0.006373798186900199
  endloop
endfacet
facet normal -0.203954 0.97898 7.28198e-16
  outer loop
    vertex 0.03400000000000001 0.03750000000000001 0
    vertex 0.02949999999999999 0.0365625 0.004886006976090676
    vertex 0.03675303190574632 0.03807354831369715 0.006373798186900196
  endloop
endfacet
facet normal -0.203954 0.97898 -3.81385e-16
  outer loop
    vertex 0.03656282035998136 0.03803392090832945 0.013180867244295
    vertex 0.04299999999999999 0.039375 0.009999999999999972
    vertex 0.03675303190574632 0.03807354831369715 0.006373798186900196
  endloop
endfacet
facet normal -0.203954 0.97898 3.45406e-16
  outer loop
    vertex 0.016 0.03375 0.01000000000000003
    vertex 0.02243717964001862 0.03509107909167054 0.01318086724429502
    vertex 0.02224696809425366 0.03505145168630285 0.006373798186900199
  endloop
endfacet
facet normal -0.203954 -0.97898 -1.62017e-16
  outer loop
    vertex 0.03400000000000002 0.03 0.02
    vertex 0.02500000000000002 0.03187499999999999 0.02
    vertex 0.02950000000000002 0.0309375 0.01203842234541421
  endloop
endfacet
facet normal -0.203954 -0.97898 -0
  outer loop
    vertex 0.016 0.03375 0.02
    vertex 0.016 0.03375 0.009999999999999972
    vertex 0.02243717964001863 0.03240892090832945 0.013180867244295
  endloop
endfacet
facet normal -0.203954 -0.97898 0
  outer loop
    vertex 0.04299999999999999 0.028125 0.01000000000000003
    vertex 0.04299999999999999 0.028125 0.02
    vertex 0.03656282035998137 0.02946607909167055 0.01318086724429502
  endloop
endfacet
facet normal -0.203954 -0.97898 -5.5397e-16
  outer loop
    vertex 0.02500000000000002 0.03187499999999999 0.02
    vertex 0.016 0.03375 0.02
    vertex 0.02243717964001863 0.03240892090832945 0.013180867244295
  endloop
endfacet
facet normal -0.203954 -0.97898 1.35115e-16
  outer loop
    vertex 0.04299999999999999 0.028125 0.02
    vertex 0.03400000000000002 0.03 0.02
    vertex 0.03656282035998137 0.02946607909167055 0.01318086724429502
  endloop
endfacet
facet normal -0.203954 -0.97898 2.17652e-16
  outer loop
    vertex 0.02949999999999999 0.0309375 0.004886006976090675
    vertex 0.02950000000000002 0.0309375 0.01203842234541421
    vertex 0.02224696809425367 0.03244854831369715 0.006373798186900196
  endloop
endfacet
facet normal -0.203954 -0.97898 2.17652e-16
  outer loop
    vertex 0.02950000000000002 0.0309375 0.01203842234541421
    vertex 0.02949999999999999 0.0309375 0.004886006976090675
    vertex 0.03675303190574633 0.02942645168630284 0.006373798186900198
  endloop
endfacet
facet normal -0.203954 -0.97898 0
  outer loop
    vertex 0.04299999999999999 0.028125 0
    vertex 0.04299999999999999 0.028125 0.01000000000000003
    vertex 0.03675303190574633 0.02942645168630284 0.006373798186900198
  endloop
endfacet
facet normal -0.203954 -0.97898 -0
  outer loop
    vertex 0.016 0.03375 0.009999999999999972
    vertex 0.016 0.03375 0
    vertex 0.02224696809425367 0.03244854831369715 0.006373798186900196
  endloop
endfacet
facet normal -0.203954 -0.97898 4.80768e-16
  outer loop
    vertex 0.02950000000000002 0.0309375 0.01203842234541421
    vertex 0.02243717964001863 0.03240892090832945 0.013180867244295
    vertex 0.02224696809425367 0.03244854831369715 0.006373798186900196
  endloop
endfacet
facet normal -0.203954 -0.97898 1.1268e-16
  outer loop
    vertex 0.03656282035998137 0.02946607909167055 0.01318086724429502
    vertex 0.02950000000000002 0.0309375 0.01203842234541421
    vertex 0.03675303190574633 0.02942645168630284 0.006373798186900198
  endloop
endfacet
facet normal -0.203954 -0.97898 -8.67331e-17
  outer loop
    vertex 0.03399999999999997 0.03 0
    vertex 0.04299999999999999 0.028125 0
    vertex 0.03675303190574633 0.02942645168630284 0.006373798186900198
  endloop
endfacet
facet normal -0.203954 -0.97898 -4.91487e-16
  outer loop
    vertex 0.016 0.03375 0
    vertex 0.02499999999999998 0.03187500000000001 0
    vertex 0.02224696809425367 0.03244854831369715 0.006373798186900196
  endloop
endfacet
facet normal -0.203954 -0.97898 -5.35613e-16
  outer loop
    vertex 0.02950000000000002 0.0309375 0.01203842234541421
    vertex 0.02500000000000002 0.03187499999999999 0.02
    vertex 0.02243717964001863 0.03240892090832945 0.013180867244295
  endloop
endfacet
facet normal -0.203954 -0.97898 1.37961e-16
  outer loop
    vertex 0.03400000000000002 0.03 0.02
    vertex 0.02950000000000002 0.0309375 0.01203842234541421
    vertex 0.03656282035998137 0.02946607909167055 0.01318086724429502
  endloop
endfacet
facet normal -0.203954 -0.97898 -3.77144e-16
  outer loop
    vertex 0.02499999999999998 0.03187500000000001 0
    vertex 0.03399999999999997 0.03 0
    vertex 0.02949999999999999 0.0309375 0.004886006976090675
  endloop
endfacet
facet normal -0.203954 -0.97898 -5.90431e-17
  outer loop
    vertex 0.02949999999999999 0.0309375 0.004886006976090675
    vertex 0.03399999999999997 0.03 0
    vertex 0.03675303190574633 0.02942645168630284 0.006373798186900198
  endloop
endfacet
facet normal -0.203954 -0.97898 -6.49474e-16
  outer loop
    vertex 0.02499999999999998 0.03187500000000001 0
    vertex 0.02949999999999999 0.0309375 0.004886006976090675
    vertex 0.02224696809425367 0.03244854831369715 0.006373798186900196
  endloop
endfacet
facet normal -0.203954 -0.97898 1.15135e-16
  outer loop
    vertex 0.04299999999999999 0.028125 0.01000000000000003
    vertex 0.03656282035998137 0.02946607909167055 0.01318086724429502
    vertex 0.03675303190574633 0.02942645168630284 0.006373798186900198
  endloop
endfacet
facet normal -0.203954 -0.97898 4.83328e-16
  outer loop
    vertex 0.02243717964001863 0.03240892090832945 0.013180867244295
    vertex 0.016 0.03375 0.009999999999999972
    vertex 0.02224696809425367 0.03244854831369715 0.006373798186900196
  endloop
endfacet
facet normal -1 0 0
  outer loop
    vertex 0.04299999999999999 0.028125 0
    vertex 0.04299999999999999 0.0225 0
    vertex 0.04299999999999999 0.0253125 0.005
  endloop
endfacet
facet normal -1 0 0
  outer loop
    vertex 0.04299999999999999 0.028125 0.009999999999999972
    vertex 0.04299999999999999 0.0225 0.01000000000000003
    vertex 0.04299999999999999 0.0253125 0.015
  endloop
endfacet
facet normal -1 0 0
  outer loop
    vertex 0.04299999999999999 0.0225 0.01000000000000003
    vertex 0.04299999999999999 0.028125 0.009999999999999972
    vertex 0.04299999999999999 0.0253125 0.005
  endloop
endfacet
facet normal -1 0 0
  outer loop
    vertex 0.04299999999999999 0.0225 0.02
    vertex 0.04299999999999999 0.028125 0.02
    vertex 0.04299999999999999 0.0253125 0.015
  endloop
endfacet
facet normal -1 0 -0
  outer loop
    vertex 0.04299999999999999 0.028125 0.009999999999999972
    vertex 0.04299999999999999 0.028125 0
    vertex 0.04299999999999999 0.0253125 0.005
  endloop
endfacet
facet normal -1 0 -0
  outer loop
    vertex 0.04299999999999999 0.028125 0.02
    vertex 0.04299999999999999 0.028125 0.009999999999999972
    vertex 0.04299999999999999 0.0253125 0.015
  endloop
endfacet
facet normal -1 0 0
  outer loop
    vertex 0.04299999999999999 0.0225 0
    vertex 0.04299999999999999 0.0225 0.01000000000000003
    vertex 0.04299999999999999 0.0253125 0.005
  endloop
endfacet
facet normal -1 0 0
  outer loop
    vertex 0.04299999999999999 0.0225 0.01000000000000003
    vertex 0.04299999999999999 0.0225 0.02
    vertex 0.04299999999999999 0.0253125 0.015
  endloop
endfacet
facet normal -0.270746 0.962651 0
  outer loop
    vertex 0.023 0.016875 0.01000000000000003
    vertex 0.023 0.016875 0.02
    vertex 0.03059162895927601 0.01901014564479638 0.01220336914062501
  endloop
endfacet
facet normal -0.270746 0.962651 8.36666e-17
  outer loop
    vertex 0.023 0.016875 0.02
    vertex 0.03299999999999999 0.0196875 0.02
    vertex 0.03059162895927601 0.01901014564479638 0.01220336914062501
  endloop
endfacet
facet normal -0.270746 0.962651 3.96896e-16
  outer loop
    vertex 0.04299999999999999 0.0225 0
    vertex 0.033 0.0196875 0
    vertex 0.03603008930760418 0.02053971261776368 0.007395958271422494
  endloop
endfacet
facet normal -0.270746 0.962651 0
  outer loop
    vertex 0.04299999999999999 0.0225 0.009999999999999972
    vertex 0.04299999999999999 0.0225 0
    vertex 0.03603008930760418 0.02053971261776368 0.007395958271422494
  endloop
endfacet
facet normal -0.270746 0.962651 -2.7312e-17
  outer loop
    vertex 0.03299999999999999 0.0196875 0.02
    vertex 0.04299999999999999 0.0225 0.02
    vertex 0.03717349007058989 0.02086129408235341 0.01402901028125179
  endloop
endfacet
facet normal -0.270746 0.962651 0
  outer loop
    vertex 0.033 0.0196875 0
    vertex 0.023 0.016875 0
    vertex 0.028 0.01828125 0.005000000000000015
  endloop
endfacet
facet normal -0.270746 0.962651 0
  outer loop
    vertex 0.04299999999999999 0.0225 0.02
    vertex 0.04299999999999999 0.0225 0.009999999999999972
    vertex 0.03717349007058989 0.02086129408235341 0.01402901028125179
  endloop
endfacet
facet normal -0.270746 0.962651 0
  outer loop
    vertex 0.023 0.016875 0
    vertex 0.023 0.016875 0.01000000000000003
    vertex 0.028 0.01828125 0.005000000000000015
  endloop
endfacet
facet normal -0.270746 0.962651 3.75397e-16
  outer loop
    vertex 0.03603008930760418 0.02053971261776368 0.007395958271422494
    vertex 0.033 0.0196875 0
    vertex 0.028 0.01828125 0.005000000000000015
  endloop
endfacet
facet normal -0.270746 0.962651 3.15836e-17
  outer loop
    vertex 0.03059162895927601 0.01901014564479638 0.01220336914062501
    vertex 0.03603008930760418 0.02053971261776368 0.007395958271422494
    vertex 0.028 0.01828125 0.005000000000000015
  endloop
endfacet
facet normal -0.270746 0.962651 1.3034e-16
  outer loop
    vertex 0.03299999999999999 0.0196875 0.02
    vertex 0.03717349007058989 0.02086129408235341 0.01402901028125179
    vertex 0.03059162895927601 0.01901014564479638 0.01220336914062501
  endloop
endfacet
facet normal -0.270746 0.962651 1.33194e-16
  outer loop
    vertex 0.023 0.016875 0.01000000000000003
    vertex 0.03059162895927601 0.01901014564479638 0.01220336914062501
    vertex 0.028 0.01828125 0.005000000000000015
  endloop
endfacet
facet normal -0.270746 0.962651 -1.96149e-16
  outer loop
    vertex 0.03059162895927601 0.01901014564479638 0.01220336914062501
    vertex 0.03717349007058989 0.02086129408235341 0.01402901028125179
    vertex 0.03603008930760418 0.02053971261776368 0.007395958271422494
  endloop
endfacet
facet normal -0.270746 0.962651 -1.03682e-16
  outer loop
    vertex 0.03717349007058989 0.02086129408235341 0.01402901028125179
    vertex 0.04299999999999999 0.0225 0.009999999999999972
    vertex 0.03603008930760418 0.02053971261776368 0.007395958271422494
  endloop
endfacet
facet normal -1 0 6.93889e-16
  outer loop
    vertex 0.023 0.016875 0
    vertex 0.023 0.01125 0
    vertex 0.023 0.0140625 0.005000000000000001
  endloop
endfacet
facet normal -1 6.84775e-30 6.93889e-16
  outer loop
    vertex 0.023 0.016875 0.009999999999999972
    vertex 0.023 0.01125 0.01000000000000003
    vertex 0.023 0.0140625 0.015
  endloop
endfacet
facet normal -1 0 -6.93889e-16
  outer loop
    vertex 0.023 0.01125 0.02
    vertex 0.023 0.016875 0.02
    vertex 0.023 0.0140625 0.015
  endloop
endfacet
facet normal -1 -6.84775e-30 -6.93889e-16
  outer loop
    vertex 0.023 0.01125 0.01000000000000003
    vertex 0.023 0.016875 0.009999999999999972
    vertex 0.023 0.0140625 0.005000000000000001
  endloop
endfacet
facet normal -1 -1.23358e-15 -0
  outer loop
    vertex 0.023 0.016875 0.009999999999999972
    vertex 0.023 0.016875 0
    vertex 0.023 0.0140625 0.005000000000000001
  endloop
endfacet
facet normal -1 -1.23358e-15 -0
  outer loop
    vertex 0.023 0.016875 0.02
    vertex 0.023 0.016875 0.009999999999999972
    vertex 0.023 0.0140625 0.015
  endloop
endfacet
facet normal -1 1.23358e-15 0
  outer loop
    vertex 0.023 0.01125 0
    vertex 0.023 0.01125 0.01000000000000003
    vertex 0.023 0.0140625 0.005000000000000001
  endloop
endfacet
facet normal -1 1.23358e-15 0
  outer loop
    vertex 0.023 0.01125 0.01000000000000003
    vertex 0.023 0.01125 0.02
    vertex 0.023 0.0140625 0.015
  endloop
endfacet
facet normal -0.747409 0.664364 0
  outer loop
    vertex 0.023 0.01125 0.02
    vertex 0.023 0.01125 0.009999999999999972
    vertex 0.0205 0.008437499999999997 0.015
  endloop
endfacet
facet normal -0.747409 0.664364 0
  outer loop
    vertex 0.018 0.005624999999999998 0
    vertex 0.018 0.005624999999999998 0.01000000000000003
    vertex 0.0205 0.008437499999999997 0.005
  endloop
endfacet
facet normal -0.747409 0.664364 0
  outer loop
    vertex 0.023 0.01125 0.009999999999999972
    vertex 0.023 0.01125 0
    vertex 0.0205 0.008437499999999997 0.005
  endloop
endfacet
facet normal -0.747409 0.664364 0
  outer loop
    vertex 0.018 0.005624999999999998 0.01000000000000003
    vertex 0.018 0.005624999999999998 0.02
    vertex 0.0205 0.008437499999999997 0.015
  endloop
endfacet
facet normal -0.747409 0.664364 0
  outer loop
    vertex 0.018 0.005624999999999998 0.02
    vertex 0.023 0.01125 0.02
    vertex 0.0205 0.008437499999999997 0.015
  endloop
endfacet
facet normal -0.747409 0.664364 0
  outer loop
    vertex 0.018 0.005624999999999998 0.01000000000000003
    vertex 0.023 0.01125 0.009999999999999972
    vertex 0.0205 0.008437499999999997 0.005
  endloop
endfacet
facet normal -0.747409 0.664364 0
  outer loop
    vertex 0.023 0.01125 0.009999999999999972
    vertex 0.018 0.005624999999999998 0.01000000000000003
    vertex 0.0205 0.008437499999999997 0.015
  endloop
endfacet
facet normal -0.747409 0.664364 0
  outer loop
    vertex 0.023 0.01125 0
    vertex 0.018 0.005624999999999998 0
    vertex 0.0205 0.008437499999999997 0.005
  endloop
endfacet
endsolid Created by Gmsh
