solid Created by Gmsh
facet normal 1 0 0
  outer loop
    vertex 0.04 0.05485318061922896 0.01000000000000003
    vertex 0.04 0.05742659030961448 0.005000000000000001
    vertex 0.04 0.06 0.009999999999999972
  endloop
endfacet
facet normal 1 0 0
  outer loop
    vertex 0.04 0.06 0.009999999999999972
    vertex 0.04 0.05742659030961448 0.015
    vertex 0.04 0.05485318061922896 0.01000000000000003
  endloop
endfacet
facet normal 1 -0 0
  outer loop
    vertex 0.04 0.05485318061922896 0.02
    vertex 0.04 0.05742659030961448 0.015
    vertex 0.04 0.06 0.02
  endloop
endfacet
facet normal 1 0 0
  outer loop
    vertex 0.04 0.06 0
    vertex 0.04 0.05742659030961448 0.005000000000000001
    vertex 0.04 0.05485318061922896 0
  endloop
endfacet
facet normal 1 0 0
  outer loop
    vertex 0.04 0.06 0.009999999999999972
    vertex 0.04 0.05742659030961448 0.005000000000000001
    vertex 0.04 0.06 0
  endloop
endfacet
facet normal 1 0 0
  outer loop
    vertex 0.04 0.06 0.02
    vertex 0.04 0.05742659030961448 0.015
    vertex 0.04 0.06 0.009999999999999972
  endloop
endfacet
facet normal 1 0 0
  outer loop
    vertex 0.04 0.05485318061922896 0
    vertex 0.04 0.05742659030961448 0.005000000000000001
    vertex 0.04 0.05485318061922896 0.01000000000000003
  endloop
endfacet
facet normal 1 0 0
  outer loop
    vertex 0.04 0.05485318061922896 0.01000000000000003
    vertex 0.04 0.05742659030961448 0.015
    vertex 0.04 0.05485318061922896 0.02
  endloop
endfacet
facet normal 0.627619 0.77852 3.93238e-16
  outer loop
    vertex 0.04850521636234083 0.04799653304182534 0.02
    vertex 0.04425260818117042 0.05142485683052715 0.01447938359017077
    vertex 0.04 0.05485318061922896 0.02
  endloop
endfacet
facet normal 0.627619 0.77852 0
  outer loop
    vertex 0.04 0.05485318061922896 0
    vertex 0.04425260818117043 0.05142485683052714 0.005493512265210901
    vertex 0.04850521636234083 0.04799653304182534 0
  endloop
endfacet
facet normal 0.627619 0.77852 0
  outer loop
    vertex 0.04 0.05485318061922896 0.02
    vertex 0.04425260818117042 0.05142485683052715 0.01447938359017077
    vertex 0.04 0.05485318061922896 0.009999999999999972
  endloop
endfacet
facet normal 0.627619 0.77852 -0
  outer loop
    vertex 0.04850521636234083 0.04799653304182534 0
    vertex 0.04425260818117043 0.05142485683052714 0.005493512265210901
    vertex 0.04850521636234083 0.04799653304182534 0.01000000000000003
  endloop
endfacet
facet normal 0.627619 0.77852 -2.33051e-16
  outer loop
    vertex 0.04425260818117042 0.05142485683052715 0.01447938359017077
    vertex 0.04425260818117043 0.05142485683052714 0.005493512265210901
    vertex 0.04 0.05485318061922896 0.009999999999999972
  endloop
endfacet
facet normal 0.627619 0.77852 -2.41592e-16
  outer loop
    vertex 0.04850521636234083 0.04799653304182534 0.01000000000000003
    vertex 0.04425260818117043 0.05142485683052714 0.005493512265210901
    vertex 0.04425260818117042 0.05142485683052715 0.01447938359017077
  endloop
endfacet
facet normal 0.627619 0.77852 0
  outer loop
    vertex 0.04 0.05485318061922896 0.009999999999999972
    vertex 0.04425260818117043 0.05142485683052714 0.005493512265210901
    vertex 0.04 0.05485318061922896 0
  endloop
endfacet
facet normal 0.627619 0.77852 -0
  outer loop
    vertex 0.04850521636234083 0.04799653304182534 0.01000000000000003
    vertex 0.04425260818117042 0.05142485683052715 0.01447938359017077
    vertex 0.04850521636234083 0.04799653304182534 0.02
  endloop
endfacet
facet normal 0.649619 -0.76026 0
  outer loop
    vertex 0.04850521636234083 0.04799653304182534 0
    vertex 0.04449299028508644 0.04456820925312353 0.005520616409829227
    vertex 0.04048076420783206 0.04113988546442172 0
  endloop
endfacet
facet normal 0.649619 -0.76026 -2.92164e-16
  outer loop
    vertex 0.04048076420783206 0.04113988546442172 0.02
    vertex 0.04449299028508646 0.04456820925312355 0.0145064877347891
    vertex 0.04850521636234083 0.04799653304182534 0.02
  endloop
endfacet
facet normal 0.649619 -0.76026 0
  outer loop
    vertex 0.04850521636234083 0.04799653304182534 0.02
    vertex 0.04449299028508646 0.04456820925312355 0.0145064877347891
    vertex 0.04850521636234083 0.04799653304182534 0.009999999999999972
  endloop
endfacet
facet normal 0.649619 -0.76026 0
  outer loop
    vertex 0.04048076420783206 0.04113988546442172 0
    vertex 0.04449299028508644 0.04456820925312353 0.005520616409829227
    vertex 0.04048076420783206 0.04113988546442172 0.01000000000000003
  endloop
endfacet
facet normal 0.649619 -0.76026 1.78615e-16
  outer loop
    vertex 0.04850521636234083 0.04799653304182534 0.009999999999999972
    vertex 0.04449299028508646 0.04456820925312355 0.0145064877347891
    vertex 0.04449299028508644 0.04456820925312353 0.005520616409829227
  endloop
endfacet
facet normal 0.649619 -0.76026 1.70874e-16
  outer loop
    vertex 0.04449299028508644 0.04456820925312353 0.005520616409829227
    vertex 0.04449299028508646 0.04456820925312355 0.0145064877347891
    vertex 0.04048076420783206 0.04113988546442172 0.01000000000000003
  endloop
endfacet
facet normal 0.649619 -0.76026 0
  outer loop
    vertex 0.04850521636234083 0.04799653304182534 0.009999999999999972
    vertex 0.04449299028508644 0.04456820925312353 0.005520616409829227
    vertex 0.04850521636234083 0.04799653304182534 0
  endloop
endfacet
facet normal 0.649619 -0.76026 0
  outer loop
    vertex 0.04048076420783206 0.04113988546442172 0.01000000000000003
    vertex 0.04449299028508646 0.04456820925312355 0.0145064877347891
    vertex 0.04048076420783206 0.04113988546442172 0.02
  endloop
endfacet
facet normal 0.811838 0.583883 0
  outer loop
    vertex 0.04048076420783206 0.04113988546442172 0.02
    vertex 0.04294645178406688 0.03771156167571991 0.015
    vertex 0.04048076420783206 0.04113988546442172 0.009999999999999972
  endloop
endfacet
facet normal 0.811838 0.583883 -0
  outer loop
    vertex 0.04541213936030171 0.0342832378870181 0
    vertex 0.04294645178406688 0.03771156167571991 0.005
    vertex 0.04541213936030171 0.0342832378870181 0.01000000000000003
  endloop
endfacet
facet normal 0.811838 0.583883 0
  outer loop
    vertex 0.04048076420783206 0.04113988546442172 0.009999999999999972
    vertex 0.04294645178406688 0.03771156167571991 0.005
    vertex 0.04048076420783206 0.04113988546442172 0
  endloop
endfacet
facet normal 0.811838 0.583883 -0
  outer loop
    vertex 0.04541213936030171 0.0342832378870181 0.01000000000000003
    vertex 0.04294645178406688 0.03771156167571991 0.015
    vertex 0.04541213936030171 0.0342832378870181 0.02
  endloop
endfacet
facet normal 0.811838 0.583883 -4.0116e-16
  outer loop
    vertex 0.04541213936030171 0.0342832378870181 0.01000000000000003
    vertex 0.04294645178406688 0.03771156167571991 0.005
    vertex 0.04048076420783206 0.04113988546442172 0.009999999999999972
  endloop
endfacet
facet normal 0.811838 0.583883 4.0116e-16
  outer loop
    vertex 0.04048076420783206 0.04113988546442172 0.009999999999999972
    vertex 0.04294645178406688 0.03771156167571991 0.015
    vertex 0.04541213936030171 0.0342832378870181 0.01000000000000003
  endloop
endfacet
facet normal 0.811838 0.583883 4.0116e-16
  outer loop
    vertex 0.04048076420783206 0.04113988546442172 0
    vertex 0.04294645178406688 0.03771156167571991 0.005
    vertex 0.04541213936030171 0.0342832378870181 0
  endloop
endfacet
facet normal 0.811838 0.583883 -4.0116e-16
  outer loop
    vertex 0.04541213936030171 0.0342832378870181 0.02
    vertex 0.04294645178406688 0.03771156167571991 0.015
    vertex 0.04048076420783206 0.04113988546442172 0.02
  endloop
endfacet
facet normal 0.353103 -0.935584 -7.83498e-16
  outer loop
    vertex 0.02724471134111877 0.02742659030961448 0.02
    vertex 0.03426465200257934 0.03007601647379672 0.01242834080260285
    vertex 0.03632842535071025 0.03085491409831629 0.02
  endloop
endfacet
facet normal 0.353103 -0.935584 0
  outer loop
    vertex 0.02724471134111877 0.02742659030961448 0.01000000000000003
    vertex 0.03426465200257934 0.03007601647379672 0.01242834080260285
    vertex 0.02724471134111877 0.02742659030961448 0.02
  endloop
endfacet
facet normal 0.353103 -0.935584 0
  outer loop
    vertex 0.04541213936030171 0.0342832378870181 0.009999999999999972
    vertex 0.03882542278691892 0.0317973166994817 0.007033584859758339
    vertex 0.04541213936030171 0.0342832378870181 0
  endloop
endfacet
facet normal 0.353103 -0.935584 6.94594e-16
  outer loop
    vertex 0.04541213936030171 0.0342832378870181 0
    vertex 0.03882542278691892 0.0317973166994817 0.007033584859758339
    vertex 0.03632842535071023 0.03085491409831629 0
  endloop
endfacet
facet normal 0.353103 -0.935584 0
  outer loop
    vertex 0.04541213936030171 0.0342832378870181 0.02
    vertex 0.04048378849294638 0.0324232076725284 0.01459891164540963
    vertex 0.04541213936030171 0.0342832378870181 0.009999999999999972
  endloop
endfacet
facet normal 0.353103 -0.935584 0
  outer loop
    vertex 0.02724471134111877 0.02742659030961448 0
    vertex 0.03264849284065728 0.02946605485509149 0.005837144484631115
    vertex 0.02724471134111877 0.02742659030961448 0.01000000000000003
  endloop
endfacet
facet normal 0.353103 -0.935584 -1.2922e-16
  outer loop
    vertex 0.03632842535071025 0.03085491409831629 0.02
    vertex 0.04048378849294638 0.0324232076725284 0.01459891164540963
    vertex 0.04541213936030171 0.0342832378870181 0.02
  endloop
endfacet
facet normal 0.353103 -0.935584 3.28808e-16
  outer loop
    vertex 0.03632842535071023 0.03085491409831629 0
    vertex 0.03264849284065728 0.02946605485509149 0.005837144484631115
    vertex 0.02724471134111877 0.02742659030961448 0
  endloop
endfacet
facet normal 0.353103 -0.935584 -4.94067e-16
  outer loop
    vertex 0.04541213936030171 0.0342832378870181 0.009999999999999972
    vertex 0.04048378849294638 0.0324232076725284 0.01459891164540963
    vertex 0.03882542278691892 0.0317973166994817 0.007033584859758339
  endloop
endfacet
facet normal 0.353103 -0.935584 3.83648e-16
  outer loop
    vertex 0.03264849284065728 0.02946605485509149 0.005837144484631115
    vertex 0.03426465200257934 0.03007601647379672 0.01242834080260285
    vertex 0.02724471134111877 0.02742659030961448 0.01000000000000003
  endloop
endfacet
facet normal 0.353103 -0.935584 -4.46846e-16
  outer loop
    vertex 0.03882542278691892 0.0317973166994817 0.007033584859758339
    vertex 0.04048378849294638 0.0324232076725284 0.01459891164540963
    vertex 0.03426465200257934 0.03007601647379672 0.01242834080260285
  endloop
endfacet
facet normal 0.353103 -0.935584 -6.50944e-16
  outer loop
    vertex 0.03426465200257934 0.03007601647379672 0.01242834080260285
    vertex 0.04048378849294638 0.0324232076725284 0.01459891164540963
    vertex 0.03632842535071025 0.03085491409831629 0.02
  endloop
endfacet
facet normal 0.353103 -0.935584 4.70009e-16
  outer loop
    vertex 0.03264849284065728 0.02946605485509149 0.005837144484631115
    vertex 0.03882542278691892 0.0317973166994817 0.007033584859758339
    vertex 0.03426465200257934 0.03007601647379672 0.01242834080260285
  endloop
endfacet
facet normal 0.353103 -0.935584 5.19063e-16
  outer loop
    vertex 0.03632842535071023 0.03085491409831629 0
    vertex 0.03882542278691892 0.0317973166994817 0.007033584859758339
    vertex 0.03264849284065728 0.02946605485509149 0.005837144484631115
  endloop
endfacet
facet normal 0.460037 0.8879 -3.81442e-16
  outer loop
    vertex 0.03386159381287052 0.02399826652091266 0
    vertex 0.03399663223066136 0.02392830072930651 0.007449416227534728
    vertex 0.04047847628462224 0.02056994273221086 0
  endloop
endfacet
facet normal 0.460037 0.8879 -3.66184e-16
  outer loop
    vertex 0.02724471134111877 0.02742659030961448 0
    vertex 0.03399663223066136 0.02392830072930651 0.007449416227534728
    vertex 0.03386159381287052 0.02399826652091266 0
  endloop
endfacet
facet normal 0.460037 0.8879 -0
  outer loop
    vertex 0.04047847628462224 0.02056994273221086 0
    vertex 0.03399663223066136 0.02392830072930651 0.007449416227534728
    vertex 0.04047847628462224 0.02056994273221086 0.01000000000000003
  endloop
endfacet
facet normal 0.460037 0.8879 0
  outer loop
    vertex 0.02724471134111877 0.02742659030961448 0.009999999999999972
    vertex 0.03399663223066136 0.02392830072930651 0.007449416227534728
    vertex 0.02724471134111877 0.02742659030961448 0
  endloop
endfacet
facet normal 0.460037 0.8879 0
  outer loop
    vertex 0.02724471134111877 0.02742659030961448 0.02
    vertex 0.03187652907134498 0.02502676365752322 0.01466695193532268
    vertex 0.02724471134111877 0.02742659030961448 0.009999999999999972
  endloop
endfacet
facet normal 0.460037 0.8879 -0
  outer loop
    vertex 0.04047847628462224 0.02056994273221086 0.01000000000000003
    vertex 0.03643311111165915 0.02266591794646967 0.01458805259469392
    vertex 0.04047847628462224 0.02056994273221086 0.02
  endloop
endfacet
facet normal 0.460037 0.8879 2.94026e-16
  outer loop
    vertex 0.04047847628462224 0.02056994273221086 0.02
    vertex 0.03643311111165915 0.02266591794646967 0.01458805259469392
    vertex 0.03386159381287049 0.02399826652091268 0.02
  endloop
endfacet
facet normal 0.460037 0.8879 1.91813e-16
  outer loop
    vertex 0.03386159381287049 0.02399826652091268 0.02
    vertex 0.03187652907134498 0.02502676365752322 0.01466695193532268
    vertex 0.02724471134111877 0.02742659030961448 0.02
  endloop
endfacet
facet normal 0.460037 0.8879 2.06868e-16
  outer loop
    vertex 0.03187652907134498 0.02502676365752322 0.01466695193532268
    vertex 0.03643311111165915 0.02266591794646967 0.01458805259469392
    vertex 0.03399663223066136 0.02392830072930651 0.007449416227534728
  endloop
endfacet
facet normal 0.460037 0.8879 3.53637e-16
  outer loop
    vertex 0.03386159381287049 0.02399826652091268 0.02
    vertex 0.03643311111165915 0.02266591794646967 0.01458805259469392
    vertex 0.03187652907134498 0.02502676365752322 0.01466695193532268
  endloop
endfacet
facet normal 0.460037 0.8879 3.75504e-17
  outer loop
    vertex 0.03399663223066136 0.02392830072930651 0.007449416227534728
    vertex 0.03643311111165915 0.02266591794646967 0.01458805259469392
    vertex 0.04047847628462224 0.02056994273221086 0.01000000000000003
  endloop
endfacet
facet normal 0.460037 0.8879 1.90951e-16
  outer loop
    vertex 0.03187652907134498 0.02502676365752322 0.01466695193532268
    vertex 0.03399663223066136 0.02392830072930651 0.007449416227534728
    vertex 0.02724471134111877 0.02742659030961448 0.009999999999999972
  endloop
endfacet
facet normal 0.650117 -0.759834 1.28019e-15
  outer loop
    vertex 0.04047847628462224 0.02056994273221086 0
    vertex 0.03647157500257802 0.01714161894350905 0.005520616409829229
    vertex 0.03246467372053381 0.01371329515480724 0
  endloop
endfacet
facet normal 0.650117 -0.759834 -1.28651e-15
  outer loop
    vertex 0.03246467372053381 0.01371329515480724 0.02
    vertex 0.03647157500257802 0.01714161894350905 0.01450648773478912
    vertex 0.04047847628462224 0.02056994273221086 0.02
  endloop
endfacet
facet normal 0.650117 -0.759834 0
  outer loop
    vertex 0.03647157500257802 0.01714161894350905 0.005520616409829229
    vertex 0.03647157500257802 0.01714161894350905 0.01450648773478912
    vertex 0.03246467372053381 0.01371329515480724 0.01000000000000003
  endloop
endfacet
facet normal 0.650117 -0.759834 0
  outer loop
    vertex 0.04047847628462224 0.02056994273221086 0.009999999999999972
    vertex 0.03647157500257802 0.01714161894350905 0.01450648773478912
    vertex 0.03647157500257802 0.01714161894350905 0.005520616409829229
  endloop
endfacet
facet normal 0.650117 -0.759834 0
  outer loop
    vertex 0.04047847628462224 0.02056994273221086 0.02
    vertex 0.03647157500257802 0.01714161894350905 0.01450648773478912
    vertex 0.04047847628462224 0.02056994273221086 0.009999999999999972
  endloop
endfacet
facet normal 0.650117 -0.759834 0
  outer loop
    vertex 0.03246467372053381 0.01371329515480724 0
    vertex 0.03647157500257802 0.01714161894350905 0.005520616409829229
    vertex 0.03246467372053381 0.01371329515480724 0.01000000000000003
  endloop
endfacet
facet normal 0.650117 -0.759834 0
  outer loop
    vertex 0.04047847628462224 0.02056994273221086 0.009999999999999972
    vertex 0.03647157500257802 0.01714161894350905 0.005520616409829229
    vertex 0.04047847628462224 0.02056994273221086 0
  endloop
endfacet
facet normal 0.650117 -0.759834 0
  outer loop
    vertex 0.03246467372053381 0.01371329515480724 0.01000000000000003
    vertex 0.03647157500257802 0.01714161894350905 0.01450648773478912
    vertex 0.03246467372053381 0.01371329515480724 0.02
  endloop
endfacet
facet normal 0.679028 -0.734113 -2.68427e-16
  outer loop
    vertex 0.02505179518656133 0.006856647577403618 0.02
    vertex 0.02875823445354757 0.01028497136610543 0.01500000000000002
    vertex 0.03246467372053381 0.01371329515480724 0.02
  endloop
endfacet
facet normal 0.679028 -0.734113 2.68427e-16
  outer loop
    vertex 0.03246467372053381 0.01371329515480724 0
    vertex 0.02875823445354755 0.01028497136610541 0.005000000000000014
    vertex 0.02505179518656133 0.006856647577403618 0
  endloop
endfacet
facet normal 0.679028 -0.734113 0
  outer loop
    vertex 0.03246467372053381 0.01371329515480724 0.02
    vertex 0.02875823445354757 0.01028497136610543 0.01500000000000002
    vertex 0.03246467372053381 0.01371329515480724 0.009999999999999972
  endloop
endfacet
facet normal 0.679028 -0.734113 0
  outer loop
    vertex 0.02505179518656133 0.006856647577403618 0
    vertex 0.02875823445354755 0.01028497136610541 0.005000000000000014
    vertex 0.02505179518656133 0.006856647577403618 0.01000000000000003
  endloop
endfacet
facet normal 0.679028 -0.734113 -1.26802e-17
  outer loop
    vertex 0.02875823445354757 0.01028497136610543 0.01500000000000002
    vertex 0.02875823445354755 0.01028497136610541 0.005000000000000014
    vertex 0.03246467372053381 0.01371329515480724 0.009999999999999972
  endloop
endfacet
facet normal 0.679028 -0.734113 -3.35534e-17
  outer loop
    vertex 0.02505179518656133 0.006856647577403618 0.01000000000000003
    vertex 0.02875823445354755 0.01028497136610541 0.005000000000000014
    vertex 0.02875823445354757 0.01028497136610543 0.01500000000000002
  endloop
endfacet
facet normal 0.679028 -0.734113 0
  outer loop
    vertex 0.03246467372053381 0.01371329515480724 0.009999999999999972
    vertex 0.02875823445354755 0.01028497136610541 0.005000000000000014
    vertex 0.03246467372053381 0.01371329515480724 0
  endloop
endfacet
facet normal 0.679028 -0.734113 0
  outer loop
    vertex 0.02505179518656133 0.006856647577403618 0.01000000000000003
    vertex 0.02875823445354757 0.01028497136610543 0.01500000000000002
    vertex 0.02505179518656133 0.006856647577403618 0.02
  endloop
endfacet
endsolid Created by Gmsh
