solid Created by Gmsh
facet normal 1 0 0
  outer loop
    vertex 0.04 0.05485318061922896 0.01000000000000003
    vertex 0.04 0.05742659030961448 0.005000000000000001
    vertex 0.04 0.06 0.009999999999999972
  endloop
endfacet
facet normal 1 0 0
  outer loop
    vertex 0.04 0.06 0.009999999999999972
    vertex 0.04 0.05742659030961448 0.015
    vertex 0.04 0.05485318061922896 0.01000000000000003
  endloop
endfacet
facet normal 1 -0 0
  outer loop
    vertex 0.04 0.05485318061922896 0.02
    vertex 0.04 0.05742659030961448 0.015
    vertex 0.04 0.06 0.02
  endloop
endfacet
facet normal 1 0 0
  outer loop
    vertex 0.04 0.06 0
    vertex 0.04 0.05742659030961448 0.005000000000000001
    vertex 0.04 0.05485318061922896 0
  endloop
endfacet
facet normal 1 0 0
  outer loop
    vertex 0.04 0.06 0.009999999999999972
    vertex 0.04 0.05742659030961448 0.005000000000000001
    vertex 0.04 0.06 0
  endloop
endfacet
facet normal 1 0 0
  outer loop
    vertex 0.04 0.06 0.02
    vertex 0.04 0.05742659030961448 0.015
    vertex 0.04 0.06 0.009999999999999972
  endloop
endfacet
facet normal 1 0 0
  outer loop
    vertex 0.04 0.05485318061922896 0
    vertex 0.04 0.05742659030961448 0.005000000000000001
    vertex 0.04 0.05485318061922896 0.01000000000000003
  endloop
endfacet
facet normal 1 0 0
  outer loop
    vertex 0.04 0.05485318061922896 0.01000000000000003
    vertex 0.04 0.05742659030961448 0.015
    vertex 0.04 0.05485318061922896 0.02
  endloop
endfacet
facet normal 0.438118 0.898918 1.15571e-15
  outer loop
    vertex 0.04703414108486882 0.05142485683052715 0
    vertex 0.04694564755929706 0.05146798710829714 0.007984593189974765
    vertex 0.05406828216973764 0.04799653304182534 0
  endloop
endfacet
facet normal 0.438118 0.898918 1.13877e-15
  outer loop
    vertex 0.04 0.05485318061922896 0
    vertex 0.04694564755929706 0.05146798710829714 0.007984593189974765
    vertex 0.04703414108486882 0.05142485683052715 0
  endloop
endfacet
facet normal 0.438118 0.898918 -0
  outer loop
    vertex 0.05406828216973764 0.04799653304182534 0
    vertex 0.04694564755929706 0.05146798710829714 0.007984593189974765
    vertex 0.05406828216973764 0.04799653304182534 0.01000000000000003
  endloop
endfacet
facet normal 0.438118 0.898918 0
  outer loop
    vertex 0.04 0.05485318061922896 0.009999999999999972
    vertex 0.04694564755929706 0.05146798710829714 0.007984593189974765
    vertex 0.04 0.05485318061922896 0
  endloop
endfacet
facet normal 0.438118 0.898918 0
  outer loop
    vertex 0.04 0.05485318061922896 0.02
    vertex 0.0446618792961429 0.05258105791111281 0.0143911128900025
    vertex 0.04 0.05485318061922896 0.009999999999999972
  endloop
endfacet
facet normal 0.438118 0.898918 -0
  outer loop
    vertex 0.05406828216973764 0.04799653304182534 0.01000000000000003
    vertex 0.04935564645595682 0.05029339358671756 0.01447514121599546
    vertex 0.05406828216973764 0.04799653304182534 0.02
  endloop
endfacet
facet normal 0.438118 0.898918 -8.62066e-16
  outer loop
    vertex 0.05406828216973764 0.04799653304182534 0.02
    vertex 0.04935564645595682 0.05029339358671756 0.01447514121599546
    vertex 0.04703414108486882 0.05142485683052715 0.02
  endloop
endfacet
facet normal 0.438118 0.898918 -1.42812e-15
  outer loop
    vertex 0.04703414108486882 0.05142485683052715 0.02
    vertex 0.0446618792961429 0.05258105791111281 0.0143911128900025
    vertex 0.04 0.05485318061922896 0.02
  endloop
endfacet
facet normal 0.438118 0.898918 3.24455e-16
  outer loop
    vertex 0.0446618792961429 0.05258105791111281 0.0143911128900025
    vertex 0.04694564755929706 0.05146798710829714 0.007984593189974765
    vertex 0.04 0.05485318061922896 0.009999999999999972
  endloop
endfacet
facet normal 0.438118 0.898918 -4.52883e-16
  outer loop
    vertex 0.0446618792961429 0.05258105791111281 0.0143911128900025
    vertex 0.04935564645595682 0.05029339358671756 0.01447514121599546
    vertex 0.04694564755929706 0.05146798710829714 0.007984593189974765
  endloop
endfacet
facet normal 0.438118 0.898918 -2.20845e-16
  outer loop
    vertex 0.04694564755929706 0.05146798710829714 0.007984593189974765
    vertex 0.04935564645595682 0.05029339358671756 0.01447514121599546
    vertex 0.05406828216973764 0.04799653304182534 0.01000000000000003
  endloop
endfacet
facet normal 0.438118 0.898918 -1.15112e-15
  outer loop
    vertex 0.04703414108486882 0.05142485683052715 0.02
    vertex 0.04935564645595682 0.05029339358671756 0.01447514121599546
    vertex 0.0446618792961429 0.05258105791111281 0.0143911128900025
  endloop
endfacet
facet normal 0.939061 0.343752 -1.29927e-15
  outer loop
    vertex 0.05406828216973764 0.04799653304182534 0.009999999999999972
    vertex 0.05532325136602163 0.04456820925312353 0.015
    vertex 0.05657822056230561 0.04113988546442172 0.01000000000000003
  endloop
endfacet
facet normal 0.939061 0.343752 1.34567e-15
  outer loop
    vertex 0.05657822056230561 0.04113988546442172 0.01000000000000003
    vertex 0.05532325136602163 0.04456820925312353 0.005
    vertex 0.05406828216973764 0.04799653304182534 0.009999999999999972
  endloop
endfacet
facet normal 0.939061 0.343752 1.34567e-15
  outer loop
    vertex 0.05657822056230561 0.04113988546442172 0.02
    vertex 0.05532325136602163 0.04456820925312353 0.015
    vertex 0.05406828216973764 0.04799653304182534 0.02
  endloop
endfacet
facet normal 0.939061 0.343752 -1.29927e-15
  outer loop
    vertex 0.05406828216973764 0.04799653304182534 0
    vertex 0.05532325136602163 0.04456820925312353 0.005
    vertex 0.05657822056230561 0.04113988546442172 0
  endloop
endfacet
facet normal 0.939061 0.343752 0
  outer loop
    vertex 0.05406828216973764 0.04799653304182534 0.009999999999999972
    vertex 0.05532325136602163 0.04456820925312353 0.005
    vertex 0.05406828216973764 0.04799653304182534 0
  endloop
endfacet
facet normal 0.939061 0.343752 0
  outer loop
    vertex 0.05406828216973764 0.04799653304182534 0.02
    vertex 0.05532325136602163 0.04456820925312353 0.015
    vertex 0.05406828216973764 0.04799653304182534 0.009999999999999972
  endloop
endfacet
facet normal 0.939061 0.343752 -0
  outer loop
    vertex 0.05657822056230561 0.04113988546442172 0
    vertex 0.05532325136602163 0.04456820925312353 0.005
    vertex 0.05657822056230561 0.04113988546442172 0.01000000000000003
  endloop
endfacet
facet normal 0.939061 0.343752 -0
  outer loop
    vertex 0.05657822056230561 0.04113988546442172 0.01000000000000003
    vertex 0.05532325136602163 0.04456820925312353 0.015
    vertex 0.05657822056230561 0.04113988546442172 0.02
  endloop
endfacet
facet normal 0.369748 -0.929132 1.52347e-15
  outer loop
    vertex 0.05657822056230561 0.04113988546442172 0
    vertex 0.04958981694522196 0.03835885303254159 0.007675361145526375
    vertex 0.04796325077955475 0.03771156167571992 0
  endloop
endfacet
facet normal 0.369748 -0.929132 0
  outer loop
    vertex 0.05657822056230561 0.04113988546442172 0.009999999999999972
    vertex 0.04958981694522196 0.03835885303254159 0.007675361145526375
    vertex 0.05657822056230561 0.04113988546442172 0
  endloop
endfacet
facet normal 0.369748 -0.929132 0
  outer loop
    vertex 0.03934828099680386 0.0342832378870181 0.01000000000000003
    vertex 0.04572793778213767 0.03682201976002068 0.0131979308649969
    vertex 0.03934828099680386 0.0342832378870181 0.02
  endloop
endfacet
facet normal 0.369748 -0.929132 -4.83488e-16
  outer loop
    vertex 0.03934828099680386 0.0342832378870181 0.02
    vertex 0.04572793778213767 0.03682201976002068 0.0131979308649969
    vertex 0.04796325077955473 0.03771156167571991 0.02
  endloop
endfacet
facet normal 0.369748 -0.929132 0
  outer loop
    vertex 0.05657822056230561 0.04113988546442172 0.02
    vertex 0.05134703061962764 0.03905813551335297 0.01421849871797769
    vertex 0.05657822056230561 0.04113988546442172 0.009999999999999972
  endloop
endfacet
facet normal 0.369748 -0.929132 0
  outer loop
    vertex 0.03934828099680386 0.0342832378870181 0
    vertex 0.0436557658881793 0.03599739978136901 0.005000000000000014
    vertex 0.03934828099680386 0.0342832378870181 0.01000000000000003
  endloop
endfacet
facet normal 0.369748 -0.929132 -1.32728e-15
  outer loop
    vertex 0.04796325077955473 0.03771156167571991 0.02
    vertex 0.05134703061962764 0.03905813551335297 0.01421849871797769
    vertex 0.05657822056230561 0.04113988546442172 0.02
  endloop
endfacet
facet normal 0.369748 -0.929132 9.13533e-16
  outer loop
    vertex 0.04796325077955475 0.03771156167571992 0
    vertex 0.0436557658881793 0.03599739978136901 0.005000000000000014
    vertex 0.03934828099680386 0.0342832378870181 0
  endloop
endfacet
facet normal 0.369748 -0.929132 -2.06774e-16
  outer loop
    vertex 0.03934828099680386 0.0342832378870181 0.01000000000000003
    vertex 0.0436557658881793 0.03599739978136901 0.005000000000000014
    vertex 0.04572793778213767 0.03682201976002068 0.0131979308649969
  endloop
endfacet
facet normal 0.369748 -0.929132 -3.83432e-16
  outer loop
    vertex 0.04572793778213767 0.03682201976002068 0.0131979308649969
    vertex 0.0436557658881793 0.03599739978136901 0.005000000000000014
    vertex 0.04958981694522196 0.03835885303254159 0.007675361145526375
  endloop
endfacet
facet normal 0.369748 -0.929132 -5.66991e-17
  outer loop
    vertex 0.05134703061962764 0.03905813551335297 0.01421849871797769
    vertex 0.04958981694522196 0.03835885303254159 0.007675361145526375
    vertex 0.05657822056230561 0.04113988546442172 0.009999999999999972
  endloop
endfacet
facet normal 0.369748 -0.929132 1.43285e-15
  outer loop
    vertex 0.04958981694522196 0.03835885303254159 0.007675361145526375
    vertex 0.0436557658881793 0.03599739978136901 0.005000000000000014
    vertex 0.04796325077955475 0.03771156167571992 0
  endloop
endfacet
facet normal 0.369748 -0.929132 -7.20101e-16
  outer loop
    vertex 0.05134703061962764 0.03905813551335297 0.01421849871797769
    vertex 0.04572793778213767 0.03682201976002068 0.0131979308649969
    vertex 0.04958981694522196 0.03835885303254159 0.007675361145526375
  endloop
endfacet
facet normal 0.369748 -0.929132 -7.66418e-16
  outer loop
    vertex 0.04796325077955473 0.03771156167571991 0.02
    vertex 0.04572793778213767 0.03682201976002068 0.0131979308649969
    vertex 0.05134703061962764 0.03905813551335297 0.01421849871797769
  endloop
endfacet
facet normal 0.969755 0.244082 6.7087e-16
  outer loop
    vertex 0.04107406320877304 0.02742659030961448 0.02
    vertex 0.04021117210278845 0.03085491409831629 0.015
    vertex 0.03934828099680386 0.0342832378870181 0.02
  endloop
endfacet
facet normal 0.969755 0.244082 -6.9483e-16
  outer loop
    vertex 0.03934828099680386 0.0342832378870181 0
    vertex 0.04021117210278845 0.03085491409831629 0.005000000000000001
    vertex 0.04107406320877304 0.02742659030961448 0
  endloop
endfacet
facet normal 0.969755 0.244082 -6.9483e-16
  outer loop
    vertex 0.03934828099680386 0.0342832378870181 0.009999999999999972
    vertex 0.04021117210278845 0.03085491409831629 0.015
    vertex 0.04107406320877304 0.02742659030961448 0.01000000000000003
  endloop
endfacet
facet normal 0.969755 0.244082 6.7087e-16
  outer loop
    vertex 0.04107406320877304 0.02742659030961448 0.01000000000000003
    vertex 0.04021117210278845 0.03085491409831629 0.005000000000000001
    vertex 0.03934828099680386 0.0342832378870181 0.009999999999999972
  endloop
endfacet
facet normal 0.969755 0.244082 0
  outer loop
    vertex 0.03934828099680386 0.0342832378870181 0.009999999999999972
    vertex 0.04021117210278845 0.03085491409831629 0.005000000000000001
    vertex 0.03934828099680386 0.0342832378870181 0
  endloop
endfacet
facet normal 0.969755 0.244082 0
  outer loop
    vertex 0.03934828099680386 0.0342832378870181 0.02
    vertex 0.04021117210278845 0.03085491409831629 0.015
    vertex 0.03934828099680386 0.0342832378870181 0.009999999999999972
  endloop
endfacet
facet normal 0.969755 0.244082 -0
  outer loop
    vertex 0.04107406320877304 0.02742659030961448 0
    vertex 0.04021117210278845 0.03085491409831629 0.005000000000000001
    vertex 0.04107406320877304 0.02742659030961448 0.01000000000000003
  endloop
endfacet
facet normal 0.969755 0.244082 -0
  outer loop
    vertex 0.04107406320877304 0.02742659030961448 0.01000000000000003
    vertex 0.04021117210278845 0.03085491409831629 0.015
    vertex 0.04107406320877304 0.02742659030961448 0.02
  endloop
endfacet
facet normal 0.809812 0.58669 -0
  outer loop
    vertex 0.04604154209201906 0.02056994273221086 0
    vertex 0.04355780265039605 0.02399826652091267 0.004999999999999999
    vertex 0.04604154209201906 0.02056994273221086 0.01000000000000003
  endloop
endfacet
facet normal 0.809812 0.58669 0
  outer loop
    vertex 0.04107406320877304 0.02742659030961448 0.02
    vertex 0.04355780265039605 0.02399826652091267 0.015
    vertex 0.04107406320877304 0.02742659030961448 0.009999999999999972
  endloop
endfacet
facet normal 0.809812 0.58669 -0
  outer loop
    vertex 0.04604154209201906 0.02056994273221086 0.01000000000000003
    vertex 0.04355780265039605 0.02399826652091267 0.015
    vertex 0.04604154209201906 0.02056994273221086 0.02
  endloop
endfacet
facet normal 0.809812 0.58669 0
  outer loop
    vertex 0.04107406320877304 0.02742659030961448 0.009999999999999972
    vertex 0.04355780265039605 0.02399826652091267 0.004999999999999999
    vertex 0.04107406320877304 0.02742659030961448 0
  endloop
endfacet
facet normal 0.809812 0.58669 4.00159e-16
  outer loop
    vertex 0.04107406320877304 0.02742659030961448 0.009999999999999972
    vertex 0.04355780265039605 0.02399826652091267 0.015
    vertex 0.04604154209201906 0.02056994273221086 0.01000000000000003
  endloop
endfacet
facet normal 0.809812 0.58669 -4.80191e-16
  outer loop
    vertex 0.04604154209201906 0.02056994273221086 0.01000000000000003
    vertex 0.04355780265039605 0.02399826652091267 0.004999999999999999
    vertex 0.04107406320877304 0.02742659030961448 0.009999999999999972
  endloop
endfacet
facet normal 0.809812 0.58669 -4.80191e-16
  outer loop
    vertex 0.04604154209201906 0.02056994273221086 0.02
    vertex 0.04355780265039605 0.02399826652091267 0.015
    vertex 0.04107406320877304 0.02742659030961448 0.02
  endloop
endfacet
facet normal 0.809812 0.58669 4.00159e-16
  outer loop
    vertex 0.04107406320877304 0.02742659030961448 0
    vertex 0.04355780265039605 0.02399826652091267 0.004999999999999999
    vertex 0.04604154209201906 0.02056994273221086 0
  endloop
endfacet
facet normal 0.587034 0.809563 5.06341e-16
  outer loop
    vertex 0.04604154209201906 0.02056994273221086 0
    vertex 0.0507694522048151 0.01714161894350905 0.005728862973760924
    vertex 0.05549736231761115 0.01371329515480724 0
  endloop
endfacet
facet normal 0.587034 0.809563 -8.78125e-16
  outer loop
    vertex 0.05549736231761115 0.01371329515480724 0.02
    vertex 0.05076945220481509 0.01714161894350905 0.01405396560956743
    vertex 0.04604154209201906 0.02056994273221086 0.02
  endloop
endfacet
facet normal 0.587034 0.809563 -0
  outer loop
    vertex 0.05549736231761115 0.01371329515480724 0
    vertex 0.0507694522048151 0.01714161894350905 0.005728862973760924
    vertex 0.05549736231761115 0.01371329515480724 0.01000000000000003
  endloop
endfacet
facet normal 0.587034 0.809563 0
  outer loop
    vertex 0.04604154209201906 0.02056994273221086 0.02
    vertex 0.05076945220481509 0.01714161894350905 0.01405396560956743
    vertex 0.04604154209201906 0.02056994273221086 0.009999999999999972
  endloop
endfacet
facet normal 0.587034 0.809563 3.03811e-16
  outer loop
    vertex 0.0507694522048151 0.01714161894350905 0.005728862973760924
    vertex 0.05076945220481509 0.01714161894350905 0.01405396560956743
    vertex 0.05549736231761115 0.01371329515480724 0.01000000000000003
  endloop
endfacet
facet normal 0.587034 0.809563 -0
  outer loop
    vertex 0.05549736231761115 0.01371329515480724 0.01000000000000003
    vertex 0.05076945220481509 0.01714161894350905 0.01405396560956743
    vertex 0.05549736231761115 0.01371329515480724 0.02
  endloop
endfacet
facet normal 0.587034 0.809563 2.78748e-16
  outer loop
    vertex 0.04604154209201906 0.02056994273221086 0.009999999999999972
    vertex 0.05076945220481509 0.01714161894350905 0.01405396560956743
    vertex 0.0507694522048151 0.01714161894350905 0.005728862973760924
  endloop
endfacet
facet normal 0.587034 0.809563 0
  outer loop
    vertex 0.04604154209201906 0.02056994273221086 0.009999999999999972
    vertex 0.0507694522048151 0.01714161894350905 0.005728862973760924
    vertex 0.04604154209201906 0.02056994273221086 0
  endloop
endfacet
facet normal 0.281348 -0.959606 -1.10606e-16
  outer loop
    vertex 0.03990649620247311 0.009142196769871491 0.02
    vertex 0.04380421273125762 0.01028497136610543 0.01245841435529553
    vertex 0.04770192926004213 0.01142774596233936 0.02
  endloop
endfacet
facet normal 0.281348 -0.959606 0
  outer loop
    vertex 0.04380421273125762 0.01028497136610543 0.01245841435529553
    vertex 0.03819186141568156 0.00863948163866737 0.006870878878546123
    vertex 0.04380421273125762 0.01028497136610543 0.00495655514944914
  endloop
endfacet
facet normal 0.281348 -0.959606 0
  outer loop
    vertex 0.04380421273125762 0.01028497136610543 0.00495655514944914
    vertex 0.04941656404683369 0.01193046109354349 0.006870878878546112
    vertex 0.04380421273125762 0.01028497136610543 0.01245841435529553
  endloop
endfacet
facet normal 0.281348 -0.959606 0
  outer loop
    vertex 0.05549736231761115 0.01371329515480724 0.02
    vertex 0.05019430492322245 0.01215848755709623 0.01381030376653203
    vertex 0.05549736231761115 0.01371329515480724 0.009999999999999972
  endloop
endfacet
facet normal 0.281348 -0.959606 0
  outer loop
    vertex 0.0321110631449041 0.006856647577403618 0.01000000000000003
    vertex 0.03741412053929281 0.008411455175114633 0.01381030376653204
    vertex 0.0321110631449041 0.006856647577403618 0.02
  endloop
endfacet
facet normal 0.281348 -0.959606 0
  outer loop
    vertex 0.0321110631449041 0.006856647577403618 0
    vertex 0.03819186141568156 0.00863948163866737 0.006870878878546123
    vertex 0.0321110631449041 0.006856647577403618 0.01000000000000003
  endloop
endfacet
facet normal 0.281348 -0.959606 0
  outer loop
    vertex 0.05549736231761115 0.01371329515480724 0.009999999999999972
    vertex 0.04941656404683369 0.01193046109354349 0.006870878878546112
    vertex 0.05549736231761115 0.01371329515480724 0
  endloop
endfacet
facet normal 0.281348 -0.959606 1.12651e-16
  outer loop
    vertex 0.04380421273125762 0.01028497136610543 0.01245841435529553
    vertex 0.04941656404683369 0.01193046109354349 0.006870878878546112
    vertex 0.05019430492322245 0.01215848755709623 0.01381030376653203
  endloop
endfacet
facet normal 0.281348 -0.959606 -1.7367e-16
  outer loop
    vertex 0.03741412053929281 0.008411455175114633 0.01381030376653204
    vertex 0.03819186141568156 0.00863948163866737 0.006870878878546123
    vertex 0.04380421273125762 0.01028497136610543 0.01245841435529553
  endloop
endfacet
facet normal 0.281348 -0.959606 -1.853e-16
  outer loop
    vertex 0.04770192926004213 0.01142774596233936 0.02
    vertex 0.05019430492322245 0.01215848755709623 0.01381030376653203
    vertex 0.05549736231761115 0.01371329515480724 0.02
  endloop
endfacet
facet normal 0.281348 -0.959606 3.3691e-17
  outer loop
    vertex 0.0321110631449041 0.006856647577403618 0.02
    vertex 0.03741412053929281 0.008411455175114633 0.01381030376653204
    vertex 0.03990649620247311 0.009142196769871491 0.02
  endloop
endfacet
facet normal 0.281348 -0.959606 1.6693e-16
  outer loop
    vertex 0.03990649620247311 0.009142196769871491 0
    vertex 0.03819186141568156 0.00863948163866737 0.006870878878546123
    vertex 0.0321110631449041 0.006856647577403618 0
  endloop
endfacet
facet normal 0.281348 -0.959606 6.07017e-17
  outer loop
    vertex 0.05549736231761115 0.01371329515480724 0
    vertex 0.04941656404683369 0.01193046109354349 0.006870878878546112
    vertex 0.04770192926004213 0.01142774596233936 0
  endloop
endfacet
facet normal 0.281348 -0.959606 2.10365e-16
  outer loop
    vertex 0.04770192926004213 0.01142774596233936 0
    vertex 0.04380421273125762 0.01028497136610543 0.00495655514944914
    vertex 0.03990649620247311 0.009142196769871491 0
  endloop
endfacet
facet normal 0.281348 -0.959606 -1.70433e-16
  outer loop
    vertex 0.04380421273125762 0.01028497136610543 0.01245841435529553
    vertex 0.05019430492322245 0.01215848755709623 0.01381030376653203
    vertex 0.04770192926004213 0.01142774596233936 0.02
  endloop
endfacet
facet normal 0.281348 -0.959606 -3.78741e-17
  outer loop
    vertex 0.03990649620247311 0.009142196769871491 0.02
    vertex 0.03741412053929281 0.008411455175114633 0.01381030376653204
    vertex 0.04380421273125762 0.01028497136610543 0.01245841435529553
  endloop
endfacet
facet normal 0.281348 -0.959606 1.84315e-16
  outer loop
    vertex 0.04380421273125762 0.01028497136610543 0.00495655514944914
    vertex 0.03819186141568156 0.00863948163866737 0.006870878878546123
    vertex 0.03990649620247311 0.009142196769871491 0
  endloop
endfacet
facet normal 0.281348 -0.959606 1.03677e-16
  outer loop
    vertex 0.04770192926004213 0.01142774596233936 0
    vertex 0.04941656404683369 0.01193046109354349 0.006870878878546112
    vertex 0.04380421273125762 0.01028497136610543 0.00495655514944914
  endloop
endfacet
facet normal 0.281348 -0.959606 1.22648e-16
  outer loop
    vertex 0.05019430492322245 0.01215848755709623 0.01381030376653203
    vertex 0.04941656404683369 0.01193046109354349 0.006870878878546112
    vertex 0.05549736231761115 0.01371329515480724 0.009999999999999972
  endloop
endfacet
facet normal 0.281348 -0.959606 -2.04413e-16
  outer loop
    vertex 0.0321110631449041 0.006856647577403618 0.01000000000000003
    vertex 0.03819186141568156 0.00863948163866737 0.006870878878546123
    vertex 0.03741412053929281 0.008411455175114633 0.01381030376653204
  endloop
endfacet
endsolid Created by Gmsh
