solid Created by Gmsh
facet normal 1 0 0
  outer loop
    vertex 0.04 0.05853062303251147 0
    vertex 0.04 0.06 0
    vertex 0.04 0.06 0.009999999999999972
  endloop
endfacet
facet normal 1 0 0
  outer loop
    vertex 0.04 0.05853062303251147 0.01000000000000003
    vertex 0.04 0.06 0.02
    vertex 0.04 0.05853062303251147 0.02
  endloop
endfacet
facet normal 1 0 -0
  outer loop
    vertex 0.04 0.06 0.009999999999999972
    vertex 0.04 0.06 0.02
    vertex 0.04 0.05853062303251147 0.01000000000000003
  endloop
endfacet
facet normal 1 0 0
  outer loop
    vertex 0.04 0.05853062303251147 0
    vertex 0.04 0.06 0.009999999999999972
    vertex 0.04 0.05853062303251147 0.01000000000000003
  endloop
endfacet
facet normal 0.499094 0.866548 2.4683e-16
  outer loop
    vertex 0.04 0.05853062303251147 0
    vertex 0.04648107049797272 0.05479780268605028 0.007491051988941196
    vertex 0.04635144908801326 0.05487245909297951 0
  endloop
endfacet
facet normal 0.499094 0.866548 2.89253e-16
  outer loop
    vertex 0.04635144908801326 0.05487245909297951 0
    vertex 0.04648107049797272 0.05479780268605028 0.007491051988941196
    vertex 0.05270289817602654 0.05121429515344754 0
  endloop
endfacet
facet normal 0.499094 0.866548 0
  outer loop
    vertex 0.04 0.05853062303251147 0.009999999999999972
    vertex 0.04648107049797272 0.05479780268605028 0.007491051988941196
    vertex 0.04 0.05853062303251147 0
  endloop
endfacet
facet normal 0.499094 0.866548 -0
  outer loop
    vertex 0.05270289817602654 0.05121429515344754 0
    vertex 0.04648107049797272 0.05479780268605028 0.007491051988941196
    vertex 0.05270289817602654 0.05121429515344754 0.01000000000000003
  endloop
endfacet
facet normal 0.499094 0.866548 0
  outer loop
    vertex 0.04 0.05853062303251147 0.02
    vertex 0.04444601436160929 0.05596990827483909 0.01469415396610824
    vertex 0.04 0.05853062303251147 0.009999999999999972
  endloop
endfacet
facet normal 0.499094 0.866548 -0
  outer loop
    vertex 0.05270289817602654 0.05121429515344754 0.01000000000000003
    vertex 0.04881981108052688 0.05345078780102729 0.01459788656500707
    vertex 0.05270289817602654 0.05121429515344754 0.02
  endloop
endfacet
facet normal 0.499094 0.866548 -8.27654e-16
  outer loop
    vertex 0.04635144908801328 0.0548724590929795 0.02
    vertex 0.04444601436160929 0.05596990827483909 0.01469415396610824
    vertex 0.04 0.05853062303251147 0.02
  endloop
endfacet
facet normal 0.499094 0.866548 8.55689e-17
  outer loop
    vertex 0.05270289817602654 0.05121429515344754 0.02
    vertex 0.04881981108052688 0.05345078780102729 0.01459788656500707
    vertex 0.04635144908801328 0.0548724590929795 0.02
  endloop
endfacet
facet normal 0.499094 0.866548 1.87548e-16
  outer loop
    vertex 0.04444601436160929 0.05596990827483909 0.01469415396610824
    vertex 0.04881981108052688 0.05345078780102729 0.01459788656500707
    vertex 0.04648107049797272 0.05479780268605028 0.007491051988941196
  endloop
endfacet
facet normal 0.499094 0.866548 -3.60876e-16
  outer loop
    vertex 0.04635144908801328 0.0548724590929795 0.02
    vertex 0.04881981108052688 0.05345078780102729 0.01459788656500707
    vertex 0.04444601436160929 0.05596990827483909 0.01469415396610824
  endloop
endfacet
facet normal 0.499094 0.866548 6.17871e-16
  outer loop
    vertex 0.04444601436160929 0.05596990827483909 0.01469415396610824
    vertex 0.04648107049797272 0.05479780268605028 0.007491051988941196
    vertex 0.04 0.05853062303251147 0.009999999999999972
  endloop
endfacet
facet normal 0.499094 0.866548 -1.53116e-16
  outer loop
    vertex 0.04648107049797272 0.05479780268605028 0.007491051988941196
    vertex 0.04881981108052688 0.05345078780102729 0.01459788656500707
    vertex 0.05270289817602654 0.05121429515344754 0.01000000000000003
  endloop
endfacet
facet normal 0.542437 -0.840097 0
  outer loop
    vertex 0.05270289817602654 0.05121429515344754 0.02
    vertex 0.04873700338395564 0.04865358039577516 0.01499999999999999
    vertex 0.05270289817602654 0.05121429515344754 0.009999999999999972
  endloop
endfacet
facet normal 0.542437 -0.840097 0
  outer loop
    vertex 0.0413717701986811 0.0438979672743836 0
    vertex 0.04533766499075201 0.04645868203205598 0.004999999999999999
    vertex 0.0413717701986811 0.0438979672743836 0.01000000000000003
  endloop
endfacet
facet normal 0.542437 -0.840097 0
  outer loop
    vertex 0.05270289817602654 0.05121429515344754 0.009999999999999972
    vertex 0.04896362594350255 0.04879990695335644 0.004999999999999991
    vertex 0.05270289817602654 0.05121429515344754 0
  endloop
endfacet
facet normal 0.542437 -0.840097 0
  outer loop
    vertex 0.0413717701986811 0.0438979672743836 0.01000000000000003
    vertex 0.0451110424312051 0.0463123554744747 0.015
    vertex 0.0413717701986811 0.0438979672743836 0.02
  endloop
endfacet
facet normal 0.542437 -0.840097 1.13039e-15
  outer loop
    vertex 0.04703733418735381 0.04755613121391557 0.02
    vertex 0.04873700338395564 0.04865358039577516 0.01499999999999999
    vertex 0.05270289817602654 0.05121429515344754 0.02
  endloop
endfacet
facet normal 0.542437 -0.840097 -7.78714e-16
  outer loop
    vertex 0.04703733418735383 0.04755613121391557 0
    vertex 0.04533766499075201 0.04645868203205598 0.004999999999999999
    vertex 0.0413717701986811 0.0438979672743836 0
  endloop
endfacet
facet normal 0.542437 -0.840097 8.03834e-16
  outer loop
    vertex 0.0413717701986811 0.0438979672743836 0.02
    vertex 0.0451110424312051 0.0463123554744747 0.015
    vertex 0.04703733418735381 0.04755613121391557 0.02
  endloop
endfacet
facet normal 0.542437 -0.840097 -7.03355e-16
  outer loop
    vertex 0.05270289817602654 0.05121429515344754 0
    vertex 0.04896362594350255 0.04879990695335644 0.004999999999999991
    vertex 0.04703733418735383 0.04755613121391557 0
  endloop
endfacet
facet normal 0.542437 -0.840097 -6.8687e-16
  outer loop
    vertex 0.04703733418735383 0.04755613121391557 0
    vertex 0.04896362594350255 0.04879990695335644 0.004999999999999991
    vertex 0.04533766499075201 0.04645868203205598 0.004999999999999999
  endloop
endfacet
facet normal 0.542437 -0.840097 1.04012e-15
  outer loop
    vertex 0.04703733418735381 0.04755613121391557 0.02
    vertex 0.0451110424312051 0.0463123554744747 0.015
    vertex 0.04873700338395564 0.04865358039577516 0.01499999999999999
  endloop
endfacet
facet normal 0.542437 -0.840097 4.31747e-16
  outer loop
    vertex 0.0451110424312051 0.0463123554744747 0.015
    vertex 0.04703733418735383 0.04755613121391557 0.009999999999999997
    vertex 0.04873700338395564 0.04865358039577516 0.01499999999999999
  endloop
endfacet
facet normal 0.542437 -0.840097 -5.10246e-16
  outer loop
    vertex 0.04896362594350255 0.04879990695335644 0.004999999999999991
    vertex 0.04703733418735383 0.04755613121391557 0.009999999999999997
    vertex 0.04533766499075201 0.04645868203205598 0.004999999999999999
  endloop
endfacet
facet normal 0.542437 -0.840097 1.50719e-16
  outer loop
    vertex 0.0413717701986811 0.0438979672743836 0.01000000000000003
    vertex 0.04703733418735383 0.04755613121391557 0.009999999999999997
    vertex 0.0451110424312051 0.0463123554744747 0.015
  endloop
endfacet
facet normal 0.542437 -0.840097 -2.51198e-17
  outer loop
    vertex 0.04533766499075201 0.04645868203205598 0.004999999999999999
    vertex 0.04703733418735383 0.04755613121391557 0.009999999999999997
    vertex 0.0413717701986811 0.0438979672743836 0.01000000000000003
  endloop
endfacet
facet normal 0.542437 -0.840097 -7.53594e-17
  outer loop
    vertex 0.04873700338395564 0.04865358039577516 0.01499999999999999
    vertex 0.04703733418735383 0.04755613121391557 0.009999999999999997
    vertex 0.05270289817602654 0.05121429515344754 0.009999999999999972
  endloop
endfacet
facet normal 0.542437 -0.840097 -1.00479e-16
  outer loop
    vertex 0.05270289817602654 0.05121429515344754 0.009999999999999972
    vertex 0.04703733418735383 0.04755613121391557 0.009999999999999997
    vertex 0.04896362594350255 0.04879990695335644 0.004999999999999991
  endloop
endfacet
facet normal 0.87415 -0.485656 0
  outer loop
    vertex 0.03730700398529356 0.03658163939531967 0
    vertex 0.03933938709198734 0.04023980333485163 0.005
    vertex 0.03730700398529356 0.03658163939531967 0.01000000000000003
  endloop
endfacet
facet normal 0.87415 -0.485656 0
  outer loop
    vertex 0.0413717701986811 0.0438979672743836 0.02
    vertex 0.03933938709198734 0.04023980333485163 0.015
    vertex 0.0413717701986811 0.0438979672743836 0.009999999999999972
  endloop
endfacet
facet normal 0.87415 -0.485656 0
  outer loop
    vertex 0.03730700398529356 0.03658163939531967 0.01000000000000003
    vertex 0.03933938709198734 0.04023980333485163 0.015
    vertex 0.03730700398529356 0.03658163939531967 0.02
  endloop
endfacet
facet normal 0.87415 -0.485656 0
  outer loop
    vertex 0.0413717701986811 0.0438979672743836 0.009999999999999972
    vertex 0.03933938709198734 0.04023980333485163 0.005
    vertex 0.0413717701986811 0.0438979672743836 0
  endloop
endfacet
facet normal 0.87415 -0.485656 -1.53828e-15
  outer loop
    vertex 0.0413717701986811 0.0438979672743836 0
    vertex 0.03933938709198734 0.04023980333485163 0.005
    vertex 0.03730700398529356 0.03658163939531967 0
  endloop
endfacet
facet normal 0.87415 -0.485656 1.57877e-15
  outer loop
    vertex 0.03730700398529356 0.03658163939531967 0.01000000000000003
    vertex 0.03933938709198734 0.04023980333485163 0.005
    vertex 0.0413717701986811 0.0438979672743836 0.009999999999999972
  endloop
endfacet
facet normal 0.87415 -0.485656 -1.53828e-15
  outer loop
    vertex 0.0413717701986811 0.0438979672743836 0.009999999999999972
    vertex 0.03933938709198734 0.04023980333485163 0.015
    vertex 0.03730700398529356 0.03658163939531967 0.01000000000000003
  endloop
endfacet
facet normal 0.87415 -0.485656 1.57877e-15
  outer loop
    vertex 0.03730700398529356 0.03658163939531967 0.02
    vertex 0.03933938709198734 0.04023980333485163 0.015
    vertex 0.0413717701986811 0.0438979672743836 0.02
  endloop
endfacet
facet normal 0.899035 0.437878 -0
  outer loop
    vertex 0.04087044547261434 0.02926531151625573 0
    vertex 0.03908872472895395 0.0329234754557877 0.005
    vertex 0.04087044547261434 0.02926531151625573 0.01000000000000003
  endloop
endfacet
facet normal 0.899035 0.437878 0
  outer loop
    vertex 0.03730700398529356 0.03658163939531967 0.02
    vertex 0.03908872472895395 0.0329234754557877 0.015
    vertex 0.03730700398529356 0.03658163939531967 0.009999999999999972
  endloop
endfacet
facet normal 0.899035 0.437878 -0
  outer loop
    vertex 0.04087044547261434 0.02926531151625573 0.01000000000000003
    vertex 0.03908872472895395 0.0329234754557877 0.015
    vertex 0.04087044547261434 0.02926531151625573 0.02
  endloop
endfacet
facet normal 0.899035 0.437878 0
  outer loop
    vertex 0.03730700398529356 0.03658163939531967 0.009999999999999972
    vertex 0.03908872472895395 0.0329234754557877 0.005
    vertex 0.03730700398529356 0.03658163939531967 0
  endloop
endfacet
facet normal 0.899035 0.437878 0
  outer loop
    vertex 0.03730700398529356 0.03658163939531967 0
    vertex 0.03908872472895395 0.0329234754557877 0.005
    vertex 0.04087044547261434 0.02926531151625573 0
  endloop
endfacet
facet normal 0.899035 0.437878 0
  outer loop
    vertex 0.03730700398529356 0.03658163939531967 0.009999999999999972
    vertex 0.03908872472895395 0.0329234754557877 0.015
    vertex 0.04087044547261434 0.02926531151625573 0.01000000000000003
  endloop
endfacet
facet normal 0.899035 0.437878 0
  outer loop
    vertex 0.04087044547261434 0.02926531151625573 0.02
    vertex 0.03908872472895395 0.0329234754557877 0.015
    vertex 0.03730700398529356 0.03658163939531967 0.02
  endloop
endfacet
facet normal 0.899035 0.437878 0
  outer loop
    vertex 0.04087044547261434 0.02926531151625573 0.01000000000000003
    vertex 0.03908872472895395 0.0329234754557877 0.005
    vertex 0.03730700398529356 0.03658163939531967 0.009999999999999972
  endloop
endfacet
facet normal 0.52047 0.85388 0
  outer loop
    vertex 0.04087044547261434 0.02926531151625573 0.02
    vertex 0.04507153891610421 0.02670459675858336 0.015
    vertex 0.04087044547261434 0.02926531151625573 0.009999999999999972
  endloop
endfacet
facet normal 0.52047 0.85388 -0
  outer loop
    vertex 0.05287356959687112 0.0219489836371918 0
    vertex 0.04867247615338124 0.02450969839486418 0.004999999999999999
    vertex 0.05287356959687112 0.0219489836371918 0.01000000000000003
  endloop
endfacet
facet normal 0.52047 0.85388 0
  outer loop
    vertex 0.04087044547261434 0.02926531151625573 0.009999999999999972
    vertex 0.04483147643361907 0.02685092331616464 0.004999999999999991
    vertex 0.04087044547261434 0.02926531151625573 0
  endloop
endfacet
facet normal 0.52047 0.85388 -0
  outer loop
    vertex 0.05287356959687112 0.0219489836371918 0.01000000000000003
    vertex 0.04891253863586638 0.0243633718372829 0.015
    vertex 0.05287356959687112 0.0219489836371918 0.02
  endloop
endfacet
facet normal 0.52047 0.85388 3.13333e-16
  outer loop
    vertex 0.04687200753474272 0.02560714757672377 0
    vertex 0.04867247615338124 0.02450969839486418 0.004999999999999999
    vertex 0.05287356959687112 0.0219489836371918 0
  endloop
endfacet
facet normal 0.52047 0.85388 -5.54358e-16
  outer loop
    vertex 0.04687200753474274 0.02560714757672377 0.02
    vertex 0.04507153891610421 0.02670459675858336 0.015
    vertex 0.04087044547261434 0.02926531151625573 0.02
  endloop
endfacet
facet normal 0.52047 0.85388 -3.37436e-16
  outer loop
    vertex 0.04087044547261434 0.02926531151625573 0
    vertex 0.04483147643361907 0.02685092331616464 0.004999999999999991
    vertex 0.04687200753474272 0.02560714757672377 0
  endloop
endfacet
facet normal 0.52047 0.85388 1.44615e-16
  outer loop
    vertex 0.05287356959687112 0.0219489836371918 0.02
    vertex 0.04891253863586638 0.0243633718372829 0.015
    vertex 0.04687200753474274 0.02560714757672377 0.02
  endloop
endfacet
facet normal 0.52047 0.85388 -1.88301e-17
  outer loop
    vertex 0.04687200753474272 0.02560714757672377 0
    vertex 0.04483147643361907 0.02685092331616464 0.004999999999999991
    vertex 0.04867247615338124 0.02450969839486418 0.004999999999999999
  endloop
endfacet
facet normal 0.52047 0.85388 -2.63622e-16
  outer loop
    vertex 0.04687200753474274 0.02560714757672377 0.02
    vertex 0.04891253863586638 0.0243633718372829 0.015
    vertex 0.04507153891610421 0.02670459675858336 0.015
  endloop
endfacet
facet normal 0.52047 0.85388 1.12981e-16
  outer loop
    vertex 0.04891253863586638 0.0243633718372829 0.015
    vertex 0.04687200753474273 0.02560714757672377 0.009999999999999998
    vertex 0.04507153891610421 0.02670459675858336 0.015
  endloop
endfacet
facet normal 0.52047 0.85388 -1.12981e-16
  outer loop
    vertex 0.04483147643361907 0.02685092331616464 0.004999999999999991
    vertex 0.04687200753474273 0.02560714757672377 0.009999999999999998
    vertex 0.04867247615338124 0.02450969839486418 0.004999999999999999
  endloop
endfacet
facet normal 0.52047 0.85388 -2.41025e-16
  outer loop
    vertex 0.05287356959687112 0.0219489836371918 0.01000000000000003
    vertex 0.04687200753474273 0.02560714757672377 0.009999999999999998
    vertex 0.04891253863586638 0.0243633718372829 0.015
  endloop
endfacet
facet normal 0.52047 0.85388 -3.85641e-16
  outer loop
    vertex 0.04867247615338124 0.02450969839486418 0.004999999999999999
    vertex 0.04687200753474273 0.02560714757672377 0.009999999999999998
    vertex 0.05287356959687112 0.0219489836371918 0.01000000000000003
  endloop
endfacet
facet normal 0.52047 0.85388 4.57948e-16
  outer loop
    vertex 0.04507153891610421 0.02670459675858336 0.015
    vertex 0.04687200753474273 0.02560714757672377 0.009999999999999998
    vertex 0.04087044547261434 0.02926531151625573 0.009999999999999972
  endloop
endfacet
facet normal 0.52047 0.85388 2.41025e-16
  outer loop
    vertex 0.04087044547261434 0.02926531151625573 0.009999999999999972
    vertex 0.04687200753474273 0.02560714757672377 0.009999999999999998
    vertex 0.04483147643361907 0.02685092331616464 0.004999999999999991
  endloop
endfacet
facet normal 0.848992 -0.528405 0
  outer loop
    vertex 0.05287356959687112 0.0219489836371918 0.02
    vertex 0.0505967626343487 0.01829081969765984 0.015
    vertex 0.05287356959687112 0.0219489836371918 0.009999999999999972
  endloop
endfacet
facet normal 0.848992 -0.528405 0
  outer loop
    vertex 0.04831995567182627 0.01463265575812787 0
    vertex 0.0505967626343487 0.01829081969765984 0.005000000000000001
    vertex 0.04831995567182627 0.01463265575812787 0.01000000000000003
  endloop
endfacet
facet normal 0.848992 -0.528405 0
  outer loop
    vertex 0.05287356959687112 0.0219489836371918 0.009999999999999972
    vertex 0.0505967626343487 0.01829081969765984 0.005000000000000001
    vertex 0.05287356959687112 0.0219489836371918 0
  endloop
endfacet
facet normal 0.848992 -0.528405 0
  outer loop
    vertex 0.04831995567182627 0.01463265575812787 0.01000000000000003
    vertex 0.0505967626343487 0.01829081969765984 0.015
    vertex 0.04831995567182627 0.01463265575812787 0.02
  endloop
endfacet
facet normal 0.848992 -0.528405 0
  outer loop
    vertex 0.04831995567182627 0.01463265575812787 0.02
    vertex 0.0505967626343487 0.01829081969765984 0.015
    vertex 0.05287356959687112 0.0219489836371918 0.02
  endloop
endfacet
facet normal 0.848992 -0.528405 0
  outer loop
    vertex 0.05287356959687112 0.0219489836371918 0
    vertex 0.0505967626343487 0.01829081969765984 0.005000000000000001
    vertex 0.04831995567182627 0.01463265575812787 0
  endloop
endfacet
facet normal 0.848992 -0.528405 0
  outer loop
    vertex 0.05287356959687112 0.0219489836371918 0.009999999999999972
    vertex 0.0505967626343487 0.01829081969765984 0.015
    vertex 0.04831995567182627 0.01463265575812787 0.01000000000000003
  endloop
endfacet
facet normal 0.848992 -0.528405 0
  outer loop
    vertex 0.04831995567182627 0.01463265575812787 0.01000000000000003
    vertex 0.0505967626343487 0.01829081969765984 0.005000000000000001
    vertex 0.05287356959687112 0.0219489836371918 0.009999999999999972
  endloop
endfacet
facet normal 0.992263 -0.124156 1.42448e-15
  outer loop
    vertex 0.04740450471351908 0.00731632787906393 0.01000000000000003
    vertex 0.04786223019267268 0.0109744918185959 0.005000000000000001
    vertex 0.04831995567182627 0.01463265575812787 0.009999999999999972
  endloop
endfacet
facet normal 0.992263 -0.124156 -1.42448e-15
  outer loop
    vertex 0.04831995567182627 0.01463265575812787 0.009999999999999972
    vertex 0.04786223019267268 0.0109744918185959 0.015
    vertex 0.04740450471351908 0.00731632787906393 0.01000000000000003
  endloop
endfacet
facet normal 0.992263 -0.124156 1.42448e-15
  outer loop
    vertex 0.04740450471351908 0.00731632787906393 0.02
    vertex 0.04786223019267268 0.0109744918185959 0.015
    vertex 0.04831995567182627 0.01463265575812787 0.02
  endloop
endfacet
facet normal 0.992263 -0.124156 -1.42448e-15
  outer loop
    vertex 0.04831995567182627 0.01463265575812787 0
    vertex 0.04786223019267268 0.0109744918185959 0.005000000000000001
    vertex 0.04740450471351908 0.00731632787906393 0
  endloop
endfacet
facet normal 0.992263 -0.124156 0
  outer loop
    vertex 0.04831995567182627 0.01463265575812787 0.009999999999999972
    vertex 0.04786223019267268 0.0109744918185959 0.005000000000000001
    vertex 0.04831995567182627 0.01463265575812787 0
  endloop
endfacet
facet normal 0.992263 -0.124156 0
  outer loop
    vertex 0.04831995567182627 0.01463265575812787 0.02
    vertex 0.04786223019267268 0.0109744918185959 0.015
    vertex 0.04831995567182627 0.01463265575812787 0.009999999999999972
  endloop
endfacet
facet normal 0.992263 -0.124156 0
  outer loop
    vertex 0.04740450471351908 0.00731632787906393 0
    vertex 0.04786223019267268 0.0109744918185959 0.005000000000000001
    vertex 0.04740450471351908 0.00731632787906393 0.01000000000000003
  endloop
endfacet
facet normal 0.992263 -0.124156 0
  outer loop
    vertex 0.04740450471351908 0.00731632787906393 0.01000000000000003
    vertex 0.04786223019267268 0.0109744918185959 0.015
    vertex 0.04740450471351908 0.00731632787906393 0.02
  endloop
endfacet
endsolid Created by Gmsh
