solid Created by Gmsh
facet normal -0.501175 0.865346 0
  outer loop
    vertex 0.02083881413925752 0.04954452810612813 0
    vertex 0.02083881413925752 0.04954452810612813 0.01000000000000003
    vertex 0.02511607802122777 0.05202175451143454 0.004999999999999999
  endloop
endfacet
facet normal -0.501175 0.865346 0
  outer loop
    vertex 0.03305956808774393 0.05662231783557501 0.02
    vertex 0.03305956808774393 0.05662231783557501 0.009999999999999972
    vertex 0.02878230420577369 0.0541450914302686 0.015
  endloop
endfacet
facet normal -0.501175 0.865346 0
  outer loop
    vertex 0.03305956808774393 0.05662231783557501 0.009999999999999972
    vertex 0.03305956808774393 0.05662231783557501 0
    vertex 0.02902671928474342 0.05428664722485754 0.004999999999999991
  endloop
endfacet
facet normal -0.501175 0.865346 0
  outer loop
    vertex 0.02083881413925752 0.04954452810612813 0.01000000000000003
    vertex 0.02083881413925752 0.04954452810612813 0.02
    vertex 0.02487166294225804 0.0518801987168456 0.015
  endloop
endfacet
facet normal -0.501175 0.865346 -1.29553e-15
  outer loop
    vertex 0.02694919111350072 0.05308342297085157 0.02
    vertex 0.03305956808774393 0.05662231783557501 0.02
    vertex 0.02878230420577369 0.0541450914302686 0.015
  endloop
endfacet
facet normal -0.501175 0.865346 9.35657e-16
  outer loop
    vertex 0.02694919111350073 0.05308342297085157 0
    vertex 0.02083881413925752 0.04954452810612813 0
    vertex 0.02511607802122777 0.05202175451143454 0.004999999999999999
  endloop
endfacet
facet normal -0.501175 0.865346 1.34351e-15
  outer loop
    vertex 0.03305956808774393 0.05662231783557501 0
    vertex 0.02694919111350073 0.05308342297085157 0
    vertex 0.02902671928474342 0.05428664722485754 0.004999999999999991
  endloop
endfacet
facet normal -0.501175 0.865346 -9.11666e-16
  outer loop
    vertex 0.02083881413925752 0.04954452810612813 0.02
    vertex 0.02694919111350072 0.05308342297085157 0.02
    vertex 0.02487166294225804 0.0518801987168456 0.015
  endloop
endfacet
facet normal -0.501175 0.865346 -1.18082e-15
  outer loop
    vertex 0.02694919111350072 0.05308342297085157 0.02
    vertex 0.02878230420577369 0.0541450914302686 0.015
    vertex 0.02487166294225804 0.0518801987168456 0.015
  endloop
endfacet
facet normal -0.501175 0.865346 1.06836e-15
  outer loop
    vertex 0.02694919111350073 0.05308342297085157 0
    vertex 0.02511607802122777 0.05202175451143454 0.004999999999999999
    vertex 0.02902671928474342 0.05428664722485754 0.004999999999999991
  endloop
endfacet
facet normal -0.501175 0.865346 -7.12239e-16
  outer loop
    vertex 0.02487166294225804 0.0518801987168456 0.015
    vertex 0.02878230420577369 0.0541450914302686 0.015
    vertex 0.02694919111350073 0.05308342297085156 0.009999999999999998
  endloop
endfacet
facet normal -0.501175 0.865346 4.87321e-16
  outer loop
    vertex 0.02902671928474342 0.05428664722485754 0.004999999999999991
    vertex 0.02511607802122777 0.05202175451143454 0.004999999999999999
    vertex 0.02694919111350073 0.05308342297085156 0.009999999999999998
  endloop
endfacet
facet normal -0.501175 0.865346 1.43947e-16
  outer loop
    vertex 0.02511607802122777 0.05202175451143454 0.004999999999999999
    vertex 0.02083881413925752 0.04954452810612813 0.01000000000000003
    vertex 0.02694919111350073 0.05308342297085156 0.009999999999999998
  endloop
endfacet
facet normal -0.501175 0.865346 -2.87894e-16
  outer loop
    vertex 0.02083881413925752 0.04954452810612813 0.01000000000000003
    vertex 0.02487166294225804 0.0518801987168456 0.015
    vertex 0.02694919111350073 0.05308342297085156 0.009999999999999998
  endloop
endfacet
facet normal -0.501175 0.865346 -2.39912e-17
  outer loop
    vertex 0.02878230420577369 0.0541450914302686 0.015
    vertex 0.03305956808774393 0.05662231783557501 0.009999999999999972
    vertex 0.02694919111350073 0.05308342297085156 0.009999999999999998
  endloop
endfacet
facet normal -0.501175 0.865346 -2.87894e-16
  outer loop
    vertex 0.03305956808774393 0.05662231783557501 0.009999999999999972
    vertex 0.02902671928474342 0.05428664722485754 0.004999999999999991
    vertex 0.02694919111350073 0.05308342297085156 0.009999999999999998
  endloop
endfacet
facet normal -0.299765 -0.954013 -2.34312e-16
  outer loop
    vertex 0.03210146488691042 0.0460056332414047 0
    vertex 0.04336411563456333 0.04246673837668126 0
    vertex 0.03451942785617768 0.04524587277943578 0.01102358454773104
  endloop
endfacet
facet normal -0.299765 -0.954013 0
  outer loop
    vertex 0.04336411563456333 0.04246673837668126 0.01000000000000003
    vertex 0.04336411563456333 0.04246673837668126 0.02
    vertex 0.03451942785617768 0.04524587277943578 0.01102358454773104
  endloop
endfacet
facet normal -0.299765 -0.954013 -1.27888e-16
  outer loop
    vertex 0.04336411563456333 0.04246673837668126 0.02
    vertex 0.03210146488691043 0.04600563324140469 0.02
    vertex 0.03451942785617768 0.04524587277943578 0.01102358454773104
  endloop
endfacet
facet normal -0.299765 -0.954013 1.20184e-16
  outer loop
    vertex 0.02083881413925752 0.04954452810612813 0
    vertex 0.03210146488691042 0.0460056332414047 0
    vertex 0.02769496312401984 0.04739022260757483 0.007163908409759586
  endloop
endfacet
facet normal -0.299765 -0.954013 -1.80886e-16
  outer loop
    vertex 0.03210146488691043 0.04600563324140469 0.02
    vertex 0.02083881413925752 0.04954452810612813 0.02
    vertex 0.02724002939116473 0.04753316965326262 0.01365357936481251
  endloop
endfacet
facet normal -0.299765 -0.954013 -0
  outer loop
    vertex 0.02083881413925752 0.04954452810612813 0.009999999999999972
    vertex 0.02083881413925752 0.04954452810612813 0
    vertex 0.02769496312401984 0.04739022260757483 0.007163908409759586
  endloop
endfacet
facet normal -0.299765 -0.954013 -2.20728e-16
  outer loop
    vertex 0.03210146488691042 0.0460056332414047 0
    vertex 0.03451942785617768 0.04524587277943578 0.01102358454773104
    vertex 0.02769496312401984 0.04739022260757483 0.007163908409759586
  endloop
endfacet
facet normal -0.299765 -0.954013 -0
  outer loop
    vertex 0.02083881413925752 0.04954452810612813 0.02
    vertex 0.02083881413925752 0.04954452810612813 0.009999999999999972
    vertex 0.02724002939116473 0.04753316965326262 0.01365357936481251
  endloop
endfacet
facet normal -0.299765 -0.954013 -1.98651e-16
  outer loop
    vertex 0.03210146488691043 0.04600563324140469 0.02
    vertex 0.02724002939116473 0.04753316965326262 0.01365357936481251
    vertex 0.03451942785617768 0.04524587277943578 0.01102358454773104
  endloop
endfacet
facet normal -0.299765 -0.954013 -3.51e-16
  outer loop
    vertex 0.03451942785617768 0.04524587277943578 0.01102358454773104
    vertex 0.02724002939116473 0.04753316965326262 0.01365357936481251
    vertex 0.02769496312401984 0.04739022260757483 0.007163908409759586
  endloop
endfacet
facet normal -0.299765 -0.954013 -3.34332e-16
  outer loop
    vertex 0.02724002939116473 0.04753316965326262 0.01365357936481251
    vertex 0.02083881413925752 0.04954452810612813 0.009999999999999972
    vertex 0.02769496312401984 0.04739022260757483 0.007163908409759586
  endloop
endfacet
facet normal -0.299765 -0.954013 0
  outer loop
    vertex 0.04336411563456333 0.04246673837668126 0
    vertex 0.04336411563456333 0.04246673837668126 0.01000000000000003
    vertex 0.03451942785617768 0.04524587277943578 0.01102358454773104
  endloop
endfacet
facet normal -0.60976 0.792586 -1.32473e-15
  outer loop
    vertex 0.04336411563456333 0.04246673837668126 0
    vertex 0.03416417983224354 0.03538894864723438 0
    vertex 0.03876414773340343 0.03892784351195783 0.005728862973760923
  endloop
endfacet
facet normal -0.60976 0.792586 1.54284e-15
  outer loop
    vertex 0.03416417983224354 0.03538894864723438 0.02
    vertex 0.04336411563456333 0.04246673837668126 0.02
    vertex 0.03876414773340344 0.03892784351195783 0.01432426114969102
  endloop
endfacet
facet normal -0.60976 0.792586 0
  outer loop
    vertex 0.03416417983224354 0.03538894864723438 0
    vertex 0.03416417983224354 0.03538894864723438 0.01000000000000003
    vertex 0.03876414773340343 0.03892784351195783 0.005728862973760923
  endloop
endfacet
facet normal -0.60976 0.792586 0
  outer loop
    vertex 0.04336411563456333 0.04246673837668126 0.02
    vertex 0.04336411563456333 0.04246673837668126 0.009999999999999972
    vertex 0.03876414773340344 0.03892784351195783 0.01432426114969102
  endloop
endfacet
facet normal -0.60976 0.792586 -1.35836e-16
  outer loop
    vertex 0.04336411563456333 0.04246673837668126 0.009999999999999972
    vertex 0.03876414773340343 0.03892784351195783 0.005728862973760923
    vertex 0.03876414773340344 0.03892784351195783 0.01432426114969102
  endloop
endfacet
facet normal -0.60976 0.792586 -1.47591e-16
  outer loop
    vertex 0.03876414773340343 0.03892784351195783 0.005728862973760923
    vertex 0.03416417983224354 0.03538894864723438 0.01000000000000003
    vertex 0.03876414773340344 0.03892784351195783 0.01432426114969102
  endloop
endfacet
facet normal -0.60976 0.792586 0
  outer loop
    vertex 0.03416417983224354 0.03538894864723438 0.01000000000000003
    vertex 0.03416417983224354 0.03538894864723438 0.02
    vertex 0.03876414773340344 0.03892784351195783 0.01432426114969102
  endloop
endfacet
facet normal -0.60976 0.792586 0
  outer loop
    vertex 0.04336411563456333 0.04246673837668126 0.009999999999999972
    vertex 0.04336411563456333 0.04246673837668126 0
    vertex 0.03876414773340343 0.03892784351195783 0.005728862973760923
  endloop
endfacet
facet normal -0.929205 -0.369565 -0
  outer loop
    vertex 0.03416417983224354 0.03538894864723438 0.02
    vertex 0.03416417983224354 0.03538894864723438 0.009999999999999972
    vertex 0.03557167654092448 0.03185005378251094 0.015
  endloop
endfacet
facet normal -0.929205 -0.369565 0
  outer loop
    vertex 0.03697917324960544 0.02831115891778751 0
    vertex 0.03697917324960544 0.02831115891778751 0.01000000000000003
    vertex 0.03557167654092448 0.03185005378251094 0.005
  endloop
endfacet
facet normal -0.929205 -0.369565 -0
  outer loop
    vertex 0.03416417983224354 0.03538894864723438 0.009999999999999972
    vertex 0.03416417983224354 0.03538894864723438 0
    vertex 0.03557167654092448 0.03185005378251094 0.005
  endloop
endfacet
facet normal -0.929205 -0.369565 0
  outer loop
    vertex 0.03697917324960544 0.02831115891778751 0.01000000000000003
    vertex 0.03697917324960544 0.02831115891778751 0.02
    vertex 0.03557167654092448 0.03185005378251094 0.015
  endloop
endfacet
facet normal -0.929205 -0.369565 1.42339e-15
  outer loop
    vertex 0.03697917324960544 0.02831115891778751 0.01000000000000003
    vertex 0.03416417983224354 0.03538894864723438 0.009999999999999972
    vertex 0.03557167654092448 0.03185005378251094 0.005
  endloop
endfacet
facet normal -0.929205 -0.369565 1.42339e-15
  outer loop
    vertex 0.03697917324960544 0.02831115891778751 0.02
    vertex 0.03416417983224354 0.03538894864723438 0.02
    vertex 0.03557167654092448 0.03185005378251094 0.015
  endloop
endfacet
facet normal -0.929205 -0.369565 -1.37891e-15
  outer loop
    vertex 0.03416417983224354 0.03538894864723438 0
    vertex 0.03697917324960544 0.02831115891778751 0
    vertex 0.03557167654092448 0.03185005378251094 0.005
  endloop
endfacet
facet normal -0.929205 -0.369565 -1.37891e-15
  outer loop
    vertex 0.03416417983224354 0.03538894864723438 0.009999999999999972
    vertex 0.03697917324960544 0.02831115891778751 0.01000000000000003
    vertex 0.03557167654092448 0.03185005378251094 0.015
  endloop
endfacet
facet normal -0.601786 0.798657 2.92151e-16
  outer loop
    vertex 0.02758592864346723 0.02123336918834063 0.02
    vertex 0.03697917324960544 0.02831115891778751 0.02
    vertex 0.03228255094653634 0.02477226405306408 0.01408371511870054
  endloop
endfacet
facet normal -0.601786 0.798657 -9.56994e-16
  outer loop
    vertex 0.03697917324960544 0.02831115891778751 0
    vertex 0.02758592864346723 0.02123336918834063 0
    vertex 0.03228255094653632 0.02477226405306407 0.006020408163265312
  endloop
endfacet
facet normal -0.601786 0.798657 0
  outer loop
    vertex 0.03697917324960544 0.02831115891778751 0.02
    vertex 0.03697917324960544 0.02831115891778751 0.009999999999999972
    vertex 0.03228255094653634 0.02477226405306408 0.01408371511870054
  endloop
endfacet
facet normal -0.601786 0.798657 0
  outer loop
    vertex 0.02758592864346723 0.02123336918834063 0
    vertex 0.02758592864346723 0.02123336918834063 0.01000000000000003
    vertex 0.03228255094653632 0.02477226405306407 0.006020408163265312
  endloop
endfacet
facet normal -0.601786 0.798657 0
  outer loop
    vertex 0.03697917324960544 0.02831115891778751 0.009999999999999972
    vertex 0.03697917324960544 0.02831115891778751 0
    vertex 0.03228255094653632 0.02477226405306407 0.006020408163265312
  endloop
endfacet
facet normal -0.601786 0.798657 0
  outer loop
    vertex 0.02758592864346723 0.02123336918834063 0.01000000000000003
    vertex 0.02758592864346723 0.02123336918834063 0.02
    vertex 0.03228255094653634 0.02477226405306408 0.01408371511870054
  endloop
endfacet
facet normal -0.601786 0.798657 5.00173e-16
  outer loop
    vertex 0.03697917324960544 0.02831115891778751 0.009999999999999972
    vertex 0.03228255094653632 0.02477226405306407 0.006020408163265312
    vertex 0.03228255094653634 0.02477226405306408 0.01408371511870054
  endloop
endfacet
facet normal -0.601786 0.798657 5.22676e-16
  outer loop
    vertex 0.03228255094653632 0.02477226405306407 0.006020408163265312
    vertex 0.02758592864346723 0.02123336918834063 0.01000000000000003
    vertex 0.03228255094653634 0.02477226405306408 0.01408371511870054
  endloop
endfacet
facet normal -0.53938 -0.842063 2.0656e-16
  outer loop
    vertex 0.038635555727609 0.01415557945889375 0.01000000000000003
    vertex 0.03311074218553811 0.01769447432361719 0.02
    vertex 0.02758592864346723 0.02123336918834063 0.009999999999999972
  endloop
endfacet
facet normal -0.53938 -0.842063 2.58201e-17
  outer loop
    vertex 0.03311074218553812 0.01769447432361719 0
    vertex 0.038635555727609 0.01415557945889375 0.01000000000000003
    vertex 0.02758592864346723 0.02123336918834063 0.009999999999999972
  endloop
endfacet
facet normal -0.53938 -0.842063 0
  outer loop
    vertex 0.03311074218553812 0.01769447432361719 0
    vertex 0.02758592864346723 0.02123336918834063 0.009999999999999972
    vertex 0.02758592864346723 0.02123336918834063 0
  endloop
endfacet
facet normal -0.53938 -0.842063 0
  outer loop
    vertex 0.02758592864346723 0.02123336918834063 0.009999999999999972
    vertex 0.03311074218553811 0.01769447432361719 0.02
    vertex 0.02758592864346723 0.02123336918834063 0.02
  endloop
endfacet
facet normal -0.53938 -0.842063 -0
  outer loop
    vertex 0.038635555727609 0.01415557945889375 0.01000000000000003
    vertex 0.03311074218553812 0.01769447432361719 0
    vertex 0.038635555727609 0.01415557945889375 0
  endloop
endfacet
facet normal -0.53938 -0.842063 0
  outer loop
    vertex 0.03311074218553811 0.01769447432361719 0.02
    vertex 0.038635555727609 0.01415557945889375 0.01000000000000003
    vertex 0.038635555727609 0.01415557945889375 0.02
  endloop
endfacet
facet normal -0.619326 0.785134 6.21004e-16
  outer loop
    vertex 0.038635555727609 0.01415557945889375 0
    vertex 0.02966287321472448 0.007077789729446879 0
    vertex 0.03414921447116674 0.01061668459417031 0.005728862973760924
  endloop
endfacet
facet normal -0.619326 0.785134 -9.40225e-16
  outer loop
    vertex 0.02966287321472448 0.007077789729446879 0.02
    vertex 0.038635555727609 0.01415557945889375 0.02
    vertex 0.03414921447116676 0.01061668459417032 0.01432426114969102
  endloop
endfacet
facet normal -0.619326 0.785134 0
  outer loop
    vertex 0.02966287321472448 0.007077789729446879 0
    vertex 0.02966287321472448 0.007077789729446879 0.01000000000000003
    vertex 0.03414921447116674 0.01061668459417031 0.005728862973760924
  endloop
endfacet
facet normal -0.619326 0.785134 0
  outer loop
    vertex 0.038635555727609 0.01415557945889375 0.02
    vertex 0.038635555727609 0.01415557945889375 0.009999999999999972
    vertex 0.03414921447116676 0.01061668459417032 0.01432426114969102
  endloop
endfacet
facet normal -0.619326 0.785134 2.0766e-16
  outer loop
    vertex 0.03414921447116674 0.01061668459417031 0.005728862973760924
    vertex 0.02966287321472448 0.007077789729446879 0.01000000000000003
    vertex 0.03414921447116676 0.01061668459417032 0.01432426114969102
  endloop
endfacet
facet normal -0.619326 0.785134 2.06951e-16
  outer loop
    vertex 0.038635555727609 0.01415557945889375 0.009999999999999972
    vertex 0.03414921447116674 0.01061668459417031 0.005728862973760924
    vertex 0.03414921447116676 0.01061668459417032 0.01432426114969102
  endloop
endfacet
facet normal -0.619326 0.785134 0
  outer loop
    vertex 0.02966287321472448 0.007077789729446879 0.01000000000000003
    vertex 0.02966287321472448 0.007077789729446879 0.02
    vertex 0.03414921447116676 0.01061668459417032 0.01432426114969102
  endloop
endfacet
facet normal -0.619326 0.785134 0
  outer loop
    vertex 0.038635555727609 0.01415557945889375 0.009999999999999972
    vertex 0.038635555727609 0.01415557945889375 0
    vertex 0.03414921447116674 0.01061668459417031 0.005728862973760924
  endloop
endfacet
endsolid Created by Gmsh
