solid Created by Gmsh
facet normal -0.549194 -0.835695 0
  outer loop
    vertex 0.04221214822915732 0.05094971637043561 0.01000000000000003
    vertex 0.03667437233984287 0.05458898182546672 0.02
    vertex 0.03113659645052841 0.05822824728049784 0.009999999999999972
  endloop
endfacet
facet normal -0.549194 -0.835695 -1.78954e-16
  outer loop
    vertex 0.03667437233984286 0.05458898182546673 0
    vertex 0.04221214822915732 0.05094971637043561 0.01000000000000003
    vertex 0.03113659645052841 0.05822824728049784 0.009999999999999972
  endloop
endfacet
facet normal -0.549194 -0.835695 0
  outer loop
    vertex 0.03667437233984286 0.05458898182546673 0
    vertex 0.03113659645052841 0.05822824728049784 0.009999999999999972
    vertex 0.03113659645052841 0.05822824728049784 0
  endloop
endfacet
facet normal -0.549194 -0.835695 0
  outer loop
    vertex 0.03113659645052841 0.05822824728049784 0.009999999999999972
    vertex 0.03667437233984287 0.05458898182546672 0.02
    vertex 0.03113659645052841 0.05822824728049784 0.02
  endloop
endfacet
facet normal -0.549194 -0.835695 -0
  outer loop
    vertex 0.04221214822915732 0.05094971637043561 0.01000000000000003
    vertex 0.03667437233984286 0.05458898182546673 0
    vertex 0.04221214822915732 0.05094971637043561 0
  endloop
endfacet
facet normal -0.549194 -0.835695 0
  outer loop
    vertex 0.03667437233984287 0.05458898182546672 0.02
    vertex 0.04221214822915732 0.05094971637043561 0.01000000000000003
    vertex 0.04221214822915732 0.05094971637043561 0.02
  endloop
endfacet
facet normal -0.852373 -0.522934 -0
  outer loop
    vertex 0.04221214822915732 0.05094971637043561 0.02
    vertex 0.04221214822915732 0.05094971637043561 0.009999999999999972
    vertex 0.04444484997459647 0.04731045091540451 0.015
  endloop
endfacet
facet normal -0.852373 -0.522934 0
  outer loop
    vertex 0.0466775517200356 0.04367118546037338 0
    vertex 0.0466775517200356 0.04367118546037338 0.01000000000000003
    vertex 0.04444484997459647 0.04731045091540451 0.005
  endloop
endfacet
facet normal -0.852373 -0.522934 -0
  outer loop
    vertex 0.04221214822915732 0.05094971637043561 0.009999999999999972
    vertex 0.04221214822915732 0.05094971637043561 0
    vertex 0.04444484997459647 0.04731045091540451 0.005
  endloop
endfacet
facet normal -0.852373 -0.522934 0
  outer loop
    vertex 0.0466775517200356 0.04367118546037338 0.01000000000000003
    vertex 0.0466775517200356 0.04367118546037338 0.02
    vertex 0.04444484997459647 0.04731045091540451 0.015
  endloop
endfacet
facet normal -0.852373 -0.522934 2.85679e-15
  outer loop
    vertex 0.04221214822915732 0.05094971637043561 0
    vertex 0.0466775517200356 0.04367118546037338 0
    vertex 0.04444484997459647 0.04731045091540451 0.005
  endloop
endfacet
facet normal -0.852373 -0.522934 -2.85679e-15
  outer loop
    vertex 0.0466775517200356 0.04367118546037338 0.01000000000000003
    vertex 0.04221214822915732 0.05094971637043561 0.009999999999999972
    vertex 0.04444484997459647 0.04731045091540451 0.005
  endloop
endfacet
facet normal -0.852373 -0.522934 2.85679e-15
  outer loop
    vertex 0.04221214822915732 0.05094971637043561 0.009999999999999972
    vertex 0.0466775517200356 0.04367118546037338 0.01000000000000003
    vertex 0.04444484997459647 0.04731045091540451 0.015
  endloop
endfacet
facet normal -0.852373 -0.522934 -2.85679e-15
  outer loop
    vertex 0.0466775517200356 0.04367118546037338 0.02
    vertex 0.04221214822915732 0.05094971637043561 0.02
    vertex 0.04444484997459647 0.04731045091540451 0.015
  endloop
endfacet
facet normal -0.64201 0.766696 1.68495e-15
  outer loop
    vertex 0.0466775517200356 0.04367118546037338 0
    vertex 0.03798544349068206 0.03639265455031115 0
    vertex 0.04233149760535884 0.04003192000534226 0.005675738850308962
  endloop
endfacet
facet normal -0.64201 0.766696 -1.66932e-15
  outer loop
    vertex 0.03798544349068206 0.03639265455031115 0.02
    vertex 0.0466775517200356 0.04367118546037338 0.02
    vertex 0.04233149760535884 0.04003192000534226 0.01427113702623907
  endloop
endfacet
facet normal -0.64201 0.766696 0
  outer loop
    vertex 0.03798544349068206 0.03639265455031115 0.01000000000000003
    vertex 0.04233149760535884 0.04003192000534226 0.01427113702623907
    vertex 0.04233149760535884 0.04003192000534226 0.005675738850308962
  endloop
endfacet
facet normal -0.64201 0.766696 0
  outer loop
    vertex 0.04233149760535884 0.04003192000534226 0.01427113702623907
    vertex 0.0466775517200356 0.04367118546037338 0.009999999999999972
    vertex 0.04233149760535884 0.04003192000534226 0.005675738850308962
  endloop
endfacet
facet normal -0.64201 0.766696 0
  outer loop
    vertex 0.0466775517200356 0.04367118546037338 0.02
    vertex 0.0466775517200356 0.04367118546037338 0.009999999999999972
    vertex 0.04233149760535884 0.04003192000534226 0.01427113702623907
  endloop
endfacet
facet normal -0.64201 0.766696 0
  outer loop
    vertex 0.03798544349068206 0.03639265455031115 0
    vertex 0.03798544349068206 0.03639265455031115 0.01000000000000003
    vertex 0.04233149760535884 0.04003192000534226 0.005675738850308962
  endloop
endfacet
facet normal -0.64201 0.766696 0
  outer loop
    vertex 0.0466775517200356 0.04367118546037338 0.009999999999999972
    vertex 0.0466775517200356 0.04367118546037338 0
    vertex 0.04233149760535884 0.04003192000534226 0.005675738850308962
  endloop
endfacet
facet normal -0.64201 0.766696 0
  outer loop
    vertex 0.03798544349068206 0.03639265455031115 0.01000000000000003
    vertex 0.03798544349068206 0.03639265455031115 0.02
    vertex 0.04233149760535884 0.04003192000534226 0.01427113702623907
  endloop
endfacet
facet normal -0.809676 -0.586877 0
  outer loop
    vertex 0.04326113870351807 0.02911412364024892 0
    vertex 0.04326113870351807 0.02911412364024892 0.01000000000000003
    vertex 0.04062329109710006 0.03275338909528003 0.004999999999999999
  endloop
endfacet
facet normal -0.809676 -0.586877 -0
  outer loop
    vertex 0.03798544349068206 0.03639265455031115 0.02
    vertex 0.03798544349068206 0.03639265455031115 0.009999999999999972
    vertex 0.04062329109710006 0.03275338909528003 0.015
  endloop
endfacet
facet normal -0.809676 -0.586877 0
  outer loop
    vertex 0.04326113870351807 0.02911412364024892 0.01000000000000003
    vertex 0.04326113870351807 0.02911412364024892 0.02
    vertex 0.04062329109710006 0.03275338909528003 0.015
  endloop
endfacet
facet normal -0.809676 -0.586877 -0
  outer loop
    vertex 0.03798544349068206 0.03639265455031115 0.009999999999999972
    vertex 0.03798544349068206 0.03639265455031115 0
    vertex 0.04062329109710006 0.03275338909528003 0.004999999999999999
  endloop
endfacet
facet normal -0.809676 -0.586877 2.86445e-15
  outer loop
    vertex 0.04326113870351807 0.02911412364024892 0.01000000000000003
    vertex 0.03798544349068206 0.03639265455031115 0.009999999999999972
    vertex 0.04062329109710006 0.03275338909528003 0.004999999999999999
  endloop
endfacet
facet normal -0.809676 -0.586877 -2.86445e-15
  outer loop
    vertex 0.03798544349068206 0.03639265455031115 0.009999999999999972
    vertex 0.04326113870351807 0.02911412364024892 0.01000000000000003
    vertex 0.04062329109710006 0.03275338909528003 0.015
  endloop
endfacet
facet normal -0.809676 -0.586877 -2.86445e-15
  outer loop
    vertex 0.03798544349068206 0.03639265455031115 0
    vertex 0.04326113870351807 0.02911412364024892 0
    vertex 0.04062329109710006 0.03275338909528003 0.004999999999999999
  endloop
endfacet
facet normal -0.809676 -0.586877 2.86445e-15
  outer loop
    vertex 0.04326113870351807 0.02911412364024892 0.02
    vertex 0.03798544349068206 0.03639265455031115 0.02
    vertex 0.04062329109710006 0.03275338909528003 0.015
  endloop
endfacet
facet normal -0.687571 0.726117 8.73927e-16
  outer loop
    vertex 0.03557455919756462 0.02183559273018669 0.02
    vertex 0.04326113870351807 0.02911412364024892 0.02
    vertex 0.03941784895054135 0.02547485818521781 0.01450648773478912
  endloop
endfacet
facet normal -0.687571 0.726117 -8.11661e-16
  outer loop
    vertex 0.04326113870351807 0.02911412364024892 0
    vertex 0.03557455919756462 0.02183559273018669 0
    vertex 0.03941784895054133 0.0254748581852178 0.005520616409829249
  endloop
endfacet
facet normal -0.687571 0.726117 0
  outer loop
    vertex 0.04326113870351807 0.02911412364024892 0.02
    vertex 0.04326113870351807 0.02911412364024892 0.009999999999999972
    vertex 0.03941784895054135 0.02547485818521781 0.01450648773478912
  endloop
endfacet
facet normal -0.687571 0.726117 0
  outer loop
    vertex 0.03557455919756462 0.02183559273018669 0
    vertex 0.03557455919756462 0.02183559273018669 0.01000000000000003
    vertex 0.03941784895054133 0.0254748581852178 0.005520616409829249
  endloop
endfacet
facet normal -0.687571 0.726117 -5.95313e-17
  outer loop
    vertex 0.03941784895054133 0.0254748581852178 0.005520616409829249
    vertex 0.03557455919756462 0.02183559273018669 0.01000000000000003
    vertex 0.03941784895054135 0.02547485818521781 0.01450648773478912
  endloop
endfacet
facet normal -0.687571 0.726117 -3.56183e-17
  outer loop
    vertex 0.04326113870351807 0.02911412364024892 0.009999999999999972
    vertex 0.03941784895054133 0.0254748581852178 0.005520616409829249
    vertex 0.03941784895054135 0.02547485818521781 0.01450648773478912
  endloop
endfacet
facet normal -0.687571 0.726117 0
  outer loop
    vertex 0.04326113870351807 0.02911412364024892 0.009999999999999972
    vertex 0.04326113870351807 0.02911412364024892 0
    vertex 0.03941784895054133 0.0254748581852178 0.005520616409829249
  endloop
endfacet
facet normal -0.687571 0.726117 0
  outer loop
    vertex 0.03557455919756462 0.02183559273018669 0.01000000000000003
    vertex 0.03557455919756462 0.02183559273018669 0.02
    vertex 0.03941784895054135 0.02547485818521781 0.01450648773478912
  endloop
endfacet
facet normal -0.67408 -0.738658 -8.52573e-16
  outer loop
    vertex 0.03557455919756462 0.02183559273018669 0
    vertex 0.04355038902253196 0.01455706182012446 0
    vertex 0.03956247411004829 0.01819632727515557 0.005520616409829229
  endloop
endfacet
facet normal -0.67408 -0.738658 9.13898e-16
  outer loop
    vertex 0.04355038902253196 0.01455706182012446 0.02
    vertex 0.03557455919756462 0.02183559273018669 0.02
    vertex 0.03956247411004829 0.01819632727515557 0.01450648773478912
  endloop
endfacet
facet normal -0.67408 -0.738658 0
  outer loop
    vertex 0.03557455919756462 0.02183559273018669 0.009999999999999972
    vertex 0.03956247411004829 0.01819632727515557 0.005520616409829229
    vertex 0.03956247411004829 0.01819632727515557 0.01450648773478912
  endloop
endfacet
facet normal -0.67408 -0.738658 0
  outer loop
    vertex 0.03956247411004829 0.01819632727515557 0.005520616409829229
    vertex 0.04355038902253196 0.01455706182012446 0.01000000000000003
    vertex 0.03956247411004829 0.01819632727515557 0.01450648773478912
  endloop
endfacet
facet normal -0.67408 -0.738658 -0
  outer loop
    vertex 0.03557455919756462 0.02183559273018669 0.02
    vertex 0.03557455919756462 0.02183559273018669 0.009999999999999972
    vertex 0.03956247411004829 0.01819632727515557 0.01450648773478912
  endloop
endfacet
facet normal -0.67408 -0.738658 0
  outer loop
    vertex 0.04355038902253196 0.01455706182012446 0
    vertex 0.04355038902253196 0.01455706182012446 0.01000000000000003
    vertex 0.03956247411004829 0.01819632727515557 0.005520616409829229
  endloop
endfacet
facet normal -0.67408 -0.738658 -0
  outer loop
    vertex 0.03557455919756462 0.02183559273018669 0.009999999999999972
    vertex 0.03557455919756462 0.02183559273018669 0
    vertex 0.03956247411004829 0.01819632727515557 0.005520616409829229
  endloop
endfacet
facet normal -0.67408 -0.738658 0
  outer loop
    vertex 0.04355038902253196 0.01455706182012446 0.01000000000000003
    vertex 0.04355038902253196 0.01455706182012446 0.02
    vertex 0.03956247411004829 0.01819632727515557 0.01450648773478912
  endloop
endfacet
facet normal -0.409921 0.912121 2.94896e-16
  outer loop
    vertex 0.02735482364157186 0.007278530910062232 0.02
    vertex 0.03545260633205189 0.01091779636509334 0.02
    vertex 0.03424423581796797 0.0103747364637757 0.01223522921943027
  endloop
endfacet
facet normal -0.409921 0.912121 0
  outer loop
    vertex 0.02735482364157186 0.007278530910062232 0.01000000000000003
    vertex 0.02735482364157186 0.007278530910062232 0.02
    vertex 0.03424423581796797 0.0103747364637757 0.01223522921943027
  endloop
endfacet
facet normal -0.409921 0.912121 0
  outer loop
    vertex 0.04355038902253196 0.01455706182012446 0.009999999999999972
    vertex 0.04355038902253196 0.01455706182012446 0
    vertex 0.03797227336320666 0.01205017266304494 0.006488443476332112
  endloop
endfacet
facet normal -0.409921 0.912121 0
  outer loop
    vertex 0.04355038902253196 0.01455706182012446 0.02
    vertex 0.04355038902253196 0.01455706182012446 0.009999999999999972
    vertex 0.03935897399819108 0.01267337680549512 0.01485612475509211
  endloop
endfacet
facet normal -0.409921 0.912121 0
  outer loop
    vertex 0.04355038902253196 0.01455706182012446 0
    vertex 0.03545260633205193 0.01091779636509336 0
    vertex 0.03797227336320666 0.01205017266304494 0.006488443476332112
  endloop
endfacet
facet normal -0.409921 0.912121 0
  outer loop
    vertex 0.02735482364157186 0.007278530910062232 0
    vertex 0.02735482364157186 0.007278530910062232 0.01000000000000003
    vertex 0.03247575255927405 0.009579953462407692 0.005744734539152484
  endloop
endfacet
facet normal -0.409921 0.912121 7.41919e-17
  outer loop
    vertex 0.03545260633205189 0.01091779636509334 0.02
    vertex 0.04355038902253196 0.01455706182012446 0.02
    vertex 0.03935897399819108 0.01267337680549512 0.01485612475509211
  endloop
endfacet
facet normal -0.409921 0.912121 3.3216e-17
  outer loop
    vertex 0.03545260633205193 0.01091779636509336 0
    vertex 0.02735482364157186 0.007278530910062232 0
    vertex 0.03247575255927405 0.009579953462407692 0.005744734539152484
  endloop
endfacet
facet normal -0.409921 0.912121 1.97272e-17
  outer loop
    vertex 0.03797227336320666 0.01205017266304494 0.006488443476332112
    vertex 0.03424423581796797 0.0103747364637757 0.01223522921943027
    vertex 0.03935897399819108 0.01267337680549512 0.01485612475509211
  endloop
endfacet
facet normal -0.409921 0.912121 7.39213e-17
  outer loop
    vertex 0.04355038902253196 0.01455706182012446 0.009999999999999972
    vertex 0.03797227336320666 0.01205017266304494 0.006488443476332112
    vertex 0.03935897399819108 0.01267337680549512 0.01485612475509211
  endloop
endfacet
facet normal -0.409921 0.912121 -1.57398e-16
  outer loop
    vertex 0.03247575255927405 0.009579953462407692 0.005744734539152484
    vertex 0.03424423581796797 0.0103747364637757 0.01223522921943027
    vertex 0.03797227336320666 0.01205017266304494 0.006488443476332112
  endloop
endfacet
facet normal -0.409921 0.912121 -1.32675e-16
  outer loop
    vertex 0.03247575255927405 0.009579953462407692 0.005744734539152484
    vertex 0.02735482364157186 0.007278530910062232 0.01000000000000003
    vertex 0.03424423581796797 0.0103747364637757 0.01223522921943027
  endloop
endfacet
facet normal -0.409921 0.912121 3.2766e-16
  outer loop
    vertex 0.03424423581796797 0.0103747364637757 0.01223522921943027
    vertex 0.03545260633205189 0.01091779636509334 0.02
    vertex 0.03935897399819108 0.01267337680549512 0.01485612475509211
  endloop
endfacet
facet normal -0.409921 0.912121 2.28647e-17
  outer loop
    vertex 0.03545260633205193 0.01091779636509336 0
    vertex 0.03247575255927405 0.009579953462407692 0.005744734539152484
    vertex 0.03797227336320666 0.01205017266304494 0.006488443476332112
  endloop
endfacet
endsolid Created by Gmsh
