solid Created by Gmsh
facet normal 0.999828 0.0185231 0
  outer loop
    vertex 0.007138933740538479 0.04647802433042523 0.02
    vertex 0.007300383664187515 0.03776339476847047 0.01162351846755812
    vertex 0.007138933740538479 0.04647802433042523 0.009999999999999972
  endloop
endfacet
facet normal 0.999828 0.0185231 -0
  outer loop
    vertex 0.008 0 0
    vertex 0.007838550076350965 0.008714629561954712 0.008376481532441832
    vertex 0.008 0 0.01000000000000003
  endloop
endfacet
facet normal 0.999828 0.0185231 -1.74023e-17
  outer loop
    vertex 0.007354200305403859 0.03485851824781893 0.02
    vertex 0.007300383664187515 0.03776339476847047 0.01162351846755812
    vertex 0.007138933740538479 0.04647802433042523 0.02
  endloop
endfacet
facet normal 0.999828 0.0185231 -2.50158e-17
  outer loop
    vertex 0.00778473343513462 0.0116195060826063 0
    vertex 0.007838550076350965 0.008714629561954712 0.008376481532441832
    vertex 0.008 0 0
  endloop
endfacet
facet normal 0.999828 0.0185231 1.68552e-17
  outer loop
    vertex 0.007569466870269238 0.02323901216521267 0.02
    vertex 0.007470803028039274 0.02856461911974049 0.01027058641125968
    vertex 0.007354200305403859 0.03485851824781893 0.02
  endloop
endfacet
facet normal 0.999828 0.0185231 1.96014e-17
  outer loop
    vertex 0.00778473343513462 0.01161950608260634 0.02
    vertex 0.00766962561919966 0.01783271419622218 0.009774511323950253
    vertex 0.007569466870269238 0.02323901216521267 0.02
  endloop
endfacet
facet normal 0.999828 0.0185231 5.1419e-17
  outer loop
    vertex 0.007569466870269238 0.02323901216521267 0.02
    vertex 0.00766962561919966 0.01783271419622218 0.009774511323950253
    vertex 0.007470803028039274 0.02856461911974049 0.01027058641125968
  endloop
endfacet
facet normal 0.999828 0.0185231 -2.05058e-17
  outer loop
    vertex 0.007569466870269241 0.02323901216521256 0
    vertex 0.00766962561919966 0.01783271419622218 0.009774511323950253
    vertex 0.00778473343513462 0.0116195060826063 0
  endloop
endfacet
facet normal 0.999828 0.0185231 -1.59671e-17
  outer loop
    vertex 0.007354200305403859 0.03485851824781889 0
    vertex 0.007470803028039274 0.02856461911974049 0.01027058641125968
    vertex 0.007569466870269241 0.02323901216521256 0
  endloop
endfacet
facet normal 0.999828 0.0185231 1.57442e-17
  outer loop
    vertex 0.007470803028039274 0.02856461911974049 0.01027058641125968
    vertex 0.00766962561919966 0.01783271419622218 0.009774511323950253
    vertex 0.007569466870269241 0.02323901216521256 0
  endloop
endfacet
facet normal 0.999828 0.0185231 -3.4275e-17
  outer loop
    vertex 0.00778473343513462 0.01161950608260634 0.02
    vertex 0.007838550076350965 0.008714629561954712 0.008376481532441832
    vertex 0.00766962561919966 0.01783271419622218 0.009774511323950253
  endloop
endfacet
facet normal 0.999828 0.0185231 -4.77953e-17
  outer loop
    vertex 0.007354200305403859 0.03485851824781889 0
    vertex 0.007300383664187515 0.03776339476847047 0.01162351846755812
    vertex 0.007470803028039274 0.02856461911974049 0.01027058641125968
  endloop
endfacet
facet normal 0.999828 0.0185231 -4.7105e-17
  outer loop
    vertex 0.00778473343513462 0.01161950608260634 0.02
    vertex 0.007899223125965082 0.00543966268782644 0.01500000000000001
    vertex 0.007838550076350965 0.008714629561954712 0.008376481532441832
  endloop
endfacet
facet normal 0.999828 0.0185231 -4.06396e-17
  outer loop
    vertex 0.007354200305403859 0.03485851824781889 0
    vertex 0.007239710614573396 0.0410383616425988 0.004999999999999985
    vertex 0.007300383664187515 0.03776339476847047 0.01162351846755812
  endloop
endfacet
facet normal 0.999828 0.0185231 2.55097e-17
  outer loop
    vertex 0.008 0 0.02
    vertex 0.007899223125965082 0.00543966268782644 0.01500000000000001
    vertex 0.00778473343513462 0.01161950608260634 0.02
  endloop
endfacet
facet normal 0.999828 0.0185231 -2.55097e-17
  outer loop
    vertex 0.007138933740538479 0.04647802433042523 0
    vertex 0.007239710614573396 0.0410383616425988 0.004999999999999985
    vertex 0.007354200305403859 0.03485851824781889 0
  endloop
endfacet
facet normal 0.999828 0.0185231 -2.61438e-17
  outer loop
    vertex 0.007470803028039274 0.02856461911974049 0.01027058641125968
    vertex 0.007300383664187515 0.03776339476847047 0.01162351846755812
    vertex 0.007354200305403859 0.03485851824781893 0.02
  endloop
endfacet
facet normal 0.999828 0.0185231 -4.47456e-17
  outer loop
    vertex 0.00766962561919966 0.01783271419622218 0.009774511323950253
    vertex 0.007838550076350965 0.008714629561954712 0.008376481532441832
    vertex 0.00778473343513462 0.0116195060826063 0
  endloop
endfacet
facet normal 0.999828 0.0185231 0
  outer loop
    vertex 0.007138933740538479 0.04647802433042523 0.009999999999999972
    vertex 0.007239710614573396 0.0410383616425988 0.004999999999999985
    vertex 0.007138933740538479 0.04647802433042523 0
  endloop
endfacet
facet normal 0.999828 0.0185231 -0
  outer loop
    vertex 0.008 0 0.01000000000000003
    vertex 0.007899223125965082 0.00543966268782644 0.01500000000000001
    vertex 0.008 0 0.02
  endloop
endfacet
facet normal 0.999828 0.0185231 -2.62609e-17
  outer loop
    vertex 0.007300383664187515 0.03776339476847047 0.01162351846755812
    vertex 0.007239710614573396 0.0410383616425988 0.004999999999999985
    vertex 0.007138933740538479 0.04647802433042523 0.009999999999999972
  endloop
endfacet
facet normal 0.999828 0.0185231 -6.26222e-17
  outer loop
    vertex 0.007838550076350965 0.008714629561954712 0.008376481532441832
    vertex 0.007899223125965082 0.00543966268782644 0.01500000000000001
    vertex 0.008 0 0.01000000000000003
  endloop
endfacet
endsolid Created by Gmsh
