solid Created by Gmsh
facet normal -0.657847 -0.753152 3.04971e-15
  outer loop
    vertex 0.03559777499774298 0.05379040449971828 0
    vertex 0.04329568541019774 0.0470666039372535 0
    vertex 0.03944673020397037 0.0504285042184859 0.004999999999999986
  endloop
endfacet
facet normal -0.657847 -0.753152 -2.98341e-15
  outer loop
    vertex 0.04329568541019774 0.0470666039372535 0.02
    vertex 0.03559777499774298 0.05379040449971828 0.02
    vertex 0.03944673020397037 0.0504285042184859 0.01500000000000001
  endloop
endfacet
facet normal -0.657847 -0.753152 0
  outer loop
    vertex 0.03944673020397037 0.0504285042184859 0.004999999999999986
    vertex 0.04329568541019774 0.0470666039372535 0.01000000000000003
    vertex 0.03944673020397037 0.0504285042184859 0.01500000000000001
  endloop
endfacet
facet normal -0.657847 -0.753152 -0
  outer loop
    vertex 0.03559777499774298 0.05379040449971828 0.02
    vertex 0.03559777499774298 0.05379040449971828 0.009999999999999972
    vertex 0.03944673020397037 0.0504285042184859 0.01500000000000001
  endloop
endfacet
facet normal -0.657847 -0.753152 0
  outer loop
    vertex 0.04329568541019774 0.0470666039372535 0
    vertex 0.04329568541019774 0.0470666039372535 0.01000000000000003
    vertex 0.03944673020397037 0.0504285042184859 0.004999999999999986
  endloop
endfacet
facet normal -0.657847 -0.753152 0
  outer loop
    vertex 0.03559777499774298 0.05379040449971828 0.009999999999999972
    vertex 0.03944673020397037 0.0504285042184859 0.004999999999999986
    vertex 0.03944673020397037 0.0504285042184859 0.01500000000000001
  endloop
endfacet
facet normal -0.657847 -0.753152 -0
  outer loop
    vertex 0.03559777499774298 0.05379040449971828 0.009999999999999972
    vertex 0.03559777499774298 0.05379040449971828 0
    vertex 0.03944673020397037 0.0504285042184859 0.004999999999999986
  endloop
endfacet
facet normal -0.657847 -0.753152 0
  outer loop
    vertex 0.04329568541019774 0.0470666039372535 0.01000000000000003
    vertex 0.04329568541019774 0.0470666039372535 0.02
    vertex 0.03944673020397037 0.0504285042184859 0.01500000000000001
  endloop
endfacet
facet normal -0.903573 0.428435 0
  outer loop
    vertex 0.04329568541019774 0.0470666039372535 0.02
    vertex 0.04329568541019774 0.0470666039372535 0.009999999999999972
    vertex 0.04170161963397463 0.0437047036560211 0.015
  endloop
endfacet
facet normal -0.903573 0.428435 0
  outer loop
    vertex 0.04010755385775153 0.04034280337478871 0
    vertex 0.04010755385775153 0.04034280337478871 0.01000000000000003
    vertex 0.04170161963397463 0.0437047036560211 0.005
  endloop
endfacet
facet normal -0.903573 0.428435 0
  outer loop
    vertex 0.04329568541019774 0.0470666039372535 0.009999999999999972
    vertex 0.04329568541019774 0.0470666039372535 0
    vertex 0.04170161963397463 0.0437047036560211 0.005
  endloop
endfacet
facet normal -0.903573 0.428435 0
  outer loop
    vertex 0.04010755385775153 0.04034280337478871 0.01000000000000003
    vertex 0.04010755385775153 0.04034280337478871 0.02
    vertex 0.04170161963397463 0.0437047036560211 0.015
  endloop
endfacet
facet normal -0.903573 0.428435 0
  outer loop
    vertex 0.04010755385775153 0.04034280337478871 0.01000000000000003
    vertex 0.04329568541019774 0.0470666039372535 0.009999999999999972
    vertex 0.04170161963397463 0.0437047036560211 0.005
  endloop
endfacet
facet normal -0.903573 0.428435 0
  outer loop
    vertex 0.04329568541019774 0.0470666039372535 0.009999999999999972
    vertex 0.04010755385775153 0.04034280337478871 0.01000000000000003
    vertex 0.04170161963397463 0.0437047036560211 0.015
  endloop
endfacet
facet normal -0.903573 0.428435 0
  outer loop
    vertex 0.04329568541019774 0.0470666039372535 0
    vertex 0.04010755385775153 0.04034280337478871 0
    vertex 0.04170161963397463 0.0437047036560211 0.005
  endloop
endfacet
facet normal -0.903573 0.428435 0
  outer loop
    vertex 0.04010755385775153 0.04034280337478871 0.02
    vertex 0.04329568541019774 0.0470666039372535 0.02
    vertex 0.04170161963397463 0.0437047036560211 0.015
  endloop
endfacet
facet normal -0.908784 -0.417267 0
  outer loop
    vertex 0.04319478238800538 0.03361900281232393 0
    vertex 0.04319478238800538 0.03361900281232393 0.01000000000000003
    vertex 0.04165116812287847 0.03698090309355632 0.005
  endloop
endfacet
facet normal -0.908784 -0.417267 -0
  outer loop
    vertex 0.04010755385775153 0.04034280337478871 0.02
    vertex 0.04010755385775153 0.04034280337478871 0.009999999999999972
    vertex 0.04165116812287847 0.03698090309355632 0.015
  endloop
endfacet
facet normal -0.908784 -0.417267 0
  outer loop
    vertex 0.04319478238800538 0.03361900281232393 0.01000000000000003
    vertex 0.04319478238800538 0.03361900281232393 0.02
    vertex 0.04165116812287847 0.03698090309355632 0.015
  endloop
endfacet
facet normal -0.908784 -0.417267 -0
  outer loop
    vertex 0.04010755385775153 0.04034280337478871 0.009999999999999972
    vertex 0.04010755385775153 0.04034280337478871 0
    vertex 0.04165116812287847 0.03698090309355632 0.005
  endloop
endfacet
facet normal -0.908784 -0.417267 3.11397e-15
  outer loop
    vertex 0.04010755385775153 0.04034280337478871 0.009999999999999972
    vertex 0.04319478238800538 0.03361900281232393 0.01000000000000003
    vertex 0.04165116812287847 0.03698090309355632 0.015
  endloop
endfacet
facet normal -0.908784 -0.417267 3.11397e-15
  outer loop
    vertex 0.04010755385775153 0.04034280337478871 0
    vertex 0.04319478238800538 0.03361900281232393 0
    vertex 0.04165116812287847 0.03698090309355632 0.005
  endloop
endfacet
facet normal -0.908784 -0.417267 -3.06818e-15
  outer loop
    vertex 0.04319478238800538 0.03361900281232393 0.02
    vertex 0.04010755385775153 0.04034280337478871 0.02
    vertex 0.04165116812287847 0.03698090309355632 0.015
  endloop
endfacet
facet normal -0.908784 -0.417267 -3.06818e-15
  outer loop
    vertex 0.04319478238800538 0.03361900281232393 0.01000000000000003
    vertex 0.04010755385775153 0.04034280337478871 0.009999999999999972
    vertex 0.04165116812287847 0.03698090309355632 0.005
  endloop
endfacet
facet normal -0.310592 0.950543 0
  outer loop
    vertex 0.04319478238800538 0.03361900281232393 0.02
    vertex 0.04319478238800538 0.03361900281232393 0.009999999999999972
    vertex 0.03528977128493026 0.03103601991312724 0.01185641399139553
  endloop
endfacet
facet normal -0.310592 0.950543 -6.72649e-16
  outer loop
    vertex 0.03290595737919922 0.03025710253109153 0.02
    vertex 0.04319478238800538 0.03361900281232393 0.02
    vertex 0.03528977128493026 0.03103601991312724 0.01185641399139553
  endloop
endfacet
facet normal -0.310592 0.950543 8.25873e-16
  outer loop
    vertex 0.03290595737919921 0.03025710253109153 0
    vertex 0.02261713237039305 0.02689520224985914 0
    vertex 0.02960625708934362 0.02917891689541851 0.007390733095068396
  endloop
endfacet
facet normal -0.310592 0.950543 0
  outer loop
    vertex 0.02261713237039305 0.02689520224985914 0
    vertex 0.02261713237039305 0.02689520224985914 0.01000000000000003
    vertex 0.02960625708934362 0.02917891689541851 0.007390733095068396
  endloop
endfacet
facet normal -0.310592 0.950543 6.88635e-16
  outer loop
    vertex 0.04319478238800538 0.03361900281232393 0
    vertex 0.03290595737919921 0.03025710253109153 0
    vertex 0.0380503698836023 0.03193805267170773 0.004999999999999986
  endloop
endfacet
facet normal -0.310592 0.950543 -8.74873e-16
  outer loop
    vertex 0.02261713237039305 0.02689520224985914 0.02
    vertex 0.03290595737919922 0.03025710253109153 0.02
    vertex 0.0285612997828108 0.0288374743828185 0.0139176693865674
  endloop
endfacet
facet normal -0.310592 0.950543 0
  outer loop
    vertex 0.04319478238800538 0.03361900281232393 0.009999999999999972
    vertex 0.04319478238800538 0.03361900281232393 0
    vertex 0.0380503698836023 0.03193805267170773 0.004999999999999986
  endloop
endfacet
facet normal -0.310592 0.950543 0
  outer loop
    vertex 0.02261713237039305 0.02689520224985914 0.01000000000000003
    vertex 0.02261713237039305 0.02689520224985914 0.02
    vertex 0.0285612997828108 0.0288374743828185 0.0139176693865674
  endloop
endfacet
facet normal -0.310592 0.950543 8.41774e-16
  outer loop
    vertex 0.03290595737919921 0.03025710253109153 0
    vertex 0.02960625708934362 0.02917891689541851 0.007390733095068396
    vertex 0.0380503698836023 0.03193805267170773 0.004999999999999986
  endloop
endfacet
facet normal -0.310592 0.950543 4.39484e-16
  outer loop
    vertex 0.02960625708934362 0.02917891689541851 0.007390733095068396
    vertex 0.03528977128493026 0.03103601991312724 0.01185641399139553
    vertex 0.0380503698836023 0.03193805267170773 0.004999999999999986
  endloop
endfacet
facet normal -0.310592 0.950543 -6.77943e-16
  outer loop
    vertex 0.0285612997828108 0.0288374743828185 0.0139176693865674
    vertex 0.03290595737919922 0.03025710253109153 0.02
    vertex 0.03528977128493026 0.03103601991312724 0.01185641399139553
  endloop
endfacet
facet normal -0.310592 0.950543 2.29688e-16
  outer loop
    vertex 0.03528977128493026 0.03103601991312724 0.01185641399139553
    vertex 0.04319478238800538 0.03361900281232393 0.009999999999999972
    vertex 0.0380503698836023 0.03193805267170773 0.004999999999999986
  endloop
endfacet
facet normal -0.310592 0.950543 6.74769e-17
  outer loop
    vertex 0.0285612997828108 0.0288374743828185 0.0139176693865674
    vertex 0.03528977128493026 0.03103601991312724 0.01185641399139553
    vertex 0.02960625708934362 0.02917891689541851 0.007390733095068396
  endloop
endfacet
facet normal -0.310592 0.950543 1.87718e-16
  outer loop
    vertex 0.02261713237039305 0.02689520224985914 0.01000000000000003
    vertex 0.0285612997828108 0.0288374743828185 0.0139176693865674
    vertex 0.02960625708934362 0.02917891689541851 0.007390733095068396
  endloop
endfacet
facet normal -0.378111 -0.92576 -3.43661e-16
  outer loop
    vertex 0.03907957924356986 0.02017140168739436 0.02
    vertex 0.03084835580698146 0.02353330196862674 0.02
    vertex 0.03208838285456873 0.02302683445354405 0.01223819265954992
  endloop
endfacet
facet normal -0.378111 -0.92576 0
  outer loop
    vertex 0.03907957924356986 0.02017140168739436 0.01000000000000003
    vertex 0.03907957924356986 0.02017140168739436 0.02
    vertex 0.03208838285456873 0.02302683445354405 0.01223819265954992
  endloop
endfacet
facet normal -0.378111 -0.92576 -0
  outer loop
    vertex 0.02261713237039305 0.02689520224985914 0.009999999999999972
    vertex 0.02261713237039305 0.02689520224985914 0
    vertex 0.02828928147791115 0.02457851144117654 0.006494950376886912
  endloop
endfacet
facet normal -0.378111 -0.92576 -0
  outer loop
    vertex 0.02261713237039305 0.02689520224985914 0.02
    vertex 0.02261713237039305 0.02689520224985914 0.009999999999999972
    vertex 0.02687833782238214 0.02515478687688408 0.01484854445233344
  endloop
endfacet
facet normal -0.378111 -0.92576 -5.86703e-17
  outer loop
    vertex 0.02261713237039305 0.02689520224985914 0
    vertex 0.03084835580698145 0.02353330196862675 0
    vertex 0.02828928147791115 0.02457851144117654 0.006494950376886912
  endloop
endfacet
facet normal -0.378111 -0.92576 0
  outer loop
    vertex 0.03907957924356986 0.02017140168739436 0
    vertex 0.03907957924356986 0.02017140168739436 0.01000000000000003
    vertex 0.03387703572532021 0.02229629024762721 0.005746628607287372
  endloop
endfacet
facet normal -0.378111 -0.92576 -5.54786e-16
  outer loop
    vertex 0.03084835580698146 0.02353330196862674 0.02
    vertex 0.02261713237039305 0.02689520224985914 0.02
    vertex 0.02687833782238214 0.02515478687688408 0.01484854445233344
  endloop
endfacet
facet normal -0.378111 -0.92576 -4.31017e-16
  outer loop
    vertex 0.03084835580698145 0.02353330196862675 0
    vertex 0.03907957924356986 0.02017140168739436 0
    vertex 0.03387703572532021 0.02229629024762721 0.005746628607287372
  endloop
endfacet
facet normal -0.378111 -0.92576 1.08255e-16
  outer loop
    vertex 0.02828928147791115 0.02457851144117654 0.006494950376886912
    vertex 0.03208838285456873 0.02302683445354405 0.01223819265954992
    vertex 0.02687833782238214 0.02515478687688408 0.01484854445233344
  endloop
endfacet
facet normal -0.378111 -0.92576 1.47822e-16
  outer loop
    vertex 0.02261713237039305 0.02689520224985914 0.009999999999999972
    vertex 0.02828928147791115 0.02457851144117654 0.006494950376886912
    vertex 0.02687833782238214 0.02515478687688408 0.01484854445233344
  endloop
endfacet
facet normal -0.378111 -0.92576 2.91799e-16
  outer loop
    vertex 0.03387703572532021 0.02229629024762721 0.005746628607287372
    vertex 0.03208838285456873 0.02302683445354405 0.01223819265954992
    vertex 0.02828928147791115 0.02457851144117654 0.006494950376886912
  endloop
endfacet
facet normal -0.378111 -0.92576 3.78995e-16
  outer loop
    vertex 0.03387703572532021 0.02229629024762721 0.005746628607287372
    vertex 0.03907957924356986 0.02017140168739436 0.01000000000000003
    vertex 0.03208838285456873 0.02302683445354405 0.01223819265954992
  endloop
endfacet
facet normal -0.378111 -0.92576 -4.53175e-16
  outer loop
    vertex 0.03208838285456873 0.02302683445354405 0.01223819265954992
    vertex 0.03084835580698146 0.02353330196862674 0.02
    vertex 0.02687833782238214 0.02515478687688408 0.01484854445233344
  endloop
endfacet
facet normal -0.378111 -0.92576 -3.30748e-16
  outer loop
    vertex 0.03084835580698145 0.02353330196862675 0
    vertex 0.03387703572532021 0.02229629024762721 0.005746628607287372
    vertex 0.02828928147791115 0.02457851144117654 0.006494950376886912
  endloop
endfacet
facet normal -0.82162 -0.570036 -0
  outer loop
    vertex 0.03907957924356986 0.02017140168739436 0.02
    vertex 0.03907957924356986 0.02017140168739436 0.009999999999999972
    vertex 0.04141205197538299 0.01680950140616196 0.015
  endloop
endfacet
facet normal -0.82162 -0.570036 0
  outer loop
    vertex 0.04374452470719613 0.01344760112492957 0
    vertex 0.04374452470719613 0.01344760112492957 0.01000000000000003
    vertex 0.04141205197538299 0.01680950140616196 0.005
  endloop
endfacet
facet normal -0.82162 -0.570036 -0
  outer loop
    vertex 0.03907957924356986 0.02017140168739436 0.009999999999999972
    vertex 0.03907957924356986 0.02017140168739436 0
    vertex 0.04141205197538299 0.01680950140616196 0.005
  endloop
endfacet
facet normal -0.82162 -0.570036 0
  outer loop
    vertex 0.04374452470719613 0.01344760112492957 0.01000000000000003
    vertex 0.04374452470719613 0.01344760112492957 0.02
    vertex 0.04141205197538299 0.01680950140616196 0.015
  endloop
endfacet
facet normal -0.82162 -0.570036 0
  outer loop
    vertex 0.04374452470719613 0.01344760112492957 0.01000000000000003
    vertex 0.03907957924356986 0.02017140168739436 0.009999999999999972
    vertex 0.04141205197538299 0.01680950140616196 0.005
  endloop
endfacet
facet normal -0.82162 -0.570036 0
  outer loop
    vertex 0.03907957924356986 0.02017140168739436 0.009999999999999972
    vertex 0.04374452470719613 0.01344760112492957 0.01000000000000003
    vertex 0.04141205197538299 0.01680950140616196 0.015
  endloop
endfacet
facet normal -0.82162 -0.570036 0
  outer loop
    vertex 0.03907957924356986 0.02017140168739436 0
    vertex 0.04374452470719613 0.01344760112492957 0
    vertex 0.04141205197538299 0.01680950140616196 0.005
  endloop
endfacet
facet normal -0.82162 -0.570036 0
  outer loop
    vertex 0.04374452470719613 0.01344760112492957 0.02
    vertex 0.03907957924356986 0.02017140168739436 0.02
    vertex 0.04141205197538299 0.01680950140616196 0.015
  endloop
endfacet
facet normal -0.705957 0.708255 0
  outer loop
    vertex 0.04374452470719613 0.01344760112492957 0.02
    vertex 0.04374452470719613 0.01344760112492957 0.009999999999999972
    vertex 0.04037168054434932 0.01008570084369718 0.015
  endloop
endfacet
facet normal -0.705957 0.708255 0
  outer loop
    vertex 0.03699883638150252 0.006723800562464785 0
    vertex 0.03699883638150252 0.006723800562464785 0.01000000000000003
    vertex 0.04037168054434932 0.01008570084369718 0.005
  endloop
endfacet
facet normal -0.705957 0.708255 0
  outer loop
    vertex 0.04374452470719613 0.01344760112492957 0.009999999999999972
    vertex 0.04374452470719613 0.01344760112492957 0
    vertex 0.04037168054434932 0.01008570084369718 0.005
  endloop
endfacet
facet normal -0.705957 0.708255 0
  outer loop
    vertex 0.03699883638150252 0.006723800562464785 0.01000000000000003
    vertex 0.03699883638150252 0.006723800562464785 0.02
    vertex 0.04037168054434932 0.01008570084369718 0.015
  endloop
endfacet
facet normal -0.705957 0.708255 -4.98026e-16
  outer loop
    vertex 0.04374452470719613 0.01344760112492957 0
    vertex 0.03699883638150252 0.006723800562464785 0
    vertex 0.04037168054434932 0.01008570084369718 0.005
  endloop
endfacet
facet normal -0.705957 0.708255 7.11465e-16
  outer loop
    vertex 0.03699883638150252 0.006723800562464785 0.02
    vertex 0.04374452470719613 0.01344760112492957 0.02
    vertex 0.04037168054434932 0.01008570084369718 0.015
  endloop
endfacet
facet normal -0.705957 0.708255 4.98026e-16
  outer loop
    vertex 0.03699883638150252 0.006723800562464785 0.01000000000000003
    vertex 0.04374452470719613 0.01344760112492957 0.009999999999999972
    vertex 0.04037168054434932 0.01008570084369718 0.005
  endloop
endfacet
facet normal -0.705957 0.708255 -7.11465e-16
  outer loop
    vertex 0.04374452470719613 0.01344760112492957 0.009999999999999972
    vertex 0.03699883638150252 0.006723800562464785 0.01000000000000003
    vertex 0.04037168054434932 0.01008570084369718 0.015
  endloop
endfacet
endsolid Created by Gmsh
