solid Created by Gmsh
facet normal -0.461223 0.887284 1.41747e-16
  outer loop
    vertex 0.02676667488754236 0.05401995777952637 0
    vertex 0.01983856504419467 0.05041862726089128 0
    vertex 0.02683544426826822 0.05405570508653443 0.007987896406175697
  endloop
endfacet
facet normal -0.461223 0.887284 1.08644e-16
  outer loop
    vertex 0.03369478473089006 0.05762128829816147 0
    vertex 0.02676667488754236 0.05401995777952637 0
    vertex 0.02683544426826822 0.05405570508653443 0.007987896406175697
  endloop
endfacet
facet normal -0.461223 0.887284 0
  outer loop
    vertex 0.01983856504419467 0.05041862726089128 0
    vertex 0.01983856504419467 0.05041862726089128 0.01000000000000003
    vertex 0.02683544426826822 0.05405570508653443 0.007987896406175697
  endloop
endfacet
facet normal -0.461223 0.887284 0
  outer loop
    vertex 0.03369478473089006 0.05762128829816147 0.009999999999999972
    vertex 0.03369478473089006 0.05762128829816147 0
    vertex 0.02683544426826822 0.05405570508653443 0.007987896406175697
  endloop
endfacet
facet normal -0.461223 0.887284 0
  outer loop
    vertex 0.03369478473089006 0.05762128829816147 0.02
    vertex 0.03369478473089006 0.05762128829816147 0.009999999999999972
    vertex 0.02909745000221591 0.05523152799742769 0.01439301583122307
  endloop
endfacet
facet normal -0.461223 0.887284 0
  outer loop
    vertex 0.01983856504419467 0.05041862726089128 0.01000000000000003
    vertex 0.01983856504419467 0.05041862726089128 0.02
    vertex 0.02447533984928317 0.05282888907705421 0.01447618244747976
  endloop
endfacet
facet normal -0.461223 0.887284 3.14216e-16
  outer loop
    vertex 0.01983856504419467 0.05041862726089128 0.02
    vertex 0.02676667488754236 0.05401995777952637 0.02
    vertex 0.02447533984928317 0.05282888907705421 0.01447618244747976
  endloop
endfacet
facet normal -0.461223 0.887284 -6.19112e-16
  outer loop
    vertex 0.02676667488754236 0.05401995777952637 0.02
    vertex 0.03369478473089006 0.05762128829816147 0.02
    vertex 0.02909745000221591 0.05523152799742769 0.01439301583122307
  endloop
endfacet
facet normal -0.461223 0.887284 4.77077e-16
  outer loop
    vertex 0.02909745000221591 0.05523152799742769 0.01439301583122307
    vertex 0.03369478473089006 0.05762128829816147 0.009999999999999972
    vertex 0.02683544426826822 0.05405570508653443 0.007987896406175697
  endloop
endfacet
facet normal -0.461223 0.887284 2.52258e-17
  outer loop
    vertex 0.02909745000221591 0.05523152799742769 0.01439301583122307
    vertex 0.02683544426826822 0.05405570508653443 0.007987896406175697
    vertex 0.02447533984928317 0.05282888907705421 0.01447618244747976
  endloop
endfacet
facet normal -0.461223 0.887284 -3.6978e-16
  outer loop
    vertex 0.02683544426826822 0.05405570508653443 0.007987896406175697
    vertex 0.01983856504419467 0.05041862726089128 0.01000000000000003
    vertex 0.02447533984928317 0.05282888907705421 0.01447618244747976
  endloop
endfacet
facet normal -0.461223 0.887284 -2.33746e-16
  outer loop
    vertex 0.02676667488754236 0.05401995777952637 0.02
    vertex 0.02909745000221591 0.05523152799742769 0.01439301583122307
    vertex 0.02447533984928317 0.05282888907705421 0.01447618244747976
  endloop
endfacet
facet normal -0.952168 -0.305574 -0
  outer loop
    vertex 0.01983856504419467 0.05041862726089128 0.02
    vertex 0.01983856504419467 0.05041862726089128 0.009999999999999972
    vertex 0.02099431848324184 0.04681729674225619 0.015
  endloop
endfacet
facet normal -0.952168 -0.305574 0
  outer loop
    vertex 0.02215007192228903 0.0432159662236211 0
    vertex 0.02215007192228903 0.0432159662236211 0.01000000000000003
    vertex 0.02099431848324184 0.04681729674225619 0.005000000000000001
  endloop
endfacet
facet normal -0.952168 -0.305574 -0
  outer loop
    vertex 0.01983856504419467 0.05041862726089128 0.009999999999999972
    vertex 0.01983856504419467 0.05041862726089128 0
    vertex 0.02099431848324184 0.04681729674225619 0.005000000000000001
  endloop
endfacet
facet normal -0.952168 -0.305574 0
  outer loop
    vertex 0.02215007192228903 0.0432159662236211 0.01000000000000003
    vertex 0.02215007192228903 0.0432159662236211 0.02
    vertex 0.02099431848324184 0.04681729674225619 0.015
  endloop
endfacet
facet normal -0.952168 -0.305574 1.52286e-15
  outer loop
    vertex 0.02215007192228903 0.0432159662236211 0.01000000000000003
    vertex 0.01983856504419467 0.05041862726089128 0.009999999999999972
    vertex 0.02099431848324184 0.04681729674225619 0.005000000000000001
  endloop
endfacet
facet normal -0.952168 -0.305574 -1.52286e-15
  outer loop
    vertex 0.01983856504419467 0.05041862726089128 0.009999999999999972
    vertex 0.02215007192228903 0.0432159662236211 0.01000000000000003
    vertex 0.02099431848324184 0.04681729674225619 0.015
  endloop
endfacet
facet normal -0.952168 -0.305574 1.52286e-15
  outer loop
    vertex 0.02215007192228903 0.0432159662236211 0.02
    vertex 0.01983856504419467 0.05041862726089128 0.02
    vertex 0.02099431848324184 0.04681729674225619 0.015
  endloop
endfacet
facet normal -0.952168 -0.305574 -1.52286e-15
  outer loop
    vertex 0.01983856504419467 0.05041862726089128 0
    vertex 0.02215007192228903 0.0432159662236211 0
    vertex 0.02099431848324184 0.04681729674225619 0.005000000000000001
  endloop
endfacet
facet normal -0.750639 0.660712 0
  outer loop
    vertex 0.02215007192228903 0.0432159662236211 0.02
    vertex 0.02215007192228903 0.0432159662236211 0.009999999999999972
    vertex 0.0189801834226708 0.03961463570498601 0.015
  endloop
endfacet
facet normal -0.750639 0.660712 0
  outer loop
    vertex 0.01581029492305255 0.03601330518635092 0
    vertex 0.01581029492305255 0.03601330518635092 0.01000000000000003
    vertex 0.0189801834226708 0.03961463570498601 0.005000000000000001
  endloop
endfacet
facet normal -0.750639 0.660712 0
  outer loop
    vertex 0.02215007192228903 0.0432159662236211 0.009999999999999972
    vertex 0.02215007192228903 0.0432159662236211 0
    vertex 0.0189801834226708 0.03961463570498601 0.005000000000000001
  endloop
endfacet
facet normal -0.750639 0.660712 0
  outer loop
    vertex 0.01581029492305255 0.03601330518635092 0.01000000000000003
    vertex 0.01581029492305255 0.03601330518635092 0.02
    vertex 0.0189801834226708 0.03961463570498601 0.015
  endloop
endfacet
facet normal -0.750639 0.660712 7.76822e-16
  outer loop
    vertex 0.02215007192228903 0.0432159662236211 0.009999999999999972
    vertex 0.01581029492305255 0.03601330518635092 0.01000000000000003
    vertex 0.0189801834226708 0.03961463570498601 0.015
  endloop
endfacet
facet normal -0.750639 0.660712 7.76822e-16
  outer loop
    vertex 0.02215007192228903 0.0432159662236211 0
    vertex 0.01581029492305255 0.03601330518635092 0
    vertex 0.0189801834226708 0.03961463570498601 0.005000000000000001
  endloop
endfacet
facet normal -0.750639 0.660712 -7.76822e-16
  outer loop
    vertex 0.01581029492305255 0.03601330518635092 0.01000000000000003
    vertex 0.02215007192228903 0.0432159662236211 0.009999999999999972
    vertex 0.0189801834226708 0.03961463570498601 0.005000000000000001
  endloop
endfacet
facet normal -0.750639 0.660712 -7.76822e-16
  outer loop
    vertex 0.01581029492305255 0.03601330518635092 0.02
    vertex 0.02215007192228903 0.0432159662236211 0.02
    vertex 0.0189801834226708 0.03961463570498601 0.015
  endloop
endfacet
facet normal -0.782297 0.622906 0
  outer loop
    vertex 0.01581029492305255 0.03601330518635092 0.02
    vertex 0.01581029492305255 0.03601330518635092 0.009999999999999972
    vertex 0.01294272423362473 0.03241197466771582 0.015
  endloop
endfacet
facet normal -0.782297 0.622906 0
  outer loop
    vertex 0.01007515354419689 0.02881064414908073 0
    vertex 0.01007515354419689 0.02881064414908073 0.01000000000000003
    vertex 0.01294272423362473 0.03241197466771582 0.004999999999999999
  endloop
endfacet
facet normal -0.782297 0.622906 0
  outer loop
    vertex 0.01581029492305255 0.03601330518635092 0.009999999999999972
    vertex 0.01581029492305255 0.03601330518635092 0
    vertex 0.01294272423362473 0.03241197466771582 0.004999999999999999
  endloop
endfacet
facet normal -0.782297 0.622906 0
  outer loop
    vertex 0.01007515354419689 0.02881064414908073 0.01000000000000003
    vertex 0.01007515354419689 0.02881064414908073 0.02
    vertex 0.01294272423362473 0.03241197466771582 0.015
  endloop
endfacet
facet normal -0.782297 0.622906 7.35985e-16
  outer loop
    vertex 0.01581029492305255 0.03601330518635092 0
    vertex 0.01007515354419689 0.02881064414908073 0
    vertex 0.01294272423362473 0.03241197466771582 0.004999999999999999
  endloop
endfacet
facet normal -0.782297 0.622906 7.35985e-16
  outer loop
    vertex 0.01581029492305255 0.03601330518635092 0.009999999999999972
    vertex 0.01007515354419689 0.02881064414908073 0.01000000000000003
    vertex 0.01294272423362473 0.03241197466771582 0.015
  endloop
endfacet
facet normal -0.782297 0.622906 -7.35985e-16
  outer loop
    vertex 0.01007515354419689 0.02881064414908073 0.02
    vertex 0.01581029492305255 0.03601330518635092 0.02
    vertex 0.01294272423362473 0.03241197466771582 0.015
  endloop
endfacet
facet normal -0.782297 0.622906 -7.35985e-16
  outer loop
    vertex 0.01007515354419689 0.02881064414908073 0.01000000000000003
    vertex 0.01581029492305255 0.03601330518635092 0.009999999999999972
    vertex 0.01294272423362473 0.03241197466771582 0.004999999999999999
  endloop
endfacet
facet normal -0.999983 0.00576822 -1.46998e-18
  outer loop
    vertex 0.01003360629918448 0.02160798311181055 0.02
    vertex 0.01007515354419689 0.02881064414908073 0.02
    vertex 0.01005437992169069 0.02520931363044564 0.015
  endloop
endfacet
facet normal -0.999983 0.00576822 2.20496e-18
  outer loop
    vertex 0.01003360629918448 0.02160798311181055 0.01000000000000003
    vertex 0.01007515354419689 0.02881064414908073 0.009999999999999972
    vertex 0.01005437992169069 0.02520931363044564 0.005
  endloop
endfacet
facet normal -0.999983 0.00576822 -1.46998e-18
  outer loop
    vertex 0.01007515354419689 0.02881064414908073 0
    vertex 0.01003360629918448 0.02160798311181055 0
    vertex 0.01005437992169069 0.02520931363044564 0.005
  endloop
endfacet
facet normal -0.999983 0.00576822 2.20496e-18
  outer loop
    vertex 0.01007515354419689 0.02881064414908073 0.009999999999999972
    vertex 0.01003360629918448 0.02160798311181055 0.01000000000000003
    vertex 0.01005437992169069 0.02520931363044564 0.015
  endloop
endfacet
facet normal -0.999983 0.00576822 0
  outer loop
    vertex 0.01007515354419689 0.02881064414908073 0.009999999999999972
    vertex 0.01007515354419689 0.02881064414908073 0
    vertex 0.01005437992169069 0.02520931363044564 0.005
  endloop
endfacet
facet normal -0.999983 0.00576822 0
  outer loop
    vertex 0.01007515354419689 0.02881064414908073 0.02
    vertex 0.01007515354419689 0.02881064414908073 0.009999999999999972
    vertex 0.01005437992169069 0.02520931363044564 0.015
  endloop
endfacet
facet normal -0.999983 0.00576822 0
  outer loop
    vertex 0.01003360629918448 0.02160798311181055 0
    vertex 0.01003360629918448 0.02160798311181055 0.01000000000000003
    vertex 0.01005437992169069 0.02520931363044564 0.005
  endloop
endfacet
facet normal -0.999983 0.00576822 0
  outer loop
    vertex 0.01003360629918448 0.02160798311181055 0.01000000000000003
    vertex 0.01003360629918448 0.02160798311181055 0.02
    vertex 0.01005437992169069 0.02520931363044564 0.015
  endloop
endfacet
facet normal -0.587141 -0.809484 0
  outer loop
    vertex 0.01996382631882952 0.01440532207454037 0.01000000000000003
    vertex 0.014998716309007 0.01800665259317546 0.02
    vertex 0.01003360629918448 0.02160798311181055 0.009999999999999972
  endloop
endfacet
facet normal -0.587141 -0.809484 0
  outer loop
    vertex 0.014998716309007 0.01800665259317546 0
    vertex 0.01996382631882952 0.01440532207454037 0.01000000000000003
    vertex 0.01003360629918448 0.02160798311181055 0.009999999999999972
  endloop
endfacet
facet normal -0.587141 -0.809484 0
  outer loop
    vertex 0.014998716309007 0.01800665259317546 0
    vertex 0.01003360629918448 0.02160798311181055 0.009999999999999972
    vertex 0.01003360629918448 0.02160798311181055 0
  endloop
endfacet
facet normal -0.587141 -0.809484 0
  outer loop
    vertex 0.01003360629918448 0.02160798311181055 0.009999999999999972
    vertex 0.014998716309007 0.01800665259317546 0.02
    vertex 0.01003360629918448 0.02160798311181055 0.02
  endloop
endfacet
facet normal -0.587141 -0.809484 -0
  outer loop
    vertex 0.01996382631882952 0.01440532207454037 0.01000000000000003
    vertex 0.014998716309007 0.01800665259317546 0
    vertex 0.01996382631882952 0.01440532207454037 0
  endloop
endfacet
facet normal -0.587141 -0.809484 0
  outer loop
    vertex 0.014998716309007 0.01800665259317546 0.02
    vertex 0.01996382631882952 0.01440532207454037 0.01000000000000003
    vertex 0.01996382631882952 0.01440532207454037 0.02
  endloop
endfacet
facet normal -0.475532 -0.879698 4.10247e-16
  outer loop
    vertex 0.01996382631882952 0.01440532207454037 0
    vertex 0.02662601436425422 0.01080399155590528 0
    vertex 0.02672313080806508 0.01075149402647911 0.007633608030713539
  endloop
endfacet
facet normal -0.475532 -0.879698 4.59696e-16
  outer loop
    vertex 0.02662601436425422 0.01080399155590528 0
    vertex 0.03328820240967893 0.007202661037270186 0
    vertex 0.02672313080806508 0.01075149402647911 0.007633608030713539
  endloop
endfacet
facet normal -0.475532 -0.879698 0
  outer loop
    vertex 0.03328820240967893 0.007202661037270186 0
    vertex 0.03328820240967893 0.007202661037270186 0.01000000000000003
    vertex 0.02672313080806508 0.01075149402647911 0.007633608030713539
  endloop
endfacet
facet normal -0.475532 -0.879698 -0
  outer loop
    vertex 0.01996382631882952 0.01440532207454037 0.009999999999999972
    vertex 0.01996382631882952 0.01440532207454037 0
    vertex 0.02672313080806508 0.01075149402647911 0.007633608030713539
  endloop
endfacet
facet normal -0.475532 -0.879698 -0
  outer loop
    vertex 0.01996382631882952 0.01440532207454037 0.02
    vertex 0.01996382631882952 0.01440532207454037 0.009999999999999972
    vertex 0.02462735795062682 0.0118843907114958 0.01463968503414421
  endloop
endfacet
facet normal -0.475532 -0.879698 0
  outer loop
    vertex 0.03328820240967893 0.007202661037270186 0.01000000000000003
    vertex 0.03328820240967893 0.007202661037270186 0.02
    vertex 0.02920958924517673 0.009407407280228005 0.01461047043783683
  endloop
endfacet
facet normal -0.475532 -0.879698 -5.84231e-16
  outer loop
    vertex 0.02662601436425423 0.01080399155590527 0.02
    vertex 0.01996382631882952 0.01440532207454037 0.02
    vertex 0.02462735795062682 0.0118843907114958 0.01463968503414421
  endloop
endfacet
facet normal -0.475532 -0.879698 -6.64074e-16
  outer loop
    vertex 0.03328820240967893 0.007202661037270186 0.02
    vertex 0.02662601436425423 0.01080399155590527 0.02
    vertex 0.02920958924517673 0.009407407280228005 0.01461047043783683
  endloop
endfacet
facet normal -0.475532 -0.879698 4.65095e-17
  outer loop
    vertex 0.02462735795062682 0.0118843907114958 0.01463968503414421
    vertex 0.02672313080806508 0.01075149402647911 0.007633608030713539
    vertex 0.02920958924517673 0.009407407280228005 0.01461047043783683
  endloop
endfacet
facet normal -0.475532 -0.879698 -5.90161e-16
  outer loop
    vertex 0.02662601436425423 0.01080399155590527 0.02
    vertex 0.02462735795062682 0.0118843907114958 0.01463968503414421
    vertex 0.02920958924517673 0.009407407280228005 0.01461047043783683
  endloop
endfacet
facet normal -0.475532 -0.879698 2.61322e-16
  outer loop
    vertex 0.02672313080806508 0.01075149402647911 0.007633608030713539
    vertex 0.03328820240967893 0.007202661037270186 0.01000000000000003
    vertex 0.02920958924517673 0.009407407280228005 0.01461047043783683
  endloop
endfacet
facet normal -0.475532 -0.879698 1.75752e-16
  outer loop
    vertex 0.02462735795062682 0.0118843907114958 0.01463968503414421
    vertex 0.01996382631882952 0.01440532207454037 0.009999999999999972
    vertex 0.02672313080806508 0.01075149402647911 0.007633608030713539
  endloop
endfacet
endsolid Created by Gmsh
