solid Created by Gmsh
facet normal 1 0 0
  outer loop
    vertex 0.04 0.05822824728049784 0
    vertex 0.04 0.06 0
    vertex 0.04 0.06 0.009999999999999972
  endloop
endfacet
facet normal 1 0 0
  outer loop
    vertex 0.04 0.05822824728049784 0.01000000000000003
    vertex 0.04 0.06 0.02
    vertex 0.04 0.05822824728049784 0.02
  endloop
endfacet
facet normal 1 0 -0
  outer loop
    vertex 0.04 0.06 0.009999999999999972
    vertex 0.04 0.06 0.02
    vertex 0.04 0.05822824728049784 0.01000000000000003
  endloop
endfacet
facet normal 1 0 0
  outer loop
    vertex 0.04 0.05822824728049784 0
    vertex 0.04 0.06 0.009999999999999972
    vertex 0.04 0.05822824728049784 0.01000000000000003
  endloop
endfacet
facet normal 0.739941 0.672672 0
  outer loop
    vertex 0.04 0.05822824728049784 0.02
    vertex 0.04330841370029268 0.05458898182546672 0.015
    vertex 0.04 0.05822824728049784 0.009999999999999972
  endloop
endfacet
facet normal 0.739941 0.672672 -0
  outer loop
    vertex 0.04661682740058537 0.05094971637043561 0
    vertex 0.04330841370029268 0.05458898182546672 0.004999999999999999
    vertex 0.04661682740058537 0.05094971637043561 0.01000000000000003
  endloop
endfacet
facet normal 0.739941 0.672672 0
  outer loop
    vertex 0.04 0.05822824728049784 0.009999999999999972
    vertex 0.04330841370029268 0.05458898182546672 0.004999999999999999
    vertex 0.04 0.05822824728049784 0
  endloop
endfacet
facet normal 0.739941 0.672672 -0
  outer loop
    vertex 0.04661682740058537 0.05094971637043561 0.01000000000000003
    vertex 0.04330841370029268 0.05458898182546672 0.015
    vertex 0.04661682740058537 0.05094971637043561 0.02
  endloop
endfacet
facet normal 0.739941 0.672672 -1.99775e-15
  outer loop
    vertex 0.04661682740058537 0.05094971637043561 0.01000000000000003
    vertex 0.04330841370029268 0.05458898182546672 0.004999999999999999
    vertex 0.04 0.05822824728049784 0.009999999999999972
  endloop
endfacet
facet normal 0.739941 0.672672 1.99775e-15
  outer loop
    vertex 0.04 0.05822824728049784 0.009999999999999972
    vertex 0.04330841370029268 0.05458898182546672 0.015
    vertex 0.04661682740058537 0.05094971637043561 0.01000000000000003
  endloop
endfacet
facet normal 0.739941 0.672672 1.99775e-15
  outer loop
    vertex 0.04 0.05822824728049784 0
    vertex 0.04330841370029268 0.05458898182546672 0.004999999999999999
    vertex 0.04661682740058537 0.05094971637043561 0
  endloop
endfacet
facet normal 0.739941 0.672672 -1.99775e-15
  outer loop
    vertex 0.04661682740058537 0.05094971637043561 0.02
    vertex 0.04330841370029268 0.05458898182546672 0.015
    vertex 0.04 0.05822824728049784 0.02
  endloop
endfacet
facet normal 0.951206 0.308558 -0
  outer loop
    vertex 0.04897788039667113 0.04367118546037338 0
    vertex 0.04779735389862825 0.04731045091540449 0.005
    vertex 0.04897788039667113 0.04367118546037338 0.01000000000000003
  endloop
endfacet
facet normal 0.951206 0.308558 0
  outer loop
    vertex 0.04661682740058537 0.05094971637043561 0.02
    vertex 0.04779735389862825 0.04731045091540449 0.015
    vertex 0.04661682740058537 0.05094971637043561 0.009999999999999972
  endloop
endfacet
facet normal 0.951206 0.308558 -0
  outer loop
    vertex 0.04897788039667113 0.04367118546037338 0.01000000000000003
    vertex 0.04779735389862825 0.04731045091540449 0.015
    vertex 0.04897788039667113 0.04367118546037338 0.02
  endloop
endfacet
facet normal 0.951206 0.308558 0
  outer loop
    vertex 0.04661682740058537 0.05094971637043561 0.009999999999999972
    vertex 0.04779735389862825 0.04731045091540449 0.005
    vertex 0.04661682740058537 0.05094971637043561 0
  endloop
endfacet
facet normal 0.951206 0.308558 -8.85566e-16
  outer loop
    vertex 0.04897788039667113 0.04367118546037338 0.01000000000000003
    vertex 0.04779735389862825 0.04731045091540449 0.005
    vertex 0.04661682740058537 0.05094971637043561 0.009999999999999972
  endloop
endfacet
facet normal 0.951206 0.308558 8.85566e-16
  outer loop
    vertex 0.04661682740058537 0.05094971637043561 0.009999999999999972
    vertex 0.04779735389862825 0.04731045091540449 0.015
    vertex 0.04897788039667113 0.04367118546037338 0.01000000000000003
  endloop
endfacet
facet normal 0.951206 0.308558 8.85566e-16
  outer loop
    vertex 0.04661682740058537 0.05094971637043561 0
    vertex 0.04779735389862825 0.04731045091540449 0.005
    vertex 0.04897788039667113 0.04367118546037338 0
  endloop
endfacet
facet normal 0.951206 0.308558 -8.85566e-16
  outer loop
    vertex 0.04897788039667113 0.04367118546037338 0.02
    vertex 0.04779735389862825 0.04731045091540449 0.015
    vertex 0.04661682740058537 0.05094971637043561 0.02
  endloop
endfacet
facet normal 0.848831 -0.528665 0
  outer loop
    vertex 0.04444470057086169 0.03639265455031115 0
    vertex 0.04671129048376642 0.04003192000534227 0.005
    vertex 0.04444470057086169 0.03639265455031115 0.01000000000000003
  endloop
endfacet
facet normal 0.848831 -0.528665 0
  outer loop
    vertex 0.04897788039667113 0.04367118546037338 0.02
    vertex 0.04671129048376642 0.04003192000534227 0.015
    vertex 0.04897788039667113 0.04367118546037338 0.009999999999999972
  endloop
endfacet
facet normal 0.848831 -0.528665 0
  outer loop
    vertex 0.04444470057086169 0.03639265455031115 0.01000000000000003
    vertex 0.04671129048376642 0.04003192000534227 0.015
    vertex 0.04444470057086169 0.03639265455031115 0.02
  endloop
endfacet
facet normal 0.848831 -0.528665 0
  outer loop
    vertex 0.04897788039667113 0.04367118546037338 0.009999999999999972
    vertex 0.04671129048376642 0.04003192000534227 0.005
    vertex 0.04897788039667113 0.04367118546037338 0
  endloop
endfacet
facet normal 0.848831 -0.528665 -6.32205e-16
  outer loop
    vertex 0.04897788039667113 0.04367118546037338 0.009999999999999972
    vertex 0.04671129048376642 0.04003192000534227 0.015
    vertex 0.04444470057086169 0.03639265455031115 0.01000000000000003
  endloop
endfacet
facet normal 0.848831 -0.528665 -6.32205e-16
  outer loop
    vertex 0.04897788039667113 0.04367118546037338 0
    vertex 0.04671129048376642 0.04003192000534227 0.005
    vertex 0.04444470057086169 0.03639265455031115 0
  endloop
endfacet
facet normal 0.848831 -0.528665 5.53179e-16
  outer loop
    vertex 0.04444470057086169 0.03639265455031115 0.02
    vertex 0.04671129048376642 0.04003192000534227 0.015
    vertex 0.04897788039667113 0.04367118546037338 0.02
  endloop
endfacet
facet normal 0.848831 -0.528665 5.53179e-16
  outer loop
    vertex 0.04444470057086169 0.03639265455031115 0.01000000000000003
    vertex 0.04671129048376642 0.04003192000534227 0.005
    vertex 0.04897788039667113 0.04367118546037338 0.009999999999999972
  endloop
endfacet
facet normal 0.906387 0.422449 -0
  outer loop
    vertex 0.04783707879627576 0.02911412364024892 0
    vertex 0.04614088968356873 0.03275338909528003 0.005000000000000001
    vertex 0.04783707879627576 0.02911412364024892 0.01000000000000003
  endloop
endfacet
facet normal 0.906387 0.422449 0
  outer loop
    vertex 0.04444470057086169 0.03639265455031115 0.02
    vertex 0.04614088968356873 0.03275338909528003 0.015
    vertex 0.04444470057086169 0.03639265455031115 0.009999999999999972
  endloop
endfacet
facet normal 0.906387 0.422449 -0
  outer loop
    vertex 0.04783707879627576 0.02911412364024892 0.01000000000000003
    vertex 0.04614088968356873 0.03275338909528003 0.015
    vertex 0.04783707879627576 0.02911412364024892 0.02
  endloop
endfacet
facet normal 0.906387 0.422449 0
  outer loop
    vertex 0.04444470057086169 0.03639265455031115 0.009999999999999972
    vertex 0.04614088968356873 0.03275338909528003 0.005000000000000001
    vertex 0.04444470057086169 0.03639265455031115 0
  endloop
endfacet
facet normal 0.906387 0.422449 -2.95344e-16
  outer loop
    vertex 0.04783707879627576 0.02911412364024892 0.02
    vertex 0.04614088968356873 0.03275338909528003 0.015
    vertex 0.04444470057086169 0.03639265455031115 0.02
  endloop
endfacet
facet normal 0.906387 0.422449 -2.95344e-16
  outer loop
    vertex 0.04783707879627576 0.02911412364024892 0.01000000000000003
    vertex 0.04614088968356873 0.03275338909528003 0.005000000000000001
    vertex 0.04444470057086169 0.03639265455031115 0.009999999999999972
  endloop
endfacet
facet normal 0.906387 0.422449 2.95344e-16
  outer loop
    vertex 0.04444470057086169 0.03639265455031115 0
    vertex 0.04614088968356873 0.03275338909528003 0.005000000000000001
    vertex 0.04783707879627576 0.02911412364024892 0
  endloop
endfacet
facet normal 0.906387 0.422449 2.95344e-16
  outer loop
    vertex 0.04444470057086169 0.03639265455031115 0.009999999999999972
    vertex 0.04614088968356873 0.03275338909528003 0.015
    vertex 0.04783707879627576 0.02911412364024892 0.01000000000000003
  endloop
endfacet
facet normal 0.993883 -0.110439 -1.37638e-15
  outer loop
    vertex 0.04783707879627576 0.02911412364024892 0.009999999999999972
    vertex 0.04743268739466714 0.02547485818521781 0.015
    vertex 0.04702829599305851 0.02183559273018669 0.01000000000000003
  endloop
endfacet
facet normal 0.993883 -0.110439 1.38795e-15
  outer loop
    vertex 0.04702829599305851 0.02183559273018669 0.01000000000000003
    vertex 0.04743268739466714 0.02547485818521781 0.005000000000000001
    vertex 0.04783707879627576 0.02911412364024892 0.009999999999999972
  endloop
endfacet
facet normal 0.993883 -0.110439 -1.37638e-15
  outer loop
    vertex 0.04783707879627576 0.02911412364024892 0
    vertex 0.04743268739466714 0.02547485818521781 0.005000000000000001
    vertex 0.04702829599305851 0.02183559273018669 0
  endloop
endfacet
facet normal 0.993883 -0.110439 1.38795e-15
  outer loop
    vertex 0.04702829599305851 0.02183559273018669 0.02
    vertex 0.04743268739466714 0.02547485818521781 0.015
    vertex 0.04783707879627576 0.02911412364024892 0.02
  endloop
endfacet
facet normal 0.993883 -0.110439 0
  outer loop
    vertex 0.04783707879627576 0.02911412364024892 0.009999999999999972
    vertex 0.04743268739466714 0.02547485818521781 0.005000000000000001
    vertex 0.04783707879627576 0.02911412364024892 0
  endloop
endfacet
facet normal 0.993883 -0.110439 0
  outer loop
    vertex 0.04783707879627576 0.02911412364024892 0.02
    vertex 0.04743268739466714 0.02547485818521781 0.015
    vertex 0.04783707879627576 0.02911412364024892 0.009999999999999972
  endloop
endfacet
facet normal 0.993883 -0.110439 0
  outer loop
    vertex 0.04702829599305851 0.02183559273018669 0
    vertex 0.04743268739466714 0.02547485818521781 0.005000000000000001
    vertex 0.04702829599305851 0.02183559273018669 0.01000000000000003
  endloop
endfacet
facet normal 0.993883 -0.110439 0
  outer loop
    vertex 0.04702829599305851 0.02183559273018669 0.01000000000000003
    vertex 0.04743268739466714 0.02547485818521781 0.015
    vertex 0.04702829599305851 0.02183559273018669 0.02
  endloop
endfacet
facet normal 0.343446 -0.939172 0
  outer loop
    vertex 0.02712474367990667 0.01455706182012446 0.01000000000000003
    vertex 0.03472464905078013 0.01733627154536023 0.01203942118539591
    vertex 0.02712474367990667 0.01455706182012446 0.02
  endloop
endfacet
facet normal 0.343446 -0.939172 1.60665e-16
  outer loop
    vertex 0.02712474367990667 0.01455706182012446 0.02
    vertex 0.03472464905078013 0.01733627154536023 0.01203942118539591
    vertex 0.03707651983648257 0.01819632727515557 0.02
  endloop
endfacet
facet normal 0.343446 -0.939172 0
  outer loop
    vertex 0.04702829599305851 0.02183559273018669 0
    vertex 0.04013475401775025 0.01931469306576156 0.007328706729259748
    vertex 0.0370765198364826 0.01819632727515558 0
  endloop
endfacet
facet normal 0.343446 -0.939172 0
  outer loop
    vertex 0.04702829599305851 0.02183559273018669 0.009999999999999972
    vertex 0.04013475401775025 0.01931469306576156 0.007328706729259748
    vertex 0.04702829599305851 0.02183559273018669 0
  endloop
endfacet
facet normal 0.343446 -0.939172 -1.32703e-16
  outer loop
    vertex 0.03707651983648257 0.01819632727515557 0.02
    vertex 0.04125392675328308 0.01972396339203854 0.0139762830865295
    vertex 0.04702829599305851 0.02183559273018669 0.02
  endloop
endfacet
facet normal 0.343446 -0.939172 -6.39492e-17
  outer loop
    vertex 0.0370765198364826 0.01819632727515558 0
    vertex 0.03210063175819463 0.01637669454764002 0.005000000000000014
    vertex 0.02712474367990667 0.01455706182012446 0
  endloop
endfacet
facet normal 0.343446 -0.939172 0
  outer loop
    vertex 0.04702829599305851 0.02183559273018669 0.02
    vertex 0.04125392675328308 0.01972396339203854 0.0139762830865295
    vertex 0.04702829599305851 0.02183559273018669 0.009999999999999972
  endloop
endfacet
facet normal 0.343446 -0.939172 0
  outer loop
    vertex 0.02712474367990667 0.01455706182012446 0
    vertex 0.03210063175819463 0.01637669454764002 0.005000000000000014
    vertex 0.02712474367990667 0.01455706182012446 0.01000000000000003
  endloop
endfacet
facet normal 0.343446 -0.939172 3.07396e-17
  outer loop
    vertex 0.04013475401775025 0.01931469306576156 0.007328706729259748
    vertex 0.03210063175819463 0.01637669454764002 0.005000000000000014
    vertex 0.0370765198364826 0.01819632727515558 0
  endloop
endfacet
facet normal 0.343446 -0.939172 2.20778e-16
  outer loop
    vertex 0.03472464905078013 0.01733627154536023 0.01203942118539591
    vertex 0.03210063175819463 0.01637669454764002 0.005000000000000014
    vertex 0.04013475401775025 0.01931469306576156 0.007328706729259748
  endloop
endfacet
facet normal 0.343446 -0.939172 1.17427e-16
  outer loop
    vertex 0.03707651983648257 0.01819632727515557 0.02
    vertex 0.03472464905078013 0.01733627154536023 0.01203942118539591
    vertex 0.04125392675328308 0.01972396339203854 0.0139762830865295
  endloop
endfacet
facet normal 0.343446 -0.939172 1.98268e-16
  outer loop
    vertex 0.02712474367990667 0.01455706182012446 0.01000000000000003
    vertex 0.03210063175819463 0.01637669454764002 0.005000000000000014
    vertex 0.03472464905078013 0.01733627154536023 0.01203942118539591
  endloop
endfacet
facet normal 0.343446 -0.939172 4.24414e-16
  outer loop
    vertex 0.03472464905078013 0.01733627154536023 0.01203942118539591
    vertex 0.04013475401775025 0.01931469306576156 0.007328706729259748
    vertex 0.04125392675328308 0.01972396339203854 0.0139762830865295
  endloop
endfacet
facet normal 0.343446 -0.939172 4.17852e-16
  outer loop
    vertex 0.04125392675328308 0.01972396339203854 0.0139762830865295
    vertex 0.04013475401775025 0.01931469306576156 0.007328706729259748
    vertex 0.04702829599305851 0.02183559273018669 0.009999999999999972
  endloop
endfacet
facet normal 0.361973 0.932189 -5.27544e-16
  outer loop
    vertex 0.04586916292042213 0.007278530910062232 0.02
    vertex 0.03918811963621632 0.009872806007710891 0.0129732166102553
    vertex 0.0364969533001644 0.01091779636509335 0.02
  endloop
endfacet
facet normal 0.361973 0.932189 0
  outer loop
    vertex 0.02712474367990667 0.01455706182012446 0.009999999999999972
    vertex 0.03416644761545033 0.0118227407885302 0.007540596233183785
    vertex 0.02712474367990667 0.01455706182012446 0
  endloop
endfacet
facet normal 0.361973 0.932189 6.70359e-16
  outer loop
    vertex 0.02712474367990667 0.01455706182012446 0
    vertex 0.03416644761545033 0.0118227407885302 0.007540596233183785
    vertex 0.0364969533001644 0.01091779636509335 0
  endloop
endfacet
facet normal 0.361973 0.932189 -0
  outer loop
    vertex 0.04586916292042213 0.007278530910062232 0.01000000000000003
    vertex 0.03918811963621632 0.009872806007710891 0.0129732166102553
    vertex 0.04586916292042213 0.007278530910062232 0.02
  endloop
endfacet
facet normal 0.361973 0.932189 -8.74216e-16
  outer loop
    vertex 0.0364969533001644 0.01091779636509335 0.02
    vertex 0.03235740668542391 0.01252519841913551 0.01441051782646805
    vertex 0.02712474367990667 0.01455706182012446 0.02
  endloop
endfacet
facet normal 0.361973 0.932189 0
  outer loop
    vertex 0.02712474367990667 0.01455706182012446 0.02
    vertex 0.03235740668542391 0.01252519841913551 0.01441051782646805
    vertex 0.02712474367990667 0.01455706182012446 0.009999999999999972
  endloop
endfacet
facet normal 0.361973 0.932189 4.29242e-16
  outer loop
    vertex 0.0364969533001644 0.01091779636509335 0
    vertex 0.04036958437541501 0.009414038653381815 0.005888185601879947
    vertex 0.04586916292042213 0.007278530910062232 0
  endloop
endfacet
facet normal 0.361973 0.932189 -0
  outer loop
    vertex 0.04586916292042213 0.007278530910062232 0
    vertex 0.04036958437541501 0.009414038653381815 0.005888185601879947
    vertex 0.04586916292042213 0.007278530910062232 0.01000000000000003
  endloop
endfacet
facet normal 0.361973 0.932189 -6.4413e-16
  outer loop
    vertex 0.03918811963621632 0.009872806007710891 0.0129732166102553
    vertex 0.03235740668542391 0.01252519841913551 0.01441051782646805
    vertex 0.0364969533001644 0.01091779636509335 0.02
  endloop
endfacet
facet normal 0.361973 0.932189 5.70245e-16
  outer loop
    vertex 0.0364969533001644 0.01091779636509335 0
    vertex 0.03416644761545033 0.0118227407885302 0.007540596233183785
    vertex 0.04036958437541501 0.009414038653381815 0.005888185601879947
  endloop
endfacet
facet normal 0.361973 0.932189 -3.56264e-17
  outer loop
    vertex 0.03416644761545033 0.0118227407885302 0.007540596233183785
    vertex 0.03235740668542391 0.01252519841913551 0.01441051782646805
    vertex 0.03918811963621632 0.009872806007710891 0.0129732166102553
  endloop
endfacet
facet normal 0.361973 0.932189 7.52046e-17
  outer loop
    vertex 0.03416644761545033 0.0118227407885302 0.007540596233183785
    vertex 0.03918811963621632 0.009872806007710891 0.0129732166102553
    vertex 0.04036958437541501 0.009414038653381815 0.005888185601879947
  endloop
endfacet
facet normal 0.361973 0.932189 2.51653e-16
  outer loop
    vertex 0.02712474367990667 0.01455706182012446 0.009999999999999972
    vertex 0.03235740668542391 0.01252519841913551 0.01441051782646805
    vertex 0.03416644761545033 0.0118227407885302 0.007540596233183785
  endloop
endfacet
facet normal 0.361973 0.932189 7.20718e-17
  outer loop
    vertex 0.04036958437541501 0.009414038653381815 0.005888185601879947
    vertex 0.03918811963621632 0.009872806007710891 0.0129732166102553
    vertex 0.04586916292042213 0.007278530910062232 0.01000000000000003
  endloop
endfacet
endsolid Created by Gmsh
