solid Created by Gmsh
facet normal 1 0 0
  outer loop
    vertex 0.04 0.059 0
    vertex 0.04 0.06 0
    vertex 0.04 0.06 0.009999999999999972
  endloop
endfacet
facet normal 1 0 0
  outer loop
    vertex 0.04 0.059 0.01000000000000003
    vertex 0.04 0.06 0.02
    vertex 0.04 0.059 0.02
  endloop
endfacet
facet normal 1 0 -0
  outer loop
    vertex 0.04 0.06 0.009999999999999972
    vertex 0.04 0.06 0.02
    vertex 0.04 0.059 0.01000000000000003
  endloop
endfacet
facet normal 1 0 0
  outer loop
    vertex 0.04 0.059 0
    vertex 0.04 0.06 0.009999999999999972
    vertex 0.04 0.059 0.01000000000000003
  endloop
endfacet
facet normal 0.238726 -0.971087 4.89878e-16
  outer loop
    vertex 0.02 0.05408333333333333 0.02
    vertex 0.025 0.05531249999999999 0.008918102493430604
    vertex 0.02999999999999999 0.05654166666666666 0.02
  endloop
endfacet
facet normal 0.238726 -0.971087 5.6483e-16
  outer loop
    vertex 0.02 0.05408333333333333 0.02
    vertex 0.01682449002281776 0.05330268713060936 0.01247548059772009
    vertex 0.025 0.05531249999999999 0.008918102493430604
  endloop
endfacet
facet normal 0.238726 -0.971087 5.87423e-16
  outer loop
    vertex 0.025 0.05531249999999999 0.008918102493430604
    vertex 0.03317550997718224 0.05732231286939063 0.01247548059772008
    vertex 0.02999999999999999 0.05654166666666666 0.02
  endloop
endfacet
facet normal 0.238726 -0.971087 -3.87378e-16
  outer loop
    vertex 0.03 0.05654166666666666 0
    vertex 0.025 0.05531249999999999 0.008918102493430604
    vertex 0.02000000000000001 0.05408333333333333 0
  endloop
endfacet
facet normal 0.238726 -0.971087 0
  outer loop
    vertex 0.01 0.051625 0.01000000000000003
    vertex 0.01682449002281776 0.05330268713060936 0.01247548059772009
    vertex 0.01 0.051625 0.02
  endloop
endfacet
facet normal 0.238726 -0.971087 0
  outer loop
    vertex 0.04 0.059 0.02
    vertex 0.03317550997718224 0.05732231286939063 0.01247548059772008
    vertex 0.04 0.059 0.009999999999999972
  endloop
endfacet
facet normal 0.238726 -0.971087 7.43342e-16
  outer loop
    vertex 0.01 0.051625 0.02
    vertex 0.01682449002281776 0.05330268713060936 0.01247548059772009
    vertex 0.02 0.05408333333333333 0.02
  endloop
endfacet
facet normal 0.238726 -0.971087 5.24712e-16
  outer loop
    vertex 0.02999999999999999 0.05654166666666666 0.02
    vertex 0.03317550997718224 0.05732231286939063 0.01247548059772008
    vertex 0.04 0.059 0.02
  endloop
endfacet
facet normal 0.238726 -0.971087 -1.97483e-16
  outer loop
    vertex 0.025 0.05531249999999999 0.008918102493430604
    vertex 0.01569637653294059 0.05302535923101456 0.005652406437872529
    vertex 0.02000000000000001 0.05408333333333333 0
  endloop
endfacet
facet normal 0.238726 -0.971087 -6.17134e-16
  outer loop
    vertex 0.03 0.05654166666666666 0
    vertex 0.03430362346705941 0.05759964076898543 0.00565240643787251
    vertex 0.025 0.05531249999999999 0.008918102493430604
  endloop
endfacet
facet normal 0.238726 -0.971087 1.65072e-16
  outer loop
    vertex 0.025 0.05531249999999999 0.008918102493430604
    vertex 0.03430362346705941 0.05759964076898543 0.00565240643787251
    vertex 0.03317550997718224 0.05732231286939063 0.01247548059772008
  endloop
endfacet
facet normal 0.238726 -0.971087 -2.95754e-16
  outer loop
    vertex 0.01682449002281776 0.05330268713060936 0.01247548059772009
    vertex 0.01569637653294059 0.05302535923101456 0.005652406437872529
    vertex 0.025 0.05531249999999999 0.008918102493430604
  endloop
endfacet
facet normal 0.238726 -0.971087 -6.985e-16
  outer loop
    vertex 0.04 0.059 0
    vertex 0.03430362346705941 0.05759964076898543 0.00565240643787251
    vertex 0.03 0.05654166666666666 0
  endloop
endfacet
facet normal 0.238726 -0.971087 -3.78354e-16
  outer loop
    vertex 0.02000000000000001 0.05408333333333333 0
    vertex 0.01569637653294059 0.05302535923101456 0.005652406437872529
    vertex 0.01 0.051625 0
  endloop
endfacet
facet normal 0.238726 -0.971087 0
  outer loop
    vertex 0.01 0.051625 0
    vertex 0.01569637653294059 0.05302535923101456 0.005652406437872529
    vertex 0.01 0.051625 0.01000000000000003
  endloop
endfacet
facet normal 0.238726 -0.971087 0
  outer loop
    vertex 0.04 0.059 0.009999999999999972
    vertex 0.03430362346705941 0.05759964076898543 0.00565240643787251
    vertex 0.04 0.059 0
  endloop
endfacet
facet normal 0.238726 -0.971087 2.44293e-16
  outer loop
    vertex 0.03317550997718224 0.05732231286939063 0.01247548059772008
    vertex 0.03430362346705941 0.05759964076898543 0.00565240643787251
    vertex 0.04 0.059 0.009999999999999972
  endloop
endfacet
facet normal 0.238726 -0.971087 -1.87918e-16
  outer loop
    vertex 0.01 0.051625 0.01000000000000003
    vertex 0.01569637653294059 0.05302535923101456 0.005652406437872529
    vertex 0.01682449002281776 0.05330268713060936 0.01247548059772009
  endloop
endfacet
facet normal 0.263495 0.964661 1.05688e-15
  outer loop
    vertex 0.02799999999999998 0.04670833333333334 0.02
    vertex 0.0235 0.04793750000000001 0.01192513096536761
    vertex 0.019 0.04916666666666666 0.02
  endloop
endfacet
facet normal 0.263495 0.964661 0
  outer loop
    vertex 0.01 0.051625 0.02
    vertex 0.01646708221909436 0.04985852846793257 0.01309753855673738
    vertex 0.01 0.051625 0.009999999999999972
  endloop
endfacet
facet normal 0.263495 0.964661 -0
  outer loop
    vertex 0.03699999999999999 0.04425 0.01000000000000003
    vertex 0.03053291778090561 0.04601647153206746 0.01309753855673738
    vertex 0.03699999999999999 0.04425 0.02
  endloop
endfacet
facet normal 0.263495 0.964661 1.43369e-15
  outer loop
    vertex 0.019 0.04916666666666666 0.02
    vertex 0.01646708221909436 0.04985852846793257 0.01309753855673738
    vertex 0.01 0.051625 0.02
  endloop
endfacet
facet normal 0.263495 0.964661 1.36792e-15
  outer loop
    vertex 0.03699999999999999 0.04425 0.02
    vertex 0.03053291778090561 0.04601647153206746 0.01309753855673738
    vertex 0.02799999999999998 0.04670833333333334 0.02
  endloop
endfacet
facet normal 0.263495 0.964661 2.57756e-16
  outer loop
    vertex 0.0235 0.04793750000000001 0.01192513096536761
    vertex 0.03097485997638477 0.04589575583978379 0.006253576928204823
    vertex 0.0235 0.04793750000000001 0.004831724135700776
  endloop
endfacet
facet normal 0.263495 0.964661 2.57756e-16
  outer loop
    vertex 0.0235 0.04793750000000001 0.004831724135700776
    vertex 0.01602514002361524 0.04997924416021621 0.006253576928204819
    vertex 0.0235 0.04793750000000001 0.01192513096536761
  endloop
endfacet
facet normal 0.263495 0.964661 -0
  outer loop
    vertex 0.03699999999999999 0.04425 0
    vertex 0.03097485997638477 0.04589575583978379 0.006253576928204823
    vertex 0.03699999999999999 0.04425 0.01000000000000003
  endloop
endfacet
facet normal 0.263495 0.964661 0
  outer loop
    vertex 0.01 0.051625 0.009999999999999972
    vertex 0.01602514002361524 0.04997924416021621 0.006253576928204819
    vertex 0.01 0.051625 0
  endloop
endfacet
facet normal 0.263495 0.964661 -2.14137e-16
  outer loop
    vertex 0.03053291778090561 0.04601647153206746 0.01309753855673738
    vertex 0.03097485997638477 0.04589575583978379 0.006253576928204823
    vertex 0.0235 0.04793750000000001 0.01192513096536761
  endloop
endfacet
facet normal 0.263495 0.964661 -1.34361e-16
  outer loop
    vertex 0.0235 0.04793750000000001 0.01192513096536761
    vertex 0.01602514002361524 0.04997924416021621 0.006253576928204819
    vertex 0.01646708221909436 0.04985852846793257 0.01309753855673738
  endloop
endfacet
facet normal 0.263495 0.964661 -1.59697e-15
  outer loop
    vertex 0.02799999999999999 0.04670833333333333 0
    vertex 0.03097485997638477 0.04589575583978379 0.006253576928204823
    vertex 0.03699999999999999 0.04425 0
  endloop
endfacet
facet normal 0.263495 0.964661 -1.88733e-15
  outer loop
    vertex 0.01 0.051625 0
    vertex 0.01602514002361524 0.04997924416021621 0.006253576928204819
    vertex 0.01900000000000001 0.04916666666666666 0
  endloop
endfacet
facet normal 0.263495 0.964661 1.17376e-15
  outer loop
    vertex 0.02799999999999998 0.04670833333333334 0.02
    vertex 0.03053291778090561 0.04601647153206746 0.01309753855673738
    vertex 0.0235 0.04793750000000001 0.01192513096536761
  endloop
endfacet
facet normal 0.263495 0.964661 1.26893e-15
  outer loop
    vertex 0.0235 0.04793750000000001 0.01192513096536761
    vertex 0.01646708221909436 0.04985852846793257 0.01309753855673738
    vertex 0.019 0.04916666666666666 0.02
  endloop
endfacet
facet normal 0.263495 0.964661 -2.8561e-15
  outer loop
    vertex 0.01900000000000001 0.04916666666666666 0
    vertex 0.0235 0.04793750000000001 0.004831724135700776
    vertex 0.02799999999999999 0.04670833333333333 0
  endloop
endfacet
facet normal 0.263495 0.964661 -1.99879e-15
  outer loop
    vertex 0.0235 0.04793750000000001 0.004831724135700776
    vertex 0.03097485997638477 0.04589575583978379 0.006253576928204823
    vertex 0.02799999999999999 0.04670833333333333 0
  endloop
endfacet
facet normal 0.263495 0.964661 -2.33513e-15
  outer loop
    vertex 0.01900000000000001 0.04916666666666666 0
    vertex 0.01602514002361524 0.04997924416021621 0.006253576928204819
    vertex 0.0235 0.04793750000000001 0.004831724135700776
  endloop
endfacet
facet normal 0.263495 0.964661 -1.14302e-16
  outer loop
    vertex 0.03699999999999999 0.04425 0.01000000000000003
    vertex 0.03097485997638477 0.04589575583978379 0.006253576928204823
    vertex 0.03053291778090561 0.04601647153206746 0.01309753855673738
  endloop
endfacet
facet normal 0.263495 0.964661 -3.09568e-17
  outer loop
    vertex 0.01646708221909436 0.04985852846793257 0.01309753855673738
    vertex 0.01602514002361524 0.04997924416021621 0.006253576928204819
    vertex 0.01 0.051625 0.009999999999999972
  endloop
endfacet
facet normal 1 0 0
  outer loop
    vertex 0.03699999999999999 0.036875 0.01000000000000003
    vertex 0.03699999999999999 0.0405625 0.005000000000000001
    vertex 0.03699999999999999 0.04425 0.009999999999999972
  endloop
endfacet
facet normal 1 0 0
  outer loop
    vertex 0.03699999999999999 0.04425 0.009999999999999972
    vertex 0.03699999999999999 0.04056249999999999 0.01500000000000001
    vertex 0.03699999999999999 0.036875 0.01000000000000003
  endloop
endfacet
facet normal 1 -0 0
  outer loop
    vertex 0.03699999999999999 0.036875 0.02
    vertex 0.03699999999999999 0.04056249999999999 0.01500000000000001
    vertex 0.03699999999999999 0.04425 0.02
  endloop
endfacet
facet normal 1 0 0
  outer loop
    vertex 0.03699999999999999 0.04425 0
    vertex 0.03699999999999999 0.0405625 0.005000000000000001
    vertex 0.03699999999999999 0.036875 0
  endloop
endfacet
facet normal 1 0 0
  outer loop
    vertex 0.03699999999999999 0.04425 0.009999999999999972
    vertex 0.03699999999999999 0.0405625 0.005000000000000001
    vertex 0.03699999999999999 0.04425 0
  endloop
endfacet
facet normal 1 0 0
  outer loop
    vertex 0.03699999999999999 0.04425 0.02
    vertex 0.03699999999999999 0.04056249999999999 0.01500000000000001
    vertex 0.03699999999999999 0.04425 0.009999999999999972
  endloop
endfacet
facet normal 1 0 0
  outer loop
    vertex 0.03699999999999999 0.036875 0
    vertex 0.03699999999999999 0.0405625 0.005000000000000001
    vertex 0.03699999999999999 0.036875 0.01000000000000003
  endloop
endfacet
facet normal 1 0 0
  outer loop
    vertex 0.03699999999999999 0.036875 0.01000000000000003
    vertex 0.03699999999999999 0.04056249999999999 0.01500000000000001
    vertex 0.03699999999999999 0.036875 0.02
  endloop
endfacet
facet normal 1 0 0
  outer loop
    vertex 0.03699999999999999 0.036875 0.009999999999999972
    vertex 0.03699999999999999 0.03318749999999999 0.01500000000000001
    vertex 0.03699999999999999 0.0295 0.01000000000000003
  endloop
endfacet
facet normal 1 0 0
  outer loop
    vertex 0.03699999999999999 0.0295 0.01000000000000003
    vertex 0.03699999999999999 0.0331875 0.004999999999999997
    vertex 0.03699999999999999 0.036875 0.009999999999999972
  endloop
endfacet
facet normal 1 -0 0
  outer loop
    vertex 0.03699999999999999 0.0295 0.02
    vertex 0.03699999999999999 0.03318749999999999 0.01500000000000001
    vertex 0.03699999999999999 0.036875 0.02
  endloop
endfacet
facet normal 1 0 0
  outer loop
    vertex 0.03699999999999999 0.036875 0
    vertex 0.03699999999999999 0.0331875 0.004999999999999997
    vertex 0.03699999999999999 0.0295 0
  endloop
endfacet
facet normal 1 0 0
  outer loop
    vertex 0.03699999999999999 0.036875 0.009999999999999972
    vertex 0.03699999999999999 0.0331875 0.004999999999999997
    vertex 0.03699999999999999 0.036875 0
  endloop
endfacet
facet normal 1 0 0
  outer loop
    vertex 0.03699999999999999 0.036875 0.02
    vertex 0.03699999999999999 0.03318749999999999 0.01500000000000001
    vertex 0.03699999999999999 0.036875 0.009999999999999972
  endloop
endfacet
facet normal 1 0 0
  outer loop
    vertex 0.03699999999999999 0.0295 0
    vertex 0.03699999999999999 0.0331875 0.004999999999999997
    vertex 0.03699999999999999 0.0295 0.01000000000000003
  endloop
endfacet
facet normal 1 0 0
  outer loop
    vertex 0.03699999999999999 0.0295 0.01000000000000003
    vertex 0.03699999999999999 0.03318749999999999 0.01500000000000001
    vertex 0.03699999999999999 0.0295 0.02
  endloop
endfacet
facet normal 1 0 0
  outer loop
    vertex 0.03699999999999999 0.0295 0.009999999999999972
    vertex 0.03699999999999999 0.0258125 0.015
    vertex 0.03699999999999999 0.022125 0.01000000000000003
  endloop
endfacet
facet normal 1 0 0
  outer loop
    vertex 0.03699999999999999 0.022125 0.01000000000000003
    vertex 0.03699999999999999 0.0258125 0.005000000000000001
    vertex 0.03699999999999999 0.0295 0.009999999999999972
  endloop
endfacet
facet normal 1 -0 0
  outer loop
    vertex 0.03699999999999999 0.022125 0.02
    vertex 0.03699999999999999 0.0258125 0.015
    vertex 0.03699999999999999 0.0295 0.02
  endloop
endfacet
facet normal 1 0 0
  outer loop
    vertex 0.03699999999999999 0.0295 0
    vertex 0.03699999999999999 0.0258125 0.005000000000000001
    vertex 0.03699999999999999 0.022125 0
  endloop
endfacet
facet normal 1 0 0
  outer loop
    vertex 0.03699999999999999 0.0295 0.009999999999999972
    vertex 0.03699999999999999 0.0258125 0.005000000000000001
    vertex 0.03699999999999999 0.0295 0
  endloop
endfacet
facet normal 1 0 0
  outer loop
    vertex 0.03699999999999999 0.0295 0.02
    vertex 0.03699999999999999 0.0258125 0.015
    vertex 0.03699999999999999 0.0295 0.009999999999999972
  endloop
endfacet
facet normal 1 0 0
  outer loop
    vertex 0.03699999999999999 0.022125 0
    vertex 0.03699999999999999 0.0258125 0.005000000000000001
    vertex 0.03699999999999999 0.022125 0.01000000000000003
  endloop
endfacet
facet normal 1 0 0
  outer loop
    vertex 0.03699999999999999 0.022125 0.01000000000000003
    vertex 0.03699999999999999 0.0258125 0.015
    vertex 0.03699999999999999 0.022125 0.02
  endloop
endfacet
facet normal 0.263495 -0.964661 3.82275e-16
  outer loop
    vertex 0.02799999999999998 0.01966666666666666 0
    vertex 0.0235 0.0184375 0.008074869034632391
    vertex 0.019 0.01720833333333333 0
  endloop
endfacet
facet normal 0.263495 -0.964661 0
  outer loop
    vertex 0.01 0.01475 0
    vertex 0.01646708221909436 0.01651647153206744 0.006902461443262625
    vertex 0.01 0.01475 0.01000000000000003
  endloop
endfacet
facet normal 0.263495 -0.964661 0
  outer loop
    vertex 0.03699999999999999 0.022125 0.009999999999999972
    vertex 0.03053291778090561 0.02035852846793255 0.006902461443262622
    vertex 0.03699999999999999 0.022125 0
  endloop
endfacet
facet normal 0.263495 -0.964661 5.12971e-16
  outer loop
    vertex 0.019 0.01720833333333333 0
    vertex 0.01646708221909436 0.01651647153206744 0.006902461443262625
    vertex 0.01 0.01475 0
  endloop
endfacet
facet normal 0.263495 -0.964661 2.63062e-16
  outer loop
    vertex 0.03699999999999999 0.022125 0
    vertex 0.03053291778090561 0.02035852846793255 0.006902461443262622
    vertex 0.02799999999999998 0.01966666666666666 0
  endloop
endfacet
facet normal 0.263495 -0.964661 -2.57756e-16
  outer loop
    vertex 0.0235 0.0184375 0.008074869034632391
    vertex 0.03097485997638477 0.02047924416021622 0.01374642307179518
    vertex 0.0235 0.0184375 0.01516827586429922
  endloop
endfacet
facet normal 0.263495 -0.964661 -2.57756e-16
  outer loop
    vertex 0.0235 0.0184375 0.01516827586429922
    vertex 0.01602514002361524 0.0163957558397838 0.01374642307179518
    vertex 0.0235 0.0184375 0.008074869034632391
  endloop
endfacet
facet normal 0.263495 -0.964661 0
  outer loop
    vertex 0.03699999999999999 0.022125 0.02
    vertex 0.03097485997638477 0.02047924416021622 0.01374642307179518
    vertex 0.03699999999999999 0.022125 0.009999999999999972
  endloop
endfacet
facet normal 0.263495 -0.964661 0
  outer loop
    vertex 0.01 0.01475 0.01000000000000003
    vertex 0.01602514002361524 0.0163957558397838 0.01374642307179518
    vertex 0.01 0.01475 0.02
  endloop
endfacet
facet normal 0.263495 -0.964661 2.14137e-16
  outer loop
    vertex 0.03053291778090561 0.02035852846793255 0.006902461443262622
    vertex 0.03097485997638477 0.02047924416021622 0.01374642307179518
    vertex 0.0235 0.0184375 0.008074869034632391
  endloop
endfacet
facet normal 0.263495 -0.964661 1.34361e-16
  outer loop
    vertex 0.0235 0.0184375 0.008074869034632391
    vertex 0.01602514002361524 0.0163957558397838 0.01374642307179518
    vertex 0.01646708221909436 0.01651647153206744 0.006902461443262625
  endloop
endfacet
facet normal 0.263495 -0.964661 -5.5168e-16
  outer loop
    vertex 0.02799999999999999 0.01966666666666667 0.02
    vertex 0.03097485997638477 0.02047924416021622 0.01374642307179518
    vertex 0.03699999999999999 0.022125 0.02
  endloop
endfacet
facet normal 0.263495 -0.964661 -6.38788e-16
  outer loop
    vertex 0.01 0.01475 0.02
    vertex 0.01602514002361524 0.0163957558397838 0.01374642307179518
    vertex 0.01900000000000001 0.01720833333333334 0.02
  endloop
endfacet
facet normal 0.263495 -0.964661 5.7102e-16
  outer loop
    vertex 0.0235 0.0184375 0.008074869034632391
    vertex 0.01646708221909436 0.01651647153206744 0.006902461443262625
    vertex 0.019 0.01720833333333333 0
  endloop
endfacet
facet normal 0.263495 -0.964661 1.98271e-16
  outer loop
    vertex 0.02799999999999998 0.01966666666666666 0
    vertex 0.03053291778090561 0.02035852846793255 0.006902461443262622
    vertex 0.0235 0.0184375 0.008074869034632391
  endloop
endfacet
facet normal 0.263495 -0.964661 -2.63062e-16
  outer loop
    vertex 0.01900000000000001 0.01720833333333334 0.02
    vertex 0.0235 0.0184375 0.01516827586429922
    vertex 0.02799999999999999 0.01966666666666667 0.02
  endloop
endfacet
facet normal 0.263495 -0.964661 -3.45945e-16
  outer loop
    vertex 0.0235 0.0184375 0.01516827586429922
    vertex 0.03097485997638477 0.02047924416021622 0.01374642307179518
    vertex 0.02799999999999999 0.01966666666666667 0.02
  endloop
endfacet
facet normal 0.263495 -0.964661 -6.05404e-16
  outer loop
    vertex 0.01900000000000001 0.01720833333333334 0.02
    vertex 0.01602514002361524 0.0163957558397838 0.01374642307179518
    vertex 0.0235 0.0184375 0.01516827586429922
  endloop
endfacet
facet normal 0.263495 -0.964661 1.69072e-16
  outer loop
    vertex 0.01646708221909436 0.01651647153206744 0.006902461443262625
    vertex 0.01602514002361524 0.0163957558397838 0.01374642307179518
    vertex 0.01 0.01475 0.01000000000000003
  endloop
endfacet
facet normal 0.263495 -0.964661 2.28604e-16
  outer loop
    vertex 0.03699999999999999 0.022125 0.009999999999999972
    vertex 0.03097485997638477 0.02047924416021622 0.01374642307179518
    vertex 0.03053291778090561 0.02035852846793255 0.006902461443262622
  endloop
endfacet
facet normal 1 -2.61143e-30 -3.46945e-16
  outer loop
    vertex 0.01 0.01475 0.009999999999999972
    vertex 0.01 0.0110625 0.015
    vertex 0.01 0.007375 0.01000000000000003
  endloop
endfacet
facet normal 1 2.61143e-30 3.46945e-16
  outer loop
    vertex 0.01 0.007375 0.01000000000000003
    vertex 0.01 0.0110625 0.005000000000000001
    vertex 0.01 0.01475 0.009999999999999972
  endloop
endfacet
facet normal 1 -0 3.46945e-16
  outer loop
    vertex 0.01 0.007375 0.02
    vertex 0.01 0.0110625 0.015
    vertex 0.01 0.01475 0.02
  endloop
endfacet
facet normal 1 0 -3.46945e-16
  outer loop
    vertex 0.01 0.01475 0
    vertex 0.01 0.0110625 0.005000000000000001
    vertex 0.01 0.007375 0
  endloop
endfacet
facet normal 1 4.70433e-16 0
  outer loop
    vertex 0.01 0.01475 0.009999999999999972
    vertex 0.01 0.0110625 0.005000000000000001
    vertex 0.01 0.01475 0
  endloop
endfacet
facet normal 1 4.70433e-16 0
  outer loop
    vertex 0.01 0.01475 0.02
    vertex 0.01 0.0110625 0.015
    vertex 0.01 0.01475 0.009999999999999972
  endloop
endfacet
facet normal 1 -4.70433e-16 0
  outer loop
    vertex 0.01 0.007375 0
    vertex 0.01 0.0110625 0.005000000000000001
    vertex 0.01 0.007375 0.01000000000000003
  endloop
endfacet
facet normal 1 -4.70433e-16 0
  outer loop
    vertex 0.01 0.007375 0.01000000000000003
    vertex 0.01 0.0110625 0.015
    vertex 0.01 0.007375 0.02
  endloop
endfacet
endsolid Created by Gmsh
