solid Created by Gmsh
facet normal 0.998221 0.059621 -8.31552e-17
  outer loop
    vertex 0.006756742432693306 0.02081558875462253 0
    vertex 0.007100498956345971 0.01506014867829653 0.0107466171449318
    vertex 0.007378371216346653 0.01040779437731127 0
  endloop
endfacet
facet normal 0.998221 0.059621 7.74708e-18
  outer loop
    vertex 0.006135113649039961 0.03122338313193378 0.02
    vertex 0.005777233673495624 0.03721528906545915 0.009513511448122916
    vertex 0.005513484865386614 0.04163117750924505 0.02
  endloop
endfacet
facet normal 0.998221 0.059621 -9.44397e-17
  outer loop
    vertex 0.006756742432693306 0.02081558875462253 0
    vertex 0.006443574132218022 0.02605889691947805 0.01004335476550912
    vertex 0.007100498956345971 0.01506014867829653 0.0107466171449318
  endloop
endfacet
facet normal 0.998221 0.059621 -9.70668e-17
  outer loop
    vertex 0.006135113649039959 0.0312233831319338 0
    vertex 0.006443574132218022 0.02605889691947805 0.01004335476550912
    vertex 0.006756742432693306 0.02081558875462253 0
  endloop
endfacet
facet normal 0.998221 0.059621 1.85721e-17
  outer loop
    vertex 0.006135113649039961 0.03122338313193378 0.02
    vertex 0.006443574132218022 0.02605889691947805 0.01004335476550912
    vertex 0.005777233673495624 0.03721528906545915 0.009513511448122916
  endloop
endfacet
facet normal 0.998221 0.059621 -9.28204e-17
  outer loop
    vertex 0.005777233673495624 0.03721528906545915 0.009513511448122916
    vertex 0.006443574132218022 0.02605889691947805 0.01004335476550912
    vertex 0.006135113649039959 0.0312233831319338 0
  endloop
endfacet
facet normal 0.998221 0.059621 -6.92497e-17
  outer loop
    vertex 0.007100498956345971 0.01506014867829653 0.0107466171449318
    vertex 0.007552651928323119 0.007489850643235433 0.00769416156854539
    vertex 0.007378371216346653 0.01040779437731127 0
  endloop
endfacet
facet normal 0.998221 0.059621 5.73586e-17
  outer loop
    vertex 0.005777233673495624 0.03721528906545915 0.009513511448122916
    vertex 0.005326778459591475 0.04475716190948846 0.01240149279937744
    vertex 0.005513484865386614 0.04163117750924505 0.02
  endloop
endfacet
facet normal 0.998221 0.059621 2.85577e-17
  outer loop
    vertex 0.006756742432693308 0.02081558875462251 0.02
    vertex 0.006443574132218022 0.02605889691947805 0.01004335476550912
    vertex 0.006135113649039961 0.03122338313193378 0.02
  endloop
endfacet
facet normal 0.998221 0.059621 2.7965e-17
  outer loop
    vertex 0.007100498956345971 0.01506014867829653 0.0107466171449318
    vertex 0.006443574132218022 0.02605889691947805 0.01004335476550912
    vertex 0.006756742432693308 0.02081558875462251 0.02
  endloop
endfacet
facet normal 0.998221 0.059621 -9.39334e-17
  outer loop
    vertex 0.005513484865386612 0.04163117750924506 0
    vertex 0.005777233673495624 0.03721528906545915 0.009513511448122916
    vertex 0.006135113649039959 0.0312233831319338 0
  endloop
endfacet
facet normal 0.998221 0.059621 6.5846e-17
  outer loop
    vertex 0.007378371216346654 0.01040779437731125 0.02
    vertex 0.007100498956345971 0.01506014867829653 0.0107466171449318
    vertex 0.006756742432693308 0.02081558875462251 0.02
  endloop
endfacet
facet normal 0.998221 0.059621 0
  outer loop
    vertex 0.004891856081733267 0.05203897188655631 0.02
    vertex 0.005326778459591475 0.04475716190948846 0.01240149279937744
    vertex 0.004891856081733267 0.05203897188655631 0.009999999999999972
  endloop
endfacet
facet normal 0.998221 0.059621 -0
  outer loop
    vertex 0.008 0 0
    vertex 0.007552651928323119 0.007489850643235433 0.00769416156854539
    vertex 0.008 0 0.01000000000000003
  endloop
endfacet
facet normal 0.998221 0.059621 -5.27931e-17
  outer loop
    vertex 0.007378371216346653 0.01040779437731127 0
    vertex 0.007552651928323119 0.007489850643235433 0.00769416156854539
    vertex 0.008 0 0
  endloop
endfacet
facet normal 0.998221 0.059621 1.17607e-16
  outer loop
    vertex 0.005513484865386614 0.04163117750924505 0.02
    vertex 0.005326778459591475 0.04475716190948846 0.01240149279937744
    vertex 0.004891856081733267 0.05203897188655631 0.02
  endloop
endfacet
facet normal 0.998221 0.059621 1.20603e-16
  outer loop
    vertex 0.007378371216346654 0.01040779437731125 0.02
    vertex 0.007629984759623201 0.006195084010879207 0.01406296838763961
    vertex 0.007100498956345971 0.01506014867829653 0.0107466171449318
  endloop
endfacet
facet normal 0.998221 0.059621 -1.60606e-16
  outer loop
    vertex 0.005513484865386612 0.04163117750924506 0
    vertex 0.00525807858700859 0.04590738880758667 0.0059878577496429
    vertex 0.005777233673495624 0.03721528906545915 0.009513511448122916
  endloop
endfacet
facet normal 0.998221 0.059621 -6.48335e-17
  outer loop
    vertex 0.007100498956345971 0.01506014867829653 0.0107466171449318
    vertex 0.007629984759623201 0.006195084010879207 0.01406296838763961
    vertex 0.007552651928323119 0.007489850643235433 0.00769416156854539
  endloop
endfacet
facet normal 0.998221 0.059621 -4.90704e-17
  outer loop
    vertex 0.005777233673495624 0.03721528906545915 0.009513511448122916
    vertex 0.00525807858700859 0.04590738880758667 0.0059878577496429
    vertex 0.005326778459591475 0.04475716190948846 0.01240149279937744
  endloop
endfacet
facet normal 0.998221 0.059621 -2.03511e-16
  outer loop
    vertex 0.004891856081733267 0.05203897188655631 0
    vertex 0.00525807858700859 0.04590738880758667 0.0059878577496429
    vertex 0.005513484865386612 0.04163117750924506 0
  endloop
endfacet
facet normal 0.998221 0.059621 1.36836e-16
  outer loop
    vertex 0.008 0 0.02
    vertex 0.007629984759623201 0.006195084010879207 0.01406296838763961
    vertex 0.007378371216346654 0.01040779437731125 0.02
  endloop
endfacet
facet normal 0.998221 0.059621 0
  outer loop
    vertex 0.004891856081733267 0.05203897188655631 0.009999999999999972
    vertex 0.00525807858700859 0.04590738880758667 0.0059878577496429
    vertex 0.004891856081733267 0.05203897188655631 0
  endloop
endfacet
facet normal 0.998221 0.059621 -0
  outer loop
    vertex 0.008 0 0.01000000000000003
    vertex 0.007629984759623201 0.006195084010879207 0.01406296838763961
    vertex 0.008 0 0.02
  endloop
endfacet
facet normal 0.998221 0.059621 -1.68372e-17
  outer loop
    vertex 0.005326778459591475 0.04475716190948846 0.01240149279937744
    vertex 0.00525807858700859 0.04590738880758667 0.0059878577496429
    vertex 0.004891856081733267 0.05203897188655631 0.009999999999999972
  endloop
endfacet
facet normal 0.998221 0.059621 -7.7999e-17
  outer loop
    vertex 0.007552651928323119 0.007489850643235433 0.00769416156854539
    vertex 0.007629984759623201 0.006195084010879207 0.01406296838763961
    vertex 0.008 0 0.01000000000000003
  endloop
endfacet
endsolid Created by Gmsh
