solid Created by Gmsh
facet normal 0.999945 -0.0105161 -1.30422e-17
  outer loop
    vertex 0.008113676863657731 0.01080922426293435 0.02
    vertex 0.008158523063184171 0.0150735275910165 0.009485946915428901
    vertex 0.008227353727315459 0.02161844852586874 0.02
  endloop
endfacet
facet normal 0.999945 -0.0105161 8.23437e-17
  outer loop
    vertex 0.008454707454630919 0.04323689705173737 0
    vertex 0.008409964028813343 0.03898236619653771 0.01034857485708018
    vertex 0.00834103059097319 0.03242767278880299 0
  endloop
endfacet
facet normal 0.999945 -0.0105161 3.4579e-17
  outer loop
    vertex 0.008158523063184171 0.0150735275910165 0.009485946915428901
    vertex 0.008284209288095801 0.02702468940281628 0.009972420295418179
    vertex 0.008227353727315459 0.02161844852586874 0.02
  endloop
endfacet
facet normal 0.999945 -0.0105161 -3.61408e-17
  outer loop
    vertex 0.008227353727315459 0.02161844852586874 0.02
    vertex 0.008284209288095801 0.02702468940281628 0.009972420295418179
    vertex 0.00834103059097319 0.03242767278880307 0.02
  endloop
endfacet
facet normal 0.999945 -0.0105161 1.615e-16
  outer loop
    vertex 0.008409964028813343 0.03898236619653771 0.01034857485708018
    vertex 0.008284209288095801 0.02702468940281628 0.009972420295418179
    vertex 0.00834103059097319 0.03242767278880299 0
  endloop
endfacet
facet normal 0.999945 -0.0105161 -8.48788e-17
  outer loop
    vertex 0.00834103059097319 0.03242767278880307 0.02
    vertex 0.008284209288095801 0.02702468940281628 0.009972420295418179
    vertex 0.008409964028813343 0.03898236619653771 0.01034857485708018
  endloop
endfacet
facet normal 0.999945 -0.0105161 0
  outer loop
    vertex 0.008568384318288649 0.05404612131467173 0.009999999999999972
    vertex 0.008489617084449693 0.04655635895018765 0.007673176358329241
    vertex 0.008568384318288649 0.05404612131467173 0
  endloop
endfacet
facet normal 0.999945 -0.0105161 0
  outer loop
    vertex 0.008 0 0.01000000000000003
    vertex 0.008078774724634061 0.007490474643848694 0.01231476254637259
    vertex 0.008 0 0.02
  endloop
endfacet
facet normal 0.999945 -0.0105161 1.16879e-16
  outer loop
    vertex 0.00834103059097319 0.03242767278880299 0
    vertex 0.008284209288095801 0.02702468940281628 0.009972420295418179
    vertex 0.008227353727315459 0.02161844852586866 0
  endloop
endfacet
facet normal 0.999945 -0.0105161 4.58731e-17
  outer loop
    vertex 0.008227353727315459 0.02161844852586866 0
    vertex 0.008284209288095801 0.02702468940281628 0.009972420295418179
    vertex 0.008158523063184171 0.0150735275910165 0.009485946915428901
  endloop
endfacet
facet normal 0.999945 -0.0105161 5.87184e-17
  outer loop
    vertex 0.008568384318288649 0.05404612131467173 0
    vertex 0.008489617084449693 0.04655635895018765 0.007673176358329241
    vertex 0.008454707454630919 0.04323689705173737 0
  endloop
endfacet
facet normal 0.999945 -0.0105161 -8.53904e-17
  outer loop
    vertex 0.008 0 0.02
    vertex 0.008078774724634061 0.007490474643848694 0.01231476254637259
    vertex 0.008113676863657731 0.01080922426293435 0.02
  endloop
endfacet
facet normal 0.999945 -0.0105161 5.98879e-17
  outer loop
    vertex 0.008227353727315459 0.02161844852586866 0
    vertex 0.008158523063184171 0.0150735275910165 0.009485946915428901
    vertex 0.008113676863657731 0.01080922426293434 0
  endloop
endfacet
facet normal 0.999945 -0.0105161 -4.76978e-17
  outer loop
    vertex 0.00834103059097319 0.03242767278880307 0.02
    vertex 0.008409964028813343 0.03898236619653771 0.01034857485708018
    vertex 0.008454707454630919 0.04323689705173739 0.02
  endloop
endfacet
facet normal 0.999945 -0.0105161 -5.80472e-17
  outer loop
    vertex 0.008409964028813343 0.03898236619653771 0.01034857485708018
    vertex 0.008504742597905939 0.04799460294971307 0.01428793379749075
    vertex 0.008454707454630919 0.04323689705173739 0.02
  endloop
endfacet
facet normal 0.999945 -0.0105161 1.94502e-16
  outer loop
    vertex 0.008158523063184171 0.0150735275910165 0.009485946915428901
    vertex 0.008063652971862704 0.006052588237636932 0.005693949945081794
    vertex 0.008113676863657731 0.01080922426293434 0
  endloop
endfacet
facet normal 0.999945 -0.0105161 3.12101e-17
  outer loop
    vertex 0.008454707454630919 0.04323689705173737 0
    vertex 0.008489617084449693 0.04655635895018765 0.007673176358329241
    vertex 0.008409964028813343 0.03898236619653771 0.01034857485708018
  endloop
endfacet
facet normal 0.999945 -0.0105161 -8.76205e-17
  outer loop
    vertex 0.008113676863657731 0.01080922426293435 0.02
    vertex 0.008078774724634061 0.007490474643848694 0.01231476254637259
    vertex 0.008158523063184171 0.0150735275910165 0.009485946915428901
  endloop
endfacet
facet normal 0.999945 -0.0105161 -1.56547e-16
  outer loop
    vertex 0.008078774724634061 0.007490474643848694 0.01231476254637259
    vertex 0.008063652971862704 0.006052588237636932 0.005693949945081794
    vertex 0.008158523063184171 0.0150735275910165 0.009485946915428901
  endloop
endfacet
facet normal 0.999945 -0.0105161 9.44456e-17
  outer loop
    vertex 0.008489617084449693 0.04655635895018765 0.007673176358329241
    vertex 0.008504742597905939 0.04799460294971307 0.01428793379749075
    vertex 0.008409964028813343 0.03898236619653771 0.01034857485708018
  endloop
endfacet
facet normal 0.999945 -0.0105161 3.21677e-16
  outer loop
    vertex 0.008113676863657731 0.01080922426293434 0
    vertex 0.008063652971862704 0.006052588237636932 0.005693949945081794
    vertex 0.008 0 0
  endloop
endfacet
facet normal 0.999945 -0.0105161 -1.9548e-16
  outer loop
    vertex 0.008454707454630919 0.04323689705173739 0.02
    vertex 0.008504742597905939 0.04799460294971307 0.01428793379749075
    vertex 0.008568384318288649 0.05404612131467173 0.02
  endloop
endfacet
facet normal 0.999945 -0.0105161 0
  outer loop
    vertex 0.008 0 0
    vertex 0.008063652971862704 0.006052588237636932 0.005693949945081794
    vertex 0.008 0 0.01000000000000003
  endloop
endfacet
facet normal 0.999945 -0.0105161 0
  outer loop
    vertex 0.008568384318288649 0.05404612131467173 0.02
    vertex 0.008504742597905939 0.04799460294971307 0.01428793379749075
    vertex 0.008568384318288649 0.05404612131467173 0.009999999999999972
  endloop
endfacet
facet normal 0.999945 -0.0105161 1.35217e-16
  outer loop
    vertex 0.008568384318288649 0.05404612131467173 0.009999999999999972
    vertex 0.008504742597905939 0.04799460294971307 0.01428793379749075
    vertex 0.008489617084449693 0.04655635895018765 0.007673176358329241
  endloop
endfacet
facet normal 0.999945 -0.0105161 -1.93372e-16
  outer loop
    vertex 0.008 0 0.01000000000000003
    vertex 0.008063652971862704 0.006052588237636932 0.005693949945081794
    vertex 0.008078774724634061 0.007490474643848694 0.01231476254637259
  endloop
endfacet
endsolid Created by Gmsh
