solid Created by Gmsh
facet normal 1 0 0
  outer loop
    vertex 0.04 0.06 0
    vertex 0.04 0.05429184570423158 0.005728862973760926
    vertex 0.04 0.04858369140846316 0
  endloop
endfacet
facet normal 1 -0 0
  outer loop
    vertex 0.04 0.04858369140846316 0.02
    vertex 0.04 0.05429184570423158 0.01432426114969104
    vertex 0.04 0.06 0.02
  endloop
endfacet
facet normal 1 0 0
  outer loop
    vertex 0.04 0.06 0.009999999999999972
    vertex 0.04 0.05429184570423158 0.01432426114969104
    vertex 0.04 0.05429184570423158 0.005728862973760926
  endloop
endfacet
facet normal 1 0 -0
  outer loop
    vertex 0.04 0.05429184570423158 0.005728862973760926
    vertex 0.04 0.05429184570423158 0.01432426114969104
    vertex 0.04 0.04858369140846316 0.01000000000000003
  endloop
endfacet
facet normal 1 0 0
  outer loop
    vertex 0.04 0.06 0.02
    vertex 0.04 0.05429184570423158 0.01432426114969104
    vertex 0.04 0.06 0.009999999999999972
  endloop
endfacet
facet normal 1 0 0
  outer loop
    vertex 0.04 0.04858369140846316 0
    vertex 0.04 0.05429184570423158 0.005728862973760926
    vertex 0.04 0.04858369140846316 0.01000000000000003
  endloop
endfacet
facet normal 1 0 0
  outer loop
    vertex 0.04 0.06 0.009999999999999972
    vertex 0.04 0.05429184570423158 0.005728862973760926
    vertex 0.04 0.06 0
  endloop
endfacet
facet normal 1 0 0
  outer loop
    vertex 0.04 0.04858369140846316 0.01000000000000003
    vertex 0.04 0.05429184570423158 0.01432426114969104
    vertex 0.04 0.04858369140846316 0.02
  endloop
endfacet
facet normal 0.575793 0.817596 -1.10558e-15
  outer loop
    vertex 0.04 0.04858369140846316 0
    vertex 0.04431164604331465 0.04554721069543421 0.005520616409829249
    vertex 0.04862329208662926 0.04251072998240527 0
  endloop
endfacet
facet normal 0.575793 0.817596 1.05256e-15
  outer loop
    vertex 0.04862329208662926 0.04251072998240527 0.02
    vertex 0.04431164604331463 0.04554721069543422 0.01450648773478912
    vertex 0.04 0.04858369140846316 0.02
  endloop
endfacet
facet normal 0.575793 0.817596 0
  outer loop
    vertex 0.04 0.04858369140846316 0.02
    vertex 0.04431164604331463 0.04554721069543422 0.01450648773478912
    vertex 0.04 0.04858369140846316 0.009999999999999972
  endloop
endfacet
facet normal 0.575793 0.817596 -0
  outer loop
    vertex 0.04862329208662926 0.04251072998240527 0
    vertex 0.04431164604331465 0.04554721069543421 0.005520616409829249
    vertex 0.04862329208662926 0.04251072998240527 0.01000000000000003
  endloop
endfacet
facet normal 0.575793 0.817596 7.14983e-17
  outer loop
    vertex 0.04 0.04858369140846316 0.009999999999999972
    vertex 0.04431164604331463 0.04554721069543422 0.01450648773478912
    vertex 0.04431164604331465 0.04554721069543421 0.005520616409829249
  endloop
endfacet
facet normal 0.575793 0.817596 7.11862e-17
  outer loop
    vertex 0.04431164604331465 0.04554721069543421 0.005520616409829249
    vertex 0.04431164604331463 0.04554721069543422 0.01450648773478912
    vertex 0.04862329208662926 0.04251072998240527 0.01000000000000003
  endloop
endfacet
facet normal 0.575793 0.817596 0
  outer loop
    vertex 0.04 0.04858369140846316 0.009999999999999972
    vertex 0.04431164604331465 0.04554721069543421 0.005520616409829249
    vertex 0.04 0.04858369140846316 0
  endloop
endfacet
facet normal 0.575793 0.817596 -0
  outer loop
    vertex 0.04862329208662926 0.04251072998240527 0.01000000000000003
    vertex 0.04431164604331463 0.04554721069543422 0.01450648773478912
    vertex 0.04862329208662926 0.04251072998240527 0.02
  endloop
endfacet
facet normal 0.419997 -0.907525 3.73692e-16
  outer loop
    vertex 0.04862329208662926 0.04251072998240527 0
    vertex 0.04192819569080245 0.03941228027523287 0.007524425021181123
    vertex 0.04206209761871899 0.03947424926937632 0
  endloop
endfacet
facet normal 0.419997 -0.907525 3.77585e-16
  outer loop
    vertex 0.04206209761871899 0.03947424926937632 0
    vertex 0.04192819569080245 0.03941228027523287 0.007524425021181123
    vertex 0.03550090315080871 0.03643776855634737 0
  endloop
endfacet
facet normal 0.419997 -0.907525 0
  outer loop
    vertex 0.03550090315080871 0.03643776855634737 0
    vertex 0.04192819569080245 0.03941228027523287 0.007524425021181123
    vertex 0.03550090315080871 0.03643776855634737 0.01000000000000003
  endloop
endfacet
facet normal 0.419997 -0.907525 0
  outer loop
    vertex 0.04862329208662926 0.04251072998240527 0.009999999999999972
    vertex 0.04192819569080245 0.03941228027523287 0.007524425021181123
    vertex 0.04862329208662926 0.04251072998240527 0
  endloop
endfacet
facet normal 0.419997 -0.907525 0
  outer loop
    vertex 0.04862329208662926 0.04251072998240527 0.02
    vertex 0.04403045595909207 0.040385193483285 0.014715957680505
    vertex 0.04862329208662926 0.04251072998240527 0.009999999999999972
  endloop
endfacet
facet normal 0.419997 -0.907525 0
  outer loop
    vertex 0.03550090315080871 0.03643776855634737 0.01000000000000003
    vertex 0.03951222233425124 0.03829418256661609 0.01460576895738374
    vertex 0.03550090315080871 0.03643776855634737 0.02
  endloop
endfacet
facet normal 0.419997 -0.907525 4.8779e-16
  outer loop
    vertex 0.04206209761871899 0.03947424926937632 0.02
    vertex 0.04403045595909207 0.040385193483285 0.014715957680505
    vertex 0.04862329208662926 0.04251072998240527 0.02
  endloop
endfacet
facet normal 0.419997 -0.907525 3.90948e-16
  outer loop
    vertex 0.03550090315080871 0.03643776855634737 0.02
    vertex 0.03951222233425124 0.03829418256661609 0.01460576895738374
    vertex 0.04206209761871899 0.03947424926937632 0.02
  endloop
endfacet
facet normal 0.419997 -0.907525 -3.57411e-16
  outer loop
    vertex 0.04403045595909207 0.040385193483285 0.014715957680505
    vertex 0.03951222233425124 0.03829418256661609 0.01460576895738374
    vertex 0.04192819569080245 0.03941228027523287 0.007524425021181123
  endloop
endfacet
facet normal 0.419997 -0.907525 5.7434e-16
  outer loop
    vertex 0.04206209761871899 0.03947424926937632 0.02
    vertex 0.03951222233425124 0.03829418256661609 0.01460576895738374
    vertex 0.04403045595909207 0.040385193483285 0.014715957680505
  endloop
endfacet
facet normal 0.419997 -0.907525 -3.40105e-16
  outer loop
    vertex 0.04403045595909207 0.040385193483285 0.014715957680505
    vertex 0.04192819569080245 0.03941228027523287 0.007524425021181123
    vertex 0.04862329208662926 0.04251072998240527 0.009999999999999972
  endloop
endfacet
facet normal 0.419997 -0.907525 -3.11114e-16
  outer loop
    vertex 0.04192819569080245 0.03941228027523287 0.007524425021181123
    vertex 0.03951222233425124 0.03829418256661609 0.01460576895738374
    vertex 0.03550090315080871 0.03643776855634737 0.01000000000000003
  endloop
endfacet
facet normal 0.652465 0.757818 0
  outer loop
    vertex 0.03550090315080871 0.03643776855634737 0.02
    vertex 0.03902768187240022 0.03340128784331842 0.015
    vertex 0.03550090315080871 0.03643776855634737 0.009999999999999972
  endloop
endfacet
facet normal 0.652465 0.757818 -0
  outer loop
    vertex 0.04255446059399173 0.03036480713028948 0
    vertex 0.03902768187240022 0.03340128784331842 0.004999999999999999
    vertex 0.04255446059399173 0.03036480713028948 0.01000000000000003
  endloop
endfacet
facet normal 0.652465 0.757818 0
  outer loop
    vertex 0.03550090315080871 0.03643776855634737 0.009999999999999972
    vertex 0.03902768187240022 0.03340128784331842 0.004999999999999999
    vertex 0.03550090315080871 0.03643776855634737 0
  endloop
endfacet
facet normal 0.652465 0.757818 -0
  outer loop
    vertex 0.04255446059399173 0.03036480713028948 0.01000000000000003
    vertex 0.03902768187240022 0.03340128784331842 0.015
    vertex 0.04255446059399173 0.03036480713028948 0.02
  endloop
endfacet
facet normal 0.652465 0.757818 -2.91211e-16
  outer loop
    vertex 0.04255446059399173 0.03036480713028948 0.01000000000000003
    vertex 0.03902768187240022 0.03340128784331842 0.004999999999999999
    vertex 0.03550090315080871 0.03643776855634737 0.009999999999999972
  endloop
endfacet
facet normal 0.652465 0.757818 2.91211e-16
  outer loop
    vertex 0.03550090315080871 0.03643776855634737 0.009999999999999972
    vertex 0.03902768187240022 0.03340128784331842 0.015
    vertex 0.04255446059399173 0.03036480713028948 0.01000000000000003
  endloop
endfacet
facet normal 0.652465 0.757818 2.91211e-16
  outer loop
    vertex 0.03550090315080871 0.03643776855634737 0
    vertex 0.03902768187240022 0.03340128784331842 0.004999999999999999
    vertex 0.04255446059399173 0.03036480713028948 0
  endloop
endfacet
facet normal 0.652465 0.757818 -2.91211e-16
  outer loop
    vertex 0.04255446059399173 0.03036480713028948 0.02
    vertex 0.03902768187240022 0.03340128784331842 0.015
    vertex 0.03550090315080871 0.03643776855634737 0.02
  endloop
endfacet
facet normal 0.674005 -0.738727 0
  outer loop
    vertex 0.04255446059399173 0.03036480713028948 0.02
    vertex 0.03922639554678636 0.02732832641726054 0.015
    vertex 0.04255446059399173 0.03036480713028948 0.009999999999999972
  endloop
endfacet
facet normal 0.674005 -0.738727 0
  outer loop
    vertex 0.03589833049958098 0.02429184570423158 0
    vertex 0.03922639554678636 0.02732832641726054 0.005000000000000001
    vertex 0.03589833049958098 0.02429184570423158 0.01000000000000003
  endloop
endfacet
facet normal 0.674005 -0.738727 0
  outer loop
    vertex 0.04255446059399173 0.03036480713028948 0.009999999999999972
    vertex 0.03922639554678636 0.02732832641726054 0.005000000000000001
    vertex 0.04255446059399173 0.03036480713028948 0
  endloop
endfacet
facet normal 0.674005 -0.738727 0
  outer loop
    vertex 0.03589833049958098 0.02429184570423158 0.01000000000000003
    vertex 0.03922639554678636 0.02732832641726054 0.015
    vertex 0.03589833049958098 0.02429184570423158 0.02
  endloop
endfacet
facet normal 0.674005 -0.738727 -7.5206e-16
  outer loop
    vertex 0.03589833049958098 0.02429184570423158 0.01000000000000003
    vertex 0.03922639554678636 0.02732832641726054 0.005000000000000001
    vertex 0.04255446059399173 0.03036480713028948 0.009999999999999972
  endloop
endfacet
facet normal 0.674005 -0.738727 -7.5206e-16
  outer loop
    vertex 0.03589833049958098 0.02429184570423158 0.02
    vertex 0.03922639554678636 0.02732832641726054 0.015
    vertex 0.04255446059399173 0.03036480713028948 0.02
  endloop
endfacet
facet normal 0.674005 -0.738727 7.5206e-16
  outer loop
    vertex 0.04255446059399173 0.03036480713028948 0
    vertex 0.03922639554678636 0.02732832641726054 0.005000000000000001
    vertex 0.03589833049958098 0.02429184570423158 0
  endloop
endfacet
facet normal 0.674005 -0.738727 7.5206e-16
  outer loop
    vertex 0.04255446059399173 0.03036480713028948 0.009999999999999972
    vertex 0.03922639554678636 0.02732832641726054 0.015
    vertex 0.03589833049958098 0.02429184570423158 0.01000000000000003
  endloop
endfacet
facet normal 0.479208 0.877702 -1.06941e-16
  outer loop
    vertex 0.04702137300361049 0.01821888427817369 0.01000000000000003
    vertex 0.03589833049958098 0.02429184570423158 0.009999999999999972
    vertex 0.04145985175159573 0.02125536499120264 0.02
  endloop
endfacet
facet normal 0.479208 0.877702 1.87146e-16
  outer loop
    vertex 0.04145985175159574 0.02125536499120263 0
    vertex 0.03589833049958098 0.02429184570423158 0.009999999999999972
    vertex 0.04702137300361049 0.01821888427817369 0.01000000000000003
  endloop
endfacet
facet normal 0.479208 0.877702 0
  outer loop
    vertex 0.04145985175159574 0.02125536499120263 0
    vertex 0.03589833049958098 0.02429184570423158 0
    vertex 0.03589833049958098 0.02429184570423158 0.009999999999999972
  endloop
endfacet
facet normal 0.479208 0.877702 -0
  outer loop
    vertex 0.03589833049958098 0.02429184570423158 0.009999999999999972
    vertex 0.03589833049958098 0.02429184570423158 0.02
    vertex 0.04145985175159573 0.02125536499120264 0.02
  endloop
endfacet
facet normal 0.479208 0.877702 0
  outer loop
    vertex 0.04702137300361049 0.01821888427817369 0.01000000000000003
    vertex 0.04702137300361049 0.01821888427817369 0
    vertex 0.04145985175159574 0.02125536499120263 0
  endloop
endfacet
facet normal 0.479208 0.877702 0
  outer loop
    vertex 0.04145985175159573 0.02125536499120264 0.02
    vertex 0.04702137300361049 0.01821888427817369 0.02
    vertex 0.04702137300361049 0.01821888427817369 0.01000000000000003
  endloop
endfacet
facet normal 0.986096 -0.166178 0
  outer loop
    vertex 0.04702137300361049 0.01821888427817369 0.009999999999999972
    vertex 0.04650966306535389 0.01518240356514474 0.015
    vertex 0.04599795312709729 0.01214592285211579 0.01000000000000003
  endloop
endfacet
facet normal 0.986096 -0.166178 0
  outer loop
    vertex 0.04599795312709729 0.01214592285211579 0.01000000000000003
    vertex 0.04650966306535389 0.01518240356514474 0.005
    vertex 0.04702137300361049 0.01821888427817369 0.009999999999999972
  endloop
endfacet
facet normal 0.986096 -0.166178 0
  outer loop
    vertex 0.04702137300361049 0.01821888427817369 0
    vertex 0.04650966306535389 0.01518240356514474 0.005
    vertex 0.04599795312709729 0.01214592285211579 0
  endloop
endfacet
facet normal 0.986096 -0.166178 0
  outer loop
    vertex 0.04599795312709729 0.01214592285211579 0.02
    vertex 0.04650966306535389 0.01518240356514474 0.015
    vertex 0.04702137300361049 0.01821888427817369 0.02
  endloop
endfacet
facet normal 0.986096 -0.166178 0
  outer loop
    vertex 0.04702137300361049 0.01821888427817369 0.009999999999999972
    vertex 0.04650966306535389 0.01518240356514474 0.005
    vertex 0.04702137300361049 0.01821888427817369 0
  endloop
endfacet
facet normal 0.986096 -0.166178 0
  outer loop
    vertex 0.04702137300361049 0.01821888427817369 0.02
    vertex 0.04650966306535389 0.01518240356514474 0.015
    vertex 0.04702137300361049 0.01821888427817369 0.009999999999999972
  endloop
endfacet
facet normal 0.986096 -0.166178 0
  outer loop
    vertex 0.04599795312709729 0.01214592285211579 0
    vertex 0.04650966306535389 0.01518240356514474 0.005
    vertex 0.04599795312709729 0.01214592285211579 0.01000000000000003
  endloop
endfacet
facet normal 0.986096 -0.166178 0
  outer loop
    vertex 0.04599795312709729 0.01214592285211579 0.01000000000000003
    vertex 0.04650966306535389 0.01518240356514474 0.015
    vertex 0.04599795312709729 0.01214592285211579 0.02
  endloop
endfacet
facet normal 0.671732 0.740794 0
  outer loop
    vertex 0.04599795312709729 0.01214592285211579 0.02
    vertex 0.04934662051614108 0.00910944213908684 0.015
    vertex 0.04599795312709729 0.01214592285211579 0.009999999999999972
  endloop
endfacet
facet normal 0.671732 0.740794 -0
  outer loop
    vertex 0.05269528790518488 0.006072961426057899 0
    vertex 0.04934662051614108 0.00910944213908684 0.005000000000000001
    vertex 0.05269528790518488 0.006072961426057899 0.01000000000000003
  endloop
endfacet
facet normal 0.671732 0.740794 -0
  outer loop
    vertex 0.05269528790518488 0.006072961426057899 0.01000000000000003
    vertex 0.04934662051614108 0.00910944213908684 0.015
    vertex 0.05269528790518488 0.006072961426057899 0.02
  endloop
endfacet
facet normal 0.671732 0.740794 0
  outer loop
    vertex 0.04599795312709729 0.01214592285211579 0.009999999999999972
    vertex 0.04934662051614108 0.00910944213908684 0.005000000000000001
    vertex 0.04599795312709729 0.01214592285211579 0
  endloop
endfacet
facet normal 0.671732 0.740794 7.49525e-16
  outer loop
    vertex 0.04599795312709729 0.01214592285211579 0
    vertex 0.04934662051614108 0.00910944213908684 0.005000000000000001
    vertex 0.05269528790518488 0.006072961426057899 0
  endloop
endfacet
facet normal 0.671732 0.740794 -7.49525e-16
  outer loop
    vertex 0.05269528790518488 0.006072961426057899 0.02
    vertex 0.04934662051614108 0.00910944213908684 0.015
    vertex 0.04599795312709729 0.01214592285211579 0.02
  endloop
endfacet
facet normal 0.671732 0.740794 -7.49525e-16
  outer loop
    vertex 0.05269528790518488 0.006072961426057899 0.01000000000000003
    vertex 0.04934662051614108 0.00910944213908684 0.005000000000000001
    vertex 0.04599795312709729 0.01214592285211579 0.009999999999999972
  endloop
endfacet
facet normal 0.671732 0.740794 7.49525e-16
  outer loop
    vertex 0.04599795312709729 0.01214592285211579 0.009999999999999972
    vertex 0.04934662051614108 0.00910944213908684 0.015
    vertex 0.05269528790518488 0.006072961426057899 0.01000000000000003
  endloop
endfacet
endsolid Created by Gmsh
