solid Created by Gmsh
facet normal 0.99401 -0.109286 0
  outer loop
    vertex 0.008 0 0
    vertex 0.008966617494822627 0.008791871306344956 0.008476948908827966
    vertex 0.008 0 0.01000000000000003
  endloop
endfacet
facet normal 0.99401 -0.109286 0
  outer loop
    vertex 0.01444411663215084 0.05861247537563302 0.02
    vertex 0.01347749913732822 0.04982060406928808 0.01152305109117205
    vertex 0.01444411663215084 0.05861247537563302 0.009999999999999972
  endloop
endfacet
facet normal 0.99401 -0.109286 -8.04925e-17
  outer loop
    vertex 0.009288823326430167 0.0117224950751266 0
    vertex 0.008966617494822627 0.008791871306344956 0.008476948908827966
    vertex 0.008 0 0
  endloop
endfacet
facet normal 0.99401 -0.109286 -3.8128e-17
  outer loop
    vertex 0.01315529330572067 0.04688998030050642 0.02
    vertex 0.01347749913732822 0.04982060406928808 0.01152305109117205
    vertex 0.01444411663215084 0.05861247537563302 0.02
  endloop
endfacet
facet normal 0.99401 -0.109286 1.51906e-17
  outer loop
    vertex 0.0118664699792905 0.03516748522537982 0.02
    vertex 0.01122205831607542 0.0293062376878165 0.009999999999999993
    vertex 0.012457180670571 0.04054029546814617 0.01025384184852867
  endloop
endfacet
facet normal 0.99401 -0.109286 2.14506e-16
  outer loop
    vertex 0.012457180670571 0.04054029546814617 0.01025384184852867
    vertex 0.01122205831607542 0.0293062376878165 0.009999999999999993
    vertex 0.0118664699792905 0.0351674852253798 0
  endloop
endfacet
facet normal 0.99401 -0.109286 -7.36949e-18
  outer loop
    vertex 0.01057764665286033 0.0234449901502532 0
    vertex 0.009986935961579842 0.01807217990748685 0.009746158151471326
    vertex 0.009288823326430167 0.0117224950751266 0
  endloop
endfacet
facet normal 0.99401 -0.109286 -3.59121e-17
  outer loop
    vertex 0.01057764665286034 0.02344499015025322 0.02
    vertex 0.01122205831607542 0.0293062376878165 0.009999999999999993
    vertex 0.0118664699792905 0.03516748522537982 0.02
  endloop
endfacet
facet normal 0.99401 -0.109286 2.10139e-16
  outer loop
    vertex 0.01315529330572067 0.0468899803005064 0
    vertex 0.012457180670571 0.04054029546814617 0.01025384184852867
    vertex 0.0118664699792905 0.0351674852253798 0
  endloop
endfacet
facet normal 0.99401 -0.109286 1.58013e-16
  outer loop
    vertex 0.0118664699792905 0.0351674852253798 0
    vertex 0.01122205831607542 0.0293062376878165 0.009999999999999993
    vertex 0.01057764665286033 0.0234449901502532 0
  endloop
endfacet
facet normal 0.99401 -0.109286 -5.8956e-17
  outer loop
    vertex 0.0118664699792905 0.03516748522537982 0.02
    vertex 0.012457180670571 0.04054029546814617 0.01025384184852867
    vertex 0.01315529330572067 0.04688998030050642 0.02
  endloop
endfacet
facet normal 0.99401 -0.109286 4.20277e-17
  outer loop
    vertex 0.009288823326430169 0.01172249507512662 0.02
    vertex 0.009986935961579842 0.01807217990748685 0.009746158151471326
    vertex 0.01057764665286034 0.02344499015025322 0.02
  endloop
endfacet
facet normal 0.99401 -0.109286 3.03812e-17
  outer loop
    vertex 0.01122205831607542 0.0293062376878165 0.009999999999999993
    vertex 0.009986935961579842 0.01807217990748685 0.009746158151471326
    vertex 0.01057764665286033 0.0234449901502532 0
  endloop
endfacet
facet normal 0.99401 -0.109286 -1.47935e-17
  outer loop
    vertex 0.01057764665286034 0.02344499015025322 0.02
    vertex 0.009986935961579842 0.01807217990748685 0.009746158151471326
    vertex 0.01122205831607542 0.0293062376878165 0.009999999999999993
  endloop
endfacet
facet normal 0.99401 -0.109286 1.43649e-16
  outer loop
    vertex 0.01444411663215084 0.05861247537563302 0
    vertex 0.01385238379422246 0.05323036819604053 0.004999999999999991
    vertex 0.01315529330572067 0.0468899803005064 0
  endloop
endfacet
facet normal 0.99401 -0.109286 3.01662e-16
  outer loop
    vertex 0.008 0 0.02
    vertex 0.008591732837928377 0.005382107179592484 0.01500000000000001
    vertex 0.009288823326430169 0.01172249507512662 0.02
  endloop
endfacet
facet normal 0.99401 -0.109286 1.142e-16
  outer loop
    vertex 0.01315529330572067 0.0468899803005064 0
    vertex 0.01347749913732822 0.04982060406928808 0.01152305109117205
    vertex 0.012457180670571 0.04054029546814617 0.01025384184852867
  endloop
endfacet
facet normal 0.99401 -0.109286 7.74925e-17
  outer loop
    vertex 0.009288823326430169 0.01172249507512662 0.02
    vertex 0.008966617494822627 0.008791871306344956 0.008476948908827966
    vertex 0.009986935961579842 0.01807217990748685 0.009746158151471326
  endloop
endfacet
facet normal 0.99401 -0.109286 4.32458e-17
  outer loop
    vertex 0.01315529330572067 0.0468899803005064 0
    vertex 0.01385238379422246 0.05323036819604053 0.004999999999999991
    vertex 0.01347749913732822 0.04982060406928808 0.01152305109117205
  endloop
endfacet
facet normal 0.99401 -0.109286 2.88305e-17
  outer loop
    vertex 0.009288823326430169 0.01172249507512662 0.02
    vertex 0.008591732837928377 0.005382107179592484 0.01500000000000001
    vertex 0.008966617494822627 0.008791871306344956 0.008476948908827966
  endloop
endfacet
facet normal 0.99401 -0.109286 -6.13165e-17
  outer loop
    vertex 0.009986935961579842 0.01807217990748685 0.009746158151471326
    vertex 0.008966617494822627 0.008791871306344956 0.008476948908827966
    vertex 0.009288823326430167 0.0117224950751266 0
  endloop
endfacet
facet normal 0.99401 -0.109286 -7.15359e-17
  outer loop
    vertex 0.012457180670571 0.04054029546814617 0.01025384184852867
    vertex 0.01347749913732822 0.04982060406928808 0.01152305109117205
    vertex 0.01315529330572067 0.04688998030050642 0.02
  endloop
endfacet
facet normal 0.99401 -0.109286 0
  outer loop
    vertex 0.01444411663215084 0.05861247537563302 0.009999999999999972
    vertex 0.01385238379422246 0.05323036819604053 0.004999999999999991
    vertex 0.01444411663215084 0.05861247537563302 0
  endloop
endfacet
facet normal 0.99401 -0.109286 0
  outer loop
    vertex 0.008 0 0.01000000000000003
    vertex 0.008591732837928377 0.005382107179592484 0.01500000000000001
    vertex 0.008 0 0.02
  endloop
endfacet
facet normal 0.99401 -0.109286 -4.84288e-17
  outer loop
    vertex 0.01347749913732822 0.04982060406928808 0.01152305109117205
    vertex 0.01385238379422246 0.05323036819604053 0.004999999999999991
    vertex 0.01444411663215084 0.05861247537563302 0.009999999999999972
  endloop
endfacet
facet normal 0.99401 -0.109286 -1.53358e-16
  outer loop
    vertex 0.008966617494822627 0.008791871306344956 0.008476948908827966
    vertex 0.008591732837928377 0.005382107179592484 0.01500000000000001
    vertex 0.008 0 0.01000000000000003
  endloop
endfacet
endsolid Created by Gmsh
