solid Created by Gmsh
facet normal 0.99898 -0.0451488 -1.85e-16
  outer loop
    vertex 0.009475122905900489 0.03263913966745954 0.02
    vertex 0.009772982999980188 0.03922970725551776 0.009489847883744251
    vertex 0.009966830541200651 0.04351885288994605 0.02
  endloop
endfacet
facet normal 0.99898 -0.0451488 1.76399e-16
  outer loop
    vertex 0.008983415270600325 0.02175942644497301 0
    vertex 0.008685204378626667 0.01516109696710205 0.01036124577869931
    vertex 0.008491707635300163 0.01087971322248651 0
  endloop
endfacet
facet normal 0.99898 -0.0451488 -1.71628e-16
  outer loop
    vertex 0.009475122905900489 0.03263913966745954 0.02
    vertex 0.009229210621934747 0.02719798940791416 0.009975182277073927
    vertex 0.009772982999980188 0.03922970725551776 0.009489847883744251
  endloop
endfacet
facet normal 0.99898 -0.0451488 -1.47407e-16
  outer loop
    vertex 0.008983415270600327 0.02175942644497304 0.02
    vertex 0.009229210621934747 0.02719798940791416 0.009975182277073927
    vertex 0.009475122905900489 0.03263913966745954 0.02
  endloop
endfacet
facet normal 0.99898 -0.0451488 1.40255e-16
  outer loop
    vertex 0.008983415270600325 0.02175942644497301 0
    vertex 0.009229210621934747 0.02719798940791416 0.009975182277073927
    vertex 0.008685204378626667 0.01516109696710205 0.01036124577869931
  endloop
endfacet
facet normal 0.99898 -0.0451488 -1.78414e-16
  outer loop
    vertex 0.008685204378626667 0.01516109696710205 0.01036124577869931
    vertex 0.009229210621934747 0.02719798940791416 0.009975182277073927
    vertex 0.008983415270600327 0.02175942644497304 0.02
  endloop
endfacet
facet normal 0.99898 -0.0451488 0
  outer loop
    vertex 0.008 0 0
    vertex 0.008349451179135724 0.007732091880036731 0.007795404013901731
    vertex 0.008 0 0.01000000000000003
  endloop
endfacet
facet normal 0.99898 -0.0451488 0
  outer loop
    vertex 0.01045853817650081 0.05439856611243256 0.02
    vertex 0.0101181968474768 0.04686804229764416 0.01229553820187433
    vertex 0.01045853817650081 0.05439856611243256 0.009999999999999972
  endloop
endfacet
facet normal 0.99898 -0.0451488 8.23105e-17
  outer loop
    vertex 0.008491707635300163 0.01087971322248651 0
    vertex 0.008349451179135724 0.007732091880036731 0.007795404013901731
    vertex 0.008 0 0
  endloop
endfacet
facet normal 0.99898 -0.0451488 -1.56469e-16
  outer loop
    vertex 0.009966830541200651 0.04351885288994605 0.02
    vertex 0.0101181968474768 0.04686804229764416 0.01229553820187433
    vertex 0.01045853817650081 0.05439856611243256 0.02
  endloop
endfacet
facet normal 0.99898 -0.0451488 1.05257e-16
  outer loop
    vertex 0.009475122905900487 0.03263913966745952 0
    vertex 0.009229210621934747 0.02719798940791416 0.009975182277073927
    vertex 0.008983415270600325 0.02175942644497301 0
  endloop
endfacet
facet normal 0.99898 -0.0451488 1.29761e-16
  outer loop
    vertex 0.009772982999980188 0.03922970725551776 0.009489847883744251
    vertex 0.009229210621934747 0.02719798940791416 0.009975182277073927
    vertex 0.009475122905900487 0.03263913966745952 0
  endloop
endfacet
facet normal 0.99898 -0.0451488 1.92596e-16
  outer loop
    vertex 0.00996683054120065 0.04351885288994601 0
    vertex 0.009772982999980188 0.03922970725551776 0.009489847883744251
    vertex 0.009475122905900487 0.03263913966745952 0
  endloop
endfacet
facet normal 0.99898 -0.0451488 -1.9769e-16
  outer loop
    vertex 0.008491707635300164 0.01087971322248655 0.02
    vertex 0.008685204378626667 0.01516109696710205 0.01036124577869931
    vertex 0.008983415270600327 0.02175942644497304 0.02
  endloop
endfacet
facet normal 0.99898 -0.0451488 3.02805e-16
  outer loop
    vertex 0.00996683054120065 0.04351885288994601 0
    vertex 0.01018326241470844 0.048307708191192 0.005692386335267193
    vertex 0.009772982999980188 0.03922970725551776 0.009489847883744251
  endloop
endfacet
facet normal 0.99898 -0.0451488 -1.7437e-16
  outer loop
    vertex 0.008491707635300164 0.01087971322248655 0.02
    vertex 0.008276169542630912 0.006110634061591125 0.01430169895842869
    vertex 0.008685204378626667 0.01516109696710205 0.01036124577869931
  endloop
endfacet
facet normal 0.99898 -0.0451488 9.6713e-17
  outer loop
    vertex 0.008685204378626667 0.01516109696710205 0.01036124577869931
    vertex 0.008276169542630912 0.006110634061591125 0.01430169895842869
    vertex 0.008349451179135724 0.007732091880036731 0.007795404013901731
  endloop
endfacet
facet normal 0.99898 -0.0451488 -2.01926e-16
  outer loop
    vertex 0.009772982999980188 0.03922970725551776 0.009489847883744251
    vertex 0.01018326241470844 0.048307708191192 0.005692386335267193
    vertex 0.0101181968474768 0.04686804229764416 0.01229553820187433
  endloop
endfacet
facet normal 0.99898 -0.0451488 -1.70484e-16
  outer loop
    vertex 0.009772982999980188 0.03922970725551776 0.009489847883744251
    vertex 0.0101181968474768 0.04686804229764416 0.01229553820187433
    vertex 0.009966830541200651 0.04351885288994605 0.02
  endloop
endfacet
facet normal 0.99898 -0.0451488 1.21819e-16
  outer loop
    vertex 0.008685204378626667 0.01516109696710205 0.01036124577869931
    vertex 0.008349451179135724 0.007732091880036731 0.007795404013901731
    vertex 0.008491707635300163 0.01087971322248651 0
  endloop
endfacet
facet normal 0.99898 -0.0451488 -1.84259e-16
  outer loop
    vertex 0.008 0 0.02
    vertex 0.008276169542630912 0.006110634061591125 0.01430169895842869
    vertex 0.008491707635300164 0.01087971322248655 0.02
  endloop
endfacet
facet normal 0.99898 -0.0451488 4.50878e-16
  outer loop
    vertex 0.01045853817650081 0.05439856611243256 0
    vertex 0.01018326241470844 0.048307708191192 0.005692386335267193
    vertex 0.00996683054120065 0.04351885288994601 0
  endloop
endfacet
facet normal 0.99898 -0.0451488 0
  outer loop
    vertex 0.01045853817650081 0.05439856611243256 0.009999999999999972
    vertex 0.01018326241470844 0.048307708191192 0.005692386335267193
    vertex 0.01045853817650081 0.05439856611243256 0
  endloop
endfacet
facet normal 0.99898 -0.0451488 0
  outer loop
    vertex 0.008 0 0.01000000000000003
    vertex 0.008276169542630912 0.006110634061591125 0.01430169895842869
    vertex 0.008 0 0.02
  endloop
endfacet
facet normal 0.99898 -0.0451488 9.95864e-17
  outer loop
    vertex 0.008349451179135724 0.007732091880036731 0.007795404013901731
    vertex 0.008276169542630912 0.006110634061591125 0.01430169895842869
    vertex 0.008 0 0.01000000000000003
  endloop
endfacet
facet normal 0.99898 -0.0451488 -2.43805e-16
  outer loop
    vertex 0.0101181968474768 0.04686804229764416 0.01229553820187433
    vertex 0.01018326241470844 0.048307708191192 0.005692386335267193
    vertex 0.01045853817650081 0.05439856611243256 0.009999999999999972
  endloop
endfacet
endsolid Created by Gmsh
