solid Created by Gmsh
facet normal -0.713029 0.701135 0
  outer loop
    vertex 0.02990700448893661 0.04210076780528203 0
    vertex 0.02990700448893661 0.04210076780528203 0.01000000000000003
    vertex 0.03286403931756864 0.04510796550565932 0.005000000000000001
  endloop
endfacet
facet normal -0.713029 0.701135 0
  outer loop
    vertex 0.03582107414620068 0.04811516320603661 0.02
    vertex 0.03582107414620068 0.04811516320603661 0.009999999999999972
    vertex 0.03286403931756864 0.04510796550565932 0.015
  endloop
endfacet
facet normal -0.713029 0.701135 0
  outer loop
    vertex 0.03582107414620068 0.04811516320603661 0.009999999999999972
    vertex 0.03582107414620068 0.04811516320603661 0
    vertex 0.03286403931756864 0.04510796550565932 0.005000000000000001
  endloop
endfacet
facet normal -0.713029 0.701135 0
  outer loop
    vertex 0.02990700448893661 0.04210076780528203 0.01000000000000003
    vertex 0.02990700448893661 0.04210076780528203 0.02
    vertex 0.03286403931756864 0.04510796550565932 0.015
  endloop
endfacet
facet normal -0.713029 0.701135 -2.41005e-16
  outer loop
    vertex 0.03582107414620068 0.04811516320603661 0
    vertex 0.02990700448893661 0.04210076780528203 0
    vertex 0.03286403931756864 0.04510796550565932 0.005000000000000001
  endloop
endfacet
facet normal -0.713029 0.701135 2.41005e-16
  outer loop
    vertex 0.02990700448893661 0.04210076780528203 0.01000000000000003
    vertex 0.03582107414620068 0.04811516320603661 0.009999999999999972
    vertex 0.03286403931756864 0.04510796550565932 0.005000000000000001
  endloop
endfacet
facet normal -0.713029 0.701135 2.41005e-16
  outer loop
    vertex 0.02990700448893661 0.04210076780528203 0.02
    vertex 0.03582107414620068 0.04811516320603661 0.02
    vertex 0.03286403931756864 0.04510796550565932 0.015
  endloop
endfacet
facet normal -0.713029 0.701135 -2.41005e-16
  outer loop
    vertex 0.03582107414620068 0.04811516320603661 0.009999999999999972
    vertex 0.02990700448893661 0.04210076780528203 0.01000000000000003
    vertex 0.03286403931756864 0.04510796550565932 0.015
  endloop
endfacet
facet normal -0.547203 -0.837 -5.02541e-16
  outer loop
    vertex 0.02990700448893661 0.04210076780528203 0
    vertex 0.03910660904938196 0.03608637240452746 0
    vertex 0.03450680676915928 0.03909357010490475 0.005520616409829227
  endloop
endfacet
facet normal -0.547203 -0.837 8.41701e-16
  outer loop
    vertex 0.03910660904938196 0.03608637240452746 0.02
    vertex 0.02990700448893661 0.04210076780528203 0.02
    vertex 0.03450680676915927 0.03909357010490475 0.0145064877347891
  endloop
endfacet
facet normal -0.547203 -0.837 0
  outer loop
    vertex 0.03910660904938196 0.03608637240452746 0
    vertex 0.03910660904938196 0.03608637240452746 0.01000000000000003
    vertex 0.03450680676915928 0.03909357010490475 0.005520616409829227
  endloop
endfacet
facet normal -0.547203 -0.837 -0
  outer loop
    vertex 0.02990700448893661 0.04210076780528203 0.02
    vertex 0.02990700448893661 0.04210076780528203 0.009999999999999972
    vertex 0.03450680676915927 0.03909357010490475 0.0145064877347891
  endloop
endfacet
facet normal -0.547203 -0.837 -1.98769e-16
  outer loop
    vertex 0.03450680676915928 0.03909357010490475 0.005520616409829227
    vertex 0.03910660904938196 0.03608637240452746 0.01000000000000003
    vertex 0.03450680676915927 0.03909357010490475 0.0145064877347891
  endloop
endfacet
facet normal -0.547203 -0.837 -2.0583e-16
  outer loop
    vertex 0.02990700448893661 0.04210076780528203 0.009999999999999972
    vertex 0.03450680676915928 0.03909357010490475 0.005520616409829227
    vertex 0.03450680676915927 0.03909357010490475 0.0145064877347891
  endloop
endfacet
facet normal -0.547203 -0.837 0
  outer loop
    vertex 0.03910660904938196 0.03608637240452746 0.01000000000000003
    vertex 0.03910660904938196 0.03608637240452746 0.02
    vertex 0.03450680676915927 0.03909357010490475 0.0145064877347891
  endloop
endfacet
facet normal -0.547203 -0.837 -0
  outer loop
    vertex 0.02990700448893661 0.04210076780528203 0.009999999999999972
    vertex 0.02990700448893661 0.04210076780528203 0
    vertex 0.03450680676915928 0.03909357010490475 0.005520616409829227
  endloop
endfacet
facet normal -0.751769 0.659427 0
  outer loop
    vertex 0.03383098148282952 0.03007197700377288 0
    vertex 0.03383098148282952 0.03007197700377288 0.01000000000000003
    vertex 0.03646879526610574 0.03307917470415016 0.005000000000000001
  endloop
endfacet
facet normal -0.751769 0.659427 0
  outer loop
    vertex 0.03910660904938196 0.03608637240452746 0.02
    vertex 0.03910660904938196 0.03608637240452746 0.009999999999999972
    vertex 0.03646879526610574 0.03307917470415016 0.015
  endloop
endfacet
facet normal -0.751769 0.659427 0
  outer loop
    vertex 0.03910660904938196 0.03608637240452746 0.009999999999999972
    vertex 0.03910660904938196 0.03608637240452746 0
    vertex 0.03646879526610574 0.03307917470415016 0.005000000000000001
  endloop
endfacet
facet normal -0.751769 0.659427 0
  outer loop
    vertex 0.03383098148282952 0.03007197700377288 0.01000000000000003
    vertex 0.03383098148282952 0.03007197700377288 0.02
    vertex 0.03646879526610574 0.03307917470415016 0.015
  endloop
endfacet
facet normal -0.751769 0.659427 -4.23499e-16
  outer loop
    vertex 0.03383098148282952 0.03007197700377288 0.01000000000000003
    vertex 0.03910660904938196 0.03608637240452746 0.009999999999999972
    vertex 0.03646879526610574 0.03307917470415016 0.005000000000000001
  endloop
endfacet
facet normal -0.751769 0.659427 4.23499e-16
  outer loop
    vertex 0.03910660904938196 0.03608637240452746 0.009999999999999972
    vertex 0.03383098148282952 0.03007197700377288 0.01000000000000003
    vertex 0.03646879526610574 0.03307917470415016 0.015
  endloop
endfacet
facet normal -0.751769 0.659427 4.23499e-16
  outer loop
    vertex 0.03910660904938196 0.03608637240452746 0
    vertex 0.03383098148282952 0.03007197700377288 0
    vertex 0.03646879526610574 0.03307917470415016 0.005000000000000001
  endloop
endfacet
facet normal -0.751769 0.659427 -4.23499e-16
  outer loop
    vertex 0.03383098148282952 0.03007197700377288 0.02
    vertex 0.03910660904938196 0.03608637240452746 0.02
    vertex 0.03646879526610574 0.03307917470415016 0.015
  endloop
endfacet
facet normal -0.972318 -0.23366 0
  outer loop
    vertex 0.03527631507247393 0.0240575816030183 0.01000000000000003
    vertex 0.03383098148282952 0.03007197700377288 0.009999999999999972
    vertex 0.03455364827765173 0.02706477930339559 0.005
  endloop
endfacet
facet normal -0.972318 -0.23366 0
  outer loop
    vertex 0.03383098148282952 0.03007197700377288 0.009999999999999972
    vertex 0.03527631507247393 0.0240575816030183 0.01000000000000003
    vertex 0.03455364827765173 0.02706477930339559 0.015
  endloop
endfacet
facet normal -0.972318 -0.23366 0
  outer loop
    vertex 0.03527631507247393 0.0240575816030183 0.02
    vertex 0.03383098148282952 0.03007197700377288 0.02
    vertex 0.03455364827765173 0.02706477930339559 0.015
  endloop
endfacet
facet normal -0.972318 -0.23366 0
  outer loop
    vertex 0.03383098148282952 0.03007197700377288 0
    vertex 0.03527631507247393 0.0240575816030183 0
    vertex 0.03455364827765173 0.02706477930339559 0.005
  endloop
endfacet
facet normal -0.972318 -0.23366 -0
  outer loop
    vertex 0.03383098148282952 0.03007197700377288 0.009999999999999972
    vertex 0.03383098148282952 0.03007197700377288 0
    vertex 0.03455364827765173 0.02706477930339559 0.005
  endloop
endfacet
facet normal -0.972318 -0.23366 -0
  outer loop
    vertex 0.03383098148282952 0.03007197700377288 0.02
    vertex 0.03383098148282952 0.03007197700377288 0.009999999999999972
    vertex 0.03455364827765173 0.02706477930339559 0.015
  endloop
endfacet
facet normal -0.972318 -0.23366 0
  outer loop
    vertex 0.03527631507247393 0.0240575816030183 0
    vertex 0.03527631507247393 0.0240575816030183 0.01000000000000003
    vertex 0.03455364827765173 0.02706477930339559 0.005
  endloop
endfacet
facet normal -0.972318 -0.23366 0
  outer loop
    vertex 0.03527631507247393 0.0240575816030183 0.01000000000000003
    vertex 0.03527631507247393 0.0240575816030183 0.02
    vertex 0.03455364827765173 0.02706477930339559 0.015
  endloop
endfacet
facet normal -0.459991 -0.887924 -3.10956e-16
  outer loop
    vertex 0.04688594879109656 0.01804318620226373 0.01000000000000003
    vertex 0.04108113193178525 0.02105038390264101 0.02
    vertex 0.03527631507247393 0.0240575816030183 0.009999999999999972
  endloop
endfacet
facet normal -0.459991 -0.887924 -2.85043e-16
  outer loop
    vertex 0.04108113193178524 0.02105038390264102 0
    vertex 0.04688594879109656 0.01804318620226373 0.01000000000000003
    vertex 0.03527631507247393 0.0240575816030183 0.009999999999999972
  endloop
endfacet
facet normal -0.459991 -0.887924 0
  outer loop
    vertex 0.04108113193178524 0.02105038390264102 0
    vertex 0.03527631507247393 0.0240575816030183 0.009999999999999972
    vertex 0.03527631507247393 0.0240575816030183 0
  endloop
endfacet
facet normal -0.459991 -0.887924 0
  outer loop
    vertex 0.03527631507247393 0.0240575816030183 0.009999999999999972
    vertex 0.04108113193178525 0.02105038390264101 0.02
    vertex 0.03527631507247393 0.0240575816030183 0.02
  endloop
endfacet
facet normal -0.459991 -0.887924 -0
  outer loop
    vertex 0.04688594879109656 0.01804318620226373 0.01000000000000003
    vertex 0.04108113193178524 0.02105038390264102 0
    vertex 0.04688594879109656 0.01804318620226373 0
  endloop
endfacet
facet normal -0.459991 -0.887924 0
  outer loop
    vertex 0.04108113193178525 0.02105038390264101 0.02
    vertex 0.04688594879109656 0.01804318620226373 0.01000000000000003
    vertex 0.04688594879109656 0.01804318620226373 0.02
  endloop
endfacet
facet normal -0.36693 0.930249 -1.95981e-17
  outer loop
    vertex 0.03926203902527601 0.01503598850188644 0
    vertex 0.03163812925945543 0.01202879080150915 0
    vertex 0.03977049353999668 0.01523654481674071 0.007910409523418383
  endloop
endfacet
facet normal -0.36693 0.930249 0
  outer loop
    vertex 0.03163812925945543 0.01202879080150915 0
    vertex 0.03163812925945543 0.01202879080150915 0.01000000000000003
    vertex 0.03977049353999668 0.01523654481674071 0.007910409523418383
  endloop
endfacet
facet normal -0.36693 0.930249 0
  outer loop
    vertex 0.04688594879109656 0.01804318620226373 0
    vertex 0.03926203902527601 0.01503598850188644 0
    vertex 0.03977049353999668 0.01523654481674071 0.007910409523418383
  endloop
endfacet
facet normal -0.36693 0.930249 0
  outer loop
    vertex 0.04688594879109656 0.01804318620226373 0.009999999999999972
    vertex 0.04688594879109656 0.01804318620226373 0
    vertex 0.03977049353999668 0.01523654481674071 0.007910409523418383
  endloop
endfacet
facet normal -0.36693 0.930249 0
  outer loop
    vertex 0.03163812925945543 0.01202879080150915 0.01000000000000003
    vertex 0.03163812925945543 0.01202879080150915 0.02
    vertex 0.03685417412294245 0.01408622309023649 0.01445182638509598
  endloop
endfacet
facet normal -0.36693 0.930249 0
  outer loop
    vertex 0.04688594879109656 0.01804318620226373 0.02
    vertex 0.04688594879109656 0.01804318620226373 0.009999999999999972
    vertex 0.04196207953052873 0.01610100052953701 0.01434872240206151
  endloop
endfacet
facet normal -0.36693 0.930249 7.45129e-17
  outer loop
    vertex 0.03163812925945543 0.01202879080150915 0.02
    vertex 0.03926203902527598 0.01503598850188643 0.02
    vertex 0.03685417412294245 0.01408622309023649 0.01445182638509598
  endloop
endfacet
facet normal -0.36693 0.930249 0
  outer loop
    vertex 0.03926203902527598 0.01503598850188643 0.02
    vertex 0.04688594879109656 0.01804318620226373 0.02
    vertex 0.04196207953052873 0.01610100052953701 0.01434872240206151
  endloop
endfacet
facet normal -0.36693 0.930249 -1.00369e-16
  outer loop
    vertex 0.03977049353999668 0.01523654481674071 0.007910409523418383
    vertex 0.03163812925945543 0.01202879080150915 0.01000000000000003
    vertex 0.03685417412294245 0.01408622309023649 0.01445182638509598
  endloop
endfacet
facet normal -0.36693 0.930249 -5.73305e-17
  outer loop
    vertex 0.04196207953052873 0.01610100052953701 0.01434872240206151
    vertex 0.04688594879109656 0.01804318620226373 0.009999999999999972
    vertex 0.03977049353999668 0.01523654481674071 0.007910409523418383
  endloop
endfacet
facet normal -0.36693 0.930249 -7.13891e-17
  outer loop
    vertex 0.04196207953052873 0.01610100052953701 0.01434872240206151
    vertex 0.03977049353999668 0.01523654481674071 0.007910409523418383
    vertex 0.03685417412294245 0.01408622309023649 0.01445182638509598
  endloop
endfacet
facet normal -0.36693 0.930249 2.75625e-17
  outer loop
    vertex 0.03926203902527598 0.01503598850188643 0.02
    vertex 0.04196207953052873 0.01610100052953701 0.01434872240206151
    vertex 0.03685417412294245 0.01408622309023649 0.01445182638509598
  endloop
endfacet
facet normal -0.801131 -0.59849 -0
  outer loop
    vertex 0.03163812925945543 0.01202879080150915 0.02
    vertex 0.03163812925945543 0.01202879080150915 0.009999999999999972
    vertex 0.03388467565498197 0.009021593101131859 0.015
  endloop
endfacet
facet normal -0.801131 -0.59849 0
  outer loop
    vertex 0.03613122205050853 0.006014395400754574 0
    vertex 0.03613122205050853 0.006014395400754574 0.01000000000000003
    vertex 0.03388467565498197 0.009021593101131859 0.005000000000000001
  endloop
endfacet
facet normal -0.801131 -0.59849 -0
  outer loop
    vertex 0.03163812925945543 0.01202879080150915 0.009999999999999972
    vertex 0.03163812925945543 0.01202879080150915 0
    vertex 0.03388467565498197 0.009021593101131859 0.005000000000000001
  endloop
endfacet
facet normal -0.801131 -0.59849 0
  outer loop
    vertex 0.03613122205050853 0.006014395400754574 0.01000000000000003
    vertex 0.03613122205050853 0.006014395400754574 0.02
    vertex 0.03388467565498197 0.009021593101131859 0.015
  endloop
endfacet
facet normal -0.801131 -0.59849 -1.30879e-15
  outer loop
    vertex 0.03163812925945543 0.01202879080150915 0.009999999999999972
    vertex 0.03613122205050853 0.006014395400754574 0.01000000000000003
    vertex 0.03388467565498197 0.009021593101131859 0.015
  endloop
endfacet
facet normal -0.801131 -0.59849 1.30879e-15
  outer loop
    vertex 0.03613122205050853 0.006014395400754574 0.01000000000000003
    vertex 0.03163812925945543 0.01202879080150915 0.009999999999999972
    vertex 0.03388467565498197 0.009021593101131859 0.005000000000000001
  endloop
endfacet
facet normal -0.801131 -0.59849 -1.30879e-15
  outer loop
    vertex 0.03163812925945543 0.01202879080150915 0
    vertex 0.03613122205050853 0.006014395400754574 0
    vertex 0.03388467565498197 0.009021593101131859 0.005000000000000001
  endloop
endfacet
facet normal -0.801131 -0.59849 1.30879e-15
  outer loop
    vertex 0.03613122205050853 0.006014395400754574 0.02
    vertex 0.03163812925945543 0.01202879080150915 0.02
    vertex 0.03388467565498197 0.009021593101131859 0.015
  endloop
endfacet
endsolid Created by Gmsh
