solid Created by Gmsh
facet normal 0.995762 -0.0919684 0
  outer loop
    vertex 0.01342443395889362 0.05873154391797726 0.02
    vertex 0.01261076886505958 0.04992181233028067 0.01152118126523631
    vertex 0.01342443395889362 0.05873154391797726 0.009999999999999972
  endloop
endfacet
facet normal 0.995762 -0.0919684 0
  outer loop
    vertex 0.008 0 0
    vertex 0.008813665093834043 0.00880973158769658 0.00847881873476369
    vertex 0.008 0 0.01000000000000003
  endloop
endfacet
facet normal 0.995762 -0.0919684 -5.08125e-17
  outer loop
    vertex 0.009084886791778723 0.01174630878359543 0
    vertex 0.008813665093834043 0.00880973158769658 0.00847881873476369
    vertex 0.008 0 0
  endloop
endfacet
facet normal 0.995762 -0.0919684 1.27031e-17
  outer loop
    vertex 0.0123395471671149 0.04698523513438183 0.02
    vertex 0.01261076886505958 0.04992181233028067 0.01152118126523631
    vertex 0.01342443395889362 0.05873154391797726 0.02
  endloop
endfacet
facet normal 0.995762 -0.0919684 9.11176e-17
  outer loop
    vertex 0.01125466037533617 0.03523892635078637 0.02
    vertex 0.01071221697944681 0.02936577195898863 0.01
    vertex 0.01175190015490142 0.04062265120993427 0.01025353021087272
  endloop
endfacet
facet normal 0.995762 -0.0919684 -1.05044e-16
  outer loop
    vertex 0.009084886791778726 0.01174630878359545 0.02
    vertex 0.0096725338039922 0.01810889270804298 0.00974646978912728
    vertex 0.01016977358355745 0.02349261756719092 0.02
  endloop
endfacet
facet normal 0.995762 -0.0919684 -1.40059e-16
  outer loop
    vertex 0.0123395471671149 0.04698523513438181 0
    vertex 0.01175190015490142 0.04062265120993427 0.01025353021087272
    vertex 0.01125466037533617 0.03523892635078634 0
  endloop
endfacet
facet normal 0.995762 -0.0919684 6.63055e-17
  outer loop
    vertex 0.01016977358355745 0.02349261756719089 0
    vertex 0.0096725338039922 0.01810889270804298 0.00974646978912728
    vertex 0.009084886791778723 0.01174630878359543 0
  endloop
endfacet
facet normal 0.995762 -0.0919684 7.39487e-18
  outer loop
    vertex 0.0096725338039922 0.01810889270804298 0.00974646978912728
    vertex 0.01071221697944681 0.02936577195898863 0.01
    vertex 0.01016977358355745 0.02349261756719092 0.02
  endloop
endfacet
facet normal 0.995762 -0.0919684 8.84073e-17
  outer loop
    vertex 0.01125466037533617 0.03523892635078637 0.02
    vertex 0.01175190015490142 0.04062265120993427 0.01025353021087272
    vertex 0.0123395471671149 0.04698523513438183 0.02
  endloop
endfacet
facet normal 0.995762 -0.0919684 -7.39487e-18
  outer loop
    vertex 0.01175190015490142 0.04062265120993427 0.01025353021087272
    vertex 0.01071221697944681 0.02936577195898863 0.01
    vertex 0.01125466037533617 0.03523892635078634 0
  endloop
endfacet
facet normal 0.995762 -0.0919684 4.3083e-17
  outer loop
    vertex 0.01016977358355745 0.02349261756719092 0.02
    vertex 0.01071221697944681 0.02936577195898863 0.01
    vertex 0.01125466037533617 0.03523892635078637 0.02
  endloop
endfacet
facet normal 0.995762 -0.0919684 7.59313e-17
  outer loop
    vertex 0.01016977358355745 0.02349261756719089 0
    vertex 0.01071221697944681 0.02936577195898863 0.01
    vertex 0.0096725338039922 0.01810889270804298 0.00974646978912728
  endloop
endfacet
facet normal 0.995762 -0.0919684 4.3083e-17
  outer loop
    vertex 0.01125466037533617 0.03523892635078634 0
    vertex 0.01071221697944681 0.02936577195898863 0.01
    vertex 0.01016977358355745 0.02349261756719089 0
  endloop
endfacet
facet normal 0.995762 -0.0919684 -4.02108e-16
  outer loop
    vertex 0.01342443395889362 0.05873154391797726 0
    vertex 0.01292650959838749 0.05334040694986099 0.004999999999999986
    vertex 0.0123395471671149 0.04698523513438181 0
  endloop
endfacet
facet normal 0.995762 -0.0919684 -3.44664e-16
  outer loop
    vertex 0.008 0 0.02
    vertex 0.008497924360506132 0.005391136968116269 0.01500000000000002
    vertex 0.009084886791778726 0.01174630878359545 0.02
  endloop
endfacet
facet normal 0.995762 -0.0919684 -1.54963e-16
  outer loop
    vertex 0.009084886791778726 0.01174630878359545 0.02
    vertex 0.008813665093834043 0.00880973158769658 0.00847881873476369
    vertex 0.0096725338039922 0.01810889270804298 0.00974646978912728
  endloop
endfacet
facet normal 0.995762 -0.0919684 -2.01859e-16
  outer loop
    vertex 0.0123395471671149 0.04698523513438181 0
    vertex 0.01261076886505958 0.04992181233028067 0.01152118126523631
    vertex 0.01175190015490142 0.04062265120993427 0.01025353021087272
  endloop
endfacet
facet normal 0.995762 -0.0919684 -3.24201e-17
  outer loop
    vertex 0.009084886791778726 0.01174630878359545 0.02
    vertex 0.008497924360506132 0.005391136968116269 0.01500000000000002
    vertex 0.008813665093834043 0.00880973158769658 0.00847881873476369
  endloop
endfacet
facet normal 0.995762 -0.0919684 -8.64535e-17
  outer loop
    vertex 0.0123395471671149 0.04698523513438181 0
    vertex 0.01292650959838749 0.05334040694986099 0.004999999999999986
    vertex 0.01261076886505958 0.04992181233028067 0.01152118126523631
  endloop
endfacet
facet normal 0.995762 -0.0919684 -3.06452e-17
  outer loop
    vertex 0.0096725338039922 0.01810889270804298 0.00974646978912728
    vertex 0.008813665093834043 0.00880973158769658 0.00847881873476369
    vertex 0.009084886791778723 0.01174630878359543 0
  endloop
endfacet
facet normal 0.995762 -0.0919684 1.02151e-17
  outer loop
    vertex 0.01175190015490142 0.04062265120993427 0.01025353021087272
    vertex 0.01261076886505958 0.04992181233028067 0.01152118126523631
    vertex 0.0123395471671149 0.04698523513438183 0.02
  endloop
endfacet
facet normal 0.995762 -0.0919684 0
  outer loop
    vertex 0.01342443395889362 0.05873154391797726 0.009999999999999972
    vertex 0.01292650959838749 0.05334040694986099 0.004999999999999986
    vertex 0.01342443395889362 0.05873154391797726 0
  endloop
endfacet
facet normal 0.995762 -0.0919684 0
  outer loop
    vertex 0.008 0 0.01000000000000003
    vertex 0.008497924360506132 0.005391136968116269 0.01500000000000002
    vertex 0.008 0 0.02
  endloop
endfacet
facet normal 0.995762 -0.0919684 1.61426e-16
  outer loop
    vertex 0.01261076886505958 0.04992181233028067 0.01152118126523631
    vertex 0.01292650959838749 0.05334040694986099 0.004999999999999986
    vertex 0.01342443395889362 0.05873154391797726 0.009999999999999972
  endloop
endfacet
facet normal 0.995762 -0.0919684 1.69497e-16
  outer loop
    vertex 0.008813665093834043 0.00880973158769658 0.00847881873476369
    vertex 0.008497924360506132 0.005391136968116269 0.01500000000000002
    vertex 0.008 0 0.01000000000000003
  endloop
endfacet
endsolid Created by Gmsh
