solid Created by Gmsh
facet normal -0.194108 0.98098 4.83942e-16
  outer loop
    vertex 0.02952413564611131 0.043125 0
    vertex 0.02004827129222265 0.04125 0
    vertex 0.02478620346916699 0.0421875 0.01050937296198628
  endloop
endfacet
facet normal -0.194108 0.98098 7.46412e-16
  outer loop
    vertex 0.02478620346916699 0.0421875 0.01050937296198628
    vertex 0.02004827129222265 0.04125 0
    vertex 0.01760023123010875 0.04076560354337703 0.007492686110394881
  endloop
endfacet
facet normal -0.194108 0.98098 3.46064e-16
  outer loop
    vertex 0.02952413564611131 0.043125 0
    vertex 0.02478620346916699 0.0421875 0.01050937296198628
    vertex 0.03197217570822521 0.04360939645662296 0.00749268611039487
  endloop
endfacet
facet normal -0.194108 0.98098 -2.40226e-16
  outer loop
    vertex 0.02004827129222266 0.04125 0.02
    vertex 0.02952413564611132 0.043125 0.02
    vertex 0.02478620346916699 0.0421875 0.01050937296198628
  endloop
endfacet
facet normal -0.194108 0.98098 2.5747e-16
  outer loop
    vertex 0.039 0.045 0
    vertex 0.02952413564611131 0.043125 0
    vertex 0.03197217570822521 0.04360939645662296 0.00749268611039487
  endloop
endfacet
facet normal -0.194108 0.98098 8.4263e-16
  outer loop
    vertex 0.02004827129222265 0.04125 0
    vertex 0.01057240693833397 0.039375 0
    vertex 0.01760023123010875 0.04076560354337703 0.007492686110394881
  endloop
endfacet
facet normal -0.194108 0.98098 0
  outer loop
    vertex 0.01057240693833397 0.039375 0
    vertex 0.01057240693833397 0.039375 0.01000000000000003
    vertex 0.01760023123010875 0.04076560354337703 0.007492686110394881
  endloop
endfacet
facet normal -0.194108 0.98098 0
  outer loop
    vertex 0.039 0.045 0.009999999999999972
    vertex 0.039 0.045 0
    vertex 0.03197217570822521 0.04360939645662296 0.00749268611039487
  endloop
endfacet
facet normal -0.194108 0.98098 -3.42042e-16
  outer loop
    vertex 0.02004827129222266 0.04125 0.02
    vertex 0.02478620346916699 0.0421875 0.01050937296198628
    vertex 0.01671590397363327 0.0405906207086754 0.01360041181447624
  endloop
endfacet
facet normal -0.194108 0.98098 -2.68269e-16
  outer loop
    vertex 0.02478620346916699 0.0421875 0.01050937296198628
    vertex 0.02952413564611132 0.043125 0.02
    vertex 0.0328565029647007 0.04378437929132459 0.01360041181447622
  endloop
endfacet
facet normal -0.194108 0.98098 0
  outer loop
    vertex 0.039 0.045 0.02
    vertex 0.039 0.045 0.009999999999999972
    vertex 0.0328565029647007 0.04378437929132459 0.01360041181447622
  endloop
endfacet
facet normal -0.194108 0.98098 0
  outer loop
    vertex 0.01057240693833397 0.039375 0.01000000000000003
    vertex 0.01057240693833397 0.039375 0.02
    vertex 0.01671590397363327 0.0405906207086754 0.01360041181447624
  endloop
endfacet
facet normal -0.194108 0.98098 -4.3847e-16
  outer loop
    vertex 0.01057240693833397 0.039375 0.02
    vertex 0.02004827129222266 0.04125 0.02
    vertex 0.01671590397363327 0.0405906207086754 0.01360041181447624
  endloop
endfacet
facet normal -0.194108 0.98098 -4.52172e-16
  outer loop
    vertex 0.02952413564611132 0.043125 0.02
    vertex 0.039 0.045 0.02
    vertex 0.0328565029647007 0.04378437929132459 0.01360041181447622
  endloop
endfacet
facet normal -0.194108 0.98098 4.86335e-16
  outer loop
    vertex 0.03197217570822521 0.04360939645662296 0.00749268611039487
    vertex 0.02478620346916699 0.0421875 0.01050937296198628
    vertex 0.0328565029647007 0.04378437929132459 0.01360041181447622
  endloop
endfacet
facet normal -0.194108 0.98098 -2.4986e-16
  outer loop
    vertex 0.02478620346916699 0.0421875 0.01050937296198628
    vertex 0.01760023123010875 0.04076560354337703 0.007492686110394881
    vertex 0.01671590397363327 0.0405906207086754 0.01360041181447624
  endloop
endfacet
facet normal -0.194108 0.98098 5.30723e-16
  outer loop
    vertex 0.039 0.045 0.009999999999999972
    vertex 0.03197217570822521 0.04360939645662296 0.00749268611039487
    vertex 0.0328565029647007 0.04378437929132459 0.01360041181447622
  endloop
endfacet
facet normal -0.194108 0.98098 -1.53093e-16
  outer loop
    vertex 0.01760023123010875 0.04076560354337703 0.007492686110394881
    vertex 0.01057240693833397 0.039375 0.01000000000000003
    vertex 0.01671590397363327 0.0405906207086754 0.01360041181447624
  endloop
endfacet
facet normal -0.215994 -0.976395 -3.7844e-16
  outer loop
    vertex 0.01057240693833397 0.039375 0
    vertex 0.01904827129222264 0.03750000000000001 0
    vertex 0.01690812994996958 0.0379734343129127 0.00721941642664624
  endloop
endfacet
facet normal -0.215994 -0.976395 -0
  outer loop
    vertex 0.01057240693833397 0.039375 0.009999999999999972
    vertex 0.01057240693833397 0.039375 0
    vertex 0.01690812994996958 0.0379734343129127 0.00721941642664624
  endloop
endfacet
facet normal -0.215994 -0.976395 -5.41311e-17
  outer loop
    vertex 0.02752413564611132 0.035625 0.02
    vertex 0.01904827129222265 0.0375 0.02
    vertex 0.02315915194648161 0.03659060587747617 0.01278967097608844
  endloop
endfacet
facet normal -0.215994 -0.976395 0
  outer loop
    vertex 0.03599999999999999 0.03375 0.01000000000000003
    vertex 0.03599999999999999 0.03375 0.02
    vertex 0.03040352827965462 0.03498803119511148 0.01395055561684001
  endloop
endfacet
facet normal -0.215994 -0.976395 0
  outer loop
    vertex 0.03599999999999999 0.03375 0
    vertex 0.03599999999999999 0.03375 0.01000000000000003
    vertex 0.0293343538056802 0.03522455009808121 0.006963107108111567
  endloop
endfacet
facet normal -0.215994 -0.976395 -0
  outer loop
    vertex 0.01057240693833397 0.039375 0.02
    vertex 0.01057240693833397 0.039375 0.009999999999999972
    vertex 0.01605207341306835 0.03816280803807777 0.01400181748054693
  endloop
endfacet
facet normal -0.215994 -0.976395 3.75428e-16
  outer loop
    vertex 0.02315915194648161 0.03659060587747617 0.01278967097608844
    vertex 0.01904827129222265 0.0375 0.02
    vertex 0.01605207341306835 0.03816280803807777 0.01400181748054693
  endloop
endfacet
facet normal -0.215994 -0.976395 -1.93556e-16
  outer loop
    vertex 0.03599999999999999 0.03375 0.02
    vertex 0.02752413564611132 0.035625 0.02
    vertex 0.03040352827965462 0.03498803119511148 0.01395055561684001
  endloop
endfacet
facet normal -0.215994 -0.976395 -9.87933e-16
  outer loop
    vertex 0.02752413564611131 0.035625 0
    vertex 0.03599999999999999 0.03375 0
    vertex 0.0293343538056802 0.03522455009808121 0.006963107108111567
  endloop
endfacet
facet normal -0.215994 -0.976395 -7.5208e-16
  outer loop
    vertex 0.01904827129222264 0.03750000000000001 0
    vertex 0.02328620346916697 0.0365625 0.005486480949054241
    vertex 0.01690812994996958 0.0379734343129127 0.00721941642664624
  endloop
endfacet
facet normal -0.215994 -0.976395 3.53662e-16
  outer loop
    vertex 0.02315915194648161 0.03659060587747617 0.01278967097608844
    vertex 0.02328620346916697 0.0365625 0.005486480949054241
    vertex 0.0293343538056802 0.03522455009808121 0.006963107108111567
  endloop
endfacet
facet normal -0.215994 -0.976395 -1.20936e-15
  outer loop
    vertex 0.01904827129222264 0.03750000000000001 0
    vertex 0.02752413564611131 0.035625 0
    vertex 0.02328620346916697 0.0365625 0.005486480949054241
  endloop
endfacet
facet normal -0.215994 -0.976395 7.03456e-16
  outer loop
    vertex 0.02315915194648161 0.03659060587747617 0.01278967097608844
    vertex 0.0293343538056802 0.03522455009808121 0.006963107108111567
    vertex 0.03040352827965462 0.03498803119511148 0.01395055561684001
  endloop
endfacet
facet normal -0.215994 -0.976395 -6.57557e-16
  outer loop
    vertex 0.01690812994996958 0.0379734343129127 0.00721941642664624
    vertex 0.02315915194648161 0.03659060587747617 0.01278967097608844
    vertex 0.01605207341306835 0.03816280803807777 0.01400181748054693
  endloop
endfacet
facet normal -0.215994 -0.976395 -2.98082e-16
  outer loop
    vertex 0.02752413564611132 0.035625 0.02
    vertex 0.02315915194648161 0.03659060587747617 0.01278967097608844
    vertex 0.03040352827965462 0.03498803119511148 0.01395055561684001
  endloop
endfacet
facet normal -0.215994 -0.976395 7.15772e-16
  outer loop
    vertex 0.01904827129222265 0.0375 0.02
    vertex 0.01057240693833397 0.039375 0.02
    vertex 0.01605207341306835 0.03816280803807777 0.01400181748054693
  endloop
endfacet
facet normal -0.215994 -0.976395 3.48984e-16
  outer loop
    vertex 0.02328620346916697 0.0365625 0.005486480949054241
    vertex 0.02315915194648161 0.03659060587747617 0.01278967097608844
    vertex 0.01690812994996958 0.0379734343129127 0.00721941642664624
  endloop
endfacet
facet normal -0.215994 -0.976395 -1.02748e-15
  outer loop
    vertex 0.02328620346916697 0.0365625 0.005486480949054241
    vertex 0.02752413564611131 0.035625 0
    vertex 0.0293343538056802 0.03522455009808121 0.006963107108111567
  endloop
endfacet
facet normal -0.215994 -0.976395 6.06027e-16
  outer loop
    vertex 0.0293343538056802 0.03522455009808121 0.006963107108111567
    vertex 0.03599999999999999 0.03375 0.01000000000000003
    vertex 0.03040352827965462 0.03498803119511148 0.01395055561684001
  endloop
endfacet
facet normal -0.215994 -0.976395 -7.74245e-16
  outer loop
    vertex 0.01057240693833397 0.039375 0.009999999999999972
    vertex 0.01690812994996958 0.0379734343129127 0.00721941642664624
    vertex 0.01605207341306835 0.03816280803807777 0.01400181748054693
  endloop
endfacet
facet normal -0.219646 0.97558 -5.29708e-17
  outer loop
    vertex 0.01934398368124887 0.03 0.02
    vertex 0.02767199184062443 0.031875 0.02
    vertex 0.02350798776093665 0.0309375 0.01250717732869398
  endloop
endfacet
facet normal -0.219646 0.97558 0
  outer loop
    vertex 0.03599999999999999 0.03375 0.02
    vertex 0.03599999999999999 0.03375 0.009999999999999972
    vertex 0.03020470842489615 0.03244522561753416 0.01357259849607641
  endloop
endfacet
facet normal -0.219646 0.97558 0
  outer loop
    vertex 0.0110159755218733 0.028125 0.01000000000000003
    vertex 0.0110159755218733 0.028125 0.02
    vertex 0.01681126709697716 0.02942977438246584 0.01357259849607642
  endloop
endfacet
facet normal -0.219646 0.97558 0
  outer loop
    vertex 0.0110159755218733 0.028125 0
    vertex 0.0110159755218733 0.028125 0.01000000000000003
    vertex 0.01753386289064098 0.02959246239707764 0.00692123022852514
  endloop
endfacet
facet normal -0.219646 0.97558 0
  outer loop
    vertex 0.03599999999999999 0.03375 0.009999999999999972
    vertex 0.03599999999999999 0.03375 0
    vertex 0.02948211263123231 0.03228253760292236 0.00692123022852513
  endloop
endfacet
facet normal -0.219646 0.97558 3.08757e-17
  outer loop
    vertex 0.02767199184062443 0.031875 0.02
    vertex 0.03599999999999999 0.03375 0.02
    vertex 0.03020470842489615 0.03244522561753416 0.01357259849607641
  endloop
endfacet
facet normal -0.219646 0.97558 0
  outer loop
    vertex 0.0110159755218733 0.028125 0.02
    vertex 0.01934398368124887 0.03 0.02
    vertex 0.01681126709697716 0.02942977438246584 0.01357259849607642
  endloop
endfacet
facet normal -0.219646 0.97558 1.14691e-16
  outer loop
    vertex 0.01934398368124886 0.03 0
    vertex 0.0110159755218733 0.028125 0
    vertex 0.01753386289064098 0.02959246239707764 0.00692123022852514
  endloop
endfacet
facet normal -0.219646 0.97558 6.30799e-16
  outer loop
    vertex 0.03599999999999999 0.03375 0
    vertex 0.02767199184062442 0.031875 0
    vertex 0.02948211263123231 0.03228253760292236 0.00692123022852513
  endloop
endfacet
facet normal -0.219646 0.97558 4.31782e-16
  outer loop
    vertex 0.02350798776093665 0.0309375 0.01250717732869398
    vertex 0.02350798776093664 0.0309375 0.005447605546380413
    vertex 0.01753386289064098 0.02959246239707764 0.00692123022852514
  endloop
endfacet
facet normal -0.219646 0.97558 4.31782e-16
  outer loop
    vertex 0.02350798776093664 0.0309375 0.005447605546380413
    vertex 0.02350798776093665 0.0309375 0.01250717732869398
    vertex 0.02948211263123231 0.03228253760292236 0.00692123022852513
  endloop
endfacet
facet normal -0.219646 0.97558 1.22709e-16
  outer loop
    vertex 0.01681126709697716 0.02942977438246584 0.01357259849607642
    vertex 0.02350798776093665 0.0309375 0.01250717732869398
    vertex 0.01753386289064098 0.02959246239707764 0.00692123022852514
  endloop
endfacet
facet normal -0.219646 0.97558 -4.15322e-16
  outer loop
    vertex 0.02350798776093665 0.0309375 0.01250717732869398
    vertex 0.03020470842489615 0.03244522561753416 0.01357259849607641
    vertex 0.02948211263123231 0.03228253760292236 0.00692123022852513
  endloop
endfacet
facet normal -0.219646 0.97558 -7.28578e-17
  outer loop
    vertex 0.02767199184062442 0.031875 0
    vertex 0.01934398368124886 0.03 0
    vertex 0.02350798776093664 0.0309375 0.005447605546380413
  endloop
endfacet
facet normal -0.219646 0.97558 1.80658e-17
  outer loop
    vertex 0.02350798776093665 0.0309375 0.01250717732869398
    vertex 0.02767199184062443 0.031875 0.02
    vertex 0.03020470842489615 0.03244522561753416 0.01357259849607641
  endloop
endfacet
facet normal -0.219646 0.97558 3.61317e-17
  outer loop
    vertex 0.01934398368124887 0.03 0.02
    vertex 0.02350798776093665 0.0309375 0.01250717732869398
    vertex 0.01681126709697716 0.02942977438246584 0.01357259849607642
  endloop
endfacet
facet normal -0.219646 0.97558 8.54529e-17
  outer loop
    vertex 0.02350798776093664 0.0309375 0.005447605546380413
    vertex 0.01934398368124886 0.03 0
    vertex 0.01753386289064098 0.02959246239707764 0.00692123022852514
  endloop
endfacet
facet normal -0.219646 0.97558 4.86014e-16
  outer loop
    vertex 0.02767199184062442 0.031875 0
    vertex 0.02350798776093664 0.0309375 0.005447605546380413
    vertex 0.02948211263123231 0.03228253760292236 0.00692123022852513
  endloop
endfacet
facet normal -0.219646 0.97558 -4.01841e-16
  outer loop
    vertex 0.03020470842489615 0.03244522561753416 0.01357259849607641
    vertex 0.03599999999999999 0.03375 0.009999999999999972
    vertex 0.02948211263123231 0.03228253760292236 0.00692123022852513
  endloop
endfacet
facet normal -0.219646 0.97558 1.20552e-16
  outer loop
    vertex 0.0110159755218733 0.028125 0.01000000000000003
    vertex 0.01681126709697716 0.02942977438246584 0.01357259849607642
    vertex 0.01753386289064098 0.02959246239707764 0.00692123022852514
  endloop
endfacet
facet normal -0.578141 -0.815937 -0
  outer loop
    vertex 0.0110159755218733 0.028125 0.02
    vertex 0.0110159755218733 0.028125 0.009999999999999972
    vertex 0.01498528318504796 0.0253125 0.015
  endloop
endfacet
facet normal -0.578141 -0.815937 0
  outer loop
    vertex 0.01895459084822262 0.0225 0
    vertex 0.01895459084822262 0.0225 0.01000000000000003
    vertex 0.01498528318504796 0.0253125 0.005
  endloop
endfacet
facet normal -0.578141 -0.815937 -0
  outer loop
    vertex 0.0110159755218733 0.028125 0.009999999999999972
    vertex 0.0110159755218733 0.028125 0
    vertex 0.01498528318504796 0.0253125 0.005
  endloop
endfacet
facet normal -0.578141 -0.815937 0
  outer loop
    vertex 0.01895459084822262 0.0225 0.01000000000000003
    vertex 0.01895459084822262 0.0225 0.02
    vertex 0.01498528318504796 0.0253125 0.015
  endloop
endfacet
facet normal -0.578141 -0.815937 7.66116e-16
  outer loop
    vertex 0.0110159755218733 0.028125 0.009999999999999972
    vertex 0.01895459084822262 0.0225 0.01000000000000003
    vertex 0.01498528318504796 0.0253125 0.015
  endloop
endfacet
facet normal -0.578141 -0.815937 -7.66116e-16
  outer loop
    vertex 0.01895459084822262 0.0225 0.01000000000000003
    vertex 0.0110159755218733 0.028125 0.009999999999999972
    vertex 0.01498528318504796 0.0253125 0.005
  endloop
endfacet
facet normal -0.578141 -0.815937 7.66116e-16
  outer loop
    vertex 0.0110159755218733 0.028125 0
    vertex 0.01895459084822262 0.0225 0
    vertex 0.01498528318504796 0.0253125 0.005
  endloop
endfacet
facet normal -0.578141 -0.815937 -7.66116e-16
  outer loop
    vertex 0.01895459084822262 0.0225 0.02
    vertex 0.0110159755218733 0.028125 0.02
    vertex 0.01498528318504796 0.0253125 0.015
  endloop
endfacet
facet normal -0.491957 0.870619 -5.17246e-16
  outer loop
    vertex 0.01895459084822262 0.0225 0
    vertex 0.009000000000000001 0.016875 0
    vertex 0.01397729542411131 0.0196875 0.005728862973760926
  endloop
endfacet
facet normal -0.491957 0.870619 5.22087e-16
  outer loop
    vertex 0.009000000000000001 0.016875 0.02
    vertex 0.01895459084822262 0.0225 0.02
    vertex 0.01397729542411131 0.0196875 0.01432426114969104
  endloop
endfacet
facet normal -0.491957 0.870619 0
  outer loop
    vertex 0.01397729542411131 0.0196875 0.005728862973760926
    vertex 0.009000000000000001 0.016875 0.01000000000000003
    vertex 0.01397729542411131 0.0196875 0.01432426114969104
  endloop
endfacet
facet normal -0.491957 0.870619 0
  outer loop
    vertex 0.01895459084822262 0.0225 0.009999999999999972
    vertex 0.01397729542411131 0.0196875 0.005728862973760926
    vertex 0.01397729542411131 0.0196875 0.01432426114969104
  endloop
endfacet
facet normal -0.491957 0.870619 0
  outer loop
    vertex 0.01895459084822262 0.0225 0.02
    vertex 0.01895459084822262 0.0225 0.009999999999999972
    vertex 0.01397729542411131 0.0196875 0.01432426114969104
  endloop
endfacet
facet normal -0.491957 0.870619 0
  outer loop
    vertex 0.009000000000000001 0.016875 0
    vertex 0.009000000000000001 0.016875 0.01000000000000003
    vertex 0.01397729542411131 0.0196875 0.005728862973760926
  endloop
endfacet
facet normal -0.491957 0.870619 0
  outer loop
    vertex 0.01895459084822262 0.0225 0.009999999999999972
    vertex 0.01895459084822262 0.0225 0
    vertex 0.01397729542411131 0.0196875 0.005728862973760926
  endloop
endfacet
facet normal -0.491957 0.870619 0
  outer loop
    vertex 0.009000000000000001 0.016875 0.01000000000000003
    vertex 0.009000000000000001 0.016875 0.02
    vertex 0.01397729542411131 0.0196875 0.01432426114969104
  endloop
endfacet
facet normal -0.258478 -0.966017 -0
  outer loop
    vertex 0.009000000000000001 0.016875 0.009999999999999972
    vertex 0.009000000000000001 0.016875 0
    vertex 0.01708759708448396 0.01471099876714477 0.008189873201333232
  endloop
endfacet
facet normal -0.258478 -0.966017 -3.80201e-16
  outer loop
    vertex 0.009000000000000001 0.016875 0
    vertex 0.01951125408560838 0.01406250000000001 0
    vertex 0.01708759708448396 0.01471099876714477 0.008189873201333232
  endloop
endfacet
facet normal -0.258478 -0.966017 3.38022e-16
  outer loop
    vertex 0.03002250817121684 0.01125 0.02
    vertex 0.01951125408560846 0.01406249999999999 0.02
    vertex 0.02289612803282771 0.0131568080721844 0.01263054877166209
  endloop
endfacet
facet normal -0.258478 -0.966017 0
  outer loop
    vertex 0.03002250817121684 0.01125 0.01000000000000003
    vertex 0.03002250817121684 0.01125 0.02
    vertex 0.02289612803282771 0.0131568080721844 0.01263054877166209
  endloop
endfacet
facet normal -0.258478 -0.966017 5.91622e-16
  outer loop
    vertex 0.01951125408560846 0.01406249999999999 0.02
    vertex 0.009000000000000001 0.016875 0.02
    vertex 0.01425562704280423 0.01546874999999999 0.01499999999999999
  endloop
endfacet
facet normal -0.258478 -0.966017 -5.6177e-16
  outer loop
    vertex 0.01951125408560838 0.01406250000000001 0
    vertex 0.03002250817121684 0.01125 0
    vertex 0.02395618505304234 0.01287316823767258 0.006097117684809877
  endloop
endfacet
facet normal -0.258478 -0.966017 -0
  outer loop
    vertex 0.009000000000000001 0.016875 0.02
    vertex 0.009000000000000001 0.016875 0.009999999999999972
    vertex 0.01425562704280423 0.01546874999999999 0.01499999999999999
  endloop
endfacet
facet normal -0.258478 -0.966017 0
  outer loop
    vertex 0.03002250817121684 0.01125 0
    vertex 0.03002250817121684 0.01125 0.01000000000000003
    vertex 0.02395618505304234 0.01287316823767258 0.006097117684809877
  endloop
endfacet
facet normal -0.258478 -0.966017 4.11657e-16
  outer loop
    vertex 0.02289612803282771 0.0131568080721844 0.01263054877166209
    vertex 0.01951125408560846 0.01406249999999999 0.02
    vertex 0.01425562704280423 0.01546874999999999 0.01499999999999999
  endloop
endfacet
facet normal -0.258478 -0.966017 1.56955e-17
  outer loop
    vertex 0.01708759708448396 0.01471099876714477 0.008189873201333232
    vertex 0.02289612803282771 0.0131568080721844 0.01263054877166209
    vertex 0.01425562704280423 0.01546874999999999 0.01499999999999999
  endloop
endfacet
facet normal -0.258478 -0.966017 -4.39654e-16
  outer loop
    vertex 0.01951125408560838 0.01406250000000001 0
    vertex 0.02395618505304234 0.01287316823767258 0.006097117684809877
    vertex 0.01708759708448396 0.01471099876714477 0.008189873201333232
  endloop
endfacet
facet normal -0.258478 -0.966017 -1.63809e-16
  outer loop
    vertex 0.009000000000000001 0.016875 0.009999999999999972
    vertex 0.01708759708448396 0.01471099876714477 0.008189873201333232
    vertex 0.01425562704280423 0.01546874999999999 0.01499999999999999
  endloop
endfacet
facet normal -0.258478 -0.966017 7.67282e-17
  outer loop
    vertex 0.01708759708448396 0.01471099876714477 0.008189873201333232
    vertex 0.02395618505304234 0.01287316823767258 0.006097117684809877
    vertex 0.02289612803282771 0.0131568080721844 0.01263054877166209
  endloop
endfacet
facet normal -0.258478 -0.966017 1.54224e-16
  outer loop
    vertex 0.02395618505304234 0.01287316823767258 0.006097117684809877
    vertex 0.03002250817121684 0.01125 0.01000000000000003
    vertex 0.02289612803282771 0.0131568080721844 0.01263054877166209
  endloop
endfacet
facet normal -0.995849 -0.0910243 0
  outer loop
    vertex 0.03053665407164123 0.005624999999999998 0.01000000000000003
    vertex 0.03002250817121684 0.01125 0.009999999999999972
    vertex 0.03027958112142904 0.008437499999999997 0.005
  endloop
endfacet
facet normal -0.995849 -0.0910243 0
  outer loop
    vertex 0.03002250817121684 0.01125 0.009999999999999972
    vertex 0.03053665407164123 0.005624999999999998 0.01000000000000003
    vertex 0.03027958112142904 0.008437499999999997 0.015
  endloop
endfacet
facet normal -0.995849 -0.0910243 0
  outer loop
    vertex 0.03053665407164123 0.005624999999999998 0.02
    vertex 0.03002250817121684 0.01125 0.02
    vertex 0.03027958112142904 0.008437499999999997 0.015
  endloop
endfacet
facet normal -0.995849 -0.0910243 0
  outer loop
    vertex 0.03002250817121684 0.01125 0
    vertex 0.03053665407164123 0.005624999999999998 0
    vertex 0.03027958112142904 0.008437499999999997 0.005
  endloop
endfacet
facet normal -0.995849 -0.0910243 -0
  outer loop
    vertex 0.03002250817121684 0.01125 0.009999999999999972
    vertex 0.03002250817121684 0.01125 0
    vertex 0.03027958112142904 0.008437499999999997 0.005
  endloop
endfacet
facet normal -0.995849 -0.0910243 -0
  outer loop
    vertex 0.03002250817121684 0.01125 0.02
    vertex 0.03002250817121684 0.01125 0.009999999999999972
    vertex 0.03027958112142904 0.008437499999999997 0.015
  endloop
endfacet
facet normal -0.995849 -0.0910243 0
  outer loop
    vertex 0.03053665407164123 0.005624999999999998 0
    vertex 0.03053665407164123 0.005624999999999998 0.01000000000000003
    vertex 0.03027958112142904 0.008437499999999997 0.005
  endloop
endfacet
facet normal -0.995849 -0.0910243 0
  outer loop
    vertex 0.03053665407164123 0.005624999999999998 0.01000000000000003
    vertex 0.03053665407164123 0.005624999999999998 0.02
    vertex 0.03027958112142904 0.008437499999999997 0.015
  endloop
endfacet
endsolid Created by Gmsh
