solid Created by Gmsh
facet normal 1 0 0
  outer loop
    vertex 0.04 0.06 0.02
    vertex 0.04 0.056 0.015
    vertex 0.04 0.06 0.009999999999999972
  endloop
endfacet
facet normal 1 0 0
  outer loop
    vertex 0.04 0.052 0
    vertex 0.04 0.05599999999999999 0.005
    vertex 0.04 0.052 0.01000000000000003
  endloop
endfacet
facet normal 1 0 0
  outer loop
    vertex 0.04 0.06 0.009999999999999972
    vertex 0.04 0.05599999999999999 0.005
    vertex 0.04 0.06 0
  endloop
endfacet
facet normal 1 0 0
  outer loop
    vertex 0.04 0.052 0.01000000000000003
    vertex 0.04 0.056 0.015
    vertex 0.04 0.052 0.02
  endloop
endfacet
facet normal 1 0 0
  outer loop
    vertex 0.04 0.06 0
    vertex 0.04 0.05599999999999999 0.005
    vertex 0.04 0.052 0
  endloop
endfacet
facet normal 1 0 0
  outer loop
    vertex 0.04 0.06 0.009999999999999972
    vertex 0.04 0.056 0.015
    vertex 0.04 0.052 0.01000000000000003
  endloop
endfacet
facet normal 1 -0 0
  outer loop
    vertex 0.04 0.052 0.02
    vertex 0.04 0.056 0.015
    vertex 0.04 0.06 0.02
  endloop
endfacet
facet normal 1 0 0
  outer loop
    vertex 0.04 0.052 0.01000000000000003
    vertex 0.04 0.05599999999999999 0.005
    vertex 0.04 0.06 0.009999999999999972
  endloop
endfacet
facet normal 0.879392 0.476099 -2.20024e-15
  outer loop
    vertex 0.04 0.052 0.009999999999999972
    vertex 0.04175953560515792 0.04875 0.015
    vertex 0.04351907121031581 0.0455 0.01000000000000003
  endloop
endfacet
facet normal 0.879392 0.476099 -2.20024e-15
  outer loop
    vertex 0.04 0.052 0
    vertex 0.04175953560515792 0.04875 0.005000000000000001
    vertex 0.04351907121031581 0.0455 0
  endloop
endfacet
facet normal 0.879392 0.476099 2.1544e-15
  outer loop
    vertex 0.04351907121031581 0.0455 0.02
    vertex 0.04175953560515792 0.04875 0.015
    vertex 0.04 0.052 0.02
  endloop
endfacet
facet normal 0.879392 0.476099 2.1544e-15
  outer loop
    vertex 0.04351907121031581 0.0455 0.01000000000000003
    vertex 0.04175953560515792 0.04875 0.005000000000000001
    vertex 0.04 0.052 0.009999999999999972
  endloop
endfacet
facet normal 0.879392 0.476099 0
  outer loop
    vertex 0.04 0.052 0.009999999999999972
    vertex 0.04175953560515792 0.04875 0.005000000000000001
    vertex 0.04 0.052 0
  endloop
endfacet
facet normal 0.879392 0.476099 0
  outer loop
    vertex 0.04 0.052 0.02
    vertex 0.04175953560515792 0.04875 0.015
    vertex 0.04 0.052 0.009999999999999972
  endloop
endfacet
facet normal 0.879392 0.476099 -0
  outer loop
    vertex 0.04351907121031581 0.0455 0
    vertex 0.04175953560515792 0.04875 0.005000000000000001
    vertex 0.04351907121031581 0.0455 0.01000000000000003
  endloop
endfacet
facet normal 0.879392 0.476099 -0
  outer loop
    vertex 0.04351907121031581 0.0455 0.01000000000000003
    vertex 0.04175953560515792 0.04875 0.015
    vertex 0.04351907121031581 0.0455 0.02
  endloop
endfacet
facet normal 0.565457 0.824778 5.14491e-16
  outer loop
    vertex 0.04351907121031581 0.0455 0
    vertex 0.0482595356051579 0.04225 0.005728862973760926
    vertex 0.05299999999999999 0.039 0
  endloop
endfacet
facet normal 0.565457 0.824778 -4.15445e-16
  outer loop
    vertex 0.05299999999999999 0.039 0.02
    vertex 0.0482595356051579 0.04225 0.01432426114969104
    vertex 0.04351907121031581 0.0455 0.02
  endloop
endfacet
facet normal 0.565457 0.824778 0
  outer loop
    vertex 0.04351907121031581 0.0455 0.009999999999999972
    vertex 0.0482595356051579 0.04225 0.01432426114969104
    vertex 0.0482595356051579 0.04225 0.005728862973760926
  endloop
endfacet
facet normal 0.565457 0.824778 -0
  outer loop
    vertex 0.0482595356051579 0.04225 0.005728862973760926
    vertex 0.0482595356051579 0.04225 0.01432426114969104
    vertex 0.05299999999999999 0.039 0.01000000000000003
  endloop
endfacet
facet normal 0.565457 0.824778 0
  outer loop
    vertex 0.04351907121031581 0.0455 0.02
    vertex 0.0482595356051579 0.04225 0.01432426114969104
    vertex 0.04351907121031581 0.0455 0.009999999999999972
  endloop
endfacet
facet normal 0.565457 0.824778 -0
  outer loop
    vertex 0.05299999999999999 0.039 0
    vertex 0.0482595356051579 0.04225 0.005728862973760926
    vertex 0.05299999999999999 0.039 0.01000000000000003
  endloop
endfacet
facet normal 0.565457 0.824778 0
  outer loop
    vertex 0.04351907121031581 0.0455 0.009999999999999972
    vertex 0.0482595356051579 0.04225 0.005728862973760926
    vertex 0.04351907121031581 0.0455 0
  endloop
endfacet
facet normal 0.565457 0.824778 -0
  outer loop
    vertex 0.05299999999999999 0.039 0.01000000000000003
    vertex 0.0482595356051579 0.04225 0.01432426114969104
    vertex 0.05299999999999999 0.039 0.02
  endloop
endfacet
facet normal 0.778821 -0.627247 0
  outer loop
    vertex 0.05299999999999999 0.039 0.02
    vertex 0.05038251500279017 0.03575 0.015
    vertex 0.05299999999999999 0.039 0.009999999999999972
  endloop
endfacet
facet normal 0.778821 -0.627247 0
  outer loop
    vertex 0.04776503000558034 0.0325 0
    vertex 0.05038251500279017 0.03575 0.005
    vertex 0.04776503000558034 0.0325 0.01000000000000003
  endloop
endfacet
facet normal 0.778821 -0.627247 0
  outer loop
    vertex 0.05299999999999999 0.039 0.009999999999999972
    vertex 0.05038251500279017 0.03575 0.005
    vertex 0.05299999999999999 0.039 0
  endloop
endfacet
facet normal 0.778821 -0.627247 0
  outer loop
    vertex 0.04776503000558034 0.0325 0.01000000000000003
    vertex 0.05038251500279017 0.03575 0.015
    vertex 0.04776503000558034 0.0325 0.02
  endloop
endfacet
facet normal 0.778821 -0.627247 -1.46146e-15
  outer loop
    vertex 0.05299999999999999 0.039 0.009999999999999972
    vertex 0.05038251500279017 0.03575 0.015
    vertex 0.04776503000558034 0.0325 0.01000000000000003
  endloop
endfacet
facet normal 0.778821 -0.627247 1.46146e-15
  outer loop
    vertex 0.04776503000558034 0.0325 0.01000000000000003
    vertex 0.05038251500279017 0.03575 0.005
    vertex 0.05299999999999999 0.039 0.009999999999999972
  endloop
endfacet
facet normal 0.778821 -0.627247 1.46146e-15
  outer loop
    vertex 0.04776503000558034 0.0325 0.02
    vertex 0.05038251500279017 0.03575 0.015
    vertex 0.05299999999999999 0.039 0.02
  endloop
endfacet
facet normal 0.778821 -0.627247 -1.46146e-15
  outer loop
    vertex 0.05299999999999999 0.039 0
    vertex 0.05038251500279017 0.03575 0.005
    vertex 0.04776503000558034 0.0325 0
  endloop
endfacet
facet normal 0.769192 -0.639018 0
  outer loop
    vertex 0.04236506097891199 0.026 0
    vertex 0.04506504549224617 0.02925000000000001 0.005
    vertex 0.04236506097891199 0.026 0.01000000000000003
  endloop
endfacet
facet normal 0.769192 -0.639018 0
  outer loop
    vertex 0.04776503000558034 0.0325 0.02
    vertex 0.04506504549224617 0.02925 0.015
    vertex 0.04776503000558034 0.0325 0.009999999999999972
  endloop
endfacet
facet normal 0.769192 -0.639018 0
  outer loop
    vertex 0.04236506097891199 0.026 0.01000000000000003
    vertex 0.04506504549224617 0.02925 0.015
    vertex 0.04236506097891199 0.026 0.02
  endloop
endfacet
facet normal 0.769192 -0.639018 0
  outer loop
    vertex 0.04776503000558034 0.0325 0.009999999999999972
    vertex 0.04506504549224617 0.02925000000000001 0.005
    vertex 0.04776503000558034 0.0325 0
  endloop
endfacet
facet normal 0.769192 -0.639018 1.60377e-16
  outer loop
    vertex 0.04776503000558034 0.0325 0.009999999999999972
    vertex 0.04506504549224617 0.02925 0.015
    vertex 0.04236506097891199 0.026 0.01000000000000003
  endloop
endfacet
facet normal 0.769192 -0.639018 6.41508e-16
  outer loop
    vertex 0.04776503000558034 0.0325 0
    vertex 0.04506504549224617 0.02925000000000001 0.005
    vertex 0.04236506097891199 0.026 0
  endloop
endfacet
facet normal 0.769192 -0.639018 -7.21696e-16
  outer loop
    vertex 0.04236506097891199 0.026 0.01000000000000003
    vertex 0.04506504549224617 0.02925000000000001 0.005
    vertex 0.04776503000558034 0.0325 0.009999999999999972
  endloop
endfacet
facet normal 0.769192 -0.639018 -2.40565e-16
  outer loop
    vertex 0.04236506097891199 0.026 0.02
    vertex 0.04506504549224617 0.02925 0.015
    vertex 0.04776503000558034 0.0325 0.02
  endloop
endfacet
facet normal 0.570188 -0.821514 7.78194e-16
  outer loop
    vertex 0.04236506097891199 0.026 0
    vertex 0.037682530489456 0.02275 0.005728862973760926
    vertex 0.033 0.0195 0
  endloop
endfacet
facet normal 0.570188 -0.821514 -7.33112e-16
  outer loop
    vertex 0.033 0.0195 0.02
    vertex 0.037682530489456 0.02275 0.01432426114969104
    vertex 0.04236506097891199 0.026 0.02
  endloop
endfacet
facet normal 0.570188 -0.821514 0
  outer loop
    vertex 0.04236506097891199 0.026 0.009999999999999972
    vertex 0.037682530489456 0.02275 0.01432426114969104
    vertex 0.037682530489456 0.02275 0.005728862973760926
  endloop
endfacet
facet normal 0.570188 -0.821514 0
  outer loop
    vertex 0.037682530489456 0.02275 0.005728862973760926
    vertex 0.037682530489456 0.02275 0.01432426114969104
    vertex 0.033 0.0195 0.01000000000000003
  endloop
endfacet
facet normal 0.570188 -0.821514 0
  outer loop
    vertex 0.04236506097891199 0.026 0.02
    vertex 0.037682530489456 0.02275 0.01432426114969104
    vertex 0.04236506097891199 0.026 0.009999999999999972
  endloop
endfacet
facet normal 0.570188 -0.821514 0
  outer loop
    vertex 0.033 0.0195 0
    vertex 0.037682530489456 0.02275 0.005728862973760926
    vertex 0.033 0.0195 0.01000000000000003
  endloop
endfacet
facet normal 0.570188 -0.821514 0
  outer loop
    vertex 0.04236506097891199 0.026 0.009999999999999972
    vertex 0.037682530489456 0.02275 0.005728862973760926
    vertex 0.04236506097891199 0.026 0
  endloop
endfacet
facet normal 0.570188 -0.821514 0
  outer loop
    vertex 0.033 0.0195 0.01000000000000003
    vertex 0.037682530489456 0.02275 0.01432426114969104
    vertex 0.033 0.0195 0.02
  endloop
endfacet
facet normal 0.868889 -0.495008 0
  outer loop
    vertex 0.033 0.0195 0.02
    vertex 0.0311484673381716 0.01625 0.015
    vertex 0.033 0.0195 0.009999999999999972
  endloop
endfacet
facet normal 0.868889 -0.495008 0
  outer loop
    vertex 0.02929693467634321 0.013 0
    vertex 0.0311484673381716 0.01625 0.005000000000000001
    vertex 0.02929693467634321 0.013 0.01000000000000003
  endloop
endfacet
facet normal 0.868889 -0.495008 0
  outer loop
    vertex 0.033 0.0195 0.009999999999999972
    vertex 0.0311484673381716 0.01625 0.005000000000000001
    vertex 0.033 0.0195 0
  endloop
endfacet
facet normal 0.868889 -0.495008 0
  outer loop
    vertex 0.02929693467634321 0.013 0.01000000000000003
    vertex 0.0311484673381716 0.01625 0.015
    vertex 0.02929693467634321 0.013 0.02
  endloop
endfacet
facet normal 0.868889 -0.495008 5.88782e-16
  outer loop
    vertex 0.033 0.0195 0
    vertex 0.0311484673381716 0.01625 0.005000000000000001
    vertex 0.02929693467634321 0.013 0
  endloop
endfacet
facet normal 0.868889 -0.495008 -5.88782e-16
  outer loop
    vertex 0.02929693467634321 0.013 0.02
    vertex 0.0311484673381716 0.01625 0.015
    vertex 0.033 0.0195 0.02
  endloop
endfacet
facet normal 0.868889 -0.495008 -5.88782e-16
  outer loop
    vertex 0.02929693467634321 0.013 0.01000000000000003
    vertex 0.0311484673381716 0.01625 0.005000000000000001
    vertex 0.033 0.0195 0.009999999999999972
  endloop
endfacet
facet normal 0.868889 -0.495008 5.88782e-16
  outer loop
    vertex 0.033 0.0195 0.009999999999999972
    vertex 0.0311484673381716 0.01625 0.015
    vertex 0.02929693467634321 0.013 0.01000000000000003
  endloop
endfacet
facet normal 0.98067 -0.195671 0
  outer loop
    vertex 0.028 0.006499999999999999 0.01000000000000003
    vertex 0.0286484673381716 0.009749999999999998 0.005
    vertex 0.02929693467634321 0.013 0.009999999999999972
  endloop
endfacet
facet normal 0.98067 -0.195671 0
  outer loop
    vertex 0.02929693467634321 0.013 0.009999999999999972
    vertex 0.0286484673381716 0.009749999999999998 0.015
    vertex 0.028 0.006499999999999999 0.01000000000000003
  endloop
endfacet
facet normal 0.98067 -0.195671 0
  outer loop
    vertex 0.02929693467634321 0.013 0
    vertex 0.0286484673381716 0.009749999999999998 0.005
    vertex 0.028 0.006499999999999999 0
  endloop
endfacet
facet normal 0.98067 -0.195671 0
  outer loop
    vertex 0.028 0.006499999999999999 0.02
    vertex 0.0286484673381716 0.009749999999999998 0.015
    vertex 0.02929693467634321 0.013 0.02
  endloop
endfacet
facet normal 0.98067 -0.195671 0
  outer loop
    vertex 0.02929693467634321 0.013 0.009999999999999972
    vertex 0.0286484673381716 0.009749999999999998 0.005
    vertex 0.02929693467634321 0.013 0
  endloop
endfacet
facet normal 0.98067 -0.195671 0
  outer loop
    vertex 0.02929693467634321 0.013 0.02
    vertex 0.0286484673381716 0.009749999999999998 0.015
    vertex 0.02929693467634321 0.013 0.009999999999999972
  endloop
endfacet
facet normal 0.98067 -0.195671 0
  outer loop
    vertex 0.028 0.006499999999999999 0
    vertex 0.0286484673381716 0.009749999999999998 0.005
    vertex 0.028 0.006499999999999999 0.01000000000000003
  endloop
endfacet
facet normal 0.98067 -0.195671 0
  outer loop
    vertex 0.028 0.006499999999999999 0.01000000000000003
    vertex 0.0286484673381716 0.009749999999999998 0.015
    vertex 0.028 0.006499999999999999 0.02
  endloop
endfacet
endsolid Created by Gmsh
