solid Created by Gmsh
facet normal 1 0 0
  outer loop
    vertex 0.04 0.05662231783557501 0
    vertex 0.04 0.06 0
    vertex 0.04 0.06 0.009999999999999972
  endloop
endfacet
facet normal 1 0 0
  outer loop
    vertex 0.04 0.05662231783557501 0.01000000000000003
    vertex 0.04 0.06 0.02
    vertex 0.04 0.05662231783557501 0.02
  endloop
endfacet
facet normal 1 0 -0
  outer loop
    vertex 0.04 0.06 0.009999999999999972
    vertex 0.04 0.06 0.02
    vertex 0.04 0.05662231783557501 0.01000000000000003
  endloop
endfacet
facet normal 1 0 0
  outer loop
    vertex 0.04 0.05662231783557501 0
    vertex 0.04 0.06 0.009999999999999972
    vertex 0.04 0.05662231783557501 0.01000000000000003
  endloop
endfacet
facet normal 0.671773 0.740757 6.40753e-16
  outer loop
    vertex 0.04 0.05662231783557501 0
    vertex 0.04390230170281684 0.05308342297085156 0.005520616409829249
    vertex 0.04780460340563365 0.04954452810612813 0
  endloop
endfacet
facet normal 0.671773 0.740757 -4.09763e-16
  outer loop
    vertex 0.04780460340563365 0.04954452810612813 0.02
    vertex 0.04390230170281682 0.05308342297085157 0.01450648773478912
    vertex 0.04 0.05662231783557501 0.02
  endloop
endfacet
facet normal 0.671773 0.740757 0
  outer loop
    vertex 0.04 0.05662231783557501 0.02
    vertex 0.04390230170281682 0.05308342297085157 0.01450648773478912
    vertex 0.04 0.05662231783557501 0.009999999999999972
  endloop
endfacet
facet normal 0.671773 0.740757 -0
  outer loop
    vertex 0.04780460340563365 0.04954452810612813 0
    vertex 0.04390230170281684 0.05308342297085156 0.005520616409829249
    vertex 0.04780460340563365 0.04954452810612813 0.01000000000000003
  endloop
endfacet
facet normal 0.671773 0.740757 -1.07361e-16
  outer loop
    vertex 0.04 0.05662231783557501 0.009999999999999972
    vertex 0.04390230170281682 0.05308342297085157 0.01450648773478912
    vertex 0.04390230170281684 0.05308342297085156 0.005520616409829249
  endloop
endfacet
facet normal 0.671773 0.740757 -1.06539e-16
  outer loop
    vertex 0.04390230170281684 0.05308342297085156 0.005520616409829249
    vertex 0.04390230170281682 0.05308342297085157 0.01450648773478912
    vertex 0.04780460340563365 0.04954452810612813 0.01000000000000003
  endloop
endfacet
facet normal 0.671773 0.740757 0
  outer loop
    vertex 0.04 0.05662231783557501 0.009999999999999972
    vertex 0.04390230170281684 0.05308342297085156 0.005520616409829249
    vertex 0.04 0.05662231783557501 0
  endloop
endfacet
facet normal 0.671773 0.740757 -0
  outer loop
    vertex 0.04780460340563365 0.04954452810612813 0.01000000000000003
    vertex 0.04390230170281682 0.05308342297085157 0.01450648773478912
    vertex 0.04780460340563365 0.04954452810612813 0.02
  endloop
endfacet
facet normal 0.329096 -0.944296 0
  outer loop
    vertex 0.04780460340563365 0.04954452810612813 0.02
    vertex 0.04001719939435946 0.04683054487026173 0.01191368327834861
    vertex 0.04780460340563365 0.04954452810612813 0.009999999999999972
  endloop
endfacet
facet normal 0.329096 -0.944296 0
  outer loop
    vertex 0.03765022820507089 0.0460056332414047 0.02
    vertex 0.04001719939435946 0.04683054487026173 0.01191368327834861
    vertex 0.04780460340563365 0.04954452810612813 0.02
  endloop
endfacet
facet normal 0.329096 -0.944296 -8.07111e-16
  outer loop
    vertex 0.03765022820507088 0.04600563324140469 0
    vertex 0.03441052435297147 0.04487656610541941 0.007417131214316849
    vertex 0.02749585300450811 0.04246673837668126 0
  endloop
endfacet
facet normal 0.329096 -0.944296 0
  outer loop
    vertex 0.02749585300450811 0.04246673837668126 0
    vertex 0.03441052435297147 0.04487656610541941 0.007417131214316849
    vertex 0.02749585300450811 0.04246673837668126 0.01000000000000003
  endloop
endfacet
facet normal 0.329096 -0.944296 -3.78091e-16
  outer loop
    vertex 0.04780460340563365 0.04954452810612813 0
    vertex 0.04272741580535226 0.04777508067376641 0.004999999999999987
    vertex 0.03765022820507088 0.04600563324140469 0
  endloop
endfacet
facet normal 0.329096 -0.944296 7.79375e-16
  outer loop
    vertex 0.02749585300450811 0.04246673837668126 0.02
    vertex 0.03337009560413182 0.04451396694164465 0.01393598549997757
    vertex 0.03765022820507089 0.0460056332414047 0.02
  endloop
endfacet
facet normal 0.329096 -0.944296 0
  outer loop
    vertex 0.04780460340563365 0.04954452810612813 0.009999999999999972
    vertex 0.04272741580535226 0.04777508067376641 0.004999999999999987
    vertex 0.04780460340563365 0.04954452810612813 0
  endloop
endfacet
facet normal 0.329096 -0.944296 0
  outer loop
    vertex 0.02749585300450811 0.04246673837668126 0.01000000000000003
    vertex 0.03337009560413182 0.04451396694164465 0.01393598549997757
    vertex 0.02749585300450811 0.04246673837668126 0.02
  endloop
endfacet
facet normal 0.329096 -0.944296 -5.94058e-16
  outer loop
    vertex 0.03765022820507088 0.04600563324140469 0
    vertex 0.04272741580535226 0.04777508067376641 0.004999999999999987
    vertex 0.03441052435297147 0.04487656610541941 0.007417131214316849
  endloop
endfacet
facet normal 0.329096 -0.944296 6.90752e-16
  outer loop
    vertex 0.03441052435297147 0.04487656610541941 0.007417131214316849
    vertex 0.04272741580535226 0.04777508067376641 0.004999999999999987
    vertex 0.04001719939435946 0.04683054487026173 0.01191368327834861
  endloop
endfacet
facet normal 0.329096 -0.944296 2.61368e-16
  outer loop
    vertex 0.03337009560413182 0.04451396694164465 0.01393598549997757
    vertex 0.04001719939435946 0.04683054487026173 0.01191368327834861
    vertex 0.03765022820507089 0.0460056332414047 0.02
  endloop
endfacet
facet normal 0.329096 -0.944296 5.09635e-16
  outer loop
    vertex 0.04001719939435946 0.04683054487026173 0.01191368327834861
    vertex 0.04272741580535226 0.04777508067376641 0.004999999999999987
    vertex 0.04780460340563365 0.04954452810612813 0.009999999999999972
  endloop
endfacet
facet normal 0.329096 -0.944296 5.52926e-16
  outer loop
    vertex 0.03337009560413182 0.04451396694164465 0.01393598549997757
    vertex 0.03441052435297147 0.04487656610541941 0.007417131214316849
    vertex 0.04001719939435946 0.04683054487026173 0.01191368327834861
  endloop
endfacet
facet normal 0.329096 -0.944296 2.64173e-16
  outer loop
    vertex 0.02749585300450811 0.04246673837668126 0.01000000000000003
    vertex 0.03441052435297147 0.04487656610541941 0.007417131214316849
    vertex 0.03337009560413182 0.04451396694164465 0.01393598549997757
  endloop
endfacet
facet normal 0.685196 0.728359 -2.62402e-16
  outer loop
    vertex 0.02749585300450811 0.04246673837668126 0
    vertex 0.03125767926054585 0.03892784351195782 0.004999999999999985
    vertex 0.03501950551658359 0.03538894864723438 0
  endloop
endfacet
facet normal 0.685196 0.728359 -7.21606e-16
  outer loop
    vertex 0.03501950551658359 0.03538894864723438 0.02
    vertex 0.03125767926054585 0.03892784351195782 0.01500000000000001
    vertex 0.02749585300450811 0.04246673837668126 0.02
  endloop
endfacet
facet normal 0.685196 0.728359 4.92004e-16
  outer loop
    vertex 0.02749585300450811 0.04246673837668126 0.009999999999999972
    vertex 0.03125767926054585 0.03892784351195782 0.01500000000000001
    vertex 0.03125767926054585 0.03892784351195782 0.004999999999999985
  endloop
endfacet
facet normal 0.685196 0.728359 4.7545e-16
  outer loop
    vertex 0.03125767926054585 0.03892784351195782 0.004999999999999985
    vertex 0.03125767926054585 0.03892784351195782 0.01500000000000001
    vertex 0.03501950551658359 0.03538894864723438 0.01000000000000003
  endloop
endfacet
facet normal 0.685196 0.728359 0
  outer loop
    vertex 0.02749585300450811 0.04246673837668126 0.02
    vertex 0.03125767926054585 0.03892784351195782 0.01500000000000001
    vertex 0.02749585300450811 0.04246673837668126 0.009999999999999972
  endloop
endfacet
facet normal 0.685196 0.728359 -0
  outer loop
    vertex 0.03501950551658359 0.03538894864723438 0
    vertex 0.03125767926054585 0.03892784351195782 0.004999999999999985
    vertex 0.03501950551658359 0.03538894864723438 0.01000000000000003
  endloop
endfacet
facet normal 0.685196 0.728359 0
  outer loop
    vertex 0.02749585300450811 0.04246673837668126 0.009999999999999972
    vertex 0.03125767926054585 0.03892784351195782 0.004999999999999985
    vertex 0.02749585300450811 0.04246673837668126 0
  endloop
endfacet
facet normal 0.685196 0.728359 -0
  outer loop
    vertex 0.03501950551658359 0.03538894864723438 0.01000000000000003
    vertex 0.03125767926054585 0.03892784351195782 0.01500000000000001
    vertex 0.03501950551658359 0.03538894864723438 0.02
  endloop
endfacet
facet normal 0.978083 -0.208216 -7.02311e-17
  outer loop
    vertex 0.03501950551658359 0.03538894864723438 0
    vertex 0.03426613860390798 0.03185005378251094 0.004999999999999999
    vertex 0.03351277169123237 0.02831115891778751 0
  endloop
endfacet
facet normal 0.978083 -0.208216 7.02311e-17
  outer loop
    vertex 0.03351277169123237 0.02831115891778751 0.02
    vertex 0.03426613860390798 0.03185005378251094 0.015
    vertex 0.03501950551658359 0.03538894864723438 0.02
  endloop
endfacet
facet normal 0.978083 -0.208216 -7.02311e-17
  outer loop
    vertex 0.03501950551658359 0.03538894864723438 0.009999999999999972
    vertex 0.03426613860390798 0.03185005378251094 0.015
    vertex 0.03351277169123237 0.02831115891778751 0.01000000000000003
  endloop
endfacet
facet normal 0.978083 -0.208216 7.02311e-17
  outer loop
    vertex 0.03351277169123237 0.02831115891778751 0.01000000000000003
    vertex 0.03426613860390798 0.03185005378251094 0.004999999999999999
    vertex 0.03501950551658359 0.03538894864723438 0.009999999999999972
  endloop
endfacet
facet normal 0.978083 -0.208216 0
  outer loop
    vertex 0.03501950551658359 0.03538894864723438 0.009999999999999972
    vertex 0.03426613860390798 0.03185005378251094 0.004999999999999999
    vertex 0.03501950551658359 0.03538894864723438 0
  endloop
endfacet
facet normal 0.978083 -0.208216 0
  outer loop
    vertex 0.03501950551658359 0.03538894864723438 0.02
    vertex 0.03426613860390798 0.03185005378251094 0.015
    vertex 0.03501950551658359 0.03538894864723438 0.009999999999999972
  endloop
endfacet
facet normal 0.978083 -0.208216 0
  outer loop
    vertex 0.03351277169123237 0.02831115891778751 0
    vertex 0.03426613860390798 0.03185005378251094 0.004999999999999999
    vertex 0.03351277169123237 0.02831115891778751 0.01000000000000003
  endloop
endfacet
facet normal 0.978083 -0.208216 0
  outer loop
    vertex 0.03351277169123237 0.02831115891778751 0.01000000000000003
    vertex 0.03426613860390798 0.03185005378251094 0.015
    vertex 0.03351277169123237 0.02831115891778751 0.02
  endloop
endfacet
facet normal 0.497605 0.867404 0
  outer loop
    vertex 0.03351277169123237 0.02831115891778751 0.02
    vertex 0.03783097238750497 0.0258339325124811 0.015
    vertex 0.03351277169123237 0.02831115891778751 0.009999999999999972
  endloop
endfacet
facet normal 0.497605 0.867404 -0
  outer loop
    vertex 0.04585048796629694 0.02123336918834063 0
    vertex 0.04153228727002434 0.02371059559364704 0.005000000000000001
    vertex 0.04585048796629694 0.02123336918834063 0.01000000000000003
  endloop
endfacet
facet normal 0.497605 0.867404 -0
  outer loop
    vertex 0.04585048796629694 0.02123336918834063 0.01000000000000003
    vertex 0.04177904159552563 0.0235690397990581 0.015
    vertex 0.04585048796629694 0.02123336918834063 0.02
  endloop
endfacet
facet normal 0.497605 0.867404 0
  outer loop
    vertex 0.03351277169123237 0.02831115891778751 0.009999999999999972
    vertex 0.03758421806200368 0.02597548830707003 0.004999999999999992
    vertex 0.03351277169123237 0.02831115891778751 0
  endloop
endfacet
facet normal 0.497605 0.867404 2.14383e-16
  outer loop
    vertex 0.03968162982876465 0.02477226405306407 0.02
    vertex 0.03783097238750497 0.0258339325124811 0.015
    vertex 0.03351277169123237 0.02831115891778751 0.02
  endloop
endfacet
facet normal 0.497605 0.867404 2.14383e-16
  outer loop
    vertex 0.03968162982876466 0.02477226405306407 0
    vertex 0.04153228727002434 0.02371059559364704 0.005000000000000001
    vertex 0.04585048796629694 0.02123336918834063 0
  endloop
endfacet
facet normal 0.497605 0.867404 -1.42922e-16
  outer loop
    vertex 0.04585048796629694 0.02123336918834063 0.02
    vertex 0.04177904159552563 0.0235690397990581 0.015
    vertex 0.03968162982876465 0.02477226405306407 0.02
  endloop
endfacet
facet normal 0.497605 0.867404 1.14337e-15
  outer loop
    vertex 0.03351277169123237 0.02831115891778751 0
    vertex 0.03758421806200368 0.02597548830707003 0.004999999999999992
    vertex 0.03968162982876466 0.02477226405306407 0
  endloop
endfacet
facet normal 0.497605 0.867404 1.67486e-16
  outer loop
    vertex 0.03968162982876465 0.02477226405306407 0.02
    vertex 0.04177904159552563 0.0235690397990581 0.015
    vertex 0.03783097238750497 0.0258339325124811 0.015
  endloop
endfacet
facet normal 0.497605 0.867404 7.81603e-16
  outer loop
    vertex 0.03968162982876466 0.02477226405306407 0
    vertex 0.03758421806200368 0.02597548830707003 0.004999999999999992
    vertex 0.04153228727002434 0.02371059559364704 0.005000000000000001
  endloop
endfacet
facet normal 0.497605 0.867404 -7.44384e-17
  outer loop
    vertex 0.04177904159552563 0.0235690397990581 0.015
    vertex 0.03968162982876466 0.02477226405306407 0.009999999999999998
    vertex 0.03783097238750497 0.0258339325124811 0.015
  endloop
endfacet
facet normal 0.497605 0.867404 -7.44384e-17
  outer loop
    vertex 0.03758421806200368 0.02597548830707003 0.004999999999999992
    vertex 0.03968162982876466 0.02477226405306407 0.009999999999999998
    vertex 0.04153228727002434 0.02371059559364704 0.005000000000000001
  endloop
endfacet
facet normal 0.497605 0.867404 1.90562e-16
  outer loop
    vertex 0.04585048796629694 0.02123336918834063 0.01000000000000003
    vertex 0.03968162982876466 0.02477226405306407 0.009999999999999998
    vertex 0.04177904159552563 0.0235690397990581 0.015
  endloop
endfacet
facet normal 0.497605 0.867404 2.62023e-16
  outer loop
    vertex 0.04153228727002434 0.02371059559364704 0.005000000000000001
    vertex 0.03968162982876466 0.02477226405306407 0.009999999999999998
    vertex 0.04585048796629694 0.02123336918834063 0.01000000000000003
  endloop
endfacet
facet normal 0.497605 0.867404 -1.42922e-16
  outer loop
    vertex 0.03783097238750497 0.0258339325124811 0.015
    vertex 0.03968162982876466 0.02477226405306407 0.009999999999999998
    vertex 0.03351277169123237 0.02831115891778751 0.009999999999999972
  endloop
endfacet
facet normal 0.497605 0.867404 -7.14609e-16
  outer loop
    vertex 0.03351277169123237 0.02831115891778751 0.009999999999999972
    vertex 0.03968162982876466 0.02477226405306407 0.009999999999999998
    vertex 0.03758421806200368 0.02597548830707003 0.004999999999999992
  endloop
endfacet
facet normal 0.399523 -0.916723 -3.93864e-16
  outer loop
    vertex 0.02961021092797096 0.01415557945889375 0.02
    vertex 0.03653626643468732 0.01717407258036757 0.01223075533042451
    vertex 0.03773034944713396 0.01769447432361719 0.02
  endloop
endfacet
facet normal 0.399523 -0.916723 0
  outer loop
    vertex 0.02961021092797096 0.01415557945889375 0.01000000000000003
    vertex 0.03653626643468732 0.01717407258036757 0.01223075533042451
    vertex 0.02961021092797096 0.01415557945889375 0.02
  endloop
endfacet
facet normal 0.399523 -0.916723 0
  outer loop
    vertex 0.04585048796629694 0.02123336918834063 0.009999999999999972
    vertex 0.04026013358455195 0.01879699739901052 0.006478630234781613
    vertex 0.04585048796629694 0.02123336918834063 0
  endloop
endfacet
facet normal 0.399523 -0.916723 0
  outer loop
    vertex 0.04585048796629694 0.02123336918834063 0.02
    vertex 0.04164858363098606 0.01940210761081971 0.01486752681550989
    vertex 0.04585048796629694 0.02123336918834063 0.009999999999999972
  endloop
endfacet
facet normal 0.399523 -0.916723 1.77122e-16
  outer loop
    vertex 0.04585048796629694 0.02123336918834063 0
    vertex 0.04026013358455195 0.01879699739901052 0.006478630234781613
    vertex 0.03773034944713394 0.01769447432361719 0
  endloop
endfacet
facet normal 0.399523 -0.916723 0
  outer loop
    vertex 0.02961021092797096 0.01415557945889375 0
    vertex 0.03474943426446302 0.01639534064415656 0.00574187711304123
    vertex 0.02961021092797096 0.01415557945889375 0.01000000000000003
  endloop
endfacet
facet normal 0.399523 -0.916723 -6.33472e-16
  outer loop
    vertex 0.03773034944713396 0.01769447432361719 0.02
    vertex 0.04164858363098606 0.01940210761081971 0.01486752681550989
    vertex 0.04585048796629694 0.02123336918834063 0.02
  endloop
endfacet
facet normal 0.399523 -0.916723 3.6639e-16
  outer loop
    vertex 0.03773034944713394 0.01769447432361719 0
    vertex 0.03474943426446302 0.01639534064415656 0.00574187711304123
    vertex 0.02961021092797096 0.01415557945889375 0
  endloop
endfacet
facet normal 0.399523 -0.916723 8.90801e-17
  outer loop
    vertex 0.04026013358455195 0.01879699739901052 0.006478630234781613
    vertex 0.04164858363098606 0.01940210761081971 0.01486752681550989
    vertex 0.03653626643468732 0.01717407258036757 0.01223075533042451
  endloop
endfacet
facet normal 0.399523 -0.916723 1.84846e-16
  outer loop
    vertex 0.04585048796629694 0.02123336918834063 0.009999999999999972
    vertex 0.04164858363098606 0.01940210761081971 0.01486752681550989
    vertex 0.04026013358455195 0.01879699739901052 0.006478630234781613
  endloop
endfacet
facet normal 0.399523 -0.916723 0
  outer loop
    vertex 0.03474943426446302 0.01639534064415656 0.00574187711304123
    vertex 0.04026013358455195 0.01879699739901052 0.006478630234781613
    vertex 0.03653626643468732 0.01717407258036757 0.01223075533042451
  endloop
endfacet
facet normal 0.399523 -0.916723 -1.70632e-16
  outer loop
    vertex 0.03474943426446302 0.01639534064415656 0.00574187711304123
    vertex 0.03653626643468732 0.01717407258036757 0.01223075533042451
    vertex 0.02961021092797096 0.01415557945889375 0.01000000000000003
  endloop
endfacet
facet normal 0.399523 -0.916723 -4.45891e-16
  outer loop
    vertex 0.03653626643468732 0.01717407258036757 0.01223075533042451
    vertex 0.04164858363098606 0.01940210761081971 0.01486752681550989
    vertex 0.03773034944713396 0.01769447432361719 0.02
  endloop
endfacet
facet normal 0.399523 -0.916723 1.8358e-16
  outer loop
    vertex 0.03773034944713394 0.01769447432361719 0
    vertex 0.04026013358455195 0.01879699739901052 0.006478630234781613
    vertex 0.03474943426446302 0.01639534064415656 0.00574187711304123
  endloop
endfacet
facet normal 0.813921 -0.580976 0
  outer loop
    vertex 0.0245580905431496 0.007077789729446879 0
    vertex 0.02708415073556028 0.01061668459417031 0.005000000000000001
    vertex 0.0245580905431496 0.007077789729446879 0.01000000000000003
  endloop
endfacet
facet normal 0.813921 -0.580976 0
  outer loop
    vertex 0.02961021092797096 0.01415557945889375 0.02
    vertex 0.02708415073556028 0.01061668459417031 0.015
    vertex 0.02961021092797096 0.01415557945889375 0.009999999999999972
  endloop
endfacet
facet normal 0.813921 -0.580976 0
  outer loop
    vertex 0.0245580905431496 0.007077789729446879 0.01000000000000003
    vertex 0.02708415073556028 0.01061668459417031 0.015
    vertex 0.0245580905431496 0.007077789729446879 0.02
  endloop
endfacet
facet normal 0.813921 -0.580976 0
  outer loop
    vertex 0.02961021092797096 0.01415557945889375 0.009999999999999972
    vertex 0.02708415073556028 0.01061668459417031 0.005000000000000001
    vertex 0.02961021092797096 0.01415557945889375 0
  endloop
endfacet
facet normal 0.813921 -0.580976 -1.55849e-16
  outer loop
    vertex 0.02961021092797096 0.01415557945889375 0
    vertex 0.02708415073556028 0.01061668459417031 0.005000000000000001
    vertex 0.0245580905431496 0.007077789729446879 0
  endloop
endfacet
facet normal 0.813921 -0.580976 -1.55849e-16
  outer loop
    vertex 0.02961021092797096 0.01415557945889375 0.009999999999999972
    vertex 0.02708415073556028 0.01061668459417031 0.015
    vertex 0.0245580905431496 0.007077789729446879 0.01000000000000003
  endloop
endfacet
facet normal 0.813921 -0.580976 2.33774e-16
  outer loop
    vertex 0.0245580905431496 0.007077789729446879 0.02
    vertex 0.02708415073556028 0.01061668459417031 0.015
    vertex 0.02961021092797096 0.01415557945889375 0.02
  endloop
endfacet
facet normal 0.813921 -0.580976 2.33774e-16
  outer loop
    vertex 0.0245580905431496 0.007077789729446879 0.01000000000000003
    vertex 0.02708415073556028 0.01061668459417031 0.005000000000000001
    vertex 0.02961021092797096 0.01415557945889375 0.009999999999999972
  endloop
endfacet
endsolid Created by Gmsh
