solid Created by Gmsh
facet normal -0.566324 -0.824182 1.04395e-16
  outer loop
    vertex 0.04122209014602428 0.0514639860643042 0.01000000000000003
    vertex 0.03587233970036675 0.05513998506889736 0.02
    vertex 0.03052258925470923 0.05881598407349051 0.009999999999999972
  endloop
endfacet
facet normal -0.566324 -0.824182 -1.04395e-16
  outer loop
    vertex 0.03587233970036675 0.05513998506889736 0
    vertex 0.04122209014602428 0.0514639860643042 0.01000000000000003
    vertex 0.03052258925470923 0.05881598407349051 0.009999999999999972
  endloop
endfacet
facet normal -0.566324 -0.824182 0
  outer loop
    vertex 0.03587233970036675 0.05513998506889736 0
    vertex 0.03052258925470923 0.05881598407349051 0.009999999999999972
    vertex 0.03052258925470923 0.05881598407349051 0
  endloop
endfacet
facet normal -0.566324 -0.824182 0
  outer loop
    vertex 0.03052258925470923 0.05881598407349051 0.009999999999999972
    vertex 0.03587233970036675 0.05513998506889736 0.02
    vertex 0.03052258925470923 0.05881598407349051 0.02
  endloop
endfacet
facet normal -0.566324 -0.824182 -0
  outer loop
    vertex 0.04122209014602428 0.0514639860643042 0.01000000000000003
    vertex 0.03587233970036675 0.05513998506889736 0
    vertex 0.04122209014602428 0.0514639860643042 0
  endloop
endfacet
facet normal -0.566324 -0.824182 0
  outer loop
    vertex 0.03587233970036675 0.05513998506889736 0.02
    vertex 0.04122209014602428 0.0514639860643042 0.01000000000000003
    vertex 0.04122209014602428 0.0514639860643042 0.02
  endloop
endfacet
facet normal -0.992618 -0.12128 0
  outer loop
    vertex 0.04212036868502163 0.04411198805511789 0
    vertex 0.04212036868502163 0.04411198805511789 0.01000000000000003
    vertex 0.04167122941552296 0.04778798705971104 0.005000000000000001
  endloop
endfacet
facet normal -0.992618 -0.12128 -0
  outer loop
    vertex 0.04122209014602428 0.0514639860643042 0.02
    vertex 0.04122209014602428 0.0514639860643042 0.009999999999999972
    vertex 0.04167122941552296 0.04778798705971104 0.015
  endloop
endfacet
facet normal -0.992618 -0.12128 0
  outer loop
    vertex 0.04212036868502163 0.04411198805511789 0.01000000000000003
    vertex 0.04212036868502163 0.04411198805511789 0.02
    vertex 0.04167122941552296 0.04778798705971104 0.015
  endloop
endfacet
facet normal -0.992618 -0.12128 -0
  outer loop
    vertex 0.04122209014602428 0.0514639860643042 0.009999999999999972
    vertex 0.04122209014602428 0.0514639860643042 0
    vertex 0.04167122941552296 0.04778798705971104 0.005000000000000001
  endloop
endfacet
facet normal -0.992618 -0.12128 -5.94676e-16
  outer loop
    vertex 0.04212036868502163 0.04411198805511789 0.01000000000000003
    vertex 0.04122209014602428 0.0514639860643042 0.009999999999999972
    vertex 0.04167122941552296 0.04778798705971104 0.005000000000000001
  endloop
endfacet
facet normal -0.992618 -0.12128 6.06112e-16
  outer loop
    vertex 0.04122209014602428 0.0514639860643042 0.009999999999999972
    vertex 0.04212036868502163 0.04411198805511789 0.01000000000000003
    vertex 0.04167122941552296 0.04778798705971104 0.015
  endloop
endfacet
facet normal -0.992618 -0.12128 -5.94676e-16
  outer loop
    vertex 0.04212036868502163 0.04411198805511789 0.02
    vertex 0.04122209014602428 0.0514639860643042 0.02
    vertex 0.04167122941552296 0.04778798705971104 0.015
  endloop
endfacet
facet normal -0.992618 -0.12128 6.06112e-16
  outer loop
    vertex 0.04122209014602428 0.0514639860643042 0
    vertex 0.04212036868502163 0.04411198805511789 0
    vertex 0.04167122941552296 0.04778798705971104 0.005000000000000001
  endloop
endfacet
facet normal -0.989453 -0.144855 -0
  outer loop
    vertex 0.04212036868502163 0.04411198805511789 0.02
    vertex 0.04212036868502163 0.04411198805511789 0.009999999999999972
    vertex 0.04265853275489932 0.04043598905052473 0.015
  endloop
endfacet
facet normal -0.989453 -0.144855 0
  outer loop
    vertex 0.043196696824777 0.03675999004593157 0
    vertex 0.043196696824777 0.03675999004593157 0.01000000000000003
    vertex 0.04265853275489932 0.04043598905052473 0.005
  endloop
endfacet
facet normal -0.989453 -0.144855 0
  outer loop
    vertex 0.043196696824777 0.03675999004593157 0.01000000000000003
    vertex 0.043196696824777 0.03675999004593157 0.02
    vertex 0.04265853275489932 0.04043598905052473 0.015
  endloop
endfacet
facet normal -0.989453 -0.144855 -0
  outer loop
    vertex 0.04212036868502163 0.04411198805511789 0.009999999999999972
    vertex 0.04212036868502163 0.04411198805511789 0
    vertex 0.04265853275489932 0.04043598905052473 0.005
  endloop
endfacet
facet normal -0.989453 -0.144855 -6.83977e-16
  outer loop
    vertex 0.04212036868502163 0.04411198805511789 0
    vertex 0.043196696824777 0.03675999004593157 0
    vertex 0.04265853275489932 0.04043598905052473 0.005
  endloop
endfacet
facet normal -0.989453 -0.144855 6.83977e-16
  outer loop
    vertex 0.043196696824777 0.03675999004593157 0.02
    vertex 0.04212036868502163 0.04411198805511789 0.02
    vertex 0.04265853275489932 0.04043598905052473 0.015
  endloop
endfacet
facet normal -0.989453 -0.144855 -6.83977e-16
  outer loop
    vertex 0.04212036868502163 0.04411198805511789 0.009999999999999972
    vertex 0.043196696824777 0.03675999004593157 0.01000000000000003
    vertex 0.04265853275489932 0.04043598905052473 0.015
  endloop
endfacet
facet normal -0.989453 -0.144855 6.83977e-16
  outer loop
    vertex 0.043196696824777 0.03675999004593157 0.01000000000000003
    vertex 0.04212036868502163 0.04411198805511789 0.009999999999999972
    vertex 0.04265853275489932 0.04043598905052473 0.005
  endloop
endfacet
facet normal -0.414071 0.910245 2.94903e-16
  outer loop
    vertex 0.043196696824777 0.03675999004593157 0
    vertex 0.03511581188744319 0.03308399104133841 0
    vertex 0.03632143318734021 0.03363242883406857 0.007764829124347514
  endloop
endfacet
facet normal -0.414071 0.910245 0
  outer loop
    vertex 0.043196696824777 0.03675999004593157 0.009999999999999972
    vertex 0.043196696824777 0.03675999004593157 0
    vertex 0.03632143318734021 0.03363242883406857 0.007764829124347514
  endloop
endfacet
facet normal -0.414071 0.910245 0
  outer loop
    vertex 0.02703492695010939 0.02940799203674526 0.01000000000000003
    vertex 0.02703492695010939 0.02940799203674526 0.02
    vertex 0.03260136175938526 0.03194016629447972 0.0135116845770283
  endloop
endfacet
facet normal -0.414071 0.910245 0
  outer loop
    vertex 0.02703492695010939 0.02940799203674526 0
    vertex 0.02703492695010939 0.02940799203674526 0.01000000000000003
    vertex 0.03121758170743237 0.03131068398740543 0.005143726226372688
  endloop
endfacet
facet normal -0.414071 0.910245 6.47024e-16
  outer loop
    vertex 0.02703492695010939 0.02940799203674526 0.02
    vertex 0.0351158118874432 0.03308399104133841 0.02
    vertex 0.03260136175938526 0.03194016629447972 0.0135116845770283
  endloop
endfacet
facet normal -0.414071 0.910245 0
  outer loop
    vertex 0.043196696824777 0.03675999004593157 0.02
    vertex 0.043196696824777 0.03675999004593157 0.009999999999999972
    vertex 0.03808640009674454 0.03443531325234997 0.01425530274027516
  endloop
endfacet
facet normal -0.414071 0.910245 2.22589e-16
  outer loop
    vertex 0.03511581188744319 0.03308399104133841 0
    vertex 0.02703492695010939 0.02940799203674526 0
    vertex 0.03121758170743237 0.03131068398740543 0.005143726226372688
  endloop
endfacet
facet normal -0.414071 0.910245 4.31823e-16
  outer loop
    vertex 0.0351158118874432 0.03308399104133841 0.02
    vertex 0.043196696824777 0.03675999004593157 0.02
    vertex 0.03808640009674454 0.03443531325234997 0.01425530274027516
  endloop
endfacet
facet normal -0.414071 0.910245 -4.73473e-16
  outer loop
    vertex 0.03260136175938526 0.03194016629447972 0.0135116845770283
    vertex 0.03632143318734021 0.03363242883406857 0.007764829124347514
    vertex 0.03121758170743237 0.03131068398740543 0.005143726226372688
  endloop
endfacet
facet normal -0.414071 0.910245 -3.69608e-16
  outer loop
    vertex 0.02703492695010939 0.02940799203674526 0.01000000000000003
    vertex 0.03260136175938526 0.03194016629447972 0.0135116845770283
    vertex 0.03121758170743237 0.03131068398740543 0.005143726226372688
  endloop
endfacet
facet normal -0.414071 0.910245 -5.39669e-16
  outer loop
    vertex 0.03808640009674454 0.03443531325234997 0.01425530274027516
    vertex 0.03632143318734021 0.03363242883406857 0.007764829124347514
    vertex 0.03260136175938526 0.03194016629447972 0.0135116845770283
  endloop
endfacet
facet normal -0.414071 0.910245 -4.16979e-16
  outer loop
    vertex 0.03808640009674454 0.03443531325234997 0.01425530274027516
    vertex 0.043196696824777 0.03675999004593157 0.009999999999999972
    vertex 0.03632143318734021 0.03363242883406857 0.007764829124347514
  endloop
endfacet
facet normal -0.414071 0.910245 2.85398e-16
  outer loop
    vertex 0.03632143318734021 0.03363242883406857 0.007764829124347514
    vertex 0.03511581188744319 0.03308399104133841 0
    vertex 0.03121758170743237 0.03131068398740543 0.005143726226372688
  endloop
endfacet
facet normal -0.414071 0.910245 7.08838e-16
  outer loop
    vertex 0.0351158118874432 0.03308399104133841 0.02
    vertex 0.03808640009674454 0.03443531325234997 0.01425530274027516
    vertex 0.03260136175938526 0.03194016629447972 0.0135116845770283
  endloop
endfacet
facet normal -0.551406 -0.834237 5.08225e-17
  outer loop
    vertex 0.0381579694541389 0.02205599402755894 0.01000000000000003
    vertex 0.03259644820212414 0.02573199303215211 0.02
    vertex 0.02703492695010939 0.02940799203674526 0.009999999999999972
  endloop
endfacet
facet normal -0.551406 -0.834237 5.08225e-17
  outer loop
    vertex 0.03259644820212415 0.0257319930321521 0
    vertex 0.0381579694541389 0.02205599402755894 0.01000000000000003
    vertex 0.02703492695010939 0.02940799203674526 0.009999999999999972
  endloop
endfacet
facet normal -0.551406 -0.834237 0
  outer loop
    vertex 0.03259644820212415 0.0257319930321521 0
    vertex 0.02703492695010939 0.02940799203674526 0.009999999999999972
    vertex 0.02703492695010939 0.02940799203674526 0
  endloop
endfacet
facet normal -0.551406 -0.834237 0
  outer loop
    vertex 0.02703492695010939 0.02940799203674526 0.009999999999999972
    vertex 0.03259644820212414 0.02573199303215211 0.02
    vertex 0.02703492695010939 0.02940799203674526 0.02
  endloop
endfacet
facet normal -0.551406 -0.834237 -0
  outer loop
    vertex 0.0381579694541389 0.02205599402755894 0.01000000000000003
    vertex 0.03259644820212415 0.0257319930321521 0
    vertex 0.0381579694541389 0.02205599402755894 0
  endloop
endfacet
facet normal -0.551406 -0.834237 0
  outer loop
    vertex 0.03259644820212414 0.02573199303215211 0.02
    vertex 0.0381579694541389 0.02205599402755894 0.01000000000000003
    vertex 0.0381579694541389 0.02205599402755894 0.02
  endloop
endfacet
facet normal -0.839571 -0.54325 -0
  outer loop
    vertex 0.0381579694541389 0.02205599402755894 0.02
    vertex 0.0381579694541389 0.02205599402755894 0.009999999999999972
    vertex 0.04053654743031419 0.01837999502296579 0.015
  endloop
endfacet
facet normal -0.839571 -0.54325 0
  outer loop
    vertex 0.04291512540648949 0.01470399601837263 0
    vertex 0.04291512540648949 0.01470399601837263 0.01000000000000003
    vertex 0.04053654743031419 0.01837999502296578 0.005
  endloop
endfacet
facet normal -0.839571 -0.54325 -0
  outer loop
    vertex 0.0381579694541389 0.02205599402755894 0.009999999999999972
    vertex 0.0381579694541389 0.02205599402755894 0
    vertex 0.04053654743031419 0.01837999502296578 0.005
  endloop
endfacet
facet normal -0.839571 -0.54325 0
  outer loop
    vertex 0.04291512540648949 0.01470399601837263 0.01000000000000003
    vertex 0.04291512540648949 0.01470399601837263 0.02
    vertex 0.04053654743031419 0.01837999502296579 0.015
  endloop
endfacet
facet normal -0.839571 -0.54325 -6.1906e-16
  outer loop
    vertex 0.0381579694541389 0.02205599402755894 0.009999999999999972
    vertex 0.04291512540648949 0.01470399601837263 0.01000000000000003
    vertex 0.04053654743031419 0.01837999502296579 0.015
  endloop
endfacet
facet normal -0.839571 -0.54325 9.28589e-16
  outer loop
    vertex 0.04291512540648949 0.01470399601837263 0.01000000000000003
    vertex 0.0381579694541389 0.02205599402755894 0.009999999999999972
    vertex 0.04053654743031419 0.01837999502296578 0.005
  endloop
endfacet
facet normal -0.839571 -0.54325 5.41677e-16
  outer loop
    vertex 0.04291512540648949 0.01470399601837263 0.02
    vertex 0.0381579694541389 0.02205599402755894 0.02
    vertex 0.04053654743031419 0.01837999502296579 0.015
  endloop
endfacet
facet normal -0.839571 -0.54325 -1.00597e-15
  outer loop
    vertex 0.0381579694541389 0.02205599402755894 0
    vertex 0.04291512540648949 0.01470399601837263 0
    vertex 0.04053654743031419 0.01837999502296578 0.005
  endloop
endfacet
facet normal -0.992315 -0.123737 -0
  outer loop
    vertex 0.04291512540648949 0.01470399601837263 0.02
    vertex 0.04291512540648949 0.01470399601837263 0.009999999999999972
    vertex 0.04337350488110139 0.01102799701377947 0.015
  endloop
endfacet
facet normal -0.992315 -0.123737 0
  outer loop
    vertex 0.04383188435571328 0.007351998009186317 0
    vertex 0.04383188435571328 0.007351998009186317 0.01000000000000003
    vertex 0.04337350488110139 0.01102799701377947 0.005
  endloop
endfacet
facet normal -0.992315 -0.123737 -0
  outer loop
    vertex 0.04291512540648949 0.01470399601837263 0.009999999999999972
    vertex 0.04291512540648949 0.01470399601837263 0
    vertex 0.04337350488110139 0.01102799701377947 0.005
  endloop
endfacet
facet normal -0.992315 -0.123737 0
  outer loop
    vertex 0.04383188435571328 0.007351998009186317 0.01000000000000003
    vertex 0.04383188435571328 0.007351998009186317 0.02
    vertex 0.04337350488110139 0.01102799701377947 0.015
  endloop
endfacet
facet normal -0.992315 -0.123737 -1.37191e-15
  outer loop
    vertex 0.04383188435571328 0.007351998009186317 0.01000000000000003
    vertex 0.04291512540648949 0.01470399601837263 0.009999999999999972
    vertex 0.04337350488110139 0.01102799701377947 0.005
  endloop
endfacet
facet normal -0.992315 -0.123737 1.38334e-15
  outer loop
    vertex 0.04291512540648949 0.01470399601837263 0.009999999999999972
    vertex 0.04383188435571328 0.007351998009186317 0.01000000000000003
    vertex 0.04337350488110139 0.01102799701377947 0.015
  endloop
endfacet
facet normal -0.992315 -0.123737 1.38334e-15
  outer loop
    vertex 0.04291512540648949 0.01470399601837263 0
    vertex 0.04383188435571328 0.007351998009186317 0
    vertex 0.04337350488110139 0.01102799701377947 0.005
  endloop
endfacet
facet normal -0.992315 -0.123737 -1.37191e-15
  outer loop
    vertex 0.04383188435571328 0.007351998009186317 0.02
    vertex 0.04291512540648949 0.01470399601837263 0.02
    vertex 0.04337350488110139 0.01102799701377947 0.015
  endloop
endfacet
endsolid Created by Gmsh
