solid Created by Gmsh
facet normal -0.627603 0.778534 -4.6115e-16
  outer loop
    vertex 0.02831783026753829 0.04677391316434507 0.02
    vertex 0.0366067531379972 0.0534559007592515 0.02
    vertex 0.03246229170276774 0.05011490696179828 0.01447938359017077
  endloop
endfacet
facet normal -0.627603 0.778534 -1.15856e-16
  outer loop
    vertex 0.0366067531379972 0.0534559007592515 0
    vertex 0.02831783026753829 0.04677391316434507 0
    vertex 0.03246229170276773 0.05011490696179827 0.005493512265210901
  endloop
endfacet
facet normal -0.627603 0.778534 0
  outer loop
    vertex 0.0366067531379972 0.0534559007592515 0.02
    vertex 0.0366067531379972 0.0534559007592515 0.009999999999999972
    vertex 0.03246229170276774 0.05011490696179828 0.01447938359017077
  endloop
endfacet
facet normal -0.627603 0.778534 0
  outer loop
    vertex 0.02831783026753829 0.04677391316434507 0
    vertex 0.02831783026753829 0.04677391316434507 0.01000000000000003
    vertex 0.03246229170276773 0.05011490696179827 0.005493512265210901
  endloop
endfacet
facet normal -0.627603 0.778534 3.68086e-16
  outer loop
    vertex 0.03246229170276774 0.05011490696179828 0.01447938359017077
    vertex 0.0366067531379972 0.0534559007592515 0.009999999999999972
    vertex 0.03246229170276773 0.05011490696179827 0.005493512265210901
  endloop
endfacet
facet normal -0.627603 0.778534 0
  outer loop
    vertex 0.0366067531379972 0.0534559007592515 0.009999999999999972
    vertex 0.0366067531379972 0.0534559007592515 0
    vertex 0.03246229170276773 0.05011490696179827 0.005493512265210901
  endloop
endfacet
facet normal -0.627603 0.778534 3.89558e-16
  outer loop
    vertex 0.02831783026753829 0.04677391316434507 0.01000000000000003
    vertex 0.03246229170276774 0.05011490696179828 0.01447938359017077
    vertex 0.03246229170276773 0.05011490696179827 0.005493512265210901
  endloop
endfacet
facet normal -0.627603 0.778534 0
  outer loop
    vertex 0.02831783026753829 0.04677391316434507 0.01000000000000003
    vertex 0.02831783026753829 0.04677391316434507 0.02
    vertex 0.03246229170276774 0.05011490696179828 0.01447938359017077
  endloop
endfacet
facet normal -0.996589 -0.082519 6.37973e-16
  outer loop
    vertex 0.02887110794671747 0.04009192556943863 0.02
    vertex 0.02831783026753829 0.04677391316434507 0.02
    vertex 0.02859446910712787 0.04343291936689185 0.015
  endloop
endfacet
facet normal -0.996589 -0.082519 6.37973e-16
  outer loop
    vertex 0.02887110794671747 0.04009192556943863 0.01000000000000003
    vertex 0.02831783026753829 0.04677391316434507 0.009999999999999972
    vertex 0.02859446910712787 0.04343291936689185 0.005000000000000001
  endloop
endfacet
facet normal -0.996589 -0.082519 -6.31656e-16
  outer loop
    vertex 0.02831783026753829 0.04677391316434507 0.009999999999999972
    vertex 0.02887110794671747 0.04009192556943863 0.01000000000000003
    vertex 0.02859446910712787 0.04343291936689185 0.015
  endloop
endfacet
facet normal -0.996589 -0.082519 -6.31656e-16
  outer loop
    vertex 0.02831783026753829 0.04677391316434507 0
    vertex 0.02887110794671747 0.04009192556943863 0
    vertex 0.02859446910712787 0.04343291936689185 0.005000000000000001
  endloop
endfacet
facet normal -0.996589 -0.082519 -0
  outer loop
    vertex 0.02831783026753829 0.04677391316434507 0.009999999999999972
    vertex 0.02831783026753829 0.04677391316434507 0
    vertex 0.02859446910712787 0.04343291936689185 0.005000000000000001
  endloop
endfacet
facet normal -0.996589 -0.082519 -0
  outer loop
    vertex 0.02831783026753829 0.04677391316434507 0.02
    vertex 0.02831783026753829 0.04677391316434507 0.009999999999999972
    vertex 0.02859446910712787 0.04343291936689185 0.015
  endloop
endfacet
facet normal -0.996589 -0.082519 0
  outer loop
    vertex 0.02887110794671747 0.04009192556943863 0
    vertex 0.02887110794671747 0.04009192556943863 0.01000000000000003
    vertex 0.02859446910712787 0.04343291936689185 0.005000000000000001
  endloop
endfacet
facet normal -0.996589 -0.082519 0
  outer loop
    vertex 0.02887110794671747 0.04009192556943863 0.01000000000000003
    vertex 0.02887110794671747 0.04009192556943863 0.02
    vertex 0.02859446910712787 0.04343291936689185 0.015
  endloop
endfacet
facet normal -0.999308 0.0372084 -6.65048e-16
  outer loop
    vertex 0.02862230943145005 0.03340993797453219 0.01000000000000003
    vertex 0.02887110794671747 0.04009192556943863 0.009999999999999972
    vertex 0.02874670868908377 0.03675093177198541 0.005000000000000001
  endloop
endfacet
facet normal -0.999308 0.0372084 7.18885e-16
  outer loop
    vertex 0.02887110794671747 0.04009192556943863 0.009999999999999972
    vertex 0.02862230943145005 0.03340993797453219 0.01000000000000003
    vertex 0.02874670868908377 0.03675093177198541 0.015
  endloop
endfacet
facet normal -0.999308 0.0372084 -7.18885e-16
  outer loop
    vertex 0.02862230943145005 0.03340993797453219 0.02
    vertex 0.02887110794671747 0.04009192556943863 0.02
    vertex 0.02874670868908377 0.03675093177198541 0.015
  endloop
endfacet
facet normal -0.999308 0.0372084 6.65048e-16
  outer loop
    vertex 0.02887110794671747 0.04009192556943863 0
    vertex 0.02862230943145005 0.03340993797453219 0
    vertex 0.02874670868908377 0.03675093177198541 0.005000000000000001
  endloop
endfacet
facet normal -0.999308 0.0372084 0
  outer loop
    vertex 0.02887110794671747 0.04009192556943863 0.009999999999999972
    vertex 0.02887110794671747 0.04009192556943863 0
    vertex 0.02874670868908377 0.03675093177198541 0.005000000000000001
  endloop
endfacet
facet normal -0.999308 0.0372084 0
  outer loop
    vertex 0.02887110794671747 0.04009192556943863 0.02
    vertex 0.02887110794671747 0.04009192556943863 0.009999999999999972
    vertex 0.02874670868908377 0.03675093177198541 0.015
  endloop
endfacet
facet normal -0.999308 0.0372084 0
  outer loop
    vertex 0.02862230943145005 0.03340993797453219 0
    vertex 0.02862230943145005 0.03340993797453219 0.01000000000000003
    vertex 0.02874670868908377 0.03675093177198541 0.005000000000000001
  endloop
endfacet
facet normal -0.999308 0.0372084 0
  outer loop
    vertex 0.02862230943145005 0.03340993797453219 0.01000000000000003
    vertex 0.02862230943145005 0.03340993797453219 0.02
    vertex 0.02874670868908377 0.03675093177198541 0.015
  endloop
endfacet
facet normal -0.983994 0.1782 -1.32219e-15
  outer loop
    vertex 0.02862230943145005 0.03340993797453219 0.009999999999999972
    vertex 0.02741221221434437 0.02672795037962575 0.01000000000000003
    vertex 0.0280172608228972 0.03006894417707897 0.015
  endloop
endfacet
facet normal -0.983994 0.1782 1.29724e-15
  outer loop
    vertex 0.02741221221434437 0.02672795037962575 0.01000000000000003
    vertex 0.02862230943145005 0.03340993797453219 0.009999999999999972
    vertex 0.0280172608228972 0.03006894417707897 0.005
  endloop
endfacet
facet normal -0.983994 0.1782 -1.32219e-15
  outer loop
    vertex 0.02862230943145005 0.03340993797453219 0
    vertex 0.02741221221434437 0.02672795037962575 0
    vertex 0.0280172608228972 0.03006894417707897 0.005
  endloop
endfacet
facet normal -0.983994 0.1782 1.29724e-15
  outer loop
    vertex 0.02741221221434437 0.02672795037962575 0.02
    vertex 0.02862230943145005 0.03340993797453219 0.02
    vertex 0.0280172608228972 0.03006894417707897 0.015
  endloop
endfacet
facet normal -0.983994 0.1782 0
  outer loop
    vertex 0.02862230943145005 0.03340993797453219 0.009999999999999972
    vertex 0.02862230943145005 0.03340993797453219 0
    vertex 0.0280172608228972 0.03006894417707897 0.005
  endloop
endfacet
facet normal -0.983994 0.1782 0
  outer loop
    vertex 0.02862230943145005 0.03340993797453219 0.02
    vertex 0.02862230943145005 0.03340993797453219 0.009999999999999972
    vertex 0.0280172608228972 0.03006894417707897 0.015
  endloop
endfacet
facet normal -0.983994 0.1782 0
  outer loop
    vertex 0.02741221221434437 0.02672795037962575 0
    vertex 0.02741221221434437 0.02672795037962575 0.01000000000000003
    vertex 0.0280172608228972 0.03006894417707897 0.005
  endloop
endfacet
facet normal -0.983994 0.1782 0
  outer loop
    vertex 0.02741221221434437 0.02672795037962575 0.01000000000000003
    vertex 0.02741221221434437 0.02672795037962575 0.02
    vertex 0.0280172608228972 0.03006894417707897 0.015
  endloop
endfacet
facet normal -0.8838 -0.467864 -0
  outer loop
    vertex 0.02741221221434437 0.02672795037962575 0.02
    vertex 0.02741221221434437 0.02672795037962575 0.009999999999999972
    vertex 0.02918086105822136 0.02338695658217253 0.015
  endloop
endfacet
facet normal -0.8838 -0.467864 0
  outer loop
    vertex 0.03094950990209835 0.02004596278471931 0
    vertex 0.03094950990209835 0.02004596278471931 0.01000000000000003
    vertex 0.02918086105822136 0.02338695658217254 0.005000000000000001
  endloop
endfacet
facet normal -0.8838 -0.467864 -0
  outer loop
    vertex 0.02741221221434437 0.02672795037962575 0.009999999999999972
    vertex 0.02741221221434437 0.02672795037962575 0
    vertex 0.02918086105822136 0.02338695658217254 0.005000000000000001
  endloop
endfacet
facet normal -0.8838 -0.467864 0
  outer loop
    vertex 0.03094950990209835 0.02004596278471931 0.01000000000000003
    vertex 0.03094950990209835 0.02004596278471931 0.02
    vertex 0.02918086105822136 0.02338695658217253 0.015
  endloop
endfacet
facet normal -0.8838 -0.467864 -1.07552e-15
  outer loop
    vertex 0.03094950990209835 0.02004596278471931 0.01000000000000003
    vertex 0.02741221221434437 0.02672795037962575 0.009999999999999972
    vertex 0.02918086105822136 0.02338695658217254 0.005000000000000001
  endloop
endfacet
facet normal -0.8838 -0.467864 7.61829e-16
  outer loop
    vertex 0.02741221221434437 0.02672795037962575 0.009999999999999972
    vertex 0.03094950990209835 0.02004596278471931 0.01000000000000003
    vertex 0.02918086105822136 0.02338695658217253 0.015
  endloop
endfacet
facet normal -0.8838 -0.467864 1.07552e-15
  outer loop
    vertex 0.02741221221434437 0.02672795037962575 0
    vertex 0.03094950990209835 0.02004596278471931 0
    vertex 0.02918086105822136 0.02338695658217254 0.005000000000000001
  endloop
endfacet
facet normal -0.8838 -0.467864 -7.61829e-16
  outer loop
    vertex 0.03094950990209835 0.02004596278471931 0.02
    vertex 0.02741221221434437 0.02672795037962575 0.02
    vertex 0.02918086105822136 0.02338695658217253 0.015
  endloop
endfacet
facet normal -0.911983 0.410228 6.47395e-16
  outer loop
    vertex 0.03094950990209835 0.02004596278471931 0.009999999999999972
    vertex 0.02794381848692477 0.01336397518981287 0.01000000000000003
    vertex 0.02944666419451156 0.01670496898726609 0.015
  endloop
endfacet
facet normal -0.911983 0.410228 6.47395e-16
  outer loop
    vertex 0.03094950990209835 0.02004596278471931 0
    vertex 0.02794381848692477 0.01336397518981287 0
    vertex 0.02944666419451156 0.01670496898726609 0.005
  endloop
endfacet
facet normal -0.911983 0.410228 -6.47395e-16
  outer loop
    vertex 0.02794381848692477 0.01336397518981287 0.01000000000000003
    vertex 0.03094950990209835 0.02004596278471931 0.009999999999999972
    vertex 0.02944666419451156 0.01670496898726609 0.005
  endloop
endfacet
facet normal -0.911983 0.410228 -6.47395e-16
  outer loop
    vertex 0.02794381848692477 0.01336397518981287 0.02
    vertex 0.03094950990209835 0.02004596278471931 0.02
    vertex 0.02944666419451156 0.01670496898726609 0.015
  endloop
endfacet
facet normal -0.911983 0.410228 0
  outer loop
    vertex 0.03094950990209835 0.02004596278471931 0.009999999999999972
    vertex 0.03094950990209835 0.02004596278471931 0
    vertex 0.02944666419451156 0.01670496898726609 0.005
  endloop
endfacet
facet normal -0.911983 0.410228 0
  outer loop
    vertex 0.03094950990209835 0.02004596278471931 0.02
    vertex 0.03094950990209835 0.02004596278471931 0.009999999999999972
    vertex 0.02944666419451156 0.01670496898726609 0.015
  endloop
endfacet
facet normal -0.911983 0.410228 0
  outer loop
    vertex 0.02794381848692477 0.01336397518981287 0
    vertex 0.02794381848692477 0.01336397518981287 0.01000000000000003
    vertex 0.02944666419451156 0.01670496898726609 0.005
  endloop
endfacet
facet normal -0.911983 0.410228 0
  outer loop
    vertex 0.02794381848692477 0.01336397518981287 0.01000000000000003
    vertex 0.02794381848692477 0.01336397518981287 0.02
    vertex 0.02944666419451156 0.01670496898726609 0.015
  endloop
endfacet
facet normal -0.986532 -0.163571 6.8781e-16
  outer loop
    vertex 0.02794381848692477 0.01336397518981287 0.009999999999999972
    vertex 0.02905172054024591 0.006681987594906437 0.01000000000000003
    vertex 0.02849776951358534 0.01002298139235966 0.015
  endloop
endfacet
facet normal -0.986532 -0.163571 -6.8781e-16
  outer loop
    vertex 0.02905172054024591 0.006681987594906437 0.01000000000000003
    vertex 0.02794381848692477 0.01336397518981287 0.009999999999999972
    vertex 0.02849776951358534 0.01002298139235966 0.005000000000000001
  endloop
endfacet
facet normal -0.986532 -0.163571 6.8781e-16
  outer loop
    vertex 0.02794381848692477 0.01336397518981287 0
    vertex 0.02905172054024591 0.006681987594906437 0
    vertex 0.02849776951358534 0.01002298139235966 0.005000000000000001
  endloop
endfacet
facet normal -0.986532 -0.163571 -6.8781e-16
  outer loop
    vertex 0.02905172054024591 0.006681987594906437 0.02
    vertex 0.02794381848692477 0.01336397518981287 0.02
    vertex 0.02849776951358534 0.01002298139235966 0.015
  endloop
endfacet
facet normal -0.986532 -0.163571 -0
  outer loop
    vertex 0.02794381848692477 0.01336397518981287 0.009999999999999972
    vertex 0.02794381848692477 0.01336397518981287 0
    vertex 0.02849776951358534 0.01002298139235966 0.005000000000000001
  endloop
endfacet
facet normal -0.986532 -0.163571 -0
  outer loop
    vertex 0.02794381848692477 0.01336397518981287 0.02
    vertex 0.02794381848692477 0.01336397518981287 0.009999999999999972
    vertex 0.02849776951358534 0.01002298139235966 0.015
  endloop
endfacet
facet normal -0.986532 -0.163571 0
  outer loop
    vertex 0.02905172054024591 0.006681987594906437 0
    vertex 0.02905172054024591 0.006681987594906437 0.01000000000000003
    vertex 0.02849776951358534 0.01002298139235966 0.005000000000000001
  endloop
endfacet
facet normal -0.986532 -0.163571 0
  outer loop
    vertex 0.02905172054024591 0.006681987594906437 0.01000000000000003
    vertex 0.02905172054024591 0.006681987594906437 0.02
    vertex 0.02849776951358534 0.01002298139235966 0.015
  endloop
endfacet
endsolid Created by Gmsh
