solid Created by Gmsh
facet normal 1 0 0
  outer loop
    vertex 0.04 0.06 0
    vertex 0.04 0.05448788528746371 0.005520616409829229
    vertex 0.04 0.04897577057492743 0
  endloop
endfacet
facet normal 1 -0 0
  outer loop
    vertex 0.04 0.04897577057492743 0.02
    vertex 0.04 0.05448788528746371 0.01450648773478912
    vertex 0.04 0.06 0.02
  endloop
endfacet
facet normal 1 0 0
  outer loop
    vertex 0.04 0.06 0.009999999999999972
    vertex 0.04 0.05448788528746371 0.01450648773478912
    vertex 0.04 0.05448788528746371 0.005520616409829229
  endloop
endfacet
facet normal 1 0 -0
  outer loop
    vertex 0.04 0.05448788528746371 0.005520616409829229
    vertex 0.04 0.05448788528746371 0.01450648773478912
    vertex 0.04 0.04897577057492743 0.01000000000000003
  endloop
endfacet
facet normal 1 0 0
  outer loop
    vertex 0.04 0.06 0.02
    vertex 0.04 0.05448788528746371 0.01450648773478912
    vertex 0.04 0.06 0.009999999999999972
  endloop
endfacet
facet normal 1 0 0
  outer loop
    vertex 0.04 0.04897577057492743 0
    vertex 0.04 0.05448788528746371 0.005520616409829229
    vertex 0.04 0.04897577057492743 0.01000000000000003
  endloop
endfacet
facet normal 1 0 0
  outer loop
    vertex 0.04 0.06 0.009999999999999972
    vertex 0.04 0.05448788528746371 0.005520616409829229
    vertex 0.04 0.06 0
  endloop
endfacet
facet normal 1 0 0
  outer loop
    vertex 0.04 0.04897577057492743 0.01000000000000003
    vertex 0.04 0.05448788528746371 0.01450648773478912
    vertex 0.04 0.04897577057492743 0.02
  endloop
endfacet
facet normal 0.897487 0.441041 5.96044e-16
  outer loop
    vertex 0.04 0.04897577057492743 0.009999999999999972
    vertex 0.04150422313593302 0.04591478491399446 0.015
    vertex 0.04300844627186605 0.0428537992530615 0.01000000000000003
  endloop
endfacet
facet normal 0.897487 0.441041 5.96044e-16
  outer loop
    vertex 0.04 0.04897577057492743 0
    vertex 0.04150422313593302 0.04591478491399446 0.005
    vertex 0.04300844627186605 0.0428537992530615 0
  endloop
endfacet
facet normal 0.897487 0.441041 -6.45714e-16
  outer loop
    vertex 0.04300844627186605 0.0428537992530615 0.01000000000000003
    vertex 0.04150422313593302 0.04591478491399446 0.005
    vertex 0.04 0.04897577057492743 0.009999999999999972
  endloop
endfacet
facet normal 0.897487 0.441041 -6.45714e-16
  outer loop
    vertex 0.04300844627186605 0.0428537992530615 0.02
    vertex 0.04150422313593302 0.04591478491399446 0.015
    vertex 0.04 0.04897577057492743 0.02
  endloop
endfacet
facet normal 0.897487 0.441041 0
  outer loop
    vertex 0.04 0.04897577057492743 0.009999999999999972
    vertex 0.04150422313593302 0.04591478491399446 0.005
    vertex 0.04 0.04897577057492743 0
  endloop
endfacet
facet normal 0.897487 0.441041 0
  outer loop
    vertex 0.04 0.04897577057492743 0.02
    vertex 0.04150422313593302 0.04591478491399446 0.015
    vertex 0.04 0.04897577057492743 0.009999999999999972
  endloop
endfacet
facet normal 0.897487 0.441041 -0
  outer loop
    vertex 0.04300844627186605 0.0428537992530615 0
    vertex 0.04150422313593302 0.04591478491399446 0.005
    vertex 0.04300844627186605 0.0428537992530615 0.01000000000000003
  endloop
endfacet
facet normal 0.897487 0.441041 -0
  outer loop
    vertex 0.04300844627186605 0.0428537992530615 0.01000000000000003
    vertex 0.04150422313593302 0.04591478491399446 0.015
    vertex 0.04300844627186605 0.0428537992530615 0.02
  endloop
endfacet
facet normal 0.870426 0.4923 -1.87873e-15
  outer loop
    vertex 0.04647094362326154 0.03673182793119557 0.01000000000000003
    vertex 0.04473969494756379 0.03979281359212853 0.005
    vertex 0.04300844627186605 0.0428537992530615 0.009999999999999972
  endloop
endfacet
facet normal 0.870426 0.4923 1.87873e-15
  outer loop
    vertex 0.04300844627186605 0.0428537992530615 0.009999999999999972
    vertex 0.04473969494756379 0.03979281359212853 0.015
    vertex 0.04647094362326154 0.03673182793119557 0.01000000000000003
  endloop
endfacet
facet normal 0.870426 0.4923 1.87873e-15
  outer loop
    vertex 0.04300844627186605 0.0428537992530615 0
    vertex 0.04473969494756379 0.03979281359212853 0.005
    vertex 0.04647094362326154 0.03673182793119557 0
  endloop
endfacet
facet normal 0.870426 0.4923 -1.87873e-15
  outer loop
    vertex 0.04647094362326154 0.03673182793119557 0.02
    vertex 0.04473969494756379 0.03979281359212853 0.015
    vertex 0.04300844627186605 0.0428537992530615 0.02
  endloop
endfacet
facet normal 0.870426 0.4923 0
  outer loop
    vertex 0.04300844627186605 0.0428537992530615 0.009999999999999972
    vertex 0.04473969494756379 0.03979281359212853 0.005
    vertex 0.04300844627186605 0.0428537992530615 0
  endloop
endfacet
facet normal 0.870426 0.4923 0
  outer loop
    vertex 0.04300844627186605 0.0428537992530615 0.02
    vertex 0.04473969494756379 0.03979281359212853 0.015
    vertex 0.04300844627186605 0.0428537992530615 0.009999999999999972
  endloop
endfacet
facet normal 0.870426 0.4923 -0
  outer loop
    vertex 0.04647094362326154 0.03673182793119557 0
    vertex 0.04473969494756379 0.03979281359212853 0.005
    vertex 0.04647094362326154 0.03673182793119557 0.01000000000000003
  endloop
endfacet
facet normal 0.870426 0.4923 -0
  outer loop
    vertex 0.04647094362326154 0.03673182793119557 0.01000000000000003
    vertex 0.04473969494756379 0.03979281359212853 0.015
    vertex 0.04647094362326154 0.03673182793119557 0.02
  endloop
endfacet
facet normal 0.50779 -0.861481 4.66796e-16
  outer loop
    vertex 0.04647094362326154 0.03673182793119557 0
    vertex 0.04127788507111439 0.03367084227026261 0.006020408163265301
    vertex 0.03608482651896724 0.03060985660932964 0
  endloop
endfacet
facet normal 0.50779 -0.861481 -5.70013e-16
  outer loop
    vertex 0.03608482651896724 0.03060985660932964 0.02
    vertex 0.04127788507111439 0.03367084227026261 0.01408371511870055
    vertex 0.04647094362326154 0.03673182793119557 0.02
  endloop
endfacet
facet normal 0.50779 -0.861481 0
  outer loop
    vertex 0.04127788507111439 0.03367084227026261 0.006020408163265301
    vertex 0.04127788507111439 0.03367084227026261 0.01408371511870055
    vertex 0.03608482651896724 0.03060985660932964 0.01000000000000003
  endloop
endfacet
facet normal 0.50779 -0.861481 0
  outer loop
    vertex 0.04647094362326154 0.03673182793119557 0.009999999999999972
    vertex 0.04127788507111439 0.03367084227026261 0.01408371511870055
    vertex 0.04127788507111439 0.03367084227026261 0.006020408163265301
  endloop
endfacet
facet normal 0.50779 -0.861481 0
  outer loop
    vertex 0.04647094362326154 0.03673182793119557 0.02
    vertex 0.04127788507111439 0.03367084227026261 0.01408371511870055
    vertex 0.04647094362326154 0.03673182793119557 0.009999999999999972
  endloop
endfacet
facet normal 0.50779 -0.861481 0
  outer loop
    vertex 0.03608482651896724 0.03060985660932964 0
    vertex 0.04127788507111439 0.03367084227026261 0.006020408163265301
    vertex 0.03608482651896724 0.03060985660932964 0.01000000000000003
  endloop
endfacet
facet normal 0.50779 -0.861481 0
  outer loop
    vertex 0.04647094362326154 0.03673182793119557 0.009999999999999972
    vertex 0.04127788507111439 0.03367084227026261 0.006020408163265301
    vertex 0.04647094362326154 0.03673182793119557 0
  endloop
endfacet
facet normal 0.50779 -0.861481 0
  outer loop
    vertex 0.03608482651896724 0.03060985660932964 0.01000000000000003
    vertex 0.04127788507111439 0.03367084227026261 0.01408371511870055
    vertex 0.03608482651896724 0.03060985660932964 0.02
  endloop
endfacet
facet normal 0.945007 -0.327049 0
  outer loop
    vertex 0.03608482651896724 0.03060985660932964 0
    vertex 0.03502547797147806 0.02754887094839668 0.005
    vertex 0.03396612942398887 0.02448788528746371 0
  endloop
endfacet
facet normal 0.945007 -0.327049 0
  outer loop
    vertex 0.03608482651896724 0.03060985660932964 0.009999999999999972
    vertex 0.03502547797147806 0.02754887094839668 0.015
    vertex 0.03396612942398887 0.02448788528746371 0.01000000000000003
  endloop
endfacet
facet normal 0.945007 -0.327049 0
  outer loop
    vertex 0.03396612942398887 0.02448788528746371 0.01000000000000003
    vertex 0.03502547797147806 0.02754887094839668 0.005
    vertex 0.03608482651896724 0.03060985660932964 0.009999999999999972
  endloop
endfacet
facet normal 0.945007 -0.327049 0
  outer loop
    vertex 0.03396612942398887 0.02448788528746371 0.02
    vertex 0.03502547797147806 0.02754887094839668 0.015
    vertex 0.03608482651896724 0.03060985660932964 0.02
  endloop
endfacet
facet normal 0.945007 -0.327049 0
  outer loop
    vertex 0.03608482651896724 0.03060985660932964 0.009999999999999972
    vertex 0.03502547797147806 0.02754887094839668 0.005
    vertex 0.03608482651896724 0.03060985660932964 0
  endloop
endfacet
facet normal 0.945007 -0.327049 0
  outer loop
    vertex 0.03608482651896724 0.03060985660932964 0.02
    vertex 0.03502547797147806 0.02754887094839668 0.015
    vertex 0.03608482651896724 0.03060985660932964 0.009999999999999972
  endloop
endfacet
facet normal 0.945007 -0.327049 0
  outer loop
    vertex 0.03396612942398887 0.02448788528746371 0
    vertex 0.03502547797147806 0.02754887094839668 0.005
    vertex 0.03396612942398887 0.02448788528746371 0.01000000000000003
  endloop
endfacet
facet normal 0.945007 -0.327049 0
  outer loop
    vertex 0.03396612942398887 0.02448788528746371 0.01000000000000003
    vertex 0.03502547797147806 0.02754887094839668 0.015
    vertex 0.03396612942398887 0.02448788528746371 0.02
  endloop
endfacet
facet normal 0.479035 -0.877796 -1.5907e-16
  outer loop
    vertex 0.02835709812144903 0.02142689962653075 0
    vertex 0.03396612942398887 0.02448788528746371 0.009999999999999972
    vertex 0.02274806681890919 0.01836591396559779 0.01000000000000003
  endloop
endfacet
facet normal 0.479035 -0.877796 -1.5907e-16
  outer loop
    vertex 0.02274806681890919 0.01836591396559779 0.01000000000000003
    vertex 0.03396612942398887 0.02448788528746371 0.009999999999999972
    vertex 0.02835709812144903 0.02142689962653075 0.02
  endloop
endfacet
facet normal 0.479035 -0.877796 0
  outer loop
    vertex 0.02835709812144903 0.02142689962653075 0
    vertex 0.03396612942398887 0.02448788528746371 0
    vertex 0.03396612942398887 0.02448788528746371 0.009999999999999972
  endloop
endfacet
facet normal 0.479035 -0.877796 0
  outer loop
    vertex 0.03396612942398887 0.02448788528746371 0.009999999999999972
    vertex 0.03396612942398887 0.02448788528746371 0.02
    vertex 0.02835709812144903 0.02142689962653075 0.02
  endloop
endfacet
facet normal 0.479035 -0.877796 0
  outer loop
    vertex 0.02274806681890919 0.01836591396559779 0.01000000000000003
    vertex 0.02274806681890919 0.01836591396559779 0
    vertex 0.02835709812144903 0.02142689962653075 0
  endloop
endfacet
facet normal 0.479035 -0.877796 0
  outer loop
    vertex 0.02835709812144903 0.02142689962653075 0.02
    vertex 0.02274806681890919 0.01836591396559779 0.02
    vertex 0.02274806681890919 0.01836591396559779 0.01000000000000003
  endloop
endfacet
facet normal 0.29044 0.956893 0
  outer loop
    vertex 0.02274806681890919 0.01836591396559779 0.009999999999999972
    vertex 0.03043737697237356 0.01603202843768519 0.007915263106899252
    vertex 0.02274806681890919 0.01836591396559779 0
  endloop
endfacet
facet normal 0.29044 0.956893 -2.03076e-16
  outer loop
    vertex 0.02274806681890919 0.01836591396559779 0
    vertex 0.03043737697237356 0.01603202843768519 0.007915263106899252
    vertex 0.03283290938754702 0.01530492830466482 0
  endloop
endfacet
facet normal 0.29044 0.956893 3.06287e-16
  outer loop
    vertex 0.04291775195618485 0.01224394264373185 0.02
    vertex 0.03592035111198769 0.01436781750862038 0.01265275910269358
    vertex 0.03283290938754702 0.01530492830466482 0.02
  endloop
endfacet
facet normal 0.29044 0.956893 -0
  outer loop
    vertex 0.04291775195618485 0.01224394264373185 0.01000000000000003
    vertex 0.03592035111198769 0.01436781750862038 0.01265275910269358
    vertex 0.04291775195618485 0.01224394264373185 0.02
  endloop
endfacet
facet normal 0.29044 0.956893 3.21481e-16
  outer loop
    vertex 0.03283290938754702 0.01530492830466482 0.02
    vertex 0.0277904881032281 0.01683542113513131 0.01499999999999999
    vertex 0.02274806681890919 0.01836591396559779 0.02
  endloop
endfacet
facet normal 0.29044 0.956893 0
  outer loop
    vertex 0.03283290938754702 0.01530492830466482 0
    vertex 0.03705961082784728 0.01402202553114623 0.006009164410621378
    vertex 0.04291775195618485 0.01224394264373185 0
  endloop
endfacet
facet normal 0.29044 0.956893 0
  outer loop
    vertex 0.02274806681890919 0.01836591396559779 0.02
    vertex 0.0277904881032281 0.01683542113513131 0.01499999999999999
    vertex 0.02274806681890919 0.01836591396559779 0.009999999999999972
  endloop
endfacet
facet normal 0.29044 0.956893 -0
  outer loop
    vertex 0.04291775195618485 0.01224394264373185 0
    vertex 0.03705961082784728 0.01402202553114623 0.006009164410621378
    vertex 0.04291775195618485 0.01224394264373185 0.01000000000000003
  endloop
endfacet
facet normal 0.29044 0.956893 3.86072e-16
  outer loop
    vertex 0.03592035111198769 0.01436781750862038 0.01265275910269358
    vertex 0.0277904881032281 0.01683542113513131 0.01499999999999999
    vertex 0.03283290938754702 0.01530492830466482 0.02
  endloop
endfacet
facet normal 0.29044 0.956893 1.73508e-16
  outer loop
    vertex 0.03043737697237356 0.01603202843768519 0.007915263106899252
    vertex 0.0277904881032281 0.01683542113513131 0.01499999999999999
    vertex 0.03592035111198769 0.01436781750862038 0.01265275910269358
  endloop
endfacet
facet normal 0.29044 0.956893 -1.10101e-16
  outer loop
    vertex 0.03283290938754702 0.01530492830466482 0
    vertex 0.03043737697237356 0.01603202843768519 0.007915263106899252
    vertex 0.03705961082784728 0.01402202553114623 0.006009164410621378
  endloop
endfacet
facet normal 0.29044 0.956893 9.93311e-17
  outer loop
    vertex 0.02274806681890919 0.01836591396559779 0.009999999999999972
    vertex 0.0277904881032281 0.01683542113513131 0.01499999999999999
    vertex 0.03043737697237356 0.01603202843768519 0.007915263106899252
  endloop
endfacet
facet normal 0.29044 0.956893 -1.16276e-16
  outer loop
    vertex 0.03043737697237356 0.01603202843768519 0.007915263106899252
    vertex 0.03592035111198769 0.01436781750862038 0.01265275910269358
    vertex 0.03705961082784728 0.01402202553114623 0.006009164410621378
  endloop
endfacet
facet normal 0.29044 0.956893 -1.30531e-16
  outer loop
    vertex 0.03705961082784728 0.01402202553114623 0.006009164410621378
    vertex 0.03592035111198769 0.01436781750862038 0.01265275910269358
    vertex 0.04291775195618485 0.01224394264373185 0.01000000000000003
  endloop
endfacet
facet normal 0.793573 0.608476 0
  outer loop
    vertex 0.04291775195618485 0.01224394264373185 0.02
    vertex 0.04526477793193678 0.009182956982798886 0.015
    vertex 0.04291775195618485 0.01224394264373185 0.009999999999999972
  endloop
endfacet
facet normal 0.793573 0.608476 -0
  outer loop
    vertex 0.04761180390768872 0.006121971321865927 0
    vertex 0.04526477793193678 0.009182956982798888 0.005
    vertex 0.04761180390768872 0.006121971321865927 0.01000000000000003
  endloop
endfacet
facet normal 0.793573 0.608476 0
  outer loop
    vertex 0.04291775195618485 0.01224394264373185 0.009999999999999972
    vertex 0.04526477793193678 0.009182956982798888 0.005
    vertex 0.04291775195618485 0.01224394264373185 0
  endloop
endfacet
facet normal 0.793573 0.608476 -0
  outer loop
    vertex 0.04761180390768872 0.006121971321865927 0.01000000000000003
    vertex 0.04526477793193678 0.009182956982798886 0.015
    vertex 0.04761180390768872 0.006121971321865927 0.02
  endloop
endfacet
facet normal 0.793573 0.608476 -9.66225e-16
  outer loop
    vertex 0.04761180390768872 0.006121971321865927 0.02
    vertex 0.04526477793193678 0.009182956982798886 0.015
    vertex 0.04291775195618485 0.01224394264373185 0.02
  endloop
endfacet
facet normal 0.793573 0.608476 -7.46628e-16
  outer loop
    vertex 0.04761180390768872 0.006121971321865927 0.01000000000000003
    vertex 0.04526477793193678 0.009182956982798888 0.005
    vertex 0.04291775195618485 0.01224394264373185 0.009999999999999972
  endloop
endfacet
facet normal 0.793573 0.608476 7.46628e-16
  outer loop
    vertex 0.04291775195618485 0.01224394264373185 0
    vertex 0.04526477793193678 0.009182956982798888 0.005
    vertex 0.04761180390768872 0.006121971321865927 0
  endloop
endfacet
facet normal 0.793573 0.608476 9.66225e-16
  outer loop
    vertex 0.04291775195618485 0.01224394264373185 0.009999999999999972
    vertex 0.04526477793193678 0.009182956982798886 0.015
    vertex 0.04761180390768872 0.006121971321865927 0.01000000000000003
  endloop
endfacet
endsolid Created by Gmsh
