solid Created by Gmsh
facet normal -0.358338 0.933592 1.00708e-15
  outer loop
    vertex 0.01655549091435614 0.05080003064845975 0.02
    vertex 0.02600916157726892 0.05442860426620687 0.02
    vertex 0.02321562971188788 0.05335637143850498 0.01269066829760165
  endloop
endfacet
facet normal -0.358338 0.933592 0
  outer loop
    vertex 0.03546283224018171 0.05805717788395401 0.009999999999999972
    vertex 0.03546283224018171 0.05805717788395401 0
    vertex 0.02834332492835943 0.05532451907615539 0.007595191331333558
  endloop
endfacet
facet normal -0.358338 0.933592 -6.16746e-16
  outer loop
    vertex 0.03546283224018171 0.05805717788395401 0
    vertex 0.02600916157726894 0.05442860426620689 0
    vertex 0.02834332492835943 0.05532451907615539 0.007595191331333558
  endloop
endfacet
facet normal -0.358338 0.933592 0
  outer loop
    vertex 0.01655549091435614 0.05080003064845975 0.01000000000000003
    vertex 0.01655549091435614 0.05080003064845975 0.02
    vertex 0.02321562971188788 0.05335637143850498 0.01269066829760165
  endloop
endfacet
facet normal -0.358338 0.933592 1.50943e-15
  outer loop
    vertex 0.02600916157726892 0.05442860426620687 0.02
    vertex 0.03546283224018171 0.05805717788395401 0.02
    vertex 0.03023654725319815 0.05605118883496028 0.01445827617529778
  endloop
endfacet
facet normal -0.358338 0.933592 -9.34793e-16
  outer loop
    vertex 0.02600916157726894 0.05442860426620689 0
    vertex 0.01655549091435614 0.05080003064845975 0
    vertex 0.02209412292267207 0.05292590690334431 0.005905892722186393
  endloop
endfacet
facet normal -0.358338 0.933592 0
  outer loop
    vertex 0.03546283224018171 0.05805717788395401 0.02
    vertex 0.03546283224018171 0.05805717788395401 0.009999999999999972
    vertex 0.03023654725319815 0.05605118883496028 0.01445827617529778
  endloop
endfacet
facet normal -0.358338 0.933592 0
  outer loop
    vertex 0.01655549091435614 0.05080003064845975 0
    vertex 0.01655549091435614 0.05080003064845975 0.01000000000000003
    vertex 0.02209412292267207 0.05292590690334431 0.005905892722186393
  endloop
endfacet
facet normal -0.358338 0.933592 1.2958e-15
  outer loop
    vertex 0.02321562971188788 0.05335637143850498 0.01269066829760165
    vertex 0.02600916157726892 0.05442860426620687 0.02
    vertex 0.03023654725319815 0.05605118883496028 0.01445827617529778
  endloop
endfacet
facet normal -0.358338 0.933592 -6.45044e-16
  outer loop
    vertex 0.02600916157726894 0.05442860426620689 0
    vertex 0.02209412292267207 0.05292590690334431 0.005905892722186393
    vertex 0.02834332492835943 0.05532451907615539 0.007595191331333558
  endloop
endfacet
facet normal -0.358338 0.933592 -5.29086e-17
  outer loop
    vertex 0.02834332492835943 0.05532451907615539 0.007595191331333558
    vertex 0.02321562971188788 0.05335637143850498 0.01269066829760165
    vertex 0.03023654725319815 0.05605118883496028 0.01445827617529778
  endloop
endfacet
facet normal -0.358338 0.933592 1.56185e-16
  outer loop
    vertex 0.02834332492835943 0.05532451907615539 0.007595191331333558
    vertex 0.02209412292267207 0.05292590690334431 0.005905892722186393
    vertex 0.02321562971188788 0.05335637143850498 0.01269066829760165
  endloop
endfacet
facet normal -0.358338 0.933592 -3.92635e-16
  outer loop
    vertex 0.03546283224018171 0.05805717788395401 0.009999999999999972
    vertex 0.02834332492835943 0.05532451907615539 0.007595191331333558
    vertex 0.03023654725319815 0.05605118883496028 0.01445827617529778
  endloop
endfacet
facet normal -0.358338 0.933592 3.09413e-16
  outer loop
    vertex 0.02209412292267207 0.05292590690334431 0.005905892722186393
    vertex 0.01655549091435614 0.05080003064845975 0.01000000000000003
    vertex 0.02321562971188788 0.05335637143850498 0.01269066829760165
  endloop
endfacet
facet normal -0.816803 -0.576916 -0
  outer loop
    vertex 0.01655549091435614 0.05080003064845975 0.02
    vertex 0.01655549091435614 0.05080003064845975 0.009999999999999972
    vertex 0.01911838751837324 0.04717145703071263 0.015
  endloop
endfacet
facet normal -0.816803 -0.576916 0
  outer loop
    vertex 0.02168128412239035 0.04354288341296551 0
    vertex 0.02168128412239035 0.04354288341296551 0.01000000000000003
    vertex 0.01911838751837324 0.04717145703071263 0.005
  endloop
endfacet
facet normal -0.816803 -0.576916 -0
  outer loop
    vertex 0.01655549091435614 0.05080003064845975 0.009999999999999972
    vertex 0.01655549091435614 0.05080003064845975 0
    vertex 0.01911838751837324 0.04717145703071263 0.005
  endloop
endfacet
facet normal -0.816803 -0.576916 0
  outer loop
    vertex 0.02168128412239035 0.04354288341296551 0.01000000000000003
    vertex 0.02168128412239035 0.04354288341296551 0.02
    vertex 0.01911838751837324 0.04717145703071263 0.015
  endloop
endfacet
facet normal -0.816803 -0.576916 -1.52536e-16
  outer loop
    vertex 0.01655549091435614 0.05080003064845975 0
    vertex 0.02168128412239035 0.04354288341296551 0
    vertex 0.01911838751837324 0.04717145703071263 0.005
  endloop
endfacet
facet normal -0.816803 -0.576916 1.52536e-16
  outer loop
    vertex 0.02168128412239035 0.04354288341296551 0.01000000000000003
    vertex 0.01655549091435614 0.05080003064845975 0.009999999999999972
    vertex 0.01911838751837324 0.04717145703071263 0.005
  endloop
endfacet
facet normal -0.816803 -0.576916 -1.52536e-16
  outer loop
    vertex 0.01655549091435614 0.05080003064845975 0.009999999999999972
    vertex 0.02168128412239035 0.04354288341296551 0.01000000000000003
    vertex 0.01911838751837324 0.04717145703071263 0.015
  endloop
endfacet
facet normal -0.816803 -0.576916 1.52536e-16
  outer loop
    vertex 0.02168128412239035 0.04354288341296551 0.02
    vertex 0.01655549091435614 0.05080003064845975 0.02
    vertex 0.01911838751837324 0.04717145703071263 0.015
  endloop
endfacet
facet normal -0.62356 -0.781776 4.89604e-16
  outer loop
    vertex 0.0307797941492627 0.03628573617747126 0.02
    vertex 0.02168128412239035 0.04354288341296551 0.02
    vertex 0.02623053913582652 0.03991430979521838 0.01405396560956745
  endloop
endfacet
facet normal -0.62356 -0.781776 -4.06531e-16
  outer loop
    vertex 0.02168128412239035 0.04354288341296551 0
    vertex 0.0307797941492627 0.03628573617747126 0
    vertex 0.02623053913582652 0.03991430979521838 0.005728862973760926
  endloop
endfacet
facet normal -0.62356 -0.781776 0
  outer loop
    vertex 0.02168128412239035 0.04354288341296551 0.009999999999999972
    vertex 0.02623053913582652 0.03991430979521838 0.005728862973760926
    vertex 0.02623053913582652 0.03991430979521838 0.01405396560956745
  endloop
endfacet
facet normal -0.62356 -0.781776 -0
  outer loop
    vertex 0.02168128412239035 0.04354288341296551 0.02
    vertex 0.02168128412239035 0.04354288341296551 0.009999999999999972
    vertex 0.02623053913582652 0.03991430979521838 0.01405396560956745
  endloop
endfacet
facet normal -0.62356 -0.781776 0
  outer loop
    vertex 0.02623053913582652 0.03991430979521838 0.005728862973760926
    vertex 0.0307797941492627 0.03628573617747126 0.01000000000000003
    vertex 0.02623053913582652 0.03991430979521838 0.01405396560956745
  endloop
endfacet
facet normal -0.62356 -0.781776 0
  outer loop
    vertex 0.0307797941492627 0.03628573617747126 0
    vertex 0.0307797941492627 0.03628573617747126 0.01000000000000003
    vertex 0.02623053913582652 0.03991430979521838 0.005728862973760926
  endloop
endfacet
facet normal -0.62356 -0.781776 -0
  outer loop
    vertex 0.02168128412239035 0.04354288341296551 0.009999999999999972
    vertex 0.02168128412239035 0.04354288341296551 0
    vertex 0.02623053913582652 0.03991430979521838 0.005728862973760926
  endloop
endfacet
facet normal -0.62356 -0.781776 0
  outer loop
    vertex 0.0307797941492627 0.03628573617747126 0.01000000000000003
    vertex 0.0307797941492627 0.03628573617747126 0.02
    vertex 0.02623053913582652 0.03991430979521838 0.01405396560956745
  endloop
endfacet
facet normal -0.745819 -0.666149 -0
  outer loop
    vertex 0.0307797941492627 0.03628573617747126 0.02
    vertex 0.0307797941492627 0.03628573617747126 0.009999999999999972
    vertex 0.03402075806005631 0.03265716255972412 0.015
  endloop
endfacet
facet normal -0.745819 -0.666149 0
  outer loop
    vertex 0.03726172197084993 0.029028588941977 0
    vertex 0.03726172197084993 0.029028588941977 0.01000000000000003
    vertex 0.03402075806005631 0.03265716255972412 0.005000000000000001
  endloop
endfacet
facet normal -0.745819 -0.666149 -0
  outer loop
    vertex 0.0307797941492627 0.03628573617747126 0.009999999999999972
    vertex 0.0307797941492627 0.03628573617747126 0
    vertex 0.03402075806005631 0.03265716255972412 0.005000000000000001
  endloop
endfacet
facet normal -0.745819 -0.666149 0
  outer loop
    vertex 0.03726172197084993 0.029028588941977 0.01000000000000003
    vertex 0.03726172197084993 0.029028588941977 0.02
    vertex 0.03402075806005631 0.03265716255972412 0.015
  endloop
endfacet
facet normal -0.745819 -0.666149 1.18388e-15
  outer loop
    vertex 0.03726172197084993 0.029028588941977 0.01000000000000003
    vertex 0.0307797941492627 0.03628573617747126 0.009999999999999972
    vertex 0.03402075806005631 0.03265716255972412 0.005000000000000001
  endloop
endfacet
facet normal -0.745819 -0.666149 1.18388e-15
  outer loop
    vertex 0.03726172197084993 0.029028588941977 0.02
    vertex 0.0307797941492627 0.03628573617747126 0.02
    vertex 0.03402075806005631 0.03265716255972412 0.015
  endloop
endfacet
facet normal -0.745819 -0.666149 -1.18388e-15
  outer loop
    vertex 0.0307797941492627 0.03628573617747126 0.009999999999999972
    vertex 0.03726172197084993 0.029028588941977 0.01000000000000003
    vertex 0.03402075806005631 0.03265716255972412 0.015
  endloop
endfacet
facet normal -0.745819 -0.666149 -1.18388e-15
  outer loop
    vertex 0.0307797941492627 0.03628573617747126 0
    vertex 0.03726172197084993 0.029028588941977 0
    vertex 0.03402075806005631 0.03265716255972412 0.005000000000000001
  endloop
endfacet
facet normal -0.356319 0.934364 -7.75845e-16
  outer loop
    vertex 0.01823154503563595 0.02177144170648275 0.02
    vertex 0.02774663350324293 0.02540001532422987 0.02
    vertex 0.024931314415302 0.02432639497873123 0.01270983434525538
  endloop
endfacet
facet normal -0.356319 0.934364 0
  outer loop
    vertex 0.03726172197084993 0.029028588941977 0.009999999999999972
    vertex 0.03726172197084993 0.029028588941977 0
    vertex 0.03008293029665979 0.02629096078802456 0.007638879564217415
  endloop
endfacet
facet normal -0.356319 0.934364 8.27537e-16
  outer loop
    vertex 0.03726172197084993 0.029028588941977 0
    vertex 0.02774663350324295 0.02540001532422988 0
    vertex 0.03008293029665979 0.02629096078802456 0.007638879564217415
  endloop
endfacet
facet normal -0.356319 0.934364 0
  outer loop
    vertex 0.01823154503563595 0.02177144170648275 0.01000000000000003
    vertex 0.01823154503563595 0.02177144170648275 0.02
    vertex 0.024931314415302 0.02432639497873123 0.01270983434525538
  endloop
endfacet
facet normal -0.356319 0.934364 -7.859e-16
  outer loop
    vertex 0.02774663350324293 0.02540001532422987 0.02
    vertex 0.03726172197084993 0.029028588941977 0.02
    vertex 0.03204219616540773 0.02703812572145572 0.01449649353960793
  endloop
endfacet
facet normal -0.356319 0.934364 9.83506e-16
  outer loop
    vertex 0.02774663350324295 0.02540001532422988 0
    vertex 0.01823154503563595 0.02177144170648275 0
    vertex 0.02379927387252105 0.02389469195655342 0.005920042026957052
  endloop
endfacet
facet normal -0.356319 0.934364 0
  outer loop
    vertex 0.03726172197084993 0.029028588941977 0.02
    vertex 0.03726172197084993 0.029028588941977 0.009999999999999972
    vertex 0.03204219616540773 0.02703812572145572 0.01449649353960793
  endloop
endfacet
facet normal -0.356319 0.934364 0
  outer loop
    vertex 0.01823154503563595 0.02177144170648275 0
    vertex 0.01823154503563595 0.02177144170648275 0.01000000000000003
    vertex 0.02379927387252105 0.02389469195655342 0.005920042026957052
  endloop
endfacet
facet normal -0.356319 0.934364 -7.1012e-16
  outer loop
    vertex 0.024931314415302 0.02432639497873123 0.01270983434525538
    vertex 0.02774663350324293 0.02540001532422987 0.02
    vertex 0.03204219616540773 0.02703812572145572 0.01449649353960793
  endloop
endfacet
facet normal -0.356319 0.934364 8.81686e-16
  outer loop
    vertex 0.02774663350324295 0.02540001532422988 0
    vertex 0.02379927387252105 0.02389469195655342 0.005920042026957052
    vertex 0.03008293029665979 0.02629096078802456 0.007638879564217415
  endloop
endfacet
facet normal -0.356319 0.934364 -5.24557e-17
  outer loop
    vertex 0.03008293029665979 0.02629096078802456 0.007638879564217415
    vertex 0.024931314415302 0.02432639497873123 0.01270983434525538
    vertex 0.03204219616540773 0.02703812572145572 0.01449649353960793
  endloop
endfacet
facet normal -0.356319 0.934364 1.41951e-16
  outer loop
    vertex 0.03726172197084993 0.029028588941977 0.009999999999999972
    vertex 0.03008293029665979 0.02629096078802456 0.007638879564217415
    vertex 0.03204219616540773 0.02703812572145572 0.01449649353960793
  endloop
endfacet
facet normal -0.356319 0.934364 7.77464e-17
  outer loop
    vertex 0.03008293029665979 0.02629096078802456 0.007638879564217415
    vertex 0.02379927387252105 0.02389469195655342 0.005920042026957052
    vertex 0.024931314415302 0.02432639497873123 0.01270983434525538
  endloop
endfacet
facet normal -0.356319 0.934364 -7.46245e-17
  outer loop
    vertex 0.02379927387252105 0.02389469195655342 0.005920042026957052
    vertex 0.01823154503563595 0.02177144170648275 0.01000000000000003
    vertex 0.024931314415302 0.02432639497873123 0.01270983434525538
  endloop
endfacet
facet normal -0.30427 -0.952586 0
  outer loop
    vertex 0.04095169155155132 0.0145142944709885 0
    vertex 0.04095169155155132 0.0145142944709885 0.01000000000000003
    vertex 0.03201010235915192 0.01737036889124328 0.009083167909709099
  endloop
endfacet
facet normal -0.30427 -0.952586 -1.87671e-16
  outer loop
    vertex 0.02959161829359365 0.01814286808873562 0
    vertex 0.04095169155155132 0.0145142944709885 0
    vertex 0.03201010235915192 0.01737036889124328 0.009083167909709099
  endloop
endfacet
facet normal -0.30427 -0.952586 9.77957e-16
  outer loop
    vertex 0.04095169155155132 0.0145142944709885 0.02
    vertex 0.02959161829359363 0.01814286808873563 0.02
    vertex 0.03587627593896205 0.01613545648048897 0.01477079197742728
  endloop
endfacet
facet normal -0.30427 -0.952586 2.01712e-16
  outer loop
    vertex 0.02959161829359363 0.01814286808873563 0.02
    vertex 0.01823154503563595 0.02177144170648275 0.02
    vertex 0.02492558250816887 0.01963326819144589 0.01295757590862469
  endloop
endfacet
facet normal -0.30427 -0.952586 -4.00778e-16
  outer loop
    vertex 0.01823154503563595 0.02177144170648275 0
    vertex 0.02959161829359365 0.01814286808873562 0
    vertex 0.02467667957325285 0.01971277143077434 0.006380011278456657
  endloop
endfacet
facet normal -0.30427 -0.952586 -0
  outer loop
    vertex 0.01823154503563595 0.02177144170648275 0.02
    vertex 0.01823154503563595 0.02177144170648275 0.009999999999999972
    vertex 0.02492558250816887 0.01963326819144589 0.01295757590862469
  endloop
endfacet
facet normal -0.30427 -0.952586 1.87437e-16
  outer loop
    vertex 0.02959161829359363 0.01814286808873563 0.02
    vertex 0.03201010235915192 0.01737036889124328 0.009083167909709099
    vertex 0.03587627593896205 0.01613545648048897 0.01477079197742728
  endloop
endfacet
facet normal -0.30427 -0.952586 3.32386e-16
  outer loop
    vertex 0.03201010235915192 0.01737036889124328 0.009083167909709099
    vertex 0.02959161829359363 0.01814286808873563 0.02
    vertex 0.02492558250816887 0.01963326819144589 0.01295757590862469
  endloop
endfacet
facet normal -0.30427 -0.952586 0
  outer loop
    vertex 0.04095169155155132 0.0145142944709885 0.01000000000000003
    vertex 0.04095169155155132 0.0145142944709885 0.02
    vertex 0.03587627593896205 0.01613545648048897 0.01477079197742728
  endloop
endfacet
facet normal -0.30427 -0.952586 -0
  outer loop
    vertex 0.01823154503563595 0.02177144170648275 0.009999999999999972
    vertex 0.01823154503563595 0.02177144170648275 0
    vertex 0.02467667957325285 0.01971277143077434 0.006380011278456657
  endloop
endfacet
facet normal -0.30427 -0.952586 -1.88041e-16
  outer loop
    vertex 0.02467667957325285 0.01971277143077434 0.006380011278456657
    vertex 0.02959161829359365 0.01814286808873562 0
    vertex 0.03201010235915192 0.01737036889124328 0.009083167909709099
  endloop
endfacet
facet normal -0.30427 -0.952586 -5.79848e-16
  outer loop
    vertex 0.03201010235915192 0.01737036889124328 0.009083167909709099
    vertex 0.04095169155155132 0.0145142944709885 0.01000000000000003
    vertex 0.03587627593896205 0.01613545648048897 0.01477079197742728
  endloop
endfacet
facet normal -0.30427 -0.952586 3.39284e-16
  outer loop
    vertex 0.02467667957325285 0.01971277143077434 0.006380011278456657
    vertex 0.03201010235915192 0.01737036889124328 0.009083167909709099
    vertex 0.02492558250816887 0.01963326819144589 0.01295757590862469
  endloop
endfacet
facet normal -0.30427 -0.952586 3.35464e-16
  outer loop
    vertex 0.01823154503563595 0.02177144170648275 0.009999999999999972
    vertex 0.02467667957325285 0.01971277143077434 0.006380011278456657
    vertex 0.02492558250816887 0.01963326819144589 0.01295757590862469
  endloop
endfacet
facet normal -0.638748 0.769416 0
  outer loop
    vertex 0.04095169155155132 0.0145142944709885 0
    vertex 0.03220996220576101 0.007257147235494255 0
    vertex 0.03658082687865617 0.01088572085324138 0.005728862973760926
  endloop
endfacet
facet normal -0.638748 0.769416 0
  outer loop
    vertex 0.03220996220576101 0.007257147235494255 0.02
    vertex 0.04095169155155132 0.0145142944709885 0.02
    vertex 0.03658082687865617 0.01088572085324138 0.01432426114969104
  endloop
endfacet
facet normal -0.638748 0.769416 0
  outer loop
    vertex 0.04095169155155132 0.0145142944709885 0.009999999999999972
    vertex 0.03658082687865617 0.01088572085324138 0.005728862973760926
    vertex 0.03658082687865617 0.01088572085324138 0.01432426114969104
  endloop
endfacet
facet normal -0.638748 0.769416 0
  outer loop
    vertex 0.03658082687865617 0.01088572085324138 0.005728862973760926
    vertex 0.03220996220576101 0.007257147235494255 0.01000000000000003
    vertex 0.03658082687865617 0.01088572085324138 0.01432426114969104
  endloop
endfacet
facet normal -0.638748 0.769416 0
  outer loop
    vertex 0.04095169155155132 0.0145142944709885 0.02
    vertex 0.04095169155155132 0.0145142944709885 0.009999999999999972
    vertex 0.03658082687865617 0.01088572085324138 0.01432426114969104
  endloop
endfacet
facet normal -0.638748 0.769416 0
  outer loop
    vertex 0.03220996220576101 0.007257147235494255 0
    vertex 0.03220996220576101 0.007257147235494255 0.01000000000000003
    vertex 0.03658082687865617 0.01088572085324138 0.005728862973760926
  endloop
endfacet
facet normal -0.638748 0.769416 0
  outer loop
    vertex 0.04095169155155132 0.0145142944709885 0.009999999999999972
    vertex 0.04095169155155132 0.0145142944709885 0
    vertex 0.03658082687865617 0.01088572085324138 0.005728862973760926
  endloop
endfacet
facet normal -0.638748 0.769416 0
  outer loop
    vertex 0.03220996220576101 0.007257147235494255 0.01000000000000003
    vertex 0.03220996220576101 0.007257147235494255 0.02
    vertex 0.03658082687865617 0.01088572085324138 0.01432426114969104
  endloop
endfacet
endsolid Created by Gmsh
