solid Created by Gmsh
facet normal 0.994456 -0.105155 8.73783e-17
  outer loop
    vertex 0.009236027472533994 0.01168912793879982 0
    vertex 0.008927020604400491 0.008766845954099829 0.0115459131029378
    vertex 0.008 0 0
  endloop
endfacet
facet normal 0.994456 -0.105155 -2.34049e-16
  outer loop
    vertex 0.01294410989013596 0.04675651175519914 0.02
    vertex 0.01325311675826946 0.04967879373989913 0.008454086897062205
    vertex 0.01418013736266996 0.05844563969399896 0.02
  endloop
endfacet
facet normal 0.994456 -0.105155 0
  outer loop
    vertex 0.01418013736266996 0.05844563969399896 0.009999999999999972
    vertex 0.01325311675826946 0.04967879373989913 0.008454086897062205
    vertex 0.01418013736266996 0.05844563969399896 0
  endloop
endfacet
facet normal 0.994456 -0.105155 0
  outer loop
    vertex 0.008 0 0.01000000000000003
    vertex 0.008927020604400491 0.008766845954099829 0.0115459131029378
    vertex 0.008 0 0.02
  endloop
endfacet
facet normal 0.994456 -0.105155 1.02286e-16
  outer loop
    vertex 0.01418013736266996 0.05844563969399896 0
    vertex 0.01325311675826946 0.04967879373989913 0.008454086897062205
    vertex 0.01294410989013597 0.0467565117551992 0
  endloop
endfacet
facet normal 0.994456 -0.105155 -1.5343e-16
  outer loop
    vertex 0.008 0 0.02
    vertex 0.008927020604400491 0.008766845954099829 0.0115459131029378
    vertex 0.009236027472533988 0.01168912793879977 0.02
  endloop
endfacet
facet normal 0.994456 -0.105155 1.37319e-16
  outer loop
    vertex 0.01170808241760198 0.03506738381639942 0
    vertex 0.01227496740280575 0.04042842251972747 0.009744210843328795
    vertex 0.01109230304308914 0.02924395023526865 0.01001117816291057
  endloop
endfacet
facet normal 0.994456 -0.105155 -1.93343e-16
  outer loop
    vertex 0.01109230304308914 0.02924395023526865 0.01001117816291057
    vertex 0.01227496740280575 0.04042842251972747 0.009744210843328795
    vertex 0.01170808241760197 0.03506738381639932 0.02
  endloop
endfacet
facet normal 0.994456 -0.105155 2.01547e-16
  outer loop
    vertex 0.01170808241760198 0.03506738381639942 0
    vertex 0.01109230304308914 0.02924395023526865 0.01001117816291057
    vertex 0.01047205494506799 0.02337825587759965 0
  endloop
endfacet
facet normal 0.994456 -0.105155 2.24805e-16
  outer loop
    vertex 0.01047205494506799 0.02337825587759965 0
    vertex 0.0099055423534899 0.01802073890564967 0.01025765218382297
    vertex 0.009236027472533994 0.01168912793879982 0
  endloop
endfacet
facet normal 0.994456 -0.105155 2.70162e-16
  outer loop
    vertex 0.01047205494506799 0.02337825587759965 0
    vertex 0.01109230304308914 0.02924395023526865 0.01001117816291057
    vertex 0.0099055423534899 0.01802073890564967 0.01025765218382297
  endloop
endfacet
facet normal 0.994456 -0.105155 -1.9674e-16
  outer loop
    vertex 0.01170808241760197 0.03506738381639932 0.02
    vertex 0.01227496740280575 0.04042842251972747 0.009744210843328795
    vertex 0.01294410989013596 0.04675651175519914 0.02
  endloop
endfacet
facet normal 0.994456 -0.105155 5.91626e-17
  outer loop
    vertex 0.01294410989013597 0.0467565117551992 0
    vertex 0.01227496740280575 0.04042842251972747 0.009744210843328795
    vertex 0.01170808241760198 0.03506738381639942 0
  endloop
endfacet
facet normal 0.994456 -0.105155 -2.07109e-16
  outer loop
    vertex 0.009236027472533988 0.01168912793879977 0.02
    vertex 0.0099055423534899 0.01802073890564967 0.01025765218382297
    vertex 0.01047205494506798 0.02337825587759954 0.02
  endloop
endfacet
facet normal 0.994456 -0.105155 -1.94784e-16
  outer loop
    vertex 0.01047205494506798 0.02337825587759954 0.02
    vertex 0.01109230304308914 0.02924395023526865 0.01001117816291057
    vertex 0.01170808241760197 0.03506738381639932 0.02
  endloop
endfacet
facet normal 0.994456 -0.105155 -2.05521e-16
  outer loop
    vertex 0.0099055423534899 0.01802073890564967 0.01025765218382297
    vertex 0.01109230304308914 0.02924395023526865 0.01001117816291057
    vertex 0.01047205494506798 0.02337825587759954 0.02
  endloop
endfacet
facet normal 0.994456 -0.105155 9.80602e-17
  outer loop
    vertex 0.0099055423534899 0.01802073890564967 0.01025765218382297
    vertex 0.008927020604400491 0.008766845954099829 0.0115459131029378
    vertex 0.009236027472533994 0.01168912793879982 0
  endloop
endfacet
facet normal 0.994456 -0.105155 -2.53435e-16
  outer loop
    vertex 0.01227496740280575 0.04042842251972747 0.009744210843328795
    vertex 0.01325311675826946 0.04967879373989913 0.008454086897062205
    vertex 0.01294410989013596 0.04675651175519914 0.02
  endloop
endfacet
facet normal 0.994456 -0.105155 -1.48954e-16
  outer loop
    vertex 0.009236027472533988 0.01168912793879977 0.02
    vertex 0.008927020604400491 0.008766845954099829 0.0115459131029378
    vertex 0.0099055423534899 0.01802073890564967 0.01025765218382297
  endloop
endfacet
facet normal 0.994456 -0.105155 4.62407e-17
  outer loop
    vertex 0.01294410989013597 0.0467565117551992 0
    vertex 0.01325311675826946 0.04967879373989913 0.008454086897062205
    vertex 0.01227496740280575 0.04042842251972747 0.009744210843328795
  endloop
endfacet
facet normal 0.994456 -0.105155 0
  outer loop
    vertex 0.008 0 0
    vertex 0.008927020604400491 0.008766845954099829 0.0115459131029378
    vertex 0.008 0 0.01000000000000003
  endloop
endfacet
facet normal 0.994456 -0.105155 0
  outer loop
    vertex 0.01418013736266996 0.05844563969399896 0.02
    vertex 0.01325311675826946 0.04967879373989913 0.008454086897062205
    vertex 0.01418013736266996 0.05844563969399896 0.009999999999999972
  endloop
endfacet
endsolid Created by Gmsh
