solid Created by Gmsh
facet normal 0.998175 0.0603898 0
  outer loop
    vertex 0.00663869332148803 0.02250085871922879 0
    vertex 0.007042424432533035 0.01582764038160124 0.01039749514328594
    vertex 0.007319346660744016 0.01125042935961438 0
  endloop
endfacet
facet normal 0.998175 0.0603898 5.04668e-17
  outer loop
    vertex 0.006638693321488034 0.0225008587192287 0.02
    vertex 0.006224394803540196 0.02934874433315962 0.009576093555836284
    vertex 0.005958039982232048 0.03375128807884311 0.02
  endloop
endfacet
facet normal 0.998175 0.0603898 0
  outer loop
    vertex 0.005277386642976064 0.04500171743845749 0.02
    vertex 0.005703570741416299 0.0379573766306479 0.0125947640945008
    vertex 0.005277386642976064 0.04500171743845749 0.009999999999999972
  endloop
endfacet
facet normal 0.998175 0.0603898 -0
  outer loop
    vertex 0.008 0 0
    vertex 0.007572306272002218 0.00706929327585293 0.007401462862516656
    vertex 0.008 0 0.01000000000000003
  endloop
endfacet
facet normal 0.998175 0.0603898 6.25804e-18
  outer loop
    vertex 0.006224394803540196 0.02934874433315962 0.009576093555836284
    vertex 0.007042424432533035 0.01582764038160124 0.01039749514328594
    vertex 0.00663869332148803 0.02250085871922879 0
  endloop
endfacet
facet normal 0.998175 0.0603898 6.56056e-17
  outer loop
    vertex 0.006638693321488034 0.0225008587192287 0.02
    vertex 0.007042424432533035 0.01582764038160124 0.01039749514328594
    vertex 0.006224394803540196 0.02934874433315962 0.009576093555836284
  endloop
endfacet
facet normal 0.998175 0.0603898 9.13824e-17
  outer loop
    vertex 0.007319346660744016 0.01125042935961438 0
    vertex 0.007572306272002218 0.00706929327585293 0.007401462862516656
    vertex 0.008 0 0
  endloop
endfacet
facet normal 0.998175 0.0603898 5.58164e-17
  outer loop
    vertex 0.005958039982232048 0.03375128807884311 0.02
    vertex 0.005703570741416299 0.0379573766306479 0.0125947640945008
    vertex 0.005277386642976064 0.04500171743845749 0.02
  endloop
endfacet
facet normal 0.998175 0.0603898 2.52451e-17
  outer loop
    vertex 0.007042424432533035 0.01582764038160124 0.01039749514328594
    vertex 0.007647325394976465 0.005829312076958703 0.01462510193699515
    vertex 0.007572306272002218 0.00706929327585293 0.007401462862516656
  endloop
endfacet
facet normal 0.998175 0.0603898 1.02692e-16
  outer loop
    vertex 0.006224394803540196 0.02934874433315962 0.009576093555836284
    vertex 0.005629432497663261 0.03918279789296207 0.00537332661653149
    vertex 0.005703570741416299 0.0379573766306479 0.0125947640945008
  endloop
endfacet
facet normal 0.998175 0.0603898 3.1305e-17
  outer loop
    vertex 0.007319346660744019 0.01125042935961432 0.02
    vertex 0.007042424432533035 0.01582764038160124 0.01039749514328594
    vertex 0.006638693321488034 0.0225008587192287 0.02
  endloop
endfacet
facet normal 0.998175 0.0603898 2.35435e-17
  outer loop
    vertex 0.005958039982232046 0.03375128807884317 0
    vertex 0.006224394803540196 0.02934874433315962 0.009576093555836284
    vertex 0.00663869332148803 0.02250085871922879 0
  endloop
endfacet
facet normal 0.998175 0.0603898 -6.61757e-17
  outer loop
    vertex 0.007319346660744019 0.01125042935961432 0.02
    vertex 0.007647325394976465 0.005829312076958703 0.01462510193699515
    vertex 0.007042424432533035 0.01582764038160124 0.01039749514328594
  endloop
endfacet
facet normal 0.998175 0.0603898 -2.79337e-18
  outer loop
    vertex 0.005958039982232046 0.03375128807884317 0
    vertex 0.005629432497663261 0.03918279789296207 0.00537332661653149
    vertex 0.006224394803540196 0.02934874433315962 0.009576093555836284
  endloop
endfacet
facet normal 0.998175 0.0603898 -1.81765e-16
  outer loop
    vertex 0.008 0 0.02
    vertex 0.007647325394976465 0.005829312076958703 0.01462510193699515
    vertex 0.007319346660744019 0.01125042935961432 0.02
  endloop
endfacet
facet normal 0.998175 0.0603898 -1.25874e-16
  outer loop
    vertex 0.005277386642976064 0.04500171743845749 0
    vertex 0.005629432497663261 0.03918279789296207 0.00537332661653149
    vertex 0.005958039982232046 0.03375128807884317 0
  endloop
endfacet
facet normal 0.998175 0.0603898 4.91871e-17
  outer loop
    vertex 0.007042424432533035 0.01582764038160124 0.01039749514328594
    vertex 0.007572306272002218 0.00706929327585293 0.007401462862516656
    vertex 0.007319346660744016 0.01125042935961438 0
  endloop
endfacet
facet normal 0.998175 0.0603898 4.97698e-17
  outer loop
    vertex 0.006224394803540196 0.02934874433315962 0.009576093555836284
    vertex 0.005703570741416299 0.0379573766306479 0.0125947640945008
    vertex 0.005958039982232048 0.03375128807884311 0.02
  endloop
endfacet
facet normal 0.998175 0.0603898 -0
  outer loop
    vertex 0.008 0 0.01000000000000003
    vertex 0.007647325394976465 0.005829312076958703 0.01462510193699515
    vertex 0.008 0 0.02
  endloop
endfacet
facet normal 0.998175 0.0603898 0
  outer loop
    vertex 0.005277386642976064 0.04500171743845749 0.009999999999999972
    vertex 0.005629432497663261 0.03918279789296207 0.00537332661653149
    vertex 0.005277386642976064 0.04500171743845749 0
  endloop
endfacet
facet normal 0.998175 0.0603898 1.08588e-16
  outer loop
    vertex 0.005703570741416299 0.0379573766306479 0.0125947640945008
    vertex 0.005629432497663261 0.03918279789296207 0.00537332661653149
    vertex 0.005277386642976064 0.04500171743845749 0.009999999999999972
  endloop
endfacet
facet normal 0.998175 0.0603898 6.18513e-17
  outer loop
    vertex 0.007572306272002218 0.00706929327585293 0.007401462862516656
    vertex 0.007647325394976465 0.005829312076958703 0.01462510193699515
    vertex 0.008 0 0.01000000000000003
  endloop
endfacet
endsolid Created by Gmsh
