solid Created by Gmsh
facet normal 0.993423 -0.114498 1.18776e-16
  outer loop
    vertex 0.009340487213075468 0.01163050865778733 0
    vertex 0.009005365409806596 0.008722881493340464 0.01157335905981791
    vertex 0.008 0 0
  endloop
endfacet
facet normal 0.993423 -0.114498 -3.75083e-16
  outer loop
    vertex 0.01336194885230186 0.04652203463114921 0.02
    vertex 0.01369707065557073 0.04942966179559606 0.0084266409401821
    vertex 0.01470243606537733 0.05815254328893654 0.02
  endloop
endfacet
facet normal 0.993423 -0.114498 0
  outer loop
    vertex 0.01470243606537733 0.05815254328893654 0.009999999999999972
    vertex 0.01369707065557073 0.04942966179559606 0.0084266409401821
    vertex 0.01470243606537733 0.05815254328893654 0
  endloop
endfacet
facet normal 0.993423 -0.114498 0
  outer loop
    vertex 0.008 0 0.01000000000000003
    vertex 0.009005365409806596 0.008722881493340464 0.01157335905981791
    vertex 0.008 0 0.02
  endloop
endfacet
facet normal 0.993423 -0.114498 4.63634e-16
  outer loop
    vertex 0.01470243606537733 0.05815254328893654 0
    vertex 0.01369707065557073 0.04942966179559606 0.0084266409401821
    vertex 0.01336194885230187 0.04652203463114924 0
  endloop
endfacet
facet normal 0.993423 -0.114498 -2.23231e-16
  outer loop
    vertex 0.008 0 0.02
    vertex 0.009005365409806596 0.008722881493340464 0.01157335905981791
    vertex 0.009340487213075465 0.01163050865778729 0.02
  endloop
endfacet
facet normal 0.993423 -0.114498 3.37613e-16
  outer loop
    vertex 0.0120214616392264 0.03489152597336196 0
    vertex 0.01263695981890738 0.04023179094404237 0.009742976396974194
    vertex 0.01135786727481701 0.02913396265963585 0.01003121744166306
  endloop
endfacet
facet normal 0.993423 -0.114498 -3.29717e-16
  outer loop
    vertex 0.01135786727481701 0.02913396265963585 0.01003121744166306
    vertex 0.01263695981890738 0.04023179094404237 0.009742976396974194
    vertex 0.01202146163922639 0.03489152597336187 0.02
  endloop
endfacet
facet normal 0.993423 -0.114498 2.88498e-16
  outer loop
    vertex 0.0120214616392264 0.03489152597336196 0
    vertex 0.01135786727481701 0.02913396265963585 0.01003121744166306
    vertex 0.01068097442615094 0.02326101731557467 0
  endloop
endfacet
facet normal 0.993423 -0.114498 1.26902e-16
  outer loop
    vertex 0.01068097442615094 0.02326101731557467 0
    vertex 0.01006658445349134 0.01793036751408876 0.01026222650996966
    vertex 0.009340487213075468 0.01163050865778733 0
  endloop
endfacet
facet normal 0.993423 -0.114498 -3.6679e-16
  outer loop
    vertex 0.01202146163922639 0.03489152597336187 0.02
    vertex 0.01263695981890738 0.04023179094404237 0.009742976396974194
    vertex 0.01336194885230186 0.04652203463114921 0.02
  endloop
endfacet
facet normal 0.993423 -0.114498 1.92347e-16
  outer loop
    vertex 0.01068097442615094 0.02326101731557467 0
    vertex 0.01135786727481701 0.02913396265963585 0.01003121744166306
    vertex 0.01006658445349134 0.01793036751408876 0.01026222650996966
  endloop
endfacet
facet normal 0.993423 -0.114498 3.56439e-16
  outer loop
    vertex 0.01336194885230187 0.04652203463114924 0
    vertex 0.01263695981890738 0.04023179094404237 0.009742976396974194
    vertex 0.0120214616392264 0.03489152597336196 0
  endloop
endfacet
facet normal 0.993423 -0.114498 -1.78315e-16
  outer loop
    vertex 0.009340487213075465 0.01163050865778729 0.02
    vertex 0.01006658445349134 0.01793036751408876 0.01026222650996966
    vertex 0.01068097442615093 0.02326101731557458 0.02
  endloop
endfacet
facet normal 0.993423 -0.114498 -3.19335e-16
  outer loop
    vertex 0.01068097442615093 0.02326101731557458 0.02
    vertex 0.01135786727481701 0.02913396265963585 0.01003121744166306
    vertex 0.01202146163922639 0.03489152597336187 0.02
  endloop
endfacet
facet normal 0.993423 -0.114498 -2.36431e-16
  outer loop
    vertex 0.01006658445349134 0.01793036751408876 0.01026222650996966
    vertex 0.01135786727481701 0.02913396265963585 0.01003121744166306
    vertex 0.01068097442615093 0.02326101731557458 0.02
  endloop
endfacet
facet normal 0.993423 -0.114498 1.14653e-16
  outer loop
    vertex 0.01006658445349134 0.01793036751408876 0.01026222650996966
    vertex 0.009005365409806596 0.008722881493340464 0.01157335905981791
    vertex 0.009340487213075468 0.01163050865778733 0
  endloop
endfacet
facet normal 0.993423 -0.114498 -3.85379e-16
  outer loop
    vertex 0.01263695981890738 0.04023179094404237 0.009742976396974194
    vertex 0.01369707065557073 0.04942966179559606 0.0084266409401821
    vertex 0.01336194885230186 0.04652203463114921 0.02
  endloop
endfacet
facet normal 0.993423 -0.114498 4.24173e-16
  outer loop
    vertex 0.01336194885230187 0.04652203463114924 0
    vertex 0.01369707065557073 0.04942966179559606 0.0084266409401821
    vertex 0.01263695981890738 0.04023179094404237 0.009742976396974194
  endloop
endfacet
facet normal 0.993423 -0.114498 -2.06746e-16
  outer loop
    vertex 0.009340487213075465 0.01163050865778729 0.02
    vertex 0.009005365409806596 0.008722881493340464 0.01157335905981791
    vertex 0.01006658445349134 0.01793036751408876 0.01026222650996966
  endloop
endfacet
facet normal 0.993423 -0.114498 0
  outer loop
    vertex 0.008 0 0
    vertex 0.009005365409806596 0.008722881493340464 0.01157335905981791
    vertex 0.008 0 0.01000000000000003
  endloop
endfacet
facet normal 0.993423 -0.114498 0
  outer loop
    vertex 0.01470243606537733 0.05815254328893654 0.02
    vertex 0.01369707065557073 0.04942966179559606 0.0084266409401821
    vertex 0.01470243606537733 0.05815254328893654 0.009999999999999972
  endloop
endfacet
endsolid Created by Gmsh
