solid Created by Gmsh
facet normal -0.656258 0.754537 2.20345e-15
  outer loop
    vertex 0.02589046470320566 0.0480329721727385 0.02
    vertex 0.03377991996866263 0.05489482534027257 0.02
    vertex 0.02983519233593413 0.05146389875650554 0.01500000000000001
  endloop
endfacet
facet normal -0.656258 0.754537 -2.33306e-15
  outer loop
    vertex 0.03377991996866263 0.05489482534027257 0
    vertex 0.02589046470320566 0.0480329721727385 0
    vertex 0.02983519233593412 0.05146389875650553 0.005000000000000014
  endloop
endfacet
facet normal -0.656258 0.754537 0
  outer loop
    vertex 0.03377991996866263 0.05489482534027257 0.02
    vertex 0.03377991996866263 0.05489482534027257 0.009999999999999972
    vertex 0.02983519233593413 0.05146389875650554 0.01500000000000001
  endloop
endfacet
facet normal -0.656258 0.754537 0
  outer loop
    vertex 0.02589046470320566 0.0480329721727385 0
    vertex 0.02589046470320566 0.0480329721727385 0.01000000000000003
    vertex 0.02983519233593412 0.05146389875650553 0.005000000000000014
  endloop
endfacet
facet normal -0.656258 0.754537 6.48072e-17
  outer loop
    vertex 0.03377991996866263 0.05489482534027257 0.009999999999999972
    vertex 0.02983519233593412 0.05146389875650553 0.005000000000000014
    vertex 0.02983519233593413 0.05146389875650554 0.01500000000000001
  endloop
endfacet
facet normal -0.656258 0.754537 9.12965e-17
  outer loop
    vertex 0.02983519233593412 0.05146389875650553 0.005000000000000014
    vertex 0.02589046470320566 0.0480329721727385 0.01000000000000003
    vertex 0.02983519233593413 0.05146389875650554 0.01500000000000001
  endloop
endfacet
facet normal -0.656258 0.754537 0
  outer loop
    vertex 0.03377991996866263 0.05489482534027257 0.009999999999999972
    vertex 0.03377991996866263 0.05489482534027257 0
    vertex 0.02983519233593412 0.05146389875650553 0.005000000000000014
  endloop
endfacet
facet normal -0.656258 0.754537 0
  outer loop
    vertex 0.02589046470320566 0.0480329721727385 0.01000000000000003
    vertex 0.02589046470320566 0.0480329721727385 0.02
    vertex 0.02983519233593413 0.05146389875650554 0.01500000000000001
  endloop
endfacet
facet normal -0.98522 0.171295 6.81052e-16
  outer loop
    vertex 0.02589046470320566 0.0480329721727385 0.009999999999999972
    vertex 0.02469742741017756 0.04117111900520443 0.01000000000000003
    vertex 0.02529394605669161 0.04460204558897146 0.015
  endloop
endfacet
facet normal -0.98522 0.171295 -6.81052e-16
  outer loop
    vertex 0.02469742741017756 0.04117111900520443 0.01000000000000003
    vertex 0.02589046470320566 0.0480329721727385 0.009999999999999972
    vertex 0.02529394605669161 0.04460204558897146 0.005
  endloop
endfacet
facet normal -0.98522 0.171295 6.81052e-16
  outer loop
    vertex 0.02589046470320566 0.0480329721727385 0
    vertex 0.02469742741017756 0.04117111900520443 0
    vertex 0.02529394605669161 0.04460204558897146 0.005
  endloop
endfacet
facet normal -0.98522 0.171295 -6.81052e-16
  outer loop
    vertex 0.02469742741017756 0.04117111900520443 0.02
    vertex 0.02589046470320566 0.0480329721727385 0.02
    vertex 0.02529394605669161 0.04460204558897146 0.015
  endloop
endfacet
facet normal -0.98522 0.171295 0
  outer loop
    vertex 0.02589046470320566 0.0480329721727385 0.009999999999999972
    vertex 0.02589046470320566 0.0480329721727385 0
    vertex 0.02529394605669161 0.04460204558897146 0.005
  endloop
endfacet
facet normal -0.98522 0.171295 0
  outer loop
    vertex 0.02589046470320566 0.0480329721727385 0.02
    vertex 0.02589046470320566 0.0480329721727385 0.009999999999999972
    vertex 0.02529394605669161 0.04460204558897146 0.015
  endloop
endfacet
facet normal -0.98522 0.171295 0
  outer loop
    vertex 0.02469742741017756 0.04117111900520443 0
    vertex 0.02469742741017756 0.04117111900520443 0.01000000000000003
    vertex 0.02529394605669161 0.04460204558897146 0.005
  endloop
endfacet
facet normal -0.98522 0.171295 0
  outer loop
    vertex 0.02469742741017756 0.04117111900520443 0.01000000000000003
    vertex 0.02469742741017756 0.04117111900520443 0.02
    vertex 0.02529394605669161 0.04460204558897146 0.015
  endloop
endfacet
facet normal -0.916004 0.401168 0
  outer loop
    vertex 0.02169225004684931 0.03430926583767036 0
    vertex 0.02169225004684931 0.03430926583767036 0.01000000000000003
    vertex 0.02319483872851344 0.03774019242143739 0.005
  endloop
endfacet
facet normal -0.916004 0.401168 0
  outer loop
    vertex 0.02469742741017756 0.04117111900520443 0.02
    vertex 0.02469742741017756 0.04117111900520443 0.009999999999999972
    vertex 0.02319483872851344 0.03774019242143739 0.015
  endloop
endfacet
facet normal -0.916004 0.401168 0
  outer loop
    vertex 0.02469742741017756 0.04117111900520443 0.009999999999999972
    vertex 0.02469742741017756 0.04117111900520443 0
    vertex 0.02319483872851344 0.03774019242143739 0.005
  endloop
endfacet
facet normal -0.916004 0.401168 0
  outer loop
    vertex 0.02169225004684931 0.03430926583767036 0.01000000000000003
    vertex 0.02169225004684931 0.03430926583767036 0.02
    vertex 0.02319483872851344 0.03774019242143739 0.015
  endloop
endfacet
facet normal -0.916004 0.401168 3.16603e-16
  outer loop
    vertex 0.02169225004684931 0.03430926583767036 0.01000000000000003
    vertex 0.02469742741017756 0.04117111900520443 0.009999999999999972
    vertex 0.02319483872851344 0.03774019242143739 0.005
  endloop
endfacet
facet normal -0.916004 0.401168 -3.16603e-16
  outer loop
    vertex 0.02469742741017756 0.04117111900520443 0.009999999999999972
    vertex 0.02169225004684931 0.03430926583767036 0.01000000000000003
    vertex 0.02319483872851344 0.03774019242143739 0.015
  endloop
endfacet
facet normal -0.916004 0.401168 -3.16603e-16
  outer loop
    vertex 0.02469742741017756 0.04117111900520443 0
    vertex 0.02169225004684931 0.03430926583767036 0
    vertex 0.02319483872851344 0.03774019242143739 0.005
  endloop
endfacet
facet normal -0.916004 0.401168 3.16603e-16
  outer loop
    vertex 0.02169225004684931 0.03430926583767036 0.02
    vertex 0.02469742741017756 0.04117111900520443 0.02
    vertex 0.02319483872851344 0.03774019242143739 0.015
  endloop
endfacet
facet normal -0.972966 -0.23095 3.3629e-16
  outer loop
    vertex 0.02332102930386546 0.02744741267013628 0.01000000000000003
    vertex 0.02169225004684931 0.03430926583767036 0.009999999999999972
    vertex 0.02250663967535739 0.03087833925390332 0.005000000000000001
  endloop
endfacet
facet normal -0.972966 -0.23095 -3.3629e-16
  outer loop
    vertex 0.02169225004684931 0.03430926583767036 0.009999999999999972
    vertex 0.02332102930386546 0.02744741267013628 0.01000000000000003
    vertex 0.02250663967535739 0.03087833925390332 0.015
  endloop
endfacet
facet normal -0.972966 -0.23095 3.3629e-16
  outer loop
    vertex 0.02332102930386546 0.02744741267013628 0.02
    vertex 0.02169225004684931 0.03430926583767036 0.02
    vertex 0.02250663967535739 0.03087833925390332 0.015
  endloop
endfacet
facet normal -0.972966 -0.23095 -3.3629e-16
  outer loop
    vertex 0.02169225004684931 0.03430926583767036 0
    vertex 0.02332102930386546 0.02744741267013628 0
    vertex 0.02250663967535739 0.03087833925390332 0.005000000000000001
  endloop
endfacet
facet normal -0.972966 -0.23095 -0
  outer loop
    vertex 0.02169225004684931 0.03430926583767036 0.009999999999999972
    vertex 0.02169225004684931 0.03430926583767036 0
    vertex 0.02250663967535739 0.03087833925390332 0.005000000000000001
  endloop
endfacet
facet normal -0.972966 -0.23095 -0
  outer loop
    vertex 0.02169225004684931 0.03430926583767036 0.02
    vertex 0.02169225004684931 0.03430926583767036 0.009999999999999972
    vertex 0.02250663967535739 0.03087833925390332 0.015
  endloop
endfacet
facet normal -0.972966 -0.23095 0
  outer loop
    vertex 0.02332102930386546 0.02744741267013628 0
    vertex 0.02332102930386546 0.02744741267013628 0.01000000000000003
    vertex 0.02250663967535739 0.03087833925390332 0.005000000000000001
  endloop
endfacet
facet normal -0.972966 -0.23095 0
  outer loop
    vertex 0.02332102930386546 0.02744741267013628 0.01000000000000003
    vertex 0.02332102930386546 0.02744741267013628 0.02
    vertex 0.02250663967535739 0.03087833925390332 0.015
  endloop
endfacet
facet normal -0.765332 -0.643636 0
  outer loop
    vertex 0.02909177284856503 0.02058555950260221 0
    vertex 0.02909177284856503 0.02058555950260221 0.01000000000000003
    vertex 0.02620640107621525 0.02401648608636925 0.005
  endloop
endfacet
facet normal -0.765332 -0.643636 -0
  outer loop
    vertex 0.02332102930386546 0.02744741267013628 0.02
    vertex 0.02332102930386546 0.02744741267013628 0.009999999999999972
    vertex 0.02620640107621525 0.02401648608636925 0.015
  endloop
endfacet
facet normal -0.765332 -0.643636 0
  outer loop
    vertex 0.02909177284856503 0.02058555950260221 0.01000000000000003
    vertex 0.02909177284856503 0.02058555950260221 0.02
    vertex 0.02620640107621525 0.02401648608636925 0.015
  endloop
endfacet
facet normal -0.765332 -0.643636 -0
  outer loop
    vertex 0.02332102930386546 0.02744741267013628 0.009999999999999972
    vertex 0.02332102930386546 0.02744741267013628 0
    vertex 0.02620640107621525 0.02401648608636925 0.005
  endloop
endfacet
facet normal -0.765332 -0.643636 2.26736e-16
  outer loop
    vertex 0.02332102930386546 0.02744741267013628 0
    vertex 0.02909177284856503 0.02058555950260221 0
    vertex 0.02620640107621525 0.02401648608636925 0.005
  endloop
endfacet
facet normal -0.765332 -0.643636 2.26736e-16
  outer loop
    vertex 0.02332102930386546 0.02744741267013628 0.009999999999999972
    vertex 0.02909177284856503 0.02058555950260221 0.01000000000000003
    vertex 0.02620640107621525 0.02401648608636925 0.015
  endloop
endfacet
facet normal -0.765332 -0.643636 -3.02314e-16
  outer loop
    vertex 0.02909177284856503 0.02058555950260221 0.02
    vertex 0.02332102930386546 0.02744741267013628 0.02
    vertex 0.02620640107621525 0.02401648608636925 0.015
  endloop
endfacet
facet normal -0.765332 -0.643636 -3.02314e-16
  outer loop
    vertex 0.02909177284856503 0.02058555950260221 0.01000000000000003
    vertex 0.02332102930386546 0.02744741267013628 0.009999999999999972
    vertex 0.02620640107621525 0.02401648608636925 0.005
  endloop
endfacet
facet normal -0.987703 0.15634 -3.41384e-16
  outer loop
    vertex 0.02800563198292183 0.01372370633506814 0.02
    vertex 0.02909177284856503 0.02058555950260221 0.02
    vertex 0.02854870241574343 0.01715463291883518 0.015
  endloop
endfacet
facet normal -0.987703 0.15634 -3.41384e-16
  outer loop
    vertex 0.02800563198292183 0.01372370633506814 0.01000000000000003
    vertex 0.02909177284856503 0.02058555950260221 0.009999999999999972
    vertex 0.02854870241574343 0.01715463291883518 0.005000000000000001
  endloop
endfacet
facet normal -0.987703 0.15634 3.41384e-16
  outer loop
    vertex 0.02909177284856503 0.02058555950260221 0
    vertex 0.02800563198292183 0.01372370633506814 0
    vertex 0.02854870241574343 0.01715463291883518 0.005000000000000001
  endloop
endfacet
facet normal -0.987703 0.15634 3.41384e-16
  outer loop
    vertex 0.02909177284856503 0.02058555950260221 0.009999999999999972
    vertex 0.02800563198292183 0.01372370633506814 0.01000000000000003
    vertex 0.02854870241574343 0.01715463291883518 0.015
  endloop
endfacet
facet normal -0.987703 0.15634 0
  outer loop
    vertex 0.02909177284856503 0.02058555950260221 0.009999999999999972
    vertex 0.02909177284856503 0.02058555950260221 0
    vertex 0.02854870241574343 0.01715463291883518 0.005000000000000001
  endloop
endfacet
facet normal -0.987703 0.15634 0
  outer loop
    vertex 0.02909177284856503 0.02058555950260221 0.02
    vertex 0.02909177284856503 0.02058555950260221 0.009999999999999972
    vertex 0.02854870241574343 0.01715463291883518 0.015
  endloop
endfacet
facet normal -0.987703 0.15634 0
  outer loop
    vertex 0.02800563198292183 0.01372370633506814 0
    vertex 0.02800563198292183 0.01372370633506814 0.01000000000000003
    vertex 0.02854870241574343 0.01715463291883518 0.005000000000000001
  endloop
endfacet
facet normal -0.987703 0.15634 0
  outer loop
    vertex 0.02800563198292183 0.01372370633506814 0.01000000000000003
    vertex 0.02800563198292183 0.01372370633506814 0.02
    vertex 0.02854870241574343 0.01715463291883518 0.015
  endloop
endfacet
facet normal -0.731374 0.681976 0
  outer loop
    vertex 0.02800563198292183 0.01372370633506814 0.02
    vertex 0.02800563198292183 0.01372370633506814 0.009999999999999972
    vertex 0.02480643389737296 0.01029277975130111 0.015
  endloop
endfacet
facet normal -0.731374 0.681976 0
  outer loop
    vertex 0.0216072358118241 0.006861853167534071 0
    vertex 0.0216072358118241 0.006861853167534071 0.01000000000000003
    vertex 0.02480643389737296 0.01029277975130111 0.005
  endloop
endfacet
facet normal -0.731374 0.681976 0
  outer loop
    vertex 0.02800563198292183 0.01372370633506814 0.009999999999999972
    vertex 0.02800563198292183 0.01372370633506814 0
    vertex 0.02480643389737296 0.01029277975130111 0.005
  endloop
endfacet
facet normal -0.731374 0.681976 0
  outer loop
    vertex 0.0216072358118241 0.006861853167534071 0.01000000000000003
    vertex 0.0216072358118241 0.006861853167534071 0.02
    vertex 0.02480643389737296 0.01029277975130111 0.015
  endloop
endfacet
facet normal -0.731374 0.681976 2.88901e-16
  outer loop
    vertex 0.0216072358118241 0.006861853167534071 0.01000000000000003
    vertex 0.02800563198292183 0.01372370633506814 0.009999999999999972
    vertex 0.02480643389737296 0.01029277975130111 0.005
  endloop
endfacet
facet normal -0.731374 0.681976 -5.05576e-16
  outer loop
    vertex 0.02800563198292183 0.01372370633506814 0.009999999999999972
    vertex 0.0216072358118241 0.006861853167534071 0.01000000000000003
    vertex 0.02480643389737296 0.01029277975130111 0.015
  endloop
endfacet
facet normal -0.731374 0.681976 -2.16675e-16
  outer loop
    vertex 0.02800563198292183 0.01372370633506814 0
    vertex 0.0216072358118241 0.006861853167534071 0
    vertex 0.02480643389737296 0.01029277975130111 0.005
  endloop
endfacet
facet normal -0.731374 0.681976 5.05576e-16
  outer loop
    vertex 0.0216072358118241 0.006861853167534071 0.02
    vertex 0.02800563198292183 0.01372370633506814 0.02
    vertex 0.02480643389737296 0.01029277975130111 0.015
  endloop
endfacet
endsolid Created by Gmsh
