solid Created by Gmsh
facet normal -0.880337 0.474348 0
  outer loop
    vertex 0.0326706392599237 0.04626246352130504 0
    vertex 0.0326706392599237 0.04626246352130504 0.01000000000000003
    vertex 0.03445116763536276 0.04956692520139826 0.005000000000000001
  endloop
endfacet
facet normal -0.880337 0.474348 0
  outer loop
    vertex 0.03623169601080182 0.05287138688149148 0.02
    vertex 0.03623169601080182 0.05287138688149148 0.009999999999999972
    vertex 0.03445116763536276 0.04956692520139826 0.015
  endloop
endfacet
facet normal -0.880337 0.474348 0
  outer loop
    vertex 0.0326706392599237 0.04626246352130504 0.01000000000000003
    vertex 0.0326706392599237 0.04626246352130504 0.02
    vertex 0.03445116763536276 0.04956692520139826 0.015
  endloop
endfacet
facet normal -0.880337 0.474348 0
  outer loop
    vertex 0.03623169601080182 0.05287138688149148 0.009999999999999972
    vertex 0.03623169601080182 0.05287138688149148 0
    vertex 0.03445116763536276 0.04956692520139826 0.005000000000000001
  endloop
endfacet
facet normal -0.880337 0.474348 -3.61051e-16
  outer loop
    vertex 0.03623169601080182 0.05287138688149148 0.009999999999999972
    vertex 0.0326706392599237 0.04626246352130504 0.01000000000000003
    vertex 0.03445116763536276 0.04956692520139826 0.015
  endloop
endfacet
facet normal -0.880337 0.474348 -3.61051e-16
  outer loop
    vertex 0.03623169601080182 0.05287138688149148 0
    vertex 0.0326706392599237 0.04626246352130504 0
    vertex 0.03445116763536276 0.04956692520139826 0.005000000000000001
  endloop
endfacet
facet normal -0.880337 0.474348 3.1592e-16
  outer loop
    vertex 0.0326706392599237 0.04626246352130504 0.02
    vertex 0.03623169601080182 0.05287138688149148 0.02
    vertex 0.03445116763536276 0.04956692520139826 0.015
  endloop
endfacet
facet normal -0.880337 0.474348 3.1592e-16
  outer loop
    vertex 0.0326706392599237 0.04626246352130504 0.01000000000000003
    vertex 0.03623169601080182 0.05287138688149148 0.009999999999999972
    vertex 0.03445116763536276 0.04956692520139826 0.005000000000000001
  endloop
endfacet
facet normal -0.457693 0.889111 1.24681e-16
  outer loop
    vertex 0.01983218858920531 0.03965354016111861 0.02
    vertex 0.0262514139245645 0.04295800184121183 0.02
    vertex 0.02638241852324531 0.04302543983468312 0.01247227879620382
  endloop
endfacet
facet normal -0.457693 0.889111 1.38318e-16
  outer loop
    vertex 0.0262514139245645 0.04295800184121183 0.02
    vertex 0.0326706392599237 0.04626246352130504 0.02
    vertex 0.02638241852324531 0.04302543983468312 0.01247227879620382
  endloop
endfacet
facet normal -0.457693 0.889111 0
  outer loop
    vertex 0.0326706392599237 0.04626246352130504 0.02
    vertex 0.0326706392599237 0.04626246352130504 0.009999999999999972
    vertex 0.02638241852324531 0.04302543983468312 0.01247227879620382
  endloop
endfacet
facet normal -0.457693 0.889111 0
  outer loop
    vertex 0.01983218858920531 0.03965354016111861 0.01000000000000003
    vertex 0.01983218858920531 0.03965354016111861 0.02
    vertex 0.02638241852324531 0.04302543983468312 0.01247227879620382
  endloop
endfacet
facet normal -0.457693 0.889111 0
  outer loop
    vertex 0.01983218858920531 0.03965354016111861 0
    vertex 0.01983218858920531 0.03965354016111861 0.01000000000000003
    vertex 0.02432564632395675 0.04196666333718387 0.005281888813519834
  endloop
endfacet
facet normal -0.457693 0.889111 0
  outer loop
    vertex 0.0326706392599237 0.04626246352130504 0.009999999999999972
    vertex 0.0326706392599237 0.04626246352130504 0
    vertex 0.02874611578230031 0.04424221391688654 0.005393452515674801
  endloop
endfacet
facet normal -0.457693 0.889111 -1.26607e-15
  outer loop
    vertex 0.02625141392456451 0.04295800184121183 0
    vertex 0.01983218858920531 0.03965354016111861 0
    vertex 0.02432564632395675 0.04196666333718387 0.005281888813519834
  endloop
endfacet
facet normal -0.457693 0.889111 -8.70095e-16
  outer loop
    vertex 0.0326706392599237 0.04626246352130504 0
    vertex 0.02625141392456451 0.04295800184121183 0
    vertex 0.02874611578230031 0.04424221391688654 0.005393452515674801
  endloop
endfacet
facet normal -0.457693 0.889111 1.19331e-16
  outer loop
    vertex 0.02432564632395675 0.04196666333718387 0.005281888813519834
    vertex 0.02638241852324531 0.04302543983468312 0.01247227879620382
    vertex 0.02874611578230031 0.04424221391688654 0.005393452515674801
  endloop
endfacet
facet normal -0.457693 0.889111 -1.24648e-15
  outer loop
    vertex 0.02625141392456451 0.04295800184121183 0
    vertex 0.02432564632395675 0.04196666333718387 0.005281888813519834
    vertex 0.02874611578230031 0.04424221391688654 0.005393452515674801
  endloop
endfacet
facet normal -0.457693 0.889111 4.30205e-16
  outer loop
    vertex 0.02432564632395675 0.04196666333718387 0.005281888813519834
    vertex 0.01983218858920531 0.03965354016111861 0.01000000000000003
    vertex 0.02638241852324531 0.04302543983468312 0.01247227879620382
  endloop
endfacet
facet normal -0.457693 0.889111 2.33705e-16
  outer loop
    vertex 0.02638241852324531 0.04302543983468312 0.01247227879620382
    vertex 0.0326706392599237 0.04626246352130504 0.009999999999999972
    vertex 0.02874611578230031 0.04424221391688654 0.005393452515674801
  endloop
endfacet
facet normal -0.557684 -0.830053 -6.64845e-16
  outer loop
    vertex 0.02966885657138887 0.03304461680093217 0.02
    vertex 0.01983218858920531 0.03965354016111861 0.02
    vertex 0.02475052258029709 0.03634907848102539 0.0139795918367347
  endloop
endfacet
facet normal -0.557684 -0.830053 6.76546e-16
  outer loop
    vertex 0.01983218858920531 0.03965354016111861 0
    vertex 0.02966885657138887 0.03304461680093217 0
    vertex 0.0247505225802971 0.03634907848102539 0.005916284881299467
  endloop
endfacet
facet normal -0.557684 -0.830053 -0
  outer loop
    vertex 0.01983218858920531 0.03965354016111861 0.02
    vertex 0.01983218858920531 0.03965354016111861 0.009999999999999972
    vertex 0.02475052258029709 0.03634907848102539 0.0139795918367347
  endloop
endfacet
facet normal -0.557684 -0.830053 0
  outer loop
    vertex 0.02966885657138887 0.03304461680093217 0
    vertex 0.02966885657138887 0.03304461680093217 0.01000000000000003
    vertex 0.0247505225802971 0.03634907848102539 0.005916284881299467
  endloop
endfacet
facet normal -0.557684 -0.830053 -5.57092e-18
  outer loop
    vertex 0.02475052258029709 0.03634907848102539 0.0139795918367347
    vertex 0.01983218858920531 0.03965354016111861 0.009999999999999972
    vertex 0.0247505225802971 0.03634907848102539 0.005916284881299467
  endloop
endfacet
facet normal -0.557684 -0.830053 0
  outer loop
    vertex 0.02966885657138887 0.03304461680093217 0.01000000000000003
    vertex 0.02475052258029709 0.03634907848102539 0.0139795918367347
    vertex 0.0247505225802971 0.03634907848102539 0.005916284881299467
  endloop
endfacet
facet normal -0.557684 -0.830053 -0
  outer loop
    vertex 0.01983218858920531 0.03965354016111861 0.009999999999999972
    vertex 0.01983218858920531 0.03965354016111861 0
    vertex 0.0247505225802971 0.03634907848102539 0.005916284881299467
  endloop
endfacet
facet normal -0.557684 -0.830053 0
  outer loop
    vertex 0.02966885657138887 0.03304461680093217 0.01000000000000003
    vertex 0.02966885657138887 0.03304461680093217 0.02
    vertex 0.02475052258029709 0.03634907848102539 0.0139795918367347
  endloop
endfacet
facet normal -0.695392 -0.71863 -0
  outer loop
    vertex 0.02966885657138887 0.03304461680093217 0.02
    vertex 0.02966885657138887 0.03304461680093217 0.009999999999999972
    vertex 0.03308374341658989 0.02974015512083896 0.015
  endloop
endfacet
facet normal -0.695392 -0.71863 0
  outer loop
    vertex 0.03649863026179093 0.02643569344074574 0
    vertex 0.03649863026179093 0.02643569344074574 0.01000000000000003
    vertex 0.0330837434165899 0.02974015512083895 0.004999999999999999
  endloop
endfacet
facet normal -0.695392 -0.71863 -0
  outer loop
    vertex 0.02966885657138887 0.03304461680093217 0.009999999999999972
    vertex 0.02966885657138887 0.03304461680093217 0
    vertex 0.0330837434165899 0.02974015512083895 0.004999999999999999
  endloop
endfacet
facet normal -0.695392 -0.71863 0
  outer loop
    vertex 0.03649863026179093 0.02643569344074574 0.01000000000000003
    vertex 0.03649863026179093 0.02643569344074574 0.02
    vertex 0.03308374341658989 0.02974015512083896 0.015
  endloop
endfacet
facet normal -0.695392 -0.71863 2.852e-16
  outer loop
    vertex 0.03649863026179093 0.02643569344074574 0.01000000000000003
    vertex 0.02966885657138887 0.03304461680093217 0.009999999999999972
    vertex 0.0330837434165899 0.02974015512083895 0.004999999999999999
  endloop
endfacet
facet normal -0.695392 -0.71863 2.139e-16
  outer loop
    vertex 0.03649863026179093 0.02643569344074574 0.02
    vertex 0.02966885657138887 0.03304461680093217 0.02
    vertex 0.03308374341658989 0.02974015512083896 0.015
  endloop
endfacet
facet normal -0.695392 -0.71863 -2.139e-16
  outer loop
    vertex 0.02966885657138887 0.03304461680093217 0.009999999999999972
    vertex 0.03649863026179093 0.02643569344074574 0.01000000000000003
    vertex 0.03308374341658989 0.02974015512083896 0.015
  endloop
endfacet
facet normal -0.695392 -0.71863 -2.139e-16
  outer loop
    vertex 0.02966885657138887 0.03304461680093217 0
    vertex 0.03649863026179093 0.02643569344074574 0
    vertex 0.0330837434165899 0.02974015512083895 0.004999999999999999
  endloop
endfacet
facet normal -0.566696 0.823927 -1.95439e-16
  outer loop
    vertex 0.03649863026179093 0.02643569344074574 0
    vertex 0.02688981708413044 0.0198267700805593 0
    vertex 0.03169422367296067 0.02313123176065252 0.005946034390432566
  endloop
endfacet
facet normal -0.566696 0.823927 1.01424e-16
  outer loop
    vertex 0.02688981708413044 0.0198267700805593 0.02
    vertex 0.03649863026179093 0.02643569344074574 0.02
    vertex 0.03169422367296068 0.02313123176065252 0.01427113702623908
  endloop
endfacet
facet normal -0.566696 0.823927 0
  outer loop
    vertex 0.03649863026179093 0.02643569344074574 0.02
    vertex 0.03649863026179093 0.02643569344074574 0.009999999999999972
    vertex 0.03169422367296068 0.02313123176065252 0.01427113702623908
  endloop
endfacet
facet normal -0.566696 0.823927 0
  outer loop
    vertex 0.02688981708413044 0.0198267700805593 0
    vertex 0.02688981708413044 0.0198267700805593 0.01000000000000003
    vertex 0.03169422367296067 0.02313123176065252 0.005946034390432566
  endloop
endfacet
facet normal -0.566696 0.823927 1.28968e-16
  outer loop
    vertex 0.03169422367296068 0.02313123176065252 0.01427113702623908
    vertex 0.03649863026179093 0.02643569344074574 0.009999999999999972
    vertex 0.03169422367296067 0.02313123176065252 0.005946034390432566
  endloop
endfacet
facet normal -0.566696 0.823927 1.39589e-16
  outer loop
    vertex 0.02688981708413044 0.0198267700805593 0.01000000000000003
    vertex 0.03169422367296068 0.02313123176065252 0.01427113702623908
    vertex 0.03169422367296067 0.02313123176065252 0.005946034390432566
  endloop
endfacet
facet normal -0.566696 0.823927 0
  outer loop
    vertex 0.03649863026179093 0.02643569344074574 0.009999999999999972
    vertex 0.03649863026179093 0.02643569344074574 0
    vertex 0.03169422367296067 0.02313123176065252 0.005946034390432566
  endloop
endfacet
facet normal -0.566696 0.823927 0
  outer loop
    vertex 0.02688981708413044 0.0198267700805593 0.01000000000000003
    vertex 0.02688981708413044 0.0198267700805593 0.02
    vertex 0.03169422367296068 0.02313123176065252 0.01427113702623908
  endloop
endfacet
facet normal -0.865084 0.501627 0
  outer loop
    vertex 0.02305757360107899 0.01321784672037287 0
    vertex 0.02305757360107899 0.01321784672037287 0.01000000000000003
    vertex 0.02497369534260472 0.01652230840046609 0.005
  endloop
endfacet
facet normal -0.865084 0.501627 0
  outer loop
    vertex 0.02688981708413044 0.0198267700805593 0.02
    vertex 0.02688981708413044 0.0198267700805593 0.009999999999999972
    vertex 0.02497369534260472 0.01652230840046609 0.015
  endloop
endfacet
facet normal -0.865084 0.501627 0
  outer loop
    vertex 0.02305757360107899 0.01321784672037287 0.01000000000000003
    vertex 0.02305757360107899 0.01321784672037287 0.02
    vertex 0.02497369534260472 0.01652230840046609 0.015
  endloop
endfacet
facet normal -0.865084 0.501627 0
  outer loop
    vertex 0.02688981708413044 0.0198267700805593 0.009999999999999972
    vertex 0.02688981708413044 0.0198267700805593 0
    vertex 0.02497369534260472 0.01652230840046609 0.005
  endloop
endfacet
facet normal -0.865084 0.501627 0
  outer loop
    vertex 0.02688981708413044 0.0198267700805593 0
    vertex 0.02305757360107899 0.01321784672037287 0
    vertex 0.02497369534260472 0.01652230840046609 0.005
  endloop
endfacet
facet normal -0.865084 0.501627 0
  outer loop
    vertex 0.02688981708413044 0.0198267700805593 0.009999999999999972
    vertex 0.02305757360107899 0.01321784672037287 0.01000000000000003
    vertex 0.02497369534260472 0.01652230840046609 0.015
  endloop
endfacet
facet normal -0.865084 0.501627 0
  outer loop
    vertex 0.02305757360107899 0.01321784672037287 0.02
    vertex 0.02688981708413044 0.0198267700805593 0.02
    vertex 0.02497369534260472 0.01652230840046609 0.015
  endloop
endfacet
facet normal -0.865084 0.501627 0
  outer loop
    vertex 0.02305757360107899 0.01321784672037287 0.01000000000000003
    vertex 0.02688981708413044 0.0198267700805593 0.009999999999999972
    vertex 0.02497369534260472 0.01652230840046609 0.005
  endloop
endfacet
facet normal -0.546694 -0.837333 2.79318e-16
  outer loop
    vertex 0.02305757360107899 0.01321784672037287 0
    vertex 0.03317999664512113 0.006608923360186432 0
    vertex 0.02811878512310006 0.009913385040279653 0.0060204081632653
  endloop
endfacet
facet normal -0.546694 -0.837333 -2.84234e-16
  outer loop
    vertex 0.03317999664512113 0.006608923360186432 0.02
    vertex 0.02305757360107899 0.01321784672037287 0.02
    vertex 0.02811878512310006 0.009913385040279653 0.01408371511870055
  endloop
endfacet
facet normal -0.546694 -0.837333 0
  outer loop
    vertex 0.02305757360107899 0.01321784672037287 0.009999999999999972
    vertex 0.02811878512310006 0.009913385040279653 0.0060204081632653
    vertex 0.02811878512310006 0.009913385040279653 0.01408371511870055
  endloop
endfacet
facet normal -0.546694 -0.837333 0
  outer loop
    vertex 0.02811878512310006 0.009913385040279653 0.0060204081632653
    vertex 0.03317999664512113 0.006608923360186432 0.01000000000000003
    vertex 0.02811878512310006 0.009913385040279653 0.01408371511870055
  endloop
endfacet
facet normal -0.546694 -0.837333 -0
  outer loop
    vertex 0.02305757360107899 0.01321784672037287 0.02
    vertex 0.02305757360107899 0.01321784672037287 0.009999999999999972
    vertex 0.02811878512310006 0.009913385040279653 0.01408371511870055
  endloop
endfacet
facet normal -0.546694 -0.837333 0
  outer loop
    vertex 0.03317999664512113 0.006608923360186432 0
    vertex 0.03317999664512113 0.006608923360186432 0.01000000000000003
    vertex 0.02811878512310006 0.009913385040279653 0.0060204081632653
  endloop
endfacet
facet normal -0.546694 -0.837333 -0
  outer loop
    vertex 0.02305757360107899 0.01321784672037287 0.009999999999999972
    vertex 0.02305757360107899 0.01321784672037287 0
    vertex 0.02811878512310006 0.009913385040279653 0.0060204081632653
  endloop
endfacet
facet normal -0.546694 -0.837333 0
  outer loop
    vertex 0.03317999664512113 0.006608923360186432 0.01000000000000003
    vertex 0.03317999664512113 0.006608923360186432 0.02
    vertex 0.02811878512310006 0.009913385040279653 0.01408371511870055
  endloop
endfacet
endsolid Created by Gmsh
