solid Created by Gmsh
facet normal 1 0 0
  outer loop
    vertex 0.04 0.05721745686255057 0
    vertex 0.04 0.06 0
    vertex 0.04 0.06 0.009999999999999972
  endloop
endfacet
facet normal 1 0 0
  outer loop
    vertex 0.04 0.05721745686255057 0.01000000000000003
    vertex 0.04 0.06 0.02
    vertex 0.04 0.05721745686255057 0.02
  endloop
endfacet
facet normal 1 0 -0
  outer loop
    vertex 0.04 0.06 0.009999999999999972
    vertex 0.04 0.06 0.02
    vertex 0.04 0.05721745686255057 0.01000000000000003
  endloop
endfacet
facet normal 1 0 0
  outer loop
    vertex 0.04 0.05721745686255057 0
    vertex 0.04 0.06 0.009999999999999972
    vertex 0.04 0.05721745686255057 0.01000000000000003
  endloop
endfacet
facet normal 0.717138 0.696931 0
  outer loop
    vertex 0.04 0.05721745686255057 0.02
    vertex 0.0434753277524749 0.05364136580864116 0.015
    vertex 0.04 0.05721745686255057 0.009999999999999972
  endloop
endfacet
facet normal 0.717138 0.696931 -0
  outer loop
    vertex 0.04695065550494979 0.05006527475473175 0
    vertex 0.0434753277524749 0.05364136580864116 0.005000000000000001
    vertex 0.04695065550494979 0.05006527475473175 0.01000000000000003
  endloop
endfacet
facet normal 0.717138 0.696931 0
  outer loop
    vertex 0.04 0.05721745686255057 0.009999999999999972
    vertex 0.0434753277524749 0.05364136580864116 0.005000000000000001
    vertex 0.04 0.05721745686255057 0
  endloop
endfacet
facet normal 0.717138 0.696931 -0
  outer loop
    vertex 0.04695065550494979 0.05006527475473175 0.01000000000000003
    vertex 0.0434753277524749 0.05364136580864116 0.015
    vertex 0.04695065550494979 0.05006527475473175 0.02
  endloop
endfacet
facet normal 0.717138 0.696931 -1.49478e-15
  outer loop
    vertex 0.04 0.05721745686255057 0
    vertex 0.0434753277524749 0.05364136580864116 0.005000000000000001
    vertex 0.04695065550494979 0.05006527475473175 0
  endloop
endfacet
facet normal 0.717138 0.696931 1.49478e-15
  outer loop
    vertex 0.04695065550494979 0.05006527475473175 0.02
    vertex 0.0434753277524749 0.05364136580864116 0.015
    vertex 0.04 0.05721745686255057 0.02
  endloop
endfacet
facet normal 0.717138 0.696931 1.49478e-15
  outer loop
    vertex 0.04695065550494979 0.05006527475473175 0.01000000000000003
    vertex 0.0434753277524749 0.05364136580864116 0.005000000000000001
    vertex 0.04 0.05721745686255057 0.009999999999999972
  endloop
endfacet
facet normal 0.717138 0.696931 -1.49478e-15
  outer loop
    vertex 0.04 0.05721745686255057 0.009999999999999972
    vertex 0.0434753277524749 0.05364136580864116 0.015
    vertex 0.04695065550494979 0.05006527475473175 0.01000000000000003
  endloop
endfacet
facet normal 0.390823 -0.920466 1.63428e-15
  outer loop
    vertex 0.03010586499611845 0.04291309264691293 0.02
    vertex 0.03703660342955601 0.04585583648166799 0.01229656461309319
    vertex 0.03852826025053412 0.04648918370082233 0.02
  endloop
endfacet
facet normal 0.390823 -0.920466 0
  outer loop
    vertex 0.03010586499611845 0.04291309264691293 0.01000000000000003
    vertex 0.03703660342955601 0.04585583648166799 0.01229656461309319
    vertex 0.03010586499611845 0.04291309264691293 0.02
  endloop
endfacet
facet normal 0.390823 -0.920466 0
  outer loop
    vertex 0.04695065550494979 0.05006527475473175 0.009999999999999972
    vertex 0.04075890983525633 0.04743630216099548 0.006769765415381507
    vertex 0.04695065550494979 0.05006527475473175 0
  endloop
endfacet
facet normal 0.390823 -0.920466 -1.42211e-15
  outer loop
    vertex 0.04695065550494979 0.05006527475473175 0
    vertex 0.04075890983525633 0.04743630216099548 0.006769765415381507
    vertex 0.03852826025053413 0.04648918370082234 0
  endloop
endfacet
facet normal 0.390823 -0.920466 0
  outer loop
    vertex 0.04695065550494979 0.05006527475473175 0.02
    vertex 0.04273945787774196 0.04827722922777703 0.01501538519314271
    vertex 0.04695065550494979 0.05006527475473175 0.009999999999999972
  endloop
endfacet
facet normal 0.390823 -0.920466 0
  outer loop
    vertex 0.03010586499611845 0.04291309264691293 0
    vertex 0.03525160043411776 0.04509793649593156 0.005766255065716667
    vertex 0.03010586499611845 0.04291309264691293 0.01000000000000003
  endloop
endfacet
facet normal 0.390823 -0.920466 2.19141e-15
  outer loop
    vertex 0.03852826025053412 0.04648918370082233 0.02
    vertex 0.04273945787774196 0.04827722922777703 0.01501538519314271
    vertex 0.04695065550494979 0.05006527475473175 0.02
  endloop
endfacet
facet normal 0.390823 -0.920466 -1.6696e-15
  outer loop
    vertex 0.03852826025053413 0.04648918370082234 0
    vertex 0.03525160043411776 0.04509793649593156 0.005766255065716667
    vertex 0.03010586499611845 0.04291309264691293 0
  endloop
endfacet
facet normal 0.390823 -0.920466 -6.98356e-16
  outer loop
    vertex 0.04695065550494979 0.05006527475473175 0.009999999999999972
    vertex 0.04273945787774196 0.04827722922777703 0.01501538519314271
    vertex 0.04075890983525633 0.04743630216099548 0.006769765415381507
  endloop
endfacet
facet normal 0.390823 -0.920466 -3.74489e-16
  outer loop
    vertex 0.04075890983525633 0.04743630216099548 0.006769765415381507
    vertex 0.04273945787774196 0.04827722922777703 0.01501538519314271
    vertex 0.03703660342955601 0.04585583648166799 0.01229656461309319
  endloop
endfacet
facet normal 0.390823 -0.920466 -7.57683e-17
  outer loop
    vertex 0.03525160043411776 0.04509793649593156 0.005766255065716667
    vertex 0.03703660342955601 0.04585583648166799 0.01229656461309319
    vertex 0.03010586499611845 0.04291309264691293 0.01000000000000003
  endloop
endfacet
facet normal 0.390823 -0.920466 1.73037e-15
  outer loop
    vertex 0.03703660342955601 0.04585583648166799 0.01229656461309319
    vertex 0.04273945787774196 0.04827722922777703 0.01501538519314271
    vertex 0.03852826025053412 0.04648918370082233 0.02
  endloop
endfacet
facet normal 0.390823 -0.920466 -6.38823e-16
  outer loop
    vertex 0.03525160043411776 0.04509793649593156 0.005766255065716667
    vertex 0.04075890983525633 0.04743630216099548 0.006769765415381507
    vertex 0.03703660342955601 0.04585583648166799 0.01229656461309319
  endloop
endfacet
facet normal 0.390823 -0.920466 -1.51284e-15
  outer loop
    vertex 0.03852826025053413 0.04648918370082234 0
    vertex 0.04075890983525633 0.04743630216099548 0.006769765415381507
    vertex 0.03525160043411776 0.04509793649593156 0.005766255065716667
  endloop
endfacet
facet normal 0.609055 0.793128 -4.02903e-16
  outer loop
    vertex 0.03941962240344565 0.03576091053909411 0.02
    vertex 0.03476274369978205 0.03933700159300352 0.01427113702623908
    vertex 0.03010586499611845 0.04291309264691293 0.02
  endloop
endfacet
facet normal 0.609055 0.793128 5.82281e-16
  outer loop
    vertex 0.03010586499611845 0.04291309264691293 0
    vertex 0.03476274369978206 0.03933700159300351 0.005946034390432565
    vertex 0.03941962240344565 0.03576091053909411 0
  endloop
endfacet
facet normal 0.609055 0.793128 0
  outer loop
    vertex 0.03010586499611845 0.04291309264691293 0.02
    vertex 0.03476274369978205 0.03933700159300352 0.01427113702623908
    vertex 0.03010586499611845 0.04291309264691293 0.009999999999999972
  endloop
endfacet
facet normal 0.609055 0.793128 -0
  outer loop
    vertex 0.03941962240344565 0.03576091053909411 0
    vertex 0.03476274369978206 0.03933700159300351 0.005946034390432565
    vertex 0.03941962240344565 0.03576091053909411 0.01000000000000003
  endloop
endfacet
facet normal 0.609055 0.793128 -1.53423e-16
  outer loop
    vertex 0.03476274369978205 0.03933700159300352 0.01427113702623908
    vertex 0.03476274369978206 0.03933700159300351 0.005946034390432565
    vertex 0.03010586499611845 0.04291309264691293 0.009999999999999972
  endloop
endfacet
facet normal 0.609055 0.793128 -1.38627e-16
  outer loop
    vertex 0.03941962240344565 0.03576091053909411 0.01000000000000003
    vertex 0.03476274369978206 0.03933700159300351 0.005946034390432565
    vertex 0.03476274369978205 0.03933700159300352 0.01427113702623908
  endloop
endfacet
facet normal 0.609055 0.793128 0
  outer loop
    vertex 0.03010586499611845 0.04291309264691293 0.009999999999999972
    vertex 0.03476274369978206 0.03933700159300351 0.005946034390432565
    vertex 0.03010586499611845 0.04291309264691293 0
  endloop
endfacet
facet normal 0.609055 0.793128 -0
  outer loop
    vertex 0.03941962240344565 0.03576091053909411 0.01000000000000003
    vertex 0.03476274369978205 0.03933700159300352 0.01427113702623908
    vertex 0.03941962240344565 0.03576091053909411 0.02
  endloop
endfacet
facet normal 0.647704 0.761892 -1.83411e-15
  outer loop
    vertex 0.03941962240344565 0.03576091053909411 0
    vertex 0.04362616720894125 0.03218481948518471 0.005520616409829227
    vertex 0.04783271201443685 0.02860872843127529 0
  endloop
endfacet
facet normal 0.647704 0.761892 2.12242e-15
  outer loop
    vertex 0.04783271201443685 0.02860872843127529 0.02
    vertex 0.04362616720894124 0.03218481948518472 0.0145064877347891
    vertex 0.03941962240344565 0.03576091053909411 0.02
  endloop
endfacet
facet normal 0.647704 0.761892 -0
  outer loop
    vertex 0.04783271201443685 0.02860872843127529 0
    vertex 0.04362616720894125 0.03218481948518471 0.005520616409829227
    vertex 0.04783271201443685 0.02860872843127529 0.01000000000000003
  endloop
endfacet
facet normal 0.647704 0.761892 0
  outer loop
    vertex 0.03941962240344565 0.03576091053909411 0.02
    vertex 0.04362616720894124 0.03218481948518472 0.0145064877347891
    vertex 0.03941962240344565 0.03576091053909411 0.009999999999999972
  endloop
endfacet
facet normal 0.647704 0.761892 -1.76352e-16
  outer loop
    vertex 0.04362616720894125 0.03218481948518471 0.005520616409829227
    vertex 0.04362616720894124 0.03218481948518472 0.0145064877347891
    vertex 0.04783271201443685 0.02860872843127529 0.01000000000000003
  endloop
endfacet
facet normal 0.647704 0.761892 -0
  outer loop
    vertex 0.04783271201443685 0.02860872843127529 0.01000000000000003
    vertex 0.04362616720894124 0.03218481948518472 0.0145064877347891
    vertex 0.04783271201443685 0.02860872843127529 0.02
  endloop
endfacet
facet normal 0.647704 0.761892 -1.70729e-16
  outer loop
    vertex 0.03941962240344565 0.03576091053909411 0.009999999999999972
    vertex 0.04362616720894124 0.03218481948518472 0.0145064877347891
    vertex 0.04362616720894125 0.03218481948518471 0.005520616409829227
  endloop
endfacet
facet normal 0.647704 0.761892 0
  outer loop
    vertex 0.03941962240344565 0.03576091053909411 0.009999999999999972
    vertex 0.04362616720894125 0.03218481948518471 0.005520616409829227
    vertex 0.03941962240344565 0.03576091053909411 0
  endloop
endfacet
facet normal 0.87557 -0.483091 0
  outer loop
    vertex 0.04783271201443685 0.02860872843127529 0.02
    vertex 0.04585962341375063 0.02503263737736587 0.015
    vertex 0.04783271201443685 0.02860872843127529 0.009999999999999972
  endloop
endfacet
facet normal 0.87557 -0.483091 0
  outer loop
    vertex 0.04388653481306441 0.02145654632345646 0
    vertex 0.04585962341375063 0.02503263737736587 0.005
    vertex 0.04388653481306441 0.02145654632345646 0.01000000000000003
  endloop
endfacet
facet normal 0.87557 -0.483091 0
  outer loop
    vertex 0.04783271201443685 0.02860872843127529 0.009999999999999972
    vertex 0.04585962341375063 0.02503263737736587 0.005
    vertex 0.04783271201443685 0.02860872843127529 0
  endloop
endfacet
facet normal 0.87557 -0.483091 0
  outer loop
    vertex 0.04388653481306441 0.02145654632345646 0.01000000000000003
    vertex 0.04585962341375063 0.02503263737736587 0.015
    vertex 0.04388653481306441 0.02145654632345646 0.02
  endloop
endfacet
facet normal 0.87557 -0.483091 -6.22163e-16
  outer loop
    vertex 0.04388653481306441 0.02145654632345646 0.01000000000000003
    vertex 0.04585962341375063 0.02503263737736587 0.005
    vertex 0.04783271201443685 0.02860872843127529 0.009999999999999972
  endloop
endfacet
facet normal 0.87557 -0.483091 -6.22163e-16
  outer loop
    vertex 0.04388653481306441 0.02145654632345646 0.02
    vertex 0.04585962341375063 0.02503263737736587 0.015
    vertex 0.04783271201443685 0.02860872843127529 0.02
  endloop
endfacet
facet normal 0.87557 -0.483091 6.22163e-16
  outer loop
    vertex 0.04783271201443685 0.02860872843127529 0
    vertex 0.04585962341375063 0.02503263737736587 0.005
    vertex 0.04388653481306441 0.02145654632345646 0
  endloop
endfacet
facet normal 0.87557 -0.483091 6.22163e-16
  outer loop
    vertex 0.04783271201443685 0.02860872843127529 0.009999999999999972
    vertex 0.04585962341375063 0.02503263737736587 0.015
    vertex 0.04388653481306441 0.02145654632345646 0.01000000000000003
  endloop
endfacet
facet normal 0.670096 -0.742275 7.51193e-16
  outer loop
    vertex 0.04388653481306441 0.02145654632345646 0
    vertex 0.03992524526413292 0.01788045526954704 0.0054935122652109
    vertex 0.03596395571520147 0.01430436421563765 0
  endloop
endfacet
facet normal 0.670096 -0.742275 -6.32504e-16
  outer loop
    vertex 0.03596395571520147 0.01430436421563765 0.02
    vertex 0.03992524526413295 0.01788045526954707 0.01447938359017075
    vertex 0.04388653481306441 0.02145654632345646 0.02
  endloop
endfacet
facet normal 0.670096 -0.742275 0
  outer loop
    vertex 0.04388653481306441 0.02145654632345646 0.02
    vertex 0.03992524526413295 0.01788045526954707 0.01447938359017075
    vertex 0.04388653481306441 0.02145654632345646 0.009999999999999972
  endloop
endfacet
facet normal 0.670096 -0.742275 0
  outer loop
    vertex 0.03596395571520147 0.01430436421563765 0
    vertex 0.03992524526413292 0.01788045526954704 0.0054935122652109
    vertex 0.03596395571520147 0.01430436421563765 0.01000000000000003
  endloop
endfacet
facet normal 0.670096 -0.742275 0
  outer loop
    vertex 0.04388653481306441 0.02145654632345646 0.009999999999999972
    vertex 0.03992524526413292 0.01788045526954704 0.0054935122652109
    vertex 0.04388653481306441 0.02145654632345646 0
  endloop
endfacet
facet normal 0.670096 -0.742275 0
  outer loop
    vertex 0.03596395571520147 0.01430436421563765 0.01000000000000003
    vertex 0.03992524526413295 0.01788045526954707 0.01447938359017075
    vertex 0.03596395571520147 0.01430436421563765 0.02
  endloop
endfacet
facet normal 0.670096 -0.742275 -6.36449e-17
  outer loop
    vertex 0.03992524526413295 0.01788045526954707 0.01447938359017075
    vertex 0.03992524526413292 0.01788045526954704 0.0054935122652109
    vertex 0.04388653481306441 0.02145654632345646 0.009999999999999972
  endloop
endfacet
facet normal 0.670096 -0.742275 -7.06526e-17
  outer loop
    vertex 0.03596395571520147 0.01430436421563765 0.01000000000000003
    vertex 0.03992524526413292 0.01788045526954704 0.0054935122652109
    vertex 0.03992524526413295 0.01788045526954707 0.01447938359017075
  endloop
endfacet
facet normal 0.975588 0.21961 -7.39449e-16
  outer loop
    vertex 0.03757395077339686 0.007152182107818823 0.02
    vertex 0.03676895324429916 0.01072827316172823 0.015
    vertex 0.03596395571520147 0.01430436421563765 0.02
  endloop
endfacet
facet normal 0.975588 0.21961 7.39449e-16
  outer loop
    vertex 0.03596395571520147 0.01430436421563765 0
    vertex 0.03676895324429916 0.01072827316172823 0.004999999999999999
    vertex 0.03757395077339686 0.007152182107818823 0
  endloop
endfacet
facet normal 0.975588 0.21961 7.39449e-16
  outer loop
    vertex 0.03596395571520147 0.01430436421563765 0.009999999999999972
    vertex 0.03676895324429916 0.01072827316172823 0.015
    vertex 0.03757395077339686 0.007152182107818823 0.01000000000000003
  endloop
endfacet
facet normal 0.975588 0.21961 -7.39449e-16
  outer loop
    vertex 0.03757395077339686 0.007152182107818823 0.01000000000000003
    vertex 0.03676895324429916 0.01072827316172823 0.004999999999999999
    vertex 0.03596395571520147 0.01430436421563765 0.009999999999999972
  endloop
endfacet
facet normal 0.975588 0.21961 0
  outer loop
    vertex 0.03596395571520147 0.01430436421563765 0.009999999999999972
    vertex 0.03676895324429916 0.01072827316172823 0.004999999999999999
    vertex 0.03596395571520147 0.01430436421563765 0
  endloop
endfacet
facet normal 0.975588 0.21961 0
  outer loop
    vertex 0.03596395571520147 0.01430436421563765 0.02
    vertex 0.03676895324429916 0.01072827316172823 0.015
    vertex 0.03596395571520147 0.01430436421563765 0.009999999999999972
  endloop
endfacet
facet normal 0.975588 0.21961 -0
  outer loop
    vertex 0.03757395077339686 0.007152182107818823 0
    vertex 0.03676895324429916 0.01072827316172823 0.004999999999999999
    vertex 0.03757395077339686 0.007152182107818823 0.01000000000000003
  endloop
endfacet
facet normal 0.975588 0.21961 -0
  outer loop
    vertex 0.03757395077339686 0.007152182107818823 0.01000000000000003
    vertex 0.03676895324429916 0.01072827316172823 0.015
    vertex 0.03757395077339686 0.007152182107818823 0.02
  endloop
endfacet
endsolid Created by Gmsh
