solid Created by Gmsh
facet normal 1 0 -1.38778e-15
  outer loop
    vertex 0.04 0.06 0
    vertex 0.04000000000000001 0.05483029444724778 0.004999999999999985
    vertex 0.04 0.04966058889449556 0
  endloop
endfacet
facet normal 1 -0 1.38778e-15
  outer loop
    vertex 0.04 0.04966058889449556 0.02
    vertex 0.04000000000000001 0.05483029444724778 0.01500000000000001
    vertex 0.04 0.06 0.02
  endloop
endfacet
facet normal 1 -1.34222e-15 -9.31354e-31
  outer loop
    vertex 0.04000000000000001 0.05483029444724778 0.004999999999999985
    vertex 0.04000000000000001 0.05483029444724778 0.01500000000000001
    vertex 0.04 0.04966058889449556 0.01000000000000003
  endloop
endfacet
facet normal 1 1.34222e-15 0
  outer loop
    vertex 0.04 0.06 0.02
    vertex 0.04000000000000001 0.05483029444724778 0.01500000000000001
    vertex 0.04 0.06 0.009999999999999972
  endloop
endfacet
facet normal 1 1.34222e-15 9.31354e-31
  outer loop
    vertex 0.04 0.06 0.009999999999999972
    vertex 0.04000000000000001 0.05483029444724778 0.01500000000000001
    vertex 0.04000000000000001 0.05483029444724778 0.004999999999999985
  endloop
endfacet
facet normal 1 -1.34222e-15 0
  outer loop
    vertex 0.04 0.04966058889449556 0
    vertex 0.04000000000000001 0.05483029444724778 0.004999999999999985
    vertex 0.04 0.04966058889449556 0.01000000000000003
  endloop
endfacet
facet normal 1 1.34222e-15 0
  outer loop
    vertex 0.04 0.06 0.009999999999999972
    vertex 0.04000000000000001 0.05483029444724778 0.004999999999999985
    vertex 0.04 0.06 0
  endloop
endfacet
facet normal 1 -1.34222e-15 0
  outer loop
    vertex 0.04 0.04966058889449556 0.01000000000000003
    vertex 0.04000000000000001 0.05483029444724778 0.01500000000000001
    vertex 0.04 0.04966058889449556 0.02
  endloop
endfacet
facet normal 0.423172 0.906049 -8.31708e-16
  outer loop
    vertex 0.04664548115760314 0.04655680208858959 0.02
    vertex 0.04650985909316226 0.04662014467646521 0.01251062043666625
    vertex 0.04 0.04966058889449556 0.02
  endloop
endfacet
facet normal 0.423172 0.906049 -8.01832e-16
  outer loop
    vertex 0.05329096231520629 0.04345301528268362 0.02
    vertex 0.04650985909316226 0.04662014467646521 0.01251062043666625
    vertex 0.04664548115760314 0.04655680208858959 0.02
  endloop
endfacet
facet normal 0.423172 0.906049 0
  outer loop
    vertex 0.04 0.04966058889449556 0.02
    vertex 0.04650985909316226 0.04662014467646521 0.01251062043666625
    vertex 0.04 0.04966058889449556 0.009999999999999972
  endloop
endfacet
facet normal 0.423172 0.906049 -0
  outer loop
    vertex 0.05329096231520629 0.04345301528268362 0.01000000000000003
    vertex 0.04650985909316226 0.04662014467646521 0.01251062043666625
    vertex 0.05329096231520629 0.04345301528268362 0.02
  endloop
endfacet
facet normal 0.423172 0.906049 -0
  outer loop
    vertex 0.05329096231520629 0.04345301528268362 0
    vertex 0.04863912550488409 0.04562566604681779 0.005306938685288622
    vertex 0.05329096231520629 0.04345301528268362 0.01000000000000003
  endloop
endfacet
facet normal 0.423172 0.906049 0
  outer loop
    vertex 0.04 0.04966058889449556 0.009999999999999972
    vertex 0.0440628495590361 0.04776302594056412 0.005402508445993544
    vertex 0.04 0.04966058889449556 0
  endloop
endfacet
facet normal 0.423172 0.906049 3.04656e-16
  outer loop
    vertex 0.04664548115760315 0.04655680208858959 0
    vertex 0.04863912550488409 0.04562566604681779 0.005306938685288622
    vertex 0.05329096231520629 0.04345301528268362 0
  endloop
endfacet
facet normal 0.423172 0.906049 5.55781e-16
  outer loop
    vertex 0.04 0.04966058889449556 0
    vertex 0.0440628495590361 0.04776302594056412 0.005402508445993544
    vertex 0.04664548115760315 0.04655680208858959 0
  endloop
endfacet
facet normal 0.423172 0.906049 8.9014e-16
  outer loop
    vertex 0.04863912550488409 0.04562566604681779 0.005306938685288622
    vertex 0.0440628495590361 0.04776302594056412 0.005402508445993544
    vertex 0.04650985909316226 0.04662014467646521 0.01251062043666625
  endloop
endfacet
facet normal 0.423172 0.906049 5.01674e-16
  outer loop
    vertex 0.04664548115760315 0.04655680208858959 0
    vertex 0.0440628495590361 0.04776302594056412 0.005402508445993544
    vertex 0.04863912550488409 0.04562566604681779 0.005306938685288622
  endloop
endfacet
facet normal 0.423172 0.906049 7.40936e-16
  outer loop
    vertex 0.04863912550488409 0.04562566604681779 0.005306938685288622
    vertex 0.04650985909316226 0.04662014467646521 0.01251062043666625
    vertex 0.05329096231520629 0.04345301528268362 0.01000000000000003
  endloop
endfacet
facet normal 0.423172 0.906049 4.20739e-16
  outer loop
    vertex 0.04650985909316226 0.04662014467646521 0.01251062043666625
    vertex 0.0440628495590361 0.04776302594056412 0.005402508445993544
    vertex 0.04 0.04966058889449556 0.009999999999999972
  endloop
endfacet
facet normal 0.493287 -0.869867 1.07696e-16
  outer loop
    vertex 0.04234445905389692 0.03724544167087167 0.01000000000000003
    vertex 0.05329096231520629 0.04345301528268362 0.009999999999999972
    vertex 0.04781771068455161 0.04034922847677765 0.02
  endloop
endfacet
facet normal 0.493287 -0.869867 -1.34619e-16
  outer loop
    vertex 0.04781771068455161 0.04034922847677765 0
    vertex 0.05329096231520629 0.04345301528268362 0.009999999999999972
    vertex 0.04234445905389692 0.03724544167087167 0.01000000000000003
  endloop
endfacet
facet normal 0.493287 -0.869867 0
  outer loop
    vertex 0.04781771068455161 0.04034922847677765 0
    vertex 0.05329096231520629 0.04345301528268362 0
    vertex 0.05329096231520629 0.04345301528268362 0.009999999999999972
  endloop
endfacet
facet normal 0.493287 -0.869867 0
  outer loop
    vertex 0.05329096231520629 0.04345301528268362 0.009999999999999972
    vertex 0.05329096231520629 0.04345301528268362 0.02
    vertex 0.04781771068455161 0.04034922847677765 0.02
  endloop
endfacet
facet normal 0.493287 -0.869867 0
  outer loop
    vertex 0.04234445905389692 0.03724544167087167 0.01000000000000003
    vertex 0.04234445905389692 0.03724544167087167 0
    vertex 0.04781771068455161 0.04034922847677765 0
  endloop
endfacet
facet normal 0.493287 -0.869867 0
  outer loop
    vertex 0.04781771068455161 0.04034922847677765 0.02
    vertex 0.04234445905389692 0.03724544167087167 0.02
    vertex 0.04234445905389692 0.03724544167087167 0.01000000000000003
  endloop
endfacet
facet normal 0.539805 -0.84179 3.08573e-16
  outer loop
    vertex 0.03266415805191426 0.03103786805905973 0.02
    vertex 0.0375043085529056 0.0341416548649657 0.01427113702623908
    vertex 0.04234445905389692 0.03724544167087167 0.02
  endloop
endfacet
facet normal 0.539805 -0.84179 0
  outer loop
    vertex 0.04234445905389692 0.03724544167087167 0
    vertex 0.03750430855290558 0.03414165486496569 0.005675738850308979
    vertex 0.03266415805191426 0.03103786805905973 0
  endloop
endfacet
facet normal 0.539805 -0.84179 0
  outer loop
    vertex 0.04234445905389692 0.03724544167087167 0.02
    vertex 0.0375043085529056 0.0341416548649657 0.01427113702623908
    vertex 0.04234445905389692 0.03724544167087167 0.009999999999999972
  endloop
endfacet
facet normal 0.539805 -0.84179 0
  outer loop
    vertex 0.03266415805191426 0.03103786805905973 0
    vertex 0.03750430855290558 0.03414165486496569 0.005675738850308979
    vertex 0.03266415805191426 0.03103786805905973 0.01000000000000003
  endloop
endfacet
facet normal 0.539805 -0.84179 -1.91987e-16
  outer loop
    vertex 0.0375043085529056 0.0341416548649657 0.01427113702623908
    vertex 0.03750430855290558 0.03414165486496569 0.005675738850308979
    vertex 0.04234445905389692 0.03724544167087167 0.009999999999999972
  endloop
endfacet
facet normal 0.539805 -0.84179 -2.05665e-16
  outer loop
    vertex 0.03266415805191426 0.03103786805905973 0.01000000000000003
    vertex 0.03750430855290558 0.03414165486496569 0.005675738850308979
    vertex 0.0375043085529056 0.0341416548649657 0.01427113702623908
  endloop
endfacet
facet normal 0.539805 -0.84179 0
  outer loop
    vertex 0.04234445905389692 0.03724544167087167 0.009999999999999972
    vertex 0.03750430855290558 0.03414165486496569 0.005675738850308979
    vertex 0.04234445905389692 0.03724544167087167 0
  endloop
endfacet
facet normal 0.539805 -0.84179 0
  outer loop
    vertex 0.03266415805191426 0.03103786805905973 0.01000000000000003
    vertex 0.0375043085529056 0.0341416548649657 0.01427113702623908
    vertex 0.03266415805191426 0.03103786805905973 0.02
  endloop
endfacet
facet normal 0.619573 0.784939 -8.116e-16
  outer loop
    vertex 0.04052855302782372 0.02483029444724778 0.02
    vertex 0.03659635553986899 0.02793408125315375 0.01500000000000001
    vertex 0.03266415805191426 0.03103786805905973 0.02
  endloop
endfacet
facet normal 0.619573 0.784939 1.0145e-15
  outer loop
    vertex 0.03266415805191426 0.03103786805905973 0
    vertex 0.03659635553986901 0.02793408125315373 0.005000000000000014
    vertex 0.04052855302782372 0.02483029444724778 0
  endloop
endfacet
facet normal 0.619573 0.784939 -0
  outer loop
    vertex 0.04052855302782372 0.02483029444724778 0
    vertex 0.03659635553986901 0.02793408125315373 0.005000000000000014
    vertex 0.04052855302782372 0.02483029444724778 0.01000000000000003
  endloop
endfacet
facet normal 0.619573 0.784939 0
  outer loop
    vertex 0.03266415805191426 0.03103786805905973 0.02
    vertex 0.03659635553986899 0.02793408125315375 0.01500000000000001
    vertex 0.03266415805191426 0.03103786805905973 0.009999999999999972
  endloop
endfacet
facet normal 0.619573 0.784939 -6.76334e-17
  outer loop
    vertex 0.03266415805191426 0.03103786805905973 0.009999999999999972
    vertex 0.03659635553986899 0.02793408125315375 0.01500000000000001
    vertex 0.03659635553986901 0.02793408125315373 0.005000000000000014
  endloop
endfacet
facet normal 0.619573 0.784939 -7.19068e-17
  outer loop
    vertex 0.03659635553986901 0.02793408125315373 0.005000000000000014
    vertex 0.03659635553986899 0.02793408125315375 0.01500000000000001
    vertex 0.04052855302782372 0.02483029444724778 0.01000000000000003
  endloop
endfacet
facet normal 0.619573 0.784939 0
  outer loop
    vertex 0.03266415805191426 0.03103786805905973 0.009999999999999972
    vertex 0.03659635553986901 0.02793408125315373 0.005000000000000014
    vertex 0.03266415805191426 0.03103786805905973 0
  endloop
endfacet
facet normal 0.619573 0.784939 -0
  outer loop
    vertex 0.04052855302782372 0.02483029444724778 0.01000000000000003
    vertex 0.03659635553986899 0.02793408125315375 0.01500000000000001
    vertex 0.04052855302782372 0.02483029444724778 0.02
  endloop
endfacet
facet normal 0.88334 -0.468734 1.39818e-15
  outer loop
    vertex 0.03723457796460422 0.01862272083543583 0.01000000000000003
    vertex 0.03888156549621398 0.02172650764134181 0.005000000000000001
    vertex 0.04052855302782372 0.02483029444724778 0.009999999999999972
  endloop
endfacet
facet normal 0.88334 -0.468734 -1.39818e-15
  outer loop
    vertex 0.04052855302782372 0.02483029444724778 0.009999999999999972
    vertex 0.03888156549621398 0.02172650764134181 0.015
    vertex 0.03723457796460422 0.01862272083543583 0.01000000000000003
  endloop
endfacet
facet normal 0.88334 -0.468734 1.39818e-15
  outer loop
    vertex 0.03723457796460422 0.01862272083543583 0.02
    vertex 0.03888156549621398 0.02172650764134181 0.015
    vertex 0.04052855302782372 0.02483029444724778 0.02
  endloop
endfacet
facet normal 0.88334 -0.468734 -1.39818e-15
  outer loop
    vertex 0.04052855302782372 0.02483029444724778 0
    vertex 0.03888156549621398 0.02172650764134181 0.005000000000000001
    vertex 0.03723457796460422 0.01862272083543583 0
  endloop
endfacet
facet normal 0.88334 -0.468734 0
  outer loop
    vertex 0.04052855302782372 0.02483029444724778 0.009999999999999972
    vertex 0.03888156549621398 0.02172650764134181 0.005000000000000001
    vertex 0.04052855302782372 0.02483029444724778 0
  endloop
endfacet
facet normal 0.88334 -0.468734 0
  outer loop
    vertex 0.04052855302782372 0.02483029444724778 0.02
    vertex 0.03888156549621398 0.02172650764134181 0.015
    vertex 0.04052855302782372 0.02483029444724778 0.009999999999999972
  endloop
endfacet
facet normal 0.88334 -0.468734 0
  outer loop
    vertex 0.03723457796460422 0.01862272083543583 0
    vertex 0.03888156549621398 0.02172650764134181 0.005000000000000001
    vertex 0.03723457796460422 0.01862272083543583 0.01000000000000003
  endloop
endfacet
facet normal 0.88334 -0.468734 0
  outer loop
    vertex 0.03723457796460422 0.01862272083543583 0.01000000000000003
    vertex 0.03888156549621398 0.02172650764134181 0.015
    vertex 0.03723457796460422 0.01862272083543583 0.02
  endloop
endfacet
facet normal 0.981081 -0.193599 1.35209e-15
  outer loop
    vertex 0.03723457796460422 0.01862272083543583 0.009999999999999972
    vertex 0.03662209968964408 0.01551893402952986 0.015
    vertex 0.03600962141468395 0.01241514722362389 0.01000000000000003
  endloop
endfacet
facet normal 0.981081 -0.193599 1.35209e-15
  outer loop
    vertex 0.03723457796460422 0.01862272083543583 0
    vertex 0.03662209968964408 0.01551893402952986 0.005000000000000001
    vertex 0.03600962141468395 0.01241514722362389 0
  endloop
endfacet
facet normal 0.981081 -0.193599 -1.36547e-15
  outer loop
    vertex 0.03600962141468395 0.01241514722362389 0.01000000000000003
    vertex 0.03662209968964408 0.01551893402952986 0.005000000000000001
    vertex 0.03723457796460422 0.01862272083543583 0.009999999999999972
  endloop
endfacet
facet normal 0.981081 -0.193599 -1.36547e-15
  outer loop
    vertex 0.03600962141468395 0.01241514722362389 0.02
    vertex 0.03662209968964408 0.01551893402952986 0.015
    vertex 0.03723457796460422 0.01862272083543583 0.02
  endloop
endfacet
facet normal 0.981081 -0.193599 0
  outer loop
    vertex 0.03723457796460422 0.01862272083543583 0.009999999999999972
    vertex 0.03662209968964408 0.01551893402952986 0.005000000000000001
    vertex 0.03723457796460422 0.01862272083543583 0
  endloop
endfacet
facet normal 0.981081 -0.193599 0
  outer loop
    vertex 0.03723457796460422 0.01862272083543583 0.02
    vertex 0.03662209968964408 0.01551893402952986 0.015
    vertex 0.03723457796460422 0.01862272083543583 0.009999999999999972
  endloop
endfacet
facet normal 0.981081 -0.193599 0
  outer loop
    vertex 0.03600962141468395 0.01241514722362389 0
    vertex 0.03662209968964408 0.01551893402952986 0.005000000000000001
    vertex 0.03600962141468395 0.01241514722362389 0.01000000000000003
  endloop
endfacet
facet normal 0.981081 -0.193599 0
  outer loop
    vertex 0.03600962141468395 0.01241514722362389 0.01000000000000003
    vertex 0.03662209968964408 0.01551893402952986 0.015
    vertex 0.03600962141468395 0.01241514722362389 0.02
  endloop
endfacet
facet normal 0.570904 0.821017 6.23942e-16
  outer loop
    vertex 0.04493673020017541 0.006207573611811942 0.02
    vertex 0.04047317580742968 0.009311360417717919 0.01450648773478912
    vertex 0.03600962141468395 0.01241514722362389 0.02
  endloop
endfacet
facet normal 0.570904 0.821017 -4.51548e-16
  outer loop
    vertex 0.03600962141468395 0.01241514722362389 0
    vertex 0.04047317580742969 0.009311360417717908 0.005520616409829249
    vertex 0.04493673020017541 0.006207573611811942 0
  endloop
endfacet
facet normal 0.570904 0.821017 0
  outer loop
    vertex 0.03600962141468395 0.01241514722362389 0.02
    vertex 0.04047317580742968 0.009311360417717919 0.01450648773478912
    vertex 0.03600962141468395 0.01241514722362389 0.009999999999999972
  endloop
endfacet
facet normal 0.570904 0.821017 -0
  outer loop
    vertex 0.04493673020017541 0.006207573611811942 0
    vertex 0.04047317580742969 0.009311360417717908 0.005520616409829249
    vertex 0.04493673020017541 0.006207573611811942 0.01000000000000003
  endloop
endfacet
facet normal 0.570904 0.821017 -6.9354e-17
  outer loop
    vertex 0.03600962141468395 0.01241514722362389 0.009999999999999972
    vertex 0.04047317580742968 0.009311360417717919 0.01450648773478912
    vertex 0.04047317580742969 0.009311360417717908 0.005520616409829249
  endloop
endfacet
facet normal 0.570904 0.821017 -6.92796e-17
  outer loop
    vertex 0.04047317580742969 0.009311360417717908 0.005520616409829249
    vertex 0.04047317580742968 0.009311360417717919 0.01450648773478912
    vertex 0.04493673020017541 0.006207573611811942 0.01000000000000003
  endloop
endfacet
facet normal 0.570904 0.821017 0
  outer loop
    vertex 0.03600962141468395 0.01241514722362389 0.009999999999999972
    vertex 0.04047317580742969 0.009311360417717908 0.005520616409829249
    vertex 0.03600962141468395 0.01241514722362389 0
  endloop
endfacet
facet normal 0.570904 0.821017 -0
  outer loop
    vertex 0.04493673020017541 0.006207573611811942 0.01000000000000003
    vertex 0.04047317580742968 0.009311360417717919 0.01450648773478912
    vertex 0.04493673020017541 0.006207573611811942 0.02
  endloop
endfacet
endsolid Created by Gmsh
