solid Created by Gmsh
facet normal 0.9965 -0.0835933 1.14042e-16
  outer loop
    vertex 0.009725775995971233 0.02057266063787483 0
    vertex 0.00924884317036829 0.01488723147957309 0.01079299325765293
    vertex 0.008862887997985618 0.01028633031893742 0
  endloop
endfacet
facet normal 0.9965 -0.0835933 -1.23143e-16
  outer loop
    vertex 0.01058866399395685 0.03085899095681225 0.02
    vertex 0.01106672388938105 0.03655785570872639 0.009338243958579398
    vertex 0.01145155199194247 0.04114532127574966 0.02
  endloop
endfacet
facet normal 0.9965 -0.0835933 7.50196e-17
  outer loop
    vertex 0.009725775995971233 0.02057266063787483 0
    vertex 0.01015740783993425 0.02571806506294561 0.01002187286937205
    vertex 0.00924884317036829 0.01488723147957309 0.01079299325765293
  endloop
endfacet
facet normal 0.9965 -0.0835933 9.82538e-17
  outer loop
    vertex 0.01058866399395685 0.03085899095681224 0
    vertex 0.01015740783993425 0.02571806506294561 0.01002187286937205
    vertex 0.009725775995971233 0.02057266063787483 0
  endloop
endfacet
facet normal 0.9965 -0.0835933 -1.2849e-16
  outer loop
    vertex 0.01058866399395685 0.03085899095681225 0.02
    vertex 0.01015740783993425 0.02571806506294561 0.01002187286937205
    vertex 0.01106672388938105 0.03655785570872639 0.009338243958579398
  endloop
endfacet
facet normal 0.9965 -0.0835933 1.6862e-16
  outer loop
    vertex 0.01106672388938105 0.03655785570872639 0.009338243958579398
    vertex 0.01015740783993425 0.02571806506294561 0.01002187286937205
    vertex 0.01058866399395685 0.03085899095681224 0
  endloop
endfacet
facet normal 0.9965 -0.0835933 2.03895e-16
  outer loop
    vertex 0.00924884317036829 0.01488723147957309 0.01079299325765293
    vertex 0.008622442950452652 0.007420028796317441 0.007672316368010936
    vertex 0.008862887997985618 0.01028633031893742 0
  endloop
endfacet
facet normal 0.9965 -0.0835933 -1.15569e-16
  outer loop
    vertex 0.01106672388938105 0.03655785570872639 0.009338243958579398
    vertex 0.01169205571657983 0.04401232227742068 0.01233451605682415
    vertex 0.01145155199194247 0.04114532127574966 0.02
  endloop
endfacet
facet normal 0.9965 -0.0835933 -6.57897e-17
  outer loop
    vertex 0.009725775995971233 0.02057266063787483 0.02
    vertex 0.01015740783993425 0.02571806506294561 0.01002187286937205
    vertex 0.01058866399395685 0.03085899095681225 0.02
  endloop
endfacet
facet normal 0.9965 -0.0835933 -5.67557e-17
  outer loop
    vertex 0.00924884317036829 0.01488723147957309 0.01079299325765293
    vertex 0.01015740783993425 0.02571806506294561 0.01002187286937205
    vertex 0.009725775995971233 0.02057266063787483 0.02
  endloop
endfacet
facet normal 0.9965 -0.0835933 2.28468e-16
  outer loop
    vertex 0.01145155199194247 0.04114532127574964 0
    vertex 0.01106672388938105 0.03655785570872639 0.009338243958579398
    vertex 0.01058866399395685 0.03085899095681224 0
  endloop
endfacet
facet normal 0.9965 -0.0835933 -5.34749e-17
  outer loop
    vertex 0.008862887997985618 0.01028633031893743 0.02
    vertex 0.00924884317036829 0.01488723147957309 0.01079299325765293
    vertex 0.009725775995971233 0.02057266063787483 0.02
  endloop
endfacet
facet normal 0.9965 -0.0835933 0
  outer loop
    vertex 0.008 0 0
    vertex 0.008622442950452652 0.007420028796317441 0.007672316368010936
    vertex 0.008 0 0.01000000000000003
  endloop
endfacet
facet normal 0.9965 -0.0835933 0
  outer loop
    vertex 0.01231443998992808 0.05143165159468707 0.02
    vertex 0.01169205571657983 0.04401232227742068 0.01233451605682415
    vertex 0.01231443998992808 0.05143165159468707 0.009999999999999972
  endloop
endfacet
facet normal 0.9965 -0.0835933 2.40643e-16
  outer loop
    vertex 0.008862887997985618 0.01028633031893742 0
    vertex 0.008622442950452652 0.007420028796317441 0.007672316368010936
    vertex 0.008 0 0
  endloop
endfacet
facet normal 0.9965 -0.0835933 -1.60572e-16
  outer loop
    vertex 0.01145155199194247 0.04114532127574966 0.02
    vertex 0.01169205571657983 0.04401232227742068 0.01233451605682415
    vertex 0.01231443998992808 0.05143165159468707 0.02
  endloop
endfacet
facet normal 0.9965 -0.0835933 -1.51171e-16
  outer loop
    vertex 0.008862887997985618 0.01028633031893743 0.02
    vertex 0.008513866016684595 0.006125702987680767 0.01406647280366628
    vertex 0.00924884317036829 0.01488723147957309 0.01079299325765293
  endloop
endfacet
facet normal 0.9965 -0.0835933 2.99712e-16
  outer loop
    vertex 0.01145155199194247 0.04114532127574964 0
    vertex 0.01180074336566144 0.04530796790310108 0.005953251430771927
    vertex 0.01106672388938105 0.03655785570872639 0.009338243958579398
  endloop
endfacet
facet normal 0.9965 -0.0835933 -1.64053e-17
  outer loop
    vertex 0.01106672388938105 0.03655785570872639 0.009338243958579398
    vertex 0.01180074336566144 0.04530796790310108 0.005953251430771927
    vertex 0.01169205571657983 0.04401232227742068 0.01233451605682415
  endloop
endfacet
facet normal 0.9965 -0.0835933 9.77956e-17
  outer loop
    vertex 0.00924884317036829 0.01488723147957309 0.01079299325765293
    vertex 0.008513866016684595 0.006125702987680767 0.01406647280366628
    vertex 0.008622442950452652 0.007420028796317441 0.007672316368010936
  endloop
endfacet
facet normal 0.9965 -0.0835933 3.58374e-16
  outer loop
    vertex 0.01231443998992808 0.05143165159468707 0
    vertex 0.01180074336566144 0.04530796790310108 0.005953251430771927
    vertex 0.01145155199194247 0.04114532127574964 0
  endloop
endfacet
facet normal 0.9965 -0.0835933 -3.31906e-16
  outer loop
    vertex 0.008 0 0.02
    vertex 0.008513866016684595 0.006125702987680767 0.01406647280366628
    vertex 0.008862887997985618 0.01028633031893743 0.02
  endloop
endfacet
facet normal 0.9965 -0.0835933 0
  outer loop
    vertex 0.01231443998992808 0.05143165159468707 0.009999999999999972
    vertex 0.01180074336566144 0.04530796790310108 0.005953251430771927
    vertex 0.01231443998992808 0.05143165159468707 0
  endloop
endfacet
facet normal 0.9965 -0.0835933 0
  outer loop
    vertex 0.008 0 0.01000000000000003
    vertex 0.008513866016684595 0.006125702987680767 0.01406647280366628
    vertex 0.008 0 0.02
  endloop
endfacet
facet normal 0.9965 -0.0835933 -6.90376e-17
  outer loop
    vertex 0.01169205571657983 0.04401232227742068 0.01233451605682415
    vertex 0.01180074336566144 0.04530796790310108 0.005953251430771927
    vertex 0.01231443998992808 0.05143165159468707 0.009999999999999972
  endloop
endfacet
facet normal 0.9965 -0.0835933 1.73346e-16
  outer loop
    vertex 0.008622442950452652 0.007420028796317441 0.007672316368010936
    vertex 0.008513866016684595 0.006125702987680767 0.01406647280366628
    vertex 0.008 0 0.01000000000000003
  endloop
endfacet
endsolid Created by Gmsh
