solid Created by Gmsh
facet normal 0.997522 0.0703504 7.22323e-18
  outer loop
    vertex 0.006413183897749636 0.02249999999999997 0.02
    vertex 0.005942528498047818 0.02917358144291129 0.009602253758147668
    vertex 0.005619775846624452 0.03375 0.02
  endloop
endfacet
facet normal 0.997522 0.0703504 3.6021e-17
  outer loop
    vertex 0.006413183897749633 0.02250000000000003 0
    vertex 0.006896164526474654 0.01565165498327016 0.01042520145959074
    vertex 0.007206591948874817 0.01125 0
  endloop
endfacet
facet normal 0.997522 0.0703504 -0
  outer loop
    vertex 0.008 0 0
    vertex 0.007503281795792497 0.007043134726714202 0.007406293109243558
    vertex 0.008 0 0.01000000000000003
  endloop
endfacet
facet normal 0.997522 0.0703504 0
  outer loop
    vertex 0.004826367795499269 0.045 0.02
    vertex 0.005324846746710086 0.03793189904845457 0.01259762906471907
    vertex 0.004826367795499269 0.045 0.009999999999999972
  endloop
endfacet
facet normal 0.997522 0.0703504 3.43386e-17
  outer loop
    vertex 0.006413183897749633 0.02250000000000003 0
    vertex 0.005942528498047818 0.02917358144291129 0.009602253758147668
    vertex 0.006896164526474654 0.01565165498327016 0.01042520145959074
  endloop
endfacet
facet normal 0.997522 0.0703504 1.25078e-17
  outer loop
    vertex 0.006896164526474654 0.01565165498327016 0.01042520145959074
    vertex 0.005942528498047818 0.02917358144291129 0.009602253758147668
    vertex 0.006413183897749636 0.02249999999999997 0.02
  endloop
endfacet
facet normal 0.997522 0.0703504 4.05629e-17
  outer loop
    vertex 0.007206591948874817 0.01125 0
    vertex 0.007503281795792497 0.007043134726714202 0.007406293109243558
    vertex 0.008 0 0
  endloop
endfacet
facet normal 0.997522 0.0703504 -8.62419e-17
  outer loop
    vertex 0.005619775846624452 0.03375 0.02
    vertex 0.005324846746710086 0.03793189904845457 0.01259762906471907
    vertex 0.004826367795499269 0.045 0.02
  endloop
endfacet
facet normal 0.997522 0.0703504 3.78439e-17
  outer loop
    vertex 0.005942528498047818 0.02917358144291129 0.009602253758147668
    vertex 0.005237237883939459 0.03917413462291316 0.005374837714643195
    vertex 0.005324846746710086 0.03793189904845457 0.01259762906471907
  endloop
endfacet
facet normal 0.997522 0.0703504 -8.97992e-17
  outer loop
    vertex 0.006896164526474654 0.01565165498327016 0.01042520145959074
    vertex 0.007589863250586597 0.005815467116015934 0.01462679584385852
    vertex 0.007503281795792497 0.007043134726714202 0.007406293109243558
  endloop
endfacet
facet normal 0.997522 0.0703504 5.47514e-17
  outer loop
    vertex 0.00561977584662445 0.03375000000000003 0
    vertex 0.005942528498047818 0.02917358144291129 0.009602253758147668
    vertex 0.006413183897749633 0.02250000000000003 0
  endloop
endfacet
facet normal 0.997522 0.0703504 2.74542e-17
  outer loop
    vertex 0.007206591948874819 0.01124999999999997 0.02
    vertex 0.006896164526474654 0.01565165498327016 0.01042520145959074
    vertex 0.006413183897749636 0.02249999999999997 0.02
  endloop
endfacet
facet normal 0.997522 0.0703504 1.07433e-16
  outer loop
    vertex 0.00561977584662445 0.03375000000000003 0
    vertex 0.005237237883939459 0.03917413462291316 0.005374837714643195
    vertex 0.005942528498047818 0.02917358144291129 0.009602253758147668
  endloop
endfacet
facet normal 0.997522 0.0703504 8.09372e-17
  outer loop
    vertex 0.007206591948874819 0.01124999999999997 0.02
    vertex 0.007589863250586597 0.005815467116015934 0.01462679584385852
    vertex 0.006896164526474654 0.01565165498327016 0.01042520145959074
  endloop
endfacet
facet normal 0.997522 0.0703504 1.67682e-16
  outer loop
    vertex 0.004826367795499269 0.045 0
    vertex 0.005237237883939459 0.03917413462291316 0.005374837714643195
    vertex 0.00561977584662445 0.03375000000000003 0
  endloop
endfacet
facet normal 0.997522 0.0703504 1.39777e-16
  outer loop
    vertex 0.008 0 0.02
    vertex 0.007589863250586597 0.005815467116015934 0.01462679584385852
    vertex 0.007206591948874819 0.01124999999999997 0.02
  endloop
endfacet
facet normal 0.997522 0.0703504 -2.18446e-17
  outer loop
    vertex 0.005942528498047818 0.02917358144291129 0.009602253758147668
    vertex 0.005324846746710086 0.03793189904845457 0.01259762906471907
    vertex 0.005619775846624452 0.03375 0.02
  endloop
endfacet
facet normal 0.997522 0.0703504 3.86787e-17
  outer loop
    vertex 0.006896164526474654 0.01565165498327016 0.01042520145959074
    vertex 0.007503281795792497 0.007043134726714202 0.007406293109243558
    vertex 0.007206591948874817 0.01125 0
  endloop
endfacet
facet normal 0.997522 0.0703504 0
  outer loop
    vertex 0.004826367795499269 0.045 0.009999999999999972
    vertex 0.005237237883939459 0.03917413462291316 0.005374837714643195
    vertex 0.004826367795499269 0.045 0
  endloop
endfacet
facet normal 0.997522 0.0703504 -0
  outer loop
    vertex 0.008 0 0.01000000000000003
    vertex 0.007589863250586597 0.005815467116015934 0.01462679584385852
    vertex 0.008 0 0.02
  endloop
endfacet
facet normal 0.997522 0.0703504 0
  outer loop
    vertex 0.005324846746710086 0.03793189904845457 0.01259762906471907
    vertex 0.005237237883939459 0.03917413462291316 0.005374837714643195
    vertex 0.004826367795499269 0.045 0.009999999999999972
  endloop
endfacet
facet normal 0.997522 0.0703504 -9.7484e-17
  outer loop
    vertex 0.007503281795792497 0.007043134726714202 0.007406293109243558
    vertex 0.007589863250586597 0.005815467116015934 0.01462679584385852
    vertex 0.008 0 0.01000000000000003
  endloop
endfacet
endsolid Created by Gmsh
