solid Created by Gmsh
facet normal 0.998713 -0.0507264 0
  outer loop
    vertex 0.01030824505583354 0.04544523025204164 0.02
    vertex 0.009874647297454266 0.03690846336218498 0.01174671079219541
    vertex 0.01030824505583354 0.04544523025204164 0.009999999999999972
  endloop
endfacet
facet normal 0.998713 -0.0507264 0
  outer loop
    vertex 0.008 0 0
    vertex 0.00843359775837927 0.008536766889856658 0.008253289207804588
    vertex 0.008 0 0.01000000000000003
  endloop
endfacet
facet normal 0.998713 -0.0507264 -2.13576e-16
  outer loop
    vertex 0.00915412252791677 0.02272261512602082 0.02
    vertex 0.009422504947895949 0.0280065865313661 0.01023848384304577
    vertex 0.009731183791875155 0.03408392268903123 0.02
  endloop
endfacet
facet normal 0.998713 -0.0507264 1.30707e-16
  outer loop
    vertex 0.00915412252791677 0.02272261512602082 0
    vertex 0.008889769750337589 0.01751798019590753 0.009684192266079224
    vertex 0.008577061263958385 0.01136130756301041 0
  endloop
endfacet
facet normal 0.998713 -0.0507264 -2.54861e-16
  outer loop
    vertex 0.009731183791875155 0.03408392268903123 0.02
    vertex 0.009874647297454266 0.03690846336218498 0.01174671079219541
    vertex 0.01030824505583354 0.04544523025204164 0.02
  endloop
endfacet
facet normal 0.998713 -0.0507264 1.44346e-16
  outer loop
    vertex 0.008577061263958385 0.01136130756301041 0
    vertex 0.00843359775837927 0.008536766889856658 0.008253289207804588
    vertex 0.008 0 0
  endloop
endfacet
facet normal 0.998713 -0.0507264 1.68041e-16
  outer loop
    vertex 0.00915412252791677 0.02272261512602082 0
    vertex 0.009422504947895949 0.0280065865313661 0.01023848384304577
    vertex 0.008889769750337589 0.01751798019590753 0.009684192266079224
  endloop
endfacet
facet normal 0.998713 -0.0507264 -1.68685e-16
  outer loop
    vertex 0.008889769750337589 0.01751798019590753 0.009684192266079224
    vertex 0.009422504947895949 0.0280065865313661 0.01023848384304577
    vertex 0.00915412252791677 0.02272261512602082 0.02
  endloop
endfacet
facet normal 0.998713 -0.0507264 -1.08268e-16
  outer loop
    vertex 0.008577061263958385 0.01136130756301042 0.02
    vertex 0.008889769750337589 0.01751798019590753 0.009684192266079224
    vertex 0.00915412252791677 0.02272261512602082 0.02
  endloop
endfacet
facet normal 0.998713 -0.0507264 2.18172e-16
  outer loop
    vertex 0.009731183791875155 0.03408392268903122 0
    vertex 0.009422504947895949 0.0280065865313661 0.01023848384304577
    vertex 0.00915412252791677 0.02272261512602082 0
  endloop
endfacet
facet normal 0.998713 -0.0507264 1.45811e-16
  outer loop
    vertex 0.009731183791875155 0.03408392268903122 0
    vertex 0.01003056423219585 0.03997818985487966 0.004999999999999985
    vertex 0.009874647297454266 0.03690846336218498 0.01174671079219541
  endloop
endfacet
facet normal 0.998713 -0.0507264 -4.4127e-17
  outer loop
    vertex 0.008577061263958385 0.01136130756301042 0.02
    vertex 0.008277680823637688 0.005467040397161976 0.01500000000000002
    vertex 0.00843359775837927 0.008536766889856658 0.008253289207804588
  endloop
endfacet
facet normal 0.998713 -0.0507264 -7.71251e-17
  outer loop
    vertex 0.008577061263958385 0.01136130756301042 0.02
    vertex 0.00843359775837927 0.008536766889856658 0.008253289207804588
    vertex 0.008889769750337589 0.01751798019590753 0.009684192266079224
  endloop
endfacet
facet normal 0.998713 -0.0507264 2.17162e-16
  outer loop
    vertex 0.009731183791875155 0.03408392268903122 0
    vertex 0.009874647297454266 0.03690846336218498 0.01174671079219541
    vertex 0.009422504947895949 0.0280065865313661 0.01023848384304577
  endloop
endfacet
facet normal 0.998713 -0.0507264 -2.08483e-16
  outer loop
    vertex 0.008 0 0.02
    vertex 0.008277680823637688 0.005467040397161976 0.01500000000000002
    vertex 0.008577061263958385 0.01136130756301042 0.02
  endloop
endfacet
facet normal 0.998713 -0.0507264 4.16966e-16
  outer loop
    vertex 0.01030824505583354 0.04544523025204164 0
    vertex 0.01003056423219585 0.03997818985487966 0.004999999999999985
    vertex 0.009731183791875155 0.03408392268903122 0
  endloop
endfacet
facet normal 0.998713 -0.0507264 -2.39429e-16
  outer loop
    vertex 0.009422504947895949 0.0280065865313661 0.01023848384304577
    vertex 0.009874647297454266 0.03690846336218498 0.01174671079219541
    vertex 0.009731183791875155 0.03408392268903123 0.02
  endloop
endfacet
facet normal 0.998713 -0.0507264 1.35279e-16
  outer loop
    vertex 0.008889769750337589 0.01751798019590753 0.009684192266079224
    vertex 0.00843359775837927 0.008536766889856658 0.008253289207804588
    vertex 0.008577061263958385 0.01136130756301041 0
  endloop
endfacet
facet normal 0.998713 -0.0507264 0
  outer loop
    vertex 0.01030824505583354 0.04544523025204164 0.009999999999999972
    vertex 0.01003056423219585 0.03997818985487966 0.004999999999999985
    vertex 0.01030824505583354 0.04544523025204164 0
  endloop
endfacet
facet normal 0.998713 -0.0507264 0
  outer loop
    vertex 0.008 0 0.01000000000000003
    vertex 0.008277680823637688 0.005467040397161976 0.01500000000000002
    vertex 0.008 0 0.02
  endloop
endfacet
facet normal 0.998713 -0.0507264 -8.90753e-17
  outer loop
    vertex 0.009874647297454266 0.03690846336218498 0.01174671079219541
    vertex 0.01003056423219585 0.03997818985487966 0.004999999999999985
    vertex 0.01030824505583354 0.04544523025204164 0.009999999999999972
  endloop
endfacet
facet normal 0.998713 -0.0507264 7.28798e-17
  outer loop
    vertex 0.00843359775837927 0.008536766889856658 0.008253289207804588
    vertex 0.008277680823637688 0.005467040397161976 0.01500000000000002
    vertex 0.008 0 0.01000000000000003
  endloop
endfacet
endsolid Created by Gmsh
