solid Created by Gmsh
facet normal 1 0 0
  outer loop
    vertex 0.04 0.05830325631207393 0
    vertex 0.04 0.06 0
    vertex 0.04 0.06 0.009999999999999972
  endloop
endfacet
facet normal 1 0 0
  outer loop
    vertex 0.04 0.05830325631207393 0.01000000000000003
    vertex 0.04 0.06 0.02
    vertex 0.04 0.05830325631207393 0.02
  endloop
endfacet
facet normal 1 0 -0
  outer loop
    vertex 0.04 0.06 0.009999999999999972
    vertex 0.04 0.06 0.02
    vertex 0.04 0.05830325631207393 0.01000000000000003
  endloop
endfacet
facet normal 1 0 0
  outer loop
    vertex 0.04 0.05830325631207393 0
    vertex 0.04 0.06 0.009999999999999972
    vertex 0.04 0.05830325631207393 0.01000000000000003
  endloop
endfacet
facet normal 0.635905 0.771767 -1.04174e-15
  outer loop
    vertex 0.04 0.05830325631207393 0
    vertex 0.04442249112102887 0.05465930279256932 0.005675738850308961
    vertex 0.04884498224205774 0.05101534927306469 0
  endloop
endfacet
facet normal 0.635905 0.771767 1.23849e-15
  outer loop
    vertex 0.04884498224205774 0.05101534927306469 0.02
    vertex 0.04442249112102886 0.05465930279256933 0.01427113702623906
    vertex 0.04 0.05830325631207393 0.02
  endloop
endfacet
facet normal 0.635905 0.771767 -0
  outer loop
    vertex 0.04884498224205774 0.05101534927306469 0
    vertex 0.04442249112102887 0.05465930279256932 0.005675738850308961
    vertex 0.04884498224205774 0.05101534927306469 0.01000000000000003
  endloop
endfacet
facet normal 0.635905 0.771767 0
  outer loop
    vertex 0.04 0.05830325631207393 0.02
    vertex 0.04442249112102886 0.05465930279256933 0.01427113702623906
    vertex 0.04 0.05830325631207393 0.009999999999999972
  endloop
endfacet
facet normal 0.635905 0.771767 -1.09679e-16
  outer loop
    vertex 0.04442249112102886 0.05465930279256933 0.01427113702623906
    vertex 0.04442249112102887 0.05465930279256932 0.005675738850308961
    vertex 0.04 0.05830325631207393 0.009999999999999972
  endloop
endfacet
facet normal 0.635905 0.771767 -0
  outer loop
    vertex 0.04884498224205774 0.05101534927306469 0.01000000000000003
    vertex 0.04442249112102886 0.05465930279256933 0.01427113702623906
    vertex 0.04884498224205774 0.05101534927306469 0.02
  endloop
endfacet
facet normal 0.635905 0.771767 -6.87882e-17
  outer loop
    vertex 0.04884498224205774 0.05101534927306469 0.01000000000000003
    vertex 0.04442249112102887 0.05465930279256932 0.005675738850308961
    vertex 0.04442249112102886 0.05465930279256933 0.01427113702623906
  endloop
endfacet
facet normal 0.635905 0.771767 0
  outer loop
    vertex 0.04 0.05830325631207393 0.009999999999999972
    vertex 0.04442249112102887 0.05465930279256932 0.005675738850308961
    vertex 0.04 0.05830325631207393 0
  endloop
endfacet
facet normal 0.958028 -0.286673 0
  outer loop
    vertex 0.04884498224205774 0.05101534927306469 0.02
    vertex 0.04775459251854829 0.04737139575356007 0.01500000000000001
    vertex 0.04884498224205774 0.05101534927306469 0.009999999999999972
  endloop
endfacet
facet normal 0.958028 -0.286673 0
  outer loop
    vertex 0.04666420279503883 0.04372744223405545 0
    vertex 0.04775459251854829 0.04737139575356007 0.005000000000000001
    vertex 0.04666420279503883 0.04372744223405545 0.01000000000000003
  endloop
endfacet
facet normal 0.958028 -0.286673 0
  outer loop
    vertex 0.04884498224205774 0.05101534927306469 0.009999999999999972
    vertex 0.04775459251854829 0.04737139575356007 0.005000000000000001
    vertex 0.04884498224205774 0.05101534927306469 0
  endloop
endfacet
facet normal 0.958028 -0.286673 0
  outer loop
    vertex 0.04666420279503883 0.04372744223405545 0.01000000000000003
    vertex 0.04775459251854829 0.04737139575356007 0.01500000000000001
    vertex 0.04666420279503883 0.04372744223405545 0.02
  endloop
endfacet
facet normal 0.958028 -0.286673 1.11346e-15
  outer loop
    vertex 0.04666420279503883 0.04372744223405545 0.01000000000000003
    vertex 0.04775459251854829 0.04737139575356007 0.005000000000000001
    vertex 0.04884498224205774 0.05101534927306469 0.009999999999999972
  endloop
endfacet
facet normal 0.958028 -0.286673 -1.55885e-15
  outer loop
    vertex 0.04884498224205774 0.05101534927306469 0.009999999999999972
    vertex 0.04775459251854829 0.04737139575356007 0.01500000000000001
    vertex 0.04666420279503883 0.04372744223405545 0.01000000000000003
  endloop
endfacet
facet normal 0.958028 -0.286673 -1.158e-15
  outer loop
    vertex 0.04884498224205774 0.05101534927306469 0
    vertex 0.04775459251854829 0.04737139575356007 0.005000000000000001
    vertex 0.04666420279503883 0.04372744223405545 0
  endloop
endfacet
facet normal 0.958028 -0.286673 1.51431e-15
  outer loop
    vertex 0.04666420279503883 0.04372744223405545 0.02
    vertex 0.04775459251854829 0.04737139575356007 0.01500000000000001
    vertex 0.04884498224205774 0.05101534927306469 0.02
  endloop
endfacet
facet normal 0.813647 0.581359 -0
  outer loop
    vertex 0.05187148486876229 0.03643953519504621 0
    vertex 0.04926784383190055 0.04008348871455083 0.005000000000000001
    vertex 0.05187148486876229 0.03643953519504621 0.01000000000000003
  endloop
endfacet
facet normal 0.813647 0.581359 0
  outer loop
    vertex 0.04666420279503883 0.04372744223405545 0.02
    vertex 0.04926784383190055 0.04008348871455083 0.015
    vertex 0.04666420279503883 0.04372744223405545 0.009999999999999972
  endloop
endfacet
facet normal 0.813647 0.581359 -0
  outer loop
    vertex 0.05187148486876229 0.03643953519504621 0.01000000000000003
    vertex 0.04926784383190055 0.04008348871455083 0.015
    vertex 0.05187148486876229 0.03643953519504621 0.02
  endloop
endfacet
facet normal 0.813647 0.581359 0
  outer loop
    vertex 0.04666420279503883 0.04372744223405545 0.009999999999999972
    vertex 0.04926784383190055 0.04008348871455083 0.005000000000000001
    vertex 0.04666420279503883 0.04372744223405545 0
  endloop
endfacet
facet normal 0.813647 0.581359 -5.29568e-16
  outer loop
    vertex 0.05187148486876229 0.03643953519504621 0.01000000000000003
    vertex 0.04926784383190055 0.04008348871455083 0.005000000000000001
    vertex 0.04666420279503883 0.04372744223405545 0.009999999999999972
  endloop
endfacet
facet normal 0.813647 0.581359 5.29568e-16
  outer loop
    vertex 0.04666420279503883 0.04372744223405545 0.009999999999999972
    vertex 0.04926784383190055 0.04008348871455083 0.015
    vertex 0.05187148486876229 0.03643953519504621 0.01000000000000003
  endloop
endfacet
facet normal 0.813647 0.581359 5.29568e-16
  outer loop
    vertex 0.04666420279503883 0.04372744223405545 0
    vertex 0.04926784383190055 0.04008348871455083 0.005000000000000001
    vertex 0.05187148486876229 0.03643953519504621 0
  endloop
endfacet
facet normal 0.813647 0.581359 -5.29568e-16
  outer loop
    vertex 0.05187148486876229 0.03643953519504621 0.02
    vertex 0.04926784383190055 0.04008348871455083 0.015
    vertex 0.04666420279503883 0.04372744223405545 0.02
  endloop
endfacet
facet normal 0.8146 -0.580023 0
  outer loop
    vertex 0.05187148486876229 0.03643953519504621 0.02
    vertex 0.04927686523469934 0.03279558167554159 0.015
    vertex 0.05187148486876229 0.03643953519504621 0.009999999999999972
  endloop
endfacet
facet normal 0.8146 -0.580023 0
  outer loop
    vertex 0.04668224560063639 0.02915162815603697 0
    vertex 0.04927686523469934 0.03279558167554159 0.004999999999999999
    vertex 0.04668224560063639 0.02915162815603697 0.01000000000000003
  endloop
endfacet
facet normal 0.8146 -0.580023 0
  outer loop
    vertex 0.05187148486876229 0.03643953519504621 0.009999999999999972
    vertex 0.04927686523469934 0.03279558167554159 0.004999999999999999
    vertex 0.05187148486876229 0.03643953519504621 0
  endloop
endfacet
facet normal 0.8146 -0.580023 0
  outer loop
    vertex 0.04668224560063639 0.02915162815603697 0.01000000000000003
    vertex 0.04927686523469934 0.03279558167554159 0.015
    vertex 0.04668224560063639 0.02915162815603697 0.02
  endloop
endfacet
facet normal 0.8146 -0.580023 3.78706e-16
  outer loop
    vertex 0.04668224560063639 0.02915162815603697 0.01000000000000003
    vertex 0.04927686523469934 0.03279558167554159 0.004999999999999999
    vertex 0.05187148486876229 0.03643953519504621 0.009999999999999972
  endloop
endfacet
facet normal 0.8146 -0.580023 3.78706e-16
  outer loop
    vertex 0.05187148486876229 0.03643953519504621 0.009999999999999972
    vertex 0.04927686523469934 0.03279558167554159 0.015
    vertex 0.04668224560063639 0.02915162815603697 0.01000000000000003
  endloop
endfacet
facet normal 0.8146 -0.580023 -3.78706e-16
  outer loop
    vertex 0.05187148486876229 0.03643953519504621 0
    vertex 0.04927686523469934 0.03279558167554159 0.004999999999999999
    vertex 0.04668224560063639 0.02915162815603697 0
  endloop
endfacet
facet normal 0.8146 -0.580023 -3.78706e-16
  outer loop
    vertex 0.04668224560063639 0.02915162815603697 0.02
    vertex 0.04927686523469934 0.03279558167554159 0.015
    vertex 0.05187148486876229 0.03643953519504621 0.02
  endloop
endfacet
facet normal 0.486147 -0.873877 -1.17745e-16
  outer loop
    vertex 0.03358180223174412 0.02186372111702772 0.02
    vertex 0.04022750819730463 0.02556079349250181 0.01232211318584808
    vertex 0.04013202391619025 0.02550767463653235 0.02
  endloop
endfacet
facet normal 0.486147 -0.873877 -1.28784e-16
  outer loop
    vertex 0.04013202391619025 0.02550767463653235 0.02
    vertex 0.04022750819730463 0.02556079349250181 0.01232211318584808
    vertex 0.04668224560063639 0.02915162815603697 0.02
  endloop
endfacet
facet normal 0.486147 -0.873877 0
  outer loop
    vertex 0.04668224560063639 0.02915162815603697 0.02
    vertex 0.04022750819730463 0.02556079349250181 0.01232211318584808
    vertex 0.04668224560063639 0.02915162815603697 0.009999999999999972
  endloop
endfacet
facet normal 0.486147 -0.873877 0
  outer loop
    vertex 0.03358180223174412 0.02186372111702772 0.01000000000000003
    vertex 0.04022750819730463 0.02556079349250181 0.01232211318584808
    vertex 0.03358180223174412 0.02186372111702772 0.02
  endloop
endfacet
facet normal 0.486147 -0.873877 0
  outer loop
    vertex 0.03358180223174412 0.02186372111702772 0
    vertex 0.03816695741085641 0.02441448858068096 0.005342757020515483
    vertex 0.03358180223174412 0.02186372111702772 0.01000000000000003
  endloop
endfacet
facet normal 0.486147 -0.873877 0
  outer loop
    vertex 0.04668224560063639 0.02915162815603697 0.009999999999999972
    vertex 0.04267217860606439 0.02692078797347977 0.005380695743766215
    vertex 0.04668224560063639 0.02915162815603697 0
  endloop
endfacet
facet normal 0.486147 -0.873877 1.05755e-15
  outer loop
    vertex 0.04013202391619026 0.02550767463653235 0
    vertex 0.03816695741085641 0.02441448858068096 0.005342757020515483
    vertex 0.03358180223174412 0.02186372111702772 0
  endloop
endfacet
facet normal 0.486147 -0.873877 5.04043e-16
  outer loop
    vertex 0.04668224560063639 0.02915162815603697 0
    vertex 0.04267217860606439 0.02692078797347977 0.005380695743766215
    vertex 0.04013202391619026 0.02550767463653235 0
  endloop
endfacet
facet normal 0.486147 -0.873877 -9.43975e-17
  outer loop
    vertex 0.03816695741085641 0.02441448858068096 0.005342757020515483
    vertex 0.04267217860606439 0.02692078797347977 0.005380695743766215
    vertex 0.04022750819730463 0.02556079349250181 0.01232211318584808
  endloop
endfacet
facet normal 0.486147 -0.873877 9.19703e-16
  outer loop
    vertex 0.04013202391619026 0.02550767463653235 0
    vertex 0.04267217860606439 0.02692078797347977 0.005380695743766215
    vertex 0.03816695741085641 0.02441448858068096 0.005342757020515483
  endloop
endfacet
facet normal 0.486147 -0.873877 0
  outer loop
    vertex 0.04022750819730463 0.02556079349250181 0.01232211318584808
    vertex 0.04267217860606439 0.02692078797347977 0.005380695743766215
    vertex 0.04668224560063639 0.02915162815603697 0.009999999999999972
  endloop
endfacet
facet normal 0.486147 -0.873877 -4.27061e-16
  outer loop
    vertex 0.03816695741085641 0.02441448858068096 0.005342757020515483
    vertex 0.04022750819730463 0.02556079349250181 0.01232211318584808
    vertex 0.03358180223174412 0.02186372111702772 0.01000000000000003
  endloop
endfacet
facet normal 0.985142 -0.171744 0
  outer loop
    vertex 0.03358180223174412 0.02186372111702772 0.02
    vertex 0.03294653641268751 0.01821976759752311 0.015
    vertex 0.03358180223174412 0.02186372111702772 0.009999999999999972
  endloop
endfacet
facet normal 0.985142 -0.171744 0
  outer loop
    vertex 0.0323112705936309 0.01457581407801849 0
    vertex 0.03294653641268751 0.01821976759752311 0.004999999999999999
    vertex 0.0323112705936309 0.01457581407801849 0.01000000000000003
  endloop
endfacet
facet normal 0.985142 -0.171744 0
  outer loop
    vertex 0.03358180223174412 0.02186372111702772 0.009999999999999972
    vertex 0.03294653641268751 0.01821976759752311 0.004999999999999999
    vertex 0.03358180223174412 0.02186372111702772 0
  endloop
endfacet
facet normal 0.985142 -0.171744 0
  outer loop
    vertex 0.0323112705936309 0.01457581407801849 0.01000000000000003
    vertex 0.03294653641268751 0.01821976759752311 0.015
    vertex 0.0323112705936309 0.01457581407801849 0.02
  endloop
endfacet
facet normal 0.985142 -0.171744 0
  outer loop
    vertex 0.03358180223174412 0.02186372111702772 0.009999999999999972
    vertex 0.03294653641268751 0.01821976759752311 0.015
    vertex 0.0323112705936309 0.01457581407801849 0.01000000000000003
  endloop
endfacet
facet normal 0.985142 -0.171744 0
  outer loop
    vertex 0.0323112705936309 0.01457581407801849 0.01000000000000003
    vertex 0.03294653641268751 0.01821976759752311 0.004999999999999999
    vertex 0.03358180223174412 0.02186372111702772 0.009999999999999972
  endloop
endfacet
facet normal 0.985142 -0.171744 0
  outer loop
    vertex 0.03358180223174412 0.02186372111702772 0
    vertex 0.03294653641268751 0.01821976759752311 0.004999999999999999
    vertex 0.0323112705936309 0.01457581407801849 0
  endloop
endfacet
facet normal 0.985142 -0.171744 0
  outer loop
    vertex 0.0323112705936309 0.01457581407801849 0.02
    vertex 0.03294653641268751 0.01821976759752311 0.015
    vertex 0.03358180223174412 0.02186372111702772 0.02
  endloop
endfacet
facet normal 0.933489 0.358605 0
  outer loop
    vertex 0.0323112705936309 0.01457581407801849 0.02
    vertex 0.03371111477329548 0.01093186055851387 0.015
    vertex 0.0323112705936309 0.01457581407801849 0.009999999999999972
  endloop
endfacet
facet normal 0.933489 0.358605 -0
  outer loop
    vertex 0.03511095895296007 0.007287907039009243 0
    vertex 0.03371111477329548 0.01093186055851387 0.004999999999999999
    vertex 0.03511095895296007 0.007287907039009243 0.01000000000000003
  endloop
endfacet
facet normal 0.933489 0.358605 0
  outer loop
    vertex 0.0323112705936309 0.01457581407801849 0.009999999999999972
    vertex 0.03371111477329548 0.01093186055851387 0.004999999999999999
    vertex 0.0323112705936309 0.01457581407801849 0
  endloop
endfacet
facet normal 0.933489 0.358605 -0
  outer loop
    vertex 0.03511095895296007 0.007287907039009243 0.01000000000000003
    vertex 0.03371111477329548 0.01093186055851387 0.015
    vertex 0.03511095895296007 0.007287907039009243 0.02
  endloop
endfacet
facet normal 0.933489 0.358605 0
  outer loop
    vertex 0.03511095895296007 0.007287907039009243 0.01000000000000003
    vertex 0.03371111477329548 0.01093186055851387 0.004999999999999999
    vertex 0.0323112705936309 0.01457581407801849 0.009999999999999972
  endloop
endfacet
facet normal 0.933489 0.358605 0
  outer loop
    vertex 0.0323112705936309 0.01457581407801849 0.009999999999999972
    vertex 0.03371111477329548 0.01093186055851387 0.015
    vertex 0.03511095895296007 0.007287907039009243 0.01000000000000003
  endloop
endfacet
facet normal 0.933489 0.358605 0
  outer loop
    vertex 0.0323112705936309 0.01457581407801849 0
    vertex 0.03371111477329548 0.01093186055851387 0.004999999999999999
    vertex 0.03511095895296007 0.007287907039009243 0
  endloop
endfacet
facet normal 0.933489 0.358605 0
  outer loop
    vertex 0.03511095895296007 0.007287907039009243 0.02
    vertex 0.03371111477329548 0.01093186055851387 0.015
    vertex 0.0323112705936309 0.01457581407801849 0.02
  endloop
endfacet
endsolid Created by Gmsh
