solid Created by Gmsh
facet normal 1 0.000270293 1.73755e-16
  outer loop
    vertex 0.007994018476535985 0.02212974090402688 0
    vertex 0.007995833561933396 0.01541450024583958 0.01038957597792932
    vertex 0.007997009238267992 0.01106487045201344 0
  endloop
endfacet
facet normal 1 0.000270293 -2.18174e-16
  outer loop
    vertex 0.007991027714803976 0.03319461135604032 0.02
    vertex 0.00798921377155447 0.03990562642897807 0.009498445593844133
    vertex 0.007988036953071969 0.04425948180805376 0.02
  endloop
endfacet
facet normal 1 0.000270293 -1.68694e-16
  outer loop
    vertex 0.007991027714803976 0.03319461135604032 0.02
    vertex 0.007992523286027963 0.02766147186582534 0.009981336928628909
    vertex 0.00798921377155447 0.03990562642897807 0.009498445593844133
  endloop
endfacet
facet normal 1 0.000270293 -2.12602e-16
  outer loop
    vertex 0.007994018476535985 0.02212974090402689 0.02
    vertex 0.007992523286027963 0.02766147186582534 0.009981336928628909
    vertex 0.007991027714803976 0.03319461135604032 0.02
  endloop
endfacet
facet normal 1 0.000270293 2.41817e-16
  outer loop
    vertex 0.007994018476535985 0.02212974090402688 0
    vertex 0.007992523286027963 0.02766147186582534 0.009981336928628909
    vertex 0.007995833561933396 0.01541450024583958 0.01038957597792932
  endloop
endfacet
facet normal 1 0.000270293 -2.50242e-16
  outer loop
    vertex 0.007995833561933396 0.01541450024583958 0.01038957597792932
    vertex 0.007992523286027963 0.02766147186582534 0.009981336928628909
    vertex 0.007994018476535985 0.02212974090402689 0.02
  endloop
endfacet
facet normal 1 0.000270293 0
  outer loop
    vertex 0.00798504619133996 0.0553243522600672 0.02
    vertex 0.007987034313934188 0.04796892881979928 0.01240076072869521
    vertex 0.00798504619133996 0.0553243522600672 0.009999999999999972
  endloop
endfacet
facet normal 1 0.000270293 -0
  outer loop
    vertex 0.008 0 0
    vertex 0.007998011993951474 0.007354992258099588 0.007587812901077587
    vertex 0.008 0 0.01000000000000003
  endloop
endfacet
facet normal 1 0.000270293 -2.50757e-16
  outer loop
    vertex 0.007988036953071969 0.04425948180805376 0.02
    vertex 0.007987034313934188 0.04796892881979928 0.01240076072869521
    vertex 0.00798504619133996 0.0553243522600672 0.02
  endloop
endfacet
facet normal 1 0.000270293 1.67982e-16
  outer loop
    vertex 0.007997009238267992 0.01106487045201344 0
    vertex 0.007998011993951474 0.007354992258099588 0.007587812901077587
    vertex 0.008 0 0
  endloop
endfacet
facet normal 1 0.000270293 2.13097e-16
  outer loop
    vertex 0.007991027714803976 0.03319461135604031 0
    vertex 0.007992523286027963 0.02766147186582534 0.009981336928628909
    vertex 0.007994018476535985 0.02212974090402688 0
  endloop
endfacet
facet normal 1 0.000270293 1.76506e-16
  outer loop
    vertex 0.00798921377155447 0.03990562642897807 0.009498445593844133
    vertex 0.007992523286027963 0.02766147186582534 0.009981336928628909
    vertex 0.007991027714803976 0.03319461135604031 0
  endloop
endfacet
facet normal 1 0.000270293 2.40711e-16
  outer loop
    vertex 0.007988036953071969 0.04425948180805374 0
    vertex 0.00798921377155447 0.03990562642897807 0.009498445593844133
    vertex 0.007991027714803976 0.03319461135604031 0
  endloop
endfacet
facet normal 1 0.000270293 -1.88355e-16
  outer loop
    vertex 0.007997009238267992 0.01106487045201346 0.02
    vertex 0.007995833561933396 0.01541450024583958 0.01038957597792932
    vertex 0.007994018476535985 0.02212974090402689 0.02
  endloop
endfacet
facet normal 1 0.000270293 -2.074e-16
  outer loop
    vertex 0.007997009238267992 0.01106487045201346 0.02
    vertex 0.007998386247204935 0.005970373844175841 0.01448814787747865
    vertex 0.007995833561933396 0.01541450024583958 0.01038957597792932
  endloop
endfacet
facet normal 1 0.000270293 2.85948e-16
  outer loop
    vertex 0.007988036953071969 0.04425948180805374 0
    vertex 0.007986660035876539 0.04935363900135652 0.005502857603683616
    vertex 0.00798921377155447 0.03990562642897807 0.009498445593844133
  endloop
endfacet
facet normal 1 0.000270293 1.15013e-16
  outer loop
    vertex 0.007995833561933396 0.01541450024583958 0.01038957597792932
    vertex 0.007998386247204935 0.005970373844175841 0.01448814787747865
    vertex 0.007998011993951474 0.007354992258099588 0.007587812901077587
  endloop
endfacet
facet normal 1 0.000270293 5.91965e-17
  outer loop
    vertex 0.00798921377155447 0.03990562642897807 0.009498445593844133
    vertex 0.007986660035876539 0.04935363900135652 0.005502857603683616
    vertex 0.007987034313934188 0.04796892881979928 0.01240076072869521
  endloop
endfacet
facet normal 1 0.000270293 -2.68268e-16
  outer loop
    vertex 0.00798921377155447 0.03990562642897807 0.009498445593844133
    vertex 0.007987034313934188 0.04796892881979928 0.01240076072869521
    vertex 0.007988036953071969 0.04425948180805376 0.02
  endloop
endfacet
facet normal 1 0.000270293 1.35705e-16
  outer loop
    vertex 0.007995833561933396 0.01541450024583958 0.01038957597792932
    vertex 0.007998011993951474 0.007354992258099588 0.007587812901077587
    vertex 0.007997009238267992 0.01106487045201344 0
  endloop
endfacet
facet normal 1 0.000270293 -3.90615e-16
  outer loop
    vertex 0.008 0 0.02
    vertex 0.007998386247204935 0.005970373844175841 0.01448814787747865
    vertex 0.007997009238267992 0.01106487045201346 0.02
  endloop
endfacet
facet normal 1 0.000270293 2.32796e-16
  outer loop
    vertex 0.00798504619133996 0.0553243522600672 0
    vertex 0.007986660035876539 0.04935363900135652 0.005502857603683616
    vertex 0.007988036953071969 0.04425948180805374 0
  endloop
endfacet
facet normal 1 0.000270293 0
  outer loop
    vertex 0.00798504619133996 0.0553243522600672 0.009999999999999972
    vertex 0.007986660035876539 0.04935363900135652 0.005502857603683616
    vertex 0.00798504619133996 0.0553243522600672 0
  endloop
endfacet
facet normal 1 0.000270293 -0
  outer loop
    vertex 0.008 0 0.01000000000000003
    vertex 0.007998386247204935 0.005970373844175841 0.01448814787747865
    vertex 0.008 0 0.02
  endloop
endfacet
facet normal 1 0.000270293 4.07287e-17
  outer loop
    vertex 0.007987034313934188 0.04796892881979928 0.01240076072869521
    vertex 0.007986660035876539 0.04935363900135652 0.005502857603683616
    vertex 0.00798504619133996 0.0553243522600672 0.009999999999999972
  endloop
endfacet
facet normal 1 0.000270293 1.72949e-16
  outer loop
    vertex 0.007998011993951474 0.007354992258099588 0.007587812901077587
    vertex 0.007998386247204935 0.005970373844175841 0.01448814787747865
    vertex 0.008 0 0.01000000000000003
  endloop
endfacet
endsolid Created by Gmsh
