solid Created by Gmsh
facet normal -0.399653 0.916666 5.98506e-16
  outer loop
    vertex 0.02259016511423224 0.04871214276494701 0
    vertex 0.01514157274928951 0.04546466658061721 0
    vertex 0.02301515156833224 0.04889743057782937 0.007924654627664089
  endloop
endfacet
facet normal -0.399653 0.916666 0
  outer loop
    vertex 0.01514157274928951 0.04546466658061721 0
    vertex 0.01514157274928951 0.04546466658061721 0.01000000000000003
    vertex 0.02301515156833224 0.04889743057782937 0.007924654627664089
  endloop
endfacet
facet normal -0.399653 0.916666 5.26159e-16
  outer loop
    vertex 0.03003875747917498 0.05195961894927681 0
    vertex 0.02259016511423224 0.04871214276494701 0
    vertex 0.02301515156833224 0.04889743057782937 0.007924654627664089
  endloop
endfacet
facet normal -0.399653 0.916666 0
  outer loop
    vertex 0.03003875747917498 0.05195961894927681 0.009999999999999972
    vertex 0.03003875747917498 0.05195961894927681 0
    vertex 0.02301515156833224 0.04889743057782937 0.007924654627664089
  endloop
endfacet
facet normal -0.399653 0.916666 0
  outer loop
    vertex 0.03003875747917498 0.05195961894927681 0.02
    vertex 0.03003875747917498 0.05195961894927681 0.009999999999999972
    vertex 0.02520563605190362 0.04985244943830862 0.01435681177495192
  endloop
endfacet
facet normal -0.399653 0.916666 0
  outer loop
    vertex 0.01514157274928951 0.04546466658061721 0.01000000000000003
    vertex 0.01514157274928951 0.04546466658061721 0.02
    vertex 0.02021881964660943 0.04767827118846388 0.01445629328052321
  endloop
endfacet
facet normal -0.399653 0.916666 6.0171e-16
  outer loop
    vertex 0.01514157274928951 0.04546466658061721 0.02
    vertex 0.02259016511423225 0.04871214276494701 0.02
    vertex 0.02021881964660943 0.04767827118846388 0.01445629328052321
  endloop
endfacet
facet normal -0.399653 0.916666 5.91103e-16
  outer loop
    vertex 0.02259016511423225 0.04871214276494701 0.02
    vertex 0.03003875747917498 0.05195961894927681 0.02
    vertex 0.02520563605190362 0.04985244943830862 0.01435681177495192
  endloop
endfacet
facet normal -0.399653 0.916666 -5.10551e-16
  outer loop
    vertex 0.02301515156833224 0.04889743057782937 0.007924654627664089
    vertex 0.01514157274928951 0.04546466658061721 0.01000000000000003
    vertex 0.02021881964660943 0.04767827118846388 0.01445629328052321
  endloop
endfacet
facet normal -0.399653 0.916666 -4.96853e-16
  outer loop
    vertex 0.02520563605190362 0.04985244943830862 0.01435681177495192
    vertex 0.03003875747917498 0.05195961894927681 0.009999999999999972
    vertex 0.02301515156833224 0.04889743057782937 0.007924654627664089
  endloop
endfacet
facet normal -0.399653 0.916666 -5.28949e-16
  outer loop
    vertex 0.02520563605190362 0.04985244943830862 0.01435681177495192
    vertex 0.02301515156833224 0.04889743057782937 0.007924654627664089
    vertex 0.02021881964660943 0.04767827118846388 0.01445629328052321
  endloop
endfacet
facet normal -0.399653 0.916666 7.93675e-16
  outer loop
    vertex 0.02259016511423225 0.04871214276494701 0.02
    vertex 0.02520563605190362 0.04985244943830862 0.01435681177495192
    vertex 0.02021881964660943 0.04767827118846388 0.01445629328052321
  endloop
endfacet
facet normal -0.548693 -0.836024 -9.50862e-17
  outer loop
    vertex 0.02503770538773229 0.03896971421195761 0.02
    vertex 0.01514157274928951 0.04546466658061721 0.02
    vertex 0.0200896390685109 0.04221719039628741 0.0139795918367347
  endloop
endfacet
facet normal -0.548693 -0.836024 -9.67597e-17
  outer loop
    vertex 0.01514157274928951 0.04546466658061721 0
    vertex 0.02503770538773229 0.03896971421195761 0
    vertex 0.02008963906851091 0.0422171903962874 0.005916284881299467
  endloop
endfacet
facet normal -0.548693 -0.836024 -0
  outer loop
    vertex 0.01514157274928951 0.04546466658061721 0.02
    vertex 0.01514157274928951 0.04546466658061721 0.009999999999999972
    vertex 0.0200896390685109 0.04221719039628741 0.0139795918367347
  endloop
endfacet
facet normal -0.548693 -0.836024 0
  outer loop
    vertex 0.02503770538773229 0.03896971421195761 0
    vertex 0.02503770538773229 0.03896971421195761 0.01000000000000003
    vertex 0.02008963906851091 0.0422171903962874 0.005916284881299467
  endloop
endfacet
facet normal -0.548693 -0.836024 2.47263e-16
  outer loop
    vertex 0.0200896390685109 0.04221719039628741 0.0139795918367347
    vertex 0.01514157274928951 0.04546466658061721 0.009999999999999972
    vertex 0.02008963906851091 0.0422171903962874 0.005916284881299467
  endloop
endfacet
facet normal -0.548693 -0.836024 2.12986e-16
  outer loop
    vertex 0.02503770538773229 0.03896971421195761 0.01000000000000003
    vertex 0.0200896390685109 0.04221719039628741 0.0139795918367347
    vertex 0.02008963906851091 0.0422171903962874 0.005916284881299467
  endloop
endfacet
facet normal -0.548693 -0.836024 -0
  outer loop
    vertex 0.01514157274928951 0.04546466658061721 0.009999999999999972
    vertex 0.01514157274928951 0.04546466658061721 0
    vertex 0.02008963906851091 0.0422171903962874 0.005916284881299467
  endloop
endfacet
facet normal -0.548693 -0.836024 0
  outer loop
    vertex 0.02503770538773229 0.03896971421195761 0.01000000000000003
    vertex 0.02503770538773229 0.03896971421195761 0.02
    vertex 0.0200896390685109 0.04221719039628741 0.0139795918367347
  endloop
endfacet
facet normal -0.983174 0.182672 -6.66742e-16
  outer loop
    vertex 0.02503770538773229 0.03896971421195761 0.009999999999999972
    vertex 0.02383095317107372 0.03247476184329801 0.01000000000000003
    vertex 0.024434329279403 0.03572223802762781 0.015
  endloop
endfacet
facet normal -0.983174 0.182672 6.92386e-16
  outer loop
    vertex 0.02383095317107372 0.03247476184329801 0.01000000000000003
    vertex 0.02503770538773229 0.03896971421195761 0.009999999999999972
    vertex 0.024434329279403 0.03572223802762781 0.004999999999999999
  endloop
endfacet
facet normal -0.983174 0.182672 6.92386e-16
  outer loop
    vertex 0.02383095317107372 0.03247476184329801 0.02
    vertex 0.02503770538773229 0.03896971421195761 0.02
    vertex 0.024434329279403 0.03572223802762781 0.015
  endloop
endfacet
facet normal -0.983174 0.182672 -6.66742e-16
  outer loop
    vertex 0.02503770538773229 0.03896971421195761 0
    vertex 0.02383095317107372 0.03247476184329801 0
    vertex 0.024434329279403 0.03572223802762781 0.004999999999999999
  endloop
endfacet
facet normal -0.983174 0.182672 0
  outer loop
    vertex 0.02503770538773229 0.03896971421195761 0.009999999999999972
    vertex 0.02503770538773229 0.03896971421195761 0
    vertex 0.024434329279403 0.03572223802762781 0.004999999999999999
  endloop
endfacet
facet normal -0.983174 0.182672 0
  outer loop
    vertex 0.02503770538773229 0.03896971421195761 0.02
    vertex 0.02503770538773229 0.03896971421195761 0.009999999999999972
    vertex 0.024434329279403 0.03572223802762781 0.015
  endloop
endfacet
facet normal -0.983174 0.182672 0
  outer loop
    vertex 0.02383095317107372 0.03247476184329801 0
    vertex 0.02383095317107372 0.03247476184329801 0.01000000000000003
    vertex 0.024434329279403 0.03572223802762781 0.004999999999999999
  endloop
endfacet
facet normal -0.983174 0.182672 0
  outer loop
    vertex 0.02383095317107372 0.03247476184329801 0.01000000000000003
    vertex 0.02383095317107372 0.03247476184329801 0.02
    vertex 0.024434329279403 0.03572223802762781 0.015
  endloop
endfacet
facet normal -0.981139 0.193302 -6.90953e-16
  outer loop
    vertex 0.02255132823103179 0.0259798094746384 0.01000000000000003
    vertex 0.02383095317107372 0.03247476184329801 0.009999999999999972
    vertex 0.02319114070105276 0.02922728565896821 0.005000000000000001
  endloop
endfacet
facet normal -0.981139 0.193302 6.65362e-16
  outer loop
    vertex 0.02383095317107372 0.03247476184329801 0.009999999999999972
    vertex 0.02255132823103179 0.0259798094746384 0.01000000000000003
    vertex 0.02319114070105276 0.02922728565896821 0.015
  endloop
endfacet
facet normal -0.981139 0.193302 6.65362e-16
  outer loop
    vertex 0.02383095317107372 0.03247476184329801 0
    vertex 0.02255132823103179 0.0259798094746384 0
    vertex 0.02319114070105276 0.02922728565896821 0.005000000000000001
  endloop
endfacet
facet normal -0.981139 0.193302 -6.90953e-16
  outer loop
    vertex 0.02255132823103179 0.0259798094746384 0.02
    vertex 0.02383095317107372 0.03247476184329801 0.02
    vertex 0.02319114070105276 0.02922728565896821 0.015
  endloop
endfacet
facet normal -0.981139 0.193302 0
  outer loop
    vertex 0.02383095317107372 0.03247476184329801 0.009999999999999972
    vertex 0.02383095317107372 0.03247476184329801 0
    vertex 0.02319114070105276 0.02922728565896821 0.005000000000000001
  endloop
endfacet
facet normal -0.981139 0.193302 0
  outer loop
    vertex 0.02383095317107372 0.03247476184329801 0.02
    vertex 0.02383095317107372 0.03247476184329801 0.009999999999999972
    vertex 0.02319114070105276 0.02922728565896821 0.015
  endloop
endfacet
facet normal -0.981139 0.193302 0
  outer loop
    vertex 0.02255132823103179 0.0259798094746384 0
    vertex 0.02255132823103179 0.0259798094746384 0.01000000000000003
    vertex 0.02319114070105276 0.02922728565896821 0.005000000000000001
  endloop
endfacet
facet normal -0.981139 0.193302 0
  outer loop
    vertex 0.02255132823103179 0.0259798094746384 0.01000000000000003
    vertex 0.02255132823103179 0.0259798094746384 0.02
    vertex 0.02319114070105276 0.02922728565896821 0.015
  endloop
endfacet
facet normal -0.667103 0.744965 0
  outer loop
    vertex 0.02255132823103179 0.0259798094746384 0.02
    vertex 0.02255132823103179 0.0259798094746384 0.009999999999999972
    vertex 0.01892481839788417 0.02273233329030861 0.015
  endloop
endfacet
facet normal -0.667103 0.744965 0
  outer loop
    vertex 0.01529830856473655 0.0194848571059788 0
    vertex 0.01529830856473655 0.0194848571059788 0.01000000000000003
    vertex 0.01892481839788417 0.02273233329030861 0.005
  endloop
endfacet
facet normal -0.667103 0.744965 0
  outer loop
    vertex 0.02255132823103179 0.0259798094746384 0.009999999999999972
    vertex 0.02255132823103179 0.0259798094746384 0
    vertex 0.01892481839788417 0.02273233329030861 0.005
  endloop
endfacet
facet normal -0.667103 0.744965 0
  outer loop
    vertex 0.01529830856473655 0.0194848571059788 0.01000000000000003
    vertex 0.01529830856473655 0.0194848571059788 0.02
    vertex 0.01892481839788417 0.02273233329030861 0.015
  endloop
endfacet
facet normal -0.667103 0.744965 6.26397e-16
  outer loop
    vertex 0.01529830856473655 0.0194848571059788 0.01000000000000003
    vertex 0.02255132823103179 0.0259798094746384 0.009999999999999972
    vertex 0.01892481839788417 0.02273233329030861 0.005
  endloop
endfacet
facet normal -0.667103 0.744965 6.26397e-16
  outer loop
    vertex 0.01529830856473655 0.0194848571059788 0.02
    vertex 0.02255132823103179 0.0259798094746384 0.02
    vertex 0.01892481839788417 0.02273233329030861 0.015
  endloop
endfacet
facet normal -0.667103 0.744965 -6.26397e-16
  outer loop
    vertex 0.02255132823103179 0.0259798094746384 0
    vertex 0.01529830856473655 0.0194848571059788 0
    vertex 0.01892481839788417 0.02273233329030861 0.005
  endloop
endfacet
facet normal -0.667103 0.744965 -6.26397e-16
  outer loop
    vertex 0.02255132823103179 0.0259798094746384 0.009999999999999972
    vertex 0.01529830856473655 0.0194848571059788 0.01000000000000003
    vertex 0.01892481839788417 0.02273233329030861 0.015
  endloop
endfacet
facet normal -0.904346 0.426801 2.83054e-16
  outer loop
    vertex 0.01529830856473655 0.0194848571059788 0.009999999999999972
    vertex 0.01223305371870474 0.0129899047373192 0.01000000000000003
    vertex 0.01376568114172065 0.016237380921649 0.015
  endloop
endfacet
facet normal -0.904346 0.426801 2.83054e-16
  outer loop
    vertex 0.01529830856473655 0.0194848571059788 0
    vertex 0.01223305371870474 0.0129899047373192 0
    vertex 0.01376568114172065 0.016237380921649 0.005000000000000001
  endloop
endfacet
facet normal -0.904346 0.426801 -3.3023e-16
  outer loop
    vertex 0.01223305371870474 0.0129899047373192 0.01000000000000003
    vertex 0.01529830856473655 0.0194848571059788 0.009999999999999972
    vertex 0.01376568114172065 0.016237380921649 0.005000000000000001
  endloop
endfacet
facet normal -0.904346 0.426801 -3.3023e-16
  outer loop
    vertex 0.01223305371870474 0.0129899047373192 0.02
    vertex 0.01529830856473655 0.0194848571059788 0.02
    vertex 0.01376568114172065 0.016237380921649 0.015
  endloop
endfacet
facet normal -0.904346 0.426801 0
  outer loop
    vertex 0.01529830856473655 0.0194848571059788 0.009999999999999972
    vertex 0.01529830856473655 0.0194848571059788 0
    vertex 0.01376568114172065 0.016237380921649 0.005000000000000001
  endloop
endfacet
facet normal -0.904346 0.426801 0
  outer loop
    vertex 0.01529830856473655 0.0194848571059788 0.02
    vertex 0.01529830856473655 0.0194848571059788 0.009999999999999972
    vertex 0.01376568114172065 0.016237380921649 0.015
  endloop
endfacet
facet normal -0.904346 0.426801 0
  outer loop
    vertex 0.01223305371870474 0.0129899047373192 0
    vertex 0.01223305371870474 0.0129899047373192 0.01000000000000003
    vertex 0.01376568114172065 0.016237380921649 0.005000000000000001
  endloop
endfacet
facet normal -0.904346 0.426801 0
  outer loop
    vertex 0.01223305371870474 0.0129899047373192 0.01000000000000003
    vertex 0.01223305371870474 0.0129899047373192 0.02
    vertex 0.01376568114172065 0.016237380921649 0.015
  endloop
endfacet
facet normal -0.57078 -0.821103 -1.03948e-16
  outer loop
    vertex 0.01223305371870474 0.0129899047373192 0
    vertex 0.02157644720757282 0.006494952368659601 0
    vertex 0.01690475046313878 0.009742428552989402 0.005728862973760924
  endloop
endfacet
facet normal -0.57078 -0.821103 4.72143e-16
  outer loop
    vertex 0.02157644720757282 0.006494952368659601 0.02
    vertex 0.01223305371870474 0.0129899047373192 0.02
    vertex 0.01690475046313876 0.009742428552989409 0.01432426114969102
  endloop
endfacet
facet normal -0.57078 -0.821103 0
  outer loop
    vertex 0.02157644720757282 0.006494952368659601 0
    vertex 0.02157644720757282 0.006494952368659601 0.01000000000000003
    vertex 0.01690475046313878 0.009742428552989402 0.005728862973760924
  endloop
endfacet
facet normal -0.57078 -0.821103 -0
  outer loop
    vertex 0.01223305371870474 0.0129899047373192 0.02
    vertex 0.01223305371870474 0.0129899047373192 0.009999999999999972
    vertex 0.01690475046313876 0.009742428552989409 0.01432426114969102
  endloop
endfacet
facet normal -0.57078 -0.821103 -2.58699e-16
  outer loop
    vertex 0.01690475046313878 0.009742428552989402 0.005728862973760924
    vertex 0.02157644720757282 0.006494952368659601 0.01000000000000003
    vertex 0.01690475046313876 0.009742428552989409 0.01432426114969102
  endloop
endfacet
facet normal -0.57078 -0.821103 0
  outer loop
    vertex 0.02157644720757282 0.006494952368659601 0.01000000000000003
    vertex 0.02157644720757282 0.006494952368659601 0.02
    vertex 0.01690475046313876 0.009742428552989409 0.01432426114969102
  endloop
endfacet
facet normal -0.57078 -0.821103 -2.42485e-16
  outer loop
    vertex 0.01223305371870474 0.0129899047373192 0.009999999999999972
    vertex 0.01690475046313878 0.009742428552989402 0.005728862973760924
    vertex 0.01690475046313876 0.009742428552989409 0.01432426114969102
  endloop
endfacet
facet normal -0.57078 -0.821103 -0
  outer loop
    vertex 0.01223305371870474 0.0129899047373192 0.009999999999999972
    vertex 0.01223305371870474 0.0129899047373192 0
    vertex 0.01690475046313878 0.009742428552989402 0.005728862973760924
  endloop
endfacet
endsolid Created by Gmsh
