solid Created by Gmsh
facet normal 0.998256 -0.0590274 -3.06336e-17
  outer loop
    vertex 0.01041085317485685 0.04077170605168277 0
    vertex 0.01013272644478592 0.03606810095377338 0.01083192864846774
    vertex 0.009808139881142638 0.03057877953876205 0
  endloop
endfacet
facet normal 0.998256 -0.0590274 -1.28993e-16
  outer loop
    vertex 0.008602713293714214 0.01019292651292071 0.02
    vertex 0.008881513862926514 0.01490792739871323 0.009067347438157779
    vertex 0.00920542658742843 0.02038585302584143 0.02
  endloop
endfacet
facet normal 0.998256 -0.0590274 -1.22312e-16
  outer loop
    vertex 0.008881513862926514 0.01490792739871323 0.009067347438157779
    vertex 0.009506895540809095 0.02548421558028226 0.009983212681104253
    vertex 0.00920542658742843 0.02038585302584143 0.02
  endloop
endfacet
facet normal 0.998256 -0.0590274 -8.28162e-17
  outer loop
    vertex 0.00920542658742843 0.02038585302584143 0.02
    vertex 0.009506895540809095 0.02548421558028226 0.009983212681104253
    vertex 0.009808139881142644 0.03057877953876214 0.02
  endloop
endfacet
facet normal 0.998256 -0.0590274 3.84396e-17
  outer loop
    vertex 0.01013272644478592 0.03606810095377338 0.01083192864846774
    vertex 0.009506895540809095 0.02548421558028226 0.009983212681104253
    vertex 0.009808139881142638 0.03057877953876205 0
  endloop
endfacet
facet normal 0.998256 -0.0590274 -7.06759e-17
  outer loop
    vertex 0.009808139881142644 0.03057877953876214 0.02
    vertex 0.009506895540809095 0.02548421558028226 0.009983212681104253
    vertex 0.01013272644478592 0.03606810095377338 0.01083192864846774
  endloop
endfacet
facet normal 0.998256 -0.0590274 -5.39342e-17
  outer loop
    vertex 0.008602713293714214 0.01019292651292071 0.02
    vertex 0.008425265269969978 0.007191972850953476 0.01241126757364455
    vertex 0.008881513862926514 0.01490792739871323 0.009067347438157779
  endloop
endfacet
facet normal 0.998256 -0.0590274 -8.11236e-17
  outer loop
    vertex 0.01041085317485685 0.04077170605168277 0
    vertex 0.01057717171403362 0.04358444083826432 0.007649380106574563
    vertex 0.01013272644478592 0.03606810095377338 0.01083192864846774
  endloop
endfacet
facet normal 0.998256 -0.0590274 5.81663e-17
  outer loop
    vertex 0.009808139881142638 0.03057877953876205 0
    vertex 0.009506895540809095 0.02548421558028226 0.009983212681104253
    vertex 0.009205426587428425 0.02038585302584135 0
  endloop
endfacet
facet normal 0.998256 -0.0590274 1.0683e-16
  outer loop
    vertex 0.009205426587428425 0.02038585302584135 0
    vertex 0.009506895540809095 0.02548421558028226 0.009983212681104253
    vertex 0.008881513862926514 0.01490792739871323 0.009067347438157779
  endloop
endfacet
facet normal 0.998256 -0.0590274 1.41806e-16
  outer loop
    vertex 0.009205426587428425 0.02038585302584135 0
    vertex 0.008881513862926514 0.01490792739871323 0.009067347438157779
    vertex 0.008602713293714212 0.01019292651292068 0
  endloop
endfacet
facet normal 0.998256 -0.0590274 -8.59586e-17
  outer loop
    vertex 0.009808139881142644 0.03057877953876214 0.02
    vertex 0.01013272644478592 0.03606810095377338 0.01083192864846774
    vertex 0.01041085317485686 0.0407717060516828 0.02
  endloop
endfacet
facet normal 0.998256 -0.0590274 0
  outer loop
    vertex 0.008 0 0.01000000000000003
    vertex 0.008425265269969978 0.007191972850953476 0.01241126757364455
    vertex 0.008 0 0.02
  endloop
endfacet
facet normal 0.998256 -0.0590274 0
  outer loop
    vertex 0.01101356646857107 0.05096463256460348 0.009999999999999972
    vertex 0.01057717171403362 0.04358444083826432 0.007649380106574563
    vertex 0.01101356646857107 0.05096463256460348 0
  endloop
endfacet
facet normal 0.998256 -0.0590274 -3.25341e-17
  outer loop
    vertex 0.01101356646857107 0.05096463256460348 0
    vertex 0.01057717171403362 0.04358444083826432 0.007649380106574563
    vertex 0.01041085317485685 0.04077170605168277 0
  endloop
endfacet
facet normal 0.998256 -0.0590274 -2.18627e-17
  outer loop
    vertex 0.008 0 0.02
    vertex 0.008425265269969978 0.007191972850953476 0.01241126757364455
    vertex 0.008602713293714214 0.01019292651292071 0.02
  endloop
endfacet
facet normal 0.998256 -0.0590274 1.6179e-16
  outer loop
    vertex 0.008881513862926514 0.01490792739871323 0.009067347438157779
    vertex 0.008358886531474987 0.006069393325072576 0.005925516430257485
    vertex 0.008602713293714212 0.01019292651292068 0
  endloop
endfacet
facet normal 0.998256 -0.0590274 -1.03319e-16
  outer loop
    vertex 0.01013272644478592 0.03606810095377338 0.01083192864846774
    vertex 0.01065318627346378 0.04486997879845911 0.01406875839357746
    vertex 0.01041085317485686 0.0407717060516828 0.02
  endloop
endfacet
facet normal 0.998256 -0.0590274 -1.72891e-16
  outer loop
    vertex 0.008425265269969978 0.007191972850953476 0.01241126757364455
    vertex 0.008358886531474987 0.006069393325072576 0.005925516430257485
    vertex 0.008881513862926514 0.01490792739871323 0.009067347438157779
  endloop
endfacet
facet normal 0.998256 -0.0590274 -8.48116e-17
  outer loop
    vertex 0.01057717171403362 0.04358444083826432 0.007649380106574563
    vertex 0.01065318627346378 0.04486997879845911 0.01406875839357746
    vertex 0.01013272644478592 0.03606810095377338 0.01083192864846774
  endloop
endfacet
facet normal 0.998256 -0.0590274 -6.29376e-17
  outer loop
    vertex 0.01041085317485686 0.0407717060516828 0.02
    vertex 0.01065318627346378 0.04486997879845911 0.01406875839357746
    vertex 0.01101356646857107 0.05096463256460348 0.02
  endloop
endfacet
facet normal 0.998256 -0.0590274 2.37994e-16
  outer loop
    vertex 0.008602713293714212 0.01019292651292068 0
    vertex 0.008358886531474987 0.006069393325072576 0.005925516430257485
    vertex 0.008 0 0
  endloop
endfacet
facet normal 0.998256 -0.0590274 0
  outer loop
    vertex 0.01101356646857107 0.05096463256460348 0.02
    vertex 0.01065318627346378 0.04486997879845911 0.01406875839357746
    vertex 0.01101356646857107 0.05096463256460348 0.009999999999999972
  endloop
endfacet
facet normal 0.998256 -0.0590274 0
  outer loop
    vertex 0.008 0 0
    vertex 0.008358886531474987 0.006069393325072576 0.005925516430257485
    vertex 0.008 0 0.01000000000000003
  endloop
endfacet
facet normal 0.998256 -0.0590274 -7.62545e-17
  outer loop
    vertex 0.01101356646857107 0.05096463256460348 0.009999999999999972
    vertex 0.01065318627346378 0.04486997879845911 0.01406875839357746
    vertex 0.01057717171403362 0.04358444083826432 0.007649380106574563
  endloop
endfacet
facet normal 0.998256 -0.0590274 -1.82819e-16
  outer loop
    vertex 0.008 0 0.01000000000000003
    vertex 0.008358886531474987 0.006069393325072576 0.005925516430257485
    vertex 0.008425265269969978 0.007191972850953476 0.01241126757364455
  endloop
endfacet
endsolid Created by Gmsh
