solid Created by Gmsh
facet normal 1 0 0
  outer loop
    vertex 0.04 0.06 0
    vertex 0.04 0.0567676304330178 0.005
    vertex 0.04 0.0535352608660356 0
  endloop
endfacet
facet normal 1 0 0
  outer loop
    vertex 0.04 0.06 0.009999999999999972
    vertex 0.04 0.0567676304330178 0.015
    vertex 0.04 0.0535352608660356 0.01000000000000003
  endloop
endfacet
facet normal 1 -0 0
  outer loop
    vertex 0.04 0.0535352608660356 0.02
    vertex 0.04 0.0567676304330178 0.015
    vertex 0.04 0.06 0.02
  endloop
endfacet
facet normal 1 0 0
  outer loop
    vertex 0.04 0.0535352608660356 0.01000000000000003
    vertex 0.04 0.0567676304330178 0.005
    vertex 0.04 0.06 0.009999999999999972
  endloop
endfacet
facet normal 1 0 0
  outer loop
    vertex 0.04 0.06 0.009999999999999972
    vertex 0.04 0.0567676304330178 0.005
    vertex 0.04 0.06 0
  endloop
endfacet
facet normal 1 0 0
  outer loop
    vertex 0.04 0.06 0.02
    vertex 0.04 0.0567676304330178 0.015
    vertex 0.04 0.06 0.009999999999999972
  endloop
endfacet
facet normal 1 0 0
  outer loop
    vertex 0.04 0.0535352608660356 0
    vertex 0.04 0.0567676304330178 0.005
    vertex 0.04 0.0535352608660356 0.01000000000000003
  endloop
endfacet
facet normal 1 0 0
  outer loop
    vertex 0.04 0.0535352608660356 0.01000000000000003
    vertex 0.04 0.0567676304330178 0.015
    vertex 0.04 0.0535352608660356 0.02
  endloop
endfacet
facet normal 0.593149 -0.805092 -1.04842e-15
  outer loop
    vertex 0.04 0.0535352608660356 0
    vertex 0.035458475076386 0.05018930706190837 0.005728862973760923
    vertex 0.030916950152772 0.04684335325778115 0
  endloop
endfacet
facet normal 0.593149 -0.805092 -2.11647e-16
  outer loop
    vertex 0.030916950152772 0.04684335325778115 0.02
    vertex 0.03545847507638601 0.05018930706190838 0.01432426114969102
    vertex 0.04 0.0535352608660356 0.02
  endloop
endfacet
facet normal 0.593149 -0.805092 0
  outer loop
    vertex 0.04 0.0535352608660356 0.02
    vertex 0.03545847507638601 0.05018930706190838 0.01432426114969102
    vertex 0.04 0.0535352608660356 0.009999999999999972
  endloop
endfacet
facet normal 0.593149 -0.805092 0
  outer loop
    vertex 0.030916950152772 0.04684335325778115 0
    vertex 0.035458475076386 0.05018930706190837 0.005728862973760923
    vertex 0.030916950152772 0.04684335325778115 0.01000000000000003
  endloop
endfacet
facet normal 0.593149 -0.805092 8.38532e-16
  outer loop
    vertex 0.04 0.0535352608660356 0.009999999999999972
    vertex 0.03545847507638601 0.05018930706190838 0.01432426114969102
    vertex 0.035458475076386 0.05018930706190837 0.005728862973760923
  endloop
endfacet
facet normal 0.593149 -0.805092 8.21033e-16
  outer loop
    vertex 0.035458475076386 0.05018930706190837 0.005728862973760923
    vertex 0.03545847507638601 0.05018930706190838 0.01432426114969102
    vertex 0.030916950152772 0.04684335325778115 0.01000000000000003
  endloop
endfacet
facet normal 0.593149 -0.805092 0
  outer loop
    vertex 0.04 0.0535352608660356 0.009999999999999972
    vertex 0.035458475076386 0.05018930706190837 0.005728862973760923
    vertex 0.04 0.0535352608660356 0
  endloop
endfacet
facet normal 0.593149 -0.805092 0
  outer loop
    vertex 0.030916950152772 0.04684335325778115 0.01000000000000003
    vertex 0.03545847507638601 0.05018930706190838 0.01432426114969102
    vertex 0.030916950152772 0.04684335325778115 0.02
  endloop
endfacet
facet normal 0.947541 -0.319634 2.15884e-16
  outer loop
    vertex 0.02865957109488672 0.0401514456495267 0.01000000000000003
    vertex 0.02978826062382936 0.04349739945365392 0.005
    vertex 0.030916950152772 0.04684335325778115 0.009999999999999972
  endloop
endfacet
facet normal 0.947541 -0.319634 2.15884e-16
  outer loop
    vertex 0.02865957109488672 0.0401514456495267 0.02
    vertex 0.02978826062382936 0.04349739945365392 0.015
    vertex 0.030916950152772 0.04684335325778115 0.02
  endloop
endfacet
facet normal 0.947541 -0.319634 -2.15884e-16
  outer loop
    vertex 0.030916950152772 0.04684335325778115 0.009999999999999972
    vertex 0.02978826062382936 0.04349739945365392 0.015
    vertex 0.02865957109488672 0.0401514456495267 0.01000000000000003
  endloop
endfacet
facet normal 0.947541 -0.319634 -2.15884e-16
  outer loop
    vertex 0.030916950152772 0.04684335325778115 0
    vertex 0.02978826062382936 0.04349739945365392 0.005
    vertex 0.02865957109488672 0.0401514456495267 0
  endloop
endfacet
facet normal 0.947541 -0.319634 0
  outer loop
    vertex 0.030916950152772 0.04684335325778115 0.009999999999999972
    vertex 0.02978826062382936 0.04349739945365392 0.005
    vertex 0.030916950152772 0.04684335325778115 0
  endloop
endfacet
facet normal 0.947541 -0.319634 0
  outer loop
    vertex 0.030916950152772 0.04684335325778115 0.02
    vertex 0.02978826062382936 0.04349739945365392 0.015
    vertex 0.030916950152772 0.04684335325778115 0.009999999999999972
  endloop
endfacet
facet normal 0.947541 -0.319634 0
  outer loop
    vertex 0.02865957109488672 0.0401514456495267 0
    vertex 0.02978826062382936 0.04349739945365392 0.005
    vertex 0.02865957109488672 0.0401514456495267 0.01000000000000003
  endloop
endfacet
facet normal 0.947541 -0.319634 0
  outer loop
    vertex 0.02865957109488672 0.0401514456495267 0.01000000000000003
    vertex 0.02978826062382936 0.04349739945365392 0.015
    vertex 0.02865957109488672 0.0401514456495267 0.02
  endloop
endfacet
facet normal 0.997276 0.0737611 -6.43778e-16
  outer loop
    vertex 0.02865957109488672 0.0401514456495267 0
    vertex 0.0289070466111426 0.03680549184539947 0.005000000000000001
    vertex 0.02915452212739848 0.03345953804127225 0
  endloop
endfacet
facet normal 0.997276 0.0737611 -6.43778e-16
  outer loop
    vertex 0.02865957109488672 0.0401514456495267 0.009999999999999972
    vertex 0.0289070466111426 0.03680549184539947 0.015
    vertex 0.02915452212739848 0.03345953804127225 0.01000000000000003
  endloop
endfacet
facet normal 0.997276 0.0737611 6.43778e-16
  outer loop
    vertex 0.02915452212739848 0.03345953804127225 0.02
    vertex 0.0289070466111426 0.03680549184539947 0.015
    vertex 0.02865957109488672 0.0401514456495267 0.02
  endloop
endfacet
facet normal 0.997276 0.0737611 6.43778e-16
  outer loop
    vertex 0.02915452212739848 0.03345953804127225 0.01000000000000003
    vertex 0.0289070466111426 0.03680549184539947 0.005000000000000001
    vertex 0.02865957109488672 0.0401514456495267 0.009999999999999972
  endloop
endfacet
facet normal 0.997276 0.0737611 0
  outer loop
    vertex 0.02865957109488672 0.0401514456495267 0.009999999999999972
    vertex 0.0289070466111426 0.03680549184539947 0.005000000000000001
    vertex 0.02865957109488672 0.0401514456495267 0
  endloop
endfacet
facet normal 0.997276 0.0737611 0
  outer loop
    vertex 0.02865957109488672 0.0401514456495267 0.02
    vertex 0.0289070466111426 0.03680549184539947 0.015
    vertex 0.02865957109488672 0.0401514456495267 0.009999999999999972
  endloop
endfacet
facet normal 0.997276 0.0737611 -0
  outer loop
    vertex 0.02915452212739848 0.03345953804127225 0
    vertex 0.0289070466111426 0.03680549184539947 0.005000000000000001
    vertex 0.02915452212739848 0.03345953804127225 0.01000000000000003
  endloop
endfacet
facet normal 0.997276 0.0737611 -0
  outer loop
    vertex 0.02915452212739848 0.03345953804127225 0.01000000000000003
    vertex 0.0289070466111426 0.03680549184539947 0.015
    vertex 0.02915452212739848 0.03345953804127225 0.02
  endloop
endfacet
facet normal 0.996579 0.0826453 -6.62249e-16
  outer loop
    vertex 0.02970947560821126 0.0267676304330178 0.01000000000000003
    vertex 0.02943199886780487 0.03011358423714502 0.004999999999999996
    vertex 0.02915452212739848 0.03345953804127225 0.009999999999999972
  endloop
endfacet
facet normal 0.996579 0.0826453 6.62249e-16
  outer loop
    vertex 0.02915452212739848 0.03345953804127225 0.009999999999999972
    vertex 0.02943199886780487 0.03011358423714502 0.015
    vertex 0.02970947560821126 0.0267676304330178 0.01000000000000003
  endloop
endfacet
facet normal 0.996579 0.0826453 6.62249e-16
  outer loop
    vertex 0.02915452212739848 0.03345953804127225 0
    vertex 0.02943199886780487 0.03011358423714502 0.004999999999999996
    vertex 0.02970947560821126 0.0267676304330178 0
  endloop
endfacet
facet normal 0.996579 0.0826453 -6.62249e-16
  outer loop
    vertex 0.02970947560821126 0.0267676304330178 0.02
    vertex 0.02943199886780487 0.03011358423714502 0.015
    vertex 0.02915452212739848 0.03345953804127225 0.02
  endloop
endfacet
facet normal 0.996579 0.0826453 0
  outer loop
    vertex 0.02915452212739848 0.03345953804127225 0.009999999999999972
    vertex 0.02943199886780487 0.03011358423714502 0.004999999999999996
    vertex 0.02915452212739848 0.03345953804127225 0
  endloop
endfacet
facet normal 0.996579 0.0826453 0
  outer loop
    vertex 0.02915452212739848 0.03345953804127225 0.02
    vertex 0.02943199886780487 0.03011358423714502 0.015
    vertex 0.02915452212739848 0.03345953804127225 0.009999999999999972
  endloop
endfacet
facet normal 0.996579 0.0826453 -0
  outer loop
    vertex 0.02970947560821126 0.0267676304330178 0
    vertex 0.02943199886780487 0.03011358423714502 0.004999999999999996
    vertex 0.02970947560821126 0.0267676304330178 0.01000000000000003
  endloop
endfacet
facet normal 0.996579 0.0826453 -0
  outer loop
    vertex 0.02970947560821126 0.0267676304330178 0.01000000000000003
    vertex 0.02943199886780487 0.03011358423714502 0.015
    vertex 0.02970947560821126 0.0267676304330178 0.02
  endloop
endfacet
facet normal 0.982489 0.186323 6.21796e-16
  outer loop
    vertex 0.03097855628126219 0.02007572282476335 0.02
    vertex 0.03034401594473673 0.02342167662889057 0.015
    vertex 0.02970947560821126 0.0267676304330178 0.02
  endloop
endfacet
facet normal 0.982489 0.186323 6.21796e-16
  outer loop
    vertex 0.03097855628126219 0.02007572282476335 0.01000000000000003
    vertex 0.03034401594473673 0.02342167662889057 0.005000000000000001
    vertex 0.02970947560821126 0.0267676304330178 0.009999999999999972
  endloop
endfacet
facet normal 0.982489 0.186323 -6.21796e-16
  outer loop
    vertex 0.02970947560821126 0.0267676304330178 0
    vertex 0.03034401594473673 0.02342167662889057 0.005000000000000001
    vertex 0.03097855628126219 0.02007572282476335 0
  endloop
endfacet
facet normal 0.982489 0.186323 -6.21796e-16
  outer loop
    vertex 0.02970947560821126 0.0267676304330178 0.009999999999999972
    vertex 0.03034401594473673 0.02342167662889057 0.015
    vertex 0.03097855628126219 0.02007572282476335 0.01000000000000003
  endloop
endfacet
facet normal 0.982489 0.186323 0
  outer loop
    vertex 0.02970947560821126 0.0267676304330178 0.009999999999999972
    vertex 0.03034401594473673 0.02342167662889057 0.005000000000000001
    vertex 0.02970947560821126 0.0267676304330178 0
  endloop
endfacet
facet normal 0.982489 0.186323 0
  outer loop
    vertex 0.02970947560821126 0.0267676304330178 0.02
    vertex 0.03034401594473673 0.02342167662889057 0.015
    vertex 0.02970947560821126 0.0267676304330178 0.009999999999999972
  endloop
endfacet
facet normal 0.982489 0.186323 -0
  outer loop
    vertex 0.03097855628126219 0.02007572282476335 0
    vertex 0.03034401594473673 0.02342167662889057 0.005000000000000001
    vertex 0.03097855628126219 0.02007572282476335 0.01000000000000003
  endloop
endfacet
facet normal 0.982489 0.186323 -0
  outer loop
    vertex 0.03097855628126219 0.02007572282476335 0.01000000000000003
    vertex 0.03034401594473673 0.02342167662889057 0.015
    vertex 0.03097855628126219 0.02007572282476335 0.02
  endloop
endfacet
facet normal 0.989708 -0.143102 1.378e-15
  outer loop
    vertex 0.03097855628126219 0.02007572282476335 0.009999999999999972
    vertex 0.03049476534062153 0.01672976902063613 0.015
    vertex 0.03001097439998089 0.0133838152165089 0.01000000000000003
  endloop
endfacet
facet normal 0.989708 -0.143102 -1.378e-15
  outer loop
    vertex 0.03001097439998089 0.0133838152165089 0.01000000000000003
    vertex 0.03049476534062153 0.01672976902063613 0.005
    vertex 0.03097855628126219 0.02007572282476335 0.009999999999999972
  endloop
endfacet
facet normal 0.989708 -0.143102 1.378e-15
  outer loop
    vertex 0.03097855628126219 0.02007572282476335 0
    vertex 0.03049476534062153 0.01672976902063613 0.005
    vertex 0.03001097439998089 0.0133838152165089 0
  endloop
endfacet
facet normal 0.989708 -0.143102 -1.378e-15
  outer loop
    vertex 0.03001097439998089 0.0133838152165089 0.02
    vertex 0.03049476534062153 0.01672976902063613 0.015
    vertex 0.03097855628126219 0.02007572282476335 0.02
  endloop
endfacet
facet normal 0.989708 -0.143102 0
  outer loop
    vertex 0.03097855628126219 0.02007572282476335 0.009999999999999972
    vertex 0.03049476534062153 0.01672976902063613 0.005
    vertex 0.03097855628126219 0.02007572282476335 0
  endloop
endfacet
facet normal 0.989708 -0.143102 0
  outer loop
    vertex 0.03097855628126219 0.02007572282476335 0.02
    vertex 0.03049476534062153 0.01672976902063613 0.015
    vertex 0.03097855628126219 0.02007572282476335 0.009999999999999972
  endloop
endfacet
facet normal 0.989708 -0.143102 0
  outer loop
    vertex 0.03001097439998089 0.0133838152165089 0
    vertex 0.03049476534062153 0.01672976902063613 0.005
    vertex 0.03001097439998089 0.0133838152165089 0.01000000000000003
  endloop
endfacet
facet normal 0.989708 -0.143102 0
  outer loop
    vertex 0.03001097439998089 0.0133838152165089 0.01000000000000003
    vertex 0.03049476534062153 0.01672976902063613 0.015
    vertex 0.03001097439998089 0.0133838152165089 0.02
  endloop
endfacet
facet normal 0.971996 -0.234998 3.19881e-16
  outer loop
    vertex 0.02839308384394672 0.006691907608254451 0.01000000000000003
    vertex 0.0292020291219638 0.01003786141238168 0.005
    vertex 0.03001097439998089 0.0133838152165089 0.009999999999999972
  endloop
endfacet
facet normal 0.971996 -0.234998 -3.44487e-16
  outer loop
    vertex 0.03001097439998089 0.0133838152165089 0.009999999999999972
    vertex 0.0292020291219638 0.01003786141238168 0.015
    vertex 0.02839308384394672 0.006691907608254451 0.01000000000000003
  endloop
endfacet
facet normal 0.971996 -0.234998 3.19881e-16
  outer loop
    vertex 0.02839308384394672 0.006691907608254451 0.02
    vertex 0.0292020291219638 0.01003786141238168 0.015
    vertex 0.03001097439998089 0.0133838152165089 0.02
  endloop
endfacet
facet normal 0.971996 -0.234998 -3.44487e-16
  outer loop
    vertex 0.03001097439998089 0.0133838152165089 0
    vertex 0.0292020291219638 0.01003786141238168 0.005
    vertex 0.02839308384394672 0.006691907608254451 0
  endloop
endfacet
facet normal 0.971996 -0.234998 0
  outer loop
    vertex 0.03001097439998089 0.0133838152165089 0.009999999999999972
    vertex 0.0292020291219638 0.01003786141238168 0.005
    vertex 0.03001097439998089 0.0133838152165089 0
  endloop
endfacet
facet normal 0.971996 -0.234998 0
  outer loop
    vertex 0.03001097439998089 0.0133838152165089 0.02
    vertex 0.0292020291219638 0.01003786141238168 0.015
    vertex 0.03001097439998089 0.0133838152165089 0.009999999999999972
  endloop
endfacet
facet normal 0.971996 -0.234998 0
  outer loop
    vertex 0.02839308384394672 0.006691907608254451 0
    vertex 0.0292020291219638 0.01003786141238168 0.005
    vertex 0.02839308384394672 0.006691907608254451 0.01000000000000003
  endloop
endfacet
facet normal 0.971996 -0.234998 0
  outer loop
    vertex 0.02839308384394672 0.006691907608254451 0.01000000000000003
    vertex 0.0292020291219638 0.01003786141238168 0.015
    vertex 0.02839308384394672 0.006691907608254451 0.02
  endloop
endfacet
endsolid Created by Gmsh
