solid Created by Gmsh
facet normal 0.996747 -0.0805925 -2.3499e-17
  outer loop
    vertex 0.01053723671729882 0.03137989284403472 0
    vertex 0.01011436393108235 0.02614991070336228 0.01030450032050356
    vertex 0.00969149114486588 0.02091992856268981 0
  endloop
endfacet
facet normal 0.996747 -0.0805925 -3.83401e-17
  outer loop
    vertex 0.01053723671729882 0.03137989284403474 0.02
    vertex 0.01102362117387166 0.03739537103107145 0.009473806410408779
    vertex 0.01138298228973176 0.04183985712537965 0.02
  endloop
endfacet
facet normal 0.996747 -0.0805925 -1.1553e-17
  outer loop
    vertex 0.008845745572432942 0.01045996428134492 0.02
    vertex 0.00920488483455467 0.01490170654552888 0.009520236738868218
    vertex 0.009691491144865883 0.02091992856268984 0.02
  endloop
endfacet
facet normal 0.996747 -0.0805925 -5.28592e-17
  outer loop
    vertex 0.01011436393108235 0.02614991070336228 0.01030450032050356
    vertex 0.00920488483455467 0.01490170654552888 0.009520236738868218
    vertex 0.00969149114486588 0.02091992856268981 0
  endloop
endfacet
facet normal 0.996747 -0.0805925 -6.43422e-17
  outer loop
    vertex 0.01053723671729882 0.03137989284403472 0
    vertex 0.01102362117387166 0.03739537103107145 0.009473806410408779
    vertex 0.01011436393108235 0.02614991070336228 0.01030450032050356
  endloop
endfacet
facet normal 0.996747 -0.0805925 -1.11702e-16
  outer loop
    vertex 0.01011436393108235 0.02614991070336228 0.01030450032050356
    vertex 0.01102362117387166 0.03739537103107145 0.009473806410408779
    vertex 0.01053723671729882 0.03137989284403474 0.02
  endloop
endfacet
facet normal 0.996747 -0.0805925 -9.69931e-17
  outer loop
    vertex 0.009691491144865883 0.02091992856268984 0.02
    vertex 0.00920488483455467 0.01490170654552888 0.009520236738868218
    vertex 0.01011436393108235 0.02614991070336228 0.01030450032050356
  endloop
endfacet
facet normal 0.996747 -0.0805925 -8.47827e-17
  outer loop
    vertex 0.00969149114486588 0.02091992856268981 0
    vertex 0.00920488483455467 0.01490170654552888 0.009520236738868218
    vertex 0.00884574557243294 0.01045996428134491 0
  endloop
endfacet
facet normal 0.996747 -0.0805925 -6.46179e-18
  outer loop
    vertex 0.01102362117387166 0.03739537103107145 0.009473806410408779
    vertex 0.01162194988814944 0.04479534708042265 0.01230093721194471
    vertex 0.01138298228973176 0.04183985712537965 0.02
  endloop
endfacet
facet normal 0.996747 -0.0805925 -7.24185e-17
  outer loop
    vertex 0.01138298228973176 0.04183985712537963 0
    vertex 0.01102362117387166 0.03739537103107145 0.009473806410408779
    vertex 0.01053723671729882 0.03137989284403472 0
  endloop
endfacet
facet normal 0.996747 -0.0805925 -1.4985e-16
  outer loop
    vertex 0.009691491144865883 0.02091992856268984 0.02
    vertex 0.01011436393108235 0.02614991070336228 0.01030450032050356
    vertex 0.01053723671729882 0.03137989284403474 0.02
  endloop
endfacet
facet normal 0.996747 -0.0805925 0
  outer loop
    vertex 0.0122287278621647 0.05229982140672455 0.02
    vertex 0.01162194988814944 0.04479534708042265 0.01230093721194471
    vertex 0.0122287278621647 0.05229982140672455 0.009999999999999972
  endloop
endfacet
facet normal 0.996747 -0.0805925 0
  outer loop
    vertex 0.008 0 0.01000000000000003
    vertex 0.008605158210723746 0.007484441509429104 0.01232429530104096
    vertex 0.008 0 0.02
  endloop
endfacet
facet normal 0.996747 -0.0805925 2.09675e-17
  outer loop
    vertex 0.01138298228973176 0.04183985712537965 0.02
    vertex 0.01162194988814944 0.04479534708042265 0.01230093721194471
    vertex 0.0122287278621647 0.05229982140672455 0.02
  endloop
endfacet
facet normal 0.996747 -0.0805925 -3.23348e-17
  outer loop
    vertex 0.008845745572432942 0.01045996428134492 0.02
    vertex 0.008605158210723746 0.007484441509429104 0.01232429530104096
    vertex 0.00920488483455467 0.01490170654552888 0.009520236738868218
  endloop
endfacet
facet normal 0.996747 -0.0805925 -7.36097e-17
  outer loop
    vertex 0.008 0 0.02
    vertex 0.008605158210723746 0.007484441509429104 0.01232429530104096
    vertex 0.008845745572432942 0.01045996428134492 0.02
  endloop
endfacet
facet normal 0.996747 -0.0805925 -6.27852e-17
  outer loop
    vertex 0.00920488483455467 0.01490170654552888 0.009520236738868218
    vertex 0.008500219170020614 0.006186582373949683 0.005977790291415605
    vertex 0.00884574557243294 0.01045996428134491 0
  endloop
endfacet
facet normal 0.996747 -0.0805925 -1.03993e-16
  outer loop
    vertex 0.01138298228973176 0.04183985712537963 0
    vertex 0.01172824560399696 0.046109985226061 0.005967820517479063
    vertex 0.01102362117387166 0.03739537103107145 0.009473806410408779
  endloop
endfacet
facet normal 0.996747 -0.0805925 8.53218e-17
  outer loop
    vertex 0.008605158210723746 0.007484441509429104 0.01232429530104096
    vertex 0.008500219170020614 0.006186582373949683 0.005977790291415605
    vertex 0.00920488483455467 0.01490170654552888 0.009520236738868218
  endloop
endfacet
facet normal 0.996747 -0.0805925 6.67656e-17
  outer loop
    vertex 0.01102362117387166 0.03739537103107145 0.009473806410408779
    vertex 0.01172824560399696 0.046109985226061 0.005967820517479063
    vertex 0.01162194988814944 0.04479534708042265 0.01230093721194471
  endloop
endfacet
facet normal 0.996747 -0.0805925 -1.89351e-16
  outer loop
    vertex 0.0122287278621647 0.05229982140672455 0
    vertex 0.01172824560399696 0.046109985226061 0.005967820517479063
    vertex 0.01138298228973176 0.04183985712537963 0
  endloop
endfacet
facet normal 0.996747 -0.0805925 -4.05075e-17
  outer loop
    vertex 0.00884574557243294 0.01045996428134491 0
    vertex 0.008500219170020614 0.006186582373949683 0.005977790291415605
    vertex 0.008 0 0
  endloop
endfacet
facet normal 0.996747 -0.0805925 0
  outer loop
    vertex 0.008 0 0
    vertex 0.008500219170020614 0.006186582373949683 0.005977790291415605
    vertex 0.008 0 0.01000000000000003
  endloop
endfacet
facet normal 0.996747 -0.0805925 0
  outer loop
    vertex 0.0122287278621647 0.05229982140672455 0.009999999999999972
    vertex 0.01172824560399696 0.046109985226061 0.005967820517479063
    vertex 0.0122287278621647 0.05229982140672455 0
  endloop
endfacet
facet normal 0.996747 -0.0805925 1.09088e-16
  outer loop
    vertex 0.01162194988814944 0.04479534708042265 0.01230093721194471
    vertex 0.01172824560399696 0.046109985226061 0.005967820517479063
    vertex 0.0122287278621647 0.05229982140672455 0.009999999999999972
  endloop
endfacet
facet normal 0.996747 -0.0805925 6.64286e-17
  outer loop
    vertex 0.008 0 0.01000000000000003
    vertex 0.008500219170020614 0.006186582373949683 0.005977790291415605
    vertex 0.008605158210723746 0.007484441509429104 0.01232429530104096
  endloop
endfacet
endsolid Created by Gmsh
