solid Created by Gmsh
facet normal -0.896143 -0.443765 -0
  outer loop
    vertex 0.03281573966637449 0.0534755824749723 0.02
    vertex 0.03281573966637449 0.0534755824749723 0.009999999999999972
    vertex 0.03447079138548294 0.05013335857028653 0.015
  endloop
endfacet
facet normal -0.896143 -0.443765 0
  outer loop
    vertex 0.0361258431045914 0.04679113466560076 0
    vertex 0.0361258431045914 0.04679113466560076 0.01000000000000003
    vertex 0.03447079138548294 0.05013335857028653 0.005000000000000001
  endloop
endfacet
facet normal -0.896143 -0.443765 -0
  outer loop
    vertex 0.03281573966637449 0.0534755824749723 0.009999999999999972
    vertex 0.03281573966637449 0.0534755824749723 0
    vertex 0.03447079138548294 0.05013335857028653 0.005000000000000001
  endloop
endfacet
facet normal -0.896143 -0.443765 0
  outer loop
    vertex 0.0361258431045914 0.04679113466560076 0.01000000000000003
    vertex 0.0361258431045914 0.04679113466560076 0.02
    vertex 0.03447079138548294 0.05013335857028653 0.015
  endloop
endfacet
facet normal -0.896143 -0.443765 -5.90494e-16
  outer loop
    vertex 0.0361258431045914 0.04679113466560076 0.02
    vertex 0.03281573966637449 0.0534755824749723 0.02
    vertex 0.03447079138548294 0.05013335857028653 0.015
  endloop
endfacet
facet normal -0.896143 -0.443765 -5.90494e-16
  outer loop
    vertex 0.0361258431045914 0.04679113466560076 0.01000000000000003
    vertex 0.03281573966637449 0.0534755824749723 0.009999999999999972
    vertex 0.03447079138548294 0.05013335857028653 0.005000000000000001
  endloop
endfacet
facet normal -0.896143 -0.443765 6.35917e-16
  outer loop
    vertex 0.03281573966637449 0.0534755824749723 0.009999999999999972
    vertex 0.0361258431045914 0.04679113466560076 0.01000000000000003
    vertex 0.03447079138548294 0.05013335857028653 0.015
  endloop
endfacet
facet normal -0.896143 -0.443765 6.35917e-16
  outer loop
    vertex 0.03281573966637449 0.0534755824749723 0
    vertex 0.0361258431045914 0.04679113466560076 0
    vertex 0.03447079138548294 0.05013335857028653 0.005000000000000001
  endloop
endfacet
facet normal -0.998956 -0.0456817 6.96216e-16
  outer loop
    vertex 0.03643151905452418 0.04010668685622922 0.01000000000000003
    vertex 0.0361258431045914 0.04679113466560076 0.009999999999999972
    vertex 0.03627868107955778 0.04344891076091499 0.004999999999999999
  endloop
endfacet
facet normal -0.998956 -0.0456817 -6.89887e-16
  outer loop
    vertex 0.0361258431045914 0.04679113466560076 0.009999999999999972
    vertex 0.03643151905452418 0.04010668685622922 0.01000000000000003
    vertex 0.03627868107955778 0.04344891076091499 0.015
  endloop
endfacet
facet normal -0.998956 -0.0456817 -6.89887e-16
  outer loop
    vertex 0.0361258431045914 0.04679113466560076 0
    vertex 0.03643151905452418 0.04010668685622922 0
    vertex 0.03627868107955778 0.04344891076091499 0.004999999999999999
  endloop
endfacet
facet normal -0.998956 -0.0456817 6.96216e-16
  outer loop
    vertex 0.03643151905452418 0.04010668685622922 0.02
    vertex 0.0361258431045914 0.04679113466560076 0.02
    vertex 0.03627868107955778 0.04344891076091499 0.015
  endloop
endfacet
facet normal -0.998956 -0.0456817 -0
  outer loop
    vertex 0.0361258431045914 0.04679113466560076 0.009999999999999972
    vertex 0.0361258431045914 0.04679113466560076 0
    vertex 0.03627868107955778 0.04344891076091499 0.004999999999999999
  endloop
endfacet
facet normal -0.998956 -0.0456817 -0
  outer loop
    vertex 0.0361258431045914 0.04679113466560076 0.02
    vertex 0.0361258431045914 0.04679113466560076 0.009999999999999972
    vertex 0.03627868107955778 0.04344891076091499 0.015
  endloop
endfacet
facet normal -0.998956 -0.0456817 0
  outer loop
    vertex 0.03643151905452418 0.04010668685622922 0
    vertex 0.03643151905452418 0.04010668685622922 0.01000000000000003
    vertex 0.03627868107955778 0.04344891076091499 0.004999999999999999
  endloop
endfacet
facet normal -0.998956 -0.0456817 0
  outer loop
    vertex 0.03643151905452418 0.04010668685622922 0.01000000000000003
    vertex 0.03643151905452418 0.04010668685622922 0.02
    vertex 0.03627868107955778 0.04344891076091499 0.015
  endloop
endfacet
facet normal -0.598028 0.801475 3.86246e-16
  outer loop
    vertex 0.03643151905452418 0.04010668685622922 0
    vertex 0.02747303469813279 0.03342223904685769 0
    vertex 0.03195227687632848 0.03676446295154345 0.005493512265210899
  endloop
endfacet
facet normal -0.598028 0.801475 -3.8435e-16
  outer loop
    vertex 0.02747303469813279 0.03342223904685769 0.02
    vertex 0.03643151905452418 0.04010668685622922 0.02
    vertex 0.0319522768763285 0.03676446295154347 0.01447938359017075
  endloop
endfacet
facet normal -0.598028 0.801475 0
  outer loop
    vertex 0.03643151905452418 0.04010668685622922 0.02
    vertex 0.03643151905452418 0.04010668685622922 0.009999999999999972
    vertex 0.0319522768763285 0.03676446295154347 0.01447938359017075
  endloop
endfacet
facet normal -0.598028 0.801475 0
  outer loop
    vertex 0.02747303469813279 0.03342223904685769 0
    vertex 0.02747303469813279 0.03342223904685769 0.01000000000000003
    vertex 0.03195227687632848 0.03676446295154345 0.005493512265210899
  endloop
endfacet
facet normal -0.598028 0.801475 0
  outer loop
    vertex 0.03643151905452418 0.04010668685622922 0.009999999999999972
    vertex 0.03643151905452418 0.04010668685622922 0
    vertex 0.03195227687632848 0.03676446295154345 0.005493512265210899
  endloop
endfacet
facet normal -0.598028 0.801475 0
  outer loop
    vertex 0.02747303469813279 0.03342223904685769 0.01000000000000003
    vertex 0.02747303469813279 0.03342223904685769 0.02
    vertex 0.0319522768763285 0.03676446295154347 0.01447938359017075
  endloop
endfacet
facet normal -0.598028 0.801475 -9.51041e-18
  outer loop
    vertex 0.0319522768763285 0.03676446295154347 0.01447938359017075
    vertex 0.03643151905452418 0.04010668685622922 0.009999999999999972
    vertex 0.03195227687632848 0.03676446295154345 0.005493512265210899
  endloop
endfacet
facet normal -0.598028 0.801475 -3.37331e-17
  outer loop
    vertex 0.02747303469813279 0.03342223904685769 0.01000000000000003
    vertex 0.0319522768763285 0.03676446295154347 0.01447938359017075
    vertex 0.03195227687632848 0.03676446295154345 0.005493512265210899
  endloop
endfacet
facet normal -0.572632 -0.819812 -7.093e-16
  outer loop
    vertex 0.02747303469813279 0.03342223904685769 0
    vertex 0.03704286398443518 0.02673779123748615 0
    vertex 0.03225794934128399 0.03008001514217191 0.005728862973760926
  endloop
endfacet
facet normal -0.572632 -0.819812 7.81022e-16
  outer loop
    vertex 0.03704286398443518 0.02673779123748615 0.02
    vertex 0.02747303469813279 0.03342223904685769 0.02
    vertex 0.03225794934128399 0.03008001514217191 0.01405396560956745
  endloop
endfacet
facet normal -0.572632 -0.819812 0
  outer loop
    vertex 0.02747303469813279 0.03342223904685769 0.009999999999999972
    vertex 0.03225794934128399 0.03008001514217191 0.005728862973760926
    vertex 0.03225794934128399 0.03008001514217191 0.01405396560956745
  endloop
endfacet
facet normal -0.572632 -0.819812 0
  outer loop
    vertex 0.03225794934128399 0.03008001514217191 0.005728862973760926
    vertex 0.03704286398443518 0.02673779123748615 0.01000000000000003
    vertex 0.03225794934128399 0.03008001514217191 0.01405396560956745
  endloop
endfacet
facet normal -0.572632 -0.819812 -0
  outer loop
    vertex 0.02747303469813279 0.03342223904685769 0.02
    vertex 0.02747303469813279 0.03342223904685769 0.009999999999999972
    vertex 0.03225794934128399 0.03008001514217191 0.01405396560956745
  endloop
endfacet
facet normal -0.572632 -0.819812 0
  outer loop
    vertex 0.03704286398443518 0.02673779123748615 0
    vertex 0.03704286398443518 0.02673779123748615 0.01000000000000003
    vertex 0.03225794934128399 0.03008001514217191 0.005728862973760926
  endloop
endfacet
facet normal -0.572632 -0.819812 -0
  outer loop
    vertex 0.02747303469813279 0.03342223904685769 0.009999999999999972
    vertex 0.02747303469813279 0.03342223904685769 0
    vertex 0.03225794934128399 0.03008001514217191 0.005728862973760926
  endloop
endfacet
facet normal -0.572632 -0.819812 0
  outer loop
    vertex 0.03704286398443518 0.02673779123748615 0.01000000000000003
    vertex 0.03704286398443518 0.02673779123748615 0.02
    vertex 0.03225794934128399 0.03008001514217191 0.01405396560956745
  endloop
endfacet
facet normal -0.504683 0.863305 0
  outer loop
    vertex 0.02560852896757956 0.02005334342811461 0.01000000000000003
    vertex 0.03132569647600737 0.02339556733280038 0.02
    vertex 0.03704286398443518 0.02673779123748615 0.009999999999999972
  endloop
endfacet
facet normal -0.504683 0.863305 -2.55808e-17
  outer loop
    vertex 0.03132569647600737 0.02339556733280038 0
    vertex 0.02560852896757956 0.02005334342811461 0.01000000000000003
    vertex 0.03704286398443518 0.02673779123748615 0.009999999999999972
  endloop
endfacet
facet normal -0.504683 0.863305 0
  outer loop
    vertex 0.03132569647600737 0.02339556733280038 0
    vertex 0.03704286398443518 0.02673779123748615 0.009999999999999972
    vertex 0.03704286398443518 0.02673779123748615 0
  endloop
endfacet
facet normal -0.504683 0.863305 0
  outer loop
    vertex 0.03704286398443518 0.02673779123748615 0.009999999999999972
    vertex 0.03132569647600737 0.02339556733280038 0.02
    vertex 0.03704286398443518 0.02673779123748615 0.02
  endloop
endfacet
facet normal -0.504683 0.863305 0
  outer loop
    vertex 0.02560852896757956 0.02005334342811461 0.01000000000000003
    vertex 0.03132569647600737 0.02339556733280038 0
    vertex 0.02560852896757956 0.02005334342811461 0
  endloop
endfacet
facet normal -0.504683 0.863305 0
  outer loop
    vertex 0.03132569647600737 0.02339556733280038 0.02
    vertex 0.02560852896757956 0.02005334342811461 0.01000000000000003
    vertex 0.02560852896757956 0.02005334342811461 0.02
  endloop
endfacet
facet normal -0.780541 -0.625105 -0
  outer loop
    vertex 0.02560852896757956 0.02005334342811461 0.02
    vertex 0.02560852896757956 0.02005334342811461 0.009999999999999972
    vertex 0.02828518710188774 0.01671111952342884 0.015
  endloop
endfacet
facet normal -0.780541 -0.625105 0
  outer loop
    vertex 0.03096184523619593 0.01336889561874308 0
    vertex 0.03096184523619593 0.01336889561874308 0.01000000000000003
    vertex 0.02828518710188774 0.01671111952342884 0.005000000000000001
  endloop
endfacet
facet normal -0.780541 -0.625105 -0
  outer loop
    vertex 0.02560852896757956 0.02005334342811461 0.009999999999999972
    vertex 0.02560852896757956 0.02005334342811461 0
    vertex 0.02828518710188774 0.01671111952342884 0.005000000000000001
  endloop
endfacet
facet normal -0.780541 -0.625105 0
  outer loop
    vertex 0.03096184523619593 0.01336889561874308 0.01000000000000003
    vertex 0.03096184523619593 0.01336889561874308 0.02
    vertex 0.02828518710188774 0.01671111952342884 0.015
  endloop
endfacet
facet normal -0.780541 -0.625105 -3.95631e-16
  outer loop
    vertex 0.02560852896757956 0.02005334342811461 0.009999999999999972
    vertex 0.03096184523619593 0.01336889561874308 0.01000000000000003
    vertex 0.02828518710188774 0.01671111952342884 0.015
  endloop
endfacet
facet normal -0.780541 -0.625105 4.74757e-16
  outer loop
    vertex 0.03096184523619593 0.01336889561874308 0.01000000000000003
    vertex 0.02560852896757956 0.02005334342811461 0.009999999999999972
    vertex 0.02828518710188774 0.01671111952342884 0.005000000000000001
  endloop
endfacet
facet normal -0.780541 -0.625105 -3.95631e-16
  outer loop
    vertex 0.02560852896757956 0.02005334342811461 0
    vertex 0.03096184523619593 0.01336889561874308 0
    vertex 0.02828518710188774 0.01671111952342884 0.005000000000000001
  endloop
endfacet
facet normal -0.780541 -0.625105 4.74757e-16
  outer loop
    vertex 0.03096184523619593 0.01336889561874308 0.02
    vertex 0.02560852896757956 0.02005334342811461 0.02
    vertex 0.02828518710188774 0.01671111952342884 0.015
  endloop
endfacet
facet normal -0.662886 -0.748721 -2.68796e-16
  outer loop
    vertex 0.03096184523619593 0.01336889561874308 0
    vertex 0.03851184355117109 0.006684447809371538 0
    vertex 0.03473684439368351 0.01002667171405731 0.004999999999999986
  endloop
endfacet
facet normal -0.662886 -0.748721 2.01597e-16
  outer loop
    vertex 0.03851184355117109 0.006684447809371538 0.02
    vertex 0.03096184523619593 0.01336889561874308 0.02
    vertex 0.03473684439368349 0.01002667171405732 0.01499999999999999
  endloop
endfacet
facet normal -0.662886 -0.748721 0
  outer loop
    vertex 0.03851184355117109 0.006684447809371538 0
    vertex 0.03851184355117109 0.006684447809371538 0.01000000000000003
    vertex 0.03473684439368351 0.01002667171405731 0.004999999999999986
  endloop
endfacet
facet normal -0.662886 -0.748721 -0
  outer loop
    vertex 0.03096184523619593 0.01336889561874308 0.02
    vertex 0.03096184523619593 0.01336889561874308 0.009999999999999972
    vertex 0.03473684439368349 0.01002667171405732 0.01499999999999999
  endloop
endfacet
facet normal -0.662886 -0.748721 3.35995e-17
  outer loop
    vertex 0.03096184523619593 0.01336889561874308 0.009999999999999972
    vertex 0.03473684439368351 0.01002667171405731 0.004999999999999986
    vertex 0.03473684439368349 0.01002667171405732 0.01499999999999999
  endloop
endfacet
facet normal -0.662886 -0.748721 4.87981e-17
  outer loop
    vertex 0.03473684439368351 0.01002667171405731 0.004999999999999986
    vertex 0.03851184355117109 0.006684447809371538 0.01000000000000003
    vertex 0.03473684439368349 0.01002667171405732 0.01499999999999999
  endloop
endfacet
facet normal -0.662886 -0.748721 -0
  outer loop
    vertex 0.03096184523619593 0.01336889561874308 0.009999999999999972
    vertex 0.03096184523619593 0.01336889561874308 0
    vertex 0.03473684439368351 0.01002667171405731 0.004999999999999986
  endloop
endfacet
facet normal -0.662886 -0.748721 0
  outer loop
    vertex 0.03851184355117109 0.006684447809371538 0.01000000000000003
    vertex 0.03851184355117109 0.006684447809371538 0.02
    vertex 0.03473684439368349 0.01002667171405732 0.01499999999999999
  endloop
endfacet
endsolid Created by Gmsh
