solid Created by Gmsh
facet normal 0.994918 -0.100684 3.388e-16
  outer loop
    vertex 0.01013592655838659 0.02110641570684247 0
    vertex 0.009522072824831741 0.01504054605756363 0.01060652101892285
    vertex 0.009067963279193292 0.01055320785342123 0
  endloop
endfacet
facet normal 0.994918 -0.100684 -3.51183e-16
  outer loop
    vertex 0.01120388983757987 0.03165962356026363 0.02
    vertex 0.01181887646944359 0.03773668808071771 0.009540107198351043
    vertex 0.01227185311677316 0.04221283141368486 0.02
  endloop
endfacet
facet normal 0.994918 -0.100684 2.88623e-16
  outer loop
    vertex 0.01013592655838659 0.02110641570684247 0
    vertex 0.01067009701436804 0.02638488544541559 0.01002443803621232
    vertex 0.009522072824831741 0.01504054605756363 0.01060652101892285
  endloop
endfacet
facet normal 0.994918 -0.100684 2.46948e-16
  outer loop
    vertex 0.01120388983757988 0.03165962356026371 0
    vertex 0.01067009701436804 0.02638488544541559 0.01002443803621232
    vertex 0.01013592655838659 0.02110641570684247 0
  endloop
endfacet
facet normal 0.994918 -0.100684 -2.80193e-16
  outer loop
    vertex 0.01120388983757987 0.03165962356026363 0.02
    vertex 0.01067009701436804 0.02638488544541559 0.01002443803621232
    vertex 0.01181887646944359 0.03773668808071771 0.009540107198351043
  endloop
endfacet
facet normal 0.994918 -0.100684 3.1818e-16
  outer loop
    vertex 0.01181887646944359 0.03773668808071771 0.009540107198351043
    vertex 0.01067009701436804 0.02638488544541559 0.01002443803621232
    vertex 0.01120388983757988 0.03165962356026371 0
  endloop
endfacet
facet normal 0.994918 -0.100684 -2.24142e-16
  outer loop
    vertex 0.01013592655838658 0.02110641570684239 0.02
    vertex 0.01067009701436804 0.02638488544541559 0.01002443803621232
    vertex 0.01120388983757987 0.03165962356026363 0.02
  endloop
endfacet
facet normal 0.994918 -0.100684 -2.75568e-16
  outer loop
    vertex 0.009522072824831741 0.01504054605756363 0.01060652101892285
    vertex 0.01067009701436804 0.02638488544541559 0.01002443803621232
    vertex 0.01013592655838658 0.02110641570684239 0.02
  endloop
endfacet
facet normal 0.994918 -0.100684 0
  outer loop
    vertex 0.008 0 0
    vertex 0.008764489645379779 0.00755439656649555 0.007731545237600071
    vertex 0.008 0 0.01000000000000003
  endloop
endfacet
facet normal 0.994918 -0.100684 0
  outer loop
    vertex 0.01333981639596645 0.05276603926710609 0.02
    vertex 0.0125753857311317 0.04521222552397452 0.01227608846800561
    vertex 0.01333981639596645 0.05276603926710609 0.009999999999999972
  endloop
endfacet
facet normal 0.994918 -0.100684 -3.23043e-16
  outer loop
    vertex 0.009067963279193288 0.0105532078534212 0.02
    vertex 0.009522072824831741 0.01504054605756363 0.01060652101892285
    vertex 0.01013592655838658 0.02110641570684239 0.02
  endloop
endfacet
facet normal 0.994918 -0.100684 4.35265e-16
  outer loop
    vertex 0.01227185311677317 0.04221283141368489 0
    vertex 0.01181887646944359 0.03773668808071771 0.009540107198351043
    vertex 0.01120388983757988 0.03165962356026371 0
  endloop
endfacet
facet normal 0.994918 -0.100684 4.07976e-16
  outer loop
    vertex 0.009067963279193292 0.01055320785342123 0
    vertex 0.008764489645379779 0.00755439656649555 0.007731545237600071
    vertex 0.008 0 0
  endloop
endfacet
facet normal 0.994918 -0.100684 -4.13548e-16
  outer loop
    vertex 0.01227185311677316 0.04221283141368486 0.02
    vertex 0.0125753857311317 0.04521222552397452 0.01227608846800561
    vertex 0.01333981639596645 0.05276603926710609 0.02
  endloop
endfacet
facet normal 0.994918 -0.100684 3.61164e-16
  outer loop
    vertex 0.009522072824831741 0.01504054605756363 0.01060652101892285
    vertex 0.008764489645379779 0.00755439656649555 0.007731545237600071
    vertex 0.009067963279193292 0.01055320785342123 0
  endloop
endfacet
facet normal 0.994918 -0.100684 -4.02537e-16
  outer loop
    vertex 0.01181887646944359 0.03773668808071771 0.009540107198351043
    vertex 0.0125753857311317 0.04521222552397452 0.01227608846800561
    vertex 0.01227185311677316 0.04221283141368486 0.02
  endloop
endfacet
facet normal 0.994918 -0.100684 5.15262e-16
  outer loop
    vertex 0.01227185311677317 0.04221283141368489 0
    vertex 0.01270820251743157 0.04652467060476861 0.005973742238050942
    vertex 0.01181887646944359 0.03773668808071771 0.009540107198351043
  endloop
endfacet
facet normal 0.994918 -0.100684 -3.3184e-16
  outer loop
    vertex 0.009067963279193288 0.0105532078534212 0.02
    vertex 0.008603840573415171 0.005966923400580741 0.01432021084250235
    vertex 0.009522072824831741 0.01504054605756363 0.01060652101892285
  endloop
endfacet
facet normal 0.994918 -0.100684 3.12772e-17
  outer loop
    vertex 0.009522072824831741 0.01504054605756363 0.01060652101892285
    vertex 0.008603840573415171 0.005966923400580741 0.01432021084250235
    vertex 0.008764489645379779 0.00755439656649555 0.007731545237600071
  endloop
endfacet
facet normal 0.994918 -0.100684 8.31024e-17
  outer loop
    vertex 0.01181887646944359 0.03773668808071771 0.009540107198351043
    vertex 0.01270820251743157 0.04652467060476861 0.005973742238050942
    vertex 0.0125753857311317 0.04521222552397452 0.01227608846800561
  endloop
endfacet
facet normal 0.994918 -0.100684 4.94605e-16
  outer loop
    vertex 0.01333981639596645 0.05276603926710609 0
    vertex 0.01270820251743157 0.04652467060476861 0.005973742238050942
    vertex 0.01227185311677317 0.04221283141368489 0
  endloop
endfacet
facet normal 0.994918 -0.100684 -5.06143e-16
  outer loop
    vertex 0.008 0 0.02
    vertex 0.008603840573415171 0.005966923400580741 0.01432021084250235
    vertex 0.009067963279193288 0.0105532078534212 0.02
  endloop
endfacet
facet normal 0.994918 -0.100684 0
  outer loop
    vertex 0.01333981639596645 0.05276603926710609 0.009999999999999972
    vertex 0.01270820251743157 0.04652467060476861 0.005973742238050942
    vertex 0.01333981639596645 0.05276603926710609 0
  endloop
endfacet
facet normal 0.994918 -0.100684 0
  outer loop
    vertex 0.008 0 0.01000000000000003
    vertex 0.008603840573415171 0.005966923400580741 0.01432021084250235
    vertex 0.008 0 0.02
  endloop
endfacet
facet normal 0.994918 -0.100684 1.41653e-17
  outer loop
    vertex 0.0125753857311317 0.04521222552397452 0.01227608846800561
    vertex 0.01270820251743157 0.04652467060476861 0.005973742238050942
    vertex 0.01333981639596645 0.05276603926710609 0.009999999999999972
  endloop
endfacet
facet normal 0.994918 -0.100684 1.46015e-16
  outer loop
    vertex 0.008764489645379779 0.00755439656649555 0.007731545237600071
    vertex 0.008603840573415171 0.005966923400580741 0.01432021084250235
    vertex 0.008 0 0.01000000000000003
  endloop
endfacet
endsolid Created by Gmsh
