solid Created by Gmsh
facet normal 0.996278 0.0862004 5.35636e-17
  outer loop
    vertex 0.006176231754158503 0.02107856200509373 0
    vertex 0.006701320868880005 0.01500974076747532 0.01046400602569003
    vertex 0.007088115877079252 0.01053928100254686 0
  endloop
endfacet
facet normal 0.996278 0.0862004 -6.03477e-17
  outer loop
    vertex 0.005264347631237755 0.03161784300764059 0.02
    vertex 0.004740286839802726 0.03767477919560719 0.009385510557550889
    vertex 0.004352463508317007 0.04215712401018745 0.02
  endloop
endfacet
facet normal 0.996278 0.0862004 -3.97795e-17
  outer loop
    vertex 0.005264347631237755 0.03161784300764059 0.02
    vertex 0.005720461079912541 0.02634622166475853 0.009974919430540154
    vertex 0.004740286839802726 0.03767477919560719 0.009385510557550889
  endloop
endfacet
facet normal 0.996278 0.0862004 -5.59088e-17
  outer loop
    vertex 0.006176231754158505 0.02107856200509371 0.02
    vertex 0.005720461079912541 0.02634622166475853 0.009974919430540154
    vertex 0.005264347631237755 0.03161784300764059 0.02
  endloop
endfacet
facet normal 0.996278 0.0862004 1.45928e-17
  outer loop
    vertex 0.006176231754158503 0.02107856200509373 0
    vertex 0.005720461079912541 0.02634622166475853 0.009974919430540154
    vertex 0.006701320868880005 0.01500974076747532 0.01046400602569003
  endloop
endfacet
facet normal 0.996278 0.0862004 -6.83779e-17
  outer loop
    vertex 0.006701320868880005 0.01500974076747532 0.01046400602569003
    vertex 0.005720461079912541 0.02634622166475853 0.009974919430540154
    vertex 0.006176231754158505 0.02107856200509371 0.02
  endloop
endfacet
facet normal 0.996278 0.0862004 4.01357e-17
  outer loop
    vertex 0.005264347631237754 0.0316178430076406 0
    vertex 0.005720461079912541 0.02634622166475853 0.009974919430540154
    vertex 0.006176231754158503 0.02107856200509373 0
  endloop
endfacet
facet normal 0.996278 0.0862004 7.67902e-17
  outer loop
    vertex 0.004740286839802726 0.03767477919560719 0.009385510557550889
    vertex 0.005720461079912541 0.02634622166475853 0.009974919430540154
    vertex 0.005264347631237754 0.0316178430076406 0
  endloop
endfacet
facet normal 0.996278 0.0862004 0
  outer loop
    vertex 0.003440579385396258 0.05269640501273432 0.02
    vertex 0.004093706939031518 0.04514775420804622 0.01227528218187832
    vertex 0.003440579385396258 0.05269640501273432 0.009999999999999972
  endloop
endfacet
facet normal 0.996278 0.0862004 -0
  outer loop
    vertex 0.008 0 0
    vertex 0.007346925982562494 0.00754803204950006 0.007716883404504484
    vertex 0.008 0 0.01000000000000003
  endloop
endfacet
facet normal 0.996278 0.0862004 2.55937e-17
  outer loop
    vertex 0.004352463508317006 0.04215712401018745 0
    vertex 0.004740286839802726 0.03767477919560719 0.009385510557550889
    vertex 0.005264347631237754 0.0316178430076406 0
  endloop
endfacet
facet normal 0.996278 0.0862004 -7.55695e-17
  outer loop
    vertex 0.007088115877079252 0.01053928100254686 0.02
    vertex 0.006701320868880005 0.01500974076747532 0.01046400602569003
    vertex 0.006176231754158505 0.02107856200509371 0.02
  endloop
endfacet
facet normal 0.996278 0.0862004 -3.6279e-17
  outer loop
    vertex 0.004352463508317007 0.04215712401018745 0.02
    vertex 0.004093706939031518 0.04514775420804622 0.01227528218187832
    vertex 0.003440579385396258 0.05269640501273432 0.02
  endloop
endfacet
facet normal 0.996278 0.0862004 1.14135e-16
  outer loop
    vertex 0.007088115877079252 0.01053928100254686 0
    vertex 0.007346925982562494 0.00754803204950006 0.007716883404504484
    vertex 0.008 0 0
  endloop
endfacet
facet normal 0.996278 0.0862004 9.61892e-17
  outer loop
    vertex 0.006701320868880005 0.01500974076747532 0.01046400602569003
    vertex 0.007346925982562494 0.00754803204950006 0.007716883404504484
    vertex 0.007088115877079252 0.01053928100254686 0
  endloop
endfacet
facet normal 0.996278 0.0862004 -5.086e-17
  outer loop
    vertex 0.004740286839802726 0.03767477919560719 0.009385510557550889
    vertex 0.004093706939031518 0.04514775420804622 0.01227528218187832
    vertex 0.004352463508317007 0.04215712401018745 0.02
  endloop
endfacet
facet normal 0.996278 0.0862004 -9.96248e-17
  outer loop
    vertex 0.007088115877079252 0.01053928100254686 0.02
    vertex 0.007460639800800143 0.006233762117438441 0.01402584134717065
    vertex 0.006701320868880005 0.01500974076747532 0.01046400602569003
  endloop
endfacet
facet normal 0.996278 0.0862004 -4.71831e-17
  outer loop
    vertex 0.004352463508317006 0.04215712401018745 0
    vertex 0.003980094135951004 0.04646085663746161 0.005951541819918452
    vertex 0.004740286839802726 0.03767477919560719 0.009385510557550889
  endloop
endfacet
facet normal 0.996278 0.0862004 -3.32983e-17
  outer loop
    vertex 0.006701320868880005 0.01500974076747532 0.01046400602569003
    vertex 0.007460639800800143 0.006233762117438441 0.01402584134717065
    vertex 0.007346925982562494 0.00754803204950006 0.007716883404504484
  endloop
endfacet
facet normal 0.996278 0.0862004 -1.65299e-17
  outer loop
    vertex 0.004740286839802726 0.03767477919560719 0.009385510557550889
    vertex 0.003980094135951004 0.04646085663746161 0.005951541819918452
    vertex 0.004093706939031518 0.04514775420804622 0.01227528218187832
  endloop
endfacet
facet normal 0.996278 0.0862004 -4.0361e-17
  outer loop
    vertex 0.003440579385396258 0.05269640501273432 0
    vertex 0.003980094135951004 0.04646085663746161 0.005951541819918452
    vertex 0.004352463508317006 0.04215712401018745 0
  endloop
endfacet
facet normal 0.996278 0.0862004 -1.20625e-16
  outer loop
    vertex 0.008 0 0.02
    vertex 0.007460639800800143 0.006233762117438441 0.01402584134717065
    vertex 0.007088115877079252 0.01053928100254686 0.02
  endloop
endfacet
facet normal 0.996278 0.0862004 0
  outer loop
    vertex 0.003440579385396258 0.05269640501273432 0.009999999999999972
    vertex 0.003980094135951004 0.04646085663746161 0.005951541819918452
    vertex 0.003440579385396258 0.05269640501273432 0
  endloop
endfacet
facet normal 0.996278 0.0862004 -0
  outer loop
    vertex 0.008 0 0.01000000000000003
    vertex 0.007460639800800143 0.006233762117438441 0.01402584134717065
    vertex 0.008 0 0.02
  endloop
endfacet
facet normal 0.996278 0.0862004 -1.18205e-17
  outer loop
    vertex 0.007346925982562494 0.00754803204950006 0.007716883404504484
    vertex 0.007460639800800143 0.006233762117438441 0.01402584134717065
    vertex 0.008 0 0.01000000000000003
  endloop
endfacet
facet normal 0.996278 0.0862004 -1.17866e-17
  outer loop
    vertex 0.004093706939031518 0.04514775420804622 0.01227528218187832
    vertex 0.003980094135951004 0.04646085663746161 0.005951541819918452
    vertex 0.003440579385396258 0.05269640501273432 0.009999999999999972
  endloop
endfacet
endsolid Created by Gmsh
