solid Created by Gmsh
facet normal 1 0 0
  outer loop
    vertex 0.04 0.059 0
    vertex 0.04 0.06 0
    vertex 0.04 0.06 0.009999999999999972
  endloop
endfacet
facet normal 1 0 0
  outer loop
    vertex 0.04 0.059 0.01000000000000003
    vertex 0.04 0.06 0.02
    vertex 0.04 0.059 0.02
  endloop
endfacet
facet normal 1 0 -0
  outer loop
    vertex 0.04 0.06 0.009999999999999972
    vertex 0.04 0.06 0.02
    vertex 0.04 0.059 0.01000000000000003
  endloop
endfacet
facet normal 1 0 0
  outer loop
    vertex 0.04 0.059 0
    vertex 0.04 0.06 0.009999999999999972
    vertex 0.04 0.059 0.01000000000000003
  endloop
endfacet
facet normal 0.410676 -0.911781 -1.9495e-16
  outer loop
    vertex 0.04 0.059 0
    vertex 0.03312195214088736 0.05590205376938449 0.007742197754527455
    vertex 0.0318130272146658 0.0553125 0
  endloop
endfacet
facet normal 0.410676 -0.911781 0
  outer loop
    vertex 0.04 0.059 0.009999999999999972
    vertex 0.03312195214088736 0.05590205376938449 0.007742197754527455
    vertex 0.04 0.059 0
  endloop
endfacet
facet normal 0.410676 -0.911781 0
  outer loop
    vertex 0.02362605442933158 0.051625 0.01000000000000003
    vertex 0.02928143984285354 0.05417224600400768 0.01346186337080429
    vertex 0.02362605442933158 0.051625 0.02
  endloop
endfacet
facet normal 0.410676 -0.911781 5.7713e-17
  outer loop
    vertex 0.02362605442933158 0.051625 0.02
    vertex 0.02928143984285354 0.05417224600400768 0.01346186337080429
    vertex 0.03181302721466578 0.05531249999999999 0.02
  endloop
endfacet
facet normal 0.410676 -0.911781 0
  outer loop
    vertex 0.02362605442933158 0.051625 0
    vertex 0.02786900062765656 0.05353606829307539 0.005202164705278291
    vertex 0.02362605442933158 0.051625 0.01000000000000003
  endloop
endfacet
facet normal 0.410676 -0.911781 0
  outer loop
    vertex 0.04 0.059 0.02
    vertex 0.03484328383968133 0.05667735995467843 0.01424081222506634
    vertex 0.04 0.059 0.009999999999999972
  endloop
endfacet
facet normal 0.410676 -0.911781 -6.89076e-16
  outer loop
    vertex 0.0318130272146658 0.0553125 0
    vertex 0.02786900062765656 0.05353606829307539 0.005202164705278291
    vertex 0.02362605442933158 0.051625 0
  endloop
endfacet
facet normal 0.410676 -0.911781 1.96557e-16
  outer loop
    vertex 0.03181302721466578 0.05531249999999999 0.02
    vertex 0.03484328383968133 0.05667735995467843 0.01424081222506634
    vertex 0.04 0.059 0.02
  endloop
endfacet
facet normal 0.410676 -0.911781 5.43331e-16
  outer loop
    vertex 0.02928143984285354 0.05417224600400768 0.01346186337080429
    vertex 0.02786900062765656 0.05353606829307539 0.005202164705278291
    vertex 0.03312195214088736 0.05590205376938449 0.007742197754527455
  endloop
endfacet
facet normal 0.410676 -0.911781 5.90929e-16
  outer loop
    vertex 0.02362605442933158 0.051625 0.01000000000000003
    vertex 0.02786900062765656 0.05353606829307539 0.005202164705278291
    vertex 0.02928143984285354 0.05417224600400768 0.01346186337080429
  endloop
endfacet
facet normal 0.410676 -0.911781 3.55049e-16
  outer loop
    vertex 0.03484328383968133 0.05667735995467843 0.01424081222506634
    vertex 0.02928143984285354 0.05417224600400768 0.01346186337080429
    vertex 0.03312195214088736 0.05590205376938449 0.007742197754527455
  endloop
endfacet
facet normal 0.410676 -0.911781 2.64934e-16
  outer loop
    vertex 0.03484328383968133 0.05667735995467843 0.01424081222506634
    vertex 0.03312195214088736 0.05590205376938449 0.007742197754527455
    vertex 0.04 0.059 0.009999999999999972
  endloop
endfacet
facet normal 0.410676 -0.911781 -2.99868e-16
  outer loop
    vertex 0.03312195214088736 0.05590205376938449 0.007742197754527455
    vertex 0.02786900062765656 0.05353606829307539 0.005202164705278291
    vertex 0.0318130272146658 0.0553125 0
  endloop
endfacet
facet normal 0.410676 -0.911781 2.13332e-16
  outer loop
    vertex 0.03181302721466578 0.05531249999999999 0.02
    vertex 0.02928143984285354 0.05417224600400768 0.01346186337080429
    vertex 0.03484328383968133 0.05667735995467843 0.01424081222506634
  endloop
endfacet
facet normal 0.942395 -0.334501 0
  outer loop
    vertex 0.02362605442933158 0.051625 0.02
    vertex 0.02231718359227685 0.0479375 0.015
    vertex 0.02362605442933158 0.051625 0.009999999999999972
  endloop
endfacet
facet normal 0.942395 -0.334501 0
  outer loop
    vertex 0.02100831275522211 0.04425 0
    vertex 0.02231718359227685 0.0479375 0.005
    vertex 0.02100831275522211 0.04425 0.01000000000000003
  endloop
endfacet
facet normal 0.942395 -0.334501 0
  outer loop
    vertex 0.02362605442933158 0.051625 0.009999999999999972
    vertex 0.02231718359227685 0.0479375 0.005
    vertex 0.02362605442933158 0.051625 0
  endloop
endfacet
facet normal 0.942395 -0.334501 0
  outer loop
    vertex 0.02100831275522211 0.04425 0.01000000000000003
    vertex 0.02231718359227685 0.0479375 0.015
    vertex 0.02100831275522211 0.04425 0.02
  endloop
endfacet
facet normal 0.942395 -0.334501 -8.65887e-17
  outer loop
    vertex 0.02362605442933158 0.051625 0
    vertex 0.02231718359227685 0.0479375 0.005
    vertex 0.02100831275522211 0.04425 0
  endloop
endfacet
facet normal 0.942395 -0.334501 -8.65887e-17
  outer loop
    vertex 0.02362605442933158 0.051625 0.009999999999999972
    vertex 0.02231718359227685 0.0479375 0.015
    vertex 0.02100831275522211 0.04425 0.01000000000000003
  endloop
endfacet
facet normal 0.942395 -0.334501 8.65887e-17
  outer loop
    vertex 0.02100831275522211 0.04425 0.01000000000000003
    vertex 0.02231718359227685 0.0479375 0.005
    vertex 0.02362605442933158 0.051625 0.009999999999999972
  endloop
endfacet
facet normal 0.942395 -0.334501 8.65887e-17
  outer loop
    vertex 0.02100831275522211 0.04425 0.02
    vertex 0.02231718359227685 0.0479375 0.015
    vertex 0.02362605442933158 0.051625 0.02
  endloop
endfacet
facet normal 0.283032 0.959111 1.43202e-15
  outer loop
    vertex 0.03766943758507404 0.03933333333333332 0
    vertex 0.03977312532985017 0.03871253902818027 0.007218567256197229
    vertex 0.04599999999999999 0.036875 0
  endloop
endfacet
facet normal 0.283032 0.959111 -0
  outer loop
    vertex 0.04599999999999999 0.036875 0
    vertex 0.03977312532985017 0.03871253902818027 0.007218567256197229
    vertex 0.04599999999999999 0.036875 0.01000000000000003
  endloop
endfacet
facet normal 0.283032 0.959111 -1.46058e-15
  outer loop
    vertex 0.03766943758507401 0.03933333333333334 0.02
    vertex 0.03363043922387895 0.04052523416908173 0.01278906222793106
    vertex 0.02933887517014805 0.04179166666666667 0.02
  endloop
endfacet
facet normal 0.283032 0.959111 0
  outer loop
    vertex 0.02100831275522211 0.04425 0.02
    vertex 0.02650941103630386 0.04262663622205197 0.01395032515963926
    vertex 0.02100831275522211 0.04425 0.009999999999999972
  endloop
endfacet
facet normal 0.283032 0.959111 0
  outer loop
    vertex 0.02100831275522211 0.04425 0.009999999999999972
    vertex 0.02756111527704811 0.04231628027451147 0.006962563570265264
    vertex 0.02100831275522211 0.04425 0
  endloop
endfacet
facet normal 0.283032 0.959111 -0
  outer loop
    vertex 0.04599999999999999 0.036875 0.01000000000000003
    vertex 0.04061460042776062 0.03846422130611906 0.01400152589682566
    vertex 0.04599999999999999 0.036875 0.02
  endloop
endfacet
facet normal 0.283032 0.959111 -1.94767e-15
  outer loop
    vertex 0.03766943758507401 0.03933333333333334 0.02
    vertex 0.04061460042776062 0.03846422130611906 0.01400152589682566
    vertex 0.03363043922387895 0.04052523416908173 0.01278906222793106
  endloop
endfacet
facet normal 0.283032 0.959111 -1.57975e-15
  outer loop
    vertex 0.02933887517014805 0.04179166666666667 0.02
    vertex 0.02650941103630386 0.04262663622205197 0.01395032515963926
    vertex 0.02100831275522211 0.04425 0.02
  endloop
endfacet
facet normal 0.283032 0.959111 1.56871e-15
  outer loop
    vertex 0.02100831275522211 0.04425 0
    vertex 0.02756111527704811 0.04231628027451147 0.006962563570265264
    vertex 0.02933887517014808 0.04179166666666666 0
  endloop
endfacet
facet normal 0.283032 0.959111 1.44505e-15
  outer loop
    vertex 0.03350415637761107 0.04056249999999998 0.005483224438896123
    vertex 0.03977312532985017 0.03871253902818027 0.007218567256197229
    vertex 0.03766943758507404 0.03933333333333332 0
  endloop
endfacet
facet normal 0.283032 0.959111 -2.72472e-16
  outer loop
    vertex 0.03350415637761107 0.04056249999999998 0.005483224438896123
    vertex 0.02756111527704811 0.04231628027451147 0.006962563570265264
    vertex 0.03363043922387895 0.04052523416908173 0.01278906222793106
  endloop
endfacet
facet normal 0.283032 0.959111 1.63624e-15
  outer loop
    vertex 0.02933887517014808 0.04179166666666666 0
    vertex 0.03350415637761107 0.04056249999999998 0.005483224438896123
    vertex 0.03766943758507404 0.03933333333333332 0
  endloop
endfacet
facet normal 0.283032 0.959111 -5.81615e-16
  outer loop
    vertex 0.02756111527704811 0.04231628027451147 0.006962563570265264
    vertex 0.02650941103630386 0.04262663622205197 0.01395032515963926
    vertex 0.03363043922387895 0.04052523416908173 0.01278906222793106
  endloop
endfacet
facet normal 0.283032 0.959111 3.50527e-17
  outer loop
    vertex 0.03363043922387895 0.04052523416908173 0.01278906222793106
    vertex 0.04061460042776062 0.03846422130611906 0.01400152589682566
    vertex 0.03977312532985017 0.03871253902818027 0.007218567256197229
  endloop
endfacet
facet normal 0.283032 0.959111 -1.5419e-15
  outer loop
    vertex 0.03363043922387895 0.04052523416908173 0.01278906222793106
    vertex 0.02650941103630386 0.04262663622205197 0.01395032515963926
    vertex 0.02933887517014805 0.04179166666666667 0.02
  endloop
endfacet
facet normal 0.283032 0.959111 -2.21102e-15
  outer loop
    vertex 0.04599999999999999 0.036875 0.02
    vertex 0.04061460042776062 0.03846422130611906 0.01400152589682566
    vertex 0.03766943758507401 0.03933333333333334 0.02
  endloop
endfacet
facet normal 0.283032 0.959111 -2.81829e-16
  outer loop
    vertex 0.03363043922387895 0.04052523416908173 0.01278906222793106
    vertex 0.03977312532985017 0.03871253902818027 0.007218567256197229
    vertex 0.03350415637761107 0.04056249999999998 0.005483224438896123
  endloop
endfacet
facet normal 0.283032 0.959111 1.52001e-15
  outer loop
    vertex 0.02933887517014808 0.04179166666666666 0
    vertex 0.02756111527704811 0.04231628027451147 0.006962563570265264
    vertex 0.03350415637761107 0.04056249999999998 0.005483224438896123
  endloop
endfacet
facet normal 0.283032 0.959111 -2.67017e-16
  outer loop
    vertex 0.02100831275522211 0.04425 0.009999999999999972
    vertex 0.02650941103630386 0.04262663622205197 0.01395032515963926
    vertex 0.02756111527704811 0.04231628027451147 0.006962563570265264
  endloop
endfacet
facet normal 0.283032 0.959111 3.35987e-16
  outer loop
    vertex 0.03977312532985017 0.03871253902818027 0.007218567256197229
    vertex 0.04061460042776062 0.03846422130611906 0.01400152589682566
    vertex 0.04599999999999999 0.036875 0.01000000000000003
  endloop
endfacet
facet normal 0.263495 -0.964661 6.52116e-16
  outer loop
    vertex 0.03699999999999998 0.03441666666666666 0
    vertex 0.03249999999999999 0.0331875 0.008074869034632393
    vertex 0.028 0.03195833333333333 0
  endloop
endfacet
facet normal 0.263495 -0.964661 0
  outer loop
    vertex 0.019 0.0295 0
    vertex 0.02546708221909436 0.03126647153206744 0.006902461443262625
    vertex 0.019 0.0295 0.01000000000000003
  endloop
endfacet
facet normal 0.263495 -0.964661 0
  outer loop
    vertex 0.04599999999999999 0.036875 0.009999999999999972
    vertex 0.0395329177809056 0.03510852846793255 0.006902461443262622
    vertex 0.04599999999999999 0.036875 0
  endloop
endfacet
facet normal 0.263495 -0.964661 7.36574e-16
  outer loop
    vertex 0.04599999999999999 0.036875 0
    vertex 0.0395329177809056 0.03510852846793255 0.006902461443262622
    vertex 0.03699999999999998 0.03441666666666666 0
  endloop
endfacet
facet normal 0.263495 -0.964661 5.26124e-16
  outer loop
    vertex 0.028 0.03195833333333333 0
    vertex 0.02546708221909436 0.03126647153206744 0.006902461443262625
    vertex 0.019 0.0295 0
  endloop
endfacet
facet normal 0.263495 -0.964661 -2.57756e-16
  outer loop
    vertex 0.03249999999999999 0.0331875 0.008074869034632393
    vertex 0.03997485997638477 0.03522924416021621 0.01374642307179518
    vertex 0.0325 0.0331875 0.01516827586429922
  endloop
endfacet
facet normal 0.263495 -0.964661 -2.57756e-16
  outer loop
    vertex 0.0325 0.0331875 0.01516827586429922
    vertex 0.02502514002361524 0.03114575583978379 0.01374642307179518
    vertex 0.03249999999999999 0.0331875 0.008074869034632393
  endloop
endfacet
facet normal 0.263495 -0.964661 0
  outer loop
    vertex 0.04599999999999999 0.036875 0.02
    vertex 0.03997485997638477 0.03522924416021621 0.01374642307179518
    vertex 0.04599999999999999 0.036875 0.009999999999999972
  endloop
endfacet
facet normal 0.263495 -0.964661 0
  outer loop
    vertex 0.019 0.0295 0.01000000000000003
    vertex 0.02502514002361524 0.03114575583978379 0.01374642307179518
    vertex 0.019 0.0295 0.02
  endloop
endfacet
facet normal 0.263495 -0.964661 -7.62076e-16
  outer loop
    vertex 0.0395329177809056 0.03510852846793255 0.006902461443262622
    vertex 0.03997485997638477 0.03522924416021621 0.01374642307179518
    vertex 0.03249999999999999 0.0331875 0.008074869034632393
  endloop
endfacet
facet normal 0.263495 -0.964661 -3.35901e-16
  outer loop
    vertex 0.03249999999999999 0.0331875 0.008074869034632393
    vertex 0.02502514002361524 0.03114575583978379 0.01374642307179518
    vertex 0.02546708221909436 0.03126647153206744 0.006902461443262625
  endloop
endfacet
facet normal 0.263495 -0.964661 5.22644e-16
  outer loop
    vertex 0.03699999999999998 0.03441666666666666 0.02
    vertex 0.03997485997638477 0.03522924416021621 0.01374642307179518
    vertex 0.04599999999999999 0.036875 0.02
  endloop
endfacet
facet normal 0.263495 -0.964661 3.19394e-16
  outer loop
    vertex 0.019 0.0295 0.02
    vertex 0.02502514002361524 0.03114575583978379 0.01374642307179518
    vertex 0.02800000000000001 0.03195833333333334 0.02
  endloop
endfacet
facet normal 0.263495 -0.964661 5.7102e-16
  outer loop
    vertex 0.03249999999999999 0.0331875 0.008074869034632393
    vertex 0.02546708221909436 0.03126647153206744 0.006902461443262625
    vertex 0.028 0.03195833333333333 0
  endloop
endfacet
facet normal 0.263495 -0.964661 8.56531e-16
  outer loop
    vertex 0.03699999999999998 0.03441666666666666 0
    vertex 0.0395329177809056 0.03510852846793255 0.006902461443262622
    vertex 0.03249999999999999 0.0331875 0.008074869034632393
  endloop
endfacet
facet normal 0.263495 -0.964661 2.63062e-16
  outer loop
    vertex 0.02800000000000001 0.03195833333333334 0.02
    vertex 0.0325 0.0331875 0.01516827586429922
    vertex 0.03699999999999998 0.03441666666666666 0.02
  endloop
endfacet
facet normal 0.263495 -0.964661 4.6126e-16
  outer loop
    vertex 0.0325 0.0331875 0.01516827586429922
    vertex 0.03997485997638477 0.03522924416021621 0.01374642307179518
    vertex 0.03699999999999998 0.03441666666666666 0.02
  endloop
endfacet
facet normal 0.263495 -0.964661 4.90089e-16
  outer loop
    vertex 0.02800000000000001 0.03195833333333334 0.02
    vertex 0.02502514002361524 0.03114575583978379 0.01374642307179518
    vertex 0.0325 0.0331875 0.01516827586429922
  endloop
endfacet
facet normal 0.263495 -0.964661 -3.31e-16
  outer loop
    vertex 0.02546708221909436 0.03126647153206744 0.006902461443262625
    vertex 0.02502514002361524 0.03114575583978379 0.01374642307179518
    vertex 0.019 0.0295 0.01000000000000003
  endloop
endfacet
facet normal 0.263495 -0.964661 -7.62015e-16
  outer loop
    vertex 0.04599999999999999 0.036875 0.009999999999999972
    vertex 0.03997485997638477 0.03522924416021621 0.01374642307179518
    vertex 0.0395329177809056 0.03510852846793255 0.006902461443262622
  endloop
endfacet
facet normal 0.823433 0.567414 0
  outer loop
    vertex 0.019 0.0295 0.02
    vertex 0.02154099529634692 0.0258125 0.015
    vertex 0.019 0.0295 0.009999999999999972
  endloop
endfacet
facet normal 0.823433 0.567414 -0
  outer loop
    vertex 0.02408199059269384 0.022125 0
    vertex 0.02154099529634692 0.0258125 0.004999999999999999
    vertex 0.02408199059269384 0.022125 0.01000000000000003
  endloop
endfacet
facet normal 0.823433 0.567414 0
  outer loop
    vertex 0.019 0.0295 0.009999999999999972
    vertex 0.02154099529634692 0.0258125 0.004999999999999999
    vertex 0.019 0.0295 0
  endloop
endfacet
facet normal 0.823433 0.567414 -0
  outer loop
    vertex 0.02408199059269384 0.022125 0.01000000000000003
    vertex 0.02154099529634692 0.0258125 0.015
    vertex 0.02408199059269384 0.022125 0.02
  endloop
endfacet
facet normal 0.823433 0.567414 -6.05266e-16
  outer loop
    vertex 0.02408199059269384 0.022125 0.01000000000000003
    vertex 0.02154099529634692 0.0258125 0.004999999999999999
    vertex 0.019 0.0295 0.009999999999999972
  endloop
endfacet
facet normal 0.823433 0.567414 6.05266e-16
  outer loop
    vertex 0.019 0.0295 0.009999999999999972
    vertex 0.02154099529634692 0.0258125 0.015
    vertex 0.02408199059269384 0.022125 0.01000000000000003
  endloop
endfacet
facet normal 0.823433 0.567414 6.05266e-16
  outer loop
    vertex 0.019 0.0295 0
    vertex 0.02154099529634692 0.0258125 0.004999999999999999
    vertex 0.02408199059269384 0.022125 0
  endloop
endfacet
facet normal 0.823433 0.567414 -6.05266e-16
  outer loop
    vertex 0.02408199059269384 0.022125 0.02
    vertex 0.02154099529634692 0.0258125 0.015
    vertex 0.019 0.0295 0.02
  endloop
endfacet
facet normal 0.823433 -0.567414 0
  outer loop
    vertex 0.02408199059269384 0.022125 0.02
    vertex 0.02154099529634692 0.0184375 0.015
    vertex 0.02408199059269384 0.022125 0.009999999999999972
  endloop
endfacet
facet normal 0.823433 -0.567414 0
  outer loop
    vertex 0.019 0.01475 0
    vertex 0.02154099529634692 0.0184375 0.004999999999999999
    vertex 0.019 0.01475 0.01000000000000003
  endloop
endfacet
facet normal 0.823433 -0.567414 0
  outer loop
    vertex 0.02408199059269384 0.022125 0.009999999999999972
    vertex 0.02154099529634692 0.0184375 0.004999999999999999
    vertex 0.02408199059269384 0.022125 0
  endloop
endfacet
facet normal 0.823433 -0.567414 0
  outer loop
    vertex 0.019 0.01475 0.01000000000000003
    vertex 0.02154099529634692 0.0184375 0.015
    vertex 0.019 0.01475 0.02
  endloop
endfacet
facet normal 0.823433 -0.567414 6.05266e-16
  outer loop
    vertex 0.02408199059269384 0.022125 0.009999999999999972
    vertex 0.02154099529634692 0.0184375 0.015
    vertex 0.019 0.01475 0.01000000000000003
  endloop
endfacet
facet normal 0.823433 -0.567414 -6.05266e-16
  outer loop
    vertex 0.019 0.01475 0.01000000000000003
    vertex 0.02154099529634692 0.0184375 0.004999999999999999
    vertex 0.02408199059269384 0.022125 0.009999999999999972
  endloop
endfacet
facet normal 0.823433 -0.567414 6.05266e-16
  outer loop
    vertex 0.02408199059269384 0.022125 0
    vertex 0.02154099529634692 0.0184375 0.004999999999999999
    vertex 0.019 0.01475 0
  endloop
endfacet
facet normal 0.823433 -0.567414 -6.05266e-16
  outer loop
    vertex 0.019 0.01475 0.02
    vertex 0.02154099529634692 0.0184375 0.015
    vertex 0.02408199059269384 0.022125 0.02
  endloop
endfacet
facet normal 0.263495 0.964661 2.69841e-16
  outer loop
    vertex 0.03699999999999998 0.009833333333333336 0.02
    vertex 0.03249999999999999 0.0110625 0.01192513096536761
    vertex 0.028 0.01229166666666666 0.02
  endloop
endfacet
facet normal 0.263495 0.964661 0
  outer loop
    vertex 0.019 0.01475 0.02
    vertex 0.02546708221909436 0.01298352846793256 0.01309753855673737
    vertex 0.019 0.01475 0.009999999999999972
  endloop
endfacet
facet normal 0.263495 0.964661 -0
  outer loop
    vertex 0.04599999999999999 0.007375 0.01000000000000003
    vertex 0.0395329177809056 0.009141471532067449 0.01309753855673738
    vertex 0.04599999999999999 0.007375 0.02
  endloop
endfacet
facet normal 0.263495 0.964661 2.63062e-16
  outer loop
    vertex 0.04599999999999999 0.007375 0.02
    vertex 0.0395329177809056 0.009141471532067449 0.01309753855673738
    vertex 0.03699999999999998 0.009833333333333336 0.02
  endloop
endfacet
facet normal 0.263495 0.964661 3.8144e-16
  outer loop
    vertex 0.028 0.01229166666666666 0.02
    vertex 0.02546708221909436 0.01298352846793256 0.01309753855673737
    vertex 0.019 0.01475 0.02
  endloop
endfacet
facet normal 0.263495 0.964661 2.18437e-17
  outer loop
    vertex 0.03249999999999999 0.0110625 0.01192513096536761
    vertex 0.03997485997638477 0.009020755839783789 0.006253576928204823
    vertex 0.0325 0.0110625 0.004831724135700776
  endloop
endfacet
facet normal 0.263495 0.964661 2.18437e-17
  outer loop
    vertex 0.0325 0.0110625 0.004831724135700776
    vertex 0.02502514002361524 0.01310424416021621 0.006253576928204819
    vertex 0.03249999999999999 0.0110625 0.01192513096536761
  endloop
endfacet
facet normal 0.263495 0.964661 -0
  outer loop
    vertex 0.04599999999999999 0.007375 0
    vertex 0.03997485997638477 0.009020755839783789 0.006253576928204823
    vertex 0.04599999999999999 0.007375 0.01000000000000003
  endloop
endfacet
facet normal 0.263495 0.964661 0
  outer loop
    vertex 0.019 0.01475 0.009999999999999972
    vertex 0.02502514002361524 0.01310424416021621 0.006253576928204819
    vertex 0.019 0.01475 0
  endloop
endfacet
facet normal 0.263495 0.964661 3.56895e-17
  outer loop
    vertex 0.0395329177809056 0.009141471532067449 0.01309753855673738
    vertex 0.03997485997638477 0.009020755839783789 0.006253576928204823
    vertex 0.03249999999999999 0.0110625 0.01192513096536761
  endloop
endfacet
facet normal 0.263495 0.964661 -1.34361e-16
  outer loop
    vertex 0.03249999999999999 0.0110625 0.01192513096536761
    vertex 0.02502514002361524 0.01310424416021621 0.006253576928204819
    vertex 0.02546708221909436 0.01298352846793256 0.01309753855673737
  endloop
endfacet
facet normal 0.263495 0.964661 -2.61322e-16
  outer loop
    vertex 0.019 0.01475 0
    vertex 0.02502514002361524 0.01310424416021621 0.006253576928204819
    vertex 0.02800000000000001 0.01229166666666666 0
  endloop
endfacet
facet normal 0.263495 0.964661 -3.4843e-16
  outer loop
    vertex 0.03699999999999998 0.009833333333333335 0
    vertex 0.03997485997638477 0.009020755839783789 0.006253576928204823
    vertex 0.04599999999999999 0.007375 0
  endloop
endfacet
facet normal 0.263495 0.964661 3.48957e-16
  outer loop
    vertex 0.03249999999999999 0.0110625 0.01192513096536761
    vertex 0.02546708221909436 0.01298352846793256 0.01309753855673737
    vertex 0.028 0.01229166666666666 0.02
  endloop
endfacet
facet normal 0.263495 0.964661 2.8551e-16
  outer loop
    vertex 0.03699999999999998 0.009833333333333336 0.02
    vertex 0.0395329177809056 0.009141471532067449 0.01309753855673738
    vertex 0.03249999999999999 0.0110625 0.01192513096536761
  endloop
endfacet
facet normal 0.263495 0.964661 -4.50964e-16
  outer loop
    vertex 0.02800000000000001 0.01229166666666666 0
    vertex 0.0325 0.0110625 0.004831724135700776
    vertex 0.03699999999999998 0.009833333333333335 0
  endloop
endfacet
facet normal 0.263495 0.964661 -3.84384e-16
  outer loop
    vertex 0.0325 0.0110625 0.004831724135700776
    vertex 0.03997485997638477 0.009020755839783789 0.006253576928204823
    vertex 0.03699999999999998 0.009833333333333335 0
  endloop
endfacet
facet normal 0.263495 0.964661 -3.17116e-16
  outer loop
    vertex 0.02800000000000001 0.01229166666666666 0
    vertex 0.02502514002361524 0.01310424416021621 0.006253576928204819
    vertex 0.0325 0.0110625 0.004831724135700776
  endloop
endfacet
facet normal 0.263495 0.964661 -1.23827e-16
  outer loop
    vertex 0.02546708221909436 0.01298352846793256 0.01309753855673737
    vertex 0.02502514002361524 0.01310424416021621 0.006253576928204819
    vertex 0.019 0.01475 0.009999999999999972
  endloop
endfacet
facet normal 0.263495 0.964661 3.81007e-17
  outer loop
    vertex 0.04599999999999999 0.007375 0.01000000000000003
    vertex 0.03997485997638477 0.009020755839783789 0.006253576928204823
    vertex 0.0395329177809056 0.009141471532067449 0.01309753855673738
  endloop
endfacet
endsolid Created by Gmsh
