solid Created by Gmsh
facet normal -0.319363 0.947632 1.45231e-16
  outer loop
    vertex 0.03706657314337787 0.04630294801854705 0
    vertex 0.02847953802262329 0.04340901376738786 0
    vertex 0.02992479491157168 0.04389608274449529 0.007723599654811184
  endloop
endfacet
facet normal -0.319363 0.947632 0
  outer loop
    vertex 0.03706657314337787 0.04630294801854705 0.009999999999999972
    vertex 0.03706657314337787 0.04630294801854705 0
    vertex 0.02992479491157168 0.04389608274449529 0.007723599654811184
  endloop
endfacet
facet normal -0.319363 0.947632 0
  outer loop
    vertex 0.01989250290186873 0.04051507951622867 0.01000000000000003
    vertex 0.01989250290186873 0.04051507951622867 0.02
    vertex 0.02624861088513256 0.04265716445453007 0.01332114747378093
  endloop
endfacet
facet normal -0.319363 0.947632 2.23931e-16
  outer loop
    vertex 0.01989250290186873 0.04051507951622867 0.02
    vertex 0.02847953802262331 0.04340901376738786 0.02
    vertex 0.02624861088513256 0.04265716445453007 0.01332114747378093
  endloop
endfacet
facet normal -0.319363 0.947632 0
  outer loop
    vertex 0.01989250290186873 0.04051507951622867 0
    vertex 0.01989250290186873 0.04051507951622867 0.01000000000000003
    vertex 0.02436864474961768 0.04202359322603511 0.005245937114210526
  endloop
endfacet
facet normal -0.319363 0.947632 0
  outer loop
    vertex 0.03706657314337787 0.04630294801854705 0.02
    vertex 0.03706657314337787 0.04630294801854705 0.009999999999999972
    vertex 0.03179616487319468 0.04452675695886316 0.01424474499850415
  endloop
endfacet
facet normal -0.319363 0.947632 3.56372e-16
  outer loop
    vertex 0.02847953802262329 0.04340901376738786 0
    vertex 0.01989250290186873 0.04051507951622867 0
    vertex 0.02436864474961768 0.04202359322603511 0.005245937114210526
  endloop
endfacet
facet normal -0.319363 0.947632 3.57318e-16
  outer loop
    vertex 0.02847953802262331 0.04340901376738786 0.02
    vertex 0.03706657314337787 0.04630294801854705 0.02
    vertex 0.03179616487319468 0.04452675695886316 0.01424474499850415
  endloop
endfacet
facet normal -0.319363 0.947632 7.12172e-17
  outer loop
    vertex 0.01989250290186873 0.04051507951622867 0.01000000000000003
    vertex 0.02624861088513256 0.04265716445453007 0.01332114747378093
    vertex 0.02436864474961768 0.04202359322603511 0.005245937114210526
  endloop
endfacet
facet normal -0.319363 0.947632 2.19588e-16
  outer loop
    vertex 0.02624861088513256 0.04265716445453007 0.01332114747378093
    vertex 0.02992479491157168 0.04389608274449529 0.007723599654811184
    vertex 0.02436864474961768 0.04202359322603511 0.005245937114210526
  endloop
endfacet
facet normal -0.319363 0.947632 1.70731e-16
  outer loop
    vertex 0.03179616487319468 0.04452675695886316 0.01424474499850415
    vertex 0.03706657314337787 0.04630294801854705 0.009999999999999972
    vertex 0.02992479491157168 0.04389608274449529 0.007723599654811184
  endloop
endfacet
facet normal -0.319363 0.947632 3.16314e-16
  outer loop
    vertex 0.02992479491157168 0.04389608274449529 0.007723599654811184
    vertex 0.02847953802262329 0.04340901376738786 0
    vertex 0.02436864474961768 0.04202359322603511 0.005245937114210526
  endloop
endfacet
facet normal -0.319363 0.947632 3.02914e-16
  outer loop
    vertex 0.03179616487319468 0.04452675695886316 0.01424474499850415
    vertex 0.02992479491157168 0.04389608274449529 0.007723599654811184
    vertex 0.02624861088513256 0.04265716445453007 0.01332114747378093
  endloop
endfacet
facet normal -0.319363 0.947632 4.24383e-16
  outer loop
    vertex 0.02847953802262331 0.04340901376738786 0.02
    vertex 0.03179616487319468 0.04452675695886316 0.01424474499850415
    vertex 0.02624861088513256 0.04265716445453007 0.01332114747378093
  endloop
endfacet
facet normal -0.634434 -0.772977 -0
  outer loop
    vertex 0.01989250290186873 0.04051507951622867 0.02
    vertex 0.01989250290186873 0.04051507951622867 0.009999999999999972
    vertex 0.02341839627561684 0.03762114526506947 0.015
  endloop
endfacet
facet normal -0.634434 -0.772977 0
  outer loop
    vertex 0.02694428964936497 0.03472721101391028 0
    vertex 0.02694428964936497 0.03472721101391028 0.01000000000000003
    vertex 0.02341839627561684 0.03762114526506947 0.005
  endloop
endfacet
facet normal -0.634434 -0.772977 -0
  outer loop
    vertex 0.01989250290186873 0.04051507951622867 0.009999999999999972
    vertex 0.01989250290186873 0.04051507951622867 0
    vertex 0.02341839627561684 0.03762114526506947 0.005
  endloop
endfacet
facet normal -0.634434 -0.772977 0
  outer loop
    vertex 0.02694428964936497 0.03472721101391028 0.01000000000000003
    vertex 0.02694428964936497 0.03472721101391028 0.02
    vertex 0.02341839627561684 0.03762114526506947 0.015
  endloop
endfacet
facet normal -0.634434 -0.772977 2.37688e-15
  outer loop
    vertex 0.02694428964936497 0.03472721101391028 0.01000000000000003
    vertex 0.01989250290186873 0.04051507951622867 0.009999999999999972
    vertex 0.02341839627561684 0.03762114526506947 0.005
  endloop
endfacet
facet normal -0.634434 -0.772977 -2.37688e-15
  outer loop
    vertex 0.01989250290186873 0.04051507951622867 0.009999999999999972
    vertex 0.02694428964936497 0.03472721101391028 0.01000000000000003
    vertex 0.02341839627561684 0.03762114526506947 0.015
  endloop
endfacet
facet normal -0.634434 -0.772977 -2.37688e-15
  outer loop
    vertex 0.01989250290186873 0.04051507951622867 0
    vertex 0.02694428964936497 0.03472721101391028 0
    vertex 0.02341839627561684 0.03762114526506947 0.005
  endloop
endfacet
facet normal -0.634434 -0.772977 2.37688e-15
  outer loop
    vertex 0.02694428964936497 0.03472721101391028 0.02
    vertex 0.01989250290186873 0.04051507951622867 0.02
    vertex 0.02341839627561684 0.03762114526506947 0.015
  endloop
endfacet
facet normal -0.816357 0.577547 -3.82307e-16
  outer loop
    vertex 0.02694428964936497 0.03472721101391028 0.009999999999999972
    vertex 0.02284955608412452 0.02893934251159191 0.01000000000000003
    vertex 0.02489692286674474 0.0318332767627511 0.015
  endloop
endfacet
facet normal -0.816357 0.577547 -3.82307e-16
  outer loop
    vertex 0.02694428964936497 0.03472721101391028 0
    vertex 0.02284955608412452 0.02893934251159191 0
    vertex 0.02489692286674474 0.0318332767627511 0.005000000000000001
  endloop
endfacet
facet normal -0.816357 0.577547 4.30095e-16
  outer loop
    vertex 0.02284955608412452 0.02893934251159191 0.02
    vertex 0.02694428964936497 0.03472721101391028 0.02
    vertex 0.02489692286674474 0.0318332767627511 0.015
  endloop
endfacet
facet normal -0.816357 0.577547 4.30095e-16
  outer loop
    vertex 0.02284955608412452 0.02893934251159191 0.01000000000000003
    vertex 0.02694428964936497 0.03472721101391028 0.009999999999999972
    vertex 0.02489692286674474 0.0318332767627511 0.005000000000000001
  endloop
endfacet
facet normal -0.816357 0.577547 0
  outer loop
    vertex 0.02694428964936497 0.03472721101391028 0.009999999999999972
    vertex 0.02694428964936497 0.03472721101391028 0
    vertex 0.02489692286674474 0.0318332767627511 0.005000000000000001
  endloop
endfacet
facet normal -0.816357 0.577547 0
  outer loop
    vertex 0.02694428964936497 0.03472721101391028 0.02
    vertex 0.02694428964936497 0.03472721101391028 0.009999999999999972
    vertex 0.02489692286674474 0.0318332767627511 0.015
  endloop
endfacet
facet normal -0.816357 0.577547 0
  outer loop
    vertex 0.02284955608412452 0.02893934251159191 0
    vertex 0.02284955608412452 0.02893934251159191 0.01000000000000003
    vertex 0.02489692286674474 0.0318332767627511 0.005000000000000001
  endloop
endfacet
facet normal -0.816357 0.577547 0
  outer loop
    vertex 0.02284955608412452 0.02893934251159191 0.01000000000000003
    vertex 0.02284955608412452 0.02893934251159191 0.02
    vertex 0.02489692286674474 0.0318332767627511 0.015
  endloop
endfacet
facet normal -0.872847 -0.487994 6.13142e-16
  outer loop
    vertex 0.02608545283731536 0.02315147400927352 0.01000000000000003
    vertex 0.02284955608412452 0.02893934251159191 0.009999999999999972
    vertex 0.02446750446071994 0.02604540826043272 0.005
  endloop
endfacet
facet normal -0.872847 -0.487994 -5.62047e-16
  outer loop
    vertex 0.02284955608412452 0.02893934251159191 0.009999999999999972
    vertex 0.02608545283731536 0.02315147400927352 0.01000000000000003
    vertex 0.02446750446071994 0.02604540826043272 0.015
  endloop
endfacet
facet normal -0.872847 -0.487994 -5.62047e-16
  outer loop
    vertex 0.02284955608412452 0.02893934251159191 0
    vertex 0.02608545283731536 0.02315147400927352 0
    vertex 0.02446750446071994 0.02604540826043272 0.005
  endloop
endfacet
facet normal -0.872847 -0.487994 6.13142e-16
  outer loop
    vertex 0.02608545283731536 0.02315147400927352 0.02
    vertex 0.02284955608412452 0.02893934251159191 0.02
    vertex 0.02446750446071994 0.02604540826043272 0.015
  endloop
endfacet
facet normal -0.872847 -0.487994 -0
  outer loop
    vertex 0.02284955608412452 0.02893934251159191 0.009999999999999972
    vertex 0.02284955608412452 0.02893934251159191 0
    vertex 0.02446750446071994 0.02604540826043272 0.005
  endloop
endfacet
facet normal -0.872847 -0.487994 -0
  outer loop
    vertex 0.02284955608412452 0.02893934251159191 0.02
    vertex 0.02284955608412452 0.02893934251159191 0.009999999999999972
    vertex 0.02446750446071994 0.02604540826043272 0.015
  endloop
endfacet
facet normal -0.872847 -0.487994 0
  outer loop
    vertex 0.02608545283731536 0.02315147400927352 0
    vertex 0.02608545283731536 0.02315147400927352 0.01000000000000003
    vertex 0.02446750446071994 0.02604540826043272 0.005
  endloop
endfacet
facet normal -0.872847 -0.487994 0
  outer loop
    vertex 0.02608545283731536 0.02315147400927352 0.01000000000000003
    vertex 0.02608545283731536 0.02315147400927352 0.02
    vertex 0.02446750446071994 0.02604540826043272 0.015
  endloop
endfacet
facet normal -0.775532 -0.631308 0
  outer loop
    vertex 0.03079696146465331 0.01736360550695514 0
    vertex 0.03079696146465331 0.01736360550695514 0.01000000000000003
    vertex 0.02844120715098433 0.02025753975811433 0.005
  endloop
endfacet
facet normal -0.775532 -0.631308 -0
  outer loop
    vertex 0.02608545283731536 0.02315147400927352 0.02
    vertex 0.02608545283731536 0.02315147400927352 0.009999999999999972
    vertex 0.02844120715098433 0.02025753975811433 0.015
  endloop
endfacet
facet normal -0.775532 -0.631308 0
  outer loop
    vertex 0.03079696146465331 0.01736360550695514 0.01000000000000003
    vertex 0.03079696146465331 0.01736360550695514 0.02
    vertex 0.02844120715098433 0.02025753975811433 0.015
  endloop
endfacet
facet normal -0.775532 -0.631308 -0
  outer loop
    vertex 0.02608545283731536 0.02315147400927352 0.009999999999999972
    vertex 0.02608545283731536 0.02315147400927352 0
    vertex 0.02844120715098433 0.02025753975811433 0.005
  endloop
endfacet
facet normal -0.775532 -0.631308 -9.53369e-16
  outer loop
    vertex 0.02608545283731536 0.02315147400927352 0
    vertex 0.03079696146465331 0.01736360550695514 0
    vertex 0.02844120715098433 0.02025753975811433 0.005
  endloop
endfacet
facet normal -0.775532 -0.631308 -9.53369e-16
  outer loop
    vertex 0.02608545283731536 0.02315147400927352 0.009999999999999972
    vertex 0.03079696146465331 0.01736360550695514 0.01000000000000003
    vertex 0.02844120715098433 0.02025753975811433 0.015
  endloop
endfacet
facet normal -0.775532 -0.631308 9.53369e-16
  outer loop
    vertex 0.03079696146465331 0.01736360550695514 0.02
    vertex 0.02608545283731536 0.02315147400927352 0.02
    vertex 0.02844120715098433 0.02025753975811433 0.015
  endloop
endfacet
facet normal -0.775532 -0.631308 9.53369e-16
  outer loop
    vertex 0.03079696146465331 0.01736360550695514 0.01000000000000003
    vertex 0.02608545283731536 0.02315147400927352 0.009999999999999972
    vertex 0.02844120715098433 0.02025753975811433 0.005
  endloop
endfacet
facet normal -0.594333 0.804219 0
  outer loop
    vertex 0.03079696146465331 0.01736360550695514 0.02
    vertex 0.03079696146465331 0.01736360550695514 0.009999999999999972
    vertex 0.02688104557993778 0.01446967125579595 0.015
  endloop
endfacet
facet normal -0.594333 0.804219 0
  outer loop
    vertex 0.02296512969522226 0.01157573700463677 0
    vertex 0.02296512969522226 0.01157573700463677 0.01000000000000003
    vertex 0.02688104557993778 0.01446967125579595 0.004999999999999999
  endloop
endfacet
facet normal -0.594333 0.804219 0
  outer loop
    vertex 0.03079696146465331 0.01736360550695514 0.009999999999999972
    vertex 0.03079696146465331 0.01736360550695514 0
    vertex 0.02688104557993778 0.01446967125579595 0.004999999999999999
  endloop
endfacet
facet normal -0.594333 0.804219 0
  outer loop
    vertex 0.02296512969522226 0.01157573700463677 0.01000000000000003
    vertex 0.02296512969522226 0.01157573700463677 0.02
    vertex 0.02688104557993778 0.01446967125579595 0.015
  endloop
endfacet
facet normal -0.594333 0.804219 0
  outer loop
    vertex 0.03079696146465331 0.01736360550695514 0.009999999999999972
    vertex 0.02296512969522226 0.01157573700463677 0.01000000000000003
    vertex 0.02688104557993778 0.01446967125579595 0.015
  endloop
endfacet
facet normal -0.594333 0.804219 0
  outer loop
    vertex 0.03079696146465331 0.01736360550695514 0
    vertex 0.02296512969522226 0.01157573700463677 0
    vertex 0.02688104557993778 0.01446967125579595 0.004999999999999999
  endloop
endfacet
facet normal -0.594333 0.804219 0
  outer loop
    vertex 0.02296512969522226 0.01157573700463677 0.01000000000000003
    vertex 0.03079696146465331 0.01736360550695514 0.009999999999999972
    vertex 0.02688104557993778 0.01446967125579595 0.004999999999999999
  endloop
endfacet
facet normal -0.594333 0.804219 0
  outer loop
    vertex 0.02296512969522226 0.01157573700463677 0.02
    vertex 0.03079696146465331 0.01736360550695514 0.02
    vertex 0.02688104557993778 0.01446967125579595 0.015
  endloop
endfacet
facet normal -0.533199 0.84599 -3.3923e-16
  outer loop
    vertex 0.02296512969522226 0.01157573700463677 0
    vertex 0.01378192483831719 0.005787868502318383 0
    vertex 0.01837352726676972 0.008681802753477576 0.005520616409829229
  endloop
endfacet
facet normal -0.533199 0.84599 3.40904e-16
  outer loop
    vertex 0.01378192483831719 0.005787868502318383 0.02
    vertex 0.02296512969522226 0.01157573700463677 0.02
    vertex 0.01837352726676972 0.008681802753477576 0.01450648773478912
  endloop
endfacet
facet normal -0.533199 0.84599 0
  outer loop
    vertex 0.02296512969522226 0.01157573700463677 0.009999999999999972
    vertex 0.01837352726676972 0.008681802753477576 0.005520616409829229
    vertex 0.01837352726676972 0.008681802753477576 0.01450648773478912
  endloop
endfacet
facet normal -0.533199 0.84599 0
  outer loop
    vertex 0.01378192483831719 0.005787868502318383 0
    vertex 0.01378192483831719 0.005787868502318383 0.01000000000000003
    vertex 0.01837352726676972 0.008681802753477576 0.005520616409829229
  endloop
endfacet
facet normal -0.533199 0.84599 0
  outer loop
    vertex 0.01837352726676972 0.008681802753477576 0.005520616409829229
    vertex 0.01378192483831719 0.005787868502318383 0.01000000000000003
    vertex 0.01837352726676972 0.008681802753477576 0.01450648773478912
  endloop
endfacet
facet normal -0.533199 0.84599 0
  outer loop
    vertex 0.02296512969522226 0.01157573700463677 0.02
    vertex 0.02296512969522226 0.01157573700463677 0.009999999999999972
    vertex 0.01837352726676972 0.008681802753477576 0.01450648773478912
  endloop
endfacet
facet normal -0.533199 0.84599 0
  outer loop
    vertex 0.02296512969522226 0.01157573700463677 0.009999999999999972
    vertex 0.02296512969522226 0.01157573700463677 0
    vertex 0.01837352726676972 0.008681802753477576 0.005520616409829229
  endloop
endfacet
facet normal -0.533199 0.84599 0
  outer loop
    vertex 0.01378192483831719 0.005787868502318383 0.01000000000000003
    vertex 0.01378192483831719 0.005787868502318383 0.02
    vertex 0.01837352726676972 0.008681802753477576 0.01450648773478912
  endloop
endfacet
endsolid Created by Gmsh
