solid Created by Gmsh
facet normal 1 -1.75436e-15 0
  outer loop
    vertex 0.04 0.05208955340093176 0
    vertex 0.04000000000000001 0.05604477670046588 0.005000000000000001
    vertex 0.04 0.05208955340093176 0.01000000000000003
  endloop
endfacet
facet normal 1 1.75436e-15 0
  outer loop
    vertex 0.04 0.06 0.02
    vertex 0.04000000000000001 0.05604477670046588 0.015
    vertex 0.04 0.06 0.009999999999999972
  endloop
endfacet
facet normal 1 1.75436e-15 0
  outer loop
    vertex 0.04 0.06 0.009999999999999972
    vertex 0.04000000000000001 0.05604477670046588 0.005000000000000001
    vertex 0.04 0.06 0
  endloop
endfacet
facet normal 1 -1.75436e-15 0
  outer loop
    vertex 0.04 0.05208955340093176 0.01000000000000003
    vertex 0.04000000000000001 0.05604477670046588 0.015
    vertex 0.04 0.05208955340093176 0.02
  endloop
endfacet
facet normal 1 9.73867e-30 1.38778e-15
  outer loop
    vertex 0.04 0.05208955340093176 0.01000000000000003
    vertex 0.04000000000000001 0.05604477670046588 0.005000000000000001
    vertex 0.04 0.06 0.009999999999999972
  endloop
endfacet
facet normal 1 -0 1.38778e-15
  outer loop
    vertex 0.04 0.05208955340093176 0.02
    vertex 0.04000000000000001 0.05604477670046588 0.015
    vertex 0.04 0.06 0.02
  endloop
endfacet
facet normal 1 -9.73867e-30 -1.38778e-15
  outer loop
    vertex 0.04 0.06 0.009999999999999972
    vertex 0.04000000000000001 0.05604477670046588 0.015
    vertex 0.04 0.05208955340093176 0.01000000000000003
  endloop
endfacet
facet normal 1 0 -1.38778e-15
  outer loop
    vertex 0.04 0.06 0
    vertex 0.04000000000000001 0.05604477670046588 0.005000000000000001
    vertex 0.04 0.05208955340093176 0
  endloop
endfacet
facet normal 0.609816 -0.792543 -9.24205e-16
  outer loop
    vertex 0.04 0.05208955340093176 0
    vertex 0.03576888699355149 0.04883395631337353 0.005493512265210881
    vertex 0.03153777398710297 0.0455783592258153 0
  endloop
endfacet
facet normal 0.609816 -0.792543 9.19668e-16
  outer loop
    vertex 0.03153777398710297 0.0455783592258153 0.02
    vertex 0.03576888699355149 0.04883395631337353 0.01447938359017078
    vertex 0.04 0.05208955340093176 0.02
  endloop
endfacet
facet normal 0.609816 -0.792543 0
  outer loop
    vertex 0.03576888699355149 0.04883395631337353 0.01447938359017078
    vertex 0.03576888699355149 0.04883395631337353 0.005493512265210881
    vertex 0.04 0.05208955340093176 0.009999999999999972
  endloop
endfacet
facet normal 0.609816 -0.792543 0
  outer loop
    vertex 0.03153777398710297 0.0455783592258153 0.01000000000000003
    vertex 0.03576888699355149 0.04883395631337353 0.005493512265210881
    vertex 0.03576888699355149 0.04883395631337353 0.01447938359017078
  endloop
endfacet
facet normal 0.609816 -0.792543 0
  outer loop
    vertex 0.04 0.05208955340093176 0.02
    vertex 0.03576888699355149 0.04883395631337353 0.01447938359017078
    vertex 0.04 0.05208955340093176 0.009999999999999972
  endloop
endfacet
facet normal 0.609816 -0.792543 0
  outer loop
    vertex 0.03153777398710297 0.0455783592258153 0
    vertex 0.03576888699355149 0.04883395631337353 0.005493512265210881
    vertex 0.03153777398710297 0.0455783592258153 0.01000000000000003
  endloop
endfacet
facet normal 0.609816 -0.792543 0
  outer loop
    vertex 0.04 0.05208955340093176 0.009999999999999972
    vertex 0.03576888699355149 0.04883395631337353 0.005493512265210881
    vertex 0.04 0.05208955340093176 0
  endloop
endfacet
facet normal 0.609816 -0.792543 0
  outer loop
    vertex 0.03153777398710297 0.0455783592258153 0.01000000000000003
    vertex 0.03576888699355149 0.04883395631337353 0.01447938359017078
    vertex 0.03153777398710297 0.0455783592258153 0.02
  endloop
endfacet
facet normal 0.846644 -0.53216 0
  outer loop
    vertex 0.03153777398710297 0.0455783592258153 0.02
    vertex 0.02949146235849053 0.04232276213825706 0.015
    vertex 0.03153777398710297 0.0455783592258153 0.009999999999999972
  endloop
endfacet
facet normal 0.846644 -0.53216 0
  outer loop
    vertex 0.02744515072987809 0.03906716505069882 0
    vertex 0.02949146235849053 0.04232276213825706 0.005000000000000001
    vertex 0.02744515072987809 0.03906716505069882 0.01000000000000003
  endloop
endfacet
facet normal 0.846644 -0.53216 0
  outer loop
    vertex 0.02744515072987809 0.03906716505069882 0.01000000000000003
    vertex 0.02949146235849053 0.04232276213825706 0.015
    vertex 0.02744515072987809 0.03906716505069882 0.02
  endloop
endfacet
facet normal 0.846644 -0.53216 0
  outer loop
    vertex 0.03153777398710297 0.0455783592258153 0.009999999999999972
    vertex 0.02949146235849053 0.04232276213825706 0.005000000000000001
    vertex 0.03153777398710297 0.0455783592258153 0
  endloop
endfacet
facet normal 0.846644 -0.53216 5.72722e-16
  outer loop
    vertex 0.03153777398710297 0.0455783592258153 0
    vertex 0.02949146235849053 0.04232276213825706 0.005000000000000001
    vertex 0.02744515072987809 0.03906716505069882 0
  endloop
endfacet
facet normal 0.846644 -0.53216 -6.16778e-16
  outer loop
    vertex 0.02744515072987809 0.03906716505069882 0.02
    vertex 0.02949146235849053 0.04232276213825706 0.015
    vertex 0.03153777398710297 0.0455783592258153 0.02
  endloop
endfacet
facet normal 0.846644 -0.53216 5.72722e-16
  outer loop
    vertex 0.03153777398710297 0.0455783592258153 0.009999999999999972
    vertex 0.02949146235849053 0.04232276213825706 0.015
    vertex 0.02744515072987809 0.03906716505069882 0.01000000000000003
  endloop
endfacet
facet normal 0.846644 -0.53216 -6.16778e-16
  outer loop
    vertex 0.02744515072987809 0.03906716505069882 0.01000000000000003
    vertex 0.02949146235849053 0.04232276213825706 0.005000000000000001
    vertex 0.03153777398710297 0.0455783592258153 0.009999999999999972
  endloop
endfacet
facet normal 0.83092 0.556391 -0
  outer loop
    vertex 0.03180510312660026 0.03255597087558235 0
    vertex 0.02962512692823917 0.03581156796314058 0.004999999999999999
    vertex 0.03180510312660026 0.03255597087558235 0.01000000000000003
  endloop
endfacet
facet normal 0.83092 0.556391 0
  outer loop
    vertex 0.02744515072987809 0.03906716505069882 0.02
    vertex 0.02962512692823917 0.03581156796314058 0.015
    vertex 0.02744515072987809 0.03906716505069882 0.009999999999999972
  endloop
endfacet
facet normal 0.83092 0.556391 0
  outer loop
    vertex 0.02744515072987809 0.03906716505069882 0.009999999999999972
    vertex 0.02962512692823917 0.03581156796314058 0.004999999999999999
    vertex 0.02744515072987809 0.03906716505069882 0
  endloop
endfacet
facet normal 0.83092 0.556391 -0
  outer loop
    vertex 0.03180510312660026 0.03255597087558235 0.01000000000000003
    vertex 0.02962512692823917 0.03581156796314058 0.015
    vertex 0.03180510312660026 0.03255597087558235 0.02
  endloop
endfacet
facet normal 0.83092 0.556391 -1.55654e-15
  outer loop
    vertex 0.03180510312660026 0.03255597087558235 0.01000000000000003
    vertex 0.02962512692823917 0.03581156796314058 0.004999999999999999
    vertex 0.02744515072987809 0.03906716505069882 0.009999999999999972
  endloop
endfacet
facet normal 0.83092 0.556391 1.51331e-15
  outer loop
    vertex 0.02744515072987809 0.03906716505069882 0.009999999999999972
    vertex 0.02962512692823917 0.03581156796314058 0.015
    vertex 0.03180510312660026 0.03255597087558235 0.01000000000000003
  endloop
endfacet
facet normal 0.83092 0.556391 1.51331e-15
  outer loop
    vertex 0.02744515072987809 0.03906716505069882 0
    vertex 0.02962512692823917 0.03581156796314058 0.004999999999999999
    vertex 0.03180510312660026 0.03255597087558235 0
  endloop
endfacet
facet normal 0.83092 0.556391 -1.55654e-15
  outer loop
    vertex 0.03180510312660026 0.03255597087558235 0.02
    vertex 0.02962512692823917 0.03581156796314058 0.015
    vertex 0.02744515072987809 0.03906716505069882 0.02
  endloop
endfacet
facet normal 0.982284 0.187399 -1.3034e-15
  outer loop
    vertex 0.03180510312660026 0.03255597087558235 0.009999999999999972
    vertex 0.03242620053019876 0.02930037378802412 0.015
    vertex 0.03304729793379724 0.02604477670046588 0.01000000000000003
  endloop
endfacet
facet normal 0.982284 0.187399 -1.43118e-15
  outer loop
    vertex 0.03180510312660026 0.03255597087558235 0
    vertex 0.03242620053019876 0.02930037378802412 0.005000000000000001
    vertex 0.03304729793379724 0.02604477670046588 0
  endloop
endfacet
facet normal 0.982284 0.187399 1.3034e-15
  outer loop
    vertex 0.03304729793379724 0.02604477670046588 0.02
    vertex 0.03242620053019876 0.02930037378802412 0.015
    vertex 0.03180510312660026 0.03255597087558235 0.02
  endloop
endfacet
facet normal 0.982284 0.187399 1.43118e-15
  outer loop
    vertex 0.03304729793379724 0.02604477670046588 0.01000000000000003
    vertex 0.03242620053019876 0.02930037378802412 0.005000000000000001
    vertex 0.03180510312660026 0.03255597087558235 0.009999999999999972
  endloop
endfacet
facet normal 0.982284 0.187399 0
  outer loop
    vertex 0.03180510312660026 0.03255597087558235 0.009999999999999972
    vertex 0.03242620053019876 0.02930037378802412 0.005000000000000001
    vertex 0.03180510312660026 0.03255597087558235 0
  endloop
endfacet
facet normal 0.982284 0.187399 0
  outer loop
    vertex 0.03180510312660026 0.03255597087558235 0.02
    vertex 0.03242620053019876 0.02930037378802412 0.015
    vertex 0.03180510312660026 0.03255597087558235 0.009999999999999972
  endloop
endfacet
facet normal 0.982284 0.187399 -0
  outer loop
    vertex 0.03304729793379724 0.02604477670046588 0
    vertex 0.03242620053019876 0.02930037378802412 0.005000000000000001
    vertex 0.03304729793379724 0.02604477670046588 0.01000000000000003
  endloop
endfacet
facet normal 0.982284 0.187399 -0
  outer loop
    vertex 0.03304729793379724 0.02604477670046588 0.01000000000000003
    vertex 0.03242620053019876 0.02930037378802412 0.015
    vertex 0.03304729793379724 0.02604477670046588 0.02
  endloop
endfacet
facet normal 0.842906 -0.538061 0
  outer loop
    vertex 0.03304729793379724 0.02604477670046588 0.02
    vertex 0.03096912003331752 0.02278917961290765 0.015
    vertex 0.03304729793379724 0.02604477670046588 0.009999999999999972
  endloop
endfacet
facet normal 0.842906 -0.538061 0
  outer loop
    vertex 0.02889094213283781 0.01953358252534941 0
    vertex 0.03096912003331752 0.02278917961290765 0.004999999999999999
    vertex 0.02889094213283781 0.01953358252534941 0.01000000000000003
  endloop
endfacet
facet normal 0.842906 -0.538061 0
  outer loop
    vertex 0.03304729793379724 0.02604477670046588 0.009999999999999972
    vertex 0.03096912003331752 0.02278917961290765 0.004999999999999999
    vertex 0.03304729793379724 0.02604477670046588 0
  endloop
endfacet
facet normal 0.842906 -0.538061 0
  outer loop
    vertex 0.02889094213283781 0.01953358252534941 0.01000000000000003
    vertex 0.03096912003331752 0.02278917961290765 0.015
    vertex 0.02889094213283781 0.01953358252534941 0.02
  endloop
endfacet
facet normal 0.842906 -0.538061 7.89499e-16
  outer loop
    vertex 0.03304729793379724 0.02604477670046588 0
    vertex 0.03096912003331752 0.02278917961290765 0.004999999999999999
    vertex 0.02889094213283781 0.01953358252534941 0
  endloop
endfacet
facet normal 0.842906 -0.538061 -7.45638e-16
  outer loop
    vertex 0.02889094213283781 0.01953358252534941 0.02
    vertex 0.03096912003331752 0.02278917961290765 0.015
    vertex 0.03304729793379724 0.02604477670046588 0.02
  endloop
endfacet
facet normal 0.842906 -0.538061 7.89499e-16
  outer loop
    vertex 0.03304729793379724 0.02604477670046588 0.009999999999999972
    vertex 0.03096912003331752 0.02278917961290765 0.015
    vertex 0.02889094213283781 0.01953358252534941 0.01000000000000003
  endloop
endfacet
facet normal 0.842906 -0.538061 -7.45638e-16
  outer loop
    vertex 0.02889094213283781 0.01953358252534941 0.01000000000000003
    vertex 0.03096912003331752 0.02278917961290765 0.004999999999999999
    vertex 0.03304729793379724 0.02604477670046588 0.009999999999999972
  endloop
endfacet
facet normal 0.922912 0.385011 6.72339e-16
  outer loop
    vertex 0.03160721215992846 0.01302238835023294 0.02
    vertex 0.03024907714638314 0.01627798543779118 0.015
    vertex 0.02889094213283781 0.01953358252534941 0.02
  endloop
endfacet
facet normal 0.922912 0.385011 6.72339e-16
  outer loop
    vertex 0.03160721215992846 0.01302238835023294 0.01000000000000003
    vertex 0.03024907714638314 0.01627798543779118 0.005000000000000001
    vertex 0.02889094213283781 0.01953358252534941 0.009999999999999972
  endloop
endfacet
facet normal 0.922912 0.385011 -6.24314e-16
  outer loop
    vertex 0.02889094213283781 0.01953358252534941 0
    vertex 0.03024907714638314 0.01627798543779118 0.005000000000000001
    vertex 0.03160721215992846 0.01302238835023294 0
  endloop
endfacet
facet normal 0.922912 0.385011 -6.24314e-16
  outer loop
    vertex 0.02889094213283781 0.01953358252534941 0.009999999999999972
    vertex 0.03024907714638314 0.01627798543779118 0.015
    vertex 0.03160721215992846 0.01302238835023294 0.01000000000000003
  endloop
endfacet
facet normal 0.922912 0.385011 0
  outer loop
    vertex 0.02889094213283781 0.01953358252534941 0.009999999999999972
    vertex 0.03024907714638314 0.01627798543779118 0.005000000000000001
    vertex 0.02889094213283781 0.01953358252534941 0
  endloop
endfacet
facet normal 0.922912 0.385011 0
  outer loop
    vertex 0.02889094213283781 0.01953358252534941 0.02
    vertex 0.03024907714638314 0.01627798543779118 0.015
    vertex 0.02889094213283781 0.01953358252534941 0.009999999999999972
  endloop
endfacet
facet normal 0.922912 0.385011 -0
  outer loop
    vertex 0.03160721215992846 0.01302238835023294 0
    vertex 0.03024907714638314 0.01627798543779118 0.005000000000000001
    vertex 0.03160721215992846 0.01302238835023294 0.01000000000000003
  endloop
endfacet
facet normal 0.922912 0.385011 -0
  outer loop
    vertex 0.03160721215992846 0.01302238835023294 0.01000000000000003
    vertex 0.03024907714638314 0.01627798543779118 0.015
    vertex 0.03160721215992846 0.01302238835023294 0.02
  endloop
endfacet
facet normal 0.999453 0.0330764 -6.95594e-16
  outer loop
    vertex 0.03182269677994154 0.006511194175116468 0.01000000000000003
    vertex 0.031714954469935 0.009766791262674705 0.005000000000000001
    vertex 0.03160721215992846 0.01302238835023294 0.009999999999999972
  endloop
endfacet
facet normal 0.999453 0.0330764 6.92343e-16
  outer loop
    vertex 0.03160721215992846 0.01302238835023294 0.009999999999999972
    vertex 0.031714954469935 0.009766791262674705 0.015
    vertex 0.03182269677994154 0.006511194175116468 0.01000000000000003
  endloop
endfacet
facet normal 0.999453 0.0330764 -6.95594e-16
  outer loop
    vertex 0.03182269677994154 0.006511194175116468 0.02
    vertex 0.031714954469935 0.009766791262674705 0.015
    vertex 0.03160721215992846 0.01302238835023294 0.02
  endloop
endfacet
facet normal 0.999453 0.0330764 6.92343e-16
  outer loop
    vertex 0.03160721215992846 0.01302238835023294 0
    vertex 0.031714954469935 0.009766791262674705 0.005000000000000001
    vertex 0.03182269677994154 0.006511194175116468 0
  endloop
endfacet
facet normal 0.999453 0.0330764 0
  outer loop
    vertex 0.03160721215992846 0.01302238835023294 0.009999999999999972
    vertex 0.031714954469935 0.009766791262674705 0.005000000000000001
    vertex 0.03160721215992846 0.01302238835023294 0
  endloop
endfacet
facet normal 0.999453 0.0330764 0
  outer loop
    vertex 0.03160721215992846 0.01302238835023294 0.02
    vertex 0.031714954469935 0.009766791262674705 0.015
    vertex 0.03160721215992846 0.01302238835023294 0.009999999999999972
  endloop
endfacet
facet normal 0.999453 0.0330764 -0
  outer loop
    vertex 0.03182269677994154 0.006511194175116468 0
    vertex 0.031714954469935 0.009766791262674705 0.005000000000000001
    vertex 0.03182269677994154 0.006511194175116468 0.01000000000000003
  endloop
endfacet
facet normal 0.999453 0.0330764 -0
  outer loop
    vertex 0.03182269677994154 0.006511194175116468 0.01000000000000003
    vertex 0.031714954469935 0.009766791262674705 0.015
    vertex 0.03182269677994154 0.006511194175116468 0.02
  endloop
endfacet
endsolid Created by Gmsh
