solid Created by Gmsh
facet normal 1 0 0
  outer loop
    vertex 0.04 0.05520355503777147 0.01000000000000003
    vertex 0.04 0.05760177751888573 0.005000000000000001
    vertex 0.04 0.06 0.009999999999999972
  endloop
endfacet
facet normal 1 0 0
  outer loop
    vertex 0.04 0.06 0.009999999999999972
    vertex 0.04 0.05760177751888573 0.015
    vertex 0.04 0.05520355503777147 0.01000000000000003
  endloop
endfacet
facet normal 1 -0 0
  outer loop
    vertex 0.04 0.05520355503777147 0.02
    vertex 0.04 0.05760177751888573 0.015
    vertex 0.04 0.06 0.02
  endloop
endfacet
facet normal 1 0 0
  outer loop
    vertex 0.04 0.06 0
    vertex 0.04 0.05760177751888573 0.005000000000000001
    vertex 0.04 0.05520355503777147 0
  endloop
endfacet
facet normal 1 0 0
  outer loop
    vertex 0.04 0.06 0.009999999999999972
    vertex 0.04 0.05760177751888573 0.005000000000000001
    vertex 0.04 0.06 0
  endloop
endfacet
facet normal 1 0 0
  outer loop
    vertex 0.04 0.06 0.02
    vertex 0.04 0.05760177751888573 0.015
    vertex 0.04 0.06 0.009999999999999972
  endloop
endfacet
facet normal 1 0 0
  outer loop
    vertex 0.04 0.05520355503777147 0
    vertex 0.04 0.05760177751888573 0.005000000000000001
    vertex 0.04 0.05520355503777147 0.01000000000000003
  endloop
endfacet
facet normal 1 0 0
  outer loop
    vertex 0.04 0.05520355503777147 0.01000000000000003
    vertex 0.04 0.05760177751888573 0.015
    vertex 0.04 0.05520355503777147 0.02
  endloop
endfacet
facet normal 0.495176 -0.868793 0
  outer loop
    vertex 0.04 0.05520355503777147 0.02
    vertex 0.03576257429801244 0.05278839950486897 0.015
    vertex 0.04 0.05520355503777147 0.009999999999999972
  endloop
endfacet
facet normal 0.495176 -0.868793 0
  outer loop
    vertex 0.02789306942289266 0.04830311065805003 0
    vertex 0.03213049512488024 0.05071826619095254 0.004999999999999999
    vertex 0.02789306942289266 0.04830311065805003 0.01000000000000003
  endloop
endfacet
facet normal 0.495176 -0.868793 0
  outer loop
    vertex 0.04 0.05520355503777147 0.009999999999999972
    vertex 0.03600471290955459 0.0529264083924634 0.004999999999999991
    vertex 0.04 0.05520355503777147 0
  endloop
endfacet
facet normal 0.495176 -0.868793 0
  outer loop
    vertex 0.02789306942289266 0.04830311065805003 0.01000000000000003
    vertex 0.03188835651333809 0.05058025730335811 0.015
    vertex 0.02789306942289266 0.04830311065805003 0.02
  endloop
endfacet
facet normal 0.495176 -0.868793 -1.11841e-15
  outer loop
    vertex 0.03394653471144633 0.05175333284791075 0
    vertex 0.03213049512488024 0.05071826619095254 0.004999999999999999
    vertex 0.02789306942289266 0.04830311065805003 0
  endloop
endfacet
facet normal 0.495176 -0.868793 2.43132e-16
  outer loop
    vertex 0.03394653471144633 0.05175333284791075 0.02
    vertex 0.03576257429801244 0.05278839950486897 0.015
    vertex 0.04 0.05520355503777147 0.02
  endloop
endfacet
facet normal 0.495176 -0.868793 -6.8077e-16
  outer loop
    vertex 0.04 0.05520355503777147 0
    vertex 0.03600471290955459 0.0529264083924634 0.004999999999999991
    vertex 0.03394653471144633 0.05175333284791075 0
  endloop
endfacet
facet normal 0.495176 -0.868793 6.8077e-16
  outer loop
    vertex 0.02789306942289266 0.04830311065805003 0.02
    vertex 0.03188835651333809 0.05058025730335811 0.015
    vertex 0.03394653471144633 0.05175333284791075 0.02
  endloop
endfacet
facet normal 0.495176 -0.868793 -1.12069e-15
  outer loop
    vertex 0.03394653471144633 0.05175333284791075 0
    vertex 0.03600471290955459 0.0529264083924634 0.004999999999999991
    vertex 0.03213049512488024 0.05071826619095254 0.004999999999999999
  endloop
endfacet
facet normal 0.495176 -0.868793 2.46931e-16
  outer loop
    vertex 0.03394653471144633 0.05175333284791075 0.02
    vertex 0.03188835651333809 0.05058025730335811 0.015
    vertex 0.03576257429801244 0.05278839950486897 0.015
  endloop
endfacet
facet normal 0.495176 -0.868793 4.55873e-16
  outer loop
    vertex 0.03188835651333809 0.05058025730335811 0.015
    vertex 0.03394653471144634 0.05175333284791075 0.009999999999999998
    vertex 0.03576257429801244 0.05278839950486897 0.015
  endloop
endfacet
facet normal 0.495176 -0.868793 -7.59788e-16
  outer loop
    vertex 0.03600471290955459 0.0529264083924634 0.004999999999999991
    vertex 0.03394653471144634 0.05175333284791075 0.009999999999999998
    vertex 0.03213049512488024 0.05071826619095254 0.004999999999999999
  endloop
endfacet
facet normal 0.495176 -0.868793 -1.94506e-16
  outer loop
    vertex 0.02789306942289266 0.04830311065805003 0.01000000000000003
    vertex 0.03394653471144634 0.05175333284791075 0.009999999999999998
    vertex 0.03188835651333809 0.05058025730335811 0.015
  endloop
endfacet
facet normal 0.495176 -0.868793 -1.94506e-16
  outer loop
    vertex 0.03213049512488024 0.05071826619095254 0.004999999999999999
    vertex 0.03394653471144634 0.05175333284791075 0.009999999999999998
    vertex 0.02789306942289266 0.04830311065805003 0.01000000000000003
  endloop
endfacet
facet normal 0.495176 -0.868793 2.18819e-16
  outer loop
    vertex 0.03576257429801244 0.05278839950486897 0.015
    vertex 0.03394653471144634 0.05175333284791075 0.009999999999999998
    vertex 0.04 0.05520355503777147 0.009999999999999972
  endloop
endfacet
facet normal 0.495176 -0.868793 -5.34891e-16
  outer loop
    vertex 0.04 0.05520355503777147 0.009999999999999972
    vertex 0.03394653471144634 0.05175333284791075 0.009999999999999998
    vertex 0.03600471290955459 0.0529264083924634 0.004999999999999991
  endloop
endfacet
facet normal 0.968302 -0.249784 -4.9921e-16
  outer loop
    vertex 0.02789306942289266 0.04830311065805003 0
    vertex 0.02700304790869973 0.04485288846818932 0.005000000000000001
    vertex 0.02611302639450679 0.0414026662783286 0
  endloop
endfacet
facet normal 0.968302 -0.249784 4.9921e-16
  outer loop
    vertex 0.02611302639450679 0.0414026662783286 0.02
    vertex 0.02700304790869973 0.04485288846818932 0.015
    vertex 0.02789306942289266 0.04830311065805003 0.02
  endloop
endfacet
facet normal 0.968302 -0.249784 -4.9921e-16
  outer loop
    vertex 0.02789306942289266 0.04830311065805003 0.009999999999999972
    vertex 0.02700304790869973 0.04485288846818932 0.015
    vertex 0.02611302639450679 0.0414026662783286 0.01000000000000003
  endloop
endfacet
facet normal 0.968302 -0.249784 4.9921e-16
  outer loop
    vertex 0.02611302639450679 0.0414026662783286 0.01000000000000003
    vertex 0.02700304790869973 0.04485288846818932 0.005000000000000001
    vertex 0.02789306942289266 0.04830311065805003 0.009999999999999972
  endloop
endfacet
facet normal 0.968302 -0.249784 0
  outer loop
    vertex 0.02789306942289266 0.04830311065805003 0.009999999999999972
    vertex 0.02700304790869973 0.04485288846818932 0.005000000000000001
    vertex 0.02789306942289266 0.04830311065805003 0
  endloop
endfacet
facet normal 0.968302 -0.249784 0
  outer loop
    vertex 0.02789306942289266 0.04830311065805003 0.02
    vertex 0.02700304790869973 0.04485288846818932 0.015
    vertex 0.02789306942289266 0.04830311065805003 0.009999999999999972
  endloop
endfacet
facet normal 0.968302 -0.249784 0
  outer loop
    vertex 0.02611302639450679 0.0414026662783286 0
    vertex 0.02700304790869973 0.04485288846818932 0.005000000000000001
    vertex 0.02611302639450679 0.0414026662783286 0.01000000000000003
  endloop
endfacet
facet normal 0.968302 -0.249784 0
  outer loop
    vertex 0.02611302639450679 0.0414026662783286 0.01000000000000003
    vertex 0.02700304790869973 0.04485288846818932 0.015
    vertex 0.02611302639450679 0.0414026662783286 0.02
  endloop
endfacet
facet normal 0.983404 0.181428 -1.20713e-16
  outer loop
    vertex 0.02738608793184271 0.03450222189860717 0.01000000000000003
    vertex 0.02674955716317475 0.03795244408846788 0.005
    vertex 0.02611302639450679 0.0414026662783286 0.009999999999999972
  endloop
endfacet
facet normal 0.983404 0.181428 1.20713e-16
  outer loop
    vertex 0.02738608793184271 0.03450222189860717 0.02
    vertex 0.02674955716317475 0.03795244408846789 0.015
    vertex 0.02611302639450679 0.0414026662783286 0.02
  endloop
endfacet
facet normal 0.983404 0.181428 -1.20713e-16
  outer loop
    vertex 0.02611302639450679 0.0414026662783286 0.009999999999999972
    vertex 0.02674955716317475 0.03795244408846789 0.015
    vertex 0.02738608793184271 0.03450222189860717 0.01000000000000003
  endloop
endfacet
facet normal 0.983404 0.181428 1.20713e-16
  outer loop
    vertex 0.02611302639450679 0.0414026662783286 0
    vertex 0.02674955716317475 0.03795244408846788 0.005
    vertex 0.02738608793184271 0.03450222189860717 0
  endloop
endfacet
facet normal 0.983404 0.181428 0
  outer loop
    vertex 0.02611302639450679 0.0414026662783286 0.009999999999999972
    vertex 0.02674955716317475 0.03795244408846788 0.005
    vertex 0.02611302639450679 0.0414026662783286 0
  endloop
endfacet
facet normal 0.983404 0.181428 0
  outer loop
    vertex 0.02611302639450679 0.0414026662783286 0.02
    vertex 0.02674955716317475 0.03795244408846789 0.015
    vertex 0.02611302639450679 0.0414026662783286 0.009999999999999972
  endloop
endfacet
facet normal 0.983404 0.181428 -0
  outer loop
    vertex 0.02738608793184271 0.03450222189860717 0
    vertex 0.02674955716317475 0.03795244408846788 0.005
    vertex 0.02738608793184271 0.03450222189860717 0.01000000000000003
  endloop
endfacet
facet normal 0.983404 0.181428 -0
  outer loop
    vertex 0.02738608793184271 0.03450222189860717 0.01000000000000003
    vertex 0.02674955716317475 0.03795244408846789 0.015
    vertex 0.02738608793184271 0.03450222189860717 0.02
  endloop
endfacet
facet normal 0.990901 -0.134594 0
  outer loop
    vertex 0.02644880294699176 0.02760177751888573 0.01000000000000003
    vertex 0.02691744543941724 0.03105199970874645 0.005
    vertex 0.02738608793184271 0.03450222189860717 0.009999999999999972
  endloop
endfacet
facet normal 0.990901 -0.134594 0
  outer loop
    vertex 0.02738608793184271 0.03450222189860717 0.009999999999999972
    vertex 0.02691744543941724 0.03105199970874645 0.015
    vertex 0.02644880294699176 0.02760177751888573 0.01000000000000003
  endloop
endfacet
facet normal 0.990901 -0.134594 0
  outer loop
    vertex 0.02738608793184271 0.03450222189860717 0
    vertex 0.02691744543941724 0.03105199970874645 0.005
    vertex 0.02644880294699176 0.02760177751888573 0
  endloop
endfacet
facet normal 0.990901 -0.134594 0
  outer loop
    vertex 0.02644880294699176 0.02760177751888573 0.02
    vertex 0.02691744543941724 0.03105199970874645 0.015
    vertex 0.02738608793184271 0.03450222189860717 0.02
  endloop
endfacet
facet normal 0.990901 -0.134594 0
  outer loop
    vertex 0.02738608793184271 0.03450222189860717 0.009999999999999972
    vertex 0.02691744543941724 0.03105199970874645 0.005
    vertex 0.02738608793184271 0.03450222189860717 0
  endloop
endfacet
facet normal 0.990901 -0.134594 0
  outer loop
    vertex 0.02738608793184271 0.03450222189860717 0.02
    vertex 0.02691744543941724 0.03105199970874645 0.015
    vertex 0.02738608793184271 0.03450222189860717 0.009999999999999972
  endloop
endfacet
facet normal 0.990901 -0.134594 0
  outer loop
    vertex 0.02644880294699176 0.02760177751888573 0
    vertex 0.02691744543941724 0.03105199970874645 0.005
    vertex 0.02644880294699176 0.02760177751888573 0.01000000000000003
  endloop
endfacet
facet normal 0.990901 -0.134594 0
  outer loop
    vertex 0.02644880294699176 0.02760177751888573 0.01000000000000003
    vertex 0.02691744543941724 0.03105199970874645 0.015
    vertex 0.02644880294699176 0.02760177751888573 0.02
  endloop
endfacet
facet normal 0.776069 0.630647 0
  outer loop
    vertex 0.02644880294699176 0.02760177751888573 0.02
    vertex 0.02925251287266171 0.02415155532902502 0.015
    vertex 0.02644880294699176 0.02760177751888573 0.009999999999999972
  endloop
endfacet
facet normal 0.776069 0.630647 -0
  outer loop
    vertex 0.03205622279833165 0.0207013331391643 0
    vertex 0.02925251287266171 0.02415155532902502 0.005
    vertex 0.03205622279833165 0.0207013331391643 0.01000000000000003
  endloop
endfacet
facet normal 0.776069 0.630647 0
  outer loop
    vertex 0.02644880294699176 0.02760177751888573 0.009999999999999972
    vertex 0.02925251287266171 0.02415155532902502 0.005
    vertex 0.02644880294699176 0.02760177751888573 0
  endloop
endfacet
facet normal 0.776069 0.630647 -0
  outer loop
    vertex 0.03205622279833165 0.0207013331391643 0.01000000000000003
    vertex 0.02925251287266171 0.02415155532902502 0.015
    vertex 0.03205622279833165 0.0207013331391643 0.02
  endloop
endfacet
facet normal 0.776069 0.630647 -5.33472e-16
  outer loop
    vertex 0.02644880294699176 0.02760177751888573 0.009999999999999972
    vertex 0.02925251287266171 0.02415155532902502 0.015
    vertex 0.03205622279833165 0.0207013331391643 0.01000000000000003
  endloop
endfacet
facet normal 0.776069 0.630647 5.33472e-16
  outer loop
    vertex 0.03205622279833165 0.0207013331391643 0.01000000000000003
    vertex 0.02925251287266171 0.02415155532902502 0.005
    vertex 0.02644880294699176 0.02760177751888573 0.009999999999999972
  endloop
endfacet
facet normal 0.776069 0.630647 -5.33472e-16
  outer loop
    vertex 0.02644880294699176 0.02760177751888573 0
    vertex 0.02925251287266171 0.02415155532902502 0.005
    vertex 0.03205622279833165 0.0207013331391643 0
  endloop
endfacet
facet normal 0.776069 0.630647 5.33472e-16
  outer loop
    vertex 0.03205622279833165 0.0207013331391643 0.02
    vertex 0.02925251287266171 0.02415155532902502 0.015
    vertex 0.02644880294699176 0.02760177751888573 0.02
  endloop
endfacet
facet normal 0.876203 0.481942 0
  outer loop
    vertex 0.03205622279833165 0.0207013331391643 0.02
    vertex 0.03395396431033623 0.01725111094930359 0.015
    vertex 0.03205622279833165 0.0207013331391643 0.009999999999999972
  endloop
endfacet
facet normal 0.876203 0.481942 -0
  outer loop
    vertex 0.0358517058223408 0.01380088875944287 0
    vertex 0.03395396431033623 0.01725111094930359 0.005000000000000001
    vertex 0.0358517058223408 0.01380088875944287 0.01000000000000003
  endloop
endfacet
facet normal 0.876203 0.481942 0
  outer loop
    vertex 0.03205622279833165 0.0207013331391643 0.009999999999999972
    vertex 0.03395396431033623 0.01725111094930359 0.005000000000000001
    vertex 0.03205622279833165 0.0207013331391643 0
  endloop
endfacet
facet normal 0.876203 0.481942 -0
  outer loop
    vertex 0.0358517058223408 0.01380088875944287 0.01000000000000003
    vertex 0.03395396431033623 0.01725111094930359 0.015
    vertex 0.0358517058223408 0.01380088875944287 0.02
  endloop
endfacet
facet normal 0.876203 0.481942 1.54878e-15
  outer loop
    vertex 0.0358517058223408 0.01380088875944287 0.02
    vertex 0.03395396431033623 0.01725111094930359 0.015
    vertex 0.03205622279833165 0.0207013331391643 0.02
  endloop
endfacet
facet normal 0.876203 0.481942 -1.54878e-15
  outer loop
    vertex 0.03205622279833165 0.0207013331391643 0
    vertex 0.03395396431033623 0.01725111094930359 0.005000000000000001
    vertex 0.0358517058223408 0.01380088875944287 0
  endloop
endfacet
facet normal 0.876203 0.481942 -1.54878e-15
  outer loop
    vertex 0.03205622279833165 0.0207013331391643 0.009999999999999972
    vertex 0.03395396431033623 0.01725111094930359 0.015
    vertex 0.0358517058223408 0.01380088875944287 0.01000000000000003
  endloop
endfacet
facet normal 0.876203 0.481942 1.54878e-15
  outer loop
    vertex 0.0358517058223408 0.01380088875944287 0.01000000000000003
    vertex 0.03395396431033623 0.01725111094930359 0.005000000000000001
    vertex 0.03205622279833165 0.0207013331391643 0.009999999999999972
  endloop
endfacet
facet normal 0.656574 -0.754261 2.34735e-16
  outer loop
    vertex 0.02792459207233394 0.006900444379721433 0.02
    vertex 0.03188814894733737 0.01035066656958215 0.01450648773478912
    vertex 0.0358517058223408 0.01380088875944287 0.02
  endloop
endfacet
facet normal 0.656574 -0.754261 -2.33582e-16
  outer loop
    vertex 0.0358517058223408 0.01380088875944287 0
    vertex 0.03188814894733737 0.01035066656958215 0.005520616409829229
    vertex 0.02792459207233394 0.006900444379721433 0
  endloop
endfacet
facet normal 0.656574 -0.754261 0
  outer loop
    vertex 0.0358517058223408 0.01380088875944287 0.009999999999999972
    vertex 0.03188814894733737 0.01035066656958215 0.01450648773478912
    vertex 0.03188814894733737 0.01035066656958215 0.005520616409829229
  endloop
endfacet
facet normal 0.656574 -0.754261 0
  outer loop
    vertex 0.03188814894733737 0.01035066656958215 0.005520616409829229
    vertex 0.03188814894733737 0.01035066656958215 0.01450648773478912
    vertex 0.02792459207233394 0.006900444379721433 0.01000000000000003
  endloop
endfacet
facet normal 0.656574 -0.754261 0
  outer loop
    vertex 0.0358517058223408 0.01380088875944287 0.02
    vertex 0.03188814894733737 0.01035066656958215 0.01450648773478912
    vertex 0.0358517058223408 0.01380088875944287 0.009999999999999972
  endloop
endfacet
facet normal 0.656574 -0.754261 0
  outer loop
    vertex 0.02792459207233394 0.006900444379721433 0
    vertex 0.03188814894733737 0.01035066656958215 0.005520616409829229
    vertex 0.02792459207233394 0.006900444379721433 0.01000000000000003
  endloop
endfacet
facet normal 0.656574 -0.754261 0
  outer loop
    vertex 0.02792459207233394 0.006900444379721433 0.01000000000000003
    vertex 0.03188814894733737 0.01035066656958215 0.01450648773478912
    vertex 0.02792459207233394 0.006900444379721433 0.02
  endloop
endfacet
facet normal 0.656574 -0.754261 0
  outer loop
    vertex 0.0358517058223408 0.01380088875944287 0.009999999999999972
    vertex 0.03188814894733737 0.01035066656958215 0.005520616409829229
    vertex 0.0358517058223408 0.01380088875944287 0
  endloop
endfacet
endsolid Created by Gmsh
