solid Created by Gmsh
facet normal 0.99577 0.0918756 0
  outer loop
    vertex 0.002596399125796562 0.05856556888122783 0.02
    vertex 0.003406939256927078 0.04978073354904363 0.01154087523921043
    vertex 0.002596399125796562 0.05856556888122783 0.009999999999999972
  endloop
endfacet
facet normal 0.99577 0.0918756 -0
  outer loop
    vertex 0.008 0 0
    vertex 0.007189459868869486 0.008784835332184153 0.008459124760789524
    vertex 0.008 0 0.01000000000000003
  endloop
endfacet
facet normal 0.99577 0.0918756 -1.91533e-16
  outer loop
    vertex 0.003677119300637248 0.04685245510498228 0.02
    vertex 0.003406939256927078 0.04978073354904363 0.01154087523921043
    vertex 0.002596399125796562 0.05856556888122783 0.02
  endloop
endfacet
facet normal 0.99577 0.0918756 9.36385e-17
  outer loop
    vertex 0.006919279825159315 0.01171311377624554 0
    vertex 0.007189459868869486 0.008784835332184153 0.008459124760789524
    vertex 0.008 0 0
  endloop
endfacet
facet normal 0.99577 0.0918756 -1.29616e-16
  outer loop
    vertex 0.00583855965031862 0.02342622755249119 0.02
    vertex 0.005298199562898284 0.02928278444061387 0.009999999999999978
    vertex 0.004757839475477935 0.03513934132873672 0.02
  endloop
endfacet
facet normal 0.99577 0.0918756 -1.40412e-16
  outer loop
    vertex 0.006919279825159309 0.01171311377624561 0.02
    vertex 0.006333889730453939 0.01805771707171192 0.009743187460131584
    vertex 0.00583855965031862 0.02342622755249119 0.02
  endloop
endfacet
facet normal 0.99577 0.0918756 -9.60792e-17
  outer loop
    vertex 0.004757839475477935 0.03513934132873672 0.02
    vertex 0.004262509395342623 0.0405078518095159 0.0102568125398684
    vertex 0.003677119300637248 0.04685245510498228 0.02
  endloop
endfacet
facet normal 0.99577 0.0918756 -1.33464e-16
  outer loop
    vertex 0.00583855965031862 0.02342622755249119 0.02
    vertex 0.006333889730453939 0.01805771707171192 0.009743187460131584
    vertex 0.005298199562898284 0.02928278444061387 0.009999999999999978
  endloop
endfacet
facet normal 0.99577 0.0918756 -9.90085e-17
  outer loop
    vertex 0.005298199562898284 0.02928278444061387 0.009999999999999978
    vertex 0.004262509395342623 0.0405078518095159 0.0102568125398684
    vertex 0.004757839475477935 0.03513934132873672 0.02
  endloop
endfacet
facet normal 0.99577 0.0918756 4.43443e-17
  outer loop
    vertex 0.005838559650318627 0.0234262275524911 0
    vertex 0.006333889730453939 0.01805771707171192 0.009743187460131584
    vertex 0.006919279825159315 0.01171311377624554 0
  endloop
endfacet
facet normal 0.99577 0.0918756 1.07512e-16
  outer loop
    vertex 0.004757839475477942 0.03513934132873664 0
    vertex 0.004262509395342623 0.0405078518095159 0.0102568125398684
    vertex 0.005298199562898284 0.02928278444061387 0.009999999999999978
  endloop
endfacet
facet normal 0.99577 0.0918756 1.00813e-16
  outer loop
    vertex 0.004757839475477942 0.03513934132873664 0
    vertex 0.005298199562898284 0.02928278444061387 0.009999999999999978
    vertex 0.005838559650318627 0.0234262275524911 0
  endloop
endfacet
facet normal 0.99577 0.0918756 5.33123e-17
  outer loop
    vertex 0.005298199562898284 0.02928278444061387 0.009999999999999978
    vertex 0.006333889730453939 0.01805771707171192 0.009743187460131584
    vertex 0.005838559650318627 0.0234262275524911 0
  endloop
endfacet
facet normal 0.99577 0.0918756 6.31855e-17
  outer loop
    vertex 0.003677119300637253 0.04685245510498221 0
    vertex 0.004262509395342623 0.0405078518095159 0.0102568125398684
    vertex 0.004757839475477942 0.03513934132873664 0
  endloop
endfacet
facet normal 0.99577 0.0918756 -1.8379e-16
  outer loop
    vertex 0.006919279825159309 0.01171311377624561 0.02
    vertex 0.007189459868869486 0.008784835332184153 0.008459124760789524
    vertex 0.006333889730453939 0.01805771707171192 0.009743187460131584
  endloop
endfacet
facet normal 0.99577 0.0918756 5.71792e-17
  outer loop
    vertex 0.003677119300637253 0.04685245510498221 0
    vertex 0.003406939256927078 0.04978073354904363 0.01154087523921043
    vertex 0.004262509395342623 0.0405078518095159 0.0102568125398684
  endloop
endfacet
facet normal 0.99577 0.0918756 2.44831e-16
  outer loop
    vertex 0.002596399125796562 0.05856556888122783 0
    vertex 0.003094267276330033 0.05316955016285128 0.004999999999999986
    vertex 0.003677119300637253 0.04685245510498221 0
  endloop
endfacet
facet normal 0.99577 0.0918756 -3.60045e-16
  outer loop
    vertex 0.008 0 0.02
    vertex 0.007502131849466524 0.005396018718376562 0.01500000000000002
    vertex 0.006919279825159309 0.01171311377624561 0.02
  endloop
endfacet
facet normal 0.99577 0.0918756 -1.04955e-16
  outer loop
    vertex 0.006919279825159309 0.01171311377624561 0.02
    vertex 0.007502131849466524 0.005396018718376562 0.01500000000000002
    vertex 0.007189459868869486 0.008784835332184153 0.008459124760789524
  endloop
endfacet
facet normal 0.99577 0.0918756 4.70486e-17
  outer loop
    vertex 0.003677119300637253 0.04685245510498221 0
    vertex 0.003094267276330033 0.05316955016285128 0.004999999999999986
    vertex 0.003406939256927078 0.04978073354904363 0.01154087523921043
  endloop
endfacet
facet normal 0.99577 0.0918756 -1.64174e-16
  outer loop
    vertex 0.004262509395342623 0.0405078518095159 0.0102568125398684
    vertex 0.003406939256927078 0.04978073354904363 0.01154087523921043
    vertex 0.003677119300637248 0.04685245510498228 0.02
  endloop
endfacet
facet normal 0.99577 0.0918756 8.20871e-17
  outer loop
    vertex 0.006333889730453939 0.01805771707171192 0.009743187460131584
    vertex 0.007189459868869486 0.008784835332184153 0.008459124760789524
    vertex 0.006919279825159315 0.01171311377624554 0
  endloop
endfacet
facet normal 0.99577 0.0918756 0
  outer loop
    vertex 0.002596399125796562 0.05856556888122783 0.009999999999999972
    vertex 0.003094267276330033 0.05316955016285128 0.004999999999999986
    vertex 0.002596399125796562 0.05856556888122783 0
  endloop
endfacet
facet normal 0.99577 0.0918756 -0
  outer loop
    vertex 0.008 0 0.01000000000000003
    vertex 0.007502131849466524 0.005396018718376562 0.01500000000000002
    vertex 0.008 0 0.02
  endloop
endfacet
facet normal 0.99577 0.0918756 -1.04949e-16
  outer loop
    vertex 0.003406939256927078 0.04978073354904363 0.01154087523921043
    vertex 0.003094267276330033 0.05316955016285128 0.004999999999999986
    vertex 0.002596399125796562 0.05856556888122783 0.009999999999999972
  endloop
endfacet
facet normal 0.99577 0.0918756 1.04949e-16
  outer loop
    vertex 0.007189459868869486 0.008784835332184153 0.008459124760789524
    vertex 0.007502131849466524 0.005396018718376562 0.01500000000000002
    vertex 0.008 0 0.01000000000000003
  endloop
endfacet
endsolid Created by Gmsh
