solid Created by Gmsh
facet normal 0.995988 -0.0894924 1.77397e-16
  outer loop
    vertex 0.009059111935813191 0.01178717369044923 0
    vertex 0.008794333951859891 0.008840380267836918 0.01149852045746501
    vertex 0.008 0 0
  endloop
endfacet
facet normal 0.995988 -0.0894924 -1.8051e-16
  outer loop
    vertex 0.01223644774325276 0.04714869476179685 0.02
    vertex 0.01250122572720605 0.05009548818440914 0.008501479542535011
    vertex 0.01329555967906595 0.05893586845224607 0.02
  endloop
endfacet
facet normal 0.995988 -0.0894924 0
  outer loop
    vertex 0.01329555967906595 0.05893586845224607 0.009999999999999972
    vertex 0.01250122572720605 0.05009548818440914 0.008501479542535011
    vertex 0.01329555967906595 0.05893586845224607 0
  endloop
endfacet
facet normal 0.995988 -0.0894924 0
  outer loop
    vertex 0.008 0 0.01000000000000003
    vertex 0.008794333951859891 0.008840380267836918 0.01149852045746501
    vertex 0.008 0 0.02
  endloop
endfacet
facet normal 0.995988 -0.0894924 3.36752e-16
  outer loop
    vertex 0.01329555967906595 0.05893586845224607 0
    vertex 0.01250122572720605 0.05009548818440914 0.008501479542535011
    vertex 0.01223644774325275 0.0471486947617968 0
  endloop
endfacet
facet normal 0.995988 -0.0894924 -1.85214e-16
  outer loop
    vertex 0.008 0 0.02
    vertex 0.008794333951859891 0.008840380267836918 0.01149852045746501
    vertex 0.009059111935813194 0.01178717369044927 0.02
  endloop
endfacet
facet normal 0.995988 -0.0894924 -2.30433e-16
  outer loop
    vertex 0.01117733580743956 0.03536152107134762 0.02
    vertex 0.01166276211135394 0.04076397567947018 0.009750246590422501
    vertex 0.01223644774325276 0.04714869476179685 0.02
  endloop
endfacet
facet normal 0.995988 -0.0894924 -1.58907e-16
  outer loop
    vertex 0.009632797567711999 0.01817189277277589 0.0102497534095775
    vertex 0.01064777983953297 0.02946793422612303 0.01
    vertex 0.01011822387162638 0.02357434738089843 0.02
  endloop
endfacet
facet normal 0.995988 -0.0894924 -1.78931e-16
  outer loop
    vertex 0.01011822387162638 0.02357434738089843 0.02
    vertex 0.01064777983953297 0.02946793422612303 0.01
    vertex 0.01117733580743956 0.03536152107134762 0.02
  endloop
endfacet
facet normal 0.995988 -0.0894924 3.465e-16
  outer loop
    vertex 0.01011822387162638 0.02357434738089845 0
    vertex 0.01064777983953297 0.02946793422612303 0.01
    vertex 0.009632797567711999 0.01817189277277589 0.0102497534095775
  endloop
endfacet
facet normal 0.995988 -0.0894924 3.42158e-16
  outer loop
    vertex 0.01011822387162638 0.02357434738089845 0
    vertex 0.009632797567711999 0.01817189277277589 0.0102497534095775
    vertex 0.009059111935813191 0.01178717369044923 0
  endloop
endfacet
facet normal 0.995988 -0.0894924 -2.20217e-16
  outer loop
    vertex 0.009059111935813194 0.01178717369044927 0.02
    vertex 0.009632797567711999 0.01817189277277589 0.0102497534095775
    vertex 0.01011822387162638 0.02357434738089843 0.02
  endloop
endfacet
facet normal 0.995988 -0.0894924 2.64817e-16
  outer loop
    vertex 0.01117733580743957 0.03536152107134764 0
    vertex 0.01064777983953297 0.02946793422612303 0.01
    vertex 0.01011822387162638 0.02357434738089845 0
  endloop
endfacet
facet normal 0.995988 -0.0894924 2.78941e-16
  outer loop
    vertex 0.01223644774325275 0.0471486947617968 0
    vertex 0.01166276211135394 0.04076397567947018 0.009750246590422501
    vertex 0.01117733580743957 0.03536152107134764 0
  endloop
endfacet
facet normal 0.995988 -0.0894924 -2.28543e-16
  outer loop
    vertex 0.01117733580743956 0.03536152107134762 0.02
    vertex 0.01064777983953297 0.02946793422612303 0.01
    vertex 0.01166276211135394 0.04076397567947018 0.009750246590422501
  endloop
endfacet
facet normal 0.995988 -0.0894924 2.19443e-16
  outer loop
    vertex 0.01166276211135394 0.04076397567947018 0.009750246590422501
    vertex 0.01064777983953297 0.02946793422612303 0.01
    vertex 0.01117733580743957 0.03536152107134764 0
  endloop
endfacet
facet normal 0.995988 -0.0894924 2.27968e-16
  outer loop
    vertex 0.009632797567711999 0.01817189277277589 0.0102497534095775
    vertex 0.008794333951859891 0.008840380267836918 0.01149852045746501
    vertex 0.009059111935813191 0.01178717369044923 0
  endloop
endfacet
facet normal 0.995988 -0.0894924 -1.87259e-16
  outer loop
    vertex 0.01166276211135394 0.04076397567947018 0.009750246590422501
    vertex 0.01250122572720605 0.05009548818440914 0.008501479542535011
    vertex 0.01223644774325276 0.04714869476179685 0.02
  endloop
endfacet
facet normal 0.995988 -0.0894924 3.32834e-16
  outer loop
    vertex 0.01223644774325275 0.0471486947617968 0
    vertex 0.01250122572720605 0.05009548818440914 0.008501479542535011
    vertex 0.01166276211135394 0.04076397567947018 0.009750246590422501
  endloop
endfacet
facet normal 0.995988 -0.0894924 -1.98176e-16
  outer loop
    vertex 0.009059111935813194 0.01178717369044927 0.02
    vertex 0.008794333951859891 0.008840380267836918 0.01149852045746501
    vertex 0.009632797567711999 0.01817189277277589 0.0102497534095775
  endloop
endfacet
facet normal 0.995988 -0.0894924 0
  outer loop
    vertex 0.008 0 0
    vertex 0.008794333951859891 0.008840380267836918 0.01149852045746501
    vertex 0.008 0 0.01000000000000003
  endloop
endfacet
facet normal 0.995988 -0.0894924 0
  outer loop
    vertex 0.01329555967906595 0.05893586845224607 0.02
    vertex 0.01250122572720605 0.05009548818440914 0.008501479542535011
    vertex 0.01329555967906595 0.05893586845224607 0.009999999999999972
  endloop
endfacet
endsolid Created by Gmsh
