solid Created by Gmsh
facet normal -0.900247 0.43538 9.39886e-16
  outer loop
    vertex 0.03309604541517631 0.0493276274781005 0
    vertex 0.03011404812431142 0.04316167404333794 0
    vertex 0.03160504676974387 0.04624465076071922 0.005
  endloop
endfacet
facet normal -0.900247 0.43538 -9.39886e-16
  outer loop
    vertex 0.03011404812431142 0.04316167404333794 0.02
    vertex 0.03309604541517631 0.0493276274781005 0.02
    vertex 0.03160504676974387 0.04624465076071922 0.015
  endloop
endfacet
facet normal -0.900247 0.43538 9.39886e-16
  outer loop
    vertex 0.03309604541517631 0.0493276274781005 0.009999999999999972
    vertex 0.03011404812431142 0.04316167404333794 0.01000000000000003
    vertex 0.03160504676974387 0.04624465076071922 0.015
  endloop
endfacet
facet normal -0.900247 0.43538 -9.39886e-16
  outer loop
    vertex 0.03011404812431142 0.04316167404333794 0.01000000000000003
    vertex 0.03309604541517631 0.0493276274781005 0.009999999999999972
    vertex 0.03160504676974387 0.04624465076071922 0.005
  endloop
endfacet
facet normal -0.900247 0.43538 0
  outer loop
    vertex 0.03309604541517631 0.0493276274781005 0.009999999999999972
    vertex 0.03309604541517631 0.0493276274781005 0
    vertex 0.03160504676974387 0.04624465076071922 0.005
  endloop
endfacet
facet normal -0.900247 0.43538 0
  outer loop
    vertex 0.03309604541517631 0.0493276274781005 0.02
    vertex 0.03309604541517631 0.0493276274781005 0.009999999999999972
    vertex 0.03160504676974387 0.04624465076071922 0.015
  endloop
endfacet
facet normal -0.900247 0.43538 0
  outer loop
    vertex 0.03011404812431142 0.04316167404333794 0
    vertex 0.03011404812431142 0.04316167404333794 0.01000000000000003
    vertex 0.03160504676974387 0.04624465076071922 0.005
  endloop
endfacet
facet normal -0.900247 0.43538 0
  outer loop
    vertex 0.03011404812431142 0.04316167404333794 0.01000000000000003
    vertex 0.03011404812431142 0.04316167404333794 0.02
    vertex 0.03160504676974387 0.04624465076071922 0.015
  endloop
endfacet
facet normal -0.953939 -0.300001 3.14508e-16
  outer loop
    vertex 0.03011404812431142 0.04316167404333794 0
    vertex 0.03205315774751427 0.03699572060857538 0
    vertex 0.03108360293591285 0.04007869732595666 0.005
  endloop
endfacet
facet normal -0.953939 -0.300001 -3.40717e-16
  outer loop
    vertex 0.03205315774751427 0.03699572060857538 0.02
    vertex 0.03011404812431142 0.04316167404333794 0.02
    vertex 0.03108360293591285 0.04007869732595666 0.015
  endloop
endfacet
facet normal -0.953939 -0.300001 -3.40717e-16
  outer loop
    vertex 0.03205315774751427 0.03699572060857538 0.01000000000000003
    vertex 0.03011404812431142 0.04316167404333794 0.009999999999999972
    vertex 0.03108360293591285 0.04007869732595666 0.005
  endloop
endfacet
facet normal -0.953939 -0.300001 3.14508e-16
  outer loop
    vertex 0.03011404812431142 0.04316167404333794 0.009999999999999972
    vertex 0.03205315774751427 0.03699572060857538 0.01000000000000003
    vertex 0.03108360293591285 0.04007869732595666 0.015
  endloop
endfacet
facet normal -0.953939 -0.300001 -0
  outer loop
    vertex 0.03011404812431142 0.04316167404333794 0.009999999999999972
    vertex 0.03011404812431142 0.04316167404333794 0
    vertex 0.03108360293591285 0.04007869732595666 0.005
  endloop
endfacet
facet normal -0.953939 -0.300001 -0
  outer loop
    vertex 0.03011404812431142 0.04316167404333794 0.02
    vertex 0.03011404812431142 0.04316167404333794 0.009999999999999972
    vertex 0.03108360293591285 0.04007869732595666 0.015
  endloop
endfacet
facet normal -0.953939 -0.300001 0
  outer loop
    vertex 0.03205315774751427 0.03699572060857538 0
    vertex 0.03205315774751427 0.03699572060857538 0.01000000000000003
    vertex 0.03108360293591285 0.04007869732595666 0.005
  endloop
endfacet
facet normal -0.953939 -0.300001 0
  outer loop
    vertex 0.03205315774751427 0.03699572060857538 0.01000000000000003
    vertex 0.03205315774751427 0.03699572060857538 0.02
    vertex 0.03108360293591285 0.04007869732595666 0.015
  endloop
endfacet
facet normal -0.913546 -0.406736 -1.55615e-15
  outer loop
    vertex 0.03205315774751427 0.03699572060857538 0.009999999999999972
    vertex 0.03479840919924794 0.03082976717381281 0.01000000000000003
    vertex 0.0334257834733811 0.03391274389119409 0.015
  endloop
endfacet
facet normal -0.913546 -0.406736 1.55615e-15
  outer loop
    vertex 0.03479840919924794 0.03082976717381281 0.02
    vertex 0.03205315774751427 0.03699572060857538 0.02
    vertex 0.0334257834733811 0.03391274389119409 0.015
  endloop
endfacet
facet normal -0.913546 -0.406736 1.55615e-15
  outer loop
    vertex 0.03479840919924794 0.03082976717381281 0.01000000000000003
    vertex 0.03205315774751427 0.03699572060857538 0.009999999999999972
    vertex 0.0334257834733811 0.03391274389119409 0.005000000000000001
  endloop
endfacet
facet normal -0.913546 -0.406736 -1.55615e-15
  outer loop
    vertex 0.03205315774751427 0.03699572060857538 0
    vertex 0.03479840919924794 0.03082976717381281 0
    vertex 0.0334257834733811 0.03391274389119409 0.005000000000000001
  endloop
endfacet
facet normal -0.913546 -0.406736 -0
  outer loop
    vertex 0.03205315774751427 0.03699572060857538 0.009999999999999972
    vertex 0.03205315774751427 0.03699572060857538 0
    vertex 0.0334257834733811 0.03391274389119409 0.005000000000000001
  endloop
endfacet
facet normal -0.913546 -0.406736 -0
  outer loop
    vertex 0.03205315774751427 0.03699572060857538 0.02
    vertex 0.03205315774751427 0.03699572060857538 0.009999999999999972
    vertex 0.0334257834733811 0.03391274389119409 0.015
  endloop
endfacet
facet normal -0.913546 -0.406736 0
  outer loop
    vertex 0.03479840919924794 0.03082976717381281 0
    vertex 0.03479840919924794 0.03082976717381281 0.01000000000000003
    vertex 0.0334257834733811 0.03391274389119409 0.005000000000000001
  endloop
endfacet
facet normal -0.913546 -0.406736 0
  outer loop
    vertex 0.03479840919924794 0.03082976717381281 0.01000000000000003
    vertex 0.03479840919924794 0.03082976717381281 0.02
    vertex 0.0334257834733811 0.03391274389119409 0.015
  endloop
endfacet
facet normal -0.314493 0.94926 0
  outer loop
    vertex 0.01618718964230186 0.02466381373905025 0.01000000000000003
    vertex 0.01618718964230186 0.02466381373905025 0.02
    vertex 0.02296569182970097 0.02690955205389056 0.01295995024985106
  endloop
endfacet
facet normal -0.314493 0.94926 -3.66281e-16
  outer loop
    vertex 0.03479840919924794 0.03082976717381281 0
    vertex 0.02549279942077488 0.02774679045643152 0
    vertex 0.02767755093717209 0.02847060525402787 0.00754876101513589
  endloop
endfacet
facet normal -0.314493 0.94926 0
  outer loop
    vertex 0.03479840919924794 0.03082976717381281 0.009999999999999972
    vertex 0.03479840919924794 0.03082976717381281 0
    vertex 0.02767755093717209 0.02847060525402787 0.00754876101513589
  endloop
endfacet
facet normal -0.314493 0.94926 2.94562e-16
  outer loop
    vertex 0.01618718964230186 0.02466381373905025 0.02
    vertex 0.02549279942077492 0.02774679045643154 0.02
    vertex 0.02296569182970097 0.02690955205389056 0.01295995024985106
  endloop
endfacet
facet normal -0.314493 0.94926 0
  outer loop
    vertex 0.01618718964230186 0.02466381373905025 0
    vertex 0.01618718964230186 0.02466381373905025 0.01000000000000003
    vertex 0.02129767686926388 0.02635693364309416 0.005472648976131774
  endloop
endfacet
facet normal -0.314493 0.94926 0
  outer loop
    vertex 0.03479840919924794 0.03082976717381281 0.02
    vertex 0.03479840919924794 0.03082976717381281 0.009999999999999972
    vertex 0.02928543152870281 0.02900330096618698 0.01415070758029287
  endloop
endfacet
facet normal -0.314493 0.94926 -5.99966e-16
  outer loop
    vertex 0.02549279942077488 0.02774679045643152 0
    vertex 0.01618718964230186 0.02466381373905025 0
    vertex 0.02129767686926388 0.02635693364309416 0.005472648976131774
  endloop
endfacet
facet normal -0.314493 0.94926 2.06807e-16
  outer loop
    vertex 0.02549279942077492 0.02774679045643154 0.02
    vertex 0.03479840919924794 0.03082976717381281 0.02
    vertex 0.02928543152870281 0.02900330096618698 0.01415070758029287
  endloop
endfacet
facet normal -0.314493 0.94926 2.10598e-16
  outer loop
    vertex 0.01618718964230186 0.02466381373905025 0.01000000000000003
    vertex 0.02296569182970097 0.02690955205389056 0.01295995024985106
    vertex 0.02129767686926388 0.02635693364309416 0.005472648976131774
  endloop
endfacet
facet normal -0.314493 0.94926 1.21345e-16
  outer loop
    vertex 0.02928543152870281 0.02900330096618698 0.01415070758029287
    vertex 0.03479840919924794 0.03082976717381281 0.009999999999999972
    vertex 0.02767755093717209 0.02847060525402787 0.00754876101513589
  endloop
endfacet
facet normal -0.314493 0.94926 1.36111e-16
  outer loop
    vertex 0.02296569182970097 0.02690955205389056 0.01295995024985106
    vertex 0.02767755093717209 0.02847060525402787 0.00754876101513589
    vertex 0.02129767686926388 0.02635693364309416 0.005472648976131774
  endloop
endfacet
facet normal -0.314493 0.94926 -4.42352e-16
  outer loop
    vertex 0.02767755093717209 0.02847060525402787 0.00754876101513589
    vertex 0.02549279942077488 0.02774679045643152 0
    vertex 0.02129767686926388 0.02635693364309416 0.005472648976131774
  endloop
endfacet
facet normal -0.314493 0.94926 1.81785e-16
  outer loop
    vertex 0.02928543152870281 0.02900330096618698 0.01415070758029287
    vertex 0.02767755093717209 0.02847060525402787 0.00754876101513589
    vertex 0.02296569182970097 0.02690955205389056 0.01295995024985106
  endloop
endfacet
facet normal -0.314493 0.94926 2.81056e-16
  outer loop
    vertex 0.02549279942077492 0.02774679045643154 0.02
    vertex 0.02928543152870281 0.02900330096618698 0.01415070758029287
    vertex 0.02296569182970097 0.02690955205389056 0.01295995024985106
  endloop
endfacet
facet normal -0.320986 -0.947084 -7.42953e-16
  outer loop
    vertex 0.01618718964230186 0.02466381373905025 0
    vertex 0.02528366609935259 0.02158083702166897 0
    vertex 0.02329609774335598 0.02225446345215258 0.007596867132830072
  endloop
endfacet
facet normal -0.320986 -0.947084 -0
  outer loop
    vertex 0.01618718964230186 0.02466381373905025 0.009999999999999972
    vertex 0.01618718964230186 0.02466381373905025 0
    vertex 0.02329609774335598 0.02225446345215258 0.007596867132830072
  endloop
endfacet
facet normal -0.320986 -0.947084 0
  outer loop
    vertex 0.03438014255640334 0.01849786030428769 0.01000000000000003
    vertex 0.03438014255640334 0.01849786030428769 0.02
    vertex 0.02765931064755792 0.02077568385434406 0.01303505359337241
  endloop
endfacet
facet normal -0.320986 -0.947084 1.31683e-15
  outer loop
    vertex 0.03438014255640334 0.01849786030428769 0.02
    vertex 0.02528366609935261 0.02158083702166897 0.02
    vertex 0.02765931064755792 0.02077568385434406 0.01303505359337241
  endloop
endfacet
facet normal -0.320986 -0.947084 0
  outer loop
    vertex 0.03438014255640334 0.01849786030428769 0
    vertex 0.03438014255640334 0.01849786030428769 0.01000000000000003
    vertex 0.02983190432787796 0.02003934866297832 0.005000000000000014
  endloop
endfacet
facet normal -0.320986 -0.947084 -0
  outer loop
    vertex 0.01618718964230186 0.02466381373905025 0.02
    vertex 0.01618718964230186 0.02466381373905025 0.009999999999999972
    vertex 0.02162407397131566 0.02282114554982489 0.01417628583256143
  endloop
endfacet
facet normal -0.320986 -0.947084 1.48403e-15
  outer loop
    vertex 0.02528366609935261 0.02158083702166897 0.02
    vertex 0.01618718964230186 0.02466381373905025 0.02
    vertex 0.02162407397131566 0.02282114554982489 0.01417628583256143
  endloop
endfacet
facet normal -0.320986 -0.947084 -1.76378e-15
  outer loop
    vertex 0.02528366609935259 0.02158083702166897 0
    vertex 0.03438014255640334 0.01849786030428769 0
    vertex 0.02983190432787796 0.02003934866297832 0.005000000000000014
  endloop
endfacet
facet normal -0.320986 -0.947084 3.72269e-16
  outer loop
    vertex 0.03438014255640334 0.01849786030428769 0.01000000000000003
    vertex 0.02765931064755792 0.02077568385434406 0.01303505359337241
    vertex 0.02983190432787796 0.02003934866297832 0.005000000000000014
  endloop
endfacet
facet normal -0.320986 -0.947084 -1.96815e-16
  outer loop
    vertex 0.02765931064755792 0.02077568385434406 0.01303505359337241
    vertex 0.02329609774335598 0.02225446345215258 0.007596867132830072
    vertex 0.02983190432787796 0.02003934866297832 0.005000000000000014
  endloop
endfacet
facet normal -0.320986 -0.947084 -7.22385e-16
  outer loop
    vertex 0.02162407397131566 0.02282114554982489 0.01417628583256143
    vertex 0.01618718964230186 0.02466381373905025 0.009999999999999972
    vertex 0.02329609774335598 0.02225446345215258 0.007596867132830072
  endloop
endfacet
facet normal -0.320986 -0.947084 -9.55653e-16
  outer loop
    vertex 0.02329609774335598 0.02225446345215258 0.007596867132830072
    vertex 0.02528366609935259 0.02158083702166897 0
    vertex 0.02983190432787796 0.02003934866297832 0.005000000000000014
  endloop
endfacet
facet normal -0.320986 -0.947084 -5.19949e-16
  outer loop
    vertex 0.02162407397131566 0.02282114554982489 0.01417628583256143
    vertex 0.02329609774335598 0.02225446345215258 0.007596867132830072
    vertex 0.02765931064755792 0.02077568385434406 0.01303505359337241
  endloop
endfacet
facet normal -0.320986 -0.947084 1.36681e-15
  outer loop
    vertex 0.02528366609935261 0.02158083702166897 0.02
    vertex 0.02162407397131566 0.02282114554982489 0.01417628583256143
    vertex 0.02765931064755792 0.02077568385434406 0.01303505359337241
  endloop
endfacet
facet normal -0.571906 0.820319 3.9847e-16
  outer loop
    vertex 0.03438014255640334 0.01849786030428769 0
    vertex 0.02553595366910943 0.01233190686952512 0
    vertex 0.02995804811275639 0.0154148835869064 0.005520616409829229
  endloop
endfacet
facet normal -0.571906 0.820319 -1.71615e-16
  outer loop
    vertex 0.02553595366910943 0.01233190686952512 0.02
    vertex 0.03438014255640334 0.01849786030428769 0.02
    vertex 0.02995804811275639 0.01541488358690641 0.01450648773478912
  endloop
endfacet
facet normal -0.571906 0.820319 -1.58363e-16
  outer loop
    vertex 0.02995804811275639 0.0154148835869064 0.005520616409829229
    vertex 0.02553595366910943 0.01233190686952512 0.01000000000000003
    vertex 0.02995804811275639 0.01541488358690641 0.01450648773478912
  endloop
endfacet
facet normal -0.571906 0.820319 -1.39889e-16
  outer loop
    vertex 0.03438014255640334 0.01849786030428769 0.009999999999999972
    vertex 0.02995804811275639 0.0154148835869064 0.005520616409829229
    vertex 0.02995804811275639 0.01541488358690641 0.01450648773478912
  endloop
endfacet
facet normal -0.571906 0.820319 0
  outer loop
    vertex 0.02553595366910943 0.01233190686952512 0
    vertex 0.02553595366910943 0.01233190686952512 0.01000000000000003
    vertex 0.02995804811275639 0.0154148835869064 0.005520616409829229
  endloop
endfacet
facet normal -0.571906 0.820319 0
  outer loop
    vertex 0.03438014255640334 0.01849786030428769 0.02
    vertex 0.03438014255640334 0.01849786030428769 0.009999999999999972
    vertex 0.02995804811275639 0.01541488358690641 0.01450648773478912
  endloop
endfacet
facet normal -0.571906 0.820319 0
  outer loop
    vertex 0.03438014255640334 0.01849786030428769 0.009999999999999972
    vertex 0.03438014255640334 0.01849786030428769 0
    vertex 0.02995804811275639 0.0154148835869064 0.005520616409829229
  endloop
endfacet
facet normal -0.571906 0.820319 0
  outer loop
    vertex 0.02553595366910943 0.01233190686952512 0.01000000000000003
    vertex 0.02553595366910943 0.01233190686952512 0.02
    vertex 0.02995804811275639 0.01541488358690641 0.01450648773478912
  endloop
endfacet
facet normal -0.96756 -0.25264 6.64581e-16
  outer loop
    vertex 0.02714594872730482 0.006165953434762561 0.02
    vertex 0.02553595366910943 0.01233190686952512 0.02
    vertex 0.02634095119820712 0.009248930152143842 0.015
  endloop
endfacet
facet normal -0.96756 -0.25264 -6.64581e-16
  outer loop
    vertex 0.02553595366910943 0.01233190686952512 0
    vertex 0.02714594872730482 0.006165953434762561 0
    vertex 0.02634095119820712 0.009248930152143842 0.005
  endloop
endfacet
facet normal -0.96756 -0.25264 -6.64581e-16
  outer loop
    vertex 0.02553595366910943 0.01233190686952512 0.009999999999999972
    vertex 0.02714594872730482 0.006165953434762561 0.01000000000000003
    vertex 0.02634095119820712 0.009248930152143842 0.015
  endloop
endfacet
facet normal -0.96756 -0.25264 6.64581e-16
  outer loop
    vertex 0.02714594872730482 0.006165953434762561 0.01000000000000003
    vertex 0.02553595366910943 0.01233190686952512 0.009999999999999972
    vertex 0.02634095119820712 0.009248930152143842 0.005
  endloop
endfacet
facet normal -0.96756 -0.25264 -0
  outer loop
    vertex 0.02553595366910943 0.01233190686952512 0.009999999999999972
    vertex 0.02553595366910943 0.01233190686952512 0
    vertex 0.02634095119820712 0.009248930152143842 0.005
  endloop
endfacet
facet normal -0.96756 -0.25264 -0
  outer loop
    vertex 0.02553595366910943 0.01233190686952512 0.02
    vertex 0.02553595366910943 0.01233190686952512 0.009999999999999972
    vertex 0.02634095119820712 0.009248930152143842 0.015
  endloop
endfacet
facet normal -0.96756 -0.25264 0
  outer loop
    vertex 0.02714594872730482 0.006165953434762561 0
    vertex 0.02714594872730482 0.006165953434762561 0.01000000000000003
    vertex 0.02634095119820712 0.009248930152143842 0.005
  endloop
endfacet
facet normal -0.96756 -0.25264 0
  outer loop
    vertex 0.02714594872730482 0.006165953434762561 0.01000000000000003
    vertex 0.02714594872730482 0.006165953434762561 0.02
    vertex 0.02634095119820712 0.009248930152143842 0.015
  endloop
endfacet
endsolid Created by Gmsh
