solid Created by Gmsh
facet normal -0.531806 -0.846866 -1.85994e-16
  outer loop
    vertex 0.0392337403391046 0.05085968473186515 0
    vertex 0.04463311644784916 0.04746903908307414 0.01000000000000003
    vertex 0.03383436423036004 0.05425033038065616 0.009999999999999972
  endloop
endfacet
facet normal -0.531806 -0.846866 -2.12565e-16
  outer loop
    vertex 0.04463311644784916 0.04746903908307414 0.01000000000000003
    vertex 0.03923374033910459 0.05085968473186515 0.02
    vertex 0.03383436423036004 0.05425033038065616 0.009999999999999972
  endloop
endfacet
facet normal -0.531806 -0.846866 0
  outer loop
    vertex 0.0392337403391046 0.05085968473186515 0
    vertex 0.03383436423036004 0.05425033038065616 0.009999999999999972
    vertex 0.03383436423036004 0.05425033038065616 0
  endloop
endfacet
facet normal -0.531806 -0.846866 0
  outer loop
    vertex 0.03383436423036004 0.05425033038065616 0.009999999999999972
    vertex 0.03923374033910459 0.05085968473186515 0.02
    vertex 0.03383436423036004 0.05425033038065616 0.02
  endloop
endfacet
facet normal -0.531806 -0.846866 -0
  outer loop
    vertex 0.04463311644784916 0.04746903908307414 0.01000000000000003
    vertex 0.0392337403391046 0.05085968473186515 0
    vertex 0.04463311644784916 0.04746903908307414 0
  endloop
endfacet
facet normal -0.531806 -0.846866 0
  outer loop
    vertex 0.03923374033910459 0.05085968473186515 0.02
    vertex 0.04463311644784916 0.04746903908307414 0.01000000000000003
    vertex 0.04463311644784916 0.04746903908307414 0.02
  endloop
endfacet
facet normal -0.647612 0.76197 -5.17705e-16
  outer loop
    vertex 0.04463311644784916 0.04746903908307414 0
    vertex 0.0366543534197219 0.04068774778549212 0
    vertex 0.04064373493378553 0.04407839343428313 0.004999999999999985
  endloop
endfacet
facet normal -0.647612 0.76197 5.82419e-16
  outer loop
    vertex 0.0366543534197219 0.04068774778549212 0.02
    vertex 0.04463311644784916 0.04746903908307414 0.02
    vertex 0.04064373493378553 0.04407839343428313 0.01500000000000001
  endloop
endfacet
facet normal -0.647612 0.76197 0
  outer loop
    vertex 0.04463311644784916 0.04746903908307414 0.009999999999999972
    vertex 0.04064373493378553 0.04407839343428313 0.004999999999999985
    vertex 0.04064373493378553 0.04407839343428313 0.01500000000000001
  endloop
endfacet
facet normal -0.647612 0.76197 0
  outer loop
    vertex 0.04064373493378553 0.04407839343428313 0.004999999999999985
    vertex 0.0366543534197219 0.04068774778549212 0.01000000000000003
    vertex 0.04064373493378553 0.04407839343428313 0.01500000000000001
  endloop
endfacet
facet normal -0.647612 0.76197 0
  outer loop
    vertex 0.04463311644784916 0.04746903908307414 0.02
    vertex 0.04463311644784916 0.04746903908307414 0.009999999999999972
    vertex 0.04064373493378553 0.04407839343428313 0.01500000000000001
  endloop
endfacet
facet normal -0.647612 0.76197 0
  outer loop
    vertex 0.0366543534197219 0.04068774778549212 0
    vertex 0.0366543534197219 0.04068774778549212 0.01000000000000003
    vertex 0.04064373493378553 0.04407839343428313 0.004999999999999985
  endloop
endfacet
facet normal -0.647612 0.76197 0
  outer loop
    vertex 0.04463311644784916 0.04746903908307414 0.009999999999999972
    vertex 0.04463311644784916 0.04746903908307414 0
    vertex 0.04064373493378553 0.04407839343428313 0.004999999999999985
  endloop
endfacet
facet normal -0.647612 0.76197 0
  outer loop
    vertex 0.0366543534197219 0.04068774778549212 0.01000000000000003
    vertex 0.0366543534197219 0.04068774778549212 0.02
    vertex 0.04064373493378553 0.04407839343428313 0.01500000000000001
  endloop
endfacet
facet normal -0.999952 -0.00982964 6.24506e-18
  outer loop
    vertex 0.03672101425931555 0.0339064564879101 0.01000000000000003
    vertex 0.0366543534197219 0.04068774778549212 0.009999999999999972
    vertex 0.03668768383951872 0.03729710213670111 0.005
  endloop
endfacet
facet normal -0.999952 -0.00982964 -7.0257e-18
  outer loop
    vertex 0.0366543534197219 0.04068774778549212 0.009999999999999972
    vertex 0.03672101425931555 0.0339064564879101 0.01000000000000003
    vertex 0.03668768383951872 0.03729710213670111 0.015
  endloop
endfacet
facet normal -0.999952 -0.00982964 -7.0257e-18
  outer loop
    vertex 0.0366543534197219 0.04068774778549212 0
    vertex 0.03672101425931555 0.0339064564879101 0
    vertex 0.03668768383951872 0.03729710213670111 0.005
  endloop
endfacet
facet normal -0.999952 -0.00982964 6.24506e-18
  outer loop
    vertex 0.03672101425931555 0.0339064564879101 0.02
    vertex 0.0366543534197219 0.04068774778549212 0.02
    vertex 0.03668768383951872 0.03729710213670111 0.015
  endloop
endfacet
facet normal -0.999952 -0.00982964 -0
  outer loop
    vertex 0.0366543534197219 0.04068774778549212 0.009999999999999972
    vertex 0.0366543534197219 0.04068774778549212 0
    vertex 0.03668768383951872 0.03729710213670111 0.005
  endloop
endfacet
facet normal -0.999952 -0.00982964 -0
  outer loop
    vertex 0.0366543534197219 0.04068774778549212 0.02
    vertex 0.0366543534197219 0.04068774778549212 0.009999999999999972
    vertex 0.03668768383951872 0.03729710213670111 0.015
  endloop
endfacet
facet normal -0.999952 -0.00982964 0
  outer loop
    vertex 0.03672101425931555 0.0339064564879101 0
    vertex 0.03672101425931555 0.0339064564879101 0.01000000000000003
    vertex 0.03668768383951872 0.03729710213670111 0.005
  endloop
endfacet
facet normal -0.999952 -0.00982964 0
  outer loop
    vertex 0.03672101425931555 0.0339064564879101 0.01000000000000003
    vertex 0.03672101425931555 0.0339064564879101 0.02
    vertex 0.03668768383951872 0.03729710213670111 0.015
  endloop
endfacet
facet normal -0.92369 0.38314 6.46104e-16
  outer loop
    vertex 0.03672101425931555 0.0339064564879101 0
    vertex 0.03390818446053619 0.02712516519032808 0
    vertex 0.03531459935992588 0.03051581083911909 0.005
  endloop
endfacet
facet normal -0.92369 0.38314 6.46104e-16
  outer loop
    vertex 0.03672101425931555 0.0339064564879101 0.009999999999999972
    vertex 0.03390818446053619 0.02712516519032808 0.01000000000000003
    vertex 0.03531459935992588 0.03051581083911909 0.015
  endloop
endfacet
facet normal -0.92369 0.38314 -6.46104e-16
  outer loop
    vertex 0.03390818446053619 0.02712516519032808 0.01000000000000003
    vertex 0.03672101425931555 0.0339064564879101 0.009999999999999972
    vertex 0.03531459935992588 0.03051581083911909 0.005
  endloop
endfacet
facet normal -0.92369 0.38314 -6.46104e-16
  outer loop
    vertex 0.03390818446053619 0.02712516519032808 0.02
    vertex 0.03672101425931555 0.0339064564879101 0.02
    vertex 0.03531459935992588 0.03051581083911909 0.015
  endloop
endfacet
facet normal -0.92369 0.38314 0
  outer loop
    vertex 0.03672101425931555 0.0339064564879101 0.009999999999999972
    vertex 0.03672101425931555 0.0339064564879101 0
    vertex 0.03531459935992588 0.03051581083911909 0.005
  endloop
endfacet
facet normal -0.92369 0.38314 0
  outer loop
    vertex 0.03672101425931555 0.0339064564879101 0.02
    vertex 0.03672101425931555 0.0339064564879101 0.009999999999999972
    vertex 0.03531459935992588 0.03051581083911909 0.015
  endloop
endfacet
facet normal -0.92369 0.38314 0
  outer loop
    vertex 0.03390818446053619 0.02712516519032808 0
    vertex 0.03390818446053619 0.02712516519032808 0.01000000000000003
    vertex 0.03531459935992588 0.03051581083911909 0.005
  endloop
endfacet
facet normal -0.92369 0.38314 0
  outer loop
    vertex 0.03390818446053619 0.02712516519032808 0.01000000000000003
    vertex 0.03390818446053619 0.02712516519032808 0.02
    vertex 0.03531459935992588 0.03051581083911909 0.015
  endloop
endfacet
facet normal -0.835041 -0.550188 0
  outer loop
    vertex 0.03837621594530805 0.02034387389274606 0
    vertex 0.03837621594530805 0.02034387389274606 0.01000000000000003
    vertex 0.03614220020292212 0.02373451954153706 0.005
  endloop
endfacet
facet normal -0.835041 -0.550188 -0
  outer loop
    vertex 0.03390818446053619 0.02712516519032808 0.02
    vertex 0.03390818446053619 0.02712516519032808 0.009999999999999972
    vertex 0.03614220020292212 0.02373451954153706 0.015
  endloop
endfacet
facet normal -0.835041 -0.550188 0
  outer loop
    vertex 0.03837621594530805 0.02034387389274606 0.01000000000000003
    vertex 0.03837621594530805 0.02034387389274606 0.02
    vertex 0.03614220020292212 0.02373451954153706 0.015
  endloop
endfacet
facet normal -0.835041 -0.550188 -0
  outer loop
    vertex 0.03390818446053619 0.02712516519032808 0.009999999999999972
    vertex 0.03390818446053619 0.02712516519032808 0
    vertex 0.03614220020292212 0.02373451954153706 0.005
  endloop
endfacet
facet normal -0.835041 -0.550188 -9.59585e-16
  outer loop
    vertex 0.03390818446053619 0.02712516519032808 0
    vertex 0.03837621594530805 0.02034387389274606 0
    vertex 0.03614220020292212 0.02373451954153706 0.005
  endloop
endfacet
facet normal -0.835041 -0.550188 -9.59585e-16
  outer loop
    vertex 0.03390818446053619 0.02712516519032808 0.009999999999999972
    vertex 0.03837621594530805 0.02034387389274606 0.01000000000000003
    vertex 0.03614220020292212 0.02373451954153706 0.015
  endloop
endfacet
facet normal -0.835041 -0.550188 9.59585e-16
  outer loop
    vertex 0.03837621594530805 0.02034387389274606 0.01000000000000003
    vertex 0.03390818446053619 0.02712516519032808 0.009999999999999972
    vertex 0.03614220020292212 0.02373451954153706 0.005
  endloop
endfacet
facet normal -0.835041 -0.550188 9.59585e-16
  outer loop
    vertex 0.03837621594530805 0.02034387389274606 0.02
    vertex 0.03390818446053619 0.02712516519032808 0.02
    vertex 0.03614220020292212 0.02373451954153706 0.015
  endloop
endfacet
facet normal -0.800563 -0.599249 -0
  outer loop
    vertex 0.03837621594530805 0.02034387389274606 0.02
    vertex 0.03837621594530805 0.02034387389274606 0.009999999999999972
    vertex 0.04091422898927384 0.01695322824395504 0.015
  endloop
endfacet
facet normal -0.800563 -0.599249 0
  outer loop
    vertex 0.04345224203323965 0.01356258259516404 0
    vertex 0.04345224203323965 0.01356258259516404 0.01000000000000003
    vertex 0.04091422898927384 0.01695322824395504 0.004999999999999999
  endloop
endfacet
facet normal -0.800563 -0.599249 -0
  outer loop
    vertex 0.03837621594530805 0.02034387389274606 0.009999999999999972
    vertex 0.03837621594530805 0.02034387389274606 0
    vertex 0.04091422898927384 0.01695322824395504 0.004999999999999999
  endloop
endfacet
facet normal -0.800563 -0.599249 0
  outer loop
    vertex 0.04345224203323965 0.01356258259516404 0.01000000000000003
    vertex 0.04345224203323965 0.01356258259516404 0.02
    vertex 0.04091422898927384 0.01695322824395504 0.015
  endloop
endfacet
facet normal -0.800563 -0.599249 1.51994e-15
  outer loop
    vertex 0.04345224203323965 0.01356258259516404 0.01000000000000003
    vertex 0.03837621594530805 0.02034387389274606 0.009999999999999972
    vertex 0.04091422898927384 0.01695322824395504 0.004999999999999999
  endloop
endfacet
facet normal -0.800563 -0.599249 -1.51994e-15
  outer loop
    vertex 0.03837621594530805 0.02034387389274606 0.009999999999999972
    vertex 0.04345224203323965 0.01356258259516404 0.01000000000000003
    vertex 0.04091422898927384 0.01695322824395504 0.015
  endloop
endfacet
facet normal -0.800563 -0.599249 -1.51994e-15
  outer loop
    vertex 0.03837621594530805 0.02034387389274606 0
    vertex 0.04345224203323965 0.01356258259516404 0
    vertex 0.04091422898927384 0.01695322824395504 0.004999999999999999
  endloop
endfacet
facet normal -0.800563 -0.599249 1.51994e-15
  outer loop
    vertex 0.04345224203323965 0.01356258259516404 0.02
    vertex 0.03837621594530805 0.02034387389274606 0.02
    vertex 0.04091422898927384 0.01695322824395504 0.015
  endloop
endfacet
facet normal -0.635628 0.771996 7.51526e-16
  outer loop
    vertex 0.04345224203323965 0.01356258259516404 0
    vertex 0.03521608578058721 0.006781291297582023 0
    vertex 0.03933416390691342 0.01017193694637302 0.005493512265210899
  endloop
endfacet
facet normal -0.635628 0.771996 -8.05362e-16
  outer loop
    vertex 0.03521608578058721 0.006781291297582023 0.02
    vertex 0.04345224203323965 0.01356258259516404 0.02
    vertex 0.03933416390691345 0.01017193694637304 0.01447938359017075
  endloop
endfacet
facet normal -0.635628 0.771996 0
  outer loop
    vertex 0.04345224203323965 0.01356258259516404 0.02
    vertex 0.04345224203323965 0.01356258259516404 0.009999999999999972
    vertex 0.03933416390691345 0.01017193694637304 0.01447938359017075
  endloop
endfacet
facet normal -0.635628 0.771996 0
  outer loop
    vertex 0.03521608578058721 0.006781291297582023 0
    vertex 0.03521608578058721 0.006781291297582023 0.01000000000000003
    vertex 0.03933416390691342 0.01017193694637302 0.005493512265210899
  endloop
endfacet
facet normal -0.635628 0.771996 0
  outer loop
    vertex 0.04345224203323965 0.01356258259516404 0.009999999999999972
    vertex 0.04345224203323965 0.01356258259516404 0
    vertex 0.03933416390691342 0.01017193694637302 0.005493512265210899
  endloop
endfacet
facet normal -0.635628 0.771996 0
  outer loop
    vertex 0.03521608578058721 0.006781291297582023 0.01000000000000003
    vertex 0.03521608578058721 0.006781291297582023 0.02
    vertex 0.03933416390691345 0.01017193694637304 0.01447938359017075
  endloop
endfacet
facet normal -0.635628 0.771996 2.58873e-17
  outer loop
    vertex 0.03933416390691345 0.01017193694637304 0.01447938359017075
    vertex 0.04345224203323965 0.01356258259516404 0.009999999999999972
    vertex 0.03933416390691342 0.01017193694637302 0.005493512265210899
  endloop
endfacet
facet normal -0.635628 0.771996 3.53419e-17
  outer loop
    vertex 0.03521608578058721 0.006781291297582023 0.01000000000000003
    vertex 0.03933416390691345 0.01017193694637304 0.01447938359017075
    vertex 0.03933416390691342 0.01017193694637302 0.005493512265210899
  endloop
endfacet
endsolid Created by Gmsh
