solid Created by Gmsh
facet normal 0.999996 0.00276092 -1.23397e-17
  outer loop
    vertex 0.007873621393390363 0.04577396549004045 0.02
    vertex 0.007865748103149578 0.04862564842470003 0.00828437886935895
    vertex 0.007842026741737954 0.05721745686255057 0.02
  endloop
endfacet
facet normal 0.999996 0.00276092 0
  outer loop
    vertex 0.007842026741737954 0.05721745686255057 0.009999999999999972
    vertex 0.007865748103149578 0.04862564842470003 0.00828437886935895
    vertex 0.007842026741737954 0.05721745686255057 0
  endloop
endfacet
facet normal 0.999996 0.00276092 -0
  outer loop
    vertex 0.008 0 0
    vertex 0.007976278638588376 0.008591808437850536 0.008284378869358958
    vertex 0.008 0 0.01000000000000003
  endloop
endfacet
facet normal 0.999996 0.00276092 1.39605e-17
  outer loop
    vertex 0.007842026741737954 0.05721745686255057 0
    vertex 0.007865748103149578 0.04862564842470003 0.00828437886935895
    vertex 0.007873621393390363 0.04577396549004044 0
  endloop
endfacet
facet normal 0.999996 0.00276092 -1.29832e-17
  outer loop
    vertex 0.007968405348347592 0.01144349137251012 0
    vertex 0.007976278638588376 0.008591808437850536 0.008284378869358958
    vertex 0.008 0 0
  endloop
endfacet
facet normal 0.999996 0.00276092 -3.72023e-17
  outer loop
    vertex 0.007936810696695181 0.02288698274502025 0
    vertex 0.007951287349923817 0.01764358085069776 0.009699393755620792
    vertex 0.007968405348347592 0.01144349137251012 0
  endloop
endfacet
facet normal 0.999996 0.00276092 4.12564e-17
  outer loop
    vertex 0.007873621393390363 0.04577396549004044 0
    vertex 0.007890739391814137 0.03957387601185281 0.009699393755620792
    vertex 0.007905216045042773 0.03433047411753035 0
  endloop
endfacet
facet normal 0.999996 0.00276092 3.89792e-18
  outer loop
    vertex 0.007936810696695181 0.02288698274502022 0.02
    vertex 0.007921013370868977 0.02860872843127528 0.009911983664365801
    vertex 0.007905216045042773 0.03433047411753032 0.02
  endloop
endfacet
facet normal 0.999996 0.00276092 -5.65255e-17
  outer loop
    vertex 0.007936810696695181 0.02288698274502025 0
    vertex 0.007921013370868977 0.02860872843127528 0.009911983664365801
    vertex 0.007951287349923817 0.01764358085069776 0.009699393755620792
  endloop
endfacet
facet normal 0.999996 0.00276092 6.72395e-17
  outer loop
    vertex 0.007890739391814137 0.03957387601185281 0.009699393755620792
    vertex 0.007921013370868977 0.02860872843127528 0.009911983664365801
    vertex 0.007905216045042773 0.03433047411753035 0
  endloop
endfacet
facet normal 0.999996 0.00276092 6.39061e-17
  outer loop
    vertex 0.007951287349923817 0.01764358085069776 0.009699393755620792
    vertex 0.007921013370868977 0.02860872843127528 0.009911983664365801
    vertex 0.007936810696695181 0.02288698274502022 0.02
  endloop
endfacet
facet normal 0.999996 0.00276092 -5.5267e-17
  outer loop
    vertex 0.007905216045042773 0.03433047411753032 0.02
    vertex 0.007921013370868977 0.02860872843127528 0.009911983664365801
    vertex 0.007890739391814137 0.03957387601185281 0.009699393755620792
  endloop
endfacet
facet normal 0.999996 0.00276092 5.83404e-18
  outer loop
    vertex 0.007905216045042773 0.03433047411753035 0
    vertex 0.007921013370868977 0.02860872843127528 0.009911983664365801
    vertex 0.007936810696695181 0.02288698274502025 0
  endloop
endfacet
facet normal 0.999996 0.00276092 -3.54801e-17
  outer loop
    vertex 0.007905216045042773 0.03433047411753032 0.02
    vertex 0.007890739391814137 0.03957387601185281 0.009699393755620792
    vertex 0.007873621393390363 0.04577396549004045 0.02
  endloop
endfacet
facet normal 0.999996 0.00276092 3.88484e-17
  outer loop
    vertex 0.007968405348347592 0.01144349137251013 0.02
    vertex 0.007951287349923817 0.01764358085069776 0.009699393755620792
    vertex 0.007936810696695181 0.02288698274502022 0.02
  endloop
endfacet
facet normal 0.999996 0.00276092 6.05074e-17
  outer loop
    vertex 0.007968405348347592 0.01144349137251013 0.02
    vertex 0.00798490990444002 0.00546558893102456 0.01500000000000001
    vertex 0.007976278638588376 0.008591808437850536 0.008284378869358958
  endloop
endfacet
facet normal 0.999996 0.00276092 6.74638e-18
  outer loop
    vertex 0.007890739391814137 0.03957387601185281 0.009699393755620792
    vertex 0.007865748103149578 0.04862564842470003 0.00828437886935895
    vertex 0.007873621393390363 0.04577396549004045 0.02
  endloop
endfacet
facet normal 0.999996 0.00276092 -1.1871e-17
  outer loop
    vertex 0.007968405348347592 0.01144349137251013 0.02
    vertex 0.007976278638588376 0.008591808437850536 0.008284378869358958
    vertex 0.007951287349923817 0.01764358085069776 0.009699393755620792
  endloop
endfacet
facet normal 0.999996 0.00276092 -2.00312e-16
  outer loop
    vertex 0.008 0 0.02
    vertex 0.00798490990444002 0.00546558893102456 0.01500000000000001
    vertex 0.007968405348347592 0.01144349137251013 0.02
  endloop
endfacet
facet normal 0.999996 0.00276092 1.20585e-17
  outer loop
    vertex 0.007951287349923817 0.01764358085069776 0.009699393755620792
    vertex 0.007976278638588376 0.008591808437850536 0.008284378869358958
    vertex 0.007968405348347592 0.01144349137251012 0
  endloop
endfacet
facet normal 0.999996 0.00276092 -1.30634e-17
  outer loop
    vertex 0.007873621393390363 0.04577396549004044 0
    vertex 0.007865748103149578 0.04862564842470003 0.00828437886935895
    vertex 0.007890739391814137 0.03957387601185281 0.009699393755620792
  endloop
endfacet
facet normal 0.999996 0.00276092 -0
  outer loop
    vertex 0.008 0 0.01000000000000003
    vertex 0.00798490990444002 0.00546558893102456 0.01500000000000001
    vertex 0.008 0 0.02
  endloop
endfacet
facet normal 0.999996 0.00276092 1.73477e-16
  outer loop
    vertex 0.007976278638588376 0.008591808437850536 0.008284378869358958
    vertex 0.00798490990444002 0.00546558893102456 0.01500000000000001
    vertex 0.008 0 0.01000000000000003
  endloop
endfacet
facet normal 0.999996 0.00276092 0
  outer loop
    vertex 0.007842026741737954 0.05721745686255057 0.02
    vertex 0.007865748103149578 0.04862564842470003 0.00828437886935895
    vertex 0.007842026741737954 0.05721745686255057 0.009999999999999972
  endloop
endfacet
endsolid Created by Gmsh
