solid Created by Gmsh
facet normal 1 0 0
  outer loop
    vertex 0.04 0.05662231783557501 0
    vertex 0.04 0.06 0
    vertex 0.04 0.06 0.009999999999999972
  endloop
endfacet
facet normal 1 0 0
  outer loop
    vertex 0.04 0.05662231783557501 0.01000000000000003
    vertex 0.04 0.06 0.02
    vertex 0.04 0.05662231783557501 0.02
  endloop
endfacet
facet normal 1 0 -0
  outer loop
    vertex 0.04 0.06 0.009999999999999972
    vertex 0.04 0.06 0.02
    vertex 0.04 0.05662231783557501 0.01000000000000003
  endloop
endfacet
facet normal 1 0 0
  outer loop
    vertex 0.04 0.05662231783557501 0
    vertex 0.04 0.06 0.009999999999999972
    vertex 0.04 0.05662231783557501 0.01000000000000003
  endloop
endfacet
facet normal 0.982345 0.187078 -6.81859e-16
  outer loop
    vertex 0.04134789868569652 0.04954452810612813 0.01000000000000003
    vertex 0.04067394934284826 0.05308342297085157 0.004999999999999999
    vertex 0.04 0.05662231783557501 0.009999999999999972
  endloop
endfacet
facet normal 0.982345 0.187078 -6.81859e-16
  outer loop
    vertex 0.04134789868569652 0.04954452810612813 0.02
    vertex 0.04067394934284826 0.05308342297085157 0.015
    vertex 0.04 0.05662231783557501 0.02
  endloop
endfacet
facet normal 0.982345 0.187078 6.81859e-16
  outer loop
    vertex 0.04 0.05662231783557501 0.009999999999999972
    vertex 0.04067394934284826 0.05308342297085157 0.015
    vertex 0.04134789868569652 0.04954452810612813 0.01000000000000003
  endloop
endfacet
facet normal 0.982345 0.187078 6.81859e-16
  outer loop
    vertex 0.04 0.05662231783557501 0
    vertex 0.04067394934284826 0.05308342297085157 0.004999999999999999
    vertex 0.04134789868569652 0.04954452810612813 0
  endloop
endfacet
facet normal 0.982345 0.187078 0
  outer loop
    vertex 0.04 0.05662231783557501 0.009999999999999972
    vertex 0.04067394934284826 0.05308342297085157 0.004999999999999999
    vertex 0.04 0.05662231783557501 0
  endloop
endfacet
facet normal 0.982345 0.187078 0
  outer loop
    vertex 0.04 0.05662231783557501 0.02
    vertex 0.04067394934284826 0.05308342297085157 0.015
    vertex 0.04 0.05662231783557501 0.009999999999999972
  endloop
endfacet
facet normal 0.982345 0.187078 -0
  outer loop
    vertex 0.04134789868569652 0.04954452810612813 0
    vertex 0.04067394934284826 0.05308342297085157 0.004999999999999999
    vertex 0.04134789868569652 0.04954452810612813 0.01000000000000003
  endloop
endfacet
facet normal 0.982345 0.187078 -0
  outer loop
    vertex 0.04134789868569652 0.04954452810612813 0.01000000000000003
    vertex 0.04067394934284826 0.05308342297085157 0.015
    vertex 0.04134789868569652 0.04954452810612813 0.02
  endloop
endfacet
facet normal 0.370003 -0.929031 1.86283e-16
  outer loop
    vertex 0.02357646829420765 0.04246673837668126 0.02
    vertex 0.03055110571049204 0.04524451236471294 0.01239349639254313
    vertex 0.0324621834899521 0.0460056332414047 0.02
  endloop
endfacet
facet normal 0.370003 -0.929031 0
  outer loop
    vertex 0.02357646829420765 0.04246673837668126 0.01000000000000003
    vertex 0.03055110571049204 0.04524451236471294 0.01239349639254313
    vertex 0.02357646829420765 0.04246673837668126 0.02
  endloop
endfacet
facet normal 0.370003 -0.929031 0
  outer loop
    vertex 0.04134789868569652 0.04954452810612813 0.009999999999999972
    vertex 0.03479530052844182 0.04693483879486024 0.006955796444591471
    vertex 0.04134789868569652 0.04954452810612813 0
  endloop
endfacet
facet normal 0.370003 -0.929031 -6.11128e-16
  outer loop
    vertex 0.04134789868569652 0.04954452810612813 0
    vertex 0.03479530052844182 0.04693483879486024 0.006955796444591471
    vertex 0.03246218348995207 0.04600563324140469 0
  endloop
endfacet
facet normal 0.370003 -0.929031 0
  outer loop
    vertex 0.04134789868569652 0.04954452810612813 0.02
    vertex 0.03690504108782432 0.04777508067376642 0.01499999999999999
    vertex 0.04134789868569652 0.04954452810612813 0.009999999999999972
  endloop
endfacet
facet normal 0.370003 -0.929031 0
  outer loop
    vertex 0.02357646829420765 0.04246673837668126 0
    vertex 0.02889718345968606 0.0445858082726853 0.005818564060969838
    vertex 0.02357646829420765 0.04246673837668126 0.01000000000000003
  endloop
endfacet
facet normal 0.370003 -0.929031 4.95936e-16
  outer loop
    vertex 0.0324621834899521 0.0460056332414047 0.02
    vertex 0.03690504108782432 0.04777508067376642 0.01499999999999999
    vertex 0.04134789868569652 0.04954452810612813 0.02
  endloop
endfacet
facet normal 0.370003 -0.929031 -2.43524e-16
  outer loop
    vertex 0.03246218348995207 0.04600563324140469 0
    vertex 0.02889718345968606 0.0445858082726853 0.005818564060969838
    vertex 0.02357646829420765 0.04246673837668126 0
  endloop
endfacet
facet normal 0.370003 -0.929031 -2.38007e-16
  outer loop
    vertex 0.04134789868569652 0.04954452810612813 0.009999999999999972
    vertex 0.03690504108782432 0.04777508067376642 0.01499999999999999
    vertex 0.03479530052844182 0.04693483879486024 0.006955796444591471
  endloop
endfacet
facet normal 0.370003 -0.929031 -9.48859e-17
  outer loop
    vertex 0.03479530052844182 0.04693483879486024 0.006955796444591471
    vertex 0.03690504108782432 0.04777508067376642 0.01499999999999999
    vertex 0.03055110571049204 0.04524451236471294 0.01239349639254313
  endloop
endfacet
facet normal 0.370003 -0.929031 -3.38063e-16
  outer loop
    vertex 0.02889718345968606 0.0445858082726853 0.005818564060969838
    vertex 0.03055110571049204 0.04524451236471294 0.01239349639254313
    vertex 0.02357646829420765 0.04246673837668126 0.01000000000000003
  endloop
endfacet
facet normal 0.370003 -0.929031 1.63374e-16
  outer loop
    vertex 0.03055110571049204 0.04524451236471294 0.01239349639254313
    vertex 0.03690504108782432 0.04777508067376642 0.01499999999999999
    vertex 0.0324621834899521 0.0460056332414047 0.02
  endloop
endfacet
facet normal 0.370003 -0.929031 -3.19896e-16
  outer loop
    vertex 0.02889718345968606 0.0445858082726853 0.005818564060969838
    vertex 0.03479530052844182 0.04693483879486024 0.006955796444591471
    vertex 0.03055110571049204 0.04524451236471294 0.01239349639254313
  endloop
endfacet
facet normal 0.370003 -0.929031 -5.43441e-16
  outer loop
    vertex 0.03246218348995207 0.04600563324140469 0
    vertex 0.03479530052844182 0.04693483879486024 0.006955796444591471
    vertex 0.02889718345968606 0.0445858082726853 0.005818564060969838
  endloop
endfacet
facet normal 0.41343 0.910536 2.61835e-16
  outer loop
    vertex 0.02357646829420765 0.04246673837668126 0
    vertex 0.03007988494406075 0.03951384974821884 0.007558543268462167
    vertex 0.03137050006482206 0.03892784351195782 0
  endloop
endfacet
facet normal 0.41343 0.910536 0
  outer loop
    vertex 0.02357646829420765 0.04246673837668126 0.009999999999999972
    vertex 0.03007988494406075 0.03951384974821884 0.007558543268462167
    vertex 0.02357646829420765 0.04246673837668126 0
  endloop
endfacet
facet normal 0.41343 0.910536 -0
  outer loop
    vertex 0.03916453183543649 0.03538894864723438 0
    vertex 0.03512623098589161 0.03722254678479189 0.004958703552260993
    vertex 0.03916453183543649 0.03538894864723438 0.01000000000000003
  endloop
endfacet
facet normal 0.41343 0.910536 -0
  outer loop
    vertex 0.03916453183543649 0.03538894864723438 0.01000000000000003
    vertex 0.03384432947781349 0.03780459658873581 0.0136620803755886
    vertex 0.03916453183543649 0.03538894864723438 0.02
  endloop
endfacet
facet normal 0.41343 0.910536 0
  outer loop
    vertex 0.02357646829420765 0.04246673837668126 0.02
    vertex 0.02857119745748597 0.04019887215457364 0.01429923930485543
    vertex 0.02357646829420765 0.04246673837668126 0.009999999999999972
  endloop
endfacet
facet normal 0.41343 0.910536 -1.62376e-15
  outer loop
    vertex 0.03916453183543649 0.03538894864723438 0.02
    vertex 0.03384432947781349 0.03780459658873581 0.0136620803755886
    vertex 0.03137050006482207 0.03892784351195782 0.02
  endloop
endfacet
facet normal 0.41343 0.910536 3.61043e-16
  outer loop
    vertex 0.03384432947781349 0.03780459658873581 0.0136620803755886
    vertex 0.03512623098589161 0.03722254678479189 0.004958703552260993
    vertex 0.03007988494406075 0.03951384974821884 0.007558543268462167
  endloop
endfacet
facet normal 0.41343 0.910536 3.70712e-17
  outer loop
    vertex 0.03916453183543649 0.03538894864723438 0.01000000000000003
    vertex 0.03512623098589161 0.03722254678479189 0.004958703552260993
    vertex 0.03384432947781349 0.03780459658873581 0.0136620803755886
  endloop
endfacet
facet normal 0.41343 0.910536 9.17962e-16
  outer loop
    vertex 0.03137050006482206 0.03892784351195782 0
    vertex 0.03512623098589161 0.03722254678479189 0.004958703552260993
    vertex 0.03916453183543649 0.03538894864723438 0
  endloop
endfacet
facet normal 0.41343 0.910536 -1.45808e-15
  outer loop
    vertex 0.03137050006482207 0.03892784351195782 0.02
    vertex 0.02857119745748597 0.04019887215457364 0.01429923930485543
    vertex 0.02357646829420765 0.04246673837668126 0.02
  endloop
endfacet
facet normal 0.41343 0.910536 4.23725e-16
  outer loop
    vertex 0.02857119745748597 0.04019887215457364 0.01429923930485543
    vertex 0.03384432947781349 0.03780459658873581 0.0136620803755886
    vertex 0.03007988494406075 0.03951384974821884 0.007558543268462167
  endloop
endfacet
facet normal 0.41343 0.910536 5.18598e-16
  outer loop
    vertex 0.02857119745748597 0.04019887215457364 0.01429923930485543
    vertex 0.03007988494406075 0.03951384974821884 0.007558543268462167
    vertex 0.02357646829420765 0.04246673837668126 0.009999999999999972
  endloop
endfacet
facet normal 0.41343 0.910536 2.77129e-16
  outer loop
    vertex 0.03007988494406075 0.03951384974821884 0.007558543268462167
    vertex 0.03512623098589161 0.03722254678479189 0.004958703552260993
    vertex 0.03137050006482206 0.03892784351195782 0
  endloop
endfacet
facet normal 0.41343 0.910536 -1.73169e-15
  outer loop
    vertex 0.03137050006482207 0.03892784351195782 0.02
    vertex 0.03384432947781349 0.03780459658873581 0.0136620803755886
    vertex 0.02857119745748597 0.04019887215457364 0.01429923930485543
  endloop
endfacet
facet normal 0.630958 -0.775817 -3.18443e-16
  outer loop
    vertex 0.03916453183543649 0.03538894864723438 0
    vertex 0.03481315340462148 0.03185005378251094 0.005690917171295235
    vertex 0.03046177497380648 0.02831115891778751 0
  endloop
endfacet
facet normal 0.630958 -0.775817 8.75377e-16
  outer loop
    vertex 0.03046177497380648 0.02831115891778751 0.02
    vertex 0.0348131534046215 0.03185005378251095 0.01447938359017075
    vertex 0.03916453183543649 0.03538894864723438 0.02
  endloop
endfacet
facet normal 0.630958 -0.775817 0
  outer loop
    vertex 0.03046177497380648 0.02831115891778751 0
    vertex 0.03481315340462148 0.03185005378251094 0.005690917171295235
    vertex 0.03046177497380648 0.02831115891778751 0.01000000000000003
  endloop
endfacet
facet normal 0.630958 -0.775817 0
  outer loop
    vertex 0.03916453183543649 0.03538894864723438 0.02
    vertex 0.0348131534046215 0.03185005378251095 0.01447938359017075
    vertex 0.03916453183543649 0.03538894864723438 0.009999999999999972
  endloop
endfacet
facet normal 0.630958 -0.775817 -4.12412e-16
  outer loop
    vertex 0.03046177497380648 0.02831115891778751 0.01000000000000003
    vertex 0.03481315340462148 0.03185005378251094 0.005690917171295235
    vertex 0.0348131534046215 0.03185005378251095 0.01447938359017075
  endloop
endfacet
facet normal 0.630958 -0.775817 -3.83797e-16
  outer loop
    vertex 0.0348131534046215 0.03185005378251095 0.01447938359017075
    vertex 0.03481315340462148 0.03185005378251094 0.005690917171295235
    vertex 0.03916453183543649 0.03538894864723438 0.009999999999999972
  endloop
endfacet
facet normal 0.630958 -0.775817 0
  outer loop
    vertex 0.03916453183543649 0.03538894864723438 0.009999999999999972
    vertex 0.03481315340462148 0.03185005378251094 0.005690917171295235
    vertex 0.03916453183543649 0.03538894864723438 0
  endloop
endfacet
facet normal 0.630958 -0.775817 0
  outer loop
    vertex 0.03046177497380648 0.02831115891778751 0.01000000000000003
    vertex 0.0348131534046215 0.03185005378251095 0.01447938359017075
    vertex 0.03046177497380648 0.02831115891778751 0.02
  endloop
endfacet
facet normal 0.794002 0.607915 0
  outer loop
    vertex 0.03046177497380648 0.02831115891778751 0.02
    vertex 0.0331712720658786 0.02477226405306407 0.015
    vertex 0.03046177497380648 0.02831115891778751 0.009999999999999972
  endloop
endfacet
facet normal 0.794002 0.607915 -0
  outer loop
    vertex 0.03588076915795072 0.02123336918834063 0
    vertex 0.0331712720658786 0.02477226405306407 0.004999999999999996
    vertex 0.03588076915795072 0.02123336918834063 0.01000000000000003
  endloop
endfacet
facet normal 0.794002 0.607915 0
  outer loop
    vertex 0.03046177497380648 0.02831115891778751 0.009999999999999972
    vertex 0.0331712720658786 0.02477226405306407 0.004999999999999996
    vertex 0.03046177497380648 0.02831115891778751 0
  endloop
endfacet
facet normal 0.794002 0.607915 -0
  outer loop
    vertex 0.03588076915795072 0.02123336918834063 0.01000000000000003
    vertex 0.0331712720658786 0.02477226405306407 0.015
    vertex 0.03588076915795072 0.02123336918834063 0.02
  endloop
endfacet
facet normal 0.794002 0.607915 1.14026e-15
  outer loop
    vertex 0.03588076915795072 0.02123336918834063 0.01000000000000003
    vertex 0.0331712720658786 0.02477226405306407 0.004999999999999996
    vertex 0.03046177497380648 0.02831115891778751 0.009999999999999972
  endloop
endfacet
facet normal 0.794002 0.607915 -7.60176e-16
  outer loop
    vertex 0.03046177497380648 0.02831115891778751 0.009999999999999972
    vertex 0.0331712720658786 0.02477226405306407 0.015
    vertex 0.03588076915795072 0.02123336918834063 0.01000000000000003
  endloop
endfacet
facet normal 0.794002 0.607915 -1.14026e-15
  outer loop
    vertex 0.03046177497380648 0.02831115891778751 0
    vertex 0.0331712720658786 0.02477226405306407 0.004999999999999996
    vertex 0.03588076915795072 0.02123336918834063 0
  endloop
endfacet
facet normal 0.794002 0.607915 7.60176e-16
  outer loop
    vertex 0.03588076915795072 0.02123336918834063 0.02
    vertex 0.0331712720658786 0.02477226405306407 0.015
    vertex 0.03046177497380648 0.02831115891778751 0.02
  endloop
endfacet
facet normal 0.681846 -0.731496 -6.52798e-16
  outer loop
    vertex 0.03588076915795072 0.02123336918834063 0
    vertex 0.03208418639486271 0.01769447432361717 0.005000000000000015
    vertex 0.02828760363177474 0.01415557945889375 0
  endloop
endfacet
facet normal 0.681846 -0.731496 9.79198e-16
  outer loop
    vertex 0.02828760363177474 0.01415557945889375 0.02
    vertex 0.03208418639486273 0.01769447432361719 0.01500000000000002
    vertex 0.03588076915795072 0.02123336918834063 0.02
  endloop
endfacet
facet normal 0.681846 -0.731496 0
  outer loop
    vertex 0.03588076915795072 0.02123336918834063 0.02
    vertex 0.03208418639486273 0.01769447432361719 0.01500000000000002
    vertex 0.03588076915795072 0.02123336918834063 0.009999999999999972
  endloop
endfacet
facet normal 0.681846 -0.731496 0
  outer loop
    vertex 0.02828760363177474 0.01415557945889375 0
    vertex 0.03208418639486271 0.01769447432361717 0.005000000000000015
    vertex 0.02828760363177474 0.01415557945889375 0.01000000000000003
  endloop
endfacet
facet normal 0.681846 -0.731496 -1.632e-16
  outer loop
    vertex 0.03588076915795072 0.02123336918834063 0.009999999999999972
    vertex 0.03208418639486273 0.01769447432361719 0.01500000000000002
    vertex 0.03208418639486271 0.01769447432361717 0.005000000000000015
  endloop
endfacet
facet normal 0.681846 -0.731496 -1.50435e-16
  outer loop
    vertex 0.03208418639486271 0.01769447432361717 0.005000000000000015
    vertex 0.03208418639486273 0.01769447432361719 0.01500000000000002
    vertex 0.02828760363177474 0.01415557945889375 0.01000000000000003
  endloop
endfacet
facet normal 0.681846 -0.731496 0
  outer loop
    vertex 0.03588076915795072 0.02123336918834063 0.009999999999999972
    vertex 0.03208418639486271 0.01769447432361717 0.005000000000000015
    vertex 0.03588076915795072 0.02123336918834063 0
  endloop
endfacet
facet normal 0.681846 -0.731496 0
  outer loop
    vertex 0.02828760363177474 0.01415557945889375 0.01000000000000003
    vertex 0.03208418639486273 0.01769447432361719 0.01500000000000002
    vertex 0.02828760363177474 0.01415557945889375 0.02
  endloop
endfacet
facet normal 0.812463 0.583013 0
  outer loop
    vertex 0.02828760363177474 0.01415557945889375 0.02
    vertex 0.03082707161410176 0.01061668459417032 0.015
    vertex 0.02828760363177474 0.01415557945889375 0.009999999999999972
  endloop
endfacet
facet normal 0.812463 0.583013 -0
  outer loop
    vertex 0.03336653959642877 0.007077789729446879 0
    vertex 0.03082707161410175 0.01061668459417032 0.004999999999999999
    vertex 0.03336653959642877 0.007077789729446879 0.01000000000000003
  endloop
endfacet
facet normal 0.812463 0.583013 0
  outer loop
    vertex 0.02828760363177474 0.01415557945889375 0.009999999999999972
    vertex 0.03082707161410175 0.01061668459417032 0.004999999999999999
    vertex 0.02828760363177474 0.01415557945889375 0
  endloop
endfacet
facet normal 0.812463 0.583013 -0
  outer loop
    vertex 0.03336653959642877 0.007077789729446879 0.01000000000000003
    vertex 0.03082707161410176 0.01061668459417032 0.015
    vertex 0.03336653959642877 0.007077789729446879 0.02
  endloop
endfacet
facet normal 0.812463 0.583013 3.88925e-16
  outer loop
    vertex 0.03336653959642877 0.007077789729446879 0.01000000000000003
    vertex 0.03082707161410175 0.01061668459417032 0.004999999999999999
    vertex 0.02828760363177474 0.01415557945889375 0.009999999999999972
  endloop
endfacet
facet normal 0.812463 0.583013 -7.7785e-16
  outer loop
    vertex 0.02828760363177474 0.01415557945889375 0.009999999999999972
    vertex 0.03082707161410176 0.01061668459417032 0.015
    vertex 0.03336653959642877 0.007077789729446879 0.01000000000000003
  endloop
endfacet
facet normal 0.812463 0.583013 -4.6671e-16
  outer loop
    vertex 0.02828760363177474 0.01415557945889375 0
    vertex 0.03082707161410175 0.01061668459417032 0.004999999999999999
    vertex 0.03336653959642877 0.007077789729446879 0
  endloop
endfacet
facet normal 0.812463 0.583013 7.7785e-16
  outer loop
    vertex 0.03336653959642877 0.007077789729446879 0.02
    vertex 0.03082707161410176 0.01061668459417032 0.015
    vertex 0.02828760363177474 0.01415557945889375 0.02
  endloop
endfacet
endsolid Created by Gmsh
