solid Created by Gmsh
facet normal 0.992193 0.124711 2.1934e-16
  outer loop
    vertex 0.005222025074050205 0.02210135578942425 0
    vertex 0.006065911096182254 0.01538746321730696 0.01040187145232098
    vertex 0.006611012537025103 0.01105067789471213 0
  endloop
endfacet
facet normal 0.992193 0.124711 -8.69336e-17
  outer loop
    vertex 0.003833037611075308 0.03315203368413637 0.02
    vertex 0.002989532694278536 0.03986289421138904 0.00950212701086701
    vertex 0.002444050148100411 0.0442027115788485 0.02
  endloop
endfacet
facet normal 0.992193 0.124711 -1.14091e-16
  outer loop
    vertex 0.003833037611075308 0.03315203368413637 0.02
    vertex 0.004527594860118635 0.02762618939596954 0.009983999743864666
    vertex 0.002989532694278536 0.03986289421138904 0.00950212701086701
  endloop
endfacet
facet normal 0.992193 0.124711 -1.36674e-16
  outer loop
    vertex 0.005222025074050206 0.02210135578942424 0.02
    vertex 0.004527594860118635 0.02762618939596954 0.009983999743864666
    vertex 0.003833037611075308 0.03315203368413637 0.02
  endloop
endfacet
facet normal 0.992193 0.124711 1.41758e-16
  outer loop
    vertex 0.005222025074050205 0.02210135578942425 0
    vertex 0.004527594860118635 0.02762618939596954 0.009983999743864666
    vertex 0.006065911096182254 0.01538746321730696 0.01040187145232098
  endloop
endfacet
facet normal 0.992193 0.124711 -1.81676e-16
  outer loop
    vertex 0.006065911096182254 0.01538746321730696 0.01040187145232098
    vertex 0.004527594860118635 0.02762618939596954 0.009983999743864666
    vertex 0.005222025074050206 0.02210135578942424 0.02
  endloop
endfacet
facet normal 0.992193 0.124711 0
  outer loop
    vertex 0.001055062685125513 0.05525338947356062 0.02
    vertex 0.001977106692272901 0.04791767795755281 0.01238636942800411
    vertex 0.001055062685125513 0.05525338947356062 0.009999999999999972
  endloop
endfacet
facet normal 0.992193 0.124711 -0
  outer loop
    vertex 0.008 0 0
    vertex 0.007077994881152128 0.007335402123674693 0.007603834496810989
    vertex 0.008 0 0.01000000000000003
  endloop
endfacet
facet normal 0.992193 0.124711 3.00052e-16
  outer loop
    vertex 0.006611012537025103 0.01105067789471213 0
    vertex 0.007077994881152128 0.007335402123674693 0.007603834496810989
    vertex 0.008 0 0
  endloop
endfacet
facet normal 0.992193 0.124711 -7.99109e-17
  outer loop
    vertex 0.002444050148100411 0.0442027115788485 0.02
    vertex 0.001977106692272901 0.04791767795755281 0.01238636942800411
    vertex 0.001055062685125513 0.05525338947356062 0.02
  endloop
endfacet
facet normal 0.992193 0.124711 1.21877e-16
  outer loop
    vertex 0.003833037611075308 0.03315203368413638 0
    vertex 0.004527594860118635 0.02762618939596954 0.009983999743864666
    vertex 0.005222025074050205 0.02210135578942425 0
  endloop
endfacet
facet normal 0.992193 0.124711 1.26581e-16
  outer loop
    vertex 0.002989532694278536 0.03986289421138904 0.00950212701086701
    vertex 0.004527594860118635 0.02762618939596954 0.009983999743864666
    vertex 0.003833037611075308 0.03315203368413638 0
  endloop
endfacet
facet normal 0.992193 0.124711 -2.93172e-16
  outer loop
    vertex 0.006611012537025105 0.01105067789471211 0.02
    vertex 0.006065911096182254 0.01538746321730696 0.01040187145232098
    vertex 0.005222025074050206 0.02210135578942424 0.02
  endloop
endfacet
facet normal 0.992193 0.124711 5.60254e-17
  outer loop
    vertex 0.002444050148100408 0.04420271157884851 0
    vertex 0.002989532694278536 0.03986289421138904 0.00950212701086701
    vertex 0.003833037611075308 0.03315203368413638 0
  endloop
endfacet
facet normal 0.992193 0.124711 5.66184e-17
  outer loop
    vertex 0.006065911096182254 0.01538746321730696 0.01040187145232098
    vertex 0.007254302803920312 0.005932709790783419 0.0144902118038726
    vertex 0.007077994881152128 0.007335402123674693 0.007603834496810989
  endloop
endfacet
facet normal 0.992193 0.124711 0
  outer loop
    vertex 0.002989532694278536 0.03986289421138904 0.00950212701086701
    vertex 0.001800790492986161 0.04932043613779194 0.005502076999917709
    vertex 0.001977106692272901 0.04791767795755281 0.01238636942800411
  endloop
endfacet
facet normal 0.992193 0.124711 0
  outer loop
    vertex 0.002444050148100408 0.04420271157884851 0
    vertex 0.001800790492986161 0.04932043613779194 0.005502076999917709
    vertex 0.002989532694278536 0.03986289421138904 0.00950212701086701
  endloop
endfacet
facet normal 0.992193 0.124711 -4.14353e-16
  outer loop
    vertex 0.006611012537025105 0.01105067789471211 0.02
    vertex 0.007254302803920312 0.005932709790783419 0.0144902118038726
    vertex 0.006065911096182254 0.01538746321730696 0.01040187145232098
  endloop
endfacet
facet normal 0.992193 0.124711 2.69884e-16
  outer loop
    vertex 0.006065911096182254 0.01538746321730696 0.01040187145232098
    vertex 0.007077994881152128 0.007335402123674693 0.007603834496810989
    vertex 0.006611012537025103 0.01105067789471213 0
  endloop
endfacet
facet normal 0.992193 0.124711 -1.04993e-16
  outer loop
    vertex 0.002989532694278536 0.03986289421138904 0.00950212701086701
    vertex 0.001977106692272901 0.04791767795755281 0.01238636942800411
    vertex 0.002444050148100411 0.0442027115788485 0.02
  endloop
endfacet
facet normal 0.992193 0.124711 -4.96907e-16
  outer loop
    vertex 0.008 0 0.02
    vertex 0.007254302803920312 0.005932709790783419 0.0144902118038726
    vertex 0.006611012537025105 0.01105067789471211 0.02
  endloop
endfacet
facet normal 0.992193 0.124711 0
  outer loop
    vertex 0.001055062685125513 0.05525338947356062 0
    vertex 0.001800790492986161 0.04932043613779194 0.005502076999917709
    vertex 0.002444050148100408 0.04420271157884851 0
  endloop
endfacet
facet normal 0.992193 0.124711 0
  outer loop
    vertex 0.001055062685125513 0.05525338947356062 0.009999999999999972
    vertex 0.001800790492986161 0.04932043613779194 0.005502076999917709
    vertex 0.001055062685125513 0.05525338947356062 0
  endloop
endfacet
facet normal 0.992193 0.124711 -0
  outer loop
    vertex 0.008 0 0.01000000000000003
    vertex 0.007254302803920312 0.005932709790783419 0.0144902118038726
    vertex 0.008 0 0.02
  endloop
endfacet
facet normal 0.992193 0.124711 4.45575e-18
  outer loop
    vertex 0.001977106692272901 0.04791767795755281 0.01238636942800411
    vertex 0.001800790492986161 0.04932043613779194 0.005502076999917709
    vertex 0.001055062685125513 0.05525338947356062 0.009999999999999972
  endloop
endfacet
facet normal 0.992193 0.124711 9.80274e-17
  outer loop
    vertex 0.007077994881152128 0.007335402123674693 0.007603834496810989
    vertex 0.007254302803920312 0.005932709790783419 0.0144902118038726
    vertex 0.008 0 0.01000000000000003
  endloop
endfacet
endsolid Created by Gmsh
