solid Created by Gmsh
facet normal -0.952465 0.304647 0
  outer loop
    vertex 0.02812506996962528 0.05059024524666142 0
    vertex 0.02812506996962528 0.05059024524666142 0.01000000000000003
    vertex 0.02928087827352678 0.05420383419285152 0.005
  endloop
endfacet
facet normal -0.952465 0.304647 0
  outer loop
    vertex 0.03043668657742827 0.05781742313904163 0.02
    vertex 0.03043668657742827 0.05781742313904163 0.009999999999999972
    vertex 0.02928087827352678 0.05420383419285152 0.015
  endloop
endfacet
facet normal -0.952465 0.304647 0
  outer loop
    vertex 0.02812506996962528 0.05059024524666142 0.01000000000000003
    vertex 0.02812506996962528 0.05059024524666142 0.02
    vertex 0.02928087827352678 0.05420383419285152 0.015
  endloop
endfacet
facet normal -0.952465 0.304647 0
  outer loop
    vertex 0.03043668657742827 0.05781742313904163 0.009999999999999972
    vertex 0.03043668657742827 0.05781742313904163 0
    vertex 0.02928087827352678 0.05420383419285152 0.005
  endloop
endfacet
facet normal -0.952465 0.304647 1.2056e-15
  outer loop
    vertex 0.03043668657742827 0.05781742313904163 0
    vertex 0.02812506996962528 0.05059024524666142 0
    vertex 0.02928087827352678 0.05420383419285152 0.005
  endloop
endfacet
facet normal -0.952465 0.304647 1.2056e-15
  outer loop
    vertex 0.03043668657742827 0.05781742313904163 0.009999999999999972
    vertex 0.02812506996962528 0.05059024524666142 0.01000000000000003
    vertex 0.02928087827352678 0.05420383419285152 0.015
  endloop
endfacet
facet normal -0.952465 0.304647 -1.2056e-15
  outer loop
    vertex 0.02812506996962528 0.05059024524666142 0.01000000000000003
    vertex 0.03043668657742827 0.05781742313904163 0.009999999999999972
    vertex 0.02928087827352678 0.05420383419285152 0.005
  endloop
endfacet
facet normal -0.952465 0.304647 -1.2056e-15
  outer loop
    vertex 0.02812506996962528 0.05059024524666142 0.02
    vertex 0.03043668657742827 0.05781742313904163 0.02
    vertex 0.02928087827352678 0.05420383419285152 0.015
  endloop
endfacet
facet normal -0.988479 0.151361 -6.71934e-16
  outer loop
    vertex 0.02701840937600952 0.04336306735428122 0.01000000000000003
    vertex 0.02812506996962528 0.05059024524666142 0.009999999999999972
    vertex 0.0275717396728174 0.04697665630047132 0.004999999999999999
  endloop
endfacet
facet normal -0.988479 0.151361 -6.71934e-16
  outer loop
    vertex 0.02701840937600952 0.04336306735428122 0.02
    vertex 0.02812506996962528 0.05059024524666142 0.02
    vertex 0.0275717396728174 0.04697665630047132 0.015
  endloop
endfacet
facet normal -0.988479 0.151361 6.95104e-16
  outer loop
    vertex 0.02812506996962528 0.05059024524666142 0.009999999999999972
    vertex 0.02701840937600952 0.04336306735428122 0.01000000000000003
    vertex 0.0275717396728174 0.04697665630047132 0.015
  endloop
endfacet
facet normal -0.988479 0.151361 6.95104e-16
  outer loop
    vertex 0.02812506996962528 0.05059024524666142 0
    vertex 0.02701840937600952 0.04336306735428122 0
    vertex 0.0275717396728174 0.04697665630047132 0.004999999999999999
  endloop
endfacet
facet normal -0.988479 0.151361 0
  outer loop
    vertex 0.02812506996962528 0.05059024524666142 0.009999999999999972
    vertex 0.02812506996962528 0.05059024524666142 0
    vertex 0.0275717396728174 0.04697665630047132 0.004999999999999999
  endloop
endfacet
facet normal -0.988479 0.151361 0
  outer loop
    vertex 0.02812506996962528 0.05059024524666142 0.02
    vertex 0.02812506996962528 0.05059024524666142 0.009999999999999972
    vertex 0.0275717396728174 0.04697665630047132 0.015
  endloop
endfacet
facet normal -0.988479 0.151361 0
  outer loop
    vertex 0.02701840937600952 0.04336306735428122 0
    vertex 0.02701840937600952 0.04336306735428122 0.01000000000000003
    vertex 0.0275717396728174 0.04697665630047132 0.004999999999999999
  endloop
endfacet
facet normal -0.988479 0.151361 0
  outer loop
    vertex 0.02701840937600952 0.04336306735428122 0.01000000000000003
    vertex 0.02701840937600952 0.04336306735428122 0.02
    vertex 0.0275717396728174 0.04697665630047132 0.015
  endloop
endfacet
facet normal -0.746465 -0.665425 -0
  outer loop
    vertex 0.02701840937600952 0.04336306735428122 0.02
    vertex 0.02701840937600952 0.04336306735428122 0.009999999999999972
    vertex 0.03023969075102265 0.03974947840809111 0.015
  endloop
endfacet
facet normal -0.746465 -0.665425 0
  outer loop
    vertex 0.03346097212603579 0.03613588946190101 0
    vertex 0.03346097212603579 0.03613588946190101 0.01000000000000003
    vertex 0.03023969075102265 0.03974947840809111 0.005
  endloop
endfacet
facet normal -0.746465 -0.665425 -0
  outer loop
    vertex 0.02701840937600952 0.04336306735428122 0.009999999999999972
    vertex 0.02701840937600952 0.04336306735428122 0
    vertex 0.03023969075102265 0.03974947840809111 0.005
  endloop
endfacet
facet normal -0.746465 -0.665425 0
  outer loop
    vertex 0.03346097212603579 0.03613588946190101 0.01000000000000003
    vertex 0.03346097212603579 0.03613588946190101 0.02
    vertex 0.03023969075102265 0.03974947840809111 0.015
  endloop
endfacet
facet normal -0.746465 -0.665425 6.99892e-16
  outer loop
    vertex 0.03346097212603579 0.03613588946190101 0.01000000000000003
    vertex 0.02701840937600952 0.04336306735428122 0.009999999999999972
    vertex 0.03023969075102265 0.03974947840809111 0.005
  endloop
endfacet
facet normal -0.746465 -0.665425 6.99892e-16
  outer loop
    vertex 0.03346097212603579 0.03613588946190101 0.02
    vertex 0.02701840937600952 0.04336306735428122 0.02
    vertex 0.03023969075102265 0.03974947840809111 0.015
  endloop
endfacet
facet normal -0.746465 -0.665425 -6.99892e-16
  outer loop
    vertex 0.02701840937600952 0.04336306735428122 0.009999999999999972
    vertex 0.03346097212603579 0.03613588946190101 0.01000000000000003
    vertex 0.03023969075102265 0.03974947840809111 0.015
  endloop
endfacet
facet normal -0.746465 -0.665425 -6.99892e-16
  outer loop
    vertex 0.02701840937600952 0.04336306735428122 0
    vertex 0.03346097212603579 0.03613588946190101 0
    vertex 0.03023969075102265 0.03974947840809111 0.005
  endloop
endfacet
facet normal -0.61792 0.786241 9.74375e-17
  outer loop
    vertex 0.02426510534438058 0.02890871156952081 0.02
    vertex 0.03346097212603579 0.03613588946190101 0.02
    vertex 0.02886303873520819 0.03252230051571092 0.01405396560956745
  endloop
endfacet
facet normal -0.61792 0.786241 0
  outer loop
    vertex 0.03346097212603579 0.03613588946190101 0
    vertex 0.02426510534438058 0.02890871156952081 0
    vertex 0.02886303873520819 0.03252230051571092 0.005728862973760926
  endloop
endfacet
facet normal -0.61792 0.786241 0
  outer loop
    vertex 0.02886303873520819 0.03252230051571092 0.005728862973760926
    vertex 0.02426510534438058 0.02890871156952081 0.01000000000000003
    vertex 0.02886303873520819 0.03252230051571092 0.01405396560956745
  endloop
endfacet
facet normal -0.61792 0.786241 0
  outer loop
    vertex 0.03346097212603579 0.03613588946190101 0.009999999999999972
    vertex 0.02886303873520819 0.03252230051571092 0.005728862973760926
    vertex 0.02886303873520819 0.03252230051571092 0.01405396560956745
  endloop
endfacet
facet normal -0.61792 0.786241 0
  outer loop
    vertex 0.02426510534438058 0.02890871156952081 0
    vertex 0.02426510534438058 0.02890871156952081 0.01000000000000003
    vertex 0.02886303873520819 0.03252230051571092 0.005728862973760926
  endloop
endfacet
facet normal -0.61792 0.786241 0
  outer loop
    vertex 0.03346097212603579 0.03613588946190101 0.02
    vertex 0.03346097212603579 0.03613588946190101 0.009999999999999972
    vertex 0.02886303873520819 0.03252230051571092 0.01405396560956745
  endloop
endfacet
facet normal -0.61792 0.786241 0
  outer loop
    vertex 0.03346097212603579 0.03613588946190101 0.009999999999999972
    vertex 0.03346097212603579 0.03613588946190101 0
    vertex 0.02886303873520819 0.03252230051571092 0.005728862973760926
  endloop
endfacet
facet normal -0.61792 0.786241 0
  outer loop
    vertex 0.02426510534438058 0.02890871156952081 0.01000000000000003
    vertex 0.02426510534438058 0.02890871156952081 0.02
    vertex 0.02886303873520819 0.03252230051571092 0.01405396560956745
  endloop
endfacet
facet normal -0.536351 0.843995 0
  outer loop
    vertex 0.02426510534438058 0.02890871156952081 0.02
    vertex 0.02426510534438058 0.02890871156952081 0.009999999999999972
    vertex 0.02028469763866927 0.02637919930718774 0.015
  endloop
endfacet
facet normal -0.536351 0.843995 0
  outer loop
    vertex 0.01289251189949115 0.02168153367714061 0
    vertex 0.01289251189949115 0.02168153367714061 0.01000000000000003
    vertex 0.01687291960520245 0.02421104593947368 0.005000000000000008
  endloop
endfacet
facet normal -0.536351 0.843995 0
  outer loop
    vertex 0.02426510534438058 0.02890871156952081 0.009999999999999972
    vertex 0.02426510534438058 0.02890871156952081 0
    vertex 0.02051214950756707 0.02652374286503534 0.004999999999999999
  endloop
endfacet
facet normal -0.536351 0.843995 0
  outer loop
    vertex 0.01289251189949115 0.02168153367714061 0.01000000000000003
    vertex 0.01289251189949115 0.02168153367714061 0.02
    vertex 0.01664546773630466 0.02406650238162607 0.01500000000000001
  endloop
endfacet
facet normal -0.536351 0.843995 -7.29187e-16
  outer loop
    vertex 0.01857880862193586 0.02529512262333071 0.02
    vertex 0.02426510534438058 0.02890871156952081 0.02
    vertex 0.02028469763866927 0.02637919930718774 0.015
  endloop
endfacet
facet normal -0.536351 0.843995 1.00577e-16
  outer loop
    vertex 0.01857880862193587 0.02529512262333072 0
    vertex 0.01289251189949115 0.02168153367714061 0
    vertex 0.01687291960520245 0.02421104593947368 0.005000000000000008
  endloop
endfacet
facet normal -0.536351 0.843995 -9.05197e-16
  outer loop
    vertex 0.01289251189949115 0.02168153367714061 0.02
    vertex 0.01857880862193586 0.02529512262333071 0.02
    vertex 0.01664546773630466 0.02406650238162607 0.01500000000000001
  endloop
endfacet
facet normal -0.536351 0.843995 5.02887e-16
  outer loop
    vertex 0.02426510534438058 0.02890871156952081 0
    vertex 0.01857880862193587 0.02529512262333072 0
    vertex 0.02051214950756707 0.02652374286503534 0.004999999999999999
  endloop
endfacet
facet normal -0.536351 0.843995 -9.62558e-16
  outer loop
    vertex 0.01857880862193586 0.02529512262333071 0.02
    vertex 0.02028469763866927 0.02637919930718774 0.015
    vertex 0.01664546773630466 0.02406650238162607 0.01500000000000001
  endloop
endfacet
facet normal -0.536351 0.843995 3.33949e-16
  outer loop
    vertex 0.01857880862193587 0.02529512262333072 0
    vertex 0.01687291960520245 0.02421104593947368 0.005000000000000008
    vertex 0.02051214950756707 0.02652374286503534 0.004999999999999999
  endloop
endfacet
facet normal -0.536351 0.843995 -2.75016e-16
  outer loop
    vertex 0.02051214950756707 0.02652374286503534 0.004999999999999999
    vertex 0.01687291960520245 0.02421104593947368 0.005000000000000008
    vertex 0.01857880862193586 0.02529512262333071 0.01
  endloop
endfacet
facet normal -0.536351 0.843995 5.89321e-16
  outer loop
    vertex 0.01664546773630466 0.02406650238162607 0.01500000000000001
    vertex 0.02028469763866927 0.02637919930718774 0.015
    vertex 0.01857880862193586 0.02529512262333071 0.01
  endloop
endfacet
facet normal -0.536351 0.843995 -4.52599e-16
  outer loop
    vertex 0.02426510534438058 0.02890871156952081 0.009999999999999972
    vertex 0.02051214950756707 0.02652374286503534 0.004999999999999999
    vertex 0.01857880862193586 0.02529512262333071 0.01
  endloop
endfacet
facet normal -0.536351 0.843995 4.77743e-16
  outer loop
    vertex 0.02028469763866927 0.02637919930718774 0.015
    vertex 0.02426510534438058 0.02890871156952081 0.009999999999999972
    vertex 0.01857880862193586 0.02529512262333071 0.01
  endloop
endfacet
facet normal -0.536351 0.843995 -7.54331e-17
  outer loop
    vertex 0.01687291960520245 0.02421104593947368 0.005000000000000008
    vertex 0.01289251189949115 0.02168153367714061 0.01000000000000003
    vertex 0.01857880862193586 0.02529512262333071 0.01
  endloop
endfacet
facet normal -0.536351 0.843995 6.53753e-16
  outer loop
    vertex 0.01289251189949115 0.02168153367714061 0.01000000000000003
    vertex 0.01664546773630466 0.02406650238162607 0.01500000000000001
    vertex 0.01857880862193586 0.02529512262333071 0.01
  endloop
endfacet
facet normal -0.96786 -0.251488 0
  outer loop
    vertex 0.01477041823506424 0.0144543557847604 0
    vertex 0.01477041823506424 0.0144543557847604 0.01000000000000003
    vertex 0.0138314650672777 0.01806794473095051 0.005
  endloop
endfacet
facet normal -0.96786 -0.251488 -0
  outer loop
    vertex 0.01289251189949115 0.02168153367714061 0.02
    vertex 0.01289251189949115 0.02168153367714061 0.009999999999999972
    vertex 0.0138314650672777 0.01806794473095051 0.015
  endloop
endfacet
facet normal -0.96786 -0.251488 0
  outer loop
    vertex 0.01477041823506424 0.0144543557847604 0.01000000000000003
    vertex 0.01477041823506424 0.0144543557847604 0.02
    vertex 0.0138314650672777 0.01806794473095051 0.015
  endloop
endfacet
facet normal -0.96786 -0.251488 -0
  outer loop
    vertex 0.01289251189949115 0.02168153367714061 0.009999999999999972
    vertex 0.01289251189949115 0.02168153367714061 0
    vertex 0.0138314650672777 0.01806794473095051 0.005
  endloop
endfacet
facet normal -0.96786 -0.251488 0
  outer loop
    vertex 0.01289251189949115 0.02168153367714061 0.009999999999999972
    vertex 0.01477041823506424 0.0144543557847604 0.01000000000000003
    vertex 0.0138314650672777 0.01806794473095051 0.015
  endloop
endfacet
facet normal -0.96786 -0.251488 0
  outer loop
    vertex 0.01289251189949115 0.02168153367714061 0
    vertex 0.01477041823506424 0.0144543557847604 0
    vertex 0.0138314650672777 0.01806794473095051 0.005
  endloop
endfacet
facet normal -0.96786 -0.251488 0
  outer loop
    vertex 0.01477041823506424 0.0144543557847604 0.02
    vertex 0.01289251189949115 0.02168153367714061 0.02
    vertex 0.0138314650672777 0.01806794473095051 0.015
  endloop
endfacet
facet normal -0.96786 -0.251488 0
  outer loop
    vertex 0.01477041823506424 0.0144543557847604 0.01000000000000003
    vertex 0.01289251189949115 0.02168153367714061 0.009999999999999972
    vertex 0.0138314650672777 0.01806794473095051 0.005
  endloop
endfacet
facet normal -0.99967 0.0257051 0
  outer loop
    vertex 0.01477041823506424 0.0144543557847604 0
    vertex 0.0145845817680866 0.007227177892380206 0
    vertex 0.01467750000157542 0.01084076683857031 0.005
  endloop
endfacet
facet normal -0.99967 0.0257051 0
  outer loop
    vertex 0.01477041823506424 0.0144543557847604 0.009999999999999972
    vertex 0.0145845817680866 0.007227177892380206 0.01000000000000003
    vertex 0.01467750000157542 0.01084076683857031 0.015
  endloop
endfacet
facet normal -0.99967 0.0257051 0
  outer loop
    vertex 0.0145845817680866 0.007227177892380206 0.02
    vertex 0.01477041823506424 0.0144543557847604 0.02
    vertex 0.01467750000157542 0.01084076683857031 0.015
  endloop
endfacet
facet normal -0.99967 0.0257051 0
  outer loop
    vertex 0.0145845817680866 0.007227177892380206 0.01000000000000003
    vertex 0.01477041823506424 0.0144543557847604 0.009999999999999972
    vertex 0.01467750000157542 0.01084076683857031 0.005
  endloop
endfacet
facet normal -0.99967 0.0257051 0
  outer loop
    vertex 0.01477041823506424 0.0144543557847604 0.009999999999999972
    vertex 0.01477041823506424 0.0144543557847604 0
    vertex 0.01467750000157542 0.01084076683857031 0.005
  endloop
endfacet
facet normal -0.99967 0.0257051 0
  outer loop
    vertex 0.01477041823506424 0.0144543557847604 0.02
    vertex 0.01477041823506424 0.0144543557847604 0.009999999999999972
    vertex 0.01467750000157542 0.01084076683857031 0.015
  endloop
endfacet
facet normal -0.99967 0.0257051 0
  outer loop
    vertex 0.0145845817680866 0.007227177892380206 0
    vertex 0.0145845817680866 0.007227177892380206 0.01000000000000003
    vertex 0.01467750000157542 0.01084076683857031 0.005
  endloop
endfacet
facet normal -0.99967 0.0257051 0
  outer loop
    vertex 0.0145845817680866 0.007227177892380206 0.01000000000000003
    vertex 0.0145845817680866 0.007227177892380206 0.02
    vertex 0.01467750000157542 0.01084076683857031 0.015
  endloop
endfacet
endsolid Created by Gmsh
