solid Created by Gmsh
facet normal -0.870607 -0.491979 -0
  outer loop
    vertex 0.03113659645052841 0.05721745686255057 0.02
    vertex 0.03113659645052841 0.05721745686255057 0.009999999999999972
    vertex 0.03315744147932106 0.05364136580864116 0.015
  endloop
endfacet
facet normal -0.870607 -0.491979 0
  outer loop
    vertex 0.03517828650811371 0.05006527475473175 0
    vertex 0.03517828650811371 0.05006527475473175 0.01000000000000003
    vertex 0.03315744147932106 0.05364136580864116 0.005000000000000001
  endloop
endfacet
facet normal -0.870607 -0.491979 -0
  outer loop
    vertex 0.03113659645052841 0.05721745686255057 0.009999999999999972
    vertex 0.03113659645052841 0.05721745686255057 0
    vertex 0.03315744147932106 0.05364136580864116 0.005000000000000001
  endloop
endfacet
facet normal -0.870607 -0.491979 0
  outer loop
    vertex 0.03517828650811371 0.05006527475473175 0.01000000000000003
    vertex 0.03517828650811371 0.05006527475473175 0.02
    vertex 0.03315744147932106 0.05364136580864116 0.015
  endloop
endfacet
facet normal -0.870607 -0.491979 6.18636e-16
  outer loop
    vertex 0.03517828650811371 0.05006527475473175 0.01000000000000003
    vertex 0.03113659645052841 0.05721745686255057 0.009999999999999972
    vertex 0.03315744147932106 0.05364136580864116 0.005000000000000001
  endloop
endfacet
facet normal -0.870607 -0.491979 -6.18636e-16
  outer loop
    vertex 0.03113659645052841 0.05721745686255057 0.009999999999999972
    vertex 0.03517828650811371 0.05006527475473175 0.01000000000000003
    vertex 0.03315744147932106 0.05364136580864116 0.015
  endloop
endfacet
facet normal -0.870607 -0.491979 -6.18636e-16
  outer loop
    vertex 0.03113659645052841 0.05721745686255057 0
    vertex 0.03517828650811371 0.05006527475473175 0
    vertex 0.03315744147932106 0.05364136580864116 0.005000000000000001
  endloop
endfacet
facet normal -0.870607 -0.491979 6.18636e-16
  outer loop
    vertex 0.03517828650811371 0.05006527475473175 0.02
    vertex 0.03113659645052841 0.05721745686255057 0.02
    vertex 0.03315744147932106 0.05364136580864116 0.015
  endloop
endfacet
facet normal -0.969813 -0.243851 5.05362e-16
  outer loop
    vertex 0.03517828650811371 0.05006527475473175 0
    vertex 0.03697663951297162 0.04291309264691293 0
    vertex 0.03607746301054267 0.04648918370082233 0.005
  endloop
endfacet
facet normal -0.969813 -0.243851 -5.05362e-16
  outer loop
    vertex 0.03697663951297162 0.04291309264691293 0.01000000000000003
    vertex 0.03517828650811371 0.05006527475473175 0.009999999999999972
    vertex 0.03607746301054267 0.04648918370082233 0.005
  endloop
endfacet
facet normal -0.969813 -0.243851 -5.05362e-16
  outer loop
    vertex 0.03697663951297162 0.04291309264691293 0.02
    vertex 0.03517828650811371 0.05006527475473175 0.02
    vertex 0.03607746301054267 0.04648918370082233 0.015
  endloop
endfacet
facet normal -0.969813 -0.243851 5.05362e-16
  outer loop
    vertex 0.03517828650811371 0.05006527475473175 0.009999999999999972
    vertex 0.03697663951297162 0.04291309264691293 0.01000000000000003
    vertex 0.03607746301054267 0.04648918370082233 0.015
  endloop
endfacet
facet normal -0.969813 -0.243851 -0
  outer loop
    vertex 0.03517828650811371 0.05006527475473175 0.009999999999999972
    vertex 0.03517828650811371 0.05006527475473175 0
    vertex 0.03607746301054267 0.04648918370082233 0.005
  endloop
endfacet
facet normal -0.969813 -0.243851 -0
  outer loop
    vertex 0.03517828650811371 0.05006527475473175 0.02
    vertex 0.03517828650811371 0.05006527475473175 0.009999999999999972
    vertex 0.03607746301054267 0.04648918370082233 0.015
  endloop
endfacet
facet normal -0.969813 -0.243851 0
  outer loop
    vertex 0.03697663951297162 0.04291309264691293 0
    vertex 0.03697663951297162 0.04291309264691293 0.01000000000000003
    vertex 0.03607746301054267 0.04648918370082233 0.005
  endloop
endfacet
facet normal -0.969813 -0.243851 0
  outer loop
    vertex 0.03697663951297162 0.04291309264691293 0.01000000000000003
    vertex 0.03697663951297162 0.04291309264691293 0.02
    vertex 0.03607746301054267 0.04648918370082233 0.015
  endloop
endfacet
facet normal -0.794673 0.607038 0
  outer loop
    vertex 0.03697663951297162 0.04291309264691293 0.02
    vertex 0.03697663951297162 0.04291309264691293 0.009999999999999972
    vertex 0.03424492007675389 0.03933700159300352 0.015
  endloop
endfacet
facet normal -0.794673 0.607038 0
  outer loop
    vertex 0.03151320064053616 0.03576091053909411 0
    vertex 0.03151320064053616 0.03576091053909411 0.01000000000000003
    vertex 0.03424492007675389 0.03933700159300352 0.005
  endloop
endfacet
facet normal -0.794673 0.607038 0
  outer loop
    vertex 0.03697663951297162 0.04291309264691293 0.009999999999999972
    vertex 0.03697663951297162 0.04291309264691293 0
    vertex 0.03424492007675389 0.03933700159300352 0.005
  endloop
endfacet
facet normal -0.794673 0.607038 0
  outer loop
    vertex 0.03151320064053616 0.03576091053909411 0.01000000000000003
    vertex 0.03151320064053616 0.03576091053909411 0.02
    vertex 0.03424492007675389 0.03933700159300352 0.015
  endloop
endfacet
facet normal -0.794673 0.607038 -6.02324e-16
  outer loop
    vertex 0.03151320064053616 0.03576091053909411 0.01000000000000003
    vertex 0.03697663951297162 0.04291309264691293 0.009999999999999972
    vertex 0.03424492007675389 0.03933700159300352 0.005
  endloop
endfacet
facet normal -0.794673 0.607038 5.27033e-16
  outer loop
    vertex 0.03697663951297162 0.04291309264691293 0.009999999999999972
    vertex 0.03151320064053616 0.03576091053909411 0.01000000000000003
    vertex 0.03424492007675389 0.03933700159300352 0.015
  endloop
endfacet
facet normal -0.794673 0.607038 -6.02324e-16
  outer loop
    vertex 0.03151320064053616 0.03576091053909411 0.02
    vertex 0.03697663951297162 0.04291309264691293 0.02
    vertex 0.03424492007675389 0.03933700159300352 0.015
  endloop
endfacet
facet normal -0.794673 0.607038 5.27033e-16
  outer loop
    vertex 0.03697663951297162 0.04291309264691293 0
    vertex 0.03151320064053616 0.03576091053909411 0
    vertex 0.03424492007675389 0.03933700159300352 0.005
  endloop
endfacet
facet normal -0.921743 -0.387801 0
  outer loop
    vertex 0.03452230685715628 0.02860872843127529 0
    vertex 0.03452230685715628 0.02860872843127529 0.01000000000000003
    vertex 0.03301775374884622 0.03218481948518469 0.005000000000000001
  endloop
endfacet
facet normal -0.921743 -0.387801 -0
  outer loop
    vertex 0.03151320064053616 0.03576091053909411 0.02
    vertex 0.03151320064053616 0.03576091053909411 0.009999999999999972
    vertex 0.03301775374884622 0.03218481948518469 0.015
  endloop
endfacet
facet normal -0.921743 -0.387801 0
  outer loop
    vertex 0.03452230685715628 0.02860872843127529 0.01000000000000003
    vertex 0.03452230685715628 0.02860872843127529 0.02
    vertex 0.03301775374884622 0.03218481948518469 0.015
  endloop
endfacet
facet normal -0.921743 -0.387801 -0
  outer loop
    vertex 0.03151320064053616 0.03576091053909411 0.009999999999999972
    vertex 0.03151320064053616 0.03576091053909411 0
    vertex 0.03301775374884622 0.03218481948518469 0.005000000000000001
  endloop
endfacet
facet normal -0.921743 -0.387801 -3.92983e-16
  outer loop
    vertex 0.03452230685715628 0.02860872843127529 0.01000000000000003
    vertex 0.03151320064053616 0.03576091053909411 0.009999999999999972
    vertex 0.03301775374884622 0.03218481948518469 0.005000000000000001
  endloop
endfacet
facet normal -0.921743 -0.387801 3.49319e-16
  outer loop
    vertex 0.03151320064053616 0.03576091053909411 0.009999999999999972
    vertex 0.03452230685715628 0.02860872843127529 0.01000000000000003
    vertex 0.03301775374884622 0.03218481948518469 0.015
  endloop
endfacet
facet normal -0.921743 -0.387801 -3.92983e-16
  outer loop
    vertex 0.03452230685715628 0.02860872843127529 0.02
    vertex 0.03151320064053616 0.03576091053909411 0.02
    vertex 0.03301775374884622 0.03218481948518469 0.015
  endloop
endfacet
facet normal -0.921743 -0.387801 3.49319e-16
  outer loop
    vertex 0.03151320064053616 0.03576091053909411 0
    vertex 0.03452230685715628 0.02860872843127529 0
    vertex 0.03301775374884622 0.03218481948518469 0.005000000000000001
  endloop
endfacet
facet normal -0.987643 -0.156717 6.78406e-16
  outer loop
    vertex 0.03565720108541636 0.02145654632345646 0.01000000000000003
    vertex 0.03452230685715628 0.02860872843127529 0.009999999999999972
    vertex 0.03508975397128632 0.02503263737736587 0.005
  endloop
endfacet
facet normal -0.987643 -0.156717 -7.018e-16
  outer loop
    vertex 0.03452230685715628 0.02860872843127529 0.009999999999999972
    vertex 0.03565720108541636 0.02145654632345646 0.01000000000000003
    vertex 0.03508975397128632 0.02503263737736587 0.015
  endloop
endfacet
facet normal -0.987643 -0.156717 6.78406e-16
  outer loop
    vertex 0.03565720108541636 0.02145654632345646 0.02
    vertex 0.03452230685715628 0.02860872843127529 0.02
    vertex 0.03508975397128632 0.02503263737736587 0.015
  endloop
endfacet
facet normal -0.987643 -0.156717 -7.018e-16
  outer loop
    vertex 0.03452230685715628 0.02860872843127529 0
    vertex 0.03565720108541636 0.02145654632345646 0
    vertex 0.03508975397128632 0.02503263737736587 0.005
  endloop
endfacet
facet normal -0.987643 -0.156717 -0
  outer loop
    vertex 0.03452230685715628 0.02860872843127529 0.009999999999999972
    vertex 0.03452230685715628 0.02860872843127529 0
    vertex 0.03508975397128632 0.02503263737736587 0.005
  endloop
endfacet
facet normal -0.987643 -0.156717 -0
  outer loop
    vertex 0.03452230685715628 0.02860872843127529 0.02
    vertex 0.03452230685715628 0.02860872843127529 0.009999999999999972
    vertex 0.03508975397128632 0.02503263737736587 0.015
  endloop
endfacet
facet normal -0.987643 -0.156717 0
  outer loop
    vertex 0.03565720108541636 0.02145654632345646 0
    vertex 0.03565720108541636 0.02145654632345646 0.01000000000000003
    vertex 0.03508975397128632 0.02503263737736587 0.005
  endloop
endfacet
facet normal -0.987643 -0.156717 0
  outer loop
    vertex 0.03565720108541636 0.02145654632345646 0.01000000000000003
    vertex 0.03565720108541636 0.02145654632345646 0.02
    vertex 0.03508975397128632 0.02503263737736587 0.015
  endloop
endfacet
facet normal -0.586922 0.809644 0
  outer loop
    vertex 0.02579094495607608 0.01430436421563765 0.01000000000000003
    vertex 0.03072407302074622 0.01788045526954705 0.02
    vertex 0.03565720108541636 0.02145654632345646 0.009999999999999972
  endloop
endfacet
facet normal -0.586922 0.809644 0
  outer loop
    vertex 0.03072407302074622 0.01788045526954705 0
    vertex 0.02579094495607608 0.01430436421563765 0.01000000000000003
    vertex 0.03565720108541636 0.02145654632345646 0.009999999999999972
  endloop
endfacet
facet normal -0.586922 0.809644 0
  outer loop
    vertex 0.03072407302074622 0.01788045526954705 0
    vertex 0.03565720108541636 0.02145654632345646 0.009999999999999972
    vertex 0.03565720108541636 0.02145654632345646 0
  endloop
endfacet
facet normal -0.586922 0.809644 0
  outer loop
    vertex 0.03565720108541636 0.02145654632345646 0.009999999999999972
    vertex 0.03072407302074622 0.01788045526954705 0.02
    vertex 0.03565720108541636 0.02145654632345646 0.02
  endloop
endfacet
facet normal -0.586922 0.809644 0
  outer loop
    vertex 0.02579094495607608 0.01430436421563765 0.01000000000000003
    vertex 0.03072407302074622 0.01788045526954705 0
    vertex 0.02579094495607608 0.01430436421563765 0
  endloop
endfacet
facet normal -0.586922 0.809644 0
  outer loop
    vertex 0.03072407302074622 0.01788045526954705 0.02
    vertex 0.02579094495607608 0.01430436421563765 0.01000000000000003
    vertex 0.02579094495607608 0.01430436421563765 0.02
  endloop
endfacet
facet normal -0.975588 -0.21961 -7.39449e-16
  outer loop
    vertex 0.02579094495607608 0.01430436421563765 0
    vertex 0.02740094001427147 0.007152182107818823 0
    vertex 0.02659594248517377 0.01072827316172823 0.004999999999999999
  endloop
endfacet
facet normal -0.975588 -0.21961 -7.39449e-16
  outer loop
    vertex 0.02579094495607608 0.01430436421563765 0.009999999999999972
    vertex 0.02740094001427147 0.007152182107818823 0.01000000000000003
    vertex 0.02659594248517377 0.01072827316172823 0.015
  endloop
endfacet
facet normal -0.975588 -0.21961 7.39449e-16
  outer loop
    vertex 0.02740094001427147 0.007152182107818823 0.02
    vertex 0.02579094495607608 0.01430436421563765 0.02
    vertex 0.02659594248517377 0.01072827316172823 0.015
  endloop
endfacet
facet normal -0.975588 -0.21961 7.39449e-16
  outer loop
    vertex 0.02740094001427147 0.007152182107818823 0.01000000000000003
    vertex 0.02579094495607608 0.01430436421563765 0.009999999999999972
    vertex 0.02659594248517377 0.01072827316172823 0.004999999999999999
  endloop
endfacet
facet normal -0.975588 -0.21961 -0
  outer loop
    vertex 0.02579094495607608 0.01430436421563765 0.009999999999999972
    vertex 0.02579094495607608 0.01430436421563765 0
    vertex 0.02659594248517377 0.01072827316172823 0.004999999999999999
  endloop
endfacet
facet normal -0.975588 -0.21961 -0
  outer loop
    vertex 0.02579094495607608 0.01430436421563765 0.02
    vertex 0.02579094495607608 0.01430436421563765 0.009999999999999972
    vertex 0.02659594248517377 0.01072827316172823 0.015
  endloop
endfacet
facet normal -0.975588 -0.21961 0
  outer loop
    vertex 0.02740094001427147 0.007152182107818823 0
    vertex 0.02740094001427147 0.007152182107818823 0.01000000000000003
    vertex 0.02659594248517377 0.01072827316172823 0.004999999999999999
  endloop
endfacet
facet normal -0.975588 -0.21961 0
  outer loop
    vertex 0.02740094001427147 0.007152182107818823 0.01000000000000003
    vertex 0.02740094001427147 0.007152182107818823 0.02
    vertex 0.02659594248517377 0.01072827316172823 0.015
  endloop
endfacet
endsolid Created by Gmsh
