solid Created by Gmsh
facet normal -0.851766 -0.523922 2.85122e-16
  outer loop
    vertex 0.03487207841926605 0.04251072998240527 0.01000000000000003
    vertex 0.03113659645052841 0.04858369140846316 0.009999999999999972
    vertex 0.03300433743489722 0.04554721069543421 0.004999999999999999
  endloop
endfacet
facet normal -0.851766 -0.523922 -2.85122e-16
  outer loop
    vertex 0.03113659645052841 0.04858369140846316 0.009999999999999972
    vertex 0.03487207841926605 0.04251072998240527 0.01000000000000003
    vertex 0.03300433743489722 0.04554721069543421 0.015
  endloop
endfacet
facet normal -0.851766 -0.523922 2.85122e-16
  outer loop
    vertex 0.03487207841926605 0.04251072998240527 0.02
    vertex 0.03113659645052841 0.04858369140846316 0.02
    vertex 0.03300433743489722 0.04554721069543421 0.015
  endloop
endfacet
facet normal -0.851766 -0.523922 -2.85122e-16
  outer loop
    vertex 0.03113659645052841 0.04858369140846316 0
    vertex 0.03487207841926605 0.04251072998240527 0
    vertex 0.03300433743489722 0.04554721069543421 0.004999999999999999
  endloop
endfacet
facet normal -0.851766 -0.523922 -0
  outer loop
    vertex 0.03113659645052841 0.04858369140846316 0.009999999999999972
    vertex 0.03113659645052841 0.04858369140846316 0
    vertex 0.03300433743489722 0.04554721069543421 0.004999999999999999
  endloop
endfacet
facet normal -0.851766 -0.523922 -0
  outer loop
    vertex 0.03113659645052841 0.04858369140846316 0.02
    vertex 0.03113659645052841 0.04858369140846316 0.009999999999999972
    vertex 0.03300433743489722 0.04554721069543421 0.015
  endloop
endfacet
facet normal -0.851766 -0.523922 0
  outer loop
    vertex 0.03487207841926605 0.04251072998240527 0
    vertex 0.03487207841926605 0.04251072998240527 0.01000000000000003
    vertex 0.03300433743489722 0.04554721069543421 0.004999999999999999
  endloop
endfacet
facet normal -0.851766 -0.523922 0
  outer loop
    vertex 0.03487207841926605 0.04251072998240527 0.01000000000000003
    vertex 0.03487207841926605 0.04251072998240527 0.02
    vertex 0.03300433743489722 0.04554721069543421 0.015
  endloop
endfacet
facet normal -0.999464 -0.0327498 -7.14432e-16
  outer loop
    vertex 0.03487207841926605 0.04251072998240527 0
    vertex 0.03507107318641325 0.03643776855634737 0
    vertex 0.03497157580283965 0.03947424926937632 0.004999999999999999
  endloop
endfacet
facet normal -0.999464 -0.0327498 -6.69126e-16
  outer loop
    vertex 0.03487207841926605 0.04251072998240527 0.009999999999999972
    vertex 0.03507107318641325 0.03643776855634737 0.01000000000000003
    vertex 0.03497157580283965 0.03947424926937632 0.015
  endloop
endfacet
facet normal -0.999464 -0.0327498 6.72611e-16
  outer loop
    vertex 0.03507107318641325 0.03643776855634737 0.02
    vertex 0.03487207841926605 0.04251072998240527 0.02
    vertex 0.03497157580283965 0.03947424926937632 0.015
  endloop
endfacet
facet normal -0.999464 -0.0327498 7.17917e-16
  outer loop
    vertex 0.03507107318641325 0.03643776855634737 0.01000000000000003
    vertex 0.03487207841926605 0.04251072998240527 0.009999999999999972
    vertex 0.03497157580283965 0.03947424926937632 0.004999999999999999
  endloop
endfacet
facet normal -0.999464 -0.0327498 -0
  outer loop
    vertex 0.03487207841926605 0.04251072998240527 0.009999999999999972
    vertex 0.03487207841926605 0.04251072998240527 0
    vertex 0.03497157580283965 0.03947424926937632 0.004999999999999999
  endloop
endfacet
facet normal -0.999464 -0.0327498 -0
  outer loop
    vertex 0.03487207841926605 0.04251072998240527 0.02
    vertex 0.03487207841926605 0.04251072998240527 0.009999999999999972
    vertex 0.03497157580283965 0.03947424926937632 0.015
  endloop
endfacet
facet normal -0.999464 -0.0327498 0
  outer loop
    vertex 0.03507107318641325 0.03643776855634737 0
    vertex 0.03507107318641325 0.03643776855634737 0.01000000000000003
    vertex 0.03497157580283965 0.03947424926937632 0.004999999999999999
  endloop
endfacet
facet normal -0.999464 -0.0327498 0
  outer loop
    vertex 0.03507107318641325 0.03643776855634737 0.01000000000000003
    vertex 0.03507107318641325 0.03643776855634737 0.02
    vertex 0.03497157580283965 0.03947424926937632 0.015
  endloop
endfacet
facet normal -0.617782 0.78635 0
  outer loop
    vertex 0.03507107318641325 0.03643776855634737 0.02
    vertex 0.03507107318641325 0.03643776855634737 0.009999999999999972
    vertex 0.03120605925208758 0.03340128784331842 0.015
  endloop
endfacet
facet normal -0.617782 0.78635 0
  outer loop
    vertex 0.02734104531776191 0.03036480713028948 0
    vertex 0.02734104531776191 0.03036480713028948 0.01000000000000003
    vertex 0.03120605925208758 0.03340128784331842 0.005000000000000001
  endloop
endfacet
facet normal -0.617782 0.78635 0
  outer loop
    vertex 0.03507107318641325 0.03643776855634737 0.009999999999999972
    vertex 0.03507107318641325 0.03643776855634737 0
    vertex 0.03120605925208758 0.03340128784331842 0.005000000000000001
  endloop
endfacet
facet normal -0.617782 0.78635 0
  outer loop
    vertex 0.02734104531776191 0.03036480713028948 0.01000000000000003
    vertex 0.02734104531776191 0.03036480713028948 0.02
    vertex 0.03120605925208758 0.03340128784331842 0.015
  endloop
endfacet
facet normal -0.617782 0.78635 2.75731e-16
  outer loop
    vertex 0.03507107318641325 0.03643776855634737 0
    vertex 0.02734104531776191 0.03036480713028948 0
    vertex 0.03120605925208758 0.03340128784331842 0.005000000000000001
  endloop
endfacet
facet normal -0.617782 0.78635 2.75731e-16
  outer loop
    vertex 0.03507107318641325 0.03643776855634737 0.009999999999999972
    vertex 0.02734104531776191 0.03036480713028948 0.01000000000000003
    vertex 0.03120605925208758 0.03340128784331842 0.015
  endloop
endfacet
facet normal -0.617782 0.78635 -2.75731e-16
  outer loop
    vertex 0.02734104531776191 0.03036480713028948 0.02
    vertex 0.03507107318641325 0.03643776855634737 0.02
    vertex 0.03120605925208758 0.03340128784331842 0.015
  endloop
endfacet
facet normal -0.617782 0.78635 -2.75731e-16
  outer loop
    vertex 0.02734104531776191 0.03036480713028948 0.01000000000000003
    vertex 0.03507107318641325 0.03643776855634737 0.009999999999999972
    vertex 0.03120605925208758 0.03340128784331842 0.005000000000000001
  endloop
endfacet
facet normal -0.593856 0.804571 -2.65052e-16
  outer loop
    vertex 0.02734104531776191 0.03036480713028948 0
    vertex 0.01911324848789425 0.02429184570423158 0
    vertex 0.02322714690282808 0.02732832641726053 0.004999999999999986
  endloop
endfacet
facet normal -0.593856 0.804571 2.65052e-16
  outer loop
    vertex 0.01911324848789425 0.02429184570423158 0.02
    vertex 0.02734104531776191 0.03036480713028948 0.02
    vertex 0.02322714690282808 0.02732832641726053 0.01500000000000001
  endloop
endfacet
facet normal -0.593856 0.804571 0
  outer loop
    vertex 0.01911324848789425 0.02429184570423158 0.01000000000000003
    vertex 0.02322714690282808 0.02732832641726053 0.01500000000000001
    vertex 0.02322714690282808 0.02732832641726053 0.004999999999999986
  endloop
endfacet
facet normal -0.593856 0.804571 0
  outer loop
    vertex 0.02322714690282808 0.02732832641726053 0.01500000000000001
    vertex 0.02734104531776191 0.03036480713028948 0.009999999999999972
    vertex 0.02322714690282808 0.02732832641726053 0.004999999999999986
  endloop
endfacet
facet normal -0.593856 0.804571 0
  outer loop
    vertex 0.01911324848789425 0.02429184570423158 0
    vertex 0.01911324848789425 0.02429184570423158 0.01000000000000003
    vertex 0.02322714690282808 0.02732832641726053 0.004999999999999986
  endloop
endfacet
facet normal -0.593856 0.804571 0
  outer loop
    vertex 0.02734104531776191 0.03036480713028948 0.02
    vertex 0.02734104531776191 0.03036480713028948 0.009999999999999972
    vertex 0.02322714690282808 0.02732832641726053 0.01500000000000001
  endloop
endfacet
facet normal -0.593856 0.804571 0
  outer loop
    vertex 0.02734104531776191 0.03036480713028948 0.009999999999999972
    vertex 0.02734104531776191 0.03036480713028948 0
    vertex 0.02322714690282808 0.02732832641726053 0.004999999999999986
  endloop
endfacet
facet normal -0.593856 0.804571 0
  outer loop
    vertex 0.01911324848789425 0.02429184570423158 0.01000000000000003
    vertex 0.01911324848789425 0.02429184570423158 0.02
    vertex 0.02322714690282808 0.02732832641726053 0.01500000000000001
  endloop
endfacet
facet normal -0.722167 -0.691719 -0
  outer loop
    vertex 0.01911324848789425 0.02429184570423158 0.02
    vertex 0.01911324848789425 0.02429184570423158 0.009999999999999972
    vertex 0.02202170475626936 0.02125536499120264 0.015
  endloop
endfacet
facet normal -0.722167 -0.691719 0
  outer loop
    vertex 0.02493016102464447 0.01821888427817369 0
    vertex 0.02493016102464447 0.01821888427817369 0.01000000000000003
    vertex 0.02202170475626936 0.02125536499120264 0.005000000000000001
  endloop
endfacet
facet normal -0.722167 -0.691719 -0
  outer loop
    vertex 0.01911324848789425 0.02429184570423158 0.009999999999999972
    vertex 0.01911324848789425 0.02429184570423158 0
    vertex 0.02202170475626936 0.02125536499120264 0.005000000000000001
  endloop
endfacet
facet normal -0.722167 -0.691719 0
  outer loop
    vertex 0.02493016102464447 0.01821888427817369 0.01000000000000003
    vertex 0.02493016102464447 0.01821888427817369 0.02
    vertex 0.02202170475626936 0.02125536499120264 0.015
  endloop
endfacet
facet normal -0.722167 -0.691719 -4.8348e-16
  outer loop
    vertex 0.02493016102464447 0.01821888427817369 0.02
    vertex 0.01911324848789425 0.02429184570423158 0.02
    vertex 0.02202170475626936 0.02125536499120264 0.015
  endloop
endfacet
facet normal -0.722167 -0.691719 -4.8348e-16
  outer loop
    vertex 0.02493016102464447 0.01821888427817369 0.01000000000000003
    vertex 0.01911324848789425 0.02429184570423158 0.009999999999999972
    vertex 0.02202170475626936 0.02125536499120264 0.005000000000000001
  endloop
endfacet
facet normal -0.722167 -0.691719 5.6406e-16
  outer loop
    vertex 0.01911324848789425 0.02429184570423158 0
    vertex 0.02493016102464447 0.01821888427817369 0
    vertex 0.02202170475626936 0.02125536499120264 0.005000000000000001
  endloop
endfacet
facet normal -0.722167 -0.691719 5.6406e-16
  outer loop
    vertex 0.01911324848789425 0.02429184570423158 0.009999999999999972
    vertex 0.02493016102464447 0.01821888427817369 0.01000000000000003
    vertex 0.02202170475626936 0.02125536499120264 0.015
  endloop
endfacet
facet normal -0.438004 -0.898973 0
  outer loop
    vertex 0.0373945129804379 0.01214592285211579 0
    vertex 0.0373945129804379 0.01214592285211579 0.01000000000000003
    vertex 0.0330319897959102 0.01427145935123605 0.005000000000000005
  endloop
endfacet
facet normal -0.438004 -0.898973 -0
  outer loop
    vertex 0.02493016102464447 0.01821888427817369 0.02
    vertex 0.02493016102464447 0.01821888427817369 0.009999999999999972
    vertex 0.02929268420917218 0.01609334777905342 0.015
  endloop
endfacet
facet normal -0.438004 -0.898973 -0
  outer loop
    vertex 0.02493016102464447 0.01821888427817369 0.009999999999999972
    vertex 0.02493016102464447 0.01821888427817369 0
    vertex 0.0290433971700563 0.01621480700757458 0.004999999999999999
  endloop
endfacet
facet normal -0.438004 -0.898973 0
  outer loop
    vertex 0.0373945129804379 0.01214592285211579 0.01000000000000003
    vertex 0.0373945129804379 0.01214592285211579 0.02
    vertex 0.03328127683502607 0.01415000012271489 0.01500000000000001
  endloop
endfacet
facet normal -0.438004 -0.898973 -9.77456e-17
  outer loop
    vertex 0.03116233700254118 0.01518240356514474 0.02
    vertex 0.02493016102464447 0.01821888427817369 0.02
    vertex 0.02929268420917218 0.01609334777905342 0.015
  endloop
endfacet
facet normal -0.438004 -0.898973 -1.22182e-16
  outer loop
    vertex 0.03116233700254118 0.01518240356514474 0
    vertex 0.0373945129804379 0.01214592285211579 0
    vertex 0.0330319897959102 0.01427145935123605 0.005000000000000005
  endloop
endfacet
facet normal -0.438004 -0.898973 -4.88728e-17
  outer loop
    vertex 0.0373945129804379 0.01214592285211579 0.02
    vertex 0.03116233700254118 0.01518240356514474 0.02
    vertex 0.03328127683502607 0.01415000012271489 0.01500000000000001
  endloop
endfacet
facet normal -0.438004 -0.898973 2.44364e-16
  outer loop
    vertex 0.02493016102464447 0.01821888427817369 0
    vertex 0.03116233700254118 0.01518240356514474 0
    vertex 0.0290433971700563 0.01621480700757458 0.004999999999999999
  endloop
endfacet
facet normal -0.438004 -0.898973 -1.33637e-16
  outer loop
    vertex 0.03116233700254118 0.01518240356514474 0.02
    vertex 0.02929268420917218 0.01609334777905342 0.015
    vertex 0.03328127683502607 0.01415000012271489 0.01500000000000001
  endloop
endfacet
facet normal -0.438004 -0.898973 1.90909e-17
  outer loop
    vertex 0.03116233700254118 0.01518240356514474 0
    vertex 0.0330319897959102 0.01427145935123605 0.005000000000000005
    vertex 0.0290433971700563 0.01621480700757458 0.004999999999999999
  endloop
endfacet
facet normal -0.438004 -0.898973 0
  outer loop
    vertex 0.0290433971700563 0.01621480700757458 0.004999999999999999
    vertex 0.0330319897959102 0.01427145935123605 0.005000000000000005
    vertex 0.03116233700254118 0.01518240356514474 0.01
  endloop
endfacet
facet normal -0.438004 -0.898973 -1.90909e-16
  outer loop
    vertex 0.03328127683502607 0.01415000012271489 0.01500000000000001
    vertex 0.02929268420917218 0.01609334777905342 0.015
    vertex 0.03116233700254118 0.01518240356514474 0.01
  endloop
endfacet
facet normal -0.438004 -0.898973 -2.44364e-16
  outer loop
    vertex 0.02493016102464447 0.01821888427817369 0.009999999999999972
    vertex 0.0290433971700563 0.01621480700757458 0.004999999999999999
    vertex 0.03116233700254118 0.01518240356514474 0.01
  endloop
endfacet
facet normal -0.438004 -0.898973 -9.77456e-17
  outer loop
    vertex 0.02929268420917218 0.01609334777905342 0.015
    vertex 0.02493016102464447 0.01821888427817369 0.009999999999999972
    vertex 0.03116233700254118 0.01518240356514474 0.01
  endloop
endfacet
facet normal -0.438004 -0.898973 1.22182e-16
  outer loop
    vertex 0.0330319897959102 0.01427145935123605 0.005000000000000005
    vertex 0.0373945129804379 0.01214592285211579 0.01000000000000003
    vertex 0.03116233700254118 0.01518240356514474 0.01
  endloop
endfacet
facet normal -0.438004 -0.898973 -1.46618e-16
  outer loop
    vertex 0.0373945129804379 0.01214592285211579 0.01000000000000003
    vertex 0.03328127683502607 0.01415000012271489 0.01500000000000001
    vertex 0.03116233700254118 0.01518240356514474 0.01
  endloop
endfacet
facet normal -0.454587 0.890702 0
  outer loop
    vertex 0.0373945129804379 0.01214592285211579 0.02
    vertex 0.0373945129804379 0.01214592285211579 0.009999999999999972
    vertex 0.03322981422798423 0.01002038635299553 0.015
  endloop
endfacet
facet normal -0.454587 0.890702 0
  outer loop
    vertex 0.02549537368771311 0.006072961426057899 0
    vertex 0.02549537368771311 0.006072961426057899 0.01000000000000003
    vertex 0.02966007244016679 0.008198497925178164 0.004999999999999999
  endloop
endfacet
facet normal -0.454587 0.890702 0
  outer loop
    vertex 0.0373945129804379 0.01214592285211579 0.009999999999999972
    vertex 0.0373945129804379 0.01214592285211579 0
    vertex 0.03346779701383872 0.01014184558151669 0.004999999999999992
  endloop
endfacet
facet normal -0.454587 0.890702 0
  outer loop
    vertex 0.02549537368771311 0.006072961426057899 0.01000000000000003
    vertex 0.02549537368771311 0.006072961426057899 0.02
    vertex 0.02942208965431229 0.008077038696657005 0.015
  endloop
endfacet
facet normal -0.454587 0.890702 -7.60849e-17
  outer loop
    vertex 0.0314449433340755 0.009109442139086842 0.02
    vertex 0.0373945129804379 0.01214592285211579 0.02
    vertex 0.03322981422798423 0.01002038635299553 0.015
  endloop
endfacet
facet normal -0.454587 0.890702 2.53616e-16
  outer loop
    vertex 0.03144494333407551 0.009109442139086849 0
    vertex 0.02549537368771311 0.006072961426057899 0
    vertex 0.02966007244016679 0.008198497925178164 0.004999999999999999
  endloop
endfacet
facet normal -0.454587 0.890702 0
  outer loop
    vertex 0.02549537368771311 0.006072961426057899 0.02
    vertex 0.0314449433340755 0.009109442139086842 0.02
    vertex 0.02942208965431229 0.008077038696657005 0.015
  endloop
endfacet
facet normal -0.454587 0.890702 3.55063e-16
  outer loop
    vertex 0.0373945129804379 0.01214592285211579 0
    vertex 0.03144494333407551 0.009109442139086849 0
    vertex 0.03346779701383872 0.01014184558151669 0.004999999999999992
  endloop
endfacet
facet normal -0.454587 0.890702 5.94413e-17
  outer loop
    vertex 0.0314449433340755 0.009109442139086842 0.02
    vertex 0.03322981422798423 0.01002038635299553 0.015
    vertex 0.02942208965431229 0.008077038696657005 0.015
  endloop
endfacet
facet normal -0.454587 0.890702 3.86369e-16
  outer loop
    vertex 0.03144494333407551 0.009109442139086849 0
    vertex 0.02966007244016679 0.008198497925178164 0.004999999999999999
    vertex 0.03346779701383872 0.01014184558151669 0.004999999999999992
  endloop
endfacet
facet normal -0.454587 0.890702 2.37765e-16
  outer loop
    vertex 0.02942208965431229 0.008077038696657005 0.015
    vertex 0.03322981422798423 0.01002038635299553 0.015
    vertex 0.03144494333407551 0.009109442139086847 0.009999999999999998
  endloop
endfacet
facet normal -0.454587 0.890702 -7.92551e-17
  outer loop
    vertex 0.03346779701383872 0.01014184558151669 0.004999999999999992
    vertex 0.02966007244016679 0.008198497925178164 0.004999999999999999
    vertex 0.03144494333407551 0.009109442139086847 0.009999999999999998
  endloop
endfacet
facet normal -0.454587 0.890702 1.5217e-16
  outer loop
    vertex 0.02549537368771311 0.006072961426057899 0.01000000000000003
    vertex 0.02942208965431229 0.008077038696657005 0.015
    vertex 0.03144494333407551 0.009109442139086847 0.009999999999999998
  endloop
endfacet
facet normal -0.454587 0.890702 -3.80425e-17
  outer loop
    vertex 0.02966007244016679 0.008198497925178164 0.004999999999999999
    vertex 0.02549537368771311 0.006072961426057899 0.01000000000000003
    vertex 0.03144494333407551 0.009109442139086847 0.009999999999999998
  endloop
endfacet
facet normal -0.454587 0.890702 2.78978e-16
  outer loop
    vertex 0.03322981422798423 0.01002038635299553 0.015
    vertex 0.0373945129804379 0.01214592285211579 0.009999999999999972
    vertex 0.03144494333407551 0.009109442139086847 0.009999999999999998
  endloop
endfacet
facet normal -0.454587 0.890702 -1.5217e-16
  outer loop
    vertex 0.0373945129804379 0.01214592285211579 0.009999999999999972
    vertex 0.03346779701383872 0.01014184558151669 0.004999999999999992
    vertex 0.03144494333407551 0.009109442139086847 0.009999999999999998
  endloop
endfacet
endsolid Created by Gmsh
