solid Created by Gmsh
facet normal 1 0 0
  outer loop
    vertex 0.04 0.05662231783557501 0
    vertex 0.04 0.06 0
    vertex 0.04 0.06 0.009999999999999972
  endloop
endfacet
facet normal 1 0 0
  outer loop
    vertex 0.04 0.05662231783557501 0.01000000000000003
    vertex 0.04 0.06 0.02
    vertex 0.04 0.05662231783557501 0.02
  endloop
endfacet
facet normal 1 0 -0
  outer loop
    vertex 0.04 0.06 0.009999999999999972
    vertex 0.04 0.06 0.02
    vertex 0.04 0.05662231783557501 0.01000000000000003
  endloop
endfacet
facet normal 1 0 0
  outer loop
    vertex 0.04 0.05662231783557501 0
    vertex 0.04 0.06 0.009999999999999972
    vertex 0.04 0.05662231783557501 0.01000000000000003
  endloop
endfacet
facet normal 0.994785 -0.101997 2.07148e-15
  outer loop
    vertex 0.04 0.05662231783557501 0.009999999999999972
    vertex 0.03963715171076152 0.05308342297085157 0.015
    vertex 0.03927430342152306 0.04954452810612813 0.01000000000000003
  endloop
endfacet
facet normal 0.994785 -0.101997 -2.07148e-15
  outer loop
    vertex 0.03927430342152306 0.04954452810612813 0.01000000000000003
    vertex 0.03963715171076152 0.05308342297085157 0.005
    vertex 0.04 0.05662231783557501 0.009999999999999972
  endloop
endfacet
facet normal 0.994785 -0.101997 2.07148e-15
  outer loop
    vertex 0.04 0.05662231783557501 0
    vertex 0.03963715171076152 0.05308342297085157 0.005
    vertex 0.03927430342152306 0.04954452810612813 0
  endloop
endfacet
facet normal 0.994785 -0.101997 -2.07148e-15
  outer loop
    vertex 0.03927430342152306 0.04954452810612813 0.02
    vertex 0.03963715171076152 0.05308342297085157 0.015
    vertex 0.04 0.05662231783557501 0.02
  endloop
endfacet
facet normal 0.994785 -0.101997 0
  outer loop
    vertex 0.04 0.05662231783557501 0.009999999999999972
    vertex 0.03963715171076152 0.05308342297085157 0.005
    vertex 0.04 0.05662231783557501 0
  endloop
endfacet
facet normal 0.994785 -0.101997 0
  outer loop
    vertex 0.04 0.05662231783557501 0.02
    vertex 0.03963715171076152 0.05308342297085157 0.015
    vertex 0.04 0.05662231783557501 0.009999999999999972
  endloop
endfacet
facet normal 0.994785 -0.101997 0
  outer loop
    vertex 0.03927430342152306 0.04954452810612813 0
    vertex 0.03963715171076152 0.05308342297085157 0.005
    vertex 0.03927430342152306 0.04954452810612813 0.01000000000000003
  endloop
endfacet
facet normal 0.994785 -0.101997 0
  outer loop
    vertex 0.03927430342152306 0.04954452810612813 0.01000000000000003
    vertex 0.03963715171076152 0.05308342297085157 0.015
    vertex 0.03927430342152306 0.04954452810612813 0.02
  endloop
endfacet
facet normal 0.36184 -0.93224 1.51331e-15
  outer loop
    vertex 0.02103914828457098 0.04246673837668126 0.02
    vertex 0.02803267656609564 0.04518120514550331 0.0124456749697593
    vertex 0.03015672585304702 0.04600563324140469 0.02
  endloop
endfacet
facet normal 0.36184 -0.93224 0
  outer loop
    vertex 0.03927430342152306 0.04954452810612813 0.009999999999999972
    vertex 0.03264002296772735 0.04696949972246536 0.007038485493860749
    vertex 0.03927430342152306 0.04954452810612813 0
  endloop
endfacet
facet normal 0.36184 -0.93224 0
  outer loop
    vertex 0.02103914828457098 0.04246673837668126 0.01000000000000003
    vertex 0.02803267656609564 0.04518120514550331 0.0124456749697593
    vertex 0.02103914828457098 0.04246673837668126 0.02
  endloop
endfacet
facet normal 0.36184 -0.93224 -1.87031e-15
  outer loop
    vertex 0.03927430342152306 0.04954452810612813 0
    vertex 0.03264002296772735 0.04696949972246536 0.007038485493860749
    vertex 0.03015672585304702 0.0460056332414047 0
  endloop
endfacet
facet normal 0.36184 -0.93224 0
  outer loop
    vertex 0.03927430342152306 0.04954452810612813 0.02
    vertex 0.03428156549665802 0.04760664773488735 0.01454473685871102
    vertex 0.03927430342152306 0.04954452810612813 0.009999999999999972
  endloop
endfacet
facet normal 0.36184 -0.93224 0
  outer loop
    vertex 0.02103914828457098 0.04246673837668126 0
    vertex 0.026446084287842 0.04456538551317743 0.005846345095952491
    vertex 0.02103914828457098 0.04246673837668126 0.01000000000000003
  endloop
endfacet
facet normal 0.36184 -0.93224 1.52407e-15
  outer loop
    vertex 0.03015672585304702 0.04600563324140469 0.02
    vertex 0.03428156549665802 0.04760664773488735 0.01454473685871102
    vertex 0.03927430342152306 0.04954452810612813 0.02
  endloop
endfacet
facet normal 0.36184 -0.93224 -2.31094e-15
  outer loop
    vertex 0.03015672585304702 0.0460056332414047 0
    vertex 0.026446084287842 0.04456538551317743 0.005846345095952491
    vertex 0.02103914828457098 0.04246673837668126 0
  endloop
endfacet
facet normal 0.36184 -0.93224 -7.02883e-17
  outer loop
    vertex 0.03927430342152306 0.04954452810612813 0.009999999999999972
    vertex 0.03428156549665802 0.04760664773488735 0.01454473685871102
    vertex 0.03264002296772735 0.04696949972246536 0.007038485493860749
  endloop
endfacet
facet normal 0.36184 -0.93224 3.73596e-16
  outer loop
    vertex 0.026446084287842 0.04456538551317743 0.005846345095952491
    vertex 0.02803267656609564 0.04518120514550331 0.0124456749697593
    vertex 0.02103914828457098 0.04246673837668126 0.01000000000000003
  endloop
endfacet
facet normal 0.36184 -0.93224 2.08947e-16
  outer loop
    vertex 0.03264002296772735 0.04696949972246536 0.007038485493860749
    vertex 0.03428156549665802 0.04760664773488735 0.01454473685871102
    vertex 0.02803267656609564 0.04518120514550331 0.0124456749697593
  endloop
endfacet
facet normal 0.36184 -0.93224 1.42235e-15
  outer loop
    vertex 0.02803267656609564 0.04518120514550331 0.0124456749697593
    vertex 0.03428156549665802 0.04760664773488735 0.01454473685871102
    vertex 0.03015672585304702 0.04600563324140469 0.02
  endloop
endfacet
facet normal 0.36184 -0.93224 -1.41787e-16
  outer loop
    vertex 0.026446084287842 0.04456538551317743 0.005846345095952491
    vertex 0.03264002296772735 0.04696949972246536 0.007038485493860749
    vertex 0.02803267656609564 0.04518120514550331 0.0124456749697593
  endloop
endfacet
facet normal 0.36184 -0.93224 -2.11811e-15
  outer loop
    vertex 0.03015672585304702 0.0460056332414047 0
    vertex 0.03264002296772735 0.04696949972246536 0.007038485493860749
    vertex 0.026446084287842 0.04456538551317743 0.005846345095952491
  endloop
endfacet
facet normal 0.363742 0.9315 -5.52274e-16
  outer loop
    vertex 0.02103914828457098 0.04246673837668126 0
    vertex 0.02802803095109701 0.03973764622706519 0.007566798011499212
    vertex 0.03010184006000373 0.03892784351195782 0
  endloop
endfacet
facet normal 0.363742 0.9315 0
  outer loop
    vertex 0.02103914828457098 0.04246673837668126 0.009999999999999972
    vertex 0.02802803095109701 0.03973764622706519 0.007566798011499212
    vertex 0.02103914828457098 0.04246673837668126 0
  endloop
endfacet
facet normal 0.363742 0.9315 -0
  outer loop
    vertex 0.03916453183543649 0.03538894864723438 0.01000000000000003
    vertex 0.03258658132542706 0.03795757570165781 0.01296503666049251
    vertex 0.03916453183543649 0.03538894864723438 0.02
  endloop
endfacet
facet normal 0.363742 0.9315 -3.46515e-16
  outer loop
    vertex 0.03916453183543649 0.03538894864723438 0.02
    vertex 0.03258658132542706 0.03795757570165781 0.01296503666049251
    vertex 0.03010184006000374 0.03892784351195782 0.02
  endloop
endfacet
facet normal 0.363742 0.9315 -0
  outer loop
    vertex 0.03916453183543649 0.03538894864723438 0
    vertex 0.03423462279080627 0.03731403119819231 0.005416283136612444
    vertex 0.03916453183543649 0.03538894864723438 0.01000000000000003
  endloop
endfacet
facet normal 0.363742 0.9315 0
  outer loop
    vertex 0.02103914828457098 0.04246673837668126 0.02
    vertex 0.02642564060410691 0.04036336440338206 0.01416027246366335
    vertex 0.02103914828457098 0.04246673837668126 0.009999999999999972
  endloop
endfacet
facet normal 0.363742 0.9315 9.64441e-17
  outer loop
    vertex 0.03010184006000373 0.03892784351195782 0
    vertex 0.03423462279080627 0.03731403119819231 0.005416283136612444
    vertex 0.03916453183543649 0.03538894864723438 0
  endloop
endfacet
facet normal 0.363742 0.9315 1.19268e-16
  outer loop
    vertex 0.03010184006000374 0.03892784351195782 0.02
    vertex 0.02642564060410691 0.04036336440338206 0.01416027246366335
    vertex 0.02103914828457098 0.04246673837668126 0.02
  endloop
endfacet
facet normal 0.363742 0.9315 -7.04965e-17
  outer loop
    vertex 0.03916453183543649 0.03538894864723438 0.01000000000000003
    vertex 0.03423462279080627 0.03731403119819231 0.005416283136612444
    vertex 0.03258658132542706 0.03795757570165781 0.01296503666049251
  endloop
endfacet
facet normal 0.363742 0.9315 1.96401e-16
  outer loop
    vertex 0.02642564060410691 0.04036336440338206 0.01416027246366335
    vertex 0.02802803095109701 0.03973764622706519 0.007566798011499212
    vertex 0.02103914828457098 0.04246673837668126 0.009999999999999972
  endloop
endfacet
facet normal 0.363742 0.9315 1.91296e-16
  outer loop
    vertex 0.03258658132542706 0.03795757570165781 0.01296503666049251
    vertex 0.03423462279080627 0.03731403119819231 0.005416283136612444
    vertex 0.02802803095109701 0.03973764622706519 0.007566798011499212
  endloop
endfacet
facet normal 0.363742 0.9315 -4.45514e-16
  outer loop
    vertex 0.02802803095109701 0.03973764622706519 0.007566798011499212
    vertex 0.03423462279080627 0.03731403119819231 0.005416283136612444
    vertex 0.03010184006000373 0.03892784351195782 0
  endloop
endfacet
facet normal 0.363742 0.9315 4.28071e-16
  outer loop
    vertex 0.02642564060410691 0.04036336440338206 0.01416027246366335
    vertex 0.03258658132542706 0.03795757570165781 0.01296503666049251
    vertex 0.02802803095109701 0.03973764622706519 0.007566798011499212
  endloop
endfacet
facet normal 0.363742 0.9315 -2.34521e-16
  outer loop
    vertex 0.03010184006000374 0.03892784351195782 0.02
    vertex 0.03258658132542706 0.03795757570165781 0.01296503666049251
    vertex 0.02642564060410691 0.04036336440338206 0.01416027246366335
  endloop
endfacet
facet normal 0.630958 -0.775817 -3.18443e-16
  outer loop
    vertex 0.03916453183543649 0.03538894864723438 0
    vertex 0.03481315340462148 0.03185005378251094 0.005690917171295235
    vertex 0.03046177497380648 0.02831115891778751 0
  endloop
endfacet
facet normal 0.630958 -0.775817 8.75377e-16
  outer loop
    vertex 0.03046177497380648 0.02831115891778751 0.02
    vertex 0.0348131534046215 0.03185005378251095 0.01447938359017075
    vertex 0.03916453183543649 0.03538894864723438 0.02
  endloop
endfacet
facet normal 0.630958 -0.775817 0
  outer loop
    vertex 0.03046177497380648 0.02831115891778751 0
    vertex 0.03481315340462148 0.03185005378251094 0.005690917171295235
    vertex 0.03046177497380648 0.02831115891778751 0.01000000000000003
  endloop
endfacet
facet normal 0.630958 -0.775817 0
  outer loop
    vertex 0.03916453183543649 0.03538894864723438 0.02
    vertex 0.0348131534046215 0.03185005378251095 0.01447938359017075
    vertex 0.03916453183543649 0.03538894864723438 0.009999999999999972
  endloop
endfacet
facet normal 0.630958 -0.775817 -4.12412e-16
  outer loop
    vertex 0.03046177497380648 0.02831115891778751 0.01000000000000003
    vertex 0.03481315340462148 0.03185005378251094 0.005690917171295235
    vertex 0.0348131534046215 0.03185005378251095 0.01447938359017075
  endloop
endfacet
facet normal 0.630958 -0.775817 -3.83797e-16
  outer loop
    vertex 0.0348131534046215 0.03185005378251095 0.01447938359017075
    vertex 0.03481315340462148 0.03185005378251094 0.005690917171295235
    vertex 0.03916453183543649 0.03538894864723438 0.009999999999999972
  endloop
endfacet
facet normal 0.630958 -0.775817 0
  outer loop
    vertex 0.03916453183543649 0.03538894864723438 0.009999999999999972
    vertex 0.03481315340462148 0.03185005378251094 0.005690917171295235
    vertex 0.03916453183543649 0.03538894864723438 0
  endloop
endfacet
facet normal 0.630958 -0.775817 0
  outer loop
    vertex 0.03046177497380648 0.02831115891778751 0.01000000000000003
    vertex 0.0348131534046215 0.03185005378251095 0.01447938359017075
    vertex 0.03046177497380648 0.02831115891778751 0.02
  endloop
endfacet
facet normal 0.776237 0.630441 -0
  outer loop
    vertex 0.03621018272963768 0.02123336918834063 0
    vertex 0.03333597885172208 0.02477226405306407 0.005
    vertex 0.03621018272963768 0.02123336918834063 0.01000000000000003
  endloop
endfacet
facet normal 0.776237 0.630441 0
  outer loop
    vertex 0.03046177497380648 0.02831115891778751 0.02
    vertex 0.03333597885172208 0.02477226405306407 0.015
    vertex 0.03046177497380648 0.02831115891778751 0.009999999999999972
  endloop
endfacet
facet normal 0.776237 0.630441 -0
  outer loop
    vertex 0.03621018272963768 0.02123336918834063 0.01000000000000003
    vertex 0.03333597885172208 0.02477226405306407 0.015
    vertex 0.03621018272963768 0.02123336918834063 0.02
  endloop
endfacet
facet normal 0.776237 0.630441 0
  outer loop
    vertex 0.03046177497380648 0.02831115891778751 0.009999999999999972
    vertex 0.03333597885172208 0.02477226405306407 0.005
    vertex 0.03046177497380648 0.02831115891778751 0
  endloop
endfacet
facet normal 0.776237 0.630441 -7.43168e-16
  outer loop
    vertex 0.03621018272963768 0.02123336918834063 0.02
    vertex 0.03333597885172208 0.02477226405306407 0.015
    vertex 0.03046177497380648 0.02831115891778751 0.02
  endloop
endfacet
facet normal 0.776237 0.630441 -7.43168e-16
  outer loop
    vertex 0.03621018272963768 0.02123336918834063 0.01000000000000003
    vertex 0.03333597885172208 0.02477226405306407 0.005
    vertex 0.03046177497380648 0.02831115891778751 0.009999999999999972
  endloop
endfacet
facet normal 0.776237 0.630441 7.43168e-16
  outer loop
    vertex 0.03046177497380648 0.02831115891778751 0
    vertex 0.03333597885172208 0.02477226405306407 0.005
    vertex 0.03621018272963768 0.02123336918834063 0
  endloop
endfacet
facet normal 0.776237 0.630441 7.43168e-16
  outer loop
    vertex 0.03046177497380648 0.02831115891778751 0.009999999999999972
    vertex 0.03333597885172208 0.02477226405306407 0.015
    vertex 0.03621018272963768 0.02123336918834063 0.01000000000000003
  endloop
endfacet
facet normal 0.533963 -0.845508 1.53365e-16
  outer loop
    vertex 0.02500279546624071 0.01415557945889375 0.01000000000000003
    vertex 0.03621018272963768 0.02123336918834063 0.009999999999999972
    vertex 0.0306064890979392 0.01769447432361719 0.02
  endloop
endfacet
facet normal 0.533963 -0.845508 1.02243e-16
  outer loop
    vertex 0.0306064890979392 0.01769447432361719 0
    vertex 0.03621018272963768 0.02123336918834063 0.009999999999999972
    vertex 0.02500279546624071 0.01415557945889375 0.01000000000000003
  endloop
endfacet
facet normal 0.533963 -0.845508 0
  outer loop
    vertex 0.0306064890979392 0.01769447432361719 0
    vertex 0.03621018272963768 0.02123336918834063 0
    vertex 0.03621018272963768 0.02123336918834063 0.009999999999999972
  endloop
endfacet
facet normal 0.533963 -0.845508 0
  outer loop
    vertex 0.03621018272963768 0.02123336918834063 0.009999999999999972
    vertex 0.03621018272963768 0.02123336918834063 0.02
    vertex 0.0306064890979392 0.01769447432361719 0.02
  endloop
endfacet
facet normal 0.533963 -0.845508 0
  outer loop
    vertex 0.02500279546624071 0.01415557945889375 0.01000000000000003
    vertex 0.02500279546624071 0.01415557945889375 0
    vertex 0.0306064890979392 0.01769447432361719 0
  endloop
endfacet
facet normal 0.533963 -0.845508 0
  outer loop
    vertex 0.0306064890979392 0.01769447432361719 0.02
    vertex 0.02500279546624071 0.01415557945889375 0.02
    vertex 0.02500279546624071 0.01415557945889375 0.01000000000000003
  endloop
endfacet
facet normal 0.645983 0.763351 6.75484e-16
  outer loop
    vertex 0.03336653959642877 0.007077789729446879 0.02
    vertex 0.02918466753133474 0.01061668459417032 0.01450648773478912
    vertex 0.02500279546624071 0.01415557945889375 0.02
  endloop
endfacet
facet normal 0.645983 0.763351 -8.96224e-16
  outer loop
    vertex 0.02500279546624071 0.01415557945889375 0
    vertex 0.02918466753133474 0.01061668459417032 0.005520616409829229
    vertex 0.03336653959642877 0.007077789729446879 0
  endloop
endfacet
facet normal 0.645983 0.763351 1.72066e-16
  outer loop
    vertex 0.02500279546624071 0.01415557945889375 0.009999999999999972
    vertex 0.02918466753133474 0.01061668459417032 0.01450648773478912
    vertex 0.02918466753133474 0.01061668459417032 0.005520616409829229
  endloop
endfacet
facet normal 0.645983 0.763351 1.47365e-16
  outer loop
    vertex 0.02918466753133474 0.01061668459417032 0.005520616409829229
    vertex 0.02918466753133474 0.01061668459417032 0.01450648773478912
    vertex 0.03336653959642877 0.007077789729446879 0.01000000000000003
  endloop
endfacet
facet normal 0.645983 0.763351 0
  outer loop
    vertex 0.02500279546624071 0.01415557945889375 0.02
    vertex 0.02918466753133474 0.01061668459417032 0.01450648773478912
    vertex 0.02500279546624071 0.01415557945889375 0.009999999999999972
  endloop
endfacet
facet normal 0.645983 0.763351 -0
  outer loop
    vertex 0.03336653959642877 0.007077789729446879 0
    vertex 0.02918466753133474 0.01061668459417032 0.005520616409829229
    vertex 0.03336653959642877 0.007077789729446879 0.01000000000000003
  endloop
endfacet
facet normal 0.645983 0.763351 0
  outer loop
    vertex 0.02500279546624071 0.01415557945889375 0.009999999999999972
    vertex 0.02918466753133474 0.01061668459417032 0.005520616409829229
    vertex 0.02500279546624071 0.01415557945889375 0
  endloop
endfacet
facet normal 0.645983 0.763351 -0
  outer loop
    vertex 0.03336653959642877 0.007077789729446879 0.01000000000000003
    vertex 0.02918466753133474 0.01061668459417032 0.01450648773478912
    vertex 0.03336653959642877 0.007077789729446879 0.02
  endloop
endfacet
endsolid Created by Gmsh
