solid Created by Gmsh
facet normal 1 0 0
  outer loop
    vertex 0.04 0.05860572396007069 0
    vertex 0.04 0.06 0
    vertex 0.04 0.06 0.009999999999999972
  endloop
endfacet
facet normal 1 0 0
  outer loop
    vertex 0.04 0.05860572396007069 0.01000000000000003
    vertex 0.04 0.06 0.02
    vertex 0.04 0.05860572396007069 0.02
  endloop
endfacet
facet normal 1 0 -0
  outer loop
    vertex 0.04 0.06 0.009999999999999972
    vertex 0.04 0.06 0.02
    vertex 0.04 0.05860572396007069 0.01000000000000003
  endloop
endfacet
facet normal 1 0 0
  outer loop
    vertex 0.04 0.05860572396007069 0
    vertex 0.04 0.06 0.009999999999999972
    vertex 0.04 0.05860572396007069 0.01000000000000003
  endloop
endfacet
facet normal 0.628441 0.777857 -1.27093e-15
  outer loop
    vertex 0.04906746055958146 0.05128000846506185 0.02
    vertex 0.04453373027979073 0.05494286621256626 0.01405396560956745
    vertex 0.04 0.05860572396007069 0.02
  endloop
endfacet
facet normal 0.628441 0.777857 7.10288e-16
  outer loop
    vertex 0.04 0.05860572396007069 0
    vertex 0.04453373027979074 0.05494286621256626 0.005728862973760944
    vertex 0.04906746055958146 0.05128000846506185 0
  endloop
endfacet
facet normal 0.628441 0.777857 0
  outer loop
    vertex 0.04 0.05860572396007069 0.02
    vertex 0.04453373027979073 0.05494286621256626 0.01405396560956745
    vertex 0.04 0.05860572396007069 0.009999999999999972
  endloop
endfacet
facet normal 0.628441 0.777857 -0
  outer loop
    vertex 0.04906746055958146 0.05128000846506185 0
    vertex 0.04453373027979074 0.05494286621256626 0.005728862973760944
    vertex 0.04906746055958146 0.05128000846506185 0.01000000000000003
  endloop
endfacet
facet normal 0.628441 0.777857 4.18954e-16
  outer loop
    vertex 0.04 0.05860572396007069 0.009999999999999972
    vertex 0.04453373027979073 0.05494286621256626 0.01405396560956745
    vertex 0.04453373027979074 0.05494286621256626 0.005728862973760944
  endloop
endfacet
facet normal 0.628441 0.777857 3.99262e-16
  outer loop
    vertex 0.04453373027979074 0.05494286621256626 0.005728862973760944
    vertex 0.04453373027979073 0.05494286621256626 0.01405396560956745
    vertex 0.04906746055958146 0.05128000846506185 0.01000000000000003
  endloop
endfacet
facet normal 0.628441 0.777857 0
  outer loop
    vertex 0.04 0.05860572396007069 0.009999999999999972
    vertex 0.04453373027979074 0.05494286621256626 0.005728862973760944
    vertex 0.04 0.05860572396007069 0
  endloop
endfacet
facet normal 0.628441 0.777857 -0
  outer loop
    vertex 0.04906746055958146 0.05128000846506185 0.01000000000000003
    vertex 0.04453373027979073 0.05494286621256626 0.01405396560956745
    vertex 0.04906746055958146 0.05128000846506185 0.02
  endloop
endfacet
facet normal 0.91808 -0.396394 0
  outer loop
    vertex 0.04906746055958146 0.05128000846506185 0.02
    vertex 0.04748596864047128 0.04761715071755743 0.015
    vertex 0.04906746055958146 0.05128000846506185 0.009999999999999972
  endloop
endfacet
facet normal 0.91808 -0.396394 0
  outer loop
    vertex 0.0459044767213611 0.04395429297005302 0
    vertex 0.04748596864047128 0.04761715071755743 0.005000000000000001
    vertex 0.0459044767213611 0.04395429297005302 0.01000000000000003
  endloop
endfacet
facet normal 0.91808 -0.396394 0
  outer loop
    vertex 0.04906746055958146 0.05128000846506185 0.009999999999999972
    vertex 0.04748596864047128 0.04761715071755743 0.005000000000000001
    vertex 0.04906746055958146 0.05128000846506185 0
  endloop
endfacet
facet normal 0.91808 -0.396394 0
  outer loop
    vertex 0.0459044767213611 0.04395429297005302 0.01000000000000003
    vertex 0.04748596864047128 0.04761715071755743 0.015
    vertex 0.0459044767213611 0.04395429297005302 0.02
  endloop
endfacet
facet normal 0.91808 -0.396394 1.27383e-15
  outer loop
    vertex 0.0459044767213611 0.04395429297005302 0.01000000000000003
    vertex 0.04748596864047128 0.04761715071755743 0.005000000000000001
    vertex 0.04906746055958146 0.05128000846506185 0.009999999999999972
  endloop
endfacet
facet normal 0.91808 -0.396394 -1.27383e-15
  outer loop
    vertex 0.04906746055958146 0.05128000846506185 0.009999999999999972
    vertex 0.04748596864047128 0.04761715071755743 0.015
    vertex 0.0459044767213611 0.04395429297005302 0.01000000000000003
  endloop
endfacet
facet normal 0.91808 -0.396394 -1.27383e-15
  outer loop
    vertex 0.04906746055958146 0.05128000846506185 0
    vertex 0.04748596864047128 0.04761715071755743 0.005000000000000001
    vertex 0.0459044767213611 0.04395429297005302 0
  endloop
endfacet
facet normal 0.91808 -0.396394 1.27383e-15
  outer loop
    vertex 0.0459044767213611 0.04395429297005302 0.02
    vertex 0.04748596864047128 0.04761715071755743 0.015
    vertex 0.04906746055958146 0.05128000846506185 0.02
  endloop
endfacet
facet normal 0.812048 0.583591 0
  outer loop
    vertex 0.0459044767213611 0.04395429297005302 0.02
    vertex 0.04853684437131803 0.0402914352225486 0.015
    vertex 0.0459044767213611 0.04395429297005302 0.009999999999999972
  endloop
endfacet
facet normal 0.812048 0.583591 -0
  outer loop
    vertex 0.05116921202127497 0.03662857747504418 0
    vertex 0.04853684437131803 0.0402914352225486 0.005
    vertex 0.05116921202127497 0.03662857747504418 0.01000000000000003
  endloop
endfacet
facet normal 0.812048 0.583591 -0
  outer loop
    vertex 0.05116921202127497 0.03662857747504418 0.01000000000000003
    vertex 0.04853684437131803 0.0402914352225486 0.015
    vertex 0.05116921202127497 0.03662857747504418 0.02
  endloop
endfacet
facet normal 0.812048 0.583591 0
  outer loop
    vertex 0.0459044767213611 0.04395429297005302 0.009999999999999972
    vertex 0.04853684437131803 0.0402914352225486 0.005
    vertex 0.0459044767213611 0.04395429297005302 0
  endloop
endfacet
facet normal 0.812048 0.583591 6.00914e-16
  outer loop
    vertex 0.0459044767213611 0.04395429297005302 0.009999999999999972
    vertex 0.04853684437131803 0.0402914352225486 0.015
    vertex 0.05116921202127497 0.03662857747504418 0.01000000000000003
  endloop
endfacet
facet normal 0.812048 0.583591 -5.25799e-16
  outer loop
    vertex 0.05116921202127497 0.03662857747504418 0.01000000000000003
    vertex 0.04853684437131803 0.0402914352225486 0.005
    vertex 0.0459044767213611 0.04395429297005302 0.009999999999999972
  endloop
endfacet
facet normal 0.812048 0.583591 -5.25799e-16
  outer loop
    vertex 0.05116921202127497 0.03662857747504418 0.02
    vertex 0.04853684437131803 0.0402914352225486 0.015
    vertex 0.0459044767213611 0.04395429297005302 0.02
  endloop
endfacet
facet normal 0.812048 0.583591 6.00914e-16
  outer loop
    vertex 0.0459044767213611 0.04395429297005302 0
    vertex 0.04853684437131803 0.0402914352225486 0.005
    vertex 0.05116921202127497 0.03662857747504418 0
  endloop
endfacet
facet normal 0.881198 -0.472748 0
  outer loop
    vertex 0.05116921202127497 0.03662857747504418 0.02
    vertex 0.04920415176545442 0.03296571972753977 0.015
    vertex 0.05116921202127497 0.03662857747504418 0.009999999999999972
  endloop
endfacet
facet normal 0.881198 -0.472748 0
  outer loop
    vertex 0.0472390915096339 0.02930286198003534 0
    vertex 0.04920415176545442 0.03296571972753977 0.005000000000000001
    vertex 0.0472390915096339 0.02930286198003534 0.01000000000000003
  endloop
endfacet
facet normal 0.881198 -0.472748 0
  outer loop
    vertex 0.05116921202127497 0.03662857747504418 0.009999999999999972
    vertex 0.04920415176545442 0.03296571972753977 0.005000000000000001
    vertex 0.05116921202127497 0.03662857747504418 0
  endloop
endfacet
facet normal 0.881198 -0.472748 0
  outer loop
    vertex 0.0472390915096339 0.02930286198003534 0.01000000000000003
    vertex 0.04920415176545442 0.03296571972753977 0.015
    vertex 0.0472390915096339 0.02930286198003534 0.02
  endloop
endfacet
facet normal 0.881198 -0.472748 -2.48607e-15
  outer loop
    vertex 0.0472390915096339 0.02930286198003534 0.02
    vertex 0.04920415176545442 0.03296571972753977 0.015
    vertex 0.05116921202127497 0.03662857747504418 0.02
  endloop
endfacet
facet normal 0.881198 -0.472748 2.48607e-15
  outer loop
    vertex 0.05116921202127497 0.03662857747504418 0
    vertex 0.04920415176545442 0.03296571972753977 0.005000000000000001
    vertex 0.0472390915096339 0.02930286198003534 0
  endloop
endfacet
facet normal 0.881198 -0.472748 -2.48607e-15
  outer loop
    vertex 0.0472390915096339 0.02930286198003534 0.01000000000000003
    vertex 0.04920415176545442 0.03296571972753977 0.005000000000000001
    vertex 0.05116921202127497 0.03662857747504418 0.009999999999999972
  endloop
endfacet
facet normal 0.881198 -0.472748 2.48607e-15
  outer loop
    vertex 0.05116921202127497 0.03662857747504418 0.009999999999999972
    vertex 0.04920415176545442 0.03296571972753977 0.015
    vertex 0.0472390915096339 0.02930286198003534 0.01000000000000003
  endloop
endfacet
facet normal 0.683998 -0.729484 0
  outer loop
    vertex 0.0472390915096339 0.02930286198003534 0
    vertex 0.04333265779505238 0.02564000423253093 0.005520616409829229
    vertex 0.03942622408047086 0.02197714648502651 0
  endloop
endfacet
facet normal 0.683998 -0.729484 0
  outer loop
    vertex 0.03942622408047086 0.02197714648502651 0.02
    vertex 0.04333265779505238 0.02564000423253093 0.01450648773478912
    vertex 0.0472390915096339 0.02930286198003534 0.02
  endloop
endfacet
facet normal 0.683998 -0.729484 0
  outer loop
    vertex 0.0472390915096339 0.02930286198003534 0.009999999999999972
    vertex 0.04333265779505238 0.02564000423253093 0.01450648773478912
    vertex 0.04333265779505238 0.02564000423253093 0.005520616409829229
  endloop
endfacet
facet normal 0.683998 -0.729484 0
  outer loop
    vertex 0.04333265779505238 0.02564000423253093 0.005520616409829229
    vertex 0.04333265779505238 0.02564000423253093 0.01450648773478912
    vertex 0.03942622408047086 0.02197714648502651 0.01000000000000003
  endloop
endfacet
facet normal 0.683998 -0.729484 0
  outer loop
    vertex 0.0472390915096339 0.02930286198003534 0.02
    vertex 0.04333265779505238 0.02564000423253093 0.01450648773478912
    vertex 0.0472390915096339 0.02930286198003534 0.009999999999999972
  endloop
endfacet
facet normal 0.683998 -0.729484 0
  outer loop
    vertex 0.03942622408047086 0.02197714648502651 0
    vertex 0.04333265779505238 0.02564000423253093 0.005520616409829229
    vertex 0.03942622408047086 0.02197714648502651 0.01000000000000003
  endloop
endfacet
facet normal 0.683998 -0.729484 0
  outer loop
    vertex 0.0472390915096339 0.02930286198003534 0.009999999999999972
    vertex 0.04333265779505238 0.02564000423253093 0.005520616409829229
    vertex 0.0472390915096339 0.02930286198003534 0
  endloop
endfacet
facet normal 0.683998 -0.729484 0
  outer loop
    vertex 0.03942622408047086 0.02197714648502651 0.01000000000000003
    vertex 0.04333265779505238 0.02564000423253093 0.01450648773478912
    vertex 0.03942622408047086 0.02197714648502651 0.02
  endloop
endfacet
facet normal 0.746028 0.665915 0
  outer loop
    vertex 0.03942622408047086 0.02197714648502651 0.02
    vertex 0.04269574095317265 0.01831428873752209 0.015
    vertex 0.03942622408047086 0.02197714648502651 0.009999999999999972
  endloop
endfacet
facet normal 0.746028 0.665915 -0
  outer loop
    vertex 0.04596525782587442 0.01465143099001767 0
    vertex 0.04269574095317265 0.01831428873752209 0.005
    vertex 0.04596525782587442 0.01465143099001767 0.01000000000000003
  endloop
endfacet
facet normal 0.746028 0.665915 0
  outer loop
    vertex 0.03942622408047086 0.02197714648502651 0.009999999999999972
    vertex 0.04269574095317265 0.01831428873752209 0.005
    vertex 0.03942622408047086 0.02197714648502651 0
  endloop
endfacet
facet normal 0.746028 0.665915 -0
  outer loop
    vertex 0.04596525782587442 0.01465143099001767 0.01000000000000003
    vertex 0.04269574095317265 0.01831428873752209 0.015
    vertex 0.04596525782587442 0.01465143099001767 0.02
  endloop
endfacet
facet normal 0.746028 0.665915 1.51816e-15
  outer loop
    vertex 0.04596525782587442 0.01465143099001767 0.01000000000000003
    vertex 0.04269574095317265 0.01831428873752209 0.005
    vertex 0.03942622408047086 0.02197714648502651 0.009999999999999972
  endloop
endfacet
facet normal 0.746028 0.665915 -1.44915e-15
  outer loop
    vertex 0.03942622408047086 0.02197714648502651 0.009999999999999972
    vertex 0.04269574095317265 0.01831428873752209 0.015
    vertex 0.04596525782587442 0.01465143099001767 0.01000000000000003
  endloop
endfacet
facet normal 0.746028 0.665915 -1.44915e-15
  outer loop
    vertex 0.03942622408047086 0.02197714648502651 0
    vertex 0.04269574095317265 0.01831428873752209 0.005
    vertex 0.04596525782587442 0.01465143099001767 0
  endloop
endfacet
facet normal 0.746028 0.665915 1.51816e-15
  outer loop
    vertex 0.04596525782587442 0.01465143099001767 0.02
    vertex 0.04269574095317265 0.01831428873752209 0.015
    vertex 0.03942622408047086 0.02197714648502651 0.02
  endloop
endfacet
facet normal 0.620342 -0.784331 -1.90623e-16
  outer loop
    vertex 0.04596525782587442 0.01465143099001767 0
    vertex 0.04133411387235997 0.01098857324251325 0.006020408163265301
    vertex 0.03670296991884553 0.007325715495008836 0
  endloop
endfacet
facet normal 0.620342 -0.784331 2.90967e-16
  outer loop
    vertex 0.03670296991884553 0.007325715495008836 0.02
    vertex 0.04133411387235997 0.01098857324251325 0.01408371511870055
    vertex 0.04596525782587442 0.01465143099001767 0.02
  endloop
endfacet
facet normal 0.620342 -0.784331 0
  outer loop
    vertex 0.04596525782587442 0.01465143099001767 0.009999999999999972
    vertex 0.04133411387235997 0.01098857324251325 0.01408371511870055
    vertex 0.04133411387235997 0.01098857324251325 0.006020408163265301
  endloop
endfacet
facet normal 0.620342 -0.784331 0
  outer loop
    vertex 0.04133411387235997 0.01098857324251325 0.006020408163265301
    vertex 0.04133411387235997 0.01098857324251325 0.01408371511870055
    vertex 0.03670296991884553 0.007325715495008836 0.01000000000000003
  endloop
endfacet
facet normal 0.620342 -0.784331 0
  outer loop
    vertex 0.03670296991884553 0.007325715495008836 0
    vertex 0.04133411387235997 0.01098857324251325 0.006020408163265301
    vertex 0.03670296991884553 0.007325715495008836 0.01000000000000003
  endloop
endfacet
facet normal 0.620342 -0.784331 0
  outer loop
    vertex 0.04596525782587442 0.01465143099001767 0.02
    vertex 0.04133411387235997 0.01098857324251325 0.01408371511870055
    vertex 0.04596525782587442 0.01465143099001767 0.009999999999999972
  endloop
endfacet
facet normal 0.620342 -0.784331 0
  outer loop
    vertex 0.04596525782587442 0.01465143099001767 0.009999999999999972
    vertex 0.04133411387235997 0.01098857324251325 0.006020408163265301
    vertex 0.04596525782587442 0.01465143099001767 0
  endloop
endfacet
facet normal 0.620342 -0.784331 0
  outer loop
    vertex 0.03670296991884553 0.007325715495008836 0.01000000000000003
    vertex 0.04133411387235997 0.01098857324251325 0.01408371511870055
    vertex 0.03670296991884553 0.007325715495008836 0.02
  endloop
endfacet
endsolid Created by Gmsh
