solid Created by Gmsh
facet normal -0.654215 0.756308 4.46858e-16
  outer loop
    vertex 0.02821122932934564 0.05056495430032051 0.02
    vertex 0.03656206398449467 0.0577885192003663 0.02
    vertex 0.03238664665692015 0.05417673675034341 0.01450648773478912
  endloop
endfacet
facet normal -0.654215 0.756308 -1.66749e-16
  outer loop
    vertex 0.03656206398449467 0.0577885192003663 0
    vertex 0.02821122932934564 0.05056495430032051 0
    vertex 0.03238664665692013 0.05417673675034339 0.005520616409829249
  endloop
endfacet
facet normal -0.654215 0.756308 0
  outer loop
    vertex 0.03656206398449467 0.0577885192003663 0.02
    vertex 0.03656206398449467 0.0577885192003663 0.009999999999999972
    vertex 0.03238664665692015 0.05417673675034341 0.01450648773478912
  endloop
endfacet
facet normal -0.654215 0.756308 0
  outer loop
    vertex 0.02821122932934564 0.05056495430032051 0
    vertex 0.02821122932934564 0.05056495430032051 0.01000000000000003
    vertex 0.03238664665692013 0.05417673675034339 0.005520616409829249
  endloop
endfacet
facet normal -0.654215 0.756308 -1.36593e-16
  outer loop
    vertex 0.03656206398449467 0.0577885192003663 0.009999999999999972
    vertex 0.03238664665692013 0.05417673675034339 0.005520616409829249
    vertex 0.03238664665692015 0.05417673675034341 0.01450648773478912
  endloop
endfacet
facet normal -0.654215 0.756308 -1.57673e-16
  outer loop
    vertex 0.03238664665692013 0.05417673675034339 0.005520616409829249
    vertex 0.02821122932934564 0.05056495430032051 0.01000000000000003
    vertex 0.03238664665692015 0.05417673675034341 0.01450648773478912
  endloop
endfacet
facet normal -0.654215 0.756308 0
  outer loop
    vertex 0.03656206398449467 0.0577885192003663 0.009999999999999972
    vertex 0.03656206398449467 0.0577885192003663 0
    vertex 0.03238664665692013 0.05417673675034339 0.005520616409829249
  endloop
endfacet
facet normal -0.654215 0.756308 0
  outer loop
    vertex 0.02821122932934564 0.05056495430032051 0.01000000000000003
    vertex 0.02821122932934564 0.05056495430032051 0.02
    vertex 0.03238664665692015 0.05417673675034341 0.01450648773478912
  endloop
endfacet
facet normal -0.495828 0.868421 -5.57686e-16
  outer loop
    vertex 0.02821122932934564 0.05056495430032051 0
    vertex 0.02188535200263034 0.04695317185029761 0
    vertex 0.02175625246535044 0.04687946200437879 0.007506236561809957
  endloop
endfacet
facet normal -0.495828 0.868421 -5.88669e-16
  outer loop
    vertex 0.02188535200263034 0.04695317185029761 0
    vertex 0.01555947467591506 0.04334138940027472 0
    vertex 0.02175625246535044 0.04687946200437879 0.007506236561809957
  endloop
endfacet
facet normal -0.495828 0.868421 0
  outer loop
    vertex 0.01555947467591506 0.04334138940027472 0
    vertex 0.01555947467591506 0.04334138940027472 0.01000000000000003
    vertex 0.02175625246535044 0.04687946200437879 0.007506236561809957
  endloop
endfacet
facet normal -0.495828 0.868421 0
  outer loop
    vertex 0.02821122932934564 0.05056495430032051 0.009999999999999972
    vertex 0.02821122932934564 0.05056495430032051 0
    vertex 0.02175625246535044 0.04687946200437879 0.007506236561809957
  endloop
endfacet
facet normal -0.495828 0.868421 0
  outer loop
    vertex 0.02821122932934564 0.05056495430032051 0.02
    vertex 0.02821122932934564 0.05056495430032051 0.009999999999999972
    vertex 0.02378311520064494 0.04803670658530449 0.01470407455371583
  endloop
endfacet
facet normal -0.495828 0.868421 0
  outer loop
    vertex 0.01555947467591506 0.04334138940027472 0.01000000000000003
    vertex 0.01555947467591506 0.04334138940027472 0.02
    vertex 0.01942692795700018 0.04554952578444325 0.01460147301650369
  endloop
endfacet
facet normal -0.495828 0.868421 4.39135e-16
  outer loop
    vertex 0.02188535200263036 0.04695317185029763 0.02
    vertex 0.02821122932934564 0.05056495430032051 0.02
    vertex 0.02378311520064494 0.04803670658530449 0.01470407455371583
  endloop
endfacet
facet normal -0.495828 0.868421 9.47735e-16
  outer loop
    vertex 0.01555947467591506 0.04334138940027472 0.02
    vertex 0.02188535200263036 0.04695317185029763 0.02
    vertex 0.01942692795700018 0.04554952578444325 0.01460147301650369
  endloop
endfacet
facet normal -0.495828 0.868421 -9.44652e-17
  outer loop
    vertex 0.02378311520064494 0.04803670658530449 0.01470407455371583
    vertex 0.02175625246535044 0.04687946200437879 0.007506236561809957
    vertex 0.01942692795700018 0.04554952578444325 0.01460147301650369
  endloop
endfacet
facet normal -0.495828 0.868421 6.32357e-16
  outer loop
    vertex 0.02188535200263036 0.04695317185029763 0.02
    vertex 0.02378311520064494 0.04803670658530449 0.01470407455371583
    vertex 0.01942692795700018 0.04554952578444325 0.01460147301650369
  endloop
endfacet
facet normal -0.495828 0.868421 -5.78305e-16
  outer loop
    vertex 0.02175625246535044 0.04687946200437879 0.007506236561809957
    vertex 0.01555947467591506 0.04334138940027472 0.01000000000000003
    vertex 0.01942692795700018 0.04554952578444325 0.01460147301650369
  endloop
endfacet
facet normal -0.495828 0.868421 -7.1058e-17
  outer loop
    vertex 0.02378311520064494 0.04803670658530449 0.01470407455371583
    vertex 0.02821122932934564 0.05056495430032051 0.009999999999999972
    vertex 0.02175625246535044 0.04687946200437879 0.007506236561809957
  endloop
endfacet
facet normal -0.404401 -0.914582 -4.89311e-16
  outer loop
    vertex 0.01555947467591506 0.04334138940027472 0
    vertex 0.02372778627720566 0.03972960695025184 0
    vertex 0.02246270615403933 0.04028898744523723 0.007752921413974091
  endloop
endfacet
facet normal -0.404401 -0.914582 -0
  outer loop
    vertex 0.01555947467591506 0.04334138940027472 0.009999999999999972
    vertex 0.01555947467591506 0.04334138940027472 0
    vertex 0.02246270615403933 0.04028898744523723 0.007752921413974091
  endloop
endfacet
facet normal -0.404401 -0.914582 0
  outer loop
    vertex 0.03189609787849628 0.03611782450022894 0.01000000000000003
    vertex 0.03189609787849628 0.03611782450022894 0.02
    vertex 0.02626105523971459 0.03860947137920778 0.01348550728117583
  endloop
endfacet
facet normal -0.404401 -0.914582 5.82331e-16
  outer loop
    vertex 0.03189609787849628 0.03611782450022894 0.02
    vertex 0.02372778627720568 0.03972960695025183 0.02
    vertex 0.02626105523971459 0.03860947137920778 0.01348550728117583
  endloop
endfacet
facet normal -0.404401 -0.914582 0
  outer loop
    vertex 0.03189609787849628 0.03611782450022894 0
    vertex 0.03189609787849628 0.03611782450022894 0.01000000000000003
    vertex 0.02766533821689186 0.03798853955640202 0.005174316562718948
  endloop
endfacet
facet normal -0.404401 -0.914582 -0
  outer loop
    vertex 0.01555947467591506 0.04334138940027472 0.02
    vertex 0.01555947467591506 0.04334138940027472 0.009999999999999972
    vertex 0.02071409940455794 0.04106216891504925 0.01424768573902998
  endloop
endfacet
facet normal -0.404401 -0.914582 -9.53105e-16
  outer loop
    vertex 0.02372778627720566 0.03972960695025184 0
    vertex 0.03189609787849628 0.03611782450022894 0
    vertex 0.02766533821689186 0.03798853955640202 0.005174316562718948
  endloop
endfacet
facet normal -0.404401 -0.914582 6.26515e-16
  outer loop
    vertex 0.02372778627720568 0.03972960695025183 0.02
    vertex 0.01555947467591506 0.04334138940027472 0.02
    vertex 0.02071409940455794 0.04106216891504925 0.01424768573902998
  endloop
endfacet
facet normal -0.404401 -0.914582 5.86598e-17
  outer loop
    vertex 0.02626105523971459 0.03860947137920778 0.01348550728117583
    vertex 0.02246270615403933 0.04028898744523723 0.007752921413974091
    vertex 0.02766533821689186 0.03798853955640202 0.005174316562718948
  endloop
endfacet
facet normal -0.404401 -0.914582 2.21658e-16
  outer loop
    vertex 0.03189609787849628 0.03611782450022894 0.01000000000000003
    vertex 0.02626105523971459 0.03860947137920778 0.01348550728117583
    vertex 0.02766533821689186 0.03798853955640202 0.005174316562718948
  endloop
endfacet
facet normal -0.404401 -0.914582 -8.93173e-17
  outer loop
    vertex 0.02071409940455794 0.04106216891504925 0.01424768573902998
    vertex 0.02246270615403933 0.04028898744523723 0.007752921413974091
    vertex 0.02626105523971459 0.03860947137920778 0.01348550728117583
  endloop
endfacet
facet normal -0.404401 -0.914582 -2.27259e-16
  outer loop
    vertex 0.02071409940455794 0.04106216891504925 0.01424768573902998
    vertex 0.01555947467591506 0.04334138940027472 0.009999999999999972
    vertex 0.02246270615403933 0.04028898744523723 0.007752921413974091
  endloop
endfacet
facet normal -0.404401 -0.914582 -5.85084e-16
  outer loop
    vertex 0.02246270615403933 0.04028898744523723 0.007752921413974091
    vertex 0.02372778627720566 0.03972960695025184 0
    vertex 0.02766533821689186 0.03798853955640202 0.005174316562718948
  endloop
endfacet
facet normal -0.404401 -0.914582 6.0018e-16
  outer loop
    vertex 0.02372778627720568 0.03972960695025183 0.02
    vertex 0.02071409940455794 0.04106216891504925 0.01424768573902998
    vertex 0.02626105523971459 0.03860947137920778 0.01348550728117583
  endloop
endfacet
facet normal -0.743229 0.669037 0
  outer loop
    vertex 0.03189609787849628 0.03611782450022894 0.02
    vertex 0.03189609787849628 0.03611782450022894 0.009999999999999972
    vertex 0.02864485417729038 0.03250604205020605 0.015
  endloop
endfacet
facet normal -0.743229 0.669037 0
  outer loop
    vertex 0.02539361047608449 0.02889425960018315 0
    vertex 0.02539361047608449 0.02889425960018315 0.01000000000000003
    vertex 0.02864485417729038 0.03250604205020605 0.005
  endloop
endfacet
facet normal -0.743229 0.669037 0
  outer loop
    vertex 0.03189609787849628 0.03611782450022894 0.009999999999999972
    vertex 0.03189609787849628 0.03611782450022894 0
    vertex 0.02864485417729038 0.03250604205020605 0.005
  endloop
endfacet
facet normal -0.743229 0.669037 0
  outer loop
    vertex 0.02539361047608449 0.02889425960018315 0.01000000000000003
    vertex 0.02539361047608449 0.02889425960018315 0.02
    vertex 0.02864485417729038 0.03250604205020605 0.015
  endloop
endfacet
facet normal -0.743229 0.669037 0
  outer loop
    vertex 0.03189609787849628 0.03611782450022894 0.009999999999999972
    vertex 0.02539361047608449 0.02889425960018315 0.01000000000000003
    vertex 0.02864485417729038 0.03250604205020605 0.015
  endloop
endfacet
facet normal -0.743229 0.669037 0
  outer loop
    vertex 0.03189609787849628 0.03611782450022894 0
    vertex 0.02539361047608449 0.02889425960018315 0
    vertex 0.02864485417729038 0.03250604205020605 0.005
  endloop
endfacet
facet normal -0.743229 0.669037 0
  outer loop
    vertex 0.02539361047608449 0.02889425960018315 0.01000000000000003
    vertex 0.03189609787849628 0.03611782450022894 0.009999999999999972
    vertex 0.02864485417729038 0.03250604205020605 0.005
  endloop
endfacet
facet normal -0.743229 0.669037 0
  outer loop
    vertex 0.02539361047608449 0.02889425960018315 0.02
    vertex 0.03189609787849628 0.03611782450022894 0.02
    vertex 0.02864485417729038 0.03250604205020605 0.015
  endloop
endfacet
facet normal -0.99931 -0.0371509 0
  outer loop
    vertex 0.02539361047608449 0.02889425960018315 0
    vertex 0.02566215811105296 0.02167069470013736 0
    vertex 0.02552788429356872 0.02528247715016026 0.005000000000000001
  endloop
endfacet
facet normal -0.99931 -0.0371509 0
  outer loop
    vertex 0.02539361047608449 0.02889425960018315 0.009999999999999972
    vertex 0.02566215811105296 0.02167069470013736 0.01000000000000003
    vertex 0.02552788429356872 0.02528247715016026 0.015
  endloop
endfacet
facet normal -0.99931 -0.0371509 0
  outer loop
    vertex 0.02566215811105296 0.02167069470013736 0.02
    vertex 0.02539361047608449 0.02889425960018315 0.02
    vertex 0.02552788429356872 0.02528247715016026 0.015
  endloop
endfacet
facet normal -0.99931 -0.0371509 0
  outer loop
    vertex 0.02566215811105296 0.02167069470013736 0.01000000000000003
    vertex 0.02539361047608449 0.02889425960018315 0.009999999999999972
    vertex 0.02552788429356872 0.02528247715016026 0.005000000000000001
  endloop
endfacet
facet normal -0.99931 -0.0371509 -0
  outer loop
    vertex 0.02539361047608449 0.02889425960018315 0.009999999999999972
    vertex 0.02539361047608449 0.02889425960018315 0
    vertex 0.02552788429356872 0.02528247715016026 0.005000000000000001
  endloop
endfacet
facet normal -0.99931 -0.0371509 -0
  outer loop
    vertex 0.02539361047608449 0.02889425960018315 0.02
    vertex 0.02539361047608449 0.02889425960018315 0.009999999999999972
    vertex 0.02552788429356872 0.02528247715016026 0.015
  endloop
endfacet
facet normal -0.99931 -0.0371509 0
  outer loop
    vertex 0.02566215811105296 0.02167069470013736 0
    vertex 0.02566215811105296 0.02167069470013736 0.01000000000000003
    vertex 0.02552788429356872 0.02528247715016026 0.005000000000000001
  endloop
endfacet
facet normal -0.99931 -0.0371509 0
  outer loop
    vertex 0.02566215811105296 0.02167069470013736 0.01000000000000003
    vertex 0.02566215811105296 0.02167069470013736 0.02
    vertex 0.02552788429356872 0.02528247715016026 0.015
  endloop
endfacet
facet normal -0.893677 0.44871 0
  outer loop
    vertex 0.02566215811105296 0.02167069470013736 0.02
    vertex 0.02566215811105296 0.02167069470013736 0.009999999999999972
    vertex 0.02384870324568437 0.01805891225011447 0.015
  endloop
endfacet
facet normal -0.893677 0.44871 0
  outer loop
    vertex 0.02203524838031579 0.01444712980009158 0
    vertex 0.02203524838031579 0.01444712980009158 0.01000000000000003
    vertex 0.02384870324568437 0.01805891225011447 0.005
  endloop
endfacet
facet normal -0.893677 0.44871 0
  outer loop
    vertex 0.02203524838031579 0.01444712980009158 0.01000000000000003
    vertex 0.02203524838031579 0.01444712980009158 0.02
    vertex 0.02384870324568437 0.01805891225011447 0.015
  endloop
endfacet
facet normal -0.893677 0.44871 0
  outer loop
    vertex 0.02566215811105296 0.02167069470013736 0.009999999999999972
    vertex 0.02566215811105296 0.02167069470013736 0
    vertex 0.02384870324568437 0.01805891225011447 0.005
  endloop
endfacet
facet normal -0.893677 0.44871 6.28754e-16
  outer loop
    vertex 0.02203524838031579 0.01444712980009158 0.01000000000000003
    vertex 0.02566215811105296 0.02167069470013736 0.009999999999999972
    vertex 0.02384870324568437 0.01805891225011447 0.005
  endloop
endfacet
facet normal -0.893677 0.44871 -6.28754e-16
  outer loop
    vertex 0.02566215811105296 0.02167069470013736 0.009999999999999972
    vertex 0.02203524838031579 0.01444712980009158 0.01000000000000003
    vertex 0.02384870324568437 0.01805891225011447 0.015
  endloop
endfacet
facet normal -0.893677 0.44871 6.28754e-16
  outer loop
    vertex 0.02203524838031579 0.01444712980009158 0.02
    vertex 0.02566215811105296 0.02167069470013736 0.02
    vertex 0.02384870324568437 0.01805891225011447 0.015
  endloop
endfacet
facet normal -0.893677 0.44871 -6.28754e-16
  outer loop
    vertex 0.02566215811105296 0.02167069470013736 0
    vertex 0.02203524838031579 0.01444712980009158 0
    vertex 0.02384870324568437 0.01805891225011447 0.005
  endloop
endfacet
facet normal -0.684415 -0.729093 2.33743e-16
  outer loop
    vertex 0.02973035792765244 0.00722356490004579 0.02
    vertex 0.02203524838031579 0.01444712980009158 0.02
    vertex 0.02588280315398411 0.01083534735006868 0.01450648773478912
  endloop
endfacet
facet normal -0.684415 -0.729093 -1.16298e-16
  outer loop
    vertex 0.02203524838031579 0.01444712980009158 0
    vertex 0.02973035792765244 0.00722356490004579 0
    vertex 0.02588280315398413 0.01083534735006867 0.005520616409829249
  endloop
endfacet
facet normal -0.684415 -0.729093 -0
  outer loop
    vertex 0.02203524838031579 0.01444712980009158 0.02
    vertex 0.02203524838031579 0.01444712980009158 0.009999999999999972
    vertex 0.02588280315398411 0.01083534735006868 0.01450648773478912
  endloop
endfacet
facet normal -0.684415 -0.729093 0
  outer loop
    vertex 0.02973035792765244 0.00722356490004579 0
    vertex 0.02973035792765244 0.00722356490004579 0.01000000000000003
    vertex 0.02588280315398413 0.01083534735006867 0.005520616409829249
  endloop
endfacet
facet normal -0.684415 -0.729093 -7.17512e-17
  outer loop
    vertex 0.02588280315398413 0.01083534735006867 0.005520616409829249
    vertex 0.02973035792765244 0.00722356490004579 0.01000000000000003
    vertex 0.02588280315398411 0.01083534735006868 0.01450648773478912
  endloop
endfacet
facet normal -0.684415 -0.729093 -7.14493e-17
  outer loop
    vertex 0.02203524838031579 0.01444712980009158 0.009999999999999972
    vertex 0.02588280315398413 0.01083534735006867 0.005520616409829249
    vertex 0.02588280315398411 0.01083534735006868 0.01450648773478912
  endloop
endfacet
facet normal -0.684415 -0.729093 -0
  outer loop
    vertex 0.02203524838031579 0.01444712980009158 0.009999999999999972
    vertex 0.02203524838031579 0.01444712980009158 0
    vertex 0.02588280315398413 0.01083534735006867 0.005520616409829249
  endloop
endfacet
facet normal -0.684415 -0.729093 0
  outer loop
    vertex 0.02973035792765244 0.00722356490004579 0.01000000000000003
    vertex 0.02973035792765244 0.00722356490004579 0.02
    vertex 0.02588280315398411 0.01083534735006868 0.01450648773478912
  endloop
endfacet
endsolid Created by Gmsh
