solid Created by Gmsh
facet normal -0.669283 -0.743008 -1.8008e-15
  outer loop
    vertex 0.03001730512108197 0.05868054287557511 0
    vertex 0.03816036511807837 0.05134547501612823 0
    vertex 0.03408883511958018 0.05501300894585165 0.005493512265210899
  endloop
endfacet
facet normal -0.669283 -0.743008 1.39997e-15
  outer loop
    vertex 0.03816036511807837 0.05134547501612823 0.02
    vertex 0.03001730512108197 0.05868054287557511 0.02
    vertex 0.03408883511958015 0.05501300894585168 0.01447938359017075
  endloop
endfacet
facet normal -0.669283 -0.743008 -0
  outer loop
    vertex 0.03001730512108197 0.05868054287557511 0.02
    vertex 0.03001730512108197 0.05868054287557511 0.009999999999999972
    vertex 0.03408883511958015 0.05501300894585168 0.01447938359017075
  endloop
endfacet
facet normal -0.669283 -0.743008 0
  outer loop
    vertex 0.03816036511807837 0.05134547501612823 0
    vertex 0.03816036511807837 0.05134547501612823 0.01000000000000003
    vertex 0.03408883511958018 0.05501300894585165 0.005493512265210899
  endloop
endfacet
facet normal -0.669283 -0.743008 -0
  outer loop
    vertex 0.03001730512108197 0.05868054287557511 0.009999999999999972
    vertex 0.03001730512108197 0.05868054287557511 0
    vertex 0.03408883511958018 0.05501300894585165 0.005493512265210899
  endloop
endfacet
facet normal -0.669283 -0.743008 0
  outer loop
    vertex 0.03816036511807837 0.05134547501612823 0.01000000000000003
    vertex 0.03816036511807837 0.05134547501612823 0.02
    vertex 0.03408883511958015 0.05501300894585168 0.01447938359017075
  endloop
endfacet
facet normal -0.669283 -0.743008 2.27721e-16
  outer loop
    vertex 0.03408883511958015 0.05501300894585168 0.01447938359017075
    vertex 0.03001730512108197 0.05868054287557511 0.009999999999999972
    vertex 0.03408883511958018 0.05501300894585165 0.005493512265210899
  endloop
endfacet
facet normal -0.669283 -0.743008 2.06422e-16
  outer loop
    vertex 0.03816036511807837 0.05134547501612823 0.01000000000000003
    vertex 0.03408883511958015 0.05501300894585168 0.01447938359017075
    vertex 0.03408883511958018 0.05501300894585165 0.005493512265210899
  endloop
endfacet
facet normal -0.997818 0.0660248 0
  outer loop
    vertex 0.03767500936632137 0.04401040715668134 0.01000000000000003
    vertex 0.03816036511807837 0.05134547501612823 0.009999999999999972
    vertex 0.03791768724219987 0.04767794108640478 0.005
  endloop
endfacet
facet normal -0.997818 0.0660248 0
  outer loop
    vertex 0.03767500936632137 0.04401040715668134 0.02
    vertex 0.03816036511807837 0.05134547501612823 0.02
    vertex 0.03791768724219987 0.04767794108640478 0.015
  endloop
endfacet
facet normal -0.997818 0.0660248 0
  outer loop
    vertex 0.03816036511807837 0.05134547501612823 0.009999999999999972
    vertex 0.03767500936632137 0.04401040715668134 0.01000000000000003
    vertex 0.03791768724219987 0.04767794108640478 0.015
  endloop
endfacet
facet normal -0.997818 0.0660248 0
  outer loop
    vertex 0.03816036511807837 0.05134547501612823 0
    vertex 0.03767500936632137 0.04401040715668134 0
    vertex 0.03791768724219987 0.04767794108640478 0.005
  endloop
endfacet
facet normal -0.997818 0.0660248 0
  outer loop
    vertex 0.03816036511807837 0.05134547501612823 0.009999999999999972
    vertex 0.03816036511807837 0.05134547501612823 0
    vertex 0.03791768724219987 0.04767794108640478 0.005
  endloop
endfacet
facet normal -0.997818 0.0660248 0
  outer loop
    vertex 0.03816036511807837 0.05134547501612823 0.02
    vertex 0.03816036511807837 0.05134547501612823 0.009999999999999972
    vertex 0.03791768724219987 0.04767794108640478 0.015
  endloop
endfacet
facet normal -0.997818 0.0660248 0
  outer loop
    vertex 0.03767500936632137 0.04401040715668134 0
    vertex 0.03767500936632137 0.04401040715668134 0.01000000000000003
    vertex 0.03791768724219987 0.04767794108640478 0.005
  endloop
endfacet
facet normal -0.997818 0.0660248 0
  outer loop
    vertex 0.03767500936632137 0.04401040715668134 0.01000000000000003
    vertex 0.03767500936632137 0.04401040715668134 0.02
    vertex 0.03791768724219987 0.04767794108640478 0.015
  endloop
endfacet
facet normal -0.774746 -0.632273 -0
  outer loop
    vertex 0.03767500936632137 0.04401040715668134 0.02
    vertex 0.03767500936632137 0.04401040715668134 0.009999999999999972
    vertex 0.04066809585323494 0.0403428732269579 0.015
  endloop
endfacet
facet normal -0.774746 -0.632273 0
  outer loop
    vertex 0.0436611823401485 0.03667533929723445 0
    vertex 0.0436611823401485 0.03667533929723445 0.01000000000000003
    vertex 0.04066809585323494 0.0403428732269579 0.005000000000000001
  endloop
endfacet
facet normal -0.774746 -0.632273 0
  outer loop
    vertex 0.0436611823401485 0.03667533929723445 0.01000000000000003
    vertex 0.0436611823401485 0.03667533929723445 0.02
    vertex 0.04066809585323494 0.0403428732269579 0.015
  endloop
endfacet
facet normal -0.774746 -0.632273 -0
  outer loop
    vertex 0.03767500936632137 0.04401040715668134 0.009999999999999972
    vertex 0.03767500936632137 0.04401040715668134 0
    vertex 0.04066809585323494 0.0403428732269579 0.005000000000000001
  endloop
endfacet
facet normal -0.774746 -0.632273 1.93245e-15
  outer loop
    vertex 0.03767500936632137 0.04401040715668134 0.009999999999999972
    vertex 0.0436611823401485 0.03667533929723445 0.01000000000000003
    vertex 0.04066809585323494 0.0403428732269579 0.015
  endloop
endfacet
facet normal -0.774746 -0.632273 1.93245e-15
  outer loop
    vertex 0.03767500936632137 0.04401040715668134 0
    vertex 0.0436611823401485 0.03667533929723445 0
    vertex 0.04066809585323494 0.0403428732269579 0.005000000000000001
  endloop
endfacet
facet normal -0.774746 -0.632273 -1.93245e-15
  outer loop
    vertex 0.0436611823401485 0.03667533929723445 0.01000000000000003
    vertex 0.03767500936632137 0.04401040715668134 0.009999999999999972
    vertex 0.04066809585323494 0.0403428732269579 0.005000000000000001
  endloop
endfacet
facet normal -0.774746 -0.632273 -1.93245e-15
  outer loop
    vertex 0.0436611823401485 0.03667533929723445 0.02
    vertex 0.03767500936632137 0.04401040715668134 0.02
    vertex 0.04066809585323494 0.0403428732269579 0.015
  endloop
endfacet
facet normal -0.816566 0.577252 0
  outer loop
    vertex 0.03847583447780312 0.02934027143778756 0
    vertex 0.03847583447780312 0.02934027143778756 0.01000000000000003
    vertex 0.04106850840897581 0.033007805367511 0.004999999999999999
  endloop
endfacet
facet normal -0.816566 0.577252 0
  outer loop
    vertex 0.0436611823401485 0.03667533929723445 0.02
    vertex 0.0436611823401485 0.03667533929723445 0.009999999999999972
    vertex 0.04106850840897581 0.033007805367511 0.015
  endloop
endfacet
facet normal -0.816566 0.577252 0
  outer loop
    vertex 0.03847583447780312 0.02934027143778756 0.01000000000000003
    vertex 0.03847583447780312 0.02934027143778756 0.02
    vertex 0.04106850840897581 0.033007805367511 0.015
  endloop
endfacet
facet normal -0.816566 0.577252 0
  outer loop
    vertex 0.0436611823401485 0.03667533929723445 0.009999999999999972
    vertex 0.0436611823401485 0.03667533929723445 0
    vertex 0.04106850840897581 0.033007805367511 0.004999999999999999
  endloop
endfacet
facet normal -0.816566 0.577252 0
  outer loop
    vertex 0.0436611823401485 0.03667533929723445 0.009999999999999972
    vertex 0.03847583447780312 0.02934027143778756 0.01000000000000003
    vertex 0.04106850840897581 0.033007805367511 0.015
  endloop
endfacet
facet normal -0.816566 0.577252 0
  outer loop
    vertex 0.0436611823401485 0.03667533929723445 0
    vertex 0.03847583447780312 0.02934027143778756 0
    vertex 0.04106850840897581 0.033007805367511 0.004999999999999999
  endloop
endfacet
facet normal -0.816566 0.577252 0
  outer loop
    vertex 0.03847583447780312 0.02934027143778756 0.01000000000000003
    vertex 0.0436611823401485 0.03667533929723445 0.009999999999999972
    vertex 0.04106850840897581 0.033007805367511 0.004999999999999999
  endloop
endfacet
facet normal -0.816566 0.577252 0
  outer loop
    vertex 0.03847583447780312 0.02934027143778756 0.02
    vertex 0.0436611823401485 0.03667533929723445 0.02
    vertex 0.04106850840897581 0.033007805367511 0.015
  endloop
endfacet
facet normal -0.446418 0.894824 -1.30405e-16
  outer loop
    vertex 0.03112443716013311 0.02567273750806411 0.02
    vertex 0.03847583447780312 0.02934027143778756 0.02
    vertex 0.03061429574152825 0.02541823338036672 0.01209367309559899
  endloop
endfacet
facet normal -0.446418 0.894824 0
  outer loop
    vertex 0.03847583447780312 0.02934027143778756 0.02
    vertex 0.03847583447780312 0.02934027143778756 0.009999999999999972
    vertex 0.03061429574152825 0.02541823338036672 0.01209367309559899
  endloop
endfacet
facet normal -0.446418 0.894824 -1.04324e-16
  outer loop
    vertex 0.02377303984246311 0.02200520357834067 0.02
    vertex 0.03112443716013311 0.02567273750806411 0.02
    vertex 0.03061429574152825 0.02541823338036672 0.01209367309559899
  endloop
endfacet
facet normal -0.446418 0.894824 0
  outer loop
    vertex 0.02377303984246311 0.02200520357834067 0.01000000000000003
    vertex 0.02377303984246311 0.02200520357834067 0.02
    vertex 0.03061429574152825 0.02541823338036672 0.01209367309559899
  endloop
endfacet
facet normal -0.446418 0.894824 0
  outer loop
    vertex 0.03847583447780312 0.02934027143778756 0.009999999999999972
    vertex 0.03847583447780312 0.02934027143778756 0
    vertex 0.03339746963613249 0.0268067292335628 0.005727976409816098
  endloop
endfacet
facet normal -0.446418 0.894824 0
  outer loop
    vertex 0.02377303984246311 0.02200520357834067 0
    vertex 0.02377303984246311 0.02200520357834067 0.01000000000000003
    vertex 0.02851468279716682 0.02437075881465072 0.005653591633119251
  endloop
endfacet
facet normal -0.446418 0.894824 -2.87996e-16
  outer loop
    vertex 0.03847583447780312 0.02934027143778756 0
    vertex 0.03112443716013312 0.02567273750806411 0
    vertex 0.03339746963613249 0.0268067292335628 0.005727976409816098
  endloop
endfacet
facet normal -0.446418 0.894824 -3.64732e-16
  outer loop
    vertex 0.03112443716013312 0.02567273750806411 0
    vertex 0.02377303984246311 0.02200520357834067 0
    vertex 0.02851468279716682 0.02437075881465072 0.005653591633119251
  endloop
endfacet
facet normal -0.446418 0.894824 2.05697e-16
  outer loop
    vertex 0.03061429574152825 0.02541823338036672 0.01209367309559899
    vertex 0.03847583447780312 0.02934027143778756 0.009999999999999972
    vertex 0.03339746963613249 0.0268067292335628 0.005727976409816098
  endloop
endfacet
facet normal -0.446418 0.894824 2.67539e-16
  outer loop
    vertex 0.02851468279716682 0.02437075881465072 0.005653591633119251
    vertex 0.02377303984246311 0.02200520357834067 0.01000000000000003
    vertex 0.03061429574152825 0.02541823338036672 0.01209367309559899
  endloop
endfacet
facet normal -0.446418 0.894824 2.18014e-16
  outer loop
    vertex 0.02851468279716682 0.02437075881465072 0.005653591633119251
    vertex 0.03061429574152825 0.02541823338036672 0.01209367309559899
    vertex 0.03339746963613249 0.0268067292335628 0.005727976409816098
  endloop
endfacet
facet normal -0.446418 0.894824 -3.54443e-16
  outer loop
    vertex 0.03112443716013312 0.02567273750806411 0
    vertex 0.02851468279716682 0.02437075881465072 0.005653591633119251
    vertex 0.03339746963613249 0.0268067292335628 0.005727976409816098
  endloop
endfacet
facet normal -0.985231 0.17123 0
  outer loop
    vertex 0.02377303984246311 0.02200520357834067 0.02
    vertex 0.02377303984246311 0.02200520357834067 0.009999999999999972
    vertex 0.02313563603080334 0.01833766964861722 0.015
  endloop
endfacet
facet normal -0.985231 0.17123 0
  outer loop
    vertex 0.02249823221914357 0.01467013571889378 0
    vertex 0.02249823221914357 0.01467013571889378 0.01000000000000003
    vertex 0.02313563603080334 0.01833766964861722 0.005
  endloop
endfacet
facet normal -0.985231 0.17123 0
  outer loop
    vertex 0.02377303984246311 0.02200520357834067 0.009999999999999972
    vertex 0.02377303984246311 0.02200520357834067 0
    vertex 0.02313563603080334 0.01833766964861722 0.005
  endloop
endfacet
facet normal -0.985231 0.17123 0
  outer loop
    vertex 0.02249823221914357 0.01467013571889378 0.01000000000000003
    vertex 0.02249823221914357 0.01467013571889378 0.02
    vertex 0.02313563603080334 0.01833766964861722 0.015
  endloop
endfacet
facet normal -0.985231 0.17123 -3.41315e-16
  outer loop
    vertex 0.02249823221914357 0.01467013571889378 0.01000000000000003
    vertex 0.02377303984246311 0.02200520357834067 0.009999999999999972
    vertex 0.02313563603080334 0.01833766964861722 0.005
  endloop
endfacet
facet normal -0.985231 0.17123 3.41315e-16
  outer loop
    vertex 0.02377303984246311 0.02200520357834067 0.009999999999999972
    vertex 0.02249823221914357 0.01467013571889378 0.01000000000000003
    vertex 0.02313563603080334 0.01833766964861722 0.015
  endloop
endfacet
facet normal -0.985231 0.17123 3.41315e-16
  outer loop
    vertex 0.02377303984246311 0.02200520357834067 0
    vertex 0.02249823221914357 0.01467013571889378 0
    vertex 0.02313563603080334 0.01833766964861722 0.005
  endloop
endfacet
facet normal -0.985231 0.17123 -3.41315e-16
  outer loop
    vertex 0.02249823221914357 0.01467013571889378 0.02
    vertex 0.02377303984246311 0.02200520357834067 0.02
    vertex 0.02313563603080334 0.01833766964861722 0.015
  endloop
endfacet
facet normal -0.934427 -0.356155 0
  outer loop
    vertex 0.02529397944966399 0.007335067859446889 0
    vertex 0.02529397944966399 0.007335067859446889 0.01000000000000003
    vertex 0.02389610583440378 0.01100260178917033 0.005
  endloop
endfacet
facet normal -0.934427 -0.356155 -0
  outer loop
    vertex 0.02249823221914357 0.01467013571889378 0.02
    vertex 0.02249823221914357 0.01467013571889378 0.009999999999999972
    vertex 0.02389610583440378 0.01100260178917033 0.015
  endloop
endfacet
facet normal -0.934427 -0.356155 0
  outer loop
    vertex 0.02529397944966399 0.007335067859446889 0.01000000000000003
    vertex 0.02529397944966399 0.007335067859446889 0.02
    vertex 0.02389610583440378 0.01100260178917033 0.015
  endloop
endfacet
facet normal -0.934427 -0.356155 -0
  outer loop
    vertex 0.02249823221914357 0.01467013571889378 0.009999999999999972
    vertex 0.02249823221914357 0.01467013571889378 0
    vertex 0.02389610583440378 0.01100260178917033 0.005
  endloop
endfacet
facet normal -0.934427 -0.356155 -3.02134e-16
  outer loop
    vertex 0.02249823221914357 0.01467013571889378 0
    vertex 0.02529397944966399 0.007335067859446889 0
    vertex 0.02389610583440378 0.01100260178917033 0.005
  endloop
endfacet
facet normal -0.934427 -0.356155 -3.02134e-16
  outer loop
    vertex 0.02249823221914357 0.01467013571889378 0.009999999999999972
    vertex 0.02529397944966399 0.007335067859446889 0.01000000000000003
    vertex 0.02389610583440378 0.01100260178917033 0.015
  endloop
endfacet
facet normal -0.934427 -0.356155 3.45296e-16
  outer loop
    vertex 0.02529397944966399 0.007335067859446889 0.02
    vertex 0.02249823221914357 0.01467013571889378 0.02
    vertex 0.02389610583440378 0.01100260178917033 0.015
  endloop
endfacet
facet normal -0.934427 -0.356155 3.45296e-16
  outer loop
    vertex 0.02529397944966399 0.007335067859446889 0.01000000000000003
    vertex 0.02249823221914357 0.01467013571889378 0.009999999999999972
    vertex 0.02389610583440378 0.01100260178917033 0.005
  endloop
endfacet
endsolid Created by Gmsh
