solid Created by Gmsh
facet normal -0.931438 -0.363899 0
  outer loop
    vertex 0.03700943481563443 0.04954452810612813 0
    vertex 0.03700943481563443 0.04954452810612813 0.01000000000000003
    vertex 0.03562683967642627 0.05308342297085157 0.005
  endloop
endfacet
facet normal -0.931438 -0.363899 -0
  outer loop
    vertex 0.0342442445372181 0.05662231783557501 0.02
    vertex 0.0342442445372181 0.05662231783557501 0.009999999999999972
    vertex 0.03562683967642627 0.05308342297085157 0.015
  endloop
endfacet
facet normal -0.931438 -0.363899 0
  outer loop
    vertex 0.03700943481563443 0.04954452810612813 0.01000000000000003
    vertex 0.03700943481563443 0.04954452810612813 0.02
    vertex 0.03562683967642627 0.05308342297085157 0.015
  endloop
endfacet
facet normal -0.931438 -0.363899 -0
  outer loop
    vertex 0.0342442445372181 0.05662231783557501 0.009999999999999972
    vertex 0.0342442445372181 0.05662231783557501 0
    vertex 0.03562683967642627 0.05308342297085157 0.005
  endloop
endfacet
facet normal -0.931438 -0.363899 1.29305e-15
  outer loop
    vertex 0.0342442445372181 0.05662231783557501 0.009999999999999972
    vertex 0.03700943481563443 0.04954452810612813 0.01000000000000003
    vertex 0.03562683967642627 0.05308342297085157 0.015
  endloop
endfacet
facet normal -0.931438 -0.363899 -1.29305e-15
  outer loop
    vertex 0.03700943481563443 0.04954452810612813 0.01000000000000003
    vertex 0.0342442445372181 0.05662231783557501 0.009999999999999972
    vertex 0.03562683967642627 0.05308342297085157 0.005
  endloop
endfacet
facet normal -0.931438 -0.363899 -1.29305e-15
  outer loop
    vertex 0.03700943481563443 0.04954452810612813 0.02
    vertex 0.0342442445372181 0.05662231783557501 0.02
    vertex 0.03562683967642627 0.05308342297085157 0.015
  endloop
endfacet
facet normal -0.931438 -0.363899 1.29305e-15
  outer loop
    vertex 0.0342442445372181 0.05662231783557501 0
    vertex 0.03700943481563443 0.04954452810612813 0
    vertex 0.03562683967642627 0.05308342297085157 0.005
  endloop
endfacet
facet normal -0.635862 -0.771803 4.96227e-16
  outer loop
    vertex 0.03700943481563443 0.04954452810612813 0
    vertex 0.04560037731427248 0.04246673837668126 0
    vertex 0.04130490606495345 0.0460056332414047 0.005520616409829229
  endloop
endfacet
facet normal -0.635862 -0.771803 -4.43267e-16
  outer loop
    vertex 0.04560037731427248 0.04246673837668126 0.02
    vertex 0.03700943481563443 0.04954452810612813 0.02
    vertex 0.04130490606495345 0.0460056332414047 0.01450648773478912
  endloop
endfacet
facet normal -0.635862 -0.771803 0
  outer loop
    vertex 0.04130490606495345 0.0460056332414047 0.005520616409829229
    vertex 0.04560037731427248 0.04246673837668126 0.01000000000000003
    vertex 0.04130490606495345 0.0460056332414047 0.01450648773478912
  endloop
endfacet
facet normal -0.635862 -0.771803 0
  outer loop
    vertex 0.03700943481563443 0.04954452810612813 0.009999999999999972
    vertex 0.04130490606495345 0.0460056332414047 0.005520616409829229
    vertex 0.04130490606495345 0.0460056332414047 0.01450648773478912
  endloop
endfacet
facet normal -0.635862 -0.771803 -0
  outer loop
    vertex 0.03700943481563443 0.04954452810612813 0.02
    vertex 0.03700943481563443 0.04954452810612813 0.009999999999999972
    vertex 0.04130490606495345 0.0460056332414047 0.01450648773478912
  endloop
endfacet
facet normal -0.635862 -0.771803 0
  outer loop
    vertex 0.04560037731427248 0.04246673837668126 0
    vertex 0.04560037731427248 0.04246673837668126 0.01000000000000003
    vertex 0.04130490606495345 0.0460056332414047 0.005520616409829229
  endloop
endfacet
facet normal -0.635862 -0.771803 -0
  outer loop
    vertex 0.03700943481563443 0.04954452810612813 0.009999999999999972
    vertex 0.03700943481563443 0.04954452810612813 0
    vertex 0.04130490606495345 0.0460056332414047 0.005520616409829229
  endloop
endfacet
facet normal -0.635862 -0.771803 0
  outer loop
    vertex 0.04560037731427248 0.04246673837668126 0.01000000000000003
    vertex 0.04560037731427248 0.04246673837668126 0.02
    vertex 0.04130490606495345 0.0460056332414047 0.01450648773478912
  endloop
endfacet
facet normal -0.303553 0.952814 0
  outer loop
    vertex 0.04560037731427248 0.04246673837668126 0.02
    vertex 0.04560037731427248 0.04246673837668126 0.009999999999999972
    vertex 0.03711980387290334 0.03976494564635891 0.01152227993570591
  endloop
endfacet
facet normal -0.303553 0.952814 -3.08526e-16
  outer loop
    vertex 0.03449224993471937 0.03892784351195782 0.02
    vertex 0.04560037731427248 0.04246673837668126 0.02
    vertex 0.03711980387290334 0.03976494564635891 0.01152227993570591
  endloop
endfacet
facet normal -0.303553 0.952814 1.90958e-15
  outer loop
    vertex 0.04560037731427248 0.04246673837668126 0
    vertex 0.03449224993471935 0.03892784351195782 0
    vertex 0.04007751232141141 0.04070723041517071 0.005174501279949382
  endloop
endfacet
facet normal -0.303553 0.952814 6.59581e-16
  outer loop
    vertex 0.03449224993471935 0.03892784351195782 0
    vertex 0.02338412255516624 0.03538894864723438 0
    vertex 0.03043345016904483 0.03763476636610822 0.006829540649562046
  endloop
endfacet
facet normal -0.303553 0.952814 -3.17696e-16
  outer loop
    vertex 0.02338412255516624 0.03538894864723438 0.02
    vertex 0.03449224993471937 0.03892784351195782 0.02
    vertex 0.02971926452931784 0.03740723675589315 0.01359655109933284
  endloop
endfacet
facet normal -0.303553 0.952814 0
  outer loop
    vertex 0.02338412255516624 0.03538894864723438 0
    vertex 0.02338412255516624 0.03538894864723438 0.01000000000000003
    vertex 0.03043345016904483 0.03763476636610822 0.006829540649562046
  endloop
endfacet
facet normal -0.303553 0.952814 -2.29267e-16
  outer loop
    vertex 0.03043345016904483 0.03763476636610822 0.006829540649562046
    vertex 0.03711980387290334 0.03976494564635891 0.01152227993570591
    vertex 0.04007751232141141 0.04070723041517071 0.005174501279949382
  endloop
endfacet
facet normal -0.303553 0.952814 1.26899e-15
  outer loop
    vertex 0.03449224993471935 0.03892784351195782 0
    vertex 0.03043345016904483 0.03763476636610822 0.006829540649562046
    vertex 0.04007751232141141 0.04070723041517071 0.005174501279949382
  endloop
endfacet
facet normal -0.303553 0.952814 0
  outer loop
    vertex 0.04560037731427248 0.04246673837668126 0.009999999999999972
    vertex 0.04560037731427248 0.04246673837668126 0
    vertex 0.04007751232141141 0.04070723041517071 0.005174501279949382
  endloop
endfacet
facet normal -0.303553 0.952814 0
  outer loop
    vertex 0.02338412255516624 0.03538894864723438 0.01000000000000003
    vertex 0.02338412255516624 0.03538894864723438 0.02
    vertex 0.02971926452931784 0.03740723675589315 0.01359655109933284
  endloop
endfacet
facet normal -0.303553 0.952814 2.03435e-16
  outer loop
    vertex 0.02971926452931784 0.03740723675589315 0.01359655109933284
    vertex 0.03711980387290334 0.03976494564635891 0.01152227993570591
    vertex 0.03043345016904483 0.03763476636610822 0.006829540649562046
  endloop
endfacet
facet normal -0.303553 0.952814 -1.6905e-16
  outer loop
    vertex 0.02971926452931784 0.03740723675589315 0.01359655109933284
    vertex 0.03449224993471937 0.03892784351195782 0.02
    vertex 0.03711980387290334 0.03976494564635891 0.01152227993570591
  endloop
endfacet
facet normal -0.303553 0.952814 -8.50742e-16
  outer loop
    vertex 0.03711980387290334 0.03976494564635891 0.01152227993570591
    vertex 0.04560037731427248 0.04246673837668126 0.009999999999999972
    vertex 0.04007751232141141 0.04070723041517071 0.005174501279949382
  endloop
endfacet
facet normal -0.303553 0.952814 2.48663e-16
  outer loop
    vertex 0.02338412255516624 0.03538894864723438 0.01000000000000003
    vertex 0.02971926452931784 0.03740723675589315 0.01359655109933284
    vertex 0.03043345016904483 0.03763476636610822 0.006829540649562046
  endloop
endfacet
facet normal -0.407861 -0.913044 -1.53747e-16
  outer loop
    vertex 0.0392285710240429 0.02831115891778751 0.02
    vertex 0.03130634678960457 0.03185005378251094 0.02
    vertex 0.0325817608159792 0.0312803203320599 0.01238059897710385
  endloop
endfacet
facet normal -0.407861 -0.913044 0
  outer loop
    vertex 0.0392285710240429 0.02831115891778751 0.01000000000000003
    vertex 0.0392285710240429 0.02831115891778751 0.02
    vertex 0.0325817608159792 0.0312803203320599 0.01238059897710385
  endloop
endfacet
facet normal -0.407861 -0.913044 -0
  outer loop
    vertex 0.02338412255516624 0.03538894864723438 0.009999999999999972
    vertex 0.02338412255516624 0.03538894864723438 0
    vertex 0.02881019779713903 0.03296509528974583 0.006392164013735749
  endloop
endfacet
facet normal -0.407861 -0.913044 -0
  outer loop
    vertex 0.02338412255516624 0.03538894864723438 0.02
    vertex 0.02338412255516624 0.03538894864723438 0.009999999999999972
    vertex 0.02748790320378525 0.03355577051018827 0.01497627481059887
  endloop
endfacet
facet normal -0.407861 -0.913044 0
  outer loop
    vertex 0.0392285710240429 0.02831115891778751 0
    vertex 0.0392285710240429 0.02831115891778751 0.01000000000000003
    vertex 0.03417706567625877 0.03056769014000223 0.005716646336957876
  endloop
endfacet
facet normal -0.407861 -0.913044 1.22176e-16
  outer loop
    vertex 0.02338412255516624 0.03538894864723438 0
    vertex 0.03130634678960457 0.03185005378251094 0
    vertex 0.02881019779713903 0.03296509528974583 0.006392164013735749
  endloop
endfacet
facet normal -0.407861 -0.913044 1.91934e-17
  outer loop
    vertex 0.02881019779713903 0.03296509528974583 0.006392164013735749
    vertex 0.0325817608159792 0.0312803203320599 0.01238059897710385
    vertex 0.02748790320378525 0.03355577051018827 0.01497627481059887
  endloop
endfacet
facet normal -0.407861 -0.913044 -1.55457e-16
  outer loop
    vertex 0.03130634678960457 0.03185005378251094 0.02
    vertex 0.02338412255516624 0.03538894864723438 0.02
    vertex 0.02748790320378525 0.03355577051018827 0.01497627481059887
  endloop
endfacet
facet normal -0.407861 -0.913044 -2.0492e-16
  outer loop
    vertex 0.03130634678960457 0.03185005378251094 0
    vertex 0.0392285710240429 0.02831115891778751 0
    vertex 0.03417706567625877 0.03056769014000223 0.005716646336957876
  endloop
endfacet
facet normal -0.407861 -0.913044 0
  outer loop
    vertex 0.02338412255516624 0.03538894864723438 0.009999999999999972
    vertex 0.02881019779713903 0.03296509528974583 0.006392164013735749
    vertex 0.02748790320378525 0.03355577051018827 0.01497627481059887
  endloop
endfacet
facet normal -0.407861 -0.913044 1.78368e-16
  outer loop
    vertex 0.03417706567625877 0.03056769014000223 0.005716646336957876
    vertex 0.0325817608159792 0.0312803203320599 0.01238059897710385
    vertex 0.02881019779713903 0.03296509528974583 0.006392164013735749
  endloop
endfacet
facet normal -0.407861 -0.913044 3.05561e-16
  outer loop
    vertex 0.03417706567625877 0.03056769014000223 0.005716646336957876
    vertex 0.0392285710240429 0.02831115891778751 0.01000000000000003
    vertex 0.0325817608159792 0.0312803203320599 0.01238059897710385
  endloop
endfacet
facet normal -0.407861 -0.913044 -2.06951e-16
  outer loop
    vertex 0.0325817608159792 0.0312803203320599 0.01238059897710385
    vertex 0.03130634678960457 0.03185005378251094 0.02
    vertex 0.02748790320378525 0.03355577051018827 0.01497627481059887
  endloop
endfacet
facet normal -0.407861 -0.913044 1.18545e-16
  outer loop
    vertex 0.03130634678960457 0.03185005378251094 0
    vertex 0.03417706567625877 0.03056769014000223 0.005716646336957876
    vertex 0.02881019779713903 0.03296509528974583 0.006392164013735749
  endloop
endfacet
facet normal -0.915579 -0.402138 -0
  outer loop
    vertex 0.0392285710240429 0.02831115891778751 0.02
    vertex 0.0392285710240429 0.02831115891778751 0.009999999999999972
    vertex 0.0407829164396414 0.02477226405306407 0.015
  endloop
endfacet
facet normal -0.915579 -0.402138 0
  outer loop
    vertex 0.04233726185523989 0.02123336918834063 0
    vertex 0.04233726185523989 0.02123336918834063 0.01000000000000003
    vertex 0.0407829164396414 0.02477226405306407 0.005
  endloop
endfacet
facet normal -0.915579 -0.402138 -0
  outer loop
    vertex 0.0392285710240429 0.02831115891778751 0.009999999999999972
    vertex 0.0392285710240429 0.02831115891778751 0
    vertex 0.0407829164396414 0.02477226405306407 0.005
  endloop
endfacet
facet normal -0.915579 -0.402138 0
  outer loop
    vertex 0.04233726185523989 0.02123336918834063 0.01000000000000003
    vertex 0.04233726185523989 0.02123336918834063 0.02
    vertex 0.0407829164396414 0.02477226405306407 0.015
  endloop
endfacet
facet normal -0.915579 -0.402138 -1.70932e-15
  outer loop
    vertex 0.04233726185523989 0.02123336918834063 0.02
    vertex 0.0392285710240429 0.02831115891778751 0.02
    vertex 0.0407829164396414 0.02477226405306407 0.015
  endloop
endfacet
facet normal -0.915579 -0.402138 -1.70932e-15
  outer loop
    vertex 0.04233726185523989 0.02123336918834063 0.01000000000000003
    vertex 0.0392285710240429 0.02831115891778751 0.009999999999999972
    vertex 0.0407829164396414 0.02477226405306407 0.005
  endloop
endfacet
facet normal -0.915579 -0.402138 1.70932e-15
  outer loop
    vertex 0.0392285710240429 0.02831115891778751 0.009999999999999972
    vertex 0.04233726185523989 0.02123336918834063 0.01000000000000003
    vertex 0.0407829164396414 0.02477226405306407 0.015
  endloop
endfacet
facet normal -0.915579 -0.402138 1.70932e-15
  outer loop
    vertex 0.0392285710240429 0.02831115891778751 0
    vertex 0.04233726185523989 0.02123336918834063 0
    vertex 0.0407829164396414 0.02477226405306407 0.005
  endloop
endfacet
facet normal -0.784946 -0.619564 -0
  outer loop
    vertex 0.04233726185523989 0.02123336918834063 0.02
    vertex 0.04233726185523989 0.02123336918834063 0.009999999999999972
    vertex 0.04513053948176851 0.01769447432361719 0.015
  endloop
endfacet
facet normal -0.784946 -0.619564 0
  outer loop
    vertex 0.04792381710829712 0.01415557945889375 0
    vertex 0.04792381710829712 0.01415557945889375 0.01000000000000003
    vertex 0.04513053948176851 0.01769447432361719 0.005
  endloop
endfacet
facet normal -0.784946 -0.619564 -0
  outer loop
    vertex 0.04233726185523989 0.02123336918834063 0.009999999999999972
    vertex 0.04233726185523989 0.02123336918834063 0
    vertex 0.04513053948176851 0.01769447432361719 0.005
  endloop
endfacet
facet normal -0.784946 -0.619564 0
  outer loop
    vertex 0.04792381710829712 0.01415557945889375 0.01000000000000003
    vertex 0.04792381710829712 0.01415557945889375 0.02
    vertex 0.04513053948176851 0.01769447432361719 0.015
  endloop
endfacet
facet normal -0.784946 -0.619564 -9.76958e-16
  outer loop
    vertex 0.04792381710829712 0.01415557945889375 0.01000000000000003
    vertex 0.04233726185523989 0.02123336918834063 0.009999999999999972
    vertex 0.04513053948176851 0.01769447432361719 0.005
  endloop
endfacet
facet normal -0.784946 -0.619564 9.76958e-16
  outer loop
    vertex 0.04233726185523989 0.02123336918834063 0.009999999999999972
    vertex 0.04792381710829712 0.01415557945889375 0.01000000000000003
    vertex 0.04513053948176851 0.01769447432361719 0.015
  endloop
endfacet
facet normal -0.784946 -0.619564 9.76958e-16
  outer loop
    vertex 0.04233726185523989 0.02123336918834063 0
    vertex 0.04792381710829712 0.01415557945889375 0
    vertex 0.04513053948176851 0.01769447432361719 0.005
  endloop
endfacet
facet normal -0.784946 -0.619564 -9.76958e-16
  outer loop
    vertex 0.04792381710829712 0.01415557945889375 0.02
    vertex 0.04233726185523989 0.02123336918834063 0.02
    vertex 0.04513053948176851 0.01769447432361719 0.015
  endloop
endfacet
facet normal -0.723886 0.68992 0
  outer loop
    vertex 0.04792381710829712 0.01415557945889375 0.02
    vertex 0.04792381710829712 0.01415557945889375 0.009999999999999972
    vertex 0.04455097294545032 0.01061668459417032 0.015
  endloop
endfacet
facet normal -0.723886 0.68992 0
  outer loop
    vertex 0.04117812878260352 0.007077789729446879 0
    vertex 0.04117812878260352 0.007077789729446879 0.01000000000000003
    vertex 0.04455097294545032 0.01061668459417032 0.005
  endloop
endfacet
facet normal -0.723886 0.68992 0
  outer loop
    vertex 0.04792381710829712 0.01415557945889375 0.009999999999999972
    vertex 0.04792381710829712 0.01415557945889375 0
    vertex 0.04455097294545032 0.01061668459417032 0.005
  endloop
endfacet
facet normal -0.723886 0.68992 0
  outer loop
    vertex 0.04117812878260352 0.007077789729446879 0.01000000000000003
    vertex 0.04117812878260352 0.007077789729446879 0.02
    vertex 0.04455097294545032 0.01061668459417032 0.015
  endloop
endfacet
facet normal -0.723886 0.68992 7.62352e-16
  outer loop
    vertex 0.04117812878260352 0.007077789729446879 0.02
    vertex 0.04792381710829712 0.01415557945889375 0.02
    vertex 0.04455097294545032 0.01061668459417032 0.015
  endloop
endfacet
facet normal -0.723886 0.68992 1.03957e-15
  outer loop
    vertex 0.04117812878260352 0.007077789729446879 0.01000000000000003
    vertex 0.04792381710829712 0.01415557945889375 0.009999999999999972
    vertex 0.04455097294545032 0.01061668459417032 0.005
  endloop
endfacet
facet normal -0.723886 0.68992 -7.62352e-16
  outer loop
    vertex 0.04792381710829712 0.01415557945889375 0.009999999999999972
    vertex 0.04117812878260352 0.007077789729446879 0.01000000000000003
    vertex 0.04455097294545032 0.01061668459417032 0.015
  endloop
endfacet
facet normal -0.723886 0.68992 -9.70266e-16
  outer loop
    vertex 0.04792381710829712 0.01415557945889375 0
    vertex 0.04117812878260352 0.007077789729446879 0
    vertex 0.04455097294545032 0.01061668459417032 0.005
  endloop
endfacet
endsolid Created by Gmsh
