solid Created by Gmsh
facet normal -0.245404 0.969421 0
  outer loop
    vertex 0.0291662043824369 0.0545095721444717 0
    vertex 0.01980405545652564 0.05213959074688598 0
    vertex 0.02448512991948127 0.05332458144567884 0.01050905034308949
  endloop
endfacet
facet normal -0.245404 0.969421 -3.93706e-16
  outer loop
    vertex 0.0291662043824369 0.0545095721444717 0
    vertex 0.02448512991948127 0.05332458144567884 0.01050905034308949
    vertex 0.03158429870355989 0.05512170068504727 0.007492267640389765
  endloop
endfacet
facet normal -0.245404 0.969421 1.35761e-16
  outer loop
    vertex 0.02448512991948127 0.05332458144567884 0.01050905034308949
    vertex 0.01980405545652564 0.05213959074688598 0
    vertex 0.01738596113540263 0.0515274622063104 0.007492267640389766
  endloop
endfacet
facet normal -0.245404 0.969421 -1.84824e-16
  outer loop
    vertex 0.01980405545652564 0.05213959074688598 0.02
    vertex 0.02916620438243689 0.0545095721444717 0.02
    vertex 0.02448512991948127 0.05332458144567884 0.01050905034308949
  endloop
endfacet
facet normal -0.245404 0.969421 -4.21431e-16
  outer loop
    vertex 0.03852835330834815 0.05687955354205743 0
    vertex 0.0291662043824369 0.0545095721444717 0
    vertex 0.03158429870355989 0.05512170068504727 0.007492267640389765
  endloop
endfacet
facet normal -0.245404 0.969421 3.51192e-17
  outer loop
    vertex 0.01980405545652564 0.05213959074688598 0
    vertex 0.01044190653061439 0.04976960934930025 0
    vertex 0.01738596113540263 0.0515274622063104 0.007492267640389766
  endloop
endfacet
facet normal -0.245404 0.969421 0
  outer loop
    vertex 0.01044190653061439 0.04976960934930025 0
    vertex 0.01044190653061439 0.04976960934930025 0.01000000000000003
    vertex 0.01738596113540263 0.0515274622063104 0.007492267640389766
  endloop
endfacet
facet normal -0.245404 0.969421 0
  outer loop
    vertex 0.03852835330834815 0.05687955354205743 0.009999999999999972
    vertex 0.03852835330834815 0.05687955354205743 0
    vertex 0.03158429870355989 0.05512170068504727 0.007492267640389765
  endloop
endfacet
facet normal -0.245404 0.969421 2.41492e-16
  outer loop
    vertex 0.02448512991948127 0.05332458144567884 0.01050905034308949
    vertex 0.02916620438243689 0.0545095721444717 0.02
    vertex 0.03245846792443487 0.05534299227186253 0.01360026359669585
  endloop
endfacet
facet normal -0.245404 0.969421 -4.964e-16
  outer loop
    vertex 0.01980405545652564 0.05213959074688598 0.02
    vertex 0.02448512991948127 0.05332458144567884 0.01050905034308949
    vertex 0.01651179191452766 0.05130617061949514 0.01360026359669586
  endloop
endfacet
facet normal -0.245404 0.969421 0
  outer loop
    vertex 0.03852835330834815 0.05687955354205743 0.02
    vertex 0.03852835330834815 0.05687955354205743 0.009999999999999972
    vertex 0.03245846792443487 0.05534299227186253 0.01360026359669585
  endloop
endfacet
facet normal -0.245404 0.969421 0
  outer loop
    vertex 0.01044190653061439 0.04976960934930025 0.01000000000000003
    vertex 0.01044190653061439 0.04976960934930025 0.02
    vertex 0.01651179191452766 0.05130617061949514 0.01360026359669586
  endloop
endfacet
facet normal -0.245404 0.969421 -4.11146e-16
  outer loop
    vertex 0.01044190653061439 0.04976960934930025 0.02
    vertex 0.01980405545652564 0.05213959074688598 0.02
    vertex 0.01651179191452766 0.05130617061949514 0.01360026359669586
  endloop
endfacet
facet normal -0.245404 0.969421 4.11146e-16
  outer loop
    vertex 0.02916620438243689 0.0545095721444717 0.02
    vertex 0.03852835330834815 0.05687955354205743 0.02
    vertex 0.03245846792443487 0.05534299227186253 0.01360026359669585
  endloop
endfacet
facet normal -0.245404 0.969421 -5.35534e-17
  outer loop
    vertex 0.03158429870355989 0.05512170068504727 0.007492267640389765
    vertex 0.02448512991948127 0.05332458144567884 0.01050905034308949
    vertex 0.03245846792443487 0.05534299227186253 0.01360026359669585
  endloop
endfacet
facet normal -0.245404 0.969421 2.49916e-16
  outer loop
    vertex 0.02448512991948127 0.05332458144567884 0.01050905034308949
    vertex 0.01738596113540263 0.0515274622063104 0.007492267640389766
    vertex 0.01651179191452766 0.05130617061949514 0.01360026359669586
  endloop
endfacet
facet normal -0.245404 0.969421 -1.2249e-16
  outer loop
    vertex 0.03852835330834815 0.05687955354205743 0.009999999999999972
    vertex 0.03158429870355989 0.05512170068504727 0.007492267640389765
    vertex 0.03245846792443487 0.05534299227186253 0.01360026359669585
  endloop
endfacet
facet normal -0.245404 0.969421 2.29668e-16
  outer loop
    vertex 0.01738596113540263 0.0515274622063104 0.007492267640389766
    vertex 0.01044190653061439 0.04976960934930025 0.01000000000000003
    vertex 0.01651179191452766 0.05130617061949514 0.01360026359669586
  endloop
endfacet
facet normal -0.784622 -0.619974 -0
  outer loop
    vertex 0.01044190653061439 0.04976960934930025 0.02
    vertex 0.01044190653061439 0.04976960934930025 0.009999999999999972
    vertex 0.01325089022017033 0.04621463725292166 0.015
  endloop
endfacet
facet normal -0.784622 -0.619974 0
  outer loop
    vertex 0.01605987390972627 0.04265966515654307 0
    vertex 0.01605987390972627 0.04265966515654307 0.01000000000000003
    vertex 0.01325089022017033 0.04621463725292166 0.005000000000000001
  endloop
endfacet
facet normal -0.784622 -0.619974 -0
  outer loop
    vertex 0.01044190653061439 0.04976960934930025 0.009999999999999972
    vertex 0.01044190653061439 0.04976960934930025 0
    vertex 0.01325089022017033 0.04621463725292166 0.005000000000000001
  endloop
endfacet
facet normal -0.784622 -0.619974 0
  outer loop
    vertex 0.01605987390972627 0.04265966515654307 0.01000000000000003
    vertex 0.01605987390972627 0.04265966515654307 0.02
    vertex 0.01325089022017033 0.04621463725292166 0.015
  endloop
endfacet
facet normal -0.784622 -0.619974 -4.48679e-16
  outer loop
    vertex 0.01605987390972627 0.04265966515654307 0.01000000000000003
    vertex 0.01044190653061439 0.04976960934930025 0.009999999999999972
    vertex 0.01325089022017033 0.04621463725292166 0.005000000000000001
  endloop
endfacet
facet normal -0.784622 -0.619974 -4.48679e-16
  outer loop
    vertex 0.01605987390972627 0.04265966515654307 0.02
    vertex 0.01044190653061439 0.04976960934930025 0.02
    vertex 0.01325089022017033 0.04621463725292166 0.015
  endloop
endfacet
facet normal -0.784622 -0.619974 3.73899e-16
  outer loop
    vertex 0.01044190653061439 0.04976960934930025 0.009999999999999972
    vertex 0.01605987390972627 0.04265966515654307 0.01000000000000003
    vertex 0.01325089022017033 0.04621463725292166 0.015
  endloop
endfacet
facet normal -0.784622 -0.619974 3.73899e-16
  outer loop
    vertex 0.01044190653061439 0.04976960934930025 0
    vertex 0.01605987390972627 0.04265966515654307 0
    vertex 0.01325089022017033 0.04621463725292166 0.005000000000000001
  endloop
endfacet
facet normal -0.562116 -0.827059 -8.03602e-17
  outer loop
    vertex 0.02129041838065769 0.03910469306016449 0
    vertex 0.02652096285158914 0.03554972096378589 0.01000000000000003
    vertex 0.01605987390972627 0.04265966515654307 0.009999999999999972
  endloop
endfacet
facet normal -0.562116 -0.827059 -1.07147e-16
  outer loop
    vertex 0.02652096285158914 0.03554972096378589 0.01000000000000003
    vertex 0.02129041838065771 0.03910469306016447 0.02
    vertex 0.01605987390972627 0.04265966515654307 0.009999999999999972
  endloop
endfacet
facet normal -0.562116 -0.827059 0
  outer loop
    vertex 0.02129041838065769 0.03910469306016449 0
    vertex 0.01605987390972627 0.04265966515654307 0.009999999999999972
    vertex 0.01605987390972627 0.04265966515654307 0
  endloop
endfacet
facet normal -0.562116 -0.827059 0
  outer loop
    vertex 0.01605987390972627 0.04265966515654307 0.009999999999999972
    vertex 0.02129041838065771 0.03910469306016447 0.02
    vertex 0.01605987390972627 0.04265966515654307 0.02
  endloop
endfacet
facet normal -0.562116 -0.827059 -0
  outer loop
    vertex 0.02652096285158914 0.03554972096378589 0.01000000000000003
    vertex 0.02129041838065769 0.03910469306016449 0
    vertex 0.02652096285158914 0.03554972096378589 0
  endloop
endfacet
facet normal -0.562116 -0.827059 0
  outer loop
    vertex 0.02129041838065771 0.03910469306016447 0.02
    vertex 0.02652096285158914 0.03554972096378589 0.01000000000000003
    vertex 0.02652096285158914 0.03554972096378589 0.02
  endloop
endfacet
facet normal -0.847712 -0.530456 -0
  outer loop
    vertex 0.02652096285158914 0.03554972096378589 0.02
    vertex 0.02652096285158914 0.03554972096378589 0.009999999999999972
    vertex 0.02874548653239431 0.0319947488674073 0.015
  endloop
endfacet
facet normal -0.847712 -0.530456 0
  outer loop
    vertex 0.03097001021319949 0.02843977677102871 0
    vertex 0.03097001021319949 0.02843977677102871 0.01000000000000003
    vertex 0.02874548653239431 0.0319947488674073 0.005
  endloop
endfacet
facet normal -0.847712 -0.530456 -0
  outer loop
    vertex 0.02652096285158914 0.03554972096378589 0.009999999999999972
    vertex 0.02652096285158914 0.03554972096378589 0
    vertex 0.02874548653239431 0.0319947488674073 0.005
  endloop
endfacet
facet normal -0.847712 -0.530456 0
  outer loop
    vertex 0.03097001021319949 0.02843977677102871 0.01000000000000003
    vertex 0.03097001021319949 0.02843977677102871 0.02
    vertex 0.02874548653239431 0.0319947488674073 0.015
  endloop
endfacet
facet normal -0.847712 -0.530456 3.23171e-16
  outer loop
    vertex 0.03097001021319949 0.02843977677102871 0.02
    vertex 0.02652096285158914 0.03554972096378589 0.02
    vertex 0.02874548653239431 0.0319947488674073 0.015
  endloop
endfacet
facet normal -0.847712 -0.530456 3.23171e-16
  outer loop
    vertex 0.03097001021319949 0.02843977677102871 0.01000000000000003
    vertex 0.02652096285158914 0.03554972096378589 0.009999999999999972
    vertex 0.02874548653239431 0.0319947488674073 0.005
  endloop
endfacet
facet normal -0.847712 -0.530456 -2.42378e-16
  outer loop
    vertex 0.02652096285158914 0.03554972096378589 0
    vertex 0.03097001021319949 0.02843977677102871 0
    vertex 0.02874548653239431 0.0319947488674073 0.005
  endloop
endfacet
facet normal -0.847712 -0.530456 -2.42378e-16
  outer loop
    vertex 0.02652096285158914 0.03554972096378589 0.009999999999999972
    vertex 0.03097001021319949 0.02843977677102871 0.01000000000000003
    vertex 0.02874548653239431 0.0319947488674073 0.015
  endloop
endfacet
facet normal -0.848706 -0.528865 0
  outer loop
    vertex 0.03540052063093299 0.02132983257827153 0
    vertex 0.03540052063093299 0.02132983257827153 0.01000000000000003
    vertex 0.03318526542206623 0.02488480467465012 0.005000000000000001
  endloop
endfacet
facet normal -0.848706 -0.528865 -0
  outer loop
    vertex 0.03097001021319949 0.02843977677102871 0.02
    vertex 0.03097001021319949 0.02843977677102871 0.009999999999999972
    vertex 0.03318526542206623 0.02488480467465012 0.015
  endloop
endfacet
facet normal -0.848706 -0.528865 0
  outer loop
    vertex 0.03540052063093299 0.02132983257827153 0.01000000000000003
    vertex 0.03540052063093299 0.02132983257827153 0.02
    vertex 0.03318526542206623 0.02488480467465012 0.015
  endloop
endfacet
facet normal -0.848706 -0.528865 -0
  outer loop
    vertex 0.03097001021319949 0.02843977677102871 0.009999999999999972
    vertex 0.03097001021319949 0.02843977677102871 0
    vertex 0.03318526542206623 0.02488480467465012 0.005000000000000001
  endloop
endfacet
facet normal -0.848706 -0.528865 -8.89762e-16
  outer loop
    vertex 0.03097001021319949 0.02843977677102871 0.009999999999999972
    vertex 0.03540052063093299 0.02132983257827153 0.01000000000000003
    vertex 0.03318526542206623 0.02488480467465012 0.015
  endloop
endfacet
facet normal -0.848706 -0.528865 9.7065e-16
  outer loop
    vertex 0.03540052063093299 0.02132983257827153 0.01000000000000003
    vertex 0.03097001021319949 0.02843977677102871 0.009999999999999972
    vertex 0.03318526542206623 0.02488480467465012 0.005000000000000001
  endloop
endfacet
facet normal -0.848706 -0.528865 -8.89762e-16
  outer loop
    vertex 0.03097001021319949 0.02843977677102871 0
    vertex 0.03540052063093299 0.02132983257827153 0
    vertex 0.03318526542206623 0.02488480467465012 0.005000000000000001
  endloop
endfacet
facet normal -0.848706 -0.528865 9.7065e-16
  outer loop
    vertex 0.03540052063093299 0.02132983257827153 0.02
    vertex 0.03097001021319949 0.02843977677102871 0.02
    vertex 0.03318526542206623 0.02488480467465012 0.015
  endloop
endfacet
facet normal -0.286078 0.958206 -3.0104e-16
  outer loop
    vertex 0.02746236201045189 0.01895985118068581 0
    vertex 0.01952420338997078 0.01658986978310008 0
    vertex 0.02349328270021133 0.01777486048189295 0.007472017667914838
  endloop
endfacet
facet normal -0.286078 0.958206 0
  outer loop
    vertex 0.01158604476948966 0.01421988838551436 0
    vertex 0.01158604476948966 0.01421988838551436 0.01000000000000003
    vertex 0.0170372911888892 0.01584738831658146 0.006281441626331394
  endloop
endfacet
facet normal -0.286078 0.958206 0
  outer loop
    vertex 0.03540052063093299 0.02132983257827153 0.009999999999999972
    vertex 0.03540052063093299 0.02132983257827153 0
    vertex 0.02994927421153344 0.01970233264720444 0.006281441626331383
  endloop
endfacet
facet normal -0.286078 0.958206 0
  outer loop
    vertex 0.03540052063093299 0.02132983257827153 0.02
    vertex 0.03540052063093299 0.02132983257827153 0.009999999999999972
    vertex 0.02919987381404566 0.01947859499136987 0.013124125495024
  endloop
endfacet
facet normal -0.286078 0.958206 0
  outer loop
    vertex 0.01158604476948966 0.01421988838551436 0.01000000000000003
    vertex 0.01158604476948966 0.01421988838551436 0.02
    vertex 0.01778669158637699 0.01607112597241602 0.01312412549502401
  endloop
endfacet
facet normal -0.286078 0.958206 1.78127e-16
  outer loop
    vertex 0.02349328270021132 0.01777486048189295 0.01499129367589782
    vertex 0.02349328270021133 0.01777486048189295 0.007472017667914838
    vertex 0.01778669158637699 0.01607112597241602 0.01312412549502401
  endloop
endfacet
facet normal -0.286078 0.958206 1.78127e-16
  outer loop
    vertex 0.02349328270021133 0.01777486048189295 0.007472017667914838
    vertex 0.02349328270021132 0.01777486048189295 0.01499129367589782
    vertex 0.02919987381404566 0.01947859499136987 0.013124125495024
  endloop
endfacet
facet normal -0.286078 0.958206 3.37523e-16
  outer loop
    vertex 0.02349328270021133 0.01777486048189295 0.007472017667914838
    vertex 0.0170372911888892 0.01584738831658146 0.006281441626331394
    vertex 0.01778669158637699 0.01607112597241602 0.01312412549502401
  endloop
endfacet
facet normal -0.286078 0.958206 -2.10952e-16
  outer loop
    vertex 0.02994927421153344 0.01970233264720444 0.006281441626331383
    vertex 0.02349328270021133 0.01777486048189295 0.007472017667914838
    vertex 0.02919987381404566 0.01947859499136987 0.013124125495024
  endloop
endfacet
facet normal -0.286078 0.958206 -3.25544e-16
  outer loop
    vertex 0.03540052063093299 0.02132983257827153 0
    vertex 0.02746236201045189 0.01895985118068581 0
    vertex 0.02994927421153344 0.01970233264720444 0.006281441626331383
  endloop
endfacet
facet normal -0.286078 0.958206 -5.69703e-16
  outer loop
    vertex 0.01952420338997078 0.01658986978310008 0
    vertex 0.01158604476948966 0.01421988838551436 0
    vertex 0.0170372911888892 0.01584738831658146 0.006281441626331394
  endloop
endfacet
facet normal -0.286078 0.958206 4.31231e-16
  outer loop
    vertex 0.02746236201045187 0.01895985118068581 0.02
    vertex 0.03540052063093299 0.02132983257827153 0.02
    vertex 0.02919987381404566 0.01947859499136987 0.013124125495024
  endloop
endfacet
facet normal -0.286078 0.958206 0
  outer loop
    vertex 0.01158604476948966 0.01421988838551436 0.02
    vertex 0.01952420338997076 0.01658986978310008 0.02
    vertex 0.01778669158637699 0.01607112597241602 0.01312412549502401
  endloop
endfacet
facet normal -0.286078 0.958206 -4.08267e-17
  outer loop
    vertex 0.01952420338997076 0.01658986978310008 0.02
    vertex 0.02746236201045187 0.01895985118068581 0.02
    vertex 0.02349328270021132 0.01777486048189295 0.01499129367589782
  endloop
endfacet
facet normal -0.286078 0.958206 -4.47655e-16
  outer loop
    vertex 0.02349328270021133 0.01777486048189295 0.007472017667914838
    vertex 0.01952420338997078 0.01658986978310008 0
    vertex 0.0170372911888892 0.01584738831658146 0.006281441626331394
  endloop
endfacet
facet normal -0.286078 0.958206 -3.26415e-16
  outer loop
    vertex 0.02746236201045189 0.01895985118068581 0
    vertex 0.02349328270021133 0.01777486048189295 0.007472017667914838
    vertex 0.02994927421153344 0.01970233264720444 0.006281441626331383
  endloop
endfacet
facet normal -0.286078 0.958206 3.3824e-16
  outer loop
    vertex 0.02349328270021132 0.01777486048189295 0.01499129367589782
    vertex 0.02746236201045187 0.01895985118068581 0.02
    vertex 0.02919987381404566 0.01947859499136987 0.013124125495024
  endloop
endfacet
facet normal -0.286078 0.958206 -9.01975e-17
  outer loop
    vertex 0.01952420338997076 0.01658986978310008 0.02
    vertex 0.02349328270021132 0.01777486048189295 0.01499129367589782
    vertex 0.01778669158637699 0.01607112597241602 0.01312412549502401
  endloop
endfacet
facet normal -0.286078 0.958206 3.89742e-16
  outer loop
    vertex 0.0170372911888892 0.01584738831658146 0.006281441626331394
    vertex 0.01158604476948966 0.01421988838551436 0.01000000000000003
    vertex 0.01778669158637699 0.01607112597241602 0.01312412549502401
  endloop
endfacet
facet normal -0.286078 0.958206 -1.61971e-16
  outer loop
    vertex 0.03540052063093299 0.02132983257827153 0.009999999999999972
    vertex 0.02994927421153344 0.01970233264720444 0.006281441626331383
    vertex 0.02919987381404566 0.01947859499136987 0.013124125495024
  endloop
endfacet
facet normal -0.384662 -0.923058 0
  outer loop
    vertex 0.01158604476948966 0.01421988838551436 0
    vertex 0.0201167726734319 0.01066491628913576 0
    vertex 0.01853050746190634 0.01132595349814386 0.007682360685285881
  endloop
endfacet
facet normal -0.384662 -0.923058 -0
  outer loop
    vertex 0.01158604476948966 0.01421988838551436 0.009999999999999972
    vertex 0.01158604476948966 0.01421988838551436 0
    vertex 0.01853050746190634 0.01132595349814386 0.007682360685285881
  endloop
endfacet
facet normal -0.384662 -0.923058 0
  outer loop
    vertex 0.02864750057737412 0.007109944192757178 0.01000000000000003
    vertex 0.02864750057737412 0.007109944192757178 0.02
    vertex 0.02234146629551591 0.009737829663169729 0.01320619379095683
  endloop
endfacet
facet normal -0.384662 -0.923058 2.15849e-16
  outer loop
    vertex 0.02864750057737412 0.007109944192757178 0.02
    vertex 0.02011677267343187 0.01066491628913577 0.02
    vertex 0.02234146629551591 0.009737829663169729 0.01320619379095683
  endloop
endfacet
facet normal -0.384662 -0.923058 -0
  outer loop
    vertex 0.01158604476948966 0.01421988838551436 0.02
    vertex 0.01158604476948966 0.01421988838551436 0.009999999999999972
    vertex 0.01677388161001394 0.01205798433508673 0.01422229249999735
  endloop
endfacet
facet normal -0.384662 -0.923058 0
  outer loop
    vertex 0.02864750057737412 0.007109944192757178 0
    vertex 0.02864750057737412 0.007109944192757178 0.01000000000000003
    vertex 0.02438213662540301 0.008887430240946469 0.005000000000000014
  endloop
endfacet
facet normal -0.384662 -0.923058 2.22083e-16
  outer loop
    vertex 0.02011677267343187 0.01066491628913577 0.02
    vertex 0.01158604476948966 0.01421988838551436 0.02
    vertex 0.01677388161001394 0.01205798433508673 0.01422229249999735
  endloop
endfacet
facet normal -0.384662 -0.923058 -3.66609e-17
  outer loop
    vertex 0.0201167726734319 0.01066491628913576 0
    vertex 0.02864750057737412 0.007109944192757178 0
    vertex 0.02438213662540301 0.008887430240946469 0.005000000000000014
  endloop
endfacet
facet normal -0.384662 -0.923058 -1.03774e-16
  outer loop
    vertex 0.02864750057737412 0.007109944192757178 0.01000000000000003
    vertex 0.02234146629551591 0.009737829663169729 0.01320619379095683
    vertex 0.02438213662540301 0.008887430240946469 0.005000000000000014
  endloop
endfacet
facet normal -0.384662 -0.923058 -1.92958e-16
  outer loop
    vertex 0.02234146629551591 0.009737829663169729 0.01320619379095683
    vertex 0.01853050746190634 0.01132595349814386 0.007682360685285881
    vertex 0.02438213662540301 0.008887430240946469 0.005000000000000014
  endloop
endfacet
facet normal -0.384662 -0.923058 -1.98561e-16
  outer loop
    vertex 0.01677388161001394 0.01205798433508673 0.01422229249999735
    vertex 0.01158604476948966 0.01421988838551436 0.009999999999999972
    vertex 0.01853050746190634 0.01132595349814386 0.007682360685285881
  endloop
endfacet
facet normal -0.384662 -0.923058 0
  outer loop
    vertex 0.01853050746190634 0.01132595349814386 0.007682360685285881
    vertex 0.0201167726734319 0.01066491628913576 0
    vertex 0.02438213662540301 0.008887430240946469 0.005000000000000014
  endloop
endfacet
facet normal -0.384662 -0.923058 -1.80637e-16
  outer loop
    vertex 0.01677388161001394 0.01205798433508673 0.01422229249999735
    vertex 0.01853050746190634 0.01132595349814386 0.007682360685285881
    vertex 0.02234146629551591 0.009737829663169729 0.01320619379095683
  endloop
endfacet
facet normal -0.384662 -0.923058 2.19842e-16
  outer loop
    vertex 0.02011677267343187 0.01066491628913577 0.02
    vertex 0.01677388161001394 0.01205798433508673 0.01422229249999735
    vertex 0.02234146629551591 0.009737829663169729 0.01320619379095683
  endloop
endfacet
endsolid Created by Gmsh
