solid Created by Gmsh
facet normal -0.452944 0.891539 5.85987e-16
  outer loop
    vertex 0.03555168334710554 0.05490160094370313 0
    vertex 0.02879768806633699 0.05147025088472168 0
    vertex 0.02869923332463483 0.0514202312045616 0.007632235463988606
  endloop
endfacet
facet normal -0.452944 0.891539 5.71337e-16
  outer loop
    vertex 0.02879768806633699 0.05147025088472168 0
    vertex 0.02204369278556845 0.04803890082574024 0
    vertex 0.02869923332463483 0.0514202312045616 0.007632235463988606
  endloop
endfacet
facet normal -0.452944 0.891539 0
  outer loop
    vertex 0.02204369278556845 0.04803890082574024 0
    vertex 0.02204369278556845 0.04803890082574024 0.01000000000000003
    vertex 0.02869923332463483 0.0514202312045616 0.007632235463988606
  endloop
endfacet
facet normal -0.452944 0.891539 0
  outer loop
    vertex 0.03555168334710554 0.05490160094370313 0.009999999999999972
    vertex 0.03555168334710554 0.05490160094370313 0
    vertex 0.02869923332463483 0.0514202312045616 0.007632235463988606
  endloop
endfacet
facet normal -0.452944 0.891539 0
  outer loop
    vertex 0.03555168334710554 0.05490160094370313 0.02
    vertex 0.03555168334710554 0.05490160094370313 0.009999999999999972
    vertex 0.03082388665056756 0.05249965590241612 0.01463914076780126
  endloop
endfacet
facet normal -0.452944 0.891539 0
  outer loop
    vertex 0.02204369278556845 0.04803890082574024 0.01000000000000003
    vertex 0.02204369278556845 0.04803890082574024 0.02
    vertex 0.0261785106377974 0.05013958447909169 0.01461019660454142
  endloop
endfacet
facet normal -0.452944 0.891539 -3.73404e-16
  outer loop
    vertex 0.02204369278556845 0.04803890082574024 0.02
    vertex 0.02879768806633701 0.05147025088472169 0.02
    vertex 0.0261785106377974 0.05013958447909169 0.01461019660454142
  endloop
endfacet
facet normal -0.452944 0.891539 -5.00561e-16
  outer loop
    vertex 0.02879768806633701 0.05147025088472169 0.02
    vertex 0.03555168334710554 0.05490160094370313 0.02
    vertex 0.03082388665056756 0.05249965590241612 0.01463914076780126
  endloop
endfacet
facet normal -0.452944 0.891539 -6.27594e-16
  outer loop
    vertex 0.03082388665056756 0.05249965590241612 0.01463914076780126
    vertex 0.02869923332463483 0.0514202312045616 0.007632235463988606
    vertex 0.0261785106377974 0.05013958447909169 0.01461019660454142
  endloop
endfacet
facet normal -0.452944 0.891539 -5.44548e-16
  outer loop
    vertex 0.02879768806633701 0.05147025088472169 0.02
    vertex 0.03082388665056756 0.05249965590241612 0.01463914076780126
    vertex 0.0261785106377974 0.05013958447909169 0.01461019660454142
  endloop
endfacet
facet normal -0.452944 0.891539 -3.6894e-16
  outer loop
    vertex 0.03082388665056756 0.05249965590241612 0.01463914076780126
    vertex 0.03555168334710554 0.05490160094370313 0.009999999999999972
    vertex 0.02869923332463483 0.0514202312045616 0.007632235463988606
  endloop
endfacet
facet normal -0.452944 0.891539 -4.10479e-16
  outer loop
    vertex 0.02869923332463483 0.0514202312045616 0.007632235463988606
    vertex 0.02204369278556845 0.04803890082574024 0.01000000000000003
    vertex 0.0261785106377974 0.05013958447909169 0.01461019660454142
  endloop
endfacet
facet normal -0.981819 -0.189821 1.21182e-16
  outer loop
    vertex 0.02204369278556845 0.04803890082574024 0
    vertex 0.02337050288893829 0.04117620070777735 0
    vertex 0.02270709783725337 0.0446075507667588 0.004999999999999999
  endloop
endfacet
facet normal -0.981819 -0.189821 -1.45418e-16
  outer loop
    vertex 0.02337050288893829 0.04117620070777735 0.01000000000000003
    vertex 0.02204369278556845 0.04803890082574024 0.009999999999999972
    vertex 0.02270709783725337 0.0446075507667588 0.004999999999999999
  endloop
endfacet
facet normal -0.981819 -0.189821 1.21182e-16
  outer loop
    vertex 0.02204369278556845 0.04803890082574024 0.009999999999999972
    vertex 0.02337050288893829 0.04117620070777735 0.01000000000000003
    vertex 0.02270709783725337 0.0446075507667588 0.015
  endloop
endfacet
facet normal -0.981819 -0.189821 -1.45418e-16
  outer loop
    vertex 0.02337050288893829 0.04117620070777735 0.02
    vertex 0.02204369278556845 0.04803890082574024 0.02
    vertex 0.02270709783725337 0.0446075507667588 0.015
  endloop
endfacet
facet normal -0.981819 -0.189821 -0
  outer loop
    vertex 0.02204369278556845 0.04803890082574024 0.009999999999999972
    vertex 0.02204369278556845 0.04803890082574024 0
    vertex 0.02270709783725337 0.0446075507667588 0.004999999999999999
  endloop
endfacet
facet normal -0.981819 -0.189821 -0
  outer loop
    vertex 0.02204369278556845 0.04803890082574024 0.02
    vertex 0.02204369278556845 0.04803890082574024 0.009999999999999972
    vertex 0.02270709783725337 0.0446075507667588 0.015
  endloop
endfacet
facet normal -0.981819 -0.189821 0
  outer loop
    vertex 0.02337050288893829 0.04117620070777735 0
    vertex 0.02337050288893829 0.04117620070777735 0.01000000000000003
    vertex 0.02270709783725337 0.0446075507667588 0.004999999999999999
  endloop
endfacet
facet normal -0.981819 -0.189821 0
  outer loop
    vertex 0.02337050288893829 0.04117620070777735 0.01000000000000003
    vertex 0.02337050288893829 0.04117620070777735 0.02
    vertex 0.02270709783725337 0.0446075507667588 0.015
  endloop
endfacet
facet normal -0.849928 -0.526899 -0
  outer loop
    vertex 0.02337050288893829 0.04117620070777735 0.02
    vertex 0.02337050288893829 0.04117620070777735 0.009999999999999972
    vertex 0.02549771120609193 0.0377448506487959 0.015
  endloop
endfacet
facet normal -0.849928 -0.526899 0
  outer loop
    vertex 0.02762491952324557 0.03431350058981446 0
    vertex 0.02762491952324557 0.03431350058981446 0.01000000000000003
    vertex 0.02549771120609193 0.0377448506487959 0.005
  endloop
endfacet
facet normal -0.849928 -0.526899 -0
  outer loop
    vertex 0.02337050288893829 0.04117620070777735 0.009999999999999972
    vertex 0.02337050288893829 0.04117620070777735 0
    vertex 0.02549771120609193 0.0377448506487959 0.005
  endloop
endfacet
facet normal -0.849928 -0.526899 0
  outer loop
    vertex 0.02762491952324557 0.03431350058981446 0.01000000000000003
    vertex 0.02762491952324557 0.03431350058981446 0.02
    vertex 0.02549771120609193 0.0377448506487959 0.015
  endloop
endfacet
facet normal -0.849928 -0.526899 0
  outer loop
    vertex 0.02337050288893829 0.04117620070777735 0
    vertex 0.02762491952324557 0.03431350058981446 0
    vertex 0.02549771120609193 0.0377448506487959 0.005
  endloop
endfacet
facet normal -0.849928 -0.526899 0
  outer loop
    vertex 0.02762491952324557 0.03431350058981446 0.02
    vertex 0.02337050288893829 0.04117620070777735 0.02
    vertex 0.02549771120609193 0.0377448506487959 0.015
  endloop
endfacet
facet normal -0.849928 -0.526899 0
  outer loop
    vertex 0.02337050288893829 0.04117620070777735 0.009999999999999972
    vertex 0.02762491952324557 0.03431350058981446 0.01000000000000003
    vertex 0.02549771120609193 0.0377448506487959 0.015
  endloop
endfacet
facet normal -0.849928 -0.526899 0
  outer loop
    vertex 0.02762491952324557 0.03431350058981446 0.01000000000000003
    vertex 0.02337050288893829 0.04117620070777735 0.009999999999999972
    vertex 0.02549771120609193 0.0377448506487959 0.005
  endloop
endfacet
facet normal -0.856784 0.515675 0
  outer loop
    vertex 0.02762491952324557 0.03431350058981446 0.02
    vertex 0.02762491952324557 0.03431350058981446 0.009999999999999972
    vertex 0.02555968398379443 0.03088215053083301 0.015
  endloop
endfacet
facet normal -0.856784 0.515675 0
  outer loop
    vertex 0.0234944484443433 0.02745080047185157 0
    vertex 0.0234944484443433 0.02745080047185157 0.01000000000000003
    vertex 0.02555968398379443 0.03088215053083301 0.004999999999999999
  endloop
endfacet
facet normal -0.856784 0.515675 0
  outer loop
    vertex 0.02762491952324557 0.03431350058981446 0.009999999999999972
    vertex 0.02762491952324557 0.03431350058981446 0
    vertex 0.02555968398379443 0.03088215053083301 0.004999999999999999
  endloop
endfacet
facet normal -0.856784 0.515675 0
  outer loop
    vertex 0.0234944484443433 0.02745080047185157 0.01000000000000003
    vertex 0.0234944484443433 0.02745080047185157 0.02
    vertex 0.02555968398379443 0.03088215053083301 0.015
  endloop
endfacet
facet normal -0.856784 0.515675 4.65296e-16
  outer loop
    vertex 0.0234944484443433 0.02745080047185157 0.01000000000000003
    vertex 0.02762491952324557 0.03431350058981446 0.009999999999999972
    vertex 0.02555968398379443 0.03088215053083301 0.004999999999999999
  endloop
endfacet
facet normal -0.856784 0.515675 1.05749e-15
  outer loop
    vertex 0.0234944484443433 0.02745080047185157 0.02
    vertex 0.02762491952324557 0.03431350058981446 0.02
    vertex 0.02555968398379443 0.03088215053083301 0.015
  endloop
endfacet
facet normal -0.856784 0.515675 -4.65296e-16
  outer loop
    vertex 0.02762491952324557 0.03431350058981446 0
    vertex 0.0234944484443433 0.02745080047185157 0
    vertex 0.02555968398379443 0.03088215053083301 0.004999999999999999
  endloop
endfacet
facet normal -0.856784 0.515675 -1.05749e-15
  outer loop
    vertex 0.02762491952324557 0.03431350058981446 0.009999999999999972
    vertex 0.0234944484443433 0.02745080047185157 0.01000000000000003
    vertex 0.02555968398379443 0.03088215053083301 0.015
  endloop
endfacet
facet normal -0.971682 -0.236291 9.59444e-17
  outer loop
    vertex 0.0234944484443433 0.02745080047185157 0
    vertex 0.02516330287319943 0.02058810035388867 0
    vertex 0.02432887565877136 0.02401945041287012 0.005000000000000001
  endloop
endfacet
facet normal -0.971682 -0.236291 -7.19583e-17
  outer loop
    vertex 0.0234944484443433 0.02745080047185157 0.009999999999999972
    vertex 0.02516330287319943 0.02058810035388867 0.01000000000000003
    vertex 0.02432887565877136 0.02401945041287012 0.015
  endloop
endfacet
facet normal -0.971682 -0.236291 9.59444e-17
  outer loop
    vertex 0.02516330287319943 0.02058810035388867 0.02
    vertex 0.0234944484443433 0.02745080047185157 0.02
    vertex 0.02432887565877136 0.02401945041287012 0.015
  endloop
endfacet
facet normal -0.971682 -0.236291 -7.19583e-17
  outer loop
    vertex 0.02516330287319943 0.02058810035388867 0.01000000000000003
    vertex 0.0234944484443433 0.02745080047185157 0.009999999999999972
    vertex 0.02432887565877136 0.02401945041287012 0.005000000000000001
  endloop
endfacet
facet normal -0.971682 -0.236291 -0
  outer loop
    vertex 0.0234944484443433 0.02745080047185157 0.009999999999999972
    vertex 0.0234944484443433 0.02745080047185157 0
    vertex 0.02432887565877136 0.02401945041287012 0.005000000000000001
  endloop
endfacet
facet normal -0.971682 -0.236291 -0
  outer loop
    vertex 0.0234944484443433 0.02745080047185157 0.02
    vertex 0.0234944484443433 0.02745080047185157 0.009999999999999972
    vertex 0.02432887565877136 0.02401945041287012 0.015
  endloop
endfacet
facet normal -0.971682 -0.236291 0
  outer loop
    vertex 0.02516330287319943 0.02058810035388867 0
    vertex 0.02516330287319943 0.02058810035388867 0.01000000000000003
    vertex 0.02432887565877136 0.02401945041287012 0.005000000000000001
  endloop
endfacet
facet normal -0.971682 -0.236291 0
  outer loop
    vertex 0.02516330287319943 0.02058810035388867 0.01000000000000003
    vertex 0.02516330287319943 0.02058810035388867 0.02
    vertex 0.02432887565877136 0.02401945041287012 0.015
  endloop
endfacet
facet normal -0.97858 -0.205868 -3.38189e-16
  outer loop
    vertex 0.02660703876512246 0.01372540023592578 0.02
    vertex 0.02516330287319943 0.02058810035388867 0.02
    vertex 0.02588517081916095 0.01715675029490723 0.015
  endloop
endfacet
facet normal -0.97858 -0.205868 -3.38189e-16
  outer loop
    vertex 0.02660703876512246 0.01372540023592578 0.01000000000000003
    vertex 0.02516330287319943 0.02058810035388867 0.009999999999999972
    vertex 0.02588517081916095 0.01715675029490723 0.005
  endloop
endfacet
facet normal -0.97858 -0.205868 3.38189e-16
  outer loop
    vertex 0.02516330287319943 0.02058810035388867 0
    vertex 0.02660703876512246 0.01372540023592578 0
    vertex 0.02588517081916095 0.01715675029490723 0.005
  endloop
endfacet
facet normal -0.97858 -0.205868 3.38189e-16
  outer loop
    vertex 0.02516330287319943 0.02058810035388867 0.009999999999999972
    vertex 0.02660703876512246 0.01372540023592578 0.01000000000000003
    vertex 0.02588517081916095 0.01715675029490723 0.015
  endloop
endfacet
facet normal -0.97858 -0.205868 -0
  outer loop
    vertex 0.02516330287319943 0.02058810035388867 0.009999999999999972
    vertex 0.02516330287319943 0.02058810035388867 0
    vertex 0.02588517081916095 0.01715675029490723 0.005
  endloop
endfacet
facet normal -0.97858 -0.205868 -0
  outer loop
    vertex 0.02516330287319943 0.02058810035388867 0.02
    vertex 0.02516330287319943 0.02058810035388867 0.009999999999999972
    vertex 0.02588517081916095 0.01715675029490723 0.015
  endloop
endfacet
facet normal -0.97858 -0.205868 0
  outer loop
    vertex 0.02660703876512246 0.01372540023592578 0
    vertex 0.02660703876512246 0.01372540023592578 0.01000000000000003
    vertex 0.02588517081916095 0.01715675029490723 0.005
  endloop
endfacet
facet normal -0.97858 -0.205868 0
  outer loop
    vertex 0.02660703876512246 0.01372540023592578 0.01000000000000003
    vertex 0.02660703876512246 0.01372540023592578 0.02
    vertex 0.02588517081916095 0.01715675029490723 0.015
  endloop
endfacet
facet normal -0.837023 0.547168 0
  outer loop
    vertex 0.02660703876512246 0.01372540023592578 0.02
    vertex 0.02660703876512246 0.01372540023592578 0.009999999999999972
    vertex 0.02436394132253527 0.01029405017694434 0.015
  endloop
endfacet
facet normal -0.837023 0.547168 0
  outer loop
    vertex 0.02212084387994808 0.006862700117962889 0
    vertex 0.02212084387994808 0.006862700117962889 0.01000000000000003
    vertex 0.02436394132253527 0.01029405017694434 0.005
  endloop
endfacet
facet normal -0.837023 0.547168 0
  outer loop
    vertex 0.02660703876512246 0.01372540023592578 0.009999999999999972
    vertex 0.02660703876512246 0.01372540023592578 0
    vertex 0.02436394132253527 0.01029405017694434 0.005
  endloop
endfacet
facet normal -0.837023 0.547168 0
  outer loop
    vertex 0.02212084387994808 0.006862700117962889 0.01000000000000003
    vertex 0.02212084387994808 0.006862700117962889 0.02
    vertex 0.02436394132253527 0.01029405017694434 0.015
  endloop
endfacet
facet normal -0.837023 0.547168 4.95888e-16
  outer loop
    vertex 0.02212084387994808 0.006862700117962889 0.01000000000000003
    vertex 0.02660703876512246 0.01372540023592578 0.009999999999999972
    vertex 0.02436394132253527 0.01029405017694434 0.005
  endloop
endfacet
facet normal -0.837023 0.547168 4.95888e-16
  outer loop
    vertex 0.02212084387994808 0.006862700117962889 0.02
    vertex 0.02660703876512246 0.01372540023592578 0.02
    vertex 0.02436394132253527 0.01029405017694434 0.015
  endloop
endfacet
facet normal -0.837023 0.547168 -4.1324e-16
  outer loop
    vertex 0.02660703876512246 0.01372540023592578 0
    vertex 0.02212084387994808 0.006862700117962889 0
    vertex 0.02436394132253527 0.01029405017694434 0.005
  endloop
endfacet
facet normal -0.837023 0.547168 -4.1324e-16
  outer loop
    vertex 0.02660703876512246 0.01372540023592578 0.009999999999999972
    vertex 0.02212084387994808 0.006862700117962889 0.01000000000000003
    vertex 0.02436394132253527 0.01029405017694434 0.015
  endloop
endfacet
endsolid Created by Gmsh
