solid Created by Gmsh
facet normal 1 -0 0
  outer loop
    vertex 0.04 0.05369766147422791 0.02
    vertex 0.04 0.05684883073711396 0.015
    vertex 0.04 0.06 0.02
  endloop
endfacet
facet normal 1 0 0
  outer loop
    vertex 0.04 0.05369766147422791 0.01000000000000003
    vertex 0.04 0.05684883073711396 0.005
    vertex 0.04 0.06 0.009999999999999972
  endloop
endfacet
facet normal 1 0 0
  outer loop
    vertex 0.04 0.06 0
    vertex 0.04 0.05684883073711396 0.005
    vertex 0.04 0.05369766147422791 0
  endloop
endfacet
facet normal 1 0 0
  outer loop
    vertex 0.04 0.06 0.009999999999999972
    vertex 0.04 0.05684883073711396 0.015
    vertex 0.04 0.05369766147422791 0.01000000000000003
  endloop
endfacet
facet normal 1 0 0
  outer loop
    vertex 0.04 0.06 0.009999999999999972
    vertex 0.04 0.05684883073711396 0.005
    vertex 0.04 0.06 0
  endloop
endfacet
facet normal 1 0 0
  outer loop
    vertex 0.04 0.06 0.02
    vertex 0.04 0.05684883073711396 0.015
    vertex 0.04 0.06 0.009999999999999972
  endloop
endfacet
facet normal 1 0 0
  outer loop
    vertex 0.04 0.05369766147422791 0
    vertex 0.04 0.05684883073711396 0.005
    vertex 0.04 0.05369766147422791 0.01000000000000003
  endloop
endfacet
facet normal 1 0 0
  outer loop
    vertex 0.04 0.05369766147422791 0.01000000000000003
    vertex 0.04 0.05684883073711396 0.015
    vertex 0.04 0.05369766147422791 0.02
  endloop
endfacet
facet normal 0.518957 -0.8548 0
  outer loop
    vertex 0.02894398802441251 0.04698545378994942 0.01000000000000003
    vertex 0.04 0.05369766147422791 0.009999999999999972
    vertex 0.03447199401220626 0.05034155763208867 0.02
  endloop
endfacet
facet normal 0.518957 -0.8548 0
  outer loop
    vertex 0.03447199401220626 0.05034155763208867 0
    vertex 0.04 0.05369766147422791 0.009999999999999972
    vertex 0.02894398802441251 0.04698545378994942 0.01000000000000003
  endloop
endfacet
facet normal 0.518957 -0.8548 0
  outer loop
    vertex 0.03447199401220626 0.05034155763208867 0
    vertex 0.04 0.05369766147422791 0
    vertex 0.04 0.05369766147422791 0.009999999999999972
  endloop
endfacet
facet normal 0.518957 -0.8548 0
  outer loop
    vertex 0.04 0.05369766147422791 0.009999999999999972
    vertex 0.04 0.05369766147422791 0.02
    vertex 0.03447199401220626 0.05034155763208867 0.02
  endloop
endfacet
facet normal 0.518957 -0.8548 0
  outer loop
    vertex 0.02894398802441251 0.04698545378994942 0.01000000000000003
    vertex 0.02894398802441251 0.04698545378994942 0
    vertex 0.03447199401220626 0.05034155763208867 0
  endloop
endfacet
facet normal 0.518957 -0.8548 0
  outer loop
    vertex 0.03447199401220626 0.05034155763208867 0.02
    vertex 0.02894398802441251 0.04698545378994942 0.02
    vertex 0.02894398802441251 0.04698545378994942 0.01000000000000003
  endloop
endfacet
facet normal 0.329351 0.944207 -2.60047e-15
  outer loop
    vertex 0.04818702051847885 0.04027324610567094 0.02
    vertex 0.04141273123338445 0.04263620197600772 0.01271202973680043
    vertex 0.03856550427144569 0.04362934994781018 0.02
  endloop
endfacet
facet normal 0.329351 0.944207 0
  outer loop
    vertex 0.02894398802441251 0.04698545378994942 0.009999999999999972
    vertex 0.03620456725702968 0.04445287397268239 0.007643887795917935
    vertex 0.02894398802441251 0.04698545378994942 0
  endloop
endfacet
facet normal 0.329351 0.944207 2.3054e-15
  outer loop
    vertex 0.02894398802441251 0.04698545378994942 0
    vertex 0.03620456725702968 0.04445287397268239 0.007643887795917935
    vertex 0.03856550427144568 0.04362934994781018 0
  endloop
endfacet
facet normal 0.329351 0.944207 -0
  outer loop
    vertex 0.04818702051847885 0.04027324610567094 0.01000000000000003
    vertex 0.04141273123338445 0.04263620197600772 0.01271202973680043
    vertex 0.04818702051847885 0.04027324610567094 0.02
  endloop
endfacet
facet normal 0.329351 0.944207 -3.11385e-15
  outer loop
    vertex 0.03856550427144569 0.04362934994781018 0.02
    vertex 0.03421723449580173 0.045146080214227 0.01450087486218793
    vertex 0.02894398802441251 0.04698545378994942 0.02
  endloop
endfacet
facet normal 0.329351 0.944207 2.80744e-15
  outer loop
    vertex 0.03856550427144568 0.04362934994781018 0
    vertex 0.04255780503509492 0.04223678607452355 0.005921662910863144
    vertex 0.04818702051847885 0.04027324610567094 0
  endloop
endfacet
facet normal 0.329351 0.944207 0
  outer loop
    vertex 0.02894398802441251 0.04698545378994942 0.02
    vertex 0.03421723449580173 0.045146080214227 0.01450087486218793
    vertex 0.02894398802441251 0.04698545378994942 0.009999999999999972
  endloop
endfacet
facet normal 0.329351 0.944207 -0
  outer loop
    vertex 0.04818702051847885 0.04027324610567094 0
    vertex 0.04255780503509492 0.04223678607452355 0.005921662910863144
    vertex 0.04818702051847885 0.04027324610567094 0.01000000000000003
  endloop
endfacet
facet normal 0.329351 0.944207 -2.6351e-15
  outer loop
    vertex 0.04141273123338445 0.04263620197600772 0.01271202973680043
    vertex 0.03421723449580173 0.045146080214227 0.01450087486218793
    vertex 0.03856550427144569 0.04362934994781018 0.02
  endloop
endfacet
facet normal 0.329351 0.944207 2.55224e-15
  outer loop
    vertex 0.03856550427144568 0.04362934994781018 0
    vertex 0.03620456725702968 0.04445287397268239 0.007643887795917935
    vertex 0.04255780503509492 0.04223678607452355 0.005921662910863144
  endloop
endfacet
facet normal 0.329351 0.944207 4.54175e-16
  outer loop
    vertex 0.03620456725702968 0.04445287397268239 0.007643887795917935
    vertex 0.03421723449580173 0.045146080214227 0.01450087486218793
    vertex 0.04141273123338445 0.04263620197600772 0.01271202973680043
  endloop
endfacet
facet normal 0.329351 0.944207 1.09939e-15
  outer loop
    vertex 0.02894398802441251 0.04698545378994942 0.009999999999999972
    vertex 0.03421723449580173 0.045146080214227 0.01450087486218793
    vertex 0.03620456725702968 0.04445287397268239 0.007643887795917935
  endloop
endfacet
facet normal 0.329351 0.944207 7.7707e-16
  outer loop
    vertex 0.03620456725702968 0.04445287397268239 0.007643887795917935
    vertex 0.04141273123338445 0.04263620197600772 0.01271202973680043
    vertex 0.04255780503509492 0.04223678607452355 0.005921662910863144
  endloop
endfacet
facet normal 0.329351 0.944207 2.61033e-16
  outer loop
    vertex 0.04255780503509492 0.04223678607452355 0.005921662910863144
    vertex 0.04141273123338445 0.04263620197600772 0.01271202973680043
    vertex 0.04818702051847885 0.04027324610567094 0.01000000000000003
  endloop
endfacet
facet normal 0.984672 0.174418 -2.60943e-15
  outer loop
    vertex 0.04937597217519893 0.03356103842139245 0.02
    vertex 0.04878149634683888 0.0369171422635317 0.015
    vertex 0.04818702051847885 0.04027324610567094 0.02
  endloop
endfacet
facet normal 0.984672 0.174418 -2.60943e-15
  outer loop
    vertex 0.04937597217519893 0.03356103842139245 0.01000000000000003
    vertex 0.04878149634683888 0.0369171422635317 0.005
    vertex 0.04818702051847885 0.04027324610567094 0.009999999999999972
  endloop
endfacet
facet normal 0.984672 0.174418 2.60943e-15
  outer loop
    vertex 0.04818702051847885 0.04027324610567094 0.009999999999999972
    vertex 0.04878149634683888 0.0369171422635317 0.015
    vertex 0.04937597217519893 0.03356103842139245 0.01000000000000003
  endloop
endfacet
facet normal 0.984672 0.174418 2.60943e-15
  outer loop
    vertex 0.04818702051847885 0.04027324610567094 0
    vertex 0.04878149634683888 0.0369171422635317 0.005
    vertex 0.04937597217519893 0.03356103842139245 0
  endloop
endfacet
facet normal 0.984672 0.174418 0
  outer loop
    vertex 0.04818702051847885 0.04027324610567094 0.009999999999999972
    vertex 0.04878149634683888 0.0369171422635317 0.005
    vertex 0.04818702051847885 0.04027324610567094 0
  endloop
endfacet
facet normal 0.984672 0.174418 0
  outer loop
    vertex 0.04818702051847885 0.04027324610567094 0.02
    vertex 0.04878149634683888 0.0369171422635317 0.015
    vertex 0.04818702051847885 0.04027324610567094 0.009999999999999972
  endloop
endfacet
facet normal 0.984672 0.174418 -0
  outer loop
    vertex 0.04937597217519893 0.03356103842139245 0
    vertex 0.04878149634683888 0.0369171422635317 0.005
    vertex 0.04937597217519893 0.03356103842139245 0.01000000000000003
  endloop
endfacet
facet normal 0.984672 0.174418 -0
  outer loop
    vertex 0.04937597217519893 0.03356103842139245 0.01000000000000003
    vertex 0.04878149634683888 0.0369171422635317 0.015
    vertex 0.04937597217519893 0.03356103842139245 0.02
  endloop
endfacet
facet normal 0.397329 -0.917676 0
  outer loop
    vertex 0.03387338963631174 0.02684883073711396 0.02
    vertex 0.04085426437461692 0.02987136462421953 0.01214182436678719
    vertex 0.04162468090575532 0.0302049345792532 0.02
  endloop
endfacet
facet normal 0.397329 -0.917676 0
  outer loop
    vertex 0.03387338963631174 0.02684883073711396 0.01000000000000003
    vertex 0.04085426437461692 0.02987136462421953 0.01214182436678719
    vertex 0.03387338963631174 0.02684883073711396 0.02
  endloop
endfacet
facet normal 0.397329 -0.917676 0
  outer loop
    vertex 0.04937597217519893 0.03356103842139245 0.009999999999999972
    vertex 0.04385854188281629 0.03117213722295639 0.006007732374415051
    vertex 0.04937597217519893 0.03356103842139245 0
  endloop
endfacet
facet normal 0.397329 -0.917676 0
  outer loop
    vertex 0.04937597217519893 0.03356103842139245 0.02
    vertex 0.04530772240769253 0.03179959401156441 0.01553545609169679
    vertex 0.04937597217519893 0.03356103842139245 0.009999999999999972
  endloop
endfacet
facet normal 0.397329 -0.917676 0
  outer loop
    vertex 0.03387338963631174 0.02684883073711396 0
    vertex 0.03879992428483391 0.02898188977045412 0.005680739288981431
    vertex 0.03387338963631174 0.02684883073711396 0.01000000000000003
  endloop
endfacet
facet normal 0.397329 -0.917676 3.33837e-16
  outer loop
    vertex 0.04937597217519893 0.03356103842139245 0
    vertex 0.04385854188281629 0.03117213722295639 0.006007732374415051
    vertex 0.04162468090575534 0.03020493457925321 0
  endloop
endfacet
facet normal 0.397329 -0.917676 2.4254e-16
  outer loop
    vertex 0.04937597217519893 0.03356103842139245 0.009999999999999972
    vertex 0.04530772240769253 0.03179959401156441 0.01553545609169679
    vertex 0.04085426437461692 0.02987136462421953 0.01214182436678719
  endloop
endfacet
facet normal 0.397329 -0.917676 -2.0349e-16
  outer loop
    vertex 0.04085426437461692 0.02987136462421953 0.01214182436678719
    vertex 0.04385854188281629 0.03117213722295639 0.006007732374415051
    vertex 0.04937597217519893 0.03356103842139245 0.009999999999999972
  endloop
endfacet
facet normal 0.397329 -0.917676 -2.24615e-16
  outer loop
    vertex 0.04162468090575532 0.0302049345792532 0.02
    vertex 0.04530772240769253 0.03179959401156441 0.01553545609169679
    vertex 0.04937597217519893 0.03356103842139245 0.02
  endloop
endfacet
facet normal 0.397329 -0.917676 1.76527e-16
  outer loop
    vertex 0.04162468090575534 0.03020493457925321 0
    vertex 0.03879992428483391 0.02898188977045412 0.005680739288981431
    vertex 0.03387338963631174 0.02684883073711396 0
  endloop
endfacet
facet normal 0.397329 -0.917676 0
  outer loop
    vertex 0.03879992428483391 0.02898188977045412 0.005680739288981431
    vertex 0.04085426437461692 0.02987136462421953 0.01214182436678719
    vertex 0.03387338963631174 0.02684883073711396 0.01000000000000003
  endloop
endfacet
facet normal 0.397329 -0.917676 -6.00112e-18
  outer loop
    vertex 0.04085426437461692 0.02987136462421953 0.01214182436678719
    vertex 0.04530772240769253 0.03179959401156441 0.01553545609169679
    vertex 0.04162468090575532 0.0302049345792532 0.02
  endloop
endfacet
facet normal 0.397329 -0.917676 -2.42813e-17
  outer loop
    vertex 0.03879992428483391 0.02898188977045412 0.005680739288981431
    vertex 0.04385854188281629 0.03117213722295639 0.006007732374415051
    vertex 0.04085426437461692 0.02987136462421953 0.01214182436678719
  endloop
endfacet
facet normal 0.397329 -0.917676 3.66895e-16
  outer loop
    vertex 0.04162468090575534 0.03020493457925321 0
    vertex 0.04385854188281629 0.03117213722295639 0.006007732374415051
    vertex 0.03879992428483391 0.02898188977045412 0.005680739288981431
  endloop
endfacet
facet normal 0.630419 0.776255 -8.68891e-16
  outer loop
    vertex 0.04213835346895919 0.02013662305283546 0.02
    vertex 0.03800587155263546 0.02349272689497471 0.01450648773478912
    vertex 0.03387338963631174 0.02684883073711396 0.02
  endloop
endfacet
facet normal 0.630419 0.776255 1.26812e-15
  outer loop
    vertex 0.03387338963631174 0.02684883073711396 0
    vertex 0.03800587155263548 0.02349272689497469 0.005520616409829249
    vertex 0.04213835346895919 0.02013662305283546 0
  endloop
endfacet
facet normal 0.630419 0.776255 0
  outer loop
    vertex 0.03387338963631174 0.02684883073711396 0.02
    vertex 0.03800587155263546 0.02349272689497471 0.01450648773478912
    vertex 0.03387338963631174 0.02684883073711396 0.009999999999999972
  endloop
endfacet
facet normal 0.630419 0.776255 -0
  outer loop
    vertex 0.04213835346895919 0.02013662305283546 0
    vertex 0.03800587155263548 0.02349272689497469 0.005520616409829249
    vertex 0.04213835346895919 0.02013662305283546 0.01000000000000003
  endloop
endfacet
facet normal 0.630419 0.776255 -2.12479e-16
  outer loop
    vertex 0.03387338963631174 0.02684883073711396 0.009999999999999972
    vertex 0.03800587155263546 0.02349272689497471 0.01450648773478912
    vertex 0.03800587155263548 0.02349272689497469 0.005520616409829249
  endloop
endfacet
facet normal 0.630419 0.776255 -2.2523e-16
  outer loop
    vertex 0.03800587155263548 0.02349272689497469 0.005520616409829249
    vertex 0.03800587155263546 0.02349272689497471 0.01450648773478912
    vertex 0.04213835346895919 0.02013662305283546 0.01000000000000003
  endloop
endfacet
facet normal 0.630419 0.776255 0
  outer loop
    vertex 0.03387338963631174 0.02684883073711396 0.009999999999999972
    vertex 0.03800587155263548 0.02349272689497469 0.005520616409829249
    vertex 0.03387338963631174 0.02684883073711396 0
  endloop
endfacet
facet normal 0.630419 0.776255 -0
  outer loop
    vertex 0.04213835346895919 0.02013662305283546 0.01000000000000003
    vertex 0.03800587155263546 0.02349272689497471 0.01450648773478912
    vertex 0.04213835346895919 0.02013662305283546 0.02
  endloop
endfacet
facet normal 0.778884 -0.627168 0
  outer loop
    vertex 0.04213835346895919 0.02013662305283546 0.02
    vertex 0.03943597515165487 0.01678051921069622 0.015
    vertex 0.04213835346895919 0.02013662305283546 0.009999999999999972
  endloop
endfacet
facet normal 0.778884 -0.627168 0
  outer loop
    vertex 0.03673359683435053 0.01342441536855698 0
    vertex 0.03943597515165487 0.01678051921069622 0.005
    vertex 0.03673359683435053 0.01342441536855698 0.01000000000000003
  endloop
endfacet
facet normal 0.778884 -0.627168 0
  outer loop
    vertex 0.04213835346895919 0.02013662305283546 0.009999999999999972
    vertex 0.03943597515165487 0.01678051921069622 0.005
    vertex 0.04213835346895919 0.02013662305283546 0
  endloop
endfacet
facet normal 0.778884 -0.627168 0
  outer loop
    vertex 0.03673359683435053 0.01342441536855698 0.01000000000000003
    vertex 0.03943597515165487 0.01678051921069622 0.015
    vertex 0.03673359683435053 0.01342441536855698 0.02
  endloop
endfacet
facet normal 0.778884 -0.627168 -1.57263e-15
  outer loop
    vertex 0.04213835346895919 0.02013662305283546 0
    vertex 0.03943597515165487 0.01678051921069622 0.005
    vertex 0.03673359683435053 0.01342441536855698 0
  endloop
endfacet
facet normal 0.778884 -0.627168 1.494e-15
  outer loop
    vertex 0.03673359683435053 0.01342441536855698 0.02
    vertex 0.03943597515165487 0.01678051921069622 0.015
    vertex 0.04213835346895919 0.02013662305283546 0.02
  endloop
endfacet
facet normal 0.778884 -0.627168 -1.57263e-15
  outer loop
    vertex 0.04213835346895919 0.02013662305283546 0.009999999999999972
    vertex 0.03943597515165487 0.01678051921069622 0.015
    vertex 0.03673359683435053 0.01342441536855698 0.01000000000000003
  endloop
endfacet
facet normal 0.778884 -0.627168 1.494e-15
  outer loop
    vertex 0.03673359683435053 0.01342441536855698 0.01000000000000003
    vertex 0.03943597515165487 0.01678051921069622 0.005
    vertex 0.04213835346895919 0.02013662305283546 0.009999999999999972
  endloop
endfacet
facet normal 0.559416 0.828887 4.69034e-16
  outer loop
    vertex 0.04667907320113564 0.006712207684278493 0.02
    vertex 0.04170633501774308 0.01006831152641774 0.0139795918367347
    vertex 0.03673359683435053 0.01342441536855698 0.02
  endloop
endfacet
facet normal 0.559416 0.828887 -3.81831e-16
  outer loop
    vertex 0.03673359683435053 0.01342441536855698 0
    vertex 0.04170633501774309 0.01006831152641773 0.005916284881299466
    vertex 0.04667907320113564 0.006712207684278493 0
  endloop
endfacet
facet normal 0.559416 0.828887 0
  outer loop
    vertex 0.03673359683435053 0.01342441536855698 0.02
    vertex 0.04170633501774308 0.01006831152641774 0.0139795918367347
    vertex 0.03673359683435053 0.01342441536855698 0.009999999999999972
  endloop
endfacet
facet normal 0.559416 0.828887 -0
  outer loop
    vertex 0.04667907320113564 0.006712207684278493 0
    vertex 0.04170633501774309 0.01006831152641773 0.005916284881299466
    vertex 0.04667907320113564 0.006712207684278493 0.01000000000000003
  endloop
endfacet
facet normal 0.559416 0.828887 -5.35684e-17
  outer loop
    vertex 0.04170633501774308 0.01006831152641774 0.0139795918367347
    vertex 0.04170633501774309 0.01006831152641773 0.005916284881299466
    vertex 0.03673359683435053 0.01342441536855698 0.009999999999999972
  endloop
endfacet
facet normal 0.559416 0.828887 0
  outer loop
    vertex 0.03673359683435053 0.01342441536855698 0.009999999999999972
    vertex 0.04170633501774309 0.01006831152641773 0.005916284881299466
    vertex 0.03673359683435053 0.01342441536855698 0
  endloop
endfacet
facet normal 0.559416 0.828887 0
  outer loop
    vertex 0.04667907320113564 0.006712207684278493 0.01000000000000003
    vertex 0.04170633501774309 0.01006831152641773 0.005916284881299466
    vertex 0.04170633501774308 0.01006831152641774 0.0139795918367347
  endloop
endfacet
facet normal 0.559416 0.828887 -0
  outer loop
    vertex 0.04667907320113564 0.006712207684278493 0.01000000000000003
    vertex 0.04170633501774308 0.01006831152641774 0.0139795918367347
    vertex 0.04667907320113564 0.006712207684278493 0.02
  endloop
endfacet
endsolid Created by Gmsh
