solid Created by Gmsh
facet normal 1 0 0
  outer loop
    vertex 0.04 0.06 0.02
    vertex 0.04 0.05509582192223024 0.015
    vertex 0.04 0.06 0.009999999999999972
  endloop
endfacet
facet normal 1 0 0
  outer loop
    vertex 0.04 0.04598806263494357 0
    vertex 0.04 0.05089224071271332 0.005000000000000006
    vertex 0.04 0.04598806263494357 0.01000000000000003
  endloop
endfacet
facet normal 1 0 0
  outer loop
    vertex 0.04 0.04598806263494357 0.01000000000000003
    vertex 0.04 0.05061200196541218 0.01500000000000001
    vertex 0.04 0.04598806263494357 0.02
  endloop
endfacet
facet normal 1 0 0
  outer loop
    vertex 0.04 0.06 0.009999999999999972
    vertex 0.04 0.05537606066953137 0.004999999999999999
    vertex 0.04 0.06 0
  endloop
endfacet
facet normal 1 0 0
  outer loop
    vertex 0.04 0.0529940313174718 0
    vertex 0.04 0.05089224071271332 0.005000000000000006
    vertex 0.04 0.04598806263494357 0
  endloop
endfacet
facet normal 1 -0 0
  outer loop
    vertex 0.04 0.05299403131747178 0.02
    vertex 0.04 0.05509582192223024 0.015
    vertex 0.04 0.06 0.02
  endloop
endfacet
facet normal 1 0 0
  outer loop
    vertex 0.04 0.06 0
    vertex 0.04 0.05537606066953137 0.004999999999999999
    vertex 0.04 0.0529940313174718 0
  endloop
endfacet
facet normal 1 -0 0
  outer loop
    vertex 0.04 0.04598806263494357 0.02
    vertex 0.04 0.05061200196541218 0.01500000000000001
    vertex 0.04 0.05299403131747178 0.02
  endloop
endfacet
facet normal 1 0 -0
  outer loop
    vertex 0.04 0.0529940313174718 0
    vertex 0.04 0.05537606066953137 0.004999999999999999
    vertex 0.04 0.05089224071271332 0.005000000000000006
  endloop
endfacet
facet normal 1 0 0
  outer loop
    vertex 0.04 0.05299403131747178 0.02
    vertex 0.04 0.05061200196541218 0.01500000000000001
    vertex 0.04 0.05509582192223024 0.015
  endloop
endfacet
facet normal 1 0 0
  outer loop
    vertex 0.04 0.05537606066953137 0.004999999999999999
    vertex 0.04 0.05299403131747178 0.01
    vertex 0.04 0.05089224071271332 0.005000000000000006
  endloop
endfacet
facet normal 1 0 0
  outer loop
    vertex 0.04 0.05061200196541218 0.01500000000000001
    vertex 0.04 0.05299403131747178 0.01
    vertex 0.04 0.05509582192223024 0.015
  endloop
endfacet
facet normal 1 0 0
  outer loop
    vertex 0.04 0.06 0.009999999999999972
    vertex 0.04 0.05299403131747178 0.01
    vertex 0.04 0.05537606066953137 0.004999999999999999
  endloop
endfacet
facet normal 1 0 0
  outer loop
    vertex 0.04 0.05509582192223024 0.015
    vertex 0.04 0.05299403131747178 0.01
    vertex 0.04 0.06 0.009999999999999972
  endloop
endfacet
facet normal 1 0 -0
  outer loop
    vertex 0.04 0.05089224071271332 0.005000000000000006
    vertex 0.04 0.05299403131747178 0.01
    vertex 0.04 0.04598806263494357 0.01000000000000003
  endloop
endfacet
facet normal 1 -0 0
  outer loop
    vertex 0.04 0.04598806263494357 0.01000000000000003
    vertex 0.04 0.05299403131747178 0.01
    vertex 0.04 0.05061200196541218 0.01500000000000001
  endloop
endfacet
facet normal 0.777082 0.629399 -0
  outer loop
    vertex 0.04465601324197943 0.04023955480557562 0
    vertex 0.04232800662098971 0.04311380872025959 0.005
    vertex 0.04465601324197943 0.04023955480557562 0.01000000000000003
  endloop
endfacet
facet normal 0.777082 0.629399 0
  outer loop
    vertex 0.04 0.04598806263494357 0.02
    vertex 0.04232800662098971 0.04311380872025959 0.015
    vertex 0.04 0.04598806263494357 0.009999999999999972
  endloop
endfacet
facet normal 0.777082 0.629399 -0
  outer loop
    vertex 0.04465601324197943 0.04023955480557562 0.01000000000000003
    vertex 0.04232800662098971 0.04311380872025959 0.015
    vertex 0.04465601324197943 0.04023955480557562 0.02
  endloop
endfacet
facet normal 0.777082 0.629399 0
  outer loop
    vertex 0.04 0.04598806263494357 0.009999999999999972
    vertex 0.04232800662098971 0.04311380872025959 0.005
    vertex 0.04 0.04598806263494357 0
  endloop
endfacet
facet normal 0.777082 0.629399 2.47324e-15
  outer loop
    vertex 0.04 0.04598806263494357 0
    vertex 0.04232800662098971 0.04311380872025959 0.005
    vertex 0.04465601324197943 0.04023955480557562 0
  endloop
endfacet
facet normal 0.777082 0.629399 2.47324e-15
  outer loop
    vertex 0.04 0.04598806263494357 0.009999999999999972
    vertex 0.04232800662098971 0.04311380872025959 0.015
    vertex 0.04465601324197943 0.04023955480557562 0.01000000000000003
  endloop
endfacet
facet normal 0.777082 0.629399 -2.47324e-15
  outer loop
    vertex 0.04465601324197943 0.04023955480557562 0.02
    vertex 0.04232800662098971 0.04311380872025959 0.015
    vertex 0.04 0.04598806263494357 0.02
  endloop
endfacet
facet normal 0.777082 0.629399 -2.47324e-15
  outer loop
    vertex 0.04465601324197943 0.04023955480557562 0.01000000000000003
    vertex 0.04232800662098971 0.04311380872025959 0.005
    vertex 0.04 0.04598806263494357 0.009999999999999972
  endloop
endfacet
facet normal 0.681426 -0.731887 0
  outer loop
    vertex 0.04465601324197943 0.04023955480557562 0.02
    vertex 0.04156891884692003 0.03736530089089166 0.015
    vertex 0.04465601324197943 0.04023955480557562 0.009999999999999972
  endloop
endfacet
facet normal 0.681426 -0.731887 0
  outer loop
    vertex 0.03848182445186064 0.03449104697620768 0
    vertex 0.04156891884692003 0.03736530089089166 0.005
    vertex 0.03848182445186064 0.03449104697620768 0.01000000000000003
  endloop
endfacet
facet normal 0.681426 -0.731887 0
  outer loop
    vertex 0.04465601324197943 0.04023955480557562 0.009999999999999972
    vertex 0.04156891884692003 0.03736530089089166 0.005
    vertex 0.04465601324197943 0.04023955480557562 0
  endloop
endfacet
facet normal 0.681426 -0.731887 0
  outer loop
    vertex 0.03848182445186064 0.03449104697620768 0.01000000000000003
    vertex 0.04156891884692003 0.03736530089089166 0.015
    vertex 0.03848182445186064 0.03449104697620768 0.02
  endloop
endfacet
facet normal 0.681426 -0.731887 9.63908e-16
  outer loop
    vertex 0.04465601324197943 0.04023955480557562 0
    vertex 0.04156891884692003 0.03736530089089166 0.005
    vertex 0.03848182445186064 0.03449104697620768 0
  endloop
endfacet
facet normal 0.681426 -0.731887 -9.63908e-16
  outer loop
    vertex 0.03848182445186064 0.03449104697620768 0.02
    vertex 0.04156891884692003 0.03736530089089166 0.015
    vertex 0.04465601324197943 0.04023955480557562 0.02
  endloop
endfacet
facet normal 0.681426 -0.731887 9.63908e-16
  outer loop
    vertex 0.04465601324197943 0.04023955480557562 0.009999999999999972
    vertex 0.04156891884692003 0.03736530089089166 0.015
    vertex 0.03848182445186064 0.03449104697620768 0.01000000000000003
  endloop
endfacet
facet normal 0.681426 -0.731887 -9.63908e-16
  outer loop
    vertex 0.03848182445186064 0.03449104697620768 0.01000000000000003
    vertex 0.04156891884692003 0.03736530089089166 0.005
    vertex 0.04465601324197943 0.04023955480557562 0.009999999999999972
  endloop
endfacet
facet normal 0.541271 -0.840848 0
  outer loop
    vertex 0.02955168144762781 0.02874253914683973 0.02
    vertex 0.03401675294974423 0.03161679306152371 0.01450648773478912
    vertex 0.03848182445186064 0.03449104697620768 0.02
  endloop
endfacet
facet normal 0.541271 -0.840848 -7.51234e-16
  outer loop
    vertex 0.03848182445186064 0.03449104697620768 0
    vertex 0.03401675294974421 0.03161679306152369 0.005520616409829249
    vertex 0.02955168144762781 0.02874253914683973 0
  endloop
endfacet
facet normal 0.541271 -0.840848 0
  outer loop
    vertex 0.03848182445186064 0.03449104697620768 0.02
    vertex 0.03401675294974423 0.03161679306152371 0.01450648773478912
    vertex 0.03848182445186064 0.03449104697620768 0.009999999999999972
  endloop
endfacet
facet normal 0.541271 -0.840848 0
  outer loop
    vertex 0.02955168144762781 0.02874253914683973 0
    vertex 0.03401675294974421 0.03161679306152369 0.005520616409829249
    vertex 0.02955168144762781 0.02874253914683973 0.01000000000000003
  endloop
endfacet
facet normal 0.541271 -0.840848 4.61533e-16
  outer loop
    vertex 0.03848182445186064 0.03449104697620768 0.009999999999999972
    vertex 0.03401675294974423 0.03161679306152371 0.01450648773478912
    vertex 0.03401675294974421 0.03161679306152369 0.005520616409829249
  endloop
endfacet
facet normal 0.541271 -0.840848 4.62668e-16
  outer loop
    vertex 0.03401675294974421 0.03161679306152369 0.005520616409829249
    vertex 0.03401675294974423 0.03161679306152371 0.01450648773478912
    vertex 0.02955168144762781 0.02874253914683973 0.01000000000000003
  endloop
endfacet
facet normal 0.541271 -0.840848 0
  outer loop
    vertex 0.03848182445186064 0.03449104697620768 0.009999999999999972
    vertex 0.03401675294974421 0.03161679306152369 0.005520616409829249
    vertex 0.03848182445186064 0.03449104697620768 0
  endloop
endfacet
facet normal 0.541271 -0.840848 0
  outer loop
    vertex 0.02955168144762781 0.02874253914683973 0.01000000000000003
    vertex 0.03401675294974423 0.03161679306152371 0.01450648773478912
    vertex 0.02955168144762781 0.02874253914683973 0.02
  endloop
endfacet
facet normal 0.747866 0.663849 0
  outer loop
    vertex 0.02955168144762781 0.02874253914683973 0.02
    vertex 0.03210303513982633 0.02586828523215576 0.015
    vertex 0.02955168144762781 0.02874253914683973 0.009999999999999972
  endloop
endfacet
facet normal 0.747866 0.663849 -0
  outer loop
    vertex 0.03465438883202484 0.02299403131747179 0
    vertex 0.03210303513982633 0.02586828523215576 0.005
    vertex 0.03465438883202484 0.02299403131747179 0.01000000000000003
  endloop
endfacet
facet normal 0.747866 0.663849 0
  outer loop
    vertex 0.02955168144762781 0.02874253914683973 0.009999999999999972
    vertex 0.03210303513982633 0.02586828523215576 0.005
    vertex 0.02955168144762781 0.02874253914683973 0
  endloop
endfacet
facet normal 0.747866 0.663849 -0
  outer loop
    vertex 0.03465438883202484 0.02299403131747179 0.01000000000000003
    vertex 0.03210303513982633 0.02586828523215576 0.015
    vertex 0.03465438883202484 0.02299403131747179 0.02
  endloop
endfacet
facet normal 0.747866 0.663849 -2.64472e-16
  outer loop
    vertex 0.03465438883202484 0.02299403131747179 0.02
    vertex 0.03210303513982633 0.02586828523215576 0.015
    vertex 0.02955168144762781 0.02874253914683973 0.02
  endloop
endfacet
facet normal 0.747866 0.663849 2.20394e-16
  outer loop
    vertex 0.02955168144762781 0.02874253914683973 0.009999999999999972
    vertex 0.03210303513982633 0.02586828523215576 0.015
    vertex 0.03465438883202484 0.02299403131747179 0.01000000000000003
  endloop
endfacet
facet normal 0.747866 0.663849 -2.64472e-16
  outer loop
    vertex 0.03465438883202484 0.02299403131747179 0.01000000000000003
    vertex 0.03210303513982633 0.02586828523215576 0.005
    vertex 0.02955168144762781 0.02874253914683973 0.009999999999999972
  endloop
endfacet
facet normal 0.747866 0.663849 2.20394e-16
  outer loop
    vertex 0.02955168144762781 0.02874253914683973 0
    vertex 0.03210303513982633 0.02586828523215576 0.005
    vertex 0.03465438883202484 0.02299403131747179 0
  endloop
endfacet
facet normal 0.602329 0.798248 0
  outer loop
    vertex 0.03465438883202484 0.02299403131747179 0.02
    vertex 0.03846355069488316 0.02011977740278781 0.015
    vertex 0.03465438883202484 0.02299403131747179 0.009999999999999972
  endloop
endfacet
facet normal 0.602329 0.798248 -0
  outer loop
    vertex 0.0422727125577415 0.01724552348810384 0
    vertex 0.03846355069488316 0.02011977740278781 0.005
    vertex 0.0422727125577415 0.01724552348810384 0.01000000000000003
  endloop
endfacet
facet normal 0.602329 0.798248 0
  outer loop
    vertex 0.03465438883202484 0.02299403131747179 0.009999999999999972
    vertex 0.03846355069488316 0.02011977740278781 0.005
    vertex 0.03465438883202484 0.02299403131747179 0
  endloop
endfacet
facet normal 0.602329 0.798248 -0
  outer loop
    vertex 0.0422727125577415 0.01724552348810384 0.01000000000000003
    vertex 0.03846355069488316 0.02011977740278781 0.015
    vertex 0.0422727125577415 0.01724552348810384 0.02
  endloop
endfacet
facet normal 0.602329 0.798248 -1.27803e-15
  outer loop
    vertex 0.0422727125577415 0.01724552348810384 0.01000000000000003
    vertex 0.03846355069488316 0.02011977740278781 0.005
    vertex 0.03465438883202484 0.02299403131747179 0.009999999999999972
  endloop
endfacet
facet normal 0.602329 0.798248 -1.27803e-15
  outer loop
    vertex 0.0422727125577415 0.01724552348810384 0.02
    vertex 0.03846355069488316 0.02011977740278781 0.015
    vertex 0.03465438883202484 0.02299403131747179 0.02
  endloop
endfacet
facet normal 0.602329 0.798248 1.27803e-15
  outer loop
    vertex 0.03465438883202484 0.02299403131747179 0.009999999999999972
    vertex 0.03846355069488316 0.02011977740278781 0.015
    vertex 0.0422727125577415 0.01724552348810384 0.01000000000000003
  endloop
endfacet
facet normal 0.602329 0.798248 1.27803e-15
  outer loop
    vertex 0.03465438883202484 0.02299403131747179 0
    vertex 0.03846355069488316 0.02011977740278781 0.005
    vertex 0.0422727125577415 0.01724552348810384 0
  endloop
endfacet
facet normal 0.785659 -0.618659 1.29657e-15
  outer loop
    vertex 0.0377461099143316 0.01149701565873589 0.02
    vertex 0.04000941123603655 0.01437126957341986 0.015
    vertex 0.0422727125577415 0.01724552348810384 0.02
  endloop
endfacet
facet normal 0.785659 -0.618659 1.29657e-15
  outer loop
    vertex 0.0377461099143316 0.01149701565873589 0.01000000000000003
    vertex 0.04000941123603655 0.01437126957341986 0.005
    vertex 0.0422727125577415 0.01724552348810384 0.009999999999999972
  endloop
endfacet
facet normal 0.785659 -0.618659 -1.29657e-15
  outer loop
    vertex 0.0422727125577415 0.01724552348810384 0
    vertex 0.04000941123603655 0.01437126957341986 0.005
    vertex 0.0377461099143316 0.01149701565873589 0
  endloop
endfacet
facet normal 0.785659 -0.618659 -1.29657e-15
  outer loop
    vertex 0.0422727125577415 0.01724552348810384 0.009999999999999972
    vertex 0.04000941123603655 0.01437126957341986 0.015
    vertex 0.0377461099143316 0.01149701565873589 0.01000000000000003
  endloop
endfacet
facet normal 0.785659 -0.618659 0
  outer loop
    vertex 0.0422727125577415 0.01724552348810384 0.009999999999999972
    vertex 0.04000941123603655 0.01437126957341986 0.005
    vertex 0.0422727125577415 0.01724552348810384 0
  endloop
endfacet
facet normal 0.785659 -0.618659 0
  outer loop
    vertex 0.0422727125577415 0.01724552348810384 0.02
    vertex 0.04000941123603655 0.01437126957341986 0.015
    vertex 0.0422727125577415 0.01724552348810384 0.009999999999999972
  endloop
endfacet
facet normal 0.785659 -0.618659 0
  outer loop
    vertex 0.0377461099143316 0.01149701565873589 0
    vertex 0.04000941123603655 0.01437126957341986 0.005
    vertex 0.0377461099143316 0.01149701565873589 0.01000000000000003
  endloop
endfacet
facet normal 0.785659 -0.618659 0
  outer loop
    vertex 0.0377461099143316 0.01149701565873589 0.01000000000000003
    vertex 0.04000941123603655 0.01437126957341986 0.015
    vertex 0.0377461099143316 0.01149701565873589 0.02
  endloop
endfacet
facet normal 0.979839 0.19979 0
  outer loop
    vertex 0.03891823423178992 0.005748507829367949 0.01000000000000003
    vertex 0.03833217207306076 0.00862276174405192 0.005
    vertex 0.0377461099143316 0.01149701565873589 0.009999999999999972
  endloop
endfacet
facet normal 0.979839 0.19979 0
  outer loop
    vertex 0.0377461099143316 0.01149701565873589 0.009999999999999972
    vertex 0.03833217207306076 0.00862276174405192 0.015
    vertex 0.03891823423178992 0.005748507829367949 0.01000000000000003
  endloop
endfacet
facet normal 0.979839 0.19979 0
  outer loop
    vertex 0.0377461099143316 0.01149701565873589 0
    vertex 0.03833217207306076 0.00862276174405192 0.005
    vertex 0.03891823423178992 0.005748507829367949 0
  endloop
endfacet
facet normal 0.979839 0.19979 0
  outer loop
    vertex 0.03891823423178992 0.005748507829367949 0.02
    vertex 0.03833217207306076 0.00862276174405192 0.015
    vertex 0.0377461099143316 0.01149701565873589 0.02
  endloop
endfacet
facet normal 0.979839 0.19979 0
  outer loop
    vertex 0.0377461099143316 0.01149701565873589 0.009999999999999972
    vertex 0.03833217207306076 0.00862276174405192 0.005
    vertex 0.0377461099143316 0.01149701565873589 0
  endloop
endfacet
facet normal 0.979839 0.19979 0
  outer loop
    vertex 0.0377461099143316 0.01149701565873589 0.02
    vertex 0.03833217207306076 0.00862276174405192 0.015
    vertex 0.0377461099143316 0.01149701565873589 0.009999999999999972
  endloop
endfacet
facet normal 0.979839 0.19979 -0
  outer loop
    vertex 0.03891823423178992 0.005748507829367949 0
    vertex 0.03833217207306076 0.00862276174405192 0.005
    vertex 0.03891823423178992 0.005748507829367949 0.01000000000000003
  endloop
endfacet
facet normal 0.979839 0.19979 -0
  outer loop
    vertex 0.03891823423178992 0.005748507829367949 0.01000000000000003
    vertex 0.03833217207306076 0.00862276174405192 0.015
    vertex 0.03891823423178992 0.005748507829367949 0.02
  endloop
endfacet
endsolid Created by Gmsh
