solid Created by Gmsh
facet normal 1 0 0
  outer loop
    vertex 0.04 0.05822824728049784 0
    vertex 0.04 0.06 0
    vertex 0.04 0.06 0.009999999999999972
  endloop
endfacet
facet normal 1 0 0
  outer loop
    vertex 0.04 0.05822824728049784 0.01000000000000003
    vertex 0.04 0.06 0.02
    vertex 0.04 0.05822824728049784 0.02
  endloop
endfacet
facet normal 1 0 -0
  outer loop
    vertex 0.04 0.06 0.009999999999999972
    vertex 0.04 0.06 0.02
    vertex 0.04 0.05822824728049784 0.01000000000000003
  endloop
endfacet
facet normal 1 0 0
  outer loop
    vertex 0.04 0.05822824728049784 0
    vertex 0.04 0.06 0.009999999999999972
    vertex 0.04 0.05822824728049784 0.01000000000000003
  endloop
endfacet
facet normal 0.6278 0.778375 5.10117e-16
  outer loop
    vertex 0.04 0.05822824728049784 0
    vertex 0.04451212538456163 0.05458898182546672 0.005728862973760926
    vertex 0.04902425076912325 0.05094971637043561 0
  endloop
endfacet
facet normal 0.6278 0.778375 -4.11913e-16
  outer loop
    vertex 0.04902425076912325 0.05094971637043561 0.02
    vertex 0.04451212538456163 0.05458898182546672 0.01432426114969104
    vertex 0.04 0.05822824728049784 0.02
  endloop
endfacet
facet normal 0.6278 0.778375 0
  outer loop
    vertex 0.04 0.05822824728049784 0.009999999999999972
    vertex 0.04451212538456163 0.05458898182546672 0.01432426114969104
    vertex 0.04451212538456163 0.05458898182546672 0.005728862973760926
  endloop
endfacet
facet normal 0.6278 0.778375 -0
  outer loop
    vertex 0.04451212538456163 0.05458898182546672 0.005728862973760926
    vertex 0.04451212538456163 0.05458898182546672 0.01432426114969104
    vertex 0.04902425076912325 0.05094971637043561 0.01000000000000003
  endloop
endfacet
facet normal 0.6278 0.778375 0
  outer loop
    vertex 0.04 0.05822824728049784 0.02
    vertex 0.04451212538456163 0.05458898182546672 0.01432426114969104
    vertex 0.04 0.05822824728049784 0.009999999999999972
  endloop
endfacet
facet normal 0.6278 0.778375 -0
  outer loop
    vertex 0.04902425076912325 0.05094971637043561 0
    vertex 0.04451212538456163 0.05458898182546672 0.005728862973760926
    vertex 0.04902425076912325 0.05094971637043561 0.01000000000000003
  endloop
endfacet
facet normal 0.6278 0.778375 0
  outer loop
    vertex 0.04 0.05822824728049784 0.009999999999999972
    vertex 0.04451212538456163 0.05458898182546672 0.005728862973760926
    vertex 0.04 0.05822824728049784 0
  endloop
endfacet
facet normal 0.6278 0.778375 -0
  outer loop
    vertex 0.04902425076912325 0.05094971637043561 0.01000000000000003
    vertex 0.04451212538456163 0.05458898182546672 0.01432426114969104
    vertex 0.04902425076912325 0.05094971637043561 0.02
  endloop
endfacet
facet normal 0.359075 -0.933309 1.28112e-15
  outer loop
    vertex 0.04902425076912325 0.05094971637043561 0
    vertex 0.0423607908169742 0.04838606216591649 0.007306333338884609
    vertex 0.03956505788262085 0.04731045091540449 0
  endloop
endfacet
facet normal 0.359075 -0.933309 0
  outer loop
    vertex 0.03010586499611845 0.04367118546037338 0.01000000000000003
    vertex 0.03723157582918615 0.04641268292093664 0.01239797813314099
    vertex 0.03010586499611845 0.04367118546037338 0.02
  endloop
endfacet
facet normal 0.359075 -0.933309 -1.23129e-15
  outer loop
    vertex 0.03010586499611845 0.04367118546037338 0.02
    vertex 0.03723157582918615 0.04641268292093664 0.01239797813314099
    vertex 0.03956505788262086 0.0473104509154045 0.02
  endloop
endfacet
facet normal 0.359075 -0.933309 0
  outer loop
    vertex 0.04902425076912325 0.05094971637043561 0.009999999999999972
    vertex 0.0423607908169742 0.04838606216591649 0.007306333338884609
    vertex 0.04902425076912325 0.05094971637043561 0
  endloop
endfacet
facet normal 0.359075 -0.933309 1.69088e-15
  outer loop
    vertex 0.03956505788262085 0.04731045091540449 0
    vertex 0.03532881448267126 0.04568062747808579 0.005535748799059046
    vertex 0.03010586499611845 0.04367118546037338 0
  endloop
endfacet
facet normal 0.359075 -0.933309 -1.21653e-15
  outer loop
    vertex 0.03956505788262086 0.0473104509154045 0.02
    vertex 0.04348346290230669 0.04881799137874693 0.01409189389492069
    vertex 0.04902425076912325 0.05094971637043561 0.02
  endloop
endfacet
facet normal 0.359075 -0.933309 0
  outer loop
    vertex 0.03010586499611845 0.04367118546037338 0
    vertex 0.03532881448267126 0.04568062747808579 0.005535748799059046
    vertex 0.03010586499611845 0.04367118546037338 0.01000000000000003
  endloop
endfacet
facet normal 0.359075 -0.933309 0
  outer loop
    vertex 0.04902425076912325 0.05094971637043561 0.02
    vertex 0.04348346290230669 0.04881799137874693 0.01409189389492069
    vertex 0.04902425076912325 0.05094971637043561 0.009999999999999972
  endloop
endfacet
facet normal 0.359075 -0.933309 1.44732e-15
  outer loop
    vertex 0.0423607908169742 0.04838606216591649 0.007306333338884609
    vertex 0.03532881448267126 0.04568062747808579 0.005535748799059046
    vertex 0.03956505788262085 0.04731045091540449 0
  endloop
endfacet
facet normal 0.359075 -0.933309 -1.17926e-15
  outer loop
    vertex 0.03956505788262086 0.0473104509154045 0.02
    vertex 0.03723157582918615 0.04641268292093664 0.01239797813314099
    vertex 0.04348346290230669 0.04881799137874693 0.01409189389492069
  endloop
endfacet
facet normal 0.359075 -0.933309 1.23286e-16
  outer loop
    vertex 0.03723157582918615 0.04641268292093664 0.01239797813314099
    vertex 0.03532881448267126 0.04568062747808579 0.005535748799059046
    vertex 0.0423607908169742 0.04838606216591649 0.007306333338884609
  endloop
endfacet
facet normal 0.359075 -0.933309 -1.17057e-16
  outer loop
    vertex 0.03723157582918615 0.04641268292093664 0.01239797813314099
    vertex 0.0423607908169742 0.04838606216591649 0.007306333338884609
    vertex 0.04348346290230669 0.04881799137874693 0.01409189389492069
  endloop
endfacet
facet normal 0.359075 -0.933309 -3.20957e-16
  outer loop
    vertex 0.03010586499611845 0.04367118546037338 0.01000000000000003
    vertex 0.03532881448267126 0.04568062747808579 0.005535748799059046
    vertex 0.03723157582918615 0.04641268292093664 0.01239797813314099
  endloop
endfacet
facet normal 0.359075 -0.933309 6.55801e-17
  outer loop
    vertex 0.04348346290230669 0.04881799137874693 0.01409189389492069
    vertex 0.0423607908169742 0.04838606216591649 0.007306333338884609
    vertex 0.04902425076912325 0.05094971637043561 0.009999999999999972
  endloop
endfacet
facet normal 0.615757 0.787936 -2.90689e-16
  outer loop
    vertex 0.03941962240344565 0.03639265455031115 0.02
    vertex 0.03476274369978205 0.04003192000534227 0.01408371511870055
    vertex 0.03010586499611845 0.04367118546037338 0.02
  endloop
endfacet
facet normal 0.615757 0.787936 3.80882e-16
  outer loop
    vertex 0.03010586499611845 0.04367118546037338 0
    vertex 0.03476274369978205 0.04003192000534227 0.0060204081632653
    vertex 0.03941962240344565 0.03639265455031115 0
  endloop
endfacet
facet normal 0.615757 0.787936 0
  outer loop
    vertex 0.03010586499611845 0.04367118546037338 0.009999999999999972
    vertex 0.03476274369978205 0.04003192000534227 0.01408371511870055
    vertex 0.03476274369978205 0.04003192000534227 0.0060204081632653
  endloop
endfacet
facet normal 0.615757 0.787936 -0
  outer loop
    vertex 0.03476274369978205 0.04003192000534227 0.0060204081632653
    vertex 0.03476274369978205 0.04003192000534227 0.01408371511870055
    vertex 0.03941962240344565 0.03639265455031115 0.01000000000000003
  endloop
endfacet
facet normal 0.615757 0.787936 -0
  outer loop
    vertex 0.03941962240344565 0.03639265455031115 0
    vertex 0.03476274369978205 0.04003192000534227 0.0060204081632653
    vertex 0.03941962240344565 0.03639265455031115 0.01000000000000003
  endloop
endfacet
facet normal 0.615757 0.787936 0
  outer loop
    vertex 0.03010586499611845 0.04367118546037338 0.02
    vertex 0.03476274369978205 0.04003192000534227 0.01408371511870055
    vertex 0.03010586499611845 0.04367118546037338 0.009999999999999972
  endloop
endfacet
facet normal 0.615757 0.787936 -0
  outer loop
    vertex 0.03941962240344565 0.03639265455031115 0.01000000000000003
    vertex 0.03476274369978205 0.04003192000534227 0.01408371511870055
    vertex 0.03941962240344565 0.03639265455031115 0.02
  endloop
endfacet
facet normal 0.615757 0.787936 0
  outer loop
    vertex 0.03010586499611845 0.04367118546037338 0.009999999999999972
    vertex 0.03476274369978205 0.04003192000534227 0.0060204081632653
    vertex 0.03010586499611845 0.04367118546037338 0
  endloop
endfacet
facet normal 0.809676 0.586877 0
  outer loop
    vertex 0.03941962240344565 0.03639265455031115 0.02
    vertex 0.04205747000986367 0.03275338909528004 0.015
    vertex 0.03941962240344565 0.03639265455031115 0.009999999999999972
  endloop
endfacet
facet normal 0.809676 0.586877 -0
  outer loop
    vertex 0.04469531761628166 0.02911412364024892 0
    vertex 0.04205747000986367 0.03275338909528004 0.005
    vertex 0.04469531761628166 0.02911412364024892 0.01000000000000003
  endloop
endfacet
facet normal 0.809676 0.586877 0
  outer loop
    vertex 0.03941962240344565 0.03639265455031115 0.009999999999999972
    vertex 0.04205747000986367 0.03275338909528004 0.005
    vertex 0.03941962240344565 0.03639265455031115 0
  endloop
endfacet
facet normal 0.809676 0.586877 -0
  outer loop
    vertex 0.04469531761628166 0.02911412364024892 0.01000000000000003
    vertex 0.04205747000986367 0.03275338909528004 0.015
    vertex 0.04469531761628166 0.02911412364024892 0.02
  endloop
endfacet
facet normal 0.809676 0.586877 1.50761e-15
  outer loop
    vertex 0.04469531761628166 0.02911412364024892 0.01000000000000003
    vertex 0.04205747000986367 0.03275338909528004 0.005
    vertex 0.03941962240344565 0.03639265455031115 0.009999999999999972
  endloop
endfacet
facet normal 0.809676 0.586877 1.50761e-15
  outer loop
    vertex 0.04469531761628166 0.02911412364024892 0.02
    vertex 0.04205747000986367 0.03275338909528004 0.015
    vertex 0.03941962240344565 0.03639265455031115 0.02
  endloop
endfacet
facet normal 0.809676 0.586877 -1.50761e-15
  outer loop
    vertex 0.03941962240344565 0.03639265455031115 0.009999999999999972
    vertex 0.04205747000986367 0.03275338909528004 0.015
    vertex 0.04469531761628166 0.02911412364024892 0.01000000000000003
  endloop
endfacet
facet normal 0.809676 0.586877 -1.50761e-15
  outer loop
    vertex 0.03941962240344565 0.03639265455031115 0
    vertex 0.04205747000986367 0.03275338909528004 0.005
    vertex 0.04469531761628166 0.02911412364024892 0
  endloop
endfacet
facet normal 0.988061 0.154062 -6.89909e-16
  outer loop
    vertex 0.04583021184454174 0.02183559273018669 0.01000000000000003
    vertex 0.0452627647304117 0.02547485818521781 0.005000000000000001
    vertex 0.04469531761628166 0.02911412364024892 0.009999999999999972
  endloop
endfacet
facet normal 0.988061 0.154062 6.89909e-16
  outer loop
    vertex 0.04469531761628166 0.02911412364024892 0.009999999999999972
    vertex 0.0452627647304117 0.02547485818521781 0.015
    vertex 0.04583021184454174 0.02183559273018669 0.01000000000000003
  endloop
endfacet
facet normal 0.988061 0.154062 -6.89909e-16
  outer loop
    vertex 0.04583021184454174 0.02183559273018669 0.02
    vertex 0.0452627647304117 0.02547485818521781 0.015
    vertex 0.04469531761628166 0.02911412364024892 0.02
  endloop
endfacet
facet normal 0.988061 0.154062 6.89909e-16
  outer loop
    vertex 0.04469531761628166 0.02911412364024892 0
    vertex 0.0452627647304117 0.02547485818521781 0.005000000000000001
    vertex 0.04583021184454174 0.02183559273018669 0
  endloop
endfacet
facet normal 0.988061 0.154062 0
  outer loop
    vertex 0.04469531761628166 0.02911412364024892 0.009999999999999972
    vertex 0.0452627647304117 0.02547485818521781 0.005000000000000001
    vertex 0.04469531761628166 0.02911412364024892 0
  endloop
endfacet
facet normal 0.988061 0.154062 0
  outer loop
    vertex 0.04469531761628166 0.02911412364024892 0.02
    vertex 0.0452627647304117 0.02547485818521781 0.015
    vertex 0.04469531761628166 0.02911412364024892 0.009999999999999972
  endloop
endfacet
facet normal 0.988061 0.154062 -0
  outer loop
    vertex 0.04583021184454174 0.02183559273018669 0
    vertex 0.0452627647304117 0.02547485818521781 0.005000000000000001
    vertex 0.04583021184454174 0.02183559273018669 0.01000000000000003
  endloop
endfacet
facet normal 0.988061 0.154062 -0
  outer loop
    vertex 0.04583021184454174 0.02183559273018669 0.01000000000000003
    vertex 0.0452627647304117 0.02547485818521781 0.015
    vertex 0.04583021184454174 0.02183559273018669 0.02
  endloop
endfacet
facet normal 0.419481 -0.907764 5.63795e-16
  outer loop
    vertex 0.04583021184454174 0.02183559273018669 0
    vertex 0.03922192110792608 0.01878187827175573 0.007619566713291172
    vertex 0.0379547786558983 0.01819632727515557 0
  endloop
endfacet
facet normal 0.419481 -0.907764 0
  outer loop
    vertex 0.04583021184454174 0.02183559273018669 0.009999999999999972
    vertex 0.03922192110792608 0.01878187827175573 0.007619566713291172
    vertex 0.04583021184454174 0.02183559273018669 0
  endloop
endfacet
facet normal 0.419481 -0.907764 0
  outer loop
    vertex 0.03007934546725488 0.01455706182012446 0.01000000000000003
    vertex 0.03547320506502254 0.01704958336570121 0.01360834220326042
    vertex 0.03007934546725488 0.01455706182012446 0.02
  endloop
endfacet
facet normal 0.419481 -0.907764 0
  outer loop
    vertex 0.03007934546725488 0.01455706182012446 0
    vertex 0.03415884077125348 0.01644221098946954 0.005023151255370328
    vertex 0.03007934546725488 0.01455706182012446 0.01000000000000003
  endloop
endfacet
facet normal 0.419481 -0.907764 0
  outer loop
    vertex 0.04583021184454174 0.02183559273018669 0.02
    vertex 0.04080831363365275 0.01951495585348442 0.01428350168824966
    vertex 0.04583021184454174 0.02183559273018669 0.009999999999999972
  endloop
endfacet
facet normal 0.419481 -0.907764 -2.44402e-16
  outer loop
    vertex 0.03007934546725488 0.01455706182012446 0.02
    vertex 0.03547320506502254 0.01704958336570121 0.01360834220326042
    vertex 0.03795477865589832 0.01819632727515558 0.02
  endloop
endfacet
facet normal 0.419481 -0.907764 -4.79908e-17
  outer loop
    vertex 0.03547320506502254 0.01704958336570121 0.01360834220326042
    vertex 0.03415884077125348 0.01644221098946954 0.005023151255370328
    vertex 0.03922192110792608 0.01878187827175573 0.007619566713291172
  endloop
endfacet
facet normal 0.419481 -0.907764 7.77468e-16
  outer loop
    vertex 0.0379547786558983 0.01819632727515557 0
    vertex 0.03415884077125348 0.01644221098946954 0.005023151255370328
    vertex 0.03007934546725488 0.01455706182012446 0
  endloop
endfacet
facet normal 0.419481 -0.907764 6.8317e-17
  outer loop
    vertex 0.03795477865589832 0.01819632727515558 0.02
    vertex 0.04080831363365275 0.01951495585348442 0.01428350168824966
    vertex 0.04583021184454174 0.02183559273018669 0.02
  endloop
endfacet
facet normal 0.419481 -0.907764 -1.10994e-16
  outer loop
    vertex 0.03007934546725488 0.01455706182012446 0.01000000000000003
    vertex 0.03415884077125348 0.01644221098946954 0.005023151255370328
    vertex 0.03547320506502254 0.01704958336570121 0.01360834220326042
  endloop
endfacet
facet normal 0.419481 -0.907764 -2.45288e-16
  outer loop
    vertex 0.04080831363365275 0.01951495585348442 0.01428350168824966
    vertex 0.03547320506502254 0.01704958336570121 0.01360834220326042
    vertex 0.03922192110792608 0.01878187827175573 0.007619566713291172
  endloop
endfacet
facet normal 0.419481 -0.907764 -2.19628e-16
  outer loop
    vertex 0.04080831363365275 0.01951495585348442 0.01428350168824966
    vertex 0.03922192110792608 0.01878187827175573 0.007619566713291172
    vertex 0.04583021184454174 0.02183559273018669 0.009999999999999972
  endloop
endfacet
facet normal 0.419481 -0.907764 6.86359e-16
  outer loop
    vertex 0.03922192110792608 0.01878187827175573 0.007619566713291172
    vertex 0.03415884077125348 0.01644221098946954 0.005023151255370328
    vertex 0.0379547786558983 0.01819632727515557 0
  endloop
endfacet
facet normal 0.419481 -0.907764 3.55704e-17
  outer loop
    vertex 0.03795477865589832 0.01819632727515558 0.02
    vertex 0.03547320506502254 0.01704958336570121 0.01360834220326042
    vertex 0.04080831363365275 0.01951495585348442 0.01428350168824966
  endloop
endfacet
facet normal 0.69669 0.717372 -1.42695e-15
  outer loop
    vertex 0.03757395077339686 0.007278530910062232 0.02
    vertex 0.03382664812032586 0.01091779636509334 0.01500000000000002
    vertex 0.03007934546725488 0.01455706182012446 0.02
  endloop
endfacet
facet normal 0.69669 0.717372 1.42695e-15
  outer loop
    vertex 0.03007934546725488 0.01455706182012446 0
    vertex 0.03382664812032586 0.01091779636509334 0.004999999999999987
    vertex 0.03757395077339686 0.007278530910062232 0
  endloop
endfacet
facet normal 0.69669 0.717372 0
  outer loop
    vertex 0.03007934546725488 0.01455706182012446 0.009999999999999972
    vertex 0.03382664812032586 0.01091779636509334 0.01500000000000002
    vertex 0.03382664812032586 0.01091779636509334 0.004999999999999987
  endloop
endfacet
facet normal 0.69669 0.717372 -0
  outer loop
    vertex 0.03382664812032586 0.01091779636509334 0.004999999999999987
    vertex 0.03382664812032586 0.01091779636509334 0.01500000000000002
    vertex 0.03757395077339686 0.007278530910062232 0.01000000000000003
  endloop
endfacet
facet normal 0.69669 0.717372 0
  outer loop
    vertex 0.03007934546725488 0.01455706182012446 0.02
    vertex 0.03382664812032586 0.01091779636509334 0.01500000000000002
    vertex 0.03007934546725488 0.01455706182012446 0.009999999999999972
  endloop
endfacet
facet normal 0.69669 0.717372 -0
  outer loop
    vertex 0.03757395077339686 0.007278530910062232 0
    vertex 0.03382664812032586 0.01091779636509334 0.004999999999999987
    vertex 0.03757395077339686 0.007278530910062232 0.01000000000000003
  endloop
endfacet
facet normal 0.69669 0.717372 0
  outer loop
    vertex 0.03007934546725488 0.01455706182012446 0.009999999999999972
    vertex 0.03382664812032586 0.01091779636509334 0.004999999999999987
    vertex 0.03007934546725488 0.01455706182012446 0
  endloop
endfacet
facet normal 0.69669 0.717372 -0
  outer loop
    vertex 0.03757395077339686 0.007278530910062232 0.01000000000000003
    vertex 0.03382664812032586 0.01091779636509334 0.01500000000000002
    vertex 0.03757395077339686 0.007278530910062232 0.02
  endloop
endfacet
endsolid Created by Gmsh
