solid Created by Gmsh
facet normal 1 -1.49528e-15 0
  outer loop
    vertex 0.04 0.06 0.02
    vertex 0.03999999999999999 0.05535946707135873 0.015
    vertex 0.04 0.06 0.009999999999999972
  endloop
endfacet
facet normal 1 1.49528e-15 -0
  outer loop
    vertex 0.04 0.05071893414271747 0
    vertex 0.03999999999999999 0.05535946707135873 0.005
    vertex 0.04 0.05071893414271747 0.01000000000000003
  endloop
endfacet
facet normal 1 -1.49528e-15 0
  outer loop
    vertex 0.04 0.06 0.009999999999999972
    vertex 0.03999999999999999 0.05535946707135873 0.005
    vertex 0.04 0.06 0
  endloop
endfacet
facet normal 1 1.49528e-15 -0
  outer loop
    vertex 0.04 0.05071893414271747 0.01000000000000003
    vertex 0.03999999999999999 0.05535946707135873 0.015
    vertex 0.04 0.05071893414271747 0.02
  endloop
endfacet
facet normal 1 0 1.38778e-15
  outer loop
    vertex 0.04 0.06 0
    vertex 0.03999999999999999 0.05535946707135873 0.005
    vertex 0.04 0.05071893414271747 0
  endloop
endfacet
facet normal 1 0 -1.38778e-15
  outer loop
    vertex 0.04 0.05071893414271747 0.02
    vertex 0.03999999999999999 0.05535946707135873 0.015
    vertex 0.04 0.06 0.02
  endloop
endfacet
facet normal 1 -8.30047e-30 -1.38778e-15
  outer loop
    vertex 0.04 0.05071893414271747 0.01000000000000003
    vertex 0.03999999999999999 0.05535946707135873 0.005
    vertex 0.04 0.06 0.009999999999999972
  endloop
endfacet
facet normal 1 8.30047e-30 1.38778e-15
  outer loop
    vertex 0.04 0.06 0.009999999999999972
    vertex 0.03999999999999999 0.05535946707135873 0.015
    vertex 0.04 0.05071893414271747 0.01000000000000003
  endloop
endfacet
facet normal 0.404442 -0.914564 -4.56943e-17
  outer loop
    vertex 0.03283183048514098 0.04754900075879764 0
    vertex 0.03293620138192496 0.0475951560274948 0.007982110851846944
    vertex 0.02566366097028195 0.04437906737487779 0
  endloop
endfacet
facet normal 0.404442 -0.914564 0
  outer loop
    vertex 0.04 0.05071893414271747 0
    vertex 0.03293620138192496 0.0475951560274948 0.007982110851846944
    vertex 0.03283183048514098 0.04754900075879764 0
  endloop
endfacet
facet normal 0.404442 -0.914564 0
  outer loop
    vertex 0.02566366097028195 0.04437906737487779 0
    vertex 0.03293620138192496 0.0475951560274948 0.007982110851846944
    vertex 0.02566366097028195 0.04437906737487779 0.01000000000000003
  endloop
endfacet
facet normal 0.404442 -0.914564 0
  outer loop
    vertex 0.04 0.05071893414271747 0.009999999999999972
    vertex 0.03293620138192496 0.0475951560274948 0.007982110851846944
    vertex 0.04 0.05071893414271747 0
  endloop
endfacet
facet normal 0.404442 -0.914564 0
  outer loop
    vertex 0.04 0.05071893414271747 0.02
    vertex 0.03525371422851805 0.04862001479023055 0.01438968372393477
    vertex 0.04 0.05071893414271747 0.009999999999999972
  endloop
endfacet
facet normal 0.404442 -0.914564 0
  outer loop
    vertex 0.02566366097028195 0.04437906737487779 0.01000000000000003
    vertex 0.03046981360722957 0.04650446126525571 0.01447435891515635
    vertex 0.02566366097028195 0.04437906737487779 0.02
  endloop
endfacet
facet normal 0.404442 -0.914564 -1.9558e-16
  outer loop
    vertex 0.02566366097028195 0.04437906737487779 0.02
    vertex 0.03046981360722957 0.04650446126525571 0.01447435891515635
    vertex 0.03283183048514097 0.04754900075879762 0.02
  endloop
endfacet
facet normal 0.404442 -0.914564 -1.54102e-16
  outer loop
    vertex 0.03283183048514097 0.04754900075879762 0.02
    vertex 0.03525371422851805 0.04862001479023055 0.01438968372393477
    vertex 0.04 0.05071893414271747 0.02
  endloop
endfacet
facet normal 0.404442 -0.914564 -6.29882e-16
  outer loop
    vertex 0.03525371422851805 0.04862001479023055 0.01438968372393477
    vertex 0.03293620138192496 0.0475951560274948 0.007982110851846944
    vertex 0.04 0.05071893414271747 0.009999999999999972
  endloop
endfacet
facet normal 0.404442 -0.914564 -7.03113e-16
  outer loop
    vertex 0.03525371422851805 0.04862001479023055 0.01438968372393477
    vertex 0.03046981360722957 0.04650446126525571 0.01447435891515635
    vertex 0.03293620138192496 0.0475951560274948 0.007982110851846944
  endloop
endfacet
facet normal 0.404442 -0.914564 -6.23573e-16
  outer loop
    vertex 0.03293620138192496 0.0475951560274948 0.007982110851846944
    vertex 0.03046981360722957 0.04650446126525571 0.01447435891515635
    vertex 0.02566366097028195 0.04437906737487779 0.01000000000000003
  endloop
endfacet
facet normal 0.404442 -0.914564 -3.92654e-16
  outer loop
    vertex 0.03283183048514097 0.04754900075879762 0.02
    vertex 0.03046981360722957 0.04650446126525571 0.01447435891515635
    vertex 0.03525371422851805 0.04862001479023055 0.01438968372393477
  endloop
endfacet
facet normal 0.931755 -0.363088 -3.98356e-16
  outer loop
    vertex 0.0231931267874788 0.0380392006070381 0.02
    vertex 0.02442839387888037 0.04120913399095794 0.015
    vertex 0.02566366097028195 0.04437906737487779 0.02
  endloop
endfacet
facet normal 0.931755 -0.363088 3.98356e-16
  outer loop
    vertex 0.02566366097028195 0.04437906737487779 0
    vertex 0.02442839387888037 0.04120913399095794 0.005000000000000001
    vertex 0.0231931267874788 0.0380392006070381 0
  endloop
endfacet
facet normal 0.931755 -0.363088 -3.98356e-16
  outer loop
    vertex 0.0231931267874788 0.0380392006070381 0.01000000000000003
    vertex 0.02442839387888037 0.04120913399095794 0.005000000000000001
    vertex 0.02566366097028195 0.04437906737487779 0.009999999999999972
  endloop
endfacet
facet normal 0.931755 -0.363088 3.98356e-16
  outer loop
    vertex 0.02566366097028195 0.04437906737487779 0.009999999999999972
    vertex 0.02442839387888037 0.04120913399095794 0.015
    vertex 0.0231931267874788 0.0380392006070381 0.01000000000000003
  endloop
endfacet
facet normal 0.931755 -0.363088 0
  outer loop
    vertex 0.02566366097028195 0.04437906737487779 0.009999999999999972
    vertex 0.02442839387888037 0.04120913399095794 0.005000000000000001
    vertex 0.02566366097028195 0.04437906737487779 0
  endloop
endfacet
facet normal 0.931755 -0.363088 0
  outer loop
    vertex 0.02566366097028195 0.04437906737487779 0.02
    vertex 0.02442839387888037 0.04120913399095794 0.015
    vertex 0.02566366097028195 0.04437906737487779 0.009999999999999972
  endloop
endfacet
facet normal 0.931755 -0.363088 0
  outer loop
    vertex 0.0231931267874788 0.0380392006070381 0
    vertex 0.02442839387888037 0.04120913399095794 0.005000000000000001
    vertex 0.0231931267874788 0.0380392006070381 0.01000000000000003
  endloop
endfacet
facet normal 0.931755 -0.363088 0
  outer loop
    vertex 0.0231931267874788 0.0380392006070381 0.01000000000000003
    vertex 0.02442839387888037 0.04120913399095794 0.015
    vertex 0.0231931267874788 0.0380392006070381 0.02
  endloop
endfacet
facet normal 0.403757 0.914866 -2.4506e-17
  outer loop
    vertex 0.03037583516477603 0.03486926722311826 0.02
    vertex 0.03049525928715376 0.03481656196314041 0.01202049721614732
    vertex 0.0231931267874788 0.0380392006070381 0.02
  endloop
endfacet
facet normal 0.403757 0.914866 0
  outer loop
    vertex 0.03755854354207326 0.03169933383919842 0.02
    vertex 0.03049525928715376 0.03481656196314041 0.01202049721614732
    vertex 0.03037583516477603 0.03486926722311826 0.02
  endloop
endfacet
facet normal 0.403757 0.914866 0
  outer loop
    vertex 0.0231931267874788 0.0380392006070381 0.02
    vertex 0.03049525928715376 0.03481656196314041 0.01202049721614732
    vertex 0.0231931267874788 0.0380392006070381 0.009999999999999972
  endloop
endfacet
facet normal 0.403757 0.914866 -0
  outer loop
    vertex 0.03755854354207326 0.03169933383919842 0.01000000000000003
    vertex 0.03049525928715376 0.03481656196314041 0.01202049721614732
    vertex 0.03755854354207326 0.03169933383919842 0.02
  endloop
endfacet
facet normal 0.403757 0.914866 -0
  outer loop
    vertex 0.03755854354207326 0.03169933383919842 0
    vertex 0.0328072555454389 0.03379621229311892 0.005611817019276814
    vertex 0.03755854354207326 0.03169933383919842 0.01000000000000003
  endloop
endfacet
facet normal 0.403757 0.914866 0
  outer loop
    vertex 0.0231931267874788 0.0380392006070381 0.009999999999999972
    vertex 0.02801292071446526 0.03591208853869075 0.005526462847084822
    vertex 0.0231931267874788 0.0380392006070381 0
  endloop
endfacet
facet normal 0.403757 0.914866 7.02789e-16
  outer loop
    vertex 0.0231931267874788 0.0380392006070381 0
    vertex 0.02801292071446526 0.03591208853869075 0.005526462847084822
    vertex 0.03037583516477603 0.03486926722311826 0
  endloop
endfacet
facet normal 0.403757 0.914866 3.4605e-16
  outer loop
    vertex 0.03037583516477603 0.03486926722311826 0
    vertex 0.0328072555454389 0.03379621229311892 0.005611817019276814
    vertex 0.03755854354207326 0.03169933383919842 0
  endloop
endfacet
facet normal 0.403757 0.914866 -2.86337e-16
  outer loop
    vertex 0.0328072555454389 0.03379621229311892 0.005611817019276814
    vertex 0.03049525928715376 0.03481656196314041 0.01202049721614732
    vertex 0.03755854354207326 0.03169933383919842 0.01000000000000003
  endloop
endfacet
facet normal 0.403757 0.914866 -2.506e-16
  outer loop
    vertex 0.0328072555454389 0.03379621229311892 0.005611817019276814
    vertex 0.02801292071446526 0.03591208853869075 0.005526462847084822
    vertex 0.03049525928715376 0.03481656196314041 0.01202049721614732
  endloop
endfacet
facet normal 0.403757 0.914866 -6.57879e-16
  outer loop
    vertex 0.03049525928715376 0.03481656196314041 0.01202049721614732
    vertex 0.02801292071446526 0.03591208853869075 0.005526462847084822
    vertex 0.0231931267874788 0.0380392006070381 0.009999999999999972
  endloop
endfacet
facet normal 0.403757 0.914866 3.19287e-16
  outer loop
    vertex 0.03037583516477603 0.03486926722311826 0
    vertex 0.02801292071446526 0.03591208853869075 0.005526462847084822
    vertex 0.0328072555454389 0.03379621229311892 0.005611817019276814
  endloop
endfacet
facet normal 0.317794 -0.94816 0
  outer loop
    vertex 0.01864313584978796 0.02535946707135874 0.01000000000000003
    vertex 0.02529635708442414 0.02758942356453855 0.01287332258351127
    vertex 0.01864313584978796 0.02535946707135874 0.02
  endloop
endfacet
facet normal 0.317794 -0.94816 -3.6201e-16
  outer loop
    vertex 0.03755854354207326 0.03169933383919842 0
    vertex 0.03044732296866819 0.02931586996014619 0.007506292003752105
    vertex 0.0281008396959306 0.02852940045527857 0
  endloop
endfacet
facet normal 0.317794 -0.94816 0
  outer loop
    vertex 0.03755854354207326 0.03169933383919842 0.009999999999999972
    vertex 0.03044732296866819 0.02931586996014619 0.007506292003752105
    vertex 0.03755854354207326 0.03169933383919842 0
  endloop
endfacet
facet normal 0.317794 -0.94816 6.67263e-16
  outer loop
    vertex 0.01864313584978796 0.02535946707135874 0.02
    vertex 0.02529635708442414 0.02758942356453855 0.01287332258351127
    vertex 0.02810083969593062 0.02852940045527858 0.02
  endloop
endfacet
facet normal 0.317794 -0.94816 0
  outer loop
    vertex 0.01864313584978796 0.02535946707135874 0
    vertex 0.02394739528819932 0.02713729278300329 0.005605338411581943
    vertex 0.01864313584978796 0.02535946707135874 0.01000000000000003
  endloop
endfacet
facet normal 0.317794 -0.94816 -6.05974e-16
  outer loop
    vertex 0.0281008396959306 0.02852940045527857 0
    vertex 0.02394739528819932 0.02713729278300329 0.005605338411581943
    vertex 0.01864313584978796 0.02535946707135874 0
  endloop
endfacet
facet normal 0.317794 -0.94816 0
  outer loop
    vertex 0.03755854354207326 0.03169933383919842 0.02
    vertex 0.03199631285417076 0.02983504404608581 0.01412830508573355
    vertex 0.03755854354207326 0.03169933383919842 0.009999999999999972
  endloop
endfacet
facet normal 0.317794 -0.94816 8.38804e-16
  outer loop
    vertex 0.02810083969593062 0.02852940045527858 0.02
    vertex 0.03199631285417076 0.02983504404608581 0.01412830508573355
    vertex 0.03755854354207326 0.03169933383919842 0.02
  endloop
endfacet
facet normal 0.317794 -0.94816 -7.22241e-17
  outer loop
    vertex 0.01864313584978796 0.02535946707135874 0.01000000000000003
    vertex 0.02394739528819932 0.02713729278300329 0.005605338411581943
    vertex 0.02529635708442414 0.02758942356453855 0.01287332258351127
  endloop
endfacet
facet normal 0.317794 -0.94816 -5.10917e-16
  outer loop
    vertex 0.03199631285417076 0.02983504404608581 0.01412830508573355
    vertex 0.03044732296866819 0.02931586996014619 0.007506292003752105
    vertex 0.03755854354207326 0.03169933383919842 0.009999999999999972
  endloop
endfacet
facet normal 0.317794 -0.94816 -2.3369e-16
  outer loop
    vertex 0.02529635708442414 0.02758942356453855 0.01287332258351127
    vertex 0.02394739528819932 0.02713729278300329 0.005605338411581943
    vertex 0.03044732296866819 0.02931586996014619 0.007506292003752105
  endloop
endfacet
facet normal 0.317794 -0.94816 -3.88089e-16
  outer loop
    vertex 0.03199631285417076 0.02983504404608581 0.01412830508573355
    vertex 0.02529635708442414 0.02758942356453855 0.01287332258351127
    vertex 0.03044732296866819 0.02931586996014619 0.007506292003752105
  endloop
endfacet
facet normal 0.317794 -0.94816 -3.98574e-16
  outer loop
    vertex 0.03044732296866819 0.02931586996014619 0.007506292003752105
    vertex 0.02394739528819932 0.02713729278300329 0.005605338411581943
    vertex 0.0281008396959306 0.02852940045527857 0
  endloop
endfacet
facet normal 0.317794 -0.94816 7.26334e-16
  outer loop
    vertex 0.02810083969593062 0.02852940045527858 0.02
    vertex 0.02529635708442414 0.02758942356453855 0.01287332258351127
    vertex 0.03199631285417076 0.02983504404608581 0.01412830508573355
  endloop
endfacet
facet normal 0.507037 0.861924 0
  outer loop
    vertex 0.01864313584978796 0.02535946707135874 0.009999999999999972
    vertex 0.02942043449931166 0.01901960030351905 0.01000000000000003
    vertex 0.02403178517454981 0.02218953368743889 0
  endloop
endfacet
facet normal 0.507037 0.861924 0
  outer loop
    vertex 0.02403178517454981 0.02218953368743889 0.02
    vertex 0.02942043449931166 0.01901960030351905 0.01000000000000003
    vertex 0.01864313584978796 0.02535946707135874 0.009999999999999972
  endloop
endfacet
facet normal 0.507037 0.861924 0
  outer loop
    vertex 0.02403178517454981 0.02218953368743889 0
    vertex 0.01864313584978796 0.02535946707135874 0
    vertex 0.01864313584978796 0.02535946707135874 0.009999999999999972
  endloop
endfacet
facet normal 0.507037 0.861924 -0
  outer loop
    vertex 0.01864313584978796 0.02535946707135874 0.009999999999999972
    vertex 0.01864313584978796 0.02535946707135874 0.02
    vertex 0.02403178517454981 0.02218953368743889 0.02
  endloop
endfacet
facet normal 0.507037 0.861924 0
  outer loop
    vertex 0.02403178517454981 0.02218953368743889 0
    vertex 0.02942043449931166 0.01901960030351905 0.01000000000000003
    vertex 0.02942043449931166 0.01901960030351905 0
  endloop
endfacet
facet normal 0.507037 0.861924 0
  outer loop
    vertex 0.02942043449931166 0.01901960030351905 0.02
    vertex 0.02942043449931166 0.01901960030351905 0.01000000000000003
    vertex 0.02403178517454981 0.02218953368743889 0.02
  endloop
endfacet
facet normal 0.531249 -0.847216 -4.71577e-16
  outer loop
    vertex 0.02942043449931166 0.01901960030351905 0
    vertex 0.02436514891857048 0.01584966691959921 0.0060204081632653
    vertex 0.01930986333782929 0.01267973353567937 0
  endloop
endfacet
facet normal 0.531249 -0.847216 0
  outer loop
    vertex 0.01930986333782929 0.01267973353567937 0.02
    vertex 0.02436514891857048 0.01584966691959921 0.01408371511870055
    vertex 0.02942043449931166 0.01901960030351905 0.02
  endloop
endfacet
facet normal 0.531249 -0.847216 3.52099e-16
  outer loop
    vertex 0.02942043449931166 0.01901960030351905 0.009999999999999972
    vertex 0.02436514891857048 0.01584966691959921 0.01408371511870055
    vertex 0.02436514891857048 0.01584966691959921 0.0060204081632653
  endloop
endfacet
facet normal 0.531249 -0.847216 3.64536e-16
  outer loop
    vertex 0.02436514891857048 0.01584966691959921 0.0060204081632653
    vertex 0.02436514891857048 0.01584966691959921 0.01408371511870055
    vertex 0.01930986333782929 0.01267973353567937 0.01000000000000003
  endloop
endfacet
facet normal 0.531249 -0.847216 0
  outer loop
    vertex 0.02942043449931166 0.01901960030351905 0.02
    vertex 0.02436514891857048 0.01584966691959921 0.01408371511870055
    vertex 0.02942043449931166 0.01901960030351905 0.009999999999999972
  endloop
endfacet
facet normal 0.531249 -0.847216 0
  outer loop
    vertex 0.01930986333782929 0.01267973353567937 0
    vertex 0.02436514891857048 0.01584966691959921 0.0060204081632653
    vertex 0.01930986333782929 0.01267973353567937 0.01000000000000003
  endloop
endfacet
facet normal 0.531249 -0.847216 0
  outer loop
    vertex 0.02942043449931166 0.01901960030351905 0.009999999999999972
    vertex 0.02436514891857048 0.01584966691959921 0.0060204081632653
    vertex 0.02942043449931166 0.01901960030351905 0
  endloop
endfacet
facet normal 0.531249 -0.847216 0
  outer loop
    vertex 0.01930986333782929 0.01267973353567937 0.01000000000000003
    vertex 0.02436514891857048 0.01584966691959921 0.01408371511870055
    vertex 0.01930986333782929 0.01267973353567937 0.02
  endloop
endfacet
facet normal 0.327582 0.944823 4.61944e-17
  outer loop
    vertex 0.01930986333782929 0.01267973353567937 0
    vertex 0.02639985969298322 0.0102215428483414 0.007579502592517798
    vertex 0.0284526919449993 0.00950980015175952 0
  endloop
endfacet
facet normal 0.327582 0.944823 0
  outer loop
    vertex 0.01930986333782929 0.01267973353567937 0.009999999999999972
    vertex 0.02639985969298322 0.0102215428483414 0.007579502592517798
    vertex 0.01930986333782929 0.01267973353567937 0
  endloop
endfacet
facet normal 0.327582 0.944823 -0
  outer loop
    vertex 0.0375955205521693 0.00633986676783968 0.01000000000000003
    vertex 0.03097659065268245 0.008634732805003974 0.01296864602992337
    vertex 0.0375955205521693 0.00633986676783968 0.02
  endloop
endfacet
facet normal 0.327582 0.944823 -1.49387e-16
  outer loop
    vertex 0.0375955205521693 0.00633986676783968 0.02
    vertex 0.03097659065268245 0.008634732805003974 0.01296864602992337
    vertex 0.02845269194499928 0.009509800151759527 0.02
  endloop
endfacet
facet normal 0.327582 0.944823 -0
  outer loop
    vertex 0.0375955205521693 0.00633986676783968 0
    vertex 0.03265643195575181 0.00805231074996173 0.005376567756040659
    vertex 0.0375955205521693 0.00633986676783968 0.01000000000000003
  endloop
endfacet
facet normal 0.327582 0.944823 0
  outer loop
    vertex 0.01930986333782929 0.01267973353567937 0.02
    vertex 0.02475667728747679 0.0107912548036765 0.01416702788652619
    vertex 0.01930986333782929 0.01267973353567937 0.009999999999999972
  endloop
endfacet
facet normal 0.327582 0.944823 -3.25608e-17
  outer loop
    vertex 0.0284526919449993 0.00950980015175952 0
    vertex 0.03265643195575181 0.00805231074996173 0.005376567756040659
    vertex 0.0375955205521693 0.00633986676783968 0
  endloop
endfacet
facet normal 0.327582 0.944823 -6.00261e-17
  outer loop
    vertex 0.02845269194499928 0.009509800151759527 0.02
    vertex 0.02475667728747679 0.0107912548036765 0.01416702788652619
    vertex 0.01930986333782929 0.01267973353567937 0.02
  endloop
endfacet
facet normal 0.327582 0.944823 1.41443e-16
  outer loop
    vertex 0.0375955205521693 0.00633986676783968 0.01000000000000003
    vertex 0.03265643195575181 0.00805231074996173 0.005376567756040659
    vertex 0.03097659065268245 0.008634732805003974 0.01296864602992337
  endloop
endfacet
facet normal 0.327582 0.944823 3.74598e-17
  outer loop
    vertex 0.02475667728747679 0.0107912548036765 0.01416702788652619
    vertex 0.02639985969298322 0.0102215428483414 0.007579502592517798
    vertex 0.01930986333782929 0.01267973353567937 0.009999999999999972
  endloop
endfacet
facet normal 0.327582 0.944823 1.64445e-16
  outer loop
    vertex 0.03097659065268245 0.008634732805003974 0.01296864602992337
    vertex 0.03265643195575181 0.00805231074996173 0.005376567756040659
    vertex 0.02639985969298322 0.0102215428483414 0.007579502592517798
  endloop
endfacet
facet normal 0.327582 0.944823 3.73103e-17
  outer loop
    vertex 0.02639985969298322 0.0102215428483414 0.007579502592517798
    vertex 0.03265643195575181 0.00805231074996173 0.005376567756040659
    vertex 0.0284526919449993 0.00950980015175952 0
  endloop
endfacet
facet normal 0.327582 0.944823 5.12949e-17
  outer loop
    vertex 0.02475667728747679 0.0107912548036765 0.01416702788652619
    vertex 0.03097659065268245 0.008634732805003974 0.01296864602992337
    vertex 0.02639985969298322 0.0102215428483414 0.007579502592517798
  endloop
endfacet
facet normal 0.327582 0.944823 -9.82928e-17
  outer loop
    vertex 0.02845269194499928 0.009509800151759527 0.02
    vertex 0.03097659065268245 0.008634732805003974 0.01296864602992337
    vertex 0.02475667728747679 0.0107912548036765 0.01416702788652619
  endloop
endfacet
endsolid Created by Gmsh
