solid Created by Gmsh
facet normal 1 0 0
  outer loop
    vertex 0.04 0.05721745686255057 0
    vertex 0.04 0.06 0
    vertex 0.04 0.06 0.009999999999999972
  endloop
endfacet
facet normal 1 0 0
  outer loop
    vertex 0.04 0.05721745686255057 0.01000000000000003
    vertex 0.04 0.06 0.02
    vertex 0.04 0.05721745686255057 0.02
  endloop
endfacet
facet normal 1 0 -0
  outer loop
    vertex 0.04 0.06 0.009999999999999972
    vertex 0.04 0.06 0.02
    vertex 0.04 0.05721745686255057 0.01000000000000003
  endloop
endfacet
facet normal 1 0 0
  outer loop
    vertex 0.04 0.05721745686255057 0
    vertex 0.04 0.06 0.009999999999999972
    vertex 0.04 0.05721745686255057 0.01000000000000003
  endloop
endfacet
facet normal 0.782581 0.622549 -0
  outer loop
    vertex 0.04568961752013012 0.05006527475473175 0
    vertex 0.04284480876006506 0.05364136580864116 0.005
    vertex 0.04568961752013012 0.05006527475473175 0.01000000000000003
  endloop
endfacet
facet normal 0.782581 0.622549 0
  outer loop
    vertex 0.04 0.05721745686255057 0.02
    vertex 0.04284480876006506 0.05364136580864116 0.015
    vertex 0.04 0.05721745686255057 0.009999999999999972
  endloop
endfacet
facet normal 0.782581 0.622549 -0
  outer loop
    vertex 0.04568961752013012 0.05006527475473175 0.01000000000000003
    vertex 0.04284480876006506 0.05364136580864116 0.015
    vertex 0.04568961752013012 0.05006527475473175 0.02
  endloop
endfacet
facet normal 0.782581 0.622549 0
  outer loop
    vertex 0.04 0.05721745686255057 0.009999999999999972
    vertex 0.04284480876006506 0.05364136580864116 0.005
    vertex 0.04 0.05721745686255057 0
  endloop
endfacet
facet normal 0.782581 0.622549 9.63883e-16
  outer loop
    vertex 0.04 0.05721745686255057 0.009999999999999972
    vertex 0.04284480876006506 0.05364136580864116 0.015
    vertex 0.04568961752013012 0.05006527475473175 0.01000000000000003
  endloop
endfacet
facet normal 0.782581 0.622549 9.63883e-16
  outer loop
    vertex 0.04 0.05721745686255057 0
    vertex 0.04284480876006506 0.05364136580864116 0.005
    vertex 0.04568961752013012 0.05006527475473175 0
  endloop
endfacet
facet normal 0.782581 0.622549 -1.03803e-15
  outer loop
    vertex 0.04568961752013012 0.05006527475473175 0.01000000000000003
    vertex 0.04284480876006506 0.05364136580864116 0.005
    vertex 0.04 0.05721745686255057 0.009999999999999972
  endloop
endfacet
facet normal 0.782581 0.622549 -1.03803e-15
  outer loop
    vertex 0.04568961752013012 0.05006527475473175 0.02
    vertex 0.04284480876006506 0.05364136580864116 0.015
    vertex 0.04 0.05721745686255057 0.02
  endloop
endfacet
facet normal 0.94409 0.329689 -0
  outer loop
    vertex 0.04818725429683817 0.04291309264691293 0
    vertex 0.04693843590848415 0.04648918370082233 0.005000000000000001
    vertex 0.04818725429683817 0.04291309264691293 0.01000000000000003
  endloop
endfacet
facet normal 0.94409 0.329689 0
  outer loop
    vertex 0.04568961752013012 0.05006527475473175 0.02
    vertex 0.04693843590848415 0.04648918370082233 0.015
    vertex 0.04568961752013012 0.05006527475473175 0.009999999999999972
  endloop
endfacet
facet normal 0.94409 0.329689 -0
  outer loop
    vertex 0.04818725429683817 0.04291309264691293 0.01000000000000003
    vertex 0.04693843590848415 0.04648918370082233 0.015
    vertex 0.04818725429683817 0.04291309264691293 0.02
  endloop
endfacet
facet normal 0.94409 0.329689 0
  outer loop
    vertex 0.04568961752013012 0.05006527475473175 0.009999999999999972
    vertex 0.04693843590848415 0.04648918370082233 0.005000000000000001
    vertex 0.04568961752013012 0.05006527475473175 0
  endloop
endfacet
facet normal 0.94409 0.329689 -4.47234e-16
  outer loop
    vertex 0.04568961752013012 0.05006527475473175 0.009999999999999972
    vertex 0.04693843590848415 0.04648918370082233 0.015
    vertex 0.04818725429683817 0.04291309264691293 0.01000000000000003
  endloop
endfacet
facet normal 0.94409 0.329689 4.02511e-16
  outer loop
    vertex 0.04818725429683817 0.04291309264691293 0.01000000000000003
    vertex 0.04693843590848415 0.04648918370082233 0.005000000000000001
    vertex 0.04568961752013012 0.05006527475473175 0.009999999999999972
  endloop
endfacet
facet normal 0.94409 0.329689 -4.47234e-16
  outer loop
    vertex 0.04568961752013012 0.05006527475473175 0
    vertex 0.04693843590848415 0.04648918370082233 0.005000000000000001
    vertex 0.04818725429683817 0.04291309264691293 0
  endloop
endfacet
facet normal 0.94409 0.329689 4.02511e-16
  outer loop
    vertex 0.04818725429683817 0.04291309264691293 0.02
    vertex 0.04693843590848415 0.04648918370082233 0.015
    vertex 0.04568961752013012 0.05006527475473175 0.02
  endloop
endfacet
facet normal 0.988904 0.148555 2.06124e-15
  outer loop
    vertex 0.04926166799982191 0.03576091053909411 0.01000000000000003
    vertex 0.04872446114833005 0.03933700159300352 0.005
    vertex 0.04818725429683817 0.04291309264691293 0.009999999999999972
  endloop
endfacet
facet normal 0.988904 0.148555 2.06124e-15
  outer loop
    vertex 0.04926166799982191 0.03576091053909411 0.02
    vertex 0.04872446114833005 0.03933700159300352 0.015
    vertex 0.04818725429683817 0.04291309264691293 0.02
  endloop
endfacet
facet normal 0.988904 0.148555 -2.06124e-15
  outer loop
    vertex 0.04818725429683817 0.04291309264691293 0.009999999999999972
    vertex 0.04872446114833005 0.03933700159300352 0.015
    vertex 0.04926166799982191 0.03576091053909411 0.01000000000000003
  endloop
endfacet
facet normal 0.988904 0.148555 -2.06124e-15
  outer loop
    vertex 0.04818725429683817 0.04291309264691293 0
    vertex 0.04872446114833005 0.03933700159300352 0.005
    vertex 0.04926166799982191 0.03576091053909411 0
  endloop
endfacet
facet normal 0.988904 0.148555 0
  outer loop
    vertex 0.04818725429683817 0.04291309264691293 0.009999999999999972
    vertex 0.04872446114833005 0.03933700159300352 0.005
    vertex 0.04818725429683817 0.04291309264691293 0
  endloop
endfacet
facet normal 0.988904 0.148555 0
  outer loop
    vertex 0.04818725429683817 0.04291309264691293 0.02
    vertex 0.04872446114833005 0.03933700159300352 0.015
    vertex 0.04818725429683817 0.04291309264691293 0.009999999999999972
  endloop
endfacet
facet normal 0.988904 0.148555 -0
  outer loop
    vertex 0.04926166799982191 0.03576091053909411 0
    vertex 0.04872446114833005 0.03933700159300352 0.005
    vertex 0.04926166799982191 0.03576091053909411 0.01000000000000003
  endloop
endfacet
facet normal 0.988904 0.148555 -0
  outer loop
    vertex 0.04926166799982191 0.03576091053909411 0.01000000000000003
    vertex 0.04872446114833005 0.03933700159300352 0.015
    vertex 0.04926166799982191 0.03576091053909411 0.02
  endloop
endfacet
facet normal 0.659803 -0.751439 5.66172e-17
  outer loop
    vertex 0.04111616423475844 0.02860872843127529 0.02
    vertex 0.04518891611729017 0.03218481948518469 0.01447938359017077
    vertex 0.04926166799982191 0.03576091053909411 0.02
  endloop
endfacet
facet normal 0.659803 -0.751439 6.82758e-16
  outer loop
    vertex 0.04926166799982191 0.03576091053909411 0
    vertex 0.04518891611729016 0.03218481948518469 0.005493512265210901
    vertex 0.04111616423475844 0.02860872843127529 0
  endloop
endfacet
facet normal 0.659803 -0.751439 0
  outer loop
    vertex 0.04926166799982191 0.03576091053909411 0.02
    vertex 0.04518891611729017 0.03218481948518469 0.01447938359017077
    vertex 0.04926166799982191 0.03576091053909411 0.009999999999999972
  endloop
endfacet
facet normal 0.659803 -0.751439 0
  outer loop
    vertex 0.04111616423475844 0.02860872843127529 0
    vertex 0.04518891611729016 0.03218481948518469 0.005493512265210901
    vertex 0.04111616423475844 0.02860872843127529 0.01000000000000003
  endloop
endfacet
facet normal 0.659803 -0.751439 -4.38739e-16
  outer loop
    vertex 0.04518891611729017 0.03218481948518469 0.01447938359017077
    vertex 0.04518891611729016 0.03218481948518469 0.005493512265210901
    vertex 0.04926166799982191 0.03576091053909411 0.009999999999999972
  endloop
endfacet
facet normal 0.659803 -0.751439 0
  outer loop
    vertex 0.04926166799982191 0.03576091053909411 0.009999999999999972
    vertex 0.04518891611729016 0.03218481948518469 0.005493512265210901
    vertex 0.04926166799982191 0.03576091053909411 0
  endloop
endfacet
facet normal 0.659803 -0.751439 -4.52188e-16
  outer loop
    vertex 0.04111616423475844 0.02860872843127529 0.01000000000000003
    vertex 0.04518891611729016 0.03218481948518469 0.005493512265210901
    vertex 0.04518891611729017 0.03218481948518469 0.01447938359017077
  endloop
endfacet
facet normal 0.659803 -0.751439 0
  outer loop
    vertex 0.04111616423475844 0.02860872843127529 0.01000000000000003
    vertex 0.04518891611729017 0.03218481948518469 0.01447938359017077
    vertex 0.04111616423475844 0.02860872843127529 0.02
  endloop
endfacet
facet normal 0.816765 0.57697 0
  outer loop
    vertex 0.04111616423475844 0.02860872843127529 0.02
    vertex 0.04364234816609561 0.02503263737736588 0.015
    vertex 0.04111616423475844 0.02860872843127529 0.009999999999999972
  endloop
endfacet
facet normal 0.816765 0.57697 -0
  outer loop
    vertex 0.04616853209743277 0.02145654632345646 0
    vertex 0.04364234816609561 0.02503263737736588 0.005000000000000001
    vertex 0.04616853209743277 0.02145654632345646 0.01000000000000003
  endloop
endfacet
facet normal 0.816765 0.57697 0
  outer loop
    vertex 0.04111616423475844 0.02860872843127529 0.009999999999999972
    vertex 0.04364234816609561 0.02503263737736588 0.005000000000000001
    vertex 0.04111616423475844 0.02860872843127529 0
  endloop
endfacet
facet normal 0.816765 0.57697 -0
  outer loop
    vertex 0.04616853209743277 0.02145654632345646 0.01000000000000003
    vertex 0.04364234816609561 0.02503263737736588 0.015
    vertex 0.04616853209743277 0.02145654632345646 0.02
  endloop
endfacet
facet normal 0.816765 0.57697 -1.00599e-15
  outer loop
    vertex 0.04111616423475844 0.02860872843127529 0.009999999999999972
    vertex 0.04364234816609561 0.02503263737736588 0.015
    vertex 0.04616853209743277 0.02145654632345646 0.01000000000000003
  endloop
endfacet
facet normal 0.816765 0.57697 -1.00599e-15
  outer loop
    vertex 0.04111616423475844 0.02860872843127529 0
    vertex 0.04364234816609561 0.02503263737736588 0.005000000000000001
    vertex 0.04616853209743277 0.02145654632345646 0
  endloop
endfacet
facet normal 0.816765 0.57697 9.28603e-16
  outer loop
    vertex 0.04616853209743277 0.02145654632345646 0.01000000000000003
    vertex 0.04364234816609561 0.02503263737736588 0.005000000000000001
    vertex 0.04111616423475844 0.02860872843127529 0.009999999999999972
  endloop
endfacet
facet normal 0.816765 0.57697 9.28603e-16
  outer loop
    vertex 0.04616853209743277 0.02145654632345646 0.02
    vertex 0.04364234816609561 0.02503263737736588 0.015
    vertex 0.04111616423475844 0.02860872843127529 0.02
  endloop
endfacet
facet normal 0.903341 -0.428923 0
  outer loop
    vertex 0.04277254671276199 0.01430436421563765 0
    vertex 0.04447053940509739 0.01788045526954705 0.005000000000000001
    vertex 0.04277254671276199 0.01430436421563765 0.01000000000000003
  endloop
endfacet
facet normal 0.903341 -0.428923 0
  outer loop
    vertex 0.04616853209743277 0.02145654632345646 0.02
    vertex 0.04447053940509739 0.01788045526954705 0.015
    vertex 0.04616853209743277 0.02145654632345646 0.009999999999999972
  endloop
endfacet
facet normal 0.903341 -0.428923 0
  outer loop
    vertex 0.04277254671276199 0.01430436421563765 0.01000000000000003
    vertex 0.04447053940509739 0.01788045526954705 0.015
    vertex 0.04277254671276199 0.01430436421563765 0.02
  endloop
endfacet
facet normal 0.903341 -0.428923 0
  outer loop
    vertex 0.04616853209743277 0.02145654632345646 0.009999999999999972
    vertex 0.04447053940509739 0.01788045526954705 0.005000000000000001
    vertex 0.04616853209743277 0.02145654632345646 0
  endloop
endfacet
facet normal 0.903341 -0.428923 -2.18245e-15
  outer loop
    vertex 0.04616853209743277 0.02145654632345646 0
    vertex 0.04447053940509739 0.01788045526954705 0.005000000000000001
    vertex 0.04277254671276199 0.01430436421563765 0
  endloop
endfacet
facet normal 0.903341 -0.428923 -2.18245e-15
  outer loop
    vertex 0.04616853209743277 0.02145654632345646 0.009999999999999972
    vertex 0.04447053940509739 0.01788045526954705 0.015
    vertex 0.04277254671276199 0.01430436421563765 0.01000000000000003
  endloop
endfacet
facet normal 0.903341 -0.428923 2.18245e-15
  outer loop
    vertex 0.04277254671276199 0.01430436421563765 0.01000000000000003
    vertex 0.04447053940509739 0.01788045526954705 0.005000000000000001
    vertex 0.04616853209743277 0.02145654632345646 0.009999999999999972
  endloop
endfacet
facet normal 0.903341 -0.428923 2.18245e-15
  outer loop
    vertex 0.04277254671276199 0.01430436421563765 0.02
    vertex 0.04447053940509739 0.01788045526954705 0.015
    vertex 0.04616853209743277 0.02145654632345646 0.02
  endloop
endfacet
facet normal 0.999161 0.0409566 1.38447e-15
  outer loop
    vertex 0.04277254671276199 0.01430436421563765 0.009999999999999972
    vertex 0.04291913435304052 0.01072827316172823 0.015
    vertex 0.04306572199331906 0.007152182107818823 0.01000000000000003
  endloop
endfacet
facet normal 0.999161 0.0409566 1.38447e-15
  outer loop
    vertex 0.04277254671276199 0.01430436421563765 0
    vertex 0.04291913435304052 0.01072827316172823 0.005000000000000001
    vertex 0.04306572199331906 0.007152182107818823 0
  endloop
endfacet
facet normal 0.999161 0.0409566 -1.39038e-15
  outer loop
    vertex 0.04306572199331906 0.007152182107818823 0.01000000000000003
    vertex 0.04291913435304052 0.01072827316172823 0.005000000000000001
    vertex 0.04277254671276199 0.01430436421563765 0.009999999999999972
  endloop
endfacet
facet normal 0.999161 0.0409566 -1.39038e-15
  outer loop
    vertex 0.04306572199331906 0.007152182107818823 0.02
    vertex 0.04291913435304052 0.01072827316172823 0.015
    vertex 0.04277254671276199 0.01430436421563765 0.02
  endloop
endfacet
facet normal 0.999161 0.0409566 0
  outer loop
    vertex 0.04277254671276199 0.01430436421563765 0.009999999999999972
    vertex 0.04291913435304052 0.01072827316172823 0.005000000000000001
    vertex 0.04277254671276199 0.01430436421563765 0
  endloop
endfacet
facet normal 0.999161 0.0409566 0
  outer loop
    vertex 0.04277254671276199 0.01430436421563765 0.02
    vertex 0.04291913435304052 0.01072827316172823 0.015
    vertex 0.04277254671276199 0.01430436421563765 0.009999999999999972
  endloop
endfacet
facet normal 0.999161 0.0409566 -0
  outer loop
    vertex 0.04306572199331906 0.007152182107818823 0
    vertex 0.04291913435304052 0.01072827316172823 0.005000000000000001
    vertex 0.04306572199331906 0.007152182107818823 0.01000000000000003
  endloop
endfacet
facet normal 0.999161 0.0409566 -0
  outer loop
    vertex 0.04306572199331906 0.007152182107818823 0.01000000000000003
    vertex 0.04291913435304052 0.01072827316172823 0.015
    vertex 0.04306572199331906 0.007152182107818823 0.02
  endloop
endfacet
endsolid Created by Gmsh
