solid Created by Gmsh
facet normal 1 0 0
  outer loop
    vertex 0.04 0.05842122569816589 0
    vertex 0.04 0.06 0
    vertex 0.04 0.06 0.009999999999999972
  endloop
endfacet
facet normal 1 0 0
  outer loop
    vertex 0.04 0.05842122569816589 0.01000000000000003
    vertex 0.04 0.06 0.02
    vertex 0.04 0.05842122569816589 0.02
  endloop
endfacet
facet normal 1 0 -0
  outer loop
    vertex 0.04 0.06 0.009999999999999972
    vertex 0.04 0.06 0.02
    vertex 0.04 0.05842122569816589 0.01000000000000003
  endloop
endfacet
facet normal 1 0 0
  outer loop
    vertex 0.04 0.05842122569816589 0
    vertex 0.04 0.06 0.009999999999999972
    vertex 0.04 0.05842122569816589 0.01000000000000003
  endloop
endfacet
facet normal 0.628904 0.777483 2.0373e-15
  outer loop
    vertex 0.04 0.05842122569816589 0
    vertex 0.04451395320451627 0.05476989909203052 0.005728862973760925
    vertex 0.04902790640903257 0.05111857248589516 0
  endloop
endfacet
facet normal 0.628904 0.777483 -1.02819e-15
  outer loop
    vertex 0.04902790640903257 0.05111857248589516 0.02
    vertex 0.04451395320451627 0.05476989909203053 0.01432426114969102
    vertex 0.04 0.05842122569816589 0.02
  endloop
endfacet
facet normal 0.628904 0.777483 -0
  outer loop
    vertex 0.04902790640903257 0.05111857248589516 0
    vertex 0.04451395320451627 0.05476989909203052 0.005728862973760925
    vertex 0.04902790640903257 0.05111857248589516 0.01000000000000003
  endloop
endfacet
facet normal 0.628904 0.777483 0
  outer loop
    vertex 0.04 0.05842122569816589 0.02
    vertex 0.04451395320451627 0.05476989909203053 0.01432426114969102
    vertex 0.04 0.05842122569816589 0.009999999999999972
  endloop
endfacet
facet normal 0.628904 0.777483 -7.47591e-16
  outer loop
    vertex 0.04451395320451627 0.05476989909203052 0.005728862973760925
    vertex 0.04451395320451627 0.05476989909203053 0.01432426114969102
    vertex 0.04902790640903257 0.05111857248589516 0.01000000000000003
  endloop
endfacet
facet normal 0.628904 0.777483 -7.46828e-16
  outer loop
    vertex 0.04 0.05842122569816589 0.009999999999999972
    vertex 0.04451395320451627 0.05476989909203053 0.01432426114969102
    vertex 0.04451395320451627 0.05476989909203052 0.005728862973760925
  endloop
endfacet
facet normal 0.628904 0.777483 -0
  outer loop
    vertex 0.04902790640903257 0.05111857248589516 0.01000000000000003
    vertex 0.04451395320451627 0.05476989909203053 0.01432426114969102
    vertex 0.04902790640903257 0.05111857248589516 0.02
  endloop
endfacet
facet normal 0.628904 0.777483 0
  outer loop
    vertex 0.04 0.05842122569816589 0.009999999999999972
    vertex 0.04451395320451627 0.05476989909203052 0.005728862973760925
    vertex 0.04 0.05842122569816589 0
  endloop
endfacet
facet normal 0.782471 0.622687 0
  outer loop
    vertex 0.04902790640903257 0.05111857248589516 0.02
    vertex 0.05193361399353986 0.04746724587975979 0.015
    vertex 0.04902790640903257 0.05111857248589516 0.009999999999999972
  endloop
endfacet
facet normal 0.782471 0.622687 -0
  outer loop
    vertex 0.05483932157804715 0.04381591927362442 0
    vertex 0.05193361399353986 0.04746724587975979 0.004999999999999999
    vertex 0.05483932157804715 0.04381591927362442 0.01000000000000003
  endloop
endfacet
facet normal 0.782471 0.622687 0
  outer loop
    vertex 0.04902790640903257 0.05111857248589516 0.009999999999999972
    vertex 0.05193361399353986 0.04746724587975979 0.004999999999999999
    vertex 0.04902790640903257 0.05111857248589516 0
  endloop
endfacet
facet normal 0.782471 0.622687 -0
  outer loop
    vertex 0.05483932157804715 0.04381591927362442 0.01000000000000003
    vertex 0.05193361399353986 0.04746724587975979 0.015
    vertex 0.05483932157804715 0.04381591927362442 0.02
  endloop
endfacet
facet normal 0.782471 0.622687 0
  outer loop
    vertex 0.05483932157804715 0.04381591927362442 0.01000000000000003
    vertex 0.05193361399353986 0.04746724587975979 0.004999999999999999
    vertex 0.04902790640903257 0.05111857248589516 0.009999999999999972
  endloop
endfacet
facet normal 0.782471 0.622687 0
  outer loop
    vertex 0.05483932157804715 0.04381591927362442 0.02
    vertex 0.05193361399353986 0.04746724587975979 0.015
    vertex 0.04902790640903257 0.05111857248589516 0.02
  endloop
endfacet
facet normal 0.782471 0.622687 0
  outer loop
    vertex 0.04902790640903257 0.05111857248589516 0.009999999999999972
    vertex 0.05193361399353986 0.04746724587975979 0.015
    vertex 0.05483932157804715 0.04381591927362442 0.01000000000000003
  endloop
endfacet
facet normal 0.782471 0.622687 0
  outer loop
    vertex 0.04902790640903257 0.05111857248589516 0
    vertex 0.05193361399353986 0.04746724587975979 0.004999999999999999
    vertex 0.05483932157804715 0.04381591927362442 0
  endloop
endfacet
facet normal 0.99955 -0.0299923 -1.40864e-15
  outer loop
    vertex 0.05462019975815209 0.03651326606135368 0.01000000000000003
    vertex 0.05472976066809961 0.04016459266748906 0.004999999999999996
    vertex 0.05483932157804715 0.04381591927362442 0.009999999999999972
  endloop
endfacet
facet normal 0.99955 -0.0299923 1.36806e-15
  outer loop
    vertex 0.05483932157804715 0.04381591927362442 0.009999999999999972
    vertex 0.05472976066809961 0.04016459266748905 0.015
    vertex 0.05462019975815209 0.03651326606135368 0.01000000000000003
  endloop
endfacet
facet normal 0.99955 -0.0299923 1.40864e-15
  outer loop
    vertex 0.05483932157804715 0.04381591927362442 0
    vertex 0.05472976066809961 0.04016459266748906 0.004999999999999996
    vertex 0.05462019975815209 0.03651326606135368 0
  endloop
endfacet
facet normal 0.99955 -0.0299923 -1.36806e-15
  outer loop
    vertex 0.05462019975815209 0.03651326606135368 0.02
    vertex 0.05472976066809961 0.04016459266748905 0.015
    vertex 0.05483932157804715 0.04381591927362442 0.02
  endloop
endfacet
facet normal 0.99955 -0.0299923 0
  outer loop
    vertex 0.05483932157804715 0.04381591927362442 0.009999999999999972
    vertex 0.05472976066809961 0.04016459266748906 0.004999999999999996
    vertex 0.05483932157804715 0.04381591927362442 0
  endloop
endfacet
facet normal 0.99955 -0.0299923 0
  outer loop
    vertex 0.05483932157804715 0.04381591927362442 0.02
    vertex 0.05472976066809961 0.04016459266748905 0.015
    vertex 0.05483932157804715 0.04381591927362442 0.009999999999999972
  endloop
endfacet
facet normal 0.99955 -0.0299923 0
  outer loop
    vertex 0.05462019975815209 0.03651326606135368 0
    vertex 0.05472976066809961 0.04016459266748906 0.004999999999999996
    vertex 0.05462019975815209 0.03651326606135368 0.01000000000000003
  endloop
endfacet
facet normal 0.99955 -0.0299923 0
  outer loop
    vertex 0.05462019975815209 0.03651326606135368 0.01000000000000003
    vertex 0.05472976066809961 0.04016459266748905 0.015
    vertex 0.05462019975815209 0.03651326606135368 0.02
  endloop
endfacet
facet normal 0.998504 -0.0546761 1.384e-15
  outer loop
    vertex 0.05462019975815209 0.03651326606135368 0
    vertex 0.05442026042903413 0.03286193945521831 0.005000000000000001
    vertex 0.05422032109991617 0.02921061284908295 0
  endloop
endfacet
facet normal 0.998504 -0.0546761 -1.384e-15
  outer loop
    vertex 0.05422032109991617 0.02921061284908295 0.02
    vertex 0.05442026042903413 0.03286193945521831 0.015
    vertex 0.05462019975815209 0.03651326606135368 0.02
  endloop
endfacet
facet normal 0.998504 -0.0546761 1.384e-15
  outer loop
    vertex 0.05462019975815209 0.03651326606135368 0.009999999999999972
    vertex 0.05442026042903413 0.03286193945521831 0.015
    vertex 0.05422032109991617 0.02921061284908295 0.01000000000000003
  endloop
endfacet
facet normal 0.998504 -0.0546761 -1.384e-15
  outer loop
    vertex 0.05422032109991617 0.02921061284908295 0.01000000000000003
    vertex 0.05442026042903413 0.03286193945521831 0.005000000000000001
    vertex 0.05462019975815209 0.03651326606135368 0.009999999999999972
  endloop
endfacet
facet normal 0.998504 -0.0546761 0
  outer loop
    vertex 0.05462019975815209 0.03651326606135368 0.009999999999999972
    vertex 0.05442026042903413 0.03286193945521831 0.005000000000000001
    vertex 0.05462019975815209 0.03651326606135368 0
  endloop
endfacet
facet normal 0.998504 -0.0546761 0
  outer loop
    vertex 0.05462019975815209 0.03651326606135368 0.02
    vertex 0.05442026042903413 0.03286193945521831 0.015
    vertex 0.05462019975815209 0.03651326606135368 0.009999999999999972
  endloop
endfacet
facet normal 0.998504 -0.0546761 0
  outer loop
    vertex 0.05422032109991617 0.02921061284908295 0
    vertex 0.05442026042903413 0.03286193945521831 0.005000000000000001
    vertex 0.05422032109991617 0.02921061284908295 0.01000000000000003
  endloop
endfacet
facet normal 0.998504 -0.0546761 0
  outer loop
    vertex 0.05422032109991617 0.02921061284908295 0.01000000000000003
    vertex 0.05442026042903413 0.03286193945521831 0.015
    vertex 0.05422032109991617 0.02921061284908295 0.02
  endloop
endfacet
facet normal 0.346672 -0.937986 0
  outer loop
    vertex 0.03446160815296098 0.02190795963681221 0
    vertex 0.04199284171855498 0.02469143987349541 0.007910020136801846
    vertex 0.03446160815296098 0.02190795963681221 0.01000000000000003
  endloop
endfacet
facet normal 0.346672 -0.937986 -6.10017e-17
  outer loop
    vertex 0.04434096462643856 0.02555928624294758 0
    vertex 0.04199284171855498 0.02469143987349541 0.007910020136801846
    vertex 0.03446160815296098 0.02190795963681221 0
  endloop
endfacet
facet normal 0.346672 -0.937986 -1.96965e-16
  outer loop
    vertex 0.04434096462643859 0.02555928624294758 0.02
    vertex 0.04736415935965245 0.02667663345018186 0.01265061209863148
    vertex 0.05422032109991617 0.02921061284908295 0.02
  endloop
endfacet
facet normal 0.346672 -0.937986 0
  outer loop
    vertex 0.05422032109991617 0.02921061284908295 0.02
    vertex 0.04736415935965245 0.02667663345018186 0.01265061209863148
    vertex 0.05422032109991617 0.02921061284908295 0.009999999999999972
  endloop
endfacet
facet normal 0.346672 -0.937986 3.21683e-16
  outer loop
    vertex 0.03446160815296098 0.02190795963681221 0.02
    vertex 0.03940128638969979 0.0237336229398799 0.01500000000000002
    vertex 0.04434096462643859 0.02555928624294758 0.02
  endloop
endfacet
facet normal 0.346672 -0.937986 -3.21283e-16
  outer loop
    vertex 0.05422032109991617 0.02921061284908295 0
    vertex 0.04848079203869746 0.02708933144536232 0.006007479668828285
    vertex 0.04434096462643856 0.02555928624294758 0
  endloop
endfacet
facet normal 0.346672 -0.937986 0
  outer loop
    vertex 0.05422032109991617 0.02921061284908295 0.009999999999999972
    vertex 0.04848079203869746 0.02708933144536232 0.006007479668828285
    vertex 0.05422032109991617 0.02921061284908295 0
  endloop
endfacet
facet normal 0.346672 -0.937986 0
  outer loop
    vertex 0.03446160815296098 0.02190795963681221 0.01000000000000003
    vertex 0.03940128638969979 0.0237336229398799 0.01500000000000002
    vertex 0.03446160815296098 0.02190795963681221 0.02
  endloop
endfacet
facet normal 0.346672 -0.937986 -1.39063e-16
  outer loop
    vertex 0.04434096462643859 0.02555928624294758 0.02
    vertex 0.03940128638969979 0.0237336229398799 0.01500000000000002
    vertex 0.04736415935965245 0.02667663345018186 0.01265061209863148
  endloop
endfacet
facet normal 0.346672 -0.937986 -3.78576e-16
  outer loop
    vertex 0.04736415935965245 0.02667663345018186 0.01265061209863148
    vertex 0.03940128638969979 0.0237336229398799 0.01500000000000002
    vertex 0.04199284171855498 0.02469143987349541 0.007910020136801846
  endloop
endfacet
facet normal 0.346672 -0.937986 -2.03491e-16
  outer loop
    vertex 0.04848079203869746 0.02708933144536232 0.006007479668828285
    vertex 0.04199284171855498 0.02469143987349541 0.007910020136801846
    vertex 0.04434096462643856 0.02555928624294758 0
  endloop
endfacet
facet normal 0.346672 -0.937986 -4.47096e-16
  outer loop
    vertex 0.04199284171855498 0.02469143987349541 0.007910020136801846
    vertex 0.03940128638969979 0.0237336229398799 0.01500000000000002
    vertex 0.03446160815296098 0.02190795963681221 0.01000000000000003
  endloop
endfacet
facet normal 0.346672 -0.937986 1.84201e-16
  outer loop
    vertex 0.04848079203869746 0.02708933144536232 0.006007479668828285
    vertex 0.04736415935965245 0.02667663345018186 0.01265061209863148
    vertex 0.04199284171855498 0.02469143987349541 0.007910020136801846
  endloop
endfacet
facet normal 0.346672 -0.937986 2.23875e-16
  outer loop
    vertex 0.05422032109991617 0.02921061284908295 0.009999999999999972
    vertex 0.04736415935965245 0.02667663345018186 0.01265061209863148
    vertex 0.04848079203869746 0.02708933144536232 0.006007479668828285
  endloop
endfacet
facet normal 0.999718 -0.0237439 6.95742e-16
  outer loop
    vertex 0.03446160815296098 0.02190795963681221 0
    vertex 0.03437488686852787 0.01825663303067684 0.005
    vertex 0.03428816558409477 0.01460530642454147 0
  endloop
endfacet
facet normal 0.999718 -0.0237439 6.95742e-16
  outer loop
    vertex 0.03446160815296098 0.02190795963681221 0.009999999999999972
    vertex 0.03437488686852787 0.01825663303067684 0.015
    vertex 0.03428816558409477 0.01460530642454147 0.01000000000000003
  endloop
endfacet
facet normal 0.999718 -0.0237439 -6.92843e-16
  outer loop
    vertex 0.03428816558409477 0.01460530642454147 0.02
    vertex 0.03437488686852787 0.01825663303067684 0.015
    vertex 0.03446160815296098 0.02190795963681221 0.02
  endloop
endfacet
facet normal 0.999718 -0.0237439 -6.92843e-16
  outer loop
    vertex 0.03428816558409477 0.01460530642454147 0.01000000000000003
    vertex 0.03437488686852787 0.01825663303067684 0.005
    vertex 0.03446160815296098 0.02190795963681221 0.009999999999999972
  endloop
endfacet
facet normal 0.999718 -0.0237439 0
  outer loop
    vertex 0.03446160815296098 0.02190795963681221 0.009999999999999972
    vertex 0.03437488686852787 0.01825663303067684 0.005
    vertex 0.03446160815296098 0.02190795963681221 0
  endloop
endfacet
facet normal 0.999718 -0.0237439 0
  outer loop
    vertex 0.03446160815296098 0.02190795963681221 0.02
    vertex 0.03437488686852787 0.01825663303067684 0.015
    vertex 0.03446160815296098 0.02190795963681221 0.009999999999999972
  endloop
endfacet
facet normal 0.999718 -0.0237439 0
  outer loop
    vertex 0.03428816558409477 0.01460530642454147 0
    vertex 0.03437488686852787 0.01825663303067684 0.005
    vertex 0.03428816558409477 0.01460530642454147 0.01000000000000003
  endloop
endfacet
facet normal 0.999718 -0.0237439 0
  outer loop
    vertex 0.03428816558409477 0.01460530642454147 0.01000000000000003
    vertex 0.03437488686852787 0.01825663303067684 0.015
    vertex 0.03428816558409477 0.01460530642454147 0.02
  endloop
endfacet
facet normal 0.976807 0.214123 0
  outer loop
    vertex 0.03428816558409477 0.01460530642454147 0.02
    vertex 0.03508856093109316 0.0109539798184061 0.015
    vertex 0.03428816558409477 0.01460530642454147 0.009999999999999972
  endloop
endfacet
facet normal 0.976807 0.214123 -0
  outer loop
    vertex 0.03588895627809154 0.007302653212270735 0
    vertex 0.03508856093109316 0.0109539798184061 0.005
    vertex 0.03588895627809154 0.007302653212270735 0.01000000000000003
  endloop
endfacet
facet normal 0.976807 0.214123 0
  outer loop
    vertex 0.03428816558409477 0.01460530642454147 0.009999999999999972
    vertex 0.03508856093109316 0.0109539798184061 0.005
    vertex 0.03428816558409477 0.01460530642454147 0
  endloop
endfacet
facet normal 0.976807 0.214123 -0
  outer loop
    vertex 0.03588895627809154 0.007302653212270735 0.01000000000000003
    vertex 0.03508856093109316 0.0109539798184061 0.015
    vertex 0.03588895627809154 0.007302653212270735 0.02
  endloop
endfacet
facet normal 0.976807 0.214123 6.57138e-16
  outer loop
    vertex 0.03588895627809154 0.007302653212270735 0.02
    vertex 0.03508856093109316 0.0109539798184061 0.015
    vertex 0.03428816558409477 0.01460530642454147 0.02
  endloop
endfacet
facet normal 0.976807 0.214123 6.57138e-16
  outer loop
    vertex 0.03588895627809154 0.007302653212270735 0.01000000000000003
    vertex 0.03508856093109316 0.0109539798184061 0.005
    vertex 0.03428816558409477 0.01460530642454147 0.009999999999999972
  endloop
endfacet
facet normal 0.976807 0.214123 -6.79797e-16
  outer loop
    vertex 0.03428816558409477 0.01460530642454147 0
    vertex 0.03508856093109316 0.0109539798184061 0.005
    vertex 0.03588895627809154 0.007302653212270735 0
  endloop
endfacet
facet normal 0.976807 0.214123 -6.79797e-16
  outer loop
    vertex 0.03428816558409477 0.01460530642454147 0.009999999999999972
    vertex 0.03508856093109316 0.0109539798184061 0.015
    vertex 0.03588895627809154 0.007302653212270735 0.01000000000000003
  endloop
endfacet
endsolid Created by Gmsh
