solid Created by Gmsh
facet normal 0.991465 -0.130377 6.05613e-17
  outer loop
    vertex 0.01074495577730398 0.02087432750311524 0
    vertex 0.009956418648891305 0.01487780748521574 0.01062893819824093
    vertex 0.009372477888651989 0.01043716375155762 0
  endloop
endfacet
facet normal 0.991465 -0.130377 -1.07575e-16
  outer loop
    vertex 0.01211743366595596 0.03131149125467278 0.02
    vertex 0.01290769272874177 0.03732110591779064 0.009528458612786686
    vertex 0.01348991155460795 0.0417486550062304 0.02
  endloop
endfacet
facet normal 0.991465 -0.130377 5.8111e-17
  outer loop
    vertex 0.01074495577730398 0.02087432750311524 0
    vertex 0.01143148171069216 0.02609509181976374 0.01002623280183794
    vertex 0.009956418648891305 0.01487780748521574 0.01062893819824093
  endloop
endfacet
facet normal 0.991465 -0.130377 -4.01261e-17
  outer loop
    vertex 0.01211743366595596 0.03131149125467285 0
    vertex 0.01143148171069216 0.02609509181976374 0.01002623280183794
    vertex 0.01074495577730398 0.02087432750311524 0
  endloop
endfacet
facet normal 0.991465 -0.130377 -8.79665e-17
  outer loop
    vertex 0.01211743366595596 0.03131149125467278 0.02
    vertex 0.01143148171069216 0.02609509181976374 0.01002623280183794
    vertex 0.01290769272874177 0.03732110591779064 0.009528458612786686
  endloop
endfacet
facet normal 0.991465 -0.130377 -1.37475e-16
  outer loop
    vertex 0.01290769272874177 0.03732110591779064 0.009528458612786686
    vertex 0.01143148171069216 0.02609509181976374 0.01002623280183794
    vertex 0.01211743366595596 0.03131149125467285 0
  endloop
endfacet
facet normal 0.991465 -0.130377 -1.53281e-16
  outer loop
    vertex 0.01074495577730397 0.02087432750311517 0.02
    vertex 0.01143148171069216 0.02609509181976374 0.01002623280183794
    vertex 0.01211743366595596 0.03131149125467278 0.02
  endloop
endfacet
facet normal 0.991465 -0.130377 -2.47155e-16
  outer loop
    vertex 0.009956418648891305 0.01487780748521574 0.01062893819824093
    vertex 0.01143148171069216 0.02609509181976374 0.01002623280183794
    vertex 0.01074495577730397 0.02087432750311517 0.02
  endloop
endfacet
facet normal 0.991465 -0.130377 -9.03714e-17
  outer loop
    vertex 0.01290769272874177 0.03732110591779064 0.009528458612786686
    vertex 0.01387842718056718 0.04470316614386201 0.01229566728987217
    vertex 0.01348991155460795 0.0417486550062304 0.02
  endloop
endfacet
facet normal 0.991465 -0.130377 8.95522e-17
  outer loop
    vertex 0.009956418648891305 0.01487780748521574 0.01062893819824093
    vertex 0.008984051909421888 0.007483334342644175 0.007712527046395407
    vertex 0.009372477888651989 0.01043716375155762 0
  endloop
endfacet
facet normal 0.991465 -0.130377 -5.06668e-17
  outer loop
    vertex 0.01348991155460795 0.04174865500623044 0
    vertex 0.01290769272874177 0.03732110591779064 0.009528458612786686
    vertex 0.01211743366595596 0.03131149125467285 0
  endloop
endfacet
facet normal 0.991465 -0.130377 -1.80312e-16
  outer loop
    vertex 0.009372477888651986 0.01043716375155759 0.02
    vertex 0.009956418648891305 0.01487780748521574 0.01062893819824093
    vertex 0.01074495577730397 0.02087432750311517 0.02
  endloop
endfacet
facet normal 0.991465 -0.130377 0
  outer loop
    vertex 0.008 0 0
    vertex 0.008984051909421888 0.007483334342644175 0.007712527046395407
    vertex 0.008 0 0.01000000000000003
  endloop
endfacet
facet normal 0.991465 -0.130377 0
  outer loop
    vertex 0.01486238944325994 0.05218581875778802 0.02
    vertex 0.01387842718056718 0.04470316614386201 0.01229566728987217
    vertex 0.01486238944325994 0.05218581875778802 0.009999999999999972
  endloop
endfacet
facet normal 0.991465 -0.130377 8.34619e-17
  outer loop
    vertex 0.009372477888651989 0.01043716375155762 0
    vertex 0.008984051909421888 0.007483334342644175 0.007712527046395407
    vertex 0.008 0 0
  endloop
endfacet
facet normal 0.991465 -0.130377 -8.35507e-17
  outer loop
    vertex 0.01348991155460795 0.0417486550062304 0.02
    vertex 0.01387842718056718 0.04470316614386201 0.01229566728987217
    vertex 0.01486238944325994 0.05218581875778802 0.02
  endloop
endfacet
facet normal 0.991465 -0.130377 -2.02502e-16
  outer loop
    vertex 0.009372477888651986 0.01043716375155759 0.02
    vertex 0.008812203762231022 0.006176495618710726 0.01404878074923377
    vertex 0.009956418648891305 0.01487780748521574 0.01062893819824093
  endloop
endfacet
facet normal 0.991465 -0.130377 -1.25212e-17
  outer loop
    vertex 0.01348991155460795 0.04174865500623044 0
    vertex 0.01405044447832924 0.04601129119249679 0.005974875128951258
    vertex 0.01290769272874177 0.03732110591779064 0.009528458612786686
  endloop
endfacet
facet normal 0.991465 -0.130377 6.6303e-17
  outer loop
    vertex 0.009956418648891305 0.01487780748521574 0.01062893819824093
    vertex 0.008812203762231022 0.006176495618710726 0.01404878074923377
    vertex 0.008984051909421888 0.007483334342644175 0.007712527046395407
  endloop
endfacet
facet normal 0.991465 -0.130377 -6.68097e-17
  outer loop
    vertex 0.01290769272874177 0.03732110591779064 0.009528458612786686
    vertex 0.01405044447832924 0.04601129119249679 0.005974875128951258
    vertex 0.01387842718056718 0.04470316614386201 0.01229566728987217
  endloop
endfacet
facet normal 0.991465 -0.130377 2.69337e-17
  outer loop
    vertex 0.01486238944325994 0.05218581875778802 0
    vertex 0.01405044447832924 0.04601129119249679 0.005974875128951258
    vertex 0.01348991155460795 0.04174865500623044 0
  endloop
endfacet
facet normal 0.991465 -0.130377 -2.43367e-16
  outer loop
    vertex 0.008 0 0.02
    vertex 0.008812203762231022 0.006176495618710726 0.01404878074923377
    vertex 0.009372477888651986 0.01043716375155759 0.02
  endloop
endfacet
facet normal 0.991465 -0.130377 0
  outer loop
    vertex 0.01486238944325994 0.05218581875778802 0.009999999999999972
    vertex 0.01405044447832924 0.04601129119249679 0.005974875128951258
    vertex 0.01486238944325994 0.05218581875778802 0
  endloop
endfacet
facet normal 0.991465 -0.130377 0
  outer loop
    vertex 0.008 0 0.01000000000000003
    vertex 0.008812203762231022 0.006176495618710726 0.01404878074923377
    vertex 0.008 0 0.02
  endloop
endfacet
facet normal 0.991465 -0.130377 -5.68802e-17
  outer loop
    vertex 0.01387842718056718 0.04470316614386201 0.01229566728987217
    vertex 0.01405044447832924 0.04601129119249679 0.005974875128951258
    vertex 0.01486238944325994 0.05218581875778802 0.009999999999999972
  endloop
endfacet
facet normal 0.991465 -0.130377 7.5612e-17
  outer loop
    vertex 0.008984051909421888 0.007483334342644175 0.007712527046395407
    vertex 0.008812203762231022 0.006176495618710726 0.01404878074923377
    vertex 0.008 0 0.01000000000000003
  endloop
endfacet
endsolid Created by Gmsh
