solid Created by Gmsh
facet normal -0.636268 -0.771468 3.09657e-15
  outer loop
    vertex 0.0300134349243179 0.05833016386901545 0
    vertex 0.03885401295653511 0.05103889338538851 0
    vertex 0.03443372394042651 0.05468452862720199 0.005728862973760926
  endloop
endfacet
facet normal -0.636268 -0.771468 -3.12555e-15
  outer loop
    vertex 0.03885401295653511 0.05103889338538851 0.02
    vertex 0.0300134349243179 0.05833016386901545 0.02
    vertex 0.03443372394042651 0.05468452862720199 0.01432426114969104
  endloop
endfacet
facet normal -0.636268 -0.771468 0
  outer loop
    vertex 0.0300134349243179 0.05833016386901545 0.009999999999999972
    vertex 0.03443372394042651 0.05468452862720199 0.005728862973760926
    vertex 0.03443372394042651 0.05468452862720199 0.01432426114969104
  endloop
endfacet
facet normal -0.636268 -0.771468 0
  outer loop
    vertex 0.03443372394042651 0.05468452862720199 0.005728862973760926
    vertex 0.03885401295653511 0.05103889338538851 0.01000000000000003
    vertex 0.03443372394042651 0.05468452862720199 0.01432426114969104
  endloop
endfacet
facet normal -0.636268 -0.771468 -0
  outer loop
    vertex 0.0300134349243179 0.05833016386901545 0.02
    vertex 0.0300134349243179 0.05833016386901545 0.009999999999999972
    vertex 0.03443372394042651 0.05468452862720199 0.01432426114969104
  endloop
endfacet
facet normal -0.636268 -0.771468 0
  outer loop
    vertex 0.03885401295653511 0.05103889338538851 0
    vertex 0.03885401295653511 0.05103889338538851 0.01000000000000003
    vertex 0.03443372394042651 0.05468452862720199 0.005728862973760926
  endloop
endfacet
facet normal -0.636268 -0.771468 -0
  outer loop
    vertex 0.0300134349243179 0.05833016386901545 0.009999999999999972
    vertex 0.0300134349243179 0.05833016386901545 0
    vertex 0.03443372394042651 0.05468452862720199 0.005728862973760926
  endloop
endfacet
facet normal -0.636268 -0.771468 0
  outer loop
    vertex 0.03885401295653511 0.05103889338538851 0.01000000000000003
    vertex 0.03885401295653511 0.05103889338538851 0.02
    vertex 0.03443372394042651 0.05468452862720199 0.01432426114969104
  endloop
endfacet
facet normal -0.970343 0.241734 0
  outer loop
    vertex 0.03703759592567202 0.04374762290176158 0
    vertex 0.03703759592567202 0.04374762290176158 0.01000000000000003
    vertex 0.03794580444110358 0.04739325814357505 0.004999999999999999
  endloop
endfacet
facet normal -0.970343 0.241734 0
  outer loop
    vertex 0.03885401295653511 0.05103889338538851 0.02
    vertex 0.03885401295653511 0.05103889338538851 0.009999999999999972
    vertex 0.03794580444110358 0.04739325814357505 0.015
  endloop
endfacet
facet normal -0.970343 0.241734 0
  outer loop
    vertex 0.03703759592567202 0.04374762290176158 0.01000000000000003
    vertex 0.03703759592567202 0.04374762290176158 0.02
    vertex 0.03794580444110358 0.04739325814357505 0.015
  endloop
endfacet
facet normal -0.970343 0.241734 0
  outer loop
    vertex 0.03885401295653511 0.05103889338538851 0.009999999999999972
    vertex 0.03885401295653511 0.05103889338538851 0
    vertex 0.03794580444110358 0.04739325814357505 0.004999999999999999
  endloop
endfacet
facet normal -0.970343 0.241734 2.02906e-15
  outer loop
    vertex 0.03885401295653511 0.05103889338538851 0
    vertex 0.03703759592567202 0.04374762290176158 0
    vertex 0.03794580444110358 0.04739325814357505 0.004999999999999999
  endloop
endfacet
facet normal -0.970343 0.241734 2.02906e-15
  outer loop
    vertex 0.03885401295653511 0.05103889338538851 0.009999999999999972
    vertex 0.03703759592567202 0.04374762290176158 0.01000000000000003
    vertex 0.03794580444110358 0.04739325814357505 0.015
  endloop
endfacet
facet normal -0.970343 0.241734 -2.02906e-15
  outer loop
    vertex 0.03703759592567202 0.04374762290176158 0.01000000000000003
    vertex 0.03885401295653511 0.05103889338538851 0.009999999999999972
    vertex 0.03794580444110358 0.04739325814357505 0.004999999999999999
  endloop
endfacet
facet normal -0.970343 0.241734 -2.02906e-15
  outer loop
    vertex 0.03703759592567202 0.04374762290176158 0.02
    vertex 0.03885401295653511 0.05103889338538851 0.02
    vertex 0.03794580444110358 0.04739325814357505 0.015
  endloop
endfacet
facet normal -0.764333 -0.644821 -0
  outer loop
    vertex 0.03703759592567202 0.04374762290176158 0.02
    vertex 0.03703759592567202 0.04374762290176158 0.009999999999999972
    vertex 0.04011319635817841 0.04010198765994812 0.015
  endloop
endfacet
facet normal -0.764333 -0.644821 0
  outer loop
    vertex 0.0431887967906848 0.03645635241813466 0
    vertex 0.0431887967906848 0.03645635241813466 0.01000000000000003
    vertex 0.04011319635817841 0.04010198765994812 0.005000000000000001
  endloop
endfacet
facet normal -0.764333 -0.644821 -0
  outer loop
    vertex 0.03703759592567202 0.04374762290176158 0.009999999999999972
    vertex 0.03703759592567202 0.04374762290176158 0
    vertex 0.04011319635817841 0.04010198765994812 0.005000000000000001
  endloop
endfacet
facet normal -0.764333 -0.644821 0
  outer loop
    vertex 0.0431887967906848 0.03645635241813466 0.01000000000000003
    vertex 0.0431887967906848 0.03645635241813466 0.02
    vertex 0.04011319635817841 0.04010198765994812 0.015
  endloop
endfacet
facet normal -0.764333 -0.644821 -1.56276e-15
  outer loop
    vertex 0.03703759592567202 0.04374762290176158 0.009999999999999972
    vertex 0.0431887967906848 0.03645635241813466 0.01000000000000003
    vertex 0.04011319635817841 0.04010198765994812 0.015
  endloop
endfacet
facet normal -0.764333 -0.644821 -1.56276e-15
  outer loop
    vertex 0.03703759592567202 0.04374762290176158 0
    vertex 0.0431887967906848 0.03645635241813466 0
    vertex 0.04011319635817841 0.04010198765994812 0.005000000000000001
  endloop
endfacet
facet normal -0.764333 -0.644821 1.49173e-15
  outer loop
    vertex 0.0431887967906848 0.03645635241813466 0.01000000000000003
    vertex 0.03703759592567202 0.04374762290176158 0.009999999999999972
    vertex 0.04011319635817841 0.04010198765994812 0.005000000000000001
  endloop
endfacet
facet normal -0.764333 -0.644821 1.49173e-15
  outer loop
    vertex 0.0431887967906848 0.03645635241813466 0.02
    vertex 0.03703759592567202 0.04374762290176158 0.02
    vertex 0.04011319635817841 0.04010198765994812 0.015
  endloop
endfacet
facet normal -0.740887 0.671629 0
  outer loop
    vertex 0.0431887967906848 0.03645635241813466 0.02
    vertex 0.0431887967906848 0.03645635241813466 0.009999999999999972
    vertex 0.03988395504441992 0.03281071717632119 0.015
  endloop
endfacet
facet normal -0.740887 0.671629 0
  outer loop
    vertex 0.03657911329815505 0.02916508193450772 0
    vertex 0.03657911329815505 0.02916508193450772 0.01000000000000003
    vertex 0.03988395504441992 0.03281071717632119 0.005000000000000001
  endloop
endfacet
facet normal -0.740887 0.671629 0
  outer loop
    vertex 0.0431887967906848 0.03645635241813466 0.009999999999999972
    vertex 0.0431887967906848 0.03645635241813466 0
    vertex 0.03988395504441992 0.03281071717632119 0.005000000000000001
  endloop
endfacet
facet normal -0.740887 0.671629 0
  outer loop
    vertex 0.03657911329815505 0.02916508193450772 0.01000000000000003
    vertex 0.03657911329815505 0.02916508193450772 0.02
    vertex 0.03988395504441992 0.03281071717632119 0.015
  endloop
endfacet
facet normal -0.740887 0.671629 -4.81989e-16
  outer loop
    vertex 0.0431887967906848 0.03645635241813466 0.009999999999999972
    vertex 0.03657911329815505 0.02916508193450772 0.01000000000000003
    vertex 0.03988395504441992 0.03281071717632119 0.015
  endloop
endfacet
facet normal -0.740887 0.671629 -4.81989e-16
  outer loop
    vertex 0.0431887967906848 0.03645635241813466 0
    vertex 0.03657911329815505 0.02916508193450772 0
    vertex 0.03988395504441992 0.03281071717632119 0.005000000000000001
  endloop
endfacet
facet normal -0.740887 0.671629 5.50845e-16
  outer loop
    vertex 0.03657911329815505 0.02916508193450772 0.02
    vertex 0.0431887967906848 0.03645635241813466 0.02
    vertex 0.03988395504441992 0.03281071717632119 0.015
  endloop
endfacet
facet normal -0.740887 0.671629 5.50845e-16
  outer loop
    vertex 0.03657911329815505 0.02916508193450772 0.01000000000000003
    vertex 0.0431887967906848 0.03645635241813466 0.009999999999999972
    vertex 0.03988395504441992 0.03281071717632119 0.005000000000000001
  endloop
endfacet
facet normal -0.450489 0.892782 -1.05573e-16
  outer loop
    vertex 0.02935417424515152 0.02551944669269426 0
    vertex 0.02212923519214798 0.02187381145088079 0
    vertex 0.02973273936296107 0.0257104670355211 0.007931369992050392
  endloop
endfacet
facet normal -0.450489 0.892782 0
  outer loop
    vertex 0.02212923519214798 0.02187381145088079 0
    vertex 0.02212923519214798 0.02187381145088079 0.01000000000000003
    vertex 0.02973273936296107 0.0257104670355211 0.007931369992050392
  endloop
endfacet
facet normal -0.450489 0.892782 -1.05573e-16
  outer loop
    vertex 0.03657911329815505 0.02916508193450772 0
    vertex 0.02935417424515152 0.02551944669269426 0
    vertex 0.02973273936296107 0.0257104670355211 0.007931369992050392
  endloop
endfacet
facet normal -0.450489 0.892782 0
  outer loop
    vertex 0.03657911329815505 0.02916508193450772 0.009999999999999972
    vertex 0.03657911329815505 0.02916508193450772 0
    vertex 0.02973273936296107 0.0257104670355211 0.007931369992050392
  endloop
endfacet
facet normal -0.450489 0.892782 0
  outer loop
    vertex 0.03657911329815505 0.02916508193450772 0.02
    vertex 0.03657911329815505 0.02916508193450772 0.009999999999999972
    vertex 0.03188057901109203 0.02679424640826686 0.01436063348449023
  endloop
endfacet
facet normal -0.450489 0.892782 0
  outer loop
    vertex 0.02212923519214798 0.02187381145088079 0.01000000000000003
    vertex 0.02212923519214798 0.02187381145088079 0.02
    vertex 0.02704519260070011 0.02435435660764876 0.01445840069530813
  endloop
endfacet
facet normal -0.450489 0.892782 -3.02201e-16
  outer loop
    vertex 0.02212923519214798 0.02187381145088079 0.02
    vertex 0.02935417424515151 0.02551944669269426 0.02
    vertex 0.02704519260070011 0.02435435660764876 0.01445840069530813
  endloop
endfacet
facet normal -0.450489 0.892782 2.96962e-16
  outer loop
    vertex 0.02935417424515151 0.02551944669269426 0.02
    vertex 0.03657911329815505 0.02916508193450772 0.02
    vertex 0.03188057901109203 0.02679424640826686 0.01436063348449023
  endloop
endfacet
facet normal -0.450489 0.892782 0
  outer loop
    vertex 0.02973273936296107 0.0257104670355211 0.007931369992050392
    vertex 0.02212923519214798 0.02187381145088079 0.01000000000000003
    vertex 0.02704519260070011 0.02435435660764876 0.01445840069530813
  endloop
endfacet
facet normal -0.450489 0.892782 -5.35048e-16
  outer loop
    vertex 0.03188057901109203 0.02679424640826686 0.01436063348449023
    vertex 0.03657911329815505 0.02916508193450772 0.009999999999999972
    vertex 0.02973273936296107 0.0257104670355211 0.007931369992050392
  endloop
endfacet
facet normal -0.450489 0.892782 -3.14104e-16
  outer loop
    vertex 0.03188057901109203 0.02679424640826686 0.01436063348449023
    vertex 0.02973273936296107 0.0257104670355211 0.007931369992050392
    vertex 0.02704519260070011 0.02435435660764876 0.01445840069530813
  endloop
endfacet
facet normal -0.450489 0.892782 -1.11943e-16
  outer loop
    vertex 0.02935417424515151 0.02551944669269426 0.02
    vertex 0.03188057901109203 0.02679424640826686 0.01436063348449023
    vertex 0.02704519260070011 0.02435435660764876 0.01445840069530813
  endloop
endfacet
facet normal -0.997286 -0.0736229 0
  outer loop
    vertex 0.02212923519214798 0.02187381145088079 0
    vertex 0.02266750015937841 0.01458254096725387 0
    vertex 0.02239836767576319 0.01822817620906733 0.005
  endloop
endfacet
facet normal -0.997286 -0.0736229 0
  outer loop
    vertex 0.02212923519214798 0.02187381145088079 0.009999999999999972
    vertex 0.02266750015937841 0.01458254096725387 0.01000000000000003
    vertex 0.02239836767576319 0.01822817620906733 0.015
  endloop
endfacet
facet normal -0.997286 -0.0736229 0
  outer loop
    vertex 0.02266750015937841 0.01458254096725387 0.02
    vertex 0.02212923519214798 0.02187381145088079 0.02
    vertex 0.02239836767576319 0.01822817620906733 0.015
  endloop
endfacet
facet normal -0.997286 -0.0736229 0
  outer loop
    vertex 0.02266750015937841 0.01458254096725387 0.01000000000000003
    vertex 0.02212923519214798 0.02187381145088079 0.009999999999999972
    vertex 0.02239836767576319 0.01822817620906733 0.005
  endloop
endfacet
facet normal -0.997286 -0.0736229 -0
  outer loop
    vertex 0.02212923519214798 0.02187381145088079 0.009999999999999972
    vertex 0.02212923519214798 0.02187381145088079 0
    vertex 0.02239836767576319 0.01822817620906733 0.005
  endloop
endfacet
facet normal -0.997286 -0.0736229 -0
  outer loop
    vertex 0.02212923519214798 0.02187381145088079 0.02
    vertex 0.02212923519214798 0.02187381145088079 0.009999999999999972
    vertex 0.02239836767576319 0.01822817620906733 0.015
  endloop
endfacet
facet normal -0.997286 -0.0736229 0
  outer loop
    vertex 0.02266750015937841 0.01458254096725387 0
    vertex 0.02266750015937841 0.01458254096725387 0.01000000000000003
    vertex 0.02239836767576319 0.01822817620906733 0.005
  endloop
endfacet
facet normal -0.997286 -0.0736229 0
  outer loop
    vertex 0.02266750015937841 0.01458254096725387 0.01000000000000003
    vertex 0.02266750015937841 0.01458254096725387 0.02
    vertex 0.02239836767576319 0.01822817620906733 0.015
  endloop
endfacet
facet normal -0.902796 -0.430069 -0
  outer loop
    vertex 0.02266750015937841 0.01458254096725387 0.02
    vertex 0.02266750015937841 0.01458254096725387 0.009999999999999972
    vertex 0.02440418897264165 0.0109369057254404 0.015
  endloop
endfacet
facet normal -0.902796 -0.430069 0
  outer loop
    vertex 0.02614087778590489 0.007291270483626933 0
    vertex 0.02614087778590489 0.007291270483626933 0.01000000000000003
    vertex 0.02440418897264165 0.0109369057254404 0.004999999999999999
  endloop
endfacet
facet normal -0.902796 -0.430069 -0
  outer loop
    vertex 0.02266750015937841 0.01458254096725387 0.009999999999999972
    vertex 0.02266750015937841 0.01458254096725387 0
    vertex 0.02440418897264165 0.0109369057254404 0.004999999999999999
  endloop
endfacet
facet normal -0.902796 -0.430069 0
  outer loop
    vertex 0.02614087778590489 0.007291270483626933 0.01000000000000003
    vertex 0.02614087778590489 0.007291270483626933 0.02
    vertex 0.02440418897264165 0.0109369057254404 0.015
  endloop
endfacet
facet normal -0.902796 -0.430069 7.55126e-16
  outer loop
    vertex 0.02614087778590489 0.007291270483626933 0.02
    vertex 0.02266750015937841 0.01458254096725387 0.02
    vertex 0.02440418897264165 0.0109369057254404 0.015
  endloop
endfacet
facet normal -0.902796 -0.430069 7.55126e-16
  outer loop
    vertex 0.02614087778590489 0.007291270483626933 0.01000000000000003
    vertex 0.02266750015937841 0.01458254096725387 0.009999999999999972
    vertex 0.02440418897264165 0.0109369057254404 0.004999999999999999
  endloop
endfacet
facet normal -0.902796 -0.430069 -7.55126e-16
  outer loop
    vertex 0.02266750015937841 0.01458254096725387 0
    vertex 0.02614087778590489 0.007291270483626933 0
    vertex 0.02440418897264165 0.0109369057254404 0.004999999999999999
  endloop
endfacet
facet normal -0.902796 -0.430069 -7.55126e-16
  outer loop
    vertex 0.02266750015937841 0.01458254096725387 0.009999999999999972
    vertex 0.02614087778590489 0.007291270483626933 0.01000000000000003
    vertex 0.02440418897264165 0.0109369057254404 0.015
  endloop
endfacet
endsolid Created by Gmsh
