solid Created by Gmsh
facet normal -0.583363 -0.812211 0
  outer loop
    vertex 0.04329568541019774 0.0514639860643042 0.01000000000000003
    vertex 0.03817762674897084 0.05513998506889736 0.02
    vertex 0.03305956808774393 0.05881598407349051 0.009999999999999972
  endloop
endfacet
facet normal -0.583363 -0.812211 0
  outer loop
    vertex 0.03817762674897084 0.05513998506889736 0
    vertex 0.04329568541019774 0.0514639860643042 0.01000000000000003
    vertex 0.03305956808774393 0.05881598407349051 0.009999999999999972
  endloop
endfacet
facet normal -0.583363 -0.812211 0
  outer loop
    vertex 0.03817762674897084 0.05513998506889736 0
    vertex 0.03305956808774393 0.05881598407349051 0.009999999999999972
    vertex 0.03305956808774393 0.05881598407349051 0
  endloop
endfacet
facet normal -0.583363 -0.812211 0
  outer loop
    vertex 0.03305956808774393 0.05881598407349051 0.009999999999999972
    vertex 0.03817762674897084 0.05513998506889736 0.02
    vertex 0.03305956808774393 0.05881598407349051 0.02
  endloop
endfacet
facet normal -0.583363 -0.812211 -0
  outer loop
    vertex 0.04329568541019774 0.0514639860643042 0.01000000000000003
    vertex 0.03817762674897084 0.05513998506889736 0
    vertex 0.04329568541019774 0.0514639860643042 0
  endloop
endfacet
facet normal -0.583363 -0.812211 0
  outer loop
    vertex 0.03817762674897084 0.05513998506889736 0.02
    vertex 0.04329568541019774 0.0514639860643042 0.01000000000000003
    vertex 0.04329568541019774 0.0514639860643042 0.02
  endloop
endfacet
facet normal -0.382276 0.924048 -9.27927e-17
  outer loop
    vertex 0.04329568541019774 0.0514639860643042 0
    vertex 0.03440997021445329 0.04778798705971104 0
    vertex 0.0363600138013648 0.04859471540137937 0.007594138709729324
  endloop
endfacet
facet normal -0.382276 0.924048 0
  outer loop
    vertex 0.04329568541019774 0.0514639860643042 0.009999999999999972
    vertex 0.04329568541019774 0.0514639860643042 0
    vertex 0.0363600138013648 0.04859471540137937 0.007594138709729324
  endloop
endfacet
facet normal -0.382276 0.924048 0
  outer loop
    vertex 0.02552425501870886 0.04411198805511789 0.01000000000000003
    vertex 0.02552425501870886 0.04411198805511789 0.02
    vertex 0.03209287776329674 0.04682941148572899 0.01303246700432152
  endloop
endfacet
facet normal -0.382276 0.924048 7.58533e-16
  outer loop
    vertex 0.02552425501870886 0.04411198805511789 0.02
    vertex 0.03440997021445331 0.04778798705971105 0.02
    vertex 0.03209287776329674 0.04682941148572899 0.01303246700432152
  endloop
endfacet
facet normal -0.382276 0.924048 0
  outer loop
    vertex 0.04329568541019774 0.0514639860643042 0.02
    vertex 0.04329568541019774 0.0514639860643042 0.009999999999999972
    vertex 0.03798751811017258 0.04926801001946635 0.01417482926943398
  endloop
endfacet
facet normal -0.382276 0.924048 0
  outer loop
    vertex 0.02552425501870886 0.04411198805511789 0
    vertex 0.02552425501870886 0.04411198805511789 0.01000000000000003
    vertex 0.02996711261658107 0.04594998755741447 0.005000000000000014
  endloop
endfacet
facet normal -0.382276 0.924048 -9.86553e-16
  outer loop
    vertex 0.03440997021445329 0.04778798705971104 0
    vertex 0.02552425501870886 0.04411198805511789 0
    vertex 0.02996711261658107 0.04594998755741447 0.005000000000000014
  endloop
endfacet
facet normal -0.382276 0.924048 2.117e-16
  outer loop
    vertex 0.03440997021445331 0.04778798705971105 0.02
    vertex 0.04329568541019774 0.0514639860643042 0.02
    vertex 0.03798751811017258 0.04926801001946635 0.01417482926943398
  endloop
endfacet
facet normal -0.382276 0.924048 5.40772e-16
  outer loop
    vertex 0.02552425501870886 0.04411198805511789 0.01000000000000003
    vertex 0.03209287776329674 0.04682941148572899 0.01303246700432152
    vertex 0.02996711261658107 0.04594998755741447 0.005000000000000014
  endloop
endfacet
facet normal -0.382276 0.924048 1.87836e-16
  outer loop
    vertex 0.03209287776329674 0.04682941148572899 0.01303246700432152
    vertex 0.0363600138013648 0.04859471540137937 0.007594138709729324
    vertex 0.02996711261658107 0.04594998755741447 0.005000000000000014
  endloop
endfacet
facet normal -0.382276 0.924048 3.09508e-16
  outer loop
    vertex 0.03798751811017258 0.04926801001946635 0.01417482926943398
    vertex 0.04329568541019774 0.0514639860643042 0.009999999999999972
    vertex 0.0363600138013648 0.04859471540137937 0.007594138709729324
  endloop
endfacet
facet normal -0.382276 0.924048 -2.51962e-16
  outer loop
    vertex 0.0363600138013648 0.04859471540137937 0.007594138709729324
    vertex 0.03440997021445329 0.04778798705971104 0
    vertex 0.02996711261658107 0.04594998755741447 0.005000000000000014
  endloop
endfacet
facet normal -0.382276 0.924048 2.11932e-16
  outer loop
    vertex 0.03798751811017258 0.04926801001946635 0.01417482926943398
    vertex 0.0363600138013648 0.04859471540137937 0.007594138709729324
    vertex 0.03209287776329674 0.04682941148572899 0.01303246700432152
  endloop
endfacet
facet normal -0.382276 0.924048 7.02764e-16
  outer loop
    vertex 0.03440997021445331 0.04778798705971105 0.02
    vertex 0.03798751811017258 0.04926801001946635 0.01417482926943398
    vertex 0.03209287776329674 0.04682941148572899 0.01303246700432152
  endloop
endfacet
facet normal -0.485738 -0.874104 -4.68998e-16
  outer loop
    vertex 0.02552425501870886 0.04411198805511789 0
    vertex 0.0321393499331158 0.04043598905052473 0
    vertex 0.03223577988813631 0.04038240305920412 0.007636705448764538
  endloop
endfacet
facet normal -0.485738 -0.874104 -4.45182e-16
  outer loop
    vertex 0.0321393499331158 0.04043598905052473 0
    vertex 0.03875444484752273 0.03675999004593157 0
    vertex 0.03223577988813631 0.04038240305920412 0.007636705448764538
  endloop
endfacet
facet normal -0.485738 -0.874104 0
  outer loop
    vertex 0.03875444484752273 0.03675999004593157 0
    vertex 0.03875444484752273 0.03675999004593157 0.01000000000000003
    vertex 0.03223577988813631 0.04038240305920412 0.007636705448764538
  endloop
endfacet
facet normal -0.485738 -0.874104 -0
  outer loop
    vertex 0.02552425501870886 0.04411198805511789 0.009999999999999972
    vertex 0.02552425501870886 0.04411198805511789 0
    vertex 0.03223577988813631 0.04038240305920412 0.007636705448764538
  endloop
endfacet
facet normal -0.485738 -0.874104 -0
  outer loop
    vertex 0.02552425501870886 0.04411198805511789 0.02
    vertex 0.02552425501870886 0.04411198805511789 0.009999999999999972
    vertex 0.03015482145879372 0.04153878875190268 0.01464091325887426
  endloop
endfacet
facet normal -0.485738 -0.874104 0
  outer loop
    vertex 0.03875444484752273 0.03675999004593157 0.01000000000000003
    vertex 0.03875444484752273 0.03675999004593157 0.02
    vertex 0.03470466225081854 0.03901044857856443 0.01461108838680555
  endloop
endfacet
facet normal -0.485738 -0.874104 -9.18945e-16
  outer loop
    vertex 0.03213934993311579 0.04043598905052473 0.02
    vertex 0.02552425501870886 0.04411198805511789 0.02
    vertex 0.03015482145879372 0.04153878875190268 0.01464091325887426
  endloop
endfacet
facet normal -0.485738 -0.874104 -9.13859e-16
  outer loop
    vertex 0.03875444484752273 0.03675999004593157 0.02
    vertex 0.03213934993311579 0.04043598905052473 0.02
    vertex 0.03470466225081854 0.03901044857856443 0.01461108838680555
  endloop
endfacet
facet normal -0.485738 -0.874104 8.38026e-16
  outer loop
    vertex 0.03015482145879372 0.04153878875190268 0.01464091325887426
    vertex 0.03223577988813631 0.04038240305920412 0.007636705448764538
    vertex 0.03470466225081854 0.03901044857856443 0.01461108838680555
  endloop
endfacet
facet normal -0.485738 -0.874104 -1.07536e-15
  outer loop
    vertex 0.03213934993311579 0.04043598905052473 0.02
    vertex 0.03015482145879372 0.04153878875190268 0.01464091325887426
    vertex 0.03470466225081854 0.03901044857856443 0.01461108838680555
  endloop
endfacet
facet normal -0.485738 -0.874104 8.2206e-16
  outer loop
    vertex 0.03223577988813631 0.04038240305920412 0.007636705448764538
    vertex 0.03875444484752273 0.03675999004593157 0.01000000000000003
    vertex 0.03470466225081854 0.03901044857856443 0.01461108838680555
  endloop
endfacet
facet normal -0.485738 -0.874104 7.91565e-16
  outer loop
    vertex 0.03015482145879372 0.04153878875190268 0.01464091325887426
    vertex 0.02552425501870886 0.04411198805511789 0.009999999999999972
    vertex 0.03223577988813631 0.04038240305920412 0.007636705448764538
  endloop
endfacet
facet normal -0.893006 0.450046 0
  outer loop
    vertex 0.03875444484752273 0.03675999004593157 0.02
    vertex 0.03875444484752273 0.03675999004593157 0.009999999999999972
    vertex 0.03690186173523231 0.03308399104133841 0.015
  endloop
endfacet
facet normal -0.893006 0.450046 0
  outer loop
    vertex 0.0350492786229419 0.02940799203674526 0
    vertex 0.0350492786229419 0.02940799203674526 0.01000000000000003
    vertex 0.03690186173523231 0.03308399104133841 0.005000000000000001
  endloop
endfacet
facet normal -0.893006 0.450046 0
  outer loop
    vertex 0.03875444484752273 0.03675999004593157 0.009999999999999972
    vertex 0.03875444484752273 0.03675999004593157 0
    vertex 0.03690186173523231 0.03308399104133841 0.005000000000000001
  endloop
endfacet
facet normal -0.893006 0.450046 0
  outer loop
    vertex 0.0350492786229419 0.02940799203674526 0.01000000000000003
    vertex 0.0350492786229419 0.02940799203674526 0.02
    vertex 0.03690186173523231 0.03308399104133841 0.015
  endloop
endfacet
facet normal -0.893006 0.450046 1.64615e-16
  outer loop
    vertex 0.03875444484752273 0.03675999004593157 0
    vertex 0.0350492786229419 0.02940799203674526 0
    vertex 0.03690186173523231 0.03308399104133841 0.005000000000000001
  endloop
endfacet
facet normal -0.893006 0.450046 -1.64615e-16
  outer loop
    vertex 0.0350492786229419 0.02940799203674526 0.02
    vertex 0.03875444484752273 0.03675999004593157 0.02
    vertex 0.03690186173523231 0.03308399104133841 0.015
  endloop
endfacet
facet normal -0.893006 0.450046 1.64615e-16
  outer loop
    vertex 0.03875444484752273 0.03675999004593157 0.009999999999999972
    vertex 0.0350492786229419 0.02940799203674526 0.01000000000000003
    vertex 0.03690186173523231 0.03308399104133841 0.015
  endloop
endfacet
facet normal -0.893006 0.450046 -1.64615e-16
  outer loop
    vertex 0.0350492786229419 0.02940799203674526 0.01000000000000003
    vertex 0.03875444484752273 0.03675999004593157 0.009999999999999972
    vertex 0.03690186173523231 0.03308399104133841 0.005000000000000001
  endloop
endfacet
facet normal -0.921047 -0.389452 -0
  outer loop
    vertex 0.0350492786229419 0.02940799203674526 0.02
    vertex 0.0350492786229419 0.02940799203674526 0.009999999999999972
    vertex 0.03660362403854039 0.0257319930321521 0.015
  endloop
endfacet
facet normal -0.921047 -0.389452 0
  outer loop
    vertex 0.0381579694541389 0.02205599402755894 0
    vertex 0.0381579694541389 0.02205599402755894 0.01000000000000003
    vertex 0.03660362403854039 0.0257319930321521 0.005
  endloop
endfacet
facet normal -0.921047 -0.389452 0
  outer loop
    vertex 0.0381579694541389 0.02205599402755894 0.01000000000000003
    vertex 0.0381579694541389 0.02205599402755894 0.02
    vertex 0.03660362403854039 0.0257319930321521 0.015
  endloop
endfacet
facet normal -0.921047 -0.389452 -0
  outer loop
    vertex 0.0350492786229419 0.02940799203674526 0.009999999999999972
    vertex 0.0350492786229419 0.02940799203674526 0
    vertex 0.03660362403854039 0.0257319930321521 0.005
  endloop
endfacet
facet normal -0.921047 -0.389452 8.06474e-16
  outer loop
    vertex 0.0381579694541389 0.02205599402755894 0.01000000000000003
    vertex 0.0350492786229419 0.02940799203674526 0.009999999999999972
    vertex 0.03660362403854039 0.0257319930321521 0.005
  endloop
endfacet
facet normal -0.921047 -0.389452 -7.64028e-16
  outer loop
    vertex 0.0350492786229419 0.02940799203674526 0.009999999999999972
    vertex 0.0381579694541389 0.02205599402755894 0.01000000000000003
    vertex 0.03660362403854039 0.0257319930321521 0.015
  endloop
endfacet
facet normal -0.921047 -0.389452 8.06474e-16
  outer loop
    vertex 0.0381579694541389 0.02205599402755894 0.02
    vertex 0.0350492786229419 0.02940799203674526 0.02
    vertex 0.03660362403854039 0.0257319930321521 0.015
  endloop
endfacet
facet normal -0.921047 -0.389452 -7.64028e-16
  outer loop
    vertex 0.0350492786229419 0.02940799203674526 0
    vertex 0.0381579694541389 0.02205599402755894 0
    vertex 0.03660362403854039 0.0257319930321521 0.005
  endloop
endfacet
facet normal -0.440006 0.897995 -5.85604e-16
  outer loop
    vertex 0.03065573457488846 0.01837999502296579 0.02
    vertex 0.0381579694541389 0.02205599402755894 0.02
    vertex 0.02999761038727172 0.01805752260007897 0.01212245621081515
  endloop
endfacet
facet normal -0.440006 0.897995 0
  outer loop
    vertex 0.0381579694541389 0.02205599402755894 0.02
    vertex 0.0381579694541389 0.02205599402755894 0.009999999999999972
    vertex 0.02999761038727172 0.01805752260007897 0.01212245621081515
  endloop
endfacet
facet normal -0.440006 0.897995 -5.66298e-16
  outer loop
    vertex 0.02315349969563803 0.01470399601837263 0.02
    vertex 0.03065573457488846 0.01837999502296579 0.02
    vertex 0.02999761038727172 0.01805752260007897 0.01212245621081515
  endloop
endfacet
facet normal -0.440006 0.897995 0
  outer loop
    vertex 0.02315349969563803 0.01470399601837263 0.01000000000000003
    vertex 0.02315349969563803 0.01470399601837263 0.02
    vertex 0.02999761038727172 0.01805752260007897 0.01212245621081515
  endloop
endfacet
facet normal -0.440006 0.897995 0
  outer loop
    vertex 0.0381579694541389 0.02205599402755894 0.009999999999999972
    vertex 0.0381579694541389 0.02205599402755894 0
    vertex 0.03288687885026724 0.01947322714211473 0.005885811238882722
  endloop
endfacet
facet normal -0.440006 0.897995 0
  outer loop
    vertex 0.02315349969563803 0.01470399601837263 0
    vertex 0.02315349969563803 0.01470399601837263 0.01000000000000003
    vertex 0.027949271270347 0.01705386266726215 0.005669851349685936
  endloop
endfacet
facet normal -0.440006 0.897995 4.13417e-16
  outer loop
    vertex 0.0381579694541389 0.02205599402755894 0
    vertex 0.03065573457488847 0.01837999502296579 0
    vertex 0.03288687885026724 0.01947322714211473 0.005885811238882722
  endloop
endfacet
facet normal -0.440006 0.897995 -3.05878e-16
  outer loop
    vertex 0.02999761038727172 0.01805752260007897 0.01212245621081515
    vertex 0.0381579694541389 0.02205599402755894 0.009999999999999972
    vertex 0.03288687885026724 0.01947322714211473 0.005885811238882722
  endloop
endfacet
facet normal -0.440006 0.897995 1.78818e-16
  outer loop
    vertex 0.03065573457488847 0.01837999502296579 0
    vertex 0.02315349969563803 0.01470399601837263 0
    vertex 0.027949271270347 0.01705386266726215 0.005669851349685936
  endloop
endfacet
facet normal -0.440006 0.897995 1.91042e-17
  outer loop
    vertex 0.027949271270347 0.01705386266726215 0.005669851349685936
    vertex 0.02315349969563803 0.01470399601837263 0.01000000000000003
    vertex 0.02999761038727172 0.01805752260007897 0.01212245621081515
  endloop
endfacet
facet normal -0.440006 0.897995 4.842e-17
  outer loop
    vertex 0.027949271270347 0.01705386266726215 0.005669851349685936
    vertex 0.02999761038727172 0.01805752260007897 0.01212245621081515
    vertex 0.03288687885026724 0.01947322714211473 0.005885811238882722
  endloop
endfacet
facet normal -0.440006 0.897995 2.39527e-16
  outer loop
    vertex 0.03065573457488847 0.01837999502296579 0
    vertex 0.027949271270347 0.01705386266726215 0.005669851349685936
    vertex 0.03288687885026724 0.01947322714211473 0.005885811238882722
  endloop
endfacet
facet normal -0.334997 -0.942219 0
  outer loop
    vertex 0.04383188435571328 0.007351998009186317 0.01000000000000003
    vertex 0.04383188435571328 0.007351998009186317 0.02
    vertex 0.03585840641073092 0.01018689033474517 0.01173455499802705
  endloop
endfacet
facet normal -0.334997 -0.942219 3.73559e-16
  outer loop
    vertex 0.04383188435571328 0.007351998009186317 0.02
    vertex 0.03349269202567567 0.01102799701377946 0.02
    vertex 0.03585840641073092 0.01018689033474517 0.01173455499802705
  endloop
endfacet
facet normal -0.334997 -0.942219 -1.66281e-16
  outer loop
    vertex 0.02315349969563803 0.01470399601837263 0
    vertex 0.03349269202567563 0.01102799701377948 0
    vertex 0.03007317513881401 0.01224377289559316 0.007427518244450037
  endloop
endfacet
facet normal -0.334997 -0.942219 -0
  outer loop
    vertex 0.02315349969563803 0.01470399601837263 0.009999999999999972
    vertex 0.02315349969563803 0.01470399601837263 0
    vertex 0.03007317513881401 0.01224377289559316 0.007427518244450037
  endloop
endfacet
facet normal -0.334997 -0.942219 -3.08763e-16
  outer loop
    vertex 0.03349269202567563 0.01102799701377948 0
    vertex 0.04383188435571328 0.007351998009186317 0
    vertex 0.03871201249273506 0.00917231852080639 0.005000000000000014
  endloop
endfacet
facet normal -0.334997 -0.942219 5.54855e-16
  outer loop
    vertex 0.03349269202567567 0.01102799701377946 0.02
    vertex 0.02315349969563803 0.01470399601837263 0.02
    vertex 0.02911057476210518 0.01258601607220208 0.01387877096771647
  endloop
endfacet
facet normal -0.334997 -0.942219 0
  outer loop
    vertex 0.04383188435571328 0.007351998009186317 0
    vertex 0.04383188435571328 0.007351998009186317 0.01000000000000003
    vertex 0.03871201249273506 0.00917231852080639 0.005000000000000014
  endloop
endfacet
facet normal -0.334997 -0.942219 -0
  outer loop
    vertex 0.02315349969563803 0.01470399601837263 0.02
    vertex 0.02315349969563803 0.01470399601837263 0.009999999999999972
    vertex 0.02911057476210518 0.01258601607220208 0.01387877096771647
  endloop
endfacet
facet normal -0.334997 -0.942219 -2.00008e-16
  outer loop
    vertex 0.03007317513881401 0.01224377289559316 0.007427518244450037
    vertex 0.03349269202567563 0.01102799701377948 0
    vertex 0.03871201249273506 0.00917231852080639 0.005000000000000014
  endloop
endfacet
facet normal -0.334997 -0.942219 -1.86864e-16
  outer loop
    vertex 0.03585840641073092 0.01018689033474517 0.01173455499802705
    vertex 0.03007317513881401 0.01224377289559316 0.007427518244450037
    vertex 0.03871201249273506 0.00917231852080639 0.005000000000000014
  endloop
endfacet
facet normal -0.334997 -0.942219 4.4862e-16
  outer loop
    vertex 0.03349269202567567 0.01102799701377946 0.02
    vertex 0.02911057476210518 0.01258601607220208 0.01387877096771647
    vertex 0.03585840641073092 0.01018689033474517 0.01173455499802705
  endloop
endfacet
facet normal -0.334997 -0.942219 -3.27435e-17
  outer loop
    vertex 0.04383188435571328 0.007351998009186317 0.01000000000000003
    vertex 0.03585840641073092 0.01018689033474517 0.01173455499802705
    vertex 0.03871201249273506 0.00917231852080639 0.005000000000000014
  endloop
endfacet
facet normal -0.334997 -0.942219 -2.30952e-16
  outer loop
    vertex 0.03585840641073092 0.01018689033474517 0.01173455499802705
    vertex 0.02911057476210518 0.01258601607220208 0.01387877096771647
    vertex 0.03007317513881401 0.01224377289559316 0.007427518244450037
  endloop
endfacet
facet normal -0.334997 -0.942219 -2.83922e-16
  outer loop
    vertex 0.02911057476210518 0.01258601607220208 0.01387877096771647
    vertex 0.02315349969563803 0.01470399601837263 0.009999999999999972
    vertex 0.03007317513881401 0.01224377289559316 0.007427518244450037
  endloop
endfacet
endsolid Created by Gmsh
