solid Created by Gmsh
facet normal 1 0 -0
  outer loop
    vertex 0.04 0.05349217318950768 0
    vertex 0.04 0.06 0.009999999999999972
    vertex 0.04 0.04698434637901534 0.01000000000000003
  endloop
endfacet
facet normal 1 -0 0
  outer loop
    vertex 0.04 0.04698434637901534 0.01000000000000003
    vertex 0.04 0.06 0.009999999999999972
    vertex 0.04 0.05349217318950766 0.02
  endloop
endfacet
facet normal 1 0 0
  outer loop
    vertex 0.04 0.05349217318950768 0
    vertex 0.04 0.06 0
    vertex 0.04 0.06 0.009999999999999972
  endloop
endfacet
facet normal 1 0 -0
  outer loop
    vertex 0.04 0.06 0.009999999999999972
    vertex 0.04 0.06 0.02
    vertex 0.04 0.05349217318950766 0.02
  endloop
endfacet
facet normal 1 0 0
  outer loop
    vertex 0.04 0.04698434637901534 0.01000000000000003
    vertex 0.04 0.04698434637901534 0
    vertex 0.04 0.05349217318950768 0
  endloop
endfacet
facet normal 1 0 0
  outer loop
    vertex 0.04 0.05349217318950766 0.02
    vertex 0.04 0.04698434637901534 0.02
    vertex 0.04 0.04698434637901534 0.01000000000000003
  endloop
endfacet
facet normal 0.631904 0.775047 -0
  outer loop
    vertex 0.04720344903060044 0.04111130308163843 0
    vertex 0.04360172451530021 0.04404782473032688 0.004999999999999999
    vertex 0.04720344903060044 0.04111130308163843 0.01000000000000003
  endloop
endfacet
facet normal 0.631904 0.775047 0
  outer loop
    vertex 0.04 0.04698434637901534 0.02
    vertex 0.04360172451530021 0.04404782473032688 0.015
    vertex 0.04 0.04698434637901534 0.009999999999999972
  endloop
endfacet
facet normal 0.631904 0.775047 -0
  outer loop
    vertex 0.04720344903060044 0.04111130308163843 0.01000000000000003
    vertex 0.04360172451530021 0.04404782473032688 0.015
    vertex 0.04720344903060044 0.04111130308163843 0.02
  endloop
endfacet
facet normal 0.631904 0.775047 0
  outer loop
    vertex 0.04 0.04698434637901534 0.009999999999999972
    vertex 0.04360172451530021 0.04404782473032688 0.004999999999999999
    vertex 0.04 0.04698434637901534 0
  endloop
endfacet
facet normal 0.631904 0.775047 1.45817e-15
  outer loop
    vertex 0.04 0.04698434637901534 0.009999999999999972
    vertex 0.04360172451530021 0.04404782473032688 0.015
    vertex 0.04720344903060044 0.04111130308163843 0.01000000000000003
  endloop
endfacet
facet normal 0.631904 0.775047 1.45817e-15
  outer loop
    vertex 0.04 0.04698434637901534 0
    vertex 0.04360172451530021 0.04404782473032688 0.004999999999999999
    vertex 0.04720344903060044 0.04111130308163843 0
  endloop
endfacet
facet normal 0.631904 0.775047 -1.38526e-15
  outer loop
    vertex 0.04720344903060044 0.04111130308163843 0.01000000000000003
    vertex 0.04360172451530021 0.04404782473032688 0.004999999999999999
    vertex 0.04 0.04698434637901534 0.009999999999999972
  endloop
endfacet
facet normal 0.631904 0.775047 -1.38526e-15
  outer loop
    vertex 0.04720344903060044 0.04111130308163843 0.02
    vertex 0.04360172451530021 0.04404782473032688 0.015
    vertex 0.04 0.04698434637901534 0.02
  endloop
endfacet
facet normal 0.304478 -0.952519 -3.2411e-16
  outer loop
    vertex 0.04720344903060044 0.04111130308163843 0
    vertex 0.04005487122617406 0.03882622374164155 0.007587305980691128
    vertex 0.03801691746795432 0.03817478143294997 0
  endloop
endfacet
facet normal 0.304478 -0.952519 0
  outer loop
    vertex 0.04720344903060044 0.04111130308163843 0.009999999999999972
    vertex 0.04005487122617406 0.03882622374164155 0.007587305980691128
    vertex 0.04720344903060044 0.04111130308163843 0
  endloop
endfacet
facet normal 0.304478 -0.952519 0
  outer loop
    vertex 0.0288303859053082 0.03523825978426151 0.01000000000000003
    vertex 0.03542876540742986 0.03734746543191088 0.01292894919703724
    vertex 0.0288303859053082 0.03523825978426151 0.02
  endloop
endfacet
facet normal 0.304478 -0.952519 1.04332e-15
  outer loop
    vertex 0.0288303859053082 0.03523825978426151 0.02
    vertex 0.03542876540742986 0.03734746543191088 0.01292894919703724
    vertex 0.03801691746795433 0.03817478143294997 0.02
  endloop
endfacet
facet normal 0.304478 -0.952519 0
  outer loop
    vertex 0.04720344903060044 0.04111130308163843 0.02
    vertex 0.04172263580337116 0.03935933319132424 0.01417118474062156
    vertex 0.04720344903060044 0.04111130308163843 0.009999999999999972
  endloop
endfacet
facet normal 0.304478 -0.952519 0
  outer loop
    vertex 0.0288303859053082 0.03523825978426151 0
    vertex 0.03342365168663126 0.03670652060860573 0.005000000000000015
    vertex 0.0288303859053082 0.03523825978426151 0.01000000000000003
  endloop
endfacet
facet normal 0.304478 -0.952519 1.08486e-15
  outer loop
    vertex 0.03801691746795433 0.03817478143294997 0.02
    vertex 0.04172263580337116 0.03935933319132424 0.01417118474062156
    vertex 0.04720344903060044 0.04111130308163843 0.02
  endloop
endfacet
facet normal 0.304478 -0.952519 -8.78259e-16
  outer loop
    vertex 0.03801691746795432 0.03817478143294997 0
    vertex 0.03342365168663126 0.03670652060860573 0.005000000000000015
    vertex 0.0288303859053082 0.03523825978426151 0
  endloop
endfacet
facet normal 0.304478 -0.952519 2.08455e-16
  outer loop
    vertex 0.0288303859053082 0.03523825978426151 0.01000000000000003
    vertex 0.03342365168663126 0.03670652060860573 0.005000000000000015
    vertex 0.03542876540742986 0.03734746543191088 0.01292894919703724
  endloop
endfacet
facet normal 0.304478 -0.952519 -9.36361e-17
  outer loop
    vertex 0.03542876540742986 0.03734746543191088 0.01292894919703724
    vertex 0.03342365168663126 0.03670652060860573 0.005000000000000015
    vertex 0.04005487122617406 0.03882622374164155 0.007587305980691128
  endloop
endfacet
facet normal 0.304478 -0.952519 -2.6243e-16
  outer loop
    vertex 0.04172263580337116 0.03935933319132424 0.01417118474062156
    vertex 0.04005487122617406 0.03882622374164155 0.007587305980691128
    vertex 0.04720344903060044 0.04111130308163843 0.009999999999999972
  endloop
endfacet
facet normal 0.304478 -0.952519 -3.58264e-16
  outer loop
    vertex 0.04005487122617406 0.03882622374164155 0.007587305980691128
    vertex 0.03342365168663126 0.03670652060860573 0.005000000000000015
    vertex 0.03801691746795432 0.03817478143294997 0
  endloop
endfacet
facet normal 0.304478 -0.952519 -1.33218e-16
  outer loop
    vertex 0.04172263580337116 0.03935933319132424 0.01417118474062156
    vertex 0.03542876540742986 0.03734746543191088 0.01292894919703724
    vertex 0.04005487122617406 0.03882622374164155 0.007587305980691128
  endloop
endfacet
facet normal 0.304478 -0.952519 1.16267e-15
  outer loop
    vertex 0.03801691746795433 0.03817478143294997 0.02
    vertex 0.03542876540742986 0.03734746543191088 0.01292894919703724
    vertex 0.04172263580337116 0.03935933319132424 0.01417118474062156
  endloop
endfacet
facet normal 0.537561 0.843225 0
  outer loop
    vertex 0.0288303859053082 0.03523825978426151 0
    vertex 0.03343665400032595 0.03230173813557305 0.005520616409829227
    vertex 0.0380429220953437 0.02936521648688459 0
  endloop
endfacet
facet normal 0.537561 0.843225 7.90319e-16
  outer loop
    vertex 0.0380429220953437 0.02936521648688459 0.02
    vertex 0.03343665400032594 0.03230173813557306 0.0145064877347891
    vertex 0.0288303859053082 0.03523825978426151 0.02
  endloop
endfacet
facet normal 0.537561 0.843225 -0
  outer loop
    vertex 0.0380429220953437 0.02936521648688459 0
    vertex 0.03343665400032595 0.03230173813557305 0.005520616409829227
    vertex 0.0380429220953437 0.02936521648688459 0.01000000000000003
  endloop
endfacet
facet normal 0.537561 0.843225 0
  outer loop
    vertex 0.0288303859053082 0.03523825978426151 0.02
    vertex 0.03343665400032594 0.03230173813557306 0.0145064877347891
    vertex 0.0288303859053082 0.03523825978426151 0.009999999999999972
  endloop
endfacet
facet normal 0.537561 0.843225 -4.72068e-16
  outer loop
    vertex 0.03343665400032595 0.03230173813557305 0.005520616409829227
    vertex 0.03343665400032594 0.03230173813557306 0.0145064877347891
    vertex 0.0380429220953437 0.02936521648688459 0.01000000000000003
  endloop
endfacet
facet normal 0.537561 0.843225 -4.83162e-16
  outer loop
    vertex 0.0288303859053082 0.03523825978426151 0.009999999999999972
    vertex 0.03343665400032594 0.03230173813557306 0.0145064877347891
    vertex 0.03343665400032595 0.03230173813557305 0.005520616409829227
  endloop
endfacet
facet normal 0.537561 0.843225 -0
  outer loop
    vertex 0.0380429220953437 0.02936521648688459 0.01000000000000003
    vertex 0.03343665400032594 0.03230173813557306 0.0145064877347891
    vertex 0.0380429220953437 0.02936521648688459 0.02
  endloop
endfacet
facet normal 0.537561 0.843225 0
  outer loop
    vertex 0.0288303859053082 0.03523825978426151 0.009999999999999972
    vertex 0.03343665400032595 0.03230173813557305 0.005520616409829227
    vertex 0.0288303859053082 0.03523825978426151 0
  endloop
endfacet
facet normal 0.32233 0.946627 -1.44661e-16
  outer loop
    vertex 0.0552910140627192 0.02349217318950767 0.02
    vertex 0.04816046508525577 0.02592015322103354 0.01228746660652472
    vertex 0.04666696807903145 0.02642869483819613 0.02
  endloop
endfacet
facet normal 0.32233 0.946627 -0
  outer loop
    vertex 0.0552910140627192 0.02349217318950767 0.01000000000000003
    vertex 0.04816046508525577 0.02592015322103354 0.01228746660652472
    vertex 0.0552910140627192 0.02349217318950767 0.02
  endloop
endfacet
facet normal 0.32233 0.946627 0
  outer loop
    vertex 0.0380429220953437 0.02936521648688459 0.009999999999999972
    vertex 0.04444726059031825 0.02718451398696821 0.006691915322837494
    vertex 0.0380429220953437 0.02936521648688459 0
  endloop
endfacet
facet normal 0.32233 0.946627 5.55748e-16
  outer loop
    vertex 0.0380429220953437 0.02936521648688459 0
    vertex 0.04444726059031825 0.02718451398696821 0.006691915322837494
    vertex 0.04666696807903145 0.02642869483819613 0
  endloop
endfacet
facet normal 0.32233 0.946627 0
  outer loop
    vertex 0.0380429220953437 0.02936521648688459 0.02
    vertex 0.04235494508718757 0.02789695566254036 0.01505054658043479
    vertex 0.0380429220953437 0.02936521648688459 0.009999999999999972
  endloop
endfacet
facet normal 0.32233 0.946627 -0
  outer loop
    vertex 0.0552910140627192 0.02349217318950767 0
    vertex 0.05001127569874946 0.02528994491226214 0.00576129706071932
    vertex 0.0552910140627192 0.02349217318950767 0.01000000000000003
  endloop
endfacet
facet normal 0.32233 0.946627 -3.3813e-16
  outer loop
    vertex 0.04666696807903145 0.02642869483819613 0.02
    vertex 0.04235494508718757 0.02789695566254036 0.01505054658043479
    vertex 0.0380429220953437 0.02936521648688459 0.02
  endloop
endfacet
facet normal 0.32233 0.946627 4.19586e-16
  outer loop
    vertex 0.04666696807903145 0.02642869483819613 0
    vertex 0.05001127569874946 0.02528994491226214 0.00576129706071932
    vertex 0.0552910140627192 0.02349217318950767 0
  endloop
endfacet
facet normal 0.32233 0.946627 -1.37623e-16
  outer loop
    vertex 0.0380429220953437 0.02936521648688459 0.009999999999999972
    vertex 0.04235494508718757 0.02789695566254036 0.01505054658043479
    vertex 0.04444726059031825 0.02718451398696821 0.006691915322837494
  endloop
endfacet
facet normal 0.32233 0.946627 -3.28271e-16
  outer loop
    vertex 0.04444726059031825 0.02718451398696821 0.006691915322837494
    vertex 0.04235494508718757 0.02789695566254036 0.01505054658043479
    vertex 0.04816046508525577 0.02592015322103354 0.01228746660652472
  endloop
endfacet
facet normal 0.32233 0.946627 -2.6537e-16
  outer loop
    vertex 0.05001127569874946 0.02528994491226214 0.00576129706071932
    vertex 0.04816046508525577 0.02592015322103354 0.01228746660652472
    vertex 0.0552910140627192 0.02349217318950767 0.01000000000000003
  endloop
endfacet
facet normal 0.32233 0.946627 -1.87395e-16
  outer loop
    vertex 0.04816046508525577 0.02592015322103354 0.01228746660652472
    vertex 0.04235494508718757 0.02789695566254036 0.01505054658043479
    vertex 0.04666696807903145 0.02642869483819613 0.02
  endloop
endfacet
facet normal 0.32233 0.946627 -2.78175e-16
  outer loop
    vertex 0.05001127569874946 0.02528994491226214 0.00576129706071932
    vertex 0.04444726059031825 0.02718451398696821 0.006691915322837494
    vertex 0.04816046508525577 0.02592015322103354 0.01228746660652472
  endloop
endfacet
facet normal 0.32233 0.946627 5.24393e-16
  outer loop
    vertex 0.04666696807903145 0.02642869483819613 0
    vertex 0.04444726059031825 0.02718451398696821 0.006691915322837494
    vertex 0.05001127569874946 0.02528994491226214 0.00576129706071932
  endloop
endfacet
facet normal 0.919022 -0.394207 1.53752e-15
  outer loop
    vertex 0.0552910140627192 0.02349217318950767 0.009999999999999972
    vertex 0.05403141810434965 0.02055565154081922 0.015
    vertex 0.05277182214598011 0.01761912989213076 0.01000000000000003
  endloop
endfacet
facet normal 0.919022 -0.394207 -1.53752e-15
  outer loop
    vertex 0.05277182214598011 0.01761912989213076 0.01000000000000003
    vertex 0.05403141810434965 0.02055565154081922 0.004999999999999999
    vertex 0.0552910140627192 0.02349217318950767 0.009999999999999972
  endloop
endfacet
facet normal 0.919022 -0.394207 -1.53752e-15
  outer loop
    vertex 0.05277182214598011 0.01761912989213076 0.02
    vertex 0.05403141810434965 0.02055565154081922 0.015
    vertex 0.0552910140627192 0.02349217318950767 0.02
  endloop
endfacet
facet normal 0.919022 -0.394207 1.53752e-15
  outer loop
    vertex 0.0552910140627192 0.02349217318950767 0
    vertex 0.05403141810434965 0.02055565154081922 0.004999999999999999
    vertex 0.05277182214598011 0.01761912989213076 0
  endloop
endfacet
facet normal 0.919022 -0.394207 0
  outer loop
    vertex 0.0552910140627192 0.02349217318950767 0.009999999999999972
    vertex 0.05403141810434965 0.02055565154081922 0.004999999999999999
    vertex 0.0552910140627192 0.02349217318950767 0
  endloop
endfacet
facet normal 0.919022 -0.394207 0
  outer loop
    vertex 0.0552910140627192 0.02349217318950767 0.02
    vertex 0.05403141810434965 0.02055565154081922 0.015
    vertex 0.0552910140627192 0.02349217318950767 0.009999999999999972
  endloop
endfacet
facet normal 0.919022 -0.394207 0
  outer loop
    vertex 0.05277182214598011 0.01761912989213076 0
    vertex 0.05403141810434965 0.02055565154081922 0.004999999999999999
    vertex 0.05277182214598011 0.01761912989213076 0.01000000000000003
  endloop
endfacet
facet normal 0.919022 -0.394207 0
  outer loop
    vertex 0.05277182214598011 0.01761912989213076 0.01000000000000003
    vertex 0.05403141810434965 0.02055565154081922 0.015
    vertex 0.05277182214598011 0.01761912989213076 0.02
  endloop
endfacet
facet normal 0.312594 -0.949887 -4.24487e-16
  outer loop
    vertex 0.05277182214598011 0.01761912989213076 0
    vertex 0.0456337475866487 0.01527009539645695 0.007646897229493641
    vertex 0.0438485345092796 0.01468260824344229 0
  endloop
endfacet
facet normal 0.312594 -0.949887 0
  outer loop
    vertex 0.05277182214598011 0.01761912989213076 0.009999999999999972
    vertex 0.0456337475866487 0.01527009539645695 0.007646897229493641
    vertex 0.05277182214598011 0.01761912989213076 0
  endloop
endfacet
facet normal 0.312594 -0.949887 0
  outer loop
    vertex 0.03492524687257909 0.01174608659475383 0.01000000000000003
    vertex 0.04145073098270934 0.01389352665695219 0.01308280522105449
    vertex 0.03492524687257909 0.01174608659475383 0.02
  endloop
endfacet
facet normal 0.312594 -0.949887 6.25689e-16
  outer loop
    vertex 0.03492524687257909 0.01174608659475383 0.02
    vertex 0.04145073098270934 0.01389352665695219 0.01308280522105449
    vertex 0.0438485345092796 0.01468260824344229 0.02
  endloop
endfacet
facet normal 0.312594 -0.949887 0
  outer loop
    vertex 0.05277182214598011 0.01761912989213076 0.02
    vertex 0.04738557938989543 0.01584659726712815 0.01420312148362384
    vertex 0.05277182214598011 0.01761912989213076 0.009999999999999972
  endloop
endfacet
facet normal 0.312594 -0.949887 0
  outer loop
    vertex 0.03492524687257909 0.01174608659475383 0
    vertex 0.03938689069092934 0.01321434741909806 0.005000000000000015
    vertex 0.03492524687257909 0.01174608659475383 0.01000000000000003
  endloop
endfacet
facet normal 0.312594 -0.949887 3.73305e-16
  outer loop
    vertex 0.0438485345092796 0.01468260824344229 0.02
    vertex 0.04738557938989543 0.01584659726712815 0.01420312148362384
    vertex 0.05277182214598011 0.01761912989213076 0.02
  endloop
endfacet
facet normal 0.312594 -0.949887 -1.00987e-15
  outer loop
    vertex 0.0438485345092796 0.01468260824344229 0
    vertex 0.03938689069092934 0.01321434741909806 0.005000000000000015
    vertex 0.03492524687257909 0.01174608659475383 0
  endloop
endfacet
facet normal 0.312594 -0.949887 2.77552e-16
  outer loop
    vertex 0.03492524687257909 0.01174608659475383 0.01000000000000003
    vertex 0.03938689069092934 0.01321434741909806 0.005000000000000015
    vertex 0.04145073098270934 0.01389352665695219 0.01308280522105449
  endloop
endfacet
facet normal 0.312594 -0.949887 8.93401e-18
  outer loop
    vertex 0.04145073098270934 0.01389352665695219 0.01308280522105449
    vertex 0.03938689069092934 0.01321434741909806 0.005000000000000015
    vertex 0.0456337475866487 0.01527009539645695 0.007646897229493641
  endloop
endfacet
facet normal 0.312594 -0.949887 2.82796e-17
  outer loop
    vertex 0.04738557938989543 0.01584659726712815 0.01420312148362384
    vertex 0.0456337475866487 0.01527009539645695 0.007646897229493641
    vertex 0.05277182214598011 0.01761912989213076 0.009999999999999972
  endloop
endfacet
facet normal 0.312594 -0.949887 -5.23383e-16
  outer loop
    vertex 0.0456337475866487 0.01527009539645695 0.007646897229493641
    vertex 0.03938689069092934 0.01321434741909806 0.005000000000000015
    vertex 0.0438485345092796 0.01468260824344229 0
  endloop
endfacet
facet normal 0.312594 -0.949887 4.35528e-17
  outer loop
    vertex 0.04738557938989543 0.01584659726712815 0.01420312148362384
    vertex 0.04145073098270934 0.01389352665695219 0.01308280522105449
    vertex 0.0456337475866487 0.01527009539645695 0.007646897229493641
  endloop
endfacet
facet normal 0.312594 -0.949887 5.13795e-16
  outer loop
    vertex 0.0438485345092796 0.01468260824344229 0.02
    vertex 0.04145073098270934 0.01389352665695219 0.01308280522105449
    vertex 0.04738557938989543 0.01584659726712815 0.01420312148362384
  endloop
endfacet
facet normal 0.694315 0.719672 -0
  outer loop
    vertex 0.04101277729695717 0.005873043297376916 0
    vertex 0.03796901208476813 0.008809564946065374 0.005
    vertex 0.04101277729695717 0.005873043297376916 0.01000000000000003
  endloop
endfacet
facet normal 0.694315 0.719672 0
  outer loop
    vertex 0.03492524687257909 0.01174608659475383 0.02
    vertex 0.03796901208476813 0.008809564946065374 0.015
    vertex 0.03492524687257909 0.01174608659475383 0.009999999999999972
  endloop
endfacet
facet normal 0.694315 0.719672 0
  outer loop
    vertex 0.03492524687257909 0.01174608659475383 0.009999999999999972
    vertex 0.03796901208476813 0.008809564946065374 0.005
    vertex 0.03492524687257909 0.01174608659475383 0
  endloop
endfacet
facet normal 0.694315 0.719672 -0
  outer loop
    vertex 0.04101277729695717 0.005873043297376916 0.01000000000000003
    vertex 0.03796901208476813 0.008809564946065374 0.015
    vertex 0.04101277729695717 0.005873043297376916 0.02
  endloop
endfacet
facet normal 0.694315 0.719672 0
  outer loop
    vertex 0.03492524687257909 0.01174608659475383 0
    vertex 0.03796901208476813 0.008809564946065374 0.005
    vertex 0.04101277729695717 0.005873043297376916 0
  endloop
endfacet
facet normal 0.694315 0.719672 0
  outer loop
    vertex 0.04101277729695717 0.005873043297376916 0.02
    vertex 0.03796901208476813 0.008809564946065374 0.015
    vertex 0.03492524687257909 0.01174608659475383 0.02
  endloop
endfacet
facet normal 0.694315 0.719672 0
  outer loop
    vertex 0.03492524687257909 0.01174608659475383 0.009999999999999972
    vertex 0.03796901208476813 0.008809564946065374 0.015
    vertex 0.04101277729695717 0.005873043297376916 0.01000000000000003
  endloop
endfacet
facet normal 0.694315 0.719672 0
  outer loop
    vertex 0.04101277729695717 0.005873043297376916 0.01000000000000003
    vertex 0.03796901208476813 0.008809564946065374 0.005
    vertex 0.03492524687257909 0.01174608659475383 0.009999999999999972
  endloop
endfacet
endsolid Created by Gmsh
