solid Created by Gmsh
facet normal -0.915349 -0.402662 0
  outer loop
    vertex 0.04200551468893898 0.04782593035004206 0
    vertex 0.04200551468893898 0.04782593035004206 0.01000000000000003
    vertex 0.04050275734446949 0.05124206823218793 0.005
  endloop
endfacet
facet normal -0.915349 -0.402662 -0
  outer loop
    vertex 0.039 0.05465820611433379 0.02
    vertex 0.039 0.05465820611433379 0.009999999999999972
    vertex 0.04050275734446949 0.05124206823218793 0.015
  endloop
endfacet
facet normal -0.915349 -0.402662 0
  outer loop
    vertex 0.04200551468893898 0.04782593035004206 0.01000000000000003
    vertex 0.04200551468893898 0.04782593035004206 0.02
    vertex 0.04050275734446949 0.05124206823218793 0.015
  endloop
endfacet
facet normal -0.915349 -0.402662 -0
  outer loop
    vertex 0.039 0.05465820611433379 0.009999999999999972
    vertex 0.039 0.05465820611433379 0
    vertex 0.04050275734446949 0.05124206823218793 0.005
  endloop
endfacet
facet normal -0.915349 -0.402662 1.81569e-15
  outer loop
    vertex 0.039 0.05465820611433379 0.009999999999999972
    vertex 0.04200551468893898 0.04782593035004206 0.01000000000000003
    vertex 0.04050275734446949 0.05124206823218793 0.015
  endloop
endfacet
facet normal -0.915349 -0.402662 1.81569e-15
  outer loop
    vertex 0.039 0.05465820611433379 0
    vertex 0.04200551468893898 0.04782593035004206 0
    vertex 0.04050275734446949 0.05124206823218793 0.005
  endloop
endfacet
facet normal -0.915349 -0.402662 -1.86108e-15
  outer loop
    vertex 0.04200551468893898 0.04782593035004206 0.02
    vertex 0.039 0.05465820611433379 0.02
    vertex 0.04050275734446949 0.05124206823218793 0.015
  endloop
endfacet
facet normal -0.915349 -0.402662 -1.86108e-15
  outer loop
    vertex 0.04200551468893898 0.04782593035004206 0.01000000000000003
    vertex 0.039 0.05465820611433379 0.009999999999999972
    vertex 0.04050275734446949 0.05124206823218793 0.005
  endloop
endfacet
facet normal -0.699362 0.714768 0
  outer loop
    vertex 0.04200551468893898 0.04782593035004206 0.02
    vertex 0.04200551468893898 0.04782593035004206 0.009999999999999972
    vertex 0.03851412710000711 0.0444097924678962 0.015
  endloop
endfacet
facet normal -0.699362 0.714768 0
  outer loop
    vertex 0.03502273951107524 0.04099365458575034 0
    vertex 0.03502273951107524 0.04099365458575034 0.01000000000000003
    vertex 0.03851412710000711 0.0444097924678962 0.005
  endloop
endfacet
facet normal -0.699362 0.714768 0
  outer loop
    vertex 0.04200551468893898 0.04782593035004206 0.009999999999999972
    vertex 0.04200551468893898 0.04782593035004206 0
    vertex 0.03851412710000711 0.0444097924678962 0.005
  endloop
endfacet
facet normal -0.699362 0.714768 0
  outer loop
    vertex 0.03502273951107524 0.04099365458575034 0.01000000000000003
    vertex 0.03502273951107524 0.04099365458575034 0.02
    vertex 0.03851412710000711 0.0444097924678962 0.015
  endloop
endfacet
facet normal -0.699362 0.714768 -4.8554e-16
  outer loop
    vertex 0.03502273951107524 0.04099365458575034 0.01000000000000003
    vertex 0.04200551468893898 0.04782593035004206 0.009999999999999972
    vertex 0.03851412710000711 0.0444097924678962 0.005
  endloop
endfacet
facet normal -0.699362 0.714768 5.54903e-16
  outer loop
    vertex 0.04200551468893898 0.04782593035004206 0.009999999999999972
    vertex 0.03502273951107524 0.04099365458575034 0.01000000000000003
    vertex 0.03851412710000711 0.0444097924678962 0.015
  endloop
endfacet
facet normal -0.699362 0.714768 5.54903e-16
  outer loop
    vertex 0.04200551468893898 0.04782593035004206 0
    vertex 0.03502273951107524 0.04099365458575034 0
    vertex 0.03851412710000711 0.0444097924678962 0.005
  endloop
endfacet
facet normal -0.699362 0.714768 -4.8554e-16
  outer loop
    vertex 0.03502273951107524 0.04099365458575034 0.02
    vertex 0.04200551468893898 0.04782593035004206 0.02
    vertex 0.03851412710000711 0.0444097924678962 0.015
  endloop
endfacet
facet normal -0.536611 -0.84383 -1.59664e-16
  outer loop
    vertex 0.04576659660945119 0.03416137882145862 0.01000000000000003
    vertex 0.04039466806026321 0.03757751670360448 0.02
    vertex 0.03502273951107524 0.04099365458575034 0.009999999999999972
  endloop
endfacet
facet normal -0.536611 -0.84383 -1.86274e-16
  outer loop
    vertex 0.04039466806026322 0.03757751670360448 0
    vertex 0.04576659660945119 0.03416137882145862 0.01000000000000003
    vertex 0.03502273951107524 0.04099365458575034 0.009999999999999972
  endloop
endfacet
facet normal -0.536611 -0.84383 0
  outer loop
    vertex 0.04039466806026322 0.03757751670360448 0
    vertex 0.03502273951107524 0.04099365458575034 0.009999999999999972
    vertex 0.03502273951107524 0.04099365458575034 0
  endloop
endfacet
facet normal -0.536611 -0.84383 0
  outer loop
    vertex 0.03502273951107524 0.04099365458575034 0.009999999999999972
    vertex 0.04039466806026321 0.03757751670360448 0.02
    vertex 0.03502273951107524 0.04099365458575034 0.02
  endloop
endfacet
facet normal -0.536611 -0.84383 -0
  outer loop
    vertex 0.04576659660945119 0.03416137882145862 0.01000000000000003
    vertex 0.04039466806026322 0.03757751670360448 0
    vertex 0.04576659660945119 0.03416137882145862 0
  endloop
endfacet
facet normal -0.536611 -0.84383 0
  outer loop
    vertex 0.04039466806026321 0.03757751670360448 0.02
    vertex 0.04576659660945119 0.03416137882145862 0.01000000000000003
    vertex 0.04576659660945119 0.03416137882145862 0.02
  endloop
endfacet
facet normal -0.245315 0.969443 -9.07861e-17
  outer loop
    vertex 0.03676659660945122 0.03188395356669471 0
    vertex 0.02776659660945121 0.0296065283119308 0
    vertex 0.03226659660945122 0.03074524093931276 0.008039900456055233
  endloop
endfacet
facet normal -0.245315 0.969443 0
  outer loop
    vertex 0.0187665966094512 0.02732910305716689 0
    vertex 0.0187665966094512 0.02732910305716689 0.01000000000000003
    vertex 0.02522381004146956 0.02896308316222015 0.006874285554967712
  endloop
endfacet
facet normal -0.245315 0.969443 0
  outer loop
    vertex 0.04576659660945119 0.03416137882145862 0.009999999999999972
    vertex 0.04576659660945119 0.03416137882145862 0
    vertex 0.03930938317743285 0.03252739871640536 0.006874285554967693
  endloop
endfacet
facet normal -0.245315 0.969443 -1.32725e-16
  outer loop
    vertex 0.04576659660945119 0.03416137882145862 0
    vertex 0.03676659660945122 0.03188395356669471 0
    vertex 0.03930938317743285 0.03252739871640536 0.006874285554967693
  endloop
endfacet
facet normal -0.245315 0.969443 2.38905e-16
  outer loop
    vertex 0.02776659660945121 0.0296065283119308 0
    vertex 0.0187665966094512 0.02732910305716689 0
    vertex 0.02522381004146956 0.02896308316222015 0.006874285554967712
  endloop
endfacet
facet normal -0.245315 0.969443 -1.15311e-17
  outer loop
    vertex 0.03226659660945119 0.03074524093931275 0.01515058907430928
    vertex 0.03226659660945122 0.03074524093931276 0.008039900456055233
    vertex 0.02482044754460461 0.02886101339142183 0.01372314228363665
  endloop
endfacet
facet normal -0.245315 0.969443 -1.15311e-17
  outer loop
    vertex 0.03226659660945122 0.03074524093931276 0.008039900456055233
    vertex 0.03226659660945119 0.03074524093931275 0.01515058907430928
    vertex 0.03971274567429778 0.03262946848720367 0.01372314228363665
  endloop
endfacet
facet normal -0.245315 0.969443 0
  outer loop
    vertex 0.04576659660945119 0.03416137882145862 0.02
    vertex 0.04576659660945119 0.03416137882145862 0.009999999999999972
    vertex 0.03971274567429778 0.03262946848720367 0.01372314228363665
  endloop
endfacet
facet normal -0.245315 0.969443 0
  outer loop
    vertex 0.0187665966094512 0.02732910305716689 0.01000000000000003
    vertex 0.0187665966094512 0.02732910305716689 0.02
    vertex 0.02482044754460461 0.02886101339142183 0.01372314228363665
  endloop
endfacet
facet normal -0.245315 0.969443 1.01158e-16
  outer loop
    vertex 0.03226659660945122 0.03074524093931276 0.008039900456055233
    vertex 0.02522381004146956 0.02896308316222015 0.006874285554967712
    vertex 0.02482044754460461 0.02886101339142183 0.01372314228363665
  endloop
endfacet
facet normal -0.245315 0.969443 -3.83556e-16
  outer loop
    vertex 0.03930938317743285 0.03252739871640536 0.006874285554967693
    vertex 0.03226659660945122 0.03074524093931276 0.008039900456055233
    vertex 0.03971274567429778 0.03262946848720367 0.01372314228363665
  endloop
endfacet
facet normal -0.245315 0.969443 1.30822e-16
  outer loop
    vertex 0.03676659660945118 0.0318839535666947 0.02
    vertex 0.04576659660945119 0.03416137882145862 0.02
    vertex 0.03971274567429778 0.03262946848720367 0.01372314228363665
  endloop
endfacet
facet normal -0.245315 0.969443 -3.19787e-16
  outer loop
    vertex 0.0187665966094512 0.02732910305716689 0.02
    vertex 0.02776659660945117 0.02960652831193079 0.02
    vertex 0.02482044754460461 0.02886101339142183 0.01372314228363665
  endloop
endfacet
facet normal -0.245315 0.969443 -3.1965e-16
  outer loop
    vertex 0.03676659660945122 0.03188395356669471 0
    vertex 0.03226659660945122 0.03074524093931276 0.008039900456055233
    vertex 0.03930938317743285 0.03252739871640536 0.006874285554967693
  endloop
endfacet
facet normal -0.245315 0.969443 2.23755e-16
  outer loop
    vertex 0.03226659660945122 0.03074524093931276 0.008039900456055233
    vertex 0.02776659660945121 0.0296065283119308 0
    vertex 0.02522381004146956 0.02896308316222015 0.006874285554967712
  endloop
endfacet
facet normal -0.245315 0.969443 -1.12887e-16
  outer loop
    vertex 0.02776659660945117 0.02960652831193079 0.02
    vertex 0.03676659660945118 0.0318839535666947 0.02
    vertex 0.03226659660945119 0.03074524093931275 0.01515058907430928
  endloop
endfacet
facet normal -0.245315 0.969443 7.72249e-17
  outer loop
    vertex 0.03226659660945119 0.03074524093931275 0.01515058907430928
    vertex 0.03676659660945118 0.0318839535666947 0.02
    vertex 0.03971274567429778 0.03262946848720367 0.01372314228363665
  endloop
endfacet
facet normal -0.245315 0.969443 -2.50981e-16
  outer loop
    vertex 0.02776659660945117 0.02960652831193079 0.02
    vertex 0.03226659660945119 0.03074524093931275 0.01515058907430928
    vertex 0.02482044754460461 0.02886101339142183 0.01372314228363665
  endloop
endfacet
facet normal -0.245315 0.969443 1.43345e-16
  outer loop
    vertex 0.02522381004146956 0.02896308316222015 0.006874285554967712
    vertex 0.0187665966094512 0.02732910305716689 0.01000000000000003
    vertex 0.02482044754460461 0.02886101339142183 0.01372314228363665
  endloop
endfacet
facet normal -0.245315 0.969443 -3.44028e-16
  outer loop
    vertex 0.04576659660945119 0.03416137882145862 0.009999999999999972
    vertex 0.03930938317743285 0.03252739871640536 0.006874285554967693
    vertex 0.03971274567429778 0.03262946848720367 0.01372314228363665
  endloop
endfacet
facet normal -0.406186 -0.91379 -4.09727e-16
  outer loop
    vertex 0.0187665966094512 0.02732910305716689 0
    vertex 0.02645182988795827 0.02391296517502103 0
    vertex 0.02572299432977142 0.02423693748268541 0.007865839892813689
  endloop
endfacet
facet normal -0.406186 -0.91379 -0
  outer loop
    vertex 0.0187665966094512 0.02732910305716689 0.009999999999999972
    vertex 0.0187665966094512 0.02732910305716689 0
    vertex 0.02572299432977142 0.02423693748268541 0.007865839892813689
  endloop
endfacet
facet normal -0.406186 -0.91379 0
  outer loop
    vertex 0.03413706316646533 0.02049682729287517 0.01000000000000003
    vertex 0.03413706316646533 0.02049682729287517 0.02
    vertex 0.02868276754916016 0.02292129837962895 0.01400194440181467
  endloop
endfacet
facet normal -0.406186 -0.91379 0
  outer loop
    vertex 0.03413706316646533 0.02049682729287517 0
    vertex 0.03413706316646533 0.02049682729287517 0.01000000000000003
    vertex 0.03011223763766509 0.02228588931086419 0.004466459973203429
  endloop
endfacet
facet normal -0.406186 -0.91379 -0
  outer loop
    vertex 0.0187665966094512 0.02732910305716689 0.02
    vertex 0.0187665966094512 0.02732910305716689 0.009999999999999972
    vertex 0.02366216440070065 0.02515299024702339 0.014323564151691
  endloop
endfacet
facet normal -0.406186 -0.91379 3.35822e-16
  outer loop
    vertex 0.03413706316646533 0.02049682729287517 0.02
    vertex 0.02645182988795826 0.02391296517502103 0.02
    vertex 0.02868276754916016 0.02292129837962895 0.01400194440181467
  endloop
endfacet
facet normal -0.406186 -0.91379 5.30005e-16
  outer loop
    vertex 0.03413706316646533 0.02049682729287517 0.01000000000000003
    vertex 0.02572299432977142 0.02423693748268541 0.007865839892813689
    vertex 0.03011223763766509 0.02228588931086419 0.004466459973203429
  endloop
endfacet
facet normal -0.406186 -0.91379 -2.73303e-16
  outer loop
    vertex 0.02572299432977142 0.02423693748268541 0.007865839892813689
    vertex 0.03413706316646533 0.02049682729287517 0.01000000000000003
    vertex 0.02868276754916016 0.02292129837962895 0.01400194440181467
  endloop
endfacet
facet normal -0.406186 -0.91379 -9.01958e-16
  outer loop
    vertex 0.02645182988795827 0.02391296517502103 0
    vertex 0.03413706316646533 0.02049682729287517 0
    vertex 0.03011223763766509 0.02228588931086419 0.004466459973203429
  endloop
endfacet
facet normal -0.406186 -0.91379 3.54849e-16
  outer loop
    vertex 0.02645182988795826 0.02391296517502103 0.02
    vertex 0.0187665966094512 0.02732910305716689 0.02
    vertex 0.02366216440070065 0.02515299024702339 0.014323564151691
  endloop
endfacet
facet normal -0.406186 -0.91379 -1.90999e-16
  outer loop
    vertex 0.02366216440070065 0.02515299024702339 0.014323564151691
    vertex 0.0187665966094512 0.02732910305716689 0.009999999999999972
    vertex 0.02572299432977142 0.02423693748268541 0.007865839892813689
  endloop
endfacet
facet normal -0.406186 -0.91379 -4.95116e-16
  outer loop
    vertex 0.02572299432977142 0.02423693748268541 0.007865839892813689
    vertex 0.02645182988795827 0.02391296517502103 0
    vertex 0.03011223763766509 0.02228588931086419 0.004466459973203429
  endloop
endfacet
facet normal -0.406186 -0.91379 -7.31144e-17
  outer loop
    vertex 0.02366216440070065 0.02515299024702339 0.014323564151691
    vertex 0.02572299432977142 0.02423693748268541 0.007865839892813689
    vertex 0.02868276754916016 0.02292129837962895 0.01400194440181467
  endloop
endfacet
facet normal -0.406186 -0.91379 2.63302e-16
  outer loop
    vertex 0.02645182988795826 0.02391296517502103 0.02
    vertex 0.02366216440070065 0.02515299024702339 0.014323564151691
    vertex 0.02868276754916016 0.02292129837962895 0.01400194440181467
  endloop
endfacet
facet normal -0.679912 0.733294 -9.44073e-16
  outer loop
    vertex 0.03413706316646533 0.02049682729287517 0
    vertex 0.02676836317939788 0.01366455152858344 0
    vertex 0.0304527131729316 0.01708068941072931 0.004999999999999985
  endloop
endfacet
facet normal -0.679912 0.733294 9.44073e-16
  outer loop
    vertex 0.02676836317939788 0.01366455152858344 0.02
    vertex 0.03413706316646533 0.02049682729287517 0.02
    vertex 0.0304527131729316 0.01708068941072931 0.01500000000000002
  endloop
endfacet
facet normal -0.679912 0.733294 0
  outer loop
    vertex 0.03413706316646533 0.02049682729287517 0.009999999999999972
    vertex 0.0304527131729316 0.01708068941072931 0.004999999999999985
    vertex 0.0304527131729316 0.01708068941072931 0.01500000000000002
  endloop
endfacet
facet normal -0.679912 0.733294 1.85206e-17
  outer loop
    vertex 0.0304527131729316 0.01708068941072931 0.004999999999999985
    vertex 0.02676836317939788 0.01366455152858344 0.01000000000000003
    vertex 0.0304527131729316 0.01708068941072931 0.01500000000000002
  endloop
endfacet
facet normal -0.679912 0.733294 0
  outer loop
    vertex 0.03413706316646533 0.02049682729287517 0.02
    vertex 0.03413706316646533 0.02049682729287517 0.009999999999999972
    vertex 0.0304527131729316 0.01708068941072931 0.01500000000000002
  endloop
endfacet
facet normal -0.679912 0.733294 0
  outer loop
    vertex 0.02676836317939788 0.01366455152858344 0
    vertex 0.02676836317939788 0.01366455152858344 0.01000000000000003
    vertex 0.0304527131729316 0.01708068941072931 0.004999999999999985
  endloop
endfacet
facet normal -0.679912 0.733294 0
  outer loop
    vertex 0.03413706316646533 0.02049682729287517 0.009999999999999972
    vertex 0.03413706316646533 0.02049682729287517 0
    vertex 0.0304527131729316 0.01708068941072931 0.004999999999999985
  endloop
endfacet
facet normal -0.679912 0.733294 0
  outer loop
    vertex 0.02676836317939788 0.01366455152858344 0.01000000000000003
    vertex 0.02676836317939788 0.01366455152858344 0.02
    vertex 0.0304527131729316 0.01708068941072931 0.01500000000000002
  endloop
endfacet
facet normal -0.968109 0.250528 0
  outer loop
    vertex 0.02500030504454757 0.006832275764291726 0.01000000000000003
    vertex 0.02676836317939788 0.01366455152858344 0.009999999999999972
    vertex 0.02588433411197273 0.01024841364643759 0.005
  endloop
endfacet
facet normal -0.968109 0.250528 0
  outer loop
    vertex 0.02676836317939788 0.01366455152858344 0.009999999999999972
    vertex 0.02500030504454757 0.006832275764291726 0.01000000000000003
    vertex 0.02588433411197273 0.01024841364643759 0.015
  endloop
endfacet
facet normal -0.968109 0.250528 0
  outer loop
    vertex 0.02676836317939788 0.01366455152858344 0
    vertex 0.02500030504454757 0.006832275764291726 0
    vertex 0.02588433411197273 0.01024841364643759 0.005
  endloop
endfacet
facet normal -0.968109 0.250528 0
  outer loop
    vertex 0.02500030504454757 0.006832275764291726 0.02
    vertex 0.02676836317939788 0.01366455152858344 0.02
    vertex 0.02588433411197273 0.01024841364643759 0.015
  endloop
endfacet
facet normal -0.968109 0.250528 0
  outer loop
    vertex 0.02676836317939788 0.01366455152858344 0.009999999999999972
    vertex 0.02676836317939788 0.01366455152858344 0
    vertex 0.02588433411197273 0.01024841364643759 0.005
  endloop
endfacet
facet normal -0.968109 0.250528 0
  outer loop
    vertex 0.02676836317939788 0.01366455152858344 0.02
    vertex 0.02676836317939788 0.01366455152858344 0.009999999999999972
    vertex 0.02588433411197273 0.01024841364643759 0.015
  endloop
endfacet
facet normal -0.968109 0.250528 0
  outer loop
    vertex 0.02500030504454757 0.006832275764291726 0
    vertex 0.02500030504454757 0.006832275764291726 0.01000000000000003
    vertex 0.02588433411197273 0.01024841364643759 0.005
  endloop
endfacet
facet normal -0.968109 0.250528 0
  outer loop
    vertex 0.02500030504454757 0.006832275764291726 0.01000000000000003
    vertex 0.02500030504454757 0.006832275764291726 0.02
    vertex 0.02588433411197273 0.01024841364643759 0.015
  endloop
endfacet
endsolid Created by Gmsh
