solid Created by Gmsh
facet normal 0.998432 -0.055981 8.05096e-17
  outer loop
    vertex 0.01056505168737682 0.04574822721985335 0.02
    vertex 0.0107249131995566 0.04859939034412902 0.008289731537449654
    vertex 0.01120631460922103 0.05718528402481668 0.02
  endloop
endfacet
facet normal 0.998432 -0.055981 6.31448e-17
  outer loop
    vertex 0.008641262921844205 0.01143705680496333 0
    vertex 0.008481401409664425 0.008585893680687653 0.01171026846255035
    vertex 0.008 0 0
  endloop
endfacet
facet normal 0.998432 -0.055981 0
  outer loop
    vertex 0.01120631460922103 0.05718528402481668 0.009999999999999972
    vertex 0.0107249131995566 0.04859939034412902 0.008289731537449654
    vertex 0.01120631460922103 0.05718528402481668 0
  endloop
endfacet
facet normal 0.998432 -0.055981 0
  outer loop
    vertex 0.008 0 0.01000000000000003
    vertex 0.008481401409664425 0.008585893680687653 0.01171026846255035
    vertex 0.008 0 0.02
  endloop
endfacet
facet normal 0.998432 -0.055981 -1.2488e-16
  outer loop
    vertex 0.008 0 0.02
    vertex 0.008481401409664425 0.008585893680687653 0.01171026846255035
    vertex 0.008641262921844205 0.01143705680496333 0.02
  endloop
endfacet
facet normal 0.998432 -0.055981 -1.5164e-16
  outer loop
    vertex 0.01120631460922103 0.05718528402481668 0
    vertex 0.0107249131995566 0.04859939034412902 0.008289731537449654
    vertex 0.01056505168737682 0.04574822721985335 0
  endloop
endfacet
facet normal 0.998432 -0.055981 -7.62168e-17
  outer loop
    vertex 0.01056505168737682 0.04574822721985335 0
    vertex 0.01021763034229116 0.03955189569397288 0.009701836350151392
    vertex 0.009923788765532614 0.03431117041488998 0
  endloop
endfacet
facet normal 0.998432 -0.055981 -2.28034e-17
  outer loop
    vertex 0.008641262921844205 0.01143705680496333 0.02
    vertex 0.008988694481516858 0.01763357051011487 0.01027192583766817
    vertex 0.009282525843688412 0.0228741136099267 0.02
  endloop
endfacet
facet normal 0.998432 -0.055981 -2.73922e-17
  outer loop
    vertex 0.008988694481516858 0.01763357051011487 0.01027192583766817
    vertex 0.009603159007041678 0.02859267237562018 0.00999562703130326
    vertex 0.009282525843688412 0.0228741136099267 0.02
  endloop
endfacet
facet normal 0.998432 -0.055981 -6.65207e-17
  outer loop
    vertex 0.009282525843688412 0.0228741136099267 0.02
    vertex 0.009603159007041678 0.02859267237562018 0.00999562703130326
    vertex 0.009923788765532618 0.03431117041489003 0.02
  endloop
endfacet
facet normal 0.998432 -0.055981 -1.17607e-17
  outer loop
    vertex 0.01021763034229116 0.03955189569397288 0.009701836350151392
    vertex 0.009603159007041678 0.02859267237562018 0.00999562703130326
    vertex 0.009923788765532614 0.03431117041488998 0
  endloop
endfacet
facet normal 0.998432 -0.055981 -2.27911e-17
  outer loop
    vertex 0.009923788765532618 0.03431117041489003 0.02
    vertex 0.009603159007041678 0.02859267237562018 0.00999562703130326
    vertex 0.01021763034229116 0.03955189569397288 0.009701836350151392
  endloop
endfacet
facet normal 0.998432 -0.055981 3.32895e-17
  outer loop
    vertex 0.009923788765532614 0.03431117041488998 0
    vertex 0.009603159007041678 0.02859267237562018 0.00999562703130326
    vertex 0.009282525843688409 0.02287411360992665 0
  endloop
endfacet
facet normal 0.998432 -0.055981 -9.51315e-18
  outer loop
    vertex 0.009282525843688409 0.02287411360992665 0
    vertex 0.009603159007041678 0.02859267237562018 0.00999562703130326
    vertex 0.008988694481516858 0.01763357051011487 0.01027192583766817
  endloop
endfacet
facet normal 0.998432 -0.055981 3.94918e-17
  outer loop
    vertex 0.009923788765532618 0.03431117041489003 0.02
    vertex 0.01021763034229116 0.03955189569397288 0.009701836350151392
    vertex 0.01056505168737682 0.04574822721985335 0.02
  endloop
endfacet
facet normal 0.998432 -0.055981 -1.79967e-17
  outer loop
    vertex 0.009282525843688409 0.02287411360992665 0
    vertex 0.008988694481516858 0.01763357051011487 0.01027192583766817
    vertex 0.008641262921844205 0.01143705680496333 0
  endloop
endfacet
facet normal 0.998432 -0.055981 4.98207e-17
  outer loop
    vertex 0.008988694481516858 0.01763357051011487 0.01027192583766817
    vertex 0.008481401409664425 0.008585893680687653 0.01171026846255035
    vertex 0.008641262921844205 0.01143705680496333 0
  endloop
endfacet
facet normal 0.998432 -0.055981 7.88265e-17
  outer loop
    vertex 0.01021763034229116 0.03955189569397288 0.009701836350151392
    vertex 0.0107249131995566 0.04859939034412902 0.008289731537449654
    vertex 0.01056505168737682 0.04574822721985335 0.02
  endloop
endfacet
facet normal 0.998432 -0.055981 -1.44469e-16
  outer loop
    vertex 0.01056505168737682 0.04574822721985335 0
    vertex 0.0107249131995566 0.04859939034412902 0.008289731537449654
    vertex 0.01021763034229116 0.03955189569397288 0.009701836350151392
  endloop
endfacet
facet normal 0.998432 -0.055981 -1.06911e-16
  outer loop
    vertex 0.008641262921844205 0.01143705680496333 0.02
    vertex 0.008481401409664425 0.008585893680687653 0.01171026846255035
    vertex 0.008988694481516858 0.01763357051011487 0.01027192583766817
  endloop
endfacet
facet normal 0.998432 -0.055981 0
  outer loop
    vertex 0.008 0 0
    vertex 0.008481401409664425 0.008585893680687653 0.01171026846255035
    vertex 0.008 0 0.01000000000000003
  endloop
endfacet
facet normal 0.998432 -0.055981 0
  outer loop
    vertex 0.01120631460922103 0.05718528402481668 0.02
    vertex 0.0107249131995566 0.04859939034412902 0.008289731537449654
    vertex 0.01120631460922103 0.05718528402481668 0.009999999999999972
  endloop
endfacet
endsolid Created by Gmsh
