solid Created by Gmsh
facet normal 1 0 0
  outer loop
    vertex 0.04 0.05869621013608284 0
    vertex 0.04 0.06 0
    vertex 0.04 0.06 0.009999999999999972
  endloop
endfacet
facet normal 1 0 0
  outer loop
    vertex 0.04 0.05869621013608284 0.01000000000000003
    vertex 0.04 0.06 0.02
    vertex 0.04 0.05869621013608284 0.02
  endloop
endfacet
facet normal 1 0 -0
  outer loop
    vertex 0.04 0.06 0.009999999999999972
    vertex 0.04 0.06 0.02
    vertex 0.04 0.05869621013608284 0.01000000000000003
  endloop
endfacet
facet normal 1 0 0
  outer loop
    vertex 0.04 0.05869621013608284 0
    vertex 0.04 0.06 0.009999999999999972
    vertex 0.04 0.05869621013608284 0.01000000000000003
  endloop
endfacet
facet normal 0.597168 0.802116 1.93034e-16
  outer loop
    vertex 0.04492754886780764 0.05502769700257766 0
    vertex 0.04 0.05869621013608284 0.009999999999999972
    vertex 0.04985509773561528 0.05135918386907248 0.01000000000000003
  endloop
endfacet
facet normal 0.597168 0.802116 1.65458e-16
  outer loop
    vertex 0.04985509773561528 0.05135918386907248 0.01000000000000003
    vertex 0.04 0.05869621013608284 0.009999999999999972
    vertex 0.04492754886780764 0.05502769700257766 0.02
  endloop
endfacet
facet normal 0.597168 0.802116 0
  outer loop
    vertex 0.04492754886780764 0.05502769700257766 0
    vertex 0.04 0.05869621013608284 0
    vertex 0.04 0.05869621013608284 0.009999999999999972
  endloop
endfacet
facet normal 0.597168 0.802116 -0
  outer loop
    vertex 0.04 0.05869621013608284 0.009999999999999972
    vertex 0.04 0.05869621013608284 0.02
    vertex 0.04492754886780764 0.05502769700257766 0.02
  endloop
endfacet
facet normal 0.597168 0.802116 0
  outer loop
    vertex 0.04985509773561528 0.05135918386907248 0.01000000000000003
    vertex 0.04985509773561528 0.05135918386907248 0
    vertex 0.04492754886780764 0.05502769700257766 0
  endloop
endfacet
facet normal 0.597168 0.802116 0
  outer loop
    vertex 0.04492754886780764 0.05502769700257766 0.02
    vertex 0.04985509773561528 0.05135918386907248 0.02
    vertex 0.04985509773561528 0.05135918386907248 0.01000000000000003
  endloop
endfacet
facet normal 0.9652 -0.261514 0
  outer loop
    vertex 0.04985509773561528 0.05135918386907248 0.02
    vertex 0.04886114156483616 0.04769067073556731 0.015
    vertex 0.04985509773561528 0.05135918386907248 0.009999999999999972
  endloop
endfacet
facet normal 0.9652 -0.261514 0
  outer loop
    vertex 0.04786718539405706 0.04402215760206213 0
    vertex 0.04886114156483616 0.04769067073556731 0.005000000000000001
    vertex 0.04786718539405706 0.04402215760206213 0.01000000000000003
  endloop
endfacet
facet normal 0.9652 -0.261514 0
  outer loop
    vertex 0.04985509773561528 0.05135918386907248 0.009999999999999972
    vertex 0.04886114156483616 0.04769067073556731 0.005000000000000001
    vertex 0.04985509773561528 0.05135918386907248 0
  endloop
endfacet
facet normal 0.9652 -0.261514 0
  outer loop
    vertex 0.04786718539405706 0.04402215760206213 0.01000000000000003
    vertex 0.04886114156483616 0.04769067073556731 0.015
    vertex 0.04786718539405706 0.04402215760206213 0.02
  endloop
endfacet
facet normal 0.9652 -0.261514 -1.33715e-15
  outer loop
    vertex 0.04786718539405706 0.04402215760206213 0.01000000000000003
    vertex 0.04886114156483616 0.04769067073556731 0.005000000000000001
    vertex 0.04985509773561528 0.05135918386907248 0.009999999999999972
  endloop
endfacet
facet normal 0.9652 -0.261514 -1.33715e-15
  outer loop
    vertex 0.04786718539405706 0.04402215760206213 0.02
    vertex 0.04886114156483616 0.04769067073556731 0.015
    vertex 0.04985509773561528 0.05135918386907248 0.02
  endloop
endfacet
facet normal 0.9652 -0.261514 1.33715e-15
  outer loop
    vertex 0.04985509773561528 0.05135918386907248 0.009999999999999972
    vertex 0.04886114156483616 0.04769067073556731 0.015
    vertex 0.04786718539405706 0.04402215760206213 0.01000000000000003
  endloop
endfacet
facet normal 0.9652 -0.261514 1.33715e-15
  outer loop
    vertex 0.04985509773561528 0.05135918386907248 0
    vertex 0.04886114156483616 0.04769067073556731 0.005000000000000001
    vertex 0.04786718539405706 0.04402215760206213 0
  endloop
endfacet
facet normal 0.77015 0.637863 -0
  outer loop
    vertex 0.05394394945772379 0.03668513133505177 0
    vertex 0.05090556742589042 0.04035364446855694 0.005000000000000004
    vertex 0.05394394945772379 0.03668513133505177 0.01000000000000003
  endloop
endfacet
facet normal 0.77015 0.637863 0
  outer loop
    vertex 0.04786718539405706 0.04402215760206213 0.02
    vertex 0.05090556742589042 0.04035364446855694 0.015
    vertex 0.04786718539405706 0.04402215760206213 0.009999999999999972
  endloop
endfacet
facet normal 0.77015 0.637863 0
  outer loop
    vertex 0.04786718539405706 0.04402215760206213 0.009999999999999972
    vertex 0.05090556742589042 0.04035364446855694 0.005000000000000004
    vertex 0.04786718539405706 0.04402215760206213 0
  endloop
endfacet
facet normal 0.77015 0.637863 -0
  outer loop
    vertex 0.05394394945772379 0.03668513133505177 0.01000000000000003
    vertex 0.05090556742589042 0.04035364446855694 0.015
    vertex 0.05394394945772379 0.03668513133505177 0.02
  endloop
endfacet
facet normal 0.77015 0.637863 1.42258e-15
  outer loop
    vertex 0.04786718539405706 0.04402215760206213 0.009999999999999972
    vertex 0.05090556742589042 0.04035364446855694 0.015
    vertex 0.05394394945772379 0.03668513133505177 0.01000000000000003
  endloop
endfacet
facet normal 0.77015 0.637863 2.27612e-15
  outer loop
    vertex 0.04786718539405706 0.04402215760206213 0
    vertex 0.05090556742589042 0.04035364446855694 0.005000000000000004
    vertex 0.05394394945772379 0.03668513133505177 0
  endloop
endfacet
facet normal 0.77015 0.637863 -2.34725e-15
  outer loop
    vertex 0.05394394945772379 0.03668513133505177 0.01000000000000003
    vertex 0.05090556742589042 0.04035364446855694 0.005000000000000004
    vertex 0.04786718539405706 0.04402215760206213 0.009999999999999972
  endloop
endfacet
facet normal 0.77015 0.637863 -1.42258e-15
  outer loop
    vertex 0.05394394945772379 0.03668513133505177 0.02
    vertex 0.05090556742589042 0.04035364446855694 0.015
    vertex 0.04786718539405706 0.04402215760206213 0.02
  endloop
endfacet
facet normal 0.943375 -0.331728 0
  outer loop
    vertex 0.05394394945772379 0.03668513133505177 0.02
    vertex 0.05265395420125954 0.0330166182015466 0.015
    vertex 0.05394394945772379 0.03668513133505177 0.009999999999999972
  endloop
endfacet
facet normal 0.943375 -0.331728 0
  outer loop
    vertex 0.05136395894479528 0.02934810506804142 0
    vertex 0.05265395420125954 0.0330166182015466 0.005
    vertex 0.05136395894479528 0.02934810506804142 0.01000000000000003
  endloop
endfacet
facet normal 0.943375 -0.331728 0
  outer loop
    vertex 0.05394394945772379 0.03668513133505177 0.009999999999999972
    vertex 0.05265395420125954 0.0330166182015466 0.005
    vertex 0.05394394945772379 0.03668513133505177 0
  endloop
endfacet
facet normal 0.943375 -0.331728 0
  outer loop
    vertex 0.05136395894479528 0.02934810506804142 0.01000000000000003
    vertex 0.05265395420125954 0.0330166182015466 0.015
    vertex 0.05136395894479528 0.02934810506804142 0.02
  endloop
endfacet
facet normal 0.943375 -0.331728 6.53455e-16
  outer loop
    vertex 0.05136395894479528 0.02934810506804142 0.01000000000000003
    vertex 0.05265395420125954 0.0330166182015466 0.005
    vertex 0.05394394945772379 0.03668513133505177 0.009999999999999972
  endloop
endfacet
facet normal 0.943375 -0.331728 -6.53455e-16
  outer loop
    vertex 0.05394394945772379 0.03668513133505177 0.009999999999999972
    vertex 0.05265395420125954 0.0330166182015466 0.015
    vertex 0.05136395894479528 0.02934810506804142 0.01000000000000003
  endloop
endfacet
facet normal 0.943375 -0.331728 -6.53455e-16
  outer loop
    vertex 0.05394394945772379 0.03668513133505177 0
    vertex 0.05265395420125954 0.0330166182015466 0.005
    vertex 0.05136395894479528 0.02934810506804142 0
  endloop
endfacet
facet normal 0.943375 -0.331728 6.53455e-16
  outer loop
    vertex 0.05136395894479528 0.02934810506804142 0.02
    vertex 0.05265395420125954 0.0330166182015466 0.015
    vertex 0.05394394945772379 0.03668513133505177 0.02
  endloop
endfacet
facet normal 0.533326 -0.84591 0
  outer loop
    vertex 0.05136395894479528 0.02934810506804142 0.02
    vertex 0.0472909074275387 0.02678014587458779 0.015
    vertex 0.05136395894479528 0.02934810506804142 0.009999999999999972
  endloop
endfacet
facet normal 0.533326 -0.84591 0
  outer loop
    vertex 0.03972666889549072 0.02201107880103106 0
    vertex 0.04379972041274732 0.02457903799448468 0.004999999999999999
    vertex 0.03972666889549072 0.02201107880103106 0.01000000000000003
  endloop
endfacet
facet normal 0.533326 -0.84591 0
  outer loop
    vertex 0.05136395894479528 0.02934810506804142 0.009999999999999972
    vertex 0.04752365322852479 0.026926886399928 0.004999999999999991
    vertex 0.05136395894479528 0.02934810506804142 0
  endloop
endfacet
facet normal 0.533326 -0.84591 0
  outer loop
    vertex 0.03972666889549072 0.02201107880103106 0.01000000000000003
    vertex 0.04356697461176123 0.02443229746914448 0.015
    vertex 0.03972666889549072 0.02201107880103106 0.02
  endloop
endfacet
facet normal 0.533326 -0.84591 -1.65009e-15
  outer loop
    vertex 0.045545313920143 0.02567959193453624 0
    vertex 0.04379972041274732 0.02457903799448468 0.004999999999999999
    vertex 0.03972666889549072 0.02201107880103106 0
  endloop
endfacet
facet normal 0.533326 -0.84591 2.33968e-15
  outer loop
    vertex 0.045545313920143 0.02567959193453624 0.02
    vertex 0.0472909074275387 0.02678014587458779 0.015
    vertex 0.05136395894479528 0.02934810506804142 0.02
  endloop
endfacet
facet normal 0.533326 -0.84591 -1.97026e-15
  outer loop
    vertex 0.05136395894479528 0.02934810506804142 0
    vertex 0.04752365322852479 0.026926886399928 0.004999999999999991
    vertex 0.045545313920143 0.02567959193453624 0
  endloop
endfacet
facet normal 0.533326 -0.84591 2.01951e-15
  outer loop
    vertex 0.03972666889549072 0.02201107880103106 0.02
    vertex 0.04356697461176123 0.02443229746914448 0.015
    vertex 0.045545313920143 0.02567959193453624 0.02
  endloop
endfacet
facet normal 0.533326 -0.84591 2.19345e-15
  outer loop
    vertex 0.045545313920143 0.02567959193453624 0.02
    vertex 0.04356697461176123 0.02443229746914448 0.015
    vertex 0.0472909074275387 0.02678014587458779 0.015
  endloop
endfacet
facet normal 0.533326 -0.84591 -1.78939e-15
  outer loop
    vertex 0.045545313920143 0.02567959193453624 0
    vertex 0.04752365322852479 0.026926886399928 0.004999999999999991
    vertex 0.04379972041274732 0.02457903799448468 0.004999999999999999
  endloop
endfacet
facet normal 0.533326 -0.84591 -2.69371e-16
  outer loop
    vertex 0.04356697461176123 0.02443229746914448 0.015
    vertex 0.04554531392014301 0.02567959193453623 0.009999999999999998
    vertex 0.0472909074275387 0.02678014587458779 0.015
  endloop
endfacet
facet normal 0.533326 -0.84591 -1.15445e-16
  outer loop
    vertex 0.04752365322852479 0.026926886399928 0.004999999999999991
    vertex 0.04554531392014301 0.02567959193453623 0.009999999999999998
    vertex 0.04379972041274732 0.02457903799448468 0.004999999999999999
  endloop
endfacet
facet normal 0.533326 -0.84591 -7.88102e-16
  outer loop
    vertex 0.03972666889549072 0.02201107880103106 0.01000000000000003
    vertex 0.04554531392014301 0.02567959193453623 0.009999999999999998
    vertex 0.04356697461176123 0.02443229746914448 0.015
  endloop
endfacet
facet normal 0.533326 -0.84591 2.95538e-16
  outer loop
    vertex 0.04379972041274732 0.02457903799448468 0.004999999999999999
    vertex 0.04554531392014301 0.02567959193453623 0.009999999999999998
    vertex 0.03972666889549072 0.02201107880103106 0.01000000000000003
  endloop
endfacet
facet normal 0.533326 -0.84591 -1.00976e-15
  outer loop
    vertex 0.0472909074275387 0.02678014587458779 0.015
    vertex 0.04554531392014301 0.02567959193453623 0.009999999999999998
    vertex 0.05136395894479528 0.02934810506804142 0.009999999999999972
  endloop
endfacet
facet normal 0.533326 -0.84591 6.8959e-16
  outer loop
    vertex 0.05136395894479528 0.02934810506804142 0.009999999999999972
    vertex 0.04554531392014301 0.02567959193453623 0.009999999999999998
    vertex 0.04752365322852479 0.026926886399928 0.004999999999999991
  endloop
endfacet
facet normal 0.621589 0.783344 -1.14427e-15
  outer loop
    vertex 0.03972666889549072 0.02201107880103106 0
    vertex 0.04434983293541155 0.01834256566752589 0.006020408163265312
    vertex 0.04897299697533237 0.01467405253402071 0
  endloop
endfacet
facet normal 0.621589 0.783344 2.91102e-16
  outer loop
    vertex 0.04897299697533237 0.01467405253402071 0.02
    vertex 0.04434983293541153 0.0183425656675259 0.01408371511870054
    vertex 0.03972666889549072 0.02201107880103106 0.02
  endloop
endfacet
facet normal 0.621589 0.783344 -0
  outer loop
    vertex 0.04897299697533237 0.01467405253402071 0
    vertex 0.04434983293541155 0.01834256566752589 0.006020408163265312
    vertex 0.04897299697533237 0.01467405253402071 0.01000000000000003
  endloop
endfacet
facet normal 0.621589 0.783344 0
  outer loop
    vertex 0.03972666889549072 0.02201107880103106 0.02
    vertex 0.04434983293541153 0.0183425656675259 0.01408371511870054
    vertex 0.03972666889549072 0.02201107880103106 0.009999999999999972
  endloop
endfacet
facet normal 0.621589 0.783344 0
  outer loop
    vertex 0.03972666889549072 0.02201107880103106 0.009999999999999972
    vertex 0.04434983293541155 0.01834256566752589 0.006020408163265312
    vertex 0.03972666889549072 0.02201107880103106 0
  endloop
endfacet
facet normal 0.621589 0.783344 -0
  outer loop
    vertex 0.04897299697533237 0.01467405253402071 0.01000000000000003
    vertex 0.04434983293541153 0.0183425656675259 0.01408371511870054
    vertex 0.04897299697533237 0.01467405253402071 0.02
  endloop
endfacet
facet normal 0.621589 0.783344 5.69574e-16
  outer loop
    vertex 0.03972666889549072 0.02201107880103106 0.009999999999999972
    vertex 0.04434983293541153 0.0183425656675259 0.01408371511870054
    vertex 0.04434983293541155 0.01834256566752589 0.006020408163265312
  endloop
endfacet
facet normal 0.621589 0.783344 5.93566e-16
  outer loop
    vertex 0.04434983293541155 0.01834256566752589 0.006020408163265312
    vertex 0.04434983293541153 0.0183425656675259 0.01408371511870054
    vertex 0.04897299697533237 0.01467405253402071 0.01000000000000003
  endloop
endfacet
facet normal 0.569844 -0.821753 1.84202e-16
  outer loop
    vertex 0.04368276084900848 0.01100553940051554 0
    vertex 0.04897299697533237 0.01467405253402071 0.009999999999999972
    vertex 0.03839252472268456 0.007337026267010355 0.01000000000000003
  endloop
endfacet
facet normal 0.569844 -0.821753 -2.10517e-16
  outer loop
    vertex 0.03839252472268456 0.007337026267010355 0.01000000000000003
    vertex 0.04897299697533237 0.01467405253402071 0.009999999999999972
    vertex 0.04368276084900846 0.01100553940051553 0.02
  endloop
endfacet
facet normal 0.569844 -0.821753 0
  outer loop
    vertex 0.04368276084900848 0.01100553940051554 0
    vertex 0.04897299697533237 0.01467405253402071 0
    vertex 0.04897299697533237 0.01467405253402071 0.009999999999999972
  endloop
endfacet
facet normal 0.569844 -0.821753 0
  outer loop
    vertex 0.04897299697533237 0.01467405253402071 0.009999999999999972
    vertex 0.04897299697533237 0.01467405253402071 0.02
    vertex 0.04368276084900846 0.01100553940051553 0.02
  endloop
endfacet
facet normal 0.569844 -0.821753 0
  outer loop
    vertex 0.03839252472268456 0.007337026267010355 0.01000000000000003
    vertex 0.03839252472268456 0.007337026267010355 0
    vertex 0.04368276084900848 0.01100553940051554 0
  endloop
endfacet
facet normal 0.569844 -0.821753 0
  outer loop
    vertex 0.04368276084900846 0.01100553940051553 0.02
    vertex 0.03839252472268456 0.007337026267010355 0.02
    vertex 0.03839252472268456 0.007337026267010355 0.01000000000000003
  endloop
endfacet
endsolid Created by Gmsh
