solid Created by Gmsh
facet normal 1 0 0
  outer loop
    vertex 0.04 0.05150136217512051 0
    vertex 0.04 0.05575068108756025 0.005
    vertex 0.04 0.05150136217512051 0.01000000000000003
  endloop
endfacet
facet normal 1 0 0
  outer loop
    vertex 0.04 0.06 0.02
    vertex 0.04 0.05575068108756025 0.015
    vertex 0.04 0.06 0.009999999999999972
  endloop
endfacet
facet normal 1 0 0
  outer loop
    vertex 0.04 0.05150136217512051 0.01000000000000003
    vertex 0.04 0.05575068108756025 0.015
    vertex 0.04 0.05150136217512051 0.02
  endloop
endfacet
facet normal 1 0 0
  outer loop
    vertex 0.04 0.06 0.009999999999999972
    vertex 0.04 0.05575068108756025 0.005
    vertex 0.04 0.06 0
  endloop
endfacet
facet normal 1 0 0
  outer loop
    vertex 0.04 0.06 0
    vertex 0.04 0.05575068108756025 0.005
    vertex 0.04 0.05150136217512051 0
  endloop
endfacet
facet normal 1 -0 0
  outer loop
    vertex 0.04 0.05150136217512051 0.02
    vertex 0.04 0.05575068108756025 0.015
    vertex 0.04 0.06 0.02
  endloop
endfacet
facet normal 1 0 0
  outer loop
    vertex 0.04 0.06 0.009999999999999972
    vertex 0.04 0.05575068108756025 0.015
    vertex 0.04 0.05150136217512051 0.01000000000000003
  endloop
endfacet
facet normal 1 0 0
  outer loop
    vertex 0.04 0.05150136217512051 0.01000000000000003
    vertex 0.04 0.05575068108756025 0.005
    vertex 0.04 0.06 0.009999999999999972
  endloop
endfacet
facet normal 0.942276 0.334838 -2.18204e-15
  outer loop
    vertex 0.04 0.05150136217512051 0
    vertex 0.04114381565258615 0.04828252703917548 0.005000000000000001
    vertex 0.04228763130517228 0.04506369190323044 0
  endloop
endfacet
facet normal 0.942276 0.334838 -1.71092e-15
  outer loop
    vertex 0.04 0.05150136217512051 0.009999999999999972
    vertex 0.04114381565258615 0.04828252703917547 0.015
    vertex 0.04228763130517228 0.04506369190323044 0.01000000000000003
  endloop
endfacet
facet normal 0.942276 0.334838 2.20683e-15
  outer loop
    vertex 0.04228763130517228 0.04506369190323044 0.01000000000000003
    vertex 0.04114381565258615 0.04828252703917548 0.005000000000000001
    vertex 0.04 0.05150136217512051 0.009999999999999972
  endloop
endfacet
facet normal 0.942276 0.334838 1.73571e-15
  outer loop
    vertex 0.04228763130517228 0.04506369190323044 0.02
    vertex 0.04114381565258615 0.04828252703917547 0.015
    vertex 0.04 0.05150136217512051 0.02
  endloop
endfacet
facet normal 0.942276 0.334838 0
  outer loop
    vertex 0.04 0.05150136217512051 0.009999999999999972
    vertex 0.04114381565258615 0.04828252703917548 0.005000000000000001
    vertex 0.04 0.05150136217512051 0
  endloop
endfacet
facet normal 0.942276 0.334838 0
  outer loop
    vertex 0.04 0.05150136217512051 0.02
    vertex 0.04114381565258615 0.04828252703917547 0.015
    vertex 0.04 0.05150136217512051 0.009999999999999972
  endloop
endfacet
facet normal 0.942276 0.334838 -0
  outer loop
    vertex 0.04228763130517228 0.04506369190323044 0
    vertex 0.04114381565258615 0.04828252703917548 0.005000000000000001
    vertex 0.04228763130517228 0.04506369190323044 0.01000000000000003
  endloop
endfacet
facet normal 0.942276 0.334838 -0
  outer loop
    vertex 0.04228763130517228 0.04506369190323044 0.01000000000000003
    vertex 0.04114381565258615 0.04828252703917547 0.015
    vertex 0.04228763130517228 0.04506369190323044 0.02
  endloop
endfacet
facet normal 0.970205 0.242287 1.53185e-16
  outer loop
    vertex 0.04389529850840287 0.03862602163134038 0.01000000000000003
    vertex 0.04309146490678758 0.04184485676728542 0.005
    vertex 0.04228763130517228 0.04506369190323044 0.009999999999999972
  endloop
endfacet
facet normal 0.970205 0.242287 -1.78716e-16
  outer loop
    vertex 0.04228763130517228 0.04506369190323044 0
    vertex 0.04309146490678758 0.04184485676728542 0.005
    vertex 0.04389529850840287 0.03862602163134038 0
  endloop
endfacet
facet normal 0.970205 0.242287 1.53185e-16
  outer loop
    vertex 0.04389529850840287 0.03862602163134038 0.02
    vertex 0.04309146490678758 0.04184485676728542 0.015
    vertex 0.04228763130517228 0.04506369190323044 0.02
  endloop
endfacet
facet normal 0.970205 0.242287 -1.78716e-16
  outer loop
    vertex 0.04228763130517228 0.04506369190323044 0.009999999999999972
    vertex 0.04309146490678758 0.04184485676728542 0.015
    vertex 0.04389529850840287 0.03862602163134038 0.01000000000000003
  endloop
endfacet
facet normal 0.970205 0.242287 0
  outer loop
    vertex 0.04228763130517228 0.04506369190323044 0.009999999999999972
    vertex 0.04309146490678758 0.04184485676728542 0.005
    vertex 0.04228763130517228 0.04506369190323044 0
  endloop
endfacet
facet normal 0.970205 0.242287 0
  outer loop
    vertex 0.04228763130517228 0.04506369190323044 0.02
    vertex 0.04309146490678758 0.04184485676728542 0.015
    vertex 0.04228763130517228 0.04506369190323044 0.009999999999999972
  endloop
endfacet
facet normal 0.970205 0.242287 -0
  outer loop
    vertex 0.04389529850840287 0.03862602163134038 0
    vertex 0.04309146490678758 0.04184485676728542 0.005
    vertex 0.04389529850840287 0.03862602163134038 0.01000000000000003
  endloop
endfacet
facet normal 0.970205 0.242287 -0
  outer loop
    vertex 0.04389529850840287 0.03862602163134038 0.01000000000000003
    vertex 0.04309146490678758 0.04184485676728542 0.015
    vertex 0.04389529850840287 0.03862602163134038 0.02
  endloop
endfacet
facet normal 0.493312 -0.869852 0
  outer loop
    vertex 0.03254381468530157 0.03218835135945032 0.01000000000000003
    vertex 0.04389529850840287 0.03862602163134038 0.009999999999999972
    vertex 0.03821955659685222 0.03540718649539535 0.02
  endloop
endfacet
facet normal 0.493312 -0.869852 0
  outer loop
    vertex 0.03821955659685222 0.03540718649539535 0
    vertex 0.04389529850840287 0.03862602163134038 0.009999999999999972
    vertex 0.03254381468530157 0.03218835135945032 0.01000000000000003
  endloop
endfacet
facet normal 0.493312 -0.869852 0
  outer loop
    vertex 0.03821955659685222 0.03540718649539535 0
    vertex 0.04389529850840287 0.03862602163134038 0
    vertex 0.04389529850840287 0.03862602163134038 0.009999999999999972
  endloop
endfacet
facet normal 0.493312 -0.869852 0
  outer loop
    vertex 0.04389529850840287 0.03862602163134038 0.009999999999999972
    vertex 0.04389529850840287 0.03862602163134038 0.02
    vertex 0.03821955659685222 0.03540718649539535 0.02
  endloop
endfacet
facet normal 0.493312 -0.869852 0
  outer loop
    vertex 0.03254381468530157 0.03218835135945032 0.01000000000000003
    vertex 0.03254381468530157 0.03218835135945032 0
    vertex 0.03821955659685222 0.03540718649539535 0
  endloop
endfacet
facet normal 0.493312 -0.869852 0
  outer loop
    vertex 0.03821955659685222 0.03540718649539535 0.02
    vertex 0.03254381468530157 0.03218835135945032 0.02
    vertex 0.03254381468530157 0.03218835135945032 0.01000000000000003
  endloop
endfacet
facet normal 0.672849 0.73978 0
  outer loop
    vertex 0.03254381468530157 0.03218835135945032 0.02
    vertex 0.03608284029017624 0.02896951622350528 0.015
    vertex 0.03254381468530157 0.03218835135945032 0.009999999999999972
  endloop
endfacet
facet normal 0.672849 0.73978 -0
  outer loop
    vertex 0.0396218658950509 0.02575068108756026 0
    vertex 0.03608284029017624 0.02896951622350528 0.005000000000000001
    vertex 0.0396218658950509 0.02575068108756026 0.01000000000000003
  endloop
endfacet
facet normal 0.672849 0.73978 0
  outer loop
    vertex 0.03254381468530157 0.03218835135945032 0.009999999999999972
    vertex 0.03608284029017624 0.02896951622350528 0.005000000000000001
    vertex 0.03254381468530157 0.03218835135945032 0
  endloop
endfacet
facet normal 0.672849 0.73978 -0
  outer loop
    vertex 0.0396218658950509 0.02575068108756026 0.01000000000000003
    vertex 0.03608284029017624 0.02896951622350528 0.015
    vertex 0.0396218658950509 0.02575068108756026 0.02
  endloop
endfacet
facet normal 0.672849 0.73978 -4.95766e-16
  outer loop
    vertex 0.0396218658950509 0.02575068108756026 0.01000000000000003
    vertex 0.03608284029017624 0.02896951622350528 0.005000000000000001
    vertex 0.03254381468530157 0.03218835135945032 0.009999999999999972
  endloop
endfacet
facet normal 0.672849 0.73978 4.95766e-16
  outer loop
    vertex 0.03254381468530157 0.03218835135945032 0.009999999999999972
    vertex 0.03608284029017624 0.02896951622350528 0.015
    vertex 0.0396218658950509 0.02575068108756026 0.01000000000000003
  endloop
endfacet
facet normal 0.672849 0.73978 4.95766e-16
  outer loop
    vertex 0.03254381468530157 0.03218835135945032 0
    vertex 0.03608284029017624 0.02896951622350528 0.005000000000000001
    vertex 0.0396218658950509 0.02575068108756026 0
  endloop
endfacet
facet normal 0.672849 0.73978 -4.95766e-16
  outer loop
    vertex 0.0396218658950509 0.02575068108756026 0.02
    vertex 0.03608284029017624 0.02896951622350528 0.015
    vertex 0.03254381468530157 0.03218835135945032 0.02
  endloop
endfacet
facet normal 0.975509 0.21996 -6.93101e-16
  outer loop
    vertex 0.0396218658950509 0.02575068108756026 0.009999999999999972
    vertex 0.04034765499655957 0.02253184595161522 0.015
    vertex 0.04107344409806823 0.01931301081567019 0.01000000000000003
  endloop
endfacet
facet normal 0.975509 0.21996 -6.93101e-16
  outer loop
    vertex 0.0396218658950509 0.02575068108756026 0
    vertex 0.04034765499655957 0.02253184595161522 0.005
    vertex 0.04107344409806823 0.01931301081567019 0
  endloop
endfacet
facet normal 0.975509 0.21996 6.67431e-16
  outer loop
    vertex 0.04107344409806823 0.01931301081567019 0.02
    vertex 0.04034765499655957 0.02253184595161522 0.015
    vertex 0.0396218658950509 0.02575068108756026 0.02
  endloop
endfacet
facet normal 0.975509 0.21996 6.67431e-16
  outer loop
    vertex 0.04107344409806823 0.01931301081567019 0.01000000000000003
    vertex 0.04034765499655957 0.02253184595161522 0.005
    vertex 0.0396218658950509 0.02575068108756026 0.009999999999999972
  endloop
endfacet
facet normal 0.975509 0.21996 0
  outer loop
    vertex 0.0396218658950509 0.02575068108756026 0.009999999999999972
    vertex 0.04034765499655957 0.02253184595161522 0.005
    vertex 0.0396218658950509 0.02575068108756026 0
  endloop
endfacet
facet normal 0.975509 0.21996 0
  outer loop
    vertex 0.0396218658950509 0.02575068108756026 0.02
    vertex 0.04034765499655957 0.02253184595161522 0.015
    vertex 0.0396218658950509 0.02575068108756026 0.009999999999999972
  endloop
endfacet
facet normal 0.975509 0.21996 -0
  outer loop
    vertex 0.04107344409806823 0.01931301081567019 0
    vertex 0.04034765499655957 0.02253184595161522 0.005
    vertex 0.04107344409806823 0.01931301081567019 0.01000000000000003
  endloop
endfacet
facet normal 0.975509 0.21996 -0
  outer loop
    vertex 0.04107344409806823 0.01931301081567019 0.01000000000000003
    vertex 0.04034765499655957 0.02253184595161522 0.015
    vertex 0.04107344409806823 0.01931301081567019 0.02
  endloop
endfacet
facet normal 0.990381 -0.138364 -6.90637e-16
  outer loop
    vertex 0.04107344409806823 0.01931301081567019 0.009999999999999972
    vertex 0.04062374826360604 0.01609417567972516 0.015
    vertex 0.04017405242914385 0.01287534054378013 0.01000000000000003
  endloop
endfacet
facet normal 0.990381 -0.138364 6.90637e-16
  outer loop
    vertex 0.04017405242914385 0.01287534054378013 0.01000000000000003
    vertex 0.04062374826360604 0.01609417567972516 0.005
    vertex 0.04107344409806823 0.01931301081567019 0.009999999999999972
  endloop
endfacet
facet normal 0.990381 -0.138364 -6.90637e-16
  outer loop
    vertex 0.04107344409806823 0.01931301081567019 0
    vertex 0.04062374826360604 0.01609417567972516 0.005
    vertex 0.04017405242914385 0.01287534054378013 0
  endloop
endfacet
facet normal 0.990381 -0.138364 6.90637e-16
  outer loop
    vertex 0.04017405242914385 0.01287534054378013 0.02
    vertex 0.04062374826360604 0.01609417567972516 0.015
    vertex 0.04107344409806823 0.01931301081567019 0.02
  endloop
endfacet
facet normal 0.990381 -0.138364 0
  outer loop
    vertex 0.04107344409806823 0.01931301081567019 0.009999999999999972
    vertex 0.04062374826360604 0.01609417567972516 0.005
    vertex 0.04107344409806823 0.01931301081567019 0
  endloop
endfacet
facet normal 0.990381 -0.138364 0
  outer loop
    vertex 0.04107344409806823 0.01931301081567019 0.02
    vertex 0.04062374826360604 0.01609417567972516 0.015
    vertex 0.04107344409806823 0.01931301081567019 0.009999999999999972
  endloop
endfacet
facet normal 0.990381 -0.138364 0
  outer loop
    vertex 0.04017405242914385 0.01287534054378013 0
    vertex 0.04062374826360604 0.01609417567972516 0.005
    vertex 0.04017405242914385 0.01287534054378013 0.01000000000000003
  endloop
endfacet
facet normal 0.990381 -0.138364 0
  outer loop
    vertex 0.04017405242914385 0.01287534054378013 0.01000000000000003
    vertex 0.04062374826360604 0.01609417567972516 0.015
    vertex 0.04017405242914385 0.01287534054378013 0.02
  endloop
endfacet
facet normal 0.927026 -0.374998 -7.80627e-16
  outer loop
    vertex 0.04017405242914385 0.01287534054378013 0
    vertex 0.03887197834575969 0.009656505407835097 0.005
    vertex 0.03756990426237553 0.006437670271890066 0
  endloop
endfacet
facet normal 0.927026 -0.374998 7.31837e-16
  outer loop
    vertex 0.03756990426237553 0.006437670271890066 0.02
    vertex 0.03887197834575969 0.009656505407835097 0.015
    vertex 0.04017405242914385 0.01287534054378013 0.02
  endloop
endfacet
facet normal 0.927026 -0.374998 7.31837e-16
  outer loop
    vertex 0.03756990426237553 0.006437670271890066 0.01000000000000003
    vertex 0.03887197834575969 0.009656505407835097 0.005
    vertex 0.04017405242914385 0.01287534054378013 0.009999999999999972
  endloop
endfacet
facet normal 0.927026 -0.374998 -7.80627e-16
  outer loop
    vertex 0.04017405242914385 0.01287534054378013 0.009999999999999972
    vertex 0.03887197834575969 0.009656505407835097 0.015
    vertex 0.03756990426237553 0.006437670271890066 0.01000000000000003
  endloop
endfacet
facet normal 0.927026 -0.374998 0
  outer loop
    vertex 0.04017405242914385 0.01287534054378013 0.009999999999999972
    vertex 0.03887197834575969 0.009656505407835097 0.005
    vertex 0.04017405242914385 0.01287534054378013 0
  endloop
endfacet
facet normal 0.927026 -0.374998 0
  outer loop
    vertex 0.04017405242914385 0.01287534054378013 0.02
    vertex 0.03887197834575969 0.009656505407835097 0.015
    vertex 0.04017405242914385 0.01287534054378013 0.009999999999999972
  endloop
endfacet
facet normal 0.927026 -0.374998 0
  outer loop
    vertex 0.03756990426237553 0.006437670271890066 0
    vertex 0.03887197834575969 0.009656505407835097 0.005
    vertex 0.03756990426237553 0.006437670271890066 0.01000000000000003
  endloop
endfacet
facet normal 0.927026 -0.374998 0
  outer loop
    vertex 0.03756990426237553 0.006437670271890066 0.01000000000000003
    vertex 0.03887197834575969 0.009656505407835097 0.015
    vertex 0.03756990426237553 0.006437670271890066 0.02
  endloop
endfacet
endsolid Created by Gmsh
