solid Created by Gmsh
facet normal -0.61589 -0.787832 -1.74975e-15
  outer loop
    vertex 0.03129479171226469 0.05662231783557501 0
    vertex 0.04034854384558476 0.04954452810612813 0
    vertex 0.03582166777892472 0.05308342297085156 0.005728862973760926
  endloop
endfacet
facet normal -0.61589 -0.787832 1.76613e-15
  outer loop
    vertex 0.04034854384558476 0.04954452810612813 0.02
    vertex 0.03129479171226469 0.05662231783557501 0.02
    vertex 0.03582166777892472 0.05308342297085156 0.01432426114969104
  endloop
endfacet
facet normal -0.61589 -0.787832 0
  outer loop
    vertex 0.03582166777892472 0.05308342297085156 0.005728862973760926
    vertex 0.04034854384558476 0.04954452810612813 0.01000000000000003
    vertex 0.03582166777892472 0.05308342297085156 0.01432426114969104
  endloop
endfacet
facet normal -0.61589 -0.787832 0
  outer loop
    vertex 0.03129479171226469 0.05662231783557501 0.009999999999999972
    vertex 0.03582166777892472 0.05308342297085156 0.005728862973760926
    vertex 0.03582166777892472 0.05308342297085156 0.01432426114969104
  endloop
endfacet
facet normal -0.61589 -0.787832 -0
  outer loop
    vertex 0.03129479171226469 0.05662231783557501 0.02
    vertex 0.03129479171226469 0.05662231783557501 0.009999999999999972
    vertex 0.03582166777892472 0.05308342297085156 0.01432426114969104
  endloop
endfacet
facet normal -0.61589 -0.787832 0
  outer loop
    vertex 0.04034854384558476 0.04954452810612813 0
    vertex 0.04034854384558476 0.04954452810612813 0.01000000000000003
    vertex 0.03582166777892472 0.05308342297085156 0.005728862973760926
  endloop
endfacet
facet normal -0.61589 -0.787832 -0
  outer loop
    vertex 0.03129479171226469 0.05662231783557501 0.009999999999999972
    vertex 0.03129479171226469 0.05662231783557501 0
    vertex 0.03582166777892472 0.05308342297085156 0.005728862973760926
  endloop
endfacet
facet normal -0.61589 -0.787832 0
  outer loop
    vertex 0.04034854384558476 0.04954452810612813 0.01000000000000003
    vertex 0.04034854384558476 0.04954452810612813 0.02
    vertex 0.03582166777892472 0.05308342297085156 0.01432426114969104
  endloop
endfacet
facet normal -0.999605 -0.0281043 -1.40562e-15
  outer loop
    vertex 0.04034854384558476 0.04954452810612813 0.009999999999999972
    vertex 0.04054753861273196 0.04246673837668126 0.01000000000000003
    vertex 0.04044804122915835 0.04600563324140469 0.015
  endloop
endfacet
facet normal -0.999605 -0.0281043 -1.40562e-15
  outer loop
    vertex 0.04034854384558476 0.04954452810612813 0
    vertex 0.04054753861273196 0.04246673837668126 0
    vertex 0.04044804122915835 0.04600563324140469 0.005000000000000001
  endloop
endfacet
facet normal -0.999605 -0.0281043 1.40861e-15
  outer loop
    vertex 0.04054753861273196 0.04246673837668126 0.01000000000000003
    vertex 0.04034854384558476 0.04954452810612813 0.009999999999999972
    vertex 0.04044804122915835 0.04600563324140469 0.005000000000000001
  endloop
endfacet
facet normal -0.999605 -0.0281043 1.40861e-15
  outer loop
    vertex 0.04054753861273196 0.04246673837668126 0.02
    vertex 0.04034854384558476 0.04954452810612813 0.02
    vertex 0.04044804122915835 0.04600563324140469 0.015
  endloop
endfacet
facet normal -0.999605 -0.0281043 -0
  outer loop
    vertex 0.04034854384558476 0.04954452810612813 0.009999999999999972
    vertex 0.04034854384558476 0.04954452810612813 0
    vertex 0.04044804122915835 0.04600563324140469 0.005000000000000001
  endloop
endfacet
facet normal -0.999605 -0.0281043 -0
  outer loop
    vertex 0.04034854384558476 0.04954452810612813 0.02
    vertex 0.04034854384558476 0.04954452810612813 0.009999999999999972
    vertex 0.04044804122915835 0.04600563324140469 0.015
  endloop
endfacet
facet normal -0.999605 -0.0281043 0
  outer loop
    vertex 0.04054753861273196 0.04246673837668126 0
    vertex 0.04054753861273196 0.04246673837668126 0.01000000000000003
    vertex 0.04044804122915835 0.04600563324140469 0.005000000000000001
  endloop
endfacet
facet normal -0.999605 -0.0281043 0
  outer loop
    vertex 0.04054753861273196 0.04246673837668126 0.01000000000000003
    vertex 0.04054753861273196 0.04246673837668126 0.02
    vertex 0.04044804122915835 0.04600563324140469 0.015
  endloop
endfacet
facet normal -0.791597 0.611044 0
  outer loop
    vertex 0.04054753861273196 0.04246673837668126 0.02
    vertex 0.04054753861273196 0.04246673837668126 0.009999999999999972
    vertex 0.03781581917651424 0.03892784351195782 0.015
  endloop
endfacet
facet normal -0.791597 0.611044 0
  outer loop
    vertex 0.03508409974029651 0.03538894864723438 0
    vertex 0.03508409974029651 0.03538894864723438 0.01000000000000003
    vertex 0.03781581917651424 0.03892784351195782 0.005
  endloop
endfacet
facet normal -0.791597 0.611044 0
  outer loop
    vertex 0.04054753861273196 0.04246673837668126 0.009999999999999972
    vertex 0.04054753861273196 0.04246673837668126 0
    vertex 0.03781581917651424 0.03892784351195782 0.005
  endloop
endfacet
facet normal -0.791597 0.611044 0
  outer loop
    vertex 0.03508409974029651 0.03538894864723438 0.01000000000000003
    vertex 0.03508409974029651 0.03538894864723438 0.02
    vertex 0.03781581917651424 0.03892784351195782 0.015
  endloop
endfacet
facet normal -0.791597 0.611044 -1.13681e-15
  outer loop
    vertex 0.03508409974029651 0.03538894864723438 0.01000000000000003
    vertex 0.04054753861273196 0.04246673837668126 0.009999999999999972
    vertex 0.03781581917651424 0.03892784351195782 0.005
  endloop
endfacet
facet normal -0.791597 0.611044 1.06102e-15
  outer loop
    vertex 0.04054753861273196 0.04246673837668126 0.009999999999999972
    vertex 0.03508409974029651 0.03538894864723438 0.01000000000000003
    vertex 0.03781581917651424 0.03892784351195782 0.015
  endloop
endfacet
facet normal -0.791597 0.611044 1.06102e-15
  outer loop
    vertex 0.04054753861273196 0.04246673837668126 0
    vertex 0.03508409974029651 0.03538894864723438 0
    vertex 0.03781581917651424 0.03892784351195782 0.005
  endloop
endfacet
facet normal -0.791597 0.611044 -1.13681e-15
  outer loop
    vertex 0.03508409974029651 0.03538894864723438 0.02
    vertex 0.04054753861273196 0.04246673837668126 0.02
    vertex 0.03781581917651424 0.03892784351195782 0.015
  endloop
endfacet
facet normal -0.362143 0.932122 -7.34145e-16
  outer loop
    vertex 0.03508409974029651 0.03538894864723438 0
    vertex 0.02597531648229263 0.03185005378251094 0
    vertex 0.02809132304593191 0.03267215312878798 0.007556328633689271
  endloop
endfacet
facet normal -0.362143 0.932122 0
  outer loop
    vertex 0.03508409974029651 0.03538894864723438 0.009999999999999972
    vertex 0.03508409974029651 0.03538894864723438 0
    vertex 0.02809132304593191 0.03267215312878798 0.007556328633689271
  endloop
endfacet
facet normal -0.362143 0.932122 0
  outer loop
    vertex 0.01686653322428875 0.02831115891778751 0.01000000000000003
    vertex 0.01686653322428875 0.02831115891778751 0.02
    vertex 0.02349178975718402 0.03088516750462444 0.01296207884561556
  endloop
endfacet
facet normal -0.362143 0.932122 6.89694e-16
  outer loop
    vertex 0.01686653322428875 0.02831115891778751 0.02
    vertex 0.02597531648229263 0.03185005378251094 0.02
    vertex 0.02349178975718402 0.03088516750462444 0.01296207884561556
  endloop
endfacet
facet normal -0.362143 0.932122 0
  outer loop
    vertex 0.01686653322428875 0.02831115891778751 0
    vertex 0.01686653322428875 0.02831115891778751 0.01000000000000003
    vertex 0.0218492110091246 0.03024700175495601 0.005449002160947922
  endloop
endfacet
facet normal -0.362143 0.932122 0
  outer loop
    vertex 0.03508409974029651 0.03538894864723438 0.02
    vertex 0.03508409974029651 0.03538894864723438 0.009999999999999972
    vertex 0.02968044081504471 0.03328954851006598 0.01415471694072213
  endloop
endfacet
facet normal -0.362143 0.932122 -6.68106e-16
  outer loop
    vertex 0.02597531648229263 0.03185005378251094 0
    vertex 0.01686653322428875 0.02831115891778751 0
    vertex 0.0218492110091246 0.03024700175495601 0.005449002160947922
  endloop
endfacet
facet normal -0.362143 0.932122 5.93154e-16
  outer loop
    vertex 0.02597531648229263 0.03185005378251094 0.02
    vertex 0.03508409974029651 0.03538894864723438 0.02
    vertex 0.02968044081504471 0.03328954851006598 0.01415471694072213
  endloop
endfacet
facet normal -0.362143 0.932122 -2.46123e-16
  outer loop
    vertex 0.01686653322428875 0.02831115891778751 0.01000000000000003
    vertex 0.02349178975718402 0.03088516750462444 0.01296207884561556
    vertex 0.0218492110091246 0.03024700175495601 0.005449002160947922
  endloop
endfacet
facet normal -0.362143 0.932122 -1.40129e-16
  outer loop
    vertex 0.02968044081504471 0.03328954851006598 0.01415471694072213
    vertex 0.03508409974029651 0.03538894864723438 0.009999999999999972
    vertex 0.02809132304593191 0.03267215312878798 0.007556328633689271
  endloop
endfacet
facet normal -0.362143 0.932122 -3.54452e-16
  outer loop
    vertex 0.02349178975718402 0.03088516750462444 0.01296207884561556
    vertex 0.02809132304593191 0.03267215312878798 0.007556328633689271
    vertex 0.0218492110091246 0.03024700175495601 0.005449002160947922
  endloop
endfacet
facet normal -0.362143 0.932122 -8.31904e-16
  outer loop
    vertex 0.02809132304593191 0.03267215312878798 0.007556328633689271
    vertex 0.02597531648229263 0.03185005378251094 0
    vertex 0.0218492110091246 0.03024700175495601 0.005449002160947922
  endloop
endfacet
facet normal -0.362143 0.932122 -8.11033e-17
  outer loop
    vertex 0.02968044081504471 0.03328954851006598 0.01415471694072213
    vertex 0.02809132304593191 0.03267215312878798 0.007556328633689271
    vertex 0.02349178975718402 0.03088516750462444 0.01296207884561556
  endloop
endfacet
facet normal -0.362143 0.932122 7.00199e-16
  outer loop
    vertex 0.02597531648229263 0.03185005378251094 0.02
    vertex 0.02968044081504471 0.03328954851006598 0.01415471694072213
    vertex 0.02349178975718402 0.03088516750462444 0.01296207884561556
  endloop
endfacet
facet normal -0.332308 -0.943171 -0
  outer loop
    vertex 0.01686653322428875 0.02831115891778751 0.009999999999999972
    vertex 0.01686653322428875 0.02831115891778751 0
    vertex 0.02454817500071236 0.02560467962576508 0.008002893654647675
  endloop
endfacet
facet normal -0.332308 -0.943171 1.98773e-16
  outer loop
    vertex 0.01686653322428875 0.02831115891778751 0
    vertex 0.02691077140315057 0.02477226405306407 0
    vertex 0.02454817500071236 0.02560467962576508 0.008002893654647675
  endloop
endfacet
facet normal -0.332308 -0.943171 4.35142e-17
  outer loop
    vertex 0.03695500958201241 0.02123336918834063 0.02
    vertex 0.02691077140315059 0.02477226405306407 0.02
    vertex 0.03000809450090464 0.02368098160736312 0.01268856399094796
  endloop
endfacet
facet normal -0.332308 -0.943171 0
  outer loop
    vertex 0.03695500958201241 0.02123336918834063 0.01000000000000003
    vertex 0.03695500958201241 0.02123336918834063 0.02
    vertex 0.03000809450090464 0.02368098160736312 0.01268856399094796
  endloop
endfacet
facet normal -0.332308 -0.943171 -1.27261e-16
  outer loop
    vertex 0.02691077140315059 0.02477226405306407 0.02
    vertex 0.01686653322428875 0.02831115891778751 0.02
    vertex 0.02188865231371967 0.02654171148542579 0.01499999999999999
  endloop
endfacet
facet normal -0.332308 -0.943171 2.63488e-16
  outer loop
    vertex 0.02691077140315057 0.02477226405306407 0
    vertex 0.03695500958201241 0.02123336918834063 0
    vertex 0.03113298037315653 0.02328464962420786 0.006037291487572856
  endloop
endfacet
facet normal -0.332308 -0.943171 -0
  outer loop
    vertex 0.01686653322428875 0.02831115891778751 0.02
    vertex 0.01686653322428875 0.02831115891778751 0.009999999999999972
    vertex 0.02188865231371967 0.02654171148542579 0.01499999999999999
  endloop
endfacet
facet normal -0.332308 -0.943171 0
  outer loop
    vertex 0.03695500958201241 0.02123336918834063 0
    vertex 0.03695500958201241 0.02123336918834063 0.01000000000000003
    vertex 0.03113298037315653 0.02328464962420786 0.006037291487572856
  endloop
endfacet
facet normal -0.332308 -0.943171 3.06058e-17
  outer loop
    vertex 0.03000809450090464 0.02368098160736312 0.01268856399094796
    vertex 0.02691077140315059 0.02477226405306407 0.02
    vertex 0.02188865231371967 0.02654171148542579 0.01499999999999999
  endloop
endfacet
facet normal -0.332308 -0.943171 -6.30725e-17
  outer loop
    vertex 0.02454817500071236 0.02560467962576508 0.008002893654647675
    vertex 0.03000809450090464 0.02368098160736312 0.01268856399094796
    vertex 0.02188865231371967 0.02654171148542579 0.01499999999999999
  endloop
endfacet
facet normal -0.332308 -0.943171 2.32752e-16
  outer loop
    vertex 0.02691077140315057 0.02477226405306407 0
    vertex 0.03113298037315653 0.02328464962420786 0.006037291487572856
    vertex 0.02454817500071236 0.02560467962576508 0.008002893654647675
  endloop
endfacet
facet normal -0.332308 -0.943171 3.29864e-17
  outer loop
    vertex 0.01686653322428875 0.02831115891778751 0.009999999999999972
    vertex 0.02454817500071236 0.02560467962576508 0.008002893654647675
    vertex 0.02188865231371967 0.02654171148542579 0.01499999999999999
  endloop
endfacet
facet normal -0.332308 -0.943171 -1.92106e-16
  outer loop
    vertex 0.02454817500071236 0.02560467962576508 0.008002893654647675
    vertex 0.03113298037315653 0.02328464962420786 0.006037291487572856
    vertex 0.03000809450090464 0.02368098160736312 0.01268856399094796
  endloop
endfacet
facet normal -0.332308 -0.943171 -1.85009e-16
  outer loop
    vertex 0.03113298037315653 0.02328464962420786 0.006037291487572856
    vertex 0.03695500958201241 0.02123336918834063 0.01000000000000003
    vertex 0.03000809450090464 0.02368098160736312 0.01268856399094796
  endloop
endfacet
facet normal -0.434415 0.900713 -4.26648e-17
  outer loop
    vertex 0.02961748148860545 0.01769447432361719 0.02
    vertex 0.03695500958201241 0.02123336918834063 0.02
    vertex 0.02917776617245083 0.01748239932308969 0.01207953869231379
  endloop
endfacet
facet normal -0.434415 0.900713 0
  outer loop
    vertex 0.03695500958201241 0.02123336918834063 0.02
    vertex 0.03695500958201241 0.02123336918834063 0.009999999999999972
    vertex 0.02917776617245083 0.01748239932308969 0.01207953869231379
  endloop
endfacet
facet normal -0.434415 0.900713 -5.25105e-17
  outer loop
    vertex 0.0222799533951985 0.01415557945889375 0.02
    vertex 0.02961748148860545 0.01769447432361719 0.02
    vertex 0.02917776617245083 0.01748239932308969 0.01207953869231379
  endloop
endfacet
facet normal -0.434415 0.900713 0
  outer loop
    vertex 0.0222799533951985 0.01415557945889375 0.01000000000000003
    vertex 0.0222799533951985 0.01415557945889375 0.02
    vertex 0.02917776617245083 0.01748239932308969 0.01207953869231379
  endloop
endfacet
facet normal -0.434415 0.900713 0
  outer loop
    vertex 0.0222799533951985 0.01415557945889375 0
    vertex 0.0222799533951985 0.01415557945889375 0.01000000000000003
    vertex 0.02703441418705468 0.01644865918092537 0.005645571952790492
  endloop
endfacet
facet normal -0.434415 0.900713 0
  outer loop
    vertex 0.03695500958201241 0.02123336918834063 0.009999999999999972
    vertex 0.03695500958201241 0.02123336918834063 0
    vertex 0.03194793620242715 0.0188184542408627 0.005545022129020851
  endloop
endfacet
facet normal -0.434415 0.900713 -6.00045e-16
  outer loop
    vertex 0.03695500958201241 0.02123336918834063 0
    vertex 0.02961748148860546 0.01769447432361719 0
    vertex 0.03194793620242715 0.0188184542408627 0.005545022129020851
  endloop
endfacet
facet normal -0.434415 0.900713 -5.89358e-16
  outer loop
    vertex 0.02961748148860546 0.01769447432361719 0
    vertex 0.0222799533951985 0.01415557945889375 0
    vertex 0.02703441418705468 0.01644865918092537 0.005645571952790492
  endloop
endfacet
facet normal -0.434415 0.900713 4.74084e-16
  outer loop
    vertex 0.02917776617245083 0.01748239932308969 0.01207953869231379
    vertex 0.03695500958201241 0.02123336918834063 0.009999999999999972
    vertex 0.03194793620242715 0.0188184542408627 0.005545022129020851
  endloop
endfacet
facet normal -0.434415 0.900713 4.58642e-16
  outer loop
    vertex 0.02703441418705468 0.01644865918092537 0.005645571952790492
    vertex 0.0222799533951985 0.01415557945889375 0.01000000000000003
    vertex 0.02917776617245083 0.01748239932308969 0.01207953869231379
  endloop
endfacet
facet normal -0.434415 0.900713 3.83517e-16
  outer loop
    vertex 0.02703441418705468 0.01644865918092537 0.005645571952790492
    vertex 0.02917776617245083 0.01748239932308969 0.01207953869231379
    vertex 0.03194793620242715 0.0188184542408627 0.005545022129020851
  endloop
endfacet
facet normal -0.434415 0.900713 -6.38556e-16
  outer loop
    vertex 0.02961748148860546 0.01769447432361719 0
    vertex 0.02703441418705468 0.01644865918092537 0.005645571952790492
    vertex 0.03194793620242715 0.0188184542408627 0.005545022129020851
  endloop
endfacet
facet normal -0.503021 -0.864274 0
  outer loop
    vertex 0.03444078002049045 0.007077789729446879 0
    vertex 0.03444078002049045 0.007077789729446879 0.01000000000000003
    vertex 0.03018449070163827 0.009555016134753279 0.005000000000000004
  endloop
endfacet
facet normal -0.503021 -0.864274 -0
  outer loop
    vertex 0.0222799533951985 0.01415557945889375 0.02
    vertex 0.0222799533951985 0.01415557945889375 0.009999999999999972
    vertex 0.02653624271405068 0.01167835305358734 0.015
  endloop
endfacet
facet normal -0.503021 -0.864274 -0
  outer loop
    vertex 0.0222799533951985 0.01415557945889375 0.009999999999999972
    vertex 0.0222799533951985 0.01415557945889375 0
    vertex 0.02629302618154485 0.01181990884817628 0.004999999999999998
  endloop
endfacet
facet normal -0.503021 -0.864274 0
  outer loop
    vertex 0.03444078002049045 0.007077789729446879 0.01000000000000003
    vertex 0.03444078002049045 0.007077789729446879 0.02
    vertex 0.03042770723414411 0.009413460340164343 0.01500000000000001
  endloop
endfacet
facet normal -0.503021 -0.864274 -6.98308e-16
  outer loop
    vertex 0.02836036670784448 0.01061668459417031 0
    vertex 0.03444078002049045 0.007077789729446879 0
    vertex 0.03018449070163827 0.009555016134753279 0.005000000000000004
  endloop
endfacet
facet normal -0.503021 -0.864274 6.98308e-16
  outer loop
    vertex 0.02836036670784448 0.01061668459417032 0.02
    vertex 0.0222799533951985 0.01415557945889375 0.02
    vertex 0.02653624271405068 0.01167835305358734 0.015
  endloop
endfacet
facet normal -0.503021 -0.864274 -6.26069e-16
  outer loop
    vertex 0.0222799533951985 0.01415557945889375 0
    vertex 0.02836036670784448 0.01061668459417031 0
    vertex 0.02629302618154485 0.01181990884817628 0.004999999999999998
  endloop
endfacet
facet normal -0.503021 -0.864274 3.85273e-16
  outer loop
    vertex 0.03444078002049045 0.007077789729446879 0.02
    vertex 0.02836036670784448 0.01061668459417032 0.02
    vertex 0.03042770723414411 0.009413460340164343 0.01500000000000001
  endloop
endfacet
facet normal -0.503021 -0.864274 -7.52487e-16
  outer loop
    vertex 0.02836036670784448 0.01061668459417031 0
    vertex 0.03018449070163827 0.009555016134753279 0.005000000000000004
    vertex 0.02629302618154485 0.01181990884817628 0.004999999999999998
  endloop
endfacet
facet normal -0.503021 -0.864274 6.01989e-16
  outer loop
    vertex 0.02836036670784448 0.01061668459417032 0.02
    vertex 0.02653624271405068 0.01167835305358734 0.015
    vertex 0.03042770723414411 0.009413460340164343 0.01500000000000001
  endloop
endfacet
facet normal -0.503021 -0.864274 7.52487e-17
  outer loop
    vertex 0.02629302618154485 0.01181990884817628 0.004999999999999998
    vertex 0.03018449070163827 0.009555016134753279 0.005000000000000004
    vertex 0.02836036670784448 0.01061668459417031 0.01
  endloop
endfacet
facet normal -0.503021 -0.864274 -3.76243e-17
  outer loop
    vertex 0.03042770723414411 0.009413460340164343 0.01500000000000001
    vertex 0.02653624271405068 0.01167835305358734 0.015
    vertex 0.02836036670784448 0.01061668459417031 0.01
  endloop
endfacet
facet normal -0.503021 -0.864274 -3.13034e-16
  outer loop
    vertex 0.02653624271405068 0.01167835305358734 0.015
    vertex 0.0222799533951985 0.01415557945889375 0.009999999999999972
    vertex 0.02836036670784448 0.01061668459417031 0.01
  endloop
endfacet
facet normal -0.503021 -0.864274 1.92637e-16
  outer loop
    vertex 0.0222799533951985 0.01415557945889375 0.009999999999999972
    vertex 0.02629302618154485 0.01181990884817628 0.004999999999999998
    vertex 0.02836036670784448 0.01061668459417031 0.01
  endloop
endfacet
facet normal -0.503021 -0.864274 2.40796e-16
  outer loop
    vertex 0.03018449070163827 0.009555016134753279 0.005000000000000004
    vertex 0.03444078002049045 0.007077789729446879 0.01000000000000003
    vertex 0.02836036670784448 0.01061668459417031 0.01
  endloop
endfacet
facet normal -0.503021 -0.864274 -4.81591e-17
  outer loop
    vertex 0.03444078002049045 0.007077789729446879 0.01000000000000003
    vertex 0.03042770723414411 0.009413460340164343 0.01500000000000001
    vertex 0.02836036670784448 0.01061668459417031 0.01
  endloop
endfacet
endsolid Created by Gmsh
