solid Created by Gmsh
facet normal 0.997937 0.0642066 -9.94136e-17
  outer loop
    vertex 0.007320506770071718 0.01056108645725337 0.02
    vertex 0.007031907782602489 0.01504666294851584 0.009533724597618493
    vertex 0.006641013540143436 0.02112217291450676 0.02
  endloop
endfacet
facet normal 0.997937 0.0642066 -5.35304e-17
  outer loop
    vertex 0.005961520310215154 0.03168325937176013 0.02
    vertex 0.005570626067756103 0.03775876933775099 0.009533724597618492
    vertex 0.005282027080286873 0.04224434582901349 0.02
  endloop
endfacet
facet normal 0.997937 0.0642066 1.15011e-16
  outer loop
    vertex 0.005961520310215157 0.03168325937176008 0
    vertex 0.006301266925179296 0.02640271614313341 0.01009076632176545
    vertex 0.006641013540143439 0.02112217291450672 0
  endloop
endfacet
facet normal 0.997937 0.0642066 -1.75687e-16
  outer loop
    vertex 0.007031907782602489 0.01504666294851584 0.009533724597618493
    vertex 0.006301266925179296 0.02640271614313341 0.01009076632176545
    vertex 0.006641013540143436 0.02112217291450676 0.02
  endloop
endfacet
facet normal 0.997937 0.0642066 -8.78437e-17
  outer loop
    vertex 0.005961520310215154 0.03168325937176013 0.02
    vertex 0.006301266925179296 0.02640271614313341 0.01009076632176545
    vertex 0.005570626067756103 0.03775876933775099 0.009533724597618492
  endloop
endfacet
facet normal 0.997937 0.0642066 3.78543e-17
  outer loop
    vertex 0.005570626067756103 0.03775876933775099 0.009533724597618492
    vertex 0.006301266925179296 0.02640271614313341 0.01009076632176545
    vertex 0.005961520310215157 0.03168325937176008 0
  endloop
endfacet
facet normal 0.997937 0.0642066 1.55203e-16
  outer loop
    vertex 0.006641013540143439 0.02112217291450672 0
    vertex 0.006301266925179296 0.02640271614313341 0.01009076632176545
    vertex 0.007031907782602489 0.01504666294851584 0.009533724597618493
  endloop
endfacet
facet normal 0.997937 0.0642066 -1.61542e-16
  outer loop
    vertex 0.006641013540143436 0.02112217291450676 0.02
    vertex 0.006301266925179296 0.02640271614313341 0.01009076632176545
    vertex 0.005961520310215154 0.03168325937176013 0.02
  endloop
endfacet
facet normal 0.997937 0.0642066 0
  outer loop
    vertex 0.004602533850358593 0.05280543228626684 0.02
    vertex 0.005089152861308922 0.04524211124047513 0.01228191752003417
    vertex 0.004602533850358593 0.05280543228626684 0.009999999999999972
  endloop
endfacet
facet normal 0.997937 0.0642066 -0
  outer loop
    vertex 0.008 0 0.01000000000000003
    vertex 0.007513380989049669 0.007563321045791719 0.01228191752003419
    vertex 0.008 0 0.02
  endloop
endfacet
facet normal 0.997937 0.0642066 6.29641e-17
  outer loop
    vertex 0.005282027080286875 0.04224434582901347 0
    vertex 0.005570626067756103 0.03775876933775099 0.009533724597618492
    vertex 0.005961520310215157 0.03168325937176008 0
  endloop
endfacet
facet normal 0.997937 0.0642066 1.25928e-16
  outer loop
    vertex 0.006641013540143439 0.02112217291450672 0
    vertex 0.007031907782602489 0.01504666294851584 0.009533724597618493
    vertex 0.00732050677007172 0.01056108645725335 0
  endloop
endfacet
facet normal 0.997937 0.0642066 -1.45182e-16
  outer loop
    vertex 0.005282027080286873 0.04224434582901349 0.02
    vertex 0.005089152861308922 0.04524211124047513 0.01228191752003417
    vertex 0.004602533850358593 0.05280543228626684 0.02
  endloop
endfacet
facet normal 0.997937 0.0642066 -1.34812e-16
  outer loop
    vertex 0.008 0 0.02
    vertex 0.007513380989049669 0.007563321045791719 0.01228191752003419
    vertex 0.007320506770071718 0.01056108645725337 0.02
  endloop
endfacet
facet normal 0.997937 0.0642066 -1.02466e-16
  outer loop
    vertex 0.005570626067756103 0.03775876933775099 0.009533724597618492
    vertex 0.005089152861308922 0.04524211124047513 0.01228191752003417
    vertex 0.005282027080286873 0.04224434582901349 0.02
  endloop
endfacet
facet normal 0.997937 0.0642066 -8.96576e-17
  outer loop
    vertex 0.007320506770071718 0.01056108645725337 0.02
    vertex 0.007513380989049669 0.007563321045791719 0.01228191752003419
    vertex 0.007031907782602489 0.01504666294851584 0.009533724597618493
  endloop
endfacet
facet normal 0.997937 0.0642066 1.49343e-16
  outer loop
    vertex 0.005282027080286875 0.04224434582901347 0
    vertex 0.005004490662959222 0.04655798129929337 0.005973663159664659
    vertex 0.005570626067756103 0.03775876933775099 0.009533724597618492
  endloop
endfacet
facet normal 0.997937 0.0642066 1.24452e-16
  outer loop
    vertex 0.007031907782602489 0.01504666294851584 0.009533724597618493
    vertex 0.007598043187399371 0.006247450986973466 0.005973663159664677
    vertex 0.00732050677007172 0.01056108645725335 0
  endloop
endfacet
facet normal 0.997937 0.0642066 3.32638e-17
  outer loop
    vertex 0.005570626067756103 0.03775876933775099 0.009533724597618492
    vertex 0.005004490662959222 0.04655798129929337 0.005973663159664659
    vertex 0.005089152861308922 0.04524211124047513 0.01228191752003417
  endloop
endfacet
facet normal 0.997937 0.0642066 9.77125e-17
  outer loop
    vertex 0.007513380989049669 0.007563321045791719 0.01228191752003419
    vertex 0.007598043187399371 0.006247450986973466 0.005973663159664677
    vertex 0.007031907782602489 0.01504666294851584 0.009533724597618493
  endloop
endfacet
facet normal 0.997937 0.0642066 1.87578e-16
  outer loop
    vertex 0.004602533850358593 0.05280543228626684 0
    vertex 0.005004490662959222 0.04655798129929337 0.005973663159664659
    vertex 0.005282027080286875 0.04224434582901347 0
  endloop
endfacet
facet normal 0.997937 0.0642066 1.20586e-16
  outer loop
    vertex 0.00732050677007172 0.01056108645725335 0
    vertex 0.007598043187399371 0.006247450986973466 0.005973663159664677
    vertex 0.008 0 0
  endloop
endfacet
facet normal 0.997937 0.0642066 -0
  outer loop
    vertex 0.008 0 0
    vertex 0.007598043187399371 0.006247450986973466 0.005973663159664677
    vertex 0.008 0 0.01000000000000003
  endloop
endfacet
facet normal 0.997937 0.0642066 0
  outer loop
    vertex 0.004602533850358593 0.05280543228626684 0.009999999999999972
    vertex 0.005004490662959222 0.04655798129929337 0.005973663159664659
    vertex 0.004602533850358593 0.05280543228626684 0
  endloop
endfacet
facet normal 0.997937 0.0642066 6.61728e-17
  outer loop
    vertex 0.008 0 0.01000000000000003
    vertex 0.007598043187399371 0.006247450986973466 0.005973663159664677
    vertex 0.007513380989049669 0.007563321045791719 0.01228191752003419
  endloop
endfacet
facet normal 0.997937 0.0642066 4.72663e-18
  outer loop
    vertex 0.005089152861308922 0.04524211124047513 0.01228191752003417
    vertex 0.005004490662959222 0.04655798129929337 0.005973663159664659
    vertex 0.004602533850358593 0.05280543228626684 0.009999999999999972
  endloop
endfacet
endsolid Created by Gmsh
