solid Created by Gmsh
facet normal 1 0 0
  outer loop
    vertex 0.04 0.05822824728049784 0
    vertex 0.04 0.06 0
    vertex 0.04 0.06 0.009999999999999972
  endloop
endfacet
facet normal 1 0 0
  outer loop
    vertex 0.04 0.05822824728049784 0.01000000000000003
    vertex 0.04 0.06 0.02
    vertex 0.04 0.05822824728049784 0.02
  endloop
endfacet
facet normal 1 0 -0
  outer loop
    vertex 0.04 0.06 0.009999999999999972
    vertex 0.04 0.06 0.02
    vertex 0.04 0.05822824728049784 0.01000000000000003
  endloop
endfacet
facet normal 1 0 0
  outer loop
    vertex 0.04 0.05822824728049784 0
    vertex 0.04 0.06 0.009999999999999972
    vertex 0.04 0.05822824728049784 0.01000000000000003
  endloop
endfacet
facet normal 0.583687 -0.811979 2.71704e-16
  outer loop
    vertex 0.02987467907508192 0.05094971637043561 0.01000000000000003
    vertex 0.04 0.05822824728049784 0.009999999999999972
    vertex 0.03493733953754095 0.05458898182546672 0.02
  endloop
endfacet
facet normal 0.583687 -0.811979 2.71704e-17
  outer loop
    vertex 0.03493733953754097 0.05458898182546673 0
    vertex 0.04 0.05822824728049784 0.009999999999999972
    vertex 0.02987467907508192 0.05094971637043561 0.01000000000000003
  endloop
endfacet
facet normal 0.583687 -0.811979 0
  outer loop
    vertex 0.03493733953754097 0.05458898182546673 0
    vertex 0.04 0.05822824728049784 0
    vertex 0.04 0.05822824728049784 0.009999999999999972
  endloop
endfacet
facet normal 0.583687 -0.811979 0
  outer loop
    vertex 0.04 0.05822824728049784 0.009999999999999972
    vertex 0.04 0.05822824728049784 0.02
    vertex 0.03493733953754095 0.05458898182546672 0.02
  endloop
endfacet
facet normal 0.583687 -0.811979 0
  outer loop
    vertex 0.02987467907508192 0.05094971637043561 0.01000000000000003
    vertex 0.02987467907508192 0.05094971637043561 0
    vertex 0.03493733953754097 0.05458898182546673 0
  endloop
endfacet
facet normal 0.583687 -0.811979 0
  outer loop
    vertex 0.03493733953754095 0.05458898182546672 0.02
    vertex 0.02987467907508192 0.05094971637043561 0.02
    vertex 0.02987467907508192 0.05094971637043561 0.01000000000000003
  endloop
endfacet
facet normal 0.409552 0.912287 9.33211e-16
  outer loop
    vertex 0.04608778424807401 0.04367118546037338 0.02
    vertex 0.03919785238744401 0.04676427475330883 0.01223700559862262
    vertex 0.03798123166157796 0.04731045091540449 0.02
  endloop
endfacet
facet normal 0.409552 0.912287 -0
  outer loop
    vertex 0.04608778424807401 0.04367118546037338 0.01000000000000003
    vertex 0.03919785238744401 0.04676427475330883 0.01223700559862262
    vertex 0.04608778424807401 0.04367118546037338 0.02
  endloop
endfacet
facet normal 0.409552 0.912287 0
  outer loop
    vertex 0.02987467907508192 0.05094971637043561 0.009999999999999972
    vertex 0.03546008437596257 0.04844226670586389 0.006492343278808358
    vertex 0.02987467907508192 0.05094971637043561 0
  endloop
endfacet
facet normal 0.409552 0.912287 0
  outer loop
    vertex 0.02987467907508192 0.05094971637043561 0.02
    vertex 0.03407105979010726 0.04906583993721661 0.01485158352819425
    vertex 0.02987467907508192 0.05094971637043561 0.009999999999999972
  endloop
endfacet
facet normal 0.409552 0.912287 -1.35077e-15
  outer loop
    vertex 0.02987467907508192 0.05094971637043561 0
    vertex 0.03546008437596257 0.04844226670586389 0.006492343278808358
    vertex 0.03798123166157796 0.04731045091540449 0
  endloop
endfacet
facet normal 0.409552 0.912287 -0
  outer loop
    vertex 0.04608778424807401 0.04367118546037338 0
    vertex 0.04096294738422651 0.0459718726590648 0.0057458697754862
    vertex 0.04608778424807401 0.04367118546037338 0.01000000000000003
  endloop
endfacet
facet normal 0.409552 0.912287 1.18495e-15
  outer loop
    vertex 0.03798123166157796 0.04731045091540449 0.02
    vertex 0.03407105979010726 0.04906583993721661 0.01485158352819425
    vertex 0.02987467907508192 0.05094971637043561 0.02
  endloop
endfacet
facet normal 0.409552 0.912287 -1.85805e-15
  outer loop
    vertex 0.03798123166157796 0.04731045091540449 0
    vertex 0.04096294738422651 0.0459718726590648 0.0057458697754862
    vertex 0.04608778424807401 0.04367118546037338 0
  endloop
endfacet
facet normal 0.409552 0.912287 2.75806e-16
  outer loop
    vertex 0.03546008437596257 0.04844226670586389 0.006492343278808358
    vertex 0.03407105979010726 0.04906583993721661 0.01485158352819425
    vertex 0.03919785238744401 0.04676427475330883 0.01223700559862262
  endloop
endfacet
facet normal 0.409552 0.912287 7.39151e-17
  outer loop
    vertex 0.02987467907508192 0.05094971637043561 0.009999999999999972
    vertex 0.03407105979010726 0.04906583993721661 0.01485158352819425
    vertex 0.03546008437596257 0.04844226670586389 0.006492343278808358
  endloop
endfacet
facet normal 0.409552 0.912287 5.39084e-16
  outer loop
    vertex 0.04096294738422651 0.0459718726590648 0.0057458697754862
    vertex 0.03546008437596257 0.04844226670586389 0.006492343278808358
    vertex 0.03919785238744401 0.04676427475330883 0.01223700559862262
  endloop
endfacet
facet normal 0.409552 0.912287 8.52807e-16
  outer loop
    vertex 0.04096294738422651 0.0459718726590648 0.0057458697754862
    vertex 0.03919785238744401 0.04676427475330883 0.01223700559862262
    vertex 0.04608778424807401 0.04367118546037338 0.01000000000000003
  endloop
endfacet
facet normal 0.409552 0.912287 1.10788e-15
  outer loop
    vertex 0.03919785238744401 0.04676427475330883 0.01223700559862262
    vertex 0.03407105979010726 0.04906583993721661 0.01485158352819425
    vertex 0.03798123166157796 0.04731045091540449 0.02
  endloop
endfacet
facet normal 0.409552 0.912287 -1.78089e-15
  outer loop
    vertex 0.03798123166157796 0.04731045091540449 0
    vertex 0.03546008437596257 0.04844226670586389 0.006492343278808358
    vertex 0.04096294738422651 0.0459718726590648 0.0057458697754862
  endloop
endfacet
facet normal 0.505268 -0.862963 4.37094e-16
  outer loop
    vertex 0.04608778424807401 0.04367118546037338 0
    vertex 0.03974532224935266 0.0399576492817702 0.007533411083750195
    vertex 0.03987217148932709 0.04003192000534227 0
  endloop
endfacet
facet normal 0.505268 -0.862963 3.73676e-16
  outer loop
    vertex 0.03987217148932709 0.04003192000534227 0
    vertex 0.03974532224935266 0.0399576492817702 0.007533411083750195
    vertex 0.03365655873058017 0.03639265455031115 0
  endloop
endfacet
facet normal 0.505268 -0.862963 0
  outer loop
    vertex 0.03365655873058017 0.03639265455031115 0
    vertex 0.03974532224935266 0.0399576492817702 0.007533411083750195
    vertex 0.03365655873058017 0.03639265455031115 0.01000000000000003
  endloop
endfacet
facet normal 0.505268 -0.862963 0
  outer loop
    vertex 0.04608778424807401 0.04367118546037338 0.009999999999999972
    vertex 0.03974532224935266 0.0399576492817702 0.007533411083750195
    vertex 0.04608778424807401 0.04367118546037338 0
  endloop
endfacet
facet normal 0.505268 -0.862963 0
  outer loop
    vertex 0.04608778424807401 0.04367118546037338 0.02
    vertex 0.04173685531695116 0.0411236996418516 0.01472182857471679
    vertex 0.04608778424807401 0.04367118546037338 0.009999999999999972
  endloop
endfacet
facet normal 0.505268 -0.862963 0
  outer loop
    vertex 0.03365655873058017 0.03639265455031115 0.01000000000000003
    vertex 0.03745659953381407 0.03861759322646283 0.01460789137978101
    vertex 0.03365655873058017 0.03639265455031115 0.02
  endloop
endfacet
facet normal 0.505268 -0.862963 4.90171e-16
  outer loop
    vertex 0.03987217148932708 0.04003192000534227 0.02
    vertex 0.04173685531695116 0.0411236996418516 0.01472182857471679
    vertex 0.04608778424807401 0.04367118546037338 0.02
  endloop
endfacet
facet normal 0.505268 -0.862963 3.05336e-16
  outer loop
    vertex 0.03365655873058017 0.03639265455031115 0.02
    vertex 0.03745659953381407 0.03861759322646283 0.01460789137978101
    vertex 0.03987217148932708 0.04003192000534227 0.02
  endloop
endfacet
facet normal 0.505268 -0.862963 -3.11134e-16
  outer loop
    vertex 0.04173685531695116 0.0411236996418516 0.01472182857471679
    vertex 0.03745659953381407 0.03861759322646283 0.01460789137978101
    vertex 0.03974532224935266 0.0399576492817702 0.007533411083750195
  endloop
endfacet
facet normal 0.505268 -0.862963 5.28881e-16
  outer loop
    vertex 0.03987217148932708 0.04003192000534227 0.02
    vertex 0.03745659953381407 0.03861759322646283 0.01460789137978101
    vertex 0.04173685531695116 0.0411236996418516 0.01472182857471679
  endloop
endfacet
facet normal 0.505268 -0.862963 -2.34347e-16
  outer loop
    vertex 0.03974532224935266 0.0399576492817702 0.007533411083750195
    vertex 0.03745659953381407 0.03861759322646283 0.01460789137978101
    vertex 0.03365655873058017 0.03639265455031115 0.01000000000000003
  endloop
endfacet
facet normal 0.505268 -0.862963 -3.41401e-16
  outer loop
    vertex 0.04173685531695116 0.0411236996418516 0.01472182857471679
    vertex 0.03974532224935266 0.0399576492817702 0.007533411083750195
    vertex 0.04608778424807401 0.04367118546037338 0.009999999999999972
  endloop
endfacet
facet normal 0.772643 0.634841 0
  outer loop
    vertex 0.03365655873058017 0.03639265455031115 0.02
    vertex 0.03664675526378265 0.03275338909528005 0.015
    vertex 0.03365655873058017 0.03639265455031115 0.009999999999999972
  endloop
endfacet
facet normal 0.772643 0.634841 -0
  outer loop
    vertex 0.03963695179698513 0.02911412364024892 0
    vertex 0.03664675526378265 0.03275338909528004 0.005000000000000001
    vertex 0.03963695179698513 0.02911412364024892 0.01000000000000003
  endloop
endfacet
facet normal 0.772643 0.634841 0
  outer loop
    vertex 0.03365655873058017 0.03639265455031115 0.009999999999999972
    vertex 0.03664675526378265 0.03275338909528004 0.005000000000000001
    vertex 0.03365655873058017 0.03639265455031115 0
  endloop
endfacet
facet normal 0.772643 0.634841 -0
  outer loop
    vertex 0.03963695179698513 0.02911412364024892 0.01000000000000003
    vertex 0.03664675526378265 0.03275338909528005 0.015
    vertex 0.03963695179698513 0.02911412364024892 0.02
  endloop
endfacet
facet normal 0.772643 0.634841 4.31595e-16
  outer loop
    vertex 0.03963695179698513 0.02911412364024892 0.01000000000000003
    vertex 0.03664675526378265 0.03275338909528004 0.005000000000000001
    vertex 0.03365655873058017 0.03639265455031115 0.009999999999999972
  endloop
endfacet
facet normal 0.772643 0.634841 1.36672e-15
  outer loop
    vertex 0.03963695179698513 0.02911412364024892 0.02
    vertex 0.03664675526378265 0.03275338909528005 0.015
    vertex 0.03365655873058017 0.03639265455031115 0.02
  endloop
endfacet
facet normal 0.772643 0.634841 -1.29479e-15
  outer loop
    vertex 0.03365655873058017 0.03639265455031115 0.009999999999999972
    vertex 0.03664675526378265 0.03275338909528005 0.015
    vertex 0.03963695179698513 0.02911412364024892 0.01000000000000003
  endloop
endfacet
facet normal 0.772643 0.634841 -4.31595e-16
  outer loop
    vertex 0.03365655873058017 0.03639265455031115 0
    vertex 0.03664675526378265 0.03275338909528004 0.005000000000000001
    vertex 0.03963695179698513 0.02911412364024892 0
  endloop
endfacet
facet normal 0.779312 0.626636 0
  outer loop
    vertex 0.03963695179698513 0.02911412364024892 0.02
    vertex 0.04256324262549298 0.0254748581852178 0.015
    vertex 0.03963695179698513 0.02911412364024892 0.009999999999999972
  endloop
endfacet
facet normal 0.779312 0.626636 -0
  outer loop
    vertex 0.04548953345400084 0.02183559273018669 0
    vertex 0.04256324262549298 0.0254748581852178 0.004999999999999999
    vertex 0.04548953345400084 0.02183559273018669 0.01000000000000003
  endloop
endfacet
facet normal 0.779312 0.626636 0
  outer loop
    vertex 0.03963695179698513 0.02911412364024892 0.009999999999999972
    vertex 0.04256324262549298 0.0254748581852178 0.004999999999999999
    vertex 0.03963695179698513 0.02911412364024892 0
  endloop
endfacet
facet normal 0.779312 0.626636 -0
  outer loop
    vertex 0.04548953345400084 0.02183559273018669 0.01000000000000003
    vertex 0.04256324262549298 0.0254748581852178 0.015
    vertex 0.04548953345400084 0.02183559273018669 0.02
  endloop
endfacet
facet normal 0.779312 0.626636 1.52362e-15
  outer loop
    vertex 0.03963695179698513 0.02911412364024892 0.009999999999999972
    vertex 0.04256324262549298 0.0254748581852178 0.015
    vertex 0.04548953345400084 0.02183559273018669 0.01000000000000003
  endloop
endfacet
facet normal 0.779312 0.626636 -1.45107e-15
  outer loop
    vertex 0.04548953345400084 0.02183559273018669 0.01000000000000003
    vertex 0.04256324262549298 0.0254748581852178 0.004999999999999999
    vertex 0.03963695179698513 0.02911412364024892 0.009999999999999972
  endloop
endfacet
facet normal 0.779312 0.626636 1.52362e-15
  outer loop
    vertex 0.03963695179698513 0.02911412364024892 0
    vertex 0.04256324262549298 0.0254748581852178 0.004999999999999999
    vertex 0.04548953345400084 0.02183559273018669 0
  endloop
endfacet
facet normal 0.779312 0.626636 -1.45107e-15
  outer loop
    vertex 0.04548953345400084 0.02183559273018669 0.02
    vertex 0.04256324262549298 0.0254748581852178 0.015
    vertex 0.03963695179698513 0.02911412364024892 0.02
  endloop
endfacet
facet normal 0.984486 -0.175465 -1.35191e-15
  outer loop
    vertex 0.04548953345400084 0.02183559273018669 0.009999999999999972
    vertex 0.04484090641273655 0.01819632727515558 0.015
    vertex 0.04419227937147224 0.01455706182012446 0.01000000000000003
  endloop
endfacet
facet normal 0.984486 -0.175465 -1.35191e-15
  outer loop
    vertex 0.04548953345400084 0.02183559273018669 0
    vertex 0.04484090641273655 0.01819632727515558 0.004999999999999999
    vertex 0.04419227937147224 0.01455706182012446 0
  endloop
endfacet
facet normal 0.984486 -0.175465 1.37482e-15
  outer loop
    vertex 0.04419227937147224 0.01455706182012446 0.02
    vertex 0.04484090641273655 0.01819632727515558 0.015
    vertex 0.04548953345400084 0.02183559273018669 0.02
  endloop
endfacet
facet normal 0.984486 -0.175465 1.37482e-15
  outer loop
    vertex 0.04419227937147224 0.01455706182012446 0.01000000000000003
    vertex 0.04484090641273655 0.01819632727515558 0.004999999999999999
    vertex 0.04548953345400084 0.02183559273018669 0.009999999999999972
  endloop
endfacet
facet normal 0.984486 -0.175465 0
  outer loop
    vertex 0.04548953345400084 0.02183559273018669 0.009999999999999972
    vertex 0.04484090641273655 0.01819632727515558 0.004999999999999999
    vertex 0.04548953345400084 0.02183559273018669 0
  endloop
endfacet
facet normal 0.984486 -0.175465 0
  outer loop
    vertex 0.04548953345400084 0.02183559273018669 0.02
    vertex 0.04484090641273655 0.01819632727515558 0.015
    vertex 0.04548953345400084 0.02183559273018669 0.009999999999999972
  endloop
endfacet
facet normal 0.984486 -0.175465 0
  outer loop
    vertex 0.04419227937147224 0.01455706182012446 0
    vertex 0.04484090641273655 0.01819632727515558 0.004999999999999999
    vertex 0.04419227937147224 0.01455706182012446 0.01000000000000003
  endloop
endfacet
facet normal 0.984486 -0.175465 0
  outer loop
    vertex 0.04419227937147224 0.01455706182012446 0.01000000000000003
    vertex 0.04484090641273655 0.01819632727515558 0.015
    vertex 0.04419227937147224 0.01455706182012446 0.02
  endloop
endfacet
facet normal 0.783007 0.622013 0
  outer loop
    vertex 0.04419227937147224 0.01455706182012446 0.02
    vertex 0.04708327635201291 0.01091779636509334 0.015
    vertex 0.04419227937147224 0.01455706182012446 0.009999999999999972
  endloop
endfacet
facet normal 0.783007 0.622013 -0
  outer loop
    vertex 0.04997427333255358 0.007278530910062232 0
    vertex 0.04708327635201291 0.01091779636509334 0.005
    vertex 0.04997427333255358 0.007278530910062232 0.01000000000000003
  endloop
endfacet
facet normal 0.783007 0.622013 0
  outer loop
    vertex 0.04419227937147224 0.01455706182012446 0.009999999999999972
    vertex 0.04708327635201291 0.01091779636509334 0.005
    vertex 0.04419227937147224 0.01455706182012446 0
  endloop
endfacet
facet normal 0.783007 0.622013 -0
  outer loop
    vertex 0.04997427333255358 0.007278530910062232 0.01000000000000003
    vertex 0.04708327635201291 0.01091779636509334 0.015
    vertex 0.04997427333255358 0.007278530910062232 0.02
  endloop
endfacet
facet normal 0.783007 0.622013 -1.53085e-15
  outer loop
    vertex 0.04997427333255358 0.007278530910062232 0.02
    vertex 0.04708327635201291 0.01091779636509334 0.015
    vertex 0.04419227937147224 0.01455706182012446 0.02
  endloop
endfacet
facet normal 0.783007 0.622013 -1.53085e-15
  outer loop
    vertex 0.04997427333255358 0.007278530910062232 0.01000000000000003
    vertex 0.04708327635201291 0.01091779636509334 0.005
    vertex 0.04419227937147224 0.01455706182012446 0.009999999999999972
  endloop
endfacet
facet normal 0.783007 0.622013 1.53085e-15
  outer loop
    vertex 0.04419227937147224 0.01455706182012446 0.009999999999999972
    vertex 0.04708327635201291 0.01091779636509334 0.015
    vertex 0.04997427333255358 0.007278530910062232 0.01000000000000003
  endloop
endfacet
facet normal 0.783007 0.622013 1.53085e-15
  outer loop
    vertex 0.04419227937147224 0.01455706182012446 0
    vertex 0.04708327635201291 0.01091779636509334 0.005
    vertex 0.04997427333255358 0.007278530910062232 0
  endloop
endfacet
endsolid Created by Gmsh
