solid Created by Gmsh
facet normal 0.993035 -0.117818 8.0791e-17
  outer loop
    vertex 0.0094 0.0118 0
    vertex 0.009049999999999999 0.00885 0.01147
    vertex 0.008 0 0
  endloop
endfacet
facet normal 0.993035 -0.117818 3.10735e-17
  outer loop
    vertex 0.0136 0.04719999999999999 0.02
    vertex 0.01395 0.05014999999999999 0.00853000000000001
    vertex 0.015 0.059 0.02
  endloop
endfacet
facet normal 0.993035 -0.117818 0
  outer loop
    vertex 0.015 0.059 0.009999999999999972
    vertex 0.01395 0.05014999999999999 0.00853000000000001
    vertex 0.015 0.059 0
  endloop
endfacet
facet normal 0.993035 -0.117818 0
  outer loop
    vertex 0.008 0 0.01000000000000003
    vertex 0.009049999999999999 0.00885 0.01147
    vertex 0.008 0 0.02
  endloop
endfacet
facet normal 0.993035 -0.117818 3.34267e-17
  outer loop
    vertex 0.015 0.059 0
    vertex 0.01395 0.05014999999999999 0.00853000000000001
    vertex 0.0136 0.04720000000000001 0
  endloop
endfacet
facet normal 0.993035 -0.117818 -1.67134e-17
  outer loop
    vertex 0.008 0 0.02
    vertex 0.009049999999999999 0.00885 0.01147
    vertex 0.009399999999999997 0.01179999999999998 0.02
  endloop
endfacet
facet normal 0.993035 -0.117818 1.31531e-16
  outer loop
    vertex 0.0136 0.04720000000000001 0
    vertex 0.01284166666666666 0.04080833333333333 0.009755000000000002
    vertex 0.0122 0.03539999999999999 0
  endloop
endfacet
facet normal 0.993035 -0.117818 -2.26035e-16
  outer loop
    vertex 0.01015833333333333 0.01819166666666667 0.010245
    vertex 0.0115 0.0295 0.009999999999999997
    vertex 0.0108 0.0236 0.02
  endloop
endfacet
facet normal 0.993035 -0.117818 1.35869e-16
  outer loop
    vertex 0.0108 0.02360000000000001 0
    vertex 0.0115 0.0295 0.009999999999999997
    vertex 0.01015833333333333 0.01819166666666667 0.010245
  endloop
endfacet
facet normal 0.993035 -0.117818 -1.46146e-16
  outer loop
    vertex 0.009399999999999997 0.01179999999999998 0.02
    vertex 0.01015833333333333 0.01819166666666667 0.010245
    vertex 0.0108 0.0236 0.02
  endloop
endfacet
facet normal 0.993035 -0.117818 1.32198e-16
  outer loop
    vertex 0.0108 0.02360000000000001 0
    vertex 0.01015833333333333 0.01819166666666667 0.010245
    vertex 0.0094 0.0118 0
  endloop
endfacet
facet normal 0.993035 -0.117818 1.65759e-16
  outer loop
    vertex 0.0122 0.03539999999999999 0
    vertex 0.01284166666666666 0.04080833333333333 0.009755000000000002
    vertex 0.0115 0.0295 0.009999999999999997
  endloop
endfacet
facet normal 0.993035 -0.117818 -3.47889e-17
  outer loop
    vertex 0.0122 0.03539999999999999 0.02
    vertex 0.01284166666666666 0.04080833333333333 0.009755000000000002
    vertex 0.0136 0.04719999999999999 0.02
  endloop
endfacet
facet normal 0.993035 -0.117818 -1.56822e-16
  outer loop
    vertex 0.0108 0.0236 0.02
    vertex 0.0115 0.0295 0.009999999999999997
    vertex 0.0122 0.03539999999999999 0.02
  endloop
endfacet
facet normal 0.993035 -0.117818 1.71078e-16
  outer loop
    vertex 0.0122 0.03539999999999999 0
    vertex 0.0115 0.0295 0.009999999999999997
    vertex 0.0108 0.02360000000000001 0
  endloop
endfacet
facet normal 0.993035 -0.117818 -7.3443e-17
  outer loop
    vertex 0.0115 0.0295 0.009999999999999997
    vertex 0.01284166666666666 0.04080833333333333 0.009755000000000002
    vertex 0.0122 0.03539999999999999 0.02
  endloop
endfacet
facet normal 0.993035 -0.117818 9.74896e-17
  outer loop
    vertex 0.01015833333333333 0.01819166666666667 0.010245
    vertex 0.009049999999999999 0.00885 0.01147
    vertex 0.0094 0.0118 0
  endloop
endfacet
facet normal 0.993035 -0.117818 1.62483e-17
  outer loop
    vertex 0.01284166666666666 0.04080833333333333 0.009755000000000002
    vertex 0.01395 0.05014999999999999 0.00853000000000001
    vertex 0.0136 0.04719999999999999 0.02
  endloop
endfacet
facet normal 0.993035 -0.117818 9.59297e-17
  outer loop
    vertex 0.0136 0.04720000000000001 0
    vertex 0.01395 0.05014999999999999 0.00853000000000001
    vertex 0.01284166666666666 0.04080833333333333 0.009755000000000002
  endloop
endfacet
facet normal 0.993035 -0.117818 -5.04893e-18
  outer loop
    vertex 0.009399999999999997 0.01179999999999998 0.02
    vertex 0.009049999999999999 0.00885 0.01147
    vertex 0.01015833333333333 0.01819166666666667 0.010245
  endloop
endfacet
facet normal 0.993035 -0.117818 0
  outer loop
    vertex 0.008 0 0
    vertex 0.009049999999999999 0.00885 0.01147
    vertex 0.008 0 0.01000000000000003
  endloop
endfacet
facet normal 0.993035 -0.117818 0
  outer loop
    vertex 0.015 0.059 0.02
    vertex 0.01395 0.05014999999999999 0.00853000000000001
    vertex 0.015 0.059 0.009999999999999972
  endloop
endfacet
endsolid Created by Gmsh
