solid Created by Gmsh
facet normal 1 0 0
  outer loop
    vertex 0.04 0.05662231783557501 0
    vertex 0.04 0.06 0
    vertex 0.04 0.06 0.009999999999999972
  endloop
endfacet
facet normal 1 0 0
  outer loop
    vertex 0.04 0.05662231783557501 0.01000000000000003
    vertex 0.04 0.06 0.02
    vertex 0.04 0.05662231783557501 0.02
  endloop
endfacet
facet normal 1 0 -0
  outer loop
    vertex 0.04 0.06 0.009999999999999972
    vertex 0.04 0.06 0.02
    vertex 0.04 0.05662231783557501 0.01000000000000003
  endloop
endfacet
facet normal 1 0 0
  outer loop
    vertex 0.04 0.05662231783557501 0
    vertex 0.04 0.06 0.009999999999999972
    vertex 0.04 0.05662231783557501 0.01000000000000003
  endloop
endfacet
facet normal 0.671773 0.740757 6.40753e-16
  outer loop
    vertex 0.04 0.05662231783557501 0
    vertex 0.04390230170281684 0.05308342297085156 0.005520616409829249
    vertex 0.04780460340563365 0.04954452810612813 0
  endloop
endfacet
facet normal 0.671773 0.740757 -4.09763e-16
  outer loop
    vertex 0.04780460340563365 0.04954452810612813 0.02
    vertex 0.04390230170281682 0.05308342297085157 0.01450648773478912
    vertex 0.04 0.05662231783557501 0.02
  endloop
endfacet
facet normal 0.671773 0.740757 0
  outer loop
    vertex 0.04 0.05662231783557501 0.02
    vertex 0.04390230170281682 0.05308342297085157 0.01450648773478912
    vertex 0.04 0.05662231783557501 0.009999999999999972
  endloop
endfacet
facet normal 0.671773 0.740757 -0
  outer loop
    vertex 0.04780460340563365 0.04954452810612813 0
    vertex 0.04390230170281684 0.05308342297085156 0.005520616409829249
    vertex 0.04780460340563365 0.04954452810612813 0.01000000000000003
  endloop
endfacet
facet normal 0.671773 0.740757 -1.07361e-16
  outer loop
    vertex 0.04 0.05662231783557501 0.009999999999999972
    vertex 0.04390230170281682 0.05308342297085157 0.01450648773478912
    vertex 0.04390230170281684 0.05308342297085156 0.005520616409829249
  endloop
endfacet
facet normal 0.671773 0.740757 -1.06539e-16
  outer loop
    vertex 0.04390230170281684 0.05308342297085156 0.005520616409829249
    vertex 0.04390230170281682 0.05308342297085157 0.01450648773478912
    vertex 0.04780460340563365 0.04954452810612813 0.01000000000000003
  endloop
endfacet
facet normal 0.671773 0.740757 0
  outer loop
    vertex 0.04 0.05662231783557501 0.009999999999999972
    vertex 0.04390230170281684 0.05308342297085156 0.005520616409829249
    vertex 0.04 0.05662231783557501 0
  endloop
endfacet
facet normal 0.671773 0.740757 -0
  outer loop
    vertex 0.04780460340563365 0.04954452810612813 0.01000000000000003
    vertex 0.04390230170281682 0.05308342297085157 0.01450648773478912
    vertex 0.04780460340563365 0.04954452810612813 0.02
  endloop
endfacet
facet normal 0.350403 -0.936599 5.2611e-16
  outer loop
    vertex 0.03834541051913128 0.0460056332414047 0.02
    vertex 0.04105875169151967 0.04702075464303185 0.01298582831148528
    vertex 0.04780460340563365 0.04954452810612813 0.02
  endloop
endfacet
facet normal 0.350403 -0.936599 0
  outer loop
    vertex 0.02888621763262886 0.04246673837668126 0
    vertex 0.03600379780901135 0.04512958374178628 0.007575004009785886
    vertex 0.02888621763262886 0.04246673837668126 0.01000000000000003
  endloop
endfacet
facet normal 0.350403 -0.936599 -6.64306e-16
  outer loop
    vertex 0.03834541051913124 0.04600563324140469 0
    vertex 0.03600379780901135 0.04512958374178628 0.007575004009785886
    vertex 0.02888621763262886 0.04246673837668126 0
  endloop
endfacet
facet normal 0.350403 -0.936599 0
  outer loop
    vertex 0.04780460340563365 0.04954452810612813 0.02
    vertex 0.04105875169151967 0.04702075464303185 0.01298582831148528
    vertex 0.04780460340563365 0.04954452810612813 0.009999999999999972
  endloop
endfacet
facet normal 0.350403 -0.936599 1.56894e-15
  outer loop
    vertex 0.02888621763262886 0.04246673837668126 0.02
    vertex 0.03413456933177344 0.04443026371115964 0.01444061726824609
    vertex 0.03834541051913128 0.0460056332414047 0.02
  endloop
endfacet
facet normal 0.350403 -0.936599 0
  outer loop
    vertex 0.02888621763262886 0.04246673837668126 0.01000000000000003
    vertex 0.03413456933177344 0.04443026371115964 0.01444061726824609
    vertex 0.02888621763262886 0.04246673837668126 0.02
  endloop
endfacet
facet normal 0.350403 -0.936599 -1.30793e-15
  outer loop
    vertex 0.04780460340563365 0.04954452810612813 0
    vertex 0.04225952567793465 0.04746999095158425 0.005899348590879717
    vertex 0.03834541051913124 0.04600563324140469 0
  endloop
endfacet
facet normal 0.350403 -0.936599 0
  outer loop
    vertex 0.04780460340563365 0.04954452810612813 0.009999999999999972
    vertex 0.04225952567793465 0.04746999095158425 0.005899348590879717
    vertex 0.04780460340563365 0.04954452810612813 0
  endloop
endfacet
facet normal 0.350403 -0.936599 6.75628e-16
  outer loop
    vertex 0.03834541051913128 0.0460056332414047 0.02
    vertex 0.03413456933177344 0.04443026371115964 0.01444061726824609
    vertex 0.04105875169151967 0.04702075464303185 0.01298582831148528
  endloop
endfacet
facet normal 0.350403 -0.936599 -9.85653e-16
  outer loop
    vertex 0.04225952567793465 0.04746999095158425 0.005899348590879717
    vertex 0.03600379780901135 0.04512958374178628 0.007575004009785886
    vertex 0.03834541051913124 0.04600563324140469 0
  endloop
endfacet
facet normal 0.350403 -0.936599 -9.20431e-16
  outer loop
    vertex 0.04105875169151967 0.04702075464303185 0.01298582831148528
    vertex 0.03413456933177344 0.04443026371115964 0.01444061726824609
    vertex 0.03600379780901135 0.04512958374178628 0.007575004009785886
  endloop
endfacet
facet normal 0.350403 -0.936599 -6.56125e-17
  outer loop
    vertex 0.04225952567793465 0.04746999095158425 0.005899348590879717
    vertex 0.04105875169151967 0.04702075464303185 0.01298582831148528
    vertex 0.03600379780901135 0.04512958374178628 0.007575004009785886
  endloop
endfacet
facet normal 0.350403 -0.936599 -1.27051e-15
  outer loop
    vertex 0.03600379780901135 0.04512958374178628 0.007575004009785886
    vertex 0.03413456933177344 0.04443026371115964 0.01444061726824609
    vertex 0.02888621763262886 0.04246673837668126 0.01000000000000003
  endloop
endfacet
facet normal 0.350403 -0.936599 1.79409e-16
  outer loop
    vertex 0.04780460340563365 0.04954452810612813 0.009999999999999972
    vertex 0.04105875169151967 0.04702075464303185 0.01298582831148528
    vertex 0.04225952567793465 0.04746999095158425 0.005899348590879717
  endloop
endfacet
facet normal 0.995536 0.0943816 -6.91015e-16
  outer loop
    vertex 0.02888621763262886 0.04246673837668126 0.009999999999999972
    vertex 0.0292217218731024 0.03892784351195782 0.015
    vertex 0.02955722611357592 0.03538894864723438 0.01000000000000003
  endloop
endfacet
facet normal 0.995536 0.0943816 6.91015e-16
  outer loop
    vertex 0.02955722611357592 0.03538894864723438 0.01000000000000003
    vertex 0.0292217218731024 0.03892784351195782 0.004999999999999999
    vertex 0.02888621763262886 0.04246673837668126 0.009999999999999972
  endloop
endfacet
facet normal 0.995536 0.0943816 -6.91015e-16
  outer loop
    vertex 0.02888621763262886 0.04246673837668126 0
    vertex 0.0292217218731024 0.03892784351195782 0.004999999999999999
    vertex 0.02955722611357592 0.03538894864723438 0
  endloop
endfacet
facet normal 0.995536 0.0943816 6.91015e-16
  outer loop
    vertex 0.02955722611357592 0.03538894864723438 0.02
    vertex 0.0292217218731024 0.03892784351195782 0.015
    vertex 0.02888621763262886 0.04246673837668126 0.02
  endloop
endfacet
facet normal 0.995536 0.0943816 0
  outer loop
    vertex 0.02888621763262886 0.04246673837668126 0.009999999999999972
    vertex 0.0292217218731024 0.03892784351195782 0.004999999999999999
    vertex 0.02888621763262886 0.04246673837668126 0
  endloop
endfacet
facet normal 0.995536 0.0943816 0
  outer loop
    vertex 0.02888621763262886 0.04246673837668126 0.02
    vertex 0.0292217218731024 0.03892784351195782 0.015
    vertex 0.02888621763262886 0.04246673837668126 0.009999999999999972
  endloop
endfacet
facet normal 0.995536 0.0943816 -0
  outer loop
    vertex 0.02955722611357592 0.03538894864723438 0
    vertex 0.0292217218731024 0.03892784351195782 0.004999999999999999
    vertex 0.02955722611357592 0.03538894864723438 0.01000000000000003
  endloop
endfacet
facet normal 0.995536 0.0943816 -0
  outer loop
    vertex 0.02955722611357592 0.03538894864723438 0.01000000000000003
    vertex 0.0292217218731024 0.03892784351195782 0.015
    vertex 0.02955722611357592 0.03538894864723438 0.02
  endloop
endfacet
facet normal 0.767494 0.641056 0
  outer loop
    vertex 0.02955722611357592 0.03538894864723438 0.02
    vertex 0.03251311768374357 0.03185005378251095 0.015
    vertex 0.02955722611357592 0.03538894864723438 0.009999999999999972
  endloop
endfacet
facet normal 0.767494 0.641056 -0
  outer loop
    vertex 0.03546900925391121 0.02831115891778751 0
    vertex 0.03251311768374357 0.03185005378251095 0.005000000000000001
    vertex 0.03546900925391121 0.02831115891778751 0.01000000000000003
  endloop
endfacet
facet normal 0.767494 0.641056 0
  outer loop
    vertex 0.02955722611357592 0.03538894864723438 0.009999999999999972
    vertex 0.03251311768374357 0.03185005378251095 0.005000000000000001
    vertex 0.02955722611357592 0.03538894864723438 0
  endloop
endfacet
facet normal 0.767494 0.641056 -0
  outer loop
    vertex 0.03546900925391121 0.02831115891778751 0.01000000000000003
    vertex 0.03251311768374357 0.03185005378251095 0.015
    vertex 0.03546900925391121 0.02831115891778751 0.02
  endloop
endfacet
facet normal 0.767494 0.641056 -1.4696e-15
  outer loop
    vertex 0.02955722611357592 0.03538894864723438 0.009999999999999972
    vertex 0.03251311768374357 0.03185005378251095 0.015
    vertex 0.03546900925391121 0.02831115891778751 0.01000000000000003
  endloop
endfacet
facet normal 0.767494 0.641056 1.4696e-15
  outer loop
    vertex 0.03546900925391121 0.02831115891778751 0.01000000000000003
    vertex 0.03251311768374357 0.03185005378251095 0.005000000000000001
    vertex 0.02955722611357592 0.03538894864723438 0.009999999999999972
  endloop
endfacet
facet normal 0.767494 0.641056 -1.4696e-15
  outer loop
    vertex 0.02955722611357592 0.03538894864723438 0
    vertex 0.03251311768374357 0.03185005378251095 0.005000000000000001
    vertex 0.03546900925391121 0.02831115891778751 0
  endloop
endfacet
facet normal 0.767494 0.641056 1.4696e-15
  outer loop
    vertex 0.03546900925391121 0.02831115891778751 0.02
    vertex 0.03251311768374357 0.03185005378251095 0.015
    vertex 0.02955722611357592 0.03538894864723438 0.02
  endloop
endfacet
facet normal 0.790981 0.611841 0
  outer loop
    vertex 0.03546900925391121 0.02831115891778751 0.02
    vertex 0.03820642250415682 0.02477226405306407 0.015
    vertex 0.03546900925391121 0.02831115891778751 0.009999999999999972
  endloop
endfacet
facet normal 0.790981 0.611841 -0
  outer loop
    vertex 0.04094383575440243 0.02123336918834063 0
    vertex 0.03820642250415682 0.02477226405306407 0.005000000000000001
    vertex 0.04094383575440243 0.02123336918834063 0.01000000000000003
  endloop
endfacet
facet normal 0.790981 0.611841 0
  outer loop
    vertex 0.03546900925391121 0.02831115891778751 0.009999999999999972
    vertex 0.03820642250415682 0.02477226405306407 0.005000000000000001
    vertex 0.03546900925391121 0.02831115891778751 0
  endloop
endfacet
facet normal 0.790981 0.611841 -0
  outer loop
    vertex 0.04094383575440243 0.02123336918834063 0.01000000000000003
    vertex 0.03820642250415682 0.02477226405306407 0.015
    vertex 0.04094383575440243 0.02123336918834063 0.02
  endloop
endfacet
facet normal 0.790981 0.611841 1.13593e-15
  outer loop
    vertex 0.04094383575440243 0.02123336918834063 0.01000000000000003
    vertex 0.03820642250415682 0.02477226405306407 0.005000000000000001
    vertex 0.03546900925391121 0.02831115891778751 0.009999999999999972
  endloop
endfacet
facet normal 0.790981 0.611841 1.13593e-15
  outer loop
    vertex 0.04094383575440243 0.02123336918834063 0.02
    vertex 0.03820642250415682 0.02477226405306407 0.015
    vertex 0.03546900925391121 0.02831115891778751 0.02
  endloop
endfacet
facet normal 0.790981 0.611841 -1.21165e-15
  outer loop
    vertex 0.03546900925391121 0.02831115891778751 0.009999999999999972
    vertex 0.03820642250415682 0.02477226405306407 0.015
    vertex 0.04094383575440243 0.02123336918834063 0.01000000000000003
  endloop
endfacet
facet normal 0.790981 0.611841 -1.21165e-15
  outer loop
    vertex 0.03546900925391121 0.02831115891778751 0
    vertex 0.03820642250415682 0.02477226405306407 0.005000000000000001
    vertex 0.04094383575440243 0.02123336918834063 0
  endloop
endfacet
facet normal 0.99515 0.0983695 -6.90747e-16
  outer loop
    vertex 0.04164346757306162 0.01415557945889375 0.02
    vertex 0.04129365166373202 0.01769447432361719 0.015
    vertex 0.04094383575440243 0.02123336918834063 0.02
  endloop
endfacet
facet normal 0.99515 0.0983695 -6.90747e-16
  outer loop
    vertex 0.04164346757306162 0.01415557945889375 0.01000000000000003
    vertex 0.04129365166373202 0.01769447432361719 0.004999999999999999
    vertex 0.04094383575440243 0.02123336918834063 0.009999999999999972
  endloop
endfacet
facet normal 0.99515 0.0983695 6.90747e-16
  outer loop
    vertex 0.04094383575440243 0.02123336918834063 0
    vertex 0.04129365166373202 0.01769447432361719 0.004999999999999999
    vertex 0.04164346757306162 0.01415557945889375 0
  endloop
endfacet
facet normal 0.99515 0.0983695 6.90747e-16
  outer loop
    vertex 0.04094383575440243 0.02123336918834063 0.009999999999999972
    vertex 0.04129365166373202 0.01769447432361719 0.015
    vertex 0.04164346757306162 0.01415557945889375 0.01000000000000003
  endloop
endfacet
facet normal 0.99515 0.0983695 0
  outer loop
    vertex 0.04094383575440243 0.02123336918834063 0.009999999999999972
    vertex 0.04129365166373202 0.01769447432361719 0.004999999999999999
    vertex 0.04094383575440243 0.02123336918834063 0
  endloop
endfacet
facet normal 0.99515 0.0983695 0
  outer loop
    vertex 0.04094383575440243 0.02123336918834063 0.02
    vertex 0.04129365166373202 0.01769447432361719 0.015
    vertex 0.04094383575440243 0.02123336918834063 0.009999999999999972
  endloop
endfacet
facet normal 0.99515 0.0983695 -0
  outer loop
    vertex 0.04164346757306162 0.01415557945889375 0
    vertex 0.04129365166373202 0.01769447432361719 0.004999999999999999
    vertex 0.04164346757306162 0.01415557945889375 0.01000000000000003
  endloop
endfacet
facet normal 0.99515 0.0983695 -0
  outer loop
    vertex 0.04164346757306162 0.01415557945889375 0.01000000000000003
    vertex 0.04129365166373202 0.01769447432361719 0.015
    vertex 0.04164346757306162 0.01415557945889375 0.02
  endloop
endfacet
facet normal 0.601446 -0.798913 1.91291e-16
  outer loop
    vertex 0.04164346757306162 0.01415557945889375 0
    vertex 0.03694268207827923 0.01061668459417032 0.006020408163265301
    vertex 0.03224189658349685 0.007077789729446879 0
  endloop
endfacet
facet normal 0.601446 -0.798913 -2.91986e-16
  outer loop
    vertex 0.03224189658349685 0.007077789729446879 0.02
    vertex 0.03694268207827923 0.01061668459417032 0.01408371511870055
    vertex 0.04164346757306162 0.01415557945889375 0.02
  endloop
endfacet
facet normal 0.601446 -0.798913 0
  outer loop
    vertex 0.04164346757306162 0.01415557945889375 0.009999999999999972
    vertex 0.03694268207827923 0.01061668459417032 0.01408371511870055
    vertex 0.03694268207827923 0.01061668459417032 0.006020408163265301
  endloop
endfacet
facet normal 0.601446 -0.798913 0
  outer loop
    vertex 0.03694268207827923 0.01061668459417032 0.006020408163265301
    vertex 0.03694268207827923 0.01061668459417032 0.01408371511870055
    vertex 0.03224189658349685 0.007077789729446879 0.01000000000000003
  endloop
endfacet
facet normal 0.601446 -0.798913 0
  outer loop
    vertex 0.04164346757306162 0.01415557945889375 0.02
    vertex 0.03694268207827923 0.01061668459417032 0.01408371511870055
    vertex 0.04164346757306162 0.01415557945889375 0.009999999999999972
  endloop
endfacet
facet normal 0.601446 -0.798913 0
  outer loop
    vertex 0.03224189658349685 0.007077789729446879 0
    vertex 0.03694268207827923 0.01061668459417032 0.006020408163265301
    vertex 0.03224189658349685 0.007077789729446879 0.01000000000000003
  endloop
endfacet
facet normal 0.601446 -0.798913 0
  outer loop
    vertex 0.04164346757306162 0.01415557945889375 0.009999999999999972
    vertex 0.03694268207827923 0.01061668459417032 0.006020408163265301
    vertex 0.04164346757306162 0.01415557945889375 0
  endloop
endfacet
facet normal 0.601446 -0.798913 0
  outer loop
    vertex 0.03224189658349685 0.007077789729446879 0.01000000000000003
    vertex 0.03694268207827923 0.01061668459417032 0.01408371511870055
    vertex 0.03224189658349685 0.007077789729446879 0.02
  endloop
endfacet
endsolid Created by Gmsh
