solid Created by Gmsh
facet normal -0.791076 0.611718 0
  outer loop
    vertex 0.03423965615812032 0.05509905196617439 0.02
    vertex 0.03423965615812032 0.05509905196617439 0.009999999999999972
    vertex 0.03157674379849656 0.05165536121828849 0.015
  endloop
endfacet
facet normal -0.791076 0.611718 0
  outer loop
    vertex 0.02891383143887282 0.04821167047040259 0
    vertex 0.02891383143887282 0.04821167047040259 0.01000000000000003
    vertex 0.03157674379849656 0.05165536121828849 0.005
  endloop
endfacet
facet normal -0.791076 0.611718 0
  outer loop
    vertex 0.02891383143887282 0.04821167047040259 0.01000000000000003
    vertex 0.02891383143887282 0.04821167047040259 0.02
    vertex 0.03157674379849656 0.05165536121828849 0.015
  endloop
endfacet
facet normal -0.791076 0.611718 0
  outer loop
    vertex 0.03423965615812032 0.05509905196617439 0.009999999999999972
    vertex 0.03423965615812032 0.05509905196617439 0
    vertex 0.03157674379849656 0.05165536121828849 0.005
  endloop
endfacet
facet normal -0.791076 0.611718 1.08964e-15
  outer loop
    vertex 0.02891383143887282 0.04821167047040259 0.01000000000000003
    vertex 0.03423965615812032 0.05509905196617439 0.009999999999999972
    vertex 0.03157674379849656 0.05165536121828849 0.005
  endloop
endfacet
facet normal -0.791076 0.611718 -1.08964e-15
  outer loop
    vertex 0.03423965615812032 0.05509905196617439 0.009999999999999972
    vertex 0.02891383143887282 0.04821167047040259 0.01000000000000003
    vertex 0.03157674379849656 0.05165536121828849 0.015
  endloop
endfacet
facet normal -0.791076 0.611718 -1.08964e-15
  outer loop
    vertex 0.03423965615812032 0.05509905196617439 0
    vertex 0.02891383143887282 0.04821167047040259 0
    vertex 0.03157674379849656 0.05165536121828849 0.005
  endloop
endfacet
facet normal -0.791076 0.611718 1.08964e-15
  outer loop
    vertex 0.02891383143887282 0.04821167047040259 0.02
    vertex 0.03423965615812032 0.05509905196617439 0.02
    vertex 0.03157674379849656 0.05165536121828849 0.015
  endloop
endfacet
facet normal -0.534015 -0.845475 -1.8389e-16
  outer loop
    vertex 0.03436603284811805 0.04476797972251669 0
    vertex 0.03981823425736328 0.04132428897463079 0.01000000000000003
    vertex 0.02891383143887282 0.04821167047040259 0.009999999999999972
  endloop
endfacet
facet normal -0.534015 -0.845475 1.5762e-16
  outer loop
    vertex 0.03981823425736328 0.04132428897463079 0.01000000000000003
    vertex 0.03436603284811805 0.04476797972251669 0.02
    vertex 0.02891383143887282 0.04821167047040259 0.009999999999999972
  endloop
endfacet
facet normal -0.534015 -0.845475 0
  outer loop
    vertex 0.03436603284811805 0.04476797972251669 0
    vertex 0.02891383143887282 0.04821167047040259 0.009999999999999972
    vertex 0.02891383143887282 0.04821167047040259 0
  endloop
endfacet
facet normal -0.534015 -0.845475 0
  outer loop
    vertex 0.02891383143887282 0.04821167047040259 0.009999999999999972
    vertex 0.03436603284811805 0.04476797972251669 0.02
    vertex 0.02891383143887282 0.04821167047040259 0.02
  endloop
endfacet
facet normal -0.534015 -0.845475 -0
  outer loop
    vertex 0.03981823425736328 0.04132428897463079 0.01000000000000003
    vertex 0.03436603284811805 0.04476797972251669 0
    vertex 0.03981823425736328 0.04132428897463079 0
  endloop
endfacet
facet normal -0.534015 -0.845475 0
  outer loop
    vertex 0.03436603284811805 0.04476797972251669 0.02
    vertex 0.03981823425736328 0.04132428897463079 0.01000000000000003
    vertex 0.03981823425736328 0.04132428897463079 0.02
  endloop
endfacet
facet normal -0.76442 -0.644718 -0
  outer loop
    vertex 0.03981823425736328 0.04132428897463079 0.02
    vertex 0.03981823425736328 0.04132428897463079 0.009999999999999972
    vertex 0.04272267181531558 0.0378805982267449 0.015
  endloop
endfacet
facet normal -0.76442 -0.644718 0
  outer loop
    vertex 0.04562710937326787 0.03443690747885899 0
    vertex 0.04562710937326787 0.03443690747885899 0.01000000000000003
    vertex 0.04272267181531558 0.0378805982267449 0.005000000000000001
  endloop
endfacet
facet normal -0.76442 -0.644718 0
  outer loop
    vertex 0.04562710937326787 0.03443690747885899 0.01000000000000003
    vertex 0.04562710937326787 0.03443690747885899 0.02
    vertex 0.04272267181531558 0.0378805982267449 0.015
  endloop
endfacet
facet normal -0.76442 -0.644718 -0
  outer loop
    vertex 0.03981823425736328 0.04132428897463079 0.009999999999999972
    vertex 0.03981823425736328 0.04132428897463079 0
    vertex 0.04272267181531558 0.0378805982267449 0.005000000000000001
  endloop
endfacet
facet normal -0.76442 -0.644718 4.51252e-16
  outer loop
    vertex 0.03981823425736328 0.04132428897463079 0.009999999999999972
    vertex 0.04562710937326787 0.03443690747885899 0.01000000000000003
    vertex 0.04272267181531558 0.0378805982267449 0.015
  endloop
endfacet
facet normal -0.76442 -0.644718 4.51252e-16
  outer loop
    vertex 0.03981823425736328 0.04132428897463079 0
    vertex 0.04562710937326787 0.03443690747885899 0
    vertex 0.04272267181531558 0.0378805982267449 0.005000000000000001
  endloop
endfacet
facet normal -0.76442 -0.644718 -4.51252e-16
  outer loop
    vertex 0.04562710937326787 0.03443690747885899 0.01000000000000003
    vertex 0.03981823425736328 0.04132428897463079 0.009999999999999972
    vertex 0.04272267181531558 0.0378805982267449 0.005000000000000001
  endloop
endfacet
facet normal -0.76442 -0.644718 -4.51252e-16
  outer loop
    vertex 0.04562710937326787 0.03443690747885899 0.02
    vertex 0.03981823425736328 0.04132428897463079 0.02
    vertex 0.04272267181531558 0.0378805982267449 0.015
  endloop
endfacet
facet normal -0.994646 -0.103343 1.38227e-15
  outer loop
    vertex 0.04634270673121851 0.02754952598308719 0.02
    vertex 0.04562710937326787 0.03443690747885899 0.02
    vertex 0.04598490805224319 0.03099321673097309 0.015
  endloop
endfacet
facet normal -0.994646 -0.103343 1.38227e-15
  outer loop
    vertex 0.04634270673121851 0.02754952598308719 0.01000000000000003
    vertex 0.04562710937326787 0.03443690747885899 0.009999999999999972
    vertex 0.04598490805224319 0.03099321673097309 0.004999999999999999
  endloop
endfacet
facet normal -0.994646 -0.103343 -1.38227e-15
  outer loop
    vertex 0.04562710937326787 0.03443690747885899 0
    vertex 0.04634270673121851 0.02754952598308719 0
    vertex 0.04598490805224319 0.03099321673097309 0.004999999999999999
  endloop
endfacet
facet normal -0.994646 -0.103343 -1.38227e-15
  outer loop
    vertex 0.04562710937326787 0.03443690747885899 0.009999999999999972
    vertex 0.04634270673121851 0.02754952598308719 0.01000000000000003
    vertex 0.04598490805224319 0.03099321673097309 0.015
  endloop
endfacet
facet normal -0.994646 -0.103343 -0
  outer loop
    vertex 0.04562710937326787 0.03443690747885899 0.009999999999999972
    vertex 0.04562710937326787 0.03443690747885899 0
    vertex 0.04598490805224319 0.03099321673097309 0.004999999999999999
  endloop
endfacet
facet normal -0.994646 -0.103343 -0
  outer loop
    vertex 0.04562710937326787 0.03443690747885899 0.02
    vertex 0.04562710937326787 0.03443690747885899 0.009999999999999972
    vertex 0.04598490805224319 0.03099321673097309 0.015
  endloop
endfacet
facet normal -0.994646 -0.103343 0
  outer loop
    vertex 0.04634270673121851 0.02754952598308719 0
    vertex 0.04634270673121851 0.02754952598308719 0.01000000000000003
    vertex 0.04598490805224319 0.03099321673097309 0.004999999999999999
  endloop
endfacet
facet normal -0.994646 -0.103343 0
  outer loop
    vertex 0.04634270673121851 0.02754952598308719 0.01000000000000003
    vertex 0.04634270673121851 0.02754952598308719 0.02
    vertex 0.04598490805224319 0.03099321673097309 0.015
  endloop
endfacet
facet normal -0.680351 0.732886 -1.47263e-15
  outer loop
    vertex 0.04634270673121851 0.02754952598308719 0
    vertex 0.03892350441085603 0.0206621444873154 0
    vertex 0.04263310557103726 0.0241058352352013 0.004999999999999986
  endloop
endfacet
facet normal -0.680351 0.732886 1.67344e-15
  outer loop
    vertex 0.03892350441085603 0.0206621444873154 0.02
    vertex 0.04634270673121851 0.02754952598308719 0.02
    vertex 0.04263310557103728 0.02410583523520132 0.01499999999999999
  endloop
endfacet
facet normal -0.680351 0.732886 0
  outer loop
    vertex 0.04634270673121851 0.02754952598308719 0.02
    vertex 0.04634270673121851 0.02754952598308719 0.009999999999999972
    vertex 0.04263310557103728 0.02410583523520132 0.01499999999999999
  endloop
endfacet
facet normal -0.680351 0.732886 0
  outer loop
    vertex 0.03892350441085603 0.0206621444873154 0
    vertex 0.03892350441085603 0.0206621444873154 0.01000000000000003
    vertex 0.04263310557103726 0.0241058352352013 0.004999999999999986
  endloop
endfacet
facet normal -0.680351 0.732886 -1.00406e-16
  outer loop
    vertex 0.04634270673121851 0.02754952598308719 0.009999999999999972
    vertex 0.04263310557103726 0.0241058352352013 0.004999999999999986
    vertex 0.04263310557103728 0.02410583523520132 0.01499999999999999
  endloop
endfacet
facet normal -0.680351 0.732886 -1.09359e-16
  outer loop
    vertex 0.04263310557103726 0.0241058352352013 0.004999999999999986
    vertex 0.03892350441085603 0.0206621444873154 0.01000000000000003
    vertex 0.04263310557103728 0.02410583523520132 0.01499999999999999
  endloop
endfacet
facet normal -0.680351 0.732886 0
  outer loop
    vertex 0.04634270673121851 0.02754952598308719 0.009999999999999972
    vertex 0.04634270673121851 0.02754952598308719 0
    vertex 0.04263310557103726 0.0241058352352013 0.004999999999999986
  endloop
endfacet
facet normal -0.680351 0.732886 0
  outer loop
    vertex 0.03892350441085603 0.0206621444873154 0.01000000000000003
    vertex 0.03892350441085603 0.0206621444873154 0.02
    vertex 0.04263310557103728 0.02410583523520132 0.01499999999999999
  endloop
endfacet
facet normal -0.466497 0.884523 4.95153e-16
  outer loop
    vertex 0.03239393790281245 0.0172184537394295 0.02
    vertex 0.03892350441085603 0.0206621444873154 0.02
    vertex 0.03252719436216026 0.01728873314244758 0.01252665357844479
  endloop
endfacet
facet normal -0.466497 0.884523 5.52729e-16
  outer loop
    vertex 0.02586437139476884 0.01377476299154359 0.02
    vertex 0.03239393790281245 0.0172184537394295 0.02
    vertex 0.03252719436216026 0.01728873314244758 0.01252665357844479
  endloop
endfacet
facet normal -0.466497 0.884523 0
  outer loop
    vertex 0.03892350441085603 0.0206621444873154 0.02
    vertex 0.03892350441085603 0.0206621444873154 0.009999999999999972
    vertex 0.03252719436216026 0.01728873314244758 0.01252665357844479
  endloop
endfacet
facet normal -0.466497 0.884523 0
  outer loop
    vertex 0.02586437139476884 0.01377476299154359 0.01000000000000003
    vertex 0.02586437139476884 0.01377476299154359 0.02
    vertex 0.03252719436216026 0.01728873314244758 0.01252665357844479
  endloop
endfacet
facet normal -0.466497 0.884523 0
  outer loop
    vertex 0.02586437139476884 0.01377476299154359 0
    vertex 0.02586437139476884 0.01377476299154359 0.01000000000000003
    vertex 0.03043506795039935 0.01618534651506372 0.005317413671250599
  endloop
endfacet
facet normal -0.466497 0.884523 0
  outer loop
    vertex 0.03892350441085603 0.0206621444873154 0.009999999999999972
    vertex 0.03892350441085603 0.0206621444873154 0
    vertex 0.03493152162153607 0.01855677437118807 0.005406295321385048
  endloop
endfacet
facet normal -0.466497 0.884523 -5.94269e-16
  outer loop
    vertex 0.03892350441085603 0.0206621444873154 0
    vertex 0.03239393790281242 0.01721845373942949 0
    vertex 0.03493152162153607 0.01855677437118807 0.005406295321385048
  endloop
endfacet
facet normal -0.466497 0.884523 -3.66837e-16
  outer loop
    vertex 0.03239393790281242 0.01721845373942949 0
    vertex 0.02586437139476884 0.01377476299154359 0
    vertex 0.03043506795039935 0.01618534651506372 0.005317413671250599
  endloop
endfacet
facet normal -0.466497 0.884523 -4.6492e-17
  outer loop
    vertex 0.03043506795039935 0.01618534651506372 0.005317413671250599
    vertex 0.03252719436216026 0.01728873314244758 0.01252665357844479
    vertex 0.03493152162153607 0.01855677437118807 0.005406295321385048
  endloop
endfacet
facet normal -0.466497 0.884523 -4.97746e-16
  outer loop
    vertex 0.03239393790281242 0.01721845373942949 0
    vertex 0.03043506795039935 0.01618534651506372 0.005317413671250599
    vertex 0.03493152162153607 0.01855677437118807 0.005406295321385048
  endloop
endfacet
facet normal -0.466497 0.884523 2.27789e-16
  outer loop
    vertex 0.03252719436216026 0.01728873314244758 0.01252665357844479
    vertex 0.03892350441085603 0.0206621444873154 0.009999999999999972
    vertex 0.03493152162153607 0.01855677437118807 0.005406295321385048
  endloop
endfacet
facet normal -0.466497 0.884523 -3.5053e-17
  outer loop
    vertex 0.03043506795039935 0.01618534651506372 0.005317413671250599
    vertex 0.02586437139476884 0.01377476299154359 0.01000000000000003
    vertex 0.03252719436216026 0.01728873314244758 0.01252665357844479
  endloop
endfacet
facet normal -0.642857 -0.765987 -1.71852e-16
  outer loop
    vertex 0.03407093235574042 0.006887381495771797 0.02
    vertex 0.02586437139476884 0.01377476299154359 0.02
    vertex 0.02996765187525463 0.01033107224365769 0.01447938359017077
  endloop
endfacet
facet normal -0.642857 -0.765987 4.02966e-16
  outer loop
    vertex 0.02586437139476884 0.01377476299154359 0
    vertex 0.03407093235574042 0.006887381495771797 0
    vertex 0.02996765187525464 0.01033107224365768 0.005493512265210899
  endloop
endfacet
facet normal -0.642857 -0.765987 -0
  outer loop
    vertex 0.02586437139476884 0.01377476299154359 0.02
    vertex 0.02586437139476884 0.01377476299154359 0.009999999999999972
    vertex 0.02996765187525463 0.01033107224365769 0.01447938359017077
  endloop
endfacet
facet normal -0.642857 -0.765987 0
  outer loop
    vertex 0.03407093235574042 0.006887381495771797 0
    vertex 0.03407093235574042 0.006887381495771797 0.01000000000000003
    vertex 0.02996765187525464 0.01033107224365768 0.005493512265210899
  endloop
endfacet
facet normal -0.642857 -0.765987 -1.05586e-16
  outer loop
    vertex 0.02996765187525463 0.01033107224365769 0.01447938359017077
    vertex 0.02586437139476884 0.01377476299154359 0.009999999999999972
    vertex 0.02996765187525464 0.01033107224365768 0.005493512265210899
  endloop
endfacet
facet normal -0.642857 -0.765987 -1.0558e-16
  outer loop
    vertex 0.03407093235574042 0.006887381495771797 0.01000000000000003
    vertex 0.02996765187525463 0.01033107224365769 0.01447938359017077
    vertex 0.02996765187525464 0.01033107224365768 0.005493512265210899
  endloop
endfacet
facet normal -0.642857 -0.765987 -0
  outer loop
    vertex 0.02586437139476884 0.01377476299154359 0.009999999999999972
    vertex 0.02586437139476884 0.01377476299154359 0
    vertex 0.02996765187525464 0.01033107224365768 0.005493512265210899
  endloop
endfacet
facet normal -0.642857 -0.765987 0
  outer loop
    vertex 0.03407093235574042 0.006887381495771797 0.01000000000000003
    vertex 0.03407093235574042 0.006887381495771797 0.02
    vertex 0.02996765187525463 0.01033107224365769 0.01447938359017077
  endloop
endfacet
endsolid Created by Gmsh
