solid Created by Gmsh
facet normal 1 0 0
  outer loop
    vertex 0.04 0.05642226691205624 0
    vertex 0.04 0.06 0
    vertex 0.04 0.06 0.009999999999999972
  endloop
endfacet
facet normal 1 0 0
  outer loop
    vertex 0.04 0.05642226691205624 0.01000000000000003
    vertex 0.04 0.06 0.02
    vertex 0.04 0.05642226691205624 0.02
  endloop
endfacet
facet normal 1 0 -0
  outer loop
    vertex 0.04 0.06 0.009999999999999972
    vertex 0.04 0.06 0.02
    vertex 0.04 0.05642226691205624 0.01000000000000003
  endloop
endfacet
facet normal 1 0 0
  outer loop
    vertex 0.04 0.05642226691205624 0
    vertex 0.04 0.06 0.009999999999999972
    vertex 0.04 0.05642226691205624 0.01000000000000003
  endloop
endfacet
facet normal 0.689602 -0.724188 0
  outer loop
    vertex 0.03259349721459499 0.04936948354804921 0.02
    vertex 0.03629674860729749 0.05289587523005272 0.01500000000000001
    vertex 0.04 0.05642226691205624 0.02
  endloop
endfacet
facet normal 0.689602 -0.724188 -1.32513e-16
  outer loop
    vertex 0.04 0.05642226691205624 0
    vertex 0.03629674860729748 0.05289587523005271 0.005000000000000014
    vertex 0.03259349721459499 0.04936948354804921 0
  endloop
endfacet
facet normal 0.689602 -0.724188 0
  outer loop
    vertex 0.04 0.05642226691205624 0.02
    vertex 0.03629674860729749 0.05289587523005272 0.01500000000000001
    vertex 0.04 0.05642226691205624 0.009999999999999972
  endloop
endfacet
facet normal 0.689602 -0.724188 0
  outer loop
    vertex 0.03259349721459499 0.04936948354804921 0
    vertex 0.03629674860729748 0.05289587523005271 0.005000000000000014
    vertex 0.03259349721459499 0.04936948354804921 0.01000000000000003
  endloop
endfacet
facet normal 0.689602 -0.724188 3.31283e-17
  outer loop
    vertex 0.03259349721459499 0.04936948354804921 0.01000000000000003
    vertex 0.03629674860729748 0.05289587523005271 0.005000000000000014
    vertex 0.03629674860729749 0.05289587523005272 0.01500000000000001
  endloop
endfacet
facet normal 0.689602 -0.724188 4.79974e-17
  outer loop
    vertex 0.03629674860729749 0.05289587523005272 0.01500000000000001
    vertex 0.03629674860729748 0.05289587523005271 0.005000000000000014
    vertex 0.04 0.05642226691205624 0.009999999999999972
  endloop
endfacet
facet normal 0.689602 -0.724188 0
  outer loop
    vertex 0.04 0.05642226691205624 0.009999999999999972
    vertex 0.03629674860729748 0.05289587523005271 0.005000000000000014
    vertex 0.04 0.05642226691205624 0
  endloop
endfacet
facet normal 0.689602 -0.724188 0
  outer loop
    vertex 0.03259349721459499 0.04936948354804921 0.01000000000000003
    vertex 0.03629674860729749 0.05289587523005272 0.01500000000000001
    vertex 0.03259349721459499 0.04936948354804921 0.02
  endloop
endfacet
facet normal 0.938865 0.344285 0
  outer loop
    vertex 0.03259349721459499 0.04936948354804921 0.02
    vertex 0.03388663748539161 0.0458430918660457 0.015
    vertex 0.03259349721459499 0.04936948354804921 0.009999999999999972
  endloop
endfacet
facet normal 0.938865 0.344285 -0
  outer loop
    vertex 0.03517977775618823 0.04231670018404218 0
    vertex 0.03388663748539161 0.0458430918660457 0.005
    vertex 0.03517977775618823 0.04231670018404218 0.01000000000000003
  endloop
endfacet
facet normal 0.938865 0.344285 0
  outer loop
    vertex 0.03259349721459499 0.04936948354804921 0.009999999999999972
    vertex 0.03388663748539161 0.0458430918660457 0.005
    vertex 0.03259349721459499 0.04936948354804921 0
  endloop
endfacet
facet normal 0.938865 0.344285 -0
  outer loop
    vertex 0.03517977775618823 0.04231670018404218 0.01000000000000003
    vertex 0.03388663748539161 0.0458430918660457 0.015
    vertex 0.03517977775618823 0.04231670018404218 0.02
  endloop
endfacet
facet normal 0.938865 0.344285 -1.30798e-15
  outer loop
    vertex 0.03517977775618823 0.04231670018404218 0.01000000000000003
    vertex 0.03388663748539161 0.0458430918660457 0.005
    vertex 0.03259349721459499 0.04936948354804921 0.009999999999999972
  endloop
endfacet
facet normal 0.938865 0.344285 -1.30798e-15
  outer loop
    vertex 0.03517977775618823 0.04231670018404218 0.02
    vertex 0.03388663748539161 0.0458430918660457 0.015
    vertex 0.03259349721459499 0.04936948354804921 0.02
  endloop
endfacet
facet normal 0.938865 0.344285 1.30798e-15
  outer loop
    vertex 0.03259349721459499 0.04936948354804921 0
    vertex 0.03388663748539161 0.0458430918660457 0.005
    vertex 0.03517977775618823 0.04231670018404218 0
  endloop
endfacet
facet normal 0.938865 0.344285 1.30798e-15
  outer loop
    vertex 0.03259349721459499 0.04936948354804921 0.009999999999999972
    vertex 0.03388663748539161 0.0458430918660457 0.015
    vertex 0.03517977775618823 0.04231670018404218 0.01000000000000003
  endloop
endfacet
facet normal 0.733663 -0.679513 0
  outer loop
    vertex 0.03517977775618823 0.04231670018404218 0.02
    vertex 0.03191366127064166 0.03879030850203867 0.015
    vertex 0.03517977775618823 0.04231670018404218 0.009999999999999972
  endloop
endfacet
facet normal 0.733663 -0.679513 0
  outer loop
    vertex 0.02864754478509509 0.03526391682003515 0
    vertex 0.03191366127064166 0.03879030850203867 0.005
    vertex 0.02864754478509509 0.03526391682003515 0.01000000000000003
  endloop
endfacet
facet normal 0.733663 -0.679513 0
  outer loop
    vertex 0.02864754478509509 0.03526391682003515 0.01000000000000003
    vertex 0.03191366127064166 0.03879030850203867 0.015
    vertex 0.02864754478509509 0.03526391682003515 0.02
  endloop
endfacet
facet normal 0.733663 -0.679513 0
  outer loop
    vertex 0.03517977775618823 0.04231670018404218 0.009999999999999972
    vertex 0.03191366127064166 0.03879030850203867 0.005
    vertex 0.03517977775618823 0.04231670018404218 0
  endloop
endfacet
facet normal 0.733663 -0.679513 9.86858e-16
  outer loop
    vertex 0.03517977775618823 0.04231670018404218 0.009999999999999972
    vertex 0.03191366127064166 0.03879030850203867 0.015
    vertex 0.02864754478509509 0.03526391682003515 0.01000000000000003
  endloop
endfacet
facet normal 0.733663 -0.679513 9.86858e-16
  outer loop
    vertex 0.03517977775618823 0.04231670018404218 0
    vertex 0.03191366127064166 0.03879030850203867 0.005
    vertex 0.02864754478509509 0.03526391682003515 0
  endloop
endfacet
facet normal 0.733663 -0.679513 -9.86858e-16
  outer loop
    vertex 0.02864754478509509 0.03526391682003515 0.01000000000000003
    vertex 0.03191366127064166 0.03879030850203867 0.005
    vertex 0.03517977775618823 0.04231670018404218 0.009999999999999972
  endloop
endfacet
facet normal 0.733663 -0.679513 -9.86858e-16
  outer loop
    vertex 0.02864754478509509 0.03526391682003515 0.02
    vertex 0.03191366127064166 0.03879030850203867 0.015
    vertex 0.03517977775618823 0.04231670018404218 0.02
  endloop
endfacet
facet normal 0.880287 0.474441 0
  outer loop
    vertex 0.02864754478509509 0.03526391682003515 0.02
    vertex 0.03054813572953352 0.03173752513803164 0.015
    vertex 0.02864754478509509 0.03526391682003515 0.009999999999999972
  endloop
endfacet
facet normal 0.880287 0.474441 -0
  outer loop
    vertex 0.03244872667397194 0.02821113345602812 0
    vertex 0.03054813572953352 0.03173752513803164 0.005
    vertex 0.03244872667397194 0.02821113345602812 0.01000000000000003
  endloop
endfacet
facet normal 0.880287 0.474441 0
  outer loop
    vertex 0.02864754478509509 0.03526391682003515 0.009999999999999972
    vertex 0.03054813572953352 0.03173752513803164 0.005
    vertex 0.02864754478509509 0.03526391682003515 0
  endloop
endfacet
facet normal 0.880287 0.474441 -0
  outer loop
    vertex 0.03244872667397194 0.02821113345602812 0.01000000000000003
    vertex 0.03054813572953352 0.03173752513803164 0.015
    vertex 0.03244872667397194 0.02821113345602812 0.02
  endloop
endfacet
facet normal 0.880287 0.474441 1.69155e-16
  outer loop
    vertex 0.03244872667397194 0.02821113345602812 0.02
    vertex 0.03054813572953352 0.03173752513803164 0.015
    vertex 0.02864754478509509 0.03526391682003515 0.02
  endloop
endfacet
facet normal 0.880287 0.474441 1.69155e-16
  outer loop
    vertex 0.03244872667397194 0.02821113345602812 0.01000000000000003
    vertex 0.03054813572953352 0.03173752513803164 0.005
    vertex 0.02864754478509509 0.03526391682003515 0.009999999999999972
  endloop
endfacet
facet normal 0.880287 0.474441 -1.26866e-16
  outer loop
    vertex 0.02864754478509509 0.03526391682003515 0
    vertex 0.03054813572953352 0.03173752513803164 0.005
    vertex 0.03244872667397194 0.02821113345602812 0
  endloop
endfacet
facet normal 0.880287 0.474441 -1.26866e-16
  outer loop
    vertex 0.02864754478509509 0.03526391682003515 0.009999999999999972
    vertex 0.03054813572953352 0.03173752513803164 0.015
    vertex 0.03244872667397194 0.02821113345602812 0.01000000000000003
  endloop
endfacet
facet normal 0.996186 0.0872546 2.10568e-15
  outer loop
    vertex 0.03244872667397194 0.02821113345602812 0
    vertex 0.03275759861320488 0.0246847417740246 0.005
    vertex 0.03306647055243784 0.02115835009202109 0
  endloop
endfacet
facet normal 0.996186 0.0872546 2.10568e-15
  outer loop
    vertex 0.03244872667397194 0.02821113345602812 0.009999999999999972
    vertex 0.03275759861320488 0.0246847417740246 0.015
    vertex 0.03306647055243784 0.02115835009202109 0.01000000000000003
  endloop
endfacet
facet normal 0.996186 0.0872546 -2.10568e-15
  outer loop
    vertex 0.03306647055243784 0.02115835009202109 0.02
    vertex 0.03275759861320488 0.0246847417740246 0.015
    vertex 0.03244872667397194 0.02821113345602812 0.02
  endloop
endfacet
facet normal 0.996186 0.0872546 -2.10568e-15
  outer loop
    vertex 0.03306647055243784 0.02115835009202109 0.01000000000000003
    vertex 0.03275759861320488 0.0246847417740246 0.005
    vertex 0.03244872667397194 0.02821113345602812 0.009999999999999972
  endloop
endfacet
facet normal 0.996186 0.0872546 0
  outer loop
    vertex 0.03244872667397194 0.02821113345602812 0.009999999999999972
    vertex 0.03275759861320488 0.0246847417740246 0.005
    vertex 0.03244872667397194 0.02821113345602812 0
  endloop
endfacet
facet normal 0.996186 0.0872546 0
  outer loop
    vertex 0.03244872667397194 0.02821113345602812 0.02
    vertex 0.03275759861320488 0.0246847417740246 0.015
    vertex 0.03244872667397194 0.02821113345602812 0.009999999999999972
  endloop
endfacet
facet normal 0.996186 0.0872546 -0
  outer loop
    vertex 0.03306647055243784 0.02115835009202109 0
    vertex 0.03275759861320488 0.0246847417740246 0.005
    vertex 0.03306647055243784 0.02115835009202109 0.01000000000000003
  endloop
endfacet
facet normal 0.996186 0.0872546 -0
  outer loop
    vertex 0.03306647055243784 0.02115835009202109 0.01000000000000003
    vertex 0.03275759861320488 0.0246847417740246 0.015
    vertex 0.03306647055243784 0.02115835009202109 0.02
  endloop
endfacet
facet normal 0.997327 -0.0730735 -6.94713e-16
  outer loop
    vertex 0.03306647055243784 0.02115835009202109 0
    vertex 0.03280809403620836 0.01763195841001758 0.005000000000000001
    vertex 0.03254971751997887 0.01410556672801406 0
  endloop
endfacet
facet normal 0.997327 -0.0730735 -6.94713e-16
  outer loop
    vertex 0.03306647055243784 0.02115835009202109 0.009999999999999972
    vertex 0.03280809403620836 0.01763195841001758 0.015
    vertex 0.03254971751997887 0.01410556672801406 0.01000000000000003
  endloop
endfacet
facet normal 0.997327 -0.0730735 6.88724e-16
  outer loop
    vertex 0.03254971751997887 0.01410556672801406 0.02
    vertex 0.03280809403620836 0.01763195841001758 0.015
    vertex 0.03306647055243784 0.02115835009202109 0.02
  endloop
endfacet
facet normal 0.997327 -0.0730735 6.88724e-16
  outer loop
    vertex 0.03254971751997887 0.01410556672801406 0.01000000000000003
    vertex 0.03280809403620836 0.01763195841001758 0.005000000000000001
    vertex 0.03306647055243784 0.02115835009202109 0.009999999999999972
  endloop
endfacet
facet normal 0.997327 -0.0730735 0
  outer loop
    vertex 0.03306647055243784 0.02115835009202109 0.009999999999999972
    vertex 0.03280809403620836 0.01763195841001758 0.005000000000000001
    vertex 0.03306647055243784 0.02115835009202109 0
  endloop
endfacet
facet normal 0.997327 -0.0730735 0
  outer loop
    vertex 0.03306647055243784 0.02115835009202109 0.02
    vertex 0.03280809403620836 0.01763195841001758 0.015
    vertex 0.03306647055243784 0.02115835009202109 0.009999999999999972
  endloop
endfacet
facet normal 0.997327 -0.0730735 0
  outer loop
    vertex 0.03254971751997887 0.01410556672801406 0
    vertex 0.03280809403620836 0.01763195841001758 0.005000000000000001
    vertex 0.03254971751997887 0.01410556672801406 0.01000000000000003
  endloop
endfacet
facet normal 0.997327 -0.0730735 0
  outer loop
    vertex 0.03254971751997887 0.01410556672801406 0.01000000000000003
    vertex 0.03280809403620836 0.01763195841001758 0.015
    vertex 0.03254971751997887 0.01410556672801406 0.02
  endloop
endfacet
facet normal 0.91217 -0.409811 0
  outer loop
    vertex 0.03254971751997887 0.01410556672801406 0.02
    vertex 0.03096541284637508 0.01057917504601054 0.015
    vertex 0.03254971751997887 0.01410556672801406 0.009999999999999972
  endloop
endfacet
facet normal 0.91217 -0.409811 0
  outer loop
    vertex 0.02938110817277128 0.007052783364007033 0
    vertex 0.03096541284637508 0.01057917504601054 0.005000000000000001
    vertex 0.02938110817277128 0.007052783364007033 0.01000000000000003
  endloop
endfacet
facet normal 0.91217 -0.409811 0
  outer loop
    vertex 0.03254971751997887 0.01410556672801406 0.009999999999999972
    vertex 0.03096541284637508 0.01057917504601054 0.005000000000000001
    vertex 0.03254971751997887 0.01410556672801406 0
  endloop
endfacet
facet normal 0.91217 -0.409811 0
  outer loop
    vertex 0.02938110817277128 0.007052783364007033 0.01000000000000003
    vertex 0.03096541284637508 0.01057917504601054 0.015
    vertex 0.02938110817277128 0.007052783364007033 0.02
  endloop
endfacet
facet normal 0.91217 -0.409811 1.40225e-15
  outer loop
    vertex 0.02938110817277128 0.007052783364007033 0.01000000000000003
    vertex 0.03096541284637508 0.01057917504601054 0.005000000000000001
    vertex 0.03254971751997887 0.01410556672801406 0.009999999999999972
  endloop
endfacet
facet normal 0.91217 -0.409811 1.40225e-15
  outer loop
    vertex 0.02938110817277128 0.007052783364007033 0.02
    vertex 0.03096541284637508 0.01057917504601054 0.015
    vertex 0.03254971751997887 0.01410556672801406 0.02
  endloop
endfacet
facet normal 0.91217 -0.409811 -1.40225e-15
  outer loop
    vertex 0.03254971751997887 0.01410556672801406 0
    vertex 0.03096541284637508 0.01057917504601054 0.005000000000000001
    vertex 0.02938110817277128 0.007052783364007033 0
  endloop
endfacet
facet normal 0.91217 -0.409811 -1.40225e-15
  outer loop
    vertex 0.03254971751997887 0.01410556672801406 0.009999999999999972
    vertex 0.03096541284637508 0.01057917504601054 0.015
    vertex 0.02938110817277128 0.007052783364007033 0.01000000000000003
  endloop
endfacet
endsolid Created by Gmsh
