solid Created by Gmsh
facet normal 0.993481 -0.113999 -2.47784e-16
  outer loop
    vertex 0.01316527746364291 0.04501458597995251 0.02
    vertex 0.01348582223690849 0.04780808359129115 0.008230507229350894
    vertex 0.01445659682955364 0.05626823247494063 0.02
  endloop
endfacet
facet normal 0.993481 -0.113999 0
  outer loop
    vertex 0.008 0 0
    vertex 0.008970866515156332 0.008460949973970833 0.008231420618211518
    vertex 0.008 0 0.01000000000000003
  endloop
endfacet
facet normal 0.993481 -0.113999 0
  outer loop
    vertex 0.01445659682955364 0.05626823247494063 0.009999999999999972
    vertex 0.01348582223690849 0.04780808359129115 0.008230507229350894
    vertex 0.01445659682955364 0.05626823247494063 0
  endloop
endfacet
facet normal 0.993481 -0.113999 -2.5269e-16
  outer loop
    vertex 0.01058263873182146 0.0225072929899763 0.02
    vertex 0.01122829841477682 0.02813411623747031 0.009938615119854903
    vertex 0.01187395809773219 0.03376093948496439 0.02
  endloop
endfacet
facet normal 0.993481 -0.113999 8.48421e-17
  outer loop
    vertex 0.01058263873182145 0.02250729298997623 0
    vertex 0.009991180187566253 0.017352824196895 0.009695005956344403
    vertex 0.009291319365910726 0.01125364649498812 0
  endloop
endfacet
facet normal 0.993481 -0.113999 3.08521e-17
  outer loop
    vertex 0.0131652774636429 0.04501458597995244 0
    vertex 0.01246543196240591 0.03891554179309919 0.009694853724867633
    vertex 0.01187395809773218 0.03376093948496433 0
  endloop
endfacet
facet normal 0.993481 -0.113999 1.40807e-16
  outer loop
    vertex 0.009291319365910726 0.01125364649498812 0
    vertex 0.008970866515156332 0.008460949973970833 0.008231420618211518
    vertex 0.008 0 0
  endloop
endfacet
facet normal 0.993481 -0.113999 1.45365e-16
  outer loop
    vertex 0.01445659682955364 0.05626823247494063 0
    vertex 0.01348582223690849 0.04780808359129115 0.008230507229350894
    vertex 0.0131652774636429 0.04501458597995244 0
  endloop
endfacet
facet normal 0.993481 -0.113999 -2.75786e-16
  outer loop
    vertex 0.01122829841477682 0.02813411623747031 0.009938615119854903
    vertex 0.01246543196240591 0.03891554179309919 0.009694853724867633
    vertex 0.01187395809773219 0.03376093948496439 0.02
  endloop
endfacet
facet normal 0.993481 -0.113999 8.75079e-17
  outer loop
    vertex 0.01122829841477682 0.02813411623747031 0.009938615119854903
    vertex 0.009991180187566253 0.017352824196895 0.009695005956344403
    vertex 0.01058263873182145 0.02250729298997623 0
  endloop
endfacet
facet normal 0.993481 -0.113999 -1.91522e-16
  outer loop
    vertex 0.01058263873182146 0.0225072929899763 0.02
    vertex 0.009991180187566253 0.017352824196895 0.009695005956344403
    vertex 0.01122829841477682 0.02813411623747031 0.009938615119854903
  endloop
endfacet
facet normal 0.993481 -0.113999 1.23306e-16
  outer loop
    vertex 0.01187395809773218 0.03376093948496433 0
    vertex 0.01246543196240591 0.03891554179309919 0.009694853724867633
    vertex 0.01122829841477682 0.02813411623747031 0.009938615119854903
  endloop
endfacet
facet normal 0.993481 -0.113999 -1.42056e-16
  outer loop
    vertex 0.009291319365910735 0.01125364649498819 0.02
    vertex 0.008565546470266767 0.004928649117239756 0.01455785515455289
    vertex 0.008970866515156332 0.008460949973970833 0.008231420618211518
  endloop
endfacet
facet normal 0.993481 -0.113999 -2.17688e-16
  outer loop
    vertex 0.01187395809773219 0.03376093948496439 0.02
    vertex 0.01246543196240591 0.03891554179309919 0.009694853724867633
    vertex 0.01316527746364291 0.04501458597995251 0.02
  endloop
endfacet
facet normal 0.993481 -0.113999 1.27906e-16
  outer loop
    vertex 0.01187395809773218 0.03376093948496433 0
    vertex 0.01122829841477682 0.02813411623747031 0.009938615119854903
    vertex 0.01058263873182145 0.02250729298997623 0
  endloop
endfacet
facet normal 0.993481 -0.113999 -1.5964e-16
  outer loop
    vertex 0.009291319365910735 0.01125364649498819 0.02
    vertex 0.009991180187566253 0.017352824196895 0.009695005956344403
    vertex 0.01058263873182146 0.0225072929899763 0.02
  endloop
endfacet
facet normal 0.993481 -0.113999 -2.34288e-16
  outer loop
    vertex 0.01246543196240591 0.03891554179309919 0.009694853724867633
    vertex 0.01348582223690849 0.04780808359129115 0.008230507229350894
    vertex 0.01316527746364291 0.04501458597995251 0.02
  endloop
endfacet
facet normal 0.993481 -0.113999 -1.3808e-16
  outer loop
    vertex 0.009291319365910735 0.01125364649498819 0.02
    vertex 0.008970866515156332 0.008460949973970833 0.008231420618211518
    vertex 0.009991180187566253 0.017352824196895 0.009695005956344403
  endloop
endfacet
facet normal 0.993481 -0.113999 -8.24418e-17
  outer loop
    vertex 0.008 0 0.02
    vertex 0.008565546470266767 0.004928649117239756 0.01455785515455289
    vertex 0.009291319365910735 0.01125364649498819 0.02
  endloop
endfacet
facet normal 0.993481 -0.113999 1.1978e-16
  outer loop
    vertex 0.009991180187566253 0.017352824196895 0.009695005956344403
    vertex 0.008970866515156332 0.008460949973970833 0.008231420618211518
    vertex 0.009291319365910726 0.01125364649498812 0
  endloop
endfacet
facet normal 0.993481 -0.113999 3.2667e-17
  outer loop
    vertex 0.0131652774636429 0.04501458597995244 0
    vertex 0.01348582223690849 0.04780808359129115 0.008230507229350894
    vertex 0.01246543196240591 0.03891554179309919 0.009694853724867633
  endloop
endfacet
facet normal 0.993481 -0.113999 0
  outer loop
    vertex 0.008 0 0.01000000000000003
    vertex 0.008565546470266767 0.004928649117239756 0.01455785515455289
    vertex 0.008 0 0.02
  endloop
endfacet
facet normal 0.993481 -0.113999 -8.00922e-17
  outer loop
    vertex 0.008970866515156332 0.008460949973970833 0.008231420618211518
    vertex 0.008565546470266767 0.004928649117239756 0.01455785515455289
    vertex 0.008 0 0.01000000000000003
  endloop
endfacet
facet normal 0.993481 -0.113999 0
  outer loop
    vertex 0.01445659682955364 0.05626823247494063 0.02
    vertex 0.01348582223690849 0.04780808359129115 0.008230507229350894
    vertex 0.01445659682955364 0.05626823247494063 0.009999999999999972
  endloop
endfacet
endsolid Created by Gmsh
