solid Created by Gmsh
facet normal 1 0 0
  outer loop
    vertex 0.04 0.06 0
    vertex 0.04 0.05443896835899872 0.005493512265210879
    vertex 0.04 0.04887793671799745 0
  endloop
endfacet
facet normal 1 -0 0
  outer loop
    vertex 0.04 0.04887793671799745 0.02
    vertex 0.04 0.05443896835899872 0.01447938359017077
    vertex 0.04 0.06 0.02
  endloop
endfacet
facet normal 1 0 0
  outer loop
    vertex 0.04 0.06 0.02
    vertex 0.04 0.05443896835899872 0.01447938359017077
    vertex 0.04 0.06 0.009999999999999972
  endloop
endfacet
facet normal 1 0 0
  outer loop
    vertex 0.04 0.05443896835899872 0.01447938359017077
    vertex 0.04 0.05443896835899872 0.005493512265210879
    vertex 0.04 0.06 0.009999999999999972
  endloop
endfacet
facet normal 1 -0 0
  outer loop
    vertex 0.04 0.04887793671799745 0.01000000000000003
    vertex 0.04 0.05443896835899872 0.005493512265210879
    vertex 0.04 0.05443896835899872 0.01447938359017077
  endloop
endfacet
facet normal 1 0 0
  outer loop
    vertex 0.04 0.04887793671799745 0
    vertex 0.04 0.05443896835899872 0.005493512265210879
    vertex 0.04 0.04887793671799745 0.01000000000000003
  endloop
endfacet
facet normal 1 0 0
  outer loop
    vertex 0.04 0.06 0.009999999999999972
    vertex 0.04 0.05443896835899872 0.005493512265210879
    vertex 0.04 0.06 0
  endloop
endfacet
facet normal 1 0 0
  outer loop
    vertex 0.04 0.04887793671799745 0.01000000000000003
    vertex 0.04 0.05443896835899872 0.01447938359017077
    vertex 0.04 0.04887793671799745 0.02
  endloop
endfacet
facet normal 0.745781 -0.666191 0
  outer loop
    vertex 0.04 0.04887793671799745 0.02
    vertex 0.0372711427786811 0.04582306567312261 0.015
    vertex 0.04 0.04887793671799745 0.009999999999999972
  endloop
endfacet
facet normal 0.745781 -0.666191 0
  outer loop
    vertex 0.0345422855573622 0.04276819462824777 0
    vertex 0.0372711427786811 0.04582306567312261 0.004999999999999999
    vertex 0.0345422855573622 0.04276819462824777 0.01000000000000003
  endloop
endfacet
facet normal 0.745781 -0.666191 0
  outer loop
    vertex 0.04 0.04887793671799745 0.009999999999999972
    vertex 0.0372711427786811 0.04582306567312261 0.004999999999999999
    vertex 0.04 0.04887793671799745 0
  endloop
endfacet
facet normal 0.745781 -0.666191 0
  outer loop
    vertex 0.0345422855573622 0.04276819462824777 0.01000000000000003
    vertex 0.0372711427786811 0.04582306567312261 0.015
    vertex 0.0345422855573622 0.04276819462824777 0.02
  endloop
endfacet
facet normal 0.745781 -0.666191 -4.96283e-16
  outer loop
    vertex 0.0345422855573622 0.04276819462824777 0.02
    vertex 0.0372711427786811 0.04582306567312261 0.015
    vertex 0.04 0.04887793671799745 0.02
  endloop
endfacet
facet normal 0.745781 -0.666191 4.96283e-16
  outer loop
    vertex 0.04 0.04887793671799745 0
    vertex 0.0372711427786811 0.04582306567312261 0.004999999999999999
    vertex 0.0345422855573622 0.04276819462824777 0
  endloop
endfacet
facet normal 0.745781 -0.666191 -4.96283e-16
  outer loop
    vertex 0.0345422855573622 0.04276819462824777 0.01000000000000003
    vertex 0.0372711427786811 0.04582306567312261 0.004999999999999999
    vertex 0.04 0.04887793671799745 0.009999999999999972
  endloop
endfacet
facet normal 0.745781 -0.666191 4.96283e-16
  outer loop
    vertex 0.04 0.04887793671799745 0.009999999999999972
    vertex 0.0372711427786811 0.04582306567312261 0.015
    vertex 0.0345422855573622 0.04276819462824777 0.01000000000000003
  endloop
endfacet
facet normal 0.492334 0.870406 0
  outer loop
    vertex 0.03994304955328604 0.03971332358337293 0
    vertex 0.0345422855573622 0.04276819462824777 0.009999999999999972
    vertex 0.04534381354920988 0.03665845253849809 0.01000000000000003
  endloop
endfacet
facet normal 0.492334 0.870406 0
  outer loop
    vertex 0.04534381354920988 0.03665845253849809 0.01000000000000003
    vertex 0.0345422855573622 0.04276819462824777 0.009999999999999972
    vertex 0.03994304955328604 0.03971332358337293 0.02
  endloop
endfacet
facet normal 0.492334 0.870406 0
  outer loop
    vertex 0.03994304955328604 0.03971332358337293 0
    vertex 0.0345422855573622 0.04276819462824777 0
    vertex 0.0345422855573622 0.04276819462824777 0.009999999999999972
  endloop
endfacet
facet normal 0.492334 0.870406 -0
  outer loop
    vertex 0.0345422855573622 0.04276819462824777 0.009999999999999972
    vertex 0.0345422855573622 0.04276819462824777 0.02
    vertex 0.03994304955328604 0.03971332358337293 0.02
  endloop
endfacet
facet normal 0.492334 0.870406 0
  outer loop
    vertex 0.04534381354920988 0.03665845253849809 0.01000000000000003
    vertex 0.04534381354920988 0.03665845253849809 0
    vertex 0.03994304955328604 0.03971332358337293 0
  endloop
endfacet
facet normal 0.492334 0.870406 0
  outer loop
    vertex 0.03994304955328604 0.03971332358337293 0.02
    vertex 0.04534381354920988 0.03665845253849809 0.02
    vertex 0.04534381354920988 0.03665845253849809 0.01000000000000003
  endloop
endfacet
facet normal 0.362233 -0.932088 1.07324e-15
  outer loop
    vertex 0.02962239492778693 0.03054871044874841 0.02
    vertex 0.03671476462019124 0.03330498522707534 0.01213903734960402
    vertex 0.03748310423849839 0.03360358149362324 0.02
  endloop
endfacet
facet normal 0.362233 -0.932088 0
  outer loop
    vertex 0.02962239492778693 0.03054871044874841 0.01000000000000003
    vertex 0.03671476462019124 0.03330498522707534 0.01213903734960402
    vertex 0.02962239492778693 0.03054871044874841 0.02
  endloop
endfacet
facet normal 0.362233 -0.932088 0
  outer loop
    vertex 0.04534381354920988 0.03665845253849809 0.009999999999999972
    vertex 0.0397544619907159 0.03448628873485732 0.006004216020155146
    vertex 0.04534381354920988 0.03665845253849809 0
  endloop
endfacet
facet normal 0.362233 -0.932088 0
  outer loop
    vertex 0.04534381354920988 0.03665845253849809 0.02
    vertex 0.04122137398927735 0.03505636794942368 0.015534759337401
    vertex 0.04534381354920988 0.03665845253849809 0.009999999999999972
  endloop
endfacet
facet normal 0.362233 -0.932088 0
  outer loop
    vertex 0.02962239492778693 0.03054871044874841 0
    vertex 0.03462254947407827 0.03249189734697784 0.005679175159988159
    vertex 0.02962239492778693 0.03054871044874841 0.01000000000000003
  endloop
endfacet
facet normal 0.362233 -0.932088 -1.33822e-15
  outer loop
    vertex 0.04534381354920988 0.03665845253849809 0
    vertex 0.0397544619907159 0.03448628873485732 0.006004216020155146
    vertex 0.03748310423849842 0.03360358149362325 0
  endloop
endfacet
facet normal 0.362233 -0.932088 -3.64935e-16
  outer loop
    vertex 0.04534381354920988 0.03665845253849809 0.009999999999999972
    vertex 0.04122137398927735 0.03505636794942368 0.015534759337401
    vertex 0.03671476462019124 0.03330498522707534 0.01213903734960402
  endloop
endfacet
facet normal 0.362233 -0.932088 1.36018e-16
  outer loop
    vertex 0.03671476462019124 0.03330498522707534 0.01213903734960402
    vertex 0.0397544619907159 0.03448628873485732 0.006004216020155146
    vertex 0.04534381354920988 0.03665845253849809 0.009999999999999972
  endloop
endfacet
facet normal 0.362233 -0.932088 1.25962e-15
  outer loop
    vertex 0.03748310423849839 0.03360358149362324 0.02
    vertex 0.04122137398927735 0.03505636794942368 0.015534759337401
    vertex 0.04534381354920988 0.03665845253849809 0.02
  endloop
endfacet
facet normal 0.362233 -0.932088 -7.78149e-16
  outer loop
    vertex 0.03748310423849842 0.03360358149362325 0
    vertex 0.03462254947407827 0.03249189734697784 0.005679175159988159
    vertex 0.02962239492778693 0.03054871044874841 0
  endloop
endfacet
facet normal 0.362233 -0.932088 -5.53835e-16
  outer loop
    vertex 0.03462254947407827 0.03249189734697784 0.005679175159988159
    vertex 0.03671476462019124 0.03330498522707534 0.01213903734960402
    vertex 0.02962239492778693 0.03054871044874841 0.01000000000000003
  endloop
endfacet
facet normal 0.362233 -0.932088 1.05253e-15
  outer loop
    vertex 0.03671476462019124 0.03330498522707534 0.01213903734960402
    vertex 0.04122137398927735 0.03505636794942368 0.015534759337401
    vertex 0.03748310423849839 0.03360358149362324 0.02
  endloop
endfacet
facet normal 0.362233 -0.932088 -7.2942e-16
  outer loop
    vertex 0.03462254947407827 0.03249189734697784 0.005679175159988159
    vertex 0.0397544619907159 0.03448628873485732 0.006004216020155146
    vertex 0.03671476462019124 0.03330498522707534 0.01213903734960402
  endloop
endfacet
facet normal 0.362233 -0.932088 -1.19444e-15
  outer loop
    vertex 0.03748310423849842 0.03360358149362325 0
    vertex 0.0397544619907159 0.03448628873485732 0.006004216020155146
    vertex 0.03462254947407827 0.03249189734697784 0.005679175159988159
  endloop
endfacet
facet normal 0.40404 0.914741 1.16655e-15
  outer loop
    vertex 0.03653858443352992 0.02749383940387357 0.02
    vertex 0.03643776534452492 0.02753837105175805 0.01235926454543042
    vertex 0.02962239492778693 0.03054871044874841 0.02
  endloop
endfacet
facet normal 0.40404 0.914741 1.17297e-15
  outer loop
    vertex 0.04345477393927292 0.02443896835899872 0.02
    vertex 0.03643776534452492 0.02753837105175805 0.01235926454543042
    vertex 0.03653858443352992 0.02749383940387357 0.02
  endloop
endfacet
facet normal 0.40404 0.914741 0
  outer loop
    vertex 0.02962239492778693 0.03054871044874841 0.02
    vertex 0.03643776534452492 0.02753837105175805 0.01235926454543042
    vertex 0.02962239492778693 0.03054871044874841 0.009999999999999972
  endloop
endfacet
facet normal 0.40404 0.914741 -0
  outer loop
    vertex 0.04345477393927292 0.02443896835899872 0.01000000000000003
    vertex 0.03643776534452492 0.02753837105175805 0.01235926454543042
    vertex 0.04345477393927292 0.02443896835899872 0.02
  endloop
endfacet
facet normal 0.40404 0.914741 -0
  outer loop
    vertex 0.04345477393927292 0.02443896835899872 0
    vertex 0.03861344128525282 0.02657737809041112 0.005357488715702469
    vertex 0.04345477393927292 0.02443896835899872 0.01000000000000003
  endloop
endfacet
facet normal 0.40404 0.914741 0
  outer loop
    vertex 0.02962239492778693 0.03054871044874841 0.009999999999999972
    vertex 0.03385650861145691 0.02867850847088022 0.005388107608733262
    vertex 0.02962239492778693 0.03054871044874841 0
  endloop
endfacet
facet normal 0.40404 0.914741 -1.46376e-15
  outer loop
    vertex 0.03653858443352992 0.02749383940387357 0
    vertex 0.03861344128525282 0.02657737809041112 0.005357488715702469
    vertex 0.04345477393927292 0.02443896835899872 0
  endloop
endfacet
facet normal 0.40404 0.914741 -1.70494e-15
  outer loop
    vertex 0.02962239492778693 0.03054871044874841 0
    vertex 0.03385650861145691 0.02867850847088022 0.005388107608733262
    vertex 0.03653858443352992 0.02749383940387357 0
  endloop
endfacet
facet normal 0.40404 0.914741 0
  outer loop
    vertex 0.03861344128525282 0.02657737809041112 0.005357488715702469
    vertex 0.03385650861145691 0.02867850847088022 0.005388107608733262
    vertex 0.03643776534452492 0.02753837105175805 0.01235926454543042
  endloop
endfacet
facet normal 0.40404 0.914741 -1.65282e-15
  outer loop
    vertex 0.03653858443352992 0.02749383940387357 0
    vertex 0.03385650861145691 0.02867850847088022 0.005388107608733262
    vertex 0.03861344128525282 0.02657737809041112 0.005357488715702469
  endloop
endfacet
facet normal 0.40404 0.914741 2.64151e-16
  outer loop
    vertex 0.03861344128525282 0.02657737809041112 0.005357488715702469
    vertex 0.03643776534452492 0.02753837105175805 0.01235926454543042
    vertex 0.04345477393927292 0.02443896835899872 0.01000000000000003
  endloop
endfacet
facet normal 0.40404 0.914741 5.61174e-16
  outer loop
    vertex 0.03643776534452492 0.02753837105175805 0.01235926454543042
    vertex 0.03385650861145691 0.02867850847088022 0.005388107608733262
    vertex 0.02962239492778693 0.03054871044874841 0.009999999999999972
  endloop
endfacet
facet normal 0.630451 -0.776229 0
  outer loop
    vertex 0.04345477393927292 0.02443896835899872 0.02
    vertex 0.03969352847661287 0.02138409731412388 0.015
    vertex 0.04345477393927292 0.02443896835899872 0.009999999999999972
  endloop
endfacet
facet normal 0.630451 -0.776229 0
  outer loop
    vertex 0.03593228301395282 0.01832922626924904 0
    vertex 0.03969352847661287 0.02138409731412388 0.005000000000000004
    vertex 0.03593228301395282 0.01832922626924904 0.01000000000000003
  endloop
endfacet
facet normal 0.630451 -0.776229 0
  outer loop
    vertex 0.04345477393927292 0.02443896835899872 0.009999999999999972
    vertex 0.03969352847661287 0.02138409731412388 0.005000000000000004
    vertex 0.04345477393927292 0.02443896835899872 0
  endloop
endfacet
facet normal 0.630451 -0.776229 0
  outer loop
    vertex 0.03593228301395282 0.01832922626924904 0.01000000000000003
    vertex 0.03969352847661287 0.02138409731412388 0.015
    vertex 0.03593228301395282 0.01832922626924904 0.02
  endloop
endfacet
facet normal 0.630451 -0.776229 -1.46838e-15
  outer loop
    vertex 0.04345477393927292 0.02443896835899872 0
    vertex 0.03969352847661287 0.02138409731412388 0.005000000000000004
    vertex 0.03593228301395282 0.01832922626924904 0
  endloop
endfacet
facet normal 0.630451 -0.776229 -9.78919e-16
  outer loop
    vertex 0.04345477393927292 0.02443896835899872 0.009999999999999972
    vertex 0.03969352847661287 0.02138409731412388 0.015
    vertex 0.03593228301395282 0.01832922626924904 0.01000000000000003
  endloop
endfacet
facet normal 0.630451 -0.776229 1.46838e-15
  outer loop
    vertex 0.03593228301395282 0.01832922626924904 0.01000000000000003
    vertex 0.03969352847661287 0.02138409731412388 0.005000000000000004
    vertex 0.04345477393927292 0.02443896835899872 0.009999999999999972
  endloop
endfacet
facet normal 0.630451 -0.776229 9.78919e-16
  outer loop
    vertex 0.03593228301395282 0.01832922626924904 0.02
    vertex 0.03969352847661287 0.02138409731412388 0.015
    vertex 0.04345477393927292 0.02443896835899872 0.02
  endloop
endfacet
facet normal 0.932571 0.360987 1.55146e-15
  outer loop
    vertex 0.03829729210482037 0.01221948417949936 0.02
    vertex 0.0371147875593866 0.01527435522437421 0.015
    vertex 0.03593228301395282 0.01832922626924904 0.02
  endloop
endfacet
facet normal 0.932571 0.360987 -1.42217e-15
  outer loop
    vertex 0.03593228301395282 0.01832922626924904 0
    vertex 0.0371147875593866 0.0152743552243742 0.005
    vertex 0.03829729210482037 0.01221948417949936 0
  endloop
endfacet
facet normal 0.932571 0.360987 -1.55146e-15
  outer loop
    vertex 0.03593228301395282 0.01832922626924904 0.009999999999999972
    vertex 0.0371147875593866 0.01527435522437421 0.015
    vertex 0.03829729210482037 0.01221948417949936 0.01000000000000003
  endloop
endfacet
facet normal 0.932571 0.360987 1.42217e-15
  outer loop
    vertex 0.03829729210482037 0.01221948417949936 0.01000000000000003
    vertex 0.0371147875593866 0.0152743552243742 0.005
    vertex 0.03593228301395282 0.01832922626924904 0.009999999999999972
  endloop
endfacet
facet normal 0.932571 0.360987 0
  outer loop
    vertex 0.03593228301395282 0.01832922626924904 0.009999999999999972
    vertex 0.0371147875593866 0.0152743552243742 0.005
    vertex 0.03593228301395282 0.01832922626924904 0
  endloop
endfacet
facet normal 0.932571 0.360987 0
  outer loop
    vertex 0.03593228301395282 0.01832922626924904 0.02
    vertex 0.0371147875593866 0.01527435522437421 0.015
    vertex 0.03593228301395282 0.01832922626924904 0.009999999999999972
  endloop
endfacet
facet normal 0.932571 0.360987 -0
  outer loop
    vertex 0.03829729210482037 0.01221948417949936 0
    vertex 0.0371147875593866 0.0152743552243742 0.005
    vertex 0.03829729210482037 0.01221948417949936 0.01000000000000003
  endloop
endfacet
facet normal 0.932571 0.360987 -0
  outer loop
    vertex 0.03829729210482037 0.01221948417949936 0.01000000000000003
    vertex 0.0371147875593866 0.01527435522437421 0.015
    vertex 0.03829729210482037 0.01221948417949936 0.02
  endloop
endfacet
facet normal 0.997866 0.0652892 0
  outer loop
    vertex 0.03869704524432989 0.006109742089749681 0.01000000000000003
    vertex 0.03849716867457513 0.009164613134624522 0.005
    vertex 0.03829729210482037 0.01221948417949936 0.009999999999999972
  endloop
endfacet
facet normal 0.997866 0.0652892 0
  outer loop
    vertex 0.03829729210482037 0.01221948417949936 0.009999999999999972
    vertex 0.03849716867457513 0.009164613134624522 0.015
    vertex 0.03869704524432989 0.006109742089749681 0.01000000000000003
  endloop
endfacet
facet normal 0.997866 0.0652892 0
  outer loop
    vertex 0.03869704524432989 0.006109742089749681 0.02
    vertex 0.03849716867457513 0.009164613134624522 0.015
    vertex 0.03829729210482037 0.01221948417949936 0.02
  endloop
endfacet
facet normal 0.997866 0.0652892 0
  outer loop
    vertex 0.03829729210482037 0.01221948417949936 0
    vertex 0.03849716867457513 0.009164613134624522 0.005
    vertex 0.03869704524432989 0.006109742089749681 0
  endloop
endfacet
facet normal 0.997866 0.0652892 0
  outer loop
    vertex 0.03829729210482037 0.01221948417949936 0.009999999999999972
    vertex 0.03849716867457513 0.009164613134624522 0.005
    vertex 0.03829729210482037 0.01221948417949936 0
  endloop
endfacet
facet normal 0.997866 0.0652892 0
  outer loop
    vertex 0.03829729210482037 0.01221948417949936 0.02
    vertex 0.03849716867457513 0.009164613134624522 0.015
    vertex 0.03829729210482037 0.01221948417949936 0.009999999999999972
  endloop
endfacet
facet normal 0.997866 0.0652892 -0
  outer loop
    vertex 0.03869704524432989 0.006109742089749681 0
    vertex 0.03849716867457513 0.009164613134624522 0.005
    vertex 0.03869704524432989 0.006109742089749681 0.01000000000000003
  endloop
endfacet
facet normal 0.997866 0.0652892 -0
  outer loop
    vertex 0.03869704524432989 0.006109742089749681 0.01000000000000003
    vertex 0.03849716867457513 0.009164613134624522 0.015
    vertex 0.03869704524432989 0.006109742089749681 0.02
  endloop
endfacet
endsolid Created by Gmsh
