solid Created by Gmsh
facet normal -0.797287 0.6036 0
  outer loop
    vertex 0.03132575447766879 0.04764618659509035 0
    vertex 0.03132575447766879 0.04764618659509035 0.01000000000000003
    vertex 0.03390228292754696 0.05104948563759679 0.005000000000000001
  endloop
endfacet
facet normal -0.797287 0.6036 0
  outer loop
    vertex 0.03647881137742513 0.05445278468010325 0.02
    vertex 0.03647881137742513 0.05445278468010325 0.009999999999999972
    vertex 0.03390228292754696 0.05104948563759679 0.015
  endloop
endfacet
facet normal -0.797287 0.6036 0
  outer loop
    vertex 0.03647881137742513 0.05445278468010325 0.009999999999999972
    vertex 0.03647881137742513 0.05445278468010325 0
    vertex 0.03390228292754696 0.05104948563759679 0.005000000000000001
  endloop
endfacet
facet normal -0.797287 0.6036 0
  outer loop
    vertex 0.03132575447766879 0.04764618659509035 0.01000000000000003
    vertex 0.03132575447766879 0.04764618659509035 0.02
    vertex 0.03390228292754696 0.05104948563759679 0.015
  endloop
endfacet
facet normal -0.797287 0.6036 3.96867e-16
  outer loop
    vertex 0.03647881137742513 0.05445278468010325 0.009999999999999972
    vertex 0.03132575447766879 0.04764618659509035 0.01000000000000003
    vertex 0.03390228292754696 0.05104948563759679 0.015
  endloop
endfacet
facet normal -0.797287 0.6036 -3.96867e-16
  outer loop
    vertex 0.03132575447766879 0.04764618659509035 0.01000000000000003
    vertex 0.03647881137742513 0.05445278468010325 0.009999999999999972
    vertex 0.03390228292754696 0.05104948563759679 0.005000000000000001
  endloop
endfacet
facet normal -0.797287 0.6036 3.96867e-16
  outer loop
    vertex 0.03647881137742513 0.05445278468010325 0
    vertex 0.03132575447766879 0.04764618659509035 0
    vertex 0.03390228292754696 0.05104948563759679 0.005000000000000001
  endloop
endfacet
facet normal -0.797287 0.6036 -3.96867e-16
  outer loop
    vertex 0.03132575447766879 0.04764618659509035 0.02
    vertex 0.03647881137742513 0.05445278468010325 0.02
    vertex 0.03390228292754696 0.05104948563759679 0.015
  endloop
endfacet
facet normal -0.996166 0.0874823 0
  outer loop
    vertex 0.03132575447766879 0.04764618659509035 0
    vertex 0.03072800616377601 0.04083958851007743 0
    vertex 0.0310268803207224 0.04424288755258389 0.005000000000000001
  endloop
endfacet
facet normal -0.996166 0.0874823 0
  outer loop
    vertex 0.03132575447766879 0.04764618659509035 0.009999999999999972
    vertex 0.03072800616377601 0.04083958851007743 0.01000000000000003
    vertex 0.0310268803207224 0.04424288755258389 0.015
  endloop
endfacet
facet normal -0.996166 0.0874823 0
  outer loop
    vertex 0.03072800616377601 0.04083958851007743 0.02
    vertex 0.03132575447766879 0.04764618659509035 0.02
    vertex 0.0310268803207224 0.04424288755258389 0.015
  endloop
endfacet
facet normal -0.996166 0.0874823 0
  outer loop
    vertex 0.03072800616377601 0.04083958851007743 0.01000000000000003
    vertex 0.03132575447766879 0.04764618659509035 0.009999999999999972
    vertex 0.0310268803207224 0.04424288755258389 0.005000000000000001
  endloop
endfacet
facet normal -0.996166 0.0874823 0
  outer loop
    vertex 0.03132575447766879 0.04764618659509035 0.009999999999999972
    vertex 0.03132575447766879 0.04764618659509035 0
    vertex 0.0310268803207224 0.04424288755258389 0.005000000000000001
  endloop
endfacet
facet normal -0.996166 0.0874823 0
  outer loop
    vertex 0.03132575447766879 0.04764618659509035 0.02
    vertex 0.03132575447766879 0.04764618659509035 0.009999999999999972
    vertex 0.0310268803207224 0.04424288755258389 0.015
  endloop
endfacet
facet normal -0.996166 0.0874823 0
  outer loop
    vertex 0.03072800616377601 0.04083958851007743 0
    vertex 0.03072800616377601 0.04083958851007743 0.01000000000000003
    vertex 0.0310268803207224 0.04424288755258389 0.005000000000000001
  endloop
endfacet
facet normal -0.996166 0.0874823 0
  outer loop
    vertex 0.03072800616377601 0.04083958851007743 0.01000000000000003
    vertex 0.03072800616377601 0.04083958851007743 0.02
    vertex 0.0310268803207224 0.04424288755258389 0.015
  endloop
endfacet
facet normal -0.988148 0.153507 1.13131e-15
  outer loop
    vertex 0.03072800616377601 0.04083958851007743 0.009999999999999972
    vertex 0.02967061438812132 0.03403299042506453 0.01000000000000003
    vertex 0.03019931027594867 0.03743628946757098 0.015
  endloop
endfacet
facet normal -0.988148 0.153507 1.13131e-15
  outer loop
    vertex 0.03072800616377601 0.04083958851007743 0
    vertex 0.02967061438812132 0.03403299042506453 0
    vertex 0.03019931027594867 0.03743628946757098 0.005
  endloop
endfacet
facet normal -0.988148 0.153507 -1.13131e-15
  outer loop
    vertex 0.02967061438812132 0.03403299042506453 0.02
    vertex 0.03072800616377601 0.04083958851007743 0.02
    vertex 0.03019931027594867 0.03743628946757098 0.015
  endloop
endfacet
facet normal -0.988148 0.153507 -1.13131e-15
  outer loop
    vertex 0.02967061438812132 0.03403299042506453 0.01000000000000003
    vertex 0.03072800616377601 0.04083958851007743 0.009999999999999972
    vertex 0.03019931027594867 0.03743628946757098 0.005
  endloop
endfacet
facet normal -0.988148 0.153507 0
  outer loop
    vertex 0.03072800616377601 0.04083958851007743 0.009999999999999972
    vertex 0.03072800616377601 0.04083958851007743 0
    vertex 0.03019931027594867 0.03743628946757098 0.005
  endloop
endfacet
facet normal -0.988148 0.153507 0
  outer loop
    vertex 0.03072800616377601 0.04083958851007743 0.02
    vertex 0.03072800616377601 0.04083958851007743 0.009999999999999972
    vertex 0.03019931027594867 0.03743628946757098 0.015
  endloop
endfacet
facet normal -0.988148 0.153507 0
  outer loop
    vertex 0.02967061438812132 0.03403299042506453 0
    vertex 0.02967061438812132 0.03403299042506453 0.01000000000000003
    vertex 0.03019931027594867 0.03743628946757098 0.005
  endloop
endfacet
facet normal -0.988148 0.153507 0
  outer loop
    vertex 0.02967061438812132 0.03403299042506453 0.01000000000000003
    vertex 0.02967061438812132 0.03403299042506453 0.02
    vertex 0.03019931027594867 0.03743628946757098 0.015
  endloop
endfacet
facet normal -0.998634 -0.0522447 -1.367e-15
  outer loop
    vertex 0.02967061438812132 0.03403299042506453 0.009999999999999972
    vertex 0.03002670959793803 0.02722639234005162 0.01000000000000003
    vertex 0.02984866199302967 0.03062969138255808 0.015
  endloop
endfacet
facet normal -0.998634 -0.0522447 -1.40428e-15
  outer loop
    vertex 0.02967061438812132 0.03403299042506453 0
    vertex 0.03002670959793803 0.02722639234005162 0
    vertex 0.02984866199302967 0.03062969138255808 0.005000000000000001
  endloop
endfacet
facet normal -0.998634 -0.0522447 1.367e-15
  outer loop
    vertex 0.03002670959793803 0.02722639234005162 0.02
    vertex 0.02967061438812132 0.03403299042506453 0.02
    vertex 0.02984866199302967 0.03062969138255808 0.015
  endloop
endfacet
facet normal -0.998634 -0.0522447 1.40428e-15
  outer loop
    vertex 0.03002670959793803 0.02722639234005162 0.01000000000000003
    vertex 0.02967061438812132 0.03403299042506453 0.009999999999999972
    vertex 0.02984866199302967 0.03062969138255808 0.005000000000000001
  endloop
endfacet
facet normal -0.998634 -0.0522447 -0
  outer loop
    vertex 0.02967061438812132 0.03403299042506453 0.009999999999999972
    vertex 0.02967061438812132 0.03403299042506453 0
    vertex 0.02984866199302967 0.03062969138255808 0.005000000000000001
  endloop
endfacet
facet normal -0.998634 -0.0522447 -0
  outer loop
    vertex 0.02967061438812132 0.03403299042506453 0.02
    vertex 0.02967061438812132 0.03403299042506453 0.009999999999999972
    vertex 0.02984866199302967 0.03062969138255808 0.015
  endloop
endfacet
facet normal -0.998634 -0.0522447 0
  outer loop
    vertex 0.03002670959793803 0.02722639234005162 0
    vertex 0.03002670959793803 0.02722639234005162 0.01000000000000003
    vertex 0.02984866199302967 0.03062969138255808 0.005000000000000001
  endloop
endfacet
facet normal -0.998634 -0.0522447 0
  outer loop
    vertex 0.03002670959793803 0.02722639234005162 0.01000000000000003
    vertex 0.03002670959793803 0.02722639234005162 0.02
    vertex 0.02984866199302967 0.03062969138255808 0.015
  endloop
endfacet
facet normal -0.915078 -0.403276 0
  outer loop
    vertex 0.03302638781726946 0.02041979425503872 0
    vertex 0.03302638781726946 0.02041979425503872 0.01000000000000003
    vertex 0.03152654870760375 0.02382309329754517 0.005000000000000001
  endloop
endfacet
facet normal -0.915078 -0.403276 -0
  outer loop
    vertex 0.03002670959793803 0.02722639234005162 0.02
    vertex 0.03002670959793803 0.02722639234005162 0.009999999999999972
    vertex 0.03152654870760375 0.02382309329754517 0.015
  endloop
endfacet
facet normal -0.915078 -0.403276 0
  outer loop
    vertex 0.03302638781726946 0.02041979425503872 0.01000000000000003
    vertex 0.03302638781726946 0.02041979425503872 0.02
    vertex 0.03152654870760375 0.02382309329754517 0.015
  endloop
endfacet
facet normal -0.915078 -0.403276 -0
  outer loop
    vertex 0.03002670959793803 0.02722639234005162 0.009999999999999972
    vertex 0.03002670959793803 0.02722639234005162 0
    vertex 0.03152654870760375 0.02382309329754517 0.005000000000000001
  endloop
endfacet
facet normal -0.915078 -0.403276 4.555e-16
  outer loop
    vertex 0.03002670959793803 0.02722639234005162 0.009999999999999972
    vertex 0.03302638781726946 0.02041979425503872 0.01000000000000003
    vertex 0.03152654870760375 0.02382309329754517 0.015
  endloop
endfacet
facet normal -0.915078 -0.403276 4.555e-16
  outer loop
    vertex 0.03002670959793803 0.02722639234005162 0
    vertex 0.03302638781726946 0.02041979425503872 0
    vertex 0.03152654870760375 0.02382309329754517 0.005000000000000001
  endloop
endfacet
facet normal -0.915078 -0.403276 -4.555e-16
  outer loop
    vertex 0.03302638781726946 0.02041979425503872 0.02
    vertex 0.03002670959793803 0.02722639234005162 0.02
    vertex 0.03152654870760375 0.02382309329754517 0.015
  endloop
endfacet
facet normal -0.915078 -0.403276 -4.555e-16
  outer loop
    vertex 0.03302638781726946 0.02041979425503872 0.01000000000000003
    vertex 0.03002670959793803 0.02722639234005162 0.009999999999999972
    vertex 0.03152654870760375 0.02382309329754517 0.005000000000000001
  endloop
endfacet
facet normal -0.922587 0.385789 -3.21466e-16
  outer loop
    vertex 0.03302638781726946 0.02041979425503872 0
    vertex 0.03018014342078773 0.01361319617002581 0
    vertex 0.0316032656190286 0.01701649521253227 0.005000000000000001
  endloop
endfacet
facet normal -0.922587 0.385789 3.21466e-16
  outer loop
    vertex 0.03018014342078773 0.01361319617002581 0.02
    vertex 0.03302638781726946 0.02041979425503872 0.02
    vertex 0.0316032656190286 0.01701649521253227 0.015
  endloop
endfacet
facet normal -0.922587 0.385789 -3.21466e-16
  outer loop
    vertex 0.03302638781726946 0.02041979425503872 0.009999999999999972
    vertex 0.03018014342078773 0.01361319617002581 0.01000000000000003
    vertex 0.0316032656190286 0.01701649521253227 0.015
  endloop
endfacet
facet normal -0.922587 0.385789 3.21466e-16
  outer loop
    vertex 0.03018014342078773 0.01361319617002581 0.01000000000000003
    vertex 0.03302638781726946 0.02041979425503872 0.009999999999999972
    vertex 0.0316032656190286 0.01701649521253227 0.005000000000000001
  endloop
endfacet
facet normal -0.922587 0.385789 0
  outer loop
    vertex 0.03302638781726946 0.02041979425503872 0.009999999999999972
    vertex 0.03302638781726946 0.02041979425503872 0
    vertex 0.0316032656190286 0.01701649521253227 0.005000000000000001
  endloop
endfacet
facet normal -0.922587 0.385789 0
  outer loop
    vertex 0.03302638781726946 0.02041979425503872 0.02
    vertex 0.03302638781726946 0.02041979425503872 0.009999999999999972
    vertex 0.0316032656190286 0.01701649521253227 0.015
  endloop
endfacet
facet normal -0.922587 0.385789 0
  outer loop
    vertex 0.03018014342078773 0.01361319617002581 0
    vertex 0.03018014342078773 0.01361319617002581 0.01000000000000003
    vertex 0.0316032656190286 0.01701649521253227 0.005000000000000001
  endloop
endfacet
facet normal -0.922587 0.385789 0
  outer loop
    vertex 0.03018014342078773 0.01361319617002581 0.01000000000000003
    vertex 0.03018014342078773 0.01361319617002581 0.02
    vertex 0.0316032656190286 0.01701649521253227 0.015
  endloop
endfacet
facet normal -0.974676 -0.223621 -1.09162e-15
  outer loop
    vertex 0.03174179008917333 0.006806598085012903 0.01000000000000003
    vertex 0.03018014342078773 0.01361319617002581 0.009999999999999972
    vertex 0.03096096675498054 0.01020989712751936 0.005000000000000001
  endloop
endfacet
facet normal -0.974676 -0.223621 1.09162e-15
  outer loop
    vertex 0.03018014342078773 0.01361319617002581 0.009999999999999972
    vertex 0.03174179008917333 0.006806598085012903 0.01000000000000003
    vertex 0.03096096675498054 0.01020989712751936 0.015
  endloop
endfacet
facet normal -0.974676 -0.223621 -1.09162e-15
  outer loop
    vertex 0.03174179008917333 0.006806598085012903 0.02
    vertex 0.03018014342078773 0.01361319617002581 0.02
    vertex 0.03096096675498054 0.01020989712751936 0.015
  endloop
endfacet
facet normal -0.974676 -0.223621 1.09162e-15
  outer loop
    vertex 0.03018014342078773 0.01361319617002581 0
    vertex 0.03174179008917333 0.006806598085012903 0
    vertex 0.03096096675498054 0.01020989712751936 0.005000000000000001
  endloop
endfacet
facet normal -0.974676 -0.223621 -0
  outer loop
    vertex 0.03018014342078773 0.01361319617002581 0.009999999999999972
    vertex 0.03018014342078773 0.01361319617002581 0
    vertex 0.03096096675498054 0.01020989712751936 0.005000000000000001
  endloop
endfacet
facet normal -0.974676 -0.223621 -0
  outer loop
    vertex 0.03018014342078773 0.01361319617002581 0.02
    vertex 0.03018014342078773 0.01361319617002581 0.009999999999999972
    vertex 0.03096096675498054 0.01020989712751936 0.015
  endloop
endfacet
facet normal -0.974676 -0.223621 0
  outer loop
    vertex 0.03174179008917333 0.006806598085012903 0
    vertex 0.03174179008917333 0.006806598085012903 0.01000000000000003
    vertex 0.03096096675498054 0.01020989712751936 0.005000000000000001
  endloop
endfacet
facet normal -0.974676 -0.223621 0
  outer loop
    vertex 0.03174179008917333 0.006806598085012903 0.01000000000000003
    vertex 0.03174179008917333 0.006806598085012903 0.02
    vertex 0.03096096675498054 0.01020989712751936 0.015
  endloop
endfacet
endsolid Created by Gmsh
