solid Created by Gmsh
facet normal 1 0 0
  outer loop
    vertex 0.04 0.059 0
    vertex 0.04 0.06 0
    vertex 0.04 0.06 0.009999999999999972
  endloop
endfacet
facet normal 1 0 0
  outer loop
    vertex 0.04 0.059 0.01000000000000003
    vertex 0.04 0.06 0.02
    vertex 0.04 0.059 0.02
  endloop
endfacet
facet normal 1 0 -0
  outer loop
    vertex 0.04 0.06 0.009999999999999972
    vertex 0.04 0.06 0.02
    vertex 0.04 0.059 0.01000000000000003
  endloop
endfacet
facet normal 1 0 0
  outer loop
    vertex 0.04 0.059 0
    vertex 0.04 0.06 0.009999999999999972
    vertex 0.04 0.059 0.01000000000000003
  endloop
endfacet
facet normal 0.926295 -0.376798 0
  outer loop
    vertex 0.03699999999999999 0.051625 0
    vertex 0.03849999999999999 0.0553125 0.005
    vertex 0.03699999999999999 0.051625 0.01000000000000003
  endloop
endfacet
facet normal 0.926295 -0.376798 0
  outer loop
    vertex 0.04 0.059 0.02
    vertex 0.03849999999999999 0.0553125 0.015
    vertex 0.04 0.059 0.009999999999999972
  endloop
endfacet
facet normal 0.926295 -0.376798 0
  outer loop
    vertex 0.03699999999999999 0.051625 0.01000000000000003
    vertex 0.03849999999999999 0.0553125 0.015
    vertex 0.03699999999999999 0.051625 0.02
  endloop
endfacet
facet normal 0.926295 -0.376798 0
  outer loop
    vertex 0.04 0.059 0.009999999999999972
    vertex 0.03849999999999999 0.0553125 0.005
    vertex 0.04 0.059 0
  endloop
endfacet
facet normal 0.926295 -0.376798 2.17029e-15
  outer loop
    vertex 0.04 0.059 0
    vertex 0.03849999999999999 0.0553125 0.005
    vertex 0.03699999999999999 0.051625 0
  endloop
endfacet
facet normal 0.926295 -0.376798 2.17029e-15
  outer loop
    vertex 0.04 0.059 0.009999999999999972
    vertex 0.03849999999999999 0.0553125 0.015
    vertex 0.03699999999999999 0.051625 0.01000000000000003
  endloop
endfacet
facet normal 0.926295 -0.376798 -2.17029e-15
  outer loop
    vertex 0.03699999999999999 0.051625 0.02
    vertex 0.03849999999999999 0.0553125 0.015
    vertex 0.04 0.059 0.02
  endloop
endfacet
facet normal 0.926295 -0.376798 -2.17029e-15
  outer loop
    vertex 0.03699999999999999 0.051625 0.01000000000000003
    vertex 0.03849999999999999 0.0553125 0.005
    vertex 0.04 0.059 0.009999999999999972
  endloop
endfacet
facet normal 0.263495 -0.964661 1.55159e-15
  outer loop
    vertex 0.02799999999999998 0.04916666666666666 0
    vertex 0.02349999999999999 0.04793750000000001 0.008074869034632391
    vertex 0.019 0.04670833333333333 0
  endloop
endfacet
facet normal 0.263495 -0.964661 0
  outer loop
    vertex 0.01 0.04425 0
    vertex 0.01646708221909436 0.04601647153206745 0.006902461443262625
    vertex 0.01 0.04425 0.01000000000000003
  endloop
endfacet
facet normal 0.263495 -0.964661 0
  outer loop
    vertex 0.03699999999999999 0.051625 0.009999999999999972
    vertex 0.03053291778090561 0.04985852846793256 0.006902461443262622
    vertex 0.03699999999999999 0.051625 0
  endloop
endfacet
facet normal 0.263495 -0.964661 1.60468e-15
  outer loop
    vertex 0.019 0.04670833333333333 0
    vertex 0.01646708221909436 0.04601647153206745 0.006902461443262625
    vertex 0.01 0.04425 0
  endloop
endfacet
facet normal 0.263495 -0.964661 1.52576e-15
  outer loop
    vertex 0.03699999999999999 0.051625 0
    vertex 0.03053291778090561 0.04985852846793256 0.006902461443262622
    vertex 0.02799999999999998 0.04916666666666666 0
  endloop
endfacet
facet normal 0.263495 -0.964661 -3.86633e-16
  outer loop
    vertex 0.02349999999999999 0.04793750000000001 0.008074869034632391
    vertex 0.03097485997638477 0.04997924416021622 0.01374642307179518
    vertex 0.0235 0.04793750000000001 0.01516827586429922
  endloop
endfacet
facet normal 0.263495 -0.964661 -3.86633e-16
  outer loop
    vertex 0.0235 0.04793750000000001 0.01516827586429922
    vertex 0.01602514002361524 0.0458957558397838 0.01374642307179518
    vertex 0.02349999999999999 0.04793750000000001 0.008074869034632391
  endloop
endfacet
facet normal 0.263495 -0.964661 0
  outer loop
    vertex 0.03699999999999999 0.051625 0.02
    vertex 0.03097485997638477 0.04997924416021622 0.01374642307179518
    vertex 0.03699999999999999 0.051625 0.009999999999999972
  endloop
endfacet
facet normal 0.263495 -0.964661 0
  outer loop
    vertex 0.01 0.04425 0.01000000000000003
    vertex 0.01602514002361524 0.0458957558397838 0.01374642307179518
    vertex 0.01 0.04425 0.02
  endloop
endfacet
facet normal 0.263495 -0.964661 3.54796e-16
  outer loop
    vertex 0.03053291778090561 0.04985852846793256 0.006902461443262622
    vertex 0.03097485997638477 0.04997924416021622 0.01374642307179518
    vertex 0.02349999999999999 0.04793750000000001 0.008074869034632391
  endloop
endfacet
facet normal 0.263495 -0.964661 1.34361e-16
  outer loop
    vertex 0.02349999999999999 0.04793750000000001 0.008074869034632391
    vertex 0.01602514002361524 0.0458957558397838 0.01374642307179518
    vertex 0.01646708221909436 0.04601647153206745 0.006902461443262625
  endloop
endfacet
facet normal 0.263495 -0.964661 -1.75667e-15
  outer loop
    vertex 0.02799999999999999 0.04916666666666666 0.02
    vertex 0.03097485997638477 0.04997924416021622 0.01374642307179518
    vertex 0.03699999999999999 0.051625 0.02
  endloop
endfacet
facet normal 0.263495 -0.964661 -1.48083e-15
  outer loop
    vertex 0.01 0.04425 0.02
    vertex 0.01602514002361524 0.0458957558397838 0.01374642307179518
    vertex 0.01900000000000001 0.04670833333333334 0.02
  endloop
endfacet
facet normal 0.263495 -0.964661 1.60996e-15
  outer loop
    vertex 0.02799999999999998 0.04916666666666666 0
    vertex 0.03053291778090561 0.04985852846793256 0.006902461443262622
    vertex 0.02349999999999999 0.04793750000000001 0.008074869034632391
  endloop
endfacet
facet normal 0.263495 -0.964661 1.61789e-15
  outer loop
    vertex 0.02349999999999999 0.04793750000000001 0.008074869034632391
    vertex 0.01646708221909436 0.04601647153206745 0.006902461443262625
    vertex 0.019 0.04670833333333333 0
  endloop
endfacet
facet normal 0.263495 -0.964661 -1.31531e-15
  outer loop
    vertex 0.01900000000000001 0.04670833333333334 0.02
    vertex 0.0235 0.04793750000000001 0.01516827586429922
    vertex 0.02799999999999999 0.04916666666666666 0.02
  endloop
endfacet
facet normal 0.263495 -0.964661 -1.61441e-15
  outer loop
    vertex 0.0235 0.04793750000000001 0.01516827586429922
    vertex 0.03097485997638477 0.04997924416021622 0.01374642307179518
    vertex 0.02799999999999999 0.04916666666666666 0.02
  endloop
endfacet
facet normal 0.263495 -0.964661 -1.28768e-15
  outer loop
    vertex 0.01900000000000001 0.04670833333333334 0.02
    vertex 0.01602514002361524 0.0458957558397838 0.01374642307179518
    vertex 0.0235 0.04793750000000001 0.01516827586429922
  endloop
endfacet
facet normal 0.263495 -0.964661 2.47655e-16
  outer loop
    vertex 0.01646708221909436 0.04601647153206745 0.006902461443262625
    vertex 0.01602514002361524 0.0458957558397838 0.01374642307179518
    vertex 0.01 0.04425 0.01000000000000003
  endloop
endfacet
facet normal 0.263495 -0.964661 4.57209e-16
  outer loop
    vertex 0.03699999999999999 0.051625 0.009999999999999972
    vertex 0.03097485997638477 0.04997924416021622 0.01374642307179518
    vertex 0.03053291778090561 0.04985852846793256 0.006902461443262622
  endloop
endfacet
facet normal 0.263495 0.964661 1.05688e-15
  outer loop
    vertex 0.02799999999999998 0.03933333333333334 0.02
    vertex 0.0235 0.04056250000000001 0.01192513096536761
    vertex 0.019 0.04179166666666666 0.02
  endloop
endfacet
facet normal 0.263495 0.964661 0
  outer loop
    vertex 0.01 0.04425 0.02
    vertex 0.01646708221909436 0.04248352846793257 0.01309753855673738
    vertex 0.01 0.04425 0.009999999999999972
  endloop
endfacet
facet normal 0.263495 0.964661 -0
  outer loop
    vertex 0.03699999999999999 0.036875 0.01000000000000003
    vertex 0.03053291778090561 0.03864147153206746 0.01309753855673738
    vertex 0.03699999999999999 0.036875 0.02
  endloop
endfacet
facet normal 0.263495 0.964661 1.43369e-15
  outer loop
    vertex 0.019 0.04179166666666666 0.02
    vertex 0.01646708221909436 0.04248352846793257 0.01309753855673738
    vertex 0.01 0.04425 0.02
  endloop
endfacet
facet normal 0.263495 0.964661 1.36792e-15
  outer loop
    vertex 0.03699999999999999 0.036875 0.02
    vertex 0.03053291778090561 0.03864147153206746 0.01309753855673738
    vertex 0.02799999999999998 0.03933333333333334 0.02
  endloop
endfacet
facet normal 0.263495 0.964661 2.57756e-16
  outer loop
    vertex 0.0235 0.04056250000000001 0.01192513096536761
    vertex 0.03097485997638477 0.03852075583978379 0.006253576928204823
    vertex 0.0235 0.04056250000000001 0.004831724135700776
  endloop
endfacet
facet normal 0.263495 0.964661 2.57756e-16
  outer loop
    vertex 0.0235 0.04056250000000001 0.004831724135700776
    vertex 0.01602514002361524 0.04260424416021621 0.006253576928204819
    vertex 0.0235 0.04056250000000001 0.01192513096536761
  endloop
endfacet
facet normal 0.263495 0.964661 -0
  outer loop
    vertex 0.03699999999999999 0.036875 0
    vertex 0.03097485997638477 0.03852075583978379 0.006253576928204823
    vertex 0.03699999999999999 0.036875 0.01000000000000003
  endloop
endfacet
facet normal 0.263495 0.964661 0
  outer loop
    vertex 0.01 0.04425 0.009999999999999972
    vertex 0.01602514002361524 0.04260424416021621 0.006253576928204819
    vertex 0.01 0.04425 0
  endloop
endfacet
facet normal 0.263495 0.964661 -2.14137e-16
  outer loop
    vertex 0.03053291778090561 0.03864147153206746 0.01309753855673738
    vertex 0.03097485997638477 0.03852075583978379 0.006253576928204823
    vertex 0.0235 0.04056250000000001 0.01192513096536761
  endloop
endfacet
facet normal 0.263495 0.964661 -1.34361e-16
  outer loop
    vertex 0.0235 0.04056250000000001 0.01192513096536761
    vertex 0.01602514002361524 0.04260424416021621 0.006253576928204819
    vertex 0.01646708221909436 0.04248352846793257 0.01309753855673738
  endloop
endfacet
facet normal 0.263495 0.964661 -1.59697e-15
  outer loop
    vertex 0.02799999999999999 0.03933333333333333 0
    vertex 0.03097485997638477 0.03852075583978379 0.006253576928204823
    vertex 0.03699999999999999 0.036875 0
  endloop
endfacet
facet normal 0.263495 0.964661 -1.88733e-15
  outer loop
    vertex 0.01 0.04425 0
    vertex 0.01602514002361524 0.04260424416021621 0.006253576928204819
    vertex 0.01900000000000001 0.04179166666666666 0
  endloop
endfacet
facet normal 0.263495 0.964661 1.17376e-15
  outer loop
    vertex 0.02799999999999998 0.03933333333333334 0.02
    vertex 0.03053291778090561 0.03864147153206746 0.01309753855673738
    vertex 0.0235 0.04056250000000001 0.01192513096536761
  endloop
endfacet
facet normal 0.263495 0.964661 1.26893e-15
  outer loop
    vertex 0.0235 0.04056250000000001 0.01192513096536761
    vertex 0.01646708221909436 0.04248352846793257 0.01309753855673738
    vertex 0.019 0.04179166666666666 0.02
  endloop
endfacet
facet normal 0.263495 0.964661 -2.8561e-15
  outer loop
    vertex 0.01900000000000001 0.04179166666666666 0
    vertex 0.0235 0.04056250000000001 0.004831724135700776
    vertex 0.02799999999999999 0.03933333333333333 0
  endloop
endfacet
facet normal 0.263495 0.964661 -1.99879e-15
  outer loop
    vertex 0.0235 0.04056250000000001 0.004831724135700776
    vertex 0.03097485997638477 0.03852075583978379 0.006253576928204823
    vertex 0.02799999999999999 0.03933333333333333 0
  endloop
endfacet
facet normal 0.263495 0.964661 -2.33513e-15
  outer loop
    vertex 0.01900000000000001 0.04179166666666666 0
    vertex 0.01602514002361524 0.04260424416021621 0.006253576928204819
    vertex 0.0235 0.04056250000000001 0.004831724135700776
  endloop
endfacet
facet normal 0.263495 0.964661 -1.14302e-16
  outer loop
    vertex 0.03699999999999999 0.036875 0.01000000000000003
    vertex 0.03097485997638477 0.03852075583978379 0.006253576928204823
    vertex 0.03053291778090561 0.03864147153206746 0.01309753855673738
  endloop
endfacet
facet normal 0.263495 0.964661 -3.09568e-17
  outer loop
    vertex 0.01646708221909436 0.04248352846793257 0.01309753855673738
    vertex 0.01602514002361524 0.04260424416021621 0.006253576928204819
    vertex 0.01 0.04425 0.009999999999999972
  endloop
endfacet
facet normal 0.263495 -0.964661 6.07143e-16
  outer loop
    vertex 0.02799999999999998 0.03441666666666666 0
    vertex 0.0235 0.0331875 0.008074869034632391
    vertex 0.019 0.03195833333333333 0
  endloop
endfacet
facet normal 0.263495 -0.964661 0
  outer loop
    vertex 0.01 0.0295 0
    vertex 0.01646708221909436 0.03126647153206744 0.006902461443262625
    vertex 0.01 0.0295 0.01000000000000003
  endloop
endfacet
facet normal 0.263495 -0.964661 0
  outer loop
    vertex 0.03699999999999999 0.036875 0.009999999999999972
    vertex 0.03053291778090561 0.03510852846793255 0.006902461443262622
    vertex 0.03699999999999999 0.036875 0
  endloop
endfacet
facet normal 0.263495 -0.964661 5.12971e-16
  outer loop
    vertex 0.019 0.03195833333333333 0
    vertex 0.01646708221909436 0.03126647153206744 0.006902461443262625
    vertex 0.01 0.0295 0
  endloop
endfacet
facet normal 0.263495 -0.964661 5.78737e-16
  outer loop
    vertex 0.03699999999999999 0.036875 0
    vertex 0.03053291778090561 0.03510852846793255 0.006902461443262622
    vertex 0.02799999999999998 0.03441666666666666 0
  endloop
endfacet
facet normal 0.263495 -0.964661 -2.57756e-16
  outer loop
    vertex 0.0235 0.0331875 0.008074869034632391
    vertex 0.03097485997638477 0.03522924416021622 0.01374642307179518
    vertex 0.0235 0.0331875 0.01516827586429922
  endloop
endfacet
facet normal 0.263495 -0.964661 -2.57756e-16
  outer loop
    vertex 0.0235 0.0331875 0.01516827586429922
    vertex 0.01602514002361524 0.0311457558397838 0.01374642307179518
    vertex 0.0235 0.0331875 0.008074869034632391
  endloop
endfacet
facet normal 0.263495 -0.964661 0
  outer loop
    vertex 0.03699999999999999 0.036875 0.02
    vertex 0.03097485997638477 0.03522924416021622 0.01374642307179518
    vertex 0.03699999999999999 0.036875 0.009999999999999972
  endloop
endfacet
facet normal 0.263495 -0.964661 0
  outer loop
    vertex 0.01 0.0295 0.01000000000000003
    vertex 0.01602514002361524 0.0311457558397838 0.01374642307179518
    vertex 0.01 0.0295 0.02
  endloop
endfacet
facet normal 0.263495 -0.964661 2.14137e-16
  outer loop
    vertex 0.03053291778090561 0.03510852846793255 0.006902461443262622
    vertex 0.03097485997638477 0.03522924416021622 0.01374642307179518
    vertex 0.0235 0.0331875 0.008074869034632391
  endloop
endfacet
facet normal 0.263495 -0.964661 1.34361e-16
  outer loop
    vertex 0.0235 0.0331875 0.008074869034632391
    vertex 0.01602514002361524 0.0311457558397838 0.01374642307179518
    vertex 0.01646708221909436 0.03126647153206744 0.006902461443262625
  endloop
endfacet
facet normal 0.263495 -0.964661 -5.5168e-16
  outer loop
    vertex 0.02799999999999999 0.03441666666666666 0.02
    vertex 0.03097485997638477 0.03522924416021622 0.01374642307179518
    vertex 0.03699999999999999 0.036875 0.02
  endloop
endfacet
facet normal 0.263495 -0.964661 -2.61322e-16
  outer loop
    vertex 0.01 0.0295 0.02
    vertex 0.01602514002361524 0.0311457558397838 0.01374642307179518
    vertex 0.01900000000000001 0.03195833333333334 0.02
  endloop
endfacet
facet normal 0.263495 -0.964661 5.7102e-16
  outer loop
    vertex 0.0235 0.0331875 0.008074869034632391
    vertex 0.01646708221909436 0.03126647153206744 0.006902461443262625
    vertex 0.019 0.03195833333333333 0
  endloop
endfacet
facet normal 0.263495 -0.964661 6.5826e-16
  outer loop
    vertex 0.02799999999999998 0.03441666666666666 0
    vertex 0.03053291778090561 0.03510852846793255 0.006902461443262622
    vertex 0.0235 0.0331875 0.008074869034632391
  endloop
endfacet
facet normal 0.263495 -0.964661 7.51606e-17
  outer loop
    vertex 0.01900000000000001 0.03195833333333334 0.02
    vertex 0.0235 0.0331875 0.01516827586429922
    vertex 0.02799999999999999 0.03441666666666666 0.02
  endloop
endfacet
facet normal 0.263495 -0.964661 -3.45945e-16
  outer loop
    vertex 0.0235 0.0331875 0.01516827586429922
    vertex 0.03097485997638477 0.03522924416021622 0.01374642307179518
    vertex 0.02799999999999999 0.03441666666666666 0.02
  endloop
endfacet
facet normal 0.263495 -0.964661 -1.92192e-17
  outer loop
    vertex 0.01900000000000001 0.03195833333333334 0.02
    vertex 0.01602514002361524 0.0311457558397838 0.01374642307179518
    vertex 0.0235 0.0331875 0.01516827586429922
  endloop
endfacet
facet normal 0.263495 -0.964661 1.69072e-16
  outer loop
    vertex 0.01646708221909436 0.03126647153206744 0.006902461443262625
    vertex 0.01602514002361524 0.0311457558397838 0.01374642307179518
    vertex 0.01 0.0295 0.01000000000000003
  endloop
endfacet
facet normal 0.263495 -0.964661 2.28604e-16
  outer loop
    vertex 0.03699999999999999 0.036875 0.009999999999999972
    vertex 0.03097485997638477 0.03522924416021622 0.01374642307179518
    vertex 0.03053291778090561 0.03510852846793255 0.006902461443262622
  endloop
endfacet
facet normal 0.945909 0.324433 -0
  outer loop
    vertex 0.01252951817753447 0.022125 0
    vertex 0.01126475908876724 0.0258125 0.005000000000000001
    vertex 0.01252951817753447 0.022125 0.01000000000000003
  endloop
endfacet
facet normal 0.945909 0.324433 0
  outer loop
    vertex 0.01 0.0295 0.02
    vertex 0.01126475908876724 0.0258125 0.015
    vertex 0.01 0.0295 0.009999999999999972
  endloop
endfacet
facet normal 0.945909 0.324433 -0
  outer loop
    vertex 0.01252951817753447 0.022125 0.01000000000000003
    vertex 0.01126475908876724 0.0258125 0.015
    vertex 0.01252951817753447 0.022125 0.02
  endloop
endfacet
facet normal 0.945909 0.324433 0
  outer loop
    vertex 0.01 0.0295 0.009999999999999972
    vertex 0.01126475908876724 0.0258125 0.005000000000000001
    vertex 0.01 0.0295 0
  endloop
endfacet
facet normal 0.945909 0.324433 -6.51837e-16
  outer loop
    vertex 0.01 0.0295 0
    vertex 0.01126475908876724 0.0258125 0.005000000000000001
    vertex 0.01252951817753447 0.022125 0
  endloop
endfacet
facet normal 0.945909 0.324433 -6.51837e-16
  outer loop
    vertex 0.01 0.0295 0.009999999999999972
    vertex 0.01126475908876724 0.0258125 0.015
    vertex 0.01252951817753447 0.022125 0.01000000000000003
  endloop
endfacet
facet normal 0.945909 0.324433 6.51837e-16
  outer loop
    vertex 0.01252951817753447 0.022125 0.02
    vertex 0.01126475908876724 0.0258125 0.015
    vertex 0.01 0.0295 0.02
  endloop
endfacet
facet normal 0.945909 0.324433 6.51837e-16
  outer loop
    vertex 0.01252951817753447 0.022125 0.01000000000000003
    vertex 0.01126475908876724 0.0258125 0.005000000000000001
    vertex 0.01 0.0295 0.009999999999999972
  endloop
endfacet
facet normal 0.957469 -0.288537 0
  outer loop
    vertex 0.01252951817753447 0.022125 0.02
    vertex 0.01141827436141015 0.0184375 0.015
    vertex 0.01252951817753447 0.022125 0.009999999999999972
  endloop
endfacet
facet normal 0.957469 -0.288537 0
  outer loop
    vertex 0.01030703054528582 0.01475 0
    vertex 0.01141827436141015 0.0184375 0.005
    vertex 0.01030703054528582 0.01475 0.01000000000000003
  endloop
endfacet
facet normal 0.957469 -0.288537 0
  outer loop
    vertex 0.01252951817753447 0.022125 0.009999999999999972
    vertex 0.01141827436141015 0.0184375 0.005
    vertex 0.01252951817753447 0.022125 0
  endloop
endfacet
facet normal 0.957469 -0.288537 0
  outer loop
    vertex 0.01030703054528582 0.01475 0.01000000000000003
    vertex 0.01141827436141015 0.0184375 0.015
    vertex 0.01030703054528582 0.01475 0.02
  endloop
endfacet
facet normal 0.957469 -0.288537 3.07908e-16
  outer loop
    vertex 0.01030703054528582 0.01475 0.01000000000000003
    vertex 0.01141827436141015 0.0184375 0.005
    vertex 0.01252951817753447 0.022125 0.009999999999999972
  endloop
endfacet
facet normal 0.957469 -0.288537 -3.51895e-16
  outer loop
    vertex 0.01252951817753447 0.022125 0.009999999999999972
    vertex 0.01141827436141015 0.0184375 0.015
    vertex 0.01030703054528582 0.01475 0.01000000000000003
  endloop
endfacet
facet normal 0.957469 -0.288537 -3.51895e-16
  outer loop
    vertex 0.01252951817753447 0.022125 0
    vertex 0.01141827436141015 0.0184375 0.005
    vertex 0.01030703054528582 0.01475 0
  endloop
endfacet
facet normal 0.957469 -0.288537 3.07908e-16
  outer loop
    vertex 0.01030703054528582 0.01475 0.02
    vertex 0.01141827436141015 0.0184375 0.015
    vertex 0.01252951817753447 0.022125 0.02
  endloop
endfacet
facet normal 0.266312 0.963887 2.06606e-16
  outer loop
    vertex 0.02810234351509526 0.009833333333333336 0.02
    vertex 0.02365351527264289 0.0110625 0.01200570389115723
    vertex 0.01920468703019053 0.01229166666666667 0.02
  endloop
endfacet
facet normal 0.266312 0.963887 0
  outer loop
    vertex 0.01030703054528582 0.01475 0.02
    vertex 0.01667938741663385 0.01298938164669454 0.0131578617624886
    vertex 0.01030703054528582 0.01475 0.009999999999999972
  endloop
endfacet
facet normal 0.266312 0.963887 -0
  outer loop
    vertex 0.03699999999999999 0.007375 0.01000000000000003
    vertex 0.03062764312865193 0.009135618353305466 0.01315786176248861
    vertex 0.03699999999999999 0.007375 0.02
  endloop
endfacet
facet normal 0.266312 0.963887 1.60931e-16
  outer loop
    vertex 0.03699999999999999 0.007375 0.02
    vertex 0.03062764312865193 0.009135618353305466 0.01315786176248861
    vertex 0.02810234351509526 0.009833333333333336 0.02
  endloop
endfacet
facet normal 0.266312 0.963887 2.68219e-16
  outer loop
    vertex 0.01920468703019053 0.01229166666666667 0.02
    vertex 0.01667938741663385 0.01298938164669454 0.0131578617624886
    vertex 0.01030703054528582 0.01475 0.02
  endloop
endfacet
facet normal 0.266312 0.963887 -5.55643e-17
  outer loop
    vertex 0.02365351527264289 0.0110625 0.01200570389115723
    vertex 0.03084458318616488 0.009075679989127873 0.006355612097888892
    vertex 0.02365351527264291 0.0110625 0.004870731763053441
  endloop
endfacet
facet normal 0.266312 0.963887 -5.55643e-17
  outer loop
    vertex 0.02365351527264291 0.0110625 0.004870731763053441
    vertex 0.01646244735912094 0.01304932001087212 0.006355612097888887
    vertex 0.02365351527264289 0.0110625 0.01200570389115723
  endloop
endfacet
facet normal 0.266312 0.963887 -0
  outer loop
    vertex 0.03699999999999999 0.007375 0
    vertex 0.03084458318616488 0.009075679989127873 0.006355612097888892
    vertex 0.03699999999999999 0.007375 0.01000000000000003
  endloop
endfacet
facet normal 0.266312 0.963887 0
  outer loop
    vertex 0.01030703054528582 0.01475 0.009999999999999972
    vertex 0.01646244735912094 0.01304932001087212 0.006355612097888887
    vertex 0.01030703054528582 0.01475 0
  endloop
endfacet
facet normal 0.266312 0.963887 -7.59696e-17
  outer loop
    vertex 0.03062764312865193 0.009135618353305466 0.01315786176248861
    vertex 0.03084458318616488 0.009075679989127873 0.006355612097888892
    vertex 0.02365351527264289 0.0110625 0.01200570389115723
  endloop
endfacet
facet normal 0.266312 0.963887 0
  outer loop
    vertex 0.02365351527264289 0.0110625 0.01200570389115723
    vertex 0.01646244735912094 0.01304932001087212 0.006355612097888887
    vertex 0.01667938741663385 0.01298938164669454 0.0131578617624886
  endloop
endfacet
facet normal 0.266312 0.963887 -4.04251e-16
  outer loop
    vertex 0.01030703054528582 0.01475 0
    vertex 0.01646244735912094 0.01304932001087212 0.006355612097888887
    vertex 0.01920468703019055 0.01229166666666666 0
  endloop
endfacet
facet normal 0.266312 0.963887 -3.17626e-16
  outer loop
    vertex 0.02810234351509528 0.009833333333333329 0
    vertex 0.03084458318616488 0.009075679989127873 0.006355612097888892
    vertex 0.03699999999999999 0.007375 0
  endloop
endfacet
facet normal 0.266312 0.963887 2.90277e-16
  outer loop
    vertex 0.02365351527264289 0.0110625 0.01200570389115723
    vertex 0.01667938741663385 0.01298938164669454 0.0131578617624886
    vertex 0.01920468703019053 0.01229166666666667 0.02
  endloop
endfacet
facet normal 0.266312 0.963887 9.6759e-17
  outer loop
    vertex 0.02810234351509526 0.009833333333333336 0.02
    vertex 0.03062764312865193 0.009135618353305466 0.01315786176248861
    vertex 0.02365351527264289 0.0110625 0.01200570389115723
  endloop
endfacet
facet normal 0.266312 0.963887 -6.02846e-16
  outer loop
    vertex 0.01920468703019055 0.01229166666666666 0
    vertex 0.02365351527264291 0.0110625 0.004870731763053441
    vertex 0.02810234351509528 0.009833333333333329 0
  endloop
endfacet
facet normal 0.266312 0.963887 -3.92222e-16
  outer loop
    vertex 0.02365351527264291 0.0110625 0.004870731763053441
    vertex 0.03084458318616488 0.009075679989127873 0.006355612097888892
    vertex 0.02810234351509528 0.009833333333333329 0
  endloop
endfacet
facet normal 0.266312 0.963887 -5.29499e-16
  outer loop
    vertex 0.01920468703019055 0.01229166666666666 0
    vertex 0.01646244735912094 0.01304932001087212 0.006355612097888887
    vertex 0.02365351527264291 0.0110625 0.004870731763053441
  endloop
endfacet
facet normal 0.266312 0.963887 -7.65513e-17
  outer loop
    vertex 0.03699999999999999 0.007375 0.01000000000000003
    vertex 0.03084458318616488 0.009075679989127873 0.006355612097888892
    vertex 0.03062764312865193 0.009135618353305466 0.01315786176248861
  endloop
endfacet
facet normal 0.266312 0.963887 -4.78445e-18
  outer loop
    vertex 0.01667938741663385 0.01298938164669454 0.0131578617624886
    vertex 0.01646244735912094 0.01304932001087212 0.006355612097888887
    vertex 0.01030703054528582 0.01475 0.009999999999999972
  endloop
endfacet
endsolid Created by Gmsh
