solid Created by Gmsh
facet normal 0.999838 -0.018 0
  outer loop
    vertex 0.008 0 0
    vertex 0.008156571510754251 0.008697000174496839 0.008362770074363469
    vertex 0.008 0 0.01000000000000003
  endloop
endfacet
facet normal 0.999838 -0.018 0
  outer loop
    vertex 0.008835048057356 0.04638400093064998 0.02
    vertex 0.008678476546601753 0.03768700075615315 0.01163722992563653
    vertex 0.008835048057356 0.04638400093064998 0.009999999999999972
  endloop
endfacet
facet normal 0.999838 -0.018 -1.21173e-16
  outer loop
    vertex 0.008208762014339 0.01159600023266246 0
    vertex 0.008156571510754251 0.008697000174496839 0.008362770074363469
    vertex 0.008 0 0
  endloop
endfacet
facet normal 0.999838 -0.018 2.92561e-16
  outer loop
    vertex 0.008626286043017 0.03478800069798752 0.02
    vertex 0.008678476546601753 0.03768700075615315 0.01163722992563653
    vertex 0.008835048057356 0.04638400093064998 0.02
  endloop
endfacet
facet normal 0.999838 -0.018 -2.73478e-16
  outer loop
    vertex 0.008417524028677998 0.02319200046532493 0
    vertex 0.008514656354794065 0.0285873616846888 0.0102273930452273
    vertex 0.008321841438772628 0.01787716702535469 0.009727128345727249
  endloop
endfacet
facet normal 0.999838 -0.018 1.51843e-16
  outer loop
    vertex 0.008321841438772628 0.01787716702535469 0.009727128345727249
    vertex 0.008514656354794065 0.0285873616846888 0.0102273930452273
    vertex 0.008417524028678002 0.02319200046532505 0.02
  endloop
endfacet
facet normal 0.999838 -0.018 2.36386e-16
  outer loop
    vertex 0.008208762014339 0.01159600023266254 0.02
    vertex 0.008321841438772628 0.01787716702535469 0.009727128345727249
    vertex 0.008417524028678002 0.02319200046532505 0.02
  endloop
endfacet
facet normal 0.999838 -0.018 -1.78524e-16
  outer loop
    vertex 0.008626286043017 0.03478800069798744 0
    vertex 0.008514656354794065 0.0285873616846888 0.0102273930452273
    vertex 0.008417524028677998 0.02319200046532493 0
  endloop
endfacet
facet normal 0.999838 -0.018 -2.47771e-16
  outer loop
    vertex 0.008417524028677998 0.02319200046532493 0
    vertex 0.008321841438772628 0.01787716702535469 0.009727128345727249
    vertex 0.008208762014339 0.01159600023266246 0
  endloop
endfacet
facet normal 0.999838 -0.018 1.887e-16
  outer loop
    vertex 0.008417524028678002 0.02319200046532505 0.02
    vertex 0.008514656354794065 0.0285873616846888 0.0102273930452273
    vertex 0.008626286043017 0.03478800069798752 0.02
  endloop
endfacet
facet normal 0.999838 -0.018 -9.56639e-17
  outer loop
    vertex 0.008626286043017 0.03478800069798744 0
    vertex 0.008678476546601753 0.03768700075615315 0.01163722992563653
    vertex 0.008514656354794065 0.0285873616846888 0.0102273930452273
  endloop
endfacet
facet normal 0.999838 -0.018 2.33588e-16
  outer loop
    vertex 0.008208762014339 0.01159600023266254 0.02
    vertex 0.008156571510754251 0.008697000174496839 0.008362770074363469
    vertex 0.008321841438772628 0.01787716702535469 0.009727128345727249
  endloop
endfacet
facet normal 0.999838 -0.018 -8.43516e-17
  outer loop
    vertex 0.008626286043017 0.03478800069798744 0
    vertex 0.008737048865235025 0.0409404883345786 0.004999999999999991
    vertex 0.008678476546601753 0.03768700075615315 0.01163722992563653
  endloop
endfacet
facet normal 0.999838 -0.018 1.10306e-16
  outer loop
    vertex 0.008208762014339 0.01159600023266254 0.02
    vertex 0.008097999192120979 0.005443512596071384 0.01500000000000001
    vertex 0.008156571510754251 0.008697000174496839 0.008362770074363469
  endloop
endfacet
facet normal 0.999838 -0.018 4.63762e-16
  outer loop
    vertex 0.008 0 0.02
    vertex 0.008097999192120979 0.005443512596071384 0.01500000000000001
    vertex 0.008208762014339 0.01159600023266254 0.02
  endloop
endfacet
facet normal 0.999838 -0.018 -2.30055e-16
  outer loop
    vertex 0.008835048057356 0.04638400093064998 0
    vertex 0.008737048865235025 0.0409404883345786 0.004999999999999991
    vertex 0.008626286043017 0.03478800069798744 0
  endloop
endfacet
facet normal 0.999838 -0.018 -1.31136e-16
  outer loop
    vertex 0.008321841438772628 0.01787716702535469 0.009727128345727249
    vertex 0.008156571510754251 0.008697000174496839 0.008362770074363469
    vertex 0.008208762014339 0.01159600023266246 0
  endloop
endfacet
facet normal 0.999838 -0.018 2.93088e-16
  outer loop
    vertex 0.008514656354794065 0.0285873616846888 0.0102273930452273
    vertex 0.008678476546601753 0.03768700075615315 0.01163722992563653
    vertex 0.008626286043017 0.03478800069798752 0.02
  endloop
endfacet
facet normal 0.999838 -0.018 0
  outer loop
    vertex 0.008 0 0.01000000000000003
    vertex 0.008097999192120979 0.005443512596071384 0.01500000000000001
    vertex 0.008 0 0.02
  endloop
endfacet
facet normal 0.999838 -0.018 0
  outer loop
    vertex 0.008835048057356 0.04638400093064998 0.009999999999999972
    vertex 0.008737048865235025 0.0409404883345786 0.004999999999999991
    vertex 0.008835048057356 0.04638400093064998 0
  endloop
endfacet
facet normal 0.999838 -0.018 5.25297e-17
  outer loop
    vertex 0.008678476546601753 0.03768700075615315 0.01163722992563653
    vertex 0.008737048865235025 0.0409404883345786 0.004999999999999991
    vertex 0.008835048057356 0.04638400093064998 0.009999999999999972
  endloop
endfacet
facet normal 0.999838 -0.018 -1.6567e-16
  outer loop
    vertex 0.008156571510754251 0.008697000174496839 0.008362770074363469
    vertex 0.008097999192120979 0.005443512596071384 0.01500000000000001
    vertex 0.008 0 0.01000000000000003
  endloop
endfacet
endsolid Created by Gmsh
