solid Created by Gmsh
facet normal 0.999389 0.034938 -1.93397e-17
  outer loop
    vertex 0.007284318285309505 0.02047183226962182 0
    vertex 0.007482554010850484 0.01480136669837728 0.01069050373842768
    vertex 0.007642159142654753 0.01023591613481091 0
  endloop
endfacet
facet normal 0.999389 0.034938 5.68265e-17
  outer loop
    vertex 0.006926477427964256 0.03070774840443273 0.02
    vertex 0.00673414114363587 0.03620946246434251 0.009085135694973585
    vertex 0.006568636570619009 0.04094366453924364 0.02
  endloop
endfacet
facet normal 0.999389 0.034938 6.83951e-17
  outer loop
    vertex 0.006926477427964256 0.03070774840443273 0.02
    vertex 0.00710638109683898 0.02556166508513815 0.009962606572233546
    vertex 0.00673414114363587 0.03620946246434251 0.009085135694973585
  endloop
endfacet
facet normal 0.999389 0.034938 2.67775e-17
  outer loop
    vertex 0.007284318285309505 0.02047183226962183 0.02
    vertex 0.00710638109683898 0.02556166508513815 0.009962606572233546
    vertex 0.006926477427964256 0.03070774840443273 0.02
  endloop
endfacet
facet normal 0.999389 0.034938 -5.72458e-18
  outer loop
    vertex 0.007284318285309505 0.02047183226962182 0
    vertex 0.00710638109683898 0.02556166508513815 0.009962606572233546
    vertex 0.007482554010850484 0.01480136669837728 0.01069050373842768
  endloop
endfacet
facet normal 0.999389 0.034938 -2.02903e-17
  outer loop
    vertex 0.007482554010850484 0.01480136669837728 0.01069050373842768
    vertex 0.00710638109683898 0.02556166508513815 0.009962606572233546
    vertex 0.007284318285309505 0.02047183226962183 0.02
  endloop
endfacet
facet normal 0.999389 0.034938 -2.5271e-17
  outer loop
    vertex 0.007482554010850484 0.01480136669837728 0.01069050373842768
    vertex 0.007748119239860411 0.007204963558070647 0.007577017989503036
    vertex 0.007642159142654753 0.01023591613481091 0
  endloop
endfacet
facet normal 0.999389 0.034938 3.07168e-17
  outer loop
    vertex 0.00673414114363587 0.03620946246434251 0.009085135694973585
    vertex 0.006463106461839925 0.0439623174431461 0.01240662919952038
    vertex 0.006568636570619009 0.04094366453924364 0.02
  endloop
endfacet
facet normal 0.999389 0.034938 -5.18818e-17
  outer loop
    vertex 0.006926477427964256 0.03070774840443273 0
    vertex 0.00710638109683898 0.02556166508513815 0.009962606572233546
    vertex 0.007284318285309505 0.02047183226962182 0
  endloop
endfacet
facet normal 0.999389 0.034938 -9.585e-17
  outer loop
    vertex 0.00673414114363587 0.03620946246434251 0.009085135694973585
    vertex 0.00710638109683898 0.02556166508513815 0.009962606572233546
    vertex 0.006926477427964256 0.03070774840443273 0
  endloop
endfacet
facet normal 0.999389 0.034938 6.6626e-18
  outer loop
    vertex 0.007642159142654753 0.01023591613481089 0.02
    vertex 0.007482554010850484 0.01480136669837728 0.01069050373842768
    vertex 0.007284318285309505 0.02047183226962183 0.02
  endloop
endfacet
facet normal 0.999389 0.034938 -7.50984e-17
  outer loop
    vertex 0.006568636570619008 0.04094366453924367 0
    vertex 0.00673414114363587 0.03620946246434251 0.009085135694973585
    vertex 0.006926477427964256 0.03070774840443273 0
  endloop
endfacet
facet normal 0.999389 0.034938 -0
  outer loop
    vertex 0.008 0 0
    vertex 0.007748119239860411 0.007204963558070647 0.007577017989503036
    vertex 0.008 0 0.01000000000000003
  endloop
endfacet
facet normal 0.999389 0.034938 0
  outer loop
    vertex 0.006210795713273761 0.05117958067405456 0.02
    vertex 0.006463106461839925 0.0439623174431461 0.01240662919952038
    vertex 0.006210795713273761 0.05117958067405456 0.009999999999999972
  endloop
endfacet
facet normal 0.999389 0.034938 -2.72279e-18
  outer loop
    vertex 0.006568636570619009 0.04094366453924364 0.02
    vertex 0.006463106461839925 0.0439623174431461 0.01240662919952038
    vertex 0.006210795713273761 0.05117958067405456 0.02
  endloop
endfacet
facet normal 0.999389 0.034938 -4.093e-17
  outer loop
    vertex 0.007642159142654753 0.01023591613481091 0
    vertex 0.007748119239860411 0.007204963558070647 0.007577017989503036
    vertex 0.008 0 0
  endloop
endfacet
facet normal 0.999389 0.034938 -6.2822e-17
  outer loop
    vertex 0.006568636570619008 0.04094366453924367 0
    vertex 0.006423843983790728 0.04508540728687709 0.005927394984927703
    vertex 0.00673414114363587 0.03620946246434251 0.009085135694973585
  endloop
endfacet
facet normal 0.999389 0.034938 -2.40427e-17
  outer loop
    vertex 0.007642159142654753 0.01023591613481089 0.02
    vertex 0.0077878559337172 0.006068308932295676 0.0140382173897044
    vertex 0.007482554010850484 0.01480136669837728 0.01069050373842768
  endloop
endfacet
facet normal 0.999389 0.034938 7.8435e-17
  outer loop
    vertex 0.00673414114363587 0.03620946246434251 0.009085135694973585
    vertex 0.006423843983790728 0.04508540728687709 0.005927394984927703
    vertex 0.006463106461839925 0.0439623174431461 0.01240662919952038
  endloop
endfacet
facet normal 0.999389 0.034938 1.1261e-16
  outer loop
    vertex 0.007482554010850484 0.01480136669837728 0.01069050373842768
    vertex 0.0077878559337172 0.006068308932295676 0.0140382173897044
    vertex 0.007748119239860411 0.007204963558070647 0.007577017989503036
  endloop
endfacet
facet normal 0.999389 0.034938 -6.93589e-17
  outer loop
    vertex 0.008 0 0.02
    vertex 0.0077878559337172 0.006068308932295676 0.0140382173897044
    vertex 0.007642159142654753 0.01023591613481089 0.02
  endloop
endfacet
facet normal 0.999389 0.034938 -5.5809e-17
  outer loop
    vertex 0.006210795713273761 0.05117958067405456 0
    vertex 0.006423843983790728 0.04508540728687709 0.005927394984927703
    vertex 0.006568636570619008 0.04094366453924367 0
  endloop
endfacet
facet normal 0.999389 0.034938 0
  outer loop
    vertex 0.006210795713273761 0.05117958067405456 0.009999999999999972
    vertex 0.006423843983790728 0.04508540728687709 0.005927394984927703
    vertex 0.006210795713273761 0.05117958067405456 0
  endloop
endfacet
facet normal 0.999389 0.034938 -0
  outer loop
    vertex 0.008 0 0.01000000000000003
    vertex 0.0077878559337172 0.006068308932295676 0.0140382173897044
    vertex 0.008 0 0.02
  endloop
endfacet
facet normal 0.999389 0.034938 6.60448e-17
  outer loop
    vertex 0.006463106461839925 0.0439623174431461 0.01240662919952038
    vertex 0.006423843983790728 0.04508540728687709 0.005927394984927703
    vertex 0.006210795713273761 0.05117958067405456 0.009999999999999972
  endloop
endfacet
facet normal 0.999389 0.034938 1.11133e-16
  outer loop
    vertex 0.007748119239860411 0.007204963558070647 0.007577017989503036
    vertex 0.0077878559337172 0.006068308932295676 0.0140382173897044
    vertex 0.008 0 0.01000000000000003
  endloop
endfacet
endsolid Created by Gmsh
