solid Created by Gmsh
facet normal 1 0 0
  outer loop
    vertex 0.04 0.05819518457648508 0
    vertex 0.04 0.06 0
    vertex 0.04 0.06 0.009999999999999972
  endloop
endfacet
facet normal 1 0 0
  outer loop
    vertex 0.04 0.05819518457648508 0.01000000000000003
    vertex 0.04 0.06 0.02
    vertex 0.04 0.05819518457648508 0.02
  endloop
endfacet
facet normal 1 0 -0
  outer loop
    vertex 0.04 0.06 0.009999999999999972
    vertex 0.04 0.06 0.02
    vertex 0.04 0.05819518457648508 0.01000000000000003
  endloop
endfacet
facet normal 1 0 0
  outer loop
    vertex 0.04 0.05819518457648508 0
    vertex 0.04 0.06 0.009999999999999972
    vertex 0.04 0.05819518457648508 0.01000000000000003
  endloop
endfacet
facet normal 0.839393 0.543526 -0
  outer loop
    vertex 0.04471033533602338 0.05092078650442444 0
    vertex 0.04235516766801169 0.05455798554045475 0.004999999999999999
    vertex 0.04471033533602338 0.05092078650442444 0.01000000000000003
  endloop
endfacet
facet normal 0.839393 0.543526 0
  outer loop
    vertex 0.04 0.05819518457648508 0.02
    vertex 0.04235516766801169 0.05455798554045475 0.015
    vertex 0.04 0.05819518457648508 0.009999999999999972
  endloop
endfacet
facet normal 0.839393 0.543526 0
  outer loop
    vertex 0.04 0.05819518457648508 0.009999999999999972
    vertex 0.04235516766801169 0.05455798554045475 0.004999999999999999
    vertex 0.04 0.05819518457648508 0
  endloop
endfacet
facet normal 0.839393 0.543526 -0
  outer loop
    vertex 0.04471033533602338 0.05092078650442444 0.01000000000000003
    vertex 0.04235516766801169 0.05455798554045475 0.015
    vertex 0.04471033533602338 0.05092078650442444 0.02
  endloop
endfacet
facet normal 0.839393 0.543526 1.32925e-15
  outer loop
    vertex 0.04 0.05819518457648508 0.009999999999999972
    vertex 0.04235516766801169 0.05455798554045475 0.015
    vertex 0.04471033533602338 0.05092078650442444 0.01000000000000003
  endloop
endfacet
facet normal 0.839393 0.543526 -1.32925e-15
  outer loop
    vertex 0.04471033533602338 0.05092078650442444 0.01000000000000003
    vertex 0.04235516766801169 0.05455798554045475 0.004999999999999999
    vertex 0.04 0.05819518457648508 0.009999999999999972
  endloop
endfacet
facet normal 0.839393 0.543526 1.32925e-15
  outer loop
    vertex 0.04 0.05819518457648508 0
    vertex 0.04235516766801169 0.05455798554045475 0.004999999999999999
    vertex 0.04471033533602338 0.05092078650442444 0
  endloop
endfacet
facet normal 0.839393 0.543526 -1.32925e-15
  outer loop
    vertex 0.04471033533602338 0.05092078650442444 0.02
    vertex 0.04235516766801169 0.05455798554045475 0.015
    vertex 0.04 0.05819518457648508 0.02
  endloop
endfacet
facet normal 0.659836 -0.751409 0
  outer loop
    vertex 0.03642638547065331 0.04364638843236381 0.02
    vertex 0.04056836040333835 0.04728358746839412 0.01450648773478912
    vertex 0.04471033533602338 0.05092078650442444 0.02
  endloop
endfacet
facet normal 0.659836 -0.751409 -2.22675e-16
  outer loop
    vertex 0.04471033533602338 0.05092078650442444 0
    vertex 0.04056836040333833 0.04728358746839411 0.005520616409829249
    vertex 0.03642638547065331 0.04364638843236381 0
  endloop
endfacet
facet normal 0.659836 -0.751409 0
  outer loop
    vertex 0.04471033533602338 0.05092078650442444 0.02
    vertex 0.04056836040333835 0.04728358746839412 0.01450648773478912
    vertex 0.04471033533602338 0.05092078650442444 0.009999999999999972
  endloop
endfacet
facet normal 0.659836 -0.751409 0
  outer loop
    vertex 0.03642638547065331 0.04364638843236381 0
    vertex 0.04056836040333833 0.04728358746839411 0.005520616409829249
    vertex 0.03642638547065331 0.04364638843236381 0.01000000000000003
  endloop
endfacet
facet normal 0.659836 -0.751409 1.41426e-16
  outer loop
    vertex 0.04056836040333833 0.04728358746839411 0.005520616409829249
    vertex 0.04056836040333835 0.04728358746839412 0.01450648773478912
    vertex 0.03642638547065331 0.04364638843236381 0.01000000000000003
  endloop
endfacet
facet normal 0.659836 -0.751409 0
  outer loop
    vertex 0.04471033533602338 0.05092078650442444 0.009999999999999972
    vertex 0.04056836040333833 0.04728358746839411 0.005520616409829249
    vertex 0.04471033533602338 0.05092078650442444 0
  endloop
endfacet
facet normal 0.659836 -0.751409 1.36804e-16
  outer loop
    vertex 0.04471033533602338 0.05092078650442444 0.009999999999999972
    vertex 0.04056836040333835 0.04728358746839412 0.01450648773478912
    vertex 0.04056836040333833 0.04728358746839411 0.005520616409829249
  endloop
endfacet
facet normal 0.659836 -0.751409 0
  outer loop
    vertex 0.03642638547065331 0.04364638843236381 0.01000000000000003
    vertex 0.04056836040333835 0.04728358746839412 0.01450648773478912
    vertex 0.03642638547065331 0.04364638843236381 0.02
  endloop
endfacet
facet normal 0.873137 -0.487475 0
  outer loop
    vertex 0.03642638547065331 0.04364638843236381 0.02
    vertex 0.03439572889695219 0.04000918939633349 0.015
    vertex 0.03642638547065331 0.04364638843236381 0.009999999999999972
  endloop
endfacet
facet normal 0.873137 -0.487475 0
  outer loop
    vertex 0.03236507232325107 0.03637199036030318 0
    vertex 0.03439572889695219 0.04000918939633349 0.005
    vertex 0.03236507232325107 0.03637199036030318 0.01000000000000003
  endloop
endfacet
facet normal 0.873137 -0.487475 0
  outer loop
    vertex 0.03642638547065331 0.04364638843236381 0.009999999999999972
    vertex 0.03439572889695219 0.04000918939633349 0.005
    vertex 0.03642638547065331 0.04364638843236381 0
  endloop
endfacet
facet normal 0.873137 -0.487475 0
  outer loop
    vertex 0.03236507232325107 0.03637199036030318 0.01000000000000003
    vertex 0.03439572889695219 0.04000918939633349 0.015
    vertex 0.03236507232325107 0.03637199036030318 0.02
  endloop
endfacet
facet normal 0.873137 -0.487475 -1.54536e-15
  outer loop
    vertex 0.03236507232325107 0.03637199036030318 0.02
    vertex 0.03439572889695219 0.04000918939633349 0.015
    vertex 0.03642638547065331 0.04364638843236381 0.02
  endloop
endfacet
facet normal 0.873137 -0.487475 -1.54536e-15
  outer loop
    vertex 0.03236507232325107 0.03637199036030318 0.01000000000000003
    vertex 0.03439572889695219 0.04000918939633349 0.005
    vertex 0.03642638547065331 0.04364638843236381 0.009999999999999972
  endloop
endfacet
facet normal 0.873137 -0.487475 1.54536e-15
  outer loop
    vertex 0.03642638547065331 0.04364638843236381 0
    vertex 0.03439572889695219 0.04000918939633349 0.005
    vertex 0.03236507232325107 0.03637199036030318 0
  endloop
endfacet
facet normal 0.873137 -0.487475 1.54536e-15
  outer loop
    vertex 0.03642638547065331 0.04364638843236381 0.009999999999999972
    vertex 0.03439572889695219 0.04000918939633349 0.015
    vertex 0.03236507232325107 0.03637199036030318 0.01000000000000003
  endloop
endfacet
facet normal 0.737528 -0.675317 0
  outer loop
    vertex 0.02570426938655963 0.02909759228824254 0
    vertex 0.02903467085490535 0.03273479132427286 0.005000000000000001
    vertex 0.02570426938655963 0.02909759228824254 0.01000000000000003
  endloop
endfacet
facet normal 0.737528 -0.675317 0
  outer loop
    vertex 0.03236507232325107 0.03637199036030318 0.02
    vertex 0.02903467085490535 0.03273479132427286 0.015
    vertex 0.03236507232325107 0.03637199036030318 0.009999999999999972
  endloop
endfacet
facet normal 0.737528 -0.675317 0
  outer loop
    vertex 0.03236507232325107 0.03637199036030318 0.009999999999999972
    vertex 0.02903467085490535 0.03273479132427286 0.005000000000000001
    vertex 0.03236507232325107 0.03637199036030318 0
  endloop
endfacet
facet normal 0.737528 -0.675317 0
  outer loop
    vertex 0.02570426938655963 0.02909759228824254 0.01000000000000003
    vertex 0.02903467085490535 0.03273479132427286 0.015
    vertex 0.02570426938655963 0.02909759228824254 0.02
  endloop
endfacet
facet normal 0.737528 -0.675317 -4.80916e-16
  outer loop
    vertex 0.02570426938655963 0.02909759228824254 0.01000000000000003
    vertex 0.02903467085490535 0.03273479132427286 0.005000000000000001
    vertex 0.03236507232325107 0.03637199036030318 0.009999999999999972
  endloop
endfacet
facet normal 0.737528 -0.675317 5.49619e-16
  outer loop
    vertex 0.03236507232325107 0.03637199036030318 0
    vertex 0.02903467085490535 0.03273479132427286 0.005000000000000001
    vertex 0.02570426938655963 0.02909759228824254 0
  endloop
endfacet
facet normal 0.737528 -0.675317 -4.80916e-16
  outer loop
    vertex 0.02570426938655963 0.02909759228824254 0.02
    vertex 0.02903467085490535 0.03273479132427286 0.015
    vertex 0.03236507232325107 0.03637199036030318 0.02
  endloop
endfacet
facet normal 0.737528 -0.675317 5.49619e-16
  outer loop
    vertex 0.03236507232325107 0.03637199036030318 0.009999999999999972
    vertex 0.02903467085490535 0.03273479132427286 0.015
    vertex 0.02570426938655963 0.02909759228824254 0.01000000000000003
  endloop
endfacet
facet normal 0.388447 0.921471 6.61852e-16
  outer loop
    vertex 0.02570426938655963 0.02909759228824254 0
    vertex 0.0326302557015614 0.02617793268645409 0.007654077824025884
    vertex 0.03433239532735515 0.02546039325221222 0
  endloop
endfacet
facet normal 0.388447 0.921471 0
  outer loop
    vertex 0.02570426938655963 0.02909759228824254 0.009999999999999972
    vertex 0.0326302557015614 0.02617793268645409 0.007654077824025884
    vertex 0.02570426938655963 0.02909759228824254 0
  endloop
endfacet
facet normal 0.388447 0.921471 -0
  outer loop
    vertex 0.04296052126815068 0.0218231942161819 0.01000000000000003
    vertex 0.03666067543207491 0.02447890338864232 0.01308970957798523
    vertex 0.04296052126815068 0.0218231942161819 0.02
  endloop
endfacet
facet normal 0.388447 0.921471 -9.42544e-16
  outer loop
    vertex 0.04296052126815068 0.0218231942161819 0.02
    vertex 0.03666067543207491 0.02447890338864232 0.01308970957798523
    vertex 0.03433239532735516 0.02546039325221222 0.02
  endloop
endfacet
facet normal 0.388447 0.921471 0
  outer loop
    vertex 0.02570426938655963 0.02909759228824254 0.02
    vertex 0.03092004847241464 0.02689887303062008 0.01420699312347213
    vertex 0.02570426938655963 0.02909759228824254 0.009999999999999972
  endloop
endfacet
facet normal 0.388447 0.921471 -0
  outer loop
    vertex 0.04296052126815068 0.0218231942161819 0
    vertex 0.03864645829775291 0.02364179373419706 0.005000000000000014
    vertex 0.04296052126815068 0.0218231942161819 0.01000000000000003
  endloop
endfacet
facet normal 0.388447 0.921471 1.51976e-15
  outer loop
    vertex 0.03433239532735515 0.02546039325221222 0
    vertex 0.03864645829775291 0.02364179373419706 0.005000000000000014
    vertex 0.04296052126815068 0.0218231942161819 0
  endloop
endfacet
facet normal 0.388447 0.921471 -1.62403e-15
  outer loop
    vertex 0.03433239532735516 0.02546039325221222 0.02
    vertex 0.03092004847241464 0.02689887303062008 0.01420699312347213
    vertex 0.02570426938655963 0.02909759228824254 0.02
  endloop
endfacet
facet normal 0.388447 0.921471 -6.61625e-16
  outer loop
    vertex 0.04296052126815068 0.0218231942161819 0.01000000000000003
    vertex 0.03864645829775291 0.02364179373419706 0.005000000000000014
    vertex 0.03666067543207491 0.02447890338864232 0.01308970957798523
  endloop
endfacet
facet normal 0.388447 0.921471 -3.0574e-16
  outer loop
    vertex 0.03666067543207491 0.02447890338864232 0.01308970957798523
    vertex 0.03864645829775291 0.02364179373419706 0.005000000000000014
    vertex 0.0326302557015614 0.02617793268645409 0.007654077824025884
  endloop
endfacet
facet normal 0.388447 0.921471 6.22551e-16
  outer loop
    vertex 0.03092004847241464 0.02689887303062008 0.01420699312347213
    vertex 0.0326302557015614 0.02617793268645409 0.007654077824025884
    vertex 0.02570426938655963 0.02909759228824254 0.009999999999999972
  endloop
endfacet
facet normal 0.388447 0.921471 8.08126e-16
  outer loop
    vertex 0.0326302557015614 0.02617793268645409 0.007654077824025884
    vertex 0.03864645829775291 0.02364179373419706 0.005000000000000014
    vertex 0.03433239532735515 0.02546039325221222 0
  endloop
endfacet
facet normal 0.388447 0.921471 2.18589e-16
  outer loop
    vertex 0.03092004847241464 0.02689887303062008 0.01420699312347213
    vertex 0.03666067543207491 0.02447890338864232 0.01308970957798523
    vertex 0.0326302557015614 0.02617793268645409 0.007654077824025884
  endloop
endfacet
facet normal 0.388447 0.921471 -1.25285e-15
  outer loop
    vertex 0.03433239532735516 0.02546039325221222 0.02
    vertex 0.03666067543207491 0.02447890338864232 0.01308970957798523
    vertex 0.03092004847241464 0.02689887303062008 0.01420699312347213
  endloop
endfacet
facet normal 0.419285 -0.907855 -2.56292e-16
  outer loop
    vertex 0.02720965489086382 0.01454879614412127 0.02
    vertex 0.03381853937433408 0.01760105088322272 0.01238030014478994
    vertex 0.03508508807950725 0.01818599518015158 0.02
  endloop
endfacet
facet normal 0.419285 -0.907855 0
  outer loop
    vertex 0.02720965489086382 0.01454879614412127 0.01000000000000003
    vertex 0.03381853937433408 0.01760105088322272 0.01238030014478994
    vertex 0.02720965489086382 0.01454879614412127 0.02
  endloop
endfacet
facet normal 0.419285 -0.907855 0
  outer loop
    vertex 0.04296052126815068 0.0218231942161819 0.009999999999999972
    vertex 0.03756679637569117 0.01933215016697885 0.006391251067471501
    vertex 0.04296052126815068 0.0218231942161819 0
  endloop
endfacet
facet normal 0.419285 -0.907855 0
  outer loop
    vertex 0.04296052126815068 0.0218231942161819 0.02
    vertex 0.03888106388856705 0.01993913297242139 0.01497730980945291
    vertex 0.04296052126815068 0.0218231942161819 0.009999999999999972
  endloop
endfacet
facet normal 0.419285 -0.907855 0
  outer loop
    vertex 0.02720965489086382 0.01454879614412127 0
    vertex 0.03223173684623169 0.01686820019585899 0.005716379375335523
    vertex 0.02720965489086382 0.01454879614412127 0.01000000000000003
  endloop
endfacet
facet normal 0.419285 -0.907855 -6.11106e-17
  outer loop
    vertex 0.04296052126815068 0.0218231942161819 0
    vertex 0.03756679637569117 0.01933215016697885 0.006391251067471501
    vertex 0.03508508807950726 0.01818599518015159 0
  endloop
endfacet
facet normal 0.419285 -0.907855 0
  outer loop
    vertex 0.03756679637569117 0.01933215016697885 0.006391251067471501
    vertex 0.03888106388856705 0.01993913297242139 0.01497730980945291
    vertex 0.03381853937433408 0.01760105088322272 0.01238030014478994
  endloop
endfacet
facet normal 0.419285 -0.907855 -3.11047e-16
  outer loop
    vertex 0.03508508807950725 0.01818599518015158 0.02
    vertex 0.03888106388856705 0.01993913297242139 0.01497730980945291
    vertex 0.04296052126815068 0.0218231942161819 0.02
  endloop
endfacet
facet normal 0.419285 -0.907855 6.83252e-17
  outer loop
    vertex 0.03508508807950726 0.01818599518015159 0
    vertex 0.03223173684623169 0.01686820019585899 0.005716379375335523
    vertex 0.02720965489086382 0.01454879614412127 0
  endloop
endfacet
facet normal 0.419285 -0.907855 3.69988e-17
  outer loop
    vertex 0.04296052126815068 0.0218231942161819 0.009999999999999972
    vertex 0.03888106388856705 0.01993913297242139 0.01497730980945291
    vertex 0.03756679637569117 0.01933215016697885 0.006391251067471501
  endloop
endfacet
facet normal 0.419285 -0.907855 -4.46026e-17
  outer loop
    vertex 0.03223173684623169 0.01686820019585899 0.005716379375335523
    vertex 0.03756679637569117 0.01933215016697885 0.006391251067471501
    vertex 0.03381853937433408 0.01760105088322272 0.01238030014478994
  endloop
endfacet
facet normal 0.419285 -0.907855 -1.14591e-16
  outer loop
    vertex 0.03223173684623169 0.01686820019585899 0.005716379375335523
    vertex 0.03381853937433408 0.01760105088322272 0.01238030014478994
    vertex 0.02720965489086382 0.01454879614412127 0.01000000000000003
  endloop
endfacet
facet normal 0.419285 -0.907855 -3.48689e-16
  outer loop
    vertex 0.03381853937433408 0.01760105088322272 0.01238030014478994
    vertex 0.03888106388856705 0.01993913297242139 0.01497730980945291
    vertex 0.03508508807950725 0.01818599518015158 0.02
  endloop
endfacet
facet normal 0.419285 -0.907855 -1.06728e-16
  outer loop
    vertex 0.03508508807950726 0.01818599518015159 0
    vertex 0.03756679637569117 0.01933215016697885 0.006391251067471501
    vertex 0.03223173684623169 0.01686820019585899 0.005716379375335523
  endloop
endfacet
facet normal 0.693776 0.720191 0
  outer loop
    vertex 0.02720965489086382 0.01454879614412127 0
    vertex 0.03098534068867165 0.01091159710809095 0.004999999999999986
    vertex 0.03476102648647948 0.007274398072060637 0
  endloop
endfacet
facet normal 0.693776 0.720191 0
  outer loop
    vertex 0.03476102648647948 0.007274398072060637 0.02
    vertex 0.03098534068867165 0.01091159710809095 0.01500000000000001
    vertex 0.02720965489086382 0.01454879614412127 0.02
  endloop
endfacet
facet normal 0.693776 0.720191 0
  outer loop
    vertex 0.02720965489086382 0.01454879614412127 0.009999999999999972
    vertex 0.03098534068867165 0.01091159710809095 0.01500000000000001
    vertex 0.03098534068867165 0.01091159710809095 0.004999999999999986
  endloop
endfacet
facet normal 0.693776 0.720191 -0
  outer loop
    vertex 0.03098534068867165 0.01091159710809095 0.004999999999999986
    vertex 0.03098534068867165 0.01091159710809095 0.01500000000000001
    vertex 0.03476102648647948 0.007274398072060637 0.01000000000000003
  endloop
endfacet
facet normal 0.693776 0.720191 0
  outer loop
    vertex 0.02720965489086382 0.01454879614412127 0.02
    vertex 0.03098534068867165 0.01091159710809095 0.01500000000000001
    vertex 0.02720965489086382 0.01454879614412127 0.009999999999999972
  endloop
endfacet
facet normal 0.693776 0.720191 -0
  outer loop
    vertex 0.03476102648647948 0.007274398072060637 0
    vertex 0.03098534068867165 0.01091159710809095 0.004999999999999986
    vertex 0.03476102648647948 0.007274398072060637 0.01000000000000003
  endloop
endfacet
facet normal 0.693776 0.720191 0
  outer loop
    vertex 0.02720965489086382 0.01454879614412127 0.009999999999999972
    vertex 0.03098534068867165 0.01091159710809095 0.004999999999999986
    vertex 0.02720965489086382 0.01454879614412127 0
  endloop
endfacet
facet normal 0.693776 0.720191 -0
  outer loop
    vertex 0.03476102648647948 0.007274398072060637 0.01000000000000003
    vertex 0.03098534068867165 0.01091159710809095 0.01500000000000001
    vertex 0.03476102648647948 0.007274398072060637 0.02
  endloop
endfacet
endsolid Created by Gmsh
