solid Created by Gmsh
facet normal -0.39878 0.917047 -3.4003e-16
  outer loop
    vertex 0.03052231241694218 0.04651075310783554 0.02
    vertex 0.03765281944162779 0.04961146998169124 0.02
    vertex 0.03048850955866234 0.04649605385956469 0.01200573219451131
  endloop
endfacet
facet normal -0.39878 0.917047 -3.27042e-16
  outer loop
    vertex 0.02339180539225657 0.04341003623397983 0.02
    vertex 0.03052231241694218 0.04651075310783554 0.02
    vertex 0.03048850955866234 0.04649605385956469 0.01200573219451131
  endloop
endfacet
facet normal -0.39878 0.917047 0
  outer loop
    vertex 0.03765281944162779 0.04961146998169124 0.02
    vertex 0.03765281944162779 0.04961146998169124 0.009999999999999972
    vertex 0.03048850955866234 0.04649605385956469 0.01200573219451131
  endloop
endfacet
facet normal -0.39878 0.917047 0
  outer loop
    vertex 0.02339180539225657 0.04341003623397983 0.01000000000000003
    vertex 0.02339180539225657 0.04341003623397983 0.02
    vertex 0.03048850955866234 0.04649605385956469 0.01200573219451131
  endloop
endfacet
facet normal -0.39878 0.917047 0
  outer loop
    vertex 0.02339180539225657 0.04341003623397983 0
    vertex 0.02339180539225657 0.04341003623397983 0.01000000000000003
    vertex 0.02813495790813706 0.0454726066781777 0.005603309908911979
  endloop
endfacet
facet normal -0.39878 0.917047 0
  outer loop
    vertex 0.03765281944162779 0.04961146998169124 0.009999999999999972
    vertex 0.03765281944162779 0.04961146998169124 0
    vertex 0.03289028375339943 0.04754047072179209 0.005521808420684653
  endloop
endfacet
facet normal -0.39878 0.917047 -1.06533e-15
  outer loop
    vertex 0.03765281944162779 0.04961146998169124 0
    vertex 0.03052231241694218 0.04651075310783553 0
    vertex 0.03289028375339943 0.04754047072179209 0.005521808420684653
  endloop
endfacet
facet normal -0.39878 0.917047 -1.16648e-15
  outer loop
    vertex 0.03052231241694218 0.04651075310783553 0
    vertex 0.02339180539225657 0.04341003623397983 0
    vertex 0.02813495790813706 0.0454726066781777 0.005603309908911979
  endloop
endfacet
facet normal -0.39878 0.917047 8.96664e-16
  outer loop
    vertex 0.02813495790813706 0.0454726066781777 0.005603309908911979
    vertex 0.02339180539225657 0.04341003623397983 0.01000000000000003
    vertex 0.03048850955866234 0.04649605385956469 0.01200573219451131
  endloop
endfacet
facet normal -0.39878 0.917047 7.60608e-16
  outer loop
    vertex 0.02813495790813706 0.0454726066781777 0.005603309908911979
    vertex 0.03048850955866234 0.04649605385956469 0.01200573219451131
    vertex 0.03289028375339943 0.04754047072179209 0.005521808420684653
  endloop
endfacet
facet normal -0.39878 0.917047 7.46256e-16
  outer loop
    vertex 0.03048850955866234 0.04649605385956469 0.01200573219451131
    vertex 0.03765281944162779 0.04961146998169124 0.009999999999999972
    vertex 0.03289028375339943 0.04754047072179209 0.005521808420684653
  endloop
endfacet
facet normal -0.39878 0.917047 -1.27744e-15
  outer loop
    vertex 0.03052231241694218 0.04651075310783553 0
    vertex 0.02813495790813706 0.0454726066781777 0.005603309908911979
    vertex 0.03289028375339943 0.04754047072179209 0.005521808420684653
  endloop
endfacet
facet normal -0.995773 -0.0918529 9.72466e-16
  outer loop
    vertex 0.02396384323405273 0.03720860248626843 0.01000000000000003
    vertex 0.02339180539225657 0.04341003623397983 0.009999999999999972
    vertex 0.02367782431315464 0.04030931936012414 0.004999999999999996
  endloop
endfacet
facet normal -0.995773 -0.0918529 -1.10167e-15
  outer loop
    vertex 0.02339180539225657 0.04341003623397983 0.009999999999999972
    vertex 0.02396384323405273 0.03720860248626843 0.01000000000000003
    vertex 0.02367782431315464 0.04030931936012413 0.015
  endloop
endfacet
facet normal -0.995773 -0.0918529 1.10167e-15
  outer loop
    vertex 0.02396384323405273 0.03720860248626843 0.02
    vertex 0.02339180539225657 0.04341003623397983 0.02
    vertex 0.02367782431315464 0.04030931936012413 0.015
  endloop
endfacet
facet normal -0.995773 -0.0918529 -9.72466e-16
  outer loop
    vertex 0.02339180539225657 0.04341003623397983 0
    vertex 0.02396384323405273 0.03720860248626843 0
    vertex 0.02367782431315464 0.04030931936012414 0.004999999999999996
  endloop
endfacet
facet normal -0.995773 -0.0918529 -0
  outer loop
    vertex 0.02339180539225657 0.04341003623397983 0.009999999999999972
    vertex 0.02339180539225657 0.04341003623397983 0
    vertex 0.02367782431315464 0.04030931936012414 0.004999999999999996
  endloop
endfacet
facet normal -0.995773 -0.0918529 -0
  outer loop
    vertex 0.02339180539225657 0.04341003623397983 0.02
    vertex 0.02339180539225657 0.04341003623397983 0.009999999999999972
    vertex 0.02367782431315464 0.04030931936012413 0.015
  endloop
endfacet
facet normal -0.995773 -0.0918529 0
  outer loop
    vertex 0.02396384323405273 0.03720860248626843 0
    vertex 0.02396384323405273 0.03720860248626843 0.01000000000000003
    vertex 0.02367782431315464 0.04030931936012414 0.004999999999999996
  endloop
endfacet
facet normal -0.995773 -0.0918529 0
  outer loop
    vertex 0.02396384323405273 0.03720860248626843 0.01000000000000003
    vertex 0.02396384323405273 0.03720860248626843 0.02
    vertex 0.02367782431315464 0.04030931936012413 0.015
  endloop
endfacet
facet normal -0.246882 -0.969046 -1.56189e-15
  outer loop
    vertex 0.04019151501587013 0.03307431332112749 0.02
    vertex 0.03207767912496143 0.03514145790369796 0.02
    vertex 0.03613459707041577 0.03410788561241274 0.01248677898164594
  endloop
endfacet
facet normal -0.246882 -0.969046 -0
  outer loop
    vertex 0.02396384323405273 0.03720860248626843 0.02
    vertex 0.02396384323405273 0.03720860248626843 0.009999999999999972
    vertex 0.02956287884353059 0.0357821481823652 0.0136675366425669
  endloop
endfacet
facet normal -0.246882 -0.969046 0
  outer loop
    vertex 0.0483053509067788 0.03100716873855703 0.01000000000000003
    vertex 0.0483053509067788 0.03100716873855703 0.02
    vertex 0.04270631529730095 0.03243362304246027 0.01366753664256692
  endloop
endfacet
facet normal -0.246882 -0.969046 0
  outer loop
    vertex 0.0483053509067788 0.03100716873855703 0
    vertex 0.0483053509067788 0.03100716873855703 0.01000000000000003
    vertex 0.04196295437792669 0.03262300751092122 0.006862776014956419
  endloop
endfacet
facet normal -0.246882 -0.969046 -0
  outer loop
    vertex 0.02396384323405273 0.03720860248626843 0.009999999999999972
    vertex 0.02396384323405273 0.03720860248626843 0
    vertex 0.03030623976290483 0.03559276371390425 0.006862776014956407
  endloop
endfacet
facet normal -0.246882 -0.969046 -4.41819e-16
  outer loop
    vertex 0.03613459707041576 0.03410788561241274 0.005022340465525626
    vertex 0.03613459707041577 0.03410788561241274 0.01248677898164594
    vertex 0.03030623976290483 0.03559276371390425 0.006862776014956407
  endloop
endfacet
facet normal -0.246882 -0.969046 -4.41819e-16
  outer loop
    vertex 0.03613459707041577 0.03410788561241274 0.01248677898164594
    vertex 0.03613459707041576 0.03410788561241274 0.005022340465525626
    vertex 0.04196295437792669 0.03262300751092122 0.006862776014956419
  endloop
endfacet
facet normal -0.246882 -0.969046 -1.83715e-15
  outer loop
    vertex 0.03207767912496143 0.03514145790369796 0.02
    vertex 0.02396384323405273 0.03720860248626843 0.02
    vertex 0.02956287884353059 0.0357821481823652 0.0136675366425669
  endloop
endfacet
facet normal -0.246882 -0.969046 -1.40582e-15
  outer loop
    vertex 0.0483053509067788 0.03100716873855703 0.02
    vertex 0.04019151501587013 0.03307431332112749 0.02
    vertex 0.04270631529730095 0.03243362304246027 0.01366753664256692
  endloop
endfacet
facet normal -0.246882 -0.969046 1.40037e-15
  outer loop
    vertex 0.04019151501587009 0.0330743133211275 0
    vertex 0.0483053509067788 0.03100716873855703 0
    vertex 0.04196295437792669 0.03262300751092122 0.006862776014956419
  endloop
endfacet
facet normal -0.246882 -0.969046 1.7394e-15
  outer loop
    vertex 0.02396384323405273 0.03720860248626843 0
    vertex 0.0320776791249614 0.03514145790369796 0
    vertex 0.03030623976290483 0.03559276371390425 0.006862776014956407
  endloop
endfacet
facet normal -0.246882 -0.969046 1.49779e-16
  outer loop
    vertex 0.03613459707041577 0.03410788561241274 0.01248677898164594
    vertex 0.02956287884353059 0.0357821481823652 0.0136675366425669
    vertex 0.03030623976290483 0.03559276371390425 0.006862776014956407
  endloop
endfacet
facet normal -0.246882 -0.969046 -6.03798e-16
  outer loop
    vertex 0.04270631529730095 0.03243362304246027 0.01366753664256692
    vertex 0.03613459707041577 0.03410788561241274 0.01248677898164594
    vertex 0.04196295437792669 0.03262300751092122 0.006862776014956419
  endloop
endfacet
facet normal -0.246882 -0.969046 2.69909e-15
  outer loop
    vertex 0.0320776791249614 0.03514145790369796 0
    vertex 0.04019151501587009 0.0330743133211275 0
    vertex 0.03613459707041576 0.03410788561241274 0.005022340465525626
  endloop
endfacet
facet normal -0.246882 -0.969046 -1.6201e-15
  outer loop
    vertex 0.03613459707041577 0.03410788561241274 0.01248677898164594
    vertex 0.03207767912496143 0.03514145790369796 0.02
    vertex 0.02956287884353059 0.0357821481823652 0.0136675366425669
  endloop
endfacet
facet normal -0.246882 -0.969046 -1.59249e-15
  outer loop
    vertex 0.04019151501587013 0.03307431332112749 0.02
    vertex 0.03613459707041577 0.03410788561241274 0.01248677898164594
    vertex 0.04270631529730095 0.03243362304246027 0.01366753664256692
  endloop
endfacet
facet normal -0.246882 -0.969046 1.56394e-15
  outer loop
    vertex 0.03613459707041576 0.03410788561241274 0.005022340465525626
    vertex 0.04019151501587009 0.0330743133211275 0
    vertex 0.04196295437792669 0.03262300751092122 0.006862776014956419
  endloop
endfacet
facet normal -0.246882 -0.969046 2.0834e-15
  outer loop
    vertex 0.0320776791249614 0.03514145790369796 0
    vertex 0.03613459707041576 0.03410788561241274 0.005022340465525626
    vertex 0.03030623976290483 0.03559276371390425 0.006862776014956407
  endloop
endfacet
facet normal -0.246882 -0.969046 -4.82519e-16
  outer loop
    vertex 0.0483053509067788 0.03100716873855703 0.01000000000000003
    vertex 0.04270631529730095 0.03243362304246027 0.01366753664256692
    vertex 0.04196295437792669 0.03262300751092122 0.006862776014956419
  endloop
endfacet
facet normal -0.246882 -0.969046 3.81994e-16
  outer loop
    vertex 0.02956287884353059 0.0357821481823652 0.0136675366425669
    vertex 0.02396384323405273 0.03720860248626843 0.009999999999999972
    vertex 0.03030623976290483 0.03559276371390425 0.006862776014956407
  endloop
endfacet
facet normal -0.515392 0.856955 2.80628e-16
  outer loop
    vertex 0.0483053509067788 0.03100716873855703 0
    vertex 0.03799406977798133 0.02480573499084562 0
    vertex 0.04314971034238007 0.02790645186470132 0.006020408163265299
  endloop
endfacet
facet normal -0.515392 0.856955 -4.75945e-16
  outer loop
    vertex 0.03799406977798133 0.02480573499084562 0.02
    vertex 0.0483053509067788 0.03100716873855703 0.02
    vertex 0.04314971034238008 0.02790645186470133 0.01408371511870053
  endloop
endfacet
facet normal -0.515392 0.856955 0
  outer loop
    vertex 0.03799406977798133 0.02480573499084562 0
    vertex 0.03799406977798133 0.02480573499084562 0.01000000000000003
    vertex 0.04314971034238007 0.02790645186470132 0.006020408163265299
  endloop
endfacet
facet normal -0.515392 0.856955 0
  outer loop
    vertex 0.0483053509067788 0.03100716873855703 0.02
    vertex 0.0483053509067788 0.03100716873855703 0.009999999999999972
    vertex 0.04314971034238008 0.02790645186470133 0.01408371511870053
  endloop
endfacet
facet normal -0.515392 0.856955 7.47942e-17
  outer loop
    vertex 0.04314971034238007 0.02790645186470132 0.006020408163265299
    vertex 0.03799406977798133 0.02480573499084562 0.01000000000000003
    vertex 0.04314971034238008 0.02790645186470133 0.01408371511870053
  endloop
endfacet
facet normal -0.515392 0.856955 6.98429e-17
  outer loop
    vertex 0.0483053509067788 0.03100716873855703 0.009999999999999972
    vertex 0.04314971034238007 0.02790645186470132 0.006020408163265299
    vertex 0.04314971034238008 0.02790645186470133 0.01408371511870053
  endloop
endfacet
facet normal -0.515392 0.856955 0
  outer loop
    vertex 0.03799406977798133 0.02480573499084562 0.01000000000000003
    vertex 0.03799406977798133 0.02480573499084562 0.02
    vertex 0.04314971034238008 0.02790645186470133 0.01408371511870053
  endloop
endfacet
facet normal -0.515392 0.856955 0
  outer loop
    vertex 0.0483053509067788 0.03100716873855703 0.009999999999999972
    vertex 0.0483053509067788 0.03100716873855703 0
    vertex 0.04314971034238007 0.02790645186470132 0.006020408163265299
  endloop
endfacet
facet normal -0.718152 0.695886 0
  outer loop
    vertex 0.03799406977798133 0.02480573499084562 0.02
    vertex 0.03799406977798133 0.02480573499084562 0.009999999999999972
    vertex 0.03498948844337512 0.02170501811698991 0.015
  endloop
endfacet
facet normal -0.718152 0.695886 0
  outer loop
    vertex 0.0319849071087689 0.01860430124313421 0
    vertex 0.0319849071087689 0.01860430124313421 0.01000000000000003
    vertex 0.03498948844337512 0.02170501811698991 0.005
  endloop
endfacet
facet normal -0.718152 0.695886 0
  outer loop
    vertex 0.03799406977798133 0.02480573499084562 0.009999999999999972
    vertex 0.03799406977798133 0.02480573499084562 0
    vertex 0.03498948844337512 0.02170501811698991 0.005
  endloop
endfacet
facet normal -0.718152 0.695886 0
  outer loop
    vertex 0.0319849071087689 0.01860430124313421 0.01000000000000003
    vertex 0.0319849071087689 0.01860430124313421 0.02
    vertex 0.03498948844337512 0.02170501811698991 0.015
  endloop
endfacet
facet normal -0.718152 0.695886 1.02014e-15
  outer loop
    vertex 0.03799406977798133 0.02480573499084562 0
    vertex 0.0319849071087689 0.01860430124313421 0
    vertex 0.03498948844337512 0.02170501811698991 0.005
  endloop
endfacet
facet normal -0.718152 0.695886 -1.02014e-15
  outer loop
    vertex 0.0319849071087689 0.01860430124313421 0.02
    vertex 0.03799406977798133 0.02480573499084562 0.02
    vertex 0.03498948844337512 0.02170501811698991 0.015
  endloop
endfacet
facet normal -0.718152 0.695886 -1.02014e-15
  outer loop
    vertex 0.0319849071087689 0.01860430124313421 0.01000000000000003
    vertex 0.03799406977798133 0.02480573499084562 0.009999999999999972
    vertex 0.03498948844337512 0.02170501811698991 0.005
  endloop
endfacet
facet normal -0.718152 0.695886 1.02014e-15
  outer loop
    vertex 0.03799406977798133 0.02480573499084562 0.009999999999999972
    vertex 0.0319849071087689 0.01860430124313421 0.01000000000000003
    vertex 0.03498948844337512 0.02170501811698991 0.015
  endloop
endfacet
facet normal -0.999413 -0.0342526 -1.38554e-15
  outer loop
    vertex 0.0319849071087689 0.01860430124313421 0
    vertex 0.03219744676694421 0.01240286749542281 0
    vertex 0.03209117693785655 0.01550358436927851 0.005
  endloop
endfacet
facet normal -0.999413 -0.0342526 -1.38554e-15
  outer loop
    vertex 0.0319849071087689 0.01860430124313421 0.009999999999999972
    vertex 0.03219744676694421 0.01240286749542281 0.01000000000000003
    vertex 0.03209117693785655 0.01550358436927851 0.015
  endloop
endfacet
facet normal -0.999413 -0.0342526 1.38895e-15
  outer loop
    vertex 0.03219744676694421 0.01240286749542281 0.01000000000000003
    vertex 0.0319849071087689 0.01860430124313421 0.009999999999999972
    vertex 0.03209117693785655 0.01550358436927851 0.005
  endloop
endfacet
facet normal -0.999413 -0.0342526 1.38895e-15
  outer loop
    vertex 0.03219744676694421 0.01240286749542281 0.02
    vertex 0.0319849071087689 0.01860430124313421 0.02
    vertex 0.03209117693785655 0.01550358436927851 0.015
  endloop
endfacet
facet normal -0.999413 -0.0342526 -0
  outer loop
    vertex 0.0319849071087689 0.01860430124313421 0.009999999999999972
    vertex 0.0319849071087689 0.01860430124313421 0
    vertex 0.03209117693785655 0.01550358436927851 0.005
  endloop
endfacet
facet normal -0.999413 -0.0342526 -0
  outer loop
    vertex 0.0319849071087689 0.01860430124313421 0.02
    vertex 0.0319849071087689 0.01860430124313421 0.009999999999999972
    vertex 0.03209117693785655 0.01550358436927851 0.015
  endloop
endfacet
facet normal -0.999413 -0.0342526 0
  outer loop
    vertex 0.03219744676694421 0.01240286749542281 0
    vertex 0.03219744676694421 0.01240286749542281 0.01000000000000003
    vertex 0.03209117693785655 0.01550358436927851 0.005
  endloop
endfacet
facet normal -0.999413 -0.0342526 0
  outer loop
    vertex 0.03219744676694421 0.01240286749542281 0.01000000000000003
    vertex 0.03219744676694421 0.01240286749542281 0.02
    vertex 0.03209117693785655 0.01550358436927851 0.015
  endloop
endfacet
facet normal -0.876494 -0.481412 0
  outer loop
    vertex 0.03560356641111637 0.006201433747711406 0.01000000000000003
    vertex 0.03219744676694421 0.01240286749542281 0.009999999999999972
    vertex 0.03390050658903029 0.009302150621567109 0.005
  endloop
endfacet
facet normal -0.876494 -0.481412 0
  outer loop
    vertex 0.03219744676694421 0.01240286749542281 0.009999999999999972
    vertex 0.03560356641111637 0.006201433747711406 0.01000000000000003
    vertex 0.03390050658903029 0.009302150621567109 0.015
  endloop
endfacet
facet normal -0.876494 -0.481412 0
  outer loop
    vertex 0.03219744676694421 0.01240286749542281 0
    vertex 0.03560356641111637 0.006201433747711406 0
    vertex 0.03390050658903029 0.009302150621567109 0.005
  endloop
endfacet
facet normal -0.876494 -0.481412 0
  outer loop
    vertex 0.03560356641111637 0.006201433747711406 0.02
    vertex 0.03219744676694421 0.01240286749542281 0.02
    vertex 0.03390050658903029 0.009302150621567109 0.015
  endloop
endfacet
facet normal -0.876494 -0.481412 -0
  outer loop
    vertex 0.03219744676694421 0.01240286749542281 0.009999999999999972
    vertex 0.03219744676694421 0.01240286749542281 0
    vertex 0.03390050658903029 0.009302150621567109 0.005
  endloop
endfacet
facet normal -0.876494 -0.481412 -0
  outer loop
    vertex 0.03219744676694421 0.01240286749542281 0.02
    vertex 0.03219744676694421 0.01240286749542281 0.009999999999999972
    vertex 0.03390050658903029 0.009302150621567109 0.015
  endloop
endfacet
facet normal -0.876494 -0.481412 0
  outer loop
    vertex 0.03560356641111637 0.006201433747711406 0
    vertex 0.03560356641111637 0.006201433747711406 0.01000000000000003
    vertex 0.03390050658903029 0.009302150621567109 0.005
  endloop
endfacet
facet normal -0.876494 -0.481412 0
  outer loop
    vertex 0.03560356641111637 0.006201433747711406 0.01000000000000003
    vertex 0.03560356641111637 0.006201433747711406 0.02
    vertex 0.03390050658903029 0.009302150621567109 0.015
  endloop
endfacet
endsolid Created by Gmsh
