solid Created by Gmsh
facet normal 0.99834 -0.0575916 3.1264e-18
  outer loop
    vertex 0.01002164256933849 0.03504479096418826 0.02
    vertex 0.01019011278345003 0.03796519021120393 0.008422845590005036
    vertex 0.01069552342578465 0.04672638795225099 0.02
  endloop
endfacet
facet normal 0.99834 -0.0575916 3.1264e-18
  outer loop
    vertex 0.008673880856446162 0.01168159698806274 0
    vertex 0.008505410642334623 0.008761197741047069 0.01157715440999496
    vertex 0.008 0 0
  endloop
endfacet
facet normal 0.99834 -0.0575916 0
  outer loop
    vertex 0.01069552342578465 0.04672638795225099 0.009999999999999972
    vertex 0.01019011278345003 0.03796519021120393 0.008422845590005036
    vertex 0.01069552342578465 0.04672638795225099 0
  endloop
endfacet
facet normal 0.99834 -0.0575916 0
  outer loop
    vertex 0.008 0 0.01000000000000003
    vertex 0.008505410642334623 0.008761197741047069 0.01157715440999496
    vertex 0.008 0 0.02
  endloop
endfacet
facet normal 0.99834 -0.0575916 1.71889e-17
  outer loop
    vertex 0.008 0 0.02
    vertex 0.008505410642334623 0.008761197741047069 0.01157715440999496
    vertex 0.008673880856446164 0.01168159698806277 0.02
  endloop
endfacet
facet normal 0.99834 -0.0575916 1.71889e-17
  outer loop
    vertex 0.01069552342578465 0.04672638795225099 0
    vertex 0.01019011278345003 0.03796519021120393 0.008422845590005036
    vertex 0.01002164256933849 0.03504479096418822 0
  endloop
endfacet
facet normal 0.99834 -0.0575916 4.58481e-17
  outer loop
    vertex 0.009347761712892326 0.02336319397612549 0.02
    vertex 0.009656623772096818 0.02871725926232092 0.009737140931667505
    vertex 0.01002164256933849 0.03504479096418826 0.02
  endloop
endfacet
facet normal 0.99834 -0.0575916 -3.5419e-18
  outer loop
    vertex 0.009347761712892326 0.0233631939761255 0
    vertex 0.00903421992551807 0.01792800648862408 0.01021904922361041
    vertex 0.008673880856446162 0.01168159698806274 0
  endloop
endfacet
facet normal 0.99834 -0.0575916 -6.67787e-17
  outer loop
    vertex 0.009656623772096818 0.02871725926232092 0.009737140931667505
    vertex 0.00903421992551807 0.01792800648862408 0.01021904922361041
    vertex 0.009347761712892326 0.0233631939761255 0
  endloop
endfacet
facet normal 0.99834 -0.0575916 -1.36835e-17
  outer loop
    vertex 0.009347761712892326 0.02336319397612549 0.02
    vertex 0.00903421992551807 0.01792800648862408 0.01021904922361041
    vertex 0.009656623772096818 0.02871725926232092 0.009737140931667505
  endloop
endfacet
facet normal 0.99834 -0.0575916 -2.96044e-17
  outer loop
    vertex 0.008673880856446164 0.01168159698806277 0.02
    vertex 0.00903421992551807 0.01792800648862408 0.01021904922361041
    vertex 0.009347761712892326 0.02336319397612549 0.02
  endloop
endfacet
facet normal 0.99834 -0.0575916 -8.17783e-17
  outer loop
    vertex 0.01002164256933849 0.03504479096418822 0
    vertex 0.009656623772096818 0.02871725926232092 0.009737140931667505
    vertex 0.009347761712892326 0.0233631939761255 0
  endloop
endfacet
facet normal 0.99834 -0.0575916 -4.13876e-18
  outer loop
    vertex 0.00903421992551807 0.01792800648862408 0.01021904922361041
    vertex 0.008505410642334623 0.008761197741047069 0.01157715440999496
    vertex 0.008673880856446162 0.01168159698806274 0
  endloop
endfacet
facet normal 0.99834 -0.0575916 1.22879e-17
  outer loop
    vertex 0.009656623772096818 0.02871725926232092 0.009737140931667505
    vertex 0.01019011278345003 0.03796519021120393 0.008422845590005036
    vertex 0.01002164256933849 0.03504479096418826 0.02
  endloop
endfacet
facet normal 0.99834 -0.0575916 1.29329e-17
  outer loop
    vertex 0.01002164256933849 0.03504479096418822 0
    vertex 0.01019011278345003 0.03796519021120393 0.008422845590005036
    vertex 0.009656623772096818 0.02871725926232092 0.009737140931667505
  endloop
endfacet
facet normal 0.99834 -0.0575916 3.38556e-17
  outer loop
    vertex 0.008673880856446164 0.01168159698806277 0.02
    vertex 0.008505410642334623 0.008761197741047069 0.01157715440999496
    vertex 0.00903421992551807 0.01792800648862408 0.01021904922361041
  endloop
endfacet
facet normal 0.99834 -0.0575916 0
  outer loop
    vertex 0.008 0 0
    vertex 0.008505410642334623 0.008761197741047069 0.01157715440999496
    vertex 0.008 0 0.01000000000000003
  endloop
endfacet
facet normal 0.99834 -0.0575916 0
  outer loop
    vertex 0.01069552342578465 0.04672638795225099 0.02
    vertex 0.01019011278345003 0.03796519021120393 0.008422845590005036
    vertex 0.01069552342578465 0.04672638795225099 0.009999999999999972
  endloop
endfacet
endsolid Created by Gmsh
