solid Created by Gmsh
facet normal 0.999905 -0.013812 -1.05245e-16
  outer loop
    vertex 0.008161165505781848 0.01166742817854436 0
    vertex 0.008120874129336387 0.008750571133908241 0.0115961286344564
    vertex 0.008 0 0
  endloop
endfacet
facet normal 0.999905 -0.013812 0
  outer loop
    vertex 0.008 0 0.01000000000000003
    vertex 0.008120874129336387 0.008750571133908241 0.0115961286344564
    vertex 0.008 0 0.02
  endloop
endfacet
facet normal 0.999905 -0.013812 0
  outer loop
    vertex 0.008644662023127395 0.04666971271417735 0.02
    vertex 0.00852378789379101 0.03791914158026911 0.01159612863445641
    vertex 0.008644662023127395 0.04666971271417735 0.009999999999999972
  endloop
endfacet
facet normal 0.999905 -0.013812 9.9335e-17
  outer loop
    vertex 0.008 0 0.02
    vertex 0.008120874129336387 0.008750571133908241 0.0115961286344564
    vertex 0.008161165505781848 0.01166742817854432 0.02
  endloop
endfacet
facet normal 0.999905 -0.013812 5.77654e-17
  outer loop
    vertex 0.008483496517345547 0.035002284535633 0.02
    vertex 0.00852378789379101 0.03791914158026911 0.01159612863445641
    vertex 0.008644662023127395 0.04666971271417735 0.02
  endloop
endfacet
facet normal 0.999905 -0.013812 -7.16199e-17
  outer loop
    vertex 0.008322331011563698 0.02333485635708871 0
    vertex 0.008397317739948309 0.02876345141238362 0.01031035834558875
    vertex 0.008248463488080351 0.01798728510858919 0.01026602143907607
  endloop
endfacet
facet normal 0.999905 -0.013812 1.55782e-16
  outer loop
    vertex 0.008248463488080351 0.01798728510858919 0.01026602143907607
    vertex 0.008397317739948309 0.02876345141238362 0.01031035834558875
    vertex 0.008322331011563697 0.02333485635708864 0.02
  endloop
endfacet
facet normal 0.999905 -0.013812 -1.26394e-16
  outer loop
    vertex 0.008322331011563698 0.02333485635708871 0
    vertex 0.008248463488080351 0.01798728510858919 0.01026602143907607
    vertex 0.008161165505781848 0.01166742817854436 0
  endloop
endfacet
facet normal 0.999905 -0.013812 9.83276e-17
  outer loop
    vertex 0.008322331011563697 0.02333485635708864 0.02
    vertex 0.008397317739948309 0.02876345141238362 0.01031035834558875
    vertex 0.008483496517345547 0.035002284535633 0.02
  endloop
endfacet
facet normal 0.999905 -0.013812 -7.56865e-17
  outer loop
    vertex 0.008483496517345547 0.03500228453563303 0
    vertex 0.008397317739948309 0.02876345141238362 0.01031035834558875
    vertex 0.008322331011563698 0.02333485635708871 0
  endloop
endfacet
facet normal 0.999905 -0.013812 1.52879e-16
  outer loop
    vertex 0.008161165505781848 0.01166742817854432 0.02
    vertex 0.008248463488080351 0.01798728510858919 0.01026602143907607
    vertex 0.008322331011563697 0.02333485635708864 0.02
  endloop
endfacet
facet normal 0.999905 -0.013812 -7.39077e-17
  outer loop
    vertex 0.008483496517345547 0.03500228453563303 0
    vertex 0.00852378789379101 0.03791914158026911 0.01159612863445641
    vertex 0.008397317739948309 0.02876345141238362 0.01031035834558875
  endloop
endfacet
facet normal 0.999905 -0.013812 -1.37425e-16
  outer loop
    vertex 0.008248463488080351 0.01798728510858919 0.01026602143907607
    vertex 0.008120874129336387 0.008750571133908241 0.0115961286344564
    vertex 0.008161165505781848 0.01166742817854436 0
  endloop
endfacet
facet normal 0.999905 -0.013812 -4.67759e-17
  outer loop
    vertex 0.008483496517345547 0.03500228453563303 0
    vertex 0.008569619048507979 0.0412370457645789 0.004999999999999991
    vertex 0.00852378789379101 0.03791914158026911 0.01159612863445641
  endloop
endfacet
facet normal 0.999905 -0.013812 -1.72404e-16
  outer loop
    vertex 0.008644662023127395 0.04666971271417735 0
    vertex 0.008569619048507979 0.0412370457645789 0.004999999999999991
    vertex 0.008483496517345547 0.03500228453563303 0
  endloop
endfacet
facet normal 0.999905 -0.013812 1.17554e-16
  outer loop
    vertex 0.008161165505781848 0.01166742817854432 0.02
    vertex 0.008120874129336387 0.008750571133908241 0.0115961286344564
    vertex 0.008248463488080351 0.01798728510858919 0.01026602143907607
  endloop
endfacet
facet normal 0.999905 -0.013812 3.93596e-17
  outer loop
    vertex 0.008397317739948309 0.02876345141238362 0.01031035834558875
    vertex 0.00852378789379101 0.03791914158026911 0.01159612863445641
    vertex 0.008483496517345547 0.035002284535633 0.02
  endloop
endfacet
facet normal 0.999905 -0.013812 0
  outer loop
    vertex 0.008644662023127395 0.04666971271417735 0.009999999999999972
    vertex 0.008569619048507979 0.0412370457645789 0.004999999999999991
    vertex 0.008644662023127395 0.04666971271417735 0
  endloop
endfacet
facet normal 0.999905 -0.013812 5.7555e-17
  outer loop
    vertex 0.00852378789379101 0.03791914158026911 0.01159612863445641
    vertex 0.008569619048507979 0.0412370457645789 0.004999999999999991
    vertex 0.008644662023127395 0.04666971271417735 0.009999999999999972
  endloop
endfacet
facet normal 0.999905 -0.013812 0
  outer loop
    vertex 0.008 0 0
    vertex 0.008120874129336387 0.008750571133908241 0.0115961286344564
    vertex 0.008 0 0.01000000000000003
  endloop
endfacet
endsolid Created by Gmsh
