solid Created by Gmsh
facet normal -0.668876 -0.743374 -2.17286e-15
  outer loop
    vertex 0.04122209014602428 0.05050170586988047 0.02
    vertex 0.0332040249283223 0.05771623527986339 0.02
    vertex 0.0372130575371733 0.05410897057487193 0.01450648773478912
  endloop
endfacet
facet normal -0.668876 -0.743374 2.21909e-15
  outer loop
    vertex 0.0332040249283223 0.05771623527986339 0
    vertex 0.04122209014602428 0.05050170586988047 0
    vertex 0.0372130575371733 0.05410897057487193 0.005520616409829229
  endloop
endfacet
facet normal -0.668876 -0.743374 0
  outer loop
    vertex 0.0332040249283223 0.05771623527986339 0.009999999999999972
    vertex 0.0372130575371733 0.05410897057487193 0.005520616409829229
    vertex 0.0372130575371733 0.05410897057487193 0.01450648773478912
  endloop
endfacet
facet normal -0.668876 -0.743374 0
  outer loop
    vertex 0.0372130575371733 0.05410897057487193 0.005520616409829229
    vertex 0.04122209014602428 0.05050170586988047 0.01000000000000003
    vertex 0.0372130575371733 0.05410897057487193 0.01450648773478912
  endloop
endfacet
facet normal -0.668876 -0.743374 -0
  outer loop
    vertex 0.0332040249283223 0.05771623527986339 0.02
    vertex 0.0332040249283223 0.05771623527986339 0.009999999999999972
    vertex 0.0372130575371733 0.05410897057487193 0.01450648773478912
  endloop
endfacet
facet normal -0.668876 -0.743374 0
  outer loop
    vertex 0.04122209014602428 0.05050170586988047 0
    vertex 0.04122209014602428 0.05050170586988047 0.01000000000000003
    vertex 0.0372130575371733 0.05410897057487193 0.005520616409829229
  endloop
endfacet
facet normal -0.668876 -0.743374 -0
  outer loop
    vertex 0.0332040249283223 0.05771623527986339 0.009999999999999972
    vertex 0.0332040249283223 0.05771623527986339 0
    vertex 0.0372130575371733 0.05410897057487193 0.005520616409829229
  endloop
endfacet
facet normal -0.668876 -0.743374 0
  outer loop
    vertex 0.04122209014602428 0.05050170586988047 0.01000000000000003
    vertex 0.04122209014602428 0.05050170586988047 0.02
    vertex 0.0372130575371733 0.05410897057487193 0.01450648773478912
  endloop
endfacet
facet normal -0.320574 0.947224 8.06419e-16
  outer loop
    vertex 0.03056342305947841 0.046894441164889 0.02
    vertex 0.04122209014602428 0.05050170586988047 0.02
    vertex 0.03394964973888144 0.04804045838116267 0.009918778393176626
  endloop
endfacet
facet normal -0.320574 0.947224 0
  outer loop
    vertex 0.04122209014602428 0.05050170586988047 0.009999999999999972
    vertex 0.04122209014602428 0.05050170586988047 0
    vertex 0.03394964973888144 0.04804045838116267 0.009918778393176626
  endloop
endfacet
facet normal -0.320574 0.947224 -4.85704e-16
  outer loop
    vertex 0.04122209014602428 0.05050170586988047 0
    vertex 0.03056342305947841 0.04689444116488901 0
    vertex 0.03394964973888144 0.04804045838116267 0.009918778393176626
  endloop
endfacet
facet normal -0.320574 0.947224 7.40217e-16
  outer loop
    vertex 0.03056342305947841 0.046894441164889 0.02
    vertex 0.03394964973888144 0.04804045838116267 0.009918778393176626
    vertex 0.02628603169454321 0.04544682273616048 0.0132085803281404
  endloop
endfacet
facet normal -0.320574 0.947224 3.54682e-16
  outer loop
    vertex 0.01990475597293254 0.04328717645989754 0.02
    vertex 0.03056342305947841 0.046894441164889 0.02
    vertex 0.02628603169454321 0.04544682273616048 0.0132085803281404
  endloop
endfacet
facet normal -0.320574 0.947224 0
  outer loop
    vertex 0.01990475597293254 0.04328717645989754 0.01000000000000003
    vertex 0.01990475597293254 0.04328717645989754 0.02
    vertex 0.02628603169454321 0.04544682273616048 0.0132085803281404
  endloop
endfacet
facet normal -0.320574 0.947224 -7.62082e-16
  outer loop
    vertex 0.03056342305947841 0.04689444116488901 0
    vertex 0.01990475597293254 0.04328717645989754 0
    vertex 0.02602922611270334 0.04535991077016193 0.006321613600666656
  endloop
endfacet
facet normal -0.320574 0.947224 0
  outer loop
    vertex 0.01990475597293254 0.04328717645989754 0
    vertex 0.01990475597293254 0.04328717645989754 0.01000000000000003
    vertex 0.02602922611270334 0.04535991077016193 0.006321613600666656
  endloop
endfacet
facet normal -0.320574 0.947224 7.18184e-16
  outer loop
    vertex 0.03394964973888144 0.04804045838116267 0.009918778393176626
    vertex 0.02602922611270334 0.04535991077016193 0.006321613600666656
    vertex 0.02628603169454321 0.04544682273616048 0.0132085803281404
  endloop
endfacet
facet normal -0.320574 0.947224 -4.95563e-16
  outer loop
    vertex 0.03056342305947841 0.04689444116488901 0
    vertex 0.02602922611270334 0.04535991077016193 0.006321613600666656
    vertex 0.03394964973888144 0.04804045838116267 0.009918778393176626
  endloop
endfacet
facet normal -0.320574 0.947224 7.11654e-16
  outer loop
    vertex 0.02602922611270334 0.04535991077016193 0.006321613600666656
    vertex 0.01990475597293254 0.04328717645989754 0.01000000000000003
    vertex 0.02628603169454321 0.04544682273616048 0.0132085803281404
  endloop
endfacet
facet normal -0.320574 0.947224 0
  outer loop
    vertex 0.04122209014602428 0.05050170586988047 0.02
    vertex 0.04122209014602428 0.05050170586988047 0.009999999999999972
    vertex 0.03394964973888144 0.04804045838116267 0.009918778393176626
  endloop
endfacet
facet normal -0.951319 0.308208 0
  outer loop
    vertex 0.01756739548463796 0.03607264704991461 0
    vertex 0.01756739548463796 0.03607264704991461 0.01000000000000003
    vertex 0.01873607572878525 0.03967991175490607 0.005000000000000001
  endloop
endfacet
facet normal -0.951319 0.308208 0
  outer loop
    vertex 0.01990475597293254 0.04328717645989754 0.02
    vertex 0.01990475597293254 0.04328717645989754 0.009999999999999972
    vertex 0.01873607572878525 0.03967991175490607 0.015
  endloop
endfacet
facet normal -0.951319 0.308208 0
  outer loop
    vertex 0.01756739548463796 0.03607264704991461 0.01000000000000003
    vertex 0.01756739548463796 0.03607264704991461 0.02
    vertex 0.01873607572878525 0.03967991175490607 0.015
  endloop
endfacet
facet normal -0.951319 0.308208 0
  outer loop
    vertex 0.01990475597293254 0.04328717645989754 0.009999999999999972
    vertex 0.01990475597293254 0.04328717645989754 0
    vertex 0.01873607572878525 0.03967991175490607 0.005000000000000001
  endloop
endfacet
facet normal -0.951319 0.308208 8.93529e-17
  outer loop
    vertex 0.01756739548463796 0.03607264704991461 0.01000000000000003
    vertex 0.01990475597293254 0.04328717645989754 0.009999999999999972
    vertex 0.01873607572878525 0.03967991175490607 0.005000000000000001
  endloop
endfacet
facet normal -0.951319 0.308208 -8.93529e-17
  outer loop
    vertex 0.01990475597293254 0.04328717645989754 0.009999999999999972
    vertex 0.01756739548463796 0.03607264704991461 0.01000000000000003
    vertex 0.01873607572878525 0.03967991175490607 0.015
  endloop
endfacet
facet normal -0.951319 0.308208 -8.93529e-17
  outer loop
    vertex 0.01990475597293254 0.04328717645989754 0
    vertex 0.01756739548463796 0.03607264704991461 0
    vertex 0.01873607572878525 0.03967991175490607 0.005000000000000001
  endloop
endfacet
facet normal -0.951319 0.308208 8.93529e-17
  outer loop
    vertex 0.01756739548463796 0.03607264704991461 0.02
    vertex 0.01990475597293254 0.04328717645989754 0.02
    vertex 0.01873607572878525 0.03967991175490607 0.015
  endloop
endfacet
facet normal -0.311897 -0.950116 9.51821e-16
  outer loop
    vertex 0.02855602709885407 0.03246538234492315 0
    vertex 0.03954465871307018 0.02885811763993169 0
    vertex 0.03095648589294066 0.03167737792474654 0.011233910622319
  endloop
endfacet
facet normal -0.311897 -0.950116 0
  outer loop
    vertex 0.03954465871307018 0.02885811763993169 0.01000000000000003
    vertex 0.03954465871307018 0.02885811763993169 0.02
    vertex 0.03095648589294066 0.03167737792474654 0.011233910622319
  endloop
endfacet
facet normal -0.311897 -0.950116 -1.00256e-15
  outer loop
    vertex 0.03954465871307018 0.02885811763993169 0.02
    vertex 0.02855602709885408 0.03246538234492315 0.02
    vertex 0.03095648589294066 0.03167737792474654 0.011233910622319
  endloop
endfacet
facet normal -0.311897 -0.950116 9.75395e-16
  outer loop
    vertex 0.01756739548463796 0.03607264704991461 0
    vertex 0.02855602709885407 0.03246538234492315 0
    vertex 0.02412818600796072 0.03391892046024471 0.006907816097540604
  endloop
endfacet
facet normal -0.311897 -0.950116 -1.56005e-15
  outer loop
    vertex 0.02855602709885408 0.03246538234492315 0.02
    vertex 0.01756739548463796 0.03607264704991461 0.02
    vertex 0.02384463911720335 0.03401200108457977 0.0136154183248284
  endloop
endfacet
facet normal -0.311897 -0.950116 -0
  outer loop
    vertex 0.01756739548463796 0.03607264704991461 0.009999999999999972
    vertex 0.01756739548463796 0.03607264704991461 0
    vertex 0.02412818600796072 0.03391892046024471 0.006907816097540604
  endloop
endfacet
facet normal -0.311897 -0.950116 9.70726e-16
  outer loop
    vertex 0.02855602709885407 0.03246538234492315 0
    vertex 0.03095648589294066 0.03167737792474654 0.011233910622319
    vertex 0.02412818600796072 0.03391892046024471 0.006907816097540604
  endloop
endfacet
facet normal -0.311897 -0.950116 -0
  outer loop
    vertex 0.01756739548463796 0.03607264704991461 0.02
    vertex 0.01756739548463796 0.03607264704991461 0.009999999999999972
    vertex 0.02384463911720335 0.03401200108457977 0.0136154183248284
  endloop
endfacet
facet normal -0.311897 -0.950116 6.84508e-16
  outer loop
    vertex 0.03095648589294066 0.03167737792474654 0.011233910622319
    vertex 0.02384463911720335 0.03401200108457977 0.0136154183248284
    vertex 0.02412818600796072 0.03391892046024471 0.006907816097540604
  endloop
endfacet
facet normal -0.311897 -0.950116 -1.11565e-15
  outer loop
    vertex 0.02855602709885408 0.03246538234492315 0.02
    vertex 0.02384463911720335 0.03401200108457977 0.0136154183248284
    vertex 0.03095648589294066 0.03167737792474654 0.011233910622319
  endloop
endfacet
facet normal -0.311897 -0.950116 7.34707e-16
  outer loop
    vertex 0.02384463911720335 0.03401200108457977 0.0136154183248284
    vertex 0.01756739548463796 0.03607264704991461 0.009999999999999972
    vertex 0.02412818600796072 0.03391892046024471 0.006907816097540604
  endloop
endfacet
facet normal -0.311897 -0.950116 0
  outer loop
    vertex 0.03954465871307018 0.02885811763993169 0
    vertex 0.03954465871307018 0.02885811763993169 0.01000000000000003
    vertex 0.03095648589294066 0.03167737792474654 0.011233910622319
  endloop
endfacet
facet normal -0.33792 0.941175 0
  outer loop
    vertex 0.01945073920479079 0.02164358822994877 0
    vertex 0.01945073920479079 0.02164358822994877 0.01000000000000003
    vertex 0.02713974163352459 0.02440425093354294 0.008023265960744253
  endloop
endfacet
facet normal -0.33792 0.941175 -1.58236e-16
  outer loop
    vertex 0.02949769895893049 0.02525085293494023 0
    vertex 0.01945073920479079 0.02164358822994877 0
    vertex 0.02713974163352459 0.02440425093354294 0.008023265960744253
  endloop
endfacet
facet normal -0.33792 0.941175 0
  outer loop
    vertex 0.02949769895893049 0.02525085293494023 0.02
    vertex 0.03954465871307018 0.02885811763993169 0.02
    vertex 0.03260093738657446 0.02636504098039357 0.01269686672173868
  endloop
endfacet
facet normal -0.33792 0.941175 0
  outer loop
    vertex 0.03954465871307018 0.02885811763993169 0.02
    vertex 0.03954465871307018 0.02885811763993169 0.009999999999999972
    vertex 0.03260093738657446 0.02636504098039357 0.01269686672173868
  endloop
endfacet
facet normal -0.33792 0.941175 0
  outer loop
    vertex 0.01945073920479079 0.02164358822994877 0.02
    vertex 0.02949769895893049 0.02525085293494023 0.02
    vertex 0.02447421908186064 0.0234472205824445 0.01500000000000001
  endloop
endfacet
facet normal -0.33792 0.941175 5.25151e-17
  outer loop
    vertex 0.03954465871307018 0.02885811763993169 0
    vertex 0.02949769895893049 0.02525085293494023 0
    vertex 0.03372389841452246 0.02676822938567495 0.006043822101368771
  endloop
endfacet
facet normal -0.33792 0.941175 0
  outer loop
    vertex 0.03954465871307018 0.02885811763993169 0.009999999999999972
    vertex 0.03954465871307018 0.02885811763993169 0
    vertex 0.03372389841452246 0.02676822938567495 0.006043822101368771
  endloop
endfacet
facet normal -0.33792 0.941175 0
  outer loop
    vertex 0.01945073920479079 0.02164358822994877 0.01000000000000003
    vertex 0.01945073920479079 0.02164358822994877 0.02
    vertex 0.02447421908186064 0.0234472205824445 0.01500000000000001
  endloop
endfacet
facet normal -0.33792 0.941175 0
  outer loop
    vertex 0.02949769895893049 0.02525085293494023 0.02
    vertex 0.03260093738657446 0.02636504098039357 0.01269686672173868
    vertex 0.02447421908186064 0.0234472205824445 0.01500000000000001
  endloop
endfacet
facet normal -0.33792 0.941175 2.52286e-16
  outer loop
    vertex 0.03260093738657446 0.02636504098039357 0.01269686672173868
    vertex 0.02713974163352459 0.02440425093354294 0.008023265960744253
    vertex 0.02447421908186064 0.0234472205824445 0.01500000000000001
  endloop
endfacet
facet normal -0.33792 0.941175 -9.93218e-17
  outer loop
    vertex 0.03372389841452246 0.02676822938567495 0.006043822101368771
    vertex 0.02949769895893049 0.02525085293494023 0
    vertex 0.02713974163352459 0.02440425093354294 0.008023265960744253
  endloop
endfacet
facet normal -0.33792 0.941175 1.31837e-16
  outer loop
    vertex 0.02713974163352459 0.02440425093354294 0.008023265960744253
    vertex 0.01945073920479079 0.02164358822994877 0.01000000000000003
    vertex 0.02447421908186064 0.0234472205824445 0.01500000000000001
  endloop
endfacet
facet normal -0.33792 0.941175 -3.83439e-17
  outer loop
    vertex 0.03372389841452246 0.02676822938567495 0.006043822101368771
    vertex 0.02713974163352459 0.02440425093354294 0.008023265960744253
    vertex 0.03260093738657446 0.02636504098039357 0.01269686672173868
  endloop
endfacet
facet normal -0.33792 0.941175 -1.10804e-16
  outer loop
    vertex 0.03954465871307018 0.02885811763993169 0.009999999999999972
    vertex 0.03372389841452246 0.02676822938567495 0.006043822101368771
    vertex 0.03260093738657446 0.02636504098039357 0.01269686672173868
  endloop
endfacet
facet normal -0.377747 -0.925909 -6.06088e-16
  outer loop
    vertex 0.01945073920479079 0.02164358822994877 0
    vertex 0.02829264439120824 0.01803632352495731 0
    vertex 0.02640243851362404 0.01880747779585484 0.007610104425281581
  endloop
endfacet
facet normal -0.377747 -0.925909 -0
  outer loop
    vertex 0.01945073920479079 0.02164358822994877 0.009999999999999972
    vertex 0.01945073920479079 0.02164358822994877 0
    vertex 0.02640243851362404 0.01880747779585484 0.007610104425281581
  endloop
endfacet
facet normal -0.377747 -0.925909 0
  outer loop
    vertex 0.03713454957762569 0.01442905881996585 0.01000000000000003
    vertex 0.03713454957762569 0.01442905881996585 0.02
    vertex 0.0306189600906801 0.01708724791981926 0.01304762837108647
  endloop
endfacet
facet normal -0.377747 -0.925909 9.69624e-16
  outer loop
    vertex 0.03713454957762569 0.01442905881996585 0.02
    vertex 0.02829264439120825 0.01803632352495731 0.02
    vertex 0.0306189600906801 0.01708724791981926 0.01304762837108647
  endloop
endfacet
facet normal -0.377747 -0.925909 -0
  outer loop
    vertex 0.01945073920479079 0.02164358822994877 0.02
    vertex 0.01945073920479079 0.02164358822994877 0.009999999999999972
    vertex 0.0247489055299638 0.01948207575237439 0.01418336264121869
  endloop
endfacet
facet normal -0.377747 -0.925909 0
  outer loop
    vertex 0.03713454957762569 0.01442905881996585 0
    vertex 0.03713454957762569 0.01442905881996585 0.01000000000000003
    vertex 0.03271359698441697 0.01623269117246157 0.005000000000000013
  endloop
endfacet
facet normal -0.377747 -0.925909 -7.09599e-16
  outer loop
    vertex 0.02829264439120824 0.01803632352495731 0
    vertex 0.03713454957762569 0.01442905881996585 0
    vertex 0.03271359698441697 0.01623269117246157 0.005000000000000013
  endloop
endfacet
facet normal -0.377747 -0.925909 7.92965e-16
  outer loop
    vertex 0.02829264439120825 0.01803632352495731 0.02
    vertex 0.01945073920479079 0.02164358822994877 0.02
    vertex 0.0247489055299638 0.01948207575237439 0.01418336264121869
  endloop
endfacet
facet normal -0.377747 -0.925909 3.40609e-17
  outer loop
    vertex 0.03713454957762569 0.01442905881996585 0.01000000000000003
    vertex 0.0306189600906801 0.01708724791981926 0.01304762837108647
    vertex 0.03271359698441697 0.01623269117246157 0.005000000000000013
  endloop
endfacet
facet normal -0.377747 -0.925909 -1.81695e-16
  outer loop
    vertex 0.0306189600906801 0.01708724791981926 0.01304762837108647
    vertex 0.02640243851362404 0.01880747779585484 0.007610104425281581
    vertex 0.03271359698441697 0.01623269117246157 0.005000000000000013
  endloop
endfacet
facet normal -0.377747 -0.925909 6.57578e-17
  outer loop
    vertex 0.0247489055299638 0.01948207575237439 0.01418336264121869
    vertex 0.01945073920479079 0.02164358822994877 0.009999999999999972
    vertex 0.02640243851362404 0.01880747779585484 0.007610104425281581
  endloop
endfacet
facet normal -0.377747 -0.925909 -5.45963e-16
  outer loop
    vertex 0.02640243851362404 0.01880747779585484 0.007610104425281581
    vertex 0.02829264439120824 0.01803632352495731 0
    vertex 0.03271359698441697 0.01623269117246157 0.005000000000000013
  endloop
endfacet
facet normal -0.377747 -0.925909 1.9229e-16
  outer loop
    vertex 0.0247489055299638 0.01948207575237439 0.01418336264121869
    vertex 0.02640243851362404 0.01880747779585484 0.007610104425281581
    vertex 0.0306189600906801 0.01708724791981926 0.01304762837108647
  endloop
endfacet
facet normal -0.377747 -0.925909 9.86285e-16
  outer loop
    vertex 0.02829264439120825 0.01803632352495731 0.02
    vertex 0.0247489055299638 0.01948207575237439 0.01418336264121869
    vertex 0.0306189600906801 0.01708724791981926 0.01304762837108647
  endloop
endfacet
facet normal -0.87037 -0.492398 -0
  outer loop
    vertex 0.03713454957762569 0.01442905881996585 0.02
    vertex 0.03713454957762569 0.01442905881996585 0.009999999999999972
    vertex 0.03917530402660109 0.01082179411497438 0.015
  endloop
endfacet
facet normal -0.87037 -0.492398 0
  outer loop
    vertex 0.04121605847557649 0.00721452940998292 0
    vertex 0.04121605847557649 0.00721452940998292 0.01000000000000003
    vertex 0.03917530402660109 0.01082179411497438 0.005
  endloop
endfacet
facet normal -0.87037 -0.492398 -0
  outer loop
    vertex 0.03713454957762569 0.01442905881996585 0.009999999999999972
    vertex 0.03713454957762569 0.01442905881996585 0
    vertex 0.03917530402660109 0.01082179411497438 0.005
  endloop
endfacet
facet normal -0.87037 -0.492398 0
  outer loop
    vertex 0.04121605847557649 0.00721452940998292 0.01000000000000003
    vertex 0.04121605847557649 0.00721452940998292 0.02
    vertex 0.03917530402660109 0.01082179411497438 0.015
  endloop
endfacet
facet normal -0.87037 -0.492398 0
  outer loop
    vertex 0.04121605847557649 0.00721452940998292 0.02
    vertex 0.03713454957762569 0.01442905881996585 0.02
    vertex 0.03917530402660109 0.01082179411497438 0.015
  endloop
endfacet
facet normal -0.87037 -0.492398 0
  outer loop
    vertex 0.04121605847557649 0.00721452940998292 0.01000000000000003
    vertex 0.03713454957762569 0.01442905881996585 0.009999999999999972
    vertex 0.03917530402660109 0.01082179411497438 0.005
  endloop
endfacet
facet normal -0.87037 -0.492398 0
  outer loop
    vertex 0.03713454957762569 0.01442905881996585 0.009999999999999972
    vertex 0.04121605847557649 0.00721452940998292 0.01000000000000003
    vertex 0.03917530402660109 0.01082179411497438 0.015
  endloop
endfacet
facet normal -0.87037 -0.492398 0
  outer loop
    vertex 0.03713454957762569 0.01442905881996585 0
    vertex 0.04121605847557649 0.00721452940998292 0
    vertex 0.03917530402660109 0.01082179411497438 0.005
  endloop
endfacet
endsolid Created by Gmsh
