solid Created by Gmsh
facet normal -0.426171 0.904643 3.29751e-16
  outer loop
    vertex 0.0255474706499492 0.05308342297085158 0
    vertex 0.01803537321215445 0.04954452810612813 0
    vertex 0.02615722835111584 0.0533706754213493 0.007888057690268888
  endloop
endfacet
facet normal -0.426171 0.904643 0
  outer loop
    vertex 0.01803537321215445 0.04954452810612813 0
    vertex 0.01803537321215445 0.04954452810612813 0.01000000000000003
    vertex 0.02615722835111584 0.0533706754213493 0.007888057690268888
  endloop
endfacet
facet normal -0.426171 0.904643 3.10354e-16
  outer loop
    vertex 0.03305956808774393 0.05662231783557501 0
    vertex 0.0255474706499492 0.05308342297085158 0
    vertex 0.02615722835111584 0.0533706754213493 0.007888057690268888
  endloop
endfacet
facet normal -0.426171 0.904643 0
  outer loop
    vertex 0.03305956808774393 0.05662231783557501 0.009999999999999972
    vertex 0.03305956808774393 0.05662231783557501 0
    vertex 0.02615722835111584 0.0533706754213493 0.007888057690268888
  endloop
endfacet
facet normal -0.426171 0.904643 0
  outer loop
    vertex 0.01803537321215445 0.04954452810612813 0.01000000000000003
    vertex 0.01803537321215445 0.04954452810612813 0.02
    vertex 0.02325572577394704 0.05200379850643286 0.01425839842469115
  endloop
endfacet
facet normal -0.426171 0.904643 0
  outer loop
    vertex 0.03305956808774393 0.05662231783557501 0.02
    vertex 0.03305956808774393 0.05662231783557501 0.009999999999999972
    vertex 0.02824202775866919 0.05435280936975224 0.01433607696937335
  endloop
endfacet
facet normal -0.426171 0.904643 1.42126e-16
  outer loop
    vertex 0.01803537321215445 0.04954452810612813 0.02
    vertex 0.02554747064994918 0.05308342297085156 0.02
    vertex 0.02325572577394704 0.05200379850643286 0.01425839842469115
  endloop
endfacet
facet normal -0.426171 0.904643 3.35998e-17
  outer loop
    vertex 0.02615722835111584 0.0533706754213493 0.007888057690268888
    vertex 0.01803537321215445 0.04954452810612813 0.01000000000000003
    vertex 0.02325572577394704 0.05200379850643286 0.01425839842469115
  endloop
endfacet
facet normal -0.426171 0.904643 1.08056e-16
  outer loop
    vertex 0.02554747064994918 0.05308342297085156 0.02
    vertex 0.03305956808774393 0.05662231783557501 0.02
    vertex 0.02824202775866919 0.05435280936975224 0.01433607696937335
  endloop
endfacet
facet normal -0.426171 0.904643 3.82143e-17
  outer loop
    vertex 0.02824202775866919 0.05435280936975224 0.01433607696937335
    vertex 0.03305956808774393 0.05662231783557501 0.009999999999999972
    vertex 0.02615722835111584 0.0533706754213493 0.007888057690268888
  endloop
endfacet
facet normal -0.426171 0.904643 0
  outer loop
    vertex 0.02824202775866919 0.05435280936975224 0.01433607696937335
    vertex 0.02615722835111584 0.0533706754213493 0.007888057690268888
    vertex 0.02325572577394704 0.05200379850643286 0.01425839842469115
  endloop
endfacet
facet normal -0.426171 0.904643 2.15459e-16
  outer loop
    vertex 0.02554747064994918 0.05308342297085156 0.02
    vertex 0.02824202775866919 0.05435280936975224 0.01433607696937335
    vertex 0.02325572577394704 0.05200379850643286 0.01425839842469115
  endloop
endfacet
facet normal -0.730571 -0.682837 -0
  outer loop
    vertex 0.01803537321215445 0.04954452810612813 0.02
    vertex 0.01803537321215445 0.04954452810612813 0.009999999999999972
    vertex 0.02134304096521189 0.04600563324140469 0.015
  endloop
endfacet
facet normal -0.730571 -0.682837 0
  outer loop
    vertex 0.02465070871826933 0.04246673837668126 0
    vertex 0.02465070871826933 0.04246673837668126 0.01000000000000003
    vertex 0.02134304096521189 0.04600563324140469 0.005
  endloop
endfacet
facet normal -0.730571 -0.682837 -0
  outer loop
    vertex 0.01803537321215445 0.04954452810612813 0.009999999999999972
    vertex 0.01803537321215445 0.04954452810612813 0
    vertex 0.02134304096521189 0.04600563324140469 0.005
  endloop
endfacet
facet normal -0.730571 -0.682837 0
  outer loop
    vertex 0.02465070871826933 0.04246673837668126 0.01000000000000003
    vertex 0.02465070871826933 0.04246673837668126 0.02
    vertex 0.02134304096521189 0.04600563324140469 0.015
  endloop
endfacet
facet normal -0.730571 -0.682837 9.79227e-16
  outer loop
    vertex 0.02465070871826933 0.04246673837668126 0.01000000000000003
    vertex 0.01803537321215445 0.04954452810612813 0.009999999999999972
    vertex 0.02134304096521189 0.04600563324140469 0.005
  endloop
endfacet
facet normal -0.730571 -0.682837 9.79227e-16
  outer loop
    vertex 0.02465070871826933 0.04246673837668126 0.02
    vertex 0.01803537321215445 0.04954452810612813 0.02
    vertex 0.02134304096521189 0.04600563324140469 0.015
  endloop
endfacet
facet normal -0.730571 -0.682837 -9.79227e-16
  outer loop
    vertex 0.01803537321215445 0.04954452810612813 0.009999999999999972
    vertex 0.02465070871826933 0.04246673837668126 0.01000000000000003
    vertex 0.02134304096521189 0.04600563324140469 0.015
  endloop
endfacet
facet normal -0.730571 -0.682837 -9.79227e-16
  outer loop
    vertex 0.01803537321215445 0.04954452810612813 0
    vertex 0.02465070871826933 0.04246673837668126 0
    vertex 0.02134304096521189 0.04600563324140469 0.005
  endloop
endfacet
facet normal -0.997747 0.0670936 3.46275e-16
  outer loop
    vertex 0.02417476181770048 0.03538894864723438 0.01000000000000003
    vertex 0.02465070871826933 0.04246673837668126 0.009999999999999972
    vertex 0.0244127352679849 0.03892784351195782 0.004999999999999999
  endloop
endfacet
facet normal -0.997747 0.0670936 -3.46275e-16
  outer loop
    vertex 0.02465070871826933 0.04246673837668126 0.009999999999999972
    vertex 0.02417476181770048 0.03538894864723438 0.01000000000000003
    vertex 0.0244127352679849 0.03892784351195782 0.015
  endloop
endfacet
facet normal -0.997747 0.0670936 3.46275e-16
  outer loop
    vertex 0.02417476181770048 0.03538894864723438 0.02
    vertex 0.02465070871826933 0.04246673837668126 0.02
    vertex 0.0244127352679849 0.03892784351195782 0.015
  endloop
endfacet
facet normal -0.997747 0.0670936 -3.46275e-16
  outer loop
    vertex 0.02465070871826933 0.04246673837668126 0
    vertex 0.02417476181770048 0.03538894864723438 0
    vertex 0.0244127352679849 0.03892784351195782 0.004999999999999999
  endloop
endfacet
facet normal -0.997747 0.0670936 0
  outer loop
    vertex 0.02465070871826933 0.04246673837668126 0.009999999999999972
    vertex 0.02465070871826933 0.04246673837668126 0
    vertex 0.0244127352679849 0.03892784351195782 0.004999999999999999
  endloop
endfacet
facet normal -0.997747 0.0670936 0
  outer loop
    vertex 0.02465070871826933 0.04246673837668126 0.02
    vertex 0.02465070871826933 0.04246673837668126 0.009999999999999972
    vertex 0.0244127352679849 0.03892784351195782 0.015
  endloop
endfacet
facet normal -0.997747 0.0670936 0
  outer loop
    vertex 0.02417476181770048 0.03538894864723438 0
    vertex 0.02417476181770048 0.03538894864723438 0.01000000000000003
    vertex 0.0244127352679849 0.03892784351195782 0.004999999999999999
  endloop
endfacet
facet normal -0.997747 0.0670936 0
  outer loop
    vertex 0.02417476181770048 0.03538894864723438 0.01000000000000003
    vertex 0.02417476181770048 0.03538894864723438 0.02
    vertex 0.0244127352679849 0.03892784351195782 0.015
  endloop
endfacet
facet normal -0.693091 -0.72085 0
  outer loop
    vertex 0.02417476181770048 0.03538894864723438 0
    vertex 0.03153601539786817 0.02831115891778751 0
    vertex 0.02785538860778432 0.03185005378251094 0.004999999999999986
  endloop
endfacet
facet normal -0.693091 -0.72085 0
  outer loop
    vertex 0.03153601539786817 0.02831115891778751 0.02
    vertex 0.02417476181770048 0.03538894864723438 0.02
    vertex 0.02785538860778432 0.03185005378251094 0.01500000000000001
  endloop
endfacet
facet normal -0.693091 -0.72085 0
  outer loop
    vertex 0.02417476181770048 0.03538894864723438 0.009999999999999972
    vertex 0.02785538860778432 0.03185005378251094 0.004999999999999986
    vertex 0.02785538860778432 0.03185005378251094 0.01500000000000001
  endloop
endfacet
facet normal -0.693091 -0.72085 0
  outer loop
    vertex 0.02785538860778432 0.03185005378251094 0.004999999999999986
    vertex 0.03153601539786817 0.02831115891778751 0.01000000000000003
    vertex 0.02785538860778432 0.03185005378251094 0.01500000000000001
  endloop
endfacet
facet normal -0.693091 -0.72085 -0
  outer loop
    vertex 0.02417476181770048 0.03538894864723438 0.02
    vertex 0.02417476181770048 0.03538894864723438 0.009999999999999972
    vertex 0.02785538860778432 0.03185005378251094 0.01500000000000001
  endloop
endfacet
facet normal -0.693091 -0.72085 0
  outer loop
    vertex 0.03153601539786817 0.02831115891778751 0
    vertex 0.03153601539786817 0.02831115891778751 0.01000000000000003
    vertex 0.02785538860778432 0.03185005378251094 0.004999999999999986
  endloop
endfacet
facet normal -0.693091 -0.72085 -0
  outer loop
    vertex 0.02417476181770048 0.03538894864723438 0.009999999999999972
    vertex 0.02417476181770048 0.03538894864723438 0
    vertex 0.02785538860778432 0.03185005378251094 0.004999999999999986
  endloop
endfacet
facet normal -0.693091 -0.72085 0
  outer loop
    vertex 0.03153601539786817 0.02831115891778751 0.01000000000000003
    vertex 0.03153601539786817 0.02831115891778751 0.02
    vertex 0.02785538860778432 0.03185005378251094 0.01500000000000001
  endloop
endfacet
facet normal -0.794002 -0.607915 -0
  outer loop
    vertex 0.03153601539786817 0.02831115891778751 0.02
    vertex 0.03153601539786817 0.02831115891778751 0.009999999999999972
    vertex 0.03424551248994029 0.02477226405306407 0.015
  endloop
endfacet
facet normal -0.794002 -0.607915 0
  outer loop
    vertex 0.03695500958201241 0.02123336918834063 0
    vertex 0.03695500958201241 0.02123336918834063 0.01000000000000003
    vertex 0.03424551248994029 0.02477226405306407 0.005
  endloop
endfacet
facet normal -0.794002 -0.607915 -0
  outer loop
    vertex 0.03153601539786817 0.02831115891778751 0.009999999999999972
    vertex 0.03153601539786817 0.02831115891778751 0
    vertex 0.03424551248994029 0.02477226405306407 0.005
  endloop
endfacet
facet normal -0.794002 -0.607915 0
  outer loop
    vertex 0.03695500958201241 0.02123336918834063 0.01000000000000003
    vertex 0.03695500958201241 0.02123336918834063 0.02
    vertex 0.03424551248994029 0.02477226405306407 0.015
  endloop
endfacet
facet normal -0.794002 -0.607915 2.28053e-16
  outer loop
    vertex 0.03695500958201241 0.02123336918834063 0.01000000000000003
    vertex 0.03153601539786817 0.02831115891778751 0.009999999999999972
    vertex 0.03424551248994029 0.02477226405306407 0.005
  endloop
endfacet
facet normal -0.794002 -0.607915 -1.52035e-16
  outer loop
    vertex 0.03153601539786817 0.02831115891778751 0.009999999999999972
    vertex 0.03695500958201241 0.02123336918834063 0.01000000000000003
    vertex 0.03424551248994029 0.02477226405306407 0.015
  endloop
endfacet
facet normal -0.794002 -0.607915 -1.52035e-16
  outer loop
    vertex 0.03153601539786817 0.02831115891778751 0
    vertex 0.03695500958201241 0.02123336918834063 0
    vertex 0.03424551248994029 0.02477226405306407 0.005
  endloop
endfacet
facet normal -0.794002 -0.607915 2.28053e-16
  outer loop
    vertex 0.03695500958201241 0.02123336918834063 0.02
    vertex 0.03153601539786817 0.02831115891778751 0.02
    vertex 0.03424551248994029 0.02477226405306407 0.015
  endloop
endfacet
facet normal -0.501254 0.8653 0
  outer loop
    vertex 0.03695500958201241 0.02123336918834063 0.02
    vertex 0.03695500958201241 0.02123336918834063 0.009999999999999972
    vertex 0.03267864079457907 0.01875614278303422 0.015
  endloop
endfacet
facet normal -0.501254 0.8653 0
  outer loop
    vertex 0.0247368130464886 0.01415557945889375 0
    vertex 0.0247368130464886 0.01415557945889375 0.01000000000000003
    vertex 0.02901318183392193 0.01663280586420015 0.005000000000000006
  endloop
endfacet
facet normal -0.501254 0.8653 0
  outer loop
    vertex 0.0247368130464886 0.01415557945889375 0.01000000000000003
    vertex 0.0247368130464886 0.01415557945889375 0.02
    vertex 0.02876881790321146 0.01649125006961122 0.01500000000000001
  endloop
endfacet
facet normal -0.501254 0.8653 0
  outer loop
    vertex 0.03695500958201241 0.02123336918834063 0.009999999999999972
    vertex 0.03695500958201241 0.02123336918834063 0
    vertex 0.03292300472528955 0.01889769857762316 0.004999999999999998
  endloop
endfacet
facet normal -0.501254 0.8653 -4.07914e-16
  outer loop
    vertex 0.0308459113142505 0.01769447432361719 0.02
    vertex 0.03695500958201241 0.02123336918834063 0.02
    vertex 0.03267864079457907 0.01875614278303422 0.015
  endloop
endfacet
facet normal -0.501254 0.8653 3.3593e-16
  outer loop
    vertex 0.03084591131425051 0.01769447432361719 0
    vertex 0.0247368130464886 0.01415557945889375 0
    vertex 0.02901318183392193 0.01663280586420015 0.005000000000000006
  endloop
endfacet
facet normal -0.501254 0.8653 -7.67839e-16
  outer loop
    vertex 0.0247368130464886 0.01415557945889375 0.02
    vertex 0.0308459113142505 0.01769447432361719 0.02
    vertex 0.02876881790321146 0.01649125006961122 0.01500000000000001
  endloop
endfacet
facet normal -0.501254 0.8653 3.83919e-16
  outer loop
    vertex 0.03695500958201241 0.02123336918834063 0
    vertex 0.03084591131425051 0.01769447432361719 0
    vertex 0.03292300472528955 0.01889769857762316 0.004999999999999998
  endloop
endfacet
facet normal -0.501254 0.8653 -6.37366e-16
  outer loop
    vertex 0.0308459113142505 0.01769447432361719 0.02
    vertex 0.03267864079457907 0.01875614278303422 0.015
    vertex 0.02876881790321146 0.01649125006961122 0.01500000000000001
  endloop
endfacet
facet normal -0.501254 0.8653 2.99937e-16
  outer loop
    vertex 0.03084591131425051 0.01769447432361719 0
    vertex 0.02901318183392193 0.01663280586420015 0.005000000000000006
    vertex 0.03292300472528955 0.01889769857762316 0.004999999999999998
  endloop
endfacet
facet normal -0.501254 0.8653 -3.74921e-17
  outer loop
    vertex 0.03292300472528955 0.01889769857762316 0.004999999999999998
    vertex 0.02901318183392193 0.01663280586420015 0.005000000000000006
    vertex 0.0308459113142505 0.01769447432361719 0.01
  endloop
endfacet
facet normal -0.501254 0.8653 0
  outer loop
    vertex 0.02876881790321146 0.01649125006961122 0.01500000000000001
    vertex 0.03267864079457907 0.01875614278303422 0.015
    vertex 0.0308459113142505 0.01769447432361719 0.01
  endloop
endfacet
facet normal -0.501254 0.8653 -1.9196e-16
  outer loop
    vertex 0.03695500958201241 0.02123336918834063 0.009999999999999972
    vertex 0.03292300472528955 0.01889769857762316 0.004999999999999998
    vertex 0.0308459113142505 0.01769447432361719 0.01
  endloop
endfacet
facet normal -0.501254 0.8653 0
  outer loop
    vertex 0.03267864079457907 0.01875614278303422 0.015
    vertex 0.03695500958201241 0.02123336918834063 0.009999999999999972
    vertex 0.0308459113142505 0.01769447432361719 0.01
  endloop
endfacet
facet normal -0.501254 0.8653 -1.4397e-16
  outer loop
    vertex 0.02901318183392193 0.01663280586420015 0.005000000000000006
    vertex 0.0247368130464886 0.01415557945889375 0.01000000000000003
    vertex 0.0308459113142505 0.01769447432361719 0.01
  endloop
endfacet
facet normal -0.501254 0.8653 3.83919e-16
  outer loop
    vertex 0.0247368130464886 0.01415557945889375 0.01000000000000003
    vertex 0.02876881790321146 0.01649125006961122 0.01500000000000001
    vertex 0.0308459113142505 0.01769447432361719 0.01
  endloop
endfacet
facet normal -0.957853 -0.287259 7.7949e-16
  outer loop
    vertex 0.02685943228762141 0.007077789729446879 0.01000000000000003
    vertex 0.0247368130464886 0.01415557945889375 0.009999999999999972
    vertex 0.025798122667055 0.01061668459417031 0.004999999999999999
  endloop
endfacet
facet normal -0.957853 -0.287259 -7.56564e-16
  outer loop
    vertex 0.0247368130464886 0.01415557945889375 0.009999999999999972
    vertex 0.02685943228762141 0.007077789729446879 0.01000000000000003
    vertex 0.025798122667055 0.01061668459417031 0.015
  endloop
endfacet
facet normal -0.957853 -0.287259 -7.56564e-16
  outer loop
    vertex 0.0247368130464886 0.01415557945889375 0
    vertex 0.02685943228762141 0.007077789729446879 0
    vertex 0.025798122667055 0.01061668459417031 0.004999999999999999
  endloop
endfacet
facet normal -0.957853 -0.287259 7.7949e-16
  outer loop
    vertex 0.02685943228762141 0.007077789729446879 0.02
    vertex 0.0247368130464886 0.01415557945889375 0.02
    vertex 0.025798122667055 0.01061668459417031 0.015
  endloop
endfacet
facet normal -0.957853 -0.287259 -0
  outer loop
    vertex 0.0247368130464886 0.01415557945889375 0.009999999999999972
    vertex 0.0247368130464886 0.01415557945889375 0
    vertex 0.025798122667055 0.01061668459417031 0.004999999999999999
  endloop
endfacet
facet normal -0.957853 -0.287259 -0
  outer loop
    vertex 0.0247368130464886 0.01415557945889375 0.02
    vertex 0.0247368130464886 0.01415557945889375 0.009999999999999972
    vertex 0.025798122667055 0.01061668459417031 0.015
  endloop
endfacet
facet normal -0.957853 -0.287259 0
  outer loop
    vertex 0.02685943228762141 0.007077789729446879 0
    vertex 0.02685943228762141 0.007077789729446879 0.01000000000000003
    vertex 0.025798122667055 0.01061668459417031 0.004999999999999999
  endloop
endfacet
facet normal -0.957853 -0.287259 0
  outer loop
    vertex 0.02685943228762141 0.007077789729446879 0.01000000000000003
    vertex 0.02685943228762141 0.007077789729446879 0.02
    vertex 0.025798122667055 0.01061668459417031 0.015
  endloop
endfacet
endsolid Created by Gmsh
