solid Created by Gmsh
facet normal 1 0 0
  outer loop
    vertex 0.04 0.05815447536515557 0
    vertex 0.04 0.06 0
    vertex 0.04 0.06 0.009999999999999972
  endloop
endfacet
facet normal 1 0 0
  outer loop
    vertex 0.04 0.05815447536515557 0.01000000000000003
    vertex 0.04 0.06 0.02
    vertex 0.04 0.05815447536515557 0.02
  endloop
endfacet
facet normal 1 0 -0
  outer loop
    vertex 0.04 0.06 0.009999999999999972
    vertex 0.04 0.06 0.02
    vertex 0.04 0.05815447536515557 0.01000000000000003
  endloop
endfacet
facet normal 1 0 0
  outer loop
    vertex 0.04 0.05815447536515557 0
    vertex 0.04 0.06 0.009999999999999972
    vertex 0.04 0.05815447536515557 0.01000000000000003
  endloop
endfacet
facet normal 0.639739 0.768592 -1.26084e-15
  outer loop
    vertex 0.04873346295113153 0.05088516594451113 0.02
    vertex 0.04436673147556576 0.05451982065483334 0.01432426114969104
    vertex 0.04 0.05815447536515557 0.02
  endloop
endfacet
facet normal 0.639739 0.768592 1.24914e-15
  outer loop
    vertex 0.04 0.05815447536515557 0
    vertex 0.04436673147556576 0.05451982065483334 0.005728862973760926
    vertex 0.04873346295113153 0.05088516594451113 0
  endloop
endfacet
facet normal 0.639739 0.768592 -0
  outer loop
    vertex 0.04436673147556576 0.05451982065483334 0.005728862973760926
    vertex 0.04436673147556576 0.05451982065483334 0.01432426114969104
    vertex 0.04873346295113153 0.05088516594451113 0.01000000000000003
  endloop
endfacet
facet normal 0.639739 0.768592 0
  outer loop
    vertex 0.04 0.05815447536515557 0.02
    vertex 0.04436673147556576 0.05451982065483334 0.01432426114969104
    vertex 0.04 0.05815447536515557 0.009999999999999972
  endloop
endfacet
facet normal 0.639739 0.768592 -0
  outer loop
    vertex 0.04873346295113153 0.05088516594451113 0
    vertex 0.04436673147556576 0.05451982065483334 0.005728862973760926
    vertex 0.04873346295113153 0.05088516594451113 0.01000000000000003
  endloop
endfacet
facet normal 0.639739 0.768592 0
  outer loop
    vertex 0.04 0.05815447536515557 0.009999999999999972
    vertex 0.04436673147556576 0.05451982065483334 0.01432426114969104
    vertex 0.04436673147556576 0.05451982065483334 0.005728862973760926
  endloop
endfacet
facet normal 0.639739 0.768592 -0
  outer loop
    vertex 0.04873346295113153 0.05088516594451113 0.01000000000000003
    vertex 0.04436673147556576 0.05451982065483334 0.01432426114969104
    vertex 0.04873346295113153 0.05088516594451113 0.02
  endloop
endfacet
facet normal 0.639739 0.768592 0
  outer loop
    vertex 0.04 0.05815447536515557 0.009999999999999972
    vertex 0.04436673147556576 0.05451982065483334 0.005728862973760926
    vertex 0.04 0.05815447536515557 0
  endloop
endfacet
facet normal 0.967994 -0.250973 0
  outer loop
    vertex 0.04873346295113153 0.05088516594451113 0.02
    vertex 0.04779110221216475 0.0472505112341889 0.015
    vertex 0.04873346295113153 0.05088516594451113 0.009999999999999972
  endloop
endfacet
facet normal 0.967994 -0.250973 0
  outer loop
    vertex 0.04684874147319798 0.04361585652386668 0
    vertex 0.04779110221216475 0.0472505112341889 0.005
    vertex 0.04684874147319798 0.04361585652386668 0.01000000000000003
  endloop
endfacet
facet normal 0.967994 -0.250973 0
  outer loop
    vertex 0.04873346295113153 0.05088516594451113 0.009999999999999972
    vertex 0.04779110221216475 0.0472505112341889 0.005
    vertex 0.04873346295113153 0.05088516594451113 0
  endloop
endfacet
facet normal 0.967994 -0.250973 0
  outer loop
    vertex 0.04684874147319798 0.04361585652386668 0.01000000000000003
    vertex 0.04779110221216475 0.0472505112341889 0.015
    vertex 0.04684874147319798 0.04361585652386668 0.02
  endloop
endfacet
facet normal 0.967994 -0.250973 -4.96287e-16
  outer loop
    vertex 0.04684874147319798 0.04361585652386668 0.01000000000000003
    vertex 0.04779110221216475 0.0472505112341889 0.005
    vertex 0.04873346295113153 0.05088516594451113 0.009999999999999972
  endloop
endfacet
facet normal 0.967994 -0.250973 4.96287e-16
  outer loop
    vertex 0.04873346295113153 0.05088516594451113 0.009999999999999972
    vertex 0.04779110221216475 0.0472505112341889 0.015
    vertex 0.04684874147319798 0.04361585652386668 0.01000000000000003
  endloop
endfacet
facet normal 0.967994 -0.250973 4.96287e-16
  outer loop
    vertex 0.04873346295113153 0.05088516594451113 0
    vertex 0.04779110221216475 0.0472505112341889 0.005
    vertex 0.04684874147319798 0.04361585652386668 0
  endloop
endfacet
facet normal 0.967994 -0.250973 -4.96287e-16
  outer loop
    vertex 0.04684874147319798 0.04361585652386668 0.02
    vertex 0.04779110221216475 0.0472505112341889 0.015
    vertex 0.04873346295113153 0.05088516594451113 0.02
  endloop
endfacet
facet normal 0.704258 0.709945 5.25193e-16
  outer loop
    vertex 0.04684874147319798 0.04361585652386668 0
    vertex 0.05051274661582316 0.03998120181354445 0.004999999999999987
    vertex 0.05417675175844835 0.03634654710322223 0
  endloop
endfacet
facet normal 0.704258 0.709945 -4.59544e-16
  outer loop
    vertex 0.05417675175844835 0.03634654710322223 0.02
    vertex 0.05051274661582315 0.03998120181354447 0.01499999999999999
    vertex 0.04684874147319798 0.04361585652386668 0.02
  endloop
endfacet
facet normal 0.704258 0.709945 -0
  outer loop
    vertex 0.05417675175844835 0.03634654710322223 0
    vertex 0.05051274661582316 0.03998120181354445 0.004999999999999987
    vertex 0.05417675175844835 0.03634654710322223 0.01000000000000003
  endloop
endfacet
facet normal 0.704258 0.709945 0
  outer loop
    vertex 0.04684874147319798 0.04361585652386668 0.02
    vertex 0.05051274661582315 0.03998120181354447 0.01499999999999999
    vertex 0.04684874147319798 0.04361585652386668 0.009999999999999972
  endloop
endfacet
facet normal 0.704258 0.709945 -3.28245e-17
  outer loop
    vertex 0.04684874147319798 0.04361585652386668 0.009999999999999972
    vertex 0.05051274661582315 0.03998120181354447 0.01499999999999999
    vertex 0.05051274661582316 0.03998120181354445 0.004999999999999987
  endloop
endfacet
facet normal 0.704258 0.709945 -7.89229e-18
  outer loop
    vertex 0.05051274661582316 0.03998120181354445 0.004999999999999987
    vertex 0.05051274661582315 0.03998120181354447 0.01499999999999999
    vertex 0.05417675175844835 0.03634654710322223 0.01000000000000003
  endloop
endfacet
facet normal 0.704258 0.709945 0
  outer loop
    vertex 0.04684874147319798 0.04361585652386668 0.009999999999999972
    vertex 0.05051274661582316 0.03998120181354445 0.004999999999999987
    vertex 0.04684874147319798 0.04361585652386668 0
  endloop
endfacet
facet normal 0.704258 0.709945 -0
  outer loop
    vertex 0.05417675175844835 0.03634654710322223 0.01000000000000003
    vertex 0.05051274661582315 0.03998120181354447 0.01499999999999999
    vertex 0.05417675175844835 0.03634654710322223 0.02
  endloop
endfacet
facet normal 0.630092 -0.77652 -9.22732e-16
  outer loop
    vertex 0.04521812001503842 0.02907723768257778 0.02
    vertex 0.04969743588674338 0.03271189239290001 0.01427113702623907
    vertex 0.05417675175844835 0.03634654710322223 0.02
  endloop
endfacet
facet normal 0.630092 -0.77652 9.31368e-16
  outer loop
    vertex 0.05417675175844835 0.03634654710322223 0
    vertex 0.04969743588674338 0.03271189239290001 0.005675738850308962
    vertex 0.04521812001503842 0.02907723768257778 0
  endloop
endfacet
facet normal 0.630092 -0.77652 0
  outer loop
    vertex 0.04521812001503842 0.02907723768257778 0.01000000000000003
    vertex 0.04969743588674338 0.03271189239290001 0.005675738850308962
    vertex 0.04969743588674338 0.03271189239290001 0.01427113702623907
  endloop
endfacet
facet normal 0.630092 -0.77652 0
  outer loop
    vertex 0.04969743588674338 0.03271189239290001 0.01427113702623907
    vertex 0.04969743588674338 0.03271189239290001 0.005675738850308962
    vertex 0.05417675175844835 0.03634654710322223 0.009999999999999972
  endloop
endfacet
facet normal 0.630092 -0.77652 0
  outer loop
    vertex 0.04521812001503842 0.02907723768257778 0
    vertex 0.04969743588674338 0.03271189239290001 0.005675738850308962
    vertex 0.04521812001503842 0.02907723768257778 0.01000000000000003
  endloop
endfacet
facet normal 0.630092 -0.77652 0
  outer loop
    vertex 0.05417675175844835 0.03634654710322223 0.02
    vertex 0.04969743588674338 0.03271189239290001 0.01427113702623907
    vertex 0.05417675175844835 0.03634654710322223 0.009999999999999972
  endloop
endfacet
facet normal 0.630092 -0.77652 0
  outer loop
    vertex 0.05417675175844835 0.03634654710322223 0.009999999999999972
    vertex 0.04969743588674338 0.03271189239290001 0.005675738850308962
    vertex 0.05417675175844835 0.03634654710322223 0
  endloop
endfacet
facet normal 0.630092 -0.77652 0
  outer loop
    vertex 0.04521812001503842 0.02907723768257778 0.01000000000000003
    vertex 0.04969743588674338 0.03271189239290001 0.01427113702623907
    vertex 0.04521812001503842 0.02907723768257778 0.02
  endloop
endfacet
facet normal 0.483212 -0.875503 3.84833e-16
  outer loop
    vertex 0.0386327110212592 0.02544258297225557 0.02
    vertex 0.03872870823691196 0.02549556627707075 0.01233703727714298
    vertex 0.04521812001503842 0.02907723768257778 0.02
  endloop
endfacet
facet normal 0.483212 -0.875503 4.11468e-16
  outer loop
    vertex 0.03204730202747998 0.02180792826193334 0.02
    vertex 0.03872870823691196 0.02549556627707075 0.01233703727714298
    vertex 0.0386327110212592 0.02544258297225557 0.02
  endloop
endfacet
facet normal 0.483212 -0.875503 0
  outer loop
    vertex 0.04521812001503842 0.02907723768257778 0.02
    vertex 0.03872870823691196 0.02549556627707075 0.01233703727714298
    vertex 0.04521812001503842 0.02907723768257778 0.009999999999999972
  endloop
endfacet
facet normal 0.483212 -0.875503 0
  outer loop
    vertex 0.03204730202747998 0.02180792826193334 0.01000000000000003
    vertex 0.03872870823691196 0.02549556627707075 0.01233703727714298
    vertex 0.03204730202747998 0.02180792826193334 0.02
  endloop
endfacet
facet normal 0.483212 -0.875503 0
  outer loop
    vertex 0.03204730202747998 0.02180792826193334 0
    vertex 0.03665708832312543 0.02435218655915889 0.005348674897179241
    vertex 0.03204730202747998 0.02180792826193334 0.01000000000000003
  endloop
endfacet
facet normal 0.483212 -0.875503 0
  outer loop
    vertex 0.04521812001503842 0.02907723768257778 0.009999999999999972
    vertex 0.04118651123538157 0.02685209026121059 0.005383673167760309
    vertex 0.04521812001503842 0.02907723768257778 0
  endloop
endfacet
facet normal 0.483212 -0.875503 -5.68451e-16
  outer loop
    vertex 0.03863271102125919 0.02544258297225556 0
    vertex 0.03665708832312543 0.02435218655915889 0.005348674897179241
    vertex 0.03204730202747998 0.02180792826193334 0
  endloop
endfacet
facet normal 0.483212 -0.875503 -2.51002e-16
  outer loop
    vertex 0.04521812001503842 0.02907723768257778 0
    vertex 0.04118651123538157 0.02685209026121059 0.005383673167760309
    vertex 0.03863271102125919 0.02544258297225556 0
  endloop
endfacet
facet normal 0.483212 -0.875503 -1.64374e-16
  outer loop
    vertex 0.03665708832312543 0.02435218655915889 0.005348674897179241
    vertex 0.04118651123538157 0.02685209026121059 0.005383673167760309
    vertex 0.03872870823691196 0.02549556627707075 0.01233703727714298
  endloop
endfacet
facet normal 0.483212 -0.875503 -4.42588e-16
  outer loop
    vertex 0.03863271102125919 0.02544258297225556 0
    vertex 0.04118651123538157 0.02685209026121059 0.005383673167760309
    vertex 0.03665708832312543 0.02435218655915889 0.005348674897179241
  endloop
endfacet
facet normal 0.483212 -0.875503 1.06318e-16
  outer loop
    vertex 0.03665708832312543 0.02435218655915889 0.005348674897179241
    vertex 0.03872870823691196 0.02549556627707075 0.01233703727714298
    vertex 0.03204730202747998 0.02180792826193334 0.01000000000000003
  endloop
endfacet
facet normal 0.483212 -0.875503 -1.50654e-16
  outer loop
    vertex 0.03872870823691196 0.02549556627707075 0.01233703727714298
    vertex 0.04118651123538157 0.02685209026121059 0.005383673167760309
    vertex 0.04521812001503842 0.02907723768257778 0.009999999999999972
  endloop
endfacet
facet normal 0.999998 0.00192806 0
  outer loop
    vertex 0.03206131773855964 0.01453861884128889 0.01000000000000003
    vertex 0.03205430988301981 0.01817327355161111 0.005000000000000001
    vertex 0.03204730202747998 0.02180792826193334 0.009999999999999972
  endloop
endfacet
facet normal 0.999998 0.00192806 0
  outer loop
    vertex 0.03204730202747998 0.02180792826193334 0.009999999999999972
    vertex 0.03205430988301981 0.01817327355161111 0.015
    vertex 0.03206131773855964 0.01453861884128889 0.01000000000000003
  endloop
endfacet
facet normal 0.999998 0.00192806 0
  outer loop
    vertex 0.03204730202747998 0.02180792826193334 0
    vertex 0.03205430988301981 0.01817327355161111 0.005000000000000001
    vertex 0.03206131773855964 0.01453861884128889 0
  endloop
endfacet
facet normal 0.999998 0.00192806 0
  outer loop
    vertex 0.03206131773855964 0.01453861884128889 0.02
    vertex 0.03205430988301981 0.01817327355161111 0.015
    vertex 0.03204730202747998 0.02180792826193334 0.02
  endloop
endfacet
facet normal 0.999998 0.00192806 0
  outer loop
    vertex 0.03204730202747998 0.02180792826193334 0.009999999999999972
    vertex 0.03205430988301981 0.01817327355161111 0.005000000000000001
    vertex 0.03204730202747998 0.02180792826193334 0
  endloop
endfacet
facet normal 0.999998 0.00192806 0
  outer loop
    vertex 0.03204730202747998 0.02180792826193334 0.02
    vertex 0.03205430988301981 0.01817327355161111 0.015
    vertex 0.03204730202747998 0.02180792826193334 0.009999999999999972
  endloop
endfacet
facet normal 0.999998 0.00192806 -0
  outer loop
    vertex 0.03206131773855964 0.01453861884128889 0
    vertex 0.03205430988301981 0.01817327355161111 0.005000000000000001
    vertex 0.03206131773855964 0.01453861884128889 0.01000000000000003
  endloop
endfacet
facet normal 0.999998 0.00192806 -0
  outer loop
    vertex 0.03206131773855964 0.01453861884128889 0.01000000000000003
    vertex 0.03205430988301981 0.01817327355161111 0.015
    vertex 0.03206131773855964 0.01453861884128889 0.02
  endloop
endfacet
facet normal 0.916729 0.39951 0
  outer loop
    vertex 0.03206131773855964 0.01453861884128889 0.02
    vertex 0.03364530029611106 0.01090396413096667 0.015
    vertex 0.03206131773855964 0.01453861884128889 0.009999999999999972
  endloop
endfacet
facet normal 0.916729 0.39951 -0
  outer loop
    vertex 0.03522928285366246 0.007269309420644444 0
    vertex 0.03364530029611106 0.01090396413096667 0.005000000000000001
    vertex 0.03522928285366246 0.007269309420644444 0.01000000000000003
  endloop
endfacet
facet normal 0.916729 0.39951 0
  outer loop
    vertex 0.03206131773855964 0.01453861884128889 0.009999999999999972
    vertex 0.03364530029611106 0.01090396413096667 0.005000000000000001
    vertex 0.03206131773855964 0.01453861884128889 0
  endloop
endfacet
facet normal 0.916729 0.39951 -0
  outer loop
    vertex 0.03522928285366246 0.007269309420644444 0.01000000000000003
    vertex 0.03364530029611106 0.01090396413096667 0.015
    vertex 0.03522928285366246 0.007269309420644444 0.02
  endloop
endfacet
facet normal 0.916729 0.39951 -1.53819e-15
  outer loop
    vertex 0.03206131773855964 0.01453861884128889 0.009999999999999972
    vertex 0.03364530029611106 0.01090396413096667 0.015
    vertex 0.03522928285366246 0.007269309420644444 0.01000000000000003
  endloop
endfacet
facet normal 0.916729 0.39951 1.58092e-15
  outer loop
    vertex 0.03522928285366246 0.007269309420644444 0.01000000000000003
    vertex 0.03364530029611106 0.01090396413096667 0.005000000000000001
    vertex 0.03206131773855964 0.01453861884128889 0.009999999999999972
  endloop
endfacet
facet normal 0.916729 0.39951 1.58092e-15
  outer loop
    vertex 0.03522928285366246 0.007269309420644444 0.02
    vertex 0.03364530029611106 0.01090396413096667 0.015
    vertex 0.03206131773855964 0.01453861884128889 0.02
  endloop
endfacet
facet normal 0.916729 0.39951 -1.53819e-15
  outer loop
    vertex 0.03206131773855964 0.01453861884128889 0
    vertex 0.03364530029611106 0.01090396413096667 0.005000000000000001
    vertex 0.03522928285366246 0.007269309420644444 0
  endloop
endfacet
endsolid Created by Gmsh
