solid Created by Gmsh
facet normal 0.999989 0.00477782 1.11791e-16
  outer loop
    vertex 0.007944358602601462 0.01164564945609958 0
    vertex 0.007958268951951095 0.008734237092074684 0.01160939381951359
    vertex 0.008 0 0
  endloop
endfacet
facet normal 0.999989 0.00477782 -9.55415e-17
  outer loop
    vertex 0.007777434410405846 0.04658259782439827 0.02
    vertex 0.00776352406105621 0.04949401018842316 0.008390606180486412
    vertex 0.007721793013007307 0.05822824728049784 0.02
  endloop
endfacet
facet normal 0.999989 0.00477782 0
  outer loop
    vertex 0.007721793013007307 0.05822824728049784 0.009999999999999972
    vertex 0.00776352406105621 0.04949401018842316 0.008390606180486412
    vertex 0.007721793013007307 0.05822824728049784 0
  endloop
endfacet
facet normal 0.999989 0.00477782 -0
  outer loop
    vertex 0.008 0 0.01000000000000003
    vertex 0.007958268951951095 0.008734237092074684 0.01160939381951359
    vertex 0.008 0 0.02
  endloop
endfacet
facet normal 0.999989 0.00477782 -1.60365e-16
  outer loop
    vertex 0.008 0 0.02
    vertex 0.007958268951951095 0.008734237092074684 0.01160939381951359
    vertex 0.007944358602601462 0.01164564945609959 0.02
  endloop
endfacet
facet normal 0.999989 0.00477782 1.25692e-16
  outer loop
    vertex 0.007721793013007307 0.05822824728049784 0
    vertex 0.00776352406105621 0.04949401018842316 0.008390606180486412
    vertex 0.007777434410405846 0.04658259782439825 0
  endloop
endfacet
facet normal 0.999989 0.00477782 9.76533e-17
  outer loop
    vertex 0.007807573500663387 0.04027453770234433 0.009731767696747736
    vertex 0.007861282905096698 0.02903325107458157 0.009955294616124622
    vertex 0.007833075807804384 0.03493694836829871 0
  endloop
endfacet
facet normal 0.999989 0.00477782 7.9909e-17
  outer loop
    vertex 0.007833075807804384 0.03493694836829871 0
    vertex 0.007861282905096698 0.02903325107458157 0.009955294616124622
    vertex 0.007888717205202922 0.02329129891219916 0
  endloop
endfacet
facet normal 0.999989 0.00477782 1.68794e-16
  outer loop
    vertex 0.007888717205202922 0.02329129891219916 0
    vertex 0.007914283912109426 0.01794023081720895 0.0102607814059397
    vertex 0.007944358602601462 0.01164564945609958 0
  endloop
endfacet
facet normal 0.999989 0.00477782 -8.48061e-17
  outer loop
    vertex 0.007833075807804384 0.03493694836829869 0.02
    vertex 0.007861282905096698 0.02903325107458157 0.009955294616124622
    vertex 0.007807573500663387 0.04027453770234433 0.009731767696747736
  endloop
endfacet
facet normal 0.999989 0.00477782 -1.75033e-16
  outer loop
    vertex 0.007944358602601462 0.01164564945609959 0.02
    vertex 0.007914283912109426 0.01794023081720895 0.0102607814059397
    vertex 0.007888717205202922 0.02329129891219914 0.02
  endloop
endfacet
facet normal 0.999989 0.00477782 -6.92414e-17
  outer loop
    vertex 0.007888717205202922 0.02329129891219914 0.02
    vertex 0.007861282905096698 0.02903325107458157 0.009955294616124622
    vertex 0.007833075807804384 0.03493694836829869 0.02
  endloop
endfacet
facet normal 0.999989 0.00477782 8.96564e-17
  outer loop
    vertex 0.007861282905096698 0.02903325107458157 0.009955294616124622
    vertex 0.007914283912109426 0.01794023081720895 0.0102607814059397
    vertex 0.007888717205202922 0.02329129891219916 0
  endloop
endfacet
facet normal 0.999989 0.00477782 1.13508e-16
  outer loop
    vertex 0.007777434410405846 0.04658259782439825 0
    vertex 0.007807573500663387 0.04027453770234433 0.009731767696747736
    vertex 0.007833075807804384 0.03493694836829871 0
  endloop
endfacet
facet normal 0.999989 0.00477782 -1.05364e-16
  outer loop
    vertex 0.007833075807804384 0.03493694836829869 0.02
    vertex 0.007807573500663387 0.04027453770234433 0.009731767696747736
    vertex 0.007777434410405846 0.04658259782439827 0.02
  endloop
endfacet
facet normal 0.999989 0.00477782 -8.15767e-17
  outer loop
    vertex 0.007888717205202922 0.02329129891219914 0.02
    vertex 0.007914283912109426 0.01794023081720895 0.0102607814059397
    vertex 0.007861282905096698 0.02903325107458157 0.009955294616124622
  endloop
endfacet
facet normal 0.999989 0.00477782 1.54267e-16
  outer loop
    vertex 0.007914283912109426 0.01794023081720895 0.0102607814059397
    vertex 0.007958268951951095 0.008734237092074684 0.01160939381951359
    vertex 0.007944358602601462 0.01164564945609958 0
  endloop
endfacet
facet normal 0.999989 0.00477782 -1.1242e-16
  outer loop
    vertex 0.007807573500663387 0.04027453770234433 0.009731767696747736
    vertex 0.00776352406105621 0.04949401018842316 0.008390606180486412
    vertex 0.007777434410405846 0.04658259782439827 0.02
  endloop
endfacet
facet normal 0.999989 0.00477782 1.34853e-16
  outer loop
    vertex 0.007777434410405846 0.04658259782439825 0
    vertex 0.00776352406105621 0.04949401018842316 0.008390606180486412
    vertex 0.007807573500663387 0.04027453770234433 0.009731767696747736
  endloop
endfacet
facet normal 0.999989 0.00477782 -2.0267e-16
  outer loop
    vertex 0.007944358602601462 0.01164564945609959 0.02
    vertex 0.007958268951951095 0.008734237092074684 0.01160939381951359
    vertex 0.007914283912109426 0.01794023081720895 0.0102607814059397
  endloop
endfacet
facet normal 0.999989 0.00477782 -0
  outer loop
    vertex 0.008 0 0
    vertex 0.007958268951951095 0.008734237092074684 0.01160939381951359
    vertex 0.008 0 0.01000000000000003
  endloop
endfacet
facet normal 0.999989 0.00477782 0
  outer loop
    vertex 0.007721793013007307 0.05822824728049784 0.02
    vertex 0.00776352406105621 0.04949401018842316 0.008390606180486412
    vertex 0.007721793013007307 0.05822824728049784 0.009999999999999972
  endloop
endfacet
endsolid Created by Gmsh
