solid Created by Gmsh
facet normal -0.898703 0.438558 0
  outer loop
    vertex 0.03305423414917565 0.05768723467446147 0.02
    vertex 0.03305423414917565 0.05768723467446147 0.009999999999999972
    vertex 0.03129480796100618 0.05408178250730763 0.015
  endloop
endfacet
facet normal -0.898703 0.438558 0
  outer loop
    vertex 0.02953538177283672 0.05047633034015379 0
    vertex 0.02953538177283672 0.05047633034015379 0.01000000000000003
    vertex 0.03129480796100618 0.05408178250730763 0.005
  endloop
endfacet
facet normal -0.898703 0.438558 0
  outer loop
    vertex 0.03305423414917565 0.05768723467446147 0.009999999999999972
    vertex 0.03305423414917565 0.05768723467446147 0
    vertex 0.03129480796100618 0.05408178250730763 0.005
  endloop
endfacet
facet normal -0.898703 0.438558 0
  outer loop
    vertex 0.02953538177283672 0.05047633034015379 0.01000000000000003
    vertex 0.02953538177283672 0.05047633034015379 0.02
    vertex 0.03129480796100618 0.05408178250730763 0.015
  endloop
endfacet
facet normal -0.898703 0.438558 6.334e-16
  outer loop
    vertex 0.02953538177283672 0.05047633034015379 0.02
    vertex 0.03305423414917565 0.05768723467446147 0.02
    vertex 0.03129480796100618 0.05408178250730763 0.015
  endloop
endfacet
facet normal -0.898703 0.438558 6.334e-16
  outer loop
    vertex 0.02953538177283672 0.05047633034015379 0.01000000000000003
    vertex 0.03305423414917565 0.05768723467446147 0.009999999999999972
    vertex 0.03129480796100618 0.05408178250730763 0.005
  endloop
endfacet
facet normal -0.898703 0.438558 -5.91173e-16
  outer loop
    vertex 0.03305423414917565 0.05768723467446147 0
    vertex 0.02953538177283672 0.05047633034015379 0
    vertex 0.03129480796100618 0.05408178250730763 0.005
  endloop
endfacet
facet normal -0.898703 0.438558 -5.91173e-16
  outer loop
    vertex 0.03305423414917565 0.05768723467446147 0.009999999999999972
    vertex 0.02953538177283672 0.05047633034015379 0.01000000000000003
    vertex 0.03129480796100618 0.05408178250730763 0.015
  endloop
endfacet
facet normal -0.658712 -0.752395 1.12127e-15
  outer loop
    vertex 0.02953538177283672 0.05047633034015379 0
    vertex 0.03777183483757203 0.0432654260058461 0
    vertex 0.03365360830520439 0.04687087817299994 0.005520616409829248
  endloop
endfacet
facet normal -0.658712 -0.752395 -6.19739e-16
  outer loop
    vertex 0.03777183483757203 0.0432654260058461 0.02
    vertex 0.02953538177283672 0.05047633034015379 0.02
    vertex 0.03365360830520436 0.04687087817299996 0.0145064877347891
  endloop
endfacet
facet normal -0.658712 -0.752395 -0
  outer loop
    vertex 0.02953538177283672 0.05047633034015379 0.02
    vertex 0.02953538177283672 0.05047633034015379 0.009999999999999972
    vertex 0.03365360830520436 0.04687087817299996 0.0145064877347891
  endloop
endfacet
facet normal -0.658712 -0.752395 0
  outer loop
    vertex 0.03777183483757203 0.0432654260058461 0
    vertex 0.03777183483757203 0.0432654260058461 0.01000000000000003
    vertex 0.03365360830520439 0.04687087817299994 0.005520616409829248
  endloop
endfacet
facet normal -0.658712 -0.752395 -0
  outer loop
    vertex 0.02953538177283672 0.05047633034015379 0.009999999999999972
    vertex 0.02953538177283672 0.05047633034015379 0
    vertex 0.03365360830520439 0.04687087817299994 0.005520616409829248
  endloop
endfacet
facet normal -0.658712 -0.752395 0
  outer loop
    vertex 0.03777183483757203 0.0432654260058461 0.01000000000000003
    vertex 0.03777183483757203 0.0432654260058461 0.02
    vertex 0.03365360830520436 0.04687087817299996 0.0145064877347891
  endloop
endfacet
facet normal -0.658712 -0.752395 -2.91631e-16
  outer loop
    vertex 0.03365360830520439 0.04687087817299994 0.005520616409829248
    vertex 0.03777183483757203 0.0432654260058461 0.01000000000000003
    vertex 0.03365360830520436 0.04687087817299996 0.0145064877347891
  endloop
endfacet
facet normal -0.658712 -0.752395 -3.09991e-16
  outer loop
    vertex 0.02953538177283672 0.05047633034015379 0.009999999999999972
    vertex 0.03365360830520439 0.04687087817299994 0.005520616409829248
    vertex 0.03365360830520436 0.04687087817299996 0.0145064877347891
  endloop
endfacet
facet normal -0.996217 0.0868951 6.31915e-16
  outer loop
    vertex 0.03714286330462 0.03605452167153841 0.01000000000000003
    vertex 0.03777183483757203 0.0432654260058461 0.009999999999999972
    vertex 0.03745734907109601 0.03965997383869226 0.005
  endloop
endfacet
facet normal -0.996217 0.0868951 -6.31915e-16
  outer loop
    vertex 0.03777183483757203 0.0432654260058461 0.009999999999999972
    vertex 0.03714286330462 0.03605452167153841 0.01000000000000003
    vertex 0.03745734907109601 0.03965997383869226 0.015
  endloop
endfacet
facet normal -0.996217 0.0868951 -6.31915e-16
  outer loop
    vertex 0.03777183483757203 0.0432654260058461 0
    vertex 0.03714286330462 0.03605452167153841 0
    vertex 0.03745734907109601 0.03965997383869226 0.005
  endloop
endfacet
facet normal -0.996217 0.0868951 6.31915e-16
  outer loop
    vertex 0.03714286330462 0.03605452167153841 0.02
    vertex 0.03777183483757203 0.0432654260058461 0.02
    vertex 0.03745734907109601 0.03965997383869226 0.015
  endloop
endfacet
facet normal -0.996217 0.0868951 0
  outer loop
    vertex 0.03777183483757203 0.0432654260058461 0.009999999999999972
    vertex 0.03777183483757203 0.0432654260058461 0
    vertex 0.03745734907109601 0.03965997383869226 0.005
  endloop
endfacet
facet normal -0.996217 0.0868951 0
  outer loop
    vertex 0.03777183483757203 0.0432654260058461 0.02
    vertex 0.03777183483757203 0.0432654260058461 0.009999999999999972
    vertex 0.03745734907109601 0.03965997383869226 0.015
  endloop
endfacet
facet normal -0.996217 0.0868951 0
  outer loop
    vertex 0.03714286330462 0.03605452167153841 0
    vertex 0.03714286330462 0.03605452167153841 0.01000000000000003
    vertex 0.03745734907109601 0.03965997383869226 0.005
  endloop
endfacet
facet normal -0.996217 0.0868951 0
  outer loop
    vertex 0.03714286330462 0.03605452167153841 0.01000000000000003
    vertex 0.03714286330462 0.03605452167153841 0.02
    vertex 0.03745734907109601 0.03965997383869226 0.015
  endloop
endfacet
facet normal -0.848884 -0.528578 -0
  outer loop
    vertex 0.03714286330462 0.03605452167153841 0.02
    vertex 0.03714286330462 0.03605452167153841 0.009999999999999972
    vertex 0.03938788512149236 0.03244906950438457 0.015
  endloop
endfacet
facet normal -0.848884 -0.528578 0
  outer loop
    vertex 0.0416329069383647 0.02884361733723073 0
    vertex 0.0416329069383647 0.02884361733723073 0.01000000000000003
    vertex 0.03938788512149236 0.03244906950438457 0.005
  endloop
endfacet
facet normal -0.848884 -0.528578 -0
  outer loop
    vertex 0.03714286330462 0.03605452167153841 0.009999999999999972
    vertex 0.03714286330462 0.03605452167153841 0
    vertex 0.03938788512149236 0.03244906950438457 0.005
  endloop
endfacet
facet normal -0.848884 -0.528578 0
  outer loop
    vertex 0.0416329069383647 0.02884361733723073 0.01000000000000003
    vertex 0.0416329069383647 0.02884361733723073 0.02
    vertex 0.03938788512149236 0.03244906950438457 0.015
  endloop
endfacet
facet normal -0.848884 -0.528578 3.98859e-16
  outer loop
    vertex 0.03714286330462 0.03605452167153841 0
    vertex 0.0416329069383647 0.02884361733723073 0
    vertex 0.03938788512149236 0.03244906950438457 0.005
  endloop
endfacet
facet normal -0.848884 -0.528578 -3.98859e-16
  outer loop
    vertex 0.0416329069383647 0.02884361733723073 0.02
    vertex 0.03714286330462 0.03605452167153841 0.02
    vertex 0.03938788512149236 0.03244906950438457 0.015
  endloop
endfacet
facet normal -0.848884 -0.528578 3.98859e-16
  outer loop
    vertex 0.03714286330462 0.03605452167153841 0.009999999999999972
    vertex 0.0416329069383647 0.02884361733723073 0.01000000000000003
    vertex 0.03938788512149236 0.03244906950438457 0.015
  endloop
endfacet
facet normal -0.848884 -0.528578 -3.98859e-16
  outer loop
    vertex 0.0416329069383647 0.02884361733723073 0.01000000000000003
    vertex 0.03714286330462 0.03605452167153841 0.009999999999999972
    vertex 0.03938788512149236 0.03244906950438457 0.005
  endloop
endfacet
facet normal -0.373281 0.927718 8.78822e-16
  outer loop
    vertex 0.0416329069383647 0.02884361733723073 0
    vertex 0.03267224876909632 0.02523816517007689 0
    vertex 0.03467082683223115 0.02604232235059167 0.00758384149804861
  endloop
endfacet
facet normal -0.373281 0.927718 0
  outer loop
    vertex 0.0416329069383647 0.02884361733723073 0.009999999999999972
    vertex 0.0416329069383647 0.02884361733723073 0
    vertex 0.03467082683223115 0.02604232235059167 0.00758384149804861
  endloop
endfacet
facet normal -0.373281 0.927718 0
  outer loop
    vertex 0.02371159059982793 0.02163271300292305 0.01000000000000003
    vertex 0.02371159059982793 0.02163271300292305 0.02
    vertex 0.03015129992544145 0.02422382444867634 0.0129266693398288
  endloop
endfacet
facet normal -0.373281 0.927718 -3.47145e-16
  outer loop
    vertex 0.02371159059982793 0.02163271300292305 0.02
    vertex 0.03267224876909632 0.02523816517007689 0.02
    vertex 0.03015129992544145 0.02422382444867634 0.0129266693398288
  endloop
endfacet
facet normal -0.373281 0.927718 0
  outer loop
    vertex 0.0416329069383647 0.02884361733723073 0.02
    vertex 0.0416329069383647 0.02884361733723073 0.009999999999999972
    vertex 0.03629031366427686 0.02669394661724451 0.01416933850398691
  endloop
endfacet
facet normal -0.373281 0.927718 0
  outer loop
    vertex 0.02371159059982793 0.02163271300292305 0
    vertex 0.02371159059982793 0.02163271300292305 0.01000000000000003
    vertex 0.02819191968446213 0.02343543908649997 0.005000000000000014
  endloop
endfacet
facet normal -0.373281 0.927718 -6.61777e-16
  outer loop
    vertex 0.03267224876909632 0.02523816517007689 0.02
    vertex 0.0416329069383647 0.02884361733723073 0.02
    vertex 0.03629031366427686 0.02669394661724451 0.01416933850398691
  endloop
endfacet
facet normal -0.373281 0.927718 9.82188e-16
  outer loop
    vertex 0.03267224876909632 0.02523816517007689 0
    vertex 0.02371159059982793 0.02163271300292305 0
    vertex 0.02819191968446213 0.02343543908649997 0.005000000000000014
  endloop
endfacet
facet normal -0.373281 0.927718 -2.08111e-16
  outer loop
    vertex 0.02371159059982793 0.02163271300292305 0.01000000000000003
    vertex 0.03015129992544145 0.02422382444867634 0.0129266693398288
    vertex 0.02819191968446213 0.02343543908649997 0.005000000000000014
  endloop
endfacet
facet normal -0.373281 0.927718 -1.35796e-16
  outer loop
    vertex 0.03015129992544145 0.02422382444867634 0.0129266693398288
    vertex 0.03467082683223115 0.02604232235059167 0.00758384149804861
    vertex 0.02819191968446213 0.02343543908649997 0.005000000000000014
  endloop
endfacet
facet normal -0.373281 0.927718 8.43226e-17
  outer loop
    vertex 0.03629031366427686 0.02669394661724451 0.01416933850398691
    vertex 0.0416329069383647 0.02884361733723073 0.009999999999999972
    vertex 0.03467082683223115 0.02604232235059167 0.00758384149804861
  endloop
endfacet
facet normal -0.373281 0.927718 1.03652e-15
  outer loop
    vertex 0.03467082683223115 0.02604232235059167 0.00758384149804861
    vertex 0.03267224876909632 0.02523816517007689 0
    vertex 0.02819191968446213 0.02343543908649997 0.005000000000000014
  endloop
endfacet
facet normal -0.373281 0.927718 -1.22731e-16
  outer loop
    vertex 0.03629031366427686 0.02669394661724451 0.01416933850398691
    vertex 0.03467082683223115 0.02604232235059167 0.00758384149804861
    vertex 0.03015129992544145 0.02422382444867634 0.0129266693398288
  endloop
endfacet
facet normal -0.373281 0.927718 -4.38829e-16
  outer loop
    vertex 0.03267224876909632 0.02523816517007689 0.02
    vertex 0.03629031366427686 0.02669394661724451 0.01416933850398691
    vertex 0.03015129992544145 0.02422382444867634 0.0129266693398288
  endloop
endfacet
facet normal -0.419894 -0.907573 2.58466e-16
  outer loop
    vertex 0.03929746212401645 0.01442180866861537 0.02
    vertex 0.03150452636192218 0.01802726083576921 0.02
    vertex 0.03269708353805021 0.01747551653985958 0.01236679625068356
  endloop
endfacet
facet normal -0.419894 -0.907573 0
  outer loop
    vertex 0.03929746212401645 0.01442180866861537 0.01000000000000003
    vertex 0.03929746212401645 0.01442180866861537 0.02
    vertex 0.03269708353805021 0.01747551653985958 0.01236679625068356
  endloop
endfacet
facet normal -0.419894 -0.907573 -0
  outer loop
    vertex 0.02371159059982793 0.02163271300292305 0.02
    vertex 0.02371159059982793 0.02163271300292305 0.009999999999999972
    vertex 0.0277444439277799 0.01976688730963253 0.01502349135358633
  endloop
endfacet
facet normal -0.419894 -0.907573 -0
  outer loop
    vertex 0.02371159059982793 0.02163271300292305 0.009999999999999972
    vertex 0.02371159059982793 0.02163271300292305 0
    vertex 0.02903519296889523 0.01916971391187693 0.00635021501347033
  endloop
endfacet
facet normal -0.419894 -0.907573 0
  outer loop
    vertex 0.03929746212401645 0.01442180866861537 0
    vertex 0.03929746212401645 0.01442180866861537 0.01000000000000003
    vertex 0.03430922472197481 0.01672964898714453 0.005704365835498478
  endloop
endfacet
facet normal -0.419894 -0.907573 2.48549e-16
  outer loop
    vertex 0.02371159059982793 0.02163271300292305 0
    vertex 0.0315045263619222 0.0180272608357692 0
    vertex 0.02903519296889523 0.01916971391187693 0.00635021501347033
  endloop
endfacet
facet normal -0.419894 -0.907573 -1.16693e-16
  outer loop
    vertex 0.02903519296889523 0.01916971391187693 0.00635021501347033
    vertex 0.03269708353805021 0.01747551653985958 0.01236679625068356
    vertex 0.0277444439277799 0.01976688730963253 0.01502349135358633
  endloop
endfacet
facet normal -0.419894 -0.907573 3.70818e-17
  outer loop
    vertex 0.02371159059982793 0.02163271300292305 0.009999999999999972
    vertex 0.02903519296889523 0.01916971391187693 0.00635021501347033
    vertex 0.0277444439277799 0.01976688730963253 0.01502349135358633
  endloop
endfacet
facet normal -0.419894 -0.907573 -1.98224e-16
  outer loop
    vertex 0.03150452636192218 0.01802726083576921 0.02
    vertex 0.02371159059982793 0.02163271300292305 0.02
    vertex 0.0277444439277799 0.01976688730963253 0.01502349135358633
  endloop
endfacet
facet normal -0.419894 -0.907573 6.91725e-17
  outer loop
    vertex 0.0315045263619222 0.0180272608357692 0
    vertex 0.03929746212401645 0.01442180866861537 0
    vertex 0.03430922472197481 0.01672964898714453 0.005704365835498478
  endloop
endfacet
facet normal -0.419894 -0.907573 -3.3819e-16
  outer loop
    vertex 0.03430922472197481 0.01672964898714453 0.005704365835498478
    vertex 0.03269708353805021 0.01747551653985958 0.01236679625068356
    vertex 0.02903519296889523 0.01916971391187693 0.00635021501347033
  endloop
endfacet
facet normal -0.419894 -0.907573 -2.39282e-16
  outer loop
    vertex 0.03430922472197481 0.01672964898714453 0.005704365835498478
    vertex 0.03929746212401645 0.01442180866861537 0.01000000000000003
    vertex 0.03269708353805021 0.01747551653985958 0.01236679625068356
  endloop
endfacet
facet normal -0.419894 -0.907573 1.66461e-16
  outer loop
    vertex 0.03269708353805021 0.01747551653985958 0.01236679625068356
    vertex 0.03150452636192218 0.01802726083576921 0.02
    vertex 0.0277444439277799 0.01976688730963253 0.01502349135358633
  endloop
endfacet
facet normal -0.419894 -0.907573 1.8076e-16
  outer loop
    vertex 0.0315045263619222 0.0180272608357692 0
    vertex 0.03430922472197481 0.01672964898714453 0.005704365835498478
    vertex 0.02903519296889523 0.01916971391187693 0.00635021501347033
  endloop
endfacet
facet normal -0.337268 0.941409 0
  outer loop
    vertex 0.01916979209300156 0.007210904334307683 0.01000000000000003
    vertex 0.01916979209300156 0.007210904334307683 0.02
    vertex 0.02687486132062955 0.009971309140429293 0.01196449772941296
  endloop
endfacet
facet normal -0.337268 0.941409 -2.36654e-16
  outer loop
    vertex 0.01916979209300156 0.007210904334307683 0.02
    vertex 0.029233627108509 0.01081635650146152 0.02
    vertex 0.02687486132062955 0.009971309140429293 0.01196449772941296
  endloop
endfacet
facet normal -0.337268 0.941409 5.21127e-16
  outer loop
    vertex 0.03929746212401645 0.01442180866861537 0
    vertex 0.02923362710850901 0.01081635650146153 0
    vertex 0.03234511191628687 0.01193107167971937 0.007298150127739987
  endloop
endfacet
facet normal -0.337268 0.941409 0
  outer loop
    vertex 0.03929746212401645 0.01442180866861537 0.009999999999999972
    vertex 0.03929746212401645 0.01442180866861537 0
    vertex 0.03234511191628687 0.01193107167971937 0.007298150127739987
  endloop
endfacet
facet normal -0.337268 0.941409 -2.6203e-16
  outer loop
    vertex 0.029233627108509 0.01081635650146152 0.02
    vertex 0.03929746212401645 0.01442180866861537 0.02
    vertex 0.0334686258683931 0.01233357984953804 0.01395225686893382
  endloop
endfacet
facet normal -0.337268 0.941409 3.16939e-16
  outer loop
    vertex 0.02923362710850901 0.01081635650146153 0
    vertex 0.01916979209300156 0.007210904334307683 0
    vertex 0.02420170960075529 0.009013630417884604 0.005000000000000014
  endloop
endfacet
facet normal -0.337268 0.941409 0
  outer loop
    vertex 0.03929746212401645 0.01442180866861537 0.02
    vertex 0.03929746212401645 0.01442180866861537 0.009999999999999972
    vertex 0.0334686258683931 0.01233357984953804 0.01395225686893382
  endloop
endfacet
facet normal -0.337268 0.941409 0
  outer loop
    vertex 0.01916979209300156 0.007210904334307683 0
    vertex 0.01916979209300156 0.007210904334307683 0.01000000000000003
    vertex 0.02420170960075529 0.009013630417884604 0.005000000000000014
  endloop
endfacet
facet normal -0.337268 0.941409 4.88072e-16
  outer loop
    vertex 0.03234511191628687 0.01193107167971937 0.007298150127739987
    vertex 0.02923362710850901 0.01081635650146153 0
    vertex 0.02420170960075529 0.009013630417884604 0.005000000000000014
  endloop
endfacet
facet normal -0.337268 0.941409 1.10375e-16
  outer loop
    vertex 0.02687486132062955 0.009971309140429293 0.01196449772941296
    vertex 0.03234511191628687 0.01193107167971937 0.007298150127739987
    vertex 0.02420170960075529 0.009013630417884604 0.005000000000000014
  endloop
endfacet
facet normal -0.337268 0.941409 -1.98131e-16
  outer loop
    vertex 0.029233627108509 0.01081635650146152 0.02
    vertex 0.0334686258683931 0.01233357984953804 0.01395225686893382
    vertex 0.02687486132062955 0.009971309140429293 0.01196449772941296
  endloop
endfacet
facet normal -0.337268 0.941409 6.58868e-17
  outer loop
    vertex 0.01916979209300156 0.007210904334307683 0.01000000000000003
    vertex 0.02687486132062955 0.009971309140429293 0.01196449772941296
    vertex 0.02420170960075529 0.009013630417884604 0.005000000000000014
  endloop
endfacet
facet normal -0.337268 0.941409 -1.14893e-16
  outer loop
    vertex 0.02687486132062955 0.009971309140429293 0.01196449772941296
    vertex 0.0334686258683931 0.01233357984953804 0.01395225686893382
    vertex 0.03234511191628687 0.01193107167971937 0.007298150127739987
  endloop
endfacet
facet normal -0.337268 0.941409 -4.61182e-17
  outer loop
    vertex 0.0334686258683931 0.01233357984953804 0.01395225686893382
    vertex 0.03929746212401645 0.01442180866861537 0.009999999999999972
    vertex 0.03234511191628687 0.01193107167971937 0.007298150127739987
  endloop
endfacet
endsolid Created by Gmsh
