solid Created by Gmsh
facet normal -0.90075 0.434338 0
  outer loop
    vertex 0.0356750193400841 0.05495550741979227 0.02
    vertex 0.0356750193400841 0.05495550741979227 0.009999999999999972
    vertex 0.03401881364913027 0.05152078820605525 0.015
  endloop
endfacet
facet normal -0.90075 0.434338 0
  outer loop
    vertex 0.03236260795817644 0.04808606899231824 0
    vertex 0.03236260795817644 0.04808606899231824 0.01000000000000003
    vertex 0.03401881364913027 0.05152078820605525 0.005000000000000001
  endloop
endfacet
facet normal -0.90075 0.434338 0
  outer loop
    vertex 0.0356750193400841 0.05495550741979227 0.009999999999999972
    vertex 0.0356750193400841 0.05495550741979227 0
    vertex 0.03401881364913027 0.05152078820605525 0.005000000000000001
  endloop
endfacet
facet normal -0.90075 0.434338 0
  outer loop
    vertex 0.03236260795817644 0.04808606899231824 0.01000000000000003
    vertex 0.03236260795817644 0.04808606899231824 0.02
    vertex 0.03401881364913027 0.05152078820605525 0.015
  endloop
endfacet
facet normal -0.90075 0.434338 6.21973e-16
  outer loop
    vertex 0.03236260795817644 0.04808606899231824 0.02
    vertex 0.0356750193400841 0.05495550741979227 0.02
    vertex 0.03401881364913027 0.05152078820605525 0.015
  endloop
endfacet
facet normal -0.90075 0.434338 6.21973e-16
  outer loop
    vertex 0.03236260795817644 0.04808606899231824 0.01000000000000003
    vertex 0.0356750193400841 0.05495550741979227 0.009999999999999972
    vertex 0.03401881364913027 0.05152078820605525 0.005000000000000001
  endloop
endfacet
facet normal -0.90075 0.434338 -6.664e-16
  outer loop
    vertex 0.0356750193400841 0.05495550741979227 0.009999999999999972
    vertex 0.03236260795817644 0.04808606899231824 0.01000000000000003
    vertex 0.03401881364913027 0.05152078820605525 0.015
  endloop
endfacet
facet normal -0.90075 0.434338 -6.664e-16
  outer loop
    vertex 0.0356750193400841 0.05495550741979227 0
    vertex 0.03236260795817644 0.04808606899231824 0
    vertex 0.03401881364913027 0.05152078820605525 0.005000000000000001
  endloop
endfacet
facet normal -0.652692 -0.757623 1.4064e-15
  outer loop
    vertex 0.03236260795817644 0.04808606899231824 0
    vertex 0.04033641847395881 0.0412166305648442 0
    vertex 0.03634951321606763 0.04465134977858123 0.00549351226521088
  endloop
endfacet
facet normal -0.652692 -0.757623 -1.34118e-15
  outer loop
    vertex 0.04033641847395881 0.0412166305648442 0.02
    vertex 0.03236260795817644 0.04808606899231824 0.02
    vertex 0.03634951321606763 0.04465134977858123 0.01447938359017077
  endloop
endfacet
facet normal -0.652692 -0.757623 0
  outer loop
    vertex 0.04033641847395881 0.0412166305648442 0.01000000000000003
    vertex 0.03634951321606763 0.04465134977858123 0.01447938359017077
    vertex 0.03634951321606763 0.04465134977858123 0.00549351226521088
  endloop
endfacet
facet normal -0.652692 -0.757623 -0
  outer loop
    vertex 0.03634951321606763 0.04465134977858123 0.01447938359017077
    vertex 0.03236260795817644 0.04808606899231824 0.009999999999999972
    vertex 0.03634951321606763 0.04465134977858123 0.00549351226521088
  endloop
endfacet
facet normal -0.652692 -0.757623 -0
  outer loop
    vertex 0.03236260795817644 0.04808606899231824 0.02
    vertex 0.03236260795817644 0.04808606899231824 0.009999999999999972
    vertex 0.03634951321606763 0.04465134977858123 0.01447938359017077
  endloop
endfacet
facet normal -0.652692 -0.757623 0
  outer loop
    vertex 0.04033641847395881 0.0412166305648442 0
    vertex 0.04033641847395881 0.0412166305648442 0.01000000000000003
    vertex 0.03634951321606763 0.04465134977858123 0.00549351226521088
  endloop
endfacet
facet normal -0.652692 -0.757623 -0
  outer loop
    vertex 0.03236260795817644 0.04808606899231824 0.009999999999999972
    vertex 0.03236260795817644 0.04808606899231824 0
    vertex 0.03634951321606763 0.04465134977858123 0.00549351226521088
  endloop
endfacet
facet normal -0.652692 -0.757623 0
  outer loop
    vertex 0.04033641847395881 0.0412166305648442 0.01000000000000003
    vertex 0.04033641847395881 0.0412166305648442 0.02
    vertex 0.03634951321606763 0.04465134977858123 0.01447938359017077
  endloop
endfacet
facet normal -0.942826 0.333285 -6.51027e-16
  outer loop
    vertex 0.04033641847395881 0.0412166305648442 0.009999999999999972
    vertex 0.03790810518672019 0.03434719213737017 0.01000000000000003
    vertex 0.0391222618303395 0.03778191135110719 0.015
  endloop
endfacet
facet normal -0.942826 0.333285 -6.51027e-16
  outer loop
    vertex 0.04033641847395881 0.0412166305648442 0
    vertex 0.03790810518672019 0.03434719213737017 0
    vertex 0.0391222618303395 0.03778191135110719 0.005000000000000001
  endloop
endfacet
facet normal -0.942826 0.333285 6.51027e-16
  outer loop
    vertex 0.03790810518672019 0.03434719213737017 0.02
    vertex 0.04033641847395881 0.0412166305648442 0.02
    vertex 0.0391222618303395 0.03778191135110719 0.015
  endloop
endfacet
facet normal -0.942826 0.333285 6.51027e-16
  outer loop
    vertex 0.03790810518672019 0.03434719213737017 0.01000000000000003
    vertex 0.04033641847395881 0.0412166305648442 0.009999999999999972
    vertex 0.0391222618303395 0.03778191135110719 0.005000000000000001
  endloop
endfacet
facet normal -0.942826 0.333285 0
  outer loop
    vertex 0.04033641847395881 0.0412166305648442 0.009999999999999972
    vertex 0.04033641847395881 0.0412166305648442 0
    vertex 0.0391222618303395 0.03778191135110719 0.005000000000000001
  endloop
endfacet
facet normal -0.942826 0.333285 0
  outer loop
    vertex 0.04033641847395881 0.0412166305648442 0.02
    vertex 0.04033641847395881 0.0412166305648442 0.009999999999999972
    vertex 0.0391222618303395 0.03778191135110719 0.015
  endloop
endfacet
facet normal -0.942826 0.333285 0
  outer loop
    vertex 0.03790810518672019 0.03434719213737017 0
    vertex 0.03790810518672019 0.03434719213737017 0.01000000000000003
    vertex 0.0391222618303395 0.03778191135110719 0.005000000000000001
  endloop
endfacet
facet normal -0.942826 0.333285 0
  outer loop
    vertex 0.03790810518672019 0.03434719213737017 0.01000000000000003
    vertex 0.03790810518672019 0.03434719213737017 0.02
    vertex 0.0391222618303395 0.03778191135110719 0.015
  endloop
endfacet
facet normal -0.856332 0.516427 0
  outer loop
    vertex 0.03376536357108598 0.02747775370989614 0
    vertex 0.03376536357108598 0.02747775370989614 0.01000000000000003
    vertex 0.03583673437890308 0.03091247292363315 0.005
  endloop
endfacet
facet normal -0.856332 0.516427 0
  outer loop
    vertex 0.03790810518672019 0.03434719213737017 0.02
    vertex 0.03790810518672019 0.03434719213737017 0.009999999999999972
    vertex 0.03583673437890308 0.03091247292363315 0.015
  endloop
endfacet
facet normal -0.856332 0.516427 0
  outer loop
    vertex 0.03376536357108598 0.02747775370989614 0.01000000000000003
    vertex 0.03376536357108598 0.02747775370989614 0.02
    vertex 0.03583673437890308 0.03091247292363315 0.015
  endloop
endfacet
facet normal -0.856332 0.516427 0
  outer loop
    vertex 0.03790810518672019 0.03434719213737017 0.009999999999999972
    vertex 0.03790810518672019 0.03434719213737017 0
    vertex 0.03583673437890308 0.03091247292363315 0.005
  endloop
endfacet
facet normal -0.856332 0.516427 -1.1826e-15
  outer loop
    vertex 0.03790810518672019 0.03434719213737017 0.009999999999999972
    vertex 0.03376536357108598 0.02747775370989614 0.01000000000000003
    vertex 0.03583673437890308 0.03091247292363315 0.015
  endloop
endfacet
facet normal -0.856332 0.516427 -1.1826e-15
  outer loop
    vertex 0.03790810518672019 0.03434719213737017 0
    vertex 0.03376536357108598 0.02747775370989614 0
    vertex 0.03583673437890308 0.03091247292363315 0.005
  endloop
endfacet
facet normal -0.856332 0.516427 1.1826e-15
  outer loop
    vertex 0.03376536357108598 0.02747775370989614 0.02
    vertex 0.03790810518672019 0.03434719213737017 0.02
    vertex 0.03583673437890308 0.03091247292363315 0.015
  endloop
endfacet
facet normal -0.856332 0.516427 1.1826e-15
  outer loop
    vertex 0.03376536357108598 0.02747775370989614 0.01000000000000003
    vertex 0.03790810518672019 0.03434719213737017 0.009999999999999972
    vertex 0.03583673437890308 0.03091247292363315 0.005
  endloop
endfacet
facet normal -0.785824 -0.618451 -0
  outer loop
    vertex 0.03376536357108598 0.02747775370989614 0.02
    vertex 0.03376536357108598 0.02747775370989614 0.009999999999999972
    vertex 0.03646852069916908 0.02404303449615913 0.015
  endloop
endfacet
facet normal -0.785824 -0.618451 0
  outer loop
    vertex 0.03917167782725217 0.0206083152824221 0
    vertex 0.03917167782725217 0.0206083152824221 0.01000000000000003
    vertex 0.03646852069916908 0.02404303449615913 0.005
  endloop
endfacet
facet normal -0.785824 -0.618451 -0
  outer loop
    vertex 0.03376536357108598 0.02747775370989614 0.009999999999999972
    vertex 0.03376536357108598 0.02747775370989614 0
    vertex 0.03646852069916908 0.02404303449615913 0.005
  endloop
endfacet
facet normal -0.785824 -0.618451 0
  outer loop
    vertex 0.03917167782725217 0.0206083152824221 0.01000000000000003
    vertex 0.03917167782725217 0.0206083152824221 0.02
    vertex 0.03646852069916908 0.02404303449615913 0.015
  endloop
endfacet
facet normal -0.785824 -0.618451 -1.93791e-15
  outer loop
    vertex 0.03917167782725217 0.0206083152824221 0.01000000000000003
    vertex 0.03376536357108598 0.02747775370989614 0.009999999999999972
    vertex 0.03646852069916908 0.02404303449615913 0.005
  endloop
endfacet
facet normal -0.785824 -0.618451 1.93791e-15
  outer loop
    vertex 0.03376536357108598 0.02747775370989614 0.009999999999999972
    vertex 0.03917167782725217 0.0206083152824221 0.01000000000000003
    vertex 0.03646852069916908 0.02404303449615913 0.015
  endloop
endfacet
facet normal -0.785824 -0.618451 1.93791e-15
  outer loop
    vertex 0.03376536357108598 0.02747775370989614 0
    vertex 0.03917167782725217 0.0206083152824221 0
    vertex 0.03646852069916908 0.02404303449615913 0.005
  endloop
endfacet
facet normal -0.785824 -0.618451 -1.93791e-15
  outer loop
    vertex 0.03917167782725217 0.0206083152824221 0.02
    vertex 0.03376536357108598 0.02747775370989614 0.02
    vertex 0.03646852069916908 0.02404303449615913 0.015
  endloop
endfacet
facet normal -0.876528 -0.481351 -0
  outer loop
    vertex 0.03917167782725217 0.0206083152824221 0.02
    vertex 0.03917167782725217 0.0206083152824221 0.009999999999999972
    vertex 0.04105787778130067 0.01717359606868508 0.015
  endloop
endfacet
facet normal -0.876528 -0.481351 0
  outer loop
    vertex 0.04294407773534915 0.01373887685494807 0
    vertex 0.04294407773534915 0.01373887685494807 0.01000000000000003
    vertex 0.04105787778130067 0.01717359606868508 0.004999999999999999
  endloop
endfacet
facet normal -0.876528 -0.481351 -0
  outer loop
    vertex 0.03917167782725217 0.0206083152824221 0.009999999999999972
    vertex 0.03917167782725217 0.0206083152824221 0
    vertex 0.04105787778130067 0.01717359606868508 0.004999999999999999
  endloop
endfacet
facet normal -0.876528 -0.481351 0
  outer loop
    vertex 0.04294407773534915 0.01373887685494807 0.01000000000000003
    vertex 0.04294407773534915 0.01373887685494807 0.02
    vertex 0.04105787778130067 0.01717359606868508 0.015
  endloop
endfacet
facet normal -0.876528 -0.481351 -1.21049e-15
  outer loop
    vertex 0.04294407773534915 0.01373887685494807 0.02
    vertex 0.03917167782725217 0.0206083152824221 0.02
    vertex 0.04105787778130067 0.01717359606868508 0.015
  endloop
endfacet
facet normal -0.876528 -0.481351 -1.21049e-15
  outer loop
    vertex 0.04294407773534915 0.01373887685494807 0.01000000000000003
    vertex 0.03917167782725217 0.0206083152824221 0.009999999999999972
    vertex 0.04105787778130067 0.01717359606868508 0.004999999999999999
  endloop
endfacet
facet normal -0.876528 -0.481351 1.21049e-15
  outer loop
    vertex 0.03917167782725217 0.0206083152824221 0
    vertex 0.04294407773534915 0.01373887685494807 0
    vertex 0.04105787778130067 0.01717359606868508 0.004999999999999999
  endloop
endfacet
facet normal -0.876528 -0.481351 1.21049e-15
  outer loop
    vertex 0.03917167782725217 0.0206083152824221 0.009999999999999972
    vertex 0.04294407773534915 0.01373887685494807 0.01000000000000003
    vertex 0.04105787778130067 0.01717359606868508 0.015
  endloop
endfacet
facet normal -0.27848 0.960442 2.768e-17
  outer loop
    vertex 0.02714954720708007 0.009159251236632039 0.02
    vertex 0.0350468124712146 0.01144906404579005 0.02
    vertex 0.03109817983914734 0.01030415764121105 0.01255682288832926
  endloop
endfacet
facet normal -0.27848 0.960442 -1.30738e-17
  outer loop
    vertex 0.03109817983914737 0.01030415764121105 0.004999546416663479
    vertex 0.03109817983914734 0.01030415764121105 0.01255682288832926
    vertex 0.03677855740806676 0.01195118365377731 0.006885058088295722
  endloop
endfacet
facet normal -0.27848 0.960442 -1.30738e-17
  outer loop
    vertex 0.03109817983914734 0.01030415764121105 0.01255682288832926
    vertex 0.03109817983914737 0.01030415764121105 0.004999546416663479
    vertex 0.02541780227022795 0.008657131628644796 0.006885058088295733
  endloop
endfacet
facet normal -0.27848 0.960442 0
  outer loop
    vertex 0.04294407773534915 0.01373887685494807 0.02
    vertex 0.04294407773534915 0.01373887685494807 0.009999999999999972
    vertex 0.03754001682819293 0.01217196888455555 0.01375397922478162
  endloop
endfacet
facet normal -0.27848 0.960442 0
  outer loop
    vertex 0.01925228194294556 0.006869438427474034 0.01000000000000003
    vertex 0.01925228194294556 0.006869438427474034 0.02
    vertex 0.02465634285010177 0.008436346397866551 0.01375397922478164
  endloop
endfacet
facet normal -0.27848 0.960442 0
  outer loop
    vertex 0.01925228194294556 0.006869438427474034 0
    vertex 0.01925228194294556 0.006869438427474034 0.01000000000000003
    vertex 0.02541780227022795 0.008657131628644796 0.006885058088295733
  endloop
endfacet
facet normal -0.27848 0.960442 0
  outer loop
    vertex 0.04294407773534915 0.01373887685494807 0.009999999999999972
    vertex 0.04294407773534915 0.01373887685494807 0
    vertex 0.03677855740806676 0.01195118365377731 0.006885058088295722
  endloop
endfacet
facet normal -0.27848 0.960442 0
  outer loop
    vertex 0.03109817983914734 0.01030415764121105 0.01255682288832926
    vertex 0.03754001682819293 0.01217196888455555 0.01375397922478162
    vertex 0.03677855740806676 0.01195118365377731 0.006885058088295722
  endloop
endfacet
facet normal -0.27848 0.960442 4.22373e-17
  outer loop
    vertex 0.02465634285010177 0.008436346397866551 0.01375397922478164
    vertex 0.03109817983914734 0.01030415764121105 0.01255682288832926
    vertex 0.02541780227022795 0.008657131628644796 0.006885058088295733
  endloop
endfacet
facet normal -0.27848 0.960442 1.15449e-16
  outer loop
    vertex 0.0350468124712146 0.01144906404579005 0.02
    vertex 0.04294407773534915 0.01373887685494807 0.02
    vertex 0.03754001682819293 0.01217196888455555 0.01375397922478162
  endloop
endfacet
facet normal -0.27848 0.960442 1.31941e-16
  outer loop
    vertex 0.01925228194294556 0.006869438427474034 0.02
    vertex 0.02714954720708007 0.009159251236632039 0.02
    vertex 0.02465634285010177 0.008436346397866551 0.01375397922478164
  endloop
endfacet
facet normal -0.27848 0.960442 -2.69314e-16
  outer loop
    vertex 0.02714954720708011 0.009159251236632051 0
    vertex 0.01925228194294556 0.006869438427474034 0
    vertex 0.02541780227022795 0.008657131628644796 0.006885058088295733
  endloop
endfacet
facet normal -0.27848 0.960442 -2.99238e-16
  outer loop
    vertex 0.04294407773534915 0.01373887685494807 0
    vertex 0.03504681247121465 0.01144906404579006 0
    vertex 0.03677855740806676 0.01195118365377731 0.006885058088295722
  endloop
endfacet
facet normal -0.27848 0.960442 -2.88464e-16
  outer loop
    vertex 0.03504681247121465 0.01144906404579006 0
    vertex 0.02714954720708011 0.009159251236632051 0
    vertex 0.03109817983914737 0.01030415764121105 0.004999546416663479
  endloop
endfacet
facet normal -0.27848 0.960442 1.12936e-16
  outer loop
    vertex 0.02714954720708007 0.009159251236632039 0.02
    vertex 0.03109817983914734 0.01030415764121105 0.01255682288832926
    vertex 0.02465634285010177 0.008436346397866551 0.01375397922478164
  endloop
endfacet
facet normal -0.27848 0.960442 1.88226e-17
  outer loop
    vertex 0.03109817983914734 0.01030415764121105 0.01255682288832926
    vertex 0.0350468124712146 0.01144906404579005 0.02
    vertex 0.03754001682819293 0.01217196888455555 0.01375397922478162
  endloop
endfacet
facet normal -0.27848 0.960442 -2.95048e-16
  outer loop
    vertex 0.03109817983914737 0.01030415764121105 0.004999546416663479
    vertex 0.02714954720708011 0.009159251236632051 0
    vertex 0.02541780227022795 0.008657131628644796 0.006885058088295733
  endloop
endfacet
facet normal -0.27848 0.960442 -3.06396e-16
  outer loop
    vertex 0.03504681247121465 0.01144906404579006 0
    vertex 0.03109817983914737 0.01030415764121105 0.004999546416663479
    vertex 0.03677855740806676 0.01195118365377731 0.006885058088295722
  endloop
endfacet
facet normal -0.27848 0.960442 4.06981e-17
  outer loop
    vertex 0.01925228194294556 0.006869438427474034 0.01000000000000003
    vertex 0.02465634285010177 0.008436346397866551 0.01375397922478164
    vertex 0.02541780227022795 0.008657131628644796 0.006885058088295733
  endloop
endfacet
facet normal -0.27848 0.960442 -4.06981e-17
  outer loop
    vertex 0.03754001682819293 0.01217196888455555 0.01375397922478162
    vertex 0.04294407773534915 0.01373887685494807 0.009999999999999972
    vertex 0.03677855740806676 0.01195118365377731 0.006885058088295722
  endloop
endfacet
endsolid Created by Gmsh
