solid Created by Gmsh
facet normal 1 0 -0
  outer loop
    vertex 0.04 0.05369987348521939 0
    vertex 0.04 0.06 0.009999999999999972
    vertex 0.04 0.04739974697043877 0.01000000000000003
  endloop
endfacet
facet normal 1 -0 0
  outer loop
    vertex 0.04 0.04739974697043877 0.01000000000000003
    vertex 0.04 0.06 0.009999999999999972
    vertex 0.04 0.05369987348521938 0.02
  endloop
endfacet
facet normal 1 0 0
  outer loop
    vertex 0.04 0.05369987348521939 0
    vertex 0.04 0.06 0
    vertex 0.04 0.06 0.009999999999999972
  endloop
endfacet
facet normal 1 0 -0
  outer loop
    vertex 0.04 0.06 0.009999999999999972
    vertex 0.04 0.06 0.02
    vertex 0.04 0.05369987348521938 0.02
  endloop
endfacet
facet normal 1 0 0
  outer loop
    vertex 0.04 0.04739974697043877 0.01000000000000003
    vertex 0.04 0.04739974697043877 0
    vertex 0.04 0.05369987348521939 0
  endloop
endfacet
facet normal 1 0 0
  outer loop
    vertex 0.04 0.05369987348521938 0.02
    vertex 0.04 0.04739974697043877 0.02
    vertex 0.04 0.04739974697043877 0.01000000000000003
  endloop
endfacet
facet normal 0.646062 -0.763285 0
  outer loop
    vertex 0.04 0.04739974697043877 0.02
    vertex 0.0365 0.04443726278478635 0.015
    vertex 0.04 0.04739974697043877 0.009999999999999972
  endloop
endfacet
facet normal 0.646062 -0.763285 0
  outer loop
    vertex 0.03299999999999999 0.04147477859913393 0
    vertex 0.0365 0.04443726278478635 0.005
    vertex 0.03299999999999999 0.04147477859913393 0.01000000000000003
  endloop
endfacet
facet normal 0.646062 -0.763285 0
  outer loop
    vertex 0.04 0.04739974697043877 0.009999999999999972
    vertex 0.0365 0.04443726278478635 0.005
    vertex 0.04 0.04739974697043877 0
  endloop
endfacet
facet normal 0.646062 -0.763285 0
  outer loop
    vertex 0.03299999999999999 0.04147477859913393 0.01000000000000003
    vertex 0.0365 0.04443726278478635 0.015
    vertex 0.03299999999999999 0.04147477859913393 0.02
  endloop
endfacet
facet normal 0.646062 -0.763285 1.47778e-15
  outer loop
    vertex 0.03299999999999999 0.04147477859913393 0.01000000000000003
    vertex 0.0365 0.04443726278478635 0.005
    vertex 0.04 0.04739974697043877 0.009999999999999972
  endloop
endfacet
facet normal 0.646062 -0.763285 1.47778e-15
  outer loop
    vertex 0.03299999999999999 0.04147477859913393 0.02
    vertex 0.0365 0.04443726278478635 0.015
    vertex 0.04 0.04739974697043877 0.02
  endloop
endfacet
facet normal 0.646062 -0.763285 -1.47778e-15
  outer loop
    vertex 0.04 0.04739974697043877 0.009999999999999972
    vertex 0.0365 0.04443726278478635 0.015
    vertex 0.03299999999999999 0.04147477859913393 0.01000000000000003
  endloop
endfacet
facet normal 0.646062 -0.763285 -1.47778e-15
  outer loop
    vertex 0.04 0.04739974697043877 0
    vertex 0.0365 0.04443726278478635 0.005
    vertex 0.03299999999999999 0.04147477859913393 0
  endloop
endfacet
facet normal 0.326311 0.945263 -4.83431e-17
  outer loop
    vertex 0.0501635475349153 0.03554981022782908 0.02
    vertex 0.0430409392340652 0.03800858099289856 0.01228028941932582
    vertex 0.04158177376745764 0.0385122944134815 0.02
  endloop
endfacet
facet normal 0.326311 0.945263 -0
  outer loop
    vertex 0.0501635475349153 0.03554981022782908 0.01000000000000003
    vertex 0.0430409392340652 0.03800858099289856 0.01228028941932582
    vertex 0.0501635475349153 0.03554981022782908 0.02
  endloop
endfacet
facet normal 0.326311 0.945263 0
  outer loop
    vertex 0.03299999999999999 0.04147477859913393 0.009999999999999972
    vertex 0.03935954501118351 0.03927942225042452 0.006683450564185733
    vertex 0.03299999999999999 0.04147477859913393 0
  endloop
endfacet
facet normal 0.326311 0.945263 5.02548e-16
  outer loop
    vertex 0.03299999999999999 0.04147477859913393 0
    vertex 0.03935954501118351 0.03927942225042452 0.006683450564185733
    vertex 0.04158177376745764 0.0385122944134815 0
  endloop
endfacet
facet normal 0.326311 0.945263 0
  outer loop
    vertex 0.03299999999999999 0.04147477859913393 0.02
    vertex 0.03747455116913397 0.03993013439903646 0.01474351201733444
    vertex 0.03299999999999999 0.04147477859913393 0.009999999999999972
  endloop
endfacet
facet normal 0.326311 0.945263 -0
  outer loop
    vertex 0.0501635475349153 0.03554981022782908 0
    vertex 0.04490108079605175 0.0373664480131926 0.005757379830346978
    vertex 0.0501635475349153 0.03554981022782908 0.01000000000000003
  endloop
endfacet
facet normal 0.326311 0.945263 -7.80967e-16
  outer loop
    vertex 0.04158177376745764 0.0385122944134815 0.02
    vertex 0.03747455116913397 0.03993013439903646 0.01474351201733444
    vertex 0.03299999999999999 0.04147477859913393 0.02
  endloop
endfacet
facet normal 0.326311 0.945263 1.23159e-15
  outer loop
    vertex 0.04158177376745764 0.0385122944134815 0
    vertex 0.04490108079605175 0.0373664480131926 0.005757379830346978
    vertex 0.0501635475349153 0.03554981022782908 0
  endloop
endfacet
facet normal 0.326311 0.945263 2.4906e-16
  outer loop
    vertex 0.03299999999999999 0.04147477859913393 0.009999999999999972
    vertex 0.03747455116913397 0.03993013439903646 0.01474351201733444
    vertex 0.03935954501118351 0.03927942225042452 0.006683450564185733
  endloop
endfacet
facet normal 0.326311 0.945263 -7.96244e-17
  outer loop
    vertex 0.03935954501118351 0.03927942225042452 0.006683450564185733
    vertex 0.03747455116913397 0.03993013439903646 0.01474351201733444
    vertex 0.0430409392340652 0.03800858099289856 0.01228028941932582
  endloop
endfacet
facet normal 0.326311 0.945263 -1.13789e-15
  outer loop
    vertex 0.04490108079605175 0.0373664480131926 0.005757379830346978
    vertex 0.0430409392340652 0.03800858099289856 0.01228028941932582
    vertex 0.0501635475349153 0.03554981022782908 0.01000000000000003
  endloop
endfacet
facet normal 0.326311 0.945263 -1.72835e-16
  outer loop
    vertex 0.0430409392340652 0.03800858099289856 0.01228028941932582
    vertex 0.03747455116913397 0.03993013439903646 0.01474351201733444
    vertex 0.04158177376745764 0.0385122944134815 0.02
  endloop
endfacet
facet normal 0.326311 0.945263 -8.25688e-16
  outer loop
    vertex 0.04490108079605175 0.0373664480131926 0.005757379830346978
    vertex 0.03935954501118351 0.03927942225042452 0.006683450564185733
    vertex 0.0430409392340652 0.03800858099289856 0.01228028941932582
  endloop
endfacet
facet normal 0.326311 0.945263 7.21042e-16
  outer loop
    vertex 0.04158177376745764 0.0385122944134815 0
    vertex 0.03935954501118351 0.03927942225042452 0.006683450564185733
    vertex 0.04490108079605175 0.0373664480131926 0.005757379830346978
  endloop
endfacet
facet normal 0.326311 -0.945263 9.18519e-16
  outer loop
    vertex 0.0501635475349153 0.03554981022782908 0
    vertex 0.0430409392340652 0.0330910394627596 0.007719710580674182
    vertex 0.04158177376745764 0.03258732604217665 0
  endloop
endfacet
facet normal 0.326311 -0.945263 0
  outer loop
    vertex 0.0501635475349153 0.03554981022782908 0.009999999999999972
    vertex 0.0430409392340652 0.0330910394627596 0.007719710580674182
    vertex 0.0501635475349153 0.03554981022782908 0
  endloop
endfacet
facet normal 0.326311 -0.945263 0
  outer loop
    vertex 0.03299999999999999 0.02962484185652423 0.01000000000000003
    vertex 0.03935954501118351 0.03182019820523364 0.01331654943581427
    vertex 0.03299999999999999 0.02962484185652423 0.02
  endloop
endfacet
facet normal 0.326311 -0.945263 -1.22845e-15
  outer loop
    vertex 0.03299999999999999 0.02962484185652423 0.02
    vertex 0.03935954501118351 0.03182019820523364 0.01331654943581427
    vertex 0.04158177376745764 0.03258732604217665 0.02
  endloop
endfacet
facet normal 0.326311 -0.945263 0
  outer loop
    vertex 0.03299999999999999 0.02962484185652423 0
    vertex 0.03747455116913398 0.0311694860566217 0.005256487982665563
    vertex 0.03299999999999999 0.02962484185652423 0.01000000000000003
  endloop
endfacet
facet normal 0.326311 -0.945263 0
  outer loop
    vertex 0.0501635475349153 0.03554981022782908 0.02
    vertex 0.04490108079605175 0.03373317244246555 0.01424262016965302
    vertex 0.0501635475349153 0.03554981022782908 0.009999999999999972
  endloop
endfacet
facet normal 0.326311 -0.945263 1.02946e-15
  outer loop
    vertex 0.04158177376745764 0.03258732604217665 0
    vertex 0.03747455116913398 0.0311694860566217 0.005256487982665563
    vertex 0.03299999999999999 0.02962484185652423 0
  endloop
endfacet
facet normal 0.326311 -0.945263 -1.23159e-15
  outer loop
    vertex 0.04158177376745764 0.03258732604217665 0.02
    vertex 0.04490108079605175 0.03373317244246555 0.01424262016965302
    vertex 0.0501635475349153 0.03554981022782908 0.02
  endloop
endfacet
facet normal 0.326311 -0.945263 7.116e-17
  outer loop
    vertex 0.03299999999999999 0.02962484185652423 0.01000000000000003
    vertex 0.03747455116913398 0.0311694860566217 0.005256487982665563
    vertex 0.03935954501118351 0.03182019820523364 0.01331654943581427
  endloop
endfacet
facet normal 0.326311 -0.945263 2.78685e-16
  outer loop
    vertex 0.03935954501118351 0.03182019820523364 0.01331654943581427
    vertex 0.03747455116913398 0.0311694860566217 0.005256487982665563
    vertex 0.0430409392340652 0.0330910394627596 0.007719710580674182
  endloop
endfacet
facet normal 0.326311 -0.945263 3.22403e-16
  outer loop
    vertex 0.04490108079605175 0.03373317244246555 0.01424262016965302
    vertex 0.0430409392340652 0.0330910394627596 0.007719710580674182
    vertex 0.0501635475349153 0.03554981022782908 0.009999999999999972
  endloop
endfacet
facet normal 0.326311 -0.945263 1.01668e-15
  outer loop
    vertex 0.0430409392340652 0.0330910394627596 0.007719710580674182
    vertex 0.03747455116913398 0.0311694860566217 0.005256487982665563
    vertex 0.04158177376745764 0.03258732604217665 0
  endloop
endfacet
facet normal 0.326311 -0.945263 1.16294e-16
  outer loop
    vertex 0.04490108079605175 0.03373317244246555 0.01424262016965302
    vertex 0.03935954501118351 0.03182019820523364 0.01331654943581427
    vertex 0.0430409392340652 0.0330910394627596 0.007719710580674182
  endloop
endfacet
facet normal 0.326311 -0.945263 -1.35052e-15
  outer loop
    vertex 0.04158177376745764 0.03258732604217665 0.02
    vertex 0.03935954501118351 0.03182019820523364 0.01331654943581427
    vertex 0.04490108079605175 0.03373317244246555 0.01424262016965302
  endloop
endfacet
facet normal 1 -1.30021e-29 -1.38778e-15
  outer loop
    vertex 0.03299999999999999 0.02369987348521939 0.01000000000000003
    vertex 0.03299999999999999 0.02666235767087181 0.005
    vertex 0.03299999999999999 0.02962484185652423 0.009999999999999972
  endloop
endfacet
facet normal 1 1.30021e-29 1.38778e-15
  outer loop
    vertex 0.03299999999999999 0.02962484185652423 0.009999999999999972
    vertex 0.03299999999999999 0.02666235767087181 0.015
    vertex 0.03299999999999999 0.02369987348521939 0.01000000000000003
  endloop
endfacet
facet normal 1 0 1.38778e-15
  outer loop
    vertex 0.03299999999999999 0.02962484185652423 0
    vertex 0.03299999999999999 0.02666235767087181 0.005
    vertex 0.03299999999999999 0.02369987348521939 0
  endloop
endfacet
facet normal 1 0 -1.38778e-15
  outer loop
    vertex 0.03299999999999999 0.02369987348521939 0.02
    vertex 0.03299999999999999 0.02666235767087181 0.015
    vertex 0.03299999999999999 0.02962484185652423 0.02
  endloop
endfacet
facet normal 1 -2.34226e-15 0
  outer loop
    vertex 0.03299999999999999 0.02962484185652423 0.009999999999999972
    vertex 0.03299999999999999 0.02666235767087181 0.005
    vertex 0.03299999999999999 0.02962484185652423 0
  endloop
endfacet
facet normal 1 -2.34226e-15 0
  outer loop
    vertex 0.03299999999999999 0.02962484185652423 0.02
    vertex 0.03299999999999999 0.02666235767087181 0.015
    vertex 0.03299999999999999 0.02962484185652423 0.009999999999999972
  endloop
endfacet
facet normal 1 2.34226e-15 -0
  outer loop
    vertex 0.03299999999999999 0.02369987348521939 0
    vertex 0.03299999999999999 0.02666235767087181 0.005
    vertex 0.03299999999999999 0.02369987348521939 0.01000000000000003
  endloop
endfacet
facet normal 1 2.34226e-15 -0
  outer loop
    vertex 0.03299999999999999 0.02369987348521939 0.01000000000000003
    vertex 0.03299999999999999 0.02666235767087181 0.015
    vertex 0.03299999999999999 0.02369987348521939 0.02
  endloop
endfacet
facet normal 0.297244 0.954802 0
  outer loop
    vertex 0.03299999999999999 0.02369987348521939 0.009999999999999972
    vertex 0.03969208005868987 0.02161653197954633 0.007127227494683603
    vertex 0.03299999999999999 0.02369987348521939 0
  endloop
endfacet
facet normal 0.297244 0.954802 -3.16935e-16
  outer loop
    vertex 0.0520320994316137 0.01777490511391454 0.02
    vertex 0.04487104658328016 0.02000424464548198 0.01249164393429936
    vertex 0.04251604971580686 0.02073738929956696 0.02
  endloop
endfacet
facet normal 0.297244 0.954802 -0
  outer loop
    vertex 0.0520320994316137 0.01777490511391454 0.01000000000000003
    vertex 0.04487104658328016 0.02000424464548198 0.01249164393429936
    vertex 0.0520320994316137 0.01777490511391454 0.02
  endloop
endfacet
facet normal 0.297244 0.954802 2.38488e-16
  outer loop
    vertex 0.03299999999999999 0.02369987348521939 0
    vertex 0.03969208005868987 0.02161653197954633 0.007127227494683603
    vertex 0.04251604971580684 0.02073738929956696 0
  endloop
endfacet
facet normal 0.297244 0.954802 0
  outer loop
    vertex 0.03299999999999999 0.02369987348521939 0.02
    vertex 0.0383317658717824 0.02204001749996538 0.01440111111562749
    vertex 0.03299999999999999 0.02369987348521939 0.009999999999999972
  endloop
endfacet
facet normal 0.297244 0.954802 -6.67894e-16
  outer loop
    vertex 0.04251604971580686 0.02073738929956696 0.02
    vertex 0.0383317658717824 0.02204001749996538 0.01440111111562749
    vertex 0.03299999999999999 0.02369987348521939 0.02
  endloop
endfacet
facet normal 0.297244 0.954802 -0
  outer loop
    vertex 0.0520320994316137 0.01777490511391454 0
    vertex 0.04643361818126983 0.01951779346182488 0.005870609918174778
    vertex 0.0520320994316137 0.01777490511391454 0.01000000000000003
  endloop
endfacet
facet normal 0.297244 0.954802 2.31629e-16
  outer loop
    vertex 0.04251604971580684 0.02073738929956696 0
    vertex 0.04643361818126983 0.01951779346182488 0.005870609918174778
    vertex 0.0520320994316137 0.01777490511391454 0
  endloop
endfacet
facet normal 0.297244 0.954802 1.08388e-16
  outer loop
    vertex 0.03299999999999999 0.02369987348521939 0.009999999999999972
    vertex 0.0383317658717824 0.02204001749996538 0.01440111111562749
    vertex 0.03969208005868987 0.02161653197954633 0.007127227494683603
  endloop
endfacet
facet normal 0.297244 0.954802 -1.76541e-16
  outer loop
    vertex 0.04643361818126983 0.01951779346182488 0.005870609918174778
    vertex 0.04487104658328016 0.02000424464548198 0.01249164393429936
    vertex 0.0520320994316137 0.01777490511391454 0.01000000000000003
  endloop
endfacet
facet normal 0.297244 0.954802 -8.99239e-18
  outer loop
    vertex 0.03969208005868987 0.02161653197954633 0.007127227494683603
    vertex 0.0383317658717824 0.02204001749996538 0.01440111111562749
    vertex 0.04487104658328016 0.02000424464548198 0.01249164393429936
  endloop
endfacet
facet normal 0.297244 0.954802 -1.42144e-16
  outer loop
    vertex 0.04643361818126983 0.01951779346182488 0.005870609918174778
    vertex 0.03969208005868987 0.02161653197954633 0.007127227494683603
    vertex 0.04487104658328016 0.02000424464548198 0.01249164393429936
  endloop
endfacet
facet normal 0.297244 0.954802 -4.89574e-16
  outer loop
    vertex 0.04487104658328016 0.02000424464548198 0.01249164393429936
    vertex 0.0383317658717824 0.02204001749996538 0.01440111111562749
    vertex 0.04251604971580686 0.02073738929956696 0.02
  endloop
endfacet
facet normal 0.297244 0.954802 1.54481e-16
  outer loop
    vertex 0.04251604971580684 0.02073738929956696 0
    vertex 0.03969208005868987 0.02161653197954633 0.007127227494683603
    vertex 0.04643361818126983 0.01951779346182488 0.005870609918174778
  endloop
endfacet
facet normal 0.347536 -0.937667 5.25387e-17
  outer loop
    vertex 0.0520320994316137 0.01777490511391454 0
    vertex 0.04536714324627831 0.01530461110495675 0.007565274041185518
    vertex 0.04403919363759744 0.01481242092826212 0
  endloop
endfacet
facet normal 0.347536 -0.937667 0
  outer loop
    vertex 0.0520320994316137 0.01777490511391454 0.009999999999999972
    vertex 0.04536714324627831 0.01530461110495675 0.007565274041185518
    vertex 0.0520320994316137 0.01777490511391454 0
  endloop
endfacet
facet normal 0.347536 -0.937667 0
  outer loop
    vertex 0.03604628784358119 0.01184993674260969 0.01000000000000003
    vertex 0.0418667590061623 0.01400723150080655 0.01370848598064241
    vertex 0.03604628784358119 0.01184993674260969 0.02
  endloop
endfacet
facet normal 0.347536 -0.937667 0
  outer loop
    vertex 0.03604628784358119 0.01184993674260969 0
    vertex 0.04027247600839207 0.01341632773063017 0.005127059792961692
    vertex 0.03604628784358119 0.01184993674260969 0.01000000000000003
  endloop
endfacet
facet normal 0.347536 -0.937667 0
  outer loop
    vertex 0.0520320994316137 0.01777490511391454 0.02
    vertex 0.04697598311193292 0.01590091022095747 0.01431004005717283
    vertex 0.0520320994316137 0.01777490511391454 0.009999999999999972
  endloop
endfacet
facet normal 0.347536 -0.937667 -3.15878e-16
  outer loop
    vertex 0.03604628784358119 0.01184993674260969 0.02
    vertex 0.0418667590061623 0.01400723150080655 0.01370848598064241
    vertex 0.04403919363759744 0.01481242092826212 0.02
  endloop
endfacet
facet normal 0.347536 -0.937667 1.29606e-16
  outer loop
    vertex 0.0418667590061623 0.01400723150080655 0.01370848598064241
    vertex 0.04027247600839207 0.01341632773063017 0.005127059792961692
    vertex 0.04536714324627831 0.01530461110495675 0.007565274041185518
  endloop
endfacet
facet normal 0.347536 -0.937667 3.60724e-17
  outer loop
    vertex 0.03604628784358119 0.01184993674260969 0.01000000000000003
    vertex 0.04027247600839207 0.01341632773063017 0.005127059792961692
    vertex 0.0418667590061623 0.01400723150080655 0.01370848598064241
  endloop
endfacet
facet normal 0.347536 -0.937667 2.71334e-16
  outer loop
    vertex 0.04403919363759744 0.01481242092826212 0
    vertex 0.04027247600839207 0.01341632773063017 0.005127059792961692
    vertex 0.03604628784358119 0.01184993674260969 0
  endloop
endfacet
facet normal 0.347536 -0.937667 -3.49273e-17
  outer loop
    vertex 0.04403919363759744 0.01481242092826212 0.02
    vertex 0.04697598311193292 0.01590091022095747 0.01431004005717283
    vertex 0.0520320994316137 0.01777490511391454 0.02
  endloop
endfacet
facet normal 0.347536 -0.937667 -5.80631e-17
  outer loop
    vertex 0.04697598311193292 0.01590091022095747 0.01431004005717283
    vertex 0.04536714324627831 0.01530461110495675 0.007565274041185518
    vertex 0.0520320994316137 0.01777490511391454 0.009999999999999972
  endloop
endfacet
facet normal 0.347536 -0.937667 1.23731e-16
  outer loop
    vertex 0.04536714324627831 0.01530461110495675 0.007565274041185518
    vertex 0.04027247600839207 0.01341632773063017 0.005127059792961692
    vertex 0.04403919363759744 0.01481242092826212 0
  endloop
endfacet
facet normal 0.347536 -0.937667 2.37136e-17
  outer loop
    vertex 0.04697598311193292 0.01590091022095747 0.01431004005717283
    vertex 0.0418667590061623 0.01400723150080655 0.01370848598064241
    vertex 0.04536714324627831 0.01530461110495675 0.007565274041185518
  endloop
endfacet
facet normal 0.347536 -0.937667 -2.18919e-16
  outer loop
    vertex 0.04403919363759744 0.01481242092826212 0.02
    vertex 0.0418667590061623 0.01400723150080655 0.01370848598064241
    vertex 0.04697598311193292 0.01590091022095747 0.01431004005717283
  endloop
endfacet
facet normal 0.240114 0.970745 -1.10666e-16
  outer loop
    vertex 0.04403085856238746 0.009874947285508074 0
    vertex 0.04802314392179059 0.008887452556957269 0.007444423127005475
    vertex 0.05201542928119372 0.007899957828406461 0
  endloop
endfacet
facet normal 0.240114 0.970745 -2.4879e-18
  outer loop
    vertex 0.04802314392179059 0.008887452556957269 0.007444423127005475
    vertex 0.04228010978184044 0.01030799628781321 0.01305152644863158
    vertex 0.04802314392179058 0.008887452556957271 0.01461718942475341
  endloop
endfacet
facet normal 0.240114 0.970745 -2.4879e-18
  outer loop
    vertex 0.04802314392179058 0.008887452556957271 0.01461718942475341
    vertex 0.05376617806174073 0.007466908826101324 0.01305152644863159
    vertex 0.04802314392179059 0.008887452556957269 0.007444423127005475
  endloop
endfacet
facet normal 0.240114 0.970745 -0
  outer loop
    vertex 0.05999999999999998 0.005924968371304844 0
    vertex 0.05453535124566954 0.007276653271677253 0.006247546140030655
    vertex 0.05999999999999998 0.005924968371304844 0.01000000000000003
  endloop
endfacet
facet normal 0.240114 0.970745 0
  outer loop
    vertex 0.03604628784358119 0.01184993674260969 0.009999999999999972
    vertex 0.04151093659791165 0.01049825184223728 0.00624754614003065
    vertex 0.03604628784358119 0.01184993674260969 0
  endloop
endfacet
facet normal 0.240114 0.970745 0
  outer loop
    vertex 0.03604628784358119 0.01184993674260969 0.02
    vertex 0.04228010978184044 0.01030799628781321 0.01305152644863158
    vertex 0.03604628784358119 0.01184993674260969 0.009999999999999972
  endloop
endfacet
facet normal 0.240114 0.970745 -0
  outer loop
    vertex 0.05999999999999998 0.005924968371304844 0.01000000000000003
    vertex 0.05376617806174073 0.007466908826101324 0.01305152644863159
    vertex 0.05999999999999998 0.005924968371304844 0.02
  endloop
endfacet
facet normal 0.240114 0.970745 3.7902e-17
  outer loop
    vertex 0.04802314392179059 0.008887452556957269 0.007444423127005475
    vertex 0.05376617806174073 0.007466908826101324 0.01305152644863159
    vertex 0.05453535124566954 0.007276653271677253 0.006247546140030655
  endloop
endfacet
facet normal 0.240114 0.970745 -3.31643e-17
  outer loop
    vertex 0.04151093659791165 0.01049825184223728 0.00624754614003065
    vertex 0.04228010978184044 0.01030799628781321 0.01305152644863158
    vertex 0.04802314392179059 0.008887452556957269 0.007444423127005475
  endloop
endfacet
facet normal 0.240114 0.970745 -1.64833e-17
  outer loop
    vertex 0.05201542928119372 0.007899957828406461 0
    vertex 0.05453535124566954 0.007276653271677253 0.006247546140030655
    vertex 0.05999999999999998 0.005924968371304844 0
  endloop
endfacet
facet normal 0.240114 0.970745 -1.64833e-16
  outer loop
    vertex 0.03604628784358119 0.01184993674260969 0
    vertex 0.04151093659791165 0.01049825184223728 0.00624754614003065
    vertex 0.04403085856238746 0.009874947285508074 0
  endloop
endfacet
facet normal 0.240114 0.970745 -7.41027e-18
  outer loop
    vertex 0.04403085856238746 0.009874947285508077 0.02
    vertex 0.04228010978184044 0.01030799628781321 0.01305152644863158
    vertex 0.03604628784358119 0.01184993674260969 0.02
  endloop
endfacet
facet normal 0.240114 0.970745 -2.07488e-16
  outer loop
    vertex 0.05999999999999998 0.005924968371304844 0.02
    vertex 0.05376617806174073 0.007466908826101324 0.01305152644863159
    vertex 0.05201542928119371 0.007899957828406464 0.02
  endloop
endfacet
facet normal 0.240114 0.970745 -1.5305e-16
  outer loop
    vertex 0.05201542928119371 0.007899957828406464 0.02
    vertex 0.04802314392179058 0.008887452556957271 0.01461718942475341
    vertex 0.04403085856238746 0.009874947285508077 0.02
  endloop
endfacet
facet normal 0.240114 0.970745 -5.64458e-17
  outer loop
    vertex 0.04802314392179059 0.008887452556957269 0.007444423127005475
    vertex 0.05453535124566954 0.007276653271677253 0.006247546140030655
    vertex 0.05201542928119372 0.007899957828406461 0
  endloop
endfacet
facet normal 0.240114 0.970745 -1.9756e-16
  outer loop
    vertex 0.04403085856238746 0.009874947285508074 0
    vertex 0.04151093659791165 0.01049825184223728 0.00624754614003065
    vertex 0.04802314392179059 0.008887452556957269 0.007444423127005475
  endloop
endfacet
facet normal 0.240114 0.970745 -4.42497e-17
  outer loop
    vertex 0.04802314392179058 0.008887452556957271 0.01461718942475341
    vertex 0.04228010978184044 0.01030799628781321 0.01305152644863158
    vertex 0.04403085856238746 0.009874947285508077 0.02
  endloop
endfacet
facet normal 0.240114 0.970745 -2.21248e-16
  outer loop
    vertex 0.05201542928119371 0.007899957828406464 0.02
    vertex 0.05376617806174073 0.007466908826101324 0.01305152644863159
    vertex 0.04802314392179058 0.008887452556957271 0.01461718942475341
  endloop
endfacet
facet normal 0.240114 0.970745 -4.10432e-17
  outer loop
    vertex 0.03604628784358119 0.01184993674260969 0.009999999999999972
    vertex 0.04228010978184044 0.01030799628781321 0.01305152644863158
    vertex 0.04151093659791165 0.01049825184223728 0.00624754614003065
  endloop
endfacet
facet normal 0.240114 0.970745 1.02608e-17
  outer loop
    vertex 0.05453535124566954 0.007276653271677253 0.006247546140030655
    vertex 0.05376617806174073 0.007466908826101324 0.01305152644863159
    vertex 0.05999999999999998 0.005924968371304844 0.01000000000000003
  endloop
endfacet
endsolid Created by Gmsh
