solid Created by Gmsh
facet normal 0.995008 0.0997931 0
  outer loop
    vertex 0.003372344954932845 0.04614102736031959 0.02
    vertex 0.004240030275882939 0.03748958473025966 0.01163998500455952
    vertex 0.003372344954932845 0.04614102736031959 0.009999999999999972
  endloop
endfacet
facet normal 0.995008 0.0997931 -0
  outer loop
    vertex 0.008 0 0
    vertex 0.00713231467904991 0.008651442630059928 0.008360014995440479
    vertex 0.008 0 0.01000000000000003
  endloop
endfacet
facet normal 0.995008 0.0997931 -2.316e-16
  outer loop
    vertex 0.006843086238733212 0.01153525684007989 0
    vertex 0.00713231467904991 0.008651442630059928 0.008360014995440479
    vertex 0.008 0 0
  endloop
endfacet
facet normal 0.995008 0.0997931 1.44204e-16
  outer loop
    vertex 0.004529258716199633 0.03460577052023971 0.02
    vertex 0.004240030275882939 0.03748958473025966 0.01163998500455952
    vertex 0.003372344954932845 0.04614102736031959 0.02
  endloop
endfacet
facet normal 0.995008 0.0997931 -1.57009e-16
  outer loop
    vertex 0.005686172477466424 0.02307051368015979 0
    vertex 0.006224458741389166 0.01770341501151151 0.009772224304922288
    vertex 0.006843086238733212 0.01153525684007989 0
  endloop
endfacet
facet normal 0.995008 0.0997931 6.00932e-17
  outer loop
    vertex 0.005686172477466422 0.02307051368015981 0.02
    vertex 0.005155920336885812 0.02835750639852975 0.01027333083409326
    vertex 0.004529258716199633 0.03460577052023971 0.02
  endloop
endfacet
facet normal 0.995008 0.0997931 -1.13791e-16
  outer loop
    vertex 0.004529258716199636 0.03460577052023967 0
    vertex 0.005155920336885812 0.02835750639852975 0.01027333083409326
    vertex 0.005686172477466424 0.02307051368015979 0
  endloop
endfacet
facet normal 0.995008 0.0997931 1.35729e-16
  outer loop
    vertex 0.006843086238733209 0.01153525684007992 0.02
    vertex 0.006224458741389166 0.01770341501151151 0.009772224304922288
    vertex 0.005686172477466422 0.02307051368015981 0.02
  endloop
endfacet
facet normal 0.995008 0.0997931 -1.02585e-16
  outer loop
    vertex 0.005155920336885812 0.02835750639852975 0.01027333083409326
    vertex 0.006224458741389166 0.01770341501151151 0.009772224304922288
    vertex 0.005686172477466424 0.02307051368015979 0
  endloop
endfacet
facet normal 0.995008 0.0997931 6.74065e-17
  outer loop
    vertex 0.005686172477466422 0.02307051368015981 0.02
    vertex 0.006224458741389166 0.01770341501151151 0.009772224304922288
    vertex 0.005155920336885812 0.02835750639852975 0.01027333083409326
  endloop
endfacet
facet normal 0.995008 0.0997931 -1.64681e-16
  outer loop
    vertex 0.004529258716199636 0.03460577052023967 0
    vertex 0.004240030275882939 0.03748958473025966 0.01163998500455952
    vertex 0.005155920336885812 0.02835750639852975 0.01027333083409326
  endloop
endfacet
facet normal 0.995008 0.0997931 1.85132e-16
  outer loop
    vertex 0.006843086238733209 0.01153525684007992 0.02
    vertex 0.00713231467904991 0.008651442630059928 0.008360014995440479
    vertex 0.006224458741389166 0.01770341501151151 0.009772224304922288
  endloop
endfacet
facet normal 0.995008 0.0997931 1.6697e-16
  outer loop
    vertex 0.006843086238733209 0.01153525684007992 0.02
    vertex 0.007456610256252319 0.005417984009051181 0.01500000000000001
    vertex 0.00713231467904991 0.008651442630059928 0.008360014995440479
  endloop
endfacet
facet normal 0.995008 0.0997931 -8.53403e-17
  outer loop
    vertex 0.004529258716199636 0.03460577052023967 0
    vertex 0.003915734698680529 0.04072304335126842 0.004999999999999985
    vertex 0.004240030275882939 0.03748958473025966 0.01163998500455952
  endloop
endfacet
facet normal 0.995008 0.0997931 2.04577e-16
  outer loop
    vertex 0.008 0 0.02
    vertex 0.007456610256252319 0.005417984009051181 0.01500000000000001
    vertex 0.006843086238733209 0.01153525684007992 0.02
  endloop
endfacet
facet normal 0.995008 0.0997931 -4.52993e-16
  outer loop
    vertex 0.003372344954932845 0.04614102736031959 0
    vertex 0.003915734698680529 0.04072304335126842 0.004999999999999985
    vertex 0.004529258716199636 0.03460577052023967 0
  endloop
endfacet
facet normal 0.995008 0.0997931 1.15474e-16
  outer loop
    vertex 0.005155920336885812 0.02835750639852975 0.01027333083409326
    vertex 0.004240030275882939 0.03748958473025966 0.01163998500455952
    vertex 0.004529258716199633 0.03460577052023971 0.02
  endloop
endfacet
facet normal 0.995008 0.0997931 -2.11369e-16
  outer loop
    vertex 0.006224458741389166 0.01770341501151151 0.009772224304922288
    vertex 0.00713231467904991 0.008651442630059928 0.008360014995440479
    vertex 0.006843086238733212 0.01153525684007989 0
  endloop
endfacet
facet normal 0.995008 0.0997931 0
  outer loop
    vertex 0.003372344954932845 0.04614102736031959 0.009999999999999972
    vertex 0.003915734698680529 0.04072304335126842 0.004999999999999985
    vertex 0.003372344954932845 0.04614102736031959 0
  endloop
endfacet
facet normal 0.995008 0.0997931 -0
  outer loop
    vertex 0.008 0 0.01000000000000003
    vertex 0.007456610256252319 0.005417984009051181 0.01500000000000001
    vertex 0.008 0 0.02
  endloop
endfacet
facet normal 0.995008 0.0997931 1.77798e-16
  outer loop
    vertex 0.004240030275882939 0.03748958473025966 0.01163998500455952
    vertex 0.003915734698680529 0.04072304335126842 0.004999999999999985
    vertex 0.003372344954932845 0.04614102736031959 0.009999999999999972
  endloop
endfacet
facet normal 0.995008 0.0997931 3.23269e-17
  outer loop
    vertex 0.00713231467904991 0.008651442630059928 0.008360014995440479
    vertex 0.007456610256252319 0.005417984009051181 0.01500000000000001
    vertex 0.008 0 0.01000000000000003
  endloop
endfacet
endsolid Created by Gmsh
