solid Created by Gmsh
facet normal 1 0 0
  outer loop
    vertex 0.04 0.05641133885694469 0
    vertex 0.04 0.06 0
    vertex 0.04 0.06 0.009999999999999972
  endloop
endfacet
facet normal 1 0 0
  outer loop
    vertex 0.04 0.05641133885694469 0.01000000000000003
    vertex 0.04 0.06 0.02
    vertex 0.04 0.05641133885694469 0.02
  endloop
endfacet
facet normal 1 0 -0
  outer loop
    vertex 0.04 0.06 0.009999999999999972
    vertex 0.04 0.06 0.02
    vertex 0.04 0.05641133885694469 0.01000000000000003
  endloop
endfacet
facet normal 1 0 0
  outer loop
    vertex 0.04 0.05641133885694469 0
    vertex 0.04 0.06 0.009999999999999972
    vertex 0.04 0.05641133885694469 0.01000000000000003
  endloop
endfacet
facet normal 0.552118 0.833766 0
  outer loop
    vertex 0.05064849877567109 0.0493599214998266 0.01000000000000003
    vertex 0.04 0.05641133885694469 0.009999999999999972
    vertex 0.04532424938783555 0.05288563017838564 0.02
  endloop
endfacet
facet normal 0.552118 0.833766 0
  outer loop
    vertex 0.04532424938783555 0.05288563017838564 0
    vertex 0.04 0.05641133885694469 0.009999999999999972
    vertex 0.05064849877567109 0.0493599214998266 0.01000000000000003
  endloop
endfacet
facet normal 0.552118 0.833766 0
  outer loop
    vertex 0.04532424938783555 0.05288563017838564 0
    vertex 0.04 0.05641133885694469 0
    vertex 0.04 0.05641133885694469 0.009999999999999972
  endloop
endfacet
facet normal 0.552118 0.833766 -0
  outer loop
    vertex 0.04 0.05641133885694469 0.009999999999999972
    vertex 0.04 0.05641133885694469 0.02
    vertex 0.04532424938783555 0.05288563017838564 0.02
  endloop
endfacet
facet normal 0.552118 0.833766 0
  outer loop
    vertex 0.05064849877567109 0.0493599214998266 0.01000000000000003
    vertex 0.05064849877567109 0.0493599214998266 0
    vertex 0.04532424938783555 0.05288563017838564 0
  endloop
endfacet
facet normal 0.552118 0.833766 0
  outer loop
    vertex 0.04532424938783555 0.05288563017838564 0.02
    vertex 0.05064849877567109 0.0493599214998266 0.02
    vertex 0.05064849877567109 0.0493599214998266 0.01000000000000003
  endloop
endfacet
facet normal 0.956093 0.293063 2.06727e-16
  outer loop
    vertex 0.05064849877567109 0.0493599214998266 0.009999999999999972
    vertex 0.05172920242459263 0.04583421282126755 0.015
    vertex 0.05280990607351418 0.04230850414270852 0.01000000000000003
  endloop
endfacet
facet normal 0.956093 0.293063 2.06727e-16
  outer loop
    vertex 0.05064849877567109 0.0493599214998266 0
    vertex 0.05172920242459263 0.04583421282126755 0.005000000000000001
    vertex 0.05280990607351418 0.04230850414270852 0
  endloop
endfacet
facet normal 0.956093 0.293063 -2.06727e-16
  outer loop
    vertex 0.05280990607351418 0.04230850414270852 0.01000000000000003
    vertex 0.05172920242459263 0.04583421282126755 0.005000000000000001
    vertex 0.05064849877567109 0.0493599214998266 0.009999999999999972
  endloop
endfacet
facet normal 0.956093 0.293063 -2.06727e-16
  outer loop
    vertex 0.05280990607351418 0.04230850414270852 0.02
    vertex 0.05172920242459263 0.04583421282126755 0.015
    vertex 0.05064849877567109 0.0493599214998266 0.02
  endloop
endfacet
facet normal 0.956093 0.293063 0
  outer loop
    vertex 0.05064849877567109 0.0493599214998266 0.009999999999999972
    vertex 0.05172920242459263 0.04583421282126755 0.005000000000000001
    vertex 0.05064849877567109 0.0493599214998266 0
  endloop
endfacet
facet normal 0.956093 0.293063 0
  outer loop
    vertex 0.05064849877567109 0.0493599214998266 0.02
    vertex 0.05172920242459263 0.04583421282126755 0.015
    vertex 0.05064849877567109 0.0493599214998266 0.009999999999999972
  endloop
endfacet
facet normal 0.956093 0.293063 -0
  outer loop
    vertex 0.05280990607351418 0.04230850414270852 0
    vertex 0.05172920242459263 0.04583421282126755 0.005000000000000001
    vertex 0.05280990607351418 0.04230850414270852 0.01000000000000003
  endloop
endfacet
facet normal 0.956093 0.293063 -0
  outer loop
    vertex 0.05280990607351418 0.04230850414270852 0.01000000000000003
    vertex 0.05172920242459263 0.04583421282126755 0.015
    vertex 0.05280990607351418 0.04230850414270852 0.02
  endloop
endfacet
facet normal 0.557452 -0.830209 -1.0714e-16
  outer loop
    vertex 0.04755909136977753 0.03878279546414948 0
    vertex 0.05280990607351418 0.04230850414270852 0.009999999999999972
    vertex 0.04230827666604087 0.03525708678559043 0.01000000000000003
  endloop
endfacet
facet normal 0.557452 -0.830209 -1.0714e-16
  outer loop
    vertex 0.04230827666604087 0.03525708678559043 0.01000000000000003
    vertex 0.05280990607351418 0.04230850414270852 0.009999999999999972
    vertex 0.04755909136977752 0.03878279546414947 0.02
  endloop
endfacet
facet normal 0.557452 -0.830209 0
  outer loop
    vertex 0.04755909136977753 0.03878279546414948 0
    vertex 0.05280990607351418 0.04230850414270852 0
    vertex 0.05280990607351418 0.04230850414270852 0.009999999999999972
  endloop
endfacet
facet normal 0.557452 -0.830209 0
  outer loop
    vertex 0.05280990607351418 0.04230850414270852 0.009999999999999972
    vertex 0.05280990607351418 0.04230850414270852 0.02
    vertex 0.04755909136977752 0.03878279546414947 0.02
  endloop
endfacet
facet normal 0.557452 -0.830209 0
  outer loop
    vertex 0.04230827666604087 0.03525708678559043 0.01000000000000003
    vertex 0.04230827666604087 0.03525708678559043 0
    vertex 0.04755909136977753 0.03878279546414948 0
  endloop
endfacet
facet normal 0.557452 -0.830209 0
  outer loop
    vertex 0.04755909136977752 0.03878279546414947 0.02
    vertex 0.04230827666604087 0.03525708678559043 0.02
    vertex 0.04230827666604087 0.03525708678559043 0.01000000000000003
  endloop
endfacet
facet normal 0.546638 0.837369 -3.93981e-16
  outer loop
    vertex 0.04770914667271973 0.03173137810703139 0
    vertex 0.04230827666604087 0.03525708678559043 0.009999999999999972
    vertex 0.0531100166793986 0.02820566942847234 0.01000000000000003
  endloop
endfacet
facet normal 0.546638 0.837369 -4.20246e-16
  outer loop
    vertex 0.0531100166793986 0.02820566942847234 0.01000000000000003
    vertex 0.04230827666604087 0.03525708678559043 0.009999999999999972
    vertex 0.04770914667271974 0.03173137810703139 0.02
  endloop
endfacet
facet normal 0.546638 0.837369 0
  outer loop
    vertex 0.04770914667271973 0.03173137810703139 0
    vertex 0.04230827666604087 0.03525708678559043 0
    vertex 0.04230827666604087 0.03525708678559043 0.009999999999999972
  endloop
endfacet
facet normal 0.546638 0.837369 -0
  outer loop
    vertex 0.04230827666604087 0.03525708678559043 0.009999999999999972
    vertex 0.04230827666604087 0.03525708678559043 0.02
    vertex 0.04770914667271974 0.03173137810703139 0.02
  endloop
endfacet
facet normal 0.546638 0.837369 0
  outer loop
    vertex 0.0531100166793986 0.02820566942847234 0.01000000000000003
    vertex 0.0531100166793986 0.02820566942847234 0
    vertex 0.04770914667271973 0.03173137810703139 0
  endloop
endfacet
facet normal 0.546638 0.837369 0
  outer loop
    vertex 0.04770914667271974 0.03173137810703139 0.02
    vertex 0.0531100166793986 0.02820566942847234 0.02
    vertex 0.0531100166793986 0.02820566942847234 0.01000000000000003
  endloop
endfacet
facet normal 0.479982 -0.877278 -1.68486e-16
  outer loop
    vertex 0.04666597301406594 0.02467996074991329 0
    vertex 0.04653446191885507 0.02460800751157536 0.00748569672443616
    vertex 0.04022192934873329 0.02115425207135425 0
  endloop
endfacet
facet normal 0.479982 -0.877278 -1.23236e-16
  outer loop
    vertex 0.0531100166793986 0.02820566942847234 0
    vertex 0.04653446191885507 0.02460800751157536 0.00748569672443616
    vertex 0.04666597301406594 0.02467996074991329 0
  endloop
endfacet
facet normal 0.479982 -0.877278 0
  outer loop
    vertex 0.04022192934873329 0.02115425207135425 0
    vertex 0.04653446191885507 0.02460800751157536 0.00748569672443616
    vertex 0.04022192934873329 0.02115425207135425 0.01000000000000003
  endloop
endfacet
facet normal 0.479982 -0.877278 0
  outer loop
    vertex 0.0531100166793986 0.02820566942847234 0.009999999999999972
    vertex 0.04653446191885507 0.02460800751157536 0.00748569672443616
    vertex 0.0531100166793986 0.02820566942847234 0
  endloop
endfacet
facet normal 0.479982 -0.877278 0
  outer loop
    vertex 0.0531100166793986 0.02820566942847234 0.02
    vertex 0.04859918611366575 0.02573767335348101 0.01469065519329829
    vertex 0.0531100166793986 0.02820566942847234 0.009999999999999972
  endloop
endfacet
facet normal 0.479982 -0.877278 0
  outer loop
    vertex 0.04022192934873329 0.02115425207135425 0.01000000000000003
    vertex 0.04416162601526466 0.02330976551127796 0.0145966217025335
    vertex 0.04022192934873329 0.02115425207135425 0.02
  endloop
endfacet
facet normal 0.479982 -0.877278 8.53638e-16
  outer loop
    vertex 0.04022192934873329 0.02115425207135425 0.02
    vertex 0.04416162601526466 0.02330976551127796 0.0145966217025335
    vertex 0.04666597301406596 0.02467996074991331 0.02
  endloop
endfacet
facet normal 0.479982 -0.877278 6.51568e-16
  outer loop
    vertex 0.04666597301406596 0.02467996074991331 0.02
    vertex 0.04859918611366575 0.02573767335348101 0.01469065519329829
    vertex 0.0531100166793986 0.02820566942847234 0.02
  endloop
endfacet
facet normal 0.479982 -0.877278 -1.403e-16
  outer loop
    vertex 0.04859918611366575 0.02573767335348101 0.01469065519329829
    vertex 0.04416162601526466 0.02330976551127796 0.0145966217025335
    vertex 0.04653446191885507 0.02460800751157536 0.00748569672443616
  endloop
endfacet
facet normal 0.479982 -0.877278 8.13744e-16
  outer loop
    vertex 0.04666597301406596 0.02467996074991331 0.02
    vertex 0.04416162601526466 0.02330976551127796 0.0145966217025335
    vertex 0.04859918611366575 0.02573767335348101 0.01469065519329829
  endloop
endfacet
facet normal 0.479982 -0.877278 -1.76148e-16
  outer loop
    vertex 0.04859918611366575 0.02573767335348101 0.01469065519329829
    vertex 0.04653446191885507 0.02460800751157536 0.00748569672443616
    vertex 0.0531100166793986 0.02820566942847234 0.009999999999999972
  endloop
endfacet
facet normal 0.479982 -0.877278 -4.20016e-16
  outer loop
    vertex 0.04653446191885507 0.02460800751157536 0.00748569672443616
    vertex 0.04416162601526466 0.02330976551127796 0.0145966217025335
    vertex 0.04022192934873329 0.02115425207135425 0.01000000000000003
  endloop
endfacet
facet normal 0.84401 0.536328 0
  outer loop
    vertex 0.04022192934873329 0.02115425207135425 0.02
    vertex 0.04246234741759099 0.01762854339279521 0.015
    vertex 0.04022192934873329 0.02115425207135425 0.009999999999999972
  endloop
endfacet
facet normal 0.84401 0.536328 -0
  outer loop
    vertex 0.04470276548644871 0.01410283471423617 0
    vertex 0.04246234741759099 0.01762854339279521 0.005000000000000001
    vertex 0.04470276548644871 0.01410283471423617 0.01000000000000003
  endloop
endfacet
facet normal 0.84401 0.536328 0
  outer loop
    vertex 0.04022192934873329 0.02115425207135425 0.009999999999999972
    vertex 0.04246234741759099 0.01762854339279521 0.005000000000000001
    vertex 0.04022192934873329 0.02115425207135425 0
  endloop
endfacet
facet normal 0.84401 0.536328 -0
  outer loop
    vertex 0.04470276548644871 0.01410283471423617 0.01000000000000003
    vertex 0.04246234741759099 0.01762854339279521 0.015
    vertex 0.04470276548644871 0.01410283471423617 0.02
  endloop
endfacet
facet normal 0.84401 0.536328 2.51433e-15
  outer loop
    vertex 0.04022192934873329 0.02115425207135425 0
    vertex 0.04246234741759099 0.01762854339279521 0.005000000000000001
    vertex 0.04470276548644871 0.01410283471423617 0
  endloop
endfacet
facet normal 0.84401 0.536328 -2.43323e-15
  outer loop
    vertex 0.04470276548644871 0.01410283471423617 0.02
    vertex 0.04246234741759099 0.01762854339279521 0.015
    vertex 0.04022192934873329 0.02115425207135425 0.02
  endloop
endfacet
facet normal 0.84401 0.536328 -2.43323e-15
  outer loop
    vertex 0.04470276548644871 0.01410283471423617 0.01000000000000003
    vertex 0.04246234741759099 0.01762854339279521 0.005000000000000001
    vertex 0.04022192934873329 0.02115425207135425 0.009999999999999972
  endloop
endfacet
facet normal 0.84401 0.536328 2.51433e-15
  outer loop
    vertex 0.04022192934873329 0.02115425207135425 0.009999999999999972
    vertex 0.04246234741759099 0.01762854339279521 0.015
    vertex 0.04470276548644871 0.01410283471423617 0.01000000000000003
  endloop
endfacet
facet normal 0.98435 -0.176223 0
  outer loop
    vertex 0.04344038590015088 0.007051417357118089 0.01000000000000003
    vertex 0.04407157569329979 0.01057712603567713 0.004999999999999999
    vertex 0.04470276548644871 0.01410283471423617 0.009999999999999972
  endloop
endfacet
facet normal 0.98435 -0.176223 0
  outer loop
    vertex 0.04470276548644871 0.01410283471423617 0.009999999999999972
    vertex 0.04407157569329979 0.01057712603567713 0.015
    vertex 0.04344038590015088 0.007051417357118089 0.01000000000000003
  endloop
endfacet
facet normal 0.98435 -0.176223 0
  outer loop
    vertex 0.04470276548644871 0.01410283471423617 0
    vertex 0.04407157569329979 0.01057712603567713 0.004999999999999999
    vertex 0.04344038590015088 0.007051417357118089 0
  endloop
endfacet
facet normal 0.98435 -0.176223 0
  outer loop
    vertex 0.04344038590015088 0.007051417357118089 0.02
    vertex 0.04407157569329979 0.01057712603567713 0.015
    vertex 0.04470276548644871 0.01410283471423617 0.02
  endloop
endfacet
facet normal 0.98435 -0.176223 0
  outer loop
    vertex 0.04470276548644871 0.01410283471423617 0.009999999999999972
    vertex 0.04407157569329979 0.01057712603567713 0.004999999999999999
    vertex 0.04470276548644871 0.01410283471423617 0
  endloop
endfacet
facet normal 0.98435 -0.176223 0
  outer loop
    vertex 0.04470276548644871 0.01410283471423617 0.02
    vertex 0.04407157569329979 0.01057712603567713 0.015
    vertex 0.04470276548644871 0.01410283471423617 0.009999999999999972
  endloop
endfacet
facet normal 0.98435 -0.176223 0
  outer loop
    vertex 0.04344038590015088 0.007051417357118089 0
    vertex 0.04407157569329979 0.01057712603567713 0.004999999999999999
    vertex 0.04344038590015088 0.007051417357118089 0.01000000000000003
  endloop
endfacet
facet normal 0.98435 -0.176223 0
  outer loop
    vertex 0.04344038590015088 0.007051417357118089 0.01000000000000003
    vertex 0.04407157569329979 0.01057712603567713 0.015
    vertex 0.04344038590015088 0.007051417357118089 0.02
  endloop
endfacet
endsolid Created by Gmsh
