solid Created by Gmsh
facet normal 0.993813 -0.111068 0
  outer loop
    vertex 0.008 0 0
    vertex 0.008965249005784805 0.008636856960190172 0.008356755724175739
    vertex 0.008 0 0.01000000000000003
  endloop
endfacet
facet normal 0.993813 -0.111068 0
  outer loop
    vertex 0.01443499337189872 0.05757904640126799 0.02
    vertex 0.01346974436611391 0.04894218944107782 0.01164324427582426
    vertex 0.01443499337189872 0.05757904640126799 0.009999999999999972
  endloop
endfacet
facet normal 0.993813 -0.111068 -1.53077e-16
  outer loop
    vertex 0.01314799469751898 0.04606323712101441 0.02
    vertex 0.01346974436611391 0.04894218944107782 0.01164324427582426
    vertex 0.01443499337189872 0.05757904640126799 0.02
  endloop
endfacet
facet normal 0.993813 -0.111068 7.87255e-17
  outer loop
    vertex 0.009286998674379742 0.01151580928025358 0
    vertex 0.008965249005784805 0.008636856960190172 0.008356755724175739
    vertex 0.008 0 0
  endloop
endfacet
facet normal 0.993813 -0.111068 -5.02988e-17
  outer loop
    vertex 0.01057399734875948 0.02303161856050715 0
    vertex 0.01121749668594936 0.028789523200634 0.01
    vertex 0.009984122956335439 0.01775353930705763 0.009726125954029295
  endloop
endfacet
facet normal 0.993813 -0.111068 -2.25607e-17
  outer loop
    vertex 0.009984122956335439 0.01775353930705763 0.009726125954029295
    vertex 0.01121749668594936 0.028789523200634 0.01
    vertex 0.01057399734875949 0.02303161856050723 0.02
  endloop
endfacet
facet normal 0.993813 -0.111068 8.77186e-17
  outer loop
    vertex 0.01186099602313923 0.03454742784076076 0
    vertex 0.01121749668594936 0.028789523200634 0.01
    vertex 0.01057399734875948 0.02303161856050715 0
  endloop
endfacet
facet normal 0.993813 -0.111068 9.96103e-17
  outer loop
    vertex 0.01314799469751897 0.04606323712101438 0
    vertex 0.01245087041556328 0.03982550709421038 0.01027387404597072
    vertex 0.01186099602313923 0.03454742784076076 0
  endloop
endfacet
facet normal 0.993813 -0.111068 5.69202e-17
  outer loop
    vertex 0.009286998674379746 0.01151580928025361 0.02
    vertex 0.009984122956335439 0.01775353930705763 0.009726125954029295
    vertex 0.01057399734875949 0.02303161856050723 0.02
  endloop
endfacet
facet normal 0.993813 -0.111068 -8.26729e-17
  outer loop
    vertex 0.01057399734875948 0.02303161856050715 0
    vertex 0.009984122956335439 0.01775353930705763 0.009726125954029295
    vertex 0.009286998674379742 0.01151580928025358 0
  endloop
endfacet
facet normal 0.993813 -0.111068 1.27844e-16
  outer loop
    vertex 0.01245087041556328 0.03982550709421038 0.01027387404597072
    vertex 0.01121749668594936 0.028789523200634 0.01
    vertex 0.01186099602313923 0.03454742784076076 0
  endloop
endfacet
facet normal 0.993813 -0.111068 -1.50314e-16
  outer loop
    vertex 0.01186099602313924 0.03454742784076084 0.02
    vertex 0.01245087041556328 0.03982550709421038 0.01027387404597072
    vertex 0.01314799469751898 0.04606323712101441 0.02
  endloop
endfacet
facet normal 0.993813 -0.111068 -2.39887e-16
  outer loop
    vertex 0.01186099602313924 0.03454742784076084 0.02
    vertex 0.01121749668594936 0.028789523200634 0.01
    vertex 0.01245087041556328 0.03982550709421038 0.01027387404597072
  endloop
endfacet
facet normal 0.993813 -0.111068 -1.82747e-16
  outer loop
    vertex 0.01057399734875949 0.02303161856050723 0.02
    vertex 0.01121749668594936 0.028789523200634 0.01
    vertex 0.01186099602313924 0.03454742784076084 0.02
  endloop
endfacet
facet normal 0.993813 -0.111068 -2.8827e-17
  outer loop
    vertex 0.009286998674379746 0.01151580928025361 0.02
    vertex 0.008965249005784805 0.008636856960190172 0.008356755724175739
    vertex 0.009984122956335439 0.01775353930705763 0.009726125954029295
  endloop
endfacet
facet normal 0.993813 -0.111068 1.19426e-16
  outer loop
    vertex 0.01314799469751897 0.04606323712101438 0
    vertex 0.01346974436611391 0.04894218944107782 0.01164324427582426
    vertex 0.01245087041556328 0.03982550709421038 0.01027387404597072
  endloop
endfacet
facet normal 0.993813 -0.111068 1.03982e-16
  outer loop
    vertex 0.01314799469751897 0.04606323712101438 0
    vertex 0.01383010919084884 0.05216666253151007 0.004999999999999986
    vertex 0.01346974436611391 0.04894218944107782 0.01164324427582426
  endloop
endfacet
facet normal 0.993813 -0.111068 -3.71364e-17
  outer loop
    vertex 0.009286998674379746 0.01151580928025361 0.02
    vertex 0.008604884181049875 0.005412383869757918 0.01500000000000001
    vertex 0.008965249005784805 0.008636856960190172 0.008356755724175739
  endloop
endfacet
facet normal 0.993813 -0.111068 -8.77186e-17
  outer loop
    vertex 0.008 0 0.02
    vertex 0.008604884181049875 0.005412383869757918 0.01500000000000001
    vertex 0.009286998674379746 0.01151580928025361 0.02
  endloop
endfacet
facet normal 0.993813 -0.111068 2.63156e-16
  outer loop
    vertex 0.01443499337189872 0.05757904640126799 0
    vertex 0.01383010919084884 0.05216666253151007 0.004999999999999986
    vertex 0.01314799469751897 0.04606323712101438 0
  endloop
endfacet
facet normal 0.993813 -0.111068 6.30334e-17
  outer loop
    vertex 0.009984122956335439 0.01775353930705763 0.009726125954029295
    vertex 0.008965249005784805 0.008636856960190172 0.008356755724175739
    vertex 0.009286998674379742 0.01151580928025358 0
  endloop
endfacet
facet normal 0.993813 -0.111068 -1.05056e-16
  outer loop
    vertex 0.01245087041556328 0.03982550709421038 0.01027387404597072
    vertex 0.01346974436611391 0.04894218944107782 0.01164324427582426
    vertex 0.01314799469751898 0.04606323712101441 0.02
  endloop
endfacet
facet normal 0.993813 -0.111068 0
  outer loop
    vertex 0.01443499337189872 0.05757904640126799 0.009999999999999972
    vertex 0.01383010919084884 0.05216666253151007 0.004999999999999986
    vertex 0.01443499337189872 0.05757904640126799 0
  endloop
endfacet
facet normal 0.993813 -0.111068 0
  outer loop
    vertex 0.008 0 0.01000000000000003
    vertex 0.008604884181049875 0.005412383869757918 0.01500000000000001
    vertex 0.008 0 0.02
  endloop
endfacet
facet normal 0.993813 -0.111068 -4.84921e-17
  outer loop
    vertex 0.01346974436611391 0.04894218944107782 0.01164324427582426
    vertex 0.01383010919084884 0.05216666253151007 0.004999999999999986
    vertex 0.01443499337189872 0.05757904640126799 0.009999999999999972
  endloop
endfacet
facet normal 0.993813 -0.111068 1.6164e-17
  outer loop
    vertex 0.008965249005784805 0.008636856960190172 0.008356755724175739
    vertex 0.008604884181049875 0.005412383869757918 0.01500000000000001
    vertex 0.008 0 0.01000000000000003
  endloop
endfacet
endsolid Created by Gmsh
