solid Created by Gmsh
facet normal 1 0 0
  outer loop
    vertex 0.04 0.06 0.02
    vertex 0.04 0.05587472709576671 0.015
    vertex 0.04 0.06 0.009999999999999972
  endloop
endfacet
facet normal 1 0 0
  outer loop
    vertex 0.04 0.05174945419153343 0
    vertex 0.04 0.05587472709576671 0.005
    vertex 0.04 0.05174945419153343 0.01000000000000003
  endloop
endfacet
facet normal 1 0 0
  outer loop
    vertex 0.04 0.06 0.009999999999999972
    vertex 0.04 0.05587472709576671 0.005
    vertex 0.04 0.06 0
  endloop
endfacet
facet normal 1 0 0
  outer loop
    vertex 0.04 0.05174945419153343 0.01000000000000003
    vertex 0.04 0.05587472709576671 0.015
    vertex 0.04 0.05174945419153343 0.02
  endloop
endfacet
facet normal 1 0 0
  outer loop
    vertex 0.04 0.05174945419153343 0.01000000000000003
    vertex 0.04 0.05587472709576671 0.005
    vertex 0.04 0.06 0.009999999999999972
  endloop
endfacet
facet normal 1 0 0
  outer loop
    vertex 0.04 0.06 0.009999999999999972
    vertex 0.04 0.05587472709576671 0.015
    vertex 0.04 0.05174945419153343 0.01000000000000003
  endloop
endfacet
facet normal 1 0 0
  outer loop
    vertex 0.04 0.06 0
    vertex 0.04 0.05587472709576671 0.005
    vertex 0.04 0.05174945419153343 0
  endloop
endfacet
facet normal 1 -0 0
  outer loop
    vertex 0.04 0.05174945419153343 0.02
    vertex 0.04 0.05587472709576671 0.015
    vertex 0.04 0.06 0.02
  endloop
endfacet
facet normal 0.566679 -0.823939 1.0459e-15
  outer loop
    vertex 0.03059468208852708 0.04528077241759175 0.02
    vertex 0.03529734104426354 0.04851511330456258 0.01432426114969104
    vertex 0.04 0.05174945419153343 0.02
  endloop
endfacet
facet normal 0.566679 -0.823939 -9.84389e-16
  outer loop
    vertex 0.04 0.05174945419153343 0
    vertex 0.03529734104426354 0.04851511330456258 0.005728862973760926
    vertex 0.03059468208852708 0.04528077241759175 0
  endloop
endfacet
facet normal 0.566679 -0.823939 0
  outer loop
    vertex 0.04 0.05174945419153343 0.009999999999999972
    vertex 0.03529734104426354 0.04851511330456258 0.01432426114969104
    vertex 0.03529734104426354 0.04851511330456258 0.005728862973760926
  endloop
endfacet
facet normal 0.566679 -0.823939 0
  outer loop
    vertex 0.03529734104426354 0.04851511330456258 0.005728862973760926
    vertex 0.03529734104426354 0.04851511330456258 0.01432426114969104
    vertex 0.03059468208852708 0.04528077241759175 0.01000000000000003
  endloop
endfacet
facet normal 0.566679 -0.823939 0
  outer loop
    vertex 0.04 0.05174945419153343 0.02
    vertex 0.03529734104426354 0.04851511330456258 0.01432426114969104
    vertex 0.04 0.05174945419153343 0.009999999999999972
  endloop
endfacet
facet normal 0.566679 -0.823939 0
  outer loop
    vertex 0.03059468208852708 0.04528077241759175 0
    vertex 0.03529734104426354 0.04851511330456258 0.005728862973760926
    vertex 0.03059468208852708 0.04528077241759175 0.01000000000000003
  endloop
endfacet
facet normal 0.566679 -0.823939 0
  outer loop
    vertex 0.04 0.05174945419153343 0.009999999999999972
    vertex 0.03529734104426354 0.04851511330456258 0.005728862973760926
    vertex 0.04 0.05174945419153343 0
  endloop
endfacet
facet normal 0.566679 -0.823939 0
  outer loop
    vertex 0.03059468208852708 0.04528077241759175 0.01000000000000003
    vertex 0.03529734104426354 0.04851511330456258 0.01432426114969104
    vertex 0.03059468208852708 0.04528077241759175 0.02
  endloop
endfacet
facet normal 0.649078 0.760722 0
  outer loop
    vertex 0.03059468208852708 0.04528077241759175 0.02
    vertex 0.03438534670959663 0.04204643153062091 0.015
    vertex 0.03059468208852708 0.04528077241759175 0.009999999999999972
  endloop
endfacet
facet normal 0.649078 0.760722 -0
  outer loop
    vertex 0.03817601133066619 0.03881209064365007 0
    vertex 0.03438534670959664 0.0420464315306209 0.005
    vertex 0.03817601133066619 0.03881209064365007 0.01000000000000003
  endloop
endfacet
facet normal 0.649078 0.760722 0
  outer loop
    vertex 0.03059468208852708 0.04528077241759175 0.009999999999999972
    vertex 0.03438534670959664 0.0420464315306209 0.005
    vertex 0.03059468208852708 0.04528077241759175 0
  endloop
endfacet
facet normal 0.649078 0.760722 -0
  outer loop
    vertex 0.03817601133066619 0.03881209064365007 0.01000000000000003
    vertex 0.03438534670959663 0.04204643153062091 0.015
    vertex 0.03817601133066619 0.03881209064365007 0.02
  endloop
endfacet
facet normal 0.649078 0.760722 1.01991e-15
  outer loop
    vertex 0.03059468208852708 0.04528077241759175 0
    vertex 0.03438534670959664 0.0420464315306209 0.005
    vertex 0.03817601133066619 0.03881209064365007 0
  endloop
endfacet
facet normal 0.649078 0.760722 -8.83923e-16
  outer loop
    vertex 0.03817601133066619 0.03881209064365007 0.02
    vertex 0.03438534670959663 0.04204643153062091 0.015
    vertex 0.03059468208852708 0.04528077241759175 0.02
  endloop
endfacet
facet normal 0.649078 0.760722 -1.08791e-15
  outer loop
    vertex 0.03817601133066619 0.03881209064365007 0.01000000000000003
    vertex 0.03438534670959664 0.0420464315306209 0.005
    vertex 0.03059468208852708 0.04528077241759175 0.009999999999999972
  endloop
endfacet
facet normal 0.649078 0.760722 9.51917e-16
  outer loop
    vertex 0.03059468208852708 0.04528077241759175 0.009999999999999972
    vertex 0.03438534670959663 0.04204643153062091 0.015
    vertex 0.03817601133066619 0.03881209064365007 0.01000000000000003
  endloop
endfacet
facet normal 0.711624 -0.702561 0
  outer loop
    vertex 0.03178971349271311 0.03234340886970839 0
    vertex 0.03498286241168965 0.03557774975667923 0.005
    vertex 0.03178971349271311 0.03234340886970839 0.01000000000000003
  endloop
endfacet
facet normal 0.711624 -0.702561 0
  outer loop
    vertex 0.03817601133066619 0.03881209064365007 0.02
    vertex 0.03498286241168965 0.03557774975667923 0.015
    vertex 0.03817601133066619 0.03881209064365007 0.009999999999999972
  endloop
endfacet
facet normal 0.711624 -0.702561 0
  outer loop
    vertex 0.03178971349271311 0.03234340886970839 0.01000000000000003
    vertex 0.03498286241168965 0.03557774975667923 0.015
    vertex 0.03178971349271311 0.03234340886970839 0.02
  endloop
endfacet
facet normal 0.711624 -0.702561 0
  outer loop
    vertex 0.03817601133066619 0.03881209064365007 0.009999999999999972
    vertex 0.03498286241168965 0.03557774975667923 0.005
    vertex 0.03817601133066619 0.03881209064365007 0
  endloop
endfacet
facet normal 0.711624 -0.702561 0
  outer loop
    vertex 0.03817601133066619 0.03881209064365007 0.009999999999999972
    vertex 0.03498286241168965 0.03557774975667923 0.015
    vertex 0.03178971349271311 0.03234340886970839 0.01000000000000003
  endloop
endfacet
facet normal 0.711624 -0.702561 0
  outer loop
    vertex 0.03178971349271311 0.03234340886970839 0.01000000000000003
    vertex 0.03498286241168965 0.03557774975667923 0.005
    vertex 0.03817601133066619 0.03881209064365007 0.009999999999999972
  endloop
endfacet
facet normal 0.711624 -0.702561 0
  outer loop
    vertex 0.03817601133066619 0.03881209064365007 0
    vertex 0.03498286241168965 0.03557774975667923 0.005
    vertex 0.03178971349271311 0.03234340886970839 0
  endloop
endfacet
facet normal 0.711624 -0.702561 0
  outer loop
    vertex 0.03178971349271311 0.03234340886970839 0.02
    vertex 0.03498286241168965 0.03557774975667923 0.015
    vertex 0.03817601133066619 0.03881209064365007 0.02
  endloop
endfacet
facet normal 0.50393 0.863745 0
  outer loop
    vertex 0.04287714498999023 0.02587472709576671 0.01000000000000003
    vertex 0.03178971349271311 0.03234340886970839 0.009999999999999972
    vertex 0.03733342924135167 0.02910906798273755 0.02
  endloop
endfacet
facet normal 0.50393 0.863745 0
  outer loop
    vertex 0.03733342924135167 0.02910906798273755 0
    vertex 0.03178971349271311 0.03234340886970839 0.009999999999999972
    vertex 0.04287714498999023 0.02587472709576671 0.01000000000000003
  endloop
endfacet
facet normal 0.50393 0.863745 0
  outer loop
    vertex 0.03733342924135167 0.02910906798273755 0
    vertex 0.03178971349271311 0.03234340886970839 0
    vertex 0.03178971349271311 0.03234340886970839 0.009999999999999972
  endloop
endfacet
facet normal 0.50393 0.863745 -0
  outer loop
    vertex 0.03178971349271311 0.03234340886970839 0.009999999999999972
    vertex 0.03178971349271311 0.03234340886970839 0.02
    vertex 0.03733342924135167 0.02910906798273755 0.02
  endloop
endfacet
facet normal 0.50393 0.863745 0
  outer loop
    vertex 0.04287714498999023 0.02587472709576671 0.01000000000000003
    vertex 0.04287714498999023 0.02587472709576671 0
    vertex 0.03733342924135167 0.02910906798273755 0
  endloop
endfacet
facet normal 0.50393 0.863745 0
  outer loop
    vertex 0.03733342924135167 0.02910906798273755 0.02
    vertex 0.04287714498999023 0.02587472709576671 0.02
    vertex 0.04287714498999023 0.02587472709576671 0.01000000000000003
  endloop
endfacet
facet normal 0.310397 -0.950607 0
  outer loop
    vertex 0.04287714498999023 0.02587472709576671 0.02
    vertex 0.03535033371726445 0.0234170353971738 0.01217837247318175
    vertex 0.04287714498999023 0.02587472709576671 0.009999999999999972
  endloop
endfacet
facet normal 0.310397 -0.950607 2.07857e-17
  outer loop
    vertex 0.03297180435600117 0.02264038620879588 0.02
    vertex 0.03535033371726445 0.0234170353971738 0.01217837247318175
    vertex 0.04287714498999023 0.02587472709576671 0.02
  endloop
endfacet
facet normal 0.310397 -0.950607 2.20126e-17
  outer loop
    vertex 0.03297180435600115 0.02264038620879587 0
    vertex 0.02996372021403373 0.02165817167510995 0.007385668884883254
    vertex 0.02306646372201208 0.01940604532182504 0
  endloop
endfacet
facet normal 0.310397 -0.950607 0
  outer loop
    vertex 0.02306646372201208 0.01940604532182504 0
    vertex 0.02996372021403373 0.02165817167510995 0.007385668884883254
    vertex 0.02306646372201208 0.01940604532182504 0.01000000000000003
  endloop
endfacet
facet normal 0.310397 -0.950607 5.43826e-17
  outer loop
    vertex 0.02306646372201208 0.01940604532182504 0.02
    vertex 0.02883405996330001 0.02128930941460408 0.01402095701538833
    vertex 0.03297180435600117 0.02264038620879588 0.02
  endloop
endfacet
facet normal 0.310397 -0.950607 3.25156e-16
  outer loop
    vertex 0.04287714498999023 0.02587472709576671 0
    vertex 0.03792447467299569 0.02425755665228129 0.004999999999999987
    vertex 0.03297180435600115 0.02264038620879587 0
  endloop
endfacet
facet normal 0.310397 -0.950607 0
  outer loop
    vertex 0.02306646372201208 0.01940604532182504 0.01000000000000003
    vertex 0.02883405996330001 0.02128930941460408 0.01402095701538833
    vertex 0.02306646372201208 0.01940604532182504 0.02
  endloop
endfacet
facet normal 0.310397 -0.950607 0
  outer loop
    vertex 0.04287714498999023 0.02587472709576671 0.009999999999999972
    vertex 0.03792447467299569 0.02425755665228129 0.004999999999999987
    vertex 0.04287714498999023 0.02587472709576671 0
  endloop
endfacet
facet normal 0.310397 -0.950607 1.40389e-16
  outer loop
    vertex 0.03297180435600115 0.02264038620879587 0
    vertex 0.03792447467299569 0.02425755665228129 0.004999999999999987
    vertex 0.02996372021403373 0.02165817167510995 0.007385668884883254
  endloop
endfacet
facet normal 0.310397 -0.950607 -2.21016e-16
  outer loop
    vertex 0.02996372021403373 0.02165817167510995 0.007385668884883254
    vertex 0.03792447467299569 0.02425755665228129 0.004999999999999987
    vertex 0.03535033371726445 0.0234170353971738 0.01217837247318175
  endloop
endfacet
facet normal 0.310397 -0.950607 3.45687e-17
  outer loop
    vertex 0.02883405996330001 0.02128930941460408 0.01402095701538833
    vertex 0.03535033371726445 0.0234170353971738 0.01217837247318175
    vertex 0.03297180435600117 0.02264038620879588 0.02
  endloop
endfacet
facet normal 0.310397 -0.950607 -2.49426e-16
  outer loop
    vertex 0.03535033371726445 0.0234170353971738 0.01217837247318175
    vertex 0.03792447467299569 0.02425755665228129 0.004999999999999987
    vertex 0.04287714498999023 0.02587472709576671 0.009999999999999972
  endloop
endfacet
facet normal 0.310397 -0.950607 -3.91291e-17
  outer loop
    vertex 0.02883405996330001 0.02128930941460408 0.01402095701538833
    vertex 0.02996372021403373 0.02165817167510995 0.007385668884883254
    vertex 0.03535033371726445 0.0234170353971738 0.01217837247318175
  endloop
endfacet
facet normal 0.310397 -0.950607 -7.52309e-17
  outer loop
    vertex 0.02306646372201208 0.01940604532182504 0.01000000000000003
    vertex 0.02996372021403373 0.02165817167510995 0.007385668884883254
    vertex 0.02883405996330001 0.02128930941460408 0.01402095701538833
  endloop
endfacet
facet normal 0.344221 0.938889 1.41474e-16
  outer loop
    vertex 0.02306646372201208 0.01940604532182504 0
    vertex 0.03012179288268454 0.01681937525437689 0.007646414426923374
    vertex 0.03188836175321819 0.0161717044348542 0
  endloop
endfacet
facet normal 0.344221 0.938889 0
  outer loop
    vertex 0.02306646372201208 0.01940604532182504 0.009999999999999972
    vertex 0.03012179288268454 0.01681937525437689 0.007646414426923374
    vertex 0.02306646372201208 0.01940604532182504 0
  endloop
endfacet
facet normal 0.344221 0.938889 -0
  outer loop
    vertex 0.04071025978442431 0.01293736354788336 0.01000000000000003
    vertex 0.03425825172540081 0.01530284016012119 0.01308234145393101
    vertex 0.04071025978442431 0.01293736354788336 0.02
  endloop
endfacet
facet normal 0.344221 0.938889 -1.56378e-16
  outer loop
    vertex 0.04071025978442431 0.01293736354788336 0.02
    vertex 0.03425825172540081 0.01530284016012119 0.01308234145393101
    vertex 0.03188836175321819 0.0161717044348542 0.02
  endloop
endfacet
facet normal 0.344221 0.938889 0
  outer loop
    vertex 0.02306646372201208 0.01940604532182504 0.02
    vertex 0.02839098013750066 0.01745393693369309 0.01420286134799945
    vertex 0.02306646372201208 0.01940604532182504 0.009999999999999972
  endloop
endfacet
facet normal 0.344221 0.938889 -0
  outer loop
    vertex 0.04071025978442431 0.01293736354788336 0
    vertex 0.03629931076882125 0.01455453399136877 0.005000000000000014
    vertex 0.04071025978442431 0.01293736354788336 0.01000000000000003
  endloop
endfacet
facet normal 0.344221 0.938889 -3.11006e-17
  outer loop
    vertex 0.03188836175321819 0.0161717044348542 0.02
    vertex 0.02839098013750066 0.01745393693369309 0.01420286134799945
    vertex 0.02306646372201208 0.01940604532182504 0.02
  endloop
endfacet
facet normal 0.344221 0.938889 3.2453e-16
  outer loop
    vertex 0.03188836175321819 0.0161717044348542 0
    vertex 0.03629931076882125 0.01455453399136877 0.005000000000000014
    vertex 0.04071025978442431 0.01293736354788336 0
  endloop
endfacet
facet normal 0.344221 0.938889 -1.04056e-16
  outer loop
    vertex 0.04071025978442431 0.01293736354788336 0.01000000000000003
    vertex 0.03629931076882125 0.01455453399136877 0.005000000000000014
    vertex 0.03425825172540081 0.01530284016012119 0.01308234145393101
  endloop
endfacet
facet normal 0.344221 0.938889 -8.93013e-18
  outer loop
    vertex 0.03425825172540081 0.01530284016012119 0.01308234145393101
    vertex 0.03629931076882125 0.01455453399136877 0.005000000000000014
    vertex 0.03012179288268454 0.01681937525437689 0.007646414426923374
  endloop
endfacet
facet normal 0.344221 0.938889 -9.42614e-17
  outer loop
    vertex 0.02839098013750066 0.01745393693369309 0.01420286134799945
    vertex 0.03012179288268454 0.01681937525437689 0.007646414426923374
    vertex 0.02306646372201208 0.01940604532182504 0.009999999999999972
  endloop
endfacet
facet normal 0.344221 0.938889 1.30798e-16
  outer loop
    vertex 0.03012179288268454 0.01681937525437689 0.007646414426923374
    vertex 0.03629931076882125 0.01455453399136877 0.005000000000000014
    vertex 0.03188836175321819 0.0161717044348542 0
  endloop
endfacet
facet normal 0.344221 0.938889 -8.70835e-17
  outer loop
    vertex 0.02839098013750066 0.01745393693369309 0.01420286134799945
    vertex 0.03425825172540081 0.01530284016012119 0.01308234145393101
    vertex 0.03012179288268454 0.01681937525437689 0.007646414426923374
  endloop
endfacet
facet normal 0.344221 0.938889 -9.43448e-17
  outer loop
    vertex 0.03188836175321819 0.0161717044348542 0.02
    vertex 0.03425825172540081 0.01530284016012119 0.01308234145393101
    vertex 0.02839098013750066 0.01745393693369309 0.01420286134799945
  endloop
endfacet
facet normal 0.697083 -0.71699 0
  outer loop
    vertex 0.03405684846124475 0.006468681773941679 0
    vertex 0.03738355412283453 0.00970302266091252 0.005
    vertex 0.03405684846124475 0.006468681773941679 0.01000000000000003
  endloop
endfacet
facet normal 0.697083 -0.71699 0
  outer loop
    vertex 0.04071025978442431 0.01293736354788336 0.02
    vertex 0.03738355412283453 0.00970302266091252 0.015
    vertex 0.04071025978442431 0.01293736354788336 0.009999999999999972
  endloop
endfacet
facet normal 0.697083 -0.71699 0
  outer loop
    vertex 0.03405684846124475 0.006468681773941679 0.01000000000000003
    vertex 0.03738355412283453 0.00970302266091252 0.015
    vertex 0.03405684846124475 0.006468681773941679 0.02
  endloop
endfacet
facet normal 0.697083 -0.71699 0
  outer loop
    vertex 0.04071025978442431 0.01293736354788336 0.009999999999999972
    vertex 0.03738355412283453 0.00970302266091252 0.005
    vertex 0.04071025978442431 0.01293736354788336 0
  endloop
endfacet
facet normal 0.697083 -0.71699 2.19069e-16
  outer loop
    vertex 0.03405684846124475 0.006468681773941679 0.02
    vertex 0.03738355412283453 0.00970302266091252 0.015
    vertex 0.04071025978442431 0.01293736354788336 0.02
  endloop
endfacet
facet normal 0.697083 -0.71699 -7.30229e-16
  outer loop
    vertex 0.03405684846124475 0.006468681773941679 0.01000000000000003
    vertex 0.03738355412283453 0.00970302266091252 0.005
    vertex 0.04071025978442431 0.01293736354788336 0.009999999999999972
  endloop
endfacet
facet normal 0.697083 -0.71699 -2.19069e-16
  outer loop
    vertex 0.04071025978442431 0.01293736354788336 0.009999999999999972
    vertex 0.03738355412283453 0.00970302266091252 0.015
    vertex 0.03405684846124475 0.006468681773941679 0.01000000000000003
  endloop
endfacet
facet normal 0.697083 -0.71699 7.30229e-16
  outer loop
    vertex 0.04071025978442431 0.01293736354788336 0
    vertex 0.03738355412283453 0.00970302266091252 0.005
    vertex 0.03405684846124475 0.006468681773941679 0
  endloop
endfacet
endsolid Created by Gmsh
