solid Created by Gmsh
facet normal 1 0 0
  outer loop
    vertex 0.04 0.06 0.02
    vertex 0.04 0.05610175147959756 0.015
    vertex 0.04 0.06 0.009999999999999972
  endloop
endfacet
facet normal 1 0 0
  outer loop
    vertex 0.04 0.05220350295919512 0
    vertex 0.04 0.05610175147959756 0.005000000000000001
    vertex 0.04 0.05220350295919512 0.01000000000000003
  endloop
endfacet
facet normal 1 0 0
  outer loop
    vertex 0.04 0.06 0.009999999999999972
    vertex 0.04 0.05610175147959756 0.005000000000000001
    vertex 0.04 0.06 0
  endloop
endfacet
facet normal 1 0 0
  outer loop
    vertex 0.04 0.05220350295919512 0.01000000000000003
    vertex 0.04 0.05610175147959756 0.015
    vertex 0.04 0.05220350295919512 0.02
  endloop
endfacet
facet normal 1 -0 0
  outer loop
    vertex 0.04 0.05220350295919512 0.02
    vertex 0.04 0.05610175147959756 0.015
    vertex 0.04 0.06 0.02
  endloop
endfacet
facet normal 1 0 0
  outer loop
    vertex 0.04 0.05220350295919512 0.01000000000000003
    vertex 0.04 0.05610175147959756 0.005000000000000001
    vertex 0.04 0.06 0.009999999999999972
  endloop
endfacet
facet normal 1 0 0
  outer loop
    vertex 0.04 0.06 0
    vertex 0.04 0.05610175147959756 0.005000000000000001
    vertex 0.04 0.05220350295919512 0
  endloop
endfacet
facet normal 1 0 0
  outer loop
    vertex 0.04 0.06 0.009999999999999972
    vertex 0.04 0.05610175147959756 0.015
    vertex 0.04 0.05220350295919512 0.01000000000000003
  endloop
endfacet
facet normal 0.956265 0.292501 -1.14198e-15
  outer loop
    vertex 0.04 0.05220350295919512 0
    vertex 0.04099799456596206 0.04894078402424542 0.005000000000000001
    vertex 0.04199598913192411 0.04567806508929573 0
  endloop
endfacet
facet normal 0.956265 0.292501 -1.14198e-15
  outer loop
    vertex 0.04 0.05220350295919512 0.009999999999999972
    vertex 0.04099799456596206 0.04894078402424542 0.015
    vertex 0.04199598913192411 0.04567806508929573 0.01000000000000003
  endloop
endfacet
facet normal 0.956265 0.292501 1.11715e-15
  outer loop
    vertex 0.04199598913192411 0.04567806508929573 0.01000000000000003
    vertex 0.04099799456596206 0.04894078402424542 0.005000000000000001
    vertex 0.04 0.05220350295919512 0.009999999999999972
  endloop
endfacet
facet normal 0.956265 0.292501 1.11715e-15
  outer loop
    vertex 0.04199598913192411 0.04567806508929573 0.02
    vertex 0.04099799456596206 0.04894078402424542 0.015
    vertex 0.04 0.05220350295919512 0.02
  endloop
endfacet
facet normal 0.956265 0.292501 0
  outer loop
    vertex 0.04 0.05220350295919512 0.009999999999999972
    vertex 0.04099799456596206 0.04894078402424542 0.005000000000000001
    vertex 0.04 0.05220350295919512 0
  endloop
endfacet
facet normal 0.956265 0.292501 0
  outer loop
    vertex 0.04 0.05220350295919512 0.02
    vertex 0.04099799456596206 0.04894078402424542 0.015
    vertex 0.04 0.05220350295919512 0.009999999999999972
  endloop
endfacet
facet normal 0.956265 0.292501 -0
  outer loop
    vertex 0.04199598913192411 0.04567806508929573 0
    vertex 0.04099799456596206 0.04894078402424542 0.005000000000000001
    vertex 0.04199598913192411 0.04567806508929573 0.01000000000000003
  endloop
endfacet
facet normal 0.956265 0.292501 -0
  outer loop
    vertex 0.04199598913192411 0.04567806508929573 0.01000000000000003
    vertex 0.04099799456596206 0.04894078402424542 0.015
    vertex 0.04199598913192411 0.04567806508929573 0.02
  endloop
endfacet
facet normal 0.94385 -0.330374 -2.45032e-16
  outer loop
    vertex 0.04199598913192411 0.04567806508929573 0
    vertex 0.04085394528563834 0.04241534615434603 0.004999999999999999
    vertex 0.03971190143935256 0.03915262721939634 0
  endloop
endfacet
facet normal 0.94385 -0.330374 2.20529e-16
  outer loop
    vertex 0.03971190143935256 0.03915262721939634 0.02
    vertex 0.04085394528563834 0.04241534615434603 0.015
    vertex 0.04199598913192411 0.04567806508929573 0.02
  endloop
endfacet
facet normal 0.94385 -0.330374 2.20529e-16
  outer loop
    vertex 0.03971190143935256 0.03915262721939634 0.01000000000000003
    vertex 0.04085394528563834 0.04241534615434603 0.004999999999999999
    vertex 0.04199598913192411 0.04567806508929573 0.009999999999999972
  endloop
endfacet
facet normal 0.94385 -0.330374 -2.45032e-16
  outer loop
    vertex 0.04199598913192411 0.04567806508929573 0.009999999999999972
    vertex 0.04085394528563834 0.04241534615434603 0.015
    vertex 0.03971190143935256 0.03915262721939634 0.01000000000000003
  endloop
endfacet
facet normal 0.94385 -0.330374 0
  outer loop
    vertex 0.04199598913192411 0.04567806508929573 0.009999999999999972
    vertex 0.04085394528563834 0.04241534615434603 0.004999999999999999
    vertex 0.04199598913192411 0.04567806508929573 0
  endloop
endfacet
facet normal 0.94385 -0.330374 0
  outer loop
    vertex 0.04199598913192411 0.04567806508929573 0.02
    vertex 0.04085394528563834 0.04241534615434603 0.015
    vertex 0.04199598913192411 0.04567806508929573 0.009999999999999972
  endloop
endfacet
facet normal 0.94385 -0.330374 0
  outer loop
    vertex 0.03971190143935256 0.03915262721939634 0
    vertex 0.04085394528563834 0.04241534615434603 0.004999999999999999
    vertex 0.03971190143935256 0.03915262721939634 0.01000000000000003
  endloop
endfacet
facet normal 0.94385 -0.330374 0
  outer loop
    vertex 0.03971190143935256 0.03915262721939634 0.01000000000000003
    vertex 0.04085394528563834 0.04241534615434603 0.015
    vertex 0.03971190143935256 0.03915262721939634 0.02
  endloop
endfacet
facet normal 0.856024 -0.516937 0
  outer loop
    vertex 0.03971190143935256 0.03915262721939634 0.02
    vertex 0.0377416059249775 0.03588990828444664 0.015
    vertex 0.03971190143935256 0.03915262721939634 0.009999999999999972
  endloop
endfacet
facet normal 0.856024 -0.516937 0
  outer loop
    vertex 0.03577131041060243 0.03262718934949695 0
    vertex 0.03774160592497749 0.03588990828444664 0.005000000000000001
    vertex 0.03577131041060243 0.03262718934949695 0.01000000000000003
  endloop
endfacet
facet normal 0.856024 -0.516937 0
  outer loop
    vertex 0.03971190143935256 0.03915262721939634 0.009999999999999972
    vertex 0.03774160592497749 0.03588990828444664 0.005000000000000001
    vertex 0.03971190143935256 0.03915262721939634 0
  endloop
endfacet
facet normal 0.856024 -0.516937 0
  outer loop
    vertex 0.03577131041060243 0.03262718934949695 0.01000000000000003
    vertex 0.0377416059249775 0.03588990828444664 0.015
    vertex 0.03577131041060243 0.03262718934949695 0.02
  endloop
endfacet
facet normal 0.856024 -0.516937 2.13343e-15
  outer loop
    vertex 0.03577131041060243 0.03262718934949695 0.02
    vertex 0.0377416059249775 0.03588990828444664 0.015
    vertex 0.03971190143935256 0.03915262721939634 0.02
  endloop
endfacet
facet normal 0.856024 -0.516937 -9.33374e-16
  outer loop
    vertex 0.03971190143935256 0.03915262721939634 0
    vertex 0.03774160592497749 0.03588990828444664 0.005000000000000001
    vertex 0.03577131041060243 0.03262718934949695 0
  endloop
endfacet
facet normal 0.856024 -0.516937 9.33374e-16
  outer loop
    vertex 0.03577131041060243 0.03262718934949695 0.01000000000000003
    vertex 0.03774160592497749 0.03588990828444664 0.005000000000000001
    vertex 0.03971190143935256 0.03915262721939634 0.009999999999999972
  endloop
endfacet
facet normal 0.856024 -0.516937 -2.13343e-15
  outer loop
    vertex 0.03971190143935256 0.03915262721939634 0.009999999999999972
    vertex 0.0377416059249775 0.03588990828444664 0.015
    vertex 0.03577131041060243 0.03262718934949695 0.01000000000000003
  endloop
endfacet
facet normal 0.778183 0.628037 0
  outer loop
    vertex 0.03577131041060243 0.03262718934949695 0.02
    vertex 0.03840450597499763 0.02936447041454725 0.015
    vertex 0.03577131041060243 0.03262718934949695 0.009999999999999972
  endloop
endfacet
facet normal 0.778183 0.628037 -0
  outer loop
    vertex 0.04103770153939285 0.02610175147959756 0
    vertex 0.03840450597499763 0.02936447041454725 0.004999999999999999
    vertex 0.04103770153939285 0.02610175147959756 0.01000000000000003
  endloop
endfacet
facet normal 0.778183 0.628037 0
  outer loop
    vertex 0.03577131041060243 0.03262718934949695 0.009999999999999972
    vertex 0.03840450597499763 0.02936447041454725 0.004999999999999999
    vertex 0.03577131041060243 0.03262718934949695 0
  endloop
endfacet
facet normal 0.778183 0.628037 -0
  outer loop
    vertex 0.04103770153939285 0.02610175147959756 0.01000000000000003
    vertex 0.03840450597499763 0.02936447041454725 0.015
    vertex 0.04103770153939285 0.02610175147959756 0.02
  endloop
endfacet
facet normal 0.778183 0.628037 -1.77781e-15
  outer loop
    vertex 0.04103770153939285 0.02610175147959756 0.01000000000000003
    vertex 0.03840450597499763 0.02936447041454725 0.004999999999999999
    vertex 0.03577131041060243 0.03262718934949695 0.009999999999999972
  endloop
endfacet
facet normal 0.778183 0.628037 1.697e-15
  outer loop
    vertex 0.03577131041060243 0.03262718934949695 0.009999999999999972
    vertex 0.03840450597499763 0.02936447041454725 0.015
    vertex 0.04103770153939285 0.02610175147959756 0.01000000000000003
  endloop
endfacet
facet normal 0.778183 0.628037 -1.77781e-15
  outer loop
    vertex 0.04103770153939285 0.02610175147959756 0.02
    vertex 0.03840450597499763 0.02936447041454725 0.015
    vertex 0.03577131041060243 0.03262718934949695 0.02
  endloop
endfacet
facet normal 0.778183 0.628037 1.697e-15
  outer loop
    vertex 0.03577131041060243 0.03262718934949695 0
    vertex 0.03840450597499763 0.02936447041454725 0.004999999999999999
    vertex 0.04103770153939285 0.02610175147959756 0
  endloop
endfacet
facet normal 0.991772 -0.12802 -1.33886e-15
  outer loop
    vertex 0.04019538570434723 0.01957631360969817 0.01000000000000003
    vertex 0.04061654362187003 0.02283903254464786 0.004999999999999999
    vertex 0.04103770153939285 0.02610175147959756 0.009999999999999972
  endloop
endfacet
facet normal 0.991772 -0.12802 -1.42898e-15
  outer loop
    vertex 0.04019538570434723 0.01957631360969817 0.02
    vertex 0.04061654362187003 0.02283903254464787 0.015
    vertex 0.04103770153939285 0.02610175147959756 0.02
  endloop
endfacet
facet normal 0.991772 -0.12802 1.4161e-15
  outer loop
    vertex 0.04103770153939285 0.02610175147959756 0.009999999999999972
    vertex 0.04061654362187003 0.02283903254464787 0.015
    vertex 0.04019538570434723 0.01957631360969817 0.01000000000000003
  endloop
endfacet
facet normal 0.991772 -0.12802 1.32599e-15
  outer loop
    vertex 0.04103770153939285 0.02610175147959756 0
    vertex 0.04061654362187003 0.02283903254464786 0.004999999999999999
    vertex 0.04019538570434723 0.01957631360969817 0
  endloop
endfacet
facet normal 0.991772 -0.12802 0
  outer loop
    vertex 0.04103770153939285 0.02610175147959756 0.009999999999999972
    vertex 0.04061654362187003 0.02283903254464786 0.004999999999999999
    vertex 0.04103770153939285 0.02610175147959756 0
  endloop
endfacet
facet normal 0.991772 -0.12802 0
  outer loop
    vertex 0.04103770153939285 0.02610175147959756 0.02
    vertex 0.04061654362187003 0.02283903254464787 0.015
    vertex 0.04103770153939285 0.02610175147959756 0.009999999999999972
  endloop
endfacet
facet normal 0.991772 -0.12802 0
  outer loop
    vertex 0.04019538570434723 0.01957631360969817 0
    vertex 0.04061654362187003 0.02283903254464786 0.004999999999999999
    vertex 0.04019538570434723 0.01957631360969817 0.01000000000000003
  endloop
endfacet
facet normal 0.991772 -0.12802 0
  outer loop
    vertex 0.04019538570434723 0.01957631360969817 0.01000000000000003
    vertex 0.04061654362187003 0.02283903254464787 0.015
    vertex 0.04019538570434723 0.01957631360969817 0.02
  endloop
endfacet
facet normal 0.773429 -0.633883 0
  outer loop
    vertex 0.04019538570434723 0.01957631360969817 0.02
    vertex 0.03752134130410126 0.01631359467474847 0.015
    vertex 0.04019538570434723 0.01957631360969817 0.009999999999999972
  endloop
endfacet
facet normal 0.773429 -0.633883 0
  outer loop
    vertex 0.03484729690385528 0.01305087573979878 0
    vertex 0.03752134130410126 0.01631359467474848 0.004999999999999999
    vertex 0.03484729690385528 0.01305087573979878 0.01000000000000003
  endloop
endfacet
facet normal 0.773429 -0.633883 0
  outer loop
    vertex 0.04019538570434723 0.01957631360969817 0.009999999999999972
    vertex 0.03752134130410126 0.01631359467474848 0.004999999999999999
    vertex 0.04019538570434723 0.01957631360969817 0
  endloop
endfacet
facet normal 0.773429 -0.633883 0
  outer loop
    vertex 0.03484729690385528 0.01305087573979878 0.01000000000000003
    vertex 0.03752134130410126 0.01631359467474847 0.015
    vertex 0.03484729690385528 0.01305087573979878 0.02
  endloop
endfacet
facet normal 0.773429 -0.633883 -1.04411e-15
  outer loop
    vertex 0.04019538570434723 0.01957631360969817 0
    vertex 0.03752134130410126 0.01631359467474848 0.004999999999999999
    vertex 0.03484729690385528 0.01305087573979878 0
  endloop
endfacet
facet normal 0.773429 -0.633883 1.526e-15
  outer loop
    vertex 0.03484729690385528 0.01305087573979878 0.02
    vertex 0.03752134130410126 0.01631359467474847 0.015
    vertex 0.04019538570434723 0.01957631360969817 0.02
  endloop
endfacet
facet normal 0.773429 -0.633883 1.12442e-15
  outer loop
    vertex 0.03484729690385528 0.01305087573979878 0.01000000000000003
    vertex 0.03752134130410126 0.01631359467474848 0.004999999999999999
    vertex 0.04019538570434723 0.01957631360969817 0.009999999999999972
  endloop
endfacet
facet normal 0.773429 -0.633883 -1.526e-15
  outer loop
    vertex 0.04019538570434723 0.01957631360969817 0.009999999999999972
    vertex 0.03752134130410126 0.01631359467474847 0.015
    vertex 0.03484729690385528 0.01305087573979878 0.01000000000000003
  endloop
endfacet
facet normal 0.999999 0.00108321 0
  outer loop
    vertex 0.03484729690385528 0.01305087573979878 0.009999999999999972
    vertex 0.03485083111923813 0.009788156804849086 0.015
    vertex 0.03485436533462097 0.006525437869899391 0.01000000000000003
  endloop
endfacet
facet normal 0.999999 0.00108321 0
  outer loop
    vertex 0.03485436533462097 0.006525437869899391 0.01000000000000003
    vertex 0.03485083111923813 0.009788156804849086 0.005000000000000001
    vertex 0.03484729690385528 0.01305087573979878 0.009999999999999972
  endloop
endfacet
facet normal 0.999999 0.00108321 0
  outer loop
    vertex 0.03484729690385528 0.01305087573979878 0
    vertex 0.03485083111923813 0.009788156804849086 0.005000000000000001
    vertex 0.03485436533462097 0.006525437869899391 0
  endloop
endfacet
facet normal 0.999999 0.00108321 0
  outer loop
    vertex 0.03485436533462097 0.006525437869899391 0.02
    vertex 0.03485083111923813 0.009788156804849086 0.015
    vertex 0.03484729690385528 0.01305087573979878 0.02
  endloop
endfacet
facet normal 0.999999 0.00108321 0
  outer loop
    vertex 0.03484729690385528 0.01305087573979878 0.009999999999999972
    vertex 0.03485083111923813 0.009788156804849086 0.005000000000000001
    vertex 0.03484729690385528 0.01305087573979878 0
  endloop
endfacet
facet normal 0.999999 0.00108321 0
  outer loop
    vertex 0.03484729690385528 0.01305087573979878 0.02
    vertex 0.03485083111923813 0.009788156804849086 0.015
    vertex 0.03484729690385528 0.01305087573979878 0.009999999999999972
  endloop
endfacet
facet normal 0.999999 0.00108321 -0
  outer loop
    vertex 0.03485436533462097 0.006525437869899391 0
    vertex 0.03485083111923813 0.009788156804849086 0.005000000000000001
    vertex 0.03485436533462097 0.006525437869899391 0.01000000000000003
  endloop
endfacet
facet normal 0.999999 0.00108321 -0
  outer loop
    vertex 0.03485436533462097 0.006525437869899391 0.01000000000000003
    vertex 0.03485083111923813 0.009788156804849086 0.015
    vertex 0.03485436533462097 0.006525437869899391 0.02
  endloop
endfacet
endsolid Created by Gmsh
