solid Created by Gmsh
facet normal 0.99481 0.101748 -6.87717e-17
  outer loop
    vertex 0.003236228648778876 0.04657637159061998 0.02
    vertex 0.002938492939327556 0.04948739481503373 0.008425081106303476
    vertex 0.002045285810973595 0.05822046448827498 0.02
  endloop
endfacet
facet normal 0.99481 0.101748 3.12599e-17
  outer loop
    vertex 0.006809057162194718 0.011644092897655 0
    vertex 0.007106792871646037 0.008733069673241261 0.01157491889369652
    vertex 0.008 0 0
  endloop
endfacet
facet normal 0.99481 0.101748 -0
  outer loop
    vertex 0.008 0 0.01000000000000003
    vertex 0.007106792871646037 0.008733069673241261 0.01157491889369652
    vertex 0.008 0 0.02
  endloop
endfacet
facet normal 0.99481 0.101748 0
  outer loop
    vertex 0.002045285810973595 0.05822046448827498 0.009999999999999972
    vertex 0.002938492939327556 0.04948739481503373 0.008425081106303476
    vertex 0.002045285810973595 0.05822046448827498 0
  endloop
endfacet
facet normal 0.99481 0.101748 6.87149e-17
  outer loop
    vertex 0.002045285810973595 0.05822046448827498 0
    vertex 0.002938492939327556 0.04948739481503373 0.008425081106303476
    vertex 0.00323622864877888 0.04657637159061994 0
  endloop
endfacet
facet normal 0.99481 0.101748 -1.03072e-16
  outer loop
    vertex 0.008 0 0.02
    vertex 0.007106792871646037 0.008733069673241261 0.01157491889369652
    vertex 0.006809057162194715 0.01164409289765504 0.02
  endloop
endfacet
facet normal 0.99481 0.101748 1.11475e-16
  outer loop
    vertex 0.00323622864877888 0.04657637159061994 0
    vertex 0.003881322685923403 0.04026915460439019 0.009737513517717246
    vertex 0.004427171486584157 0.03493227869296499 0
  endloop
endfacet
facet normal 0.99481 0.101748 -1.3377e-16
  outer loop
    vertex 0.006809057162194715 0.01164409289765504 0.02
    vertex 0.006163963125050189 0.0179513098838848 0.01026248648228275
    vertex 0.005618114324389438 0.02328818579530999 0.02
  endloop
endfacet
facet normal 0.99481 0.101748 -1.51969e-16
  outer loop
    vertex 0.005618114324389438 0.02328818579530999 0.02
    vertex 0.005022642905486796 0.02911023224413749 0.009999999999999997
    vertex 0.004427171486584159 0.03493227869296497 0.02
  endloop
endfacet
facet normal 0.99481 0.101748 -1.14841e-16
  outer loop
    vertex 0.006163963125050189 0.0179513098838848 0.01026248648228275
    vertex 0.005022642905486796 0.02911023224413749 0.009999999999999997
    vertex 0.005618114324389438 0.02328818579530999 0.02
  endloop
endfacet
facet normal 0.99481 0.101748 9.87212e-17
  outer loop
    vertex 0.005618114324389436 0.02328818579531001 0
    vertex 0.006163963125050189 0.0179513098838848 0.01026248648228275
    vertex 0.006809057162194718 0.011644092897655 0
  endloop
endfacet
facet normal 0.99481 0.101748 1.45466e-16
  outer loop
    vertex 0.003881322685923403 0.04026915460439019 0.009737513517717246
    vertex 0.005022642905486796 0.02911023224413749 0.009999999999999997
    vertex 0.004427171486584157 0.03493227869296499 0
  endloop
endfacet
facet normal 0.99481 0.101748 1.37495e-16
  outer loop
    vertex 0.004427171486584157 0.03493227869296499 0
    vertex 0.005022642905486796 0.02911023224413749 0.009999999999999997
    vertex 0.005618114324389436 0.02328818579531001 0
  endloop
endfacet
facet normal 0.99481 0.101748 1.15463e-16
  outer loop
    vertex 0.005618114324389436 0.02328818579531001 0
    vertex 0.005022642905486796 0.02911023224413749 0.009999999999999997
    vertex 0.006163963125050189 0.0179513098838848 0.01026248648228275
  endloop
endfacet
facet normal 0.99481 0.101748 -1.33979e-16
  outer loop
    vertex 0.004427171486584159 0.03493227869296497 0.02
    vertex 0.003881322685923403 0.04026915460439019 0.009737513517717246
    vertex 0.003236228648778876 0.04657637159061998 0.02
  endloop
endfacet
facet normal 0.99481 0.101748 -1.71332e-16
  outer loop
    vertex 0.004427171486584159 0.03493227869296497 0.02
    vertex 0.005022642905486796 0.02911023224413749 0.009999999999999997
    vertex 0.003881322685923403 0.04026915460439019 0.009737513517717246
  endloop
endfacet
facet normal 0.99481 0.101748 4.09525e-17
  outer loop
    vertex 0.006163963125050189 0.0179513098838848 0.01026248648228275
    vertex 0.007106792871646037 0.008733069673241261 0.01157491889369652
    vertex 0.006809057162194718 0.011644092897655 0
  endloop
endfacet
facet normal 0.99481 0.101748 -9.00954e-17
  outer loop
    vertex 0.003881322685923403 0.04026915460439019 0.009737513517717246
    vertex 0.002938492939327556 0.04948739481503373 0.008425081106303476
    vertex 0.003236228648778876 0.04657637159061998 0.02
  endloop
endfacet
facet normal 0.99481 0.101748 6.98019e-17
  outer loop
    vertex 0.00323622864877888 0.04657637159061994 0
    vertex 0.002938492939327556 0.04948739481503373 0.008425081106303476
    vertex 0.003881322685923403 0.04026915460439019 0.009737513517717246
  endloop
endfacet
facet normal 0.99481 0.101748 -1.18922e-16
  outer loop
    vertex 0.006809057162194715 0.01164409289765504 0.02
    vertex 0.007106792871646037 0.008733069673241261 0.01157491889369652
    vertex 0.006163963125050189 0.0179513098838848 0.01026248648228275
  endloop
endfacet
facet normal 0.99481 0.101748 -0
  outer loop
    vertex 0.008 0 0
    vertex 0.007106792871646037 0.008733069673241261 0.01157491889369652
    vertex 0.008 0 0.01000000000000003
  endloop
endfacet
facet normal 0.99481 0.101748 0
  outer loop
    vertex 0.002045285810973595 0.05822046448827498 0.02
    vertex 0.002938492939327556 0.04948739481503373 0.008425081106303476
    vertex 0.002045285810973595 0.05822046448827498 0.009999999999999972
  endloop
endfacet
endsolid Created by Gmsh
