solid Created by Gmsh
facet normal 0.999637 0.026942 -1.62877e-16
  outer loop
    vertex 0.007108988293899499 0.03305943117970463 0.02
    vertex 0.00692888852929689 0.03974171799209504 0.009621545845116489
    vertex 0.006811984391865997 0.04407924157293952 0.02
  endloop
endfacet
facet normal 0.999637 0.026942 -8.69909e-17
  outer loop
    vertex 0.0077029960979665 0.01101981039323487 0.02
    vertex 0.007586091960535604 0.01535733397407935 0.009621545845116493
    vertex 0.007405992195932998 0.02203962078646976 0.02
  endloop
endfacet
facet normal 0.999637 0.026942 1.36182e-16
  outer loop
    vertex 0.007108988293899499 0.03305943117970463 0
    vertex 0.007257490244916247 0.02754952598308719 0.00987384861503883
    vertex 0.007405992195932998 0.02203962078646976 0
  endloop
endfacet
facet normal 0.999637 0.026942 -1.71244e-16
  outer loop
    vertex 0.007108988293899499 0.03305943117970463 0.02
    vertex 0.007257490244916247 0.02754952598308719 0.00987384861503883
    vertex 0.00692888852929689 0.03974171799209504 0.009621545845116489
  endloop
endfacet
facet normal 0.999637 0.026942 9.60622e-17
  outer loop
    vertex 0.007405992195932998 0.02203962078646976 0
    vertex 0.007257490244916247 0.02754952598308719 0.00987384861503883
    vertex 0.007586091960535604 0.01535733397407935 0.009621545845116493
  endloop
endfacet
facet normal 0.999637 0.026942 -8.13832e-17
  outer loop
    vertex 0.007586091960535604 0.01535733397407935 0.009621545845116493
    vertex 0.007257490244916247 0.02754952598308719 0.00987384861503883
    vertex 0.007405992195932998 0.02203962078646976 0.02
  endloop
endfacet
facet normal 0.999637 0.026942 1.81451e-16
  outer loop
    vertex 0.00692888852929689 0.03974171799209504 0.009621545845116489
    vertex 0.007257490244916247 0.02754952598308719 0.00987384861503883
    vertex 0.007108988293899499 0.03305943117970463 0
  endloop
endfacet
facet normal 0.999637 0.026942 -0
  outer loop
    vertex 0.008 0 0.01000000000000003
    vertex 0.007802433117278459 0.007330373684209281 0.01242149106650602
    vertex 0.008 0 0.02
  endloop
endfacet
facet normal 0.999637 0.026942 0
  outer loop
    vertex 0.006514980489832497 0.05509905196617439 0.02
    vertex 0.006712547372554035 0.04776867828196511 0.01242149106650601
    vertex 0.006514980489832497 0.05509905196617439 0.009999999999999972
  endloop
endfacet
facet normal 0.999637 0.026942 -1.47012e-16
  outer loop
    vertex 0.008 0 0.02
    vertex 0.007802433117278459 0.007330373684209281 0.01242149106650602
    vertex 0.0077029960979665 0.01101981039323487 0.02
  endloop
endfacet
facet normal 0.999637 0.026942 -1.67289e-16
  outer loop
    vertex 0.006811984391865997 0.04407924157293952 0.02
    vertex 0.006712547372554035 0.04776867828196511 0.01242149106650601
    vertex 0.006514980489832497 0.05509905196617439 0.02
  endloop
endfacet
facet normal 0.999637 0.026942 1.7569e-16
  outer loop
    vertex 0.006811984391865997 0.04407924157293952 0
    vertex 0.00692888852929689 0.03974171799209504 0.009621545845116489
    vertex 0.007108988293899499 0.03305943117970463 0
  endloop
endfacet
facet normal 0.999637 0.026942 1.03817e-16
  outer loop
    vertex 0.007405992195932998 0.02203962078646976 0
    vertex 0.007586091960535604 0.01535733397407935 0.009621545845116493
    vertex 0.0077029960979665 0.01101981039323487 0
  endloop
endfacet
facet normal 0.999637 0.026942 -1.28995e-16
  outer loop
    vertex 0.007405992195932998 0.02203962078646976 0.02
    vertex 0.007257490244916247 0.02754952598308719 0.00987384861503883
    vertex 0.007108988293899499 0.03305943117970463 0.02
  endloop
endfacet
facet normal 0.999637 0.026942 2.09402e-16
  outer loop
    vertex 0.006811984391865997 0.04407924157293952 0
    vertex 0.006680418060148805 0.04896078023196142 0.005718677235879837
    vertex 0.00692888852929689 0.03974171799209504 0.009621545845116489
  endloop
endfacet
facet normal 0.999637 0.026942 1.3272e-16
  outer loop
    vertex 0.007586091960535604 0.01535733397407935 0.009621545845116493
    vertex 0.007834562429683689 0.006138271734212972 0.005718677235879857
    vertex 0.0077029960979665 0.01101981039323487 0
  endloop
endfacet
facet normal 0.999637 0.026942 3.61193e-17
  outer loop
    vertex 0.007802433117278459 0.007330373684209281 0.01242149106650602
    vertex 0.007834562429683689 0.006138271734212972 0.005718677235879857
    vertex 0.007586091960535604 0.01535733397407935 0.009621545845116493
  endloop
endfacet
facet normal 0.999637 0.026942 -5.18636e-17
  outer loop
    vertex 0.00692888852929689 0.03974171799209504 0.009621545845116489
    vertex 0.006680418060148805 0.04896078023196142 0.005718677235879837
    vertex 0.006712547372554035 0.04776867828196511 0.01242149106650601
  endloop
endfacet
facet normal 0.999637 0.026942 -1.63604e-16
  outer loop
    vertex 0.00692888852929689 0.03974171799209504 0.009621545845116489
    vertex 0.006712547372554035 0.04776867828196511 0.01242149106650601
    vertex 0.006811984391865997 0.04407924157293952 0.02
  endloop
endfacet
facet normal 0.999637 0.026942 -1.18241e-16
  outer loop
    vertex 0.0077029960979665 0.01101981039323487 0.02
    vertex 0.007802433117278459 0.007330373684209281 0.01242149106650602
    vertex 0.007586091960535604 0.01535733397407935 0.009621545845116493
  endloop
endfacet
facet normal 0.999637 0.026942 2.82158e-16
  outer loop
    vertex 0.006514980489832497 0.05509905196617439 0
    vertex 0.006680418060148805 0.04896078023196142 0.005718677235879837
    vertex 0.006811984391865997 0.04407924157293952 0
  endloop
endfacet
facet normal 0.999637 0.026942 1.64592e-16
  outer loop
    vertex 0.0077029960979665 0.01101981039323487 0
    vertex 0.007834562429683689 0.006138271734212972 0.005718677235879857
    vertex 0.008 0 0
  endloop
endfacet
facet normal 0.999637 0.026942 -0
  outer loop
    vertex 0.008 0 0
    vertex 0.007834562429683689 0.006138271734212972 0.005718677235879857
    vertex 0.008 0 0.01000000000000003
  endloop
endfacet
facet normal 0.999637 0.026942 0
  outer loop
    vertex 0.006514980489832497 0.05509905196617439 0.009999999999999972
    vertex 0.006680418060148805 0.04896078023196142 0.005718677235879837
    vertex 0.006514980489832497 0.05509905196617439 0
  endloop
endfacet
facet normal 0.999637 0.026942 -8.52493e-17
  outer loop
    vertex 0.006712547372554035 0.04776867828196511 0.01242149106650601
    vertex 0.006680418060148805 0.04896078023196142 0.005718677235879837
    vertex 0.006514980489832497 0.05509905196617439 0.009999999999999972
  endloop
endfacet
facet normal 0.999637 0.026942 9.15429e-18
  outer loop
    vertex 0.008 0 0.01000000000000003
    vertex 0.007834562429683689 0.006138271734212972 0.005718677235879857
    vertex 0.007802433117278459 0.007330373684209281 0.01242149106650602
  endloop
endfacet
endsolid Created by Gmsh
