solid Created by Gmsh
facet normal -0.604179 0.796848 -1.33692e-15
  outer loop
    vertex 0.02767624239463585 0.04909855340100085 0.02
    vertex 0.03692706817439041 0.05611263245828669 0.02
    vertex 0.03230165528451313 0.05260559292964376 0.01432426114969104
  endloop
endfacet
facet normal -0.604179 0.796848 1.32453e-15
  outer loop
    vertex 0.03692706817439041 0.05611263245828669 0
    vertex 0.02767624239463585 0.04909855340100085 0
    vertex 0.03230165528451313 0.05260559292964376 0.005728862973760926
  endloop
endfacet
facet normal -0.604179 0.796848 0
  outer loop
    vertex 0.03230165528451313 0.05260559292964376 0.005728862973760926
    vertex 0.02767624239463585 0.04909855340100085 0.01000000000000003
    vertex 0.03230165528451313 0.05260559292964376 0.01432426114969104
  endloop
endfacet
facet normal -0.604179 0.796848 0
  outer loop
    vertex 0.03692706817439041 0.05611263245828669 0.009999999999999972
    vertex 0.03230165528451313 0.05260559292964376 0.005728862973760926
    vertex 0.03230165528451313 0.05260559292964376 0.01432426114969104
  endloop
endfacet
facet normal -0.604179 0.796848 0
  outer loop
    vertex 0.03692706817439041 0.05611263245828669 0.02
    vertex 0.03692706817439041 0.05611263245828669 0.009999999999999972
    vertex 0.03230165528451313 0.05260559292964376 0.01432426114969104
  endloop
endfacet
facet normal -0.604179 0.796848 0
  outer loop
    vertex 0.02767624239463585 0.04909855340100085 0
    vertex 0.02767624239463585 0.04909855340100085 0.01000000000000003
    vertex 0.03230165528451313 0.05260559292964376 0.005728862973760926
  endloop
endfacet
facet normal -0.604179 0.796848 0
  outer loop
    vertex 0.03692706817439041 0.05611263245828669 0.009999999999999972
    vertex 0.03692706817439041 0.05611263245828669 0
    vertex 0.03230165528451313 0.05260559292964376 0.005728862973760926
  endloop
endfacet
facet normal -0.604179 0.796848 0
  outer loop
    vertex 0.02767624239463585 0.04909855340100085 0.01000000000000003
    vertex 0.02767624239463585 0.04909855340100085 0.02
    vertex 0.03230165528451313 0.05260559292964376 0.01432426114969104
  endloop
endfacet
facet normal -0.956238 0.292589 6.69767e-16
  outer loop
    vertex 0.02767624239463585 0.04909855340100085 0
    vertex 0.02553007841521621 0.04208447434371502 0
    vertex 0.02660316040492603 0.04559151387235794 0.005000000000000001
  endloop
endfacet
facet normal -0.956238 0.292589 -6.46672e-16
  outer loop
    vertex 0.02553007841521621 0.04208447434371502 0.02
    vertex 0.02767624239463585 0.04909855340100085 0.02
    vertex 0.02660316040492603 0.04559151387235794 0.015
  endloop
endfacet
facet normal -0.956238 0.292589 -6.46672e-16
  outer loop
    vertex 0.02553007841521621 0.04208447434371502 0.01000000000000003
    vertex 0.02767624239463585 0.04909855340100085 0.009999999999999972
    vertex 0.02660316040492603 0.04559151387235794 0.005000000000000001
  endloop
endfacet
facet normal -0.956238 0.292589 6.69767e-16
  outer loop
    vertex 0.02767624239463585 0.04909855340100085 0.009999999999999972
    vertex 0.02553007841521621 0.04208447434371502 0.01000000000000003
    vertex 0.02660316040492603 0.04559151387235794 0.015
  endloop
endfacet
facet normal -0.956238 0.292589 0
  outer loop
    vertex 0.02767624239463585 0.04909855340100085 0.009999999999999972
    vertex 0.02767624239463585 0.04909855340100085 0
    vertex 0.02660316040492603 0.04559151387235794 0.005000000000000001
  endloop
endfacet
facet normal -0.956238 0.292589 0
  outer loop
    vertex 0.02767624239463585 0.04909855340100085 0.02
    vertex 0.02767624239463585 0.04909855340100085 0.009999999999999972
    vertex 0.02660316040492603 0.04559151387235794 0.015
  endloop
endfacet
facet normal -0.956238 0.292589 0
  outer loop
    vertex 0.02553007841521621 0.04208447434371502 0
    vertex 0.02553007841521621 0.04208447434371502 0.01000000000000003
    vertex 0.02660316040492603 0.04559151387235794 0.005000000000000001
  endloop
endfacet
facet normal -0.956238 0.292589 0
  outer loop
    vertex 0.02553007841521621 0.04208447434371502 0.01000000000000003
    vertex 0.02553007841521621 0.04208447434371502 0.02
    vertex 0.02660316040492603 0.04559151387235794 0.015
  endloop
endfacet
facet normal -0.568906 0.822403 3.2977e-16
  outer loop
    vertex 0.01539061961237012 0.03507039528642918 0.01000000000000003
    vertex 0.02046034901379316 0.03857743481507209 0.02
    vertex 0.02553007841521621 0.04208447434371502 0.009999999999999972
  endloop
endfacet
facet normal -0.568906 0.822403 -2.19847e-16
  outer loop
    vertex 0.02046034901379317 0.0385774348150721 0
    vertex 0.01539061961237012 0.03507039528642918 0.01000000000000003
    vertex 0.02553007841521621 0.04208447434371502 0.009999999999999972
  endloop
endfacet
facet normal -0.568906 0.822403 0
  outer loop
    vertex 0.02046034901379317 0.0385774348150721 0
    vertex 0.02553007841521621 0.04208447434371502 0.009999999999999972
    vertex 0.02553007841521621 0.04208447434371502 0
  endloop
endfacet
facet normal -0.568906 0.822403 0
  outer loop
    vertex 0.02553007841521621 0.04208447434371502 0.009999999999999972
    vertex 0.02046034901379316 0.03857743481507209 0.02
    vertex 0.02553007841521621 0.04208447434371502 0.02
  endloop
endfacet
facet normal -0.568906 0.822403 0
  outer loop
    vertex 0.01539061961237012 0.03507039528642918 0.01000000000000003
    vertex 0.02046034901379317 0.0385774348150721 0
    vertex 0.01539061961237012 0.03507039528642918 0
  endloop
endfacet
facet normal -0.568906 0.822403 0
  outer loop
    vertex 0.02046034901379316 0.03857743481507209 0.02
    vertex 0.01539061961237012 0.03507039528642918 0.01000000000000003
    vertex 0.01539061961237012 0.03507039528642918 0.02
  endloop
endfacet
facet normal -0.934263 -0.356585 -0
  outer loop
    vertex 0.01539061961237012 0.03507039528642918 0.02
    vertex 0.01539061961237012 0.03507039528642918 0.009999999999999972
    vertex 0.01672917118088123 0.03156335575778626 0.015
  endloop
endfacet
facet normal -0.934263 -0.356585 0
  outer loop
    vertex 0.01806772274939234 0.02805631622914334 0
    vertex 0.01806772274939234 0.02805631622914334 0.01000000000000003
    vertex 0.01672917118088123 0.03156335575778626 0.005
  endloop
endfacet
facet normal -0.934263 -0.356585 -0
  outer loop
    vertex 0.01539061961237012 0.03507039528642918 0.009999999999999972
    vertex 0.01539061961237012 0.03507039528642918 0
    vertex 0.01672917118088123 0.03156335575778626 0.005
  endloop
endfacet
facet normal -0.934263 -0.356585 0
  outer loop
    vertex 0.01806772274939234 0.02805631622914334 0.01000000000000003
    vertex 0.01806772274939234 0.02805631622914334 0.02
    vertex 0.01672917118088123 0.03156335575778626 0.015
  endloop
endfacet
facet normal -0.934263 -0.356585 -4.51293e-16
  outer loop
    vertex 0.01539061961237012 0.03507039528642918 0
    vertex 0.01806772274939234 0.02805631622914334 0
    vertex 0.01672917118088123 0.03156335575778626 0.005
  endloop
endfacet
facet normal -0.934263 -0.356585 4.51293e-16
  outer loop
    vertex 0.01806772274939234 0.02805631622914334 0.02
    vertex 0.01539061961237012 0.03507039528642918 0.02
    vertex 0.01672917118088123 0.03156335575778626 0.015
  endloop
endfacet
facet normal -0.934263 -0.356585 -4.51293e-16
  outer loop
    vertex 0.01539061961237012 0.03507039528642918 0.009999999999999972
    vertex 0.01806772274939234 0.02805631622914334 0.01000000000000003
    vertex 0.01672917118088123 0.03156335575778626 0.015
  endloop
endfacet
facet normal -0.934263 -0.356585 4.51293e-16
  outer loop
    vertex 0.01806772274939234 0.02805631622914334 0.01000000000000003
    vertex 0.01539061961237012 0.03507039528642918 0.009999999999999972
    vertex 0.01672917118088123 0.03156335575778626 0.005
  endloop
endfacet
facet normal -0.314801 -0.949158 -1.50755e-16
  outer loop
    vertex 0.02864181469882995 0.02454927670050042 0
    vertex 0.03921590664826755 0.02104223717185751 0
    vertex 0.03200973984317661 0.0234322591194908 0.01008683794941755
  endloop
endfacet
facet normal -0.314801 -0.949158 0
  outer loop
    vertex 0.03921590664826755 0.02104223717185751 0.01000000000000003
    vertex 0.03921590664826755 0.02104223717185751 0.02
    vertex 0.03200973984317661 0.0234322591194908 0.01008683794941755
  endloop
endfacet
facet normal -0.314801 -0.949158 2.14754e-16
  outer loop
    vertex 0.03921590664826755 0.02104223717185751 0.02
    vertex 0.02864181469882994 0.02454927670050043 0.02
    vertex 0.03200973984317661 0.0234322591194908 0.01008683794941755
  endloop
endfacet
facet normal -0.314801 -0.949158 -2.26063e-16
  outer loop
    vertex 0.02864181469882995 0.02454927670050042 0
    vertex 0.03200973984317661 0.0234322591194908 0.01008683794941755
    vertex 0.02457620095145863 0.02589769207161733 0.006830840990902887
  endloop
endfacet
facet normal -0.314801 -0.949158 -4.00704e-16
  outer loop
    vertex 0.01806772274939234 0.02805631622914334 0
    vertex 0.02864181469882995 0.02454927670050042 0
    vertex 0.02457620095145863 0.02589769207161733 0.006830840990902887
  endloop
endfacet
facet normal -0.314801 -0.949158 -0
  outer loop
    vertex 0.01806772274939234 0.02805631622914334 0.009999999999999972
    vertex 0.01806772274939234 0.02805631622914334 0
    vertex 0.02457620095145863 0.02589769207161733 0.006830840990902887
  endloop
endfacet
facet normal -0.314801 -0.949158 8.20742e-16
  outer loop
    vertex 0.02864181469882994 0.02454927670050043 0.02
    vertex 0.01806772274939234 0.02805631622914334 0.02
    vertex 0.0241571085798449 0.02603668968204385 0.01370061877342073
  endloop
endfacet
facet normal -0.314801 -0.949158 -0
  outer loop
    vertex 0.01806772274939234 0.02805631622914334 0.02
    vertex 0.01806772274939234 0.02805631622914334 0.009999999999999972
    vertex 0.0241571085798449 0.02603668968204385 0.01370061877342073
  endloop
endfacet
facet normal -0.314801 -0.949158 -2.4534e-16
  outer loop
    vertex 0.03200973984317661 0.0234322591194908 0.01008683794941755
    vertex 0.0241571085798449 0.02603668968204385 0.01370061877342073
    vertex 0.02457620095145863 0.02589769207161733 0.006830840990902887
  endloop
endfacet
facet normal -0.314801 -0.949158 4.5295e-16
  outer loop
    vertex 0.02864181469882994 0.02454927670050043 0.02
    vertex 0.0241571085798449 0.02603668968204385 0.01370061877342073
    vertex 0.03200973984317661 0.0234322591194908 0.01008683794941755
  endloop
endfacet
facet normal -0.314801 -0.949158 -3.12721e-16
  outer loop
    vertex 0.0241571085798449 0.02603668968204385 0.01370061877342073
    vertex 0.01806772274939234 0.02805631622914334 0.009999999999999972
    vertex 0.02457620095145863 0.02589769207161733 0.006830840990902887
  endloop
endfacet
facet normal -0.314801 -0.949158 0
  outer loop
    vertex 0.03921590664826755 0.02104223717185751 0
    vertex 0.03921590664826755 0.02104223717185751 0.01000000000000003
    vertex 0.03200973984317661 0.0234322591194908 0.01008683794941755
  endloop
endfacet
facet normal -0.312839 0.949806 0
  outer loop
    vertex 0.01792058834052442 0.01402815811457167 0
    vertex 0.01792058834052442 0.01402815811457167 0.01000000000000003
    vertex 0.02617821751930137 0.01674798897357469 0.008462698939218336
  endloop
endfacet
facet normal -0.312839 0.949806 3.74992e-16
  outer loop
    vertex 0.02856824749439596 0.01753519764321458 0
    vertex 0.01792058834052442 0.01402815811457167 0
    vertex 0.02617821751930137 0.01674798897357469 0.008462698939218336
  endloop
endfacet
facet normal -0.312839 0.949806 2.41029e-16
  outer loop
    vertex 0.02856824749439601 0.0175351976432146 0.02
    vertex 0.03921590664826755 0.02104223717185751 0.02
    vertex 0.03228518173858708 0.01875945126848253 0.01310341689301544
  endloop
endfacet
facet normal -0.312839 0.949806 -1.1672e-16
  outer loop
    vertex 0.01792058834052442 0.01402815811457167 0.02
    vertex 0.02856824749439601 0.0175351976432146 0.02
    vertex 0.02342335894443046 0.0158406160216165 0.01482122635528082
  endloop
endfacet
facet normal -0.312839 0.949806 0
  outer loop
    vertex 0.03921590664826755 0.02104223717185751 0.02
    vertex 0.03921590664826755 0.02104223717185751 0.009999999999999972
    vertex 0.03228518173858708 0.01875945126848253 0.01310341689301544
  endloop
endfacet
facet normal -0.312839 0.949806 -1.43619e-16
  outer loop
    vertex 0.03921590664826755 0.02104223717185751 0
    vertex 0.02856824749439596 0.01753519764321458 0
    vertex 0.0330926920097639 0.01902542244579736 0.006313223166446751
  endloop
endfacet
facet normal -0.312839 0.949806 0
  outer loop
    vertex 0.01792058834052442 0.01402815811457167 0.01000000000000003
    vertex 0.01792058834052442 0.01402815811457167 0.02
    vertex 0.02342335894443046 0.0158406160216165 0.01482122635528082
  endloop
endfacet
facet normal -0.312839 0.949806 0
  outer loop
    vertex 0.03921590664826755 0.02104223717185751 0.009999999999999972
    vertex 0.03921590664826755 0.02104223717185751 0
    vertex 0.0330926920097639 0.01902542244579736 0.006313223166446751
  endloop
endfacet
facet normal -0.312839 0.949806 -3.74079e-16
  outer loop
    vertex 0.03228518173858708 0.01875945126848253 0.01310341689301544
    vertex 0.02617821751930137 0.01674798897357469 0.008462698939218336
    vertex 0.02342335894443046 0.0158406160216165 0.01482122635528082
  endloop
endfacet
facet normal -0.312839 0.949806 1.76393e-16
  outer loop
    vertex 0.02856824749439601 0.0175351976432146 0.02
    vertex 0.03228518173858708 0.01875945126848253 0.01310341689301544
    vertex 0.02342335894443046 0.0158406160216165 0.01482122635528082
  endloop
endfacet
facet normal -0.312839 0.949806 8.89659e-18
  outer loop
    vertex 0.0330926920097639 0.01902542244579736 0.006313223166446751
    vertex 0.02617821751930137 0.01674798897357469 0.008462698939218336
    vertex 0.03228518173858708 0.01875945126848253 0.01310341689301544
  endloop
endfacet
facet normal -0.312839 0.949806 2.71298e-16
  outer loop
    vertex 0.0330926920097639 0.01902542244579736 0.006313223166446751
    vertex 0.02856824749439596 0.01753519764321458 0
    vertex 0.02617821751930137 0.01674798897357469 0.008462698939218336
  endloop
endfacet
facet normal -0.312839 0.949806 -9.99994e-17
  outer loop
    vertex 0.02617821751930137 0.01674798897357469 0.008462698939218336
    vertex 0.01792058834052442 0.01402815811457167 0.01000000000000003
    vertex 0.02342335894443046 0.0158406160216165 0.01482122635528082
  endloop
endfacet
facet normal -0.312839 0.949806 7.2227e-17
  outer loop
    vertex 0.03921590664826755 0.02104223717185751 0.009999999999999972
    vertex 0.0330926920097639 0.01902542244579736 0.006313223166446751
    vertex 0.03228518173858708 0.01875945126848253 0.01310341689301544
  endloop
endfacet
facet normal -0.834767 -0.550604 0
  outer loop
    vertex 0.02254700235491463 0.007014079057285835 0
    vertex 0.02254700235491463 0.007014079057285835 0.01000000000000003
    vertex 0.02023379534771953 0.01052111858592875 0.005
  endloop
endfacet
facet normal -0.834767 -0.550604 -0
  outer loop
    vertex 0.01792058834052442 0.01402815811457167 0.02
    vertex 0.01792058834052442 0.01402815811457167 0.009999999999999972
    vertex 0.02023379534771953 0.01052111858592875 0.015
  endloop
endfacet
facet normal -0.834767 -0.550604 0
  outer loop
    vertex 0.02254700235491463 0.007014079057285835 0.01000000000000003
    vertex 0.02254700235491463 0.007014079057285835 0.02
    vertex 0.02023379534771953 0.01052111858592875 0.015
  endloop
endfacet
facet normal -0.834767 -0.550604 -0
  outer loop
    vertex 0.01792058834052442 0.01402815811457167 0.009999999999999972
    vertex 0.01792058834052442 0.01402815811457167 0
    vertex 0.02023379534771953 0.01052111858592875 0.005
  endloop
endfacet
facet normal -0.834767 -0.550604 5.64525e-16
  outer loop
    vertex 0.01792058834052442 0.01402815811457167 0
    vertex 0.02254700235491463 0.007014079057285835 0
    vertex 0.02023379534771953 0.01052111858592875 0.005
  endloop
endfacet
facet normal -0.834767 -0.550604 5.64525e-16
  outer loop
    vertex 0.01792058834052442 0.01402815811457167 0.009999999999999972
    vertex 0.02254700235491463 0.007014079057285835 0.01000000000000003
    vertex 0.02023379534771953 0.01052111858592875 0.015
  endloop
endfacet
facet normal -0.834767 -0.550604 -5.64525e-16
  outer loop
    vertex 0.02254700235491463 0.007014079057285835 0.02
    vertex 0.01792058834052442 0.01402815811457167 0.02
    vertex 0.02023379534771953 0.01052111858592875 0.015
  endloop
endfacet
facet normal -0.834767 -0.550604 -5.64525e-16
  outer loop
    vertex 0.02254700235491463 0.007014079057285835 0.01000000000000003
    vertex 0.01792058834052442 0.01402815811457167 0.009999999999999972
    vertex 0.02023379534771953 0.01052111858592875 0.005
  endloop
endfacet
endsolid Created by Gmsh
