solid Created by Gmsh
facet normal 0.994061 -0.108825 0
  outer loop
    vertex 0.008 0 0
    vertex 0.008953260306999842 0.008707550621901618 0.008410228579816926
    vertex 0.008 0 0.01000000000000003
  endloop
endfacet
facet normal 0.994061 -0.108825 0
  outer loop
    vertex 0.01435506871333227 0.05805033747934416 0.02
    vertex 0.01340180840633243 0.04934278685744253 0.01158977142018308
    vertex 0.01435506871333227 0.05805033747934416 0.009999999999999972
  endloop
endfacet
facet normal 0.994061 -0.108825 -1.72465e-16
  outer loop
    vertex 0.009271013742666454 0.01161006749586883 0
    vertex 0.008953260306999842 0.008707550621901618 0.008410228579816926
    vertex 0.008 0 0
  endloop
endfacet
facet normal 0.994061 -0.108825 6.03627e-17
  outer loop
    vertex 0.01308405497066582 0.04644026998347532 0.02
    vertex 0.01340180840633243 0.04934278685744253 0.01158977142018308
    vertex 0.01435506871333227 0.05805033747934416 0.02
  endloop
endfacet
facet normal 0.994061 -0.108825 4.35141e-17
  outer loop
    vertex 0.01054202748533291 0.02322013499173766 0.02
    vertex 0.01117753435666614 0.02902516873967208 0.01
    vertex 0.01181304122799936 0.03483020248760649 0.02
  endloop
endfacet
facet normal 0.994061 -0.108825 1.15699e-16
  outer loop
    vertex 0.01181304122799937 0.03483020248760649 0
    vertex 0.01239558919338816 0.04015148342321304 0.01026496190336385
    vertex 0.01117753435666614 0.02902516873967208 0.01
  endloop
endfacet
facet normal 0.994061 -0.108825 -2.30212e-17
  outer loop
    vertex 0.01117753435666614 0.02902516873967208 0.01
    vertex 0.01239558919338816 0.04015148342321304 0.01026496190336385
    vertex 0.01181304122799936 0.03483020248760649 0.02
  endloop
endfacet
facet normal 0.994061 -0.108825 -1.48995e-17
  outer loop
    vertex 0.01054202748533291 0.02322013499173766 0
    vertex 0.009959479519944118 0.01789885405613111 0.009735038096636155
    vertex 0.009271013742666454 0.01161006749586883 0
  endloop
endfacet
facet normal 0.994061 -0.108825 7.06515e-17
  outer loop
    vertex 0.009271013742666454 0.01161006749586883 0.02
    vertex 0.009959479519944118 0.01789885405613111 0.009735038096636155
    vertex 0.01054202748533291 0.02322013499173766 0.02
  endloop
endfacet
facet normal 0.994061 -0.108825 6.52711e-17
  outer loop
    vertex 0.01181304122799937 0.03483020248760649 0
    vertex 0.01117753435666614 0.02902516873967208 0.01
    vertex 0.01054202748533291 0.02322013499173766 0
  endloop
endfacet
facet normal 0.994061 -0.108825 1.53475e-17
  outer loop
    vertex 0.01117753435666614 0.02902516873967208 0.01
    vertex 0.009959479519944118 0.01789885405613111 0.009735038096636155
    vertex 0.01054202748533291 0.02322013499173766 0
  endloop
endfacet
facet normal 0.994061 -0.108825 -4.46984e-17
  outer loop
    vertex 0.01181304122799936 0.03483020248760649 0.02
    vertex 0.01239558919338816 0.04015148342321304 0.01026496190336385
    vertex 0.01308405497066582 0.04644026998347532 0.02
  endloop
endfacet
facet normal 0.994061 -0.108825 1.15699e-16
  outer loop
    vertex 0.01054202748533291 0.02322013499173766 0.02
    vertex 0.009959479519944118 0.01789885405613111 0.009735038096636155
    vertex 0.01117753435666614 0.02902516873967208 0.01
  endloop
endfacet
facet normal 0.994061 -0.108825 7.06515e-17
  outer loop
    vertex 0.01308405497066582 0.04644026998347533 0
    vertex 0.01239558919338816 0.04015148342321304 0.01026496190336385
    vertex 0.01181304122799937 0.03483020248760649 0
  endloop
endfacet
facet normal 0.994061 -0.108825 -5.74019e-17
  outer loop
    vertex 0.01308405497066582 0.04644026998347533 0
    vertex 0.01340180840633243 0.04934278685744253 0.01158977142018308
    vertex 0.01239558919338816 0.04015148342321304 0.01026496190336385
  endloop
endfacet
facet normal 0.994061 -0.108825 7.38024e-17
  outer loop
    vertex 0.009271013742666454 0.01161006749586883 0.02
    vertex 0.008953260306999842 0.008707550621901618 0.008410228579816926
    vertex 0.009959479519944118 0.01789885405613111 0.009735038096636155
  endloop
endfacet
facet normal 0.994061 -0.108825 -6.59308e-17
  outer loop
    vertex 0.01308405497066582 0.04644026998347533 0
    vertex 0.01376398611815912 0.05265109701857873 0.004999999999999985
    vertex 0.01340180840633243 0.04934278685744253 0.01158977142018308
  endloop
endfacet
facet normal 0.994061 -0.108825 1.09885e-16
  outer loop
    vertex 0.009271013742666454 0.01161006749586883 0.02
    vertex 0.008591082595173152 0.005399240460765415 0.01500000000000002
    vertex 0.008953260306999842 0.008707550621901618 0.008410228579816926
  endloop
endfacet
facet normal 0.994061 -0.108825 -1.88561e-16
  outer loop
    vertex 0.01435506871333227 0.05805033747934416 0
    vertex 0.01376398611815912 0.05265109701857873 0.004999999999999985
    vertex 0.01308405497066582 0.04644026998347533 0
  endloop
endfacet
facet normal 0.994061 -0.108825 4.35141e-17
  outer loop
    vertex 0.008 0 0.02
    vertex 0.008591082595173152 0.005399240460765415 0.01500000000000002
    vertex 0.009271013742666454 0.01161006749586883 0.02
  endloop
endfacet
facet normal 0.994061 -0.108825 -1.55645e-16
  outer loop
    vertex 0.009959479519944118 0.01789885405613111 0.009735038096636155
    vertex 0.008953260306999842 0.008707550621901618 0.008410228579816926
    vertex 0.009271013742666454 0.01161006749586883 0
  endloop
endfacet
facet normal 0.994061 -0.108825 -1.03764e-17
  outer loop
    vertex 0.01239558919338816 0.04015148342321304 0.01026496190336385
    vertex 0.01340180840633243 0.04934278685744253 0.01158977142018308
    vertex 0.01308405497066582 0.04644026998347532 0.02
  endloop
endfacet
facet normal 0.994061 -0.108825 0
  outer loop
    vertex 0.01435506871333227 0.05805033747934416 0.009999999999999972
    vertex 0.01376398611815912 0.05265109701857873 0.004999999999999985
    vertex 0.01435506871333227 0.05805033747934416 0
  endloop
endfacet
facet normal 0.994061 -0.108825 0
  outer loop
    vertex 0.008 0 0.01000000000000003
    vertex 0.008591082595173152 0.005399240460765415 0.01500000000000002
    vertex 0.008 0 0.02
  endloop
endfacet
facet normal 0.994061 -0.108825 4.8464e-17
  outer loop
    vertex 0.01340180840633243 0.04934278685744253 0.01158977142018308
    vertex 0.01376398611815912 0.05265109701857873 0.004999999999999985
    vertex 0.01435506871333227 0.05805033747934416 0.009999999999999972
  endloop
endfacet
facet normal 0.994061 -0.108825 8.07733e-17
  outer loop
    vertex 0.008953260306999842 0.008707550621901618 0.008410228579816926
    vertex 0.008591082595173152 0.005399240460765415 0.01500000000000002
    vertex 0.008 0 0.01000000000000003
  endloop
endfacet
endsolid Created by Gmsh
