solid Created by Gmsh
facet normal 1 0 -9.04045e-16
  outer loop
    vertex 0.04 0.045 0.02
    vertex 0.03999999999999999 0.05260932944606414 0.01232461734693878
    vertex 0.04 0.0525 0.02
  endloop
endfacet
facet normal 1 0 -9.04045e-16
  outer loop
    vertex 0.04 0.0525 0.02
    vertex 0.03999999999999999 0.05260932944606414 0.01232461734693878
    vertex 0.04 0.06 0.02
  endloop
endfacet
facet normal 1 -9.38872e-16 0
  outer loop
    vertex 0.04 0.06 0.02
    vertex 0.03999999999999999 0.05260932944606414 0.01232461734693878
    vertex 0.04 0.06 0.009999999999999972
  endloop
endfacet
facet normal 1 9.11893e-16 -0
  outer loop
    vertex 0.04 0.045 0.01000000000000003
    vertex 0.03999999999999999 0.05260932944606414 0.01232461734693878
    vertex 0.04 0.045 0.02
  endloop
endfacet
facet normal 1 1.32169e-15 -0
  outer loop
    vertex 0.04 0.045 0
    vertex 0.03999999999999999 0.05025 0.005343750000000006
    vertex 0.04 0.045 0.01000000000000003
  endloop
endfacet
facet normal 1 -1.51124e-15 0
  outer loop
    vertex 0.04 0.06 0.009999999999999972
    vertex 0.03999999999999999 0.05540847563515202 0.005381195335276963
    vertex 0.04 0.06 0
  endloop
endfacet
facet normal 1 0 1.28947e-15
  outer loop
    vertex 0.04 0.06 0
    vertex 0.03999999999999999 0.05540847563515202 0.005381195335276963
    vertex 0.04 0.0525 0
  endloop
endfacet
facet normal 1 0 1.29851e-15
  outer loop
    vertex 0.04 0.0525 0
    vertex 0.03999999999999999 0.05025 0.005343750000000006
    vertex 0.04 0.045 0
  endloop
endfacet
facet normal 1 0 0
  outer loop
    vertex 0.03999999999999999 0.05025 0.005343750000000006
    vertex 0.03999999999999999 0.05540847563515202 0.005381195335276963
    vertex 0.03999999999999999 0.05260932944606414 0.01232461734693878
  endloop
endfacet
facet normal 1 -9.39713e-18 1.29455e-15
  outer loop
    vertex 0.04 0.0525 0
    vertex 0.03999999999999999 0.05540847563515202 0.005381195335276963
    vertex 0.03999999999999999 0.05025 0.005343750000000006
  endloop
endfacet
facet normal 1 -1.07521e-15 -4.33456e-16
  outer loop
    vertex 0.03999999999999999 0.05260932944606414 0.01232461734693878
    vertex 0.03999999999999999 0.05540847563515202 0.005381195335276963
    vertex 0.04 0.06 0.009999999999999972
  endloop
endfacet
facet normal 1 1.01688e-15 -3.43677e-16
  outer loop
    vertex 0.03999999999999999 0.05025 0.005343750000000006
    vertex 0.03999999999999999 0.05260932944606414 0.01232461734693878
    vertex 0.04 0.045 0.01000000000000003
  endloop
endfacet
facet normal 0.270746 0.962651 0
  outer loop
    vertex 0.04 0.045 0.009999999999999972
    vertex 0.04759162895927601 0.04286485435520363 0.00779663085937499
    vertex 0.04 0.045 0
  endloop
endfacet
facet normal 0.270746 0.962651 -1.3805e-15
  outer loop
    vertex 0.04 0.045 0
    vertex 0.04759162895927601 0.04286485435520363 0.00779663085937499
    vertex 0.04999999999999998 0.0421875 0
  endloop
endfacet
facet normal 0.270746 0.962651 1.14659e-15
  outer loop
    vertex 0.05999999999999998 0.039375 0.02
    vertex 0.05303008930760417 0.04133528738223633 0.01260404172857751
    vertex 0.05 0.0421875 0.02
  endloop
endfacet
facet normal 0.270746 0.962651 -0
  outer loop
    vertex 0.05999999999999998 0.039375 0.01000000000000003
    vertex 0.05303008930760417 0.04133528738223633 0.01260404172857751
    vertex 0.05999999999999998 0.039375 0.02
  endloop
endfacet
facet normal 0.270746 0.962651 1.82649e-15
  outer loop
    vertex 0.05 0.0421875 0.02
    vertex 0.045 0.04359375000000001 0.01499999999999999
    vertex 0.04 0.045 0.02
  endloop
endfacet
facet normal 0.270746 0.962651 -1.69334e-15
  outer loop
    vertex 0.04999999999999998 0.0421875 0
    vertex 0.05417349007058989 0.0410137059176466 0.005970989718748206
    vertex 0.05999999999999998 0.039375 0
  endloop
endfacet
facet normal 0.270746 0.962651 0
  outer loop
    vertex 0.04 0.045 0.02
    vertex 0.045 0.04359375000000001 0.01499999999999999
    vertex 0.04 0.045 0.009999999999999972
  endloop
endfacet
facet normal 0.270746 0.962651 -0
  outer loop
    vertex 0.05999999999999998 0.039375 0
    vertex 0.05417349007058989 0.0410137059176466 0.005970989718748206
    vertex 0.05999999999999998 0.039375 0.01000000000000003
  endloop
endfacet
facet normal 0.270746 0.962651 1.36081e-15
  outer loop
    vertex 0.05303008930760417 0.04133528738223633 0.01260404172857751
    vertex 0.045 0.04359375000000001 0.01499999999999999
    vertex 0.05 0.0421875 0.02
  endloop
endfacet
facet normal 0.270746 0.962651 3.94795e-16
  outer loop
    vertex 0.04759162895927601 0.04286485435520363 0.00779663085937499
    vertex 0.045 0.04359375000000001 0.01499999999999999
    vertex 0.05303008930760417 0.04133528738223633 0.01260404172857751
  endloop
endfacet
facet normal 0.270746 0.962651 -1.45112e-15
  outer loop
    vertex 0.04999999999999998 0.0421875 0
    vertex 0.04759162895927601 0.04286485435520363 0.00779663085937499
    vertex 0.05417349007058989 0.0410137059176466 0.005970989718748206
  endloop
endfacet
facet normal 0.270746 0.962651 -2.3309e-16
  outer loop
    vertex 0.04 0.045 0.009999999999999972
    vertex 0.045 0.04359375000000001 0.01499999999999999
    vertex 0.04759162895927601 0.04286485435520363 0.00779663085937499
  endloop
endfacet
facet normal 0.270746 0.962651 3.92297e-16
  outer loop
    vertex 0.04759162895927601 0.04286485435520363 0.00779663085937499
    vertex 0.05303008930760417 0.04133528738223633 0.01260404172857751
    vertex 0.05417349007058989 0.0410137059176466 0.005970989718748206
  endloop
endfacet
facet normal 0.270746 0.962651 6.07952e-16
  outer loop
    vertex 0.05417349007058989 0.0410137059176466 0.005970989718748206
    vertex 0.05303008930760417 0.04133528738223633 0.01260404172857751
    vertex 0.05999999999999998 0.039375 0.01000000000000003
  endloop
endfacet
facet normal 0.203954 -0.97898 0
  outer loop
    vertex 0.04199999999999997 0.035625 0.02
    vertex 0.04649999999999997 0.0365625 0.01203842234541421
    vertex 0.05099999999999997 0.0375 0.02
  endloop
endfacet
facet normal 0.203954 -0.97898 0
  outer loop
    vertex 0.05999999999999998 0.039375 0.02
    vertex 0.05356282035998135 0.03803392090832945 0.013180867244295
    vertex 0.05999999999999998 0.039375 0.009999999999999972
  endloop
endfacet
facet normal 0.203954 -0.97898 0
  outer loop
    vertex 0.03299999999999999 0.03375 0.01000000000000003
    vertex 0.03943717964001862 0.03509107909167054 0.01318086724429502
    vertex 0.03299999999999999 0.03375 0.02
  endloop
endfacet
facet normal 0.203954 -0.97898 1.89161e-16
  outer loop
    vertex 0.05099999999999997 0.0375 0.02
    vertex 0.05356282035998135 0.03803392090832945 0.013180867244295
    vertex 0.05999999999999998 0.039375 0.02
  endloop
endfacet
facet normal 0.203954 -0.97898 6.48551e-16
  outer loop
    vertex 0.03299999999999999 0.03375 0.02
    vertex 0.03943717964001862 0.03509107909167054 0.01318086724429502
    vertex 0.04199999999999997 0.035625 0.02
  endloop
endfacet
facet normal 0.203954 -0.97898 5.93597e-16
  outer loop
    vertex 0.04649999999999997 0.0365625 0.01203842234541421
    vertex 0.03924696809425365 0.03505145168630285 0.006373798186900199
    vertex 0.04649999999999999 0.0365625 0.004886006976090676
  endloop
endfacet
facet normal 0.203954 -0.97898 5.93597e-16
  outer loop
    vertex 0.04649999999999999 0.0365625 0.004886006976090676
    vertex 0.05375303190574632 0.03807354831369715 0.006373798186900196
    vertex 0.04649999999999997 0.0365625 0.01203842234541421
  endloop
endfacet
facet normal 0.203954 -0.97898 0
  outer loop
    vertex 0.03299999999999999 0.03375 0
    vertex 0.03924696809425365 0.03505145168630285 0.006373798186900199
    vertex 0.03299999999999999 0.03375 0.01000000000000003
  endloop
endfacet
facet normal 0.203954 -0.97898 0
  outer loop
    vertex 0.05999999999999998 0.039375 0.009999999999999972
    vertex 0.05375303190574632 0.03807354831369715 0.006373798186900196
    vertex 0.05999999999999998 0.039375 0
  endloop
endfacet
facet normal 0.203954 -0.97898 3.77746e-16
  outer loop
    vertex 0.04649999999999997 0.0365625 0.01203842234541421
    vertex 0.05375303190574632 0.03807354831369715 0.006373798186900196
    vertex 0.05356282035998135 0.03803392090832945 0.013180867244295
  endloop
endfacet
facet normal 0.203954 -0.97898 -3.93843e-16
  outer loop
    vertex 0.03943717964001862 0.03509107909167054 0.01318086724429502
    vertex 0.03924696809425365 0.03505145168630285 0.006373798186900199
    vertex 0.04649999999999997 0.0365625 0.01203842234541421
  endloop
endfacet
facet normal 0.203954 -0.97898 -5.7822e-16
  outer loop
    vertex 0.05999999999999998 0.039375 0
    vertex 0.05375303190574632 0.03807354831369715 0.006373798186900196
    vertex 0.051 0.03750000000000001 0
  endloop
endfacet
facet normal 0.203954 -0.97898 -2.45744e-16
  outer loop
    vertex 0.04200000000000001 0.035625 0
    vertex 0.03924696809425365 0.03505145168630285 0.006373798186900199
    vertex 0.03299999999999999 0.03375 0
  endloop
endfacet
facet normal 0.203954 -0.97898 2.2723e-16
  outer loop
    vertex 0.04649999999999997 0.0365625 0.01203842234541421
    vertex 0.05356282035998135 0.03803392090832945 0.013180867244295
    vertex 0.05099999999999997 0.0375 0.02
  endloop
endfacet
facet normal 0.203954 -0.97898 2.75922e-16
  outer loop
    vertex 0.04199999999999997 0.035625 0.02
    vertex 0.03943717964001862 0.03509107909167054 0.01318086724429502
    vertex 0.04649999999999997 0.0365625 0.01203842234541421
  endloop
endfacet
facet normal 0.203954 -0.97898 -8.29718e-16
  outer loop
    vertex 0.051 0.03750000000000001 0
    vertex 0.04649999999999999 0.0365625 0.004886006976090676
    vertex 0.04200000000000001 0.035625 0
  endloop
endfacet
facet normal 0.203954 -0.97898 -2.95215e-16
  outer loop
    vertex 0.04649999999999999 0.0365625 0.004886006976090676
    vertex 0.03924696809425365 0.03505145168630285 0.006373798186900199
    vertex 0.04200000000000001 0.035625 0
  endloop
endfacet
facet normal 0.203954 -0.97898 -7.774e-16
  outer loop
    vertex 0.051 0.03750000000000001 0
    vertex 0.05375303190574632 0.03807354831369715 0.006373798186900196
    vertex 0.04649999999999999 0.0365625 0.004886006976090676
  endloop
endfacet
facet normal 0.203954 -0.97898 -3.45406e-16
  outer loop
    vertex 0.03299999999999999 0.03375 0.01000000000000003
    vertex 0.03924696809425365 0.03505145168630285 0.006373798186900199
    vertex 0.03943717964001862 0.03509107909167054 0.01318086724429502
  endloop
endfacet
facet normal 0.203954 -0.97898 3.81385e-16
  outer loop
    vertex 0.05356282035998135 0.03803392090832945 0.013180867244295
    vertex 0.05375303190574632 0.03807354831369715 0.006373798186900196
    vertex 0.05999999999999998 0.039375 0.009999999999999972
  endloop
endfacet
facet normal 1 0 0
  outer loop
    vertex 0.03299999999999999 0.03375 0
    vertex 0.03299999999999999 0.0309375 0.005000000000000001
    vertex 0.03299999999999999 0.028125 0
  endloop
endfacet
facet normal 1 0 0
  outer loop
    vertex 0.03299999999999999 0.03375 0.009999999999999972
    vertex 0.03299999999999999 0.0309375 0.015
    vertex 0.03299999999999999 0.028125 0.01000000000000003
  endloop
endfacet
facet normal 1 -0 0
  outer loop
    vertex 0.03299999999999999 0.028125 0.02
    vertex 0.03299999999999999 0.0309375 0.015
    vertex 0.03299999999999999 0.03375 0.02
  endloop
endfacet
facet normal 1 0 0
  outer loop
    vertex 0.03299999999999999 0.028125 0.01000000000000003
    vertex 0.03299999999999999 0.0309375 0.005000000000000001
    vertex 0.03299999999999999 0.03375 0.009999999999999972
  endloop
endfacet
facet normal 1 0 0
  outer loop
    vertex 0.03299999999999999 0.03375 0.009999999999999972
    vertex 0.03299999999999999 0.0309375 0.005000000000000001
    vertex 0.03299999999999999 0.03375 0
  endloop
endfacet
facet normal 1 0 0
  outer loop
    vertex 0.03299999999999999 0.03375 0.02
    vertex 0.03299999999999999 0.0309375 0.015
    vertex 0.03299999999999999 0.03375 0.009999999999999972
  endloop
endfacet
facet normal 1 0 0
  outer loop
    vertex 0.03299999999999999 0.028125 0
    vertex 0.03299999999999999 0.0309375 0.005000000000000001
    vertex 0.03299999999999999 0.028125 0.01000000000000003
  endloop
endfacet
facet normal 1 0 0
  outer loop
    vertex 0.03299999999999999 0.028125 0.01000000000000003
    vertex 0.03299999999999999 0.0309375 0.015
    vertex 0.03299999999999999 0.028125 0.02
  endloop
endfacet
facet normal 0.203954 0.97898 -4.16615e-16
  outer loop
    vertex 0.051 0.02437499999999999 0.02
    vertex 0.04650000000000001 0.02531249999999999 0.01203842234541421
    vertex 0.04200000000000001 0.02625 0.02
  endloop
endfacet
facet normal 0.203954 0.97898 0
  outer loop
    vertex 0.03299999999999999 0.028125 0.02
    vertex 0.03943717964001862 0.02678392090832945 0.013180867244295
    vertex 0.03299999999999999 0.028125 0.009999999999999972
  endloop
endfacet
facet normal 0.203954 0.97898 -0
  outer loop
    vertex 0.05999999999999998 0.0225 0.01000000000000003
    vertex 0.05356282035998136 0.02384107909167054 0.01318086724429502
    vertex 0.05999999999999998 0.0225 0.02
  endloop
endfacet
facet normal 0.203954 0.97898 -6.89085e-16
  outer loop
    vertex 0.04200000000000001 0.02625 0.02
    vertex 0.03943717964001862 0.02678392090832945 0.013180867244295
    vertex 0.03299999999999999 0.028125 0.02
  endloop
endfacet
facet normal 0.203954 0.97898 -6.48551e-16
  outer loop
    vertex 0.05999999999999998 0.0225 0.02
    vertex 0.05356282035998136 0.02384107909167054 0.01318086724429502
    vertex 0.051 0.02437499999999999 0.02
  endloop
endfacet
facet normal 0.203954 0.97898 -1.18719e-16
  outer loop
    vertex 0.04649999999999999 0.02531249999999999 0.004886006976090676
    vertex 0.03924696809425366 0.02682354831369715 0.006373798186900196
    vertex 0.04650000000000001 0.02531249999999999 0.01203842234541421
  endloop
endfacet
facet normal 0.203954 0.97898 -1.18719e-16
  outer loop
    vertex 0.04650000000000001 0.02531249999999999 0.01203842234541421
    vertex 0.05375303190574632 0.02380145168630284 0.006373798186900198
    vertex 0.04649999999999999 0.02531249999999999 0.004886006976090676
  endloop
endfacet
facet normal 0.203954 0.97898 -0
  outer loop
    vertex 0.05999999999999998 0.0225 0
    vertex 0.05375303190574632 0.02380145168630284 0.006373798186900198
    vertex 0.05999999999999998 0.0225 0.01000000000000003
  endloop
endfacet
facet normal 0.203954 0.97898 0
  outer loop
    vertex 0.03299999999999999 0.028125 0.009999999999999972
    vertex 0.03924696809425366 0.02682354831369715 0.006373798186900196
    vertex 0.03299999999999999 0.028125 0
  endloop
endfacet
facet normal 0.203954 0.97898 1.37362e-16
  outer loop
    vertex 0.04650000000000001 0.02531249999999999 0.01203842234541421
    vertex 0.03924696809425366 0.02682354831369715 0.006373798186900196
    vertex 0.03943717964001862 0.02678392090832945 0.013180867244295
  endloop
endfacet
facet normal 0.203954 0.97898 -1.15899e-16
  outer loop
    vertex 0.05356282035998136 0.02384107909167054 0.01318086724429502
    vertex 0.05375303190574632 0.02380145168630284 0.006373798186900198
    vertex 0.04650000000000001 0.02531249999999999 0.01203842234541421
  endloop
endfacet
facet normal 0.203954 0.97898 5.7822e-16
  outer loop
    vertex 0.03299999999999999 0.028125 0
    vertex 0.03924696809425366 0.02682354831369715 0.006373798186900196
    vertex 0.04199999999999997 0.02625 0
  endloop
endfacet
facet normal 0.203954 0.97898 7.80598e-16
  outer loop
    vertex 0.05099999999999997 0.024375 0
    vertex 0.05375303190574632 0.02380145168630284 0.006373798186900198
    vertex 0.05999999999999998 0.0225 0
  endloop
endfacet
facet normal 0.203954 0.97898 -6.97919e-16
  outer loop
    vertex 0.04650000000000001 0.02531249999999999 0.01203842234541421
    vertex 0.03943717964001862 0.02678392090832945 0.013180867244295
    vertex 0.04200000000000001 0.02625 0.02
  endloop
endfacet
facet normal 0.203954 0.97898 -4.46344e-16
  outer loop
    vertex 0.051 0.02437499999999999 0.02
    vertex 0.05356282035998136 0.02384107909167054 0.01318086724429502
    vertex 0.04650000000000001 0.02531249999999999 0.01203842234541421
  endloop
endfacet
facet normal 0.203954 0.97898 8.29718e-16
  outer loop
    vertex 0.04199999999999997 0.02625 0
    vertex 0.04649999999999999 0.02531249999999999 0.004886006976090676
    vertex 0.05099999999999997 0.024375 0
  endloop
endfacet
facet normal 0.203954 0.97898 6.49474e-16
  outer loop
    vertex 0.04649999999999999 0.02531249999999999 0.004886006976090676
    vertex 0.05375303190574632 0.02380145168630284 0.006373798186900198
    vertex 0.05099999999999997 0.024375 0
  endloop
endfacet
facet normal 0.203954 0.97898 7.774e-16
  outer loop
    vertex 0.04199999999999997 0.02625 0
    vertex 0.03924696809425366 0.02682354831369715 0.006373798186900196
    vertex 0.04649999999999999 0.02531249999999999 0.004886006976090676
  endloop
endfacet
facet normal 0.203954 0.97898 -1.53514e-16
  outer loop
    vertex 0.05999999999999998 0.0225 0.01000000000000003
    vertex 0.05375303190574632 0.02380145168630284 0.006373798186900198
    vertex 0.05356282035998136 0.02384107909167054 0.01318086724429502
  endloop
endfacet
facet normal 0.203954 0.97898 1.10338e-16
  outer loop
    vertex 0.03943717964001862 0.02678392090832945 0.013180867244295
    vertex 0.03924696809425366 0.02682354831369715 0.006373798186900196
    vertex 0.03299999999999999 0.028125 0.009999999999999972
  endloop
endfacet
facet normal 0.321777 -0.946816 4.47555e-16
  outer loop
    vertex 0.05999999999999998 0.0225 0
    vertex 0.0528344465489145 0.02006477510132743 0.007795038999836115
    vertex 0.05172432940704438 0.0196875 0
  endloop
endfacet
facet normal 0.321777 -0.946816 0
  outer loop
    vertex 0.05999999999999998 0.0225 0.009999999999999972
    vertex 0.0528344465489145 0.02006477510132743 0.007795038999836115
    vertex 0.05999999999999998 0.0225 0
  endloop
endfacet
facet normal 0.321777 -0.946816 0
  outer loop
    vertex 0.04344865881408876 0.016875 0.01000000000000003
    vertex 0.04912720326634747 0.01880486249181696 0.01357769384139714
    vertex 0.04344865881408876 0.016875 0.02
  endloop
endfacet
facet normal 0.321777 -0.946816 0
  outer loop
    vertex 0.04344865881408876 0.016875 0
    vertex 0.04772450047758297 0.01832815168644026 0.005067735676842396
    vertex 0.04344865881408876 0.016875 0.01000000000000003
  endloop
endfacet
facet normal 0.321777 -0.946816 0
  outer loop
    vertex 0.05999999999999998 0.0225 0.02
    vertex 0.05473719584446126 0.02071142751862888 0.01427454656824664
    vertex 0.05999999999999998 0.0225 0.009999999999999972
  endloop
endfacet
facet normal 0.321777 -0.946816 -2.4143e-16
  outer loop
    vertex 0.04344865881408876 0.016875 0.02
    vertex 0.04912720326634747 0.01880486249181696 0.01357769384139714
    vertex 0.05172432940704436 0.0196875 0.02
  endloop
endfacet
facet normal 0.321777 -0.946816 -1.46606e-16
  outer loop
    vertex 0.04912720326634747 0.01880486249181696 0.01357769384139714
    vertex 0.04772450047758297 0.01832815168644026 0.005067735676842396
    vertex 0.0528344465489145 0.02006477510132743 0.007795038999836115
  endloop
endfacet
facet normal 0.321777 -0.946816 8.79643e-16
  outer loop
    vertex 0.05172432940704438 0.0196875 0
    vertex 0.04772450047758297 0.01832815168644026 0.005067735676842396
    vertex 0.04344865881408876 0.016875 0
  endloop
endfacet
facet normal 0.321777 -0.946816 0
  outer loop
    vertex 0.05172432940704436 0.0196875 0.02
    vertex 0.05473719584446126 0.02071142751862888 0.01427454656824664
    vertex 0.05999999999999998 0.0225 0.02
  endloop
endfacet
facet normal 0.321777 -0.946816 -2.59268e-16
  outer loop
    vertex 0.04344865881408876 0.016875 0.01000000000000003
    vertex 0.04772450047758297 0.01832815168644026 0.005067735676842396
    vertex 0.04912720326634747 0.01880486249181696 0.01357769384139714
  endloop
endfacet
facet normal 0.321777 -0.946816 -1.71736e-16
  outer loop
    vertex 0.05473719584446126 0.02071142751862888 0.01427454656824664
    vertex 0.04912720326634747 0.01880486249181696 0.01357769384139714
    vertex 0.0528344465489145 0.02006477510132743 0.007795038999836115
  endloop
endfacet
facet normal 0.321777 -0.946816 -1.70902e-16
  outer loop
    vertex 0.05473719584446126 0.02071142751862888 0.01427454656824664
    vertex 0.0528344465489145 0.02006477510132743 0.007795038999836115
    vertex 0.05999999999999998 0.0225 0.009999999999999972
  endloop
endfacet
facet normal 0.321777 -0.946816 5.33863e-16
  outer loop
    vertex 0.0528344465489145 0.02006477510132743 0.007795038999836115
    vertex 0.04772450047758297 0.01832815168644026 0.005067735676842396
    vertex 0.05172432940704438 0.0196875 0
  endloop
endfacet
facet normal 0.321777 -0.946816 -7.03098e-17
  outer loop
    vertex 0.05172432940704436 0.0196875 0.02
    vertex 0.04912720326634747 0.01880486249181696 0.01357769384139714
    vertex 0.05473719584446126 0.02071142751862888 0.01427454656824664
  endloop
endfacet
facet normal 0.474021 -0.880513 -1.9304e-16
  outer loop
    vertex 0.04344865881408876 0.016875 0
    vertex 0.03822432940704436 0.01406249999999999 0.005916284881299467
    vertex 0.03299999999999999 0.01125 0
  endloop
endfacet
facet normal 0.474021 -0.880513 2.37126e-16
  outer loop
    vertex 0.03299999999999999 0.01125 0.02
    vertex 0.03822432940704437 0.0140625 0.0139795918367347
    vertex 0.04344865881408876 0.016875 0.02
  endloop
endfacet
facet normal 0.474021 -0.880513 0
  outer loop
    vertex 0.04344865881408876 0.016875 0.02
    vertex 0.03822432940704437 0.0140625 0.0139795918367347
    vertex 0.04344865881408876 0.016875 0.009999999999999972
  endloop
endfacet
facet normal 0.474021 -0.880513 0
  outer loop
    vertex 0.03299999999999999 0.01125 0
    vertex 0.03822432940704436 0.01406249999999999 0.005916284881299467
    vertex 0.03299999999999999 0.01125 0.01000000000000003
  endloop
endfacet
facet normal 0.474021 -0.880513 -2.90563e-17
  outer loop
    vertex 0.03822432940704437 0.0140625 0.0139795918367347
    vertex 0.03822432940704436 0.01406249999999999 0.005916284881299467
    vertex 0.04344865881408876 0.016875 0.009999999999999972
  endloop
endfacet
facet normal 0.474021 -0.880513 -3.54097e-17
  outer loop
    vertex 0.03299999999999999 0.01125 0.01000000000000003
    vertex 0.03822432940704436 0.01406249999999999 0.005916284881299467
    vertex 0.03822432940704437 0.0140625 0.0139795918367347
  endloop
endfacet
facet normal 0.474021 -0.880513 0
  outer loop
    vertex 0.04344865881408876 0.016875 0.009999999999999972
    vertex 0.03822432940704436 0.01406249999999999 0.005916284881299467
    vertex 0.04344865881408876 0.016875 0
  endloop
endfacet
facet normal 0.474021 -0.880513 0
  outer loop
    vertex 0.03299999999999999 0.01125 0.01000000000000003
    vertex 0.03822432940704437 0.0140625 0.0139795918367347
    vertex 0.03299999999999999 0.01125 0.02
  endloop
endfacet
facet normal 0.203954 0.97898 0
  outer loop
    vertex 0.04199999999999997 0.009375 0
    vertex 0.04649999999999997 0.008437500000000001 0.007961577654585793
    vertex 0.05099999999999997 0.007500000000000001 0
  endloop
endfacet
facet normal 0.203954 0.97898 -0
  outer loop
    vertex 0.05999999999999998 0.005624999999999998 0
    vertex 0.05356282035998135 0.006966079091670545 0.006819132755705001
    vertex 0.05999999999999998 0.005624999999999998 0.01000000000000003
  endloop
endfacet
facet normal 0.203954 0.97898 0
  outer loop
    vertex 0.03299999999999999 0.01125 0.009999999999999972
    vertex 0.03943717964001862 0.009908920908329448 0.006819132755704985
    vertex 0.03299999999999999 0.01125 0
  endloop
endfacet
facet normal 0.203954 0.97898 1.21603e-16
  outer loop
    vertex 0.05099999999999997 0.007500000000000001 0
    vertex 0.05356282035998135 0.006966079091670545 0.006819132755705001
    vertex 0.05999999999999998 0.005624999999999998 0
  endloop
endfacet
facet normal 0.203954 0.97898 1.89161e-16
  outer loop
    vertex 0.03299999999999999 0.01125 0
    vertex 0.03943717964001862 0.009908920908329448 0.006819132755704985
    vertex 0.04199999999999997 0.009375 0
  endloop
endfacet
facet normal 0.203954 0.97898 1.18719e-16
  outer loop
    vertex 0.04649999999999999 0.008437499999999995 0.01511399302390933
    vertex 0.05375303190574632 0.006926451686302845 0.0136262018130998
    vertex 0.04649999999999997 0.008437500000000001 0.007961577654585793
  endloop
endfacet
facet normal 0.203954 0.97898 1.18719e-16
  outer loop
    vertex 0.04649999999999997 0.008437500000000001 0.007961577654585793
    vertex 0.03924696809425365 0.00994854831369715 0.0136262018130998
    vertex 0.04649999999999999 0.008437499999999995 0.01511399302390933
  endloop
endfacet
facet normal 0.203954 0.97898 0
  outer loop
    vertex 0.03299999999999999 0.01125 0.02
    vertex 0.03924696809425365 0.00994854831369715 0.0136262018130998
    vertex 0.03299999999999999 0.01125 0.009999999999999972
  endloop
endfacet
facet normal 0.203954 0.97898 -0
  outer loop
    vertex 0.05999999999999998 0.005624999999999998 0.01000000000000003
    vertex 0.05375303190574632 0.006926451686302845 0.0136262018130998
    vertex 0.05999999999999998 0.005624999999999998 0.02
  endloop
endfacet
facet normal 0.203954 0.97898 0
  outer loop
    vertex 0.04649999999999997 0.008437500000000001 0.007961577654585793
    vertex 0.05375303190574632 0.006926451686302845 0.0136262018130998
    vertex 0.05356282035998135 0.006966079091670545 0.006819132755705001
  endloop
endfacet
facet normal 0.203954 0.97898 -1.2985e-16
  outer loop
    vertex 0.03943717964001862 0.009908920908329448 0.006819132755704985
    vertex 0.03924696809425365 0.00994854831369715 0.0136262018130998
    vertex 0.04649999999999997 0.008437500000000001 0.007961577654585793
  endloop
endfacet
facet normal 0.203954 0.97898 -1.44555e-16
  outer loop
    vertex 0.05999999999999998 0.005624999999999998 0.02
    vertex 0.05375303190574632 0.006926451686302845 0.0136262018130998
    vertex 0.051 0.007499999999999995 0.02
  endloop
endfacet
facet normal 0.203954 0.97898 -1.15644e-16
  outer loop
    vertex 0.04200000000000001 0.009374999999999993 0.02
    vertex 0.03924696809425365 0.00994854831369715 0.0136262018130998
    vertex 0.03299999999999999 0.01125 0.02
  endloop
endfacet
facet normal 0.203954 0.97898 9.73841e-17
  outer loop
    vertex 0.04649999999999997 0.008437500000000001 0.007961577654585793
    vertex 0.05356282035998135 0.006966079091670545 0.006819132755705001
    vertex 0.05099999999999997 0.007500000000000001 0
  endloop
endfacet
facet normal 0.203954 0.97898 8.11534e-17
  outer loop
    vertex 0.04199999999999997 0.009375 0
    vertex 0.03943717964001862 0.009908920908329448 0.006819132755704985
    vertex 0.04649999999999997 0.008437500000000001 0.007961577654585793
  endloop
endfacet
facet normal 0.203954 0.97898 -2.26287e-16
  outer loop
    vertex 0.051 0.007499999999999995 0.02
    vertex 0.04649999999999999 0.008437499999999995 0.01511399302390933
    vertex 0.04200000000000001 0.009374999999999993 0.02
  endloop
endfacet
facet normal 0.203954 0.97898 -1.18086e-16
  outer loop
    vertex 0.04649999999999999 0.008437499999999995 0.01511399302390933
    vertex 0.03924696809425365 0.00994854831369715 0.0136262018130998
    vertex 0.04200000000000001 0.009374999999999993 0.02
  endloop
endfacet
facet normal 0.203954 0.97898 -2.06651e-16
  outer loop
    vertex 0.051 0.007499999999999995 0.02
    vertex 0.05375303190574632 0.006926451686302845 0.0136262018130998
    vertex 0.04649999999999999 0.008437499999999995 0.01511399302390933
  endloop
endfacet
facet normal 0.203954 0.97898 -1.15135e-16
  outer loop
    vertex 0.03299999999999999 0.01125 0.009999999999999972
    vertex 0.03924696809425365 0.00994854831369715 0.0136262018130998
    vertex 0.03943717964001862 0.009908920908329448 0.006819132755704985
  endloop
endfacet
facet normal 0.203954 0.97898 2.39865e-18
  outer loop
    vertex 0.05356282035998135 0.006966079091670545 0.006819132755705001
    vertex 0.05375303190574632 0.006926451686302845 0.0136262018130998
    vertex 0.05999999999999998 0.005624999999999998 0.01000000000000003
  endloop
endfacet
endsolid Created by Gmsh
