solid Created by Gmsh
facet normal -0.993962 0.109729 0
  outer loop
    vertex 0.039 0.059 0.02
    vertex 0.039 0.059 0.009999999999999972
    vertex 0.03859291633785002 0.0553125 0.015
  endloop
endfacet
facet normal -0.993962 0.109729 0
  outer loop
    vertex 0.03818583267570005 0.051625 0
    vertex 0.03818583267570005 0.051625 0.01000000000000003
    vertex 0.03859291633785002 0.0553125 0.005000000000000001
  endloop
endfacet
facet normal -0.993962 0.109729 0
  outer loop
    vertex 0.039 0.059 0.009999999999999972
    vertex 0.039 0.059 0
    vertex 0.03859291633785002 0.0553125 0.005000000000000001
  endloop
endfacet
facet normal -0.993962 0.109729 0
  outer loop
    vertex 0.03818583267570005 0.051625 0.01000000000000003
    vertex 0.03818583267570005 0.051625 0.02
    vertex 0.03859291633785002 0.0553125 0.015
  endloop
endfacet
facet normal -0.993962 0.109729 -6.8495e-17
  outer loop
    vertex 0.039 0.059 0
    vertex 0.03818583267570005 0.051625 0
    vertex 0.03859291633785002 0.0553125 0.005000000000000001
  endloop
endfacet
facet normal -0.993962 0.109729 7.99109e-17
  outer loop
    vertex 0.03818583267570005 0.051625 0.02
    vertex 0.039 0.059 0.02
    vertex 0.03859291633785002 0.0553125 0.015
  endloop
endfacet
facet normal -0.993962 0.109729 -6.8495e-17
  outer loop
    vertex 0.039 0.059 0.009999999999999972
    vertex 0.03818583267570005 0.051625 0.01000000000000003
    vertex 0.03859291633785002 0.0553125 0.015
  endloop
endfacet
facet normal -0.993962 0.109729 7.99109e-17
  outer loop
    vertex 0.03818583267570005 0.051625 0.01000000000000003
    vertex 0.039 0.059 0.009999999999999972
    vertex 0.03859291633785002 0.0553125 0.005000000000000001
  endloop
endfacet
facet normal -0.709531 0.704674 -6.51928e-17
  outer loop
    vertex 0.03818583267570005 0.051625 0
    vertex 0.03086131754751205 0.04425 0
    vertex 0.03452357511160603 0.04793749999999998 0.005000000000000015
  endloop
endfacet
facet normal -0.709531 0.704674 -6.51928e-17
  outer loop
    vertex 0.03086131754751205 0.04425 0.02
    vertex 0.03818583267570005 0.051625 0.02
    vertex 0.03452357511160607 0.04793750000000001 0.01499999999999999
  endloop
endfacet
facet normal -0.709531 0.704674 0
  outer loop
    vertex 0.03818583267570005 0.051625 0.02
    vertex 0.03818583267570005 0.051625 0.009999999999999972
    vertex 0.03452357511160607 0.04793750000000001 0.01499999999999999
  endloop
endfacet
facet normal -0.709531 0.704674 0
  outer loop
    vertex 0.03086131754751205 0.04425 0
    vertex 0.03086131754751205 0.04425 0.01000000000000003
    vertex 0.03452357511160603 0.04793749999999998 0.005000000000000015
  endloop
endfacet
facet normal -0.709531 0.704674 0
  outer loop
    vertex 0.03818583267570005 0.051625 0.009999999999999972
    vertex 0.03818583267570005 0.051625 0
    vertex 0.03452357511160603 0.04793749999999998 0.005000000000000015
  endloop
endfacet
facet normal -0.709531 0.704674 0
  outer loop
    vertex 0.03086131754751205 0.04425 0.01000000000000003
    vertex 0.03086131754751205 0.04425 0.02
    vertex 0.03452357511160607 0.04793750000000001 0.01499999999999999
  endloop
endfacet
facet normal -0.709531 0.704674 1.68512e-17
  outer loop
    vertex 0.03452357511160607 0.04793750000000001 0.01499999999999999
    vertex 0.03818583267570005 0.051625 0.009999999999999972
    vertex 0.03452357511160603 0.04793749999999998 0.005000000000000015
  endloop
endfacet
facet normal -0.709531 0.704674 0
  outer loop
    vertex 0.03086131754751205 0.04425 0.01000000000000003
    vertex 0.03452357511160607 0.04793750000000001 0.01499999999999999
    vertex 0.03452357511160603 0.04793749999999998 0.005000000000000015
  endloop
endfacet
facet normal -0.709531 -0.704674 9.77892e-16
  outer loop
    vertex 0.03818583267570005 0.036875 0.02
    vertex 0.03086131754751205 0.04425 0.02
    vertex 0.03452357511160604 0.04056249999999999 0.01500000000000001
  endloop
endfacet
facet normal -0.709531 -0.704674 -9.77892e-16
  outer loop
    vertex 0.03086131754751205 0.04425 0
    vertex 0.03818583267570005 0.036875 0
    vertex 0.03452357511160604 0.04056249999999999 0.004999999999999986
  endloop
endfacet
facet normal -0.709531 -0.704674 0
  outer loop
    vertex 0.03452357511160604 0.04056249999999999 0.004999999999999986
    vertex 0.03818583267570005 0.036875 0.01000000000000003
    vertex 0.03452357511160604 0.04056249999999999 0.01500000000000001
  endloop
endfacet
facet normal -0.709531 -0.704674 -0
  outer loop
    vertex 0.03086131754751205 0.04425 0.02
    vertex 0.03086131754751205 0.04425 0.009999999999999972
    vertex 0.03452357511160604 0.04056249999999999 0.01500000000000001
  endloop
endfacet
facet normal -0.709531 -0.704674 0
  outer loop
    vertex 0.03818583267570005 0.036875 0
    vertex 0.03818583267570005 0.036875 0.01000000000000003
    vertex 0.03452357511160604 0.04056249999999999 0.004999999999999986
  endloop
endfacet
facet normal -0.709531 -0.704674 0
  outer loop
    vertex 0.03086131754751205 0.04425 0.009999999999999972
    vertex 0.03452357511160604 0.04056249999999999 0.004999999999999986
    vertex 0.03452357511160604 0.04056249999999999 0.01500000000000001
  endloop
endfacet
facet normal -0.709531 -0.704674 -0
  outer loop
    vertex 0.03086131754751205 0.04425 0.009999999999999972
    vertex 0.03086131754751205 0.04425 0
    vertex 0.03452357511160604 0.04056249999999999 0.004999999999999986
  endloop
endfacet
facet normal -0.709531 -0.704674 0
  outer loop
    vertex 0.03818583267570005 0.036875 0.01000000000000003
    vertex 0.03818583267570005 0.036875 0.02
    vertex 0.03452357511160604 0.04056249999999999 0.01500000000000001
  endloop
endfacet
facet normal -1 0 0
  outer loop
    vertex 0.03818583267570005 0.036875 0.009999999999999972
    vertex 0.03818583267570005 0.0295 0.01000000000000003
    vertex 0.03818583267570005 0.03318749999999999 0.01500000000000001
  endloop
endfacet
facet normal -1 0 0
  outer loop
    vertex 0.03818583267570005 0.0295 0.01000000000000003
    vertex 0.03818583267570005 0.036875 0.009999999999999972
    vertex 0.03818583267570005 0.0331875 0.004999999999999997
  endloop
endfacet
facet normal -1 0 0
  outer loop
    vertex 0.03818583267570005 0.0295 0.02
    vertex 0.03818583267570005 0.036875 0.02
    vertex 0.03818583267570005 0.03318749999999999 0.01500000000000001
  endloop
endfacet
facet normal -1 0 0
  outer loop
    vertex 0.03818583267570005 0.036875 0
    vertex 0.03818583267570005 0.0295 0
    vertex 0.03818583267570005 0.0331875 0.004999999999999997
  endloop
endfacet
facet normal -1 0 -0
  outer loop
    vertex 0.03818583267570005 0.036875 0.009999999999999972
    vertex 0.03818583267570005 0.036875 0
    vertex 0.03818583267570005 0.0331875 0.004999999999999997
  endloop
endfacet
facet normal -1 0 -0
  outer loop
    vertex 0.03818583267570005 0.036875 0.02
    vertex 0.03818583267570005 0.036875 0.009999999999999972
    vertex 0.03818583267570005 0.03318749999999999 0.01500000000000001
  endloop
endfacet
facet normal -1 0 0
  outer loop
    vertex 0.03818583267570005 0.0295 0
    vertex 0.03818583267570005 0.0295 0.01000000000000003
    vertex 0.03818583267570005 0.0331875 0.004999999999999997
  endloop
endfacet
facet normal -1 0 0
  outer loop
    vertex 0.03818583267570005 0.0295 0.01000000000000003
    vertex 0.03818583267570005 0.0295 0.02
    vertex 0.03818583267570005 0.03318749999999999 0.01500000000000001
  endloop
endfacet
facet normal -0.534711 0.845035 0
  outer loop
    vertex 0.0265306802677368 0.022125 0
    vertex 0.0265306802677368 0.022125 0.01000000000000003
    vertex 0.03060998361052394 0.02470625 0.005
  endloop
endfacet
facet normal -0.534711 0.845035 0
  outer loop
    vertex 0.03818583267570005 0.0295 0.02
    vertex 0.03818583267570005 0.0295 0.009999999999999972
    vertex 0.03410652933291292 0.02691875000000001 0.015
  endloop
endfacet
facet normal -0.534711 0.845035 0
  outer loop
    vertex 0.03818583267570005 0.0295 0.009999999999999972
    vertex 0.03818583267570005 0.0295 0
    vertex 0.03433963238107218 0.02706625 0.004999999999999992
  endloop
endfacet
facet normal -0.534711 0.845035 0
  outer loop
    vertex 0.0265306802677368 0.022125 0.01000000000000003
    vertex 0.0265306802677368 0.022125 0.02
    vertex 0.03037688056236467 0.02455875 0.015
  endloop
endfacet
facet normal -0.534711 0.845035 -3.68475e-16
  outer loop
    vertex 0.03235825647171842 0.0258125 0
    vertex 0.0265306802677368 0.022125 0
    vertex 0.03060998361052394 0.02470625 0.005
  endloop
endfacet
facet normal -0.534711 0.845035 -6.87821e-16
  outer loop
    vertex 0.03818583267570005 0.0295 0
    vertex 0.03235825647171842 0.0258125 0
    vertex 0.03433963238107218 0.02706625 0.004999999999999992
  endloop
endfacet
facet normal -0.534711 0.845035 6.14126e-16
  outer loop
    vertex 0.03235825647171843 0.0258125 0.02
    vertex 0.03818583267570005 0.0295 0.02
    vertex 0.03410652933291292 0.02691875000000001 0.015
  endloop
endfacet
facet normal -0.534711 0.845035 6.87821e-16
  outer loop
    vertex 0.0265306802677368 0.022125 0.02
    vertex 0.03235825647171843 0.0258125 0.02
    vertex 0.03037688056236467 0.02455875 0.015
  endloop
endfacet
facet normal -0.534711 0.845035 -4.98977e-16
  outer loop
    vertex 0.03235825647171842 0.0258125 0
    vertex 0.03060998361052394 0.02470625 0.005
    vertex 0.03433963238107218 0.02706625 0.004999999999999992
  endloop
endfacet
facet normal -0.534711 0.845035 7.10083e-16
  outer loop
    vertex 0.03235825647171843 0.0258125 0.02
    vertex 0.03410652933291292 0.02691875000000001 0.015
    vertex 0.03037688056236467 0.02455875 0.015
  endloop
endfacet
facet normal -0.534711 0.845035 0
  outer loop
    vertex 0.03037688056236467 0.02455875 0.015
    vertex 0.03410652933291292 0.02691875000000001 0.015
    vertex 0.03235825647171842 0.0258125 0.009999999999999998
  endloop
endfacet
facet normal -0.534711 0.845035 7.67657e-17
  outer loop
    vertex 0.03433963238107218 0.02706625 0.004999999999999992
    vertex 0.03060998361052394 0.02470625 0.005
    vertex 0.03235825647171842 0.0258125 0.009999999999999998
  endloop
endfacet
facet normal -0.534711 0.845035 -1.9652e-16
  outer loop
    vertex 0.0265306802677368 0.022125 0.01000000000000003
    vertex 0.03037688056236467 0.02455875 0.015
    vertex 0.03235825647171842 0.0258125 0.009999999999999998
  endloop
endfacet
facet normal -0.534711 0.845035 9.82601e-17
  outer loop
    vertex 0.03060998361052394 0.02470625 0.005
    vertex 0.0265306802677368 0.022125 0.01000000000000003
    vertex 0.03235825647171842 0.0258125 0.009999999999999998
  endloop
endfacet
facet normal -0.534711 0.845035 -9.82601e-17
  outer loop
    vertex 0.03410652933291292 0.02691875000000001 0.015
    vertex 0.03818583267570005 0.0295 0.009999999999999972
    vertex 0.03235825647171842 0.0258125 0.009999999999999998
  endloop
endfacet
facet normal -0.534711 0.845035 3.9304e-16
  outer loop
    vertex 0.03818583267570005 0.0295 0.009999999999999972
    vertex 0.03433963238107218 0.02706625 0.004999999999999992
    vertex 0.03235825647171842 0.0258125 0.009999999999999998
  endloop
endfacet
facet normal -0.987564 0.157219 0
  outer loop
    vertex 0.0265306802677368 0.022125 0.02
    vertex 0.0265306802677368 0.022125 0.009999999999999972
    vertex 0.02594363274842021 0.0184375 0.015
  endloop
endfacet
facet normal -0.987564 0.157219 0
  outer loop
    vertex 0.02535658522910362 0.01475 0
    vertex 0.02535658522910362 0.01475 0.01000000000000003
    vertex 0.02594363274842021 0.0184375 0.005000000000000001
  endloop
endfacet
facet normal -0.987564 0.157219 0
  outer loop
    vertex 0.0265306802677368 0.022125 0.009999999999999972
    vertex 0.0265306802677368 0.022125 0
    vertex 0.02594363274842021 0.0184375 0.005000000000000001
  endloop
endfacet
facet normal -0.987564 0.157219 0
  outer loop
    vertex 0.02535658522910362 0.01475 0.01000000000000003
    vertex 0.02535658522910362 0.01475 0.02
    vertex 0.02594363274842021 0.0184375 0.015
  endloop
endfacet
facet normal -0.987564 0.157219 0
  outer loop
    vertex 0.02535658522910362 0.01475 0.01000000000000003
    vertex 0.0265306802677368 0.022125 0.009999999999999972
    vertex 0.02594363274842021 0.0184375 0.005000000000000001
  endloop
endfacet
facet normal -0.987564 0.157219 0
  outer loop
    vertex 0.0265306802677368 0.022125 0.009999999999999972
    vertex 0.02535658522910362 0.01475 0.01000000000000003
    vertex 0.02594363274842021 0.0184375 0.015
  endloop
endfacet
facet normal -0.987564 0.157219 0
  outer loop
    vertex 0.0265306802677368 0.022125 0
    vertex 0.02535658522910362 0.01475 0
    vertex 0.02594363274842021 0.0184375 0.005000000000000001
  endloop
endfacet
facet normal -0.987564 0.157219 0
  outer loop
    vertex 0.02535658522910362 0.01475 0.02
    vertex 0.0265306802677368 0.022125 0.02
    vertex 0.02594363274842021 0.0184375 0.015
  endloop
endfacet
facet normal -0.99426 -0.106987 0
  outer loop
    vertex 0.02615016583584783 0.007375 0
    vertex 0.02615016583584783 0.007375 0.01000000000000003
    vertex 0.02575337553247573 0.0110625 0.005000000000000001
  endloop
endfacet
facet normal -0.99426 -0.106987 -0
  outer loop
    vertex 0.02535658522910362 0.01475 0.02
    vertex 0.02535658522910362 0.01475 0.009999999999999972
    vertex 0.02575337553247573 0.0110625 0.015
  endloop
endfacet
facet normal -0.99426 -0.106987 0
  outer loop
    vertex 0.02615016583584783 0.007375 0.01000000000000003
    vertex 0.02615016583584783 0.007375 0.02
    vertex 0.02575337553247573 0.0110625 0.015
  endloop
endfacet
facet normal -0.99426 -0.106987 -0
  outer loop
    vertex 0.02535658522910362 0.01475 0.009999999999999972
    vertex 0.02535658522910362 0.01475 0
    vertex 0.02575337553247573 0.0110625 0.005000000000000001
  endloop
endfacet
facet normal -0.99426 -0.106987 3.42578e-16
  outer loop
    vertex 0.02535658522910362 0.01475 0
    vertex 0.02615016583584783 0.007375 0
    vertex 0.02575337553247573 0.0110625 0.005000000000000001
  endloop
endfacet
facet normal -0.99426 -0.106987 3.42578e-16
  outer loop
    vertex 0.02535658522910362 0.01475 0.009999999999999972
    vertex 0.02615016583584783 0.007375 0.01000000000000003
    vertex 0.02575337553247573 0.0110625 0.015
  endloop
endfacet
facet normal -0.99426 -0.106987 -3.42578e-16
  outer loop
    vertex 0.02615016583584783 0.007375 0.02
    vertex 0.02535658522910362 0.01475 0.02
    vertex 0.02575337553247573 0.0110625 0.015
  endloop
endfacet
facet normal -0.99426 -0.106987 -3.42578e-16
  outer loop
    vertex 0.02615016583584783 0.007375 0.01000000000000003
    vertex 0.02535658522910362 0.01475 0.009999999999999972
    vertex 0.02575337553247573 0.0110625 0.005000000000000001
  endloop
endfacet
endsolid Created by Gmsh
