solid Created by Gmsh
facet normal 0.99863 -0.052318 2.26917e-16
  outer loop
    vertex 0.01026377344614799 0.04321025353534805 0
    vertex 0.01004077090435061 0.03895364544301064 0.0103521792438653
    vertex 0.009697830084610996 0.03240769015151104 0
  endloop
endfacet
facet normal 0.99863 -0.052318 9.0767e-17
  outer loop
    vertex 0.009131886723073997 0.02160512676767404 0
    vertex 0.008788945903334382 0.01505917147617441 0.0103521792438653
    vertex 0.008565943361536999 0.01080256338383703 0
  endloop
endfacet
facet normal 0.99863 -0.052318 -1.62428e-16
  outer loop
    vertex 0.009131886723073995 0.02160512676767401 0.02
    vertex 0.009414858403842494 0.02700640845959253 0.01011739308128843
    vertex 0.009697830084610995 0.03240769015151101 0.02
  endloop
endfacet
facet normal 0.99863 -0.052318 9.17598e-17
  outer loop
    vertex 0.009131886723073997 0.02160512676767404 0
    vertex 0.009414858403842494 0.02700640845959253 0.01011739308128843
    vertex 0.008788945903334382 0.01505917147617441 0.0103521792438653
  endloop
endfacet
facet normal 0.99863 -0.052318 2.56235e-16
  outer loop
    vertex 0.01004077090435061 0.03895364544301064 0.0103521792438653
    vertex 0.009414858403842494 0.02700640845959253 0.01011739308128843
    vertex 0.009697830084610996 0.03240769015151104 0
  endloop
endfacet
facet normal 0.99863 -0.052318 -2.33553e-16
  outer loop
    vertex 0.009697830084610995 0.03240769015151101 0.02
    vertex 0.009414858403842494 0.02700640845959253 0.01011739308128843
    vertex 0.01004077090435061 0.03895364544301064 0.0103521792438653
  endloop
endfacet
facet normal 0.99863 -0.052318 -7.24196e-17
  outer loop
    vertex 0.008788945903334382 0.01505917147617441 0.0103521792438653
    vertex 0.009414858403842494 0.02700640845959253 0.01011739308128843
    vertex 0.009131886723073995 0.02160512676767401 0.02
  endloop
endfacet
facet normal 0.99863 -0.052318 0
  outer loop
    vertex 0.01082971680768499 0.05401281691918505 0.009999999999999972
    vertex 0.01043759699195999 0.0465281471601408 0.007675234667165606
    vertex 0.01082971680768499 0.05401281691918505 0
  endloop
endfacet
facet normal 0.99863 -0.052318 0
  outer loop
    vertex 0.008 0 0
    vertex 0.008392119815725 0.007484669759044243 0.007675234667165601
    vertex 0.008 0 0.01000000000000003
  endloop
endfacet
facet normal 0.99863 -0.052318 1.81877e-16
  outer loop
    vertex 0.009697830084610996 0.03240769015151104 0
    vertex 0.009414858403842494 0.02700640845959253 0.01011739308128843
    vertex 0.009131886723073997 0.02160512676767404 0
  endloop
endfacet
facet normal 0.99863 -0.052318 1.73435e-16
  outer loop
    vertex 0.01082971680768499 0.05401281691918505 0
    vertex 0.01043759699195999 0.0465281471601408 0.007675234667165606
    vertex 0.01026377344614799 0.04321025353534805 0
  endloop
endfacet
facet normal 0.99863 -0.052318 2.26995e-16
  outer loop
    vertex 0.008565943361536999 0.01080256338383703 0
    vertex 0.008392119815725 0.007484669759044243 0.007675234667165601
    vertex 0.008 0 0
  endloop
endfacet
facet normal 0.99863 -0.052318 -2.15077e-16
  outer loop
    vertex 0.009697830084610995 0.03240769015151101 0.02
    vertex 0.01004077090435061 0.03895364544301064 0.0103521792438653
    vertex 0.01026377344614799 0.04321025353534802 0.02
  endloop
endfacet
facet normal 0.99863 -0.052318 -5.68129e-17
  outer loop
    vertex 0.008565943361536998 0.010802563383837 0.02
    vertex 0.008788945903334382 0.01505917147617441 0.0103521792438653
    vertex 0.009131886723073995 0.02160512676767401 0.02
  endloop
endfacet
facet normal 0.99863 -0.052318 -1.05462e-16
  outer loop
    vertex 0.008565943361536998 0.010802563383837 0.02
    vertex 0.008316864606967874 0.006048220075537184 0.01428851162357459
    vertex 0.008788945903334382 0.01505917147617441 0.0103521792438653
  endloop
endfacet
facet normal 0.99863 -0.052318 -2.29003e-16
  outer loop
    vertex 0.01004077090435061 0.03895364544301064 0.0103521792438653
    vertex 0.01051285220071711 0.04796459684364786 0.01428851162357457
    vertex 0.01026377344614799 0.04321025353534802 0.02
  endloop
endfacet
facet normal 0.99863 -0.052318 2.01946e-16
  outer loop
    vertex 0.01026377344614799 0.04321025353534805 0
    vertex 0.01043759699195999 0.0465281471601408 0.007675234667165606
    vertex 0.01004077090435061 0.03895364544301064 0.0103521792438653
  endloop
endfacet
facet normal 0.99863 -0.052318 1.67236e-16
  outer loop
    vertex 0.008788945903334382 0.01505917147617441 0.0103521792438653
    vertex 0.008392119815725 0.007484669759044243 0.007675234667165601
    vertex 0.008565943361536999 0.01080256338383703 0
  endloop
endfacet
facet normal 0.99863 -0.052318 -6.27298e-17
  outer loop
    vertex 0.008788945903334382 0.01505917147617441 0.0103521792438653
    vertex 0.008316864606967874 0.006048220075537184 0.01428851162357459
    vertex 0.008392119815725 0.007484669759044243 0.007675234667165601
  endloop
endfacet
facet normal 0.99863 -0.052318 9.0174e-17
  outer loop
    vertex 0.01043759699195999 0.0465281471601408 0.007675234667165606
    vertex 0.01051285220071711 0.04796459684364786 0.01428851162357457
    vertex 0.01004077090435061 0.03895364544301064 0.0103521792438653
  endloop
endfacet
facet normal 0.99863 -0.052318 -2.8105e-16
  outer loop
    vertex 0.01026377344614799 0.04321025353534802 0.02
    vertex 0.01051285220071711 0.04796459684364786 0.01428851162357457
    vertex 0.01082971680768499 0.05401281691918505 0.02
  endloop
endfacet
facet normal 0.99863 -0.052318 -1.98791e-16
  outer loop
    vertex 0.008 0 0.02
    vertex 0.008316864606967874 0.006048220075537184 0.01428851162357459
    vertex 0.008565943361536998 0.010802563383837 0.02
  endloop
endfacet
facet normal 0.99863 -0.052318 0
  outer loop
    vertex 0.01082971680768499 0.05401281691918505 0.02
    vertex 0.01051285220071711 0.04796459684364786 0.01428851162357457
    vertex 0.01082971680768499 0.05401281691918505 0.009999999999999972
  endloop
endfacet
facet normal 0.99863 -0.052318 0
  outer loop
    vertex 0.008 0 0.01000000000000003
    vertex 0.008316864606967874 0.006048220075537184 0.01428851162357459
    vertex 0.008 0 0.02
  endloop
endfacet
facet normal 0.99863 -0.052318 0
  outer loop
    vertex 0.008392119815725 0.007484669759044243 0.007675234667165601
    vertex 0.008316864606967874 0.006048220075537184 0.01428851162357459
    vertex 0.008 0 0.01000000000000003
  endloop
endfacet
facet normal 0.99863 -0.052318 1.09952e-16
  outer loop
    vertex 0.01082971680768499 0.05401281691918505 0.009999999999999972
    vertex 0.01051285220071711 0.04796459684364786 0.01428851162357457
    vertex 0.01043759699195999 0.0465281471601408 0.007675234667165606
  endloop
endfacet
endsolid Created by Gmsh
