solid Created by Gmsh
facet normal -0.967467 0.252997 0
  outer loop
    vertex 0.03 0.059 0.02
    vertex 0.03 0.059 0.009999999999999972
    vertex 0.02903570302106311 0.05531249999999999 0.01500000000000001
  endloop
endfacet
facet normal -0.967467 0.252997 0
  outer loop
    vertex 0.02807140604212621 0.051625 0
    vertex 0.02807140604212621 0.051625 0.01000000000000003
    vertex 0.02903570302106311 0.0553125 0.005
  endloop
endfacet
facet normal -0.967467 0.252997 0
  outer loop
    vertex 0.03 0.059 0.009999999999999972
    vertex 0.03 0.059 0
    vertex 0.02903570302106311 0.0553125 0.005
  endloop
endfacet
facet normal -0.967467 0.252997 0
  outer loop
    vertex 0.02807140604212621 0.051625 0.01000000000000003
    vertex 0.02807140604212621 0.051625 0.02
    vertex 0.02903570302106311 0.05531249999999999 0.01500000000000001
  endloop
endfacet
facet normal -0.967467 0.252997 -5.11131e-16
  outer loop
    vertex 0.03 0.059 0
    vertex 0.02807140604212621 0.051625 0
    vertex 0.02903570302106311 0.0553125 0.005
  endloop
endfacet
facet normal -0.967467 0.252997 1.55562e-16
  outer loop
    vertex 0.02807140604212621 0.051625 0.02
    vertex 0.03 0.059 0.02
    vertex 0.02903570302106311 0.05531249999999999 0.01500000000000001
  endloop
endfacet
facet normal -0.967467 0.252997 5.11131e-16
  outer loop
    vertex 0.02807140604212621 0.051625 0.01000000000000003
    vertex 0.03 0.059 0.009999999999999972
    vertex 0.02903570302106311 0.0553125 0.005
  endloop
endfacet
facet normal -0.967467 0.252997 -1.55562e-16
  outer loop
    vertex 0.03 0.059 0.009999999999999972
    vertex 0.02807140604212621 0.051625 0.01000000000000003
    vertex 0.02903570302106311 0.05531249999999999 0.01500000000000001
  endloop
endfacet
facet normal -0.318773 -0.947831 -1.95576e-16
  outer loop
    vertex 0.0390357030210631 0.0479375 0.02
    vertex 0.02807140604212621 0.051625 0.02
    vertex 0.0366409512372142 0.04874290022036133 0.008768004918462163
  endloop
endfacet
facet normal -0.318773 -0.947831 -0
  outer loop
    vertex 0.02807140604212621 0.051625 0.009999999999999972
    vertex 0.02807140604212621 0.051625 0
    vertex 0.0366409512372142 0.04874290022036133 0.008768004918462163
  endloop
endfacet
facet normal -0.318773 -0.947831 8.68526e-16
  outer loop
    vertex 0.02807140604212621 0.051625 0
    vertex 0.0390357030210631 0.04793749999999999 0
    vertex 0.0366409512372142 0.04874290022036133 0.008768004918462163
  endloop
endfacet
facet normal -0.318773 -0.947831 -4.66431e-16
  outer loop
    vertex 0.04999999999999999 0.04425 0.02
    vertex 0.0390357030210631 0.0479375 0.02
    vertex 0.04345421723901766 0.04645147027916995 0.013092585124636
  endloop
endfacet
facet normal -0.318773 -0.947831 6.8808e-16
  outer loop
    vertex 0.0390357030210631 0.04793749999999999 0
    vertex 0.04999999999999999 0.04425 0
    vertex 0.04373690460495307 0.04635639718292954 0.006385030116463564
  endloop
endfacet
facet normal -0.318773 -0.947831 0
  outer loop
    vertex 0.04999999999999999 0.04425 0.01000000000000003
    vertex 0.04999999999999999 0.04425 0.02
    vertex 0.04345421723901766 0.04645147027916995 0.013092585124636
  endloop
endfacet
facet normal -0.318773 -0.947831 -1.69862e-16
  outer loop
    vertex 0.0390357030210631 0.0479375 0.02
    vertex 0.0366409512372142 0.04874290022036133 0.008768004918462163
    vertex 0.04345421723901766 0.04645147027916995 0.013092585124636
  endloop
endfacet
facet normal -0.318773 -0.947831 0
  outer loop
    vertex 0.04999999999999999 0.04425 0
    vertex 0.04999999999999999 0.04425 0.01000000000000003
    vertex 0.04373690460495307 0.04635639718292954 0.006385030116463564
  endloop
endfacet
facet normal -0.318773 -0.947831 3.42197e-16
  outer loop
    vertex 0.0366409512372142 0.04874290022036133 0.008768004918462163
    vertex 0.04373690460495307 0.04635639718292954 0.006385030116463564
    vertex 0.04345421723901766 0.04645147027916995 0.013092585124636
  endloop
endfacet
facet normal -0.318773 -0.947831 9.30554e-16
  outer loop
    vertex 0.0390357030210631 0.04793749999999999 0
    vertex 0.04373690460495307 0.04635639718292954 0.006385030116463564
    vertex 0.0366409512372142 0.04874290022036133 0.008768004918462163
  endloop
endfacet
facet normal -0.318773 -0.947831 3.40489e-16
  outer loop
    vertex 0.04373690460495307 0.04635639718292954 0.006385030116463564
    vertex 0.04999999999999999 0.04425 0.01000000000000003
    vertex 0.04345421723901766 0.04645147027916995 0.013092585124636
  endloop
endfacet
facet normal -0.318773 -0.947831 -0
  outer loop
    vertex 0.02807140604212621 0.051625 0.02
    vertex 0.02807140604212621 0.051625 0.009999999999999972
    vertex 0.0366409512372142 0.04874290022036133 0.008768004918462163
  endloop
endfacet
facet normal -1 -1.04457e-29 -1.38778e-15
  outer loop
    vertex 0.04999999999999999 0.036875 0.01000000000000003
    vertex 0.04999999999999999 0.04425 0.009999999999999972
    vertex 0.05 0.0405625 0.005000000000000001
  endloop
endfacet
facet normal -1 1.04457e-29 1.38778e-15
  outer loop
    vertex 0.04999999999999999 0.04425 0.009999999999999972
    vertex 0.04999999999999999 0.036875 0.01000000000000003
    vertex 0.05 0.04056249999999999 0.01500000000000001
  endloop
endfacet
facet normal -1 0 -1.38778e-15
  outer loop
    vertex 0.04999999999999999 0.036875 0.02
    vertex 0.04999999999999999 0.04425 0.02
    vertex 0.05 0.04056249999999999 0.01500000000000001
  endloop
endfacet
facet normal -1 0 1.38778e-15
  outer loop
    vertex 0.04999999999999999 0.04425 0
    vertex 0.04999999999999999 0.036875 0
    vertex 0.05 0.0405625 0.005000000000000001
  endloop
endfacet
facet normal -1 -1.88173e-15 -0
  outer loop
    vertex 0.04999999999999999 0.04425 0.009999999999999972
    vertex 0.04999999999999999 0.04425 0
    vertex 0.05 0.0405625 0.005000000000000001
  endloop
endfacet
facet normal -1 -1.88173e-15 -0
  outer loop
    vertex 0.04999999999999999 0.04425 0.02
    vertex 0.04999999999999999 0.04425 0.009999999999999972
    vertex 0.05 0.04056249999999999 0.01500000000000001
  endloop
endfacet
facet normal -1 1.88173e-15 0
  outer loop
    vertex 0.04999999999999999 0.036875 0
    vertex 0.04999999999999999 0.036875 0.01000000000000003
    vertex 0.05 0.0405625 0.005000000000000001
  endloop
endfacet
facet normal -1 1.88173e-15 0
  outer loop
    vertex 0.04999999999999999 0.036875 0.01000000000000003
    vertex 0.04999999999999999 0.036875 0.02
    vertex 0.05 0.04056249999999999 0.01500000000000001
  endloop
endfacet
facet normal -1 1.04457e-29 1.38778e-15
  outer loop
    vertex 0.04999999999999999 0.036875 0.009999999999999972
    vertex 0.04999999999999999 0.0295 0.01000000000000003
    vertex 0.05 0.03318749999999999 0.01500000000000001
  endloop
endfacet
facet normal -1 -1.04457e-29 -1.38778e-15
  outer loop
    vertex 0.04999999999999999 0.0295 0.01000000000000003
    vertex 0.04999999999999999 0.036875 0.009999999999999972
    vertex 0.05 0.0331875 0.004999999999999997
  endloop
endfacet
facet normal -1 0 -1.38778e-15
  outer loop
    vertex 0.04999999999999999 0.0295 0.02
    vertex 0.04999999999999999 0.036875 0.02
    vertex 0.05 0.03318749999999999 0.01500000000000001
  endloop
endfacet
facet normal -1 0 1.38778e-15
  outer loop
    vertex 0.04999999999999999 0.036875 0
    vertex 0.04999999999999999 0.0295 0
    vertex 0.05 0.0331875 0.004999999999999997
  endloop
endfacet
facet normal -1 -1.88173e-15 -0
  outer loop
    vertex 0.04999999999999999 0.036875 0.009999999999999972
    vertex 0.04999999999999999 0.036875 0
    vertex 0.05 0.0331875 0.004999999999999997
  endloop
endfacet
facet normal -1 -1.88173e-15 -0
  outer loop
    vertex 0.04999999999999999 0.036875 0.02
    vertex 0.04999999999999999 0.036875 0.009999999999999972
    vertex 0.05 0.03318749999999999 0.01500000000000001
  endloop
endfacet
facet normal -1 1.88173e-15 0
  outer loop
    vertex 0.04999999999999999 0.0295 0
    vertex 0.04999999999999999 0.0295 0.01000000000000003
    vertex 0.05 0.0331875 0.004999999999999997
  endloop
endfacet
facet normal -1 1.88173e-15 0
  outer loop
    vertex 0.04999999999999999 0.0295 0.01000000000000003
    vertex 0.04999999999999999 0.0295 0.02
    vertex 0.05 0.03318749999999999 0.01500000000000001
  endloop
endfacet
facet normal -1 1.04457e-29 1.38778e-15
  outer loop
    vertex 0.04999999999999999 0.0295 0.009999999999999972
    vertex 0.04999999999999999 0.022125 0.01000000000000003
    vertex 0.05 0.0258125 0.015
  endloop
endfacet
facet normal -1 -1.04457e-29 -1.38778e-15
  outer loop
    vertex 0.04999999999999999 0.022125 0.01000000000000003
    vertex 0.04999999999999999 0.0295 0.009999999999999972
    vertex 0.05 0.0258125 0.005000000000000001
  endloop
endfacet
facet normal -1 0 -1.38778e-15
  outer loop
    vertex 0.04999999999999999 0.022125 0.02
    vertex 0.04999999999999999 0.0295 0.02
    vertex 0.05 0.0258125 0.015
  endloop
endfacet
facet normal -1 0 1.38778e-15
  outer loop
    vertex 0.04999999999999999 0.0295 0
    vertex 0.04999999999999999 0.022125 0
    vertex 0.05 0.0258125 0.005000000000000001
  endloop
endfacet
facet normal -1 -1.88173e-15 -0
  outer loop
    vertex 0.04999999999999999 0.0295 0.009999999999999972
    vertex 0.04999999999999999 0.0295 0
    vertex 0.05 0.0258125 0.005000000000000001
  endloop
endfacet
facet normal -1 -1.88173e-15 -0
  outer loop
    vertex 0.04999999999999999 0.0295 0.02
    vertex 0.04999999999999999 0.0295 0.009999999999999972
    vertex 0.05 0.0258125 0.015
  endloop
endfacet
facet normal -1 1.88173e-15 0
  outer loop
    vertex 0.04999999999999999 0.022125 0
    vertex 0.04999999999999999 0.022125 0.01000000000000003
    vertex 0.05 0.0258125 0.005000000000000001
  endloop
endfacet
facet normal -1 1.88173e-15 0
  outer loop
    vertex 0.04999999999999999 0.022125 0.01000000000000003
    vertex 0.04999999999999999 0.022125 0.02
    vertex 0.05 0.0258125 0.015
  endloop
endfacet
facet normal -0.263495 0.964661 1.34921e-16
  outer loop
    vertex 0.03200000000000001 0.01720833333333334 0.02
    vertex 0.04099999999999999 0.01966666666666667 0.02
    vertex 0.03649999999999999 0.0184375 0.01192513096536761
  endloop
endfacet
facet normal -0.263495 0.964661 0
  outer loop
    vertex 0.04999999999999999 0.022125 0.02
    vertex 0.04999999999999999 0.022125 0.009999999999999972
    vertex 0.04353291778090563 0.02035852846793256 0.01309753855673738
  endloop
endfacet
facet normal -0.263495 0.964661 0
  outer loop
    vertex 0.023 0.01475 0.01000000000000003
    vertex 0.023 0.01475 0.02
    vertex 0.02946708221909438 0.01651647153206745 0.01309753855673738
  endloop
endfacet
facet normal -0.263495 0.964661 -3.94593e-17
  outer loop
    vertex 0.04099999999999999 0.01966666666666667 0.02
    vertex 0.04999999999999999 0.022125 0.02
    vertex 0.04353291778090563 0.02035852846793256 0.01309753855673738
  endloop
endfacet
facet normal -0.263495 0.964661 3.68287e-16
  outer loop
    vertex 0.023 0.01475 0.02
    vertex 0.03200000000000001 0.01720833333333334 0.02
    vertex 0.02946708221909438 0.01651647153206745 0.01309753855673738
  endloop
endfacet
facet normal -0.263495 0.964661 2.57756e-16
  outer loop
    vertex 0.03649999999999999 0.0184375 0.01192513096536761
    vertex 0.03649999999999998 0.0184375 0.004831724135700776
    vertex 0.02902514002361522 0.01639575583978379 0.006253576928204824
  endloop
endfacet
facet normal -0.263495 0.964661 2.57756e-16
  outer loop
    vertex 0.03649999999999998 0.0184375 0.004831724135700776
    vertex 0.03649999999999999 0.0184375 0.01192513096536761
    vertex 0.04397485997638475 0.02047924416021621 0.00625357692820482
  endloop
endfacet
facet normal -0.263495 0.964661 0
  outer loop
    vertex 0.023 0.01475 0
    vertex 0.023 0.01475 0.01000000000000003
    vertex 0.02902514002361522 0.01639575583978379 0.006253576928204824
  endloop
endfacet
facet normal -0.263495 0.964661 0
  outer loop
    vertex 0.04999999999999999 0.022125 0.009999999999999972
    vertex 0.04999999999999999 0.022125 0
    vertex 0.04397485997638475 0.02047924416021621 0.00625357692820482
  endloop
endfacet
facet normal -0.263495 0.964661 1.3646e-16
  outer loop
    vertex 0.02946708221909438 0.01651647153206745 0.01309753855673738
    vertex 0.03649999999999999 0.0184375 0.01192513096536761
    vertex 0.02902514002361522 0.01639575583978379 0.006253576928204824
  endloop
endfacet
facet normal -0.263495 0.964661 -1.34361e-16
  outer loop
    vertex 0.03649999999999999 0.0184375 0.01192513096536761
    vertex 0.04353291778090563 0.02035852846793256 0.01309753855673738
    vertex 0.04397485997638475 0.02047924416021621 0.00625357692820482
  endloop
endfacet
facet normal -0.263495 0.964661 2.90358e-17
  outer loop
    vertex 0.04999999999999999 0.022125 0
    vertex 0.04099999999999998 0.01966666666666666 0
    vertex 0.04397485997638475 0.02047924416021621 0.00625357692820482
  endloop
endfacet
facet normal -0.263495 0.964661 -5.22644e-16
  outer loop
    vertex 0.032 0.01720833333333333 0
    vertex 0.023 0.01475 0
    vertex 0.02902514002361522 0.01639575583978379 0.006253576928204824
  endloop
endfacet
facet normal -0.263495 0.964661 3.88611e-16
  outer loop
    vertex 0.03200000000000001 0.01720833333333334 0.02
    vertex 0.03649999999999999 0.0184375 0.01192513096536761
    vertex 0.02946708221909438 0.01651647153206745 0.01309753855673738
  endloop
endfacet
facet normal -0.263495 0.964661 -6.34467e-17
  outer loop
    vertex 0.03649999999999999 0.0184375 0.01192513096536761
    vertex 0.04099999999999999 0.01966666666666667 0.02
    vertex 0.04353291778090563 0.02035852846793256 0.01309753855673738
  endloop
endfacet
facet normal -0.263495 0.964661 -7.14026e-16
  outer loop
    vertex 0.04099999999999998 0.01966666666666666 0
    vertex 0.032 0.01720833333333333 0
    vertex 0.03649999999999998 0.0184375 0.004831724135700776
  endloop
endfacet
facet normal -0.263495 0.964661 -6.9189e-16
  outer loop
    vertex 0.03649999999999998 0.0184375 0.004831724135700776
    vertex 0.032 0.01720833333333333 0
    vertex 0.02902514002361522 0.01639575583978379 0.006253576928204824
  endloop
endfacet
facet normal -0.263495 0.964661 -2.01801e-16
  outer loop
    vertex 0.04099999999999998 0.01966666666666666 0
    vertex 0.03649999999999998 0.0184375 0.004831724135700776
    vertex 0.04397485997638475 0.02047924416021621 0.00625357692820482
  endloop
endfacet
facet normal -0.263495 0.964661 1.52403e-16
  outer loop
    vertex 0.023 0.01475 0.01000000000000003
    vertex 0.02946708221909438 0.01651647153206745 0.01309753855673738
    vertex 0.02902514002361522 0.01639575583978379 0.006253576928204824
  endloop
endfacet
facet normal -0.263495 0.964661 -1.40496e-16
  outer loop
    vertex 0.04353291778090563 0.02035852846793256 0.01309753855673738
    vertex 0.04999999999999999 0.022125 0.009999999999999972
    vertex 0.04397485997638475 0.02047924416021621 0.00625357692820482
  endloop
endfacet
facet normal -0.263495 -0.964661 -5.39682e-16
  outer loop
    vertex 0.04099999999999998 0.009833333333333336 0.02
    vertex 0.032 0.01229166666666666 0.02
    vertex 0.0365 0.0110625 0.01192513096536761
  endloop
endfacet
facet normal -0.263495 -0.964661 -0
  outer loop
    vertex 0.023 0.01475 0.02
    vertex 0.023 0.01475 0.009999999999999972
    vertex 0.02946708221909436 0.01298352846793256 0.01309753855673738
  endloop
endfacet
facet normal -0.263495 -0.964661 0
  outer loop
    vertex 0.04999999999999999 0.007375 0.01000000000000003
    vertex 0.04999999999999999 0.007375 0.02
    vertex 0.04353291778090561 0.009141471532067449 0.01309753855673738
  endloop
endfacet
facet normal -0.263495 -0.964661 -2.63062e-16
  outer loop
    vertex 0.04999999999999999 0.007375 0.02
    vertex 0.04099999999999998 0.009833333333333336 0.02
    vertex 0.04353291778090561 0.009141471532067449 0.01309753855673738
  endloop
endfacet
facet normal -0.263495 -0.964661 -5.12971e-16
  outer loop
    vertex 0.032 0.01229166666666666 0.02
    vertex 0.023 0.01475 0.02
    vertex 0.02946708221909436 0.01298352846793256 0.01309753855673738
  endloop
endfacet
facet normal -0.263495 -0.964661 2.14068e-16
  outer loop
    vertex 0.0365 0.0110625 0.01192513096536761
    vertex 0.0365 0.0110625 0.004831724135700776
    vertex 0.04397485997638477 0.009020755839783789 0.006253576928204824
  endloop
endfacet
facet normal -0.263495 -0.964661 2.14068e-16
  outer loop
    vertex 0.0365 0.0110625 0.004831724135700776
    vertex 0.0365 0.0110625 0.01192513096536761
    vertex 0.02902514002361524 0.01310424416021621 0.006253576928204819
  endloop
endfacet
facet normal -0.263495 -0.964661 0
  outer loop
    vertex 0.04999999999999999 0.007375 0
    vertex 0.04999999999999999 0.007375 0.01000000000000003
    vertex 0.04397485997638477 0.009020755839783789 0.006253576928204824
  endloop
endfacet
facet normal -0.263495 -0.964661 -0
  outer loop
    vertex 0.023 0.01475 0.009999999999999972
    vertex 0.023 0.01475 0
    vertex 0.02902514002361524 0.01310424416021621 0.006253576928204819
  endloop
endfacet
facet normal -0.263495 -0.964661 -5.03852e-17
  outer loop
    vertex 0.04353291778090561 0.009141471532067449 0.01309753855673738
    vertex 0.0365 0.0110625 0.01192513096536761
    vertex 0.04397485997638477 0.009020755839783789 0.006253576928204824
  endloop
endfacet
facet normal -0.263495 -0.964661 3.35901e-17
  outer loop
    vertex 0.0365 0.0110625 0.01192513096536761
    vertex 0.02946708221909436 0.01298352846793256 0.01309753855673738
    vertex 0.02902514002361524 0.01310424416021621 0.006253576928204819
  endloop
endfacet
facet normal -0.263495 -0.964661 3.19394e-16
  outer loop
    vertex 0.023 0.01475 0
    vertex 0.03200000000000001 0.01229166666666666 0
    vertex 0.02902514002361524 0.01310424416021621 0.006253576928204819
  endloop
endfacet
facet normal -0.263495 -0.964661 3.4843e-16
  outer loop
    vertex 0.04099999999999999 0.009833333333333335 0
    vertex 0.04999999999999999 0.007375 0
    vertex 0.04397485997638477 0.009020755839783789 0.006253576928204824
  endloop
endfacet
facet normal -0.263495 -0.964661 -5.39297e-16
  outer loop
    vertex 0.0365 0.0110625 0.01192513096536761
    vertex 0.032 0.01229166666666666 0.02
    vertex 0.02946708221909436 0.01298352846793256 0.01309753855673738
  endloop
endfacet
facet normal -0.263495 -0.964661 -3.64819e-16
  outer loop
    vertex 0.04099999999999998 0.009833333333333336 0.02
    vertex 0.0365 0.0110625 0.01192513096536761
    vertex 0.04353291778090561 0.009141471532067449 0.01309753855673738
  endloop
endfacet
facet normal -0.263495 -0.964661 3.75803e-16
  outer loop
    vertex 0.03200000000000001 0.01229166666666666 0
    vertex 0.04099999999999999 0.009833333333333335 0
    vertex 0.0365 0.0110625 0.004831724135700776
  endloop
endfacet
facet normal -0.263495 -0.964661 3.84384e-16
  outer loop
    vertex 0.0365 0.0110625 0.004831724135700776
    vertex 0.04099999999999999 0.009833333333333335 0
    vertex 0.04397485997638477 0.009020755839783789 0.006253576928204824
  endloop
endfacet
facet normal -0.263495 -0.964661 2.4024e-16
  outer loop
    vertex 0.03200000000000001 0.01229166666666666 0
    vertex 0.0365 0.0110625 0.004831724135700776
    vertex 0.02902514002361524 0.01310424416021621 0.006253576928204819
  endloop
endfacet
facet normal -0.263495 -0.964661 -2.3813e-18
  outer loop
    vertex 0.02946708221909436 0.01298352846793256 0.01309753855673738
    vertex 0.023 0.01475 0.009999999999999972
    vertex 0.02902514002361524 0.01310424416021621 0.006253576928204819
  endloop
endfacet
facet normal -0.263495 -0.964661 -3.81007e-17
  outer loop
    vertex 0.04999999999999999 0.007375 0.01000000000000003
    vertex 0.04353291778090561 0.009141471532067449 0.01309753855673738
    vertex 0.04397485997638477 0.009020755839783789 0.006253576928204824
  endloop
endfacet
endsolid Created by Gmsh
