solid Created by Gmsh
facet normal -0.565388 -0.824825 -2.74711e-16
  outer loop
    vertex 0.04466558449982701 0.04881224601543765 0.01000000000000003
    vertex 0.03957912111662602 0.05229883501654033 0.02
    vertex 0.03449265773342504 0.05578542401764303 0.009999999999999972
  endloop
endfacet
facet normal -0.565388 -0.824825 -2.74711e-16
  outer loop
    vertex 0.03957912111662602 0.05229883501654034 0
    vertex 0.04466558449982701 0.04881224601543765 0.01000000000000003
    vertex 0.03449265773342504 0.05578542401764303 0.009999999999999972
  endloop
endfacet
facet normal -0.565388 -0.824825 0
  outer loop
    vertex 0.03957912111662602 0.05229883501654034 0
    vertex 0.03449265773342504 0.05578542401764303 0.009999999999999972
    vertex 0.03449265773342504 0.05578542401764303 0
  endloop
endfacet
facet normal -0.565388 -0.824825 0
  outer loop
    vertex 0.03449265773342504 0.05578542401764303 0.009999999999999972
    vertex 0.03957912111662602 0.05229883501654033 0.02
    vertex 0.03449265773342504 0.05578542401764303 0.02
  endloop
endfacet
facet normal -0.565388 -0.824825 -0
  outer loop
    vertex 0.04466558449982701 0.04881224601543765 0.01000000000000003
    vertex 0.03957912111662602 0.05229883501654034 0
    vertex 0.04466558449982701 0.04881224601543765 0
  endloop
endfacet
facet normal -0.565388 -0.824825 0
  outer loop
    vertex 0.03957912111662602 0.05229883501654033 0.02
    vertex 0.04466558449982701 0.04881224601543765 0.01000000000000003
    vertex 0.04466558449982701 0.04881224601543765 0.02
  endloop
endfacet
facet normal -0.842273 0.539051 0
  outer loop
    vertex 0.04020277736393814 0.04183906801323227 0
    vertex 0.04020277736393814 0.04183906801323227 0.01000000000000003
    vertex 0.04243418093188257 0.04532565701433496 0.005000000000000001
  endloop
endfacet
facet normal -0.842273 0.539051 0
  outer loop
    vertex 0.04466558449982701 0.04881224601543765 0.02
    vertex 0.04466558449982701 0.04881224601543765 0.009999999999999972
    vertex 0.04243418093188257 0.04532565701433496 0.015
  endloop
endfacet
facet normal -0.842273 0.539051 0
  outer loop
    vertex 0.04020277736393814 0.04183906801323227 0.01000000000000003
    vertex 0.04020277736393814 0.04183906801323227 0.02
    vertex 0.04243418093188257 0.04532565701433496 0.015
  endloop
endfacet
facet normal -0.842273 0.539051 0
  outer loop
    vertex 0.04466558449982701 0.04881224601543765 0.009999999999999972
    vertex 0.04466558449982701 0.04881224601543765 0
    vertex 0.04243418093188257 0.04532565701433496 0.005000000000000001
  endloop
endfacet
facet normal -0.842273 0.539051 -4.09244e-16
  outer loop
    vertex 0.04466558449982701 0.04881224601543765 0
    vertex 0.04020277736393814 0.04183906801323227 0
    vertex 0.04243418093188257 0.04532565701433496 0.005000000000000001
  endloop
endfacet
facet normal -0.842273 0.539051 -4.09244e-16
  outer loop
    vertex 0.04466558449982701 0.04881224601543765 0.009999999999999972
    vertex 0.04020277736393814 0.04183906801323227 0.01000000000000003
    vertex 0.04243418093188257 0.04532565701433496 0.015
  endloop
endfacet
facet normal -0.842273 0.539051 3.27395e-16
  outer loop
    vertex 0.04020277736393814 0.04183906801323227 0.02
    vertex 0.04466558449982701 0.04881224601543765 0.02
    vertex 0.04243418093188257 0.04532565701433496 0.015
  endloop
endfacet
facet normal -0.842273 0.539051 3.27395e-16
  outer loop
    vertex 0.04020277736393814 0.04183906801323227 0.01000000000000003
    vertex 0.04466558449982701 0.04881224601543765 0.009999999999999972
    vertex 0.04243418093188257 0.04532565701433496 0.005000000000000001
  endloop
endfacet
facet normal -0.991077 -0.133287 1.46871e-15
  outer loop
    vertex 0.04020277736393814 0.04183906801323227 0.009999999999999972
    vertex 0.04114058236611662 0.03486589001102689 0.01000000000000003
    vertex 0.04067167986502739 0.03835247901212958 0.015
  endloop
endfacet
facet normal -0.991077 -0.133287 -1.27609e-15
  outer loop
    vertex 0.04114058236611662 0.03486589001102689 0.01000000000000003
    vertex 0.04020277736393814 0.04183906801323227 0.009999999999999972
    vertex 0.04067167986502739 0.03835247901212958 0.005
  endloop
endfacet
facet normal -0.991077 -0.133287 -1.45667e-15
  outer loop
    vertex 0.04114058236611662 0.03486589001102689 0.02
    vertex 0.04020277736393814 0.04183906801323227 0.02
    vertex 0.04067167986502739 0.03835247901212958 0.015
  endloop
endfacet
facet normal -0.991077 -0.133287 1.28813e-15
  outer loop
    vertex 0.04020277736393814 0.04183906801323227 0
    vertex 0.04114058236611662 0.03486589001102689 0
    vertex 0.04067167986502739 0.03835247901212958 0.005
  endloop
endfacet
facet normal -0.991077 -0.133287 -0
  outer loop
    vertex 0.04020277736393814 0.04183906801323227 0.009999999999999972
    vertex 0.04020277736393814 0.04183906801323227 0
    vertex 0.04067167986502739 0.03835247901212958 0.005
  endloop
endfacet
facet normal -0.991077 -0.133287 -0
  outer loop
    vertex 0.04020277736393814 0.04183906801323227 0.02
    vertex 0.04020277736393814 0.04183906801323227 0.009999999999999972
    vertex 0.04067167986502739 0.03835247901212958 0.015
  endloop
endfacet
facet normal -0.991077 -0.133287 0
  outer loop
    vertex 0.04114058236611662 0.03486589001102689 0
    vertex 0.04114058236611662 0.03486589001102689 0.01000000000000003
    vertex 0.04067167986502739 0.03835247901212958 0.005
  endloop
endfacet
facet normal -0.991077 -0.133287 0
  outer loop
    vertex 0.04114058236611662 0.03486589001102689 0.01000000000000003
    vertex 0.04114058236611662 0.03486589001102689 0.02
    vertex 0.04067167986502739 0.03835247901212958 0.015
  endloop
endfacet
facet normal -0.9457 0.32504 -8.73045e-16
  outer loop
    vertex 0.03874388168726308 0.02789271200882151 0.02
    vertex 0.04114058236611662 0.03486589001102689 0.02
    vertex 0.03994223202668985 0.0313793010099242 0.015
  endloop
endfacet
facet normal -0.9457 0.32504 9.18995e-16
  outer loop
    vertex 0.04114058236611662 0.03486589001102689 0
    vertex 0.03874388168726308 0.02789271200882151 0
    vertex 0.03994223202668985 0.0313793010099242 0.005
  endloop
endfacet
facet normal -0.9457 0.32504 -8.73045e-16
  outer loop
    vertex 0.03874388168726308 0.02789271200882151 0.01000000000000003
    vertex 0.04114058236611662 0.03486589001102689 0.009999999999999972
    vertex 0.03994223202668985 0.0313793010099242 0.005
  endloop
endfacet
facet normal -0.9457 0.32504 9.18995e-16
  outer loop
    vertex 0.04114058236611662 0.03486589001102689 0.009999999999999972
    vertex 0.03874388168726308 0.02789271200882151 0.01000000000000003
    vertex 0.03994223202668985 0.0313793010099242 0.015
  endloop
endfacet
facet normal -0.9457 0.32504 0
  outer loop
    vertex 0.04114058236611662 0.03486589001102689 0.009999999999999972
    vertex 0.04114058236611662 0.03486589001102689 0
    vertex 0.03994223202668985 0.0313793010099242 0.005
  endloop
endfacet
facet normal -0.9457 0.32504 0
  outer loop
    vertex 0.04114058236611662 0.03486589001102689 0.02
    vertex 0.04114058236611662 0.03486589001102689 0.009999999999999972
    vertex 0.03994223202668985 0.0313793010099242 0.015
  endloop
endfacet
facet normal -0.9457 0.32504 0
  outer loop
    vertex 0.03874388168726308 0.02789271200882151 0
    vertex 0.03874388168726308 0.02789271200882151 0.01000000000000003
    vertex 0.03994223202668985 0.0313793010099242 0.005
  endloop
endfacet
facet normal -0.9457 0.32504 0
  outer loop
    vertex 0.03874388168726308 0.02789271200882151 0.01000000000000003
    vertex 0.03874388168726308 0.02789271200882151 0.02
    vertex 0.03994223202668985 0.0313793010099242 0.015
  endloop
endfacet
facet normal -0.879871 -0.475213 -0
  outer loop
    vertex 0.03874388168726308 0.02789271200882151 0.02
    vertex 0.03874388168726308 0.02789271200882151 0.009999999999999972
    vertex 0.04062696904170723 0.02440612300771882 0.015
  endloop
endfacet
facet normal -0.879871 -0.475213 0
  outer loop
    vertex 0.04251005639615137 0.02091953400661613 0
    vertex 0.04251005639615137 0.02091953400661613 0.01000000000000003
    vertex 0.04062696904170723 0.02440612300771882 0.005
  endloop
endfacet
facet normal -0.879871 -0.475213 -0
  outer loop
    vertex 0.03874388168726308 0.02789271200882151 0.009999999999999972
    vertex 0.03874388168726308 0.02789271200882151 0
    vertex 0.04062696904170723 0.02440612300771882 0.005
  endloop
endfacet
facet normal -0.879871 -0.475213 0
  outer loop
    vertex 0.04251005639615137 0.02091953400661613 0.01000000000000003
    vertex 0.04251005639615137 0.02091953400661613 0.02
    vertex 0.04062696904170723 0.02440612300771882 0.015
  endloop
endfacet
facet normal -0.879871 -0.475213 0
  outer loop
    vertex 0.04251005639615137 0.02091953400661613 0.02
    vertex 0.03874388168726308 0.02789271200882151 0.02
    vertex 0.04062696904170723 0.02440612300771882 0.015
  endloop
endfacet
facet normal -0.879871 -0.475213 0
  outer loop
    vertex 0.04251005639615137 0.02091953400661613 0.01000000000000003
    vertex 0.03874388168726308 0.02789271200882151 0.009999999999999972
    vertex 0.04062696904170723 0.02440612300771882 0.005
  endloop
endfacet
facet normal -0.879871 -0.475213 0
  outer loop
    vertex 0.03874388168726308 0.02789271200882151 0.009999999999999972
    vertex 0.04251005639615137 0.02091953400661613 0.01000000000000003
    vertex 0.04062696904170723 0.02440612300771882 0.015
  endloop
endfacet
facet normal -0.879871 -0.475213 0
  outer loop
    vertex 0.03874388168726308 0.02789271200882151 0
    vertex 0.04251005639615137 0.02091953400661613 0
    vertex 0.04062696904170723 0.02440612300771882 0.005
  endloop
endfacet
facet normal -0.995901 0.090445 6.89542e-16
  outer loop
    vertex 0.04187677158647347 0.01394635600441076 0.02
    vertex 0.04251005639615137 0.02091953400661613 0.02
    vertex 0.04219341399131242 0.01743294500551345 0.015
  endloop
endfacet
facet normal -0.995901 0.090445 6.89542e-16
  outer loop
    vertex 0.04187677158647347 0.01394635600441076 0.01000000000000003
    vertex 0.04251005639615137 0.02091953400661613 0.009999999999999972
    vertex 0.04219341399131242 0.01743294500551345 0.005000000000000001
  endloop
endfacet
facet normal -0.995901 0.090445 -6.89542e-16
  outer loop
    vertex 0.04251005639615137 0.02091953400661613 0
    vertex 0.04187677158647347 0.01394635600441076 0
    vertex 0.04219341399131242 0.01743294500551345 0.005000000000000001
  endloop
endfacet
facet normal -0.995901 0.090445 -6.89542e-16
  outer loop
    vertex 0.04251005639615137 0.02091953400661613 0.009999999999999972
    vertex 0.04187677158647347 0.01394635600441076 0.01000000000000003
    vertex 0.04219341399131242 0.01743294500551345 0.015
  endloop
endfacet
facet normal -0.995901 0.090445 0
  outer loop
    vertex 0.04251005639615137 0.02091953400661613 0.009999999999999972
    vertex 0.04251005639615137 0.02091953400661613 0
    vertex 0.04219341399131242 0.01743294500551345 0.005000000000000001
  endloop
endfacet
facet normal -0.995901 0.090445 0
  outer loop
    vertex 0.04251005639615137 0.02091953400661613 0.02
    vertex 0.04251005639615137 0.02091953400661613 0.009999999999999972
    vertex 0.04219341399131242 0.01743294500551345 0.015
  endloop
endfacet
facet normal -0.995901 0.090445 0
  outer loop
    vertex 0.04187677158647347 0.01394635600441076 0
    vertex 0.04187677158647347 0.01394635600441076 0.01000000000000003
    vertex 0.04219341399131242 0.01743294500551345 0.005000000000000001
  endloop
endfacet
facet normal -0.995901 0.090445 0
  outer loop
    vertex 0.04187677158647347 0.01394635600441076 0.01000000000000003
    vertex 0.04187677158647347 0.01394635600441076 0.02
    vertex 0.04219341399131242 0.01743294500551345 0.015
  endloop
endfacet
facet normal -0.564926 0.825142 5.48973e-17
  outer loop
    vertex 0.03169160356315071 0.006973178002205378 0.01000000000000003
    vertex 0.0367841875748121 0.01045976700330807 0.02
    vertex 0.04187677158647347 0.01394635600441076 0.009999999999999972
  endloop
endfacet
facet normal -0.564926 0.825142 5.48973e-17
  outer loop
    vertex 0.03678418757481209 0.01045976700330807 0
    vertex 0.03169160356315071 0.006973178002205378 0.01000000000000003
    vertex 0.04187677158647347 0.01394635600441076 0.009999999999999972
  endloop
endfacet
facet normal -0.564926 0.825142 0
  outer loop
    vertex 0.03678418757481209 0.01045976700330807 0
    vertex 0.04187677158647347 0.01394635600441076 0.009999999999999972
    vertex 0.04187677158647347 0.01394635600441076 0
  endloop
endfacet
facet normal -0.564926 0.825142 0
  outer loop
    vertex 0.04187677158647347 0.01394635600441076 0.009999999999999972
    vertex 0.0367841875748121 0.01045976700330807 0.02
    vertex 0.04187677158647347 0.01394635600441076 0.02
  endloop
endfacet
facet normal -0.564926 0.825142 0
  outer loop
    vertex 0.03169160356315071 0.006973178002205378 0.01000000000000003
    vertex 0.03678418757481209 0.01045976700330807 0
    vertex 0.03169160356315071 0.006973178002205378 0
  endloop
endfacet
facet normal -0.564926 0.825142 0
  outer loop
    vertex 0.0367841875748121 0.01045976700330807 0.02
    vertex 0.03169160356315071 0.006973178002205378 0.01000000000000003
    vertex 0.03169160356315071 0.006973178002205378 0.02
  endloop
endfacet
endsolid Created by Gmsh
