solid Created by Gmsh
facet normal 1 0 0
  outer loop
    vertex 0.04 0.05600771031668743 0
    vertex 0.04 0.06 0
    vertex 0.04 0.06 0.009999999999999972
  endloop
endfacet
facet normal 1 0 0
  outer loop
    vertex 0.04 0.05600771031668743 0.01000000000000003
    vertex 0.04 0.06 0.02
    vertex 0.04 0.05600771031668743 0.02
  endloop
endfacet
facet normal 1 0 -0
  outer loop
    vertex 0.04 0.06 0.009999999999999972
    vertex 0.04 0.06 0.02
    vertex 0.04 0.05600771031668743 0.01000000000000003
  endloop
endfacet
facet normal 1 0 0
  outer loop
    vertex 0.04 0.05600771031668743 0
    vertex 0.04 0.06 0.009999999999999972
    vertex 0.04 0.05600771031668743 0.01000000000000003
  endloop
endfacet
facet normal 0.877758 0.479105 0
  outer loop
    vertex 0.04 0.05600771031668743 0.02
    vertex 0.04191066166924366 0.05250722842189446 0.015
    vertex 0.04 0.05600771031668743 0.009999999999999972
  endloop
endfacet
facet normal 0.877758 0.479105 -0
  outer loop
    vertex 0.0438213233384873 0.0490067465271015 0
    vertex 0.04191066166924366 0.05250722842189446 0.005000000000000001
    vertex 0.0438213233384873 0.0490067465271015 0.01000000000000003
  endloop
endfacet
facet normal 0.877758 0.479105 0
  outer loop
    vertex 0.04 0.05600771031668743 0.009999999999999972
    vertex 0.04191066166924366 0.05250722842189446 0.005000000000000001
    vertex 0.04 0.05600771031668743 0
  endloop
endfacet
facet normal 0.877758 0.479105 -0
  outer loop
    vertex 0.0438213233384873 0.0490067465271015 0.01000000000000003
    vertex 0.04191066166924366 0.05250722842189446 0.015
    vertex 0.0438213233384873 0.0490067465271015 0.02
  endloop
endfacet
facet normal 0.877758 0.479105 2.97355e-16
  outer loop
    vertex 0.0438213233384873 0.0490067465271015 0.02
    vertex 0.04191066166924366 0.05250722842189446 0.015
    vertex 0.04 0.05600771031668743 0.02
  endloop
endfacet
facet normal 0.877758 0.479105 2.97355e-16
  outer loop
    vertex 0.0438213233384873 0.0490067465271015 0.01000000000000003
    vertex 0.04191066166924366 0.05250722842189446 0.005000000000000001
    vertex 0.04 0.05600771031668743 0.009999999999999972
  endloop
endfacet
facet normal 0.877758 0.479105 -2.97355e-16
  outer loop
    vertex 0.04 0.05600771031668743 0
    vertex 0.04191066166924366 0.05250722842189446 0.005000000000000001
    vertex 0.0438213233384873 0.0490067465271015 0
  endloop
endfacet
facet normal 0.877758 0.479105 -2.97355e-16
  outer loop
    vertex 0.04 0.05600771031668743 0.009999999999999972
    vertex 0.04191066166924366 0.05250722842189446 0.015
    vertex 0.0438213233384873 0.0490067465271015 0.01000000000000003
  endloop
endfacet
facet normal 0.971285 0.237918 1.64519e-16
  outer loop
    vertex 0.04553622456134336 0.04200578273751557 0.01000000000000003
    vertex 0.04467877394991533 0.04550626463230854 0.005000000000000001
    vertex 0.0438213233384873 0.0490067465271015 0.009999999999999972
  endloop
endfacet
facet normal 0.971285 0.237918 1.64519e-16
  outer loop
    vertex 0.04553622456134336 0.04200578273751557 0.02
    vertex 0.04467877394991533 0.04550626463230854 0.015
    vertex 0.0438213233384873 0.0490067465271015 0.02
  endloop
endfacet
facet normal 0.971285 0.237918 -1.64519e-16
  outer loop
    vertex 0.0438213233384873 0.0490067465271015 0.009999999999999972
    vertex 0.04467877394991533 0.04550626463230854 0.015
    vertex 0.04553622456134336 0.04200578273751557 0.01000000000000003
  endloop
endfacet
facet normal 0.971285 0.237918 -1.64519e-16
  outer loop
    vertex 0.0438213233384873 0.0490067465271015 0
    vertex 0.04467877394991533 0.04550626463230854 0.005000000000000001
    vertex 0.04553622456134336 0.04200578273751557 0
  endloop
endfacet
facet normal 0.971285 0.237918 0
  outer loop
    vertex 0.0438213233384873 0.0490067465271015 0.009999999999999972
    vertex 0.04467877394991533 0.04550626463230854 0.005000000000000001
    vertex 0.0438213233384873 0.0490067465271015 0
  endloop
endfacet
facet normal 0.971285 0.237918 0
  outer loop
    vertex 0.0438213233384873 0.0490067465271015 0.02
    vertex 0.04467877394991533 0.04550626463230854 0.015
    vertex 0.0438213233384873 0.0490067465271015 0.009999999999999972
  endloop
endfacet
facet normal 0.971285 0.237918 -0
  outer loop
    vertex 0.04553622456134336 0.04200578273751557 0
    vertex 0.04467877394991533 0.04550626463230854 0.005000000000000001
    vertex 0.04553622456134336 0.04200578273751557 0.01000000000000003
  endloop
endfacet
facet normal 0.971285 0.237918 -0
  outer loop
    vertex 0.04553622456134336 0.04200578273751557 0.01000000000000003
    vertex 0.04467877394991533 0.04550626463230854 0.015
    vertex 0.04553622456134336 0.04200578273751557 0.02
  endloop
endfacet
facet normal 0.720307 -0.693655 0
  outer loop
    vertex 0.04553622456134336 0.04200578273751557 0.02
    vertex 0.04216526557003495 0.0385053008427226 0.015
    vertex 0.04553622456134336 0.04200578273751557 0.009999999999999972
  endloop
endfacet
facet normal 0.720307 -0.693655 0
  outer loop
    vertex 0.03879430657872653 0.03500481894792964 0
    vertex 0.04216526557003495 0.0385053008427226 0.005
    vertex 0.03879430657872653 0.03500481894792964 0.01000000000000003
  endloop
endfacet
facet normal 0.720307 -0.693655 0
  outer loop
    vertex 0.04553622456134336 0.04200578273751557 0.009999999999999972
    vertex 0.04216526557003495 0.0385053008427226 0.005
    vertex 0.04553622456134336 0.04200578273751557 0
  endloop
endfacet
facet normal 0.720307 -0.693655 0
  outer loop
    vertex 0.03879430657872653 0.03500481894792964 0.01000000000000003
    vertex 0.04216526557003495 0.0385053008427226 0.015
    vertex 0.03879430657872653 0.03500481894792964 0.02
  endloop
endfacet
facet normal 0.720307 -0.693655 1.95213e-15
  outer loop
    vertex 0.03879430657872653 0.03500481894792964 0.01000000000000003
    vertex 0.04216526557003495 0.0385053008427226 0.005
    vertex 0.04553622456134336 0.04200578273751557 0.009999999999999972
  endloop
endfacet
facet normal 0.720307 -0.693655 -1.95213e-15
  outer loop
    vertex 0.04553622456134336 0.04200578273751557 0.009999999999999972
    vertex 0.04216526557003495 0.0385053008427226 0.015
    vertex 0.03879430657872653 0.03500481894792964 0.01000000000000003
  endloop
endfacet
facet normal 0.720307 -0.693655 -1.95213e-15
  outer loop
    vertex 0.04553622456134336 0.04200578273751557 0
    vertex 0.04216526557003495 0.0385053008427226 0.005
    vertex 0.03879430657872653 0.03500481894792964 0
  endloop
endfacet
facet normal 0.720307 -0.693655 1.95213e-15
  outer loop
    vertex 0.03879430657872653 0.03500481894792964 0.02
    vertex 0.04216526557003495 0.0385053008427226 0.015
    vertex 0.04553622456134336 0.04200578273751557 0.02
  endloop
endfacet
facet normal 0.959734 -0.280909 1.53274e-15
  outer loop
    vertex 0.03879430657872653 0.03500481894792964 0.009999999999999972
    vertex 0.03776973484840419 0.03150433705313668 0.015
    vertex 0.03674516311808186 0.02800385515834371 0.01000000000000003
  endloop
endfacet
facet normal 0.959734 -0.280909 -1.53274e-15
  outer loop
    vertex 0.03674516311808186 0.02800385515834371 0.01000000000000003
    vertex 0.03776973484840419 0.03150433705313668 0.005
    vertex 0.03879430657872653 0.03500481894792964 0.009999999999999972
  endloop
endfacet
facet normal 0.959734 -0.280909 -1.53274e-15
  outer loop
    vertex 0.03674516311808186 0.02800385515834371 0.02
    vertex 0.03776973484840419 0.03150433705313668 0.015
    vertex 0.03879430657872653 0.03500481894792964 0.02
  endloop
endfacet
facet normal 0.959734 -0.280909 1.53274e-15
  outer loop
    vertex 0.03879430657872653 0.03500481894792964 0
    vertex 0.03776973484840419 0.03150433705313668 0.005
    vertex 0.03674516311808186 0.02800385515834371 0
  endloop
endfacet
facet normal 0.959734 -0.280909 0
  outer loop
    vertex 0.03879430657872653 0.03500481894792964 0.009999999999999972
    vertex 0.03776973484840419 0.03150433705313668 0.005
    vertex 0.03879430657872653 0.03500481894792964 0
  endloop
endfacet
facet normal 0.959734 -0.280909 0
  outer loop
    vertex 0.03879430657872653 0.03500481894792964 0.02
    vertex 0.03776973484840419 0.03150433705313668 0.015
    vertex 0.03879430657872653 0.03500481894792964 0.009999999999999972
  endloop
endfacet
facet normal 0.959734 -0.280909 0
  outer loop
    vertex 0.03674516311808186 0.02800385515834371 0
    vertex 0.03776973484840419 0.03150433705313668 0.005
    vertex 0.03674516311808186 0.02800385515834371 0.01000000000000003
  endloop
endfacet
facet normal 0.959734 -0.280909 0
  outer loop
    vertex 0.03674516311808186 0.02800385515834371 0.01000000000000003
    vertex 0.03776973484840419 0.03150433705313668 0.015
    vertex 0.03674516311808186 0.02800385515834371 0.02
  endloop
endfacet
facet normal 0.682557 0.730832 -5.2852e-16
  outer loop
    vertex 0.03674516311808186 0.02800385515834371 0
    vertex 0.0404932214545449 0.02450337326355075 0.004999999999999987
    vertex 0.04424127979100795 0.02100289136875778 0
  endloop
endfacet
facet normal 0.682557 0.730832 5.2852e-16
  outer loop
    vertex 0.04424127979100795 0.02100289136875778 0.02
    vertex 0.0404932214545449 0.02450337326355075 0.01500000000000001
    vertex 0.03674516311808186 0.02800385515834371 0.02
  endloop
endfacet
facet normal 0.682557 0.730832 -0
  outer loop
    vertex 0.0404932214545449 0.02450337326355075 0.004999999999999987
    vertex 0.0404932214545449 0.02450337326355075 0.01500000000000001
    vertex 0.04424127979100795 0.02100289136875778 0.01000000000000003
  endloop
endfacet
facet normal 0.682557 0.730832 0
  outer loop
    vertex 0.03674516311808186 0.02800385515834371 0.009999999999999972
    vertex 0.0404932214545449 0.02450337326355075 0.01500000000000001
    vertex 0.0404932214545449 0.02450337326355075 0.004999999999999987
  endloop
endfacet
facet normal 0.682557 0.730832 0
  outer loop
    vertex 0.03674516311808186 0.02800385515834371 0.02
    vertex 0.0404932214545449 0.02450337326355075 0.01500000000000001
    vertex 0.03674516311808186 0.02800385515834371 0.009999999999999972
  endloop
endfacet
facet normal 0.682557 0.730832 -0
  outer loop
    vertex 0.04424127979100795 0.02100289136875778 0
    vertex 0.0404932214545449 0.02450337326355075 0.004999999999999987
    vertex 0.04424127979100795 0.02100289136875778 0.01000000000000003
  endloop
endfacet
facet normal 0.682557 0.730832 0
  outer loop
    vertex 0.03674516311808186 0.02800385515834371 0.009999999999999972
    vertex 0.0404932214545449 0.02450337326355075 0.004999999999999987
    vertex 0.03674516311808186 0.02800385515834371 0
  endloop
endfacet
facet normal 0.682557 0.730832 -0
  outer loop
    vertex 0.04424127979100795 0.02100289136875778 0.01000000000000003
    vertex 0.0404932214545449 0.02450337326355075 0.01500000000000001
    vertex 0.04424127979100795 0.02100289136875778 0.02
  endloop
endfacet
facet normal 0.89658 -0.442881 0
  outer loop
    vertex 0.04424127979100795 0.02100289136875778 0.02
    vertex 0.04251215580842574 0.01750240947396483 0.015
    vertex 0.04424127979100795 0.02100289136875778 0.009999999999999972
  endloop
endfacet
facet normal 0.89658 -0.442881 0
  outer loop
    vertex 0.04078303182584354 0.01400192757917186 0
    vertex 0.04251215580842574 0.01750240947396483 0.005
    vertex 0.04078303182584354 0.01400192757917186 0.01000000000000003
  endloop
endfacet
facet normal 0.89658 -0.442881 0
  outer loop
    vertex 0.04424127979100795 0.02100289136875778 0.009999999999999972
    vertex 0.04251215580842574 0.01750240947396483 0.005
    vertex 0.04424127979100795 0.02100289136875778 0
  endloop
endfacet
facet normal 0.89658 -0.442881 0
  outer loop
    vertex 0.04078303182584354 0.01400192757917186 0.01000000000000003
    vertex 0.04251215580842574 0.01750240947396483 0.015
    vertex 0.04078303182584354 0.01400192757917186 0.02
  endloop
endfacet
facet normal 0.89658 -0.442881 -1.51866e-15
  outer loop
    vertex 0.04078303182584354 0.01400192757917186 0.02
    vertex 0.04251215580842574 0.01750240947396483 0.015
    vertex 0.04424127979100795 0.02100289136875778 0.02
  endloop
endfacet
facet normal 0.89658 -0.442881 -1.51866e-15
  outer loop
    vertex 0.04078303182584354 0.01400192757917186 0.01000000000000003
    vertex 0.04251215580842574 0.01750240947396483 0.005
    vertex 0.04424127979100795 0.02100289136875778 0.009999999999999972
  endloop
endfacet
facet normal 0.89658 -0.442881 1.56205e-15
  outer loop
    vertex 0.04424127979100795 0.02100289136875778 0
    vertex 0.04251215580842574 0.01750240947396483 0.005
    vertex 0.04078303182584354 0.01400192757917186 0
  endloop
endfacet
facet normal 0.89658 -0.442881 1.56205e-15
  outer loop
    vertex 0.04424127979100795 0.02100289136875778 0.009999999999999972
    vertex 0.04251215580842574 0.01750240947396483 0.015
    vertex 0.04078303182584354 0.01400192757917186 0.01000000000000003
  endloop
endfacet
facet normal 0.604777 -0.796395 0
  outer loop
    vertex 0.04078303182584354 0.01400192757917186 0
    vertex 0.03617345780362873 0.0105014456843789 0.005728862973760926
    vertex 0.03156388378141392 0.00700096378958593 0
  endloop
endfacet
facet normal 0.604777 -0.796395 0
  outer loop
    vertex 0.03156388378141392 0.00700096378958593 0.02
    vertex 0.03617345780362873 0.0105014456843789 0.01432426114969104
    vertex 0.04078303182584354 0.01400192757917186 0.02
  endloop
endfacet
facet normal 0.604777 -0.796395 0
  outer loop
    vertex 0.04078303182584354 0.01400192757917186 0.009999999999999972
    vertex 0.03617345780362873 0.0105014456843789 0.01432426114969104
    vertex 0.03617345780362873 0.0105014456843789 0.005728862973760926
  endloop
endfacet
facet normal 0.604777 -0.796395 0
  outer loop
    vertex 0.03617345780362873 0.0105014456843789 0.005728862973760926
    vertex 0.03617345780362873 0.0105014456843789 0.01432426114969104
    vertex 0.03156388378141392 0.00700096378958593 0.01000000000000003
  endloop
endfacet
facet normal 0.604777 -0.796395 0
  outer loop
    vertex 0.04078303182584354 0.01400192757917186 0.02
    vertex 0.03617345780362873 0.0105014456843789 0.01432426114969104
    vertex 0.04078303182584354 0.01400192757917186 0.009999999999999972
  endloop
endfacet
facet normal 0.604777 -0.796395 0
  outer loop
    vertex 0.03156388378141392 0.00700096378958593 0
    vertex 0.03617345780362873 0.0105014456843789 0.005728862973760926
    vertex 0.03156388378141392 0.00700096378958593 0.01000000000000003
  endloop
endfacet
facet normal 0.604777 -0.796395 0
  outer loop
    vertex 0.04078303182584354 0.01400192757917186 0.009999999999999972
    vertex 0.03617345780362873 0.0105014456843789 0.005728862973760926
    vertex 0.04078303182584354 0.01400192757917186 0
  endloop
endfacet
facet normal 0.604777 -0.796395 0
  outer loop
    vertex 0.03156388378141392 0.00700096378958593 0.01000000000000003
    vertex 0.03617345780362873 0.0105014456843789 0.01432426114969104
    vertex 0.03156388378141392 0.00700096378958593 0.02
  endloop
endfacet
endsolid Created by Gmsh
