solid Created by Gmsh
facet normal 1 0 0
  outer loop
    vertex 0.04 0.06 0.02
    vertex 0.04 0.05589194843789274 0.015
    vertex 0.04 0.06 0.009999999999999972
  endloop
endfacet
facet normal 1 0 0
  outer loop
    vertex 0.04 0.05178389687578548 0
    vertex 0.04 0.05589194843789274 0.005000000000000001
    vertex 0.04 0.05178389687578548 0.01000000000000003
  endloop
endfacet
facet normal 1 0 0
  outer loop
    vertex 0.04 0.06 0.009999999999999972
    vertex 0.04 0.05589194843789274 0.005000000000000001
    vertex 0.04 0.06 0
  endloop
endfacet
facet normal 1 0 0
  outer loop
    vertex 0.04 0.05178389687578548 0.01000000000000003
    vertex 0.04 0.05589194843789274 0.015
    vertex 0.04 0.05178389687578548 0.02
  endloop
endfacet
facet normal 1 0 0
  outer loop
    vertex 0.04 0.05178389687578548 0.01000000000000003
    vertex 0.04 0.05589194843789274 0.005000000000000001
    vertex 0.04 0.06 0.009999999999999972
  endloop
endfacet
facet normal 1 0 0
  outer loop
    vertex 0.04 0.06 0.009999999999999972
    vertex 0.04 0.05589194843789274 0.015
    vertex 0.04 0.05178389687578548 0.01000000000000003
  endloop
endfacet
facet normal 1 0 0
  outer loop
    vertex 0.04 0.06 0
    vertex 0.04 0.05589194843789274 0.005000000000000001
    vertex 0.04 0.05178389687578548 0
  endloop
endfacet
facet normal 1 -0 0
  outer loop
    vertex 0.04 0.05178389687578548 0.02
    vertex 0.04 0.05589194843789274 0.015
    vertex 0.04 0.06 0.02
  endloop
endfacet
facet normal 0.411939 -0.911212 9.5518e-16
  outer loop
    vertex 0.0328408510885296 0.04854740332104889 0.02
    vertex 0.03271557242200331 0.04849076759496296 0.01202160379583075
    vertex 0.04 0.05178389687578548 0.02
  endloop
endfacet
facet normal 0.411939 -0.911212 9.72915e-16
  outer loop
    vertex 0.0256817021770592 0.04531090976631229 0.02
    vertex 0.03271557242200331 0.04849076759496296 0.01202160379583075
    vertex 0.0328408510885296 0.04854740332104889 0.02
  endloop
endfacet
facet normal 0.411939 -0.911212 0
  outer loop
    vertex 0.04 0.05178389687578548 0.02
    vertex 0.03271557242200331 0.04849076759496296 0.01202160379583075
    vertex 0.04 0.05178389687578548 0.009999999999999972
  endloop
endfacet
facet normal 0.411939 -0.911212 0
  outer loop
    vertex 0.0256817021770592 0.04531090976631229 0.01000000000000003
    vertex 0.03271557242200331 0.04849076759496296 0.01202160379583075
    vertex 0.0256817021770592 0.04531090976631229 0.02
  endloop
endfacet
facet normal 0.411939 -0.911212 0
  outer loop
    vertex 0.0256817021770592 0.04531090976631229 0
    vertex 0.03041545927902935 0.04745093709912387 0.0056124535206756
    vertex 0.0256817021770592 0.04531090976631229 0.01000000000000003
  endloop
endfacet
facet normal 0.411939 -0.911212 0
  outer loop
    vertex 0.04 0.05178389687578548 0.009999999999999972
    vertex 0.03519437655791245 0.04961138035334133 0.005526811463301264
    vertex 0.04 0.05178389687578548 0
  endloop
endfacet
facet normal 0.411939 -0.911212 -1.1704e-15
  outer loop
    vertex 0.04 0.05178389687578548 0
    vertex 0.03519437655791245 0.04961138035334133 0.005526811463301264
    vertex 0.0328408510885296 0.04854740332104888 0
  endloop
endfacet
facet normal 0.411939 -0.911212 -4.61017e-16
  outer loop
    vertex 0.0328408510885296 0.04854740332104888 0
    vertex 0.03041545927902935 0.04745093709912387 0.0056124535206756
    vertex 0.0256817021770592 0.04531090976631229 0
  endloop
endfacet
facet normal 0.411939 -0.911212 -3.81797e-17
  outer loop
    vertex 0.03041545927902935 0.04745093709912387 0.0056124535206756
    vertex 0.03271557242200331 0.04849076759496296 0.01202160379583075
    vertex 0.0256817021770592 0.04531090976631229 0.01000000000000003
  endloop
endfacet
facet normal 0.411939 -0.911212 -5.00767e-17
  outer loop
    vertex 0.03041545927902935 0.04745093709912387 0.0056124535206756
    vertex 0.03519437655791245 0.04961138035334133 0.005526811463301264
    vertex 0.03271557242200331 0.04849076759496296 0.01202160379583075
  endloop
endfacet
facet normal 0.411939 -0.911212 5.83892e-16
  outer loop
    vertex 0.03271557242200331 0.04849076759496296 0.01202160379583075
    vertex 0.03519437655791245 0.04961138035334133 0.005526811463301264
    vertex 0.04 0.05178389687578548 0.009999999999999972
  endloop
endfacet
facet normal 0.411939 -0.911212 -6.81525e-16
  outer loop
    vertex 0.0328408510885296 0.04854740332104888 0
    vertex 0.03519437655791245 0.04961138035334133 0.005526811463301264
    vertex 0.03041545927902935 0.04745093709912387 0.0056124535206756
  endloop
endfacet
facet normal 0.328614 0.944464 -0
  outer loop
    vertex 0.04428559087622686 0.03883792265683911 0.01000000000000003
    vertex 0.03749496025329432 0.04120063645276732 0.01295679386468598
    vertex 0.04428559087622686 0.03883792265683911 0.02
  endloop
endfacet
facet normal 0.328614 0.944464 -5.9332e-16
  outer loop
    vertex 0.0256817021770592 0.04531090976631229 0
    vertex 0.03276600454633136 0.04284601661104629 0.007537486759842418
    vertex 0.03498364652664305 0.0420744162115757 0
  endloop
endfacet
facet normal 0.328614 0.944464 0
  outer loop
    vertex 0.0256817021770592 0.04531090976631229 0.009999999999999972
    vertex 0.03276600454633136 0.04284601661104629 0.007537486759842418
    vertex 0.0256817021770592 0.04531090976631229 0
  endloop
endfacet
facet normal 0.328614 0.944464 1.07454e-15
  outer loop
    vertex 0.04428559087622686 0.03883792265683911 0.02
    vertex 0.03749496025329432 0.04120063645276732 0.01295679386468598
    vertex 0.03498364652664301 0.0420744162115757 0.02
  endloop
endfacet
facet normal 0.328614 0.944464 -0
  outer loop
    vertex 0.04428559087622686 0.03883792265683911 0
    vertex 0.03914759098976409 0.04062562454924165 0.005507874505829314
    vertex 0.04428559087622686 0.03883792265683911 0.01000000000000003
  endloop
endfacet
facet normal 0.328614 0.944464 0
  outer loop
    vertex 0.0256817021770592 0.04531090976631229 0.02
    vertex 0.03118158271826945 0.04339729609002272 0.01414474426317786
    vertex 0.0256817021770592 0.04531090976631229 0.009999999999999972
  endloop
endfacet
facet normal 0.328614 0.944464 -4.37206e-16
  outer loop
    vertex 0.03498364652664305 0.0420744162115757 0
    vertex 0.03914759098976409 0.04062562454924165 0.005507874505829314
    vertex 0.04428559087622686 0.03883792265683911 0
  endloop
endfacet
facet normal 0.328614 0.944464 5.87525e-16
  outer loop
    vertex 0.03498364652664301 0.0420744162115757 0.02
    vertex 0.03118158271826945 0.04339729609002272 0.01414474426317786
    vertex 0.0256817021770592 0.04531090976631229 0.02
  endloop
endfacet
facet normal 0.328614 0.944464 -1.0504e-16
  outer loop
    vertex 0.04428559087622686 0.03883792265683911 0.01000000000000003
    vertex 0.03914759098976409 0.04062562454924165 0.005507874505829314
    vertex 0.03749496025329432 0.04120063645276732 0.01295679386468598
  endloop
endfacet
facet normal 0.328614 0.944464 5.31387e-16
  outer loop
    vertex 0.03118158271826945 0.04339729609002272 0.01414474426317786
    vertex 0.03276600454633136 0.04284601661104629 0.007537486759842418
    vertex 0.0256817021770592 0.04531090976631229 0.009999999999999972
  endloop
endfacet
facet normal 0.328614 0.944464 -1.90122e-16
  outer loop
    vertex 0.03749496025329432 0.04120063645276732 0.01295679386468598
    vertex 0.03914759098976409 0.04062562454924165 0.005507874505829314
    vertex 0.03276600454633136 0.04284601661104629 0.007537486759842418
  endloop
endfacet
facet normal 0.328614 0.944464 -4.58709e-16
  outer loop
    vertex 0.03276600454633136 0.04284601661104629 0.007537486759842418
    vertex 0.03914759098976409 0.04062562454924165 0.005507874505829314
    vertex 0.03498364652664305 0.0420744162115757 0
  endloop
endfacet
facet normal 0.328614 0.944464 5.92484e-16
  outer loop
    vertex 0.03118158271826945 0.04339729609002272 0.01414474426317786
    vertex 0.03749496025329432 0.04120063645276732 0.01295679386468598
    vertex 0.03276600454633136 0.04284601661104629 0.007537486759842418
  endloop
endfacet
facet normal 0.328614 0.944464 1.01245e-15
  outer loop
    vertex 0.03498364652664301 0.0420744162115757 0.02
    vertex 0.03749496025329432 0.04120063645276732 0.01295679386468598
    vertex 0.03118158271826945 0.04339729609002272 0.01414474426317786
  endloop
endfacet
facet normal 0.27159 -0.962413 0
  outer loop
    vertex 0.02134773979045249 0.03236493554736593 0
    vertex 0.0303735403469589 0.0349119871624658 0.009075417886430319
    vertex 0.02134773979045249 0.03236493554736593 0.01000000000000003
  endloop
endfacet
facet normal 0.27159 -0.962413 -4.6992e-17
  outer loop
    vertex 0.03281666533333967 0.03560142910210252 0
    vertex 0.0303735403469589 0.0349119871624658 0.009075417886430319
    vertex 0.02134773979045249 0.03236493554736593 0
  endloop
endfacet
facet normal 0.27159 -0.962413 2.71752e-16
  outer loop
    vertex 0.02134773979045249 0.03236493554736593 0.02
    vertex 0.02647142131530089 0.03381082183982504 0.01476885447160759
    vertex 0.03281666533333968 0.03560142910210252 0.02
  endloop
endfacet
facet normal 0.27159 -0.962413 4.03533e-17
  outer loop
    vertex 0.03281666533333968 0.03560142910210252 0.02
    vertex 0.03752587507385296 0.03693035280259043 0.01295436442376252
    vertex 0.04428559087622686 0.03883792265683911 0.02
  endloop
endfacet
facet normal 0.27159 -0.962413 1.78321e-16
  outer loop
    vertex 0.04428559087622686 0.03883792265683911 0
    vertex 0.03777787391872871 0.03700146605850892 0.00637757437285231
    vertex 0.03281666533333967 0.03560142910210252 0
  endloop
endfacet
facet normal 0.27159 -0.962413 0
  outer loop
    vertex 0.04428559087622686 0.03883792265683911 0.02
    vertex 0.03752587507385296 0.03693035280259043 0.01295436442376252
    vertex 0.04428559087622686 0.03883792265683911 0.009999999999999972
  endloop
endfacet
facet normal 0.27159 -0.962413 -3.4604e-16
  outer loop
    vertex 0.03281666533333968 0.03560142910210252 0.02
    vertex 0.02647142131530089 0.03381082183982504 0.01476885447160759
    vertex 0.0303735403469589 0.0349119871624658 0.009075417886430319
  endloop
endfacet
facet normal 0.27159 -0.962413 -2.13714e-16
  outer loop
    vertex 0.0303735403469589 0.0349119871624658 0.009075417886430319
    vertex 0.03752587507385296 0.03693035280259043 0.01295436442376252
    vertex 0.03281666533333968 0.03560142910210252 0.02
  endloop
endfacet
facet normal 0.27159 -0.962413 0
  outer loop
    vertex 0.02134773979045249 0.03236493554736593 0.01000000000000003
    vertex 0.02647142131530089 0.03381082183982504 0.01476885447160759
    vertex 0.02134773979045249 0.03236493554736593 0.02
  endloop
endfacet
facet normal 0.27159 -0.962413 0
  outer loop
    vertex 0.04428559087622686 0.03883792265683911 0.009999999999999972
    vertex 0.03777787391872871 0.03700146605850892 0.00637757437285231
    vertex 0.04428559087622686 0.03883792265683911 0
  endloop
endfacet
facet normal 0.27159 -0.962413 -5.38027e-17
  outer loop
    vertex 0.03777787391872871 0.03700146605850892 0.00637757437285231
    vertex 0.0303735403469589 0.0349119871624658 0.009075417886430319
    vertex 0.03281666533333967 0.03560142910210252 0
  endloop
endfacet
facet normal 0.27159 -0.962413 -5.80089e-16
  outer loop
    vertex 0.0303735403469589 0.0349119871624658 0.009075417886430319
    vertex 0.02647142131530089 0.03381082183982504 0.01476885447160759
    vertex 0.02134773979045249 0.03236493554736593 0.01000000000000003
  endloop
endfacet
facet normal 0.27159 -0.962413 -5.51761e-16
  outer loop
    vertex 0.03777787391872871 0.03700146605850892 0.00637757437285231
    vertex 0.03752587507385296 0.03693035280259043 0.01295436442376252
    vertex 0.0303735403469589 0.0349119871624658 0.009075417886430319
  endloop
endfacet
facet normal 0.27159 -0.962413 -5.2217e-16
  outer loop
    vertex 0.04428559087622686 0.03883792265683911 0.009999999999999972
    vertex 0.03752587507385296 0.03693035280259043 0.01295436442376252
    vertex 0.03777787391872871 0.03700146605850892 0.00637757437285231
  endloop
endfacet
facet normal 0.243526 0.969894 2.12762e-16
  outer loop
    vertex 0.02134773979045249 0.03236493554736593 0
    vertex 0.02776256255490695 0.03075426631140262 0.007189348508476637
    vertex 0.02994107564049016 0.03020727317754154 0
  endloop
endfacet
facet normal 0.243526 0.969894 0
  outer loop
    vertex 0.02134773979045249 0.03236493554736593 0.009999999999999972
    vertex 0.02776256255490695 0.03075426631140262 0.007189348508476637
    vertex 0.02134773979045249 0.03236493554736593 0
  endloop
endfacet
facet normal 0.243526 0.969894 -1.32204e-16
  outer loop
    vertex 0.03853441149052789 0.02804961080771713 0.02
    vertex 0.03405666882706618 0.02917390724105928 0.01276864554980136
    vertex 0.02994107564049019 0.03020727317754153 0.02
  endloop
endfacet
facet normal 0.243526 0.969894 -0
  outer loop
    vertex 0.04712774734056556 0.02589194843789274 0.01000000000000003
    vertex 0.04081744186436037 0.02747637489412685 0.01352561077088859
    vertex 0.04712774734056556 0.02589194843789274 0.02
  endloop
endfacet
facet normal 0.243526 0.969894 -0
  outer loop
    vertex 0.04712774734056556 0.02589194843789274 0
    vertex 0.04052226151028272 0.02755049041264251 0.006856944925824469
    vertex 0.04712774734056556 0.02589194843789274 0.01000000000000003
  endloop
endfacet
facet normal 0.243526 0.969894 -5.31578e-16
  outer loop
    vertex 0.04712774734056556 0.02589194843789274 0.02
    vertex 0.04081744186436037 0.02747637489412685 0.01352561077088859
    vertex 0.03853441149052789 0.02804961080771713 0.02
  endloop
endfacet
facet normal 0.243526 0.969894 6.13458e-16
  outer loop
    vertex 0.03853441149052787 0.02804961080771714 0
    vertex 0.04052226151028272 0.02755049041264251 0.006856944925824469
    vertex 0.04712774734056556 0.02589194843789274 0
  endloop
endfacet
facet normal 0.243526 0.969894 -5.26813e-17
  outer loop
    vertex 0.03405666882706618 0.02917390724105928 0.01276864554980136
    vertex 0.02689115732067366 0.03097306356494706 0.01399159881165559
    vertex 0.02994107564049019 0.03020727317754153 0.02
  endloop
endfacet
facet normal 0.243526 0.969894 0
  outer loop
    vertex 0.02134773979045249 0.03236493554736593 0.02
    vertex 0.02689115732067366 0.03097306356494706 0.01399159881165559
    vertex 0.02134773979045249 0.03236493554736593 0.009999999999999972
  endloop
endfacet
facet normal 0.243526 0.969894 5.69961e-16
  outer loop
    vertex 0.02994107564049016 0.03020727317754154 0
    vertex 0.03423774356550902 0.02912844199262933 0.005367445501058497
    vertex 0.03853441149052787 0.02804961080771714 0
  endloop
endfacet
facet normal 0.243526 0.969894 2.60447e-16
  outer loop
    vertex 0.02994107564049016 0.03020727317754154 0
    vertex 0.02776256255490695 0.03075426631140262 0.007189348508476637
    vertex 0.03423774356550902 0.02912844199262933 0.005367445501058497
  endloop
endfacet
facet normal 0.243526 0.969894 -1.14144e-16
  outer loop
    vertex 0.03405666882706618 0.02917390724105928 0.01276864554980136
    vertex 0.04052226151028272 0.02755049041264251 0.006856944925824469
    vertex 0.03423774356550902 0.02912844199262933 0.005367445501058497
  endloop
endfacet
facet normal 0.243526 0.969894 -3.44632e-17
  outer loop
    vertex 0.02776256255490695 0.03075426631140262 0.007189348508476637
    vertex 0.02689115732067366 0.03097306356494706 0.01399159881165559
    vertex 0.03405666882706618 0.02917390724105928 0.01276864554980136
  endloop
endfacet
facet normal 0.243526 0.969894 -3.88196e-16
  outer loop
    vertex 0.03853441149052789 0.02804961080771713 0.02
    vertex 0.04081744186436037 0.02747637489412685 0.01352561077088859
    vertex 0.03405666882706618 0.02917390724105928 0.01276864554980136
  endloop
endfacet
facet normal 0.243526 0.969894 7.32499e-17
  outer loop
    vertex 0.03405666882706618 0.02917390724105928 0.01276864554980136
    vertex 0.04081744186436037 0.02747637489412685 0.01352561077088859
    vertex 0.04052226151028272 0.02755049041264251 0.006856944925824469
  endloop
endfacet
facet normal 0.243526 0.969894 -1.11379e-16
  outer loop
    vertex 0.02994107564049019 0.03020727317754153 0.02
    vertex 0.02689115732067366 0.03097306356494706 0.01399159881165559
    vertex 0.02134773979045249 0.03236493554736593 0.02
  endloop
endfacet
facet normal 0.243526 0.969894 -1.15434e-16
  outer loop
    vertex 0.03423774356550902 0.02912844199262933 0.005367445501058497
    vertex 0.02776256255490695 0.03075426631140262 0.007189348508476637
    vertex 0.03405666882706618 0.02917390724105928 0.01276864554980136
  endloop
endfacet
facet normal 0.243526 0.969894 6.55069e-16
  outer loop
    vertex 0.03423774356550902 0.02912844199262933 0.005367445501058497
    vertex 0.04052226151028272 0.02755049041264251 0.006856944925824469
    vertex 0.03853441149052787 0.02804961080771714 0
  endloop
endfacet
facet normal 0.243526 0.969894 1.14308e-16
  outer loop
    vertex 0.04052226151028272 0.02755049041264251 0.006856944925824469
    vertex 0.04081744186436037 0.02747637489412685 0.01352561077088859
    vertex 0.04712774734056556 0.02589194843789274 0.01000000000000003
  endloop
endfacet
facet normal 0.243526 0.969894 0
  outer loop
    vertex 0.02134773979045249 0.03236493554736593 0.009999999999999972
    vertex 0.02689115732067366 0.03097306356494706 0.01399159881165559
    vertex 0.02776256255490695 0.03075426631140262 0.007189348508476637
  endloop
endfacet
facet normal 0.988313 -0.152441 -6.85434e-16
  outer loop
    vertex 0.04712774734056556 0.02589194843789274 0
    vertex 0.0466285383796655 0.02265545488315615 0.005000000000000001
    vertex 0.04612932941876544 0.01941896132841955 0
  endloop
endfacet
facet normal 0.988313 -0.152441 6.85434e-16
  outer loop
    vertex 0.04612932941876544 0.01941896132841955 0.02
    vertex 0.0466285383796655 0.02265545488315615 0.015
    vertex 0.04712774734056556 0.02589194843789274 0.02
  endloop
endfacet
facet normal 0.988313 -0.152441 -6.85434e-16
  outer loop
    vertex 0.04712774734056556 0.02589194843789274 0.009999999999999972
    vertex 0.0466285383796655 0.02265545488315615 0.015
    vertex 0.04612932941876544 0.01941896132841955 0.01000000000000003
  endloop
endfacet
facet normal 0.988313 -0.152441 6.85434e-16
  outer loop
    vertex 0.04612932941876544 0.01941896132841955 0.01000000000000003
    vertex 0.0466285383796655 0.02265545488315615 0.005000000000000001
    vertex 0.04712774734056556 0.02589194843789274 0.009999999999999972
  endloop
endfacet
facet normal 0.988313 -0.152441 0
  outer loop
    vertex 0.04712774734056556 0.02589194843789274 0.009999999999999972
    vertex 0.0466285383796655 0.02265545488315615 0.005000000000000001
    vertex 0.04712774734056556 0.02589194843789274 0
  endloop
endfacet
facet normal 0.988313 -0.152441 0
  outer loop
    vertex 0.04712774734056556 0.02589194843789274 0.02
    vertex 0.0466285383796655 0.02265545488315615 0.015
    vertex 0.04712774734056556 0.02589194843789274 0.009999999999999972
  endloop
endfacet
facet normal 0.988313 -0.152441 0
  outer loop
    vertex 0.04612932941876544 0.01941896132841955 0
    vertex 0.0466285383796655 0.02265545488315615 0.005000000000000001
    vertex 0.04612932941876544 0.01941896132841955 0.01000000000000003
  endloop
endfacet
facet normal 0.988313 -0.152441 0
  outer loop
    vertex 0.04612932941876544 0.01941896132841955 0.01000000000000003
    vertex 0.0466285383796655 0.02265545488315615 0.015
    vertex 0.04612932941876544 0.01941896132841955 0.02
  endloop
endfacet
facet normal 0.423869 -0.905723 2.33611e-16
  outer loop
    vertex 0.04612932941876544 0.01941896132841955 0
    vertex 0.03911278026585099 0.0161352885673457 0.007597748115583803
    vertex 0.03921359275368023 0.01618246777368296 0
  endloop
endfacet
facet normal 0.423869 -0.905723 2.02584e-16
  outer loop
    vertex 0.03921359275368023 0.01618246777368296 0
    vertex 0.03911278026585099 0.0161352885673457 0.007597748115583803
    vertex 0.03229785608859502 0.01294597421894637 0
  endloop
endfacet
facet normal 0.423869 -0.905723 0
  outer loop
    vertex 0.03229785608859502 0.01294597421894637 0
    vertex 0.03911278026585099 0.0161352885673457 0.007597748115583803
    vertex 0.03229785608859502 0.01294597421894637 0.01000000000000003
  endloop
endfacet
facet normal 0.423869 -0.905723 0
  outer loop
    vertex 0.04612932941876544 0.01941896132841955 0.009999999999999972
    vertex 0.03911278026585099 0.0161352885673457 0.007597748115583803
    vertex 0.04612932941876544 0.01941896132841955 0
  endloop
endfacet
facet normal 0.423869 -0.905723 0
  outer loop
    vertex 0.04612932941876544 0.01941896132841955 0.02
    vertex 0.0412883137532058 0.01715341584010394 0.01462546543774016
    vertex 0.04612932941876544 0.01941896132841955 0.009999999999999972
  endloop
endfacet
facet normal 0.423869 -0.905723 0
  outer loop
    vertex 0.03229785608859502 0.01294597421894637 0.01000000000000003
    vertex 0.03653169254174319 0.01492736608737924 0.01460331622190343
    vertex 0.03229785608859502 0.01294597421894637 0.02
  endloop
endfacet
facet normal 0.423869 -0.905723 -3.21764e-16
  outer loop
    vertex 0.0412883137532058 0.01715341584010394 0.01462546543774016
    vertex 0.03653169254174319 0.01492736608737924 0.01460331622190343
    vertex 0.03911278026585099 0.0161352885673457 0.007597748115583803
  endloop
endfacet
facet normal 0.423869 -0.905723 -4.12807e-16
  outer loop
    vertex 0.03921359275368023 0.01618246777368296 0.02
    vertex 0.0412883137532058 0.01715341584010394 0.01462546543774016
    vertex 0.04612932941876544 0.01941896132841955 0.02
  endloop
endfacet
facet normal 0.423869 -0.905723 -2.46667e-16
  outer loop
    vertex 0.03229785608859502 0.01294597421894637 0.02
    vertex 0.03653169254174319 0.01492736608737924 0.01460331622190343
    vertex 0.03921359275368023 0.01618246777368296 0.02
  endloop
endfacet
facet normal 0.423869 -0.905723 -4.34355e-16
  outer loop
    vertex 0.03921359275368023 0.01618246777368296 0.02
    vertex 0.03653169254174319 0.01492736608737924 0.01460331622190343
    vertex 0.0412883137532058 0.01715341584010394 0.01462546543774016
  endloop
endfacet
facet normal 0.423869 -0.905723 -2.2161e-16
  outer loop
    vertex 0.03911278026585099 0.0161352885673457 0.007597748115583803
    vertex 0.03653169254174319 0.01492736608737924 0.01460331622190343
    vertex 0.03229785608859502 0.01294597421894637 0.01000000000000003
  endloop
endfacet
facet normal 0.423869 -0.905723 -1.56623e-16
  outer loop
    vertex 0.0412883137532058 0.01715341584010394 0.01462546543774016
    vertex 0.03911278026585099 0.0161352885673457 0.007597748115583803
    vertex 0.04612932941876544 0.01941896132841955 0.009999999999999972
  endloop
endfacet
facet normal 0.860551 -0.509364 0
  outer loop
    vertex 0.03229785608859502 0.01294597421894637 0.02
    vertex 0.03038215993975162 0.00970948066420978 0.015
    vertex 0.03229785608859502 0.01294597421894637 0.009999999999999972
  endloop
endfacet
facet normal 0.860551 -0.509364 0
  outer loop
    vertex 0.02846646379090822 0.006472987109473187 0
    vertex 0.03038215993975162 0.00970948066420978 0.005000000000000001
    vertex 0.02846646379090822 0.006472987109473187 0.01000000000000003
  endloop
endfacet
facet normal 0.860551 -0.509364 0
  outer loop
    vertex 0.03229785608859502 0.01294597421894637 0.009999999999999972
    vertex 0.03038215993975162 0.00970948066420978 0.005000000000000001
    vertex 0.03229785608859502 0.01294597421894637 0
  endloop
endfacet
facet normal 0.860551 -0.509364 0
  outer loop
    vertex 0.02846646379090822 0.006472987109473187 0.01000000000000003
    vertex 0.03038215993975162 0.00970948066420978 0.015
    vertex 0.02846646379090822 0.006472987109473187 0.02
  endloop
endfacet
facet normal 0.860551 -0.509364 0
  outer loop
    vertex 0.02846646379090822 0.006472987109473187 0.01000000000000003
    vertex 0.03038215993975162 0.00970948066420978 0.005000000000000001
    vertex 0.03229785608859502 0.01294597421894637 0.009999999999999972
  endloop
endfacet
facet normal 0.860551 -0.509364 0
  outer loop
    vertex 0.02846646379090822 0.006472987109473187 0.02
    vertex 0.03038215993975162 0.00970948066420978 0.015
    vertex 0.03229785608859502 0.01294597421894637 0.02
  endloop
endfacet
facet normal 0.860551 -0.509364 0
  outer loop
    vertex 0.03229785608859502 0.01294597421894637 0
    vertex 0.03038215993975162 0.00970948066420978 0.005000000000000001
    vertex 0.02846646379090822 0.006472987109473187 0
  endloop
endfacet
facet normal 0.860551 -0.509364 0
  outer loop
    vertex 0.03229785608859502 0.01294597421894637 0.009999999999999972
    vertex 0.03038215993975162 0.00970948066420978 0.015
    vertex 0.02846646379090822 0.006472987109473187 0.01000000000000003
  endloop
endfacet
endsolid Created by Gmsh
