solid Created by Gmsh
facet normal 0.991345 -0.131281 0
  outer loop
    vertex 0.008 0 0
    vertex 0.009138517298715478 0.008597298024626471 0.008342655776165392
    vertex 0.008 0 0.01000000000000003
  endloop
endfacet
facet normal 0.991345 -0.131281 0
  outer loop
    vertex 0.01407209225981586 0.04585225613134103 0.02
    vertex 0.0129335749611004 0.03725495810671462 0.01165734422383468
    vertex 0.01407209225981586 0.04585225613134103 0.009999999999999972
  endloop
endfacet
facet normal 0.991345 -0.131281 9.65857e-17
  outer loop
    vertex 0.009518023064953963 0.01146306403283522 0
    vertex 0.009138517298715478 0.008597298024626471 0.008342655776165392
    vertex 0.008 0 0
  endloop
endfacet
facet normal 0.991345 -0.131281 1.7561e-16
  outer loop
    vertex 0.0125540691948619 0.03438919209850581 0.02
    vertex 0.0129335749611004 0.03725495810671462 0.01165734422383468
    vertex 0.01407209225981586 0.04585225613134103 0.02
  endloop
endfacet
facet normal 0.991345 -0.131281 -2.14814e-16
  outer loop
    vertex 0.01255406919486189 0.03438919209850573 0
    vertex 0.01174234852818513 0.02825963702539248 0.01023018669775482
    vertex 0.01103604612990792 0.02292612806567045 0
  endloop
endfacet
facet normal 0.991345 -0.131281 -6.75831e-17
  outer loop
    vertex 0.01103604612990792 0.02292612806567045 0
    vertex 0.01174234852818513 0.02825963702539248 0.01023018669775482
    vertex 0.0103402855584707 0.0176722237172877 0.009723775962694236
  endloop
endfacet
facet normal 0.991345 -0.131281 4.52002e-17
  outer loop
    vertex 0.01103604612990792 0.02292612806567045 0
    vertex 0.0103402855584707 0.0176722237172877 0.009723775962694236
    vertex 0.009518023064953963 0.01146306403283522 0
  endloop
endfacet
facet normal 0.991345 -0.131281 -7.12838e-17
  outer loop
    vertex 0.009518023064953973 0.0114630640328353 0.02
    vertex 0.0103402855584707 0.0176722237172877 0.009723775962694236
    vertex 0.01103604612990794 0.02292612806567058 0.02
  endloop
endfacet
facet normal 0.991345 -0.131281 7.91142e-17
  outer loop
    vertex 0.0103402855584707 0.0176722237172877 0.009723775962694236
    vertex 0.01174234852818513 0.02825963702539248 0.01023018669775482
    vertex 0.01103604612990794 0.02292612806567058 0.02
  endloop
endfacet
facet normal 0.991345 -0.131281 2.09941e-16
  outer loop
    vertex 0.01103604612990794 0.02292612806567058 0.02
    vertex 0.01174234852818513 0.02825963702539248 0.01023018669775482
    vertex 0.0125540691948619 0.03438919209850581 0.02
  endloop
endfacet
facet normal 0.991345 -0.131281 -2.08318e-16
  outer loop
    vertex 0.01255406919486189 0.03438919209850573 0
    vertex 0.0129335749611004 0.03725495810671462 0.01165734422383468
    vertex 0.01174234852818513 0.02825963702539248 0.01023018669775482
  endloop
endfacet
facet normal 0.991345 -0.131281 -1.40182e-16
  outer loop
    vertex 0.009518023064953973 0.0114630640328353 0.02
    vertex 0.009138517298715478 0.008597298024626471 0.008342655776165392
    vertex 0.0103402855584707 0.0176722237172877 0.009723775962694236
  endloop
endfacet
facet normal 0.991345 -0.131281 -8.20072e-17
  outer loop
    vertex 0.01255406919486189 0.03438919209850573 0
    vertex 0.01335659979751518 0.04044935014149534 0.004999999999999989
    vertex 0.0129335749611004 0.03725495810671462 0.01165734422383468
  endloop
endfacet
facet normal 0.991345 -0.131281 -1.19283e-16
  outer loop
    vertex 0.009518023064953973 0.0114630640328353 0.02
    vertex 0.008715492462300679 0.005402905989845653 0.01500000000000001
    vertex 0.009138517298715478 0.008597298024626471 0.008342655776165392
  endloop
endfacet
facet normal 0.991345 -0.131281 -3.80915e-16
  outer loop
    vertex 0.01407209225981586 0.04585225613134103 0
    vertex 0.01335659979751518 0.04044935014149534 0.004999999999999989
    vertex 0.01255406919486189 0.03438919209850573 0
  endloop
endfacet
facet normal 0.991345 -0.131281 -5.86023e-17
  outer loop
    vertex 0.008 0 0.02
    vertex 0.008715492462300679 0.005402905989845653 0.01500000000000001
    vertex 0.009518023064953973 0.0114630640328353 0.02
  endloop
endfacet
facet normal 0.991345 -0.131281 1.26482e-16
  outer loop
    vertex 0.0103402855584707 0.0176722237172877 0.009723775962694236
    vertex 0.009138517298715478 0.008597298024626471 0.008342655776165392
    vertex 0.009518023064953963 0.01146306403283522 0
  endloop
endfacet
facet normal 0.991345 -0.131281 2.33443e-16
  outer loop
    vertex 0.01174234852818513 0.02825963702539248 0.01023018669775482
    vertex 0.0129335749611004 0.03725495810671462 0.01165734422383468
    vertex 0.0125540691948619 0.03438919209850581 0.02
  endloop
endfacet
facet normal 0.991345 -0.131281 0
  outer loop
    vertex 0.01407209225981586 0.04585225613134103 0.009999999999999972
    vertex 0.01335659979751518 0.04044935014149534 0.004999999999999989
    vertex 0.01407209225981586 0.04585225613134103 0
  endloop
endfacet
facet normal 0.991345 -0.131281 0
  outer loop
    vertex 0.008 0 0.01000000000000003
    vertex 0.008715492462300679 0.005402905989845653 0.01500000000000001
    vertex 0.008 0 0.02
  endloop
endfacet
facet normal 0.991345 -0.131281 -8.08323e-17
  outer loop
    vertex 0.009138517298715478 0.008597298024626471 0.008342655776165392
    vertex 0.008715492462300679 0.005402905989845653 0.01500000000000001
    vertex 0.008 0 0.01000000000000003
  endloop
endfacet
facet normal 0.991345 -0.131281 1.37415e-16
  outer loop
    vertex 0.0129335749611004 0.03725495810671462 0.01165734422383468
    vertex 0.01335659979751518 0.04044935014149534 0.004999999999999989
    vertex 0.01407209225981586 0.04585225613134103 0.009999999999999972
  endloop
endfacet
endsolid Created by Gmsh
