solid Created by Gmsh
facet normal 1 -1.74346e-29 -1.38778e-15
  outer loop
    vertex 0.04 0.05558137165290597 0.01000000000000003
    vertex 0.03999999999999999 0.05779068582645298 0.004999999999999999
    vertex 0.04 0.06 0.009999999999999972
  endloop
endfacet
facet normal 1 1.74346e-29 1.38778e-15
  outer loop
    vertex 0.04 0.06 0.009999999999999972
    vertex 0.03999999999999999 0.05779068582645298 0.015
    vertex 0.04 0.05558137165290597 0.01000000000000003
  endloop
endfacet
facet normal 1 0 -1.38778e-15
  outer loop
    vertex 0.04 0.05558137165290597 0.02
    vertex 0.03999999999999999 0.05779068582645298 0.015
    vertex 0.04 0.06 0.02
  endloop
endfacet
facet normal 1 0 1.38778e-15
  outer loop
    vertex 0.04 0.06 0
    vertex 0.03999999999999999 0.05779068582645298 0.004999999999999999
    vertex 0.04 0.05558137165290597 0
  endloop
endfacet
facet normal 1 -3.14075e-15 0
  outer loop
    vertex 0.04 0.06 0.009999999999999972
    vertex 0.03999999999999999 0.05779068582645298 0.004999999999999999
    vertex 0.04 0.06 0
  endloop
endfacet
facet normal 1 -3.14075e-15 0
  outer loop
    vertex 0.04 0.06 0.02
    vertex 0.03999999999999999 0.05779068582645298 0.015
    vertex 0.04 0.06 0.009999999999999972
  endloop
endfacet
facet normal 1 3.14075e-15 -0
  outer loop
    vertex 0.04 0.05558137165290597 0
    vertex 0.03999999999999999 0.05779068582645298 0.004999999999999999
    vertex 0.04 0.05558137165290597 0.01000000000000003
  endloop
endfacet
facet normal 1 3.14075e-15 -0
  outer loop
    vertex 0.04 0.05558137165290597 0.01000000000000003
    vertex 0.03999999999999999 0.05779068582645298 0.015
    vertex 0.04 0.05558137165290597 0.02
  endloop
endfacet
facet normal 0.94046 -0.339905 0
  outer loop
    vertex 0.03748894421149746 0.04863370019629272 0.02
    vertex 0.03874447210574873 0.05210753592459934 0.015
    vertex 0.04 0.05558137165290597 0.02
  endloop
endfacet
facet normal 0.94046 -0.339905 0
  outer loop
    vertex 0.04 0.05558137165290597 0
    vertex 0.03874447210574873 0.05210753592459934 0.005
    vertex 0.03748894421149746 0.04863370019629272 0
  endloop
endfacet
facet normal 0.94046 -0.339905 0
  outer loop
    vertex 0.03748894421149746 0.04863370019629272 0.01000000000000003
    vertex 0.03874447210574873 0.05210753592459934 0.005
    vertex 0.04 0.05558137165290597 0.009999999999999972
  endloop
endfacet
facet normal 0.94046 -0.339905 0
  outer loop
    vertex 0.04 0.05558137165290597 0.009999999999999972
    vertex 0.03874447210574873 0.05210753592459934 0.015
    vertex 0.03748894421149746 0.04863370019629272 0.01000000000000003
  endloop
endfacet
facet normal 0.94046 -0.339905 0
  outer loop
    vertex 0.04 0.05558137165290597 0.009999999999999972
    vertex 0.03874447210574873 0.05210753592459934 0.005
    vertex 0.04 0.05558137165290597 0
  endloop
endfacet
facet normal 0.94046 -0.339905 0
  outer loop
    vertex 0.04 0.05558137165290597 0.02
    vertex 0.03874447210574873 0.05210753592459934 0.015
    vertex 0.04 0.05558137165290597 0.009999999999999972
  endloop
endfacet
facet normal 0.94046 -0.339905 0
  outer loop
    vertex 0.03748894421149746 0.04863370019629272 0
    vertex 0.03874447210574873 0.05210753592459934 0.005
    vertex 0.03748894421149746 0.04863370019629272 0.01000000000000003
  endloop
endfacet
facet normal 0.94046 -0.339905 0
  outer loop
    vertex 0.03748894421149746 0.04863370019629272 0.01000000000000003
    vertex 0.03874447210574873 0.05210753592459934 0.015
    vertex 0.03748894421149746 0.04863370019629272 0.02
  endloop
endfacet
facet normal 0.904279 -0.426942 0
  outer loop
    vertex 0.03420870687253291 0.04168602873967948 0
    vertex 0.03584882554201519 0.0451598644679861 0.005
    vertex 0.03420870687253291 0.04168602873967948 0.01000000000000003
  endloop
endfacet
facet normal 0.904279 -0.426942 0
  outer loop
    vertex 0.03748894421149746 0.04863370019629272 0.02
    vertex 0.03584882554201519 0.0451598644679861 0.015
    vertex 0.03748894421149746 0.04863370019629272 0.009999999999999972
  endloop
endfacet
facet normal 0.904279 -0.426942 0
  outer loop
    vertex 0.03420870687253291 0.04168602873967948 0.01000000000000003
    vertex 0.03584882554201519 0.0451598644679861 0.015
    vertex 0.03420870687253291 0.04168602873967948 0.02
  endloop
endfacet
facet normal 0.904279 -0.426942 0
  outer loop
    vertex 0.03748894421149746 0.04863370019629272 0.009999999999999972
    vertex 0.03584882554201519 0.0451598644679861 0.005
    vertex 0.03748894421149746 0.04863370019629272 0
  endloop
endfacet
facet normal 0.904279 -0.426942 1.54345e-15
  outer loop
    vertex 0.03420870687253291 0.04168602873967948 0.02
    vertex 0.03584882554201519 0.0451598644679861 0.015
    vertex 0.03748894421149746 0.04863370019629272 0.02
  endloop
endfacet
facet normal 0.904279 -0.426942 1.54345e-15
  outer loop
    vertex 0.03420870687253291 0.04168602873967948 0.01000000000000003
    vertex 0.03584882554201519 0.0451598644679861 0.005
    vertex 0.03748894421149746 0.04863370019629272 0.009999999999999972
  endloop
endfacet
facet normal 0.904279 -0.426942 -1.54345e-15
  outer loop
    vertex 0.03748894421149746 0.04863370019629272 0
    vertex 0.03584882554201519 0.0451598644679861 0.005
    vertex 0.03420870687253291 0.04168602873967948 0
  endloop
endfacet
facet normal 0.904279 -0.426942 -1.54345e-15
  outer loop
    vertex 0.03748894421149746 0.04863370019629272 0.009999999999999972
    vertex 0.03584882554201519 0.0451598644679861 0.015
    vertex 0.03420870687253291 0.04168602873967948 0.01000000000000003
  endloop
endfacet
facet normal 0.88985 0.456253 -0
  outer loop
    vertex 0.03777098747952807 0.03473835728306623 0
    vertex 0.03598984717603049 0.03821219301137286 0.005
    vertex 0.03777098747952807 0.03473835728306623 0.01000000000000003
  endloop
endfacet
facet normal 0.88985 0.456253 0
  outer loop
    vertex 0.03420870687253291 0.04168602873967948 0.02
    vertex 0.03598984717603049 0.03821219301137286 0.015
    vertex 0.03420870687253291 0.04168602873967948 0.009999999999999972
  endloop
endfacet
facet normal 0.88985 0.456253 -0
  outer loop
    vertex 0.03777098747952807 0.03473835728306623 0.01000000000000003
    vertex 0.03598984717603049 0.03821219301137286 0.015
    vertex 0.03777098747952807 0.03473835728306623 0.02
  endloop
endfacet
facet normal 0.88985 0.456253 0
  outer loop
    vertex 0.03420870687253291 0.04168602873967948 0.009999999999999972
    vertex 0.03598984717603049 0.03821219301137286 0.005
    vertex 0.03420870687253291 0.04168602873967948 0
  endloop
endfacet
facet normal 0.88985 0.456253 -3.47159e-16
  outer loop
    vertex 0.03420870687253291 0.04168602873967948 0.009999999999999972
    vertex 0.03598984717603049 0.03821219301137286 0.015
    vertex 0.03777098747952807 0.03473835728306623 0.01000000000000003
  endloop
endfacet
facet normal 0.88985 0.456253 -3.47159e-16
  outer loop
    vertex 0.03420870687253291 0.04168602873967948 0
    vertex 0.03598984717603049 0.03821219301137286 0.005
    vertex 0.03777098747952807 0.03473835728306623 0
  endloop
endfacet
facet normal 0.88985 0.456253 3.03764e-16
  outer loop
    vertex 0.03777098747952807 0.03473835728306623 0.02
    vertex 0.03598984717603049 0.03821219301137286 0.015
    vertex 0.03420870687253291 0.04168602873967948 0.02
  endloop
endfacet
facet normal 0.88985 0.456253 3.03764e-16
  outer loop
    vertex 0.03777098747952807 0.03473835728306623 0.01000000000000003
    vertex 0.03598984717603049 0.03821219301137286 0.005
    vertex 0.03420870687253291 0.04168602873967948 0.009999999999999972
  endloop
endfacet
facet normal 0.997475 0.0710205 2.07342e-15
  outer loop
    vertex 0.03826566392964506 0.02779068582645298 0.01000000000000003
    vertex 0.03801832570458658 0.03126452155475961 0.005000000000000001
    vertex 0.03777098747952807 0.03473835728306623 0.009999999999999972
  endloop
endfacet
facet normal 0.997475 0.0710205 -2.0795e-15
  outer loop
    vertex 0.03777098747952807 0.03473835728306623 0.009999999999999972
    vertex 0.03801832570458658 0.03126452155475961 0.015
    vertex 0.03826566392964506 0.02779068582645298 0.01000000000000003
  endloop
endfacet
facet normal 0.997475 0.0710205 2.07342e-15
  outer loop
    vertex 0.03826566392964506 0.02779068582645298 0.02
    vertex 0.03801832570458658 0.03126452155475961 0.015
    vertex 0.03777098747952807 0.03473835728306623 0.02
  endloop
endfacet
facet normal 0.997475 0.0710205 -2.0795e-15
  outer loop
    vertex 0.03777098747952807 0.03473835728306623 0
    vertex 0.03801832570458658 0.03126452155475961 0.005000000000000001
    vertex 0.03826566392964506 0.02779068582645298 0
  endloop
endfacet
facet normal 0.997475 0.0710205 0
  outer loop
    vertex 0.03777098747952807 0.03473835728306623 0.009999999999999972
    vertex 0.03801832570458658 0.03126452155475961 0.005000000000000001
    vertex 0.03777098747952807 0.03473835728306623 0
  endloop
endfacet
facet normal 0.997475 0.0710205 0
  outer loop
    vertex 0.03777098747952807 0.03473835728306623 0.02
    vertex 0.03801832570458658 0.03126452155475961 0.015
    vertex 0.03777098747952807 0.03473835728306623 0.009999999999999972
  endloop
endfacet
facet normal 0.997475 0.0710205 -0
  outer loop
    vertex 0.03826566392964506 0.02779068582645298 0
    vertex 0.03801832570458658 0.03126452155475961 0.005000000000000001
    vertex 0.03826566392964506 0.02779068582645298 0.01000000000000003
  endloop
endfacet
facet normal 0.997475 0.0710205 -0
  outer loop
    vertex 0.03826566392964506 0.02779068582645298 0.01000000000000003
    vertex 0.03801832570458658 0.03126452155475961 0.015
    vertex 0.03826566392964506 0.02779068582645298 0.02
  endloop
endfacet
facet normal 0.915679 0.401911 0
  outer loop
    vertex 0.03826566392964506 0.02779068582645298 0.02
    vertex 0.0397904062823915 0.02431685009814636 0.015
    vertex 0.03826566392964506 0.02779068582645298 0.009999999999999972
  endloop
endfacet
facet normal 0.915679 0.401911 -0
  outer loop
    vertex 0.04131514863513796 0.02084301436983974 0
    vertex 0.0397904062823915 0.02431685009814636 0.005
    vertex 0.04131514863513796 0.02084301436983974 0.01000000000000003
  endloop
endfacet
facet normal 0.915679 0.401911 0
  outer loop
    vertex 0.03826566392964506 0.02779068582645298 0.009999999999999972
    vertex 0.0397904062823915 0.02431685009814636 0.005
    vertex 0.03826566392964506 0.02779068582645298 0
  endloop
endfacet
facet normal 0.915679 0.401911 -0
  outer loop
    vertex 0.04131514863513796 0.02084301436983974 0.01000000000000003
    vertex 0.0397904062823915 0.02431685009814636 0.015
    vertex 0.04131514863513796 0.02084301436983974 0.02
  endloop
endfacet
facet normal 0.915679 0.401911 -2.14341e-15
  outer loop
    vertex 0.04131514863513796 0.02084301436983974 0.01000000000000003
    vertex 0.0397904062823915 0.02431685009814636 0.005
    vertex 0.03826566392964506 0.02779068582645298 0.009999999999999972
  endloop
endfacet
facet normal 0.915679 0.401911 2.18806e-15
  outer loop
    vertex 0.03826566392964506 0.02779068582645298 0.009999999999999972
    vertex 0.0397904062823915 0.02431685009814636 0.015
    vertex 0.04131514863513796 0.02084301436983974 0.01000000000000003
  endloop
endfacet
facet normal 0.915679 0.401911 2.18806e-15
  outer loop
    vertex 0.03826566392964506 0.02779068582645298 0
    vertex 0.0397904062823915 0.02431685009814636 0.005
    vertex 0.04131514863513796 0.02084301436983974 0
  endloop
endfacet
facet normal 0.915679 0.401911 -2.14341e-15
  outer loop
    vertex 0.04131514863513796 0.02084301436983974 0.02
    vertex 0.0397904062823915 0.02431685009814636 0.015
    vertex 0.03826566392964506 0.02779068582645298 0.02
  endloop
endfacet
facet normal 0.89728 -0.441462 0
  outer loop
    vertex 0.0378968961404011 0.01389534291322649 0
    vertex 0.03960602238776954 0.01736917864153311 0.005000000000000001
    vertex 0.0378968961404011 0.01389534291322649 0.01000000000000003
  endloop
endfacet
facet normal 0.89728 -0.441462 0
  outer loop
    vertex 0.04131514863513796 0.02084301436983974 0.02
    vertex 0.03960602238776954 0.01736917864153311 0.015
    vertex 0.04131514863513796 0.02084301436983974 0.009999999999999972
  endloop
endfacet
facet normal 0.89728 -0.441462 0
  outer loop
    vertex 0.0378968961404011 0.01389534291322649 0.01000000000000003
    vertex 0.03960602238776954 0.01736917864153311 0.015
    vertex 0.0378968961404011 0.01389534291322649 0.02
  endloop
endfacet
facet normal 0.89728 -0.441462 0
  outer loop
    vertex 0.04131514863513796 0.02084301436983974 0.009999999999999972
    vertex 0.03960602238776954 0.01736917864153311 0.005000000000000001
    vertex 0.04131514863513796 0.02084301436983974 0
  endloop
endfacet
facet normal 0.89728 -0.441462 -1.57526e-15
  outer loop
    vertex 0.04131514863513796 0.02084301436983974 0
    vertex 0.03960602238776954 0.01736917864153311 0.005000000000000001
    vertex 0.0378968961404011 0.01389534291322649 0
  endloop
endfacet
facet normal 0.89728 -0.441462 -1.57526e-15
  outer loop
    vertex 0.04131514863513796 0.02084301436983974 0.009999999999999972
    vertex 0.03960602238776954 0.01736917864153311 0.015
    vertex 0.0378968961404011 0.01389534291322649 0.01000000000000003
  endloop
endfacet
facet normal 0.89728 -0.441462 1.5315e-15
  outer loop
    vertex 0.0378968961404011 0.01389534291322649 0.02
    vertex 0.03960602238776954 0.01736917864153311 0.015
    vertex 0.04131514863513796 0.02084301436983974 0.02
  endloop
endfacet
facet normal 0.89728 -0.441462 1.5315e-15
  outer loop
    vertex 0.0378968961404011 0.01389534291322649 0.01000000000000003
    vertex 0.03960602238776954 0.01736917864153311 0.005000000000000001
    vertex 0.04131514863513796 0.02084301436983974 0.009999999999999972
  endloop
endfacet
facet normal 0.997525 -0.0703128 -2.07352e-15
  outer loop
    vertex 0.0374071735491408 0.00694767145661325 0.02
    vertex 0.03765203484477094 0.01042150718491987 0.015
    vertex 0.0378968961404011 0.01389534291322649 0.02
  endloop
endfacet
facet normal 0.997525 -0.0703128 -2.07352e-15
  outer loop
    vertex 0.0374071735491408 0.00694767145661325 0.01000000000000003
    vertex 0.03765203484477094 0.01042150718491987 0.004999999999999999
    vertex 0.0378968961404011 0.01389534291322649 0.009999999999999972
  endloop
endfacet
facet normal 0.997525 -0.0703128 2.07961e-15
  outer loop
    vertex 0.0378968961404011 0.01389534291322649 0
    vertex 0.03765203484477094 0.01042150718491987 0.004999999999999999
    vertex 0.0374071735491408 0.00694767145661325 0
  endloop
endfacet
facet normal 0.997525 -0.0703128 2.07961e-15
  outer loop
    vertex 0.0378968961404011 0.01389534291322649 0.009999999999999972
    vertex 0.03765203484477094 0.01042150718491987 0.015
    vertex 0.0374071735491408 0.00694767145661325 0.01000000000000003
  endloop
endfacet
facet normal 0.997525 -0.0703128 0
  outer loop
    vertex 0.0378968961404011 0.01389534291322649 0.009999999999999972
    vertex 0.03765203484477094 0.01042150718491987 0.004999999999999999
    vertex 0.0378968961404011 0.01389534291322649 0
  endloop
endfacet
facet normal 0.997525 -0.0703128 0
  outer loop
    vertex 0.0378968961404011 0.01389534291322649 0.02
    vertex 0.03765203484477094 0.01042150718491987 0.015
    vertex 0.0378968961404011 0.01389534291322649 0.009999999999999972
  endloop
endfacet
facet normal 0.997525 -0.0703128 0
  outer loop
    vertex 0.0374071735491408 0.00694767145661325 0
    vertex 0.03765203484477094 0.01042150718491987 0.004999999999999999
    vertex 0.0374071735491408 0.00694767145661325 0.01000000000000003
  endloop
endfacet
facet normal 0.997525 -0.0703128 0
  outer loop
    vertex 0.0374071735491408 0.00694767145661325 0.01000000000000003
    vertex 0.03765203484477094 0.01042150718491987 0.015
    vertex 0.0374071735491408 0.00694767145661325 0.02
  endloop
endfacet
endsolid Created by Gmsh
