solid Created by Gmsh
facet normal 1 0 0
  outer loop
    vertex 0.04 0.05662231783557501 0
    vertex 0.04 0.06 0
    vertex 0.04 0.06 0.009999999999999972
  endloop
endfacet
facet normal 1 0 0
  outer loop
    vertex 0.04 0.05662231783557501 0.01000000000000003
    vertex 0.04 0.06 0.02
    vertex 0.04 0.05662231783557501 0.02
  endloop
endfacet
facet normal 1 0 -0
  outer loop
    vertex 0.04 0.06 0.009999999999999972
    vertex 0.04 0.06 0.02
    vertex 0.04 0.05662231783557501 0.01000000000000003
  endloop
endfacet
facet normal 1 0 0
  outer loop
    vertex 0.04 0.05662231783557501 0
    vertex 0.04 0.06 0.009999999999999972
    vertex 0.04 0.05662231783557501 0.01000000000000003
  endloop
endfacet
facet normal 0.799206 -0.601058 0
  outer loop
    vertex 0.04 0.05662231783557501 0.02
    vertex 0.03733850824028214 0.05308342297085158 0.015
    vertex 0.04 0.05662231783557501 0.009999999999999972
  endloop
endfacet
facet normal 0.799206 -0.601058 0
  outer loop
    vertex 0.03467701648056429 0.04954452810612813 0
    vertex 0.03733850824028214 0.05308342297085158 0.005
    vertex 0.03467701648056429 0.04954452810612813 0.01000000000000003
  endloop
endfacet
facet normal 0.799206 -0.601058 0
  outer loop
    vertex 0.04 0.05662231783557501 0.009999999999999972
    vertex 0.03733850824028214 0.05308342297085158 0.005
    vertex 0.04 0.05662231783557501 0
  endloop
endfacet
facet normal 0.799206 -0.601058 0
  outer loop
    vertex 0.03467701648056429 0.04954452810612813 0.01000000000000003
    vertex 0.03733850824028214 0.05308342297085158 0.015
    vertex 0.03467701648056429 0.04954452810612813 0.02
  endloop
endfacet
facet normal 0.799206 -0.601058 -1.37728e-15
  outer loop
    vertex 0.03467701648056429 0.04954452810612813 0.01000000000000003
    vertex 0.03733850824028214 0.05308342297085158 0.005
    vertex 0.04 0.05662231783557501 0.009999999999999972
  endloop
endfacet
facet normal 0.799206 -0.601058 1.37728e-15
  outer loop
    vertex 0.04 0.05662231783557501 0.009999999999999972
    vertex 0.03733850824028214 0.05308342297085158 0.015
    vertex 0.03467701648056429 0.04954452810612813 0.01000000000000003
  endloop
endfacet
facet normal 0.799206 -0.601058 -1.37728e-15
  outer loop
    vertex 0.03467701648056429 0.04954452810612813 0.02
    vertex 0.03733850824028214 0.05308342297085158 0.015
    vertex 0.04 0.05662231783557501 0.02
  endloop
endfacet
facet normal 0.799206 -0.601058 1.37728e-15
  outer loop
    vertex 0.04 0.05662231783557501 0
    vertex 0.03733850824028214 0.05308342297085158 0.005
    vertex 0.03467701648056429 0.04954452810612813 0
  endloop
endfacet
facet normal 0.546243 -0.837627 7.84459e-17
  outer loop
    vertex 0.02925036484894597 0.0460056332414047 0
    vertex 0.03467701648056429 0.04954452810612813 0.009999999999999972
    vertex 0.02382371321732763 0.04246673837668126 0.01000000000000003
  endloop
endfacet
facet normal 0.546243 -0.837627 1.04594e-16
  outer loop
    vertex 0.02382371321732763 0.04246673837668126 0.01000000000000003
    vertex 0.03467701648056429 0.04954452810612813 0.009999999999999972
    vertex 0.02925036484894595 0.04600563324140469 0.02
  endloop
endfacet
facet normal 0.546243 -0.837627 0
  outer loop
    vertex 0.02925036484894597 0.0460056332414047 0
    vertex 0.03467701648056429 0.04954452810612813 0
    vertex 0.03467701648056429 0.04954452810612813 0.009999999999999972
  endloop
endfacet
facet normal 0.546243 -0.837627 0
  outer loop
    vertex 0.03467701648056429 0.04954452810612813 0.009999999999999972
    vertex 0.03467701648056429 0.04954452810612813 0.02
    vertex 0.02925036484894595 0.04600563324140469 0.02
  endloop
endfacet
facet normal 0.546243 -0.837627 0
  outer loop
    vertex 0.02382371321732763 0.04246673837668126 0.01000000000000003
    vertex 0.02382371321732763 0.04246673837668126 0
    vertex 0.02925036484894597 0.0460056332414047 0
  endloop
endfacet
facet normal 0.546243 -0.837627 0
  outer loop
    vertex 0.02925036484894595 0.04600563324140469 0.02
    vertex 0.02382371321732763 0.04246673837668126 0.02
    vertex 0.02382371321732763 0.04246673837668126 0.01000000000000003
  endloop
endfacet
facet normal 0.99482 -0.101648 0
  outer loop
    vertex 0.02310052139363879 0.03538894864723438 0.01000000000000003
    vertex 0.02346211730548321 0.03892784351195782 0.005
    vertex 0.02382371321732763 0.04246673837668126 0.009999999999999972
  endloop
endfacet
facet normal 0.99482 -0.101648 0
  outer loop
    vertex 0.02382371321732763 0.04246673837668126 0.009999999999999972
    vertex 0.02346211730548321 0.03892784351195782 0.015
    vertex 0.02310052139363879 0.03538894864723438 0.01000000000000003
  endloop
endfacet
facet normal 0.99482 -0.101648 0
  outer loop
    vertex 0.02382371321732763 0.04246673837668126 0
    vertex 0.02346211730548321 0.03892784351195782 0.005
    vertex 0.02310052139363879 0.03538894864723438 0
  endloop
endfacet
facet normal 0.99482 -0.101648 0
  outer loop
    vertex 0.02310052139363879 0.03538894864723438 0.02
    vertex 0.02346211730548321 0.03892784351195782 0.015
    vertex 0.02382371321732763 0.04246673837668126 0.02
  endloop
endfacet
facet normal 0.99482 -0.101648 0
  outer loop
    vertex 0.02382371321732763 0.04246673837668126 0.009999999999999972
    vertex 0.02346211730548321 0.03892784351195782 0.005
    vertex 0.02382371321732763 0.04246673837668126 0
  endloop
endfacet
facet normal 0.99482 -0.101648 0
  outer loop
    vertex 0.02382371321732763 0.04246673837668126 0.02
    vertex 0.02346211730548321 0.03892784351195782 0.015
    vertex 0.02382371321732763 0.04246673837668126 0.009999999999999972
  endloop
endfacet
facet normal 0.99482 -0.101648 0
  outer loop
    vertex 0.02310052139363879 0.03538894864723438 0
    vertex 0.02346211730548321 0.03892784351195782 0.005
    vertex 0.02310052139363879 0.03538894864723438 0.01000000000000003
  endloop
endfacet
facet normal 0.99482 -0.101648 0
  outer loop
    vertex 0.02310052139363879 0.03538894864723438 0.01000000000000003
    vertex 0.02346211730548321 0.03892784351195782 0.015
    vertex 0.02310052139363879 0.03538894864723438 0.02
  endloop
endfacet
facet normal 0.952402 0.304845 -0
  outer loop
    vertex 0.02536598449700792 0.02831115891778751 0
    vertex 0.02423325294532335 0.03185005378251094 0.005
    vertex 0.02536598449700792 0.02831115891778751 0.01000000000000003
  endloop
endfacet
facet normal 0.952402 0.304845 0
  outer loop
    vertex 0.02310052139363879 0.03538894864723438 0.02
    vertex 0.02423325294532335 0.03185005378251094 0.015
    vertex 0.02310052139363879 0.03538894864723438 0.009999999999999972
  endloop
endfacet
facet normal 0.952402 0.304845 0
  outer loop
    vertex 0.02310052139363879 0.03538894864723438 0.009999999999999972
    vertex 0.02423325294532335 0.03185005378251094 0.005
    vertex 0.02310052139363879 0.03538894864723438 0
  endloop
endfacet
facet normal 0.952402 0.304845 -0
  outer loop
    vertex 0.02536598449700792 0.02831115891778751 0.01000000000000003
    vertex 0.02423325294532335 0.03185005378251094 0.015
    vertex 0.02536598449700792 0.02831115891778751 0.02
  endloop
endfacet
facet normal 0.952402 0.304845 -5.47097e-16
  outer loop
    vertex 0.02310052139363879 0.03538894864723438 0
    vertex 0.02423325294532335 0.03185005378251094 0.005
    vertex 0.02536598449700792 0.02831115891778751 0
  endloop
endfacet
facet normal 0.952402 0.304845 5.47097e-16
  outer loop
    vertex 0.02536598449700792 0.02831115891778751 0.02
    vertex 0.02423325294532335 0.03185005378251094 0.015
    vertex 0.02310052139363879 0.03538894864723438 0.02
  endloop
endfacet
facet normal 0.952402 0.304845 -5.47097e-16
  outer loop
    vertex 0.02310052139363879 0.03538894864723438 0.009999999999999972
    vertex 0.02423325294532335 0.03185005378251094 0.015
    vertex 0.02536598449700792 0.02831115891778751 0.01000000000000003
  endloop
endfacet
facet normal 0.952402 0.304845 5.47097e-16
  outer loop
    vertex 0.02536598449700792 0.02831115891778751 0.01000000000000003
    vertex 0.02423325294532335 0.03185005378251094 0.005
    vertex 0.02310052139363879 0.03538894864723438 0.009999999999999972
  endloop
endfacet
facet normal 0.929255 0.369439 -0
  outer loop
    vertex 0.02817986139204842 0.02123336918834063 0
    vertex 0.02677292294452816 0.02477226405306407 0.004999999999999999
    vertex 0.02817986139204842 0.02123336918834063 0.01000000000000003
  endloop
endfacet
facet normal 0.929255 0.369439 0
  outer loop
    vertex 0.02536598449700792 0.02831115891778751 0.02
    vertex 0.02677292294452816 0.02477226405306407 0.015
    vertex 0.02536598449700792 0.02831115891778751 0.009999999999999972
  endloop
endfacet
facet normal 0.929255 0.369439 -0
  outer loop
    vertex 0.02817986139204842 0.02123336918834063 0.01000000000000003
    vertex 0.02677292294452816 0.02477226405306407 0.015
    vertex 0.02817986139204842 0.02123336918834063 0.02
  endloop
endfacet
facet normal 0.929255 0.369439 0
  outer loop
    vertex 0.02536598449700792 0.02831115891778751 0.009999999999999972
    vertex 0.02677292294452816 0.02477226405306407 0.004999999999999999
    vertex 0.02536598449700792 0.02831115891778751 0
  endloop
endfacet
facet normal 0.929255 0.369439 4.89317e-16
  outer loop
    vertex 0.02536598449700792 0.02831115891778751 0
    vertex 0.02677292294452816 0.02477226405306407 0.004999999999999999
    vertex 0.02817986139204842 0.02123336918834063 0
  endloop
endfacet
facet normal 0.929255 0.369439 4.89317e-16
  outer loop
    vertex 0.02536598449700792 0.02831115891778751 0.009999999999999972
    vertex 0.02677292294452816 0.02477226405306407 0.015
    vertex 0.02817986139204842 0.02123336918834063 0.01000000000000003
  endloop
endfacet
facet normal 0.929255 0.369439 -5.338e-16
  outer loop
    vertex 0.02817986139204842 0.02123336918834063 0.02
    vertex 0.02677292294452816 0.02477226405306407 0.015
    vertex 0.02536598449700792 0.02831115891778751 0.02
  endloop
endfacet
facet normal 0.929255 0.369439 -5.338e-16
  outer loop
    vertex 0.02817986139204842 0.02123336918834063 0.01000000000000003
    vertex 0.02677292294452816 0.02477226405306407 0.004999999999999999
    vertex 0.02536598449700792 0.02831115891778751 0.009999999999999972
  endloop
endfacet
facet normal 0.999884 0.0152208 0
  outer loop
    vertex 0.02817986139204842 0.02123336918834063 0.009999999999999972
    vertex 0.02823373251191158 0.01769447432361719 0.015
    vertex 0.02828760363177474 0.01415557945889375 0.01000000000000003
  endloop
endfacet
facet normal 0.999884 0.0152208 0
  outer loop
    vertex 0.02817986139204842 0.02123336918834063 0
    vertex 0.02823373251191158 0.01769447432361719 0.005
    vertex 0.02828760363177474 0.01415557945889375 0
  endloop
endfacet
facet normal 0.999884 0.0152208 0
  outer loop
    vertex 0.02828760363177474 0.01415557945889375 0.02
    vertex 0.02823373251191158 0.01769447432361719 0.015
    vertex 0.02817986139204842 0.02123336918834063 0.02
  endloop
endfacet
facet normal 0.999884 0.0152208 0
  outer loop
    vertex 0.02828760363177474 0.01415557945889375 0.01000000000000003
    vertex 0.02823373251191158 0.01769447432361719 0.005
    vertex 0.02817986139204842 0.02123336918834063 0.009999999999999972
  endloop
endfacet
facet normal 0.999884 0.0152208 0
  outer loop
    vertex 0.02817986139204842 0.02123336918834063 0.009999999999999972
    vertex 0.02823373251191158 0.01769447432361719 0.005
    vertex 0.02817986139204842 0.02123336918834063 0
  endloop
endfacet
facet normal 0.999884 0.0152208 0
  outer loop
    vertex 0.02817986139204842 0.02123336918834063 0.02
    vertex 0.02823373251191158 0.01769447432361719 0.015
    vertex 0.02817986139204842 0.02123336918834063 0.009999999999999972
  endloop
endfacet
facet normal 0.999884 0.0152208 -0
  outer loop
    vertex 0.02828760363177474 0.01415557945889375 0
    vertex 0.02823373251191158 0.01769447432361719 0.005
    vertex 0.02828760363177474 0.01415557945889375 0.01000000000000003
  endloop
endfacet
facet normal 0.999884 0.0152208 -0
  outer loop
    vertex 0.02828760363177474 0.01415557945889375 0.01000000000000003
    vertex 0.02823373251191158 0.01769447432361719 0.015
    vertex 0.02828760363177474 0.01415557945889375 0.02
  endloop
endfacet
facet normal 0.975091 0.221805 0
  outer loop
    vertex 0.02989759868997013 0.007077789729446879 0.02
    vertex 0.02909260116087243 0.01061668459417031 0.015
    vertex 0.02828760363177474 0.01415557945889375 0.02
  endloop
endfacet
facet normal 0.975091 0.221805 0
  outer loop
    vertex 0.02989759868997013 0.007077789729446879 0.01000000000000003
    vertex 0.02909260116087243 0.01061668459417031 0.005
    vertex 0.02828760363177474 0.01415557945889375 0.009999999999999972
  endloop
endfacet
facet normal 0.975091 0.221805 0
  outer loop
    vertex 0.02828760363177474 0.01415557945889375 0
    vertex 0.02909260116087243 0.01061668459417031 0.005
    vertex 0.02989759868997013 0.007077789729446879 0
  endloop
endfacet
facet normal 0.975091 0.221805 0
  outer loop
    vertex 0.02828760363177474 0.01415557945889375 0.009999999999999972
    vertex 0.02909260116087243 0.01061668459417031 0.015
    vertex 0.02989759868997013 0.007077789729446879 0.01000000000000003
  endloop
endfacet
facet normal 0.975091 0.221805 0
  outer loop
    vertex 0.02828760363177474 0.01415557945889375 0.009999999999999972
    vertex 0.02909260116087243 0.01061668459417031 0.005
    vertex 0.02828760363177474 0.01415557945889375 0
  endloop
endfacet
facet normal 0.975091 0.221805 0
  outer loop
    vertex 0.02828760363177474 0.01415557945889375 0.02
    vertex 0.02909260116087243 0.01061668459417031 0.015
    vertex 0.02828760363177474 0.01415557945889375 0.009999999999999972
  endloop
endfacet
facet normal 0.975091 0.221805 -0
  outer loop
    vertex 0.02989759868997013 0.007077789729446879 0
    vertex 0.02909260116087243 0.01061668459417031 0.005
    vertex 0.02989759868997013 0.007077789729446879 0.01000000000000003
  endloop
endfacet
facet normal 0.975091 0.221805 -0
  outer loop
    vertex 0.02989759868997013 0.007077789729446879 0.01000000000000003
    vertex 0.02909260116087243 0.01061668459417031 0.015
    vertex 0.02989759868997013 0.007077789729446879 0.02
  endloop
endfacet
endsolid Created by Gmsh
