solid Created by Gmsh
facet normal 0.993811 -0.111084 -1.80558e-16
  outer loop
    vertex 0.01325500143311199 0.04701361886209543 0.02
    vertex 0.01358343902268148 0.04995197004097636 0.008496711560269357
    vertex 0.01456875179138998 0.05876702357761927 0.02
  endloop
endfacet
facet normal 0.993811 -0.111084 0
  outer loop
    vertex 0.01456875179138998 0.05876702357761927 0.009999999999999972
    vertex 0.01358343902268148 0.04995197004097636 0.008496711560269357
    vertex 0.01456875179138998 0.05876702357761927 0
  endloop
endfacet
facet normal 0.993811 -0.111084 0
  outer loop
    vertex 0.008 0 0
    vertex 0.008985312768708498 0.00881505353664291 0.008496711560269384
    vertex 0.008 0 0.01000000000000003
  endloop
endfacet
facet normal 0.993811 -0.111084 1.68585e-16
  outer loop
    vertex 0.01456875179138998 0.05876702357761927 0
    vertex 0.01358343902268148 0.04995197004097636 0.008496711560269357
    vertex 0.01325500143311198 0.04701361886209536 0
  endloop
endfacet
facet normal 0.993811 -0.111084 1.0958e-16
  outer loop
    vertex 0.009313750358277995 0.01175340471552384 0
    vertex 0.008985312768708498 0.00881505353664291 0.008496711560269384
    vertex 0.008 0 0
  endloop
endfacet
facet normal 0.993811 -0.111084 4.40769e-17
  outer loop
    vertex 0.01062750071655599 0.0235068094310477 0
    vertex 0.01002536513567858 0.01811983226976596 0.009749451926711564
    vertex 0.009313750358277995 0.01175340471552384 0
  endloop
endfacet
facet normal 0.993811 -0.111084 -3.49352e-17
  outer loop
    vertex 0.01194125107483399 0.03526021414657157 0.02
    vertex 0.0125433866557114 0.04064719130785331 0.009749451926711559
    vertex 0.01325500143311199 0.04701361886209543 0.02
  endloop
endfacet
facet normal 0.993811 -0.111084 -1.57566e-16
  outer loop
    vertex 0.010627500716556 0.02350680943104774 0.02
    vertex 0.01128437589569499 0.02938351178880964 0.01
    vertex 0.01194125107483399 0.03526021414657157 0.02
  endloop
endfacet
facet normal 0.993811 -0.111084 -1.47541e-17
  outer loop
    vertex 0.01128437589569499 0.02938351178880964 0.01
    vertex 0.0125433866557114 0.04064719130785331 0.009749451926711559
    vertex 0.01194125107483399 0.03526021414657157 0.02
  endloop
endfacet
facet normal 0.993811 -0.111084 0
  outer loop
    vertex 0.01325500143311198 0.04701361886209536 0
    vertex 0.0125433866557114 0.04064719130785331 0.009749451926711559
    vertex 0.01194125107483399 0.03526021414657154 0
  endloop
endfacet
facet normal 0.993811 -0.111084 1.7189e-16
  outer loop
    vertex 0.01194125107483399 0.03526021414657154 0
    vertex 0.01128437589569499 0.02938351178880964 0.01
    vertex 0.01062750071655599 0.0235068094310477 0
  endloop
endfacet
facet normal 0.993811 -0.111084 -8.38445e-17
  outer loop
    vertex 0.009313750358278004 0.01175340471552391 0.02
    vertex 0.01002536513567858 0.01811983226976596 0.009749451926711564
    vertex 0.010627500716556 0.02350680943104774 0.02
  endloop
endfacet
facet normal 0.993811 -0.111084 6.05799e-17
  outer loop
    vertex 0.01194125107483399 0.03526021414657154 0
    vertex 0.0125433866557114 0.04064719130785331 0.009749451926711559
    vertex 0.01128437589569499 0.02938351178880964 0.01
  endloop
endfacet
facet normal 0.993811 -0.111084 -1.5123e-16
  outer loop
    vertex 0.010627500716556 0.02350680943104774 0.02
    vertex 0.01002536513567858 0.01811983226976596 0.009749451926711564
    vertex 0.01128437589569499 0.02938351178880964 0.01
  endloop
endfacet
facet normal 0.993811 -0.111084 1.59022e-16
  outer loop
    vertex 0.01128437589569499 0.02938351178880964 0.01
    vertex 0.01002536513567858 0.01811983226976596 0.009749451926711564
    vertex 0.01062750071655599 0.0235068094310477 0
  endloop
endfacet
facet normal 0.993811 -0.111084 -2.14863e-16
  outer loop
    vertex 0.008 0 0.02
    vertex 0.008600940839385632 0.005376288463695603 0.01500000000000001
    vertex 0.009313750358278004 0.01175340471552391 0.02
  endloop
endfacet
facet normal 0.993811 -0.111084 -1.71038e-16
  outer loop
    vertex 0.0125433866557114 0.04064719130785331 0.009749451926711559
    vertex 0.01358343902268148 0.04995197004097636 0.008496711560269357
    vertex 0.01325500143311199 0.04701361886209543 0.02
  endloop
endfacet
facet normal 0.993811 -0.111084 -1.30315e-16
  outer loop
    vertex 0.009313750358278004 0.01175340471552391 0.02
    vertex 0.008985312768708498 0.00881505353664291 0.008496711560269384
    vertex 0.01002536513567858 0.01811983226976596 0.009749451926711564
  endloop
endfacet
facet normal 0.993811 -0.111084 -1.21965e-16
  outer loop
    vertex 0.009313750358278004 0.01175340471552391 0.02
    vertex 0.008600940839385632 0.005376288463695603 0.01500000000000001
    vertex 0.008985312768708498 0.00881505353664291 0.008496711560269384
  endloop
endfacet
facet normal 0.993811 -0.111084 5.0869e-17
  outer loop
    vertex 0.01002536513567858 0.01811983226976596 0.009749451926711564
    vertex 0.008985312768708498 0.00881505353664291 0.008496711560269384
    vertex 0.009313750358277995 0.01175340471552384 0
  endloop
endfacet
facet normal 0.993811 -0.111084 1.06825e-16
  outer loop
    vertex 0.01325500143311198 0.04701361886209536 0
    vertex 0.01358343902268148 0.04995197004097636 0.008496711560269357
    vertex 0.0125433866557114 0.04064719130785331 0.009749451926711559
  endloop
endfacet
facet normal 0.993811 -0.111084 0
  outer loop
    vertex 0.008 0 0.01000000000000003
    vertex 0.008600940839385632 0.005376288463695603 0.01500000000000001
    vertex 0.008 0 0.02
  endloop
endfacet
facet normal 0.993811 -0.111084 2.42092e-17
  outer loop
    vertex 0.008985312768708498 0.00881505353664291 0.008496711560269384
    vertex 0.008600940839385632 0.005376288463695603 0.01500000000000001
    vertex 0.008 0 0.01000000000000003
  endloop
endfacet
facet normal 0.993811 -0.111084 0
  outer loop
    vertex 0.01456875179138998 0.05876702357761927 0.02
    vertex 0.01358343902268148 0.04995197004097636 0.008496711560269357
    vertex 0.01456875179138998 0.05876702357761927 0.009999999999999972
  endloop
endfacet
endsolid Created by Gmsh
