solid Created by Gmsh
facet normal 1 0 0
  outer loop
    vertex 0.04 0.05786646823758387 0
    vertex 0.04 0.06 0
    vertex 0.04 0.06 0.009999999999999972
  endloop
endfacet
facet normal 1 0 0
  outer loop
    vertex 0.04 0.05786646823758387 0.01000000000000003
    vertex 0.04 0.06 0.02
    vertex 0.04 0.05786646823758387 0.02
  endloop
endfacet
facet normal 1 0 -0
  outer loop
    vertex 0.04 0.06 0.009999999999999972
    vertex 0.04 0.06 0.02
    vertex 0.04 0.05786646823758387 0.01000000000000003
  endloop
endfacet
facet normal 1 0 0
  outer loop
    vertex 0.04 0.05786646823758387 0
    vertex 0.04 0.06 0.009999999999999972
    vertex 0.04 0.05786646823758387 0.01000000000000003
  endloop
endfacet
facet normal 0.705315 0.708894 9.91123e-16
  outer loop
    vertex 0.04 0.05786646823758387 0
    vertex 0.04363501055996366 0.05424981397273485 0.005000000000000015
    vertex 0.04727002111992729 0.05063315970788589 0
  endloop
endfacet
facet normal 0.705315 0.708894 -9.91123e-16
  outer loop
    vertex 0.04727002111992729 0.05063315970788589 0.02
    vertex 0.04363501055996362 0.05424981397273489 0.01499999999999999
    vertex 0.04 0.05786646823758387 0.02
  endloop
endfacet
facet normal 0.705315 0.708894 0
  outer loop
    vertex 0.04 0.05786646823758387 0.02
    vertex 0.04363501055996362 0.05424981397273489 0.01499999999999999
    vertex 0.04 0.05786646823758387 0.009999999999999972
  endloop
endfacet
facet normal 0.705315 0.708894 -0
  outer loop
    vertex 0.04727002111992729 0.05063315970788589 0
    vertex 0.04363501055996366 0.05424981397273485 0.005000000000000015
    vertex 0.04727002111992729 0.05063315970788589 0.01000000000000003
  endloop
endfacet
facet normal 0.705315 0.708894 0
  outer loop
    vertex 0.04 0.05786646823758387 0.009999999999999972
    vertex 0.04363501055996366 0.05424981397273485 0.005000000000000015
    vertex 0.04 0.05786646823758387 0
  endloop
endfacet
facet normal 0.705315 0.708894 -0
  outer loop
    vertex 0.04727002111992729 0.05063315970788589 0.01000000000000003
    vertex 0.04363501055996362 0.05424981397273489 0.01499999999999999
    vertex 0.04727002111992729 0.05063315970788589 0.02
  endloop
endfacet
facet normal 0.705315 0.708894 0
  outer loop
    vertex 0.04727002111992729 0.05063315970788589 0.01000000000000003
    vertex 0.04363501055996366 0.05424981397273485 0.005000000000000015
    vertex 0.04363501055996362 0.05424981397273489 0.01499999999999999
  endloop
endfacet
facet normal 0.705315 0.708894 -1.4904e-17
  outer loop
    vertex 0.04363501055996362 0.05424981397273489 0.01499999999999999
    vertex 0.04363501055996366 0.05424981397273485 0.005000000000000015
    vertex 0.04 0.05786646823758387 0.009999999999999972
  endloop
endfacet
facet normal 0.742286 0.670083 0
  outer loop
    vertex 0.04727002111992729 0.05063315970788589 0.02
    vertex 0.05053487639155273 0.04701650544303689 0.015
    vertex 0.04727002111992729 0.05063315970788589 0.009999999999999972
  endloop
endfacet
facet normal 0.742286 0.670083 -0
  outer loop
    vertex 0.05379973166317818 0.0433998511781879 0
    vertex 0.05053487639155273 0.04701650544303689 0.005
    vertex 0.05379973166317818 0.0433998511781879 0.01000000000000003
  endloop
endfacet
facet normal 0.742286 0.670083 0
  outer loop
    vertex 0.04727002111992729 0.05063315970788589 0.009999999999999972
    vertex 0.05053487639155273 0.04701650544303689 0.005
    vertex 0.04727002111992729 0.05063315970788589 0
  endloop
endfacet
facet normal 0.742286 0.670083 -0
  outer loop
    vertex 0.05379973166317818 0.0433998511781879 0.01000000000000003
    vertex 0.05053487639155273 0.04701650544303689 0.015
    vertex 0.05379973166317818 0.0433998511781879 0.02
  endloop
endfacet
facet normal 0.742286 0.670083 -1.04308e-15
  outer loop
    vertex 0.05379973166317818 0.0433998511781879 0.01000000000000003
    vertex 0.05053487639155273 0.04701650544303689 0.005
    vertex 0.04727002111992729 0.05063315970788589 0.009999999999999972
  endloop
endfacet
facet normal 0.742286 0.670083 1.04308e-15
  outer loop
    vertex 0.04727002111992729 0.05063315970788589 0.009999999999999972
    vertex 0.05053487639155273 0.04701650544303689 0.015
    vertex 0.05379973166317818 0.0433998511781879 0.01000000000000003
  endloop
endfacet
facet normal 0.742286 0.670083 1.04308e-15
  outer loop
    vertex 0.04727002111992729 0.05063315970788589 0
    vertex 0.05053487639155273 0.04701650544303689 0.005
    vertex 0.05379973166317818 0.0433998511781879 0
  endloop
endfacet
facet normal 0.742286 0.670083 -1.04308e-15
  outer loop
    vertex 0.05379973166317818 0.0433998511781879 0.02
    vertex 0.05053487639155273 0.04701650544303689 0.015
    vertex 0.04727002111992729 0.05063315970788589 0.02
  endloop
endfacet
facet normal 0.839907 -0.54273 0
  outer loop
    vertex 0.05379973166317818 0.0433998511781879 0.02
    vertex 0.05146272803514423 0.03978319691333891 0.015
    vertex 0.05379973166317818 0.0433998511781879 0.009999999999999972
  endloop
endfacet
facet normal 0.839907 -0.54273 0
  outer loop
    vertex 0.0491257244071103 0.03616654264848992 0
    vertex 0.05146272803514423 0.03978319691333891 0.005
    vertex 0.0491257244071103 0.03616654264848992 0.01000000000000003
  endloop
endfacet
facet normal 0.839907 -0.54273 0
  outer loop
    vertex 0.05379973166317818 0.0433998511781879 0.009999999999999972
    vertex 0.05146272803514423 0.03978319691333891 0.005
    vertex 0.05379973166317818 0.0433998511781879 0
  endloop
endfacet
facet normal 0.839907 -0.54273 0
  outer loop
    vertex 0.0491257244071103 0.03616654264848992 0.01000000000000003
    vertex 0.05146272803514423 0.03978319691333891 0.015
    vertex 0.0491257244071103 0.03616654264848992 0.02
  endloop
endfacet
facet normal 0.839907 -0.54273 -1.49499e-15
  outer loop
    vertex 0.0491257244071103 0.03616654264848992 0.01000000000000003
    vertex 0.05146272803514423 0.03978319691333891 0.005
    vertex 0.05379973166317818 0.0433998511781879 0.009999999999999972
  endloop
endfacet
facet normal 0.839907 -0.54273 -1.49499e-15
  outer loop
    vertex 0.0491257244071103 0.03616654264848992 0.02
    vertex 0.05146272803514423 0.03978319691333891 0.015
    vertex 0.05379973166317818 0.0433998511781879 0.02
  endloop
endfacet
facet normal 0.839907 -0.54273 1.49499e-15
  outer loop
    vertex 0.05379973166317818 0.0433998511781879 0.009999999999999972
    vertex 0.05146272803514423 0.03978319691333891 0.015
    vertex 0.0491257244071103 0.03616654264848992 0.01000000000000003
  endloop
endfacet
facet normal 0.839907 -0.54273 1.49499e-15
  outer loop
    vertex 0.05379973166317818 0.0433998511781879 0
    vertex 0.05146272803514423 0.03978319691333891 0.005
    vertex 0.0491257244071103 0.03616654264848992 0
  endloop
endfacet
facet normal 0.897202 0.44162 0
  outer loop
    vertex 0.0491257244071103 0.03616654264848992 0.02
    vertex 0.05090590946079783 0.03254988838364092 0.015
    vertex 0.0491257244071103 0.03616654264848992 0.009999999999999972
  endloop
endfacet
facet normal 0.897202 0.44162 -0
  outer loop
    vertex 0.05268609451448535 0.02893323411879193 0
    vertex 0.05090590946079783 0.03254988838364092 0.004999999999999999
    vertex 0.05268609451448535 0.02893323411879193 0.01000000000000003
  endloop
endfacet
facet normal 0.897202 0.44162 0
  outer loop
    vertex 0.0491257244071103 0.03616654264848992 0.009999999999999972
    vertex 0.05090590946079783 0.03254988838364092 0.004999999999999999
    vertex 0.0491257244071103 0.03616654264848992 0
  endloop
endfacet
facet normal 0.897202 0.44162 -0
  outer loop
    vertex 0.05268609451448535 0.02893323411879193 0.01000000000000003
    vertex 0.05090590946079783 0.03254988838364092 0.015
    vertex 0.05268609451448535 0.02893323411879193 0.02
  endloop
endfacet
facet normal 0.897202 0.44162 4.62281e-16
  outer loop
    vertex 0.05268609451448535 0.02893323411879193 0.02
    vertex 0.05090590946079783 0.03254988838364092 0.015
    vertex 0.0491257244071103 0.03616654264848992 0.02
  endloop
endfacet
facet normal 0.897202 0.44162 4.62281e-16
  outer loop
    vertex 0.05268609451448535 0.02893323411879193 0.01000000000000003
    vertex 0.05090590946079783 0.03254988838364092 0.004999999999999999
    vertex 0.0491257244071103 0.03616654264848992 0.009999999999999972
  endloop
endfacet
facet normal 0.897202 0.44162 -4.62281e-16
  outer loop
    vertex 0.0491257244071103 0.03616654264848992 0
    vertex 0.05090590946079783 0.03254988838364092 0.004999999999999999
    vertex 0.05268609451448535 0.02893323411879193 0
  endloop
endfacet
facet normal 0.897202 0.44162 -4.62281e-16
  outer loop
    vertex 0.0491257244071103 0.03616654264848992 0.009999999999999972
    vertex 0.05090590946079783 0.03254988838364092 0.015
    vertex 0.05268609451448535 0.02893323411879193 0.01000000000000003
  endloop
endfacet
facet normal 0.564793 -0.825233 -5.29106e-17
  outer loop
    vertex 0.04740171084896566 0.02531657985394294 0
    vertex 0.05268609451448535 0.02893323411879193 0.009999999999999972
    vertex 0.04211732718344598 0.02169992558909395 0.01000000000000003
  endloop
endfacet
facet normal 0.564793 -0.825233 -5.29106e-17
  outer loop
    vertex 0.04211732718344598 0.02169992558909395 0.01000000000000003
    vertex 0.05268609451448535 0.02893323411879193 0.009999999999999972
    vertex 0.04740171084896567 0.02531657985394294 0.02
  endloop
endfacet
facet normal 0.564793 -0.825233 0
  outer loop
    vertex 0.04740171084896566 0.02531657985394294 0
    vertex 0.05268609451448535 0.02893323411879193 0
    vertex 0.05268609451448535 0.02893323411879193 0.009999999999999972
  endloop
endfacet
facet normal 0.564793 -0.825233 0
  outer loop
    vertex 0.05268609451448535 0.02893323411879193 0.009999999999999972
    vertex 0.05268609451448535 0.02893323411879193 0.02
    vertex 0.04740171084896567 0.02531657985394294 0.02
  endloop
endfacet
facet normal 0.564793 -0.825233 0
  outer loop
    vertex 0.04211732718344598 0.02169992558909395 0.01000000000000003
    vertex 0.04211732718344598 0.02169992558909395 0
    vertex 0.04740171084896566 0.02531657985394294 0
  endloop
endfacet
facet normal 0.564793 -0.825233 0
  outer loop
    vertex 0.04740171084896567 0.02531657985394294 0.02
    vertex 0.04211732718344598 0.02169992558909395 0.02
    vertex 0.04211732718344598 0.02169992558909395 0.01000000000000003
  endloop
endfacet
facet normal 0.627851 -0.778334 0
  outer loop
    vertex 0.04211732718344598 0.02169992558909395 0
    vertex 0.03763383335869552 0.01808327132424496 0.005728862973760926
    vertex 0.03315033953394507 0.01446661705939597 0
  endloop
endfacet
facet normal 0.627851 -0.778334 0
  outer loop
    vertex 0.03315033953394507 0.01446661705939597 0.02
    vertex 0.03763383335869552 0.01808327132424496 0.01432426114969104
    vertex 0.04211732718344598 0.02169992558909395 0.02
  endloop
endfacet
facet normal 0.627851 -0.778334 0
  outer loop
    vertex 0.04211732718344598 0.02169992558909395 0.009999999999999972
    vertex 0.03763383335869552 0.01808327132424496 0.01432426114969104
    vertex 0.03763383335869552 0.01808327132424496 0.005728862973760926
  endloop
endfacet
facet normal 0.627851 -0.778334 0
  outer loop
    vertex 0.03763383335869552 0.01808327132424496 0.005728862973760926
    vertex 0.03763383335869552 0.01808327132424496 0.01432426114969104
    vertex 0.03315033953394507 0.01446661705939597 0.01000000000000003
  endloop
endfacet
facet normal 0.627851 -0.778334 0
  outer loop
    vertex 0.04211732718344598 0.02169992558909395 0.02
    vertex 0.03763383335869552 0.01808327132424496 0.01432426114969104
    vertex 0.04211732718344598 0.02169992558909395 0.009999999999999972
  endloop
endfacet
facet normal 0.627851 -0.778334 0
  outer loop
    vertex 0.03315033953394507 0.01446661705939597 0
    vertex 0.03763383335869552 0.01808327132424496 0.005728862973760926
    vertex 0.03315033953394507 0.01446661705939597 0.01000000000000003
  endloop
endfacet
facet normal 0.627851 -0.778334 0
  outer loop
    vertex 0.04211732718344598 0.02169992558909395 0.009999999999999972
    vertex 0.03763383335869552 0.01808327132424496 0.005728862973760926
    vertex 0.04211732718344598 0.02169992558909395 0
  endloop
endfacet
facet normal 0.627851 -0.778334 0
  outer loop
    vertex 0.03315033953394507 0.01446661705939597 0.01000000000000003
    vertex 0.03763383335869552 0.01808327132424496 0.01432426114969104
    vertex 0.03315033953394507 0.01446661705939597 0.02
  endloop
endfacet
facet normal 0.952568 0.304326 -0
  outer loop
    vertex 0.03546123577811219 0.007233308529697981 0
    vertex 0.03430578765602863 0.01084996279454697 0.005000000000000001
    vertex 0.03546123577811219 0.007233308529697981 0.01000000000000003
  endloop
endfacet
facet normal 0.952568 0.304326 0
  outer loop
    vertex 0.03315033953394507 0.01446661705939597 0.02
    vertex 0.03430578765602863 0.01084996279454697 0.015
    vertex 0.03315033953394507 0.01446661705939597 0.009999999999999972
  endloop
endfacet
facet normal 0.952568 0.304326 0
  outer loop
    vertex 0.03315033953394507 0.01446661705939597 0.009999999999999972
    vertex 0.03430578765602863 0.01084996279454697 0.005000000000000001
    vertex 0.03315033953394507 0.01446661705939597 0
  endloop
endfacet
facet normal 0.952568 0.304326 -0
  outer loop
    vertex 0.03546123577811219 0.007233308529697981 0.01000000000000003
    vertex 0.03430578765602863 0.01084996279454697 0.015
    vertex 0.03546123577811219 0.007233308529697981 0.02
  endloop
endfacet
facet normal 0.952568 0.304326 0
  outer loop
    vertex 0.03546123577811219 0.007233308529697981 0.01000000000000003
    vertex 0.03430578765602863 0.01084996279454697 0.005000000000000001
    vertex 0.03315033953394507 0.01446661705939597 0.009999999999999972
  endloop
endfacet
facet normal 0.952568 0.304326 0
  outer loop
    vertex 0.03315033953394507 0.01446661705939597 0.009999999999999972
    vertex 0.03430578765602863 0.01084996279454697 0.015
    vertex 0.03546123577811219 0.007233308529697981 0.01000000000000003
  endloop
endfacet
facet normal 0.952568 0.304326 0
  outer loop
    vertex 0.03546123577811219 0.007233308529697981 0.02
    vertex 0.03430578765602863 0.01084996279454697 0.015
    vertex 0.03315033953394507 0.01446661705939597 0.02
  endloop
endfacet
facet normal 0.952568 0.304326 0
  outer loop
    vertex 0.03315033953394507 0.01446661705939597 0
    vertex 0.03430578765602863 0.01084996279454697 0.005000000000000001
    vertex 0.03546123577811219 0.007233308529697981 0
  endloop
endfacet
endsolid Created by Gmsh
