solid Created by Gmsh
facet normal 1 0 0
  outer loop
    vertex 0.04 0.0574935513688101 0
    vertex 0.04 0.06 0
    vertex 0.04 0.06 0.009999999999999972
  endloop
endfacet
facet normal 1 0 0
  outer loop
    vertex 0.04 0.0574935513688101 0.01000000000000003
    vertex 0.04 0.06 0.02
    vertex 0.04 0.0574935513688101 0.02
  endloop
endfacet
facet normal 1 0 -0
  outer loop
    vertex 0.04 0.06 0.009999999999999972
    vertex 0.04 0.06 0.02
    vertex 0.04 0.0574935513688101 0.01000000000000003
  endloop
endfacet
facet normal 1 0 0
  outer loop
    vertex 0.04 0.0574935513688101 0
    vertex 0.04 0.06 0.009999999999999972
    vertex 0.04 0.0574935513688101 0.01000000000000003
  endloop
endfacet
facet normal 0.867049 0.498222 0
  outer loop
    vertex 0.04 0.0574935513688101 0.02
    vertex 0.04206480249913076 0.05390020440825946 0.015
    vertex 0.04 0.0574935513688101 0.009999999999999972
  endloop
endfacet
facet normal 0.867049 0.498222 -0
  outer loop
    vertex 0.04412960499826154 0.05030685744770884 0
    vertex 0.04206480249913076 0.05390020440825946 0.004999999999999999
    vertex 0.04412960499826154 0.05030685744770884 0.01000000000000003
  endloop
endfacet
facet normal 0.867049 0.498222 0
  outer loop
    vertex 0.04 0.0574935513688101 0.009999999999999972
    vertex 0.04206480249913076 0.05390020440825946 0.004999999999999999
    vertex 0.04 0.0574935513688101 0
  endloop
endfacet
facet normal 0.867049 0.498222 -0
  outer loop
    vertex 0.04412960499826154 0.05030685744770884 0.01000000000000003
    vertex 0.04206480249913076 0.05390020440825946 0.015
    vertex 0.04412960499826154 0.05030685744770884 0.02
  endloop
endfacet
facet normal 0.867049 0.498222 -3.47451e-15
  outer loop
    vertex 0.04412960499826154 0.05030685744770884 0.01000000000000003
    vertex 0.04206480249913076 0.05390020440825946 0.004999999999999999
    vertex 0.04 0.0574935513688101 0.009999999999999972
  endloop
endfacet
facet normal 0.867049 0.498222 3.43364e-15
  outer loop
    vertex 0.04 0.0574935513688101 0.009999999999999972
    vertex 0.04206480249913076 0.05390020440825946 0.015
    vertex 0.04412960499826154 0.05030685744770884 0.01000000000000003
  endloop
endfacet
facet normal 0.867049 0.498222 3.43364e-15
  outer loop
    vertex 0.04 0.0574935513688101 0
    vertex 0.04206480249913076 0.05390020440825946 0.004999999999999999
    vertex 0.04412960499826154 0.05030685744770884 0
  endloop
endfacet
facet normal 0.867049 0.498222 -3.47451e-15
  outer loop
    vertex 0.04412960499826154 0.05030685744770884 0.02
    vertex 0.04206480249913076 0.05390020440825946 0.015
    vertex 0.04 0.0574935513688101 0.02
  endloop
endfacet
facet normal 0.999274 -0.0380919 0
  outer loop
    vertex 0.04412960499826154 0.05030685744770884 0.009999999999999972
    vertex 0.0439926282294552 0.04671351048715821 0.015
    vertex 0.04385565146064887 0.04312016352660758 0.01000000000000003
  endloop
endfacet
facet normal 0.999274 -0.0380919 0
  outer loop
    vertex 0.04412960499826154 0.05030685744770884 0
    vertex 0.0439926282294552 0.04671351048715821 0.005
    vertex 0.04385565146064887 0.04312016352660758 0
  endloop
endfacet
facet normal 0.999274 -0.0380919 0
  outer loop
    vertex 0.04385565146064887 0.04312016352660758 0.01000000000000003
    vertex 0.0439926282294552 0.04671351048715821 0.005
    vertex 0.04412960499826154 0.05030685744770884 0.009999999999999972
  endloop
endfacet
facet normal 0.999274 -0.0380919 0
  outer loop
    vertex 0.04385565146064887 0.04312016352660758 0.02
    vertex 0.0439926282294552 0.04671351048715821 0.015
    vertex 0.04412960499826154 0.05030685744770884 0.02
  endloop
endfacet
facet normal 0.999274 -0.0380919 0
  outer loop
    vertex 0.04412960499826154 0.05030685744770884 0.009999999999999972
    vertex 0.0439926282294552 0.04671351048715821 0.005
    vertex 0.04412960499826154 0.05030685744770884 0
  endloop
endfacet
facet normal 0.999274 -0.0380919 0
  outer loop
    vertex 0.04412960499826154 0.05030685744770884 0.02
    vertex 0.0439926282294552 0.04671351048715821 0.015
    vertex 0.04412960499826154 0.05030685744770884 0.009999999999999972
  endloop
endfacet
facet normal 0.999274 -0.0380919 0
  outer loop
    vertex 0.04385565146064887 0.04312016352660758 0
    vertex 0.0439926282294552 0.04671351048715821 0.005
    vertex 0.04385565146064887 0.04312016352660758 0.01000000000000003
  endloop
endfacet
facet normal 0.999274 -0.0380919 0
  outer loop
    vertex 0.04385565146064887 0.04312016352660758 0.01000000000000003
    vertex 0.0439926282294552 0.04671351048715821 0.015
    vertex 0.04385565146064887 0.04312016352660758 0.02
  endloop
endfacet
facet normal 0.856339 0.516414 0
  outer loop
    vertex 0.04385565146064887 0.04312016352660758 0.02
    vertex 0.04602261662368116 0.03952681656605694 0.015
    vertex 0.04385565146064887 0.04312016352660758 0.009999999999999972
  endloop
endfacet
facet normal 0.856339 0.516414 -0
  outer loop
    vertex 0.04818958178671346 0.03593346960550631 0
    vertex 0.04602261662368116 0.03952681656605694 0.005
    vertex 0.04818958178671346 0.03593346960550631 0.01000000000000003
  endloop
endfacet
facet normal 0.856339 0.516414 0
  outer loop
    vertex 0.04385565146064887 0.04312016352660758 0.009999999999999972
    vertex 0.04602261662368116 0.03952681656605694 0.005
    vertex 0.04385565146064887 0.04312016352660758 0
  endloop
endfacet
facet normal 0.856339 0.516414 -0
  outer loop
    vertex 0.04818958178671346 0.03593346960550631 0.01000000000000003
    vertex 0.04602261662368116 0.03952681656605694 0.015
    vertex 0.04818958178671346 0.03593346960550631 0.02
  endloop
endfacet
facet normal 0.856339 0.516414 4.03717e-16
  outer loop
    vertex 0.04385565146064887 0.04312016352660758 0
    vertex 0.04602261662368116 0.03952681656605694 0.005
    vertex 0.04818958178671346 0.03593346960550631 0
  endloop
endfacet
facet normal 0.856339 0.516414 4.03717e-16
  outer loop
    vertex 0.04385565146064887 0.04312016352660758 0.009999999999999972
    vertex 0.04602261662368116 0.03952681656605694 0.015
    vertex 0.04818958178671346 0.03593346960550631 0.01000000000000003
  endloop
endfacet
facet normal 0.856339 0.516414 -3.22973e-16
  outer loop
    vertex 0.04818958178671346 0.03593346960550631 0.02
    vertex 0.04602261662368116 0.03952681656605694 0.015
    vertex 0.04385565146064887 0.04312016352660758 0.02
  endloop
endfacet
facet normal 0.856339 0.516414 -3.22973e-16
  outer loop
    vertex 0.04818958178671346 0.03593346960550631 0.01000000000000003
    vertex 0.04602261662368116 0.03952681656605694 0.005
    vertex 0.04385565146064887 0.04312016352660758 0.009999999999999972
  endloop
endfacet
facet normal 0.999545 -0.0301768 -1.17808e-17
  outer loop
    vertex 0.04797261130492788 0.02874677568440505 0.01000000000000003
    vertex 0.04808109654582067 0.03234012264495569 0.005
    vertex 0.04818958178671346 0.03593346960550631 0.009999999999999972
  endloop
endfacet
facet normal 0.999545 -0.0301768 8.83557e-18
  outer loop
    vertex 0.04818958178671346 0.03593346960550631 0.009999999999999972
    vertex 0.04808109654582067 0.03234012264495569 0.015
    vertex 0.04797261130492788 0.02874677568440505 0.01000000000000003
  endloop
endfacet
facet normal 0.999545 -0.0301768 -1.17808e-17
  outer loop
    vertex 0.04797261130492788 0.02874677568440505 0.02
    vertex 0.04808109654582067 0.03234012264495569 0.015
    vertex 0.04818958178671346 0.03593346960550631 0.02
  endloop
endfacet
facet normal 0.999545 -0.0301768 8.83557e-18
  outer loop
    vertex 0.04818958178671346 0.03593346960550631 0
    vertex 0.04808109654582067 0.03234012264495569 0.005
    vertex 0.04797261130492788 0.02874677568440505 0
  endloop
endfacet
facet normal 0.999545 -0.0301768 0
  outer loop
    vertex 0.04818958178671346 0.03593346960550631 0.009999999999999972
    vertex 0.04808109654582067 0.03234012264495569 0.005
    vertex 0.04818958178671346 0.03593346960550631 0
  endloop
endfacet
facet normal 0.999545 -0.0301768 0
  outer loop
    vertex 0.04818958178671346 0.03593346960550631 0.02
    vertex 0.04808109654582067 0.03234012264495569 0.015
    vertex 0.04818958178671346 0.03593346960550631 0.009999999999999972
  endloop
endfacet
facet normal 0.999545 -0.0301768 0
  outer loop
    vertex 0.04797261130492788 0.02874677568440505 0
    vertex 0.04808109654582067 0.03234012264495569 0.005
    vertex 0.04797261130492788 0.02874677568440505 0.01000000000000003
  endloop
endfacet
facet normal 0.999545 -0.0301768 0
  outer loop
    vertex 0.04797261130492788 0.02874677568440505 0.01000000000000003
    vertex 0.04808109654582067 0.03234012264495569 0.015
    vertex 0.04797261130492788 0.02874677568440505 0.02
  endloop
endfacet
facet normal 0.623606 -0.781739 -1.02637e-16
  outer loop
    vertex 0.038963534745037 0.02156008176330379 0.02
    vertex 0.04346807302498244 0.02515342872385442 0.01427113702623908
    vertex 0.04797261130492788 0.02874677568440505 0.02
  endloop
endfacet
facet normal 0.623606 -0.781739 -5.17987e-16
  outer loop
    vertex 0.04797261130492788 0.02874677568440505 0
    vertex 0.04346807302498243 0.02515342872385441 0.005675738850308979
    vertex 0.038963534745037 0.02156008176330379 0
  endloop
endfacet
facet normal 0.623606 -0.781739 0
  outer loop
    vertex 0.04797261130492788 0.02874677568440505 0.02
    vertex 0.04346807302498244 0.02515342872385442 0.01427113702623908
    vertex 0.04797261130492788 0.02874677568440505 0.009999999999999972
  endloop
endfacet
facet normal 0.623606 -0.781739 0
  outer loop
    vertex 0.038963534745037 0.02156008176330379 0
    vertex 0.04346807302498243 0.02515342872385441 0.005675738850308979
    vertex 0.038963534745037 0.02156008176330379 0.01000000000000003
  endloop
endfacet
facet normal 0.623606 -0.781739 4.43198e-16
  outer loop
    vertex 0.04346807302498244 0.02515342872385442 0.01427113702623908
    vertex 0.04346807302498243 0.02515342872385441 0.005675738850308979
    vertex 0.04797261130492788 0.02874677568440505 0.009999999999999972
  endloop
endfacet
facet normal 0.623606 -0.781739 4.10447e-16
  outer loop
    vertex 0.038963534745037 0.02156008176330379 0.01000000000000003
    vertex 0.04346807302498243 0.02515342872385441 0.005675738850308979
    vertex 0.04346807302498244 0.02515342872385442 0.01427113702623908
  endloop
endfacet
facet normal 0.623606 -0.781739 0
  outer loop
    vertex 0.04797261130492788 0.02874677568440505 0.009999999999999972
    vertex 0.04346807302498243 0.02515342872385441 0.005675738850308979
    vertex 0.04797261130492788 0.02874677568440505 0
  endloop
endfacet
facet normal 0.623606 -0.781739 0
  outer loop
    vertex 0.038963534745037 0.02156008176330379 0.01000000000000003
    vertex 0.04346807302498244 0.02515342872385442 0.01427113702623908
    vertex 0.038963534745037 0.02156008176330379 0.02
  endloop
endfacet
facet normal 0.95526 -0.295767 0
  outer loop
    vertex 0.038963534745037 0.02156008176330379 0.02
    vertex 0.03785096314215212 0.01796673480275316 0.015
    vertex 0.038963534745037 0.02156008176330379 0.009999999999999972
  endloop
endfacet
facet normal 0.95526 -0.295767 0
  outer loop
    vertex 0.03673839153926726 0.01437338784220252 0
    vertex 0.03785096314215212 0.01796673480275316 0.005
    vertex 0.03673839153926726 0.01437338784220252 0.01000000000000003
  endloop
endfacet
facet normal 0.95526 -0.295767 0
  outer loop
    vertex 0.038963534745037 0.02156008176330379 0.009999999999999972
    vertex 0.03785096314215212 0.01796673480275316 0.005
    vertex 0.038963534745037 0.02156008176330379 0
  endloop
endfacet
facet normal 0.95526 -0.295767 0
  outer loop
    vertex 0.03673839153926726 0.01437338784220252 0.01000000000000003
    vertex 0.03785096314215212 0.01796673480275316 0.015
    vertex 0.03673839153926726 0.01437338784220252 0.02
  endloop
endfacet
facet normal 0.95526 -0.295767 -6.30494e-16
  outer loop
    vertex 0.03673839153926726 0.01437338784220252 0.01000000000000003
    vertex 0.03785096314215212 0.01796673480275316 0.005
    vertex 0.038963534745037 0.02156008176330379 0.009999999999999972
  endloop
endfacet
facet normal 0.95526 -0.295767 -6.30494e-16
  outer loop
    vertex 0.03673839153926726 0.01437338784220252 0.02
    vertex 0.03785096314215212 0.01796673480275316 0.015
    vertex 0.038963534745037 0.02156008176330379 0.02
  endloop
endfacet
facet normal 0.95526 -0.295767 6.75529e-16
  outer loop
    vertex 0.038963534745037 0.02156008176330379 0.009999999999999972
    vertex 0.03785096314215212 0.01796673480275316 0.015
    vertex 0.03673839153926726 0.01437338784220252 0.01000000000000003
  endloop
endfacet
facet normal 0.95526 -0.295767 6.75529e-16
  outer loop
    vertex 0.038963534745037 0.02156008176330379 0
    vertex 0.03785096314215212 0.01796673480275316 0.005
    vertex 0.03673839153926726 0.01437338784220252 0
  endloop
endfacet
facet normal 0.750495 0.660876 -0
  outer loop
    vertex 0.04306689290842111 0.007186693921101266 0
    vertex 0.03990264222384418 0.01078004088165189 0.005000000000000001
    vertex 0.04306689290842111 0.007186693921101266 0.01000000000000003
  endloop
endfacet
facet normal 0.750495 0.660876 0
  outer loop
    vertex 0.03673839153926726 0.01437338784220252 0.02
    vertex 0.03990264222384418 0.01078004088165189 0.015
    vertex 0.03673839153926726 0.01437338784220252 0.009999999999999972
  endloop
endfacet
facet normal 0.750495 0.660876 0
  outer loop
    vertex 0.03673839153926726 0.01437338784220252 0.009999999999999972
    vertex 0.03990264222384418 0.01078004088165189 0.005000000000000001
    vertex 0.03673839153926726 0.01437338784220252 0
  endloop
endfacet
facet normal 0.750495 0.660876 -0
  outer loop
    vertex 0.04306689290842111 0.007186693921101266 0.01000000000000003
    vertex 0.03990264222384418 0.01078004088165189 0.015
    vertex 0.04306689290842111 0.007186693921101266 0.02
  endloop
endfacet
facet normal 0.750495 0.660876 9.90689e-16
  outer loop
    vertex 0.03673839153926726 0.01437338784220252 0.009999999999999972
    vertex 0.03990264222384418 0.01078004088165189 0.015
    vertex 0.04306689290842111 0.007186693921101266 0.01000000000000003
  endloop
endfacet
facet normal 0.750495 0.660876 9.90689e-16
  outer loop
    vertex 0.03673839153926726 0.01437338784220252 0
    vertex 0.03990264222384418 0.01078004088165189 0.005000000000000001
    vertex 0.04306689290842111 0.007186693921101266 0
  endloop
endfacet
facet normal 0.750495 0.660876 -9.90689e-16
  outer loop
    vertex 0.04306689290842111 0.007186693921101266 0.02
    vertex 0.03990264222384418 0.01078004088165189 0.015
    vertex 0.03673839153926726 0.01437338784220252 0.02
  endloop
endfacet
facet normal 0.750495 0.660876 -9.90689e-16
  outer loop
    vertex 0.04306689290842111 0.007186693921101266 0.01000000000000003
    vertex 0.03990264222384418 0.01078004088165189 0.005000000000000001
    vertex 0.03673839153926726 0.01437338784220252 0.009999999999999972
  endloop
endfacet
endsolid Created by Gmsh
