solid Created by Gmsh
facet normal -0.77532 -0.631569 0
  outer loop
    vertex 0.04108329132113746 0.0474154137380296 0
    vertex 0.04108329132113746 0.0474154137380296 0.01000000000000003
    vertex 0.03832442128122754 0.05080222900503172 0.005
  endloop
endfacet
facet normal -0.77532 -0.631569 -0
  outer loop
    vertex 0.03556555124131759 0.05418904427203383 0.02
    vertex 0.03556555124131759 0.05418904427203383 0.009999999999999972
    vertex 0.03832442128122754 0.05080222900503172 0.015
  endloop
endfacet
facet normal -0.77532 -0.631569 -0
  outer loop
    vertex 0.03556555124131759 0.05418904427203383 0.009999999999999972
    vertex 0.03556555124131759 0.05418904427203383 0
    vertex 0.03832442128122754 0.05080222900503172 0.005
  endloop
endfacet
facet normal -0.77532 -0.631569 0
  outer loop
    vertex 0.04108329132113746 0.0474154137380296 0.01000000000000003
    vertex 0.04108329132113746 0.0474154137380296 0.02
    vertex 0.03832442128122754 0.05080222900503172 0.015
  endloop
endfacet
facet normal -0.77532 -0.631569 -2.48199e-15
  outer loop
    vertex 0.04108329132113746 0.0474154137380296 0.01000000000000003
    vertex 0.03556555124131759 0.05418904427203383 0.009999999999999972
    vertex 0.03832442128122754 0.05080222900503172 0.005
  endloop
endfacet
facet normal -0.77532 -0.631569 2.48199e-15
  outer loop
    vertex 0.03556555124131759 0.05418904427203383 0.009999999999999972
    vertex 0.04108329132113746 0.0474154137380296 0.01000000000000003
    vertex 0.03832442128122754 0.05080222900503172 0.015
  endloop
endfacet
facet normal -0.77532 -0.631569 2.48199e-15
  outer loop
    vertex 0.03556555124131759 0.05418904427203383 0
    vertex 0.04108329132113746 0.0474154137380296 0
    vertex 0.03832442128122754 0.05080222900503172 0.005
  endloop
endfacet
facet normal -0.77532 -0.631569 -2.48199e-15
  outer loop
    vertex 0.04108329132113746 0.0474154137380296 0.02
    vertex 0.03556555124131759 0.05418904427203383 0.02
    vertex 0.03832442128122754 0.05080222900503172 0.015
  endloop
endfacet
facet normal -0.820184 0.572099 0
  outer loop
    vertex 0.03635851241925588 0.04064178320402537 0
    vertex 0.03635851241925588 0.04064178320402537 0.01000000000000003
    vertex 0.03872090187019667 0.04402859847102748 0.005
  endloop
endfacet
facet normal -0.820184 0.572099 0
  outer loop
    vertex 0.04108329132113746 0.0474154137380296 0.02
    vertex 0.04108329132113746 0.0474154137380296 0.009999999999999972
    vertex 0.03872090187019667 0.04402859847102749 0.015
  endloop
endfacet
facet normal -0.820184 0.572099 0
  outer loop
    vertex 0.03635851241925588 0.04064178320402537 0.01000000000000003
    vertex 0.03635851241925588 0.04064178320402537 0.02
    vertex 0.03872090187019667 0.04402859847102749 0.015
  endloop
endfacet
facet normal -0.820184 0.572099 0
  outer loop
    vertex 0.04108329132113746 0.0474154137380296 0.009999999999999972
    vertex 0.04108329132113746 0.0474154137380296 0
    vertex 0.03872090187019667 0.04402859847102748 0.005
  endloop
endfacet
facet normal -0.820184 0.572099 4.10252e-16
  outer loop
    vertex 0.04108329132113746 0.0474154137380296 0
    vertex 0.03635851241925588 0.04064178320402537 0
    vertex 0.03872090187019667 0.04402859847102748 0.005
  endloop
endfacet
facet normal -0.820184 0.572099 -4.10252e-16
  outer loop
    vertex 0.04108329132113746 0.0474154137380296 0.009999999999999972
    vertex 0.03635851241925588 0.04064178320402537 0.01000000000000003
    vertex 0.03872090187019667 0.04402859847102749 0.015
  endloop
endfacet
facet normal -0.820184 0.572099 4.10252e-16
  outer loop
    vertex 0.03635851241925588 0.04064178320402537 0.02
    vertex 0.04108329132113746 0.0474154137380296 0.02
    vertex 0.03872090187019667 0.04402859847102749 0.015
  endloop
endfacet
facet normal -0.820184 0.572099 -4.10252e-16
  outer loop
    vertex 0.03635851241925588 0.04064178320402537 0.01000000000000003
    vertex 0.04108329132113746 0.0474154137380296 0.009999999999999972
    vertex 0.03872090187019667 0.04402859847102748 0.005
  endloop
endfacet
facet normal -0.992816 0.119653 8.69052e-17
  outer loop
    vertex 0.03554216538724795 0.03386815267002115 0.01000000000000003
    vertex 0.03635851241925588 0.04064178320402537 0.009999999999999972
    vertex 0.03595033890325192 0.03725496793702326 0.005000000000000001
  endloop
endfacet
facet normal -0.992816 0.119653 -7.44901e-17
  outer loop
    vertex 0.03635851241925588 0.04064178320402537 0.009999999999999972
    vertex 0.03554216538724795 0.03386815267002115 0.01000000000000003
    vertex 0.03595033890325192 0.03725496793702326 0.015
  endloop
endfacet
facet normal -0.992816 0.119653 -7.44901e-17
  outer loop
    vertex 0.03635851241925588 0.04064178320402537 0
    vertex 0.03554216538724795 0.03386815267002115 0
    vertex 0.03595033890325192 0.03725496793702326 0.005000000000000001
  endloop
endfacet
facet normal -0.992816 0.119653 8.69052e-17
  outer loop
    vertex 0.03554216538724795 0.03386815267002115 0.02
    vertex 0.03635851241925588 0.04064178320402537 0.02
    vertex 0.03595033890325192 0.03725496793702326 0.015
  endloop
endfacet
facet normal -0.992816 0.119653 0
  outer loop
    vertex 0.03635851241925588 0.04064178320402537 0.009999999999999972
    vertex 0.03635851241925588 0.04064178320402537 0
    vertex 0.03595033890325192 0.03725496793702326 0.005000000000000001
  endloop
endfacet
facet normal -0.992816 0.119653 0
  outer loop
    vertex 0.03635851241925588 0.04064178320402537 0.02
    vertex 0.03635851241925588 0.04064178320402537 0.009999999999999972
    vertex 0.03595033890325192 0.03725496793702326 0.015
  endloop
endfacet
facet normal -0.992816 0.119653 0
  outer loop
    vertex 0.03554216538724795 0.03386815267002115 0
    vertex 0.03554216538724795 0.03386815267002115 0.01000000000000003
    vertex 0.03595033890325192 0.03725496793702326 0.005000000000000001
  endloop
endfacet
facet normal -0.992816 0.119653 0
  outer loop
    vertex 0.03554216538724795 0.03386815267002115 0.01000000000000003
    vertex 0.03554216538724795 0.03386815267002115 0.02
    vertex 0.03595033890325192 0.03725496793702326 0.015
  endloop
endfacet
facet normal -0.745031 0.66703 0
  outer loop
    vertex 0.02947769822087912 0.02709452213601692 0
    vertex 0.02947769822087912 0.02709452213601692 0.01000000000000003
    vertex 0.03250993180406353 0.03048133740301903 0.005000000000000001
  endloop
endfacet
facet normal -0.745031 0.66703 0
  outer loop
    vertex 0.03554216538724795 0.03386815267002115 0.02
    vertex 0.03554216538724795 0.03386815267002115 0.009999999999999972
    vertex 0.03250993180406353 0.03048133740301903 0.015
  endloop
endfacet
facet normal -0.745031 0.66703 0
  outer loop
    vertex 0.02947769822087912 0.02709452213601692 0.01000000000000003
    vertex 0.02947769822087912 0.02709452213601692 0.02
    vertex 0.03250993180406353 0.03048133740301903 0.015
  endloop
endfacet
facet normal -0.745031 0.66703 0
  outer loop
    vertex 0.03554216538724795 0.03386815267002115 0.009999999999999972
    vertex 0.03554216538724795 0.03386815267002115 0
    vertex 0.03250993180406353 0.03048133740301903 0.005000000000000001
  endloop
endfacet
facet normal -0.745031 0.66703 -4.47192e-16
  outer loop
    vertex 0.03554216538724795 0.03386815267002115 0.009999999999999972
    vertex 0.02947769822087912 0.02709452213601692 0.01000000000000003
    vertex 0.03250993180406353 0.03048133740301903 0.015
  endloop
endfacet
facet normal -0.745031 0.66703 -4.47192e-16
  outer loop
    vertex 0.03554216538724795 0.03386815267002115 0
    vertex 0.02947769822087912 0.02709452213601692 0
    vertex 0.03250993180406353 0.03048133740301903 0.005000000000000001
  endloop
endfacet
facet normal -0.745031 0.66703 5.21724e-16
  outer loop
    vertex 0.02947769822087912 0.02709452213601692 0.02
    vertex 0.03554216538724795 0.03386815267002115 0.02
    vertex 0.03250993180406353 0.03048133740301903 0.015
  endloop
endfacet
facet normal -0.745031 0.66703 5.21724e-16
  outer loop
    vertex 0.02947769822087912 0.02709452213601692 0.01000000000000003
    vertex 0.03554216538724795 0.03386815267002115 0.009999999999999972
    vertex 0.03250993180406353 0.03048133740301903 0.005000000000000001
  endloop
endfacet
facet normal -0.518402 -0.855137 -7.77905e-17
  outer loop
    vertex 0.03506446602360558 0.0237077068690148 0
    vertex 0.04065123382633203 0.02032089160201268 0.01000000000000003
    vertex 0.02947769822087912 0.02709452213601692 0.009999999999999972
  endloop
endfacet
facet normal -0.518402 -0.855137 -5.18603e-17
  outer loop
    vertex 0.04065123382633203 0.02032089160201268 0.01000000000000003
    vertex 0.03506446602360556 0.0237077068690148 0.02
    vertex 0.02947769822087912 0.02709452213601692 0.009999999999999972
  endloop
endfacet
facet normal -0.518402 -0.855137 0
  outer loop
    vertex 0.03506446602360558 0.0237077068690148 0
    vertex 0.02947769822087912 0.02709452213601692 0.009999999999999972
    vertex 0.02947769822087912 0.02709452213601692 0
  endloop
endfacet
facet normal -0.518402 -0.855137 0
  outer loop
    vertex 0.02947769822087912 0.02709452213601692 0.009999999999999972
    vertex 0.03506446602360556 0.0237077068690148 0.02
    vertex 0.02947769822087912 0.02709452213601692 0.02
  endloop
endfacet
facet normal -0.518402 -0.855137 -0
  outer loop
    vertex 0.04065123382633203 0.02032089160201268 0.01000000000000003
    vertex 0.03506446602360558 0.0237077068690148 0
    vertex 0.04065123382633203 0.02032089160201268 0
  endloop
endfacet
facet normal -0.518402 -0.855137 0
  outer loop
    vertex 0.03506446602360556 0.0237077068690148 0.02
    vertex 0.04065123382633203 0.02032089160201268 0.01000000000000003
    vertex 0.04065123382633203 0.02032089160201268 0.02
  endloop
endfacet
facet normal -0.947747 0.319024 0
  outer loop
    vertex 0.03837113793523179 0.01354726106800846 0.01000000000000003
    vertex 0.04065123382633203 0.02032089160201268 0.009999999999999972
    vertex 0.03951118588078191 0.01693407633501057 0.005000000000000001
  endloop
endfacet
facet normal -0.947747 0.319024 0
  outer loop
    vertex 0.04065123382633203 0.02032089160201268 0.009999999999999972
    vertex 0.03837113793523179 0.01354726106800846 0.01000000000000003
    vertex 0.03951118588078191 0.01693407633501057 0.015
  endloop
endfacet
facet normal -0.947747 0.319024 0
  outer loop
    vertex 0.04065123382633203 0.02032089160201268 0
    vertex 0.03837113793523179 0.01354726106800846 0
    vertex 0.03951118588078191 0.01693407633501057 0.005000000000000001
  endloop
endfacet
facet normal -0.947747 0.319024 0
  outer loop
    vertex 0.03837113793523179 0.01354726106800846 0.02
    vertex 0.04065123382633203 0.02032089160201268 0.02
    vertex 0.03951118588078191 0.01693407633501057 0.015
  endloop
endfacet
facet normal -0.947747 0.319024 0
  outer loop
    vertex 0.04065123382633203 0.02032089160201268 0.009999999999999972
    vertex 0.04065123382633203 0.02032089160201268 0
    vertex 0.03951118588078191 0.01693407633501057 0.005000000000000001
  endloop
endfacet
facet normal -0.947747 0.319024 0
  outer loop
    vertex 0.04065123382633203 0.02032089160201268 0.02
    vertex 0.04065123382633203 0.02032089160201268 0.009999999999999972
    vertex 0.03951118588078191 0.01693407633501057 0.015
  endloop
endfacet
facet normal -0.947747 0.319024 0
  outer loop
    vertex 0.03837113793523179 0.01354726106800846 0
    vertex 0.03837113793523179 0.01354726106800846 0.01000000000000003
    vertex 0.03951118588078191 0.01693407633501057 0.005000000000000001
  endloop
endfacet
facet normal -0.947747 0.319024 0
  outer loop
    vertex 0.03837113793523179 0.01354726106800846 0.01000000000000003
    vertex 0.03837113793523179 0.01354726106800846 0.02
    vertex 0.03951118588078191 0.01693407633501057 0.015
  endloop
endfacet
facet normal -0.999337 -0.0363979 0
  outer loop
    vertex 0.03861784708251502 0.006773630534004232 0.01000000000000003
    vertex 0.03837113793523179 0.01354726106800846 0.009999999999999972
    vertex 0.03849449250887341 0.01016044580100635 0.004999999999999998
  endloop
endfacet
facet normal -0.999337 -0.0363979 0
  outer loop
    vertex 0.03837113793523179 0.01354726106800846 0.009999999999999972
    vertex 0.03861784708251502 0.006773630534004232 0.01000000000000003
    vertex 0.03849449250887341 0.01016044580100635 0.015
  endloop
endfacet
facet normal -0.999337 -0.0363979 0
  outer loop
    vertex 0.03837113793523179 0.01354726106800846 0
    vertex 0.03861784708251502 0.006773630534004232 0
    vertex 0.03849449250887341 0.01016044580100635 0.004999999999999998
  endloop
endfacet
facet normal -0.999337 -0.0363979 0
  outer loop
    vertex 0.03861784708251502 0.006773630534004232 0.02
    vertex 0.03837113793523179 0.01354726106800846 0.02
    vertex 0.03849449250887341 0.01016044580100635 0.015
  endloop
endfacet
facet normal -0.999337 -0.0363979 -0
  outer loop
    vertex 0.03837113793523179 0.01354726106800846 0.009999999999999972
    vertex 0.03837113793523179 0.01354726106800846 0
    vertex 0.03849449250887341 0.01016044580100635 0.004999999999999998
  endloop
endfacet
facet normal -0.999337 -0.0363979 -0
  outer loop
    vertex 0.03837113793523179 0.01354726106800846 0.02
    vertex 0.03837113793523179 0.01354726106800846 0.009999999999999972
    vertex 0.03849449250887341 0.01016044580100635 0.015
  endloop
endfacet
facet normal -0.999337 -0.0363979 0
  outer loop
    vertex 0.03861784708251502 0.006773630534004232 0
    vertex 0.03861784708251502 0.006773630534004232 0.01000000000000003
    vertex 0.03849449250887341 0.01016044580100635 0.004999999999999998
  endloop
endfacet
facet normal -0.999337 -0.0363979 0
  outer loop
    vertex 0.03861784708251502 0.006773630534004232 0.01000000000000003
    vertex 0.03861784708251502 0.006773630534004232 0.02
    vertex 0.03849449250887341 0.01016044580100635 0.015
  endloop
endfacet
endsolid Created by Gmsh
