solid Created by Gmsh
facet normal 1 0 0
  outer loop
    vertex 0.04 0.05822840697409017 0
    vertex 0.04 0.06 0
    vertex 0.04 0.06 0.009999999999999972
  endloop
endfacet
facet normal 1 0 0
  outer loop
    vertex 0.04 0.05822840697409017 0.01000000000000003
    vertex 0.04 0.06 0.02
    vertex 0.04 0.05822840697409017 0.02
  endloop
endfacet
facet normal 1 0 -0
  outer loop
    vertex 0.04 0.06 0.009999999999999972
    vertex 0.04 0.06 0.02
    vertex 0.04 0.05822840697409017 0.01000000000000003
  endloop
endfacet
facet normal 1 0 0
  outer loop
    vertex 0.04 0.05822840697409017 0
    vertex 0.04 0.06 0.009999999999999972
    vertex 0.04 0.05822840697409017 0.01000000000000003
  endloop
endfacet
facet normal 0.609332 0.792915 1.97876e-15
  outer loop
    vertex 0.04947147267146748 0.0509498561023289 0.02
    vertex 0.04473573633573375 0.05458913153820954 0.0139795918367347
    vertex 0.04 0.05822840697409017 0.02
  endloop
endfacet
facet normal 0.609332 0.792915 -1.82181e-15
  outer loop
    vertex 0.04 0.05822840697409017 0
    vertex 0.04473573633573376 0.05458913153820953 0.005916284881299466
    vertex 0.04947147267146748 0.0509498561023289 0
  endloop
endfacet
facet normal 0.609332 0.792915 0
  outer loop
    vertex 0.04 0.05822840697409017 0.02
    vertex 0.04473573633573375 0.05458913153820954 0.0139795918367347
    vertex 0.04 0.05822840697409017 0.009999999999999972
  endloop
endfacet
facet normal 0.609332 0.792915 -0
  outer loop
    vertex 0.04947147267146748 0.0509498561023289 0
    vertex 0.04473573633573376 0.05458913153820953 0.005916284881299466
    vertex 0.04947147267146748 0.0509498561023289 0.01000000000000003
  endloop
endfacet
facet normal 0.609332 0.792915 -1.57983e-16
  outer loop
    vertex 0.04473573633573375 0.05458913153820954 0.0139795918367347
    vertex 0.04473573633573376 0.05458913153820953 0.005916284881299466
    vertex 0.04 0.05822840697409017 0.009999999999999972
  endloop
endfacet
facet normal 0.609332 0.792915 -2.11061e-16
  outer loop
    vertex 0.04947147267146748 0.0509498561023289 0.01000000000000003
    vertex 0.04473573633573376 0.05458913153820953 0.005916284881299466
    vertex 0.04473573633573375 0.05458913153820954 0.0139795918367347
  endloop
endfacet
facet normal 0.609332 0.792915 0
  outer loop
    vertex 0.04 0.05822840697409017 0.009999999999999972
    vertex 0.04473573633573376 0.05458913153820953 0.005916284881299466
    vertex 0.04 0.05822840697409017 0
  endloop
endfacet
facet normal 0.609332 0.792915 -0
  outer loop
    vertex 0.04947147267146748 0.0509498561023289 0.01000000000000003
    vertex 0.04473573633573375 0.05458913153820954 0.0139795918367347
    vertex 0.04947147267146748 0.0509498561023289 0.02
  endloop
endfacet
facet normal 0.763537 0.645764 0
  outer loop
    vertex 0.04947147267146748 0.0509498561023289 0.02
    vertex 0.05254940552695233 0.04731058066644827 0.015
    vertex 0.04947147267146748 0.0509498561023289 0.009999999999999972
  endloop
endfacet
facet normal 0.763537 0.645764 -0
  outer loop
    vertex 0.05562733838243715 0.04367130523056763 0
    vertex 0.05254940552695233 0.04731058066644827 0.005000000000000001
    vertex 0.05562733838243715 0.04367130523056763 0.01000000000000003
  endloop
endfacet
facet normal 0.763537 0.645764 0
  outer loop
    vertex 0.04947147267146748 0.0509498561023289 0.009999999999999972
    vertex 0.05254940552695233 0.04731058066644827 0.005000000000000001
    vertex 0.04947147267146748 0.0509498561023289 0
  endloop
endfacet
facet normal 0.763537 0.645764 -0
  outer loop
    vertex 0.05562733838243715 0.04367130523056763 0.01000000000000003
    vertex 0.05254940552695233 0.04731058066644827 0.015
    vertex 0.05562733838243715 0.04367130523056763 0.02
  endloop
endfacet
facet normal 0.763537 0.645764 2.98555e-15
  outer loop
    vertex 0.05562733838243715 0.04367130523056763 0.01000000000000003
    vertex 0.05254940552695233 0.04731058066644827 0.005000000000000001
    vertex 0.04947147267146748 0.0509498561023289 0.009999999999999972
  endloop
endfacet
facet normal 0.763537 0.645764 -3.05664e-15
  outer loop
    vertex 0.04947147267146748 0.0509498561023289 0.009999999999999972
    vertex 0.05254940552695233 0.04731058066644827 0.015
    vertex 0.05562733838243715 0.04367130523056763 0.01000000000000003
  endloop
endfacet
facet normal 0.763537 0.645764 2.98555e-15
  outer loop
    vertex 0.05562733838243715 0.04367130523056763 0.02
    vertex 0.05254940552695233 0.04731058066644827 0.015
    vertex 0.04947147267146748 0.0509498561023289 0.02
  endloop
endfacet
facet normal 0.763537 0.645764 -3.05664e-15
  outer loop
    vertex 0.04947147267146748 0.0509498561023289 0
    vertex 0.05254940552695233 0.04731058066644827 0.005000000000000001
    vertex 0.05562733838243715 0.04367130523056763 0
  endloop
endfacet
facet normal 0.885573 -0.4645 0
  outer loop
    vertex 0.05180959512811938 0.03639275435880635 0
    vertex 0.05371846675527826 0.04003202979468699 0.005
    vertex 0.05180959512811938 0.03639275435880635 0.01000000000000003
  endloop
endfacet
facet normal 0.885573 -0.4645 0
  outer loop
    vertex 0.05562733838243715 0.04367130523056763 0.02
    vertex 0.05371846675527826 0.04003202979468699 0.015
    vertex 0.05562733838243715 0.04367130523056763 0.009999999999999972
  endloop
endfacet
facet normal 0.885573 -0.4645 0
  outer loop
    vertex 0.05180959512811938 0.03639275435880635 0.01000000000000003
    vertex 0.05371846675527826 0.04003202979468699 0.015
    vertex 0.05180959512811938 0.03639275435880635 0.02
  endloop
endfacet
facet normal 0.885573 -0.4645 0
  outer loop
    vertex 0.05562733838243715 0.04367130523056763 0.009999999999999972
    vertex 0.05371846675527826 0.04003202979468699 0.005
    vertex 0.05562733838243715 0.04367130523056763 0
  endloop
endfacet
facet normal 0.885573 -0.4645 9.06906e-16
  outer loop
    vertex 0.05562733838243715 0.04367130523056763 0
    vertex 0.05371846675527826 0.04003202979468699 0.005
    vertex 0.05180959512811938 0.03639275435880635 0
  endloop
endfacet
facet normal 0.885573 -0.4645 9.06906e-16
  outer loop
    vertex 0.05562733838243715 0.04367130523056763 0.009999999999999972
    vertex 0.05371846675527826 0.04003202979468699 0.015
    vertex 0.05180959512811938 0.03639275435880635 0.01000000000000003
  endloop
endfacet
facet normal 0.885573 -0.4645 -9.06906e-16
  outer loop
    vertex 0.05180959512811938 0.03639275435880635 0.02
    vertex 0.05371846675527826 0.04003202979468699 0.015
    vertex 0.05562733838243715 0.04367130523056763 0.02
  endloop
endfacet
facet normal 0.885573 -0.4645 -9.06906e-16
  outer loop
    vertex 0.05180959512811938 0.03639275435880635 0.01000000000000003
    vertex 0.05371846675527826 0.04003202979468699 0.005
    vertex 0.05562733838243715 0.04367130523056763 0.009999999999999972
  endloop
endfacet
facet normal 0.856013 -0.516954 0
  outer loop
    vertex 0.04741401802477005 0.02911420348704508 0
    vertex 0.04961180657644471 0.03275347892292572 0.004999999999999999
    vertex 0.04741401802477005 0.02911420348704508 0.01000000000000003
  endloop
endfacet
facet normal 0.856013 -0.516954 0
  outer loop
    vertex 0.05180959512811938 0.03639275435880635 0.02
    vertex 0.04961180657644471 0.03275347892292572 0.015
    vertex 0.05180959512811938 0.03639275435880635 0.009999999999999972
  endloop
endfacet
facet normal 0.856013 -0.516954 0
  outer loop
    vertex 0.05180959512811938 0.03639275435880635 0.009999999999999972
    vertex 0.04961180657644471 0.03275347892292572 0.004999999999999999
    vertex 0.05180959512811938 0.03639275435880635 0
  endloop
endfacet
facet normal 0.856013 -0.516954 0
  outer loop
    vertex 0.04741401802477005 0.02911420348704508 0.01000000000000003
    vertex 0.04961180657644471 0.03275347892292572 0.015
    vertex 0.04741401802477005 0.02911420348704508 0.02
  endloop
endfacet
facet normal 0.856013 -0.516954 0
  outer loop
    vertex 0.05180959512811938 0.03639275435880635 0
    vertex 0.04961180657644471 0.03275347892292572 0.004999999999999999
    vertex 0.04741401802477005 0.02911420348704508 0
  endloop
endfacet
facet normal 0.856013 -0.516954 0
  outer loop
    vertex 0.04741401802477005 0.02911420348704508 0.02
    vertex 0.04961180657644471 0.03275347892292572 0.015
    vertex 0.05180959512811938 0.03639275435880635 0.02
  endloop
endfacet
facet normal 0.856013 -0.516954 0
  outer loop
    vertex 0.04741401802477005 0.02911420348704508 0.01000000000000003
    vertex 0.04961180657644471 0.03275347892292572 0.004999999999999999
    vertex 0.05180959512811938 0.03639275435880635 0.009999999999999972
  endloop
endfacet
facet normal 0.856013 -0.516954 0
  outer loop
    vertex 0.05180959512811938 0.03639275435880635 0.009999999999999972
    vertex 0.04961180657644471 0.03275347892292572 0.015
    vertex 0.04741401802477005 0.02911420348704508 0.01000000000000003
  endloop
endfacet
facet normal 0.441609 -0.897208 -6.3743e-16
  outer loop
    vertex 0.04002018207965549 0.02547492805116445 0.02
    vertex 0.03948173297797273 0.02520990126347641 0.01209891419601841
    vertex 0.04741401802477005 0.02911420348704508 0.02
  endloop
endfacet
facet normal 0.441609 -0.897208 0
  outer loop
    vertex 0.04741401802477005 0.02911420348704508 0.02
    vertex 0.03948173297797273 0.02520990126347641 0.01209891419601841
    vertex 0.04741401802477005 0.02911420348704508 0.009999999999999972
  endloop
endfacet
facet normal 0.441609 -0.897208 -6.24422e-16
  outer loop
    vertex 0.03262634613454095 0.02183565261528381 0.02
    vertex 0.03948173297797273 0.02520990126347641 0.01209891419601841
    vertex 0.04002018207965549 0.02547492805116445 0.02
  endloop
endfacet
facet normal 0.441609 -0.897208 0
  outer loop
    vertex 0.03262634613454095 0.02183565261528381 0.01000000000000003
    vertex 0.03948173297797273 0.02520990126347641 0.01209891419601841
    vertex 0.03262634613454095 0.02183565261528381 0.02
  endloop
endfacet
facet normal 0.441609 -0.897208 0
  outer loop
    vertex 0.04741401802477005 0.02911420348704508 0.009999999999999972
    vertex 0.04229746253441824 0.02659581454109329 0.00573189141309942
    vertex 0.04741401802477005 0.02911420348704508 0
  endloop
endfacet
facet normal 0.441609 -0.897208 0
  outer loop
    vertex 0.03262634613454095 0.02183565261528381 0
    vertex 0.03738740920792542 0.024179066780849 0.005656559462519495
    vertex 0.03262634613454095 0.02183565261528381 0.01000000000000003
  endloop
endfacet
facet normal 0.441609 -0.897208 5.7382e-16
  outer loop
    vertex 0.04741401802477005 0.02911420348704508 0
    vertex 0.04229746253441824 0.02659581454109329 0.00573189141309942
    vertex 0.04002018207965551 0.02547492805116445 0
  endloop
endfacet
facet normal 0.441609 -0.897208 0
  outer loop
    vertex 0.03948173297797273 0.02520990126347641 0.01209891419601841
    vertex 0.04229746253441824 0.02659581454109329 0.00573189141309942
    vertex 0.04741401802477005 0.02911420348704508 0.009999999999999972
  endloop
endfacet
facet normal 0.441609 -0.897208 1.45365e-16
  outer loop
    vertex 0.04002018207965551 0.02547492805116445 0
    vertex 0.03738740920792542 0.024179066780849 0.005656559462519495
    vertex 0.03262634613454095 0.02183565261528381 0
  endloop
endfacet
facet normal 0.441609 -0.897208 4.39517e-16
  outer loop
    vertex 0.03738740920792542 0.024179066780849 0.005656559462519495
    vertex 0.03948173297797273 0.02520990126347641 0.01209891419601841
    vertex 0.03262634613454095 0.02183565261528381 0.01000000000000003
  endloop
endfacet
facet normal 0.441609 -0.897208 4.58762e-16
  outer loop
    vertex 0.03738740920792542 0.024179066780849 0.005656559462519495
    vertex 0.04229746253441824 0.02659581454109329 0.00573189141309942
    vertex 0.03948173297797273 0.02520990126347641 0.01209891419601841
  endloop
endfacet
facet normal 0.441609 -0.897208 3.66774e-16
  outer loop
    vertex 0.04002018207965551 0.02547492805116445 0
    vertex 0.04229746253441824 0.02659581454109329 0.00573189141309942
    vertex 0.03738740920792542 0.024179066780849 0.005656559462519495
  endloop
endfacet
facet normal 0.47625 0.87931 4.67069e-16
  outer loop
    vertex 0.03262634613454095 0.02183565261528381 0
    vertex 0.03944355655753473 0.01814332651707255 0.007594324556409814
    vertex 0.039345608131917 0.01819637717940318 0
  endloop
endfacet
facet normal 0.47625 0.87931 4.61596e-16
  outer loop
    vertex 0.039345608131917 0.01819637717940318 0
    vertex 0.03944355655753473 0.01814332651707255 0.007594324556409814
    vertex 0.04606487012929306 0.01455710174352254 0
  endloop
endfacet
facet normal 0.47625 0.87931 -0
  outer loop
    vertex 0.04606487012929306 0.01455710174352254 0
    vertex 0.03944355655753473 0.01814332651707255 0.007594324556409814
    vertex 0.04606487012929306 0.01455710174352254 0.01000000000000003
  endloop
endfacet
facet normal 0.47625 0.87931 0
  outer loop
    vertex 0.03262634613454095 0.02183565261528381 0.009999999999999972
    vertex 0.03944355655753473 0.01814332651707255 0.007594324556409814
    vertex 0.03262634613454095 0.02183565261528381 0
  endloop
endfacet
facet normal 0.47625 0.87931 0
  outer loop
    vertex 0.03262634613454095 0.02183565261528381 0.02
    vertex 0.03732982953270419 0.01928815981016736 0.0146241078876862
    vertex 0.03262634613454095 0.02183565261528381 0.009999999999999972
  endloop
endfacet
facet normal 0.47625 0.87931 -0
  outer loop
    vertex 0.04606487012929306 0.01455710174352254 0.01000000000000003
    vertex 0.04195131610599315 0.01678507798808769 0.01460263320629944
    vertex 0.04606487012929306 0.01455710174352254 0.02
  endloop
endfacet
facet normal 0.47625 0.87931 2.29576e-17
  outer loop
    vertex 0.03732982953270419 0.01928815981016736 0.0146241078876862
    vertex 0.04195131610599315 0.01678507798808769 0.01460263320629944
    vertex 0.03944355655753473 0.01814332651707255 0.007594324556409814
  endloop
endfacet
facet normal 0.47625 0.87931 -5.56716e-16
  outer loop
    vertex 0.039345608131917 0.01819637717940318 0.02
    vertex 0.03732982953270419 0.01928815981016736 0.0146241078876862
    vertex 0.03262634613454095 0.02183565261528381 0.02
  endloop
endfacet
facet normal 0.47625 0.87931 -8.62557e-16
  outer loop
    vertex 0.04606487012929306 0.01455710174352254 0.02
    vertex 0.04195131610599315 0.01678507798808769 0.01460263320629944
    vertex 0.039345608131917 0.01819637717940318 0.02
  endloop
endfacet
facet normal 0.47625 0.87931 -6.73343e-16
  outer loop
    vertex 0.039345608131917 0.01819637717940318 0.02
    vertex 0.04195131610599315 0.01678507798808769 0.01460263320629944
    vertex 0.03732982953270419 0.01928815981016736 0.0146241078876862
  endloop
endfacet
facet normal 0.47625 0.87931 3.68977e-16
  outer loop
    vertex 0.03944355655753473 0.01814332651707255 0.007594324556409814
    vertex 0.04195131610599315 0.01678507798808769 0.01460263320629944
    vertex 0.04606487012929306 0.01455710174352254 0.01000000000000003
  endloop
endfacet
facet normal 0.47625 0.87931 8.69315e-17
  outer loop
    vertex 0.03732982953270419 0.01928815981016736 0.0146241078876862
    vertex 0.03944355655753473 0.01814332651707255 0.007594324556409814
    vertex 0.03262634613454095 0.02183565261528381 0.009999999999999972
  endloop
endfacet
facet normal 0.569437 -0.822035 -5.3014e-17
  outer loop
    vertex 0.04081123652832674 0.0109178263076419 0
    vertex 0.04606487012929306 0.01455710174352254 0.009999999999999972
    vertex 0.03555760292736044 0.007278550871761269 0.01000000000000003
  endloop
endfacet
facet normal 0.569437 -0.822035 -5.3014e-17
  outer loop
    vertex 0.03555760292736044 0.007278550871761269 0.01000000000000003
    vertex 0.04606487012929306 0.01455710174352254 0.009999999999999972
    vertex 0.04081123652832675 0.01091782630764191 0.02
  endloop
endfacet
facet normal 0.569437 -0.822035 0
  outer loop
    vertex 0.04081123652832674 0.0109178263076419 0
    vertex 0.04606487012929306 0.01455710174352254 0
    vertex 0.04606487012929306 0.01455710174352254 0.009999999999999972
  endloop
endfacet
facet normal 0.569437 -0.822035 0
  outer loop
    vertex 0.04606487012929306 0.01455710174352254 0.009999999999999972
    vertex 0.04606487012929306 0.01455710174352254 0.02
    vertex 0.04081123652832675 0.01091782630764191 0.02
  endloop
endfacet
facet normal 0.569437 -0.822035 0
  outer loop
    vertex 0.03555760292736044 0.007278550871761269 0.01000000000000003
    vertex 0.03555760292736044 0.007278550871761269 0
    vertex 0.04081123652832674 0.0109178263076419 0
  endloop
endfacet
facet normal 0.569437 -0.822035 0
  outer loop
    vertex 0.04081123652832675 0.01091782630764191 0.02
    vertex 0.03555760292736044 0.007278550871761269 0.02
    vertex 0.03555760292736044 0.007278550871761269 0.01000000000000003
  endloop
endfacet
endsolid Created by Gmsh
