solid Created by Gmsh
facet normal -0.619788 -0.78477 1.30938e-15
  outer loop
    vertex 0.03559777499774298 0.05822824728049784 0
    vertex 0.0448137869178945 0.05094971637043561 0
    vertex 0.04020578095781875 0.05458898182546673 0.005728862973760926
  endloop
endfacet
facet normal -0.619788 -0.78477 -1.16451e-15
  outer loop
    vertex 0.0448137869178945 0.05094971637043561 0.02
    vertex 0.03559777499774298 0.05822824728049784 0.02
    vertex 0.04020578095781875 0.05458898182546673 0.01405396560956745
  endloop
endfacet
facet normal -0.619788 -0.78477 0
  outer loop
    vertex 0.03559777499774298 0.05822824728049784 0.009999999999999972
    vertex 0.04020578095781875 0.05458898182546673 0.005728862973760926
    vertex 0.04020578095781875 0.05458898182546673 0.01405396560956745
  endloop
endfacet
facet normal -0.619788 -0.78477 -0
  outer loop
    vertex 0.03559777499774298 0.05822824728049784 0.02
    vertex 0.03559777499774298 0.05822824728049784 0.009999999999999972
    vertex 0.04020578095781875 0.05458898182546673 0.01405396560956745
  endloop
endfacet
facet normal -0.619788 -0.78477 0
  outer loop
    vertex 0.04020578095781875 0.05458898182546673 0.005728862973760926
    vertex 0.0448137869178945 0.05094971637043561 0.01000000000000003
    vertex 0.04020578095781875 0.05458898182546673 0.01405396560956745
  endloop
endfacet
facet normal -0.619788 -0.78477 0
  outer loop
    vertex 0.0448137869178945 0.05094971637043561 0
    vertex 0.0448137869178945 0.05094971637043561 0.01000000000000003
    vertex 0.04020578095781875 0.05458898182546673 0.005728862973760926
  endloop
endfacet
facet normal -0.619788 -0.78477 -0
  outer loop
    vertex 0.03559777499774298 0.05822824728049784 0.009999999999999972
    vertex 0.03559777499774298 0.05822824728049784 0
    vertex 0.04020578095781875 0.05458898182546673 0.005728862973760926
  endloop
endfacet
facet normal -0.619788 -0.78477 0
  outer loop
    vertex 0.0448137869178945 0.05094971637043561 0.01000000000000003
    vertex 0.0448137869178945 0.05094971637043561 0.02
    vertex 0.04020578095781875 0.05458898182546673 0.01405396560956745
  endloop
endfacet
facet normal -0.998541 0.0540025 1.4235e-15
  outer loop
    vertex 0.0448137869178945 0.05094971637043561 0.009999999999999972
    vertex 0.04442015337805301 0.04367118546037338 0.01000000000000003
    vertex 0.04461697014797376 0.04731045091540449 0.015
  endloop
endfacet
facet normal -0.998541 0.0540025 1.35378e-15
  outer loop
    vertex 0.0448137869178945 0.05094971637043561 0
    vertex 0.04442015337805301 0.04367118546037338 0
    vertex 0.04461697014797376 0.0473104509154045 0.005
  endloop
endfacet
facet normal -0.998541 0.0540025 -1.34797e-15
  outer loop
    vertex 0.04442015337805301 0.04367118546037338 0.01000000000000003
    vertex 0.0448137869178945 0.05094971637043561 0.009999999999999972
    vertex 0.04461697014797376 0.0473104509154045 0.005
  endloop
endfacet
facet normal -0.998541 0.0540025 -1.41769e-15
  outer loop
    vertex 0.04442015337805301 0.04367118546037338 0.02
    vertex 0.0448137869178945 0.05094971637043561 0.02
    vertex 0.04461697014797376 0.04731045091540449 0.015
  endloop
endfacet
facet normal -0.998541 0.0540025 0
  outer loop
    vertex 0.0448137869178945 0.05094971637043561 0.009999999999999972
    vertex 0.0448137869178945 0.05094971637043561 0
    vertex 0.04461697014797376 0.0473104509154045 0.005
  endloop
endfacet
facet normal -0.998541 0.0540025 0
  outer loop
    vertex 0.0448137869178945 0.05094971637043561 0.02
    vertex 0.0448137869178945 0.05094971637043561 0.009999999999999972
    vertex 0.04461697014797376 0.04731045091540449 0.015
  endloop
endfacet
facet normal -0.998541 0.0540025 0
  outer loop
    vertex 0.04442015337805301 0.04367118546037338 0
    vertex 0.04442015337805301 0.04367118546037338 0.01000000000000003
    vertex 0.04461697014797376 0.0473104509154045 0.005
  endloop
endfacet
facet normal -0.998541 0.0540025 0
  outer loop
    vertex 0.04442015337805301 0.04367118546037338 0.01000000000000003
    vertex 0.04442015337805301 0.04367118546037338 0.02
    vertex 0.04461697014797376 0.04731045091540449 0.015
  endloop
endfacet
facet normal -0.531175 0.847262 0
  outer loop
    vertex 0.04442015337805301 0.04367118546037338 0.02
    vertex 0.04442015337805301 0.04367118546037338 0.009999999999999972
    vertex 0.04035672997069713 0.0411236996418516 0.015
  endloop
endfacet
facet normal -0.531175 0.847262 0
  outer loop
    vertex 0.03281037221417905 0.03639265455031115 0
    vertex 0.03281037221417905 0.03639265455031115 0.01000000000000003
    vertex 0.03687379562153494 0.03894014036883293 0.005000000000000001
  endloop
endfacet
facet normal -0.531175 0.847262 0
  outer loop
    vertex 0.03281037221417905 0.03639265455031115 0.01000000000000003
    vertex 0.03281037221417905 0.03639265455031115 0.02
    vertex 0.03664159999825746 0.03879456975063169 0.015
  endloop
endfacet
facet normal -0.531175 0.847262 0
  outer loop
    vertex 0.04442015337805301 0.04367118546037338 0.009999999999999972
    vertex 0.04442015337805301 0.04367118546037338 0
    vertex 0.04058892559397461 0.04126927026005284 0.004999999999999992
  endloop
endfacet
facet normal -0.531175 0.847262 -1.06322e-15
  outer loop
    vertex 0.03861526279611602 0.04003192000534227 0.02
    vertex 0.04442015337805301 0.04367118546037338 0.02
    vertex 0.04035672997069713 0.0411236996418516 0.015
  endloop
endfacet
facet normal -0.531175 0.847262 4.20342e-16
  outer loop
    vertex 0.03861526279611603 0.04003192000534227 0
    vertex 0.03281037221417905 0.03639265455031115 0
    vertex 0.03687379562153494 0.03894014036883293 0.005000000000000001
  endloop
endfacet
facet normal -0.531175 0.847262 8.90136e-16
  outer loop
    vertex 0.04442015337805301 0.04367118546037338 0
    vertex 0.03861526279611603 0.04003192000534227 0
    vertex 0.04058892559397461 0.04126927026005284 0.004999999999999992
  endloop
endfacet
facet normal -0.531175 0.847262 -5.93424e-16
  outer loop
    vertex 0.03281037221417905 0.03639265455031115 0.02
    vertex 0.03861526279611602 0.04003192000534227 0.02
    vertex 0.03664159999825746 0.03879456975063169 0.015
  endloop
endfacet
facet normal -0.531175 0.847262 -9.6586e-16
  outer loop
    vertex 0.03861526279611602 0.04003192000534227 0.02
    vertex 0.04035672997069713 0.0411236996418516 0.015
    vertex 0.03664159999825746 0.03879456975063169 0.015
  endloop
endfacet
facet normal -0.531175 0.847262 5.21564e-16
  outer loop
    vertex 0.03861526279611603 0.04003192000534227 0
    vertex 0.03687379562153494 0.03894014036883293 0.005000000000000001
    vertex 0.04058892559397461 0.04126927026005284 0.004999999999999992
  endloop
endfacet
facet normal -0.531175 0.847262 2.31806e-16
  outer loop
    vertex 0.03664159999825746 0.03879456975063169 0.015
    vertex 0.04035672997069713 0.0411236996418516 0.015
    vertex 0.03861526279611603 0.04003192000534227 0.009999999999999998
  endloop
endfacet
facet normal -0.531175 0.847262 -5.02247e-16
  outer loop
    vertex 0.04058892559397461 0.04126927026005284 0.004999999999999992
    vertex 0.03687379562153494 0.03894014036883293 0.005000000000000001
    vertex 0.03861526279611603 0.04003192000534227 0.009999999999999998
  endloop
endfacet
facet normal -0.531175 0.847262 9.89041e-17
  outer loop
    vertex 0.03281037221417905 0.03639265455031115 0.01000000000000003
    vertex 0.03664159999825746 0.03879456975063169 0.015
    vertex 0.03861526279611603 0.04003192000534227 0.009999999999999998
  endloop
endfacet
facet normal -0.531175 0.847262 -4.20342e-16
  outer loop
    vertex 0.03687379562153494 0.03894014036883293 0.005000000000000001
    vertex 0.03281037221417905 0.03639265455031115 0.01000000000000003
    vertex 0.03861526279611603 0.04003192000534227 0.009999999999999998
  endloop
endfacet
facet normal -0.531175 0.847262 5.43972e-16
  outer loop
    vertex 0.04035672997069713 0.0411236996418516 0.015
    vertex 0.04442015337805301 0.04367118546037338 0.009999999999999972
    vertex 0.03861526279611603 0.04003192000534227 0.009999999999999998
  endloop
endfacet
facet normal -0.531175 0.847262 -8.90136e-16
  outer loop
    vertex 0.04442015337805301 0.04367118546037338 0.009999999999999972
    vertex 0.04058892559397461 0.04126927026005284 0.004999999999999992
    vertex 0.03861526279611603 0.04003192000534227 0.009999999999999998
  endloop
endfacet
facet normal -0.995803 -0.0915242 -6.25783e-16
  outer loop
    vertex 0.03281037221417905 0.03639265455031115 0.009999999999999972
    vertex 0.03347934168617281 0.02911412364024892 0.01000000000000003
    vertex 0.03314485695017592 0.03275338909528004 0.015
  endloop
endfacet
facet normal -0.995803 -0.0915242 -6.25783e-16
  outer loop
    vertex 0.03281037221417905 0.03639265455031115 0
    vertex 0.03347934168617281 0.02911412364024892 0
    vertex 0.03314485695017592 0.03275338909528004 0.005
  endloop
endfacet
facet normal -0.995803 -0.0915242 6.25783e-16
  outer loop
    vertex 0.03347934168617281 0.02911412364024892 0.01000000000000003
    vertex 0.03281037221417905 0.03639265455031115 0.009999999999999972
    vertex 0.03314485695017592 0.03275338909528004 0.005
  endloop
endfacet
facet normal -0.995803 -0.0915242 6.25783e-16
  outer loop
    vertex 0.03347934168617281 0.02911412364024892 0.02
    vertex 0.03281037221417905 0.03639265455031115 0.02
    vertex 0.03314485695017592 0.03275338909528004 0.015
  endloop
endfacet
facet normal -0.995803 -0.0915242 -0
  outer loop
    vertex 0.03281037221417905 0.03639265455031115 0.009999999999999972
    vertex 0.03281037221417905 0.03639265455031115 0
    vertex 0.03314485695017592 0.03275338909528004 0.005
  endloop
endfacet
facet normal -0.995803 -0.0915242 -0
  outer loop
    vertex 0.03281037221417905 0.03639265455031115 0.02
    vertex 0.03281037221417905 0.03639265455031115 0.009999999999999972
    vertex 0.03314485695017592 0.03275338909528004 0.015
  endloop
endfacet
facet normal -0.995803 -0.0915242 0
  outer loop
    vertex 0.03347934168617281 0.02911412364024892 0
    vertex 0.03347934168617281 0.02911412364024892 0.01000000000000003
    vertex 0.03314485695017592 0.03275338909528004 0.005
  endloop
endfacet
facet normal -0.995803 -0.0915242 0
  outer loop
    vertex 0.03347934168617281 0.02911412364024892 0.01000000000000003
    vertex 0.03347934168617281 0.02911412364024892 0.02
    vertex 0.03314485695017592 0.03275338909528004 0.015
  endloop
endfacet
facet normal -0.721832 -0.692068 -1.47845e-15
  outer loop
    vertex 0.03347934168617281 0.02911412364024892 0
    vertex 0.04045775414717027 0.02183559273018669 0
    vertex 0.03696854791667153 0.0254748581852178 0.004999999999999986
  endloop
endfacet
facet normal -0.721832 -0.692068 1.47845e-15
  outer loop
    vertex 0.04045775414717027 0.02183559273018669 0.02
    vertex 0.03347934168617281 0.02911412364024892 0.02
    vertex 0.03696854791667153 0.0254748581852178 0.01500000000000001
  endloop
endfacet
facet normal -0.721832 -0.692068 0
  outer loop
    vertex 0.03696854791667153 0.0254748581852178 0.004999999999999986
    vertex 0.04045775414717027 0.02183559273018669 0.01000000000000003
    vertex 0.03696854791667153 0.0254748581852178 0.01500000000000001
  endloop
endfacet
facet normal -0.721832 -0.692068 0
  outer loop
    vertex 0.03347934168617281 0.02911412364024892 0.009999999999999972
    vertex 0.03696854791667153 0.0254748581852178 0.004999999999999986
    vertex 0.03696854791667153 0.0254748581852178 0.01500000000000001
  endloop
endfacet
facet normal -0.721832 -0.692068 -0
  outer loop
    vertex 0.03347934168617281 0.02911412364024892 0.02
    vertex 0.03347934168617281 0.02911412364024892 0.009999999999999972
    vertex 0.03696854791667153 0.0254748581852178 0.01500000000000001
  endloop
endfacet
facet normal -0.721832 -0.692068 0
  outer loop
    vertex 0.04045775414717027 0.02183559273018669 0
    vertex 0.04045775414717027 0.02183559273018669 0.01000000000000003
    vertex 0.03696854791667153 0.0254748581852178 0.004999999999999986
  endloop
endfacet
facet normal -0.721832 -0.692068 -0
  outer loop
    vertex 0.03347934168617281 0.02911412364024892 0.009999999999999972
    vertex 0.03347934168617281 0.02911412364024892 0
    vertex 0.03696854791667153 0.0254748581852178 0.004999999999999986
  endloop
endfacet
facet normal -0.721832 -0.692068 0
  outer loop
    vertex 0.04045775414717027 0.02183559273018669 0.01000000000000003
    vertex 0.04045775414717027 0.02183559273018669 0.02
    vertex 0.03696854791667153 0.0254748581852178 0.01500000000000001
  endloop
endfacet
facet normal -0.999926 -0.0121505 0
  outer loop
    vertex 0.040546198654482 0.01455706182012446 0.01000000000000003
    vertex 0.04045775414717027 0.02183559273018669 0.009999999999999972
    vertex 0.04050197640082614 0.01819632727515558 0.005
  endloop
endfacet
facet normal -0.999926 -0.0121505 0
  outer loop
    vertex 0.04045775414717027 0.02183559273018669 0.009999999999999972
    vertex 0.040546198654482 0.01455706182012446 0.01000000000000003
    vertex 0.04050197640082614 0.01819632727515558 0.015
  endloop
endfacet
facet normal -0.999926 -0.0121505 0
  outer loop
    vertex 0.040546198654482 0.01455706182012446 0.02
    vertex 0.04045775414717027 0.02183559273018669 0.02
    vertex 0.04050197640082614 0.01819632727515558 0.015
  endloop
endfacet
facet normal -0.999926 -0.0121505 0
  outer loop
    vertex 0.04045775414717027 0.02183559273018669 0
    vertex 0.040546198654482 0.01455706182012446 0
    vertex 0.04050197640082614 0.01819632727515558 0.005
  endloop
endfacet
facet normal -0.999926 -0.0121505 -0
  outer loop
    vertex 0.04045775414717027 0.02183559273018669 0.009999999999999972
    vertex 0.04045775414717027 0.02183559273018669 0
    vertex 0.04050197640082614 0.01819632727515558 0.005
  endloop
endfacet
facet normal -0.999926 -0.0121505 -0
  outer loop
    vertex 0.04045775414717027 0.02183559273018669 0.02
    vertex 0.04045775414717027 0.02183559273018669 0.009999999999999972
    vertex 0.04050197640082614 0.01819632727515558 0.015
  endloop
endfacet
facet normal -0.999926 -0.0121505 0
  outer loop
    vertex 0.040546198654482 0.01455706182012446 0
    vertex 0.040546198654482 0.01455706182012446 0.01000000000000003
    vertex 0.04050197640082614 0.01819632727515558 0.005
  endloop
endfacet
facet normal -0.999926 -0.0121505 0
  outer loop
    vertex 0.040546198654482 0.01455706182012446 0.01000000000000003
    vertex 0.040546198654482 0.01455706182012446 0.02
    vertex 0.04050197640082614 0.01819632727515558 0.015
  endloop
endfacet
facet normal -0.439566 0.89821 3.17559e-16
  outer loop
    vertex 0.03310971938868752 0.01091779636509336 0.02
    vertex 0.040546198654482 0.01455706182012446 0.02
    vertex 0.03253028416548404 0.01063423225957206 0.01210681846153469
  endloop
endfacet
facet normal -0.439566 0.89821 0
  outer loop
    vertex 0.040546198654482 0.01455706182012446 0.02
    vertex 0.040546198654482 0.01455706182012446 0.009999999999999972
    vertex 0.03253028416548404 0.01063423225957206 0.01210681846153469
  endloop
endfacet
facet normal -0.439566 0.89821 2.59232e-16
  outer loop
    vertex 0.02567324012289299 0.007278530910062232 0.02
    vertex 0.03310971938868752 0.01091779636509336 0.02
    vertex 0.03253028416548404 0.01063423225957206 0.01210681846153469
  endloop
endfacet
facet normal -0.439566 0.89821 0
  outer loop
    vertex 0.02567324012289299 0.007278530910062232 0.01000000000000003
    vertex 0.02567324012289299 0.007278530910062232 0.02
    vertex 0.03253028416548404 0.01063423225957206 0.01210681846153469
  endloop
endfacet
facet normal -0.439566 0.89821 0
  outer loop
    vertex 0.040546198654482 0.01455706182012446 0.009999999999999972
    vertex 0.040546198654482 0.01455706182012446 0
    vertex 0.0353868698981956 0.01203218865867207 0.005737786313522204
  endloop
endfacet
facet normal -0.439566 0.89821 0
  outer loop
    vertex 0.02567324012289299 0.007278530910062232 0
    vertex 0.02567324012289299 0.007278530910062232 0.01000000000000003
    vertex 0.03044987782037716 0.009616122657760901 0.005661029332380926
  endloop
endfacet
facet normal -0.439566 0.89821 -1.42645e-16
  outer loop
    vertex 0.040546198654482 0.01455706182012446 0
    vertex 0.03310971938868748 0.01091779636509334 0
    vertex 0.0353868698981956 0.01203218865867207 0.005737786313522204
  endloop
endfacet
facet normal -0.439566 0.89821 2.02725e-16
  outer loop
    vertex 0.03253028416548404 0.01063423225957206 0.01210681846153469
    vertex 0.040546198654482 0.01455706182012446 0.009999999999999972
    vertex 0.0353868698981956 0.01203218865867207 0.005737786313522204
  endloop
endfacet
facet normal -0.439566 0.89821 0
  outer loop
    vertex 0.03310971938868748 0.01091779636509334 0
    vertex 0.02567324012289299 0.007278530910062232 0
    vertex 0.03044987782037716 0.009616122657760901 0.005661029332380926
  endloop
endfacet
facet normal -0.439566 0.89821 5.73247e-17
  outer loop
    vertex 0.03044987782037716 0.009616122657760901 0.005661029332380926
    vertex 0.02567324012289299 0.007278530910062232 0.01000000000000003
    vertex 0.03253028416548404 0.01063423225957206 0.01210681846153469
  endloop
endfacet
facet normal -0.439566 0.89821 4.80568e-17
  outer loop
    vertex 0.03044987782037716 0.009616122657760901 0.005661029332380926
    vertex 0.03253028416548404 0.01063423225957206 0.01210681846153469
    vertex 0.0353868698981956 0.01203218865867207 0.005737786313522204
  endloop
endfacet
facet normal -0.439566 0.89821 0
  outer loop
    vertex 0.03310971938868748 0.01091779636509334 0
    vertex 0.03044987782037716 0.009616122657760901 0.005661029332380926
    vertex 0.0353868698981956 0.01203218865867207 0.005737786313522204
  endloop
endfacet
endsolid Created by Gmsh
