solid Created by Gmsh
facet normal 1 0 0
  outer loop
    vertex 0.04 0.05849322867867766 0
    vertex 0.04 0.06 0
    vertex 0.04 0.06 0.009999999999999972
  endloop
endfacet
facet normal 1 0 0
  outer loop
    vertex 0.04 0.05849322867867766 0.01000000000000003
    vertex 0.04 0.06 0.02
    vertex 0.04 0.05849322867867766 0.02
  endloop
endfacet
facet normal 1 0 -0
  outer loop
    vertex 0.04 0.06 0.009999999999999972
    vertex 0.04 0.06 0.02
    vertex 0.04 0.05849322867867766 0.01000000000000003
  endloop
endfacet
facet normal 1 0 0
  outer loop
    vertex 0.04 0.05849322867867766 0
    vertex 0.04 0.06 0.009999999999999972
    vertex 0.04 0.05849322867867766 0.01000000000000003
  endloop
endfacet
facet normal 0.881442 0.472292 0
  outer loop
    vertex 0.04 0.05849322867867766 0.02
    vertex 0.0419588543595294 0.0548374018862603 0.015
    vertex 0.04 0.05849322867867766 0.009999999999999972
  endloop
endfacet
facet normal 0.881442 0.472292 -0
  outer loop
    vertex 0.04391770871905878 0.05118157509384295 0
    vertex 0.0419588543595294 0.0548374018862603 0.005
    vertex 0.04391770871905878 0.05118157509384295 0.01000000000000003
  endloop
endfacet
facet normal 0.881442 0.472292 0
  outer loop
    vertex 0.04 0.05849322867867766 0.009999999999999972
    vertex 0.0419588543595294 0.0548374018862603 0.005
    vertex 0.04 0.05849322867867766 0
  endloop
endfacet
facet normal 0.881442 0.472292 -0
  outer loop
    vertex 0.04391770871905878 0.05118157509384295 0.01000000000000003
    vertex 0.0419588543595294 0.0548374018862603 0.015
    vertex 0.04391770871905878 0.05118157509384295 0.02
  endloop
endfacet
facet normal 0.881442 0.472292 -6.12675e-16
  outer loop
    vertex 0.04 0.05849322867867766 0
    vertex 0.0419588543595294 0.0548374018862603 0.005
    vertex 0.04391770871905878 0.05118157509384295 0
  endloop
endfacet
facet normal 0.881442 0.472292 6.12675e-16
  outer loop
    vertex 0.04391770871905878 0.05118157509384295 0.02
    vertex 0.0419588543595294 0.0548374018862603 0.015
    vertex 0.04 0.05849322867867766 0.02
  endloop
endfacet
facet normal 0.881442 0.472292 6.12675e-16
  outer loop
    vertex 0.04391770871905878 0.05118157509384295 0.01000000000000003
    vertex 0.0419588543595294 0.0548374018862603 0.005
    vertex 0.04 0.05849322867867766 0.009999999999999972
  endloop
endfacet
facet normal 0.881442 0.472292 -6.12675e-16
  outer loop
    vertex 0.04 0.05849322867867766 0.009999999999999972
    vertex 0.0419588543595294 0.0548374018862603 0.015
    vertex 0.04391770871905878 0.05118157509384295 0.01000000000000003
  endloop
endfacet
facet normal 0.771556 0.636162 -0
  outer loop
    vertex 0.04994629661395396 0.04386992150900824 0
    vertex 0.04693200266650637 0.04752574830142559 0.005000000000000001
    vertex 0.04994629661395396 0.04386992150900824 0.01000000000000003
  endloop
endfacet
facet normal 0.771556 0.636162 0
  outer loop
    vertex 0.04391770871905878 0.05118157509384295 0.02
    vertex 0.04693200266650637 0.04752574830142559 0.015
    vertex 0.04391770871905878 0.05118157509384295 0.009999999999999972
  endloop
endfacet
facet normal 0.771556 0.636162 -0
  outer loop
    vertex 0.04994629661395396 0.04386992150900824 0.01000000000000003
    vertex 0.04693200266650637 0.04752574830142559 0.015
    vertex 0.04994629661395396 0.04386992150900824 0.02
  endloop
endfacet
facet normal 0.771556 0.636162 0
  outer loop
    vertex 0.04391770871905878 0.05118157509384295 0.009999999999999972
    vertex 0.04693200266650637 0.04752574830142559 0.005000000000000001
    vertex 0.04391770871905878 0.05118157509384295 0
  endloop
endfacet
facet normal 0.771556 0.636162 4.29036e-16
  outer loop
    vertex 0.04391770871905878 0.05118157509384295 0.009999999999999972
    vertex 0.04693200266650637 0.04752574830142559 0.015
    vertex 0.04994629661395396 0.04386992150900824 0.01000000000000003
  endloop
endfacet
facet normal 0.771556 0.636162 4.29036e-16
  outer loop
    vertex 0.04391770871905878 0.05118157509384295 0
    vertex 0.04693200266650637 0.04752574830142559 0.005000000000000001
    vertex 0.04994629661395396 0.04386992150900824 0
  endloop
endfacet
facet normal 0.771556 0.636162 -4.29036e-16
  outer loop
    vertex 0.04994629661395396 0.04386992150900824 0.01000000000000003
    vertex 0.04693200266650637 0.04752574830142559 0.005000000000000001
    vertex 0.04391770871905878 0.05118157509384295 0.009999999999999972
  endloop
endfacet
facet normal 0.771556 0.636162 -4.29036e-16
  outer loop
    vertex 0.04994629661395396 0.04386992150900824 0.02
    vertex 0.04693200266650637 0.04752574830142559 0.015
    vertex 0.04391770871905878 0.05118157509384295 0.02
  endloop
endfacet
facet normal 0.936095 -0.351748 0
  outer loop
    vertex 0.0471988634170729 0.03655826792417353 0
    vertex 0.04857258001551343 0.04021409471659089 0.005
    vertex 0.0471988634170729 0.03655826792417353 0.01000000000000003
  endloop
endfacet
facet normal 0.936095 -0.351748 0
  outer loop
    vertex 0.04994629661395396 0.04386992150900824 0.02
    vertex 0.04857258001551343 0.04021409471659089 0.015
    vertex 0.04994629661395396 0.04386992150900824 0.009999999999999972
  endloop
endfacet
facet normal 0.936095 -0.351748 0
  outer loop
    vertex 0.0471988634170729 0.03655826792417353 0.01000000000000003
    vertex 0.04857258001551343 0.04021409471659089 0.015
    vertex 0.0471988634170729 0.03655826792417353 0.02
  endloop
endfacet
facet normal 0.936095 -0.351748 0
  outer loop
    vertex 0.04994629661395396 0.04386992150900824 0.009999999999999972
    vertex 0.04857258001551343 0.04021409471659089 0.005
    vertex 0.04994629661395396 0.04386992150900824 0
  endloop
endfacet
facet normal 0.936095 -0.351748 6.50663e-16
  outer loop
    vertex 0.04994629661395396 0.04386992150900824 0.009999999999999972
    vertex 0.04857258001551343 0.04021409471659089 0.015
    vertex 0.0471988634170729 0.03655826792417353 0.01000000000000003
  endloop
endfacet
facet normal 0.936095 -0.351748 6.50663e-16
  outer loop
    vertex 0.04994629661395396 0.04386992150900824 0
    vertex 0.04857258001551343 0.04021409471659089 0.005
    vertex 0.0471988634170729 0.03655826792417353 0
  endloop
endfacet
facet normal 0.936095 -0.351748 -6.50663e-16
  outer loop
    vertex 0.0471988634170729 0.03655826792417353 0.02
    vertex 0.04857258001551343 0.04021409471659089 0.015
    vertex 0.04994629661395396 0.04386992150900824 0.02
  endloop
endfacet
facet normal 0.936095 -0.351748 -6.50663e-16
  outer loop
    vertex 0.0471988634170729 0.03655826792417353 0.01000000000000003
    vertex 0.04857258001551343 0.04021409471659089 0.005
    vertex 0.04994629661395396 0.04386992150900824 0.009999999999999972
  endloop
endfacet
facet normal 0.943407 0.331637 0
  outer loop
    vertex 0.0471988634170729 0.03655826792417353 0.02
    vertex 0.04848399993979963 0.03290244113175618 0.015
    vertex 0.0471988634170729 0.03655826792417353 0.009999999999999972
  endloop
endfacet
facet normal 0.943407 0.331637 -0
  outer loop
    vertex 0.04976913646252634 0.02924661433933883 0
    vertex 0.04848399993979963 0.03290244113175618 0.005000000000000001
    vertex 0.04976913646252634 0.02924661433933883 0.01000000000000003
  endloop
endfacet
facet normal 0.943407 0.331637 0
  outer loop
    vertex 0.0471988634170729 0.03655826792417353 0.009999999999999972
    vertex 0.04848399993979963 0.03290244113175618 0.005000000000000001
    vertex 0.0471988634170729 0.03655826792417353 0
  endloop
endfacet
facet normal 0.943407 0.331637 -0
  outer loop
    vertex 0.04976913646252634 0.02924661433933883 0.01000000000000003
    vertex 0.04848399993979963 0.03290244113175618 0.015
    vertex 0.04976913646252634 0.02924661433933883 0.02
  endloop
endfacet
facet normal 0.943407 0.331637 -1.22406e-15
  outer loop
    vertex 0.0471988634170729 0.03655826792417353 0
    vertex 0.04848399993979963 0.03290244113175618 0.005000000000000001
    vertex 0.04976913646252634 0.02924661433933883 0
  endloop
endfacet
facet normal 0.943407 0.331637 1.18034e-15
  outer loop
    vertex 0.04976913646252634 0.02924661433933883 0.02
    vertex 0.04848399993979963 0.03290244113175618 0.015
    vertex 0.0471988634170729 0.03655826792417353 0.02
  endloop
endfacet
facet normal 0.943407 0.331637 -1.22406e-15
  outer loop
    vertex 0.0471988634170729 0.03655826792417353 0.009999999999999972
    vertex 0.04848399993979963 0.03290244113175618 0.015
    vertex 0.04976913646252634 0.02924661433933883 0.01000000000000003
  endloop
endfacet
facet normal 0.943407 0.331637 1.18034e-15
  outer loop
    vertex 0.04976913646252634 0.02924661433933883 0.01000000000000003
    vertex 0.04848399993979963 0.03290244113175618 0.005000000000000001
    vertex 0.0471988634170729 0.03655826792417353 0.009999999999999972
  endloop
endfacet
facet normal 0.387324 -0.921943 -5.64082e-16
  outer loop
    vertex 0.04976913646252634 0.02924661433933883 0
    vertex 0.04284301873302913 0.02633683252642897 0.007636394118580928
    vertex 0.04106721707785213 0.02559078754692148 0
  endloop
endfacet
facet normal 0.387324 -0.921943 0
  outer loop
    vertex 0.04976913646252634 0.02924661433933883 0.009999999999999972
    vertex 0.04284301873302913 0.02633683252642897 0.007636394118580928
    vertex 0.04976913646252634 0.02924661433933883 0
  endloop
endfacet
facet normal 0.387324 -0.921943 0
  outer loop
    vertex 0.03236529769317793 0.02193496075450412 0.01000000000000003
    vertex 0.03874313426449938 0.02461440017291114 0.01307272931060593
    vertex 0.03236529769317793 0.02193496075450412 0.02
  endloop
endfacet
facet normal 0.387324 -0.921943 1.55456e-16
  outer loop
    vertex 0.03236529769317793 0.02193496075450412 0.02
    vertex 0.03874313426449938 0.02461440017291114 0.01307272931060593
    vertex 0.04106721707785213 0.02559078754692148 0.02
  endloop
endfacet
facet normal 0.387324 -0.921943 0
  outer loop
    vertex 0.04976913646252634 0.02924661433933883 0.02
    vertex 0.04452770404989061 0.02704459795678004 0.01419746754017352
    vertex 0.04976913646252634 0.02924661433933883 0.009999999999999972
  endloop
endfacet
facet normal 0.387324 -0.921943 0
  outer loop
    vertex 0.03236529769317793 0.02193496075450412 0
    vertex 0.03671625738551503 0.0237628741507128 0.005000000000000014
    vertex 0.03236529769317793 0.02193496075450412 0.01000000000000003
  endloop
endfacet
facet normal 0.387324 -0.921943 0
  outer loop
    vertex 0.04106721707785213 0.02559078754692148 0
    vertex 0.03671625738551503 0.0237628741507128 0.005000000000000014
    vertex 0.03236529769317793 0.02193496075450412 0
  endloop
endfacet
facet normal 0.387324 -0.921943 7.42358e-16
  outer loop
    vertex 0.04106721707785213 0.02559078754692148 0.02
    vertex 0.04452770404989061 0.02704459795678004 0.01419746754017352
    vertex 0.04976913646252634 0.02924661433933883 0.02
  endloop
endfacet
facet normal 0.387324 -0.921943 -1.03527e-16
  outer loop
    vertex 0.03236529769317793 0.02193496075450412 0.01000000000000003
    vertex 0.03671625738551503 0.0237628741507128 0.005000000000000014
    vertex 0.03874313426449938 0.02461440017291114 0.01307272931060593
  endloop
endfacet
facet normal 0.387324 -0.921943 6.1955e-17
  outer loop
    vertex 0.03874313426449938 0.02461440017291114 0.01307272931060593
    vertex 0.03671625738551503 0.0237628741507128 0.005000000000000014
    vertex 0.04284301873302913 0.02633683252642897 0.007636394118580928
  endloop
endfacet
facet normal 0.387324 -0.921943 -1.97768e-16
  outer loop
    vertex 0.04452770404989061 0.02704459795678004 0.01419746754017352
    vertex 0.04284301873302913 0.02633683252642897 0.007636394118580928
    vertex 0.04976913646252634 0.02924661433933883 0.009999999999999972
  endloop
endfacet
facet normal 0.387324 -0.921943 -5.37864e-16
  outer loop
    vertex 0.04284301873302913 0.02633683252642897 0.007636394118580928
    vertex 0.03671625738551503 0.0237628741507128 0.005000000000000014
    vertex 0.04106721707785213 0.02559078754692148 0
  endloop
endfacet
facet normal 0.387324 -0.921943 2.16571e-17
  outer loop
    vertex 0.04452770404989061 0.02704459795678004 0.01419746754017352
    vertex 0.03874313426449938 0.02461440017291114 0.01307272931060593
    vertex 0.04284301873302913 0.02633683252642897 0.007636394118580928
  endloop
endfacet
facet normal 0.387324 -0.921943 5.21205e-16
  outer loop
    vertex 0.04106721707785213 0.02559078754692148 0.02
    vertex 0.03874313426449938 0.02461440017291114 0.01307272931060593
    vertex 0.04452770404989061 0.02704459795678004 0.01419746754017352
  endloop
endfacet
facet normal 0.997084 -0.0763121 -1.38611e-15
  outer loop
    vertex 0.03236529769317793 0.02193496075450412 0.009999999999999972
    vertex 0.03208549794343055 0.01827913396208677 0.015
    vertex 0.03180569819368316 0.01462330716966941 0.01000000000000003
  endloop
endfacet
facet normal 0.997084 -0.0763121 1.37456e-15
  outer loop
    vertex 0.03180569819368316 0.01462330716966941 0.01000000000000003
    vertex 0.03208549794343055 0.01827913396208677 0.005000000000000001
    vertex 0.03236529769317793 0.02193496075450412 0.009999999999999972
  endloop
endfacet
facet normal 0.997084 -0.0763121 -1.38611e-15
  outer loop
    vertex 0.03236529769317793 0.02193496075450412 0
    vertex 0.03208549794343055 0.01827913396208677 0.005000000000000001
    vertex 0.03180569819368316 0.01462330716966941 0
  endloop
endfacet
facet normal 0.997084 -0.0763121 1.37456e-15
  outer loop
    vertex 0.03180569819368316 0.01462330716966941 0.02
    vertex 0.03208549794343055 0.01827913396208677 0.015
    vertex 0.03236529769317793 0.02193496075450412 0.02
  endloop
endfacet
facet normal 0.997084 -0.0763121 0
  outer loop
    vertex 0.03236529769317793 0.02193496075450412 0.009999999999999972
    vertex 0.03208549794343055 0.01827913396208677 0.005000000000000001
    vertex 0.03236529769317793 0.02193496075450412 0
  endloop
endfacet
facet normal 0.997084 -0.0763121 0
  outer loop
    vertex 0.03236529769317793 0.02193496075450412 0.02
    vertex 0.03208549794343055 0.01827913396208677 0.015
    vertex 0.03236529769317793 0.02193496075450412 0.009999999999999972
  endloop
endfacet
facet normal 0.997084 -0.0763121 0
  outer loop
    vertex 0.03180569819368316 0.01462330716966941 0
    vertex 0.03208549794343055 0.01827913396208677 0.005000000000000001
    vertex 0.03180569819368316 0.01462330716966941 0.01000000000000003
  endloop
endfacet
facet normal 0.997084 -0.0763121 0
  outer loop
    vertex 0.03180569819368316 0.01462330716966941 0.01000000000000003
    vertex 0.03208549794343055 0.01827913396208677 0.015
    vertex 0.03180569819368316 0.01462330716966941 0.02
  endloop
endfacet
facet normal 0.976131 0.217183 -0
  outer loop
    vertex 0.03343249291661488 0.00731165358483471 0
    vertex 0.03261909555514902 0.01096748037725206 0.005
    vertex 0.03343249291661488 0.00731165358483471 0.01000000000000003
  endloop
endfacet
facet normal 0.976131 0.217183 0
  outer loop
    vertex 0.03180569819368316 0.01462330716966941 0.02
    vertex 0.03261909555514902 0.01096748037725206 0.015
    vertex 0.03180569819368316 0.01462330716966941 0.009999999999999972
  endloop
endfacet
facet normal 0.976131 0.217183 -0
  outer loop
    vertex 0.03343249291661488 0.00731165358483471 0.01000000000000003
    vertex 0.03261909555514902 0.01096748037725206 0.015
    vertex 0.03343249291661488 0.00731165358483471 0.02
  endloop
endfacet
facet normal 0.976131 0.217183 0
  outer loop
    vertex 0.03180569819368316 0.01462330716966941 0.009999999999999972
    vertex 0.03261909555514902 0.01096748037725206 0.005
    vertex 0.03180569819368316 0.01462330716966941 0
  endloop
endfacet
facet normal 0.976131 0.217183 0
  outer loop
    vertex 0.03180569819368316 0.01462330716966941 0
    vertex 0.03261909555514902 0.01096748037725206 0.005
    vertex 0.03343249291661488 0.00731165358483471 0
  endloop
endfacet
facet normal 0.976131 0.217183 0
  outer loop
    vertex 0.03180569819368316 0.01462330716966941 0.009999999999999972
    vertex 0.03261909555514902 0.01096748037725206 0.015
    vertex 0.03343249291661488 0.00731165358483471 0.01000000000000003
  endloop
endfacet
facet normal 0.976131 0.217183 0
  outer loop
    vertex 0.03343249291661488 0.00731165358483471 0.02
    vertex 0.03261909555514902 0.01096748037725206 0.015
    vertex 0.03180569819368316 0.01462330716966941 0.02
  endloop
endfacet
facet normal 0.976131 0.217183 0
  outer loop
    vertex 0.03343249291661488 0.00731165358483471 0.01000000000000003
    vertex 0.03261909555514902 0.01096748037725206 0.005
    vertex 0.03180569819368316 0.01462330716966941 0.009999999999999972
  endloop
endfacet
endsolid Created by Gmsh
