solid Created by Gmsh
facet normal -0.735023 0.678042 0
  outer loop
    vertex 0.03732689452118489 0.05832830327583061 0.02
    vertex 0.03732689452118489 0.05832830327583061 0.009999999999999972
    vertex 0.03396398894391884 0.0546827843210912 0.015
  endloop
endfacet
facet normal -0.735023 0.678042 0
  outer loop
    vertex 0.03060108336665277 0.05103726536635179 0
    vertex 0.03060108336665277 0.05103726536635179 0.01000000000000003
    vertex 0.03396398894391884 0.0546827843210912 0.004999999999999999
  endloop
endfacet
facet normal -0.735023 0.678042 0
  outer loop
    vertex 0.03732689452118489 0.05832830327583061 0.009999999999999972
    vertex 0.03732689452118489 0.05832830327583061 0
    vertex 0.03396398894391884 0.0546827843210912 0.004999999999999999
  endloop
endfacet
facet normal -0.735023 0.678042 0
  outer loop
    vertex 0.03060108336665277 0.05103726536635179 0.01000000000000003
    vertex 0.03060108336665277 0.05103726536635179 0.02
    vertex 0.03396398894391884 0.0546827843210912 0.015
  endloop
endfacet
facet normal -0.735023 0.678042 1.02469e-15
  outer loop
    vertex 0.03732689452118489 0.05832830327583061 0.009999999999999972
    vertex 0.03060108336665277 0.05103726536635179 0.01000000000000003
    vertex 0.03396398894391884 0.0546827843210912 0.015
  endloop
endfacet
facet normal -0.735023 0.678042 -1.02469e-15
  outer loop
    vertex 0.03060108336665277 0.05103726536635179 0.01000000000000003
    vertex 0.03732689452118489 0.05832830327583061 0.009999999999999972
    vertex 0.03396398894391884 0.0546827843210912 0.004999999999999999
  endloop
endfacet
facet normal -0.735023 0.678042 1.02469e-15
  outer loop
    vertex 0.03732689452118489 0.05832830327583061 0
    vertex 0.03060108336665277 0.05103726536635179 0
    vertex 0.03396398894391884 0.0546827843210912 0.004999999999999999
  endloop
endfacet
facet normal -0.735023 0.678042 -1.02469e-15
  outer loop
    vertex 0.03060108336665277 0.05103726536635179 0.02
    vertex 0.03732689452118489 0.05832830327583061 0.02
    vertex 0.03396398894391884 0.0546827843210912 0.015
  endloop
endfacet
facet normal -0.994197 0.107577 -6.93002e-16
  outer loop
    vertex 0.03060108336665277 0.05103726536635179 0
    vertex 0.0298121587154356 0.04374622745687296 0
    vertex 0.03020662104104418 0.04739174641161237 0.005
  endloop
endfacet
facet normal -0.994197 0.107577 6.93002e-16
  outer loop
    vertex 0.0298121587154356 0.04374622745687296 0.02
    vertex 0.03060108336665277 0.05103726536635179 0.02
    vertex 0.03020662104104418 0.04739174641161237 0.015
  endloop
endfacet
facet normal -0.994197 0.107577 -6.93002e-16
  outer loop
    vertex 0.03060108336665277 0.05103726536635179 0.009999999999999972
    vertex 0.0298121587154356 0.04374622745687296 0.01000000000000003
    vertex 0.03020662104104418 0.04739174641161237 0.015
  endloop
endfacet
facet normal -0.994197 0.107577 6.93002e-16
  outer loop
    vertex 0.0298121587154356 0.04374622745687296 0.01000000000000003
    vertex 0.03060108336665277 0.05103726536635179 0.009999999999999972
    vertex 0.03020662104104418 0.04739174641161237 0.005
  endloop
endfacet
facet normal -0.994197 0.107577 0
  outer loop
    vertex 0.03060108336665277 0.05103726536635179 0.009999999999999972
    vertex 0.03060108336665277 0.05103726536635179 0
    vertex 0.03020662104104418 0.04739174641161237 0.005
  endloop
endfacet
facet normal -0.994197 0.107577 0
  outer loop
    vertex 0.03060108336665277 0.05103726536635179 0.02
    vertex 0.03060108336665277 0.05103726536635179 0.009999999999999972
    vertex 0.03020662104104418 0.04739174641161237 0.015
  endloop
endfacet
facet normal -0.994197 0.107577 0
  outer loop
    vertex 0.0298121587154356 0.04374622745687296 0
    vertex 0.0298121587154356 0.04374622745687296 0.01000000000000003
    vertex 0.03020662104104418 0.04739174641161237 0.005
  endloop
endfacet
facet normal -0.994197 0.107577 0
  outer loop
    vertex 0.0298121587154356 0.04374622745687296 0.01000000000000003
    vertex 0.0298121587154356 0.04374622745687296 0.02
    vertex 0.03020662104104418 0.04739174641161237 0.015
  endloop
endfacet
facet normal -0.996653 -0.0817517 -5.78928e-17
  outer loop
    vertex 0.03041021537752444 0.03645518954739413 0.01000000000000003
    vertex 0.0298121587154356 0.04374622745687296 0.009999999999999972
    vertex 0.03011118704648002 0.04010070850213355 0.005
  endloop
endfacet
facet normal -0.996653 -0.0817517 5.78928e-17
  outer loop
    vertex 0.0298121587154356 0.04374622745687296 0.009999999999999972
    vertex 0.03041021537752444 0.03645518954739413 0.01000000000000003
    vertex 0.03011118704648002 0.04010070850213355 0.015
  endloop
endfacet
facet normal -0.996653 -0.0817517 5.78928e-17
  outer loop
    vertex 0.0298121587154356 0.04374622745687296 0
    vertex 0.03041021537752444 0.03645518954739413 0
    vertex 0.03011118704648002 0.04010070850213355 0.005
  endloop
endfacet
facet normal -0.996653 -0.0817517 -5.78928e-17
  outer loop
    vertex 0.03041021537752444 0.03645518954739413 0.02
    vertex 0.0298121587154356 0.04374622745687296 0.02
    vertex 0.03011118704648002 0.04010070850213355 0.015
  endloop
endfacet
facet normal -0.996653 -0.0817517 -0
  outer loop
    vertex 0.0298121587154356 0.04374622745687296 0.009999999999999972
    vertex 0.0298121587154356 0.04374622745687296 0
    vertex 0.03011118704648002 0.04010070850213355 0.005
  endloop
endfacet
facet normal -0.996653 -0.0817517 -0
  outer loop
    vertex 0.0298121587154356 0.04374622745687296 0.02
    vertex 0.0298121587154356 0.04374622745687296 0.009999999999999972
    vertex 0.03011118704648002 0.04010070850213355 0.015
  endloop
endfacet
facet normal -0.996653 -0.0817517 0
  outer loop
    vertex 0.03041021537752444 0.03645518954739413 0
    vertex 0.03041021537752444 0.03645518954739413 0.01000000000000003
    vertex 0.03011118704648002 0.04010070850213355 0.005
  endloop
endfacet
facet normal -0.996653 -0.0817517 0
  outer loop
    vertex 0.03041021537752444 0.03645518954739413 0.01000000000000003
    vertex 0.03041021537752444 0.03645518954739413 0.02
    vertex 0.03011118704648002 0.04010070850213355 0.015
  endloop
endfacet
facet normal -0.775741 0.631052 0
  outer loop
    vertex 0.03041021537752444 0.03645518954739413 0.02
    vertex 0.03041021537752444 0.03645518954739413 0.009999999999999972
    vertex 0.02744464635648721 0.03280967059265472 0.015
  endloop
endfacet
facet normal -0.775741 0.631052 0
  outer loop
    vertex 0.02447907733544998 0.02916415163791531 0
    vertex 0.02447907733544998 0.02916415163791531 0.01000000000000003
    vertex 0.02744464635648721 0.03280967059265472 0.005
  endloop
endfacet
facet normal -0.775741 0.631052 0
  outer loop
    vertex 0.03041021537752444 0.03645518954739413 0.009999999999999972
    vertex 0.03041021537752444 0.03645518954739413 0
    vertex 0.02744464635648721 0.03280967059265472 0.005
  endloop
endfacet
facet normal -0.775741 0.631052 0
  outer loop
    vertex 0.02447907733544998 0.02916415163791531 0.01000000000000003
    vertex 0.02447907733544998 0.02916415163791531 0.02
    vertex 0.02744464635648721 0.03280967059265472 0.015
  endloop
endfacet
facet normal -0.775741 0.631052 2.16291e-16
  outer loop
    vertex 0.03041021537752444 0.03645518954739413 0
    vertex 0.02447907733544998 0.02916415163791531 0
    vertex 0.02744464635648721 0.03280967059265472 0.005
  endloop
endfacet
facet normal -0.775741 0.631052 2.16291e-16
  outer loop
    vertex 0.03041021537752444 0.03645518954739413 0.009999999999999972
    vertex 0.02447907733544998 0.02916415163791531 0.01000000000000003
    vertex 0.02744464635648721 0.03280967059265472 0.015
  endloop
endfacet
facet normal -0.775741 0.631052 -2.16291e-16
  outer loop
    vertex 0.02447907733544998 0.02916415163791531 0.02
    vertex 0.03041021537752444 0.03645518954739413 0.02
    vertex 0.02744464635648721 0.03280967059265472 0.015
  endloop
endfacet
facet normal -0.775741 0.631052 -2.16291e-16
  outer loop
    vertex 0.02447907733544998 0.02916415163791531 0.01000000000000003
    vertex 0.03041021537752444 0.03645518954739413 0.009999999999999972
    vertex 0.02744464635648721 0.03280967059265472 0.005
  endloop
endfacet
facet normal -0.866693 -0.498841 -0
  outer loop
    vertex 0.02447907733544998 0.02916415163791531 0.02
    vertex 0.02447907733544998 0.02916415163791531 0.009999999999999972
    vertex 0.02657732362297624 0.02551863268317589 0.015
  endloop
endfacet
facet normal -0.866693 -0.498841 0
  outer loop
    vertex 0.02867556991050251 0.02187311372843648 0
    vertex 0.02867556991050251 0.02187311372843648 0.01000000000000003
    vertex 0.02657732362297624 0.02551863268317589 0.005000000000000001
  endloop
endfacet
facet normal -0.866693 -0.498841 -0
  outer loop
    vertex 0.02447907733544998 0.02916415163791531 0.009999999999999972
    vertex 0.02447907733544998 0.02916415163791531 0
    vertex 0.02657732362297624 0.02551863268317589 0.005000000000000001
  endloop
endfacet
facet normal -0.866693 -0.498841 0
  outer loop
    vertex 0.02867556991050251 0.02187311372843648 0.01000000000000003
    vertex 0.02867556991050251 0.02187311372843648 0.02
    vertex 0.02657732362297624 0.02551863268317589 0.015
  endloop
endfacet
facet normal -0.866693 -0.498841 2.4165e-16
  outer loop
    vertex 0.02447907733544998 0.02916415163791531 0
    vertex 0.02867556991050251 0.02187311372843648 0
    vertex 0.02657732362297624 0.02551863268317589 0.005000000000000001
  endloop
endfacet
facet normal -0.866693 -0.498841 -1.611e-16
  outer loop
    vertex 0.02867556991050251 0.02187311372843648 0.02
    vertex 0.02447907733544998 0.02916415163791531 0.02
    vertex 0.02657732362297624 0.02551863268317589 0.015
  endloop
endfacet
facet normal -0.866693 -0.498841 -1.611e-16
  outer loop
    vertex 0.02867556991050251 0.02187311372843648 0.01000000000000003
    vertex 0.02447907733544998 0.02916415163791531 0.009999999999999972
    vertex 0.02657732362297624 0.02551863268317589 0.005000000000000001
  endloop
endfacet
facet normal -0.866693 -0.498841 2.4165e-16
  outer loop
    vertex 0.02447907733544998 0.02916415163791531 0.009999999999999972
    vertex 0.02867556991050251 0.02187311372843648 0.01000000000000003
    vertex 0.02657732362297624 0.02551863268317589 0.015
  endloop
endfacet
facet normal -0.978514 0.206179 0
  outer loop
    vertex 0.02867556991050251 0.02187311372843648 0.02
    vertex 0.02867556991050251 0.02187311372843648 0.009999999999999972
    vertex 0.02790743462710715 0.01822759477369706 0.015
  endloop
endfacet
facet normal -0.978514 0.206179 0
  outer loop
    vertex 0.02713929934371179 0.01458207581895765 0
    vertex 0.02713929934371179 0.01458207581895765 0.01000000000000003
    vertex 0.02790743462710715 0.01822759477369706 0.005
  endloop
endfacet
facet normal -0.978514 0.206179 0
  outer loop
    vertex 0.02867556991050251 0.02187311372843648 0.009999999999999972
    vertex 0.02867556991050251 0.02187311372843648 0
    vertex 0.02790743462710715 0.01822759477369706 0.005
  endloop
endfacet
facet normal -0.978514 0.206179 0
  outer loop
    vertex 0.02713929934371179 0.01458207581895765 0.01000000000000003
    vertex 0.02713929934371179 0.01458207581895765 0.02
    vertex 0.02790743462710715 0.01822759477369706 0.015
  endloop
endfacet
facet normal -0.978514 0.206179 6.82071e-16
  outer loop
    vertex 0.02713929934371179 0.01458207581895765 0.01000000000000003
    vertex 0.02867556991050251 0.02187311372843648 0.009999999999999972
    vertex 0.02790743462710715 0.01822759477369706 0.005
  endloop
endfacet
facet normal -0.978514 0.206179 -6.82071e-16
  outer loop
    vertex 0.02867556991050251 0.02187311372843648 0.009999999999999972
    vertex 0.02713929934371179 0.01458207581895765 0.01000000000000003
    vertex 0.02790743462710715 0.01822759477369706 0.015
  endloop
endfacet
facet normal -0.978514 0.206179 -6.82071e-16
  outer loop
    vertex 0.02867556991050251 0.02187311372843648 0
    vertex 0.02713929934371179 0.01458207581895765 0
    vertex 0.02790743462710715 0.01822759477369706 0.005
  endloop
endfacet
facet normal -0.978514 0.206179 6.82071e-16
  outer loop
    vertex 0.02713929934371179 0.01458207581895765 0.02
    vertex 0.02867556991050251 0.02187311372843648 0.02
    vertex 0.02790743462710715 0.01822759477369706 0.015
  endloop
endfacet
facet normal -0.722797 0.691061 -9.4047e-16
  outer loop
    vertex 0.02713929934371179 0.01458207581895765 0
    vertex 0.02016838950339262 0.007291037909478826 0
    vertex 0.0236538444235522 0.01093655686421824 0.004999999999999986
  endloop
endfacet
facet normal -0.722797 0.691061 1.07482e-15
  outer loop
    vertex 0.02016838950339262 0.007291037909478826 0.02
    vertex 0.02713929934371179 0.01458207581895765 0.02
    vertex 0.02365384442355222 0.01093655686421826 0.01499999999999999
  endloop
endfacet
facet normal -0.722797 0.691061 0
  outer loop
    vertex 0.02713929934371179 0.01458207581895765 0.02
    vertex 0.02713929934371179 0.01458207581895765 0.009999999999999972
    vertex 0.02365384442355222 0.01093655686421826 0.01499999999999999
  endloop
endfacet
facet normal -0.722797 0.691061 0
  outer loop
    vertex 0.02016838950339262 0.007291037909478826 0
    vertex 0.02016838950339262 0.007291037909478826 0.01000000000000003
    vertex 0.0236538444235522 0.01093655686421824 0.004999999999999986
  endloop
endfacet
facet normal -0.722797 0.691061 -6.4827e-17
  outer loop
    vertex 0.0236538444235522 0.01093655686421824 0.004999999999999986
    vertex 0.02016838950339262 0.007291037909478826 0.01000000000000003
    vertex 0.02365384442355222 0.01093655686421826 0.01499999999999999
  endloop
endfacet
facet normal -0.722797 0.691061 -6.71765e-17
  outer loop
    vertex 0.02713929934371179 0.01458207581895765 0.009999999999999972
    vertex 0.0236538444235522 0.01093655686421824 0.004999999999999986
    vertex 0.02365384442355222 0.01093655686421826 0.01499999999999999
  endloop
endfacet
facet normal -0.722797 0.691061 0
  outer loop
    vertex 0.02713929934371179 0.01458207581895765 0.009999999999999972
    vertex 0.02713929934371179 0.01458207581895765 0
    vertex 0.0236538444235522 0.01093655686421824 0.004999999999999986
  endloop
endfacet
facet normal -0.722797 0.691061 0
  outer loop
    vertex 0.02016838950339262 0.007291037909478826 0.01000000000000003
    vertex 0.02016838950339262 0.007291037909478826 0.02
    vertex 0.02365384442355222 0.01093655686421826 0.01499999999999999
  endloop
endfacet
endsolid Created by Gmsh
