solid Created by Gmsh
facet normal -0.504819 0.863225 1.68953e-15
  outer loop
    vertex 0.0232540391029574 0.04082007832309409 0.02
    vertex 0.03322562397163619 0.0466515180835361 0.02
    vertex 0.02823983153729679 0.0437357982033151 0.01427113702623908
  endloop
endfacet
facet normal -0.504819 0.863225 -1.3436e-15
  outer loop
    vertex 0.03322562397163619 0.0466515180835361 0
    vertex 0.0232540391029574 0.04082007832309409 0
    vertex 0.02823983153729679 0.0437357982033151 0.005675738850308962
  endloop
endfacet
facet normal -0.504819 0.863225 -2.04741e-16
  outer loop
    vertex 0.0232540391029574 0.04082007832309409 0.01000000000000003
    vertex 0.02823983153729679 0.0437357982033151 0.01427113702623908
    vertex 0.02823983153729679 0.0437357982033151 0.005675738850308962
  endloop
endfacet
facet normal -0.504819 0.863225 -2.03765e-16
  outer loop
    vertex 0.02823983153729679 0.0437357982033151 0.01427113702623908
    vertex 0.03322562397163619 0.0466515180835361 0.009999999999999972
    vertex 0.02823983153729679 0.0437357982033151 0.005675738850308962
  endloop
endfacet
facet normal -0.504819 0.863225 0
  outer loop
    vertex 0.03322562397163619 0.0466515180835361 0.02
    vertex 0.03322562397163619 0.0466515180835361 0.009999999999999972
    vertex 0.02823983153729679 0.0437357982033151 0.01427113702623908
  endloop
endfacet
facet normal -0.504819 0.863225 0
  outer loop
    vertex 0.0232540391029574 0.04082007832309409 0
    vertex 0.0232540391029574 0.04082007832309409 0.01000000000000003
    vertex 0.02823983153729679 0.0437357982033151 0.005675738850308962
  endloop
endfacet
facet normal -0.504819 0.863225 0
  outer loop
    vertex 0.03322562397163619 0.0466515180835361 0.009999999999999972
    vertex 0.03322562397163619 0.0466515180835361 0
    vertex 0.02823983153729679 0.0437357982033151 0.005675738850308962
  endloop
endfacet
facet normal -0.504819 0.863225 0
  outer loop
    vertex 0.0232540391029574 0.04082007832309409 0.01000000000000003
    vertex 0.0232540391029574 0.04082007832309409 0.02
    vertex 0.02823983153729679 0.0437357982033151 0.01427113702623908
  endloop
endfacet
facet normal -0.532657 -0.846332 -5.63354e-16
  outer loop
    vertex 0.03251954349515234 0.03498863856265207 0.02
    vertex 0.0232540391029574 0.04082007832309409 0.02
    vertex 0.02788679129905487 0.03790435844287308 0.01450648773478912
  endloop
endfacet
facet normal -0.532657 -0.846332 5.0453e-16
  outer loop
    vertex 0.0232540391029574 0.04082007832309409 0
    vertex 0.03251954349515234 0.03498863856265207 0
    vertex 0.02788679129905487 0.03790435844287308 0.005520616409829229
  endloop
endfacet
facet normal -0.532657 -0.846332 0
  outer loop
    vertex 0.02788679129905487 0.03790435844287308 0.005520616409829229
    vertex 0.03251954349515234 0.03498863856265207 0.01000000000000003
    vertex 0.02788679129905487 0.03790435844287308 0.01450648773478912
  endloop
endfacet
facet normal -0.532657 -0.846332 0
  outer loop
    vertex 0.0232540391029574 0.04082007832309409 0.009999999999999972
    vertex 0.02788679129905487 0.03790435844287308 0.005520616409829229
    vertex 0.02788679129905487 0.03790435844287308 0.01450648773478912
  endloop
endfacet
facet normal -0.532657 -0.846332 -0
  outer loop
    vertex 0.0232540391029574 0.04082007832309409 0.02
    vertex 0.0232540391029574 0.04082007832309409 0.009999999999999972
    vertex 0.02788679129905487 0.03790435844287308 0.01450648773478912
  endloop
endfacet
facet normal -0.532657 -0.846332 0
  outer loop
    vertex 0.03251954349515234 0.03498863856265207 0
    vertex 0.03251954349515234 0.03498863856265207 0.01000000000000003
    vertex 0.02788679129905487 0.03790435844287308 0.005520616409829229
  endloop
endfacet
facet normal -0.532657 -0.846332 -0
  outer loop
    vertex 0.0232540391029574 0.04082007832309409 0.009999999999999972
    vertex 0.0232540391029574 0.04082007832309409 0
    vertex 0.02788679129905487 0.03790435844287308 0.005520616409829229
  endloop
endfacet
facet normal -0.532657 -0.846332 0
  outer loop
    vertex 0.03251954349515234 0.03498863856265207 0.01000000000000003
    vertex 0.03251954349515234 0.03498863856265207 0.02
    vertex 0.02788679129905487 0.03790435844287308 0.01450648773478912
  endloop
endfacet
facet normal -0.618581 0.785721 0
  outer loop
    vertex 0.03251954349515234 0.03498863856265207 0.02
    vertex 0.03251954349515234 0.03498863856265207 0.009999999999999972
    vertex 0.02881600113734613 0.03207291868243107 0.015
  endloop
endfacet
facet normal -0.618581 0.785721 0
  outer loop
    vertex 0.02511245877953992 0.02915719880221006 0
    vertex 0.02511245877953992 0.02915719880221006 0.01000000000000003
    vertex 0.02881600113734613 0.03207291868243107 0.005
  endloop
endfacet
facet normal -0.618581 0.785721 0
  outer loop
    vertex 0.03251954349515234 0.03498863856265207 0.009999999999999972
    vertex 0.03251954349515234 0.03498863856265207 0
    vertex 0.02881600113734613 0.03207291868243107 0.005
  endloop
endfacet
facet normal -0.618581 0.785721 0
  outer loop
    vertex 0.02511245877953992 0.02915719880221006 0.01000000000000003
    vertex 0.02511245877953992 0.02915719880221006 0.02
    vertex 0.02881600113734613 0.03207291868243107 0.015
  endloop
endfacet
facet normal -0.618581 0.785721 2.87522e-16
  outer loop
    vertex 0.02511245877953992 0.02915719880221006 0.01000000000000003
    vertex 0.03251954349515234 0.03498863856265207 0.009999999999999972
    vertex 0.02881600113734613 0.03207291868243107 0.005
  endloop
endfacet
facet normal -0.618581 0.785721 -2.87522e-16
  outer loop
    vertex 0.03251954349515234 0.03498863856265207 0.009999999999999972
    vertex 0.02511245877953992 0.02915719880221006 0.01000000000000003
    vertex 0.02881600113734613 0.03207291868243107 0.015
  endloop
endfacet
facet normal -0.618581 0.785721 2.87522e-16
  outer loop
    vertex 0.02511245877953992 0.02915719880221006 0.02
    vertex 0.03251954349515234 0.03498863856265207 0.02
    vertex 0.02881600113734613 0.03207291868243107 0.015
  endloop
endfacet
facet normal -0.618581 0.785721 -2.87522e-16
  outer loop
    vertex 0.03251954349515234 0.03498863856265207 0
    vertex 0.02511245877953992 0.02915719880221006 0
    vertex 0.02881600113734613 0.03207291868243107 0.005
  endloop
endfacet
facet normal -0.681162 -0.732133 -0
  outer loop
    vertex 0.02511245877953992 0.02915719880221006 0.02
    vertex 0.02511245877953992 0.02915719880221006 0.009999999999999972
    vertex 0.02824636104159485 0.02624147892198905 0.015
  endloop
endfacet
facet normal -0.681162 -0.732133 0
  outer loop
    vertex 0.03138026330364977 0.02332575904176805 0
    vertex 0.03138026330364977 0.02332575904176805 0.01000000000000003
    vertex 0.02824636104159485 0.02624147892198905 0.004999999999999999
  endloop
endfacet
facet normal -0.681162 -0.732133 -0
  outer loop
    vertex 0.02511245877953992 0.02915719880221006 0.009999999999999972
    vertex 0.02511245877953992 0.02915719880221006 0
    vertex 0.02824636104159485 0.02624147892198905 0.004999999999999999
  endloop
endfacet
facet normal -0.681162 -0.732133 0
  outer loop
    vertex 0.03138026330364977 0.02332575904176805 0.01000000000000003
    vertex 0.03138026330364977 0.02332575904176805 0.02
    vertex 0.02824636104159485 0.02624147892198905 0.015
  endloop
endfacet
facet normal -0.681162 -0.732133 -3.1661e-16
  outer loop
    vertex 0.02511245877953992 0.02915719880221006 0
    vertex 0.03138026330364977 0.02332575904176805 0
    vertex 0.02824636104159485 0.02624147892198905 0.004999999999999999
  endloop
endfacet
facet normal -0.681162 -0.732133 2.37458e-16
  outer loop
    vertex 0.03138026330364977 0.02332575904176805 0.02
    vertex 0.02511245877953992 0.02915719880221006 0.02
    vertex 0.02824636104159485 0.02624147892198905 0.015
  endloop
endfacet
facet normal -0.681162 -0.732133 -3.1661e-16
  outer loop
    vertex 0.02511245877953992 0.02915719880221006 0.009999999999999972
    vertex 0.03138026330364977 0.02332575904176805 0.01000000000000003
    vertex 0.02824636104159485 0.02624147892198905 0.015
  endloop
endfacet
facet normal -0.681162 -0.732133 2.37458e-16
  outer loop
    vertex 0.03138026330364977 0.02332575904176805 0.01000000000000003
    vertex 0.02511245877953992 0.02915719880221006 0.009999999999999972
    vertex 0.02824636104159485 0.02624147892198905 0.004999999999999999
  endloop
endfacet
facet normal -0.998339 0.0576197 7.10556e-16
  outer loop
    vertex 0.03104369860040694 0.01749431928132604 0.01000000000000003
    vertex 0.03138026330364977 0.02332575904176805 0.009999999999999972
    vertex 0.03121198095202835 0.02041003916154704 0.004999999999999999
  endloop
endfacet
facet normal -0.998339 0.0576197 -7.10556e-16
  outer loop
    vertex 0.03138026330364977 0.02332575904176805 0.009999999999999972
    vertex 0.03104369860040694 0.01749431928132604 0.01000000000000003
    vertex 0.03121198095202835 0.02041003916154704 0.015
  endloop
endfacet
facet normal -0.998339 0.0576197 7.10556e-16
  outer loop
    vertex 0.03104369860040694 0.01749431928132604 0.02
    vertex 0.03138026330364977 0.02332575904176805 0.02
    vertex 0.03121198095202835 0.02041003916154704 0.015
  endloop
endfacet
facet normal -0.998339 0.0576197 -7.10556e-16
  outer loop
    vertex 0.03138026330364977 0.02332575904176805 0
    vertex 0.03104369860040694 0.01749431928132604 0
    vertex 0.03121198095202835 0.02041003916154704 0.004999999999999999
  endloop
endfacet
facet normal -0.998339 0.0576197 0
  outer loop
    vertex 0.03138026330364977 0.02332575904176805 0.009999999999999972
    vertex 0.03138026330364977 0.02332575904176805 0
    vertex 0.03121198095202835 0.02041003916154704 0.004999999999999999
  endloop
endfacet
facet normal -0.998339 0.0576197 0
  outer loop
    vertex 0.03138026330364977 0.02332575904176805 0.02
    vertex 0.03138026330364977 0.02332575904176805 0.009999999999999972
    vertex 0.03121198095202835 0.02041003916154704 0.015
  endloop
endfacet
facet normal -0.998339 0.0576197 0
  outer loop
    vertex 0.03104369860040694 0.01749431928132604 0
    vertex 0.03104369860040694 0.01749431928132604 0.01000000000000003
    vertex 0.03121198095202835 0.02041003916154704 0.004999999999999999
  endloop
endfacet
facet normal -0.998339 0.0576197 0
  outer loop
    vertex 0.03104369860040694 0.01749431928132604 0.01000000000000003
    vertex 0.03104369860040694 0.01749431928132604 0.02
    vertex 0.03121198095202835 0.02041003916154704 0.015
  endloop
endfacet
facet normal -0.895227 -0.445611 -6.24164e-16
  outer loop
    vertex 0.03394637292861665 0.01166287952088402 0.01000000000000003
    vertex 0.03104369860040694 0.01749431928132604 0.009999999999999972
    vertex 0.0324950357645118 0.01457859940110503 0.005
  endloop
endfacet
facet normal -0.895227 -0.445611 6.24164e-16
  outer loop
    vertex 0.03104369860040694 0.01749431928132604 0.009999999999999972
    vertex 0.03394637292861665 0.01166287952088402 0.01000000000000003
    vertex 0.0324950357645118 0.01457859940110503 0.015
  endloop
endfacet
facet normal -0.895227 -0.445611 6.24164e-16
  outer loop
    vertex 0.03104369860040694 0.01749431928132604 0
    vertex 0.03394637292861665 0.01166287952088402 0
    vertex 0.0324950357645118 0.01457859940110503 0.005
  endloop
endfacet
facet normal -0.895227 -0.445611 -6.24164e-16
  outer loop
    vertex 0.03394637292861665 0.01166287952088402 0.02
    vertex 0.03104369860040694 0.01749431928132604 0.02
    vertex 0.0324950357645118 0.01457859940110503 0.015
  endloop
endfacet
facet normal -0.895227 -0.445611 -0
  outer loop
    vertex 0.03104369860040694 0.01749431928132604 0.009999999999999972
    vertex 0.03104369860040694 0.01749431928132604 0
    vertex 0.0324950357645118 0.01457859940110503 0.005
  endloop
endfacet
facet normal -0.895227 -0.445611 -0
  outer loop
    vertex 0.03104369860040694 0.01749431928132604 0.02
    vertex 0.03104369860040694 0.01749431928132604 0.009999999999999972
    vertex 0.0324950357645118 0.01457859940110503 0.015
  endloop
endfacet
facet normal -0.895227 -0.445611 0
  outer loop
    vertex 0.03394637292861665 0.01166287952088402 0
    vertex 0.03394637292861665 0.01166287952088402 0.01000000000000003
    vertex 0.0324950357645118 0.01457859940110503 0.005
  endloop
endfacet
facet normal -0.895227 -0.445611 0
  outer loop
    vertex 0.03394637292861665 0.01166287952088402 0.01000000000000003
    vertex 0.03394637292861665 0.01166287952088402 0.02
    vertex 0.0324950357645118 0.01457859940110503 0.015
  endloop
endfacet
facet normal -0.496362 0.868116 0
  outer loop
    vertex 0.03394637292861665 0.01166287952088402 0
    vertex 0.0237474371323948 0.005831439760442009 0
    vertex 0.02884690503050573 0.008747159640663018 0.006020408163265299
  endloop
endfacet
facet normal -0.496362 0.868116 -1.46236e-16
  outer loop
    vertex 0.0237474371323948 0.005831439760442009 0.02
    vertex 0.03394637292861665 0.01166287952088402 0.02
    vertex 0.02884690503050574 0.008747159640663022 0.01408371511870053
  endloop
endfacet
facet normal -0.496362 0.868116 0
  outer loop
    vertex 0.0237474371323948 0.005831439760442009 0
    vertex 0.0237474371323948 0.005831439760442009 0.01000000000000003
    vertex 0.02884690503050573 0.008747159640663018 0.006020408163265299
  endloop
endfacet
facet normal -0.496362 0.868116 0
  outer loop
    vertex 0.03394637292861665 0.01166287952088402 0.02
    vertex 0.03394637292861665 0.01166287952088402 0.009999999999999972
    vertex 0.02884690503050574 0.008747159640663022 0.01408371511870053
  endloop
endfacet
facet normal -0.496362 0.868116 5.3616e-17
  outer loop
    vertex 0.02884690503050573 0.008747159640663018 0.006020408163265299
    vertex 0.0237474371323948 0.005831439760442009 0.01000000000000003
    vertex 0.02884690503050574 0.008747159640663022 0.01408371511870053
  endloop
endfacet
facet normal -0.496362 0.868116 3.5766e-17
  outer loop
    vertex 0.03394637292861665 0.01166287952088402 0.009999999999999972
    vertex 0.02884690503050573 0.008747159640663018 0.006020408163265299
    vertex 0.02884690503050574 0.008747159640663022 0.01408371511870053
  endloop
endfacet
facet normal -0.496362 0.868116 0
  outer loop
    vertex 0.0237474371323948 0.005831439760442009 0.01000000000000003
    vertex 0.0237474371323948 0.005831439760442009 0.02
    vertex 0.02884690503050574 0.008747159640663022 0.01408371511870053
  endloop
endfacet
facet normal -0.496362 0.868116 0
  outer loop
    vertex 0.03394637292861665 0.01166287952088402 0.009999999999999972
    vertex 0.03394637292861665 0.01166287952088402 0
    vertex 0.02884690503050573 0.008747159640663018 0.006020408163265299
  endloop
endfacet
endsolid Created by Gmsh
