solid Created by Gmsh
facet normal 0.996234 -0.0867107 2.86047e-16
  outer loop
    vertex 0.008841324435474186 0.009666116067367891 0.02
    vertex 0.009261986653211282 0.01449917410105183 0.00840275073860727
    vertex 0.009682648870948371 0.01933223213473577 0.02
  endloop
endfacet
facet normal 0.996234 -0.0867107 -3.3874e-16
  outer loop
    vertex 0.01136529774189674 0.03866446426947152 0
    vertex 0.01094463552415965 0.03383140623578758 0.01159724926139273
    vertex 0.01052397330642255 0.02899834820210364 0
  endloop
endfacet
facet normal 0.996234 -0.0867107 -3.23371e-16
  outer loop
    vertex 0.01094463552415965 0.03383140623578758 0.01159724926139273
    vertex 0.01010331108868547 0.02416529016841971 0.01
    vertex 0.01052397330642255 0.02899834820210364 0
  endloop
endfacet
facet normal 0.996234 -0.0867107 -2.96817e-16
  outer loop
    vertex 0.01052397330642255 0.02899834820210364 0
    vertex 0.01010331108868547 0.02416529016841971 0.01
    vertex 0.009682648870948371 0.01933223213473578 0
  endloop
endfacet
facet normal 0.996234 -0.0867107 -3.71255e-16
  outer loop
    vertex 0.01136529774189674 0.03866446426947152 0
    vertex 0.01164937494204378 0.04192827436808884 0.007335177594236426
    vertex 0.01094463552415965 0.03383140623578758 0.01159724926139273
  endloop
endfacet
facet normal 0.996234 -0.0867107 3.10818e-16
  outer loop
    vertex 0.008841324435474186 0.009666116067367891 0.02
    vertex 0.008557247235327151 0.006402305968750573 0.01266482240576358
    vertex 0.009261986653211282 0.01449917410105183 0.00840275073860727
  endloop
endfacet
facet normal 0.996234 -0.0867107 2.58697e-16
  outer loop
    vertex 0.009261986653211282 0.01449917410105183 0.00840275073860727
    vertex 0.01010331108868547 0.02416529016841971 0.01
    vertex 0.009682648870948371 0.01933223213473577 0.02
  endloop
endfacet
facet normal 0.996234 -0.0867107 -3.9848e-16
  outer loop
    vertex 0.009682648870948371 0.01933223213473578 0
    vertex 0.01010331108868547 0.02416529016841971 0.01
    vertex 0.009261986653211282 0.01449917410105183 0.00840275073860727
  endloop
endfacet
facet normal 0.996234 -0.0867107 2.79884e-16
  outer loop
    vertex 0.01052397330642255 0.02899834820210363 0.02
    vertex 0.01010331108868547 0.02416529016841971 0.01
    vertex 0.01094463552415965 0.03383140623578758 0.01159724926139273
  endloop
endfacet
facet normal 0.996234 -0.0867107 2.18248e-16
  outer loop
    vertex 0.009682648870948371 0.01933223213473577 0.02
    vertex 0.01010331108868547 0.02416529016841971 0.01
    vertex 0.01052397330642255 0.02899834820210363 0.02
  endloop
endfacet
facet normal 0.996234 -0.0867107 4.46742e-16
  outer loop
    vertex 0.01052397330642255 0.02899834820210363 0.02
    vertex 0.01094463552415965 0.03383140623578758 0.01159724926139273
    vertex 0.01136529774189674 0.03866446426947153 0.02
  endloop
endfacet
facet normal 0.996234 -0.0867107 -4.15574e-16
  outer loop
    vertex 0.009682648870948371 0.01933223213473578 0
    vertex 0.009261986653211282 0.01449917410105183 0.00840275073860727
    vertex 0.008841324435474186 0.009666116067367886 0
  endloop
endfacet
facet normal 0.996234 -0.0867107 2.97536e-16
  outer loop
    vertex 0.008 0 0.02
    vertex 0.008557247235327151 0.006402305968750573 0.01266482240576358
    vertex 0.008841324435474186 0.009666116067367891 0.02
  endloop
endfacet
facet normal 0.996234 -0.0867107 -4.52254e-16
  outer loop
    vertex 0.01220662217737093 0.04833058033683942 0
    vertex 0.01164937494204378 0.04192827436808884 0.007335177594236426
    vertex 0.01136529774189674 0.03866446426947152 0
  endloop
endfacet
facet normal 0.996234 -0.0867107 0
  outer loop
    vertex 0.01220662217737093 0.04833058033683942 0.009999999999999972
    vertex 0.01164937494204378 0.04192827436808884 0.007335177594236426
    vertex 0.01220662217737093 0.04833058033683942 0
  endloop
endfacet
facet normal 0.996234 -0.0867107 0
  outer loop
    vertex 0.008 0 0.01000000000000003
    vertex 0.008557247235327151 0.006402305968750573 0.01266482240576358
    vertex 0.008 0 0.02
  endloop
endfacet
facet normal 0.996234 -0.0867107 6.17501e-16
  outer loop
    vertex 0.01094463552415965 0.03383140623578758 0.01159724926139273
    vertex 0.01171006225977252 0.04262552103328592 0.01416296215332745
    vertex 0.01136529774189674 0.03866446426947153 0.02
  endloop
endfacet
facet normal 0.996234 -0.0867107 -3.97945e-16
  outer loop
    vertex 0.009261986653211282 0.01449917410105183 0.00840275073860727
    vertex 0.008496559917598416 0.005705059303553504 0.005837037846672548
    vertex 0.008841324435474186 0.009666116067367886 0
  endloop
endfacet
facet normal 0.996234 -0.0867107 0
  outer loop
    vertex 0.01220662217737093 0.04833058033683942 0.02
    vertex 0.01171006225977252 0.04262552103328592 0.01416296215332745
    vertex 0.01220662217737093 0.04833058033683942 0.009999999999999972
  endloop
endfacet
facet normal 0.996234 -0.0867107 0
  outer loop
    vertex 0.008 0 0
    vertex 0.008496559917598416 0.005705059303553504 0.005837037846672548
    vertex 0.008 0 0.01000000000000003
  endloop
endfacet
facet normal 0.996234 -0.0867107 7.25368e-16
  outer loop
    vertex 0.01136529774189674 0.03866446426947153 0.02
    vertex 0.01171006225977252 0.04262552103328592 0.01416296215332745
    vertex 0.01220662217737093 0.04833058033683942 0.02
  endloop
endfacet
facet normal 0.996234 -0.0867107 -4.18769e-16
  outer loop
    vertex 0.008841324435474186 0.009666116067367886 0
    vertex 0.008496559917598416 0.005705059303553504 0.005837037846672548
    vertex 0.008 0 0
  endloop
endfacet
facet normal 0.996234 -0.0867107 9.23433e-17
  outer loop
    vertex 0.008557247235327151 0.006402305968750573 0.01266482240576358
    vertex 0.008496559917598416 0.005705059303553504 0.005837037846672548
    vertex 0.009261986653211282 0.01449917410105183 0.00840275073860727
  endloop
endfacet
facet normal 0.996234 -0.0867107 -8.51007e-17
  outer loop
    vertex 0.01164937494204378 0.04192827436808884 0.007335177594236426
    vertex 0.01171006225977252 0.04262552103328592 0.01416296215332745
    vertex 0.01094463552415965 0.03383140623578758 0.01159724926139273
  endloop
endfacet
facet normal 0.996234 -0.0867107 -1.41126e-16
  outer loop
    vertex 0.01220662217737093 0.04833058033683942 0.009999999999999972
    vertex 0.01171006225977252 0.04262552103328592 0.01416296215332745
    vertex 0.01164937494204378 0.04192827436808884 0.007335177594236426
  endloop
endfacet
facet normal 0.996234 -0.0867107 1.20965e-16
  outer loop
    vertex 0.008 0 0.01000000000000003
    vertex 0.008496559917598416 0.005705059303553504 0.005837037846672548
    vertex 0.008557247235327151 0.006402305968750573 0.01266482240576358
  endloop
endfacet
endsolid Created by Gmsh
