solid Created by Gmsh
facet normal 0.997779 -0.0666158 -3.19304e-16
  outer loop
    vertex 0.008 0 0.01000000000000003
    vertex 0.008546787492799073 0.008189846777342968 0.00802566679873992
    vertex 0.008721255071562538 0.01080304250055207 0.02
  endloop
endfacet
facet normal 0.997779 -0.0666158 1.76739e-16
  outer loop
    vertex 0.009442510143125082 0.02160608500110424 0
    vertex 0.009081882607343807 0.01620456375082813 0.01062346268016587
    vertex 0.008721255071562541 0.01080304250055212 0
  endloop
endfacet
facet normal 0.997779 -0.0666158 -2.82772e-16
  outer loop
    vertex 0.01016376521468762 0.03240912750165635 0.02
    vertex 0.01060052423995119 0.03895095507203331 0.009486773392646046
    vertex 0.01088502028625017 0.04321217000220846 0.02
  endloop
endfacet
facet normal 0.997779 -0.0666158 -1.80336e-16
  outer loop
    vertex 0.01016376521468762 0.03240912750165635 0.02
    vertex 0.009811579611987005 0.02713405050869352 0.009851146355504922
    vertex 0.01060052423995119 0.03895095507203331 0.009486773392646046
  endloop
endfacet
facet normal 0.997779 -0.0666158 -2.54381e-16
  outer loop
    vertex 0.009442510143125081 0.02160608500110419 0.02
    vertex 0.009811579611987005 0.02713405050869352 0.009851146355504922
    vertex 0.01016376521468762 0.03240912750165635 0.02
  endloop
endfacet
facet normal 0.997779 -0.0666158 1.6988e-16
  outer loop
    vertex 0.009442510143125082 0.02160608500110424 0
    vertex 0.009811579611987005 0.02713405050869352 0.009851146355504922
    vertex 0.009081882607343807 0.01620456375082813 0.01062346268016587
  endloop
endfacet
facet normal 0.997779 -0.0666158 -3.32823e-16
  outer loop
    vertex 0.009081882607343807 0.01620456375082813 0.01062346268016587
    vertex 0.009811579611987005 0.02713405050869352 0.009851146355504922
    vertex 0.009442510143125081 0.02160608500110419 0.02
  endloop
endfacet
facet normal 0.997779 -0.0666158 -2.32178e-16
  outer loop
    vertex 0.008721255071562538 0.01080304250055207 0.02
    vertex 0.008546787492799073 0.008189846777342968 0.00802566679873992
    vertex 0.009081882607343807 0.01620456375082813 0.01062346268016587
  endloop
endfacet
facet normal 0.997779 -0.0666158 0
  outer loop
    vertex 0.01160627535781271 0.05401521250276059 0.02
    vertex 0.01110659455151436 0.04653093516456919 0.01231071129064387
    vertex 0.01160627535781271 0.05401521250276059 0.009999999999999972
  endloop
endfacet
facet normal 0.997779 -0.0666158 0
  outer loop
    vertex 0.008 0 0
    vertex 0.008546787492799073 0.008189846777342968 0.00802566679873992
    vertex 0.008 0 0.01000000000000003
  endloop
endfacet
facet normal 0.997779 -0.0666158 1.90596e-16
  outer loop
    vertex 0.01016376521468763 0.0324091275016564 0
    vertex 0.009811579611987005 0.02713405050869352 0.009851146355504922
    vertex 0.009442510143125082 0.02160608500110424 0
  endloop
endfacet
facet normal 0.997779 -0.0666158 2.14078e-16
  outer loop
    vertex 0.01060052423995119 0.03895095507203331 0.009486773392646046
    vertex 0.009811579611987005 0.02713405050869352 0.009851146355504922
    vertex 0.01016376521468763 0.0324091275016564 0
  endloop
endfacet
facet normal 0.997779 -0.0666158 -3.25576e-16
  outer loop
    vertex 0.01088502028625017 0.04321217000220846 0.02
    vertex 0.01110659455151436 0.04653093516456919 0.01231071129064387
    vertex 0.01160627535781271 0.05401521250276059 0.02
  endloop
endfacet
facet normal 0.997779 -0.0666158 3.80165e-16
  outer loop
    vertex 0.008721255071562541 0.01080304250055212 0
    vertex 0.008546787492799073 0.008189846777342968 0.00802566679873992
    vertex 0.008 0 0
  endloop
endfacet
facet normal 0.997779 -0.0666158 -2.75334e-16
  outer loop
    vertex 0.008721255071562538 0.01080304250055207 0.02
    vertex 0.009081882607343807 0.01620456375082813 0.01062346268016587
    vertex 0.009442510143125081 0.02160608500110419 0.02
  endloop
endfacet
facet normal 0.997779 -0.0666158 1.97916e-16
  outer loop
    vertex 0.01088502028625017 0.04321217000220852 0
    vertex 0.01060052423995119 0.03895095507203331 0.009486773392646046
    vertex 0.01016376521468763 0.0324091275016564 0
  endloop
endfacet
facet normal 0.997779 -0.0666158 1.30982e-16
  outer loop
    vertex 0.01088502028625017 0.04321217000220852 0
    vertex 0.01120242850398898 0.04796634727104674 0.005693620886049982
    vertex 0.01060052423995119 0.03895095507203331 0.009486773392646046
  endloop
endfacet
facet normal 0.997779 -0.0666158 2.91177e-16
  outer loop
    vertex 0.009081882607343807 0.01620456375082813 0.01062346268016587
    vertex 0.008546787492799073 0.008189846777342968 0.00802566679873992
    vertex 0.008721255071562541 0.01080304250055212 0
  endloop
endfacet
facet normal 0.997779 -0.0666158 -3.56016e-16
  outer loop
    vertex 0.01060052423995119 0.03895095507203331 0.009486773392646046
    vertex 0.01110659455151436 0.04653093516456919 0.01231071129064387
    vertex 0.01088502028625017 0.04321217000220846 0.02
  endloop
endfacet
facet normal 0.997779 -0.0666158 6.23602e-17
  outer loop
    vertex 0.01060052423995119 0.03895095507203331 0.009486773392646046
    vertex 0.01120242850398898 0.04796634727104674 0.005693620886049982
    vertex 0.01110659455151436 0.04653093516456919 0.01231071129064387
  endloop
endfacet
facet normal 0.997779 -0.0666158 1.23664e-16
  outer loop
    vertex 0.01160627535781271 0.05401521250276059 0
    vertex 0.01120242850398898 0.04796634727104674 0.005693620886049982
    vertex 0.01088502028625017 0.04321217000220852 0
  endloop
endfacet
facet normal 0.997779 -0.0666158 0
  outer loop
    vertex 0.01160627535781271 0.05401521250276059 0.009999999999999972
    vertex 0.01120242850398898 0.04796634727104674 0.005693620886049982
    vertex 0.01160627535781271 0.05401521250276059 0
  endloop
endfacet
facet normal 0.997779 -0.0666158 3.65808e-17
  outer loop
    vertex 0.01110659455151436 0.04653093516456919 0.01231071129064387
    vertex 0.01120242850398898 0.04796634727104674 0.005693620886049982
    vertex 0.01160627535781271 0.05401521250276059 0.009999999999999972
  endloop
endfacet
facet normal 0.997779 -0.0666158 0
  outer loop
    vertex 0.008 0 0.01000000000000003
    vertex 0.008721255071562538 0.01080304250055207 0.02
    vertex 0.008 0 0.02
  endloop
endfacet
endsolid Created by Gmsh
