solid Created by Gmsh
facet normal -0.686837 0.726811 0
  outer loop
    vertex 0.03472356453863965 0.04835762608068948 0.02
    vertex 0.03472356453863965 0.04835762608068948 0.009999999999999972
    vertex 0.0315253095288727 0.04533527445064639 0.015
  endloop
endfacet
facet normal -0.686837 0.726811 0
  outer loop
    vertex 0.02832705451910576 0.0423129228206033 0
    vertex 0.02832705451910576 0.0423129228206033 0.01000000000000003
    vertex 0.0315253095288727 0.04533527445064639 0.005
  endloop
endfacet
facet normal -0.686837 0.726811 0
  outer loop
    vertex 0.03472356453863965 0.04835762608068948 0.009999999999999972
    vertex 0.03472356453863965 0.04835762608068948 0
    vertex 0.0315253095288727 0.04533527445064639 0.005
  endloop
endfacet
facet normal -0.686837 0.726811 0
  outer loop
    vertex 0.02832705451910576 0.0423129228206033 0.01000000000000003
    vertex 0.02832705451910576 0.0423129228206033 0.02
    vertex 0.0315253095288727 0.04533527445064639 0.015
  endloop
endfacet
facet normal -0.686837 0.726811 -4.61977e-16
  outer loop
    vertex 0.02832705451910576 0.0423129228206033 0.02
    vertex 0.03472356453863965 0.04835762608068948 0.02
    vertex 0.0315253095288727 0.04533527445064639 0.015
  endloop
endfacet
facet normal -0.686837 0.726811 4.61977e-16
  outer loop
    vertex 0.03472356453863965 0.04835762608068948 0.009999999999999972
    vertex 0.02832705451910576 0.0423129228206033 0.01000000000000003
    vertex 0.0315253095288727 0.04533527445064639 0.015
  endloop
endfacet
facet normal -0.686837 0.726811 -4.61977e-16
  outer loop
    vertex 0.02832705451910576 0.0423129228206033 0.01000000000000003
    vertex 0.03472356453863965 0.04835762608068948 0.009999999999999972
    vertex 0.0315253095288727 0.04533527445064639 0.005
  endloop
endfacet
facet normal -0.686837 0.726811 4.61977e-16
  outer loop
    vertex 0.03472356453863965 0.04835762608068948 0
    vertex 0.02832705451910576 0.0423129228206033 0
    vertex 0.0315253095288727 0.04533527445064639 0.005
  endloop
endfacet
facet normal -0.895923 -0.44421 0
  outer loop
    vertex 0.02832705451910576 0.0423129228206033 0
    vertex 0.03132409215289107 0.03626821956051711 0
    vertex 0.02982557333599841 0.0392905711905602 0.005000000000000001
  endloop
endfacet
facet normal -0.895923 -0.44421 0
  outer loop
    vertex 0.03132409215289107 0.03626821956051711 0.02
    vertex 0.02832705451910576 0.0423129228206033 0.02
    vertex 0.02982557333599841 0.0392905711905602 0.015
  endloop
endfacet
facet normal -0.895923 -0.44421 0
  outer loop
    vertex 0.03132409215289107 0.03626821956051711 0.01000000000000003
    vertex 0.02832705451910576 0.0423129228206033 0.009999999999999972
    vertex 0.02982557333599841 0.0392905711905602 0.005000000000000001
  endloop
endfacet
facet normal -0.895923 -0.44421 0
  outer loop
    vertex 0.02832705451910576 0.0423129228206033 0.009999999999999972
    vertex 0.03132409215289107 0.03626821956051711 0.01000000000000003
    vertex 0.02982557333599841 0.0392905711905602 0.015
  endloop
endfacet
facet normal -0.895923 -0.44421 -0
  outer loop
    vertex 0.02832705451910576 0.0423129228206033 0.009999999999999972
    vertex 0.02832705451910576 0.0423129228206033 0
    vertex 0.02982557333599841 0.0392905711905602 0.005000000000000001
  endloop
endfacet
facet normal -0.895923 -0.44421 -0
  outer loop
    vertex 0.02832705451910576 0.0423129228206033 0.02
    vertex 0.02832705451910576 0.0423129228206033 0.009999999999999972
    vertex 0.02982557333599841 0.0392905711905602 0.015
  endloop
endfacet
facet normal -0.895923 -0.44421 0
  outer loop
    vertex 0.03132409215289107 0.03626821956051711 0
    vertex 0.03132409215289107 0.03626821956051711 0.01000000000000003
    vertex 0.02982557333599841 0.0392905711905602 0.005000000000000001
  endloop
endfacet
facet normal -0.895923 -0.44421 0
  outer loop
    vertex 0.03132409215289107 0.03626821956051711 0.01000000000000003
    vertex 0.03132409215289107 0.03626821956051711 0.02
    vertex 0.02982557333599841 0.0392905711905602 0.015
  endloop
endfacet
facet normal -0.377055 0.926191 -1.66217e-18
  outer loop
    vertex 0.02390005277267421 0.03324586793047402 0
    vertex 0.01647601339245736 0.03022351630043093 0
    vertex 0.02420704589414197 0.03337084587220646 0.007946862873817058
  endloop
endfacet
facet normal -0.377055 0.926191 0
  outer loop
    vertex 0.03132409215289107 0.03626821956051711 0
    vertex 0.02390005277267421 0.03324586793047402 0
    vertex 0.02420704589414197 0.03337084587220646 0.007946862873817058
  endloop
endfacet
facet normal -0.377055 0.926191 0
  outer loop
    vertex 0.01647601339245736 0.03022351630043093 0
    vertex 0.01647601339245736 0.03022351630043093 0.01000000000000003
    vertex 0.02420704589414197 0.03337084587220646 0.007946862873817058
  endloop
endfacet
facet normal -0.377055 0.926191 0
  outer loop
    vertex 0.03132409215289107 0.03626821956051711 0.009999999999999972
    vertex 0.03132409215289107 0.03626821956051711 0
    vertex 0.02420704589414197 0.03337084587220646 0.007946862873817058
  endloop
endfacet
facet normal -0.377055 0.926191 0
  outer loop
    vertex 0.03132409215289107 0.03626821956051711 0.02
    vertex 0.03132409215289107 0.03626821956051711 0.009999999999999972
    vertex 0.02647044057862813 0.03429228153057817 0.01436947080870242
  endloop
endfacet
facet normal -0.377055 0.926191 0
  outer loop
    vertex 0.01647601339245736 0.03022351630043093 0.01000000000000003
    vertex 0.01647601339245736 0.03022351630043093 0.02
    vertex 0.0215059132060718 0.0322712055868241 0.0144632667365039
  endloop
endfacet
facet normal -0.377055 0.926191 3.81713e-16
  outer loop
    vertex 0.01647601339245736 0.03022351630043093 0.02
    vertex 0.02390005277267421 0.03324586793047402 0.02
    vertex 0.0215059132060718 0.0322712055868241 0.0144632667365039
  endloop
endfacet
facet normal -0.377055 0.926191 8.63315e-16
  outer loop
    vertex 0.02390005277267421 0.03324586793047402 0.02
    vertex 0.03132409215289107 0.03626821956051711 0.02
    vertex 0.02647044057862813 0.03429228153057817 0.01436947080870242
  endloop
endfacet
facet normal -0.377055 0.926191 3.49974e-16
  outer loop
    vertex 0.02420704589414197 0.03337084587220646 0.007946862873817058
    vertex 0.01647601339245736 0.03022351630043093 0.01000000000000003
    vertex 0.0215059132060718 0.0322712055868241 0.0144632667365039
  endloop
endfacet
facet normal -0.377055 0.926191 -9.55258e-17
  outer loop
    vertex 0.02647044057862813 0.03429228153057817 0.01436947080870242
    vertex 0.03132409215289107 0.03626821956051711 0.009999999999999972
    vertex 0.02420704589414197 0.03337084587220646 0.007946862873817058
  endloop
endfacet
facet normal -0.377055 0.926191 2.68857e-16
  outer loop
    vertex 0.02647044057862813 0.03429228153057817 0.01436947080870242
    vertex 0.02420704589414197 0.03337084587220646 0.007946862873817058
    vertex 0.0215059132060718 0.0322712055868241 0.0144632667365039
  endloop
endfacet
facet normal -0.377055 0.926191 8.35137e-16
  outer loop
    vertex 0.02390005277267421 0.03324586793047402 0.02
    vertex 0.02647044057862813 0.03429228153057817 0.01436947080870242
    vertex 0.0215059132060718 0.0322712055868241 0.0144632667365039
  endloop
endfacet
facet normal -0.327272 -0.94493 -1.90985e-16
  outer loop
    vertex 0.01647601339245736 0.03022351630043093 0
    vertex 0.02520243803781771 0.02720116467038784 0
    vertex 0.023585446191432 0.02776120135680885 0.007683936294165283
  endloop
endfacet
facet normal -0.327272 -0.94493 -0
  outer loop
    vertex 0.01647601339245736 0.03022351630043093 0.009999999999999972
    vertex 0.01647601339245736 0.03022351630043093 0
    vertex 0.023585446191432 0.02776120135680885 0.007683936294165283
  endloop
endfacet
facet normal -0.327272 -0.94493 0
  outer loop
    vertex 0.03392886268317807 0.02417881304034474 0.01000000000000003
    vertex 0.03392886268317807 0.02417881304034474 0.02
    vertex 0.02748077307388186 0.02641207522197395 0.01320805598907355
  endloop
endfacet
facet normal -0.327272 -0.94493 0
  outer loop
    vertex 0.03392886268317807 0.02417881304034474 0.02
    vertex 0.02520243803781772 0.02720116467038783 0.02
    vertex 0.02748077307388186 0.02641207522197395 0.01320805598907355
  endloop
endfacet
facet normal -0.327272 -0.94493 -0
  outer loop
    vertex 0.01647601339245736 0.03022351630043093 0.02
    vertex 0.01647601339245736 0.03022351630043093 0.009999999999999972
    vertex 0.02178467023226751 0.02838489071146532 0.01422314716601813
  endloop
endfacet
facet normal -0.327272 -0.94493 0
  outer loop
    vertex 0.03392886268317807 0.02417881304034474 0
    vertex 0.03392886268317807 0.02417881304034474 0.01000000000000003
    vertex 0.02956565036049789 0.02568998885536629 0.005000000000000015
  endloop
endfacet
facet normal -0.327272 -0.94493 2.2228e-16
  outer loop
    vertex 0.02520243803781772 0.02720116467038783 0.02
    vertex 0.01647601339245736 0.03022351630043093 0.02
    vertex 0.02178467023226751 0.02838489071146532 0.01422314716601813
  endloop
endfacet
facet normal -0.327272 -0.94493 -3.30192e-16
  outer loop
    vertex 0.02520243803781771 0.02720116467038784 0
    vertex 0.03392886268317807 0.02417881304034474 0
    vertex 0.02956565036049789 0.02568998885536629 0.005000000000000015
  endloop
endfacet
facet normal -0.327272 -0.94493 1.03861e-16
  outer loop
    vertex 0.03392886268317807 0.02417881304034474 0.01000000000000003
    vertex 0.02748077307388186 0.02641207522197395 0.01320805598907355
    vertex 0.02956565036049789 0.02568998885536629 0.005000000000000015
  endloop
endfacet
facet normal -0.327272 -0.94493 4.60097e-17
  outer loop
    vertex 0.02748077307388186 0.02641207522197395 0.01320805598907355
    vertex 0.023585446191432 0.02776120135680885 0.007683936294165283
    vertex 0.02956565036049789 0.02568998885536629 0.005000000000000015
  endloop
endfacet
facet normal -0.327272 -0.94493 -2.08043e-16
  outer loop
    vertex 0.02178467023226751 0.02838489071146532 0.01422314716601813
    vertex 0.01647601339245736 0.03022351630043093 0.009999999999999972
    vertex 0.023585446191432 0.02776120135680885 0.007683936294165283
  endloop
endfacet
facet normal -0.327272 -0.94493 -2.78903e-16
  outer loop
    vertex 0.023585446191432 0.02776120135680885 0.007683936294165283
    vertex 0.02520243803781771 0.02720116467038784 0
    vertex 0.02956565036049789 0.02568998885536629 0.005000000000000015
  endloop
endfacet
facet normal -0.327272 -0.94493 -1.12985e-16
  outer loop
    vertex 0.02178467023226751 0.02838489071146532 0.01422314716601813
    vertex 0.023585446191432 0.02776120135680885 0.007683936294165283
    vertex 0.02748077307388186 0.02641207522197395 0.01320805598907355
  endloop
endfacet
facet normal -0.327272 -0.94493 3.30057e-17
  outer loop
    vertex 0.02520243803781772 0.02720116467038783 0.02
    vertex 0.02178467023226751 0.02838489071146532 0.01422314716601813
    vertex 0.02748077307388186 0.02641207522197395 0.01320805598907355
  endloop
endfacet
facet normal -0.748826 -0.662767 -0
  outer loop
    vertex 0.03392886268317807 0.02417881304034474 0.02
    vertex 0.03392886268317807 0.02417881304034474 0.009999999999999972
    vertex 0.03660387234882874 0.02115646141030164 0.015
  endloop
endfacet
facet normal -0.748826 -0.662767 0
  outer loop
    vertex 0.03927888201447942 0.01813410978025855 0
    vertex 0.03927888201447942 0.01813410978025855 0.01000000000000003
    vertex 0.03660387234882874 0.02115646141030164 0.005
  endloop
endfacet
facet normal -0.748826 -0.662767 -0
  outer loop
    vertex 0.03392886268317807 0.02417881304034474 0.009999999999999972
    vertex 0.03392886268317807 0.02417881304034474 0
    vertex 0.03660387234882874 0.02115646141030164 0.005
  endloop
endfacet
facet normal -0.748826 -0.662767 0
  outer loop
    vertex 0.03927888201447942 0.01813410978025855 0.01000000000000003
    vertex 0.03927888201447942 0.01813410978025855 0.02
    vertex 0.03660387234882874 0.02115646141030164 0.015
  endloop
endfacet
facet normal -0.748826 -0.662767 -1.51101e-15
  outer loop
    vertex 0.03392886268317807 0.02417881304034474 0
    vertex 0.03927888201447942 0.01813410978025855 0
    vertex 0.03660387234882874 0.02115646141030164 0.005
  endloop
endfacet
facet normal -0.748826 -0.662767 1.51101e-15
  outer loop
    vertex 0.03927888201447942 0.01813410978025855 0.02
    vertex 0.03392886268317807 0.02417881304034474 0.02
    vertex 0.03660387234882874 0.02115646141030164 0.015
  endloop
endfacet
facet normal -0.748826 -0.662767 1.51101e-15
  outer loop
    vertex 0.03927888201447942 0.01813410978025855 0.01000000000000003
    vertex 0.03392886268317807 0.02417881304034474 0.009999999999999972
    vertex 0.03660387234882874 0.02115646141030164 0.005
  endloop
endfacet
facet normal -0.748826 -0.662767 -1.51101e-15
  outer loop
    vertex 0.03392886268317807 0.02417881304034474 0.009999999999999972
    vertex 0.03927888201447942 0.01813410978025855 0.01000000000000003
    vertex 0.03660387234882874 0.02115646141030164 0.015
  endloop
endfacet
facet normal -0.752242 0.658887 0
  outer loop
    vertex 0.03927888201447942 0.01813410978025855 0.02
    vertex 0.03927888201447942 0.01813410978025855 0.009999999999999972
    vertex 0.03663161144413096 0.01511175815021547 0.015
  endloop
endfacet
facet normal -0.752242 0.658887 0
  outer loop
    vertex 0.03398434087378251 0.01208940652017237 0
    vertex 0.03398434087378251 0.01208940652017237 0.01000000000000003
    vertex 0.03663161144413096 0.01511175815021547 0.005000000000000001
  endloop
endfacet
facet normal -0.752242 0.658887 0
  outer loop
    vertex 0.03398434087378251 0.01208940652017237 0.01000000000000003
    vertex 0.03398434087378251 0.01208940652017237 0.02
    vertex 0.03663161144413096 0.01511175815021547 0.015
  endloop
endfacet
facet normal -0.752242 0.658887 0
  outer loop
    vertex 0.03927888201447942 0.01813410978025855 0.009999999999999972
    vertex 0.03927888201447942 0.01813410978025855 0
    vertex 0.03663161144413096 0.01511175815021547 0.005000000000000001
  endloop
endfacet
facet normal -0.752242 0.658887 -1.01194e-15
  outer loop
    vertex 0.03927888201447942 0.01813410978025855 0
    vertex 0.03398434087378251 0.01208940652017237 0
    vertex 0.03663161144413096 0.01511175815021547 0.005000000000000001
  endloop
endfacet
facet normal -0.752242 0.658887 7.58954e-16
  outer loop
    vertex 0.03398434087378251 0.01208940652017237 0.02
    vertex 0.03927888201447942 0.01813410978025855 0.02
    vertex 0.03663161144413096 0.01511175815021547 0.015
  endloop
endfacet
facet normal -0.752242 0.658887 -7.58954e-16
  outer loop
    vertex 0.03927888201447942 0.01813410978025855 0.009999999999999972
    vertex 0.03398434087378251 0.01208940652017237 0.01000000000000003
    vertex 0.03663161144413096 0.01511175815021547 0.015
  endloop
endfacet
facet normal -0.752242 0.658887 1.01194e-15
  outer loop
    vertex 0.03398434087378251 0.01208940652017237 0.01000000000000003
    vertex 0.03927888201447942 0.01813410978025855 0.009999999999999972
    vertex 0.03663161144413096 0.01511175815021547 0.005000000000000001
  endloop
endfacet
facet normal -0.544232 0.838935 -4.44231e-16
  outer loop
    vertex 0.03398434087378251 0.01208940652017237 0
    vertex 0.02466641746894198 0.006044703260086187 0
    vertex 0.02932537917136225 0.009067054890129283 0.005493512265210879
  endloop
endfacet
facet normal -0.544232 0.838935 4.4205e-16
  outer loop
    vertex 0.02466641746894198 0.006044703260086187 0.02
    vertex 0.03398434087378251 0.01208940652017237 0.02
    vertex 0.02932537917136225 0.009067054890129283 0.01447938359017077
  endloop
endfacet
facet normal -0.544232 0.838935 0
  outer loop
    vertex 0.02466641746894198 0.006044703260086187 0.01000000000000003
    vertex 0.02932537917136225 0.009067054890129283 0.01447938359017077
    vertex 0.02932537917136225 0.009067054890129283 0.005493512265210879
  endloop
endfacet
facet normal -0.544232 0.838935 0
  outer loop
    vertex 0.02466641746894198 0.006044703260086187 0
    vertex 0.02466641746894198 0.006044703260086187 0.01000000000000003
    vertex 0.02932537917136225 0.009067054890129283 0.005493512265210879
  endloop
endfacet
facet normal -0.544232 0.838935 0
  outer loop
    vertex 0.02932537917136225 0.009067054890129283 0.01447938359017077
    vertex 0.03398434087378251 0.01208940652017237 0.009999999999999972
    vertex 0.02932537917136225 0.009067054890129283 0.005493512265210879
  endloop
endfacet
facet normal -0.544232 0.838935 0
  outer loop
    vertex 0.03398434087378251 0.01208940652017237 0.02
    vertex 0.03398434087378251 0.01208940652017237 0.009999999999999972
    vertex 0.02932537917136225 0.009067054890129283 0.01447938359017077
  endloop
endfacet
facet normal -0.544232 0.838935 0
  outer loop
    vertex 0.03398434087378251 0.01208940652017237 0.009999999999999972
    vertex 0.03398434087378251 0.01208940652017237 0
    vertex 0.02932537917136225 0.009067054890129283 0.005493512265210879
  endloop
endfacet
facet normal -0.544232 0.838935 0
  outer loop
    vertex 0.02466641746894198 0.006044703260086187 0.01000000000000003
    vertex 0.02466641746894198 0.006044703260086187 0.02
    vertex 0.02932537917136225 0.009067054890129283 0.01447938359017077
  endloop
endfacet
endsolid Created by Gmsh
