solid Created by Gmsh
facet normal 1 1.77873e-15 -0
  outer loop
    vertex 0.04 0.052197916329086 0
    vertex 0.03999999999999999 0.056098958164543 0.004999999999999999
    vertex 0.04 0.052197916329086 0.01000000000000003
  endloop
endfacet
facet normal 1 -1.77873e-15 0
  outer loop
    vertex 0.04 0.06 0.02
    vertex 0.03999999999999999 0.05609895816454299 0.015
    vertex 0.04 0.06 0.009999999999999972
  endloop
endfacet
facet normal 1 1.77873e-15 -0
  outer loop
    vertex 0.04 0.052197916329086 0.01000000000000003
    vertex 0.03999999999999999 0.05609895816454299 0.015
    vertex 0.04 0.052197916329086 0.02
  endloop
endfacet
facet normal 1 -1.77873e-15 0
  outer loop
    vertex 0.04 0.06 0.009999999999999972
    vertex 0.03999999999999999 0.056098958164543 0.004999999999999999
    vertex 0.04 0.06 0
  endloop
endfacet
facet normal 1 9.87393e-30 1.38778e-15
  outer loop
    vertex 0.04 0.06 0.009999999999999972
    vertex 0.03999999999999999 0.05609895816454299 0.015
    vertex 0.04 0.052197916329086 0.01000000000000003
  endloop
endfacet
facet normal 1 0 1.38778e-15
  outer loop
    vertex 0.04 0.06 0
    vertex 0.03999999999999999 0.056098958164543 0.004999999999999999
    vertex 0.04 0.052197916329086 0
  endloop
endfacet
facet normal 1 0 -1.38778e-15
  outer loop
    vertex 0.04 0.052197916329086 0.02
    vertex 0.03999999999999999 0.05609895816454299 0.015
    vertex 0.04 0.06 0.02
  endloop
endfacet
facet normal 1 -9.87393e-30 -1.38778e-15
  outer loop
    vertex 0.04 0.052197916329086 0.01000000000000003
    vertex 0.03999999999999999 0.056098958164543 0.004999999999999999
    vertex 0.04 0.06 0.009999999999999972
  endloop
endfacet
facet normal 0.287347 -0.957827 8.62629e-16
  outer loop
    vertex 0.02912537837909989 0.04893554655851812 0.02
    vertex 0.03153926227790079 0.04965970801770613 0.00858376694691235
    vertex 0.04 0.052197916329086 0.02
  endloop
endfacet
facet normal 0.287347 -0.957827 0
  outer loop
    vertex 0.04 0.052197916329086 0.009999999999999972
    vertex 0.03153926227790079 0.04965970801770613 0.00858376694691235
    vertex 0.04 0.052197916329086 0
  endloop
endfacet
facet normal 0.287347 -0.957827 -1.25158e-15
  outer loop
    vertex 0.04 0.052197916329086 0
    vertex 0.03153926227790079 0.04965970801770613 0.00858376694691235
    vertex 0.02912537837909993 0.04893554655851813 0
  endloop
endfacet
facet normal 0.287347 -0.957827 1.41773e-15
  outer loop
    vertex 0.01825075675819982 0.04567317678795025 0.02
    vertex 0.02479065532058702 0.04763513630399512 0.01305368163549874
    vertex 0.02912537837909989 0.04893554655851812 0.02
  endloop
endfacet
facet normal 0.287347 -0.957827 9.67394e-16
  outer loop
    vertex 0.02912537837909989 0.04893554655851812 0.02
    vertex 0.02479065532058702 0.04763513630399512 0.01305368163549874
    vertex 0.03153926227790079 0.04965970801770613 0.00858376694691235
  endloop
endfacet
facet normal 0.287347 -0.957827 -1.83521e-15
  outer loop
    vertex 0.02912537837909993 0.04893554655851813 0
    vertex 0.02448719232002697 0.04754409787028904 0.006341775777046187
    vertex 0.01825075675819982 0.04567317678795025 0
  endloop
endfacet
facet normal 0.287347 -0.957827 0
  outer loop
    vertex 0.01825075675819982 0.04567317678795025 0.01000000000000003
    vertex 0.02479065532058702 0.04763513630399512 0.01305368163549874
    vertex 0.01825075675819982 0.04567317678795025 0.02
  endloop
endfacet
facet normal 0.287347 -0.957827 0
  outer loop
    vertex 0.01825075675819982 0.04567317678795025 0
    vertex 0.02448719232002697 0.04754409787028904 0.006341775777046187
    vertex 0.01825075675819982 0.04567317678795025 0.01000000000000003
  endloop
endfacet
facet normal 0.287347 -0.957827 1.39124e-16
  outer loop
    vertex 0.03153926227790079 0.04965970801770613 0.00858376694691235
    vertex 0.02479065532058702 0.04763513630399512 0.01305368163549874
    vertex 0.02448719232002697 0.04754409787028904 0.006341775777046187
  endloop
endfacet
facet normal 0.287347 -0.957827 -1.43506e-15
  outer loop
    vertex 0.02912537837909993 0.04893554655851813 0
    vertex 0.03153926227790079 0.04965970801770613 0.00858376694691235
    vertex 0.02448719232002697 0.04754409787028904 0.006341775777046187
  endloop
endfacet
facet normal 0.287347 -0.957827 2.38379e-16
  outer loop
    vertex 0.02448719232002697 0.04754409787028904 0.006341775777046187
    vertex 0.02479065532058702 0.04763513630399512 0.01305368163549874
    vertex 0.01825075675819982 0.04567317678795025 0.01000000000000003
  endloop
endfacet
facet normal 0.287347 -0.957827 0
  outer loop
    vertex 0.04 0.052197916329086 0.02
    vertex 0.03153926227790079 0.04965970801770613 0.00858376694691235
    vertex 0.04 0.052197916329086 0.009999999999999972
  endloop
endfacet
facet normal 0.478294 0.8782 0
  outer loop
    vertex 0.01825075675819982 0.04567317678795025 0.02
    vertex 0.0224438024280219 0.04338951794855273 0.015
    vertex 0.01825075675819982 0.04567317678795025 0.009999999999999972
  endloop
endfacet
facet normal 0.478294 0.8782 -0
  outer loop
    vertex 0.03023088724340576 0.0391484372468145 0
    vertex 0.02603784157358368 0.04143209608621201 0.005000000000000006
    vertex 0.03023088724340576 0.0391484372468145 0.01000000000000003
  endloop
endfacet
facet normal 0.478294 0.8782 0
  outer loop
    vertex 0.01825075675819982 0.04567317678795025 0.009999999999999972
    vertex 0.02220419981831778 0.04352001273937545 0.004999999999999998
    vertex 0.01825075675819982 0.04567317678795025 0
  endloop
endfacet
facet normal 0.478294 0.8782 -0
  outer loop
    vertex 0.03023088724340576 0.0391484372468145 0.01000000000000003
    vertex 0.0262774441832878 0.0413016012953893 0.01500000000000001
    vertex 0.03023088724340576 0.0391484372468145 0.02
  endloop
endfacet
facet normal 0.478294 0.8782 -1.98693e-16
  outer loop
    vertex 0.02424082200080279 0.04241080701738238 0
    vertex 0.02603784157358368 0.04143209608621201 0.005000000000000006
    vertex 0.03023088724340576 0.0391484372468145 0
  endloop
endfacet
facet normal 0.478294 0.8782 -7.45098e-16
  outer loop
    vertex 0.02424082200080279 0.04241080701738238 0.02
    vertex 0.0224438024280219 0.04338951794855273 0.015
    vertex 0.01825075675819982 0.04567317678795025 0.02
  endloop
endfacet
facet normal 0.478294 0.8782 5.96078e-16
  outer loop
    vertex 0.01825075675819982 0.04567317678795025 0
    vertex 0.02220419981831778 0.04352001273937545 0.004999999999999998
    vertex 0.02424082200080279 0.04241080701738238 0
  endloop
endfacet
facet normal 0.478294 0.8782 0
  outer loop
    vertex 0.03023088724340576 0.0391484372468145 0.02
    vertex 0.0262774441832878 0.0413016012953893 0.01500000000000001
    vertex 0.02424082200080279 0.04241080701738238 0.02
  endloop
endfacet
facet normal 0.478294 0.8782 -4.26879e-16
  outer loop
    vertex 0.02424082200080279 0.04241080701738238 0.02
    vertex 0.0262774441832878 0.0413016012953893 0.01500000000000001
    vertex 0.0224438024280219 0.04338951794855273 0.015
  endloop
endfacet
facet normal 0.478294 0.8782 1.16422e-16
  outer loop
    vertex 0.02424082200080279 0.04241080701738238 0
    vertex 0.02220419981831778 0.04352001273937545 0.004999999999999998
    vertex 0.02603784157358368 0.04143209608621201 0.005000000000000006
  endloop
endfacet
facet normal 0.478294 0.8782 -4.26879e-16
  outer loop
    vertex 0.02220419981831778 0.04352001273937545 0.004999999999999998
    vertex 0.02424082200080279 0.04241080701738238 0.01
    vertex 0.02603784157358368 0.04143209608621201 0.005000000000000006
  endloop
endfacet
facet normal 0.478294 0.8782 4.26879e-16
  outer loop
    vertex 0.0262774441832878 0.0413016012953893 0.01500000000000001
    vertex 0.02424082200080279 0.04241080701738238 0.01
    vertex 0.0224438024280219 0.04338951794855273 0.015
  endloop
endfacet
facet normal 0.478294 0.8782 -7.94771e-16
  outer loop
    vertex 0.01825075675819982 0.04567317678795025 0.009999999999999972
    vertex 0.02424082200080279 0.04241080701738238 0.01
    vertex 0.02220419981831778 0.04352001273937545 0.004999999999999998
  endloop
endfacet
facet normal 0.478294 0.8782 7.45098e-16
  outer loop
    vertex 0.0224438024280219 0.04338951794855273 0.015
    vertex 0.02424082200080279 0.04241080701738238 0.01
    vertex 0.01825075675819982 0.04567317678795025 0.009999999999999972
  endloop
endfacet
facet normal 0.478294 0.8782 -4.96732e-17
  outer loop
    vertex 0.02603784157358368 0.04143209608621201 0.005000000000000006
    vertex 0.02424082200080279 0.04241080701738238 0.01
    vertex 0.03023088724340576 0.0391484372468145 0.01000000000000003
  endloop
endfacet
facet normal 0.478294 0.8782 0
  outer loop
    vertex 0.03023088724340576 0.0391484372468145 0.01000000000000003
    vertex 0.02424082200080279 0.04241080701738238 0.01
    vertex 0.0262774441832878 0.0413016012953893 0.01500000000000001
  endloop
endfacet
facet normal 0.612162 -0.790732 -8.63709e-16
  outer loop
    vertex 0.03023088724340576 0.0391484372468145 0
    vertex 0.02601687261627401 0.03588606747624662 0.005520616409829227
    vertex 0.02180285798914225 0.03262369770567874 0
  endloop
endfacet
facet normal 0.612162 -0.790732 4.62917e-16
  outer loop
    vertex 0.02180285798914225 0.03262369770567874 0.02
    vertex 0.02601687261627402 0.03588606747624663 0.0145064877347891
    vertex 0.03023088724340576 0.0391484372468145 0.02
  endloop
endfacet
facet normal 0.612162 -0.790732 0
  outer loop
    vertex 0.02180285798914225 0.03262369770567874 0
    vertex 0.02601687261627401 0.03588606747624662 0.005520616409829227
    vertex 0.02180285798914225 0.03262369770567874 0.01000000000000003
  endloop
endfacet
facet normal 0.612162 -0.790732 0
  outer loop
    vertex 0.03023088724340576 0.0391484372468145 0.02
    vertex 0.02601687261627402 0.03588606747624663 0.0145064877347891
    vertex 0.03023088724340576 0.0391484372468145 0.009999999999999972
  endloop
endfacet
facet normal 0.612162 -0.790732 2.75784e-16
  outer loop
    vertex 0.02601687261627401 0.03588606747624662 0.005520616409829227
    vertex 0.02601687261627402 0.03588606747624663 0.0145064877347891
    vertex 0.02180285798914225 0.03262369770567874 0.01000000000000003
  endloop
endfacet
facet normal 0.612162 -0.790732 2.83005e-16
  outer loop
    vertex 0.03023088724340576 0.0391484372468145 0.009999999999999972
    vertex 0.02601687261627402 0.03588606747624663 0.0145064877347891
    vertex 0.02601687261627401 0.03588606747624662 0.005520616409829227
  endloop
endfacet
facet normal 0.612162 -0.790732 0
  outer loop
    vertex 0.02180285798914225 0.03262369770567874 0.01000000000000003
    vertex 0.02601687261627402 0.03588606747624663 0.0145064877347891
    vertex 0.02180285798914225 0.03262369770567874 0.02
  endloop
endfacet
facet normal 0.612162 -0.790732 0
  outer loop
    vertex 0.03023088724340576 0.0391484372468145 0.009999999999999972
    vertex 0.02601687261627401 0.03588606747624662 0.005520616409829227
    vertex 0.03023088724340576 0.0391484372468145 0
  endloop
endfacet
facet normal 0.430987 0.902358 0
  outer loop
    vertex 0.02180285798914225 0.03262369770567874 0
    vertex 0.02873285210555845 0.02931377152446119 0.007635747795094942
    vertex 0.02863328322457545 0.02936132793511087 0
  endloop
endfacet
facet normal 0.430987 0.902358 8.24332e-18
  outer loop
    vertex 0.02863328322457545 0.02936132793511087 0
    vertex 0.02873285210555845 0.02931377152446119 0.007635747795094942
    vertex 0.03546370846000866 0.026098958164543 0
  endloop
endfacet
facet normal 0.430987 0.902358 -0
  outer loop
    vertex 0.03546370846000866 0.026098958164543 0
    vertex 0.02873285210555845 0.02931377152446119 0.007635747795094942
    vertex 0.03546370846000866 0.026098958164543 0.01000000000000003
  endloop
endfacet
facet normal 0.430987 0.902358 0
  outer loop
    vertex 0.02180285798914225 0.03262369770567874 0.009999999999999972
    vertex 0.02873285210555845 0.02931377152446119 0.007635747795094942
    vertex 0.02180285798914225 0.03262369770567874 0
  endloop
endfacet
facet normal 0.430987 0.902358 0
  outer loop
    vertex 0.02180285798914225 0.03262369770567874 0.02
    vertex 0.02658415565394549 0.03034003886628123 0.01464053351874863
    vertex 0.02180285798914225 0.03262369770567874 0.009999999999999972
  endloop
endfacet
facet normal 0.430987 0.902358 -0
  outer loop
    vertex 0.03546370846000866 0.026098958164543 0.01000000000000003
    vertex 0.03128209994124012 0.02809619153637045 0.01461089733054909
    vertex 0.03546370846000866 0.026098958164543 0.02
  endloop
endfacet
facet normal 0.430987 0.902358 2.71427e-16
  outer loop
    vertex 0.02863328322457545 0.02936132793511087 0.02
    vertex 0.02658415565394549 0.03034003886628123 0.01464053351874863
    vertex 0.02180285798914225 0.03262369770567874 0.02
  endloop
endfacet
facet normal 0.430987 0.902358 7.05982e-16
  outer loop
    vertex 0.03546370846000866 0.026098958164543 0.02
    vertex 0.03128209994124012 0.02809619153637045 0.01461089733054909
    vertex 0.02863328322457545 0.02936132793511087 0.02
  endloop
endfacet
facet normal 0.430987 0.902358 -4.42152e-16
  outer loop
    vertex 0.02658415565394549 0.03034003886628123 0.01464053351874863
    vertex 0.03128209994124012 0.02809619153637045 0.01461089733054909
    vertex 0.02873285210555845 0.02931377152446119 0.007635747795094942
  endloop
endfacet
facet normal 0.430987 0.902358 5.451e-16
  outer loop
    vertex 0.02863328322457545 0.02936132793511087 0.02
    vertex 0.03128209994124012 0.02809619153637045 0.01461089733054909
    vertex 0.02658415565394549 0.03034003886628123 0.01464053351874863
  endloop
endfacet
facet normal 0.430987 0.902358 -6.35045e-16
  outer loop
    vertex 0.02873285210555845 0.02931377152446119 0.007635747795094942
    vertex 0.03128209994124012 0.02809619153637045 0.01461089733054909
    vertex 0.03546370846000866 0.026098958164543 0.01000000000000003
  endloop
endfacet
facet normal 0.430987 0.902358 -2.28614e-16
  outer loop
    vertex 0.02658415565394549 0.03034003886628123 0.01464053351874863
    vertex 0.02873285210555845 0.02931377152446119 0.007635747795094942
    vertex 0.02180285798914225 0.03262369770567874 0.009999999999999972
  endloop
endfacet
facet normal 0.879052 -0.476726 0
  outer loop
    vertex 0.03192521817600039 0.01957421862340725 0
    vertex 0.03369446331800453 0.02283658839397512 0.005
    vertex 0.03192521817600039 0.01957421862340725 0.01000000000000003
  endloop
endfacet
facet normal 0.879052 -0.476726 0
  outer loop
    vertex 0.03546370846000866 0.026098958164543 0.02
    vertex 0.03369446331800453 0.02283658839397512 0.015
    vertex 0.03546370846000866 0.026098958164543 0.009999999999999972
  endloop
endfacet
facet normal 0.879052 -0.476726 0
  outer loop
    vertex 0.03192521817600039 0.01957421862340725 0.01000000000000003
    vertex 0.03369446331800453 0.02283658839397512 0.015
    vertex 0.03192521817600039 0.01957421862340725 0.02
  endloop
endfacet
facet normal 0.879052 -0.476726 0
  outer loop
    vertex 0.03546370846000866 0.026098958164543 0.009999999999999972
    vertex 0.03369446331800453 0.02283658839397512 0.005
    vertex 0.03546370846000866 0.026098958164543 0
  endloop
endfacet
facet normal 0.879052 -0.476726 -7.75998e-16
  outer loop
    vertex 0.03546370846000866 0.026098958164543 0
    vertex 0.03369446331800453 0.02283658839397512 0.005
    vertex 0.03192521817600039 0.01957421862340725 0
  endloop
endfacet
facet normal 0.879052 -0.476726 -7.75998e-16
  outer loop
    vertex 0.03546370846000866 0.026098958164543 0.009999999999999972
    vertex 0.03369446331800453 0.02283658839397512 0.015
    vertex 0.03192521817600039 0.01957421862340725 0.01000000000000003
  endloop
endfacet
facet normal 0.879052 -0.476726 7.75998e-16
  outer loop
    vertex 0.03192521817600039 0.01957421862340725 0.02
    vertex 0.03369446331800453 0.02283658839397512 0.015
    vertex 0.03546370846000866 0.026098958164543 0.02
  endloop
endfacet
facet normal 0.879052 -0.476726 7.75998e-16
  outer loop
    vertex 0.03192521817600039 0.01957421862340725 0.01000000000000003
    vertex 0.03369446331800453 0.02283658839397512 0.005
    vertex 0.03546370846000866 0.026098958164543 0.009999999999999972
  endloop
endfacet
facet normal 0.674302 0.738456 0
  outer loop
    vertex 0.03192521817600039 0.01957421862340725 0.02
    vertex 0.03549797510384666 0.01631184885283937 0.015
    vertex 0.03192521817600039 0.01957421862340725 0.009999999999999972
  endloop
endfacet
facet normal 0.674302 0.738456 -0
  outer loop
    vertex 0.03907073203169294 0.0130494790822715 0
    vertex 0.03549797510384666 0.01631184885283937 0.004999999999999999
    vertex 0.03907073203169294 0.0130494790822715 0.01000000000000003
  endloop
endfacet
facet normal 0.674302 0.738456 0
  outer loop
    vertex 0.03192521817600039 0.01957421862340725 0.009999999999999972
    vertex 0.03549797510384666 0.01631184885283937 0.004999999999999999
    vertex 0.03192521817600039 0.01957421862340725 0
  endloop
endfacet
facet normal 0.674302 0.738456 -0
  outer loop
    vertex 0.03907073203169294 0.0130494790822715 0.01000000000000003
    vertex 0.03549797510384666 0.01631184885283937 0.015
    vertex 0.03907073203169294 0.0130494790822715 0.02
  endloop
endfacet
facet normal 0.674302 0.738456 -4.90207e-16
  outer loop
    vertex 0.03907073203169294 0.0130494790822715 0.01000000000000003
    vertex 0.03549797510384666 0.01631184885283937 0.004999999999999999
    vertex 0.03192521817600039 0.01957421862340725 0.009999999999999972
  endloop
endfacet
facet normal 0.674302 0.738456 1.05044e-15
  outer loop
    vertex 0.03192521817600039 0.01957421862340725 0.009999999999999972
    vertex 0.03549797510384666 0.01631184885283937 0.015
    vertex 0.03907073203169294 0.0130494790822715 0.01000000000000003
  endloop
endfacet
facet normal 0.674302 0.738456 4.90207e-16
  outer loop
    vertex 0.03192521817600039 0.01957421862340725 0
    vertex 0.03549797510384666 0.01631184885283937 0.004999999999999999
    vertex 0.03907073203169294 0.0130494790822715 0
  endloop
endfacet
facet normal 0.674302 0.738456 -1.05044e-15
  outer loop
    vertex 0.03907073203169294 0.0130494790822715 0.02
    vertex 0.03549797510384666 0.01631184885283937 0.015
    vertex 0.03192521817600039 0.01957421862340725 0.02
  endloop
endfacet
facet normal 0.970038 -0.242952 1.43559e-15
  outer loop
    vertex 0.03743657069176541 0.006524739541135749 0.01000000000000003
    vertex 0.03825365136172918 0.009787109311703622 0.005000000000000001
    vertex 0.03907073203169294 0.0130494790822715 0.009999999999999972
  endloop
endfacet
facet normal 0.970038 -0.242952 -1.43559e-15
  outer loop
    vertex 0.03907073203169294 0.0130494790822715 0.009999999999999972
    vertex 0.03825365136172918 0.009787109311703622 0.015
    vertex 0.03743657069176541 0.006524739541135749 0.01000000000000003
  endloop
endfacet
facet normal 0.970038 -0.242952 -1.43559e-15
  outer loop
    vertex 0.03907073203169294 0.0130494790822715 0
    vertex 0.03825365136172918 0.009787109311703622 0.005000000000000001
    vertex 0.03743657069176541 0.006524739541135749 0
  endloop
endfacet
facet normal 0.970038 -0.242952 1.43559e-15
  outer loop
    vertex 0.03743657069176541 0.006524739541135749 0.02
    vertex 0.03825365136172918 0.009787109311703622 0.015
    vertex 0.03907073203169294 0.0130494790822715 0.02
  endloop
endfacet
facet normal 0.970038 -0.242952 0
  outer loop
    vertex 0.03907073203169294 0.0130494790822715 0.009999999999999972
    vertex 0.03825365136172918 0.009787109311703622 0.005000000000000001
    vertex 0.03907073203169294 0.0130494790822715 0
  endloop
endfacet
facet normal 0.970038 -0.242952 0
  outer loop
    vertex 0.03907073203169294 0.0130494790822715 0.02
    vertex 0.03825365136172918 0.009787109311703622 0.015
    vertex 0.03907073203169294 0.0130494790822715 0.009999999999999972
  endloop
endfacet
facet normal 0.970038 -0.242952 0
  outer loop
    vertex 0.03743657069176541 0.006524739541135749 0
    vertex 0.03825365136172918 0.009787109311703622 0.005000000000000001
    vertex 0.03743657069176541 0.006524739541135749 0.01000000000000003
  endloop
endfacet
facet normal 0.970038 -0.242952 0
  outer loop
    vertex 0.03743657069176541 0.006524739541135749 0.01000000000000003
    vertex 0.03825365136172918 0.009787109311703622 0.015
    vertex 0.03743657069176541 0.006524739541135749 0.02
  endloop
endfacet
endsolid Created by Gmsh
