solid Created by Gmsh
facet normal 1 -0 0
  outer loop
    vertex 0.008 0.03374999999999999 0.02
    vertex 0.008 0.0365346052844593 0.008195444054983275
    vertex 0.008 0.045 0.02
  endloop
endfacet
facet normal 1 0 0
  outer loop
    vertex 0.008 0.01125000000000001 0
    vertex 0.008 0.008466939408579687 0.01180281816534785
    vertex 0.008 0 0
  endloop
endfacet
facet normal 1 -0 0
  outer loop
    vertex 0.008 0.01125 0.02
    vertex 0.008 0.01734865656809662 0.01034118872499773
    vertex 0.008 0.02249999999999999 0.02
  endloop
endfacet
facet normal 1 0 0
  outer loop
    vertex 0.008 0.03375 0
    vertex 0.008 0.02773054364209265 0.009756105463330167
    vertex 0.008 0.02250000000000001 0
  endloop
endfacet
facet normal 1 0 0
  outer loop
    vertex 0.008 0 0.01000000000000003
    vertex 0.008 0.008466939408579687 0.01180281816534785
    vertex 0.008 0 0.02
  endloop
endfacet
facet normal 1 0 0
  outer loop
    vertex 0.008 0.045 0.009999999999999972
    vertex 0.008 0.0365346052844593 0.008195444054983275
    vertex 0.008 0.045 0
  endloop
endfacet
facet normal 1 -0 0
  outer loop
    vertex 0.008 0.01734865656809662 0.01034118872499773
    vertex 0.008 0.02773054364209265 0.009756105463330167
    vertex 0.008 0.02249999999999999 0.02
  endloop
endfacet
facet normal 1 0 -0
  outer loop
    vertex 0.008 0.02250000000000001 0
    vertex 0.008 0.02773054364209265 0.009756105463330167
    vertex 0.008 0.01734865656809662 0.01034118872499773
  endloop
endfacet
facet normal 1 -0 0
  outer loop
    vertex 0.008 0 0.02
    vertex 0.008 0.008466939408579687 0.01180281816534785
    vertex 0.008 0.01125 0.02
  endloop
endfacet
facet normal 1 0 0
  outer loop
    vertex 0.008 0.045 0
    vertex 0.008 0.0365346052844593 0.008195444054983275
    vertex 0.008 0.03375 0
  endloop
endfacet
facet normal 1 -0 0
  outer loop
    vertex 0.008 0.02249999999999999 0.02
    vertex 0.008 0.02773054364209265 0.009756105463330167
    vertex 0.008 0.03374999999999999 0.02
  endloop
endfacet
facet normal 1 0 0
  outer loop
    vertex 0.008 0.02250000000000001 0
    vertex 0.008 0.01734865656809662 0.01034118872499773
    vertex 0.008 0.01125000000000001 0
  endloop
endfacet
facet normal 1 -0 0
  outer loop
    vertex 0.008 0.02773054364209265 0.009756105463330167
    vertex 0.008 0.0365346052844593 0.008195444054983275
    vertex 0.008 0.03374999999999999 0.02
  endloop
endfacet
facet normal 1 0 0
  outer loop
    vertex 0.008 0.01734865656809662 0.01034118872499773
    vertex 0.008 0.008466939408579687 0.01180281816534785
    vertex 0.008 0.01125000000000001 0
  endloop
endfacet
facet normal 1 0 0
  outer loop
    vertex 0.008 0.01125 0.02
    vertex 0.008 0.008466939408579687 0.01180281816534785
    vertex 0.008 0.01734865656809662 0.01034118872499773
  endloop
endfacet
facet normal 1 0 -0
  outer loop
    vertex 0.008 0.03375 0
    vertex 0.008 0.0365346052844593 0.008195444054983275
    vertex 0.008 0.02773054364209265 0.009756105463330167
  endloop
endfacet
facet normal 1 0 0
  outer loop
    vertex 0.008 0 0
    vertex 0.008 0.008466939408579687 0.01180281816534785
    vertex 0.008 0 0.01000000000000003
  endloop
endfacet
facet normal 1 0 0
  outer loop
    vertex 0.008 0.045 0.02
    vertex 0.008 0.0365346052844593 0.008195444054983275
    vertex 0.008 0.045 0.009999999999999972
  endloop
endfacet
endsolid Created by Gmsh
