solid Created by Gmsh
facet normal 1 0 -1.25691e-15
  outer loop
    vertex 0.04 0.06 0
    vertex 0.04000000000000001 0.05451003726671549 0.005520616409829229
    vertex 0.04 0.04902007453343098 0
  endloop
endfacet
facet normal 1 -0 1.26311e-15
  outer loop
    vertex 0.04 0.04902007453343098 0.02
    vertex 0.04000000000000001 0.05451003726671549 0.01450648773478912
    vertex 0.04 0.06 0.02
  endloop
endfacet
facet normal 1 1.26392e-15 0
  outer loop
    vertex 0.04 0.06 0.009999999999999972
    vertex 0.04000000000000001 0.05451003726671549 0.01450648773478912
    vertex 0.04000000000000001 0.05451003726671549 0.005520616409829229
  endloop
endfacet
facet normal 1 -1.26392e-15 0
  outer loop
    vertex 0.04000000000000001 0.05451003726671549 0.005520616409829229
    vertex 0.04000000000000001 0.05451003726671549 0.01450648773478912
    vertex 0.04 0.04902007453343098 0.01000000000000003
  endloop
endfacet
facet normal 1 1.26392e-15 0
  outer loop
    vertex 0.04 0.06 0.02
    vertex 0.04000000000000001 0.05451003726671549 0.01450648773478912
    vertex 0.04 0.06 0.009999999999999972
  endloop
endfacet
facet normal 1 -1.26392e-15 0
  outer loop
    vertex 0.04 0.04902007453343098 0
    vertex 0.04000000000000001 0.05451003726671549 0.005520616409829229
    vertex 0.04 0.04902007453343098 0.01000000000000003
  endloop
endfacet
facet normal 1 1.26392e-15 0
  outer loop
    vertex 0.04 0.06 0.009999999999999972
    vertex 0.04000000000000001 0.05451003726671549 0.005520616409829229
    vertex 0.04 0.06 0
  endloop
endfacet
facet normal 1 -1.26392e-15 0
  outer loop
    vertex 0.04 0.04902007453343098 0.01000000000000003
    vertex 0.04000000000000001 0.05451003726671549 0.01450648773478912
    vertex 0.04 0.04902007453343098 0.02
  endloop
endfacet
facet normal 0.285545 -0.958365 0
  outer loop
    vertex 0.04 0.04902007453343098 0.009999999999999972
    vertex 0.03211907313761506 0.04667195253740766 0.008067082366710835
    vertex 0.04 0.04902007453343098 0
  endloop
endfacet
facet normal 0.285545 -0.958365 -6.65447e-16
  outer loop
    vertex 0.04 0.04902007453343098 0
    vertex 0.03211907313761506 0.04667195253740766 0.008067082366710835
    vertex 0.02971721808851682 0.04595631987509154 0
  endloop
endfacet
facet normal 0.285545 -0.958365 -8.50462e-17
  outer loop
    vertex 0.01943443617703362 0.0428925652167521 0.02
    vertex 0.02644237336202342 0.04498057995640982 0.01257398579286145
    vertex 0.0297172180885168 0.04595631987509154 0.02
  endloop
endfacet
facet normal 0.285545 -0.958365 0
  outer loop
    vertex 0.01943443617703362 0.0428925652167521 0.01000000000000003
    vertex 0.02644237336202342 0.04498057995640982 0.01257398579286145
    vertex 0.01943443617703362 0.0428925652167521 0.02
  endloop
endfacet
facet normal 0.285545 -0.958365 0
  outer loop
    vertex 0.0297172180885168 0.04595631987509154 0.02
    vertex 0.0348586090442584 0.04748819720426126 0.01499999999999999
    vertex 0.04 0.04902007453343098 0.02
  endloop
endfacet
facet normal 0.285545 -0.958365 -2.34571e-16
  outer loop
    vertex 0.02971721808851682 0.04595631987509154 0
    vertex 0.02538563942443923 0.0446657261015125 0.006057857644640333
    vertex 0.01943443617703362 0.0428925652167521 0
  endloop
endfacet
facet normal 0.285545 -0.958365 0
  outer loop
    vertex 0.04 0.04902007453343098 0.02
    vertex 0.0348586090442584 0.04748819720426126 0.01499999999999999
    vertex 0.04 0.04902007453343098 0.009999999999999972
  endloop
endfacet
facet normal 0.285545 -0.958365 0
  outer loop
    vertex 0.01943443617703362 0.0428925652167521 0
    vertex 0.02538563942443923 0.0446657261015125 0.006057857644640333
    vertex 0.01943443617703362 0.0428925652167521 0.01000000000000003
  endloop
endfacet
facet normal 0.285545 -0.958365 -8.92799e-17
  outer loop
    vertex 0.02644237336202342 0.04498057995640982 0.01257398579286145
    vertex 0.0348586090442584 0.04748819720426126 0.01499999999999999
    vertex 0.0297172180885168 0.04595631987509154 0.02
  endloop
endfacet
facet normal 0.285545 -0.958365 8.79234e-16
  outer loop
    vertex 0.03211907313761506 0.04667195253740766 0.008067082366710835
    vertex 0.0348586090442584 0.04748819720426126 0.01499999999999999
    vertex 0.02644237336202342 0.04498057995640982 0.01257398579286145
  endloop
endfacet
facet normal 0.285545 -0.958365 -5.74054e-16
  outer loop
    vertex 0.02971721808851682 0.04595631987509154 0
    vertex 0.03211907313761506 0.04667195253740766 0.008067082366710835
    vertex 0.02538563942443923 0.0446657261015125 0.006057857644640333
  endloop
endfacet
facet normal 0.285545 -0.958365 5.26454e-16
  outer loop
    vertex 0.04 0.04902007453343098 0.009999999999999972
    vertex 0.0348586090442584 0.04748819720426126 0.01499999999999999
    vertex 0.03211907313761506 0.04667195253740766 0.008067082366710835
  endloop
endfacet
facet normal 0.285545 -0.958365 3.88845e-16
  outer loop
    vertex 0.03211907313761506 0.04667195253740766 0.008067082366710835
    vertex 0.02644237336202342 0.04498057995640982 0.01257398579286145
    vertex 0.02538563942443923 0.0446657261015125 0.006057857644640333
  endloop
endfacet
facet normal 0.285545 -0.958365 2.64637e-16
  outer loop
    vertex 0.02538563942443923 0.0446657261015125 0.006057857644640333
    vertex 0.02644237336202342 0.04498057995640982 0.01257398579286145
    vertex 0.01943443617703362 0.0428925652167521 0.01000000000000003
  endloop
endfacet
facet normal 0.46463 0.885505 3.59676e-16
  outer loop
    vertex 0.03111243105930838 0.03676505590007323 0.01000000000000003
    vertex 0.01943443617703362 0.0428925652167521 0.009999999999999972
    vertex 0.02527343361817101 0.03982881055841266 0.02
  endloop
endfacet
facet normal 0.46463 0.885505 -4.11058e-16
  outer loop
    vertex 0.02527343361817098 0.03982881055841267 0
    vertex 0.01943443617703362 0.0428925652167521 0.009999999999999972
    vertex 0.03111243105930838 0.03676505590007323 0.01000000000000003
  endloop
endfacet
facet normal 0.46463 0.885505 0
  outer loop
    vertex 0.02527343361817098 0.03982881055841267 0
    vertex 0.01943443617703362 0.0428925652167521 0
    vertex 0.01943443617703362 0.0428925652167521 0.009999999999999972
  endloop
endfacet
facet normal 0.46463 0.885505 -0
  outer loop
    vertex 0.01943443617703362 0.0428925652167521 0.009999999999999972
    vertex 0.01943443617703362 0.0428925652167521 0.02
    vertex 0.02527343361817101 0.03982881055841266 0.02
  endloop
endfacet
facet normal 0.46463 0.885505 0
  outer loop
    vertex 0.03111243105930838 0.03676505590007323 0.01000000000000003
    vertex 0.03111243105930838 0.03676505590007323 0
    vertex 0.02527343361817098 0.03982881055841267 0
  endloop
endfacet
facet normal 0.46463 0.885505 0
  outer loop
    vertex 0.02527343361817101 0.03982881055841266 0.02
    vertex 0.03111243105930838 0.03676505590007323 0.02
    vertex 0.03111243105930838 0.03676505590007323 0.01000000000000003
  endloop
endfacet
facet normal 0.669902 0.742449 -0
  outer loop
    vertex 0.03790351551360664 0.03063754658339436 0
    vertex 0.03450797328645751 0.03370130124173379 0.005
    vertex 0.03790351551360664 0.03063754658339436 0.01000000000000003
  endloop
endfacet
facet normal 0.669902 0.742449 0
  outer loop
    vertex 0.03111243105930838 0.03676505590007323 0.02
    vertex 0.03450797328645751 0.03370130124173379 0.015
    vertex 0.03111243105930838 0.03676505590007323 0.009999999999999972
  endloop
endfacet
facet normal 0.669902 0.742449 0
  outer loop
    vertex 0.03111243105930838 0.03676505590007323 0.009999999999999972
    vertex 0.03450797328645751 0.03370130124173379 0.005
    vertex 0.03111243105930838 0.03676505590007323 0
  endloop
endfacet
facet normal 0.669902 0.742449 -0
  outer loop
    vertex 0.03790351551360664 0.03063754658339436 0.01000000000000003
    vertex 0.03450797328645751 0.03370130124173379 0.015
    vertex 0.03790351551360664 0.03063754658339436 0.02
  endloop
endfacet
facet normal 0.669902 0.742449 -1.25941e-15
  outer loop
    vertex 0.03790351551360664 0.03063754658339436 0.01000000000000003
    vertex 0.03450797328645751 0.03370130124173379 0.005
    vertex 0.03111243105930838 0.03676505590007323 0.009999999999999972
  endloop
endfacet
facet normal 0.669902 0.742449 1.25941e-15
  outer loop
    vertex 0.03111243105930838 0.03676505590007323 0.009999999999999972
    vertex 0.03450797328645751 0.03370130124173379 0.015
    vertex 0.03790351551360664 0.03063754658339436 0.01000000000000003
  endloop
endfacet
facet normal 0.669902 0.742449 -1.25941e-15
  outer loop
    vertex 0.03790351551360664 0.03063754658339436 0.02
    vertex 0.03450797328645751 0.03370130124173379 0.015
    vertex 0.03111243105930838 0.03676505590007323 0.02
  endloop
endfacet
facet normal 0.669902 0.742449 1.25941e-15
  outer loop
    vertex 0.03111243105930838 0.03676505590007323 0
    vertex 0.03450797328645751 0.03370130124173379 0.005
    vertex 0.03790351551360664 0.03063754658339436 0
  endloop
endfacet
facet normal 0.420446 -0.907317 -4.95603e-16
  outer loop
    vertex 0.03790351551360664 0.03063754658339436 0
    vertex 0.03115704419834817 0.02751126631978269 0.007505378293870079
    vertex 0.03129197362465335 0.02757379192505493 0
  endloop
endfacet
facet normal 0.420446 -0.907317 -4.8302e-16
  outer loop
    vertex 0.03129197362465335 0.02757379192505493 0
    vertex 0.03115704419834817 0.02751126631978269 0.007505378293870079
    vertex 0.02468043173570004 0.02451003726671549 0
  endloop
endfacet
facet normal 0.420446 -0.907317 0
  outer loop
    vertex 0.02468043173570004 0.02451003726671549 0
    vertex 0.03115704419834817 0.02751126631978269 0.007505378293870079
    vertex 0.02468043173570004 0.02451003726671549 0.01000000000000003
  endloop
endfacet
facet normal 0.420446 -0.907317 0
  outer loop
    vertex 0.03790351551360664 0.03063754658339436 0.009999999999999972
    vertex 0.03115704419834817 0.02751126631978269 0.007505378293870079
    vertex 0.03790351551360664 0.03063754658339436 0
  endloop
endfacet
facet normal 0.420446 -0.907317 0
  outer loop
    vertex 0.03790351551360664 0.03063754658339436 0.02
    vertex 0.03327543619133932 0.02849291832255675 0.01470351381866178
    vertex 0.03790351551360664 0.03063754658339436 0.009999999999999972
  endloop
endfacet
facet normal 0.420446 -0.907317 0
  outer loop
    vertex 0.02468043173570004 0.02451003726671549 0.01000000000000003
    vertex 0.02872253183515633 0.0263831257560851 0.01460127030179027
    vertex 0.02468043173570004 0.02451003726671549 0.02
  endloop
endfacet
facet normal 0.420446 -0.907317 -4.16987e-16
  outer loop
    vertex 0.03129197362465333 0.02757379192505492 0.02
    vertex 0.03327543619133932 0.02849291832255675 0.01470351381866178
    vertex 0.03790351551360664 0.03063754658339436 0.02
  endloop
endfacet
facet normal 0.420446 -0.907317 3.01435e-16
  outer loop
    vertex 0.02468043173570004 0.02451003726671549 0.02
    vertex 0.02872253183515633 0.0263831257560851 0.01460127030179027
    vertex 0.03129197362465333 0.02757379192505492 0.02
  endloop
endfacet
facet normal 0.420446 -0.907317 1.41639e-16
  outer loop
    vertex 0.03327543619133932 0.02849291832255675 0.01470351381866178
    vertex 0.02872253183515633 0.0263831257560851 0.01460127030179027
    vertex 0.03115704419834817 0.02751126631978269 0.007505378293870079
  endloop
endfacet
facet normal 0.420446 -0.907317 -2.2123e-16
  outer loop
    vertex 0.03129197362465333 0.02757379192505492 0.02
    vertex 0.02872253183515633 0.0263831257560851 0.01460127030179027
    vertex 0.03327543619133932 0.02849291832255675 0.01470351381866178
  endloop
endfacet
facet normal 0.420446 -0.907317 -2.89035e-16
  outer loop
    vertex 0.03115704419834817 0.02751126631978269 0.007505378293870079
    vertex 0.02872253183515633 0.0263831257560851 0.01460127030179027
    vertex 0.02468043173570004 0.02451003726671549 0.01000000000000003
  endloop
endfacet
facet normal 0.420446 -0.907317 3.37405e-16
  outer loop
    vertex 0.03327543619133932 0.02849291832255675 0.01470351381866178
    vertex 0.03115704419834817 0.02751126631978269 0.007505378293870079
    vertex 0.03790351551360664 0.03063754658339436 0.009999999999999972
  endloop
endfacet
facet normal 0.914951 0.403565 3.03547e-16
  outer loop
    vertex 0.02468043173570004 0.02451003726671549 0.009999999999999972
    vertex 0.02603178581241805 0.02144628260837605 0.015
    vertex 0.02738313988913607 0.01838252795003661 0.01000000000000003
  endloop
endfacet
facet normal 0.914951 0.403565 3.03547e-16
  outer loop
    vertex 0.02468043173570004 0.02451003726671549 0
    vertex 0.02603178581241805 0.02144628260837605 0.005000000000000001
    vertex 0.02738313988913607 0.01838252795003661 0
  endloop
endfacet
facet normal 0.914951 0.403565 -3.03547e-16
  outer loop
    vertex 0.02738313988913607 0.01838252795003661 0.01000000000000003
    vertex 0.02603178581241805 0.02144628260837605 0.005000000000000001
    vertex 0.02468043173570004 0.02451003726671549 0.009999999999999972
  endloop
endfacet
facet normal 0.914951 0.403565 -3.03547e-16
  outer loop
    vertex 0.02738313988913607 0.01838252795003661 0.02
    vertex 0.02603178581241805 0.02144628260837605 0.015
    vertex 0.02468043173570004 0.02451003726671549 0.02
  endloop
endfacet
facet normal 0.914951 0.403565 0
  outer loop
    vertex 0.02468043173570004 0.02451003726671549 0.009999999999999972
    vertex 0.02603178581241805 0.02144628260837605 0.005000000000000001
    vertex 0.02468043173570004 0.02451003726671549 0
  endloop
endfacet
facet normal 0.914951 0.403565 0
  outer loop
    vertex 0.02468043173570004 0.02451003726671549 0.02
    vertex 0.02603178581241805 0.02144628260837605 0.015
    vertex 0.02468043173570004 0.02451003726671549 0.009999999999999972
  endloop
endfacet
facet normal 0.914951 0.403565 -0
  outer loop
    vertex 0.02738313988913607 0.01838252795003661 0
    vertex 0.02603178581241805 0.02144628260837605 0.005000000000000001
    vertex 0.02738313988913607 0.01838252795003661 0.01000000000000003
  endloop
endfacet
facet normal 0.914951 0.403565 -0
  outer loop
    vertex 0.02738313988913607 0.01838252795003661 0.01000000000000003
    vertex 0.02603178581241805 0.02144628260837605 0.015
    vertex 0.02738313988913607 0.01838252795003661 0.02
  endloop
endfacet
facet normal 0.861745 -0.507342 6.19439e-16
  outer loop
    vertex 0.02738313988913607 0.01838252795003661 0.009999999999999972
    vertex 0.02557939193532413 0.01531877329169718 0.015
    vertex 0.02377564398151219 0.01225501863335775 0.01000000000000003
  endloop
endfacet
facet normal 0.861745 -0.507342 -5.7179e-16
  outer loop
    vertex 0.02377564398151219 0.01225501863335775 0.01000000000000003
    vertex 0.02557939193532413 0.01531877329169718 0.004999999999999999
    vertex 0.02738313988913607 0.01838252795003661 0.009999999999999972
  endloop
endfacet
facet normal 0.861745 -0.507342 -5.7179e-16
  outer loop
    vertex 0.02377564398151219 0.01225501863335775 0.02
    vertex 0.02557939193532413 0.01531877329169718 0.015
    vertex 0.02738313988913607 0.01838252795003661 0.02
  endloop
endfacet
facet normal 0.861745 -0.507342 6.19439e-16
  outer loop
    vertex 0.02738313988913607 0.01838252795003661 0
    vertex 0.02557939193532413 0.01531877329169718 0.004999999999999999
    vertex 0.02377564398151219 0.01225501863335775 0
  endloop
endfacet
facet normal 0.861745 -0.507342 0
  outer loop
    vertex 0.02738313988913607 0.01838252795003661 0.009999999999999972
    vertex 0.02557939193532413 0.01531877329169718 0.004999999999999999
    vertex 0.02738313988913607 0.01838252795003661 0
  endloop
endfacet
facet normal 0.861745 -0.507342 0
  outer loop
    vertex 0.02738313988913607 0.01838252795003661 0.02
    vertex 0.02557939193532413 0.01531877329169718 0.015
    vertex 0.02738313988913607 0.01838252795003661 0.009999999999999972
  endloop
endfacet
facet normal 0.861745 -0.507342 0
  outer loop
    vertex 0.02377564398151219 0.01225501863335775 0
    vertex 0.02557939193532413 0.01531877329169718 0.004999999999999999
    vertex 0.02377564398151219 0.01225501863335775 0.01000000000000003
  endloop
endfacet
facet normal 0.861745 -0.507342 0
  outer loop
    vertex 0.02377564398151219 0.01225501863335775 0.01000000000000003
    vertex 0.02557939193532413 0.01531877329169718 0.015
    vertex 0.02377564398151219 0.01225501863335775 0.02
  endloop
endfacet
facet normal 0.436422 0.899742 0
  outer loop
    vertex 0.02377564398151219 0.01225501863335775 0.02
    vertex 0.02819707975543424 0.01011039037252014 0.01499999999999999
    vertex 0.02377564398151219 0.01225501863335775 0.009999999999999972
  endloop
endfacet
facet normal 0.436422 0.899742 -0
  outer loop
    vertex 0.03640831762128947 0.006127509316678874 0
    vertex 0.03198688184736742 0.008272137577516481 0.004999999999999999
    vertex 0.03640831762128947 0.006127509316678874 0.01000000000000003
  endloop
endfacet
facet normal 0.436422 0.899742 0
  outer loop
    vertex 0.02377564398151219 0.01225501863335775 0.009999999999999972
    vertex 0.02794442628263869 0.01023294055885372 0.004999999999999991
    vertex 0.02377564398151219 0.01225501863335775 0
  endloop
endfacet
facet normal 0.436422 0.899742 -0
  outer loop
    vertex 0.03640831762128947 0.006127509316678874 0.01000000000000003
    vertex 0.03223953532016297 0.008149587391182904 0.015
    vertex 0.03640831762128947 0.006127509316678874 0.02
  endloop
endfacet
facet normal 0.436422 0.899742 -1.93051e-16
  outer loop
    vertex 0.03009198080140083 0.009191263975018311 0
    vertex 0.03198688184736742 0.008272137577516481 0.004999999999999999
    vertex 0.03640831762128947 0.006127509316678874 0
  endloop
endfacet
facet normal 0.436422 0.899742 -7.23943e-17
  outer loop
    vertex 0.03009198080140083 0.009191263975018311 0.02
    vertex 0.02819707975543424 0.01011039037252014 0.01499999999999999
    vertex 0.02377564398151219 0.01225501863335775 0.02
  endloop
endfacet
facet normal 0.436422 0.899742 0
  outer loop
    vertex 0.03640831762128947 0.006127509316678874 0.02
    vertex 0.03223953532016297 0.008149587391182904 0.015
    vertex 0.03009198080140083 0.009191263975018311 0.02
  endloop
endfacet
facet normal 0.436422 0.899742 1.93051e-16
  outer loop
    vertex 0.02377564398151219 0.01225501863335775 0
    vertex 0.02794442628263869 0.01023294055885372 0.004999999999999991
    vertex 0.03009198080140083 0.009191263975018311 0
  endloop
endfacet
facet normal 0.436422 0.899742 3.77054e-17
  outer loop
    vertex 0.03009198080140083 0.009191263975018311 0
    vertex 0.02794442628263869 0.01023294055885372 0.004999999999999991
    vertex 0.03198688184736742 0.008272137577516481 0.004999999999999999
  endloop
endfacet
facet normal 0.436422 0.899742 -7.54107e-17
  outer loop
    vertex 0.03009198080140083 0.009191263975018311 0.02
    vertex 0.03223953532016297 0.008149587391182904 0.015
    vertex 0.02819707975543424 0.01011039037252014 0.01499999999999999
  endloop
endfacet
facet normal 0.436422 0.899742 -2.26232e-16
  outer loop
    vertex 0.03223953532016297 0.008149587391182904 0.015
    vertex 0.03009198080140083 0.009191263975018311 0.009999999999999998
    vertex 0.02819707975543424 0.01011039037252014 0.01499999999999999
  endloop
endfacet
facet normal 0.436422 0.899742 2.63938e-16
  outer loop
    vertex 0.02794442628263869 0.01023294055885372 0.004999999999999991
    vertex 0.03009198080140083 0.009191263975018311 0.009999999999999998
    vertex 0.03198688184736742 0.008272137577516481 0.004999999999999999
  endloop
endfacet
facet normal 0.436422 0.899742 -1.93051e-16
  outer loop
    vertex 0.03640831762128947 0.006127509316678874 0.01000000000000003
    vertex 0.03009198080140083 0.009191263975018311 0.009999999999999998
    vertex 0.03223953532016297 0.008149587391182904 0.015
  endloop
endfacet
facet normal 0.436422 0.899742 4.10234e-16
  outer loop
    vertex 0.03198688184736742 0.008272137577516481 0.004999999999999999
    vertex 0.03009198080140083 0.009191263975018311 0.009999999999999998
    vertex 0.03640831762128947 0.006127509316678874 0.01000000000000003
  endloop
endfacet
facet normal 0.436422 0.899742 -1.44789e-16
  outer loop
    vertex 0.02819707975543424 0.01011039037252014 0.01499999999999999
    vertex 0.03009198080140083 0.009191263975018311 0.009999999999999998
    vertex 0.02377564398151219 0.01225501863335775 0.009999999999999972
  endloop
endfacet
facet normal 0.436422 0.899742 0
  outer loop
    vertex 0.02377564398151219 0.01225501863335775 0.009999999999999972
    vertex 0.03009198080140083 0.009191263975018311 0.009999999999999998
    vertex 0.02794442628263869 0.01023294055885372 0.004999999999999991
  endloop
endfacet
endsolid Created by Gmsh
