solid Created by Gmsh
facet normal 0.995296 -0.0968815 7.66291e-18
  outer loop
    vertex 0.008987656641683033 0.01014652914599758 0.02
    vertex 0.009443991290494129 0.01483460860506968 0.009157209212176401
    vertex 0.009975313283366068 0.02029305829199519 0.02
  endloop
endfacet
facet normal 0.995296 -0.0968815 0
  outer loop
    vertex 0.0109629699250491 0.03043958743799277 0.02
    vertex 0.01149429191792104 0.03589803712491827 0.009157209212176399
    vertex 0.01195062656673214 0.04058611658399037 0.02
  endloop
endfacet
facet normal 0.995296 -0.0968815 1.65121e-17
  outer loop
    vertex 0.0109629699250491 0.03043958743799276 0
    vertex 0.01046914160420758 0.02536632286499398 0.01006381867993626
    vertex 0.009975313283366068 0.02029305829199518 0
  endloop
endfacet
facet normal 0.995296 -0.0968815 3.08683e-17
  outer loop
    vertex 0.009443991290494129 0.01483460860506968 0.009157209212176401
    vertex 0.01046914160420758 0.02536632286499398 0.01006381867993626
    vertex 0.009975313283366068 0.02029305829199519 0.02
  endloop
endfacet
facet normal 0.995296 -0.0968815 0
  outer loop
    vertex 0.0109629699250491 0.03043958743799277 0.02
    vertex 0.01046914160420758 0.02536632286499398 0.01006381867993626
    vertex 0.01149429191792104 0.03589803712491827 0.009157209212176399
  endloop
endfacet
facet normal 0.995296 -0.0968815 3.32597e-17
  outer loop
    vertex 0.01149429191792104 0.03589803712491827 0.009157209212176399
    vertex 0.01046914160420758 0.02536632286499398 0.01006381867993626
    vertex 0.0109629699250491 0.03043958743799276 0
  endloop
endfacet
facet normal 0.995296 -0.0968815 0
  outer loop
    vertex 0.009975313283366068 0.02029305829199518 0
    vertex 0.01046914160420758 0.02536632286499398 0.01006381867993626
    vertex 0.009443991290494129 0.01483460860506968 0.009157209212176401
  endloop
endfacet
facet normal 0.995296 -0.0968815 -1.86245e-17
  outer loop
    vertex 0.01149429191792104 0.03589803712491827 0.009157209212176399
    vertex 0.01224119362957765 0.04357120983158395 0.0124208533781378
    vertex 0.01195062656673214 0.04058611658399037 0.02
  endloop
endfacet
facet normal 0.995296 -0.0968815 -6.20816e-18
  outer loop
    vertex 0.008987656641683033 0.01014652914599758 0.02
    vertex 0.008697089578837514 0.007161435898404008 0.0124208533781378
    vertex 0.009443991290494129 0.01483460860506968 0.009157209212176401
  endloop
endfacet
facet normal 0.995296 -0.0968815 1.67242e-17
  outer loop
    vertex 0.009975313283366068 0.02029305829199519 0.02
    vertex 0.01046914160420758 0.02536632286499398 0.01006381867993626
    vertex 0.0109629699250491 0.03043958743799277 0.02
  endloop
endfacet
facet normal 0.995296 -0.0968815 0
  outer loop
    vertex 0.009975313283366068 0.02029305829199518 0
    vertex 0.009443991290494129 0.01483460860506968 0.009157209212176401
    vertex 0.008987656641683033 0.01014652914599758 0
  endloop
endfacet
facet normal 0.995296 -0.0968815 9.07344e-18
  outer loop
    vertex 0.01195062656673214 0.04058611658399037 0
    vertex 0.01149429191792104 0.03589803712491827 0.009157209212176399
    vertex 0.0109629699250491 0.03043958743799276 0
  endloop
endfacet
facet normal 0.995296 -0.0968815 0
  outer loop
    vertex 0.01293828320841517 0.05073264572998795 0.02
    vertex 0.01224119362957765 0.04357120983158395 0.0124208533781378
    vertex 0.01293828320841517 0.05073264572998795 0.009999999999999972
  endloop
endfacet
facet normal 0.995296 -0.0968815 0
  outer loop
    vertex 0.008 0 0.01000000000000003
    vertex 0.008697089578837514 0.007161435898404008 0.0124208533781378
    vertex 0.008 0 0.02
  endloop
endfacet
facet normal 0.995296 -0.0968815 0
  outer loop
    vertex 0.008 0 0.02
    vertex 0.008697089578837514 0.007161435898404008 0.0124208533781378
    vertex 0.008987656641683033 0.01014652914599758 0.02
  endloop
endfacet
facet normal 0.995296 -0.0968815 -3.83692e-17
  outer loop
    vertex 0.01195062656673214 0.04058611658399037 0.02
    vertex 0.01224119362957765 0.04357120983158395 0.0124208533781378
    vertex 0.01293828320841517 0.05073264572998795 0.02
  endloop
endfacet
facet normal 0.995296 -0.0968815 2.8987e-17
  outer loop
    vertex 0.01195062656673214 0.04058611658399037 0
    vertex 0.01235022690088692 0.04469134533063526 0.005939723227187736
    vertex 0.01149429191792104 0.03589803712491827 0.009157209212176399
  endloop
endfacet
facet normal 0.995296 -0.0968815 -3.86493e-17
  outer loop
    vertex 0.009443991290494129 0.01483460860506968 0.009157209212176401
    vertex 0.008588056307528244 0.006041300399352689 0.005939723227187752
    vertex 0.008987656641683033 0.01014652914599758 0
  endloop
endfacet
facet normal 0.995296 -0.0968815 0
  outer loop
    vertex 0.01149429191792104 0.03589803712491827 0.009157209212176399
    vertex 0.01235022690088692 0.04469134533063526 0.005939723227187736
    vertex 0.01224119362957765 0.04357120983158395 0.0124208533781378
  endloop
endfacet
facet normal 0.995296 -0.0968815 6.90874e-17
  outer loop
    vertex 0.008697089578837514 0.007161435898404008 0.0124208533781378
    vertex 0.008588056307528244 0.006041300399352689 0.005939723227187752
    vertex 0.009443991290494129 0.01483460860506968 0.009157209212176401
  endloop
endfacet
facet normal 0.995296 -0.0968815 6.99421e-17
  outer loop
    vertex 0.01293828320841517 0.05073264572998795 0
    vertex 0.01235022690088692 0.04469134533063526 0.005939723227187736
    vertex 0.01195062656673214 0.04058611658399037 0
  endloop
endfacet
facet normal 0.995296 -0.0968815 -6.99421e-17
  outer loop
    vertex 0.008987656641683033 0.01014652914599758 0
    vertex 0.008588056307528244 0.006041300399352689 0.005939723227187752
    vertex 0.008 0 0
  endloop
endfacet
facet normal 0.995296 -0.0968815 0
  outer loop
    vertex 0.008 0 0
    vertex 0.008588056307528244 0.006041300399352689 0.005939723227187752
    vertex 0.008 0 0.01000000000000003
  endloop
endfacet
facet normal 0.995296 -0.0968815 0
  outer loop
    vertex 0.01293828320841517 0.05073264572998795 0.009999999999999972
    vertex 0.01235022690088692 0.04469134533063526 0.005939723227187736
    vertex 0.01293828320841517 0.05073264572998795 0
  endloop
endfacet
facet normal 0.995296 -0.0968815 -2.89359e-17
  outer loop
    vertex 0.01224119362957765 0.04357120983158395 0.0124208533781378
    vertex 0.01235022690088692 0.04469134533063526 0.005939723227187736
    vertex 0.01293828320841517 0.05073264572998795 0.009999999999999972
  endloop
endfacet
facet normal 0.995296 -0.0968815 5.78718e-17
  outer loop
    vertex 0.008 0 0.01000000000000003
    vertex 0.008588056307528244 0.006041300399352689 0.005939723227187752
    vertex 0.008697089578837514 0.007161435898404008 0.0124208533781378
  endloop
endfacet
endsolid Created by Gmsh
