solid Created by Gmsh
facet normal 0.995443 -0.0953607 3.81085e-17
  outer loop
    vertex 0.009080810006158247 0.01128226777138892 0
    vertex 0.008812458523364108 0.008481023085938205 0.01176655714348401
    vertex 0.008 0 0
  endloop
endfacet
facet normal 0.995443 -0.0953607 0
  outer loop
    vertex 0.01340405003079125 0.05641133885694469 0.02
    vertex 0.01259151933303689 0.04792956236310646 0.01176569932783675
    vertex 0.01340405003079125 0.05641133885694469 0.009999999999999972
  endloop
endfacet
facet normal 0.995443 -0.0953607 0
  outer loop
    vertex 0.008 0 0.01000000000000003
    vertex 0.008812458523364108 0.008481023085938205 0.01176655714348401
    vertex 0.008 0 0.02
  endloop
endfacet
facet normal 0.995443 -0.0953607 1.48584e-17
  outer loop
    vertex 0.01124243001847474 0.03384680331416676 0
    vertex 0.01070202501539562 0.02820566942847236 0.01005957072250194
    vertex 0.01016162001231649 0.02256453554277784 0
  endloop
endfacet
facet normal 0.995443 -0.0953607 -1.31035e-16
  outer loop
    vertex 0.01124243001847475 0.03384680331416685 0.02
    vertex 0.011737480739108 0.03901449676517065 0.01030421167505645
    vertex 0.012323240024633 0.04512907108555576 0.02
  endloop
endfacet
facet normal 0.995443 -0.0953607 3.85402e-17
  outer loop
    vertex 0.009080810006158253 0.01128226777138897 0.02
    vertex 0.009666557262618206 0.0173967165237907 0.01030435464433099
    vertex 0.0101616200123165 0.02256453554277792 0.02
  endloop
endfacet
facet normal 0.995443 -0.0953607 -1.63368e-16
  outer loop
    vertex 0.012323240024633 0.04512907108555576 0.02
    vertex 0.01259151933303689 0.04792956236310646 0.01176569932783675
    vertex 0.01340405003079125 0.05641133885694469 0.02
  endloop
endfacet
facet normal 0.995443 -0.0953607 -7.26154e-17
  outer loop
    vertex 0.008 0 0.02
    vertex 0.008812458523364108 0.008481023085938205 0.01176655714348401
    vertex 0.009080810006158253 0.01128226777138897 0.02
  endloop
endfacet
facet normal 0.995443 -0.0953607 -6.89153e-17
  outer loop
    vertex 0.01070202501539562 0.02820566942847236 0.01005957072250194
    vertex 0.009666557262618206 0.0173967165237907 0.01030435464433099
    vertex 0.01016162001231649 0.02256453554277784 0
  endloop
endfacet
facet normal 0.995443 -0.0953607 1.07204e-16
  outer loop
    vertex 0.01124243001847474 0.03384680331416676 0
    vertex 0.011737480739108 0.03901449676517065 0.01030421167505645
    vertex 0.01070202501539562 0.02820566942847236 0.01005957072250194
  endloop
endfacet
facet normal 0.995443 -0.0953607 -7.94964e-18
  outer loop
    vertex 0.01070202501539562 0.02820566942847236 0.01005957072250194
    vertex 0.011737480739108 0.03901449676517065 0.01030421167505645
    vertex 0.01124243001847475 0.03384680331416685 0.02
  endloop
endfacet
facet normal 0.995443 -0.0953607 3.9748e-18
  outer loop
    vertex 0.0101616200123165 0.02256453554277792 0.02
    vertex 0.009666557262618206 0.0173967165237907 0.01030435464433099
    vertex 0.01070202501539562 0.02820566942847236 0.01005957072250194
  endloop
endfacet
facet normal 0.995443 -0.0953607 -1.04303e-16
  outer loop
    vertex 0.01232324002463299 0.04512907108555572 0
    vertex 0.01288153193046932 0.05095692125381397 0.004999999999999986
    vertex 0.01259151933303689 0.04792956236310646 0.01176569932783675
  endloop
endfacet
facet normal 0.995443 -0.0953607 -9.4285e-17
  outer loop
    vertex 0.01016162001231649 0.02256453554277784 0
    vertex 0.009666557262618206 0.0173967165237907 0.01030435464433099
    vertex 0.009080810006158247 0.01128226777138892 0
  endloop
endfacet
facet normal 0.995443 -0.0953607 7.97808e-17
  outer loop
    vertex 0.01232324002463299 0.04512907108555572 0
    vertex 0.011737480739108 0.03901449676517065 0.01030421167505645
    vertex 0.01124243001847474 0.03384680331416676 0
  endloop
endfacet
facet normal 0.995443 -0.0953607 7.51822e-18
  outer loop
    vertex 0.0101616200123165 0.02256453554277792 0.02
    vertex 0.01070202501539562 0.02820566942847236 0.01005957072250194
    vertex 0.01124243001847475 0.03384680331416685 0.02
  endloop
endfacet
facet normal 0.995443 -0.0953607 0
  outer loop
    vertex 0.009666557262618206 0.0173967165237907 0.01030435464433099
    vertex 0.008812458523364108 0.008481023085938205 0.01176655714348401
    vertex 0.009080810006158247 0.01128226777138892 0
  endloop
endfacet
facet normal 0.995443 -0.0953607 -4.80981e-17
  outer loop
    vertex 0.01232324002463299 0.04512907108555572 0
    vertex 0.01259151933303689 0.04792956236310646 0.01176569932783675
    vertex 0.011737480739108 0.03901449676517065 0.01030421167505645
  endloop
endfacet
facet normal 0.995443 -0.0953607 2.69044e-16
  outer loop
    vertex 0.01340405003079125 0.05641133885694469 0
    vertex 0.01288153193046932 0.05095692125381397 0.004999999999999986
    vertex 0.01232324002463299 0.04512907108555572 0
  endloop
endfacet
facet normal 0.995443 -0.0953607 -1.95828e-16
  outer loop
    vertex 0.011737480739108 0.03901449676517065 0.01030421167505645
    vertex 0.01259151933303689 0.04792956236310646 0.01176569932783675
    vertex 0.012323240024633 0.04512907108555576 0.02
  endloop
endfacet
facet normal 0.995443 -0.0953607 -4.07972e-17
  outer loop
    vertex 0.009080810006158253 0.01128226777138897 0.02
    vertex 0.008812458523364108 0.008481023085938205 0.01176655714348401
    vertex 0.009666557262618206 0.0173967165237907 0.01030435464433099
  endloop
endfacet
facet normal 0.995443 -0.0953607 0
  outer loop
    vertex 0.01340405003079125 0.05641133885694469 0.009999999999999972
    vertex 0.01288153193046932 0.05095692125381397 0.004999999999999986
    vertex 0.01340405003079125 0.05641133885694469 0
  endloop
endfacet
facet normal 0.995443 -0.0953607 -2.43037e-16
  outer loop
    vertex 0.01259151933303689 0.04792956236310646 0.01176569932783675
    vertex 0.01288153193046932 0.05095692125381397 0.004999999999999986
    vertex 0.01340405003079125 0.05641133885694469 0.009999999999999972
  endloop
endfacet
facet normal 0.995443 -0.0953607 0
  outer loop
    vertex 0.008 0 0
    vertex 0.008812458523364108 0.008481023085938205 0.01176655714348401
    vertex 0.008 0 0.01000000000000003
  endloop
endfacet
endsolid Created by Gmsh
