solid Created by Gmsh
facet normal 1 1.39338e-15 0
  outer loop
    vertex 0.04 0.06 0.02
    vertex 0.04000000000000001 0.0550201094338287 0.015
    vertex 0.04 0.06 0.009999999999999972
  endloop
endfacet
facet normal 1 -1.39338e-15 0
  outer loop
    vertex 0.04 0.05004021886765741 0
    vertex 0.04000000000000001 0.05502010943382871 0.005
    vertex 0.04 0.05004021886765741 0.01000000000000003
  endloop
endfacet
facet normal 1 1.39338e-15 0
  outer loop
    vertex 0.04 0.06 0.009999999999999972
    vertex 0.04000000000000001 0.05502010943382871 0.005
    vertex 0.04 0.06 0
  endloop
endfacet
facet normal 1 -1.39338e-15 0
  outer loop
    vertex 0.04 0.05004021886765741 0.01000000000000003
    vertex 0.04000000000000001 0.0550201094338287 0.015
    vertex 0.04 0.05004021886765741 0.02
  endloop
endfacet
facet normal 1 -0 1.38778e-15
  outer loop
    vertex 0.04 0.05004021886765741 0.02
    vertex 0.04000000000000001 0.0550201094338287 0.015
    vertex 0.04 0.06 0.02
  endloop
endfacet
facet normal 1 7.73483e-30 1.38778e-15
  outer loop
    vertex 0.04 0.05004021886765741 0.01000000000000003
    vertex 0.04000000000000001 0.05502010943382871 0.005
    vertex 0.04 0.06 0.009999999999999972
  endloop
endfacet
facet normal 1 0 -1.38778e-15
  outer loop
    vertex 0.04 0.06 0
    vertex 0.04000000000000001 0.05502010943382871 0.005
    vertex 0.04 0.05004021886765741 0
  endloop
endfacet
facet normal 1 -7.73483e-30 -1.38778e-15
  outer loop
    vertex 0.04 0.06 0.009999999999999972
    vertex 0.04000000000000001 0.0550201094338287 0.015
    vertex 0.04 0.05004021886765741 0.01000000000000003
  endloop
endfacet
facet normal 0.589026 0.808114 9.24694e-16
  outer loop
    vertex 0.04858158414481047 0.04378519150920023 0.02
    vertex 0.04429079207240522 0.04691270518842883 0.01447938359017075
    vertex 0.04 0.05004021886765741 0.02
  endloop
endfacet
facet normal 0.589026 0.808114 -1.39388e-15
  outer loop
    vertex 0.04 0.05004021886765741 0
    vertex 0.04429079207240524 0.04691270518842883 0.005493512265210878
    vertex 0.04858158414481047 0.04378519150920023 0
  endloop
endfacet
facet normal 0.589026 0.808114 0
  outer loop
    vertex 0.04 0.05004021886765741 0.02
    vertex 0.04429079207240522 0.04691270518842883 0.01447938359017075
    vertex 0.04 0.05004021886765741 0.009999999999999972
  endloop
endfacet
facet normal 0.589026 0.808114 -0
  outer loop
    vertex 0.04858158414481047 0.04378519150920023 0
    vertex 0.04429079207240524 0.04691270518842883 0.005493512265210878
    vertex 0.04858158414481047 0.04378519150920023 0.01000000000000003
  endloop
endfacet
facet normal 0.589026 0.808114 2.8405e-16
  outer loop
    vertex 0.04858158414481047 0.04378519150920023 0.01000000000000003
    vertex 0.04429079207240524 0.04691270518842883 0.005493512265210878
    vertex 0.04429079207240522 0.04691270518842883 0.01447938359017075
  endloop
endfacet
facet normal 0.589026 0.808114 2.85666e-16
  outer loop
    vertex 0.04429079207240522 0.04691270518842883 0.01447938359017075
    vertex 0.04429079207240524 0.04691270518842883 0.005493512265210878
    vertex 0.04 0.05004021886765741 0.009999999999999972
  endloop
endfacet
facet normal 0.589026 0.808114 0
  outer loop
    vertex 0.04 0.05004021886765741 0.009999999999999972
    vertex 0.04429079207240524 0.04691270518842883 0.005493512265210878
    vertex 0.04 0.05004021886765741 0
  endloop
endfacet
facet normal 0.589026 0.808114 -0
  outer loop
    vertex 0.04858158414481047 0.04378519150920023 0.01000000000000003
    vertex 0.04429079207240522 0.04691270518842883 0.01447938359017075
    vertex 0.04858158414481047 0.04378519150920023 0.02
  endloop
endfacet
facet normal 0.821051 0.570856 0
  outer loop
    vertex 0.04858158414481047 0.04378519150920023 0.02
    vertex 0.05075606471946272 0.04065767782997164 0.015
    vertex 0.04858158414481047 0.04378519150920023 0.009999999999999972
  endloop
endfacet
facet normal 0.821051 0.570856 -0
  outer loop
    vertex 0.05293054529411498 0.03753016415074305 0
    vertex 0.05075606471946272 0.04065767782997164 0.004999999999999999
    vertex 0.05293054529411498 0.03753016415074305 0.01000000000000003
  endloop
endfacet
facet normal 0.821051 0.570856 0
  outer loop
    vertex 0.04858158414481047 0.04378519150920023 0.009999999999999972
    vertex 0.05075606471946272 0.04065767782997164 0.004999999999999999
    vertex 0.04858158414481047 0.04378519150920023 0
  endloop
endfacet
facet normal 0.821051 0.570856 -0
  outer loop
    vertex 0.05293054529411498 0.03753016415074305 0.01000000000000003
    vertex 0.05075606471946272 0.04065767782997164 0.015
    vertex 0.05293054529411498 0.03753016415074305 0.02
  endloop
endfacet
facet normal 0.821051 0.570856 0
  outer loop
    vertex 0.05293054529411498 0.03753016415074305 0.02
    vertex 0.05075606471946272 0.04065767782997164 0.015
    vertex 0.04858158414481047 0.04378519150920023 0.02
  endloop
endfacet
facet normal 0.821051 0.570856 0
  outer loop
    vertex 0.05293054529411498 0.03753016415074305 0.01000000000000003
    vertex 0.05075606471946272 0.04065767782997164 0.004999999999999999
    vertex 0.04858158414481047 0.04378519150920023 0.009999999999999972
  endloop
endfacet
facet normal 0.821051 0.570856 0
  outer loop
    vertex 0.04858158414481047 0.04378519150920023 0
    vertex 0.05075606471946272 0.04065767782997164 0.004999999999999999
    vertex 0.05293054529411498 0.03753016415074305 0
  endloop
endfacet
facet normal 0.821051 0.570856 0
  outer loop
    vertex 0.04858158414481047 0.04378519150920023 0.009999999999999972
    vertex 0.05075606471946272 0.04065767782997164 0.015
    vertex 0.05293054529411498 0.03753016415074305 0.01000000000000003
  endloop
endfacet
facet normal 0.711512 -0.702674 0
  outer loop
    vertex 0.04675321486668599 0.03127513679228588 0
    vertex 0.04984188008040048 0.03440265047151447 0.005000000000000001
    vertex 0.04675321486668599 0.03127513679228588 0.01000000000000003
  endloop
endfacet
facet normal 0.711512 -0.702674 0
  outer loop
    vertex 0.05293054529411498 0.03753016415074305 0.02
    vertex 0.04984188008040048 0.03440265047151447 0.015
    vertex 0.05293054529411498 0.03753016415074305 0.009999999999999972
  endloop
endfacet
facet normal 0.711512 -0.702674 0
  outer loop
    vertex 0.05293054529411498 0.03753016415074305 0.009999999999999972
    vertex 0.04984188008040048 0.03440265047151447 0.005000000000000001
    vertex 0.05293054529411498 0.03753016415074305 0
  endloop
endfacet
facet normal 0.711512 -0.702674 0
  outer loop
    vertex 0.04675321486668599 0.03127513679228588 0.01000000000000003
    vertex 0.04984188008040048 0.03440265047151447 0.015
    vertex 0.04675321486668599 0.03127513679228588 0.02
  endloop
endfacet
facet normal 0.711512 -0.702674 -1.46453e-15
  outer loop
    vertex 0.04675321486668599 0.03127513679228588 0.01000000000000003
    vertex 0.04984188008040048 0.03440265047151447 0.005000000000000001
    vertex 0.05293054529411498 0.03753016415074305 0.009999999999999972
  endloop
endfacet
facet normal 0.711512 -0.702674 1.46453e-15
  outer loop
    vertex 0.05293054529411498 0.03753016415074305 0.009999999999999972
    vertex 0.04984188008040048 0.03440265047151447 0.015
    vertex 0.04675321486668599 0.03127513679228588 0.01000000000000003
  endloop
endfacet
facet normal 0.711512 -0.702674 -1.46453e-15
  outer loop
    vertex 0.04675321486668599 0.03127513679228588 0.02
    vertex 0.04984188008040048 0.03440265047151447 0.015
    vertex 0.05293054529411498 0.03753016415074305 0.02
  endloop
endfacet
facet normal 0.711512 -0.702674 1.46453e-15
  outer loop
    vertex 0.05293054529411498 0.03753016415074305 0
    vertex 0.04984188008040048 0.03440265047151447 0.005000000000000001
    vertex 0.04675321486668599 0.03127513679228588 0
  endloop
endfacet
facet normal 0.957044 -0.289944 1.03679e-16
  outer loop
    vertex 0.04675321486668599 0.03127513679228588 0.009999999999999972
    vertex 0.04580571090171506 0.0281476231130573 0.015
    vertex 0.04485820693674412 0.0250201094338287 0.01000000000000003
  endloop
endfacet
facet normal 0.957044 -0.289944 1.03679e-16
  outer loop
    vertex 0.04485820693674412 0.0250201094338287 0.01000000000000003
    vertex 0.04580571090171506 0.02814762311305729 0.005
    vertex 0.04675321486668599 0.03127513679228588 0.009999999999999972
  endloop
endfacet
facet normal 0.957044 -0.289944 -1.03679e-16
  outer loop
    vertex 0.04485820693674412 0.0250201094338287 0.02
    vertex 0.04580571090171506 0.0281476231130573 0.015
    vertex 0.04675321486668599 0.03127513679228588 0.02
  endloop
endfacet
facet normal 0.957044 -0.289944 -1.03679e-16
  outer loop
    vertex 0.04675321486668599 0.03127513679228588 0
    vertex 0.04580571090171506 0.02814762311305729 0.005
    vertex 0.04485820693674412 0.0250201094338287 0
  endloop
endfacet
facet normal 0.957044 -0.289944 0
  outer loop
    vertex 0.04675321486668599 0.03127513679228588 0.009999999999999972
    vertex 0.04580571090171506 0.02814762311305729 0.005
    vertex 0.04675321486668599 0.03127513679228588 0
  endloop
endfacet
facet normal 0.957044 -0.289944 0
  outer loop
    vertex 0.04675321486668599 0.03127513679228588 0.02
    vertex 0.04580571090171506 0.0281476231130573 0.015
    vertex 0.04675321486668599 0.03127513679228588 0.009999999999999972
  endloop
endfacet
facet normal 0.957044 -0.289944 0
  outer loop
    vertex 0.04485820693674412 0.0250201094338287 0
    vertex 0.04580571090171506 0.02814762311305729 0.005
    vertex 0.04485820693674412 0.0250201094338287 0.01000000000000003
  endloop
endfacet
facet normal 0.957044 -0.289944 0
  outer loop
    vertex 0.04485820693674412 0.0250201094338287 0.01000000000000003
    vertex 0.04580571090171506 0.0281476231130573 0.015
    vertex 0.04485820693674412 0.0250201094338287 0.02
  endloop
endfacet
facet normal 0.938954 0.344043 -1.0172e-16
  outer loop
    vertex 0.04715011851816062 0.01876508207537153 0.01000000000000003
    vertex 0.04600416272745237 0.02189259575460012 0.004999999999999999
    vertex 0.04485820693674412 0.0250201094338287 0.009999999999999972
  endloop
endfacet
facet normal 0.938954 0.344043 1.2715e-16
  outer loop
    vertex 0.04485820693674412 0.0250201094338287 0.009999999999999972
    vertex 0.04600416272745237 0.02189259575460012 0.015
    vertex 0.04715011851816062 0.01876508207537153 0.01000000000000003
  endloop
endfacet
facet normal 0.938954 0.344043 1.2715e-16
  outer loop
    vertex 0.04485820693674412 0.0250201094338287 0
    vertex 0.04600416272745237 0.02189259575460012 0.004999999999999999
    vertex 0.04715011851816062 0.01876508207537153 0
  endloop
endfacet
facet normal 0.938954 0.344043 -1.0172e-16
  outer loop
    vertex 0.04715011851816062 0.01876508207537153 0.02
    vertex 0.04600416272745237 0.02189259575460012 0.015
    vertex 0.04485820693674412 0.0250201094338287 0.02
  endloop
endfacet
facet normal 0.938954 0.344043 0
  outer loop
    vertex 0.04485820693674412 0.0250201094338287 0.009999999999999972
    vertex 0.04600416272745237 0.02189259575460012 0.004999999999999999
    vertex 0.04485820693674412 0.0250201094338287 0
  endloop
endfacet
facet normal 0.938954 0.344043 0
  outer loop
    vertex 0.04485820693674412 0.0250201094338287 0.02
    vertex 0.04600416272745237 0.02189259575460012 0.015
    vertex 0.04485820693674412 0.0250201094338287 0.009999999999999972
  endloop
endfacet
facet normal 0.938954 0.344043 -0
  outer loop
    vertex 0.04715011851816062 0.01876508207537153 0
    vertex 0.04600416272745237 0.02189259575460012 0.004999999999999999
    vertex 0.04715011851816062 0.01876508207537153 0.01000000000000003
  endloop
endfacet
facet normal 0.938954 0.344043 -0
  outer loop
    vertex 0.04715011851816062 0.01876508207537153 0.01000000000000003
    vertex 0.04600416272745237 0.02189259575460012 0.015
    vertex 0.04715011851816062 0.01876508207537153 0.02
  endloop
endfacet
facet normal 0.979787 0.200043 -6.89932e-16
  outer loop
    vertex 0.04842720911654672 0.01251005471691435 0.02
    vertex 0.04778866381735367 0.01563756839614294 0.015
    vertex 0.04715011851816062 0.01876508207537153 0.02
  endloop
endfacet
facet normal 0.979787 0.200043 -6.89932e-16
  outer loop
    vertex 0.04842720911654672 0.01251005471691435 0.01000000000000003
    vertex 0.04778866381735367 0.01563756839614294 0.005
    vertex 0.04715011851816062 0.01876508207537153 0.009999999999999972
  endloop
endfacet
facet normal 0.979787 0.200043 6.89932e-16
  outer loop
    vertex 0.04715011851816062 0.01876508207537153 0
    vertex 0.04778866381735367 0.01563756839614294 0.005
    vertex 0.04842720911654672 0.01251005471691435 0
  endloop
endfacet
facet normal 0.979787 0.200043 6.89932e-16
  outer loop
    vertex 0.04715011851816062 0.01876508207537153 0.009999999999999972
    vertex 0.04778866381735367 0.01563756839614294 0.015
    vertex 0.04842720911654672 0.01251005471691435 0.01000000000000003
  endloop
endfacet
facet normal 0.979787 0.200043 0
  outer loop
    vertex 0.04715011851816062 0.01876508207537153 0.009999999999999972
    vertex 0.04778866381735367 0.01563756839614294 0.005
    vertex 0.04715011851816062 0.01876508207537153 0
  endloop
endfacet
facet normal 0.979787 0.200043 0
  outer loop
    vertex 0.04715011851816062 0.01876508207537153 0.02
    vertex 0.04778866381735367 0.01563756839614294 0.015
    vertex 0.04715011851816062 0.01876508207537153 0.009999999999999972
  endloop
endfacet
facet normal 0.979787 0.200043 -0
  outer loop
    vertex 0.04842720911654672 0.01251005471691435 0
    vertex 0.04778866381735367 0.01563756839614294 0.005
    vertex 0.04842720911654672 0.01251005471691435 0.01000000000000003
  endloop
endfacet
facet normal 0.979787 0.200043 -0
  outer loop
    vertex 0.04842720911654672 0.01251005471691435 0.01000000000000003
    vertex 0.04778866381735367 0.01563756839614294 0.015
    vertex 0.04842720911654672 0.01251005471691435 0.02
  endloop
endfacet
facet normal 0.604316 -0.796745 6.54674e-16
  outer loop
    vertex 0.04018042189392325 0.006255027358457177 0.02
    vertex 0.04430381550523499 0.009382541037685764 0.01500000000000001
    vertex 0.04842720911654672 0.01251005471691435 0.02
  endloop
endfacet
facet normal 0.604316 -0.796745 -7.20141e-16
  outer loop
    vertex 0.04842720911654672 0.01251005471691435 0
    vertex 0.04430381550523499 0.009382541037685764 0.004999999999999986
    vertex 0.04018042189392325 0.006255027358457177 0
  endloop
endfacet
facet normal 0.604316 -0.796745 0
  outer loop
    vertex 0.04842720911654672 0.01251005471691435 0.009999999999999972
    vertex 0.04430381550523499 0.009382541037685764 0.01500000000000001
    vertex 0.04430381550523499 0.009382541037685764 0.004999999999999986
  endloop
endfacet
facet normal 0.604316 -0.796745 0
  outer loop
    vertex 0.04430381550523499 0.009382541037685764 0.004999999999999986
    vertex 0.04430381550523499 0.009382541037685764 0.01500000000000001
    vertex 0.04018042189392325 0.006255027358457177 0.01000000000000003
  endloop
endfacet
facet normal 0.604316 -0.796745 0
  outer loop
    vertex 0.04842720911654672 0.01251005471691435 0.02
    vertex 0.04430381550523499 0.009382541037685764 0.01500000000000001
    vertex 0.04842720911654672 0.01251005471691435 0.009999999999999972
  endloop
endfacet
facet normal 0.604316 -0.796745 0
  outer loop
    vertex 0.04018042189392325 0.006255027358457177 0
    vertex 0.04430381550523499 0.009382541037685764 0.004999999999999986
    vertex 0.04018042189392325 0.006255027358457177 0.01000000000000003
  endloop
endfacet
facet normal 0.604316 -0.796745 0
  outer loop
    vertex 0.04842720911654672 0.01251005471691435 0.009999999999999972
    vertex 0.04430381550523499 0.009382541037685764 0.004999999999999986
    vertex 0.04842720911654672 0.01251005471691435 0
  endloop
endfacet
facet normal 0.604316 -0.796745 0
  outer loop
    vertex 0.04018042189392325 0.006255027358457177 0.01000000000000003
    vertex 0.04430381550523499 0.009382541037685764 0.01500000000000001
    vertex 0.04018042189392325 0.006255027358457177 0.02
  endloop
endfacet
endsolid Created by Gmsh
