solid Created by Gmsh
facet normal -0.279605 0.960115 4.05022e-16
  outer loop
    vertex 0.01340561057373017 0.05104240090522658 0.02
    vertex 0.02175183553567844 0.05347299142452308 0.02
    vertex 0.01964384853789795 0.05285910272214984 0.01278267529388265
  endloop
endfacet
facet normal -0.279605 0.960115 0
  outer loop
    vertex 0.01340561057373017 0.05104240090522658 0.01000000000000003
    vertex 0.01340561057373017 0.05104240090522658 0.02
    vertex 0.01964384853789795 0.05285910272214984 0.01278267529388265
  endloop
endfacet
facet normal -0.279605 0.960115 -1.32408e-15
  outer loop
    vertex 0.03009806049762671 0.05590358194381959 0
    vertex 0.02175183553567844 0.05347299142452308 0
    vertex 0.02579636347289205 0.05465084024887667 0.007211827141284554
  endloop
endfacet
facet normal -0.279605 0.960115 0
  outer loop
    vertex 0.03844428545957498 0.05833417246311609 0.009999999999999972
    vertex 0.03844428545957498 0.05833417246311609 0
    vertex 0.03293201397558429 0.05672888685556775 0.006050011675827212
  endloop
endfacet
facet normal -0.279605 0.960115 0
  outer loop
    vertex 0.03844428545957498 0.05833417246311609 0.02
    vertex 0.03844428545957498 0.05833417246311609 0.009999999999999972
    vertex 0.03187707498825271 0.05642166715891033 0.01303823123785153
  endloop
endfacet
facet normal -0.279605 0.960115 0
  outer loop
    vertex 0.01340561057373017 0.05104240090522658 0
    vertex 0.01340561057373017 0.05104240090522658 0.01000000000000003
    vertex 0.01880065373878576 0.05261354724120056 0.005998900487033447
  endloop
endfacet
facet normal -0.279605 0.960115 -1.53557e-15
  outer loop
    vertex 0.02579636347289205 0.05465084024887667 0.007211827141284554
    vertex 0.02175183553567844 0.05347299142452308 0
    vertex 0.01880065373878576 0.05261354724120056 0.005998900487033447
  endloop
endfacet
facet normal -0.279605 0.960115 -7.7307e-16
  outer loop
    vertex 0.03844428545957498 0.05833417246311609 0
    vertex 0.03009806049762671 0.05590358194381959 0
    vertex 0.03293201397558429 0.05672888685556775 0.006050011675827212
  endloop
endfacet
facet normal -0.279605 0.960115 1.03573e-15
  outer loop
    vertex 0.03009806049762671 0.05590358194381959 0.02
    vertex 0.03844428545957498 0.05833417246311609 0.02
    vertex 0.03187707498825271 0.05642166715891033 0.01303823123785153
  endloop
endfacet
facet normal -0.279605 0.960115 5.85532e-16
  outer loop
    vertex 0.02175183553567844 0.05347299142452308 0.02
    vertex 0.02592494801665257 0.05468828668417134 0.01452154198535862
    vertex 0.01964384853789795 0.05285910272214984 0.01278267529388265
  endloop
endfacet
facet normal -0.279605 0.960115 2.58217e-16
  outer loop
    vertex 0.02579636347289205 0.05465084024887667 0.007211827141284554
    vertex 0.02592494801665257 0.05468828668417134 0.01452154198535862
    vertex 0.03187707498825271 0.05642166715891033 0.01303823123785153
  endloop
endfacet
facet normal -0.279605 0.960115 1.06715e-15
  outer loop
    vertex 0.02175183553567844 0.05347299142452308 0.02
    vertex 0.03009806049762671 0.05590358194381959 0.02
    vertex 0.02592494801665257 0.05468828668417134 0.01452154198535862
  endloop
endfacet
facet normal -0.279605 0.960115 -5.01594e-16
  outer loop
    vertex 0.02579636347289205 0.05465084024887667 0.007211827141284554
    vertex 0.03187707498825271 0.05642166715891033 0.01303823123785153
    vertex 0.03293201397558429 0.05672888685556775 0.006050011675827212
  endloop
endfacet
facet normal -0.279605 0.960115 7.92502e-16
  outer loop
    vertex 0.01964384853789795 0.05285910272214984 0.01278267529388265
    vertex 0.02579636347289205 0.05465084024887667 0.007211827141284554
    vertex 0.01880065373878576 0.05261354724120056 0.005998900487033447
  endloop
endfacet
facet normal -0.279605 0.960115 -1.00642e-15
  outer loop
    vertex 0.03009806049762671 0.05590358194381959 0
    vertex 0.02579636347289205 0.05465084024887667 0.007211827141284554
    vertex 0.03293201397558429 0.05672888685556775 0.006050011675827212
  endloop
endfacet
facet normal -0.279605 0.960115 -1.60804e-15
  outer loop
    vertex 0.02175183553567844 0.05347299142452308 0
    vertex 0.01340561057373017 0.05104240090522658 0
    vertex 0.01880065373878576 0.05261354724120056 0.005998900487033447
  endloop
endfacet
facet normal -0.279605 0.960115 2.64767e-16
  outer loop
    vertex 0.02592494801665257 0.05468828668417134 0.01452154198535862
    vertex 0.02579636347289205 0.05465084024887667 0.007211827141284554
    vertex 0.01964384853789795 0.05285910272214984 0.01278267529388265
  endloop
endfacet
facet normal -0.279605 0.960115 1.00612e-15
  outer loop
    vertex 0.02592494801665257 0.05468828668417134 0.01452154198535862
    vertex 0.03009806049762671 0.05590358194381959 0.02
    vertex 0.03187707498825271 0.05642166715891033 0.01303823123785153
  endloop
endfacet
facet normal -0.279605 0.960115 -4.19122e-16
  outer loop
    vertex 0.03187707498825271 0.05642166715891033 0.01303823123785153
    vertex 0.03844428545957498 0.05833417246311609 0.009999999999999972
    vertex 0.03293201397558429 0.05672888685556775 0.006050011675827212
  endloop
endfacet
facet normal -0.279605 0.960115 9.35881e-16
  outer loop
    vertex 0.01340561057373017 0.05104240090522658 0.01000000000000003
    vertex 0.01964384853789795 0.05285910272214984 0.01278267529388265
    vertex 0.01880065373878576 0.05261354724120056 0.005998900487033447
  endloop
endfacet
facet normal -0.923326 -0.384017 0
  outer loop
    vertex 0.01643830723672483 0.04375062934733707 0
    vertex 0.01643830723672483 0.04375062934733707 0.01000000000000003
    vertex 0.01492195890522749 0.04739651512628183 0.004999999999999999
  endloop
endfacet
facet normal -0.923326 -0.384017 -0
  outer loop
    vertex 0.01340561057373017 0.05104240090522658 0.02
    vertex 0.01340561057373017 0.05104240090522658 0.009999999999999972
    vertex 0.01492195890522749 0.04739651512628182 0.015
  endloop
endfacet
facet normal -0.923326 -0.384017 0
  outer loop
    vertex 0.01643830723672483 0.04375062934733707 0.01000000000000003
    vertex 0.01643830723672483 0.04375062934733707 0.02
    vertex 0.01492195890522749 0.04739651512628182 0.015
  endloop
endfacet
facet normal -0.923326 -0.384017 -0
  outer loop
    vertex 0.01340561057373017 0.05104240090522658 0.009999999999999972
    vertex 0.01340561057373017 0.05104240090522658 0
    vertex 0.01492195890522749 0.04739651512628183 0.004999999999999999
  endloop
endfacet
facet normal -0.923326 -0.384017 -3.4322e-16
  outer loop
    vertex 0.01340561057373017 0.05104240090522658 0
    vertex 0.01643830723672483 0.04375062934733707 0
    vertex 0.01492195890522749 0.04739651512628183 0.004999999999999999
  endloop
endfacet
facet normal -0.923326 -0.384017 -9.00952e-16
  outer loop
    vertex 0.01340561057373017 0.05104240090522658 0.009999999999999972
    vertex 0.01643830723672483 0.04375062934733707 0.01000000000000003
    vertex 0.01492195890522749 0.04739651512628182 0.015
  endloop
endfacet
facet normal -0.923326 -0.384017 9.43854e-16
  outer loop
    vertex 0.01643830723672483 0.04375062934733707 0.02
    vertex 0.01340561057373017 0.05104240090522658 0.02
    vertex 0.01492195890522749 0.04739651512628182 0.015
  endloop
endfacet
facet normal -0.923326 -0.384017 3.86122e-16
  outer loop
    vertex 0.01643830723672483 0.04375062934733707 0.01000000000000003
    vertex 0.01340561057373017 0.05104240090522658 0.009999999999999972
    vertex 0.01492195890522749 0.04739651512628183 0.004999999999999999
  endloop
endfacet
facet normal -0.994022 -0.109178 -4.15686e-16
  outer loop
    vertex 0.01723919899056303 0.03645885778944756 0.01000000000000003
    vertex 0.01643830723672483 0.04375062934733707 0.009999999999999972
    vertex 0.01683875311364393 0.04010474356839232 0.004999999999999993
  endloop
endfacet
facet normal -0.994022 -0.109178 -2.65577e-16
  outer loop
    vertex 0.01723919899056303 0.03645885778944756 0.02
    vertex 0.01643830723672483 0.04375062934733707 0.02
    vertex 0.01683875311364393 0.04010474356839231 0.015
  endloop
endfacet
facet normal -0.994022 -0.109178 2.77124e-16
  outer loop
    vertex 0.01643830723672483 0.04375062934733707 0.009999999999999972
    vertex 0.01723919899056303 0.03645885778944756 0.01000000000000003
    vertex 0.01683875311364393 0.04010474356839231 0.015
  endloop
endfacet
facet normal -0.994022 -0.109178 4.27233e-16
  outer loop
    vertex 0.01643830723672483 0.04375062934733707 0
    vertex 0.01723919899056303 0.03645885778944756 0
    vertex 0.01683875311364393 0.04010474356839232 0.004999999999999993
  endloop
endfacet
facet normal -0.994022 -0.109178 -0
  outer loop
    vertex 0.01643830723672483 0.04375062934733707 0.009999999999999972
    vertex 0.01643830723672483 0.04375062934733707 0
    vertex 0.01683875311364393 0.04010474356839232 0.004999999999999993
  endloop
endfacet
facet normal -0.994022 -0.109178 -0
  outer loop
    vertex 0.01643830723672483 0.04375062934733707 0.02
    vertex 0.01643830723672483 0.04375062934733707 0.009999999999999972
    vertex 0.01683875311364393 0.04010474356839231 0.015
  endloop
endfacet
facet normal -0.994022 -0.109178 0
  outer loop
    vertex 0.01723919899056303 0.03645885778944756 0
    vertex 0.01723919899056303 0.03645885778944756 0.01000000000000003
    vertex 0.01683875311364393 0.04010474356839232 0.004999999999999993
  endloop
endfacet
facet normal -0.994022 -0.109178 0
  outer loop
    vertex 0.01723919899056303 0.03645885778944756 0.01000000000000003
    vertex 0.01723919899056303 0.03645885778944756 0.02
    vertex 0.01683875311364393 0.04010474356839231 0.015
  endloop
endfacet
facet normal -0.368972 -0.929441 0
  outer loop
    vertex 0.03560718181352092 0.02916708623155805 0.01000000000000003
    vertex 0.03560718181352092 0.02916708623155805 0.02
    vertex 0.02889249114079809 0.0318327023168578 0.01295457499525021
  endloop
endfacet
facet normal -0.368972 -0.929441 -1.50279e-15
  outer loop
    vertex 0.01723919899056303 0.03645885778944756 0
    vertex 0.02642319040204198 0.0328129720105028 0
    vertex 0.02421050110407234 0.0336913713995318 0.007529522733009611
  endloop
endfacet
facet normal -0.368972 -0.929441 -0
  outer loop
    vertex 0.01723919899056303 0.03645885778944756 0.009999999999999972
    vertex 0.01723919899056303 0.03645885778944756 0
    vertex 0.02421050110407234 0.0336913713995318 0.007529522733009611
  endloop
endfacet
facet normal -0.368972 -0.929441 8.76024e-16
  outer loop
    vertex 0.03560718181352092 0.02916708623155805 0.02
    vertex 0.02642319040204197 0.0328129720105028 0.02
    vertex 0.02889249114079809 0.0318327023168578 0.01295457499525021
  endloop
endfacet
facet normal -0.368972 -0.929441 0
  outer loop
    vertex 0.03560718181352092 0.02916708623155805 0
    vertex 0.03560718181352092 0.02916708623155805 0.01000000000000003
    vertex 0.03051406774239658 0.03118896444664942 0.00553275622384332
  endloop
endfacet
facet normal -0.368972 -0.929441 -0
  outer loop
    vertex 0.01723919899056303 0.03645885778944756 0.02
    vertex 0.01723919899056303 0.03645885778944756 0.009999999999999972
    vertex 0.02266183211357908 0.03430616620886436 0.01414053888942091
  endloop
endfacet
facet normal -0.368972 -0.929441 -1.54935e-15
  outer loop
    vertex 0.02642319040204198 0.0328129720105028 0
    vertex 0.03560718181352092 0.02916708623155805 0
    vertex 0.03051406774239658 0.03118896444664942 0.00553275622384332
  endloop
endfacet
facet normal -0.368972 -0.929441 1.49222e-15
  outer loop
    vertex 0.02642319040204197 0.0328129720105028 0.02
    vertex 0.01723919899056303 0.03645885778944756 0.02
    vertex 0.02266183211357908 0.03430616620886436 0.01414053888942091
  endloop
endfacet
facet normal -0.368972 -0.929441 1.39821e-16
  outer loop
    vertex 0.03560718181352092 0.02916708623155805 0.01000000000000003
    vertex 0.02889249114079809 0.0318327023168578 0.01295457499525021
    vertex 0.03051406774239658 0.03118896444664942 0.00553275622384332
  endloop
endfacet
facet normal -0.368972 -0.929441 -4.84341e-16
  outer loop
    vertex 0.02266183211357908 0.03430616620886436 0.01414053888942091
    vertex 0.01723919899056303 0.03645885778944756 0.009999999999999972
    vertex 0.02421050110407234 0.0336913713995318 0.007529522733009611
  endloop
endfacet
facet normal -0.368972 -0.929441 -7.23158e-17
  outer loop
    vertex 0.02889249114079809 0.0318327023168578 0.01295457499525021
    vertex 0.02421050110407234 0.0336913713995318 0.007529522733009611
    vertex 0.03051406774239658 0.03118896444664942 0.00553275622384332
  endloop
endfacet
facet normal -0.368972 -0.929441 -6.00137e-17
  outer loop
    vertex 0.02266183211357908 0.03430616620886436 0.01414053888942091
    vertex 0.02421050110407234 0.0336913713995318 0.007529522733009611
    vertex 0.02889249114079809 0.0318327023168578 0.01295457499525021
  endloop
endfacet
facet normal -0.368972 -0.929441 -1.62777e-15
  outer loop
    vertex 0.02421050110407234 0.0336913713995318 0.007529522733009611
    vertex 0.02642319040204198 0.0328129720105028 0
    vertex 0.03051406774239658 0.03118896444664942 0.00553275622384332
  endloop
endfacet
facet normal -0.368972 -0.929441 9.80021e-16
  outer loop
    vertex 0.02642319040204197 0.0328129720105028 0.02
    vertex 0.02266183211357908 0.03430616620886436 0.01414053888942091
    vertex 0.02889249114079809 0.0318327023168578 0.01295457499525021
  endloop
endfacet
facet normal -0.95723 0.289328 0
  outer loop
    vertex 0.03340320058588756 0.02187531467366853 0
    vertex 0.03340320058588756 0.02187531467366853 0.01000000000000003
    vertex 0.03450519119970424 0.02552120045261329 0.005
  endloop
endfacet
facet normal -0.95723 0.289328 0
  outer loop
    vertex 0.03560718181352092 0.02916708623155805 0.02
    vertex 0.03560718181352092 0.02916708623155805 0.009999999999999972
    vertex 0.03450519119970424 0.02552120045261329 0.015
  endloop
endfacet
facet normal -0.95723 0.289328 0
  outer loop
    vertex 0.03560718181352092 0.02916708623155805 0.009999999999999972
    vertex 0.03560718181352092 0.02916708623155805 0
    vertex 0.03450519119970424 0.02552120045261329 0.005
  endloop
endfacet
facet normal -0.95723 0.289328 0
  outer loop
    vertex 0.03340320058588756 0.02187531467366853 0.01000000000000003
    vertex 0.03340320058588756 0.02187531467366853 0.02
    vertex 0.03450519119970424 0.02552120045261329 0.015
  endloop
endfacet
facet normal -0.95723 0.289328 6.22689e-16
  outer loop
    vertex 0.03340320058588756 0.02187531467366853 0.01000000000000003
    vertex 0.03560718181352092 0.02916708623155805 0.009999999999999972
    vertex 0.03450519119970424 0.02552120045261329 0.005
  endloop
endfacet
facet normal -0.95723 0.289328 -6.67167e-16
  outer loop
    vertex 0.03560718181352092 0.02916708623155805 0.009999999999999972
    vertex 0.03340320058588756 0.02187531467366853 0.01000000000000003
    vertex 0.03450519119970424 0.02552120045261329 0.015
  endloop
endfacet
facet normal -0.95723 0.289328 -6.67167e-16
  outer loop
    vertex 0.03560718181352092 0.02916708623155805 0
    vertex 0.03340320058588756 0.02187531467366853 0
    vertex 0.03450519119970424 0.02552120045261329 0.005
  endloop
endfacet
facet normal -0.95723 0.289328 6.22689e-16
  outer loop
    vertex 0.03340320058588756 0.02187531467366853 0.02
    vertex 0.03560718181352092 0.02916708623155805 0.02
    vertex 0.03450519119970424 0.02552120045261329 0.015
  endloop
endfacet
facet normal -0.991419 0.130724 6.90996e-16
  outer loop
    vertex 0.03244173725554657 0.01458354311577902 0.01000000000000003
    vertex 0.03340320058588756 0.02187531467366853 0.009999999999999972
    vertex 0.03292246892071706 0.01822942889472378 0.004999999999999999
  endloop
endfacet
facet normal -0.991419 0.130724 -6.7948e-16
  outer loop
    vertex 0.03340320058588756 0.02187531467366853 0.009999999999999972
    vertex 0.03244173725554657 0.01458354311577902 0.01000000000000003
    vertex 0.03292246892071706 0.01822942889472378 0.015
  endloop
endfacet
facet normal -0.991419 0.130724 -6.7948e-16
  outer loop
    vertex 0.03340320058588756 0.02187531467366853 0
    vertex 0.03244173725554657 0.01458354311577902 0
    vertex 0.03292246892071706 0.01822942889472378 0.004999999999999999
  endloop
endfacet
facet normal -0.991419 0.130724 6.90996e-16
  outer loop
    vertex 0.03244173725554657 0.01458354311577902 0.02
    vertex 0.03340320058588756 0.02187531467366853 0.02
    vertex 0.03292246892071706 0.01822942889472378 0.015
  endloop
endfacet
facet normal -0.991419 0.130724 0
  outer loop
    vertex 0.03340320058588756 0.02187531467366853 0.009999999999999972
    vertex 0.03340320058588756 0.02187531467366853 0
    vertex 0.03292246892071706 0.01822942889472378 0.004999999999999999
  endloop
endfacet
facet normal -0.991419 0.130724 0
  outer loop
    vertex 0.03340320058588756 0.02187531467366853 0.02
    vertex 0.03340320058588756 0.02187531467366853 0.009999999999999972
    vertex 0.03292246892071706 0.01822942889472378 0.015
  endloop
endfacet
facet normal -0.991419 0.130724 0
  outer loop
    vertex 0.03244173725554657 0.01458354311577902 0
    vertex 0.03244173725554657 0.01458354311577902 0.01000000000000003
    vertex 0.03292246892071706 0.01822942889472378 0.004999999999999999
  endloop
endfacet
facet normal -0.991419 0.130724 0
  outer loop
    vertex 0.03244173725554657 0.01458354311577902 0.01000000000000003
    vertex 0.03244173725554657 0.01458354311577902 0.02
    vertex 0.03292246892071706 0.01822942889472378 0.015
  endloop
endfacet
facet normal -0.625201 0.780464 -2.02833e-16
  outer loop
    vertex 0.03244173725554657 0.01458354311577902 0
    vertex 0.02333911742993251 0.007291771557889515 0
    vertex 0.02789042734273953 0.01093765733683426 0.005728862973760941
  endloop
endfacet
facet normal -0.625201 0.780464 1.95425e-16
  outer loop
    vertex 0.02333911742993251 0.007291771557889515 0.02
    vertex 0.03244173725554657 0.01458354311577902 0.02
    vertex 0.02789042734273955 0.01093765733683428 0.01405396560956744
  endloop
endfacet
facet normal -0.625201 0.780464 0
  outer loop
    vertex 0.03244173725554657 0.01458354311577902 0.02
    vertex 0.03244173725554657 0.01458354311577902 0.009999999999999972
    vertex 0.02789042734273955 0.01093765733683428 0.01405396560956744
  endloop
endfacet
facet normal -0.625201 0.780464 0
  outer loop
    vertex 0.02333911742993251 0.007291771557889515 0
    vertex 0.02333911742993251 0.007291771557889515 0.01000000000000003
    vertex 0.02789042734273953 0.01093765733683426 0.005728862973760941
  endloop
endfacet
facet normal -0.625201 0.780464 0
  outer loop
    vertex 0.03244173725554657 0.01458354311577902 0.009999999999999972
    vertex 0.03244173725554657 0.01458354311577902 0
    vertex 0.02789042734273953 0.01093765733683426 0.005728862973760941
  endloop
endfacet
facet normal -0.625201 0.780464 0
  outer loop
    vertex 0.02333911742993251 0.007291771557889515 0.01000000000000003
    vertex 0.02333911742993251 0.007291771557889515 0.02
    vertex 0.02789042734273955 0.01093765733683428 0.01405396560956744
  endloop
endfacet
facet normal -0.625201 0.780464 0
  outer loop
    vertex 0.03244173725554657 0.01458354311577902 0.009999999999999972
    vertex 0.02789042734273953 0.01093765733683426 0.005728862973760941
    vertex 0.02789042734273955 0.01093765733683428 0.01405396560956744
  endloop
endfacet
facet normal -0.625201 0.780464 1.72866e-18
  outer loop
    vertex 0.02789042734273953 0.01093765733683426 0.005728862973760941
    vertex 0.02333911742993251 0.007291771557889515 0.01000000000000003
    vertex 0.02789042734273955 0.01093765733683428 0.01405396560956744
  endloop
endfacet
endsolid Created by Gmsh
