solid Created by Gmsh
facet normal -0.409539 0.912292 2.05692e-16
  outer loop
    vertex 0.03380189938558709 0.05662231783557501 0
    vertex 0.02591863629887076 0.05308342297085157 0
    vertex 0.02716325470124602 0.05364214765430505 0.007624857064267524
  endloop
endfacet
facet normal -0.409539 0.912292 0
  outer loop
    vertex 0.03380189938558709 0.05662231783557501 0.009999999999999972
    vertex 0.03380189938558709 0.05662231783557501 0
    vertex 0.02716325470124602 0.05364214765430505 0.007624857064267524
  endloop
endfacet
facet normal -0.409539 0.912292 0
  outer loop
    vertex 0.01803537321215445 0.04954452810612813 0.01000000000000003
    vertex 0.01803537321215445 0.04954452810612813 0.02
    vertex 0.02342922203138683 0.05196589393871601 0.013624471847643
  endloop
endfacet
facet normal -0.409539 0.912292 0
  outer loop
    vertex 0.01803537321215445 0.04954452810612813 0
    vertex 0.01803537321215445 0.04954452810612813 0.01000000000000003
    vertex 0.02211740644638357 0.05137700360407084 0.005004916786662815
  endloop
endfacet
facet normal -0.409539 0.912292 0
  outer loop
    vertex 0.03380189938558709 0.05662231783557501 0.02
    vertex 0.03380189938558709 0.05662231783557501 0.009999999999999972
    vertex 0.02876765219624185 0.05436238164796477 0.01428822033513372
  endloop
endfacet
facet normal -0.409539 0.912292 9.83993e-16
  outer loop
    vertex 0.01803537321215445 0.04954452810612813 0.02
    vertex 0.02591863629887077 0.05308342297085157 0.02
    vertex 0.02342922203138683 0.05196589393871601 0.013624471847643
  endloop
endfacet
facet normal -0.409539 0.912292 -5.88391e-16
  outer loop
    vertex 0.02342922203138683 0.05196589393871601 0.013624471847643
    vertex 0.02716325470124602 0.05364214765430505 0.007624857064267524
    vertex 0.02211740644638357 0.05137700360407084 0.005004916786662815
  endloop
endfacet
facet normal -0.409539 0.912292 -3.91707e-17
  outer loop
    vertex 0.02591863629887076 0.05308342297085157 0
    vertex 0.01803537321215445 0.04954452810612813 0
    vertex 0.02211740644638357 0.05137700360407084 0.005004916786662815
  endloop
endfacet
facet normal -0.409539 0.912292 -4.07311e-16
  outer loop
    vertex 0.01803537321215445 0.04954452810612813 0.01000000000000003
    vertex 0.02342922203138683 0.05196589393871601 0.013624471847643
    vertex 0.02211740644638357 0.05137700360407084 0.005004916786662815
  endloop
endfacet
facet normal -0.409539 0.912292 5.83493e-16
  outer loop
    vertex 0.02591863629887077 0.05308342297085157 0.02
    vertex 0.03380189938558709 0.05662231783557501 0.02
    vertex 0.02876765219624185 0.05436238164796477 0.01428822033513372
  endloop
endfacet
facet normal -0.409539 0.912292 -5.82238e-16
  outer loop
    vertex 0.02876765219624185 0.05436238164796477 0.01428822033513372
    vertex 0.02716325470124602 0.05364214765430505 0.007624857064267524
    vertex 0.02342922203138683 0.05196589393871601 0.013624471847643
  endloop
endfacet
facet normal -0.409539 0.912292 -4.5877e-16
  outer loop
    vertex 0.02876765219624185 0.05436238164796477 0.01428822033513372
    vertex 0.03380189938558709 0.05662231783557501 0.009999999999999972
    vertex 0.02716325470124602 0.05364214765430505 0.007624857064267524
  endloop
endfacet
facet normal -0.409539 0.912292 2.08475e-16
  outer loop
    vertex 0.02716325470124602 0.05364214765430505 0.007624857064267524
    vertex 0.02591863629887076 0.05308342297085157 0
    vertex 0.02211740644638357 0.05137700360407084 0.005004916786662815
  endloop
endfacet
facet normal -0.409539 0.912292 8.82916e-16
  outer loop
    vertex 0.02591863629887077 0.05308342297085157 0.02
    vertex 0.02876765219624185 0.05436238164796477 0.01428822033513372
    vertex 0.02342922203138683 0.05196589393871601 0.013624471847643
  endloop
endfacet
facet normal -0.730571 -0.682837 -0
  outer loop
    vertex 0.01803537321215445 0.04954452810612813 0.02
    vertex 0.01803537321215445 0.04954452810612813 0.009999999999999972
    vertex 0.02134304096521189 0.04600563324140469 0.015
  endloop
endfacet
facet normal -0.730571 -0.682837 0
  outer loop
    vertex 0.02465070871826933 0.04246673837668126 0
    vertex 0.02465070871826933 0.04246673837668126 0.01000000000000003
    vertex 0.02134304096521189 0.04600563324140469 0.005
  endloop
endfacet
facet normal -0.730571 -0.682837 -0
  outer loop
    vertex 0.01803537321215445 0.04954452810612813 0.009999999999999972
    vertex 0.01803537321215445 0.04954452810612813 0
    vertex 0.02134304096521189 0.04600563324140469 0.005
  endloop
endfacet
facet normal -0.730571 -0.682837 0
  outer loop
    vertex 0.02465070871826933 0.04246673837668126 0.01000000000000003
    vertex 0.02465070871826933 0.04246673837668126 0.02
    vertex 0.02134304096521189 0.04600563324140469 0.015
  endloop
endfacet
facet normal -0.730571 -0.682837 9.79227e-16
  outer loop
    vertex 0.02465070871826933 0.04246673837668126 0.01000000000000003
    vertex 0.01803537321215445 0.04954452810612813 0.009999999999999972
    vertex 0.02134304096521189 0.04600563324140469 0.005
  endloop
endfacet
facet normal -0.730571 -0.682837 9.79227e-16
  outer loop
    vertex 0.02465070871826933 0.04246673837668126 0.02
    vertex 0.01803537321215445 0.04954452810612813 0.02
    vertex 0.02134304096521189 0.04600563324140469 0.015
  endloop
endfacet
facet normal -0.730571 -0.682837 -9.79227e-16
  outer loop
    vertex 0.01803537321215445 0.04954452810612813 0.009999999999999972
    vertex 0.02465070871826933 0.04246673837668126 0.01000000000000003
    vertex 0.02134304096521189 0.04600563324140469 0.015
  endloop
endfacet
facet normal -0.730571 -0.682837 -9.79227e-16
  outer loop
    vertex 0.01803537321215445 0.04954452810612813 0
    vertex 0.02465070871826933 0.04246673837668126 0
    vertex 0.02134304096521189 0.04600563324140469 0.005
  endloop
endfacet
facet normal -0.371824 -0.928303 -7.0097e-16
  outer loop
    vertex 0.02465070871826933 0.04246673837668126 0
    vertex 0.0334859724029176 0.03892784351195782 0
    vertex 0.03162149146347824 0.039674646579468 0.007617679234489614
  endloop
endfacet
facet normal -0.371824 -0.928303 -0
  outer loop
    vertex 0.02465070871826933 0.04246673837668126 0.009999999999999972
    vertex 0.02465070871826933 0.04246673837668126 0
    vertex 0.03162149146347824 0.039674646579468 0.007617679234489614
  endloop
endfacet
facet normal -0.371824 -0.928303 0
  outer loop
    vertex 0.04232123608756586 0.03538894864723438 0.01000000000000003
    vertex 0.04232123608756586 0.03538894864723438 0.02
    vertex 0.0358205116958868 0.03799276229533958 0.0130548432642066
  endloop
endfacet
facet normal -0.371824 -0.928303 7.1759e-16
  outer loop
    vertex 0.04232123608756586 0.03538894864723438 0.02
    vertex 0.03348597240291759 0.03892784351195782 0.02
    vertex 0.0358205116958868 0.03799276229533958 0.0130548432642066
  endloop
endfacet
facet normal -0.371824 -0.928303 -0
  outer loop
    vertex 0.02465070871826933 0.04246673837668126 0.02
    vertex 0.02465070871826933 0.04246673837668126 0.009999999999999972
    vertex 0.0299527125356296 0.04034306275683502 0.01418741979675302
  endloop
endfacet
facet normal -0.371824 -0.928303 0
  outer loop
    vertex 0.04232123608756586 0.03538894864723438 0
    vertex 0.04232123608756586 0.03538894864723438 0.01000000000000003
    vertex 0.03790360424524173 0.0371583960795961 0.005000000000000014
  endloop
endfacet
facet normal -0.371824 -0.928303 9.799e-16
  outer loop
    vertex 0.03348597240291759 0.03892784351195782 0.02
    vertex 0.02465070871826933 0.04246673837668126 0.02
    vertex 0.0299527125356296 0.04034306275683502 0.01418741979675302
  endloop
endfacet
facet normal -0.371824 -0.928303 -4.27181e-16
  outer loop
    vertex 0.0334859724029176 0.03892784351195782 0
    vertex 0.04232123608756586 0.03538894864723438 0
    vertex 0.03790360424524173 0.0371583960795961 0.005000000000000014
  endloop
endfacet
facet normal -0.371824 -0.928303 -3.76068e-16
  outer loop
    vertex 0.04232123608756586 0.03538894864723438 0.01000000000000003
    vertex 0.0358205116958868 0.03799276229533958 0.0130548432642066
    vertex 0.03790360424524173 0.0371583960795961 0.005000000000000014
  endloop
endfacet
facet normal -0.371824 -0.928303 -5.05061e-16
  outer loop
    vertex 0.0358205116958868 0.03799276229533958 0.0130548432642066
    vertex 0.03162149146347824 0.039674646579468 0.007617679234489614
    vertex 0.03790360424524173 0.0371583960795961 0.005000000000000014
  endloop
endfacet
facet normal -0.371824 -0.928303 -5.17049e-16
  outer loop
    vertex 0.0299527125356296 0.04034306275683502 0.01418741979675302
    vertex 0.02465070871826933 0.04246673837668126 0.009999999999999972
    vertex 0.03162149146347824 0.039674646579468 0.007617679234489614
  endloop
endfacet
facet normal -0.371824 -0.928303 -6.95285e-16
  outer loop
    vertex 0.03162149146347824 0.039674646579468 0.007617679234489614
    vertex 0.0334859724029176 0.03892784351195782 0
    vertex 0.03790360424524173 0.0371583960795961 0.005000000000000014
  endloop
endfacet
facet normal -0.371824 -0.928303 -3.21729e-16
  outer loop
    vertex 0.0299527125356296 0.04034306275683502 0.01418741979675302
    vertex 0.03162149146347824 0.039674646579468 0.007617679234489614
    vertex 0.0358205116958868 0.03799276229533958 0.0130548432642066
  endloop
endfacet
facet normal -0.371824 -0.928303 7.42793e-16
  outer loop
    vertex 0.03348597240291759 0.03892784351195782 0.02
    vertex 0.0299527125356296 0.04034306275683502 0.01418741979675302
    vertex 0.0358205116958868 0.03799276229533958 0.0130548432642066
  endloop
endfacet
facet normal -0.548656 0.836048 3.67697e-16
  outer loop
    vertex 0.03153601539786817 0.02831115891778751 0.01000000000000003
    vertex 0.03692862574271701 0.03185005378251093 0.02
    vertex 0.04232123608756586 0.03538894864723438 0.009999999999999972
  endloop
endfacet
facet normal -0.548656 0.836048 5.25282e-17
  outer loop
    vertex 0.03692862574271702 0.03185005378251095 0
    vertex 0.03153601539786817 0.02831115891778751 0.01000000000000003
    vertex 0.04232123608756586 0.03538894864723438 0.009999999999999972
  endloop
endfacet
facet normal -0.548656 0.836048 0
  outer loop
    vertex 0.03692862574271702 0.03185005378251095 0
    vertex 0.04232123608756586 0.03538894864723438 0.009999999999999972
    vertex 0.04232123608756586 0.03538894864723438 0
  endloop
endfacet
facet normal -0.548656 0.836048 0
  outer loop
    vertex 0.04232123608756586 0.03538894864723438 0.009999999999999972
    vertex 0.03692862574271701 0.03185005378251093 0.02
    vertex 0.04232123608756586 0.03538894864723438 0.02
  endloop
endfacet
facet normal -0.548656 0.836048 0
  outer loop
    vertex 0.03153601539786817 0.02831115891778751 0.01000000000000003
    vertex 0.03692862574271702 0.03185005378251095 0
    vertex 0.03153601539786817 0.02831115891778751 0
  endloop
endfacet
facet normal -0.548656 0.836048 0
  outer loop
    vertex 0.03692862574271701 0.03185005378251093 0.02
    vertex 0.03153601539786817 0.02831115891778751 0.01000000000000003
    vertex 0.03153601539786817 0.02831115891778751 0.02
  endloop
endfacet
facet normal -0.794002 -0.607915 -0
  outer loop
    vertex 0.03153601539786817 0.02831115891778751 0.02
    vertex 0.03153601539786817 0.02831115891778751 0.009999999999999972
    vertex 0.03424551248994029 0.02477226405306407 0.015
  endloop
endfacet
facet normal -0.794002 -0.607915 0
  outer loop
    vertex 0.03695500958201241 0.02123336918834063 0
    vertex 0.03695500958201241 0.02123336918834063 0.01000000000000003
    vertex 0.03424551248994029 0.02477226405306407 0.005
  endloop
endfacet
facet normal -0.794002 -0.607915 -0
  outer loop
    vertex 0.03153601539786817 0.02831115891778751 0.009999999999999972
    vertex 0.03153601539786817 0.02831115891778751 0
    vertex 0.03424551248994029 0.02477226405306407 0.005
  endloop
endfacet
facet normal -0.794002 -0.607915 0
  outer loop
    vertex 0.03695500958201241 0.02123336918834063 0.01000000000000003
    vertex 0.03695500958201241 0.02123336918834063 0.02
    vertex 0.03424551248994029 0.02477226405306407 0.015
  endloop
endfacet
facet normal -0.794002 -0.607915 2.28053e-16
  outer loop
    vertex 0.03695500958201241 0.02123336918834063 0.01000000000000003
    vertex 0.03153601539786817 0.02831115891778751 0.009999999999999972
    vertex 0.03424551248994029 0.02477226405306407 0.005
  endloop
endfacet
facet normal -0.794002 -0.607915 -1.52035e-16
  outer loop
    vertex 0.03153601539786817 0.02831115891778751 0.009999999999999972
    vertex 0.03695500958201241 0.02123336918834063 0.01000000000000003
    vertex 0.03424551248994029 0.02477226405306407 0.015
  endloop
endfacet
facet normal -0.794002 -0.607915 -1.52035e-16
  outer loop
    vertex 0.03153601539786817 0.02831115891778751 0
    vertex 0.03695500958201241 0.02123336918834063 0
    vertex 0.03424551248994029 0.02477226405306407 0.005
  endloop
endfacet
facet normal -0.794002 -0.607915 2.28053e-16
  outer loop
    vertex 0.03695500958201241 0.02123336918834063 0.02
    vertex 0.03153601539786817 0.02831115891778751 0.02
    vertex 0.03424551248994029 0.02477226405306407 0.015
  endloop
endfacet
facet normal -0.545373 0.838193 1.82749e-16
  outer loop
    vertex 0.0315160227361574 0.01769447432361719 0
    vertex 0.0260770358903024 0.01415557945889375 0.01000000000000003
    vertex 0.03695500958201241 0.02123336918834063 0.009999999999999972
  endloop
endfacet
facet normal -0.545373 0.838193 0
  outer loop
    vertex 0.0260770358903024 0.01415557945889375 0.01000000000000003
    vertex 0.03151602273615741 0.01769447432361719 0.02
    vertex 0.03695500958201241 0.02123336918834063 0.009999999999999972
  endloop
endfacet
facet normal -0.545373 0.838193 0
  outer loop
    vertex 0.0315160227361574 0.01769447432361719 0
    vertex 0.03695500958201241 0.02123336918834063 0.009999999999999972
    vertex 0.03695500958201241 0.02123336918834063 0
  endloop
endfacet
facet normal -0.545373 0.838193 0
  outer loop
    vertex 0.03695500958201241 0.02123336918834063 0.009999999999999972
    vertex 0.03151602273615741 0.01769447432361719 0.02
    vertex 0.03695500958201241 0.02123336918834063 0.02
  endloop
endfacet
facet normal -0.545373 0.838193 0
  outer loop
    vertex 0.0260770358903024 0.01415557945889375 0.01000000000000003
    vertex 0.0315160227361574 0.01769447432361719 0
    vertex 0.0260770358903024 0.01415557945889375 0
  endloop
endfacet
facet normal -0.545373 0.838193 0
  outer loop
    vertex 0.03151602273615741 0.01769447432361719 0.02
    vertex 0.0260770358903024 0.01415557945889375 0.01000000000000003
    vertex 0.0260770358903024 0.01415557945889375 0.02
  endloop
endfacet
facet normal -0.822475 -0.568801 -0
  outer loop
    vertex 0.0260770358903024 0.01415557945889375 0.02
    vertex 0.0260770358903024 0.01415557945889375 0.009999999999999972
    vertex 0.02852443750216711 0.01061668459417032 0.015
  endloop
endfacet
facet normal -0.822475 -0.568801 0
  outer loop
    vertex 0.03097183911403182 0.007077789729446879 0
    vertex 0.03097183911403182 0.007077789729446879 0.01000000000000003
    vertex 0.02852443750216711 0.01061668459417032 0.005000000000000001
  endloop
endfacet
facet normal -0.822475 -0.568801 -0
  outer loop
    vertex 0.0260770358903024 0.01415557945889375 0.009999999999999972
    vertex 0.0260770358903024 0.01415557945889375 0
    vertex 0.02852443750216711 0.01061668459417032 0.005000000000000001
  endloop
endfacet
facet normal -0.822475 -0.568801 0
  outer loop
    vertex 0.03097183911403182 0.007077789729446879 0.01000000000000003
    vertex 0.03097183911403182 0.007077789729446879 0.02
    vertex 0.02852443750216711 0.01061668459417032 0.015
  endloop
endfacet
facet normal -0.822475 -0.568801 2.36231e-16
  outer loop
    vertex 0.0260770358903024 0.01415557945889375 0.009999999999999972
    vertex 0.03097183911403182 0.007077789729446879 0.01000000000000003
    vertex 0.02852443750216711 0.01061668459417032 0.015
  endloop
endfacet
facet normal -0.822475 -0.568801 -2.36231e-16
  outer loop
    vertex 0.03097183911403182 0.007077789729446879 0.01000000000000003
    vertex 0.0260770358903024 0.01415557945889375 0.009999999999999972
    vertex 0.02852443750216711 0.01061668459417032 0.005000000000000001
  endloop
endfacet
facet normal -0.822475 -0.568801 2.36231e-16
  outer loop
    vertex 0.0260770358903024 0.01415557945889375 0
    vertex 0.03097183911403182 0.007077789729446879 0
    vertex 0.02852443750216711 0.01061668459417032 0.005000000000000001
  endloop
endfacet
facet normal -0.822475 -0.568801 -2.36231e-16
  outer loop
    vertex 0.03097183911403182 0.007077789729446879 0.02
    vertex 0.0260770358903024 0.01415557945889375 0.02
    vertex 0.02852443750216711 0.01061668459417032 0.015
  endloop
endfacet
endsolid Created by Gmsh
