solid Created by Gmsh
facet normal 0.994409 -0.105596 -3.14463e-18
  outer loop
    vertex 0.009218694494001759 0.01147660538600834 0
    vertex 0.008914072762517903 0.008607942713410956 0.01166949065779521
    vertex 0.008 0 0
  endloop
endfacet
facet normal 0.994409 -0.105596 -1.50942e-16
  outer loop
    vertex 0.01287477797600705 0.04590642154403349 0.02
    vertex 0.01317939970749091 0.04877508421663088 0.008330509342204797
    vertex 0.01409347247000881 0.05738302693004184 0.02
  endloop
endfacet
facet normal 0.994409 -0.105596 0
  outer loop
    vertex 0.01409347247000881 0.05738302693004184 0.009999999999999972
    vertex 0.01317939970749091 0.04877508421663088 0.008330509342204797
    vertex 0.01409347247000881 0.05738302693004184 0
  endloop
endfacet
facet normal 0.994409 -0.105596 0
  outer loop
    vertex 0.008 0 0.01000000000000003
    vertex 0.008914072762517903 0.008607942713410956 0.01166949065779521
    vertex 0.008 0 0.02
  endloop
endfacet
facet normal 0.994409 -0.105596 1.40961e-16
  outer loop
    vertex 0.01409347247000881 0.05738302693004184 0
    vertex 0.01317939970749091 0.04877508421663088 0.008330509342204797
    vertex 0.01287477797600705 0.04590642154403345 0
  endloop
endfacet
facet normal 0.994409 -0.105596 8.81009e-17
  outer loop
    vertex 0.008 0 0.02
    vertex 0.008914072762517903 0.008607942713410956 0.01166949065779521
    vertex 0.009218694494001763 0.01147660538600839 0.02
  endloop
endfacet
facet normal 0.994409 -0.105596 1.73649e-16
  outer loop
    vertex 0.01287477797600705 0.04590642154403345 0
    vertex 0.0122146431825335 0.03968984588577082 0.009720904201600275
    vertex 0.01165608348200528 0.03442981615802508 0
  endloop
endfacet
facet normal 0.994409 -0.105596 1.58522e-16
  outer loop
    vertex 0.009218694494001763 0.01147660538600839 0.02
    vertex 0.009878829366368981 0.017693181787223 0.01027740108753201
    vertex 0.01043738898800353 0.02295321077201676 0.02
  endloop
endfacet
facet normal 0.994409 -0.105596 1.78728e-16
  outer loop
    vertex 0.009878829366368981 0.017693181787223 0.01027740108753201
    vertex 0.01104673624815335 0.02869151358884625 0.009999717548188715
    vertex 0.01043738898800353 0.02295321077201676 0.02
  endloop
endfacet
facet normal 0.994409 -0.105596 1.02747e-16
  outer loop
    vertex 0.01043738898800353 0.02295321077201676 0.02
    vertex 0.01104673624815335 0.02869151358884625 0.009999717548188715
    vertex 0.01165608348200529 0.03442981615802513 0.02
  endloop
endfacet
facet normal 0.994409 -0.105596 7.77168e-17
  outer loop
    vertex 0.0122146431825335 0.03968984588577082 0.009720904201600275
    vertex 0.01104673624815335 0.02869151358884625 0.009999717548188715
    vertex 0.01165608348200528 0.03442981615802508 0
  endloop
endfacet
facet normal 0.994409 -0.105596 -7.92581e-17
  outer loop
    vertex 0.01165608348200529 0.03442981615802513 0.02
    vertex 0.01104673624815335 0.02869151358884625 0.009999717548188715
    vertex 0.0122146431825335 0.03968984588577082 0.009720904201600275
  endloop
endfacet
facet normal 0.994409 -0.105596 -2.20184e-17
  outer loop
    vertex 0.01165608348200528 0.03442981615802508 0
    vertex 0.01104673624815335 0.02869151358884625 0.009999717548188715
    vertex 0.01043738898800352 0.02295321077201671 0
  endloop
endfacet
facet normal 0.994409 -0.105596 -3.77462e-18
  outer loop
    vertex 0.01043738898800352 0.02295321077201671 0
    vertex 0.01104673624815335 0.02869151358884625 0.009999717548188715
    vertex 0.009878829366368981 0.017693181787223 0.01027740108753201
  endloop
endfacet
facet normal 0.994409 -0.105596 -2.14235e-17
  outer loop
    vertex 0.01043738898800352 0.02295321077201671 0
    vertex 0.009878829366368981 0.017693181787223 0.01027740108753201
    vertex 0.009218694494001759 0.01147660538600834 0
  endloop
endfacet
facet normal 0.994409 -0.105596 -2.07059e-16
  outer loop
    vertex 0.01165608348200529 0.03442981615802513 0.02
    vertex 0.0122146431825335 0.03968984588577082 0.009720904201600275
    vertex 0.01287477797600705 0.04590642154403349 0.02
  endloop
endfacet
facet normal 0.994409 -0.105596 -2.4767e-17
  outer loop
    vertex 0.009878829366368981 0.017693181787223 0.01027740108753201
    vertex 0.008914072762517903 0.008607942713410956 0.01166949065779521
    vertex 0.009218694494001759 0.01147660538600834 0
  endloop
endfacet
facet normal 0.994409 -0.105596 -1.81616e-16
  outer loop
    vertex 0.0122146431825335 0.03968984588577082 0.009720904201600275
    vertex 0.01317939970749091 0.04877508421663088 0.008330509342204797
    vertex 0.01287477797600705 0.04590642154403349 0.02
  endloop
endfacet
facet normal 0.994409 -0.105596 1.40069e-16
  outer loop
    vertex 0.009218694494001763 0.01147660538600839 0.02
    vertex 0.008914072762517903 0.008607942713410956 0.01166949065779521
    vertex 0.009878829366368981 0.017693181787223 0.01027740108753201
  endloop
endfacet
facet normal 0.994409 -0.105596 1.48007e-16
  outer loop
    vertex 0.01287477797600705 0.04590642154403345 0
    vertex 0.01317939970749091 0.04877508421663088 0.008330509342204797
    vertex 0.0122146431825335 0.03968984588577082 0.009720904201600275
  endloop
endfacet
facet normal 0.994409 -0.105596 0
  outer loop
    vertex 0.008 0 0
    vertex 0.008914072762517903 0.008607942713410956 0.01166949065779521
    vertex 0.008 0 0.01000000000000003
  endloop
endfacet
facet normal 0.994409 -0.105596 0
  outer loop
    vertex 0.01409347247000881 0.05738302693004184 0.02
    vertex 0.01317939970749091 0.04877508421663088 0.008330509342204797
    vertex 0.01409347247000881 0.05738302693004184 0.009999999999999972
  endloop
endfacet
endsolid Created by Gmsh
