solid Created by Gmsh
facet normal -0.310933 0.950432 9.58559e-17
  outer loop
    vertex 0.02153733420117446 0.03999024759180317 0.02
    vertex 0.03026866710058721 0.04284669384836053 0.02
    vertex 0.02869123569258277 0.04233063884366894 0.01230494324271211
  endloop
endfacet
facet normal -0.310933 0.950432 0
  outer loop
    vertex 0.02153733420117446 0.03999024759180317 0.01000000000000003
    vertex 0.02153733420117446 0.03999024759180317 0.02
    vertex 0.02869123569258277 0.04233063884366894 0.01230494324271211
  endloop
endfacet
facet normal -0.310933 0.950432 0
  outer loop
    vertex 0.039 0.04570314010491791 0.009999999999999972
    vertex 0.039 0.04570314010491791 0
    vertex 0.03256688770472919 0.04359855427071208 0.006778777764115687
  endloop
endfacet
facet normal -0.310933 0.950432 -2.17625e-16
  outer loop
    vertex 0.039 0.04570314010491791 0
    vertex 0.03026866710058725 0.04284669384836055 0
    vertex 0.03256688770472919 0.04359855427071208 0.006778777764115687
  endloop
endfacet
facet normal -0.310933 0.950432 0
  outer loop
    vertex 0.039 0.04570314010491791 0.02
    vertex 0.039 0.04570314010491791 0.009999999999999972
    vertex 0.03463433355029361 0.04427491697663922 0.01499999999999999
  endloop
endfacet
facet normal -0.310933 0.950432 0
  outer loop
    vertex 0.02153733420117446 0.03999024759180317 0
    vertex 0.02153733420117446 0.03999024759180317 0.01000000000000003
    vertex 0.02686190464773271 0.04173217514113189 0.005770813577596182
  endloop
endfacet
facet normal -0.310933 0.950432 -7.74498e-16
  outer loop
    vertex 0.03026866710058721 0.04284669384836053 0.02
    vertex 0.039 0.04570314010491791 0.02
    vertex 0.03463433355029361 0.04427491697663922 0.01499999999999999
  endloop
endfacet
facet normal -0.310933 0.950432 3.51501e-16
  outer loop
    vertex 0.03026866710058725 0.04284669384836055 0
    vertex 0.02153733420117446 0.03999024759180317 0
    vertex 0.02686190464773271 0.04173217514113189 0.005770813577596182
  endloop
endfacet
facet normal -0.310933 0.950432 5.92096e-16
  outer loop
    vertex 0.039 0.04570314010491791 0.009999999999999972
    vertex 0.03256688770472919 0.04359855427071208 0.006778777764115687
    vertex 0.03463433355029361 0.04427491697663922 0.01499999999999999
  endloop
endfacet
facet normal -0.310933 0.950432 4.37044e-16
  outer loop
    vertex 0.03256688770472919 0.04359855427071208 0.006778777764115687
    vertex 0.02869123569258277 0.04233063884366894 0.01230494324271211
    vertex 0.03463433355029361 0.04427491697663922 0.01499999999999999
  endloop
endfacet
facet normal -0.310933 0.950432 -5.0164e-16
  outer loop
    vertex 0.02686190464773271 0.04173217514113189 0.005770813577596182
    vertex 0.02153733420117446 0.03999024759180317 0.01000000000000003
    vertex 0.02869123569258277 0.04233063884366894 0.01230494324271211
  endloop
endfacet
facet normal -0.310933 0.950432 -9.70376e-17
  outer loop
    vertex 0.02869123569258277 0.04233063884366894 0.01230494324271211
    vertex 0.03026866710058721 0.04284669384836053 0.02
    vertex 0.03463433355029361 0.04427491697663922 0.01499999999999999
  endloop
endfacet
facet normal -0.310933 0.950432 -3.52162e-16
  outer loop
    vertex 0.02686190464773271 0.04173217514113189 0.005770813577596182
    vertex 0.02869123569258277 0.04233063884366894 0.01230494324271211
    vertex 0.03256688770472919 0.04359855427071208 0.006778777764115687
  endloop
endfacet
facet normal -0.310933 0.950432 -4.42865e-17
  outer loop
    vertex 0.03026866710058725 0.04284669384836055 0
    vertex 0.02686190464773271 0.04173217514113189 0.005770813577596182
    vertex 0.03256688770472919 0.04359855427071208 0.006778777764115687
  endloop
endfacet
facet normal -0.367386 -0.930069 -8.83652e-17
  outer loop
    vertex 0.02876866710058724 0.0371338013352458 0
    vertex 0.03599999999999999 0.03427735507868843 0
    vertex 0.02873491416569812 0.03714713407014446 0.007994356741015871
  endloop
endfacet
facet normal -0.367386 -0.930069 -1.09019e-16
  outer loop
    vertex 0.02153733420117446 0.03999024759180317 0
    vertex 0.02876866710058724 0.0371338013352458 0
    vertex 0.02873491416569812 0.03714713407014446 0.007994356741015871
  endloop
endfacet
facet normal -0.367386 -0.930069 0
  outer loop
    vertex 0.03599999999999999 0.03427735507868843 0
    vertex 0.03599999999999999 0.03427735507868843 0.01000000000000003
    vertex 0.02873491416569812 0.03714713407014446 0.007994356741015871
  endloop
endfacet
facet normal -0.367386 -0.930069 -0
  outer loop
    vertex 0.02153733420117446 0.03999024759180317 0.009999999999999972
    vertex 0.02153733420117446 0.03999024759180317 0
    vertex 0.02873491416569812 0.03714713407014446 0.007994356741015871
  endloop
endfacet
facet normal -0.367386 -0.930069 -0
  outer loop
    vertex 0.02153733420117446 0.03999024759180317 0.02
    vertex 0.02153733420117446 0.03999024759180317 0.009999999999999972
    vertex 0.02634771953908928 0.03809009897712647 0.01439674141372798
  endloop
endfacet
facet normal -0.367386 -0.930069 0
  outer loop
    vertex 0.03599999999999999 0.03427735507868843 0.01000000000000003
    vertex 0.03599999999999999 0.03427735507868843 0.02
    vertex 0.03117026016107492 0.03618514890797872 0.01447821963094878
  endloop
endfacet
facet normal -0.367386 -0.930069 -5.12969e-16
  outer loop
    vertex 0.03599999999999999 0.03427735507868843 0.02
    vertex 0.02876866710058721 0.0371338013352458 0.02
    vertex 0.03117026016107492 0.03618514890797872 0.01447821963094878
  endloop
endfacet
facet normal -0.367386 -0.930069 -1.26377e-15
  outer loop
    vertex 0.02876866710058721 0.0371338013352458 0.02
    vertex 0.02153733420117446 0.03999024759180317 0.02
    vertex 0.02634771953908928 0.03809009897712647 0.01439674141372798
  endloop
endfacet
facet normal -0.367386 -0.930069 8.77583e-16
  outer loop
    vertex 0.02634771953908928 0.03809009897712647 0.01439674141372798
    vertex 0.02153733420117446 0.03999024759180317 0.009999999999999972
    vertex 0.02873491416569812 0.03714713407014446 0.007994356741015871
  endloop
endfacet
facet normal -0.367386 -0.930069 4.31042e-16
  outer loop
    vertex 0.02634771953908928 0.03809009897712647 0.01439674141372798
    vertex 0.02873491416569812 0.03714713407014446 0.007994356741015871
    vertex 0.03117026016107492 0.03618514890797872 0.01447821963094878
  endloop
endfacet
facet normal -0.367386 -0.930069 1.30611e-16
  outer loop
    vertex 0.02873491416569812 0.03714713407014446 0.007994356741015871
    vertex 0.03599999999999999 0.03427735507868843 0.01000000000000003
    vertex 0.03117026016107492 0.03618514890797872 0.01447821963094878
  endloop
endfacet
facet normal -0.367386 -0.930069 -1.02789e-15
  outer loop
    vertex 0.02876866710058721 0.0371338013352458 0.02
    vertex 0.02634771953908928 0.03809009897712647 0.01439674141372798
    vertex 0.03117026016107492 0.03618514890797872 0.01447821963094878
  endloop
endfacet
facet normal -1 1.34848e-29 1.38778e-15
  outer loop
    vertex 0.03599999999999999 0.02856446256557369 0.01000000000000003
    vertex 0.03599999999999999 0.03427735507868843 0.009999999999999972
    vertex 0.03599999999999998 0.03142090882213106 0.005000000000000001
  endloop
endfacet
facet normal -1 0 1.38778e-15
  outer loop
    vertex 0.03599999999999999 0.02856446256557369 0.02
    vertex 0.03599999999999999 0.03427735507868843 0.02
    vertex 0.03599999999999998 0.03142090882213106 0.015
  endloop
endfacet
facet normal -1 -1.34848e-29 -1.38778e-15
  outer loop
    vertex 0.03599999999999999 0.03427735507868843 0.009999999999999972
    vertex 0.03599999999999999 0.02856446256557369 0.01000000000000003
    vertex 0.03599999999999998 0.03142090882213106 0.015
  endloop
endfacet
facet normal -1 -0 -1.38778e-15
  outer loop
    vertex 0.03599999999999999 0.03427735507868843 0
    vertex 0.03599999999999999 0.02856446256557369 0
    vertex 0.03599999999999998 0.03142090882213106 0.005000000000000001
  endloop
endfacet
facet normal -1 2.42921e-15 0
  outer loop
    vertex 0.03599999999999999 0.03427735507868843 0.009999999999999972
    vertex 0.03599999999999999 0.03427735507868843 0
    vertex 0.03599999999999998 0.03142090882213106 0.005000000000000001
  endloop
endfacet
facet normal -1 2.42921e-15 0
  outer loop
    vertex 0.03599999999999999 0.03427735507868843 0.02
    vertex 0.03599999999999999 0.03427735507868843 0.009999999999999972
    vertex 0.03599999999999998 0.03142090882213106 0.015
  endloop
endfacet
facet normal -1 -2.42921e-15 0
  outer loop
    vertex 0.03599999999999999 0.02856446256557369 0
    vertex 0.03599999999999999 0.02856446256557369 0.01000000000000003
    vertex 0.03599999999999998 0.03142090882213106 0.005000000000000001
  endloop
endfacet
facet normal -1 -2.42921e-15 0
  outer loop
    vertex 0.03599999999999999 0.02856446256557369 0.01000000000000003
    vertex 0.03599999999999999 0.02856446256557369 0.02
    vertex 0.03599999999999998 0.03142090882213106 0.015
  endloop
endfacet
facet normal -0.207006 0.97834 -4.623e-17
  outer loop
    vertex 0.01799999999999999 0.02475586755683053 0.02
    vertex 0.02699999999999999 0.02666016506120211 0.02
    vertex 0.02249999999999999 0.02570801630901632 0.01203320881792005
  endloop
endfacet
facet normal -0.207006 0.97834 0
  outer loop
    vertex 0.03599999999999999 0.02856446256557369 0.02
    vertex 0.03599999999999999 0.02856446256557369 0.009999999999999972
    vertex 0.02956145984532417 0.02720214079353532 0.01317720471498517
  endloop
endfacet
facet normal -0.207006 0.97834 0
  outer loop
    vertex 0.009000000000000001 0.02285157005245896 0.01000000000000003
    vertex 0.009000000000000001 0.02285157005245896 0.02
    vertex 0.01543854015467582 0.02421389182449733 0.01317720471498519
  endloop
endfacet
facet normal -0.207006 0.97834 9.44677e-17
  outer loop
    vertex 0.02699999999999999 0.02666016506120211 0.02
    vertex 0.03599999999999999 0.02856446256557369 0.02
    vertex 0.02956145984532417 0.02720214079353532 0.01317720471498517
  endloop
endfacet
facet normal -0.207006 0.97834 -2.15926e-16
  outer loop
    vertex 0.009000000000000001 0.02285157005245896 0.02
    vertex 0.01799999999999999 0.02475586755683053 0.02
    vertex 0.01543854015467582 0.02421389182449733 0.01317720471498519
  endloop
endfacet
facet normal -0.207006 0.97834 -1.00452e-16
  outer loop
    vertex 0.02249999999999999 0.02570801630901632 0.01203320881792005
    vertex 0.02249999999999999 0.02570801630901632 0.00488357410185955
    vertex 0.01524364267729258 0.02417265373785408 0.006370902429789414
  endloop
endfacet
facet normal -0.207006 0.97834 -1.00452e-16
  outer loop
    vertex 0.02249999999999999 0.02570801630901632 0.00488357410185955
    vertex 0.02249999999999999 0.02570801630901632 0.01203320881792005
    vertex 0.0297563573227074 0.02724337888017856 0.00637090242978941
  endloop
endfacet
facet normal -0.207006 0.97834 0
  outer loop
    vertex 0.009000000000000001 0.02285157005245896 0
    vertex 0.009000000000000001 0.02285157005245896 0.01000000000000003
    vertex 0.01524364267729258 0.02417265373785408 0.006370902429789414
  endloop
endfacet
facet normal -0.207006 0.97834 0
  outer loop
    vertex 0.03599999999999999 0.02856446256557369 0.009999999999999972
    vertex 0.03599999999999999 0.02856446256557369 0
    vertex 0.0297563573227074 0.02724337888017856 0.00637090242978941
  endloop
endfacet
facet normal -0.207006 0.97834 -3.21792e-18
  outer loop
    vertex 0.01543854015467582 0.02421389182449733 0.01317720471498519
    vertex 0.02249999999999999 0.02570801630901632 0.01203320881792005
    vertex 0.01524364267729258 0.02417265373785408 0.006370902429789414
  endloop
endfacet
facet normal -0.207006 0.97834 -3.43245e-17
  outer loop
    vertex 0.02249999999999999 0.02570801630901632 0.01203320881792005
    vertex 0.02956145984532417 0.02720214079353532 0.01317720471498517
    vertex 0.0297563573227074 0.02724337888017856 0.00637090242978941
  endloop
endfacet
facet normal -0.207006 0.97834 2.31242e-16
  outer loop
    vertex 0.01800000000000001 0.02475586755683054 0
    vertex 0.009000000000000001 0.02285157005245896 0
    vertex 0.01524364267729258 0.02417265373785408 0.006370902429789414
  endloop
endfacet
facet normal -0.207006 0.97834 -8.67157e-17
  outer loop
    vertex 0.03599999999999999 0.02856446256557369 0
    vertex 0.027 0.02666016506120212 0
    vertex 0.0297563573227074 0.02724337888017856 0.00637090242978941
  endloop
endfacet
facet normal -0.207006 0.97834 9.72842e-17
  outer loop
    vertex 0.02249999999999999 0.02570801630901632 0.01203320881792005
    vertex 0.02699999999999999 0.02666016506120211 0.02
    vertex 0.02956145984532417 0.02720214079353532 0.01317720471498517
  endloop
endfacet
facet normal -0.207006 0.97834 -2.10782e-16
  outer loop
    vertex 0.01799999999999999 0.02475586755683053 0.02
    vertex 0.02249999999999999 0.02570801630901632 0.01203320881792005
    vertex 0.01543854015467582 0.02421389182449733 0.01317720471498519
  endloop
endfacet
facet normal -0.207006 0.97834 1.88543e-16
  outer loop
    vertex 0.027 0.02666016506120212 0
    vertex 0.01800000000000001 0.02475586755683054 0
    vertex 0.02249999999999999 0.02570801630901632 0.00488357410185955
  endloop
endfacet
facet normal -0.207006 0.97834 2.75377e-16
  outer loop
    vertex 0.02249999999999999 0.02570801630901632 0.00488357410185955
    vertex 0.01800000000000001 0.02475586755683054 0
    vertex 0.01524364267729258 0.02417265373785408 0.006370902429789414
  endloop
endfacet
facet normal -0.207006 0.97834 -8.8514e-17
  outer loop
    vertex 0.027 0.02666016506120212 0
    vertex 0.02249999999999999 0.02570801630901632 0.00488357410185955
    vertex 0.0297563573227074 0.02724337888017856 0.00637090242978941
  endloop
endfacet
facet normal -0.207006 0.97834 -3.83621e-17
  outer loop
    vertex 0.009000000000000001 0.02285157005245896 0.01000000000000003
    vertex 0.01543854015467582 0.02421389182449733 0.01317720471498519
    vertex 0.01524364267729258 0.02417265373785408 0.006370902429789414
  endloop
endfacet
facet normal -0.207006 0.97834 -1.67834e-17
  outer loop
    vertex 0.02956145984532417 0.02720214079353532 0.01317720471498517
    vertex 0.03599999999999999 0.02856446256557369 0.009999999999999972
    vertex 0.0297563573227074 0.02724337888017856 0.00637090242978941
  endloop
endfacet
facet normal -0.207006 -0.97834 4.623e-16
  outer loop
    vertex 0.027 0.0190429750437158 0.02
    vertex 0.01800000000000001 0.02094727254808737 0.02
    vertex 0.0225 0.01999512379590158 0.01203320881792005
  endloop
endfacet
facet normal -0.207006 -0.97834 -0
  outer loop
    vertex 0.009000000000000001 0.02285157005245896 0.02
    vertex 0.009000000000000001 0.02285157005245896 0.009999999999999972
    vertex 0.01543854015467582 0.02148924828042058 0.01317720471498517
  endloop
endfacet
facet normal -0.207006 -0.97834 0
  outer loop
    vertex 0.03599999999999999 0.01713867753934422 0.01000000000000003
    vertex 0.03599999999999999 0.01713867753934422 0.02
    vertex 0.02956145984532417 0.01850099931138259 0.01317720471498519
  endloop
endfacet
facet normal -0.207006 -0.97834 4.04861e-16
  outer loop
    vertex 0.01800000000000001 0.02094727254808737 0.02
    vertex 0.009000000000000001 0.02285157005245896 0.02
    vertex 0.01543854015467582 0.02148924828042058 0.01317720471498517
  endloop
endfacet
facet normal -0.207006 -0.97834 2.15926e-16
  outer loop
    vertex 0.03599999999999999 0.01713867753934422 0.02
    vertex 0.027 0.0190429750437158 0.02
    vertex 0.02956145984532417 0.01850099931138259 0.01317720471498519
  endloop
endfacet
facet normal -0.207006 -0.97834 -3.74299e-16
  outer loop
    vertex 0.0225 0.01999512379590158 0.01203320881792005
    vertex 0.0225 0.01999512379590158 0.00488357410185955
    vertex 0.02975635732270741 0.01845976122473934 0.006370902429789414
  endloop
endfacet
facet normal -0.207006 -0.97834 -3.74299e-16
  outer loop
    vertex 0.0225 0.01999512379590158 0.00488357410185955
    vertex 0.0225 0.01999512379590158 0.01203320881792005
    vertex 0.01524364267729259 0.02153048636706382 0.00637090242978941
  endloop
endfacet
facet normal -0.207006 -0.97834 0
  outer loop
    vertex 0.03599999999999999 0.01713867753934422 0
    vertex 0.03599999999999999 0.01713867753934422 0.01000000000000003
    vertex 0.02975635732270741 0.01845976122473934 0.006370902429789414
  endloop
endfacet
facet normal -0.207006 -0.97834 -0
  outer loop
    vertex 0.009000000000000001 0.02285157005245896 0.009999999999999972
    vertex 0.009000000000000001 0.02285157005245896 0
    vertex 0.01524364267729259 0.02153048636706382 0.00637090242978941
  endloop
endfacet
facet normal -0.207006 -0.97834 3.43245e-17
  outer loop
    vertex 0.0225 0.01999512379590158 0.01203320881792005
    vertex 0.01543854015467582 0.02148924828042058 0.01317720471498517
    vertex 0.01524364267729259 0.02153048636706382 0.00637090242978941
  endloop
endfacet
facet normal -0.207006 -0.97834 -3.53971e-17
  outer loop
    vertex 0.02956145984532417 0.01850099931138259 0.01317720471498519
    vertex 0.0225 0.01999512379590158 0.01203320881792005
    vertex 0.02975635732270741 0.01845976122473934 0.006370902429789414
  endloop
endfacet
facet normal -0.207006 -0.97834 -4.33579e-16
  outer loop
    vertex 0.009000000000000001 0.02285157005245896 0
    vertex 0.01799999999999999 0.02094727254808738 0
    vertex 0.01524364267729259 0.02153048636706382 0.00637090242978941
  endloop
endfacet
facet normal -0.207006 -0.97834 -1.73431e-16
  outer loop
    vertex 0.02699999999999999 0.0190429750437158 0
    vertex 0.03599999999999999 0.01713867753934422 0
    vertex 0.02975635732270741 0.01845976122473934 0.006370902429789414
  endloop
endfacet
facet normal -0.207006 -0.97834 3.72923e-16
  outer loop
    vertex 0.0225 0.01999512379590158 0.01203320881792005
    vertex 0.01800000000000001 0.02094727254808737 0.02
    vertex 0.01543854015467582 0.02148924828042058 0.01317720471498517
  endloop
endfacet
facet normal -0.207006 -0.97834 3.8103e-16
  outer loop
    vertex 0.027 0.0190429750437158 0.02
    vertex 0.0225 0.01999512379590158 0.01203320881792005
    vertex 0.02956145984532417 0.01850099931138259 0.01317720471498519
  endloop
endfacet
facet normal -0.207006 -0.97834 -1.88543e-16
  outer loop
    vertex 0.01799999999999999 0.02094727254808738 0
    vertex 0.02699999999999999 0.0190429750437158 0
    vertex 0.0225 0.01999512379590158 0.00488357410185955
  endloop
endfacet
facet normal -0.207006 -0.97834 -2.36037e-16
  outer loop
    vertex 0.0225 0.01999512379590158 0.00488357410185955
    vertex 0.02699999999999999 0.0190429750437158 0
    vertex 0.02975635732270741 0.01845976122473934 0.006370902429789414
  endloop
endfacet
facet normal -0.207006 -0.97834 -2.75377e-16
  outer loop
    vertex 0.01799999999999999 0.02094727254808738 0
    vertex 0.0225 0.01999512379590158 0.00488357410185955
    vertex 0.01524364267729259 0.02153048636706382 0.00637090242978941
  endloop
endfacet
facet normal -0.207006 -0.97834 -3.83621e-17
  outer loop
    vertex 0.03599999999999999 0.01713867753934422 0.01000000000000003
    vertex 0.02956145984532417 0.01850099931138259 0.01317720471498519
    vertex 0.02975635732270741 0.01845976122473934 0.006370902429789414
  endloop
endfacet
facet normal -0.207006 -0.97834 3.2368e-17
  outer loop
    vertex 0.01543854015467582 0.02148924828042058 0.01317720471498517
    vertex 0.009000000000000001 0.02285157005245896 0.009999999999999972
    vertex 0.01524364267729259 0.02153048636706382 0.00637090242978941
  endloop
endfacet
facet normal -0.422525 0.906351 0
  outer loop
    vertex 0.03599999999999999 0.01713867753934422 0.02
    vertex 0.03599999999999999 0.01713867753934422 0.009999999999999972
    vertex 0.03171088478590767 0.01513916515975406 0.015
  endloop
endfacet
facet normal -0.422525 0.906351 0
  outer loop
    vertex 0.02374538510259337 0.01142578502622948 0
    vertex 0.02374538510259337 0.01142578502622948 0.01000000000000003
    vertex 0.02803450031668569 0.01342529740581964 0.004999999999999999
  endloop
endfacet
facet normal -0.422525 0.906351 0
  outer loop
    vertex 0.03599999999999999 0.01713867753934422 0.009999999999999972
    vertex 0.03599999999999999 0.01713867753934422 0
    vertex 0.03195597708385581 0.01525342301001636 0.004999999999999991
  endloop
endfacet
facet normal -0.422525 0.906351 0
  outer loop
    vertex 0.02374538510259337 0.01142578502622948 0.01000000000000003
    vertex 0.02374538510259337 0.01142578502622948 0.02
    vertex 0.02778940801873756 0.01331103955555735 0.015
  endloop
endfacet
facet normal -0.422525 0.906351 7.267e-16
  outer loop
    vertex 0.02987269255129668 0.01428223128278685 0.02
    vertex 0.03599999999999999 0.01713867753934422 0.02
    vertex 0.03171088478590767 0.01513916515975406 0.015
  endloop
endfacet
facet normal -0.422525 0.906351 -4.76114e-16
  outer loop
    vertex 0.02987269255129668 0.01428223128278685 0
    vertex 0.02374538510259337 0.01142578502622948 0
    vertex 0.02803450031668569 0.01342529740581964 0.004999999999999999
  endloop
endfacet
facet normal -0.422525 0.906351 6.51524e-16
  outer loop
    vertex 0.02374538510259337 0.01142578502622948 0.02
    vertex 0.02987269255129668 0.01428223128278685 0.02
    vertex 0.02778940801873756 0.01331103955555735 0.015
  endloop
endfacet
facet normal -0.422525 0.906351 -8.01876e-16
  outer loop
    vertex 0.03599999999999999 0.01713867753934422 0
    vertex 0.02987269255129668 0.01428223128278685 0
    vertex 0.03195597708385581 0.01525342301001636 0.004999999999999991
  endloop
endfacet
facet normal -0.422525 0.906351 -6.75408e-16
  outer loop
    vertex 0.02987269255129668 0.01428223128278685 0
    vertex 0.02803450031668569 0.01342529740581964 0.004999999999999999
    vertex 0.03195597708385581 0.01525342301001636 0.004999999999999991
  endloop
endfacet
facet normal -0.422525 0.906351 7.53716e-16
  outer loop
    vertex 0.02987269255129668 0.01428223128278685 0.02
    vertex 0.03171088478590767 0.01513916515975406 0.015
    vertex 0.02778940801873756 0.01331103955555735 0.015
  endloop
endfacet
facet normal -0.422525 0.906351 -1.17462e-16
  outer loop
    vertex 0.02778940801873756 0.01331103955555735 0.015
    vertex 0.03171088478590767 0.01513916515975406 0.015
    vertex 0.02987269255129668 0.01428223128278685 0.009999999999999998
  endloop
endfacet
facet normal -0.422525 0.906351 5.87311e-17
  outer loop
    vertex 0.03195597708385581 0.01525342301001636 0.004999999999999991
    vertex 0.02803450031668569 0.01342529740581964 0.004999999999999999
    vertex 0.02987269255129668 0.01428223128278685 0.009999999999999998
  endloop
endfacet
facet normal -0.422525 0.906351 -2.50586e-16
  outer loop
    vertex 0.02374538510259337 0.01142578502622948 0.01000000000000003
    vertex 0.02778940801873756 0.01331103955555735 0.015
    vertex 0.02987269255129668 0.01428223128278685 0.009999999999999998
  endloop
endfacet
facet normal -0.422525 0.906351 2.50586e-17
  outer loop
    vertex 0.02803450031668569 0.01342529740581964 0.004999999999999999
    vertex 0.02374538510259337 0.01142578502622948 0.01000000000000003
    vertex 0.02987269255129668 0.01428223128278685 0.009999999999999998
  endloop
endfacet
facet normal -0.422525 0.906351 -2.75645e-16
  outer loop
    vertex 0.03171088478590767 0.01513916515975406 0.015
    vertex 0.03599999999999999 0.01713867753934422 0.009999999999999972
    vertex 0.02987269255129668 0.01428223128278685 0.009999999999999998
  endloop
endfacet
facet normal -0.422525 0.906351 4.00938e-16
  outer loop
    vertex 0.03599999999999999 0.01713867753934422 0.009999999999999972
    vertex 0.03195597708385581 0.01525342301001636 0.004999999999999991
    vertex 0.02987269255129668 0.01428223128278685 0.009999999999999998
  endloop
endfacet
facet normal -0.361269 0.932462 -8.40245e-17
  outer loop
    vertex 0.01637269255129668 0.008569338769672107 0
    vertex 0.009000000000000001 0.005712892513114742 0
    vertex 0.01655813357938911 0.008641185293424629 0.007968551491593168
  endloop
endfacet
facet normal -0.361269 0.932462 -5.37757e-17
  outer loop
    vertex 0.02374538510259337 0.01142578502622948 0
    vertex 0.01637269255129668 0.008569338769672107 0
    vertex 0.01655813357938911 0.008641185293424629 0.007968551491593168
  endloop
endfacet
facet normal -0.361269 0.932462 0
  outer loop
    vertex 0.009000000000000001 0.005712892513114742 0
    vertex 0.009000000000000001 0.005712892513114742 0.01000000000000003
    vertex 0.01655813357938911 0.008641185293424629 0.007968551491593168
  endloop
endfacet
facet normal -0.361269 0.932462 0
  outer loop
    vertex 0.02374538510259337 0.01142578502622948 0.009999999999999972
    vertex 0.02374538510259337 0.01142578502622948 0
    vertex 0.01655813357938911 0.008641185293424629 0.007968551491593168
  endloop
endfacet
facet normal -0.361269 0.932462 0
  outer loop
    vertex 0.02374538510259337 0.01142578502622948 0.02
    vertex 0.02374538510259337 0.01142578502622948 0.009999999999999972
    vertex 0.01888802099775775 0.009543867474743679 0.01438189037692697
  endloop
endfacet
facet normal -0.361269 0.932462 0
  outer loop
    vertex 0.009000000000000001 0.005712892513114742 0.01000000000000003
    vertex 0.009000000000000001 0.005712892513114742 0.02
    vertex 0.01396376942568871 0.007636035312813982 0.01447008837370403
  endloop
endfacet
facet normal -0.361269 0.932462 3.87451e-17
  outer loop
    vertex 0.009000000000000001 0.005712892513114742 0.02
    vertex 0.01637269255129669 0.008569338769672113 0.02
    vertex 0.01396376942568871 0.007636035312813982 0.01447008837370403
  endloop
endfacet
facet normal -0.361269 0.932462 7.62737e-17
  outer loop
    vertex 0.01637269255129669 0.008569338769672113 0.02
    vertex 0.02374538510259337 0.01142578502622948 0.02
    vertex 0.01888802099775775 0.009543867474743679 0.01438189037692697
  endloop
endfacet
facet normal -0.361269 0.932462 -1.90958e-17
  outer loop
    vertex 0.01888802099775775 0.009543867474743679 0.01438189037692697
    vertex 0.02374538510259337 0.01142578502622948 0.009999999999999972
    vertex 0.01655813357938911 0.008641185293424629 0.007968551491593168
  endloop
endfacet
facet normal -0.361269 0.932462 2.48479e-17
  outer loop
    vertex 0.01888802099775775 0.009543867474743679 0.01438189037692697
    vertex 0.01655813357938911 0.008641185293424629 0.007968551491593168
    vertex 0.01396376942568871 0.007636035312813982 0.01447008837370403
  endloop
endfacet
facet normal -0.361269 0.932462 3.60082e-17
  outer loop
    vertex 0.01655813357938911 0.008641185293424629 0.007968551491593168
    vertex 0.009000000000000001 0.005712892513114742 0.01000000000000003
    vertex 0.01396376942568871 0.007636035312813982 0.01447008837370403
  endloop
endfacet
facet normal -0.361269 0.932462 4.31707e-17
  outer loop
    vertex 0.01637269255129669 0.008569338769672113 0.02
    vertex 0.01888802099775775 0.009543867474743679 0.01438189037692697
    vertex 0.01396376942568871 0.007636035312813982 0.01447008837370403
  endloop
endfacet
endsolid Created by Gmsh
