solid Created by Gmsh
facet normal -0.766698 -0.642008 -0
  outer loop
    vertex 0.03000738191577285 0.05870449469646651 0.02
    vertex 0.03000738191577285 0.05870449469646651 0.009999999999999972
    vertex 0.03307971144353446 0.05503546377793735 0.015
  endloop
endfacet
facet normal -0.766698 -0.642008 0
  outer loop
    vertex 0.03615204097129607 0.05136643285940819 0
    vertex 0.03615204097129607 0.05136643285940819 0.01000000000000003
    vertex 0.03307971144353446 0.05503546377793735 0.005
  endloop
endfacet
facet normal -0.766698 -0.642008 -0
  outer loop
    vertex 0.03000738191577285 0.05870449469646651 0.009999999999999972
    vertex 0.03000738191577285 0.05870449469646651 0
    vertex 0.03307971144353446 0.05503546377793735 0.005
  endloop
endfacet
facet normal -0.766698 -0.642008 0
  outer loop
    vertex 0.03615204097129607 0.05136643285940819 0.01000000000000003
    vertex 0.03615204097129607 0.05136643285940819 0.02
    vertex 0.03307971144353446 0.05503546377793735 0.015
  endloop
endfacet
facet normal -0.766698 -0.642008 -4.248e-16
  outer loop
    vertex 0.03000738191577285 0.05870449469646651 0
    vertex 0.03615204097129607 0.05136643285940819 0
    vertex 0.03307971144353446 0.05503546377793735 0.005
  endloop
endfacet
facet normal -0.766698 -0.642008 4.248e-16
  outer loop
    vertex 0.03615204097129607 0.05136643285940819 0.02
    vertex 0.03000738191577285 0.05870449469646651 0.02
    vertex 0.03307971144353446 0.05503546377793735 0.015
  endloop
endfacet
facet normal -0.766698 -0.642008 4.248e-16
  outer loop
    vertex 0.03615204097129607 0.05136643285940819 0.01000000000000003
    vertex 0.03000738191577285 0.05870449469646651 0.009999999999999972
    vertex 0.03307971144353446 0.05503546377793735 0.005
  endloop
endfacet
facet normal -0.766698 -0.642008 -4.248e-16
  outer loop
    vertex 0.03000738191577285 0.05870449469646651 0.009999999999999972
    vertex 0.03615204097129607 0.05136643285940819 0.01000000000000003
    vertex 0.03307971144353446 0.05503546377793735 0.015
  endloop
endfacet
facet normal -0.796951 -0.604044 -0
  outer loop
    vertex 0.03615204097129607 0.05136643285940819 0.02
    vertex 0.03615204097129607 0.05136643285940819 0.009999999999999972
    vertex 0.03893296098333914 0.04769740194087904 0.015
  endloop
endfacet
facet normal -0.796951 -0.604044 0
  outer loop
    vertex 0.04171388099538221 0.04402837102234988 0
    vertex 0.04171388099538221 0.04402837102234988 0.01000000000000003
    vertex 0.03893296098333914 0.04769740194087904 0.005
  endloop
endfacet
facet normal -0.796951 -0.604044 -0
  outer loop
    vertex 0.03615204097129607 0.05136643285940819 0.009999999999999972
    vertex 0.03615204097129607 0.05136643285940819 0
    vertex 0.03893296098333914 0.04769740194087904 0.005
  endloop
endfacet
facet normal -0.796951 -0.604044 0
  outer loop
    vertex 0.04171388099538221 0.04402837102234988 0.01000000000000003
    vertex 0.04171388099538221 0.04402837102234988 0.02
    vertex 0.03893296098333914 0.04769740194087904 0.015
  endloop
endfacet
facet normal -0.796951 -0.604044 9.56718e-16
  outer loop
    vertex 0.03615204097129607 0.05136643285940819 0
    vertex 0.04171388099538221 0.04402837102234988 0
    vertex 0.03893296098333914 0.04769740194087904 0.005
  endloop
endfacet
facet normal -0.796951 -0.604044 -9.56718e-16
  outer loop
    vertex 0.04171388099538221 0.04402837102234988 0.02
    vertex 0.03615204097129607 0.05136643285940819 0.02
    vertex 0.03893296098333914 0.04769740194087904 0.015
  endloop
endfacet
facet normal -0.796951 -0.604044 -9.56718e-16
  outer loop
    vertex 0.04171388099538221 0.04402837102234988 0.01000000000000003
    vertex 0.03615204097129607 0.05136643285940819 0.009999999999999972
    vertex 0.03893296098333914 0.04769740194087904 0.005
  endloop
endfacet
facet normal -0.796951 -0.604044 9.56718e-16
  outer loop
    vertex 0.03615204097129607 0.05136643285940819 0.009999999999999972
    vertex 0.04171388099538221 0.04402837102234988 0.01000000000000003
    vertex 0.03893296098333914 0.04769740194087904 0.015
  endloop
endfacet
facet normal -0.907154 0.420798 0
  outer loop
    vertex 0.04171388099538221 0.04402837102234988 0.02
    vertex 0.04171388099538221 0.04402837102234988 0.009999999999999972
    vertex 0.04001194166527392 0.04035934010382072 0.015
  endloop
endfacet
facet normal -0.907154 0.420798 0
  outer loop
    vertex 0.03831000233516565 0.03669030918529156 0
    vertex 0.03831000233516565 0.03669030918529156 0.01000000000000003
    vertex 0.04001194166527392 0.04035934010382072 0.004999999999999999
  endloop
endfacet
facet normal -0.907154 0.420798 0
  outer loop
    vertex 0.04171388099538221 0.04402837102234988 0.009999999999999972
    vertex 0.04171388099538221 0.04402837102234988 0
    vertex 0.04001194166527392 0.04035934010382072 0.004999999999999999
  endloop
endfacet
facet normal -0.907154 0.420798 0
  outer loop
    vertex 0.03831000233516565 0.03669030918529156 0.01000000000000003
    vertex 0.03831000233516565 0.03669030918529156 0.02
    vertex 0.04001194166527392 0.04035934010382072 0.015
  endloop
endfacet
facet normal -0.907154 0.420798 -1.25655e-15
  outer loop
    vertex 0.04171388099538221 0.04402837102234988 0
    vertex 0.03831000233516565 0.03669030918529156 0
    vertex 0.04001194166527392 0.04035934010382072 0.004999999999999999
  endloop
endfacet
facet normal -0.907154 0.420798 1.25655e-15
  outer loop
    vertex 0.03831000233516565 0.03669030918529156 0.02
    vertex 0.04171388099538221 0.04402837102234988 0.02
    vertex 0.04001194166527392 0.04035934010382072 0.015
  endloop
endfacet
facet normal -0.907154 0.420798 -1.25655e-15
  outer loop
    vertex 0.04171388099538221 0.04402837102234988 0.009999999999999972
    vertex 0.03831000233516565 0.03669030918529156 0.01000000000000003
    vertex 0.04001194166527392 0.04035934010382072 0.015
  endloop
endfacet
facet normal -0.907154 0.420798 1.25655e-15
  outer loop
    vertex 0.03831000233516565 0.03669030918529156 0.01000000000000003
    vertex 0.04171388099538221 0.04402837102234988 0.009999999999999972
    vertex 0.04001194166527392 0.04035934010382072 0.004999999999999999
  endloop
endfacet
facet normal -0.935516 -0.353283 0
  outer loop
    vertex 0.04108110910854493 0.02935224734823325 0
    vertex 0.04108110910854493 0.02935224734823325 0.01000000000000003
    vertex 0.03969555572185528 0.0330212782667624 0.005000000000000001
  endloop
endfacet
facet normal -0.935516 -0.353283 -0
  outer loop
    vertex 0.03831000233516565 0.03669030918529156 0.02
    vertex 0.03831000233516565 0.03669030918529156 0.009999999999999972
    vertex 0.03969555572185528 0.0330212782667624 0.015
  endloop
endfacet
facet normal -0.935516 -0.353283 0
  outer loop
    vertex 0.04108110910854493 0.02935224734823325 0.01000000000000003
    vertex 0.04108110910854493 0.02935224734823325 0.02
    vertex 0.03969555572185528 0.0330212782667624 0.015
  endloop
endfacet
facet normal -0.935516 -0.353283 -0
  outer loop
    vertex 0.03831000233516565 0.03669030918529156 0.009999999999999972
    vertex 0.03831000233516565 0.03669030918529156 0
    vertex 0.03969555572185528 0.0330212782667624 0.005000000000000001
  endloop
endfacet
facet normal -0.935516 -0.353283 -1.55501e-15
  outer loop
    vertex 0.03831000233516565 0.03669030918529156 0
    vertex 0.04108110910854493 0.02935224734823325 0
    vertex 0.03969555572185528 0.0330212782667624 0.005000000000000001
  endloop
endfacet
facet normal -0.935516 -0.353283 -1.55501e-15
  outer loop
    vertex 0.03831000233516565 0.03669030918529156 0.009999999999999972
    vertex 0.04108110910854493 0.02935224734823325 0.01000000000000003
    vertex 0.03969555572185528 0.0330212782667624 0.015
  endloop
endfacet
facet normal -0.935516 -0.353283 1.51181e-15
  outer loop
    vertex 0.04108110910854493 0.02935224734823325 0.02
    vertex 0.03831000233516565 0.03669030918529156 0.02
    vertex 0.03969555572185528 0.0330212782667624 0.015
  endloop
endfacet
facet normal -0.935516 -0.353283 1.51181e-15
  outer loop
    vertex 0.04108110910854493 0.02935224734823325 0.01000000000000003
    vertex 0.03831000233516565 0.03669030918529156 0.009999999999999972
    vertex 0.03969555572185528 0.0330212782667624 0.005000000000000001
  endloop
endfacet
facet normal -0.389918 0.920849 -2.35547e-16
  outer loop
    vertex 0.04108110910854493 0.02935224734823325 0
    vertex 0.03241615414441705 0.02568321642970409 0
    vertex 0.03416195261370868 0.02642244572609046 0.007643209594856409
  endloop
endfacet
facet normal -0.389918 0.920849 0
  outer loop
    vertex 0.04108110910854493 0.02935224734823325 0.009999999999999972
    vertex 0.04108110910854493 0.02935224734823325 0
    vertex 0.03416195261370868 0.02642244572609046 0.007643209594856409
  endloop
endfacet
facet normal -0.389918 0.920849 0
  outer loop
    vertex 0.02375119918028921 0.02201418551117494 0.01000000000000003
    vertex 0.02375119918028921 0.02201418551117494 0.02
    vertex 0.03009277264069657 0.02469941921344848 0.01307926445120303
  endloop
endfacet
facet normal -0.389918 0.920849 2.60136e-16
  outer loop
    vertex 0.02375119918028921 0.02201418551117494 0.02
    vertex 0.0324161541444171 0.02568321642970411 0.02
    vertex 0.03009277264069657 0.02469941921344848 0.01307926445120303
  endloop
endfacet
facet normal -0.389918 0.920849 0
  outer loop
    vertex 0.04108110910854493 0.02935224734823325 0.02
    vertex 0.04108110910854493 0.02935224734823325 0.009999999999999972
    vertex 0.03585473477620055 0.02713922615001993 0.01420113515495517
  endloop
endfacet
facet normal -0.389918 0.920849 0
  outer loop
    vertex 0.02375119918028921 0.02201418551117494 0
    vertex 0.02375119918028921 0.02201418551117494 0.01000000000000003
    vertex 0.02808367666235313 0.02384870097043951 0.005000000000000014
  endloop
endfacet
facet normal -0.389918 0.920849 2.4837e-16
  outer loop
    vertex 0.0324161541444171 0.02568321642970411 0.02
    vertex 0.04108110910854493 0.02935224734823325 0.02
    vertex 0.03585473477620055 0.02713922615001993 0.01420113515495517
  endloop
endfacet
facet normal -0.389918 0.920849 0
  outer loop
    vertex 0.03241615414441705 0.02568321642970409 0
    vertex 0.02375119918028921 0.02201418551117494 0
    vertex 0.02808367666235313 0.02384870097043951 0.005000000000000014
  endloop
endfacet
facet normal -0.389918 0.920849 -2.07772e-16
  outer loop
    vertex 0.02375119918028921 0.02201418551117494 0.01000000000000003
    vertex 0.03009277264069657 0.02469941921344848 0.01307926445120303
    vertex 0.02808367666235313 0.02384870097043951 0.005000000000000014
  endloop
endfacet
facet normal -0.389918 0.920849 -1.95899e-16
  outer loop
    vertex 0.03009277264069657 0.02469941921344848 0.01307926445120303
    vertex 0.03416195261370868 0.02642244572609046 0.007643209594856409
    vertex 0.02808367666235313 0.02384870097043951 0.005000000000000014
  endloop
endfacet
facet normal -0.389918 0.920849 -1.88468e-17
  outer loop
    vertex 0.03585473477620055 0.02713922615001993 0.01420113515495517
    vertex 0.04108110910854493 0.02935224734823325 0.009999999999999972
    vertex 0.03416195261370868 0.02642244572609046 0.007643209594856409
  endloop
endfacet
facet normal -0.389918 0.920849 -2.05049e-16
  outer loop
    vertex 0.03416195261370868 0.02642244572609046 0.007643209594856409
    vertex 0.03241615414441705 0.02568321642970409 0
    vertex 0.02808367666235313 0.02384870097043951 0.005000000000000014
  endloop
endfacet
facet normal -0.389918 0.920849 2.17343e-17
  outer loop
    vertex 0.03585473477620055 0.02713922615001993 0.01420113515495517
    vertex 0.03416195261370868 0.02642244572609046 0.007643209594856409
    vertex 0.03009277264069657 0.02469941921344848 0.01307926445120303
  endloop
endfacet
facet normal -0.389918 0.920849 2.61598e-16
  outer loop
    vertex 0.0324161541444171 0.02568321642970411 0.02
    vertex 0.03585473477620055 0.02713922615001993 0.01420113515495517
    vertex 0.03009277264069657 0.02469941921344848 0.01307926445120303
  endloop
endfacet
facet normal -0.98862 -0.150437 -0
  outer loop
    vertex 0.02375119918028921 0.02201418551117494 0.02
    vertex 0.02375119918028921 0.02201418551117494 0.009999999999999972
    vertex 0.02430951088556089 0.01834515459264578 0.015
  endloop
endfacet
facet normal -0.98862 -0.150437 0
  outer loop
    vertex 0.02486782259083256 0.01467612367411662 0
    vertex 0.02486782259083256 0.01467612367411662 0.01000000000000003
    vertex 0.02430951088556089 0.01834515459264578 0.005
  endloop
endfacet
facet normal -0.98862 -0.150437 -0
  outer loop
    vertex 0.02375119918028921 0.02201418551117494 0.009999999999999972
    vertex 0.02375119918028921 0.02201418551117494 0
    vertex 0.02430951088556089 0.01834515459264578 0.005
  endloop
endfacet
facet normal -0.98862 -0.150437 0
  outer loop
    vertex 0.02486782259083256 0.01467612367411662 0.01000000000000003
    vertex 0.02486782259083256 0.01467612367411662 0.02
    vertex 0.02430951088556089 0.01834515459264578 0.015
  endloop
endfacet
facet normal -0.98862 -0.150437 6.84699e-16
  outer loop
    vertex 0.02375119918028921 0.02201418551117494 0.009999999999999972
    vertex 0.02486782259083256 0.01467612367411662 0.01000000000000003
    vertex 0.02430951088556089 0.01834515459264578 0.015
  endloop
endfacet
facet normal -0.98862 -0.150437 -6.84699e-16
  outer loop
    vertex 0.02486782259083256 0.01467612367411662 0.01000000000000003
    vertex 0.02375119918028921 0.02201418551117494 0.009999999999999972
    vertex 0.02430951088556089 0.01834515459264578 0.005
  endloop
endfacet
facet normal -0.98862 -0.150437 6.84699e-16
  outer loop
    vertex 0.02375119918028921 0.02201418551117494 0
    vertex 0.02486782259083256 0.01467612367411662 0
    vertex 0.02430951088556089 0.01834515459264578 0.005
  endloop
endfacet
facet normal -0.98862 -0.150437 -6.84699e-16
  outer loop
    vertex 0.02486782259083256 0.01467612367411662 0.02
    vertex 0.02375119918028921 0.02201418551117494 0.02
    vertex 0.02430951088556089 0.01834515459264578 0.015
  endloop
endfacet
facet normal -0.994523 0.104522 0
  outer loop
    vertex 0.02486782259083256 0.01467612367411662 0.009999999999999972
    vertex 0.02409661311360269 0.007338061837058311 0.01000000000000003
    vertex 0.02448221785221762 0.01100709275558747 0.015
  endloop
endfacet
facet normal -0.994523 0.104522 0
  outer loop
    vertex 0.02409661311360269 0.007338061837058311 0.01000000000000003
    vertex 0.02486782259083256 0.01467612367411662 0.009999999999999972
    vertex 0.02448221785221762 0.01100709275558747 0.004999999999999999
  endloop
endfacet
facet normal -0.994523 0.104522 0
  outer loop
    vertex 0.02486782259083256 0.01467612367411662 0
    vertex 0.02409661311360269 0.007338061837058311 0
    vertex 0.02448221785221762 0.01100709275558747 0.004999999999999999
  endloop
endfacet
facet normal -0.994523 0.104522 0
  outer loop
    vertex 0.02409661311360269 0.007338061837058311 0.02
    vertex 0.02486782259083256 0.01467612367411662 0.02
    vertex 0.02448221785221762 0.01100709275558747 0.015
  endloop
endfacet
facet normal -0.994523 0.104522 0
  outer loop
    vertex 0.02486782259083256 0.01467612367411662 0.009999999999999972
    vertex 0.02486782259083256 0.01467612367411662 0
    vertex 0.02448221785221762 0.01100709275558747 0.004999999999999999
  endloop
endfacet
facet normal -0.994523 0.104522 0
  outer loop
    vertex 0.02486782259083256 0.01467612367411662 0.02
    vertex 0.02486782259083256 0.01467612367411662 0.009999999999999972
    vertex 0.02448221785221762 0.01100709275558747 0.015
  endloop
endfacet
facet normal -0.994523 0.104522 0
  outer loop
    vertex 0.02409661311360269 0.007338061837058311 0
    vertex 0.02409661311360269 0.007338061837058311 0.01000000000000003
    vertex 0.02448221785221762 0.01100709275558747 0.004999999999999999
  endloop
endfacet
facet normal -0.994523 0.104522 0
  outer loop
    vertex 0.02409661311360269 0.007338061837058311 0.01000000000000003
    vertex 0.02409661311360269 0.007338061837058311 0.02
    vertex 0.02448221785221762 0.01100709275558747 0.015
  endloop
endfacet
endsolid Created by Gmsh
