solid Created by Gmsh
facet normal 0.999719 0.0237096 2.00389e-16
  outer loop
    vertex 0.007062762310559238 0.03951877038628093 0
    vertex 0.007179917021739331 0.03457892408799583 0.01144152934040793
    vertex 0.00729707173291943 0.02963907778971067 0
  endloop
endfacet
facet normal 0.999719 0.0237096 -1.77916e-16
  outer loop
    vertex 0.00776569057763981 0.009879692596570233 0.02
    vertex 0.007648535866459713 0.01481953889485533 0.008558470659592067
    vertex 0.007531381155279618 0.01975938519314049 0.02
  endloop
endfacet
facet normal 0.999719 0.0237096 -1.539e-16
  outer loop
    vertex 0.007648535866459713 0.01481953889485533 0.008558470659592067
    vertex 0.007414226444099522 0.02469923149142558 0.01
    vertex 0.007531381155279618 0.01975938519314049 0.02
  endloop
endfacet
facet normal 0.999719 0.0237096 -1.43565e-16
  outer loop
    vertex 0.007531381155279618 0.01975938519314049 0.02
    vertex 0.007414226444099522 0.02469923149142558 0.01
    vertex 0.007297071732919428 0.02963907778971072 0.02
  endloop
endfacet
facet normal 0.999719 0.0237096 2.09864e-16
  outer loop
    vertex 0.007179917021739331 0.03457892408799583 0.01144152934040793
    vertex 0.007414226444099522 0.02469923149142558 0.01
    vertex 0.00729707173291943 0.02963907778971067 0
  endloop
endfacet
facet normal 0.999719 0.0237096 2.40736e-16
  outer loop
    vertex 0.007062762310559238 0.03951877038628093 0
    vertex 0.006982936998053517 0.04288461688548535 0.007335638740843847
    vertex 0.007179917021739331 0.03457892408799583 0.01144152934040793
  endloop
endfacet
facet normal 0.999719 0.0237096 -1.78428e-16
  outer loop
    vertex 0.00776569057763981 0.009879692596570233 0.02
    vertex 0.007845515890145528 0.00651384609736581 0.01266436125915616
    vertex 0.007648535866459713 0.01481953889485533 0.008558470659592067
  endloop
endfacet
facet normal 0.999719 0.0237096 -1.80118e-16
  outer loop
    vertex 0.007297071732919428 0.02963907778971072 0.02
    vertex 0.007414226444099522 0.02469923149142558 0.01
    vertex 0.007179917021739331 0.03457892408799583 0.01144152934040793
  endloop
endfacet
facet normal 0.999719 0.0237096 2.40157e-16
  outer loop
    vertex 0.00753138115527962 0.01975938519314044 0
    vertex 0.007414226444099522 0.02469923149142558 0.01
    vertex 0.007648535866459713 0.01481953889485533 0.008558470659592067
  endloop
endfacet
facet normal 0.999719 0.0237096 2.03563e-16
  outer loop
    vertex 0.00729707173291943 0.02963907778971067 0
    vertex 0.007414226444099522 0.02469923149142558 0.01
    vertex 0.00753138115527962 0.01975938519314044 0
  endloop
endfacet
facet normal 0.999719 0.0237096 2.60383e-16
  outer loop
    vertex 0.00753138115527962 0.01975938519314044 0
    vertex 0.007648535866459713 0.01481953889485533 0.008558470659592067
    vertex 0.00776569057763981 0.009879692596570224 0
  endloop
endfacet
facet normal 0.999719 0.0237096 -2.42857e-16
  outer loop
    vertex 0.007297071732919428 0.02963907778971072 0.02
    vertex 0.007179917021739331 0.03457892408799583 0.01144152934040793
    vertex 0.007062762310559238 0.03951877038628093 0.02
  endloop
endfacet
facet normal 0.999719 0.0237096 3.00867e-16
  outer loop
    vertex 0.006828452888199048 0.04939846298285116 0
    vertex 0.006982936998053517 0.04288461688548535 0.007335638740843847
    vertex 0.007062762310559238 0.03951877038628093 0
  endloop
endfacet
facet normal 0.999719 0.0237096 -1.60657e-16
  outer loop
    vertex 0.008 0 0.02
    vertex 0.007845515890145528 0.00651384609736581 0.01266436125915616
    vertex 0.00776569057763981 0.009879692596570233 0.02
  endloop
endfacet
facet normal 0.999719 0.0237096 0
  outer loop
    vertex 0.006828452888199048 0.04939846298285116 0.009999999999999972
    vertex 0.006982936998053517 0.04288461688548535 0.007335638740843847
    vertex 0.006828452888199048 0.04939846298285116 0
  endloop
endfacet
facet normal 0.999719 0.0237096 -0
  outer loop
    vertex 0.008 0 0.01000000000000003
    vertex 0.007845515890145528 0.00651384609736581 0.01266436125915616
    vertex 0.008 0 0.02
  endloop
endfacet
facet normal 0.999719 0.0237096 -2.7186e-16
  outer loop
    vertex 0.007179917021739331 0.03457892408799583 0.01144152934040793
    vertex 0.006965257464833961 0.04363007710514123 0.01419673088727131
    vertex 0.007062762310559238 0.03951877038628093 0.02
  endloop
endfacet
facet normal 0.999719 0.0237096 3.21591e-16
  outer loop
    vertex 0.007648535866459713 0.01481953889485533 0.008558470659592067
    vertex 0.007863195423365082 0.005768385877709933 0.005803269112728699
    vertex 0.00776569057763981 0.009879692596570224 0
  endloop
endfacet
facet normal 0.999719 0.0237096 -0
  outer loop
    vertex 0.008 0 0
    vertex 0.007863195423365082 0.005768385877709933 0.005803269112728699
    vertex 0.008 0 0.01000000000000003
  endloop
endfacet
facet normal 0.999719 0.0237096 0
  outer loop
    vertex 0.006828452888199048 0.04939846298285116 0.02
    vertex 0.006965257464833961 0.04363007710514123 0.01419673088727131
    vertex 0.006828452888199048 0.04939846298285116 0.009999999999999972
  endloop
endfacet
facet normal 0.999719 0.0237096 -2.73233e-16
  outer loop
    vertex 0.007062762310559238 0.03951877038628093 0.02
    vertex 0.006965257464833961 0.04363007710514123 0.01419673088727131
    vertex 0.006828452888199048 0.04939846298285116 0.02
  endloop
endfacet
facet normal 0.999719 0.0237096 4.39389e-16
  outer loop
    vertex 0.00776569057763981 0.009879692596570224 0
    vertex 0.007863195423365082 0.005768385877709933 0.005803269112728699
    vertex 0.008 0 0
  endloop
endfacet
facet normal 0.999719 0.0237096 -1.00478e-16
  outer loop
    vertex 0.006982936998053517 0.04288461688548535 0.007335638740843847
    vertex 0.006965257464833961 0.04363007710514123 0.01419673088727131
    vertex 0.007179917021739331 0.03457892408799583 0.01144152934040793
  endloop
endfacet
facet normal 0.999719 0.0237096 -2.21229e-16
  outer loop
    vertex 0.007845515890145528 0.00651384609736581 0.01266436125915616
    vertex 0.007863195423365082 0.005768385877709933 0.005803269112728699
    vertex 0.007648535866459713 0.01481953889485533 0.008558470659592067
  endloop
endfacet
facet normal 0.999719 0.0237096 -2.50335e-16
  outer loop
    vertex 0.008 0 0.01000000000000003
    vertex 0.007863195423365082 0.005768385877709933 0.005803269112728699
    vertex 0.007845515890145528 0.00651384609736581 0.01266436125915616
  endloop
endfacet
facet normal 0.999719 0.0237096 -7.18784e-17
  outer loop
    vertex 0.006828452888199048 0.04939846298285116 0.009999999999999972
    vertex 0.006965257464833961 0.04363007710514123 0.01419673088727131
    vertex 0.006982936998053517 0.04288461688548535 0.007335638740843847
  endloop
endfacet
endsolid Created by Gmsh
