solid Created by Gmsh
facet normal -0.74375 -0.668458 -0
  outer loop
    vertex 0.0307281103272988 0.05840465152093111 0.02
    vertex 0.0307281103272988 0.05840465152093111 0.009999999999999972
    vertex 0.03400887568105861 0.05475436080087291 0.015
  endloop
endfacet
facet normal -0.74375 -0.668458 0
  outer loop
    vertex 0.03728964103481842 0.05110407008081472 0
    vertex 0.03728964103481842 0.05110407008081472 0.01000000000000003
    vertex 0.03400887568105861 0.05475436080087291 0.005000000000000001
  endloop
endfacet
facet normal -0.74375 -0.668458 0
  outer loop
    vertex 0.03728964103481842 0.05110407008081472 0.01000000000000003
    vertex 0.03728964103481842 0.05110407008081472 0.02
    vertex 0.03400887568105861 0.05475436080087291 0.015
  endloop
endfacet
facet normal -0.74375 -0.668458 -0
  outer loop
    vertex 0.0307281103272988 0.05840465152093111 0.009999999999999972
    vertex 0.0307281103272988 0.05840465152093111 0
    vertex 0.03400887568105861 0.05475436080087291 0.005000000000000001
  endloop
endfacet
facet normal -0.74375 -0.668458 0
  outer loop
    vertex 0.0307281103272988 0.05840465152093111 0.009999999999999972
    vertex 0.03728964103481842 0.05110407008081472 0.01000000000000003
    vertex 0.03400887568105861 0.05475436080087291 0.015
  endloop
endfacet
facet normal -0.74375 -0.668458 0
  outer loop
    vertex 0.03728964103481842 0.05110407008081472 0.02
    vertex 0.0307281103272988 0.05840465152093111 0.02
    vertex 0.03400887568105861 0.05475436080087291 0.015
  endloop
endfacet
facet normal -0.74375 -0.668458 0
  outer loop
    vertex 0.03728964103481842 0.05110407008081472 0.01000000000000003
    vertex 0.0307281103272988 0.05840465152093111 0.009999999999999972
    vertex 0.03400887568105861 0.05475436080087291 0.005000000000000001
  endloop
endfacet
facet normal -0.74375 -0.668458 0
  outer loop
    vertex 0.0307281103272988 0.05840465152093111 0
    vertex 0.03728964103481842 0.05110407008081472 0
    vertex 0.03400887568105861 0.05475436080087291 0.005000000000000001
  endloop
endfacet
facet normal -0.983509 -0.180862 -0
  outer loop
    vertex 0.03728964103481842 0.05110407008081472 0.02
    vertex 0.03728964103481842 0.05110407008081472 0.009999999999999972
    vertex 0.03796090872201408 0.04745377936075652 0.015
  endloop
endfacet
facet normal -0.983509 -0.180862 0
  outer loop
    vertex 0.03863217640920976 0.04380348864069833 0
    vertex 0.03863217640920976 0.04380348864069833 0.01000000000000003
    vertex 0.03796090872201408 0.04745377936075652 0.005
  endloop
endfacet
facet normal -0.983509 -0.180862 -0
  outer loop
    vertex 0.03728964103481842 0.05110407008081472 0.009999999999999972
    vertex 0.03728964103481842 0.05110407008081472 0
    vertex 0.03796090872201408 0.04745377936075652 0.005
  endloop
endfacet
facet normal -0.983509 -0.180862 0
  outer loop
    vertex 0.03863217640920976 0.04380348864069833 0.01000000000000003
    vertex 0.03863217640920976 0.04380348864069833 0.02
    vertex 0.03796090872201408 0.04745377936075652 0.015
  endloop
endfacet
facet normal -0.983509 -0.180862 -2.05397e-15
  outer loop
    vertex 0.03728964103481842 0.05110407008081472 0
    vertex 0.03863217640920976 0.04380348864069833 0
    vertex 0.03796090872201408 0.04745377936075652 0.005
  endloop
endfacet
facet normal -0.983509 -0.180862 2.03115e-15
  outer loop
    vertex 0.03863217640920976 0.04380348864069833 0.02
    vertex 0.03728964103481842 0.05110407008081472 0.02
    vertex 0.03796090872201408 0.04745377936075652 0.015
  endloop
endfacet
facet normal -0.983509 -0.180862 2.03115e-15
  outer loop
    vertex 0.03863217640920976 0.04380348864069833 0.01000000000000003
    vertex 0.03728964103481842 0.05110407008081472 0.009999999999999972
    vertex 0.03796090872201408 0.04745377936075652 0.005
  endloop
endfacet
facet normal -0.983509 -0.180862 -2.05397e-15
  outer loop
    vertex 0.03728964103481842 0.05110407008081472 0.009999999999999972
    vertex 0.03863217640920976 0.04380348864069833 0.01000000000000003
    vertex 0.03796090872201408 0.04745377936075652 0.015
  endloop
endfacet
facet normal -0.795718 -0.605667 -0
  outer loop
    vertex 0.03863217640920976 0.04380348864069833 0.02
    vertex 0.03863217640920976 0.04380348864069833 0.009999999999999972
    vertex 0.04141062059297244 0.04015319792064014 0.015
  endloop
endfacet
facet normal -0.795718 -0.605667 0
  outer loop
    vertex 0.04418906477673511 0.03650290720058194 0
    vertex 0.04418906477673511 0.03650290720058194 0.01000000000000003
    vertex 0.04141062059297244 0.04015319792064014 0.005
  endloop
endfacet
facet normal -0.795718 -0.605667 -0
  outer loop
    vertex 0.03863217640920976 0.04380348864069833 0.009999999999999972
    vertex 0.03863217640920976 0.04380348864069833 0
    vertex 0.04141062059297244 0.04015319792064014 0.005
  endloop
endfacet
facet normal -0.795718 -0.605667 0
  outer loop
    vertex 0.04418906477673511 0.03650290720058194 0.01000000000000003
    vertex 0.04418906477673511 0.03650290720058194 0.02
    vertex 0.04141062059297244 0.04015319792064014 0.015
  endloop
endfacet
facet normal -0.795718 -0.605667 -1.10786e-15
  outer loop
    vertex 0.04418906477673511 0.03650290720058194 0.01000000000000003
    vertex 0.03863217640920976 0.04380348864069833 0.009999999999999972
    vertex 0.04141062059297244 0.04015319792064014 0.005
  endloop
endfacet
facet normal -0.795718 -0.605667 1.10786e-15
  outer loop
    vertex 0.03863217640920976 0.04380348864069833 0.009999999999999972
    vertex 0.04418906477673511 0.03650290720058194 0.01000000000000003
    vertex 0.04141062059297244 0.04015319792064014 0.015
  endloop
endfacet
facet normal -0.795718 -0.605667 1.10786e-15
  outer loop
    vertex 0.03863217640920976 0.04380348864069833 0
    vertex 0.04418906477673511 0.03650290720058194 0
    vertex 0.04141062059297244 0.04015319792064014 0.005
  endloop
endfacet
facet normal -0.795718 -0.605667 -1.10786e-15
  outer loop
    vertex 0.04418906477673511 0.03650290720058194 0.02
    vertex 0.03863217640920976 0.04380348864069833 0.02
    vertex 0.04141062059297244 0.04015319792064014 0.015
  endloop
endfacet
facet normal -0.974578 0.22405 0
  outer loop
    vertex 0.04418906477673511 0.03650290720058194 0.02
    vertex 0.04418906477673511 0.03650290720058194 0.009999999999999972
    vertex 0.04334988257242244 0.03285261648052375 0.015
  endloop
endfacet
facet normal -0.974578 0.22405 0
  outer loop
    vertex 0.04251070036810977 0.02920232576046555 0
    vertex 0.04251070036810977 0.02920232576046555 0.01000000000000003
    vertex 0.04334988257242244 0.03285261648052375 0.004999999999999999
  endloop
endfacet
facet normal -0.974578 0.22405 0
  outer loop
    vertex 0.04418906477673511 0.03650290720058194 0.009999999999999972
    vertex 0.04418906477673511 0.03650290720058194 0
    vertex 0.04334988257242244 0.03285261648052375 0.004999999999999999
  endloop
endfacet
facet normal -0.974578 0.22405 0
  outer loop
    vertex 0.04251070036810977 0.02920232576046555 0.01000000000000003
    vertex 0.04251070036810977 0.02920232576046555 0.02
    vertex 0.04334988257242244 0.03285261648052375 0.015
  endloop
endfacet
facet normal -0.974578 0.22405 1.35688e-15
  outer loop
    vertex 0.04251070036810977 0.02920232576046555 0.02
    vertex 0.04418906477673511 0.03650290720058194 0.02
    vertex 0.04334988257242244 0.03285261648052375 0.015
  endloop
endfacet
facet normal -0.974578 0.22405 1.35688e-15
  outer loop
    vertex 0.04251070036810977 0.02920232576046555 0.01000000000000003
    vertex 0.04418906477673511 0.03650290720058194 0.009999999999999972
    vertex 0.04334988257242244 0.03285261648052375 0.004999999999999999
  endloop
endfacet
facet normal -0.974578 0.22405 -1.35688e-15
  outer loop
    vertex 0.04418906477673511 0.03650290720058194 0.009999999999999972
    vertex 0.04251070036810977 0.02920232576046555 0.01000000000000003
    vertex 0.04334988257242244 0.03285261648052375 0.015
  endloop
endfacet
facet normal -0.974578 0.22405 -1.35688e-15
  outer loop
    vertex 0.04418906477673511 0.03650290720058194 0
    vertex 0.04251070036810977 0.02920232576046555 0
    vertex 0.04334988257242244 0.03285261648052375 0.004999999999999999
  endloop
endfacet
facet normal -0.45196 0.892038 -1.88348e-16
  outer loop
    vertex 0.03530607585838193 0.02555203504040735 0
    vertex 0.02810145134865411 0.02190174432034916 0
    vertex 0.03566718636534283 0.02573499507263319 0.007934609541661071
  endloop
endfacet
facet normal -0.45196 0.892038 0
  outer loop
    vertex 0.02810145134865411 0.02190174432034916 0
    vertex 0.02810145134865411 0.02190174432034916 0.01000000000000003
    vertex 0.03566718636534283 0.02573499507263319 0.007934609541661071
  endloop
endfacet
facet normal -0.45196 0.892038 -1.58609e-16
  outer loop
    vertex 0.04251070036810977 0.02920232576046555 0
    vertex 0.03530607585838193 0.02555203504040735 0
    vertex 0.03566718636534283 0.02573499507263319 0.007934609541661071
  endloop
endfacet
facet normal -0.45196 0.892038 0
  outer loop
    vertex 0.04251070036810977 0.02920232576046555 0.009999999999999972
    vertex 0.04251070036810977 0.02920232576046555 0
    vertex 0.03566718636534283 0.02573499507263319 0.007934609541661071
  endloop
endfacet
facet normal -0.45196 0.892038 0
  outer loop
    vertex 0.04251070036810977 0.02920232576046555 0.02
    vertex 0.04251070036810977 0.02920232576046555 0.009999999999999972
    vertex 0.03782025019796355 0.02682586509886378 0.01436247901097246
  endloop
endfacet
facet normal -0.45196 0.892038 0
  outer loop
    vertex 0.02810145134865411 0.02190174432034916 0.01000000000000003
    vertex 0.02810145134865411 0.02190174432034916 0.02
    vertex 0.03299928302379931 0.02438327677052054 0.01445941771052671
  endloop
endfacet
facet normal -0.45196 0.892038 -7.57142e-17
  outer loop
    vertex 0.02810145134865411 0.02190174432034916 0.02
    vertex 0.03530607585838196 0.02555203504040737 0.02
    vertex 0.03299928302379931 0.02438327677052054 0.01445941771052671
  endloop
endfacet
facet normal -0.45196 0.892038 -4.09267e-16
  outer loop
    vertex 0.03530607585838196 0.02555203504040737 0.02
    vertex 0.04251070036810977 0.02920232576046555 0.02
    vertex 0.03782025019796355 0.02682586509886378 0.01436247901097246
  endloop
endfacet
facet normal -0.45196 0.892038 2.06752e-16
  outer loop
    vertex 0.03566718636534283 0.02573499507263319 0.007934609541661071
    vertex 0.02810145134865411 0.02190174432034916 0.01000000000000003
    vertex 0.03299928302379931 0.02438327677052054 0.01445941771052671
  endloop
endfacet
facet normal -0.45196 0.892038 5.92357e-16
  outer loop
    vertex 0.03782025019796355 0.02682586509886378 0.01436247901097246
    vertex 0.04251070036810977 0.02920232576046555 0.009999999999999972
    vertex 0.03566718636534283 0.02573499507263319 0.007934609541661071
  endloop
endfacet
facet normal -0.45196 0.892038 4.60173e-16
  outer loop
    vertex 0.03782025019796355 0.02682586509886378 0.01436247901097246
    vertex 0.03566718636534283 0.02573499507263319 0.007934609541661071
    vertex 0.03299928302379931 0.02438327677052054 0.01445941771052671
  endloop
endfacet
facet normal -0.45196 0.892038 -1.96368e-16
  outer loop
    vertex 0.03530607585838196 0.02555203504040737 0.02
    vertex 0.03782025019796355 0.02682586509886378 0.01436247901097246
    vertex 0.03299928302379931 0.02438327677052054 0.01445941771052671
  endloop
endfacet
facet normal -0.905448 0.424458 0
  outer loop
    vertex 0.02810145134865411 0.02190174432034916 0.02
    vertex 0.02810145134865411 0.02190174432034916 0.009999999999999972
    vertex 0.0263902577635253 0.01825145360029097 0.015
  endloop
endfacet
facet normal -0.905448 0.424458 0
  outer loop
    vertex 0.02467906417839649 0.01460116288023278 0
    vertex 0.02467906417839649 0.01460116288023278 0.01000000000000003
    vertex 0.0263902577635253 0.01825145360029097 0.005
  endloop
endfacet
facet normal -0.905448 0.424458 0
  outer loop
    vertex 0.02810145134865411 0.02190174432034916 0.009999999999999972
    vertex 0.02810145134865411 0.02190174432034916 0
    vertex 0.0263902577635253 0.01825145360029097 0.005
  endloop
endfacet
facet normal -0.905448 0.424458 0
  outer loop
    vertex 0.02467906417839649 0.01460116288023278 0.01000000000000003
    vertex 0.02467906417839649 0.01460116288023278 0.02
    vertex 0.0263902577635253 0.01825145360029097 0.015
  endloop
endfacet
facet normal -0.905448 0.424458 -9.24461e-16
  outer loop
    vertex 0.02467906417839649 0.01460116288023278 0.02
    vertex 0.02810145134865411 0.02190174432034916 0.02
    vertex 0.0263902577635253 0.01825145360029097 0.015
  endloop
endfacet
facet normal -0.905448 0.424458 -9.24461e-16
  outer loop
    vertex 0.02467906417839649 0.01460116288023278 0.01000000000000003
    vertex 0.02810145134865411 0.02190174432034916 0.009999999999999972
    vertex 0.0263902577635253 0.01825145360029097 0.005
  endloop
endfacet
facet normal -0.905448 0.424458 9.24461e-16
  outer loop
    vertex 0.02810145134865411 0.02190174432034916 0.009999999999999972
    vertex 0.02467906417839649 0.01460116288023278 0.01000000000000003
    vertex 0.0263902577635253 0.01825145360029097 0.015
  endloop
endfacet
facet normal -0.905448 0.424458 9.24461e-16
  outer loop
    vertex 0.02810145134865411 0.02190174432034916 0
    vertex 0.02467906417839649 0.01460116288023278 0
    vertex 0.0263902577635253 0.01825145360029097 0.005
  endloop
endfacet
facet normal -0.998565 0.0535481 0
  outer loop
    vertex 0.0242875704869816 0.007300581440116388 0.01000000000000003
    vertex 0.02467906417839649 0.01460116288023278 0.009999999999999972
    vertex 0.02448331733268904 0.01095087216017458 0.005
  endloop
endfacet
facet normal -0.998565 0.0535481 0
  outer loop
    vertex 0.02467906417839649 0.01460116288023278 0.009999999999999972
    vertex 0.0242875704869816 0.007300581440116388 0.01000000000000003
    vertex 0.02448331733268904 0.01095087216017458 0.015
  endloop
endfacet
facet normal -0.998565 0.0535481 0
  outer loop
    vertex 0.02467906417839649 0.01460116288023278 0
    vertex 0.0242875704869816 0.007300581440116388 0
    vertex 0.02448331733268904 0.01095087216017458 0.005
  endloop
endfacet
facet normal -0.998565 0.0535481 0
  outer loop
    vertex 0.0242875704869816 0.007300581440116388 0.02
    vertex 0.02467906417839649 0.01460116288023278 0.02
    vertex 0.02448331733268904 0.01095087216017458 0.015
  endloop
endfacet
facet normal -0.998565 0.0535481 0
  outer loop
    vertex 0.02467906417839649 0.01460116288023278 0.009999999999999972
    vertex 0.02467906417839649 0.01460116288023278 0
    vertex 0.02448331733268904 0.01095087216017458 0.005
  endloop
endfacet
facet normal -0.998565 0.0535481 0
  outer loop
    vertex 0.02467906417839649 0.01460116288023278 0.02
    vertex 0.02467906417839649 0.01460116288023278 0.009999999999999972
    vertex 0.02448331733268904 0.01095087216017458 0.015
  endloop
endfacet
facet normal -0.998565 0.0535481 0
  outer loop
    vertex 0.0242875704869816 0.007300581440116388 0
    vertex 0.0242875704869816 0.007300581440116388 0.01000000000000003
    vertex 0.02448331733268904 0.01095087216017458 0.005
  endloop
endfacet
facet normal -0.998565 0.0535481 0
  outer loop
    vertex 0.0242875704869816 0.007300581440116388 0.01000000000000003
    vertex 0.0242875704869816 0.007300581440116388 0.02
    vertex 0.02448331733268904 0.01095087216017458 0.015
  endloop
endfacet
endsolid Created by Gmsh
