solid Created by Gmsh
facet normal 0.999794 -0.0202772 0
  outer loop
    vertex 0.008 0 0
    vertex 0.008173690450556614 0.008564031766885825 0.008265960354304235
    vertex 0.008 0 0.01000000000000003
  endloop
endfacet
facet normal 0.999794 -0.0202772 0
  outer loop
    vertex 0.009156174497569614 0.05700667534408868 0.02
    vertex 0.008982484047012997 0.04844264357720286 0.01173403964569576
    vertex 0.009156174497569614 0.05700667534408868 0.009999999999999972
  endloop
endfacet
facet normal 0.999794 -0.0202772 -3.34725e-16
  outer loop
    vertex 0.008924939598055692 0.04560534027527094 0.02
    vertex 0.008982484047012997 0.04844264357720286 0.01173403964569576
    vertex 0.009156174497569614 0.05700667534408868 0.02
  endloop
endfacet
facet normal 0.999794 -0.0202772 8.76126e-17
  outer loop
    vertex 0.008231234899513922 0.01140133506881774 0
    vertex 0.008173690450556614 0.008564031766885825 0.008265960354304235
    vertex 0.008 0 0
  endloop
endfacet
facet normal 0.999794 -0.0202772 2.15627e-16
  outer loop
    vertex 0.008462469799027846 0.02280267013763549 0
    vertex 0.008356535664099383 0.01757945093463624 0.009731297879968596
    vertex 0.008231234899513922 0.01140133506881774 0
  endloop
endfacet
facet normal 0.999794 -0.0202772 -2.83597e-16
  outer loop
    vertex 0.008693704698541768 0.03420400520645318 0.02
    vertex 0.008799647796194011 0.03942766632811272 0.01030931109520052
    vertex 0.008924939598055692 0.04560534027527094 0.02
  endloop
endfacet
facet normal 0.999794 -0.0202772 2.30887e-16
  outer loop
    vertex 0.008462469799027846 0.02280267013763549 0
    vertex 0.008578088742572102 0.02850341132515439 0.01000676816252819
    vertex 0.008356535664099383 0.01757945093463624 0.009731297879968596
  endloop
endfacet
facet normal 0.999794 -0.0202772 2.63506e-16
  outer loop
    vertex 0.00869370469854177 0.03420400520645323 0
    vertex 0.008578088742572102 0.02850341132515439 0.01000676816252819
    vertex 0.008462469799027846 0.02280267013763549 0
  endloop
endfacet
facet normal 0.999794 -0.0202772 -2.47294e-16
  outer loop
    vertex 0.008693704698541768 0.03420400520645318 0.02
    vertex 0.008578088742572102 0.02850341132515439 0.01000676816252819
    vertex 0.008799647796194011 0.03942766632811272 0.01030931109520052
  endloop
endfacet
facet normal 0.999794 -0.0202772 3.12688e-16
  outer loop
    vertex 0.008799647796194011 0.03942766632811272 0.01030931109520052
    vertex 0.008578088742572102 0.02850341132515439 0.01000676816252819
    vertex 0.00869370469854177 0.03420400520645323 0
  endloop
endfacet
facet normal 0.999794 -0.0202772 -1.85819e-16
  outer loop
    vertex 0.008462469799027844 0.02280267013763545 0.02
    vertex 0.008578088742572102 0.02850341132515439 0.01000676816252819
    vertex 0.008693704698541768 0.03420400520645318 0.02
  endloop
endfacet
facet normal 0.999794 -0.0202772 -1.45303e-16
  outer loop
    vertex 0.008356535664099383 0.01757945093463624 0.009731297879968596
    vertex 0.008578088742572102 0.02850341132515439 0.01000676816252819
    vertex 0.008462469799027844 0.02280267013763545 0.02
  endloop
endfacet
facet normal 0.999794 -0.0202772 3.06207e-16
  outer loop
    vertex 0.008924939598055692 0.04560534027527094 0
    vertex 0.008799647796194011 0.03942766632811272 0.01030931109520052
    vertex 0.00869370469854177 0.03420400520645323 0
  endloop
endfacet
facet normal 0.999794 -0.0202772 -1.59134e-16
  outer loop
    vertex 0.008231234899513922 0.01140133506881774 0.02
    vertex 0.008356535664099383 0.01757945093463624 0.009731297879968596
    vertex 0.008462469799027844 0.02280267013763545 0.02
  endloop
endfacet
facet normal 0.999794 -0.0202772 8.59571e-18
  outer loop
    vertex 0.008231234899513922 0.01140133506881774 0.02
    vertex 0.008110928601888475 0.005469477840518877 0.01500000000000001
    vertex 0.008173690450556614 0.008564031766885825 0.008265960354304235
  endloop
endfacet
facet normal 0.999794 -0.0202772 2.02477e-16
  outer loop
    vertex 0.008924939598055692 0.04560534027527094 0
    vertex 0.009045245895681136 0.0515371975035698 0.004999999999999986
    vertex 0.008982484047012997 0.04844264357720286 0.01173403964569576
  endloop
endfacet
facet normal 0.999794 -0.0202772 2.66881e-16
  outer loop
    vertex 0.008924939598055692 0.04560534027527094 0
    vertex 0.008982484047012997 0.04844264357720286 0.01173403964569576
    vertex 0.008799647796194011 0.03942766632811272 0.01030931109520052
  endloop
endfacet
facet normal 0.999794 -0.0202772 -7.81199e-17
  outer loop
    vertex 0.008231234899513922 0.01140133506881774 0.02
    vertex 0.008173690450556614 0.008564031766885825 0.008265960354304235
    vertex 0.008356535664099383 0.01757945093463624 0.009731297879968596
  endloop
endfacet
facet normal 0.999794 -0.0202772 3.67672e-16
  outer loop
    vertex 0.009156174497569614 0.05700667534408868 0
    vertex 0.009045245895681136 0.0515371975035698 0.004999999999999986
    vertex 0.008924939598055692 0.04560534027527094 0
  endloop
endfacet
facet normal 0.999794 -0.0202772 -3.2682e-16
  outer loop
    vertex 0.008 0 0.02
    vertex 0.008110928601888475 0.005469477840518877 0.01500000000000001
    vertex 0.008231234899513922 0.01140133506881774 0.02
  endloop
endfacet
facet normal 0.999794 -0.0202772 -3.44953e-16
  outer loop
    vertex 0.008799647796194011 0.03942766632811272 0.01030931109520052
    vertex 0.008982484047012997 0.04844264357720286 0.01173403964569576
    vertex 0.008924939598055692 0.04560534027527094 0.02
  endloop
endfacet
facet normal 0.999794 -0.0202772 1.02253e-16
  outer loop
    vertex 0.008356535664099383 0.01757945093463624 0.009731297879968596
    vertex 0.008173690450556614 0.008564031766885825 0.008265960354304235
    vertex 0.008231234899513922 0.01140133506881774 0
  endloop
endfacet
facet normal 0.999794 -0.0202772 0
  outer loop
    vertex 0.009156174497569614 0.05700667534408868 0.009999999999999972
    vertex 0.009045245895681136 0.0515371975035698 0.004999999999999986
    vertex 0.009156174497569614 0.05700667534408868 0
  endloop
endfacet
facet normal 0.999794 -0.0202772 0
  outer loop
    vertex 0.008 0 0.01000000000000003
    vertex 0.008110928601888475 0.005469477840518877 0.01500000000000001
    vertex 0.008 0 0.02
  endloop
endfacet
facet normal 0.999794 -0.0202772 1.96315e-16
  outer loop
    vertex 0.008173690450556614 0.008564031766885825 0.008265960354304235
    vertex 0.008110928601888475 0.005469477840518877 0.01500000000000001
    vertex 0.008 0 0.01000000000000003
  endloop
endfacet
facet normal 0.999794 -0.0202772 -1.01193e-17
  outer loop
    vertex 0.008982484047012997 0.04844264357720286 0.01173403964569576
    vertex 0.009045245895681136 0.0515371975035698 0.004999999999999986
    vertex 0.009156174497569614 0.05700667534408868 0.009999999999999972
  endloop
endfacet
endsolid Created by Gmsh
