solid Created by Gmsh
facet normal 0.998329 0.0577808 -9.81414e-17
  outer loop
    vertex 0.006791357969118691 0.02088277294155479 0.02
    vertex 0.006489197461398364 0.02610346617694347 0.009684898621589435
    vertex 0.006187036953678038 0.03132415941233217 0.02
  endloop
endfacet
facet normal 0.998329 0.0577808 9.61144e-17
  outer loop
    vertex 0.006791357969118692 0.02088277294155477 0
    vertex 0.007138855667929454 0.01487874912261927 0.01053264894802038
    vertex 0.007395678984559346 0.0104413864707774 0
  endloop
endfacet
facet normal 0.998329 0.0577808 6.9529e-17
  outer loop
    vertex 0.005582715938237386 0.04176554588310952 0
    vertex 0.005839367342370334 0.03733115351489813 0.01048316195995997
    vertex 0.006187036953678039 0.03132415941233215 0
  endloop
endfacet
facet normal 0.998329 0.0577808 -1.28758e-16
  outer loop
    vertex 0.006489197461398364 0.02610346617694347 0.009684898621589435
    vertex 0.005839367342370334 0.03733115351489813 0.01048316195995997
    vertex 0.006187036953678038 0.03132415941233217 0.02
  endloop
endfacet
facet normal 0.998329 0.0577808 -6.8343e-17
  outer loop
    vertex 0.006791357969118691 0.02088277294155479 0.02
    vertex 0.007138855667929454 0.01487874912261927 0.01053264894802038
    vertex 0.006489197461398364 0.02610346617694347 0.009684898621589435
  endloop
endfacet
facet normal 0.998329 0.0577808 7.47434e-17
  outer loop
    vertex 0.006489197461398364 0.02610346617694347 0.009684898621589435
    vertex 0.007138855667929454 0.01487874912261927 0.01053264894802038
    vertex 0.006791357969118692 0.02088277294155477 0
  endloop
endfacet
facet normal 0.998329 0.0577808 1.34812e-16
  outer loop
    vertex 0.006187036953678039 0.03132415941233215 0
    vertex 0.005839367342370334 0.03733115351489813 0.01048316195995997
    vertex 0.006489197461398364 0.02610346617694347 0.009684898621589435
  endloop
endfacet
facet normal 0.998329 0.0577808 1.32849e-16
  outer loop
    vertex 0.007138855667929454 0.01487874912261927 0.01053264894802038
    vertex 0.007577419115497747 0.007301302151528868 0.007608577611574044
    vertex 0.007395678984559346 0.0104413864707774 0
  endloop
endfacet
facet normal 0.998329 0.0577808 -9.36086e-17
  outer loop
    vertex 0.006187036953678038 0.03132415941233217 0.02
    vertex 0.005839367342370334 0.03733115351489813 0.01048316195995997
    vertex 0.005582715938237385 0.04176554588310954 0.02
  endloop
endfacet
facet normal 0.998329 0.0577808 1.1289e-16
  outer loop
    vertex 0.006187036953678039 0.03132415941233215 0
    vertex 0.006489197461398364 0.02610346617694347 0.009684898621589435
    vertex 0.006791357969118692 0.02088277294155477 0
  endloop
endfacet
facet normal 0.998329 0.0577808 -1.28315e-16
  outer loop
    vertex 0.007395678984559345 0.01044138647077742 0.02
    vertex 0.007138855667929454 0.01487874912261927 0.01053264894802038
    vertex 0.006791357969118691 0.02088277294155479 0.02
  endloop
endfacet
facet normal 0.998329 0.0577808 6.65826e-17
  outer loop
    vertex 0.005582715938237386 0.04176554588310952 0
    vertex 0.005411033857348231 0.04473184841250908 0.007665693017927928
    vertex 0.005839367342370334 0.03733115351489813 0.01048316195995997
  endloop
endfacet
facet normal 0.998329 0.0577808 -0
  outer loop
    vertex 0.008 0 0
    vertex 0.007577419115497747 0.007301302151528868 0.007608577611574044
    vertex 0.008 0 0.01000000000000003
  endloop
endfacet
facet normal 0.998329 0.0577808 1.49019e-16
  outer loop
    vertex 0.007395678984559346 0.0104413864707774 0
    vertex 0.007577419115497747 0.007301302151528868 0.007608577611574044
    vertex 0.008 0 0
  endloop
endfacet
facet normal 0.998329 0.0577808 0
  outer loop
    vertex 0.00497839492279673 0.05220693235388694 0.009999999999999972
    vertex 0.005411033857348231 0.04473184841250908 0.007665693017927928
    vertex 0.00497839492279673 0.05220693235388694 0
  endloop
endfacet
facet normal 0.998329 0.0577808 1.16214e-16
  outer loop
    vertex 0.00497839492279673 0.05220693235388694 0
    vertex 0.005411033857348231 0.04473184841250908 0.007665693017927928
    vertex 0.005582715938237386 0.04176554588310952 0
  endloop
endfacet
facet normal 0.998329 0.0577808 -1.32319e-16
  outer loop
    vertex 0.005839367342370334 0.03733115351489813 0.01048316195995997
    vertex 0.005335859692083359 0.04603069867932673 0.01402126499684112
    vertex 0.005582715938237385 0.04176554588310954 0.02
  endloop
endfacet
facet normal 0.998329 0.0577808 -1.79462e-16
  outer loop
    vertex 0.007395678984559345 0.01044138647077742 0.02
    vertex 0.007643947536077984 0.006151832030814711 0.01402017522279921
    vertex 0.007138855667929454 0.01487874912261927 0.01053264894802038
  endloop
endfacet
facet normal 0.998329 0.0577808 3.12759e-17
  outer loop
    vertex 0.005411033857348231 0.04473184841250908 0.007665693017927928
    vertex 0.005335859692083359 0.04603069867932673 0.01402126499684112
    vertex 0.005839367342370334 0.03733115351489813 0.01048316195995997
  endloop
endfacet
facet normal 0.998329 0.0577808 -4.88376e-17
  outer loop
    vertex 0.007138855667929454 0.01487874912261927 0.01053264894802038
    vertex 0.007643947536077984 0.006151832030814711 0.01402017522279921
    vertex 0.007577419115497747 0.007301302151528868 0.007608577611574044
  endloop
endfacet
facet normal 0.998329 0.0577808 -1.62521e-16
  outer loop
    vertex 0.008 0 0.02
    vertex 0.007643947536077984 0.006151832030814711 0.01402017522279921
    vertex 0.007395678984559345 0.01044138647077742 0.02
  endloop
endfacet
facet normal 0.998329 0.0577808 -2.50598e-16
  outer loop
    vertex 0.005582715938237385 0.04176554588310954 0.02
    vertex 0.005335859692083359 0.04603069867932673 0.01402126499684112
    vertex 0.00497839492279673 0.05220693235388694 0.02
  endloop
endfacet
facet normal 0.998329 0.0577808 0
  outer loop
    vertex 0.00497839492279673 0.05220693235388694 0.02
    vertex 0.005335859692083359 0.04603069867932673 0.01402126499684112
    vertex 0.00497839492279673 0.05220693235388694 0.009999999999999972
  endloop
endfacet
facet normal 0.998329 0.0577808 -0
  outer loop
    vertex 0.008 0 0.01000000000000003
    vertex 0.007643947536077984 0.006151832030814711 0.01402017522279921
    vertex 0.008 0 0.02
  endloop
endfacet
facet normal 0.998329 0.0577808 -4.078e-17
  outer loop
    vertex 0.007577419115497747 0.007301302151528868 0.007608577611574044
    vertex 0.007643947536077984 0.006151832030814711 0.01402017522279921
    vertex 0.008 0 0.01000000000000003
  endloop
endfacet
facet normal 0.998329 0.0577808 8.55571e-17
  outer loop
    vertex 0.00497839492279673 0.05220693235388694 0.009999999999999972
    vertex 0.005335859692083359 0.04603069867932673 0.01402126499684112
    vertex 0.005411033857348231 0.04473184841250908 0.007665693017927928
  endloop
endfacet
endsolid Created by Gmsh
