solid Created by Gmsh
facet normal -0.613194 0.789933 -3.25445e-16
  outer loop
    vertex 0.03365953035557875 0.05107049438493282 0
    vertex 0.02543572980804753 0.04468668258681621 0
    vertex 0.02954763008181312 0.0478785884858745 0.005000000000000014
  endloop
endfacet
facet normal -0.613194 0.789933 -3.25445e-16
  outer loop
    vertex 0.02543572980804753 0.04468668258681621 0.02
    vertex 0.03365953035557875 0.05107049438493282 0.02
    vertex 0.02954763008181316 0.04787858848587453 0.01499999999999999
  endloop
endfacet
facet normal -0.613194 0.789933 0
  outer loop
    vertex 0.03365953035557875 0.05107049438493282 0.02
    vertex 0.03365953035557875 0.05107049438493282 0.009999999999999972
    vertex 0.02954763008181316 0.04787858848587453 0.01499999999999999
  endloop
endfacet
facet normal -0.613194 0.789933 0
  outer loop
    vertex 0.02543572980804753 0.04468668258681621 0
    vertex 0.02543572980804753 0.04468668258681621 0.01000000000000003
    vertex 0.02954763008181312 0.0478785884858745 0.005000000000000014
  endloop
endfacet
facet normal -0.613194 0.789933 0
  outer loop
    vertex 0.03365953035557875 0.05107049438493282 0.009999999999999972
    vertex 0.03365953035557875 0.05107049438493282 0
    vertex 0.02954763008181312 0.0478785884858745 0.005000000000000014
  endloop
endfacet
facet normal -0.613194 0.789933 0
  outer loop
    vertex 0.02543572980804753 0.04468668258681621 0.01000000000000003
    vertex 0.02543572980804753 0.04468668258681621 0.02
    vertex 0.02954763008181316 0.04787858848587453 0.01499999999999999
  endloop
endfacet
facet normal -0.613194 0.789933 3.5799e-16
  outer loop
    vertex 0.02543572980804753 0.04468668258681621 0.01000000000000003
    vertex 0.02954763008181316 0.04787858848587453 0.01499999999999999
    vertex 0.02954763008181312 0.0478785884858745 0.005000000000000014
  endloop
endfacet
facet normal -0.613194 0.789933 3.60427e-16
  outer loop
    vertex 0.02954763008181316 0.04787858848587453 0.01499999999999999
    vertex 0.03365953035557875 0.05107049438493282 0.009999999999999972
    vertex 0.02954763008181312 0.0478785884858745 0.005000000000000014
  endloop
endfacet
facet normal -0.998312 -0.0580793 6.95418e-16
  outer loop
    vertex 0.02543572980804753 0.04468668258681621 0
    vertex 0.02580712398838363 0.03830287078869961 0
    vertex 0.02562142689821558 0.04149477668775791 0.005000000000000001
  endloop
endfacet
facet normal -0.998312 -0.0580793 6.95418e-16
  outer loop
    vertex 0.02543572980804753 0.04468668258681621 0.009999999999999972
    vertex 0.02580712398838363 0.03830287078869961 0.01000000000000003
    vertex 0.02562142689821558 0.04149477668775791 0.015
  endloop
endfacet
facet normal -0.998312 -0.0580793 -6.88795e-16
  outer loop
    vertex 0.02580712398838363 0.03830287078869961 0.02
    vertex 0.02543572980804753 0.04468668258681621 0.02
    vertex 0.02562142689821558 0.04149477668775791 0.015
  endloop
endfacet
facet normal -0.998312 -0.0580793 -6.88795e-16
  outer loop
    vertex 0.02580712398838363 0.03830287078869961 0.01000000000000003
    vertex 0.02543572980804753 0.04468668258681621 0.009999999999999972
    vertex 0.02562142689821558 0.04149477668775791 0.005000000000000001
  endloop
endfacet
facet normal -0.998312 -0.0580793 -0
  outer loop
    vertex 0.02543572980804753 0.04468668258681621 0.009999999999999972
    vertex 0.02543572980804753 0.04468668258681621 0
    vertex 0.02562142689821558 0.04149477668775791 0.005000000000000001
  endloop
endfacet
facet normal -0.998312 -0.0580793 -0
  outer loop
    vertex 0.02543572980804753 0.04468668258681621 0.02
    vertex 0.02543572980804753 0.04468668258681621 0.009999999999999972
    vertex 0.02562142689821558 0.04149477668775791 0.015
  endloop
endfacet
facet normal -0.998312 -0.0580793 0
  outer loop
    vertex 0.02580712398838363 0.03830287078869961 0
    vertex 0.02580712398838363 0.03830287078869961 0.01000000000000003
    vertex 0.02562142689821558 0.04149477668775791 0.005000000000000001
  endloop
endfacet
facet normal -0.998312 -0.0580793 0
  outer loop
    vertex 0.02580712398838363 0.03830287078869961 0.01000000000000003
    vertex 0.02580712398838363 0.03830287078869961 0.02
    vertex 0.02562142689821558 0.04149477668775791 0.015
  endloop
endfacet
facet normal -0.98102 0.193907 -8.33063e-16
  outer loop
    vertex 0.02580712398838363 0.03830287078869961 0
    vertex 0.02454530883960903 0.03191905899058301 0
    vertex 0.02517621641399633 0.03511096488964131 0.004999999999999999
  endloop
endfacet
facet normal -0.98102 0.193907 -5.46698e-16
  outer loop
    vertex 0.02580712398838363 0.03830287078869961 0.009999999999999972
    vertex 0.02454530883960903 0.03191905899058301 0.01000000000000003
    vertex 0.02517621641399633 0.03511096488964131 0.01500000000000001
  endloop
endfacet
facet normal -0.98102 0.193907 5.46698e-16
  outer loop
    vertex 0.02454530883960903 0.03191905899058301 0.02
    vertex 0.02580712398838363 0.03830287078869961 0.02
    vertex 0.02517621641399633 0.03511096488964131 0.01500000000000001
  endloop
endfacet
facet normal -0.98102 0.193907 8.33063e-16
  outer loop
    vertex 0.02454530883960903 0.03191905899058301 0.01000000000000003
    vertex 0.02580712398838363 0.03830287078869961 0.009999999999999972
    vertex 0.02517621641399633 0.03511096488964131 0.004999999999999999
  endloop
endfacet
facet normal -0.98102 0.193907 0
  outer loop
    vertex 0.02580712398838363 0.03830287078869961 0.009999999999999972
    vertex 0.02580712398838363 0.03830287078869961 0
    vertex 0.02517621641399633 0.03511096488964131 0.004999999999999999
  endloop
endfacet
facet normal -0.98102 0.193907 0
  outer loop
    vertex 0.02580712398838363 0.03830287078869961 0.02
    vertex 0.02580712398838363 0.03830287078869961 0.009999999999999972
    vertex 0.02517621641399633 0.03511096488964131 0.01500000000000001
  endloop
endfacet
facet normal -0.98102 0.193907 0
  outer loop
    vertex 0.02454530883960903 0.03191905899058301 0
    vertex 0.02454530883960903 0.03191905899058301 0.01000000000000003
    vertex 0.02517621641399633 0.03511096488964131 0.004999999999999999
  endloop
endfacet
facet normal -0.98102 0.193907 0
  outer loop
    vertex 0.02454530883960903 0.03191905899058301 0.01000000000000003
    vertex 0.02454530883960903 0.03191905899058301 0.02
    vertex 0.02517621641399633 0.03511096488964131 0.01500000000000001
  endloop
endfacet
facet normal -0.993915 -0.11015 1.04183e-15
  outer loop
    vertex 0.02454530883960903 0.03191905899058301 0
    vertex 0.02525278924330404 0.02553524719246641 0
    vertex 0.02489904904145654 0.02872715309152471 0.005000000000000001
  endloop
endfacet
facet normal -0.993915 -0.11015 1.04183e-15
  outer loop
    vertex 0.02454530883960903 0.03191905899058301 0.009999999999999972
    vertex 0.02525278924330404 0.02553524719246641 0.01000000000000003
    vertex 0.02489904904145654 0.02872715309152471 0.015
  endloop
endfacet
facet normal -0.993915 -0.11015 -1.02864e-15
  outer loop
    vertex 0.02525278924330404 0.02553524719246641 0.02
    vertex 0.02454530883960903 0.03191905899058301 0.02
    vertex 0.02489904904145654 0.02872715309152471 0.015
  endloop
endfacet
facet normal -0.993915 -0.11015 -1.02864e-15
  outer loop
    vertex 0.02525278924330404 0.02553524719246641 0.01000000000000003
    vertex 0.02454530883960903 0.03191905899058301 0.009999999999999972
    vertex 0.02489904904145654 0.02872715309152471 0.005000000000000001
  endloop
endfacet
facet normal -0.993915 -0.11015 -0
  outer loop
    vertex 0.02454530883960903 0.03191905899058301 0.009999999999999972
    vertex 0.02454530883960903 0.03191905899058301 0
    vertex 0.02489904904145654 0.02872715309152471 0.005000000000000001
  endloop
endfacet
facet normal -0.993915 -0.11015 -0
  outer loop
    vertex 0.02454530883960903 0.03191905899058301 0.02
    vertex 0.02454530883960903 0.03191905899058301 0.009999999999999972
    vertex 0.02489904904145654 0.02872715309152471 0.015
  endloop
endfacet
facet normal -0.993915 -0.11015 0
  outer loop
    vertex 0.02525278924330404 0.02553524719246641 0
    vertex 0.02525278924330404 0.02553524719246641 0.01000000000000003
    vertex 0.02489904904145654 0.02872715309152471 0.005000000000000001
  endloop
endfacet
facet normal -0.993915 -0.11015 0
  outer loop
    vertex 0.02525278924330404 0.02553524719246641 0.01000000000000003
    vertex 0.02525278924330404 0.02553524719246641 0.02
    vertex 0.02489904904145654 0.02872715309152471 0.015
  endloop
endfacet
facet normal -0.999788 0.0206026 6.94788e-16
  outer loop
    vertex 0.02512123820083975 0.0191514353943498 0.01000000000000003
    vertex 0.02525278924330404 0.02553524719246641 0.009999999999999972
    vertex 0.02518701372207189 0.02234334129340811 0.004999999999999999
  endloop
endfacet
facet normal -0.999788 0.0206026 -6.93129e-16
  outer loop
    vertex 0.02525278924330404 0.02553524719246641 0.009999999999999972
    vertex 0.02512123820083975 0.0191514353943498 0.01000000000000003
    vertex 0.02518701372207189 0.02234334129340811 0.015
  endloop
endfacet
facet normal -0.999788 0.0206026 6.94788e-16
  outer loop
    vertex 0.02512123820083975 0.0191514353943498 0.02
    vertex 0.02525278924330404 0.02553524719246641 0.02
    vertex 0.02518701372207189 0.02234334129340811 0.015
  endloop
endfacet
facet normal -0.999788 0.0206026 -6.93129e-16
  outer loop
    vertex 0.02525278924330404 0.02553524719246641 0
    vertex 0.02512123820083975 0.0191514353943498 0
    vertex 0.02518701372207189 0.02234334129340811 0.004999999999999999
  endloop
endfacet
facet normal -0.999788 0.0206026 0
  outer loop
    vertex 0.02525278924330404 0.02553524719246641 0.009999999999999972
    vertex 0.02525278924330404 0.02553524719246641 0
    vertex 0.02518701372207189 0.02234334129340811 0.004999999999999999
  endloop
endfacet
facet normal -0.999788 0.0206026 0
  outer loop
    vertex 0.02525278924330404 0.02553524719246641 0.02
    vertex 0.02525278924330404 0.02553524719246641 0.009999999999999972
    vertex 0.02518701372207189 0.02234334129340811 0.015
  endloop
endfacet
facet normal -0.999788 0.0206026 0
  outer loop
    vertex 0.02512123820083975 0.0191514353943498 0
    vertex 0.02512123820083975 0.0191514353943498 0.01000000000000003
    vertex 0.02518701372207189 0.02234334129340811 0.004999999999999999
  endloop
endfacet
facet normal -0.999788 0.0206026 0
  outer loop
    vertex 0.02512123820083975 0.0191514353943498 0.01000000000000003
    vertex 0.02512123820083975 0.0191514353943498 0.02
    vertex 0.02518701372207189 0.02234334129340811 0.015
  endloop
endfacet
facet normal -0.963865 -0.26639 0
  outer loop
    vertex 0.02688557255089119 0.01276762359623321 0.01000000000000003
    vertex 0.02512123820083975 0.0191514353943498 0.009999999999999972
    vertex 0.02600340537586547 0.01595952949529151 0.005
  endloop
endfacet
facet normal -0.963865 -0.26639 0
  outer loop
    vertex 0.02512123820083975 0.0191514353943498 0.009999999999999972
    vertex 0.02688557255089119 0.01276762359623321 0.01000000000000003
    vertex 0.02600340537586547 0.01595952949529151 0.015
  endloop
endfacet
facet normal -0.963865 -0.26639 0
  outer loop
    vertex 0.02688557255089119 0.01276762359623321 0.02
    vertex 0.02512123820083975 0.0191514353943498 0.02
    vertex 0.02600340537586547 0.01595952949529151 0.015
  endloop
endfacet
facet normal -0.963865 -0.26639 0
  outer loop
    vertex 0.02512123820083975 0.0191514353943498 0
    vertex 0.02688557255089119 0.01276762359623321 0
    vertex 0.02600340537586547 0.01595952949529151 0.005
  endloop
endfacet
facet normal -0.963865 -0.26639 -0
  outer loop
    vertex 0.02512123820083975 0.0191514353943498 0.009999999999999972
    vertex 0.02512123820083975 0.0191514353943498 0
    vertex 0.02600340537586547 0.01595952949529151 0.005
  endloop
endfacet
facet normal -0.963865 -0.26639 -0
  outer loop
    vertex 0.02512123820083975 0.0191514353943498 0.02
    vertex 0.02512123820083975 0.0191514353943498 0.009999999999999972
    vertex 0.02600340537586547 0.01595952949529151 0.015
  endloop
endfacet
facet normal -0.963865 -0.26639 0
  outer loop
    vertex 0.02688557255089119 0.01276762359623321 0
    vertex 0.02688557255089119 0.01276762359623321 0.01000000000000003
    vertex 0.02600340537586547 0.01595952949529151 0.005
  endloop
endfacet
facet normal -0.963865 -0.26639 0
  outer loop
    vertex 0.02688557255089119 0.01276762359623321 0.01000000000000003
    vertex 0.02688557255089119 0.01276762359623321 0.02
    vertex 0.02600340537586547 0.01595952949529151 0.015
  endloop
endfacet
facet normal -0.946398 0.323002 7.78549e-16
  outer loop
    vertex 0.02470680219724422 0.006383811798116604 0.02
    vertex 0.02688557255089119 0.01276762359623321 0.02
    vertex 0.0257961873740677 0.009575717697174907 0.015
  endloop
endfacet
facet normal -0.946398 0.323002 7.78549e-16
  outer loop
    vertex 0.02470680219724422 0.006383811798116604 0.01000000000000003
    vertex 0.02688557255089119 0.01276762359623321 0.009999999999999972
    vertex 0.0257961873740677 0.009575717697174907 0.005000000000000001
  endloop
endfacet
facet normal -0.946398 0.323002 -7.53434e-16
  outer loop
    vertex 0.02688557255089119 0.01276762359623321 0
    vertex 0.02470680219724422 0.006383811798116604 0
    vertex 0.0257961873740677 0.009575717697174907 0.005000000000000001
  endloop
endfacet
facet normal -0.946398 0.323002 -7.53434e-16
  outer loop
    vertex 0.02688557255089119 0.01276762359623321 0.009999999999999972
    vertex 0.02470680219724422 0.006383811798116604 0.01000000000000003
    vertex 0.0257961873740677 0.009575717697174907 0.015
  endloop
endfacet
facet normal -0.946398 0.323002 0
  outer loop
    vertex 0.02688557255089119 0.01276762359623321 0.009999999999999972
    vertex 0.02688557255089119 0.01276762359623321 0
    vertex 0.0257961873740677 0.009575717697174907 0.005000000000000001
  endloop
endfacet
facet normal -0.946398 0.323002 0
  outer loop
    vertex 0.02688557255089119 0.01276762359623321 0.02
    vertex 0.02688557255089119 0.01276762359623321 0.009999999999999972
    vertex 0.0257961873740677 0.009575717697174907 0.015
  endloop
endfacet
facet normal -0.946398 0.323002 0
  outer loop
    vertex 0.02470680219724422 0.006383811798116604 0
    vertex 0.02470680219724422 0.006383811798116604 0.01000000000000003
    vertex 0.0257961873740677 0.009575717697174907 0.005000000000000001
  endloop
endfacet
facet normal -0.946398 0.323002 0
  outer loop
    vertex 0.02470680219724422 0.006383811798116604 0.01000000000000003
    vertex 0.02470680219724422 0.006383811798116604 0.02
    vertex 0.0257961873740677 0.009575717697174907 0.015
  endloop
endfacet
endsolid Created by Gmsh
