solid Created by Gmsh
facet normal -0.897487 -0.441041 -5.96044e-16
  outer loop
    vertex 0.03434062430824529 0.04897577057492743 0.009999999999999972
    vertex 0.03734907058011134 0.0428537992530615 0.01000000000000003
    vertex 0.03584484744417831 0.04591478491399446 0.015
  endloop
endfacet
facet normal -0.897487 -0.441041 -5.96044e-16
  outer loop
    vertex 0.03434062430824529 0.04897577057492743 0
    vertex 0.03734907058011134 0.0428537992530615 0
    vertex 0.03584484744417831 0.04591478491399446 0.005
  endloop
endfacet
facet normal -0.897487 -0.441041 6.45714e-16
  outer loop
    vertex 0.03734907058011134 0.0428537992530615 0.01000000000000003
    vertex 0.03434062430824529 0.04897577057492743 0.009999999999999972
    vertex 0.03584484744417831 0.04591478491399446 0.005
  endloop
endfacet
facet normal -0.897487 -0.441041 6.45714e-16
  outer loop
    vertex 0.03734907058011134 0.0428537992530615 0.02
    vertex 0.03434062430824529 0.04897577057492743 0.02
    vertex 0.03584484744417831 0.04591478491399446 0.015
  endloop
endfacet
facet normal -0.897487 -0.441041 -0
  outer loop
    vertex 0.03434062430824529 0.04897577057492743 0.009999999999999972
    vertex 0.03434062430824529 0.04897577057492743 0
    vertex 0.03584484744417831 0.04591478491399446 0.005
  endloop
endfacet
facet normal -0.897487 -0.441041 -0
  outer loop
    vertex 0.03434062430824529 0.04897577057492743 0.02
    vertex 0.03434062430824529 0.04897577057492743 0.009999999999999972
    vertex 0.03584484744417831 0.04591478491399446 0.015
  endloop
endfacet
facet normal -0.897487 -0.441041 0
  outer loop
    vertex 0.03734907058011134 0.0428537992530615 0
    vertex 0.03734907058011134 0.0428537992530615 0.01000000000000003
    vertex 0.03584484744417831 0.04591478491399446 0.005
  endloop
endfacet
facet normal -0.897487 -0.441041 0
  outer loop
    vertex 0.03734907058011134 0.0428537992530615 0.01000000000000003
    vertex 0.03734907058011134 0.0428537992530615 0.02
    vertex 0.03584484744417831 0.04591478491399446 0.015
  endloop
endfacet
facet normal -0.870426 -0.4923 1.87873e-15
  outer loop
    vertex 0.04081156793150683 0.03673182793119557 0.01000000000000003
    vertex 0.03734907058011134 0.0428537992530615 0.009999999999999972
    vertex 0.03908031925580908 0.03979281359212853 0.005
  endloop
endfacet
facet normal -0.870426 -0.4923 -1.87873e-15
  outer loop
    vertex 0.03734907058011134 0.0428537992530615 0.009999999999999972
    vertex 0.04081156793150683 0.03673182793119557 0.01000000000000003
    vertex 0.03908031925580908 0.03979281359212853 0.015
  endloop
endfacet
facet normal -0.870426 -0.4923 -1.87873e-15
  outer loop
    vertex 0.03734907058011134 0.0428537992530615 0
    vertex 0.04081156793150683 0.03673182793119557 0
    vertex 0.03908031925580908 0.03979281359212853 0.005
  endloop
endfacet
facet normal -0.870426 -0.4923 1.87873e-15
  outer loop
    vertex 0.04081156793150683 0.03673182793119557 0.02
    vertex 0.03734907058011134 0.0428537992530615 0.02
    vertex 0.03908031925580908 0.03979281359212853 0.015
  endloop
endfacet
facet normal -0.870426 -0.4923 -0
  outer loop
    vertex 0.03734907058011134 0.0428537992530615 0.009999999999999972
    vertex 0.03734907058011134 0.0428537992530615 0
    vertex 0.03908031925580908 0.03979281359212853 0.005
  endloop
endfacet
facet normal -0.870426 -0.4923 -0
  outer loop
    vertex 0.03734907058011134 0.0428537992530615 0.02
    vertex 0.03734907058011134 0.0428537992530615 0.009999999999999972
    vertex 0.03908031925580908 0.03979281359212853 0.015
  endloop
endfacet
facet normal -0.870426 -0.4923 0
  outer loop
    vertex 0.04081156793150683 0.03673182793119557 0
    vertex 0.04081156793150683 0.03673182793119557 0.01000000000000003
    vertex 0.03908031925580908 0.03979281359212853 0.005
  endloop
endfacet
facet normal -0.870426 -0.4923 0
  outer loop
    vertex 0.04081156793150683 0.03673182793119557 0.01000000000000003
    vertex 0.04081156793150683 0.03673182793119557 0.02
    vertex 0.03908031925580908 0.03979281359212853 0.015
  endloop
endfacet
facet normal -0.50779 0.861481 -4.66796e-16
  outer loop
    vertex 0.04081156793150683 0.03673182793119557 0
    vertex 0.03042545082721253 0.03060985660932964 0
    vertex 0.03561850937935968 0.03367084227026261 0.006020408163265301
  endloop
endfacet
facet normal -0.50779 0.861481 5.70013e-16
  outer loop
    vertex 0.03042545082721253 0.03060985660932964 0.02
    vertex 0.04081156793150683 0.03673182793119557 0.02
    vertex 0.03561850937935968 0.03367084227026261 0.01408371511870055
  endloop
endfacet
facet normal -0.50779 0.861481 0
  outer loop
    vertex 0.03561850937935968 0.03367084227026261 0.006020408163265301
    vertex 0.03042545082721253 0.03060985660932964 0.01000000000000003
    vertex 0.03561850937935968 0.03367084227026261 0.01408371511870055
  endloop
endfacet
facet normal -0.50779 0.861481 0
  outer loop
    vertex 0.04081156793150683 0.03673182793119557 0.009999999999999972
    vertex 0.03561850937935968 0.03367084227026261 0.006020408163265301
    vertex 0.03561850937935968 0.03367084227026261 0.01408371511870055
  endloop
endfacet
facet normal -0.50779 0.861481 0
  outer loop
    vertex 0.04081156793150683 0.03673182793119557 0.02
    vertex 0.04081156793150683 0.03673182793119557 0.009999999999999972
    vertex 0.03561850937935968 0.03367084227026261 0.01408371511870055
  endloop
endfacet
facet normal -0.50779 0.861481 0
  outer loop
    vertex 0.03042545082721253 0.03060985660932964 0
    vertex 0.03042545082721253 0.03060985660932964 0.01000000000000003
    vertex 0.03561850937935968 0.03367084227026261 0.006020408163265301
  endloop
endfacet
facet normal -0.50779 0.861481 0
  outer loop
    vertex 0.04081156793150683 0.03673182793119557 0.009999999999999972
    vertex 0.04081156793150683 0.03673182793119557 0
    vertex 0.03561850937935968 0.03367084227026261 0.006020408163265301
  endloop
endfacet
facet normal -0.50779 0.861481 0
  outer loop
    vertex 0.03042545082721253 0.03060985660932964 0.01000000000000003
    vertex 0.03042545082721253 0.03060985660932964 0.02
    vertex 0.03561850937935968 0.03367084227026261 0.01408371511870055
  endloop
endfacet
facet normal -0.945007 0.327049 -8.62955e-16
  outer loop
    vertex 0.03042545082721253 0.03060985660932964 0
    vertex 0.02830675373223416 0.02448788528746371 0
    vertex 0.02936610227972334 0.02754887094839668 0.005
  endloop
endfacet
facet normal -0.945007 0.327049 -8.62955e-16
  outer loop
    vertex 0.03042545082721253 0.03060985660932964 0.009999999999999972
    vertex 0.02830675373223416 0.02448788528746371 0.01000000000000003
    vertex 0.02936610227972334 0.02754887094839668 0.015
  endloop
endfacet
facet normal -0.945007 0.327049 8.89105e-16
  outer loop
    vertex 0.02830675373223416 0.02448788528746371 0.01000000000000003
    vertex 0.03042545082721253 0.03060985660932964 0.009999999999999972
    vertex 0.02936610227972334 0.02754887094839668 0.005
  endloop
endfacet
facet normal -0.945007 0.327049 8.89105e-16
  outer loop
    vertex 0.02830675373223416 0.02448788528746371 0.02
    vertex 0.03042545082721253 0.03060985660932964 0.02
    vertex 0.02936610227972334 0.02754887094839668 0.015
  endloop
endfacet
facet normal -0.945007 0.327049 0
  outer loop
    vertex 0.03042545082721253 0.03060985660932964 0.009999999999999972
    vertex 0.03042545082721253 0.03060985660932964 0
    vertex 0.02936610227972334 0.02754887094839668 0.005
  endloop
endfacet
facet normal -0.945007 0.327049 0
  outer loop
    vertex 0.03042545082721253 0.03060985660932964 0.02
    vertex 0.03042545082721253 0.03060985660932964 0.009999999999999972
    vertex 0.02936610227972334 0.02754887094839668 0.015
  endloop
endfacet
facet normal -0.945007 0.327049 0
  outer loop
    vertex 0.02830675373223416 0.02448788528746371 0
    vertex 0.02830675373223416 0.02448788528746371 0.01000000000000003
    vertex 0.02936610227972334 0.02754887094839668 0.005
  endloop
endfacet
facet normal -0.945007 0.327049 0
  outer loop
    vertex 0.02830675373223416 0.02448788528746371 0.01000000000000003
    vertex 0.02830675373223416 0.02448788528746371 0.02
    vertex 0.02936610227972334 0.02754887094839668 0.015
  endloop
endfacet
facet normal -0.479035 0.877796 1.5907e-16
  outer loop
    vertex 0.02269772242969431 0.02142689962653075 0
    vertex 0.01708869112715448 0.01836591396559779 0.01000000000000003
    vertex 0.02830675373223416 0.02448788528746371 0.009999999999999972
  endloop
endfacet
facet normal -0.479035 0.877796 1.5907e-16
  outer loop
    vertex 0.01708869112715448 0.01836591396559779 0.01000000000000003
    vertex 0.02269772242969432 0.02142689962653075 0.02
    vertex 0.02830675373223416 0.02448788528746371 0.009999999999999972
  endloop
endfacet
facet normal -0.479035 0.877796 0
  outer loop
    vertex 0.02269772242969431 0.02142689962653075 0
    vertex 0.02830675373223416 0.02448788528746371 0.009999999999999972
    vertex 0.02830675373223416 0.02448788528746371 0
  endloop
endfacet
facet normal -0.479035 0.877796 0
  outer loop
    vertex 0.02830675373223416 0.02448788528746371 0.009999999999999972
    vertex 0.02269772242969432 0.02142689962653075 0.02
    vertex 0.02830675373223416 0.02448788528746371 0.02
  endloop
endfacet
facet normal -0.479035 0.877796 0
  outer loop
    vertex 0.01708869112715448 0.01836591396559779 0.01000000000000003
    vertex 0.02269772242969431 0.02142689962653075 0
    vertex 0.01708869112715448 0.01836591396559779 0
  endloop
endfacet
facet normal -0.479035 0.877796 0
  outer loop
    vertex 0.02269772242969432 0.02142689962653075 0.02
    vertex 0.01708869112715448 0.01836591396559779 0.01000000000000003
    vertex 0.01708869112715448 0.01836591396559779 0.02
  endloop
endfacet
facet normal -0.29044 -0.956893 -0
  outer loop
    vertex 0.01708869112715448 0.01836591396559779 0.009999999999999972
    vertex 0.01708869112715448 0.01836591396559779 0
    vertex 0.02477800128061885 0.01603202843768519 0.007915263106899254
  endloop
endfacet
facet normal -0.29044 -0.956893 -6.49844e-16
  outer loop
    vertex 0.01708869112715448 0.01836591396559779 0
    vertex 0.02717353369579231 0.01530492830466482 0
    vertex 0.02477800128061885 0.01603202843768519 0.007915263106899254
  endloop
endfacet
facet normal -0.29044 -0.956893 2.18776e-16
  outer loop
    vertex 0.03725837626443014 0.01224394264373185 0.02
    vertex 0.02717353369579231 0.01530492830466482 0.02
    vertex 0.03026097542023299 0.01436781750862038 0.01265275910269358
  endloop
endfacet
facet normal -0.29044 -0.956893 0
  outer loop
    vertex 0.03725837626443014 0.01224394264373185 0.01000000000000003
    vertex 0.03725837626443014 0.01224394264373185 0.02
    vertex 0.03026097542023299 0.01436781750862038 0.01265275910269358
  endloop
endfacet
facet normal -0.29044 -0.956893 5.14369e-16
  outer loop
    vertex 0.02717353369579231 0.01530492830466482 0.02
    vertex 0.01708869112715448 0.01836591396559779 0.02
    vertex 0.02213111241147339 0.0168354211351313 0.01499999999999999
  endloop
endfacet
facet normal -0.29044 -0.956893 -4.81485e-16
  outer loop
    vertex 0.02717353369579231 0.01530492830466482 0
    vertex 0.03725837626443014 0.01224394264373185 0
    vertex 0.03140023513609257 0.01402202553114623 0.006009164410621378
  endloop
endfacet
facet normal -0.29044 -0.956893 -0
  outer loop
    vertex 0.01708869112715448 0.01836591396559779 0.02
    vertex 0.01708869112715448 0.01836591396559779 0.009999999999999972
    vertex 0.02213111241147339 0.0168354211351313 0.01499999999999999
  endloop
endfacet
facet normal -0.29044 -0.956893 0
  outer loop
    vertex 0.03725837626443014 0.01224394264373185 0
    vertex 0.03725837626443014 0.01224394264373185 0.01000000000000003
    vertex 0.03140023513609257 0.01402202553114623 0.006009164410621378
  endloop
endfacet
facet normal -0.29044 -0.956893 2.62529e-16
  outer loop
    vertex 0.03026097542023299 0.01436781750862038 0.01265275910269358
    vertex 0.02717353369579231 0.01530492830466482 0.02
    vertex 0.02213111241147339 0.0168354211351313 0.01499999999999999
  endloop
endfacet
facet normal -0.29044 -0.956893 2.20828e-16
  outer loop
    vertex 0.02477800128061885 0.01603202843768519 0.007915263106899254
    vertex 0.03026097542023299 0.01436781750862038 0.01265275910269358
    vertex 0.02213111241147339 0.0168354211351313 0.01499999999999999
  endloop
endfacet
facet normal -0.29044 -0.956893 -6.26727e-16
  outer loop
    vertex 0.02717353369579231 0.01530492830466482 0
    vertex 0.03140023513609257 0.01402202553114623 0.006009164410621378
    vertex 0.02477800128061885 0.01603202843768519 0.007915263106899254
  endloop
endfacet
facet normal -0.29044 -0.956893 -6.62208e-17
  outer loop
    vertex 0.01708869112715448 0.01836591396559779 0.009999999999999972
    vertex 0.02477800128061885 0.01603202843768519 0.007915263106899254
    vertex 0.02213111241147339 0.0168354211351313 0.01499999999999999
  endloop
endfacet
facet normal -0.29044 -0.956893 7.75174e-17
  outer loop
    vertex 0.02477800128061885 0.01603202843768519 0.007915263106899254
    vertex 0.03140023513609257 0.01402202553114623 0.006009164410621378
    vertex 0.03026097542023299 0.01436781750862038 0.01265275910269358
  endloop
endfacet
facet normal -0.29044 -0.956893 6.52657e-17
  outer loop
    vertex 0.03140023513609257 0.01402202553114623 0.006009164410621378
    vertex 0.03725837626443014 0.01224394264373185 0.01000000000000003
    vertex 0.03026097542023299 0.01436781750862038 0.01265275910269358
  endloop
endfacet
facet normal -0.793573 -0.608476 -0
  outer loop
    vertex 0.03725837626443014 0.01224394264373185 0.02
    vertex 0.03725837626443014 0.01224394264373185 0.009999999999999972
    vertex 0.03960540224018207 0.00918295698279889 0.015
  endloop
endfacet
facet normal -0.793573 -0.608476 0
  outer loop
    vertex 0.04195242821593401 0.006121971321865927 0
    vertex 0.04195242821593401 0.006121971321865927 0.01000000000000003
    vertex 0.03960540224018207 0.00918295698279889 0.005
  endloop
endfacet
facet normal -0.793573 -0.608476 -0
  outer loop
    vertex 0.03725837626443014 0.01224394264373185 0.009999999999999972
    vertex 0.03725837626443014 0.01224394264373185 0
    vertex 0.03960540224018207 0.00918295698279889 0.005
  endloop
endfacet
facet normal -0.793573 -0.608476 0
  outer loop
    vertex 0.04195242821593401 0.006121971321865927 0.01000000000000003
    vertex 0.04195242821593401 0.006121971321865927 0.02
    vertex 0.03960540224018207 0.00918295698279889 0.015
  endloop
endfacet
facet normal -0.793573 -0.608476 0
  outer loop
    vertex 0.04195242821593401 0.006121971321865927 0.02
    vertex 0.03725837626443014 0.01224394264373185 0.02
    vertex 0.03960540224018207 0.00918295698279889 0.015
  endloop
endfacet
facet normal -0.793573 -0.608476 0
  outer loop
    vertex 0.04195242821593401 0.006121971321865927 0.01000000000000003
    vertex 0.03725837626443014 0.01224394264373185 0.009999999999999972
    vertex 0.03960540224018207 0.00918295698279889 0.005
  endloop
endfacet
facet normal -0.793573 -0.608476 0
  outer loop
    vertex 0.03725837626443014 0.01224394264373185 0
    vertex 0.04195242821593401 0.006121971321865927 0
    vertex 0.03960540224018207 0.00918295698279889 0.005
  endloop
endfacet
facet normal -0.793573 -0.608476 0
  outer loop
    vertex 0.03725837626443014 0.01224394264373185 0.009999999999999972
    vertex 0.04195242821593401 0.006121971321865927 0.01000000000000003
    vertex 0.03960540224018207 0.00918295698279889 0.015
  endloop
endfacet
endsolid Created by Gmsh
