solid Created by Gmsh
facet normal 1 0 0
  outer loop
    vertex 0.04 0.059 0
    vertex 0.04 0.06 0
    vertex 0.04 0.06 0.009999999999999972
  endloop
endfacet
facet normal 1 0 0
  outer loop
    vertex 0.04 0.059 0.01000000000000003
    vertex 0.04 0.06 0.02
    vertex 0.04 0.059 0.02
  endloop
endfacet
facet normal 1 0 -0
  outer loop
    vertex 0.04 0.06 0.009999999999999972
    vertex 0.04 0.06 0.02
    vertex 0.04 0.059 0.01000000000000003
  endloop
endfacet
facet normal 1 0 0
  outer loop
    vertex 0.04 0.059 0
    vertex 0.04 0.06 0.009999999999999972
    vertex 0.04 0.059 0.01000000000000003
  endloop
endfacet
facet normal 0.926295 -0.376798 0
  outer loop
    vertex 0.03699999999999999 0.051625 0
    vertex 0.03849999999999999 0.0553125 0.005
    vertex 0.03699999999999999 0.051625 0.01000000000000003
  endloop
endfacet
facet normal 0.926295 -0.376798 0
  outer loop
    vertex 0.04 0.059 0.02
    vertex 0.03849999999999999 0.0553125 0.015
    vertex 0.04 0.059 0.009999999999999972
  endloop
endfacet
facet normal 0.926295 -0.376798 0
  outer loop
    vertex 0.03699999999999999 0.051625 0.01000000000000003
    vertex 0.03849999999999999 0.0553125 0.015
    vertex 0.03699999999999999 0.051625 0.02
  endloop
endfacet
facet normal 0.926295 -0.376798 0
  outer loop
    vertex 0.04 0.059 0.009999999999999972
    vertex 0.03849999999999999 0.0553125 0.005
    vertex 0.04 0.059 0
  endloop
endfacet
facet normal 0.926295 -0.376798 2.17029e-15
  outer loop
    vertex 0.04 0.059 0
    vertex 0.03849999999999999 0.0553125 0.005
    vertex 0.03699999999999999 0.051625 0
  endloop
endfacet
facet normal 0.926295 -0.376798 2.17029e-15
  outer loop
    vertex 0.04 0.059 0.009999999999999972
    vertex 0.03849999999999999 0.0553125 0.015
    vertex 0.03699999999999999 0.051625 0.01000000000000003
  endloop
endfacet
facet normal 0.926295 -0.376798 -2.17029e-15
  outer loop
    vertex 0.03699999999999999 0.051625 0.02
    vertex 0.03849999999999999 0.0553125 0.015
    vertex 0.04 0.059 0.02
  endloop
endfacet
facet normal 0.926295 -0.376798 -2.17029e-15
  outer loop
    vertex 0.03699999999999999 0.051625 0.01000000000000003
    vertex 0.03849999999999999 0.0553125 0.005
    vertex 0.04 0.059 0.009999999999999972
  endloop
endfacet
facet normal 1 0 0
  outer loop
    vertex 0.03699999999999999 0.051625 0.009999999999999972
    vertex 0.03699999999999999 0.04793749999999999 0.01500000000000001
    vertex 0.03699999999999999 0.04425 0.01000000000000003
  endloop
endfacet
facet normal 1 0 0
  outer loop
    vertex 0.03699999999999999 0.04425 0.01000000000000003
    vertex 0.03699999999999999 0.0479375 0.004999999999999997
    vertex 0.03699999999999999 0.051625 0.009999999999999972
  endloop
endfacet
facet normal 1 -0 0
  outer loop
    vertex 0.03699999999999999 0.04425 0.02
    vertex 0.03699999999999999 0.04793749999999999 0.01500000000000001
    vertex 0.03699999999999999 0.051625 0.02
  endloop
endfacet
facet normal 1 0 0
  outer loop
    vertex 0.03699999999999999 0.051625 0
    vertex 0.03699999999999999 0.0479375 0.004999999999999997
    vertex 0.03699999999999999 0.04425 0
  endloop
endfacet
facet normal 1 0 0
  outer loop
    vertex 0.03699999999999999 0.051625 0.009999999999999972
    vertex 0.03699999999999999 0.0479375 0.004999999999999997
    vertex 0.03699999999999999 0.051625 0
  endloop
endfacet
facet normal 1 0 0
  outer loop
    vertex 0.03699999999999999 0.051625 0.02
    vertex 0.03699999999999999 0.04793749999999999 0.01500000000000001
    vertex 0.03699999999999999 0.051625 0.009999999999999972
  endloop
endfacet
facet normal 1 0 0
  outer loop
    vertex 0.03699999999999999 0.04425 0
    vertex 0.03699999999999999 0.0479375 0.004999999999999997
    vertex 0.03699999999999999 0.04425 0.01000000000000003
  endloop
endfacet
facet normal 1 0 0
  outer loop
    vertex 0.03699999999999999 0.04425 0.01000000000000003
    vertex 0.03699999999999999 0.04793749999999999 0.01500000000000001
    vertex 0.03699999999999999 0.04425 0.02
  endloop
endfacet
facet normal 1 0 0
  outer loop
    vertex 0.03699999999999999 0.036875 0.01000000000000003
    vertex 0.03699999999999999 0.0405625 0.005000000000000001
    vertex 0.03699999999999999 0.04425 0.009999999999999972
  endloop
endfacet
facet normal 1 0 0
  outer loop
    vertex 0.03699999999999999 0.04425 0.009999999999999972
    vertex 0.03699999999999999 0.04056249999999999 0.01500000000000001
    vertex 0.03699999999999999 0.036875 0.01000000000000003
  endloop
endfacet
facet normal 1 -0 0
  outer loop
    vertex 0.03699999999999999 0.036875 0.02
    vertex 0.03699999999999999 0.04056249999999999 0.01500000000000001
    vertex 0.03699999999999999 0.04425 0.02
  endloop
endfacet
facet normal 1 0 0
  outer loop
    vertex 0.03699999999999999 0.04425 0
    vertex 0.03699999999999999 0.0405625 0.005000000000000001
    vertex 0.03699999999999999 0.036875 0
  endloop
endfacet
facet normal 1 0 0
  outer loop
    vertex 0.03699999999999999 0.04425 0.009999999999999972
    vertex 0.03699999999999999 0.0405625 0.005000000000000001
    vertex 0.03699999999999999 0.04425 0
  endloop
endfacet
facet normal 1 0 0
  outer loop
    vertex 0.03699999999999999 0.04425 0.02
    vertex 0.03699999999999999 0.04056249999999999 0.01500000000000001
    vertex 0.03699999999999999 0.04425 0.009999999999999972
  endloop
endfacet
facet normal 1 0 0
  outer loop
    vertex 0.03699999999999999 0.036875 0
    vertex 0.03699999999999999 0.0405625 0.005000000000000001
    vertex 0.03699999999999999 0.036875 0.01000000000000003
  endloop
endfacet
facet normal 1 0 0
  outer loop
    vertex 0.03699999999999999 0.036875 0.01000000000000003
    vertex 0.03699999999999999 0.04056249999999999 0.01500000000000001
    vertex 0.03699999999999999 0.036875 0.02
  endloop
endfacet
facet normal 0.263495 -0.964661 6.07143e-16
  outer loop
    vertex 0.02799999999999998 0.03441666666666666 0
    vertex 0.0235 0.0331875 0.008074869034632391
    vertex 0.019 0.03195833333333333 0
  endloop
endfacet
facet normal 0.263495 -0.964661 0
  outer loop
    vertex 0.01 0.0295 0
    vertex 0.01646708221909436 0.03126647153206744 0.006902461443262625
    vertex 0.01 0.0295 0.01000000000000003
  endloop
endfacet
facet normal 0.263495 -0.964661 0
  outer loop
    vertex 0.03699999999999999 0.036875 0.009999999999999972
    vertex 0.03053291778090561 0.03510852846793255 0.006902461443262622
    vertex 0.03699999999999999 0.036875 0
  endloop
endfacet
facet normal 0.263495 -0.964661 5.12971e-16
  outer loop
    vertex 0.019 0.03195833333333333 0
    vertex 0.01646708221909436 0.03126647153206744 0.006902461443262625
    vertex 0.01 0.0295 0
  endloop
endfacet
facet normal 0.263495 -0.964661 5.78737e-16
  outer loop
    vertex 0.03699999999999999 0.036875 0
    vertex 0.03053291778090561 0.03510852846793255 0.006902461443262622
    vertex 0.02799999999999998 0.03441666666666666 0
  endloop
endfacet
facet normal 0.263495 -0.964661 -2.57756e-16
  outer loop
    vertex 0.0235 0.0331875 0.008074869034632391
    vertex 0.03097485997638477 0.03522924416021622 0.01374642307179518
    vertex 0.0235 0.0331875 0.01516827586429922
  endloop
endfacet
facet normal 0.263495 -0.964661 -2.57756e-16
  outer loop
    vertex 0.0235 0.0331875 0.01516827586429922
    vertex 0.01602514002361524 0.0311457558397838 0.01374642307179518
    vertex 0.0235 0.0331875 0.008074869034632391
  endloop
endfacet
facet normal 0.263495 -0.964661 0
  outer loop
    vertex 0.03699999999999999 0.036875 0.02
    vertex 0.03097485997638477 0.03522924416021622 0.01374642307179518
    vertex 0.03699999999999999 0.036875 0.009999999999999972
  endloop
endfacet
facet normal 0.263495 -0.964661 0
  outer loop
    vertex 0.01 0.0295 0.01000000000000003
    vertex 0.01602514002361524 0.0311457558397838 0.01374642307179518
    vertex 0.01 0.0295 0.02
  endloop
endfacet
facet normal 0.263495 -0.964661 2.14137e-16
  outer loop
    vertex 0.03053291778090561 0.03510852846793255 0.006902461443262622
    vertex 0.03097485997638477 0.03522924416021622 0.01374642307179518
    vertex 0.0235 0.0331875 0.008074869034632391
  endloop
endfacet
facet normal 0.263495 -0.964661 1.34361e-16
  outer loop
    vertex 0.0235 0.0331875 0.008074869034632391
    vertex 0.01602514002361524 0.0311457558397838 0.01374642307179518
    vertex 0.01646708221909436 0.03126647153206744 0.006902461443262625
  endloop
endfacet
facet normal 0.263495 -0.964661 -5.5168e-16
  outer loop
    vertex 0.02799999999999999 0.03441666666666666 0.02
    vertex 0.03097485997638477 0.03522924416021622 0.01374642307179518
    vertex 0.03699999999999999 0.036875 0.02
  endloop
endfacet
facet normal 0.263495 -0.964661 -2.61322e-16
  outer loop
    vertex 0.01 0.0295 0.02
    vertex 0.01602514002361524 0.0311457558397838 0.01374642307179518
    vertex 0.01900000000000001 0.03195833333333334 0.02
  endloop
endfacet
facet normal 0.263495 -0.964661 5.7102e-16
  outer loop
    vertex 0.0235 0.0331875 0.008074869034632391
    vertex 0.01646708221909436 0.03126647153206744 0.006902461443262625
    vertex 0.019 0.03195833333333333 0
  endloop
endfacet
facet normal 0.263495 -0.964661 6.5826e-16
  outer loop
    vertex 0.02799999999999998 0.03441666666666666 0
    vertex 0.03053291778090561 0.03510852846793255 0.006902461443262622
    vertex 0.0235 0.0331875 0.008074869034632391
  endloop
endfacet
facet normal 0.263495 -0.964661 7.51606e-17
  outer loop
    vertex 0.01900000000000001 0.03195833333333334 0.02
    vertex 0.0235 0.0331875 0.01516827586429922
    vertex 0.02799999999999999 0.03441666666666666 0.02
  endloop
endfacet
facet normal 0.263495 -0.964661 -3.45945e-16
  outer loop
    vertex 0.0235 0.0331875 0.01516827586429922
    vertex 0.03097485997638477 0.03522924416021622 0.01374642307179518
    vertex 0.02799999999999999 0.03441666666666666 0.02
  endloop
endfacet
facet normal 0.263495 -0.964661 -1.92192e-17
  outer loop
    vertex 0.01900000000000001 0.03195833333333334 0.02
    vertex 0.01602514002361524 0.0311457558397838 0.01374642307179518
    vertex 0.0235 0.0331875 0.01516827586429922
  endloop
endfacet
facet normal 0.263495 -0.964661 1.69072e-16
  outer loop
    vertex 0.01646708221909436 0.03126647153206744 0.006902461443262625
    vertex 0.01602514002361524 0.0311457558397838 0.01374642307179518
    vertex 0.01 0.0295 0.01000000000000003
  endloop
endfacet
facet normal 0.263495 -0.964661 2.28604e-16
  outer loop
    vertex 0.03699999999999999 0.036875 0.009999999999999972
    vertex 0.03097485997638477 0.03522924416021622 0.01374642307179518
    vertex 0.03053291778090561 0.03510852846793255 0.006902461443262622
  endloop
endfacet
facet normal 0.285743 0.958306 -2.35135e-16
  outer loop
    vertex 0.02648920037570497 0.02458333333333333 0.02
    vertex 0.02236690028177873 0.0258125 0.01246312738134638
    vertex 0.01824460018785249 0.02704166666666666 0.02
  endloop
endfacet
facet normal 0.285743 0.958306 0
  outer loop
    vertex 0.01 0.0295 0.02
    vertex 0.01575583512519624 0.02778375409030884 0.01353347536352258
    vertex 0.01 0.0295 0.009999999999999972
  endloop
endfacet
facet normal 0.285743 0.958306 -0
  outer loop
    vertex 0.03473380056355745 0.022125 0.01000000000000003
    vertex 0.02897796543836121 0.02384124590969115 0.01353347536352259
    vertex 0.03473380056355745 0.022125 0.02
  endloop
endfacet
facet normal 0.285743 0.958306 -0
  outer loop
    vertex 0.03473380056355745 0.022125 0
    vertex 0.02827809458412309 0.02404992987383741 0.006883204344165674
    vertex 0.03473380056355745 0.022125 0.01000000000000003
  endloop
endfacet
facet normal 0.285743 0.958306 0
  outer loop
    vertex 0.01 0.0295 0.009999999999999972
    vertex 0.01645570597943436 0.02757507012616258 0.006883204344165663
    vertex 0.01 0.0295 0
  endloop
endfacet
facet normal 0.285743 0.958306 2.74054e-16
  outer loop
    vertex 0.01824460018785249 0.02704166666666666 0.02
    vertex 0.01575583512519624 0.02778375409030884 0.01353347536352258
    vertex 0.01 0.0295 0.02
  endloop
endfacet
facet normal 0.285743 0.958306 -4.26307e-16
  outer loop
    vertex 0.03473380056355745 0.022125 0.02
    vertex 0.02897796543836121 0.02384124590969115 0.01353347536352259
    vertex 0.02648920037570497 0.02458333333333333 0.02
  endloop
endfacet
facet normal 0.285743 0.958306 3.00375e-16
  outer loop
    vertex 0.02648920037570496 0.02458333333333334 0
    vertex 0.02827809458412309 0.02404992987383741 0.006883204344165674
    vertex 0.03473380056355745 0.022125 0
  endloop
endfacet
facet normal 0.285743 0.958306 -5.72143e-17
  outer loop
    vertex 0.01 0.0295 0
    vertex 0.01645570597943436 0.02757507012616258 0.006883204344165663
    vertex 0.01824460018785248 0.02704166666666667 0
  endloop
endfacet
facet normal 0.285743 0.958306 1.87424e-16
  outer loop
    vertex 0.02236690028177872 0.0258125 0.005302623320125033
    vertex 0.01645570597943436 0.02757507012616258 0.006883204344165663
    vertex 0.02236690028177873 0.0258125 0.01246312738134638
  endloop
endfacet
facet normal 0.285743 0.958306 1.87424e-16
  outer loop
    vertex 0.02236690028177873 0.0258125 0.01246312738134638
    vertex 0.02827809458412309 0.02404992987383741 0.006883204344165674
    vertex 0.02236690028177872 0.0258125 0.005302623320125033
  endloop
endfacet
facet normal 0.285743 0.958306 1.11403e-16
  outer loop
    vertex 0.01824460018785248 0.02704166666666667 0
    vertex 0.02236690028177872 0.0258125 0.005302623320125033
    vertex 0.02648920037570496 0.02458333333333334 0
  endloop
endfacet
facet normal 0.285743 0.958306 -7.51307e-17
  outer loop
    vertex 0.02236690028177873 0.0258125 0.01246312738134638
    vertex 0.01645570597943436 0.02757507012616258 0.006883204344165663
    vertex 0.01575583512519624 0.02778375409030884 0.01353347536352258
  endloop
endfacet
facet normal 0.285743 0.958306 1.50261e-16
  outer loop
    vertex 0.02897796543836121 0.02384124590969115 0.01353347536352259
    vertex 0.02827809458412309 0.02404992987383741 0.006883204344165674
    vertex 0.02236690028177873 0.0258125 0.01246312738134638
  endloop
endfacet
facet normal 0.285743 0.958306 1.78735e-16
  outer loop
    vertex 0.02236690028177873 0.0258125 0.01246312738134638
    vertex 0.01575583512519624 0.02778375409030884 0.01353347536352258
    vertex 0.01824460018785249 0.02704166666666666 0.02
  endloop
endfacet
facet normal 0.285743 0.958306 -4.28965e-16
  outer loop
    vertex 0.02648920037570497 0.02458333333333333 0.02
    vertex 0.02897796543836121 0.02384124590969115 0.01353347536352259
    vertex 0.02236690028177873 0.0258125 0.01246312738134638
  endloop
endfacet
facet normal 0.285743 0.958306 3.43035e-16
  outer loop
    vertex 0.02236690028177872 0.0258125 0.005302623320125033
    vertex 0.02827809458412309 0.02404992987383741 0.006883204344165674
    vertex 0.02648920037570496 0.02458333333333334 0
  endloop
endfacet
facet normal 0.285743 0.958306 -1.28638e-16
  outer loop
    vertex 0.01824460018785248 0.02704166666666667 0
    vertex 0.01645570597943436 0.02757507012616258 0.006883204344165663
    vertex 0.02236690028177872 0.0258125 0.005302623320125033
  endloop
endfacet
facet normal 0.285743 0.958306 -1.49393e-16
  outer loop
    vertex 0.01575583512519624 0.02778375409030884 0.01353347536352258
    vertex 0.01645570597943436 0.02757507012616258 0.006883204344165663
    vertex 0.01 0.0295 0.009999999999999972
  endloop
endfacet
facet normal 0.285743 0.958306 1.9919e-16
  outer loop
    vertex 0.03473380056355745 0.022125 0.01000000000000003
    vertex 0.02827809458412309 0.02404992987383741 0.006883204344165674
    vertex 0.02897796543836121 0.02384124590969115 0.01353347536352259
  endloop
endfacet
facet normal 0.285743 -0.958306 -2.09008e-16
  outer loop
    vertex 0.02648920037570497 0.01966666666666667 0
    vertex 0.02236690028177873 0.0184375 0.007536872618653616
    vertex 0.01824460018785249 0.01720833333333334 0
  endloop
endfacet
facet normal 0.285743 -0.958306 0
  outer loop
    vertex 0.01 0.01475 0
    vertex 0.01575583512519624 0.01646624590969115 0.006466524636477417
    vertex 0.01 0.01475 0.01000000000000003
  endloop
endfacet
facet normal 0.285743 -0.958306 0
  outer loop
    vertex 0.03473380056355745 0.022125 0.009999999999999972
    vertex 0.02897796543836121 0.02040875409030884 0.006466524636477407
    vertex 0.03473380056355745 0.022125 0
  endloop
endfacet
facet normal 0.285743 -0.958306 0
  outer loop
    vertex 0.03473380056355745 0.022125 0.02
    vertex 0.02827809458412309 0.02020007012616258 0.01315436005459239
    vertex 0.03473380056355745 0.022125 0.009999999999999972
  endloop
endfacet
facet normal 0.285743 -0.958306 0
  outer loop
    vertex 0.01 0.01475 0.01000000000000003
    vertex 0.01645570597943436 0.01667492987383741 0.0131543600545924
    vertex 0.01 0.01475 0.02
  endloop
endfacet
facet normal 0.285743 -0.958306 -2.74054e-16
  outer loop
    vertex 0.01824460018785249 0.01720833333333334 0
    vertex 0.01575583512519624 0.01646624590969115 0.006466524636477417
    vertex 0.01 0.01475 0
  endloop
endfacet
facet normal 0.285743 -0.958306 -9.13514e-17
  outer loop
    vertex 0.03473380056355745 0.022125 0
    vertex 0.02897796543836121 0.02040875409030884 0.006466524636477407
    vertex 0.02648920037570497 0.01966666666666667 0
  endloop
endfacet
facet normal 0.285743 -0.958306 -1.58203e-16
  outer loop
    vertex 0.02648920037570496 0.01966666666666666 0.02
    vertex 0.02827809458412309 0.02020007012616258 0.01315436005459239
    vertex 0.03473380056355745 0.022125 0.02
  endloop
endfacet
facet normal 0.285743 -0.958306 2.30113e-16
  outer loop
    vertex 0.01 0.01475 0.02
    vertex 0.01645570597943436 0.01667492987383741 0.0131543600545924
    vertex 0.01824460018785248 0.01720833333333333 0.02
  endloop
endfacet
facet normal 0.285743 -0.958306 1.34225e-16
  outer loop
    vertex 0.02236690028177873 0.0184375 0.01492276307242336
    vertex 0.01645570597943436 0.01667492987383741 0.0131543600545924
    vertex 0.02236690028177873 0.0184375 0.007536872618653616
  endloop
endfacet
facet normal 0.285743 -0.958306 1.34225e-16
  outer loop
    vertex 0.02236690028177873 0.0184375 0.007536872618653616
    vertex 0.02827809458412309 0.02020007012616258 0.01315436005459239
    vertex 0.02236690028177873 0.0184375 0.01492276307242336
  endloop
endfacet
facet normal 0.285743 -0.958306 7.75653e-17
  outer loop
    vertex 0.01824460018785248 0.01720833333333333 0.02
    vertex 0.02236690028177873 0.0184375 0.01492276307242336
    vertex 0.02648920037570496 0.01966666666666666 0.02
  endloop
endfacet
facet normal 0.285743 -0.958306 0
  outer loop
    vertex 0.02236690028177873 0.0184375 0.007536872618653616
    vertex 0.01645570597943436 0.01667492987383741 0.0131543600545924
    vertex 0.01575583512519624 0.01646624590969115 0.006466524636477417
  endloop
endfacet
facet normal 0.285743 -0.958306 2.05429e-16
  outer loop
    vertex 0.02897796543836121 0.02040875409030884 0.006466524636477407
    vertex 0.02827809458412309 0.02020007012616258 0.01315436005459239
    vertex 0.02236690028177873 0.0184375 0.007536872618653616
  endloop
endfacet
facet normal 0.285743 -0.958306 -3.57471e-16
  outer loop
    vertex 0.02236690028177873 0.0184375 0.007536872618653616
    vertex 0.01575583512519624 0.01646624590969115 0.006466524636477417
    vertex 0.01824460018785249 0.01720833333333334 0
  endloop
endfacet
facet normal 0.285743 -0.958306 -6.25574e-17
  outer loop
    vertex 0.02648920037570497 0.01966666666666667 0
    vertex 0.02897796543836121 0.02040875409030884 0.006466524636477407
    vertex 0.02236690028177873 0.0184375 0.007536872618653616
  endloop
endfacet
facet normal 0.285743 -0.958306 -1.95844e-16
  outer loop
    vertex 0.02236690028177873 0.0184375 0.01492276307242336
    vertex 0.02827809458412309 0.02020007012616258 0.01315436005459239
    vertex 0.02648920037570496 0.01966666666666666 0.02
  endloop
endfacet
facet normal 0.285743 -0.958306 2.93766e-16
  outer loop
    vertex 0.01824460018785248 0.01720833333333333 0.02
    vertex 0.01645570597943436 0.01667492987383741 0.0131543600545924
    vertex 0.02236690028177873 0.0184375 0.01492276307242336
  endloop
endfacet
facet normal 0.285743 -0.958306 1.98139e-16
  outer loop
    vertex 0.03473380056355745 0.022125 0.009999999999999972
    vertex 0.02827809458412309 0.02020007012616258 0.01315436005459239
    vertex 0.02897796543836121 0.02040875409030884 0.006466524636477407
  endloop
endfacet
facet normal 0.285743 -0.958306 9.90695e-18
  outer loop
    vertex 0.01575583512519624 0.01646624590969115 0.006466524636477417
    vertex 0.01645570597943436 0.01667492987383741 0.0131543600545924
    vertex 0.01 0.01475 0.01000000000000003
  endloop
endfacet
facet normal 0.263495 0.964661 -3.59788e-16
  outer loop
    vertex 0.01900000000000001 0.01229166666666666 0
    vertex 0.0235 0.0110625 0.008074869034632393
    vertex 0.02799999999999999 0.009833333333333335 0
  endloop
endfacet
facet normal 0.263495 0.964661 -0
  outer loop
    vertex 0.03699999999999999 0.007375 0
    vertex 0.03053291778090563 0.009141471532067444 0.006902461443262625
    vertex 0.03699999999999999 0.007375 0.01000000000000003
  endloop
endfacet
facet normal 0.263495 0.964661 0
  outer loop
    vertex 0.01 0.01475 0.009999999999999972
    vertex 0.01646708221909438 0.01298352846793256 0.006902461443262622
    vertex 0.01 0.01475 0
  endloop
endfacet
facet normal 0.263495 0.964661 -4.73512e-16
  outer loop
    vertex 0.01 0.01475 0
    vertex 0.01646708221909438 0.01298352846793256 0.006902461443262622
    vertex 0.01900000000000001 0.01229166666666666 0
  endloop
endfacet
facet normal 0.263495 0.964661 -3.55134e-16
  outer loop
    vertex 0.02799999999999999 0.009833333333333335 0
    vertex 0.03053291778090563 0.009141471532067444 0.006902461443262625
    vertex 0.03699999999999999 0.007375 0
  endloop
endfacet
facet normal 0.263495 0.964661 1.50722e-16
  outer loop
    vertex 0.0235 0.0110625 0.008074869034632393
    vertex 0.01602514002361522 0.01310424416021622 0.01374642307179518
    vertex 0.02349999999999999 0.0110625 0.01516827586429922
  endloop
endfacet
facet normal 0.263495 0.964661 1.50722e-16
  outer loop
    vertex 0.02349999999999999 0.0110625 0.01516827586429922
    vertex 0.03097485997638475 0.009020755839783795 0.01374642307179518
    vertex 0.0235 0.0110625 0.008074869034632393
  endloop
endfacet
facet normal 0.263495 0.964661 0
  outer loop
    vertex 0.01 0.01475 0.02
    vertex 0.01602514002361522 0.01310424416021622 0.01374642307179518
    vertex 0.01 0.01475 0.009999999999999972
  endloop
endfacet
facet normal 0.263495 0.964661 -0
  outer loop
    vertex 0.03699999999999999 0.007375 0.01000000000000003
    vertex 0.03097485997638475 0.009020755839783795 0.01374642307179518
    vertex 0.03699999999999999 0.007375 0.02
  endloop
endfacet
facet normal 0.263495 0.964661 -9.8671e-17
  outer loop
    vertex 0.01646708221909438 0.01298352846793256 0.006902461443262622
    vertex 0.01602514002361522 0.01310424416021622 0.01374642307179518
    vertex 0.0235 0.0110625 0.008074869034632393
  endloop
endfacet
facet normal 0.263495 0.964661 1.0077e-16
  outer loop
    vertex 0.0235 0.0110625 0.008074869034632393
    vertex 0.03097485997638475 0.009020755839783795 0.01374642307179518
    vertex 0.03053291778090563 0.009141471532067444 0.006902461443262625
  endloop
endfacet
facet normal 0.263495 0.964661 7.54931e-16
  outer loop
    vertex 0.019 0.01229166666666666 0.02
    vertex 0.01602514002361522 0.01310424416021622 0.01374642307179518
    vertex 0.01 0.01475 0.02
  endloop
endfacet
facet normal 0.263495 0.964661 4.93609e-16
  outer loop
    vertex 0.03699999999999999 0.007375 0.02
    vertex 0.03097485997638475 0.009020755839783795 0.01374642307179518
    vertex 0.02799999999999998 0.009833333333333336 0.02
  endloop
endfacet
facet normal 0.263495 0.964661 -3.48957e-16
  outer loop
    vertex 0.0235 0.0110625 0.008074869034632393
    vertex 0.03053291778090563 0.009141471532067444 0.006902461443262625
    vertex 0.02799999999999999 0.009833333333333335 0
  endloop
endfacet
facet normal 0.263495 0.964661 -3.88611e-16
  outer loop
    vertex 0.01900000000000001 0.01229166666666666 0
    vertex 0.01646708221909438 0.01298352846793256 0.006902461443262622
    vertex 0.0235 0.0110625 0.008074869034632393
  endloop
endfacet
facet normal 0.263495 0.964661 6.76445e-16
  outer loop
    vertex 0.02799999999999998 0.009833333333333336 0.02
    vertex 0.02349999999999999 0.0110625 0.01516827586429922
    vertex 0.019 0.01229166666666666 0.02
  endloop
endfacet
facet normal 0.263495 0.964661 6.9189e-16
  outer loop
    vertex 0.02349999999999999 0.0110625 0.01516827586429922
    vertex 0.01602514002361522 0.01310424416021622 0.01374642307179518
    vertex 0.019 0.01229166666666666 0.02
  endloop
endfacet
facet normal 0.263495 0.964661 6.43842e-16
  outer loop
    vertex 0.02799999999999998 0.009833333333333336 0.02
    vertex 0.03097485997638475 0.009020755839783795 0.01374642307179518
    vertex 0.02349999999999999 0.0110625 0.01516827586429922
  endloop
endfacet
facet normal 0.263495 0.964661 -1.52403e-16
  outer loop
    vertex 0.01 0.01475 0.009999999999999972
    vertex 0.01602514002361522 0.01310424416021622 0.01374642307179518
    vertex 0.01646708221909438 0.01298352846793256 0.006902461443262622
  endloop
endfacet
facet normal 0.263495 0.964661 7.85828e-17
  outer loop
    vertex 0.03053291778090563 0.009141471532067444 0.006902461443262625
    vertex 0.03097485997638475 0.009020755839783795 0.01374642307179518
    vertex 0.03699999999999999 0.007375 0.01000000000000003
  endloop
endfacet
endsolid Created by Gmsh
