solid Created by Gmsh
facet normal -0.829934 0.557862 0
  outer loop
    vertex 0.03384140425366815 0.05469883155972084 0.02
    vertex 0.03384140425366815 0.05469883155972084 0.009999999999999972
    vertex 0.03154344795580521 0.05128015458723829 0.015
  endloop
endfacet
facet normal -0.829934 0.557862 0
  outer loop
    vertex 0.02924549165794225 0.04786147761475574 0
    vertex 0.02924549165794225 0.04786147761475574 0.01000000000000003
    vertex 0.03154344795580521 0.05128015458723829 0.005
  endloop
endfacet
facet normal -0.829934 0.557862 0
  outer loop
    vertex 0.03384140425366815 0.05469883155972084 0.009999999999999972
    vertex 0.03384140425366815 0.05469883155972084 0
    vertex 0.03154344795580521 0.05128015458723829 0.005
  endloop
endfacet
facet normal -0.829934 0.557862 0
  outer loop
    vertex 0.02924549165794225 0.04786147761475574 0.01000000000000003
    vertex 0.02924549165794225 0.04786147761475574 0.02
    vertex 0.03154344795580521 0.05128015458723829 0.015
  endloop
endfacet
facet normal -0.829934 0.557862 -1.56278e-15
  outer loop
    vertex 0.02924549165794225 0.04786147761475574 0.01000000000000003
    vertex 0.03384140425366815 0.05469883155972084 0.009999999999999972
    vertex 0.03154344795580521 0.05128015458723829 0.005
  endloop
endfacet
facet normal -0.829934 0.557862 -1.56278e-15
  outer loop
    vertex 0.02924549165794225 0.04786147761475574 0.02
    vertex 0.03384140425366815 0.05469883155972084 0.02
    vertex 0.03154344795580521 0.05128015458723829 0.015
  endloop
endfacet
facet normal -0.829934 0.557862 1.48053e-15
  outer loop
    vertex 0.03384140425366815 0.05469883155972084 0.009999999999999972
    vertex 0.02924549165794225 0.04786147761475574 0.01000000000000003
    vertex 0.03154344795580521 0.05128015458723829 0.015
  endloop
endfacet
facet normal -0.829934 0.557862 1.48053e-15
  outer loop
    vertex 0.03384140425366815 0.05469883155972084 0
    vertex 0.02924549165794225 0.04786147761475574 0
    vertex 0.03154344795580521 0.05128015458723829 0.005
  endloop
endfacet
facet normal -0.824301 -0.566151 -0
  outer loop
    vertex 0.02924549165794225 0.04786147761475574 0.02
    vertex 0.02924549165794225 0.04786147761475574 0.009999999999999972
    vertex 0.03159352600660746 0.04444280064227319 0.015
  endloop
endfacet
facet normal -0.824301 -0.566151 0
  outer loop
    vertex 0.03394156035527267 0.04102412366979064 0
    vertex 0.03394156035527267 0.04102412366979064 0.01000000000000003
    vertex 0.03159352600660746 0.04444280064227319 0.005
  endloop
endfacet
facet normal -0.824301 -0.566151 -0
  outer loop
    vertex 0.02924549165794225 0.04786147761475574 0.009999999999999972
    vertex 0.02924549165794225 0.04786147761475574 0
    vertex 0.03159352600660746 0.04444280064227319 0.005
  endloop
endfacet
facet normal -0.824301 -0.566151 0
  outer loop
    vertex 0.03394156035527267 0.04102412366979064 0.01000000000000003
    vertex 0.03394156035527267 0.04102412366979064 0.02
    vertex 0.03159352600660746 0.04444280064227319 0.015
  endloop
endfacet
facet normal -0.824301 -0.566151 4.08468e-16
  outer loop
    vertex 0.02924549165794225 0.04786147761475574 0
    vertex 0.03394156035527267 0.04102412366979064 0
    vertex 0.03159352600660746 0.04444280064227319 0.005
  endloop
endfacet
facet normal -0.824301 -0.566151 -4.08468e-16
  outer loop
    vertex 0.03394156035527267 0.04102412366979064 0.02
    vertex 0.02924549165794225 0.04786147761475574 0.02
    vertex 0.03159352600660746 0.04444280064227319 0.015
  endloop
endfacet
facet normal -0.824301 -0.566151 -4.08468e-16
  outer loop
    vertex 0.03394156035527267 0.04102412366979064 0.01000000000000003
    vertex 0.02924549165794225 0.04786147761475574 0.009999999999999972
    vertex 0.03159352600660746 0.04444280064227319 0.005
  endloop
endfacet
facet normal -0.824301 -0.566151 4.08468e-16
  outer loop
    vertex 0.02924549165794225 0.04786147761475574 0.009999999999999972
    vertex 0.03394156035527267 0.04102412366979064 0.01000000000000003
    vertex 0.03159352600660746 0.04444280064227319 0.015
  endloop
endfacet
facet normal -0.798645 0.601803 0
  outer loop
    vertex 0.02878941105930905 0.03418676972482552 0
    vertex 0.02878941105930905 0.03418676972482552 0.01000000000000003
    vertex 0.03136548570729086 0.03760544669730808 0.005000000000000001
  endloop
endfacet
facet normal -0.798645 0.601803 0
  outer loop
    vertex 0.03394156035527267 0.04102412366979064 0.02
    vertex 0.03394156035527267 0.04102412366979064 0.009999999999999972
    vertex 0.03136548570729086 0.03760544669730808 0.015
  endloop
endfacet
facet normal -0.798645 0.601803 0
  outer loop
    vertex 0.02878941105930905 0.03418676972482552 0.01000000000000003
    vertex 0.02878941105930905 0.03418676972482552 0.02
    vertex 0.03136548570729086 0.03760544669730808 0.015
  endloop
endfacet
facet normal -0.798645 0.601803 0
  outer loop
    vertex 0.03394156035527267 0.04102412366979064 0.009999999999999972
    vertex 0.03394156035527267 0.04102412366979064 0
    vertex 0.03136548570729086 0.03760544669730808 0.005000000000000001
  endloop
endfacet
facet normal -0.798645 0.601803 5.54056e-16
  outer loop
    vertex 0.03394156035527267 0.04102412366979064 0.009999999999999972
    vertex 0.02878941105930905 0.03418676972482552 0.01000000000000003
    vertex 0.03136548570729086 0.03760544669730808 0.015
  endloop
endfacet
facet normal -0.798645 0.601803 5.54056e-16
  outer loop
    vertex 0.03394156035527267 0.04102412366979064 0
    vertex 0.02878941105930905 0.03418676972482552 0
    vertex 0.03136548570729086 0.03760544669730808 0.005000000000000001
  endloop
endfacet
facet normal -0.798645 0.601803 -5.54056e-16
  outer loop
    vertex 0.02878941105930905 0.03418676972482552 0.02
    vertex 0.03394156035527267 0.04102412366979064 0.02
    vertex 0.03136548570729086 0.03760544669730808 0.015
  endloop
endfacet
facet normal -0.798645 0.601803 -5.54056e-16
  outer loop
    vertex 0.02878941105930905 0.03418676972482552 0.01000000000000003
    vertex 0.03394156035527267 0.04102412366979064 0.009999999999999972
    vertex 0.03136548570729086 0.03760544669730808 0.005000000000000001
  endloop
endfacet
facet normal -0.999503 0.0315372 0
  outer loop
    vertex 0.0285736726277788 0.02734941577986042 0.02
    vertex 0.02878941105930905 0.03418676972482552 0.02
    vertex 0.02868154184354393 0.03076809275234297 0.015
  endloop
endfacet
facet normal -0.999503 0.0315372 0
  outer loop
    vertex 0.0285736726277788 0.02734941577986042 0.01000000000000003
    vertex 0.02878941105930905 0.03418676972482552 0.009999999999999972
    vertex 0.02868154184354393 0.03076809275234297 0.004999999999999999
  endloop
endfacet
facet normal -0.999503 0.0315372 0
  outer loop
    vertex 0.02878941105930905 0.03418676972482552 0
    vertex 0.0285736726277788 0.02734941577986042 0
    vertex 0.02868154184354393 0.03076809275234297 0.004999999999999999
  endloop
endfacet
facet normal -0.999503 0.0315372 0
  outer loop
    vertex 0.02878941105930905 0.03418676972482552 0.009999999999999972
    vertex 0.0285736726277788 0.02734941577986042 0.01000000000000003
    vertex 0.02868154184354393 0.03076809275234297 0.015
  endloop
endfacet
facet normal -0.999503 0.0315372 0
  outer loop
    vertex 0.02878941105930905 0.03418676972482552 0.009999999999999972
    vertex 0.02878941105930905 0.03418676972482552 0
    vertex 0.02868154184354393 0.03076809275234297 0.004999999999999999
  endloop
endfacet
facet normal -0.999503 0.0315372 0
  outer loop
    vertex 0.02878941105930905 0.03418676972482552 0.02
    vertex 0.02878941105930905 0.03418676972482552 0.009999999999999972
    vertex 0.02868154184354393 0.03076809275234297 0.015
  endloop
endfacet
facet normal -0.999503 0.0315372 0
  outer loop
    vertex 0.0285736726277788 0.02734941577986042 0
    vertex 0.0285736726277788 0.02734941577986042 0.01000000000000003
    vertex 0.02868154184354393 0.03076809275234297 0.004999999999999999
  endloop
endfacet
facet normal -0.999503 0.0315372 0
  outer loop
    vertex 0.0285736726277788 0.02734941577986042 0.01000000000000003
    vertex 0.0285736726277788 0.02734941577986042 0.02
    vertex 0.02868154184354393 0.03076809275234297 0.015
  endloop
endfacet
facet normal -0.598529 -0.801101 2.07085e-16
  outer loop
    vertex 0.0285736726277788 0.02734941577986042 0
    vertex 0.03772512956130415 0.02051206183489532 0
    vertex 0.03314940109454147 0.02393073880737787 0.005728862973760922
  endloop
endfacet
facet normal -0.598529 -0.801101 -3.13535e-16
  outer loop
    vertex 0.03772512956130415 0.02051206183489532 0.02
    vertex 0.0285736726277788 0.02734941577986042 0.02
    vertex 0.03314940109454147 0.02393073880737788 0.01432426114969102
  endloop
endfacet
facet normal -0.598529 -0.801101 0
  outer loop
    vertex 0.03772512956130415 0.02051206183489532 0
    vertex 0.03772512956130415 0.02051206183489532 0.01000000000000003
    vertex 0.03314940109454147 0.02393073880737787 0.005728862973760922
  endloop
endfacet
facet normal -0.598529 -0.801101 -0
  outer loop
    vertex 0.0285736726277788 0.02734941577986042 0.02
    vertex 0.0285736726277788 0.02734941577986042 0.009999999999999972
    vertex 0.03314940109454147 0.02393073880737788 0.01432426114969102
  endloop
endfacet
facet normal -0.598529 -0.801101 1.38023e-16
  outer loop
    vertex 0.0285736726277788 0.02734941577986042 0.009999999999999972
    vertex 0.03314940109454147 0.02393073880737787 0.005728862973760922
    vertex 0.03314940109454147 0.02393073880737788 0.01432426114969102
  endloop
endfacet
facet normal -0.598529 -0.801101 1.63532e-16
  outer loop
    vertex 0.03314940109454147 0.02393073880737787 0.005728862973760922
    vertex 0.03772512956130415 0.02051206183489532 0.01000000000000003
    vertex 0.03314940109454147 0.02393073880737788 0.01432426114969102
  endloop
endfacet
facet normal -0.598529 -0.801101 0
  outer loop
    vertex 0.03772512956130415 0.02051206183489532 0.01000000000000003
    vertex 0.03772512956130415 0.02051206183489532 0.02
    vertex 0.03314940109454147 0.02393073880737788 0.01432426114969102
  endloop
endfacet
facet normal -0.598529 -0.801101 -0
  outer loop
    vertex 0.0285736726277788 0.02734941577986042 0.009999999999999972
    vertex 0.0285736726277788 0.02734941577986042 0
    vertex 0.03314940109454147 0.02393073880737787 0.005728862973760922
  endloop
endfacet
facet normal -0.532684 0.846314 -1.05585e-16
  outer loop
    vertex 0.03229362302000278 0.01709338486241276 0
    vertex 0.02686211647870142 0.01367470788993021 0.01000000000000003
    vertex 0.03772512956130415 0.02051206183489532 0.009999999999999972
  endloop
endfacet
facet normal -0.532684 0.846314 -1.05585e-16
  outer loop
    vertex 0.02686211647870142 0.01367470788993021 0.01000000000000003
    vertex 0.03229362302000279 0.01709338486241277 0.02
    vertex 0.03772512956130415 0.02051206183489532 0.009999999999999972
  endloop
endfacet
facet normal -0.532684 0.846314 0
  outer loop
    vertex 0.03229362302000278 0.01709338486241276 0
    vertex 0.03772512956130415 0.02051206183489532 0.009999999999999972
    vertex 0.03772512956130415 0.02051206183489532 0
  endloop
endfacet
facet normal -0.532684 0.846314 0
  outer loop
    vertex 0.03772512956130415 0.02051206183489532 0.009999999999999972
    vertex 0.03229362302000279 0.01709338486241277 0.02
    vertex 0.03772512956130415 0.02051206183489532 0.02
  endloop
endfacet
facet normal -0.532684 0.846314 0
  outer loop
    vertex 0.02686211647870142 0.01367470788993021 0.01000000000000003
    vertex 0.03229362302000278 0.01709338486241276 0
    vertex 0.02686211647870142 0.01367470788993021 0
  endloop
endfacet
facet normal -0.532684 0.846314 0
  outer loop
    vertex 0.03229362302000279 0.01709338486241277 0.02
    vertex 0.02686211647870142 0.01367470788993021 0.01000000000000003
    vertex 0.02686211647870142 0.01367470788993021 0.02
  endloop
endfacet
facet normal -0.792405 -0.609996 -0
  outer loop
    vertex 0.02686211647870142 0.01367470788993021 0.02
    vertex 0.02686211647870142 0.01367470788993021 0.009999999999999972
    vertex 0.02949382592697839 0.01025603091744765 0.015
  endloop
endfacet
facet normal -0.792405 -0.609996 0
  outer loop
    vertex 0.03212553537525536 0.006837353944965104 0
    vertex 0.03212553537525536 0.006837353944965104 0.01000000000000003
    vertex 0.02949382592697839 0.01025603091744765 0.005000000000000001
  endloop
endfacet
facet normal -0.792405 -0.609996 0
  outer loop
    vertex 0.03212553537525536 0.006837353944965104 0.01000000000000003
    vertex 0.03212553537525536 0.006837353944965104 0.02
    vertex 0.02949382592697839 0.01025603091744765 0.015
  endloop
endfacet
facet normal -0.792405 -0.609996 -0
  outer loop
    vertex 0.02686211647870142 0.01367470788993021 0.009999999999999972
    vertex 0.02686211647870142 0.01367470788993021 0
    vertex 0.02949382592697839 0.01025603091744765 0.005000000000000001
  endloop
endfacet
facet normal -0.792405 -0.609996 -1.02092e-15
  outer loop
    vertex 0.02686211647870142 0.01367470788993021 0.009999999999999972
    vertex 0.03212553537525536 0.006837353944965104 0.01000000000000003
    vertex 0.02949382592697839 0.01025603091744765 0.015
  endloop
endfacet
facet normal -0.792405 -0.609996 9.4239e-16
  outer loop
    vertex 0.03212553537525536 0.006837353944965104 0.01000000000000003
    vertex 0.02686211647870142 0.01367470788993021 0.009999999999999972
    vertex 0.02949382592697839 0.01025603091744765 0.005000000000000001
  endloop
endfacet
facet normal -0.792405 -0.609996 9.4239e-16
  outer loop
    vertex 0.03212553537525536 0.006837353944965104 0.02
    vertex 0.02686211647870142 0.01367470788993021 0.02
    vertex 0.02949382592697839 0.01025603091744765 0.015
  endloop
endfacet
facet normal -0.792405 -0.609996 -1.02092e-15
  outer loop
    vertex 0.02686211647870142 0.01367470788993021 0
    vertex 0.03212553537525536 0.006837353944965104 0
    vertex 0.02949382592697839 0.01025603091744765 0.005000000000000001
  endloop
endfacet
endsolid Created by Gmsh
