solid Created by Gmsh
facet normal -0.639376 -0.768894 9.28598e-16
  outer loop
    vertex 0.03907819196557306 0.05130874837268198 0.02
    vertex 0.0302635787912909 0.05863856956877941 0.02
    vertex 0.03467088537843198 0.05497365897073069 0.01427113702623908
  endloop
endfacet
facet normal -0.639376 -0.768894 -1.14558e-15
  outer loop
    vertex 0.0302635787912909 0.05863856956877941 0
    vertex 0.03907819196557306 0.05130874837268198 0
    vertex 0.03467088537843199 0.05497365897073068 0.00567573885030898
  endloop
endfacet
facet normal -0.639376 -0.768894 -0
  outer loop
    vertex 0.0302635787912909 0.05863856956877941 0.02
    vertex 0.0302635787912909 0.05863856956877941 0.009999999999999972
    vertex 0.03467088537843198 0.05497365897073069 0.01427113702623908
  endloop
endfacet
facet normal -0.639376 -0.768894 0
  outer loop
    vertex 0.03907819196557306 0.05130874837268198 0
    vertex 0.03907819196557306 0.05130874837268198 0.01000000000000003
    vertex 0.03467088537843199 0.05497365897073068 0.00567573885030898
  endloop
endfacet
facet normal -0.639376 -0.768894 2.09114e-16
  outer loop
    vertex 0.03467088537843198 0.05497365897073069 0.01427113702623908
    vertex 0.0302635787912909 0.05863856956877941 0.009999999999999972
    vertex 0.03467088537843199 0.05497365897073068 0.00567573885030898
  endloop
endfacet
facet normal -0.639376 -0.768894 2.06305e-16
  outer loop
    vertex 0.03907819196557306 0.05130874837268198 0.01000000000000003
    vertex 0.03467088537843198 0.05497365897073069 0.01427113702623908
    vertex 0.03467088537843199 0.05497365897073068 0.00567573885030898
  endloop
endfacet
facet normal -0.639376 -0.768894 -0
  outer loop
    vertex 0.0302635787912909 0.05863856956877941 0.009999999999999972
    vertex 0.0302635787912909 0.05863856956877941 0
    vertex 0.03467088537843199 0.05497365897073068 0.00567573885030898
  endloop
endfacet
facet normal -0.639376 -0.768894 0
  outer loop
    vertex 0.03907819196557306 0.05130874837268198 0.01000000000000003
    vertex 0.03907819196557306 0.05130874837268198 0.02
    vertex 0.03467088537843198 0.05497365897073069 0.01427113702623908
  endloop
endfacet
facet normal -0.929227 0.369508 0
  outer loop
    vertex 0.03907819196557306 0.05130874837268198 0.02
    vertex 0.03907819196557306 0.05130874837268198 0.009999999999999972
    vertex 0.03762083675936612 0.04764383777463327 0.015
  endloop
endfacet
facet normal -0.929227 0.369508 0
  outer loop
    vertex 0.03616348155315918 0.04397892717658455 0
    vertex 0.03616348155315918 0.04397892717658455 0.01000000000000003
    vertex 0.03762083675936612 0.04764383777463327 0.005
  endloop
endfacet
facet normal -0.929227 0.369508 0
  outer loop
    vertex 0.03907819196557306 0.05130874837268198 0.009999999999999972
    vertex 0.03907819196557306 0.05130874837268198 0
    vertex 0.03762083675936612 0.04764383777463327 0.005
  endloop
endfacet
facet normal -0.929227 0.369508 0
  outer loop
    vertex 0.03616348155315918 0.04397892717658455 0.01000000000000003
    vertex 0.03616348155315918 0.04397892717658455 0.02
    vertex 0.03762083675936612 0.04764383777463327 0.015
  endloop
endfacet
facet normal -0.929227 0.369508 0
  outer loop
    vertex 0.03616348155315918 0.04397892717658455 0.01000000000000003
    vertex 0.03907819196557306 0.05130874837268198 0.009999999999999972
    vertex 0.03762083675936612 0.04764383777463327 0.005
  endloop
endfacet
facet normal -0.929227 0.369508 0
  outer loop
    vertex 0.03907819196557306 0.05130874837268198 0.009999999999999972
    vertex 0.03616348155315918 0.04397892717658455 0.01000000000000003
    vertex 0.03762083675936612 0.04764383777463327 0.015
  endloop
endfacet
facet normal -0.929227 0.369508 0
  outer loop
    vertex 0.03907819196557306 0.05130874837268198 0
    vertex 0.03616348155315918 0.04397892717658455 0
    vertex 0.03762083675936612 0.04764383777463327 0.005
  endloop
endfacet
facet normal -0.929227 0.369508 0
  outer loop
    vertex 0.03616348155315918 0.04397892717658455 0.02
    vertex 0.03907819196557306 0.05130874837268198 0.02
    vertex 0.03762083675936612 0.04764383777463327 0.015
  endloop
endfacet
facet normal -0.707364 -0.70685 -5.23154e-16
  outer loop
    vertex 0.04348797533811198 0.03664910598048713 0.02
    vertex 0.03616348155315918 0.04397892717658455 0.02
    vertex 0.03982572844563558 0.04031401657853585 0.01500000000000001
  endloop
endfacet
facet normal -0.707364 -0.70685 4.5776e-16
  outer loop
    vertex 0.03616348155315918 0.04397892717658455 0
    vertex 0.04348797533811198 0.03664910598048713 0
    vertex 0.03982572844563558 0.04031401657853585 0.004999999999999987
  endloop
endfacet
facet normal -0.707364 -0.70685 -0
  outer loop
    vertex 0.03982572844563558 0.04031401657853585 0.01500000000000001
    vertex 0.03616348155315918 0.04397892717658455 0.009999999999999972
    vertex 0.03982572844563558 0.04031401657853585 0.004999999999999987
  endloop
endfacet
facet normal -0.707364 -0.70685 -0
  outer loop
    vertex 0.03616348155315918 0.04397892717658455 0.02
    vertex 0.03616348155315918 0.04397892717658455 0.009999999999999972
    vertex 0.03982572844563558 0.04031401657853585 0.01500000000000001
  endloop
endfacet
facet normal -0.707364 -0.70685 0
  outer loop
    vertex 0.04348797533811198 0.03664910598048713 0
    vertex 0.04348797533811198 0.03664910598048713 0.01000000000000003
    vertex 0.03982572844563558 0.04031401657853585 0.004999999999999987
  endloop
endfacet
facet normal -0.707364 -0.70685 0
  outer loop
    vertex 0.04348797533811198 0.03664910598048713 0.01000000000000003
    vertex 0.03982572844563558 0.04031401657853585 0.01500000000000001
    vertex 0.03982572844563558 0.04031401657853585 0.004999999999999987
  endloop
endfacet
facet normal -0.707364 -0.70685 -0
  outer loop
    vertex 0.03616348155315918 0.04397892717658455 0.009999999999999972
    vertex 0.03616348155315918 0.04397892717658455 0
    vertex 0.03982572844563558 0.04031401657853585 0.004999999999999987
  endloop
endfacet
facet normal -0.707364 -0.70685 0
  outer loop
    vertex 0.04348797533811198 0.03664910598048713 0.01000000000000003
    vertex 0.04348797533811198 0.03664910598048713 0.02
    vertex 0.03982572844563558 0.04031401657853585 0.01500000000000001
  endloop
endfacet
facet normal -0.679326 0.733836 -5.68798e-16
  outer loop
    vertex 0.04348797533811198 0.03664910598048713 0
    vertex 0.0355700009168151 0.0293192847843897 0
    vertex 0.03952898812746353 0.03298419538243841 0.005520616409829249
  endloop
endfacet
facet normal -0.679326 0.733836 6.85925e-16
  outer loop
    vertex 0.0355700009168151 0.0293192847843897 0.02
    vertex 0.04348797533811198 0.03664910598048713 0.02
    vertex 0.03952898812746354 0.03298419538243842 0.01450648773478912
  endloop
endfacet
facet normal -0.679326 0.733836 0
  outer loop
    vertex 0.04348797533811198 0.03664910598048713 0.02
    vertex 0.04348797533811198 0.03664910598048713 0.009999999999999972
    vertex 0.03952898812746354 0.03298419538243842 0.01450648773478912
  endloop
endfacet
facet normal -0.679326 0.733836 0
  outer loop
    vertex 0.0355700009168151 0.0293192847843897 0
    vertex 0.0355700009168151 0.0293192847843897 0.01000000000000003
    vertex 0.03952898812746353 0.03298419538243841 0.005520616409829249
  endloop
endfacet
facet normal -0.679326 0.733836 -6.989e-17
  outer loop
    vertex 0.04348797533811198 0.03664910598048713 0.009999999999999972
    vertex 0.03952898812746353 0.03298419538243841 0.005520616409829249
    vertex 0.03952898812746354 0.03298419538243842 0.01450648773478912
  endloop
endfacet
facet normal -0.679326 0.733836 -8.41852e-17
  outer loop
    vertex 0.03952898812746353 0.03298419538243841 0.005520616409829249
    vertex 0.0355700009168151 0.0293192847843897 0.01000000000000003
    vertex 0.03952898812746354 0.03298419538243842 0.01450648773478912
  endloop
endfacet
facet normal -0.679326 0.733836 0
  outer loop
    vertex 0.04348797533811198 0.03664910598048713 0.009999999999999972
    vertex 0.04348797533811198 0.03664910598048713 0
    vertex 0.03952898812746353 0.03298419538243841 0.005520616409829249
  endloop
endfacet
facet normal -0.679326 0.733836 0
  outer loop
    vertex 0.0355700009168151 0.0293192847843897 0.01000000000000003
    vertex 0.0355700009168151 0.0293192847843897 0.02
    vertex 0.03952898812746354 0.03298419538243842 0.01450648773478912
  endloop
endfacet
facet normal -0.524587 0.851357 0
  outer loop
    vertex 0.0355700009168151 0.0293192847843897 0.02
    vertex 0.0355700009168151 0.0293192847843897 0.009999999999999972
    vertex 0.03140653270046412 0.0267538473657556 0.01499999999999999
  endloop
endfacet
facet normal -0.524587 0.851357 0
  outer loop
    vertex 0.02367437744152658 0.02198946358829228 0
    vertex 0.02367437744152658 0.02198946358829228 0.01000000000000003
    vertex 0.02783784565787757 0.02455490100692638 0.004999999999999999
  endloop
endfacet
facet normal -0.524587 0.851357 0
  outer loop
    vertex 0.0355700009168151 0.0293192847843897 0.009999999999999972
    vertex 0.0355700009168151 0.0293192847843897 0
    vertex 0.03164444516996989 0.02690044378967755 0.004999999999999991
  endloop
endfacet
facet normal -0.524587 0.851357 0
  outer loop
    vertex 0.02367437744152658 0.02198946358829228 0.01000000000000003
    vertex 0.02367437744152658 0.02198946358829228 0.02
    vertex 0.0275999331883718 0.02440830458300443 0.015
  endloop
endfacet
facet normal -0.524587 0.851357 -2.90982e-16
  outer loop
    vertex 0.02962218917917083 0.02565437418634099 0.02
    vertex 0.0355700009168151 0.0293192847843897 0.02
    vertex 0.03140653270046412 0.0267538473657556 0.01499999999999999
  endloop
endfacet
facet normal -0.524587 0.851357 4.36473e-16
  outer loop
    vertex 0.02962218917917084 0.02565437418634099 0
    vertex 0.02367437744152658 0.02198946358829228 0
    vertex 0.02783784565787757 0.02455490100692638 0.004999999999999999
  endloop
endfacet
facet normal -0.524587 0.851357 3.87976e-16
  outer loop
    vertex 0.0355700009168151 0.0293192847843897 0
    vertex 0.02962218917917084 0.02565437418634099 0
    vertex 0.03164444516996989 0.02690044378967755 0.004999999999999991
  endloop
endfacet
facet normal -0.524587 0.851357 -7.27455e-16
  outer loop
    vertex 0.02367437744152658 0.02198946358829228 0.02
    vertex 0.02962218917917083 0.02565437418634099 0.02
    vertex 0.0275999331883718 0.02440830458300443 0.015
  endloop
endfacet
facet normal -0.524587 0.851357 -5.68324e-16
  outer loop
    vertex 0.02962218917917083 0.02565437418634099 0.02
    vertex 0.03140653270046412 0.0267538473657556 0.01499999999999999
    vertex 0.0275999331883718 0.02440830458300443 0.015
  endloop
endfacet
facet normal -0.524587 0.851357 3.40994e-16
  outer loop
    vertex 0.02962218917917084 0.02565437418634099 0
    vertex 0.02783784565787757 0.02455490100692638 0.004999999999999999
    vertex 0.03164444516996989 0.02690044378967755 0.004999999999999991
  endloop
endfacet
facet normal -0.524587 0.851357 -5.30436e-16
  outer loop
    vertex 0.0275999331883718 0.02440830458300443 0.015
    vertex 0.03140653270046412 0.0267538473657556 0.01499999999999999
    vertex 0.02962218917917084 0.02565437418634099 0.009999999999999998
  endloop
endfacet
facet normal -0.524587 0.851357 2.65218e-16
  outer loop
    vertex 0.03164444516996989 0.02690044378967755 0.004999999999999991
    vertex 0.02783784565787757 0.02455490100692638 0.004999999999999999
    vertex 0.02962218917917084 0.02565437418634099 0.009999999999999998
  endloop
endfacet
facet normal -0.524587 0.851357 0
  outer loop
    vertex 0.02367437744152658 0.02198946358829228 0.01000000000000003
    vertex 0.0275999331883718 0.02440830458300443 0.015
    vertex 0.02962218917917084 0.02565437418634099 0.009999999999999998
  endloop
endfacet
facet normal -0.524587 0.851357 -2.42485e-17
  outer loop
    vertex 0.02783784565787757 0.02455490100692638 0.004999999999999999
    vertex 0.02367437744152658 0.02198946358829228 0.01000000000000003
    vertex 0.02962218917917084 0.02565437418634099 0.009999999999999998
  endloop
endfacet
facet normal -0.524587 0.851357 -4.8497e-16
  outer loop
    vertex 0.03140653270046412 0.0267538473657556 0.01499999999999999
    vertex 0.0355700009168151 0.0293192847843897 0.009999999999999972
    vertex 0.02962218917917084 0.02565437418634099 0.009999999999999998
  endloop
endfacet
facet normal -0.524587 0.851357 0
  outer loop
    vertex 0.0355700009168151 0.0293192847843897 0.009999999999999972
    vertex 0.03164444516996989 0.02690044378967755 0.004999999999999991
    vertex 0.02962218917917084 0.02565437418634099 0.009999999999999998
  endloop
endfacet
facet normal -0.98602 0.166629 0
  outer loop
    vertex 0.02367437744152658 0.02198946358829228 0.02
    vertex 0.02367437744152658 0.02198946358829228 0.009999999999999972
    vertex 0.02305503719303149 0.01832455299024357 0.015
  endloop
endfacet
facet normal -0.98602 0.166629 0
  outer loop
    vertex 0.0224356969445364 0.01465964239219485 0
    vertex 0.0224356969445364 0.01465964239219485 0.01000000000000003
    vertex 0.02305503719303149 0.01832455299024357 0.005
  endloop
endfacet
facet normal -0.98602 0.166629 0
  outer loop
    vertex 0.02367437744152658 0.02198946358829228 0.009999999999999972
    vertex 0.02367437744152658 0.02198946358829228 0
    vertex 0.02305503719303149 0.01832455299024357 0.005
  endloop
endfacet
facet normal -0.98602 0.166629 0
  outer loop
    vertex 0.0224356969445364 0.01465964239219485 0.01000000000000003
    vertex 0.0224356969445364 0.01465964239219485 0.02
    vertex 0.02305503719303149 0.01832455299024357 0.015
  endloop
endfacet
facet normal -0.98602 0.166629 0
  outer loop
    vertex 0.0224356969445364 0.01465964239219485 0.01000000000000003
    vertex 0.02367437744152658 0.02198946358829228 0.009999999999999972
    vertex 0.02305503719303149 0.01832455299024357 0.005
  endloop
endfacet
facet normal -0.98602 0.166629 0
  outer loop
    vertex 0.02367437744152658 0.02198946358829228 0.009999999999999972
    vertex 0.0224356969445364 0.01465964239219485 0.01000000000000003
    vertex 0.02305503719303149 0.01832455299024357 0.015
  endloop
endfacet
facet normal -0.98602 0.166629 0
  outer loop
    vertex 0.0224356969445364 0.01465964239219485 0.02
    vertex 0.02367437744152658 0.02198946358829228 0.02
    vertex 0.02305503719303149 0.01832455299024357 0.015
  endloop
endfacet
facet normal -0.98602 0.166629 0
  outer loop
    vertex 0.02367437744152658 0.02198946358829228 0
    vertex 0.0224356969445364 0.01465964239219485 0
    vertex 0.02305503719303149 0.01832455299024357 0.005
  endloop
endfacet
facet normal -0.892123 -0.451793 0
  outer loop
    vertex 0.02614769908437916 0.007329821196097423 0
    vertex 0.02614769908437916 0.007329821196097423 0.01000000000000003
    vertex 0.02429169801445778 0.01099473179414614 0.005
  endloop
endfacet
facet normal -0.892123 -0.451793 -0
  outer loop
    vertex 0.0224356969445364 0.01465964239219485 0.02
    vertex 0.0224356969445364 0.01465964239219485 0.009999999999999972
    vertex 0.02429169801445778 0.01099473179414614 0.015
  endloop
endfacet
facet normal -0.892123 -0.451793 0
  outer loop
    vertex 0.02614769908437916 0.007329821196097423 0.01000000000000003
    vertex 0.02614769908437916 0.007329821196097423 0.02
    vertex 0.02429169801445778 0.01099473179414614 0.015
  endloop
endfacet
facet normal -0.892123 -0.451793 -0
  outer loop
    vertex 0.0224356969445364 0.01465964239219485 0.009999999999999972
    vertex 0.0224356969445364 0.01465964239219485 0
    vertex 0.02429169801445778 0.01099473179414614 0.005
  endloop
endfacet
facet normal -0.892123 -0.451793 4.53612e-16
  outer loop
    vertex 0.0224356969445364 0.01465964239219485 0
    vertex 0.02614769908437916 0.007329821196097423 0
    vertex 0.02429169801445778 0.01099473179414614 0.005
  endloop
endfacet
facet normal -0.892123 -0.451793 4.53612e-16
  outer loop
    vertex 0.0224356969445364 0.01465964239219485 0.009999999999999972
    vertex 0.02614769908437916 0.007329821196097423 0.01000000000000003
    vertex 0.02429169801445778 0.01099473179414614 0.015
  endloop
endfacet
facet normal -0.892123 -0.451793 -4.53612e-16
  outer loop
    vertex 0.02614769908437916 0.007329821196097423 0.02
    vertex 0.0224356969445364 0.01465964239219485 0.02
    vertex 0.02429169801445778 0.01099473179414614 0.015
  endloop
endfacet
facet normal -0.892123 -0.451793 -4.53612e-16
  outer loop
    vertex 0.02614769908437916 0.007329821196097423 0.01000000000000003
    vertex 0.0224356969445364 0.01465964239219485 0.009999999999999972
    vertex 0.02429169801445778 0.01099473179414614 0.005
  endloop
endfacet
endsolid Created by Gmsh
