solid Created by Gmsh
facet normal 0.994528 -0.104469 3.11063e-17
  outer loop
    vertex 0.01295197468395603 0.04714179792425671 0.02
    vertex 0.01326147310170328 0.05008816029452275 0.008510736195003121
    vertex 0.01418996835494503 0.05892724740532089 0.02
  endloop
endfacet
facet normal 0.994528 -0.104469 0
  outer loop
    vertex 0.01418996835494503 0.05892724740532089 0.009999999999999972
    vertex 0.01326147310170328 0.05008816029452275 0.008510736195003121
    vertex 0.01418996835494503 0.05892724740532089 0
  endloop
endfacet
facet normal 0.994528 -0.104469 0
  outer loop
    vertex 0.008 0 0
    vertex 0.008928495253241756 0.008839087110798134 0.008510736195003119
    vertex 0.008 0 0.01000000000000003
  endloop
endfacet
facet normal 0.994528 -0.104469 -6.71884e-17
  outer loop
    vertex 0.01418996835494503 0.05892724740532089 0
    vertex 0.01326147310170328 0.05008816029452275 0.008510736195003121
    vertex 0.01295197468395603 0.0471417979242567 0
  endloop
endfacet
facet normal 0.994528 -0.104469 -1.67971e-17
  outer loop
    vertex 0.009237993670989007 0.01178544948106418 0
    vertex 0.008928495253241756 0.008839087110798134 0.008510736195003119
    vertex 0.008 0 0
  endloop
endfacet
facet normal 0.994528 -0.104469 1.8891e-16
  outer loop
    vertex 0.01171398101296702 0.03535634844319253 0
    vertex 0.01228139477883698 0.04075801278868028 0.009751789365833855
    vertex 0.01109498417747252 0.02946362370266044 0.01
  endloop
endfacet
facet normal 0.994528 -0.104469 -1.25174e-16
  outer loop
    vertex 0.009908573576108052 0.01816923461664061 0.009751789365833855
    vertex 0.01109498417747252 0.02946362370266044 0.01
    vertex 0.01047598734197801 0.02357089896212836 0.02
  endloop
endfacet
facet normal 0.994528 -0.104469 1.35808e-16
  outer loop
    vertex 0.01171398101296702 0.03535634844319253 0
    vertex 0.01109498417747252 0.02946362370266044 0.01
    vertex 0.01047598734197801 0.02357089896212836 0
  endloop
endfacet
facet normal 0.994528 -0.104469 1.02616e-16
  outer loop
    vertex 0.01047598734197801 0.02357089896212836 0
    vertex 0.009908573576108052 0.01816923461664061 0.009751789365833855
    vertex 0.009237993670989007 0.01178544948106418 0
  endloop
endfacet
facet normal 0.994528 -0.104469 1.46594e-16
  outer loop
    vertex 0.01295197468395603 0.0471417979242567 0
    vertex 0.01228139477883698 0.04075801278868028 0.009751789365833855
    vertex 0.01171398101296702 0.03535634844319253 0
  endloop
endfacet
facet normal 0.994528 -0.104469 -5.00345e-17
  outer loop
    vertex 0.01047598734197801 0.02357089896212836 0.02
    vertex 0.01109498417747252 0.02946362370266044 0.01
    vertex 0.01171398101296702 0.03535634844319253 0.02
  endloop
endfacet
facet normal 0.994528 -0.104469 -1.47264e-17
  outer loop
    vertex 0.01109498417747252 0.02946362370266044 0.01
    vertex 0.01228139477883698 0.04075801278868028 0.009751789365833855
    vertex 0.01171398101296702 0.03535634844319253 0.02
  endloop
endfacet
facet normal 0.994528 -0.104469 -4.1848e-17
  outer loop
    vertex 0.009237993670989007 0.01178544948106419 0.02
    vertex 0.009908573576108052 0.01816923461664061 0.009751789365833855
    vertex 0.01047598734197801 0.02357089896212836 0.02
  endloop
endfacet
facet normal 0.994528 -0.104469 1.24681e-16
  outer loop
    vertex 0.01047598734197801 0.02357089896212836 0
    vertex 0.01109498417747252 0.02946362370266044 0.01
    vertex 0.009908573576108052 0.01816923461664061 0.009751789365833855
  endloop
endfacet
facet normal 0.994528 -0.104469 -6.2772e-17
  outer loop
    vertex 0.01171398101296702 0.03535634844319253 0.02
    vertex 0.01228139477883698 0.04075801278868028 0.009751789365833855
    vertex 0.01295197468395603 0.04714179792425671 0.02
  endloop
endfacet
facet normal 0.994528 -0.104469 1.2866e-16
  outer loop
    vertex 0.008 0 0.02
    vertex 0.008564809374486884 0.005376871066011882 0.01500000000000002
    vertex 0.009237993670989007 0.01178544948106419 0.02
  endloop
endfacet
facet normal 0.994528 -0.104469 8.13597e-18
  outer loop
    vertex 0.01228139477883698 0.04075801278868028 0.009751789365833855
    vertex 0.01326147310170328 0.05008816029452275 0.008510736195003121
    vertex 0.01295197468395603 0.04714179792425671 0.02
  endloop
endfacet
facet normal 0.994528 -0.104469 1.017e-16
  outer loop
    vertex 0.009237993670989007 0.01178544948106419 0.02
    vertex 0.008928495253241756 0.008839087110798134 0.008510736195003119
    vertex 0.009908573576108052 0.01816923461664061 0.009751789365833855
  endloop
endfacet
facet normal 0.994528 -0.104469 8.58159e-17
  outer loop
    vertex 0.009237993670989007 0.01178544948106419 0.02
    vertex 0.008564809374486884 0.005376871066011882 0.01500000000000002
    vertex 0.008928495253241756 0.008839087110798134 0.008510736195003119
  endloop
endfacet
facet normal 0.994528 -0.104469 2.02833e-17
  outer loop
    vertex 0.009908573576108052 0.01816923461664061 0.009751789365833855
    vertex 0.008928495253241756 0.008839087110798134 0.008510736195003119
    vertex 0.009237993670989007 0.01178544948106418 0
  endloop
endfacet
facet normal 0.994528 -0.104469 -4.05667e-17
  outer loop
    vertex 0.01295197468395603 0.0471417979242567 0
    vertex 0.01326147310170328 0.05008816029452275 0.008510736195003121
    vertex 0.01228139477883698 0.04075801278868028 0.009751789365833855
  endloop
endfacet
facet normal 0.994528 -0.104469 0
  outer loop
    vertex 0.008 0 0.01000000000000003
    vertex 0.008564809374486884 0.005376871066011882 0.01500000000000002
    vertex 0.008 0 0.02
  endloop
endfacet
facet normal 0.994528 -0.104469 -8.06848e-18
  outer loop
    vertex 0.008928495253241756 0.008839087110798134 0.008510736195003119
    vertex 0.008564809374486884 0.005376871066011882 0.01500000000000002
    vertex 0.008 0 0.01000000000000003
  endloop
endfacet
facet normal 0.994528 -0.104469 0
  outer loop
    vertex 0.01418996835494503 0.05892724740532089 0.02
    vertex 0.01326147310170328 0.05008816029452275 0.008510736195003121
    vertex 0.01418996835494503 0.05892724740532089 0.009999999999999972
  endloop
endfacet
endsolid Created by Gmsh
