solid Created by Gmsh
facet normal 1 0 0
  outer loop
    vertex 0.04 0.05822824728049784 0
    vertex 0.04 0.06 0
    vertex 0.04 0.06 0.009999999999999972
  endloop
endfacet
facet normal 1 0 0
  outer loop
    vertex 0.04 0.05822824728049784 0.01000000000000003
    vertex 0.04 0.06 0.02
    vertex 0.04 0.05822824728049784 0.02
  endloop
endfacet
facet normal 1 0 -0
  outer loop
    vertex 0.04 0.06 0.009999999999999972
    vertex 0.04 0.06 0.02
    vertex 0.04 0.05822824728049784 0.01000000000000003
  endloop
endfacet
facet normal 1 0 0
  outer loop
    vertex 0.04 0.05822824728049784 0
    vertex 0.04 0.06 0.009999999999999972
    vertex 0.04 0.05822824728049784 0.01000000000000003
  endloop
endfacet
facet normal 0.534941 0.844889 -0
  outer loop
    vertex 0.05149575816583232 0.05094971637043561 0
    vertex 0.04747224280779101 0.05349720218895739 0.005000000000000005
    vertex 0.05149575816583232 0.05094971637043561 0.01000000000000003
  endloop
endfacet
facet normal 0.534941 0.844889 0
  outer loop
    vertex 0.04 0.05822824728049784 0.02
    vertex 0.04402351535804132 0.05568076146197606 0.015
    vertex 0.04 0.05822824728049784 0.009999999999999972
  endloop
endfacet
facet normal 0.534941 0.844889 -0
  outer loop
    vertex 0.05149575816583232 0.05094971637043561 0.01000000000000003
    vertex 0.04770215797110766 0.05335163157075614 0.01500000000000001
    vertex 0.05149575816583232 0.05094971637043561 0.02
  endloop
endfacet
facet normal 0.534941 0.844889 0
  outer loop
    vertex 0.04 0.05822824728049784 0.009999999999999972
    vertex 0.04379360019472467 0.0558263320801773 0.004999999999999998
    vertex 0.04 0.05822824728049784 0
  endloop
endfacet
facet normal 0.534941 0.844889 1.22017e-15
  outer loop
    vertex 0.04574787908291616 0.05458898182546673 0
    vertex 0.04747224280779101 0.05349720218895739 0.005000000000000005
    vertex 0.05149575816583232 0.05094971637043561 0
  endloop
endfacet
facet normal 0.534941 0.844889 -3.7352e-16
  outer loop
    vertex 0.04574787908291617 0.05458898182546672 0.02
    vertex 0.04402351535804132 0.05568076146197606 0.015
    vertex 0.04 0.05822824728049784 0.02
  endloop
endfacet
facet normal 0.534941 0.844889 9.4625e-16
  outer loop
    vertex 0.04 0.05822824728049784 0
    vertex 0.04379360019472467 0.0558263320801773 0.004999999999999998
    vertex 0.04574787908291616 0.05458898182546673 0
  endloop
endfacet
facet normal 0.534941 0.844889 -6.97237e-16
  outer loop
    vertex 0.05149575816583232 0.05094971637043561 0.02
    vertex 0.04770215797110766 0.05335163157075614 0.01500000000000001
    vertex 0.04574787908291617 0.05458898182546672 0.02
  endloop
endfacet
facet normal 0.534941 0.844889 1.1478e-15
  outer loop
    vertex 0.04574787908291616 0.05458898182546673 0
    vertex 0.04379360019472467 0.0558263320801773 0.004999999999999998
    vertex 0.04747224280779101 0.05349720218895739 0.005000000000000005
  endloop
endfacet
facet normal 0.534941 0.844889 -4.47446e-16
  outer loop
    vertex 0.04574787908291617 0.05458898182546672 0.02
    vertex 0.04770215797110766 0.05335163157075614 0.01500000000000001
    vertex 0.04402351535804132 0.05568076146197606 0.015
  endloop
endfacet
facet normal 0.534941 0.844889 4.27992e-16
  outer loop
    vertex 0.04379360019472467 0.0558263320801773 0.004999999999999998
    vertex 0.04574787908291617 0.05458898182546672 0.01
    vertex 0.04747224280779101 0.05349720218895739 0.005000000000000005
  endloop
endfacet
facet normal 0.534941 0.844889 -7.39258e-16
  outer loop
    vertex 0.04770215797110766 0.05335163157075614 0.01500000000000001
    vertex 0.04574787908291617 0.05458898182546672 0.01
    vertex 0.04402351535804132 0.05568076146197606 0.015
  endloop
endfacet
facet normal 0.534941 0.844889 1.49408e-16
  outer loop
    vertex 0.04 0.05822824728049784 0.009999999999999972
    vertex 0.04574787908291617 0.05458898182546672 0.01
    vertex 0.04379360019472467 0.0558263320801773 0.004999999999999998
  endloop
endfacet
facet normal 0.534941 0.844889 -4.48224e-16
  outer loop
    vertex 0.04402351535804132 0.05568076146197606 0.015
    vertex 0.04574787908291617 0.05458898182546672 0.01
    vertex 0.04 0.05822824728049784 0.009999999999999972
  endloop
endfacet
facet normal 0.534941 0.844889 -9.96053e-17
  outer loop
    vertex 0.04747224280779101 0.05349720218895739 0.005000000000000005
    vertex 0.04574787908291617 0.05458898182546672 0.01
    vertex 0.05149575816583232 0.05094971637043561 0.01000000000000003
  endloop
endfacet
facet normal 0.534941 0.844889 -9.96053e-17
  outer loop
    vertex 0.05149575816583232 0.05094971637043561 0.01000000000000003
    vertex 0.04574787908291617 0.05458898182546672 0.01
    vertex 0.04770215797110766 0.05335163157075614 0.01500000000000001
  endloop
endfacet
facet normal 0.349267 -0.937023 0
  outer loop
    vertex 0.05149575816583232 0.05094971637043561 0.02
    vertex 0.0440767633768961 0.04818435574069418 0.01217859344132423
    vertex 0.05149575816583232 0.05094971637043561 0.009999999999999972
  endloop
endfacet
facet normal 0.349267 -0.937023 -6.23606e-17
  outer loop
    vertex 0.04173222455793686 0.0473104509154045 0.02
    vertex 0.0440767633768961 0.04818435574069418 0.01217859344132423
    vertex 0.05149575816583232 0.05094971637043561 0.02
  endloop
endfacet
facet normal 0.349267 -0.937023 4.84285e-16
  outer loop
    vertex 0.04173222455793685 0.04731045091540449 0
    vertex 0.03876726268844545 0.04620528922492814 0.007385759784267157
    vertex 0.03196869095004139 0.04367118546037338 0
  endloop
endfacet
facet normal 0.349267 -0.937023 0
  outer loop
    vertex 0.03196869095004139 0.04367118546037338 0
    vertex 0.03876726268844545 0.04620528922492814 0.007385759784267157
    vertex 0.03196869095004139 0.04367118546037338 0.01000000000000003
  endloop
endfacet
facet normal 0.349267 -0.937023 6.5033e-16
  outer loop
    vertex 0.05149575816583232 0.05094971637043561 0
    vertex 0.04661399136188459 0.04913008364292006 0.004999999999999986
    vertex 0.04173222455793685 0.04731045091540449 0
  endloop
endfacet
facet normal 0.349267 -0.937023 0
  outer loop
    vertex 0.03196869095004139 0.04367118546037338 0.02
    vertex 0.03765374960632325 0.04579023768147715 0.014021028182674
    vertex 0.04173222455793686 0.0473104509154045 0.02
  endloop
endfacet
facet normal 0.349267 -0.937023 0
  outer loop
    vertex 0.05149575816583232 0.05094971637043561 0.009999999999999972
    vertex 0.04661399136188459 0.04913008364292006 0.004999999999999986
    vertex 0.05149575816583232 0.05094971637043561 0
  endloop
endfacet
facet normal 0.349267 -0.937023 0
  outer loop
    vertex 0.03196869095004139 0.04367118546037338 0.01000000000000003
    vertex 0.03765374960632325 0.04579023768147715 0.014021028182674
    vertex 0.03196869095004139 0.04367118546037338 0.02
  endloop
endfacet
facet normal 0.349267 -0.937023 5.77168e-16
  outer loop
    vertex 0.04173222455793685 0.04731045091540449 0
    vertex 0.04661399136188459 0.04913008364292006 0.004999999999999986
    vertex 0.03876726268844545 0.04620528922492814 0.007385759784267157
  endloop
endfacet
facet normal 0.349267 -0.937023 -3.15738e-16
  outer loop
    vertex 0.03876726268844545 0.04620528922492814 0.007385759784267157
    vertex 0.04661399136188459 0.04913008364292006 0.004999999999999986
    vertex 0.0440767633768961 0.04818435574069418 0.01217859344132423
  endloop
endfacet
facet normal 0.349267 -0.937023 0
  outer loop
    vertex 0.03765374960632325 0.04579023768147715 0.014021028182674
    vertex 0.0440767633768961 0.04818435574069418 0.01217859344132423
    vertex 0.04173222455793686 0.0473104509154045 0.02
  endloop
endfacet
facet normal 0.349267 -0.937023 -3.32572e-16
  outer loop
    vertex 0.0440767633768961 0.04818435574069418 0.01217859344132423
    vertex 0.04661399136188459 0.04913008364292006 0.004999999999999986
    vertex 0.05149575816583232 0.05094971637043561 0.009999999999999972
  endloop
endfacet
facet normal 0.349267 -0.937023 -3.913e-16
  outer loop
    vertex 0.03765374960632325 0.04579023768147715 0.014021028182674
    vertex 0.03876726268844545 0.04620528922492814 0.007385759784267157
    vertex 0.0440767633768961 0.04818435574069418 0.01217859344132423
  endloop
endfacet
facet normal 0.349267 -0.937023 -3.38546e-16
  outer loop
    vertex 0.03196869095004139 0.04367118546037338 0.01000000000000003
    vertex 0.03876726268844545 0.04620528922492814 0.007385759784267157
    vertex 0.03765374960632325 0.04579023768147715 0.014021028182674
  endloop
endfacet
facet normal 0.957347 0.288941 0
  outer loop
    vertex 0.03196869095004139 0.04367118546037338 0.02
    vertex 0.03306707531720419 0.04003192000534227 0.015
    vertex 0.03196869095004139 0.04367118546037338 0.009999999999999972
  endloop
endfacet
facet normal 0.957347 0.288941 -0
  outer loop
    vertex 0.03416545968436699 0.03639265455031115 0
    vertex 0.03306707531720419 0.04003192000534227 0.005
    vertex 0.03416545968436699 0.03639265455031115 0.01000000000000003
  endloop
endfacet
facet normal 0.957347 0.288941 0
  outer loop
    vertex 0.03196869095004139 0.04367118546037338 0.009999999999999972
    vertex 0.03306707531720419 0.04003192000534227 0.005
    vertex 0.03196869095004139 0.04367118546037338 0
  endloop
endfacet
facet normal 0.957347 0.288941 -0
  outer loop
    vertex 0.03416545968436699 0.03639265455031115 0.01000000000000003
    vertex 0.03306707531720419 0.04003192000534227 0.015
    vertex 0.03416545968436699 0.03639265455031115 0.02
  endloop
endfacet
facet normal 0.957347 0.288941 0
  outer loop
    vertex 0.03416545968436699 0.03639265455031115 0.02
    vertex 0.03306707531720419 0.04003192000534227 0.015
    vertex 0.03196869095004139 0.04367118546037338 0.02
  endloop
endfacet
facet normal 0.957347 0.288941 0
  outer loop
    vertex 0.03416545968436699 0.03639265455031115 0.01000000000000003
    vertex 0.03306707531720419 0.04003192000534227 0.005
    vertex 0.03196869095004139 0.04367118546037338 0.009999999999999972
  endloop
endfacet
facet normal 0.957347 0.288941 0
  outer loop
    vertex 0.03196869095004139 0.04367118546037338 0.009999999999999972
    vertex 0.03306707531720419 0.04003192000534227 0.015
    vertex 0.03416545968436699 0.03639265455031115 0.01000000000000003
  endloop
endfacet
facet normal 0.957347 0.288941 0
  outer loop
    vertex 0.03196869095004139 0.04367118546037338 0
    vertex 0.03306707531720419 0.04003192000534227 0.005
    vertex 0.03416545968436699 0.03639265455031115 0
  endloop
endfacet
facet normal 0.660801 0.750562 -4.45748e-16
  outer loop
    vertex 0.03416545968436699 0.03639265455031115 0
    vertex 0.03829907122840732 0.03275338909528004 0.005520616409829228
    vertex 0.04243268277244765 0.02911412364024892 0
  endloop
endfacet
facet normal 0.660801 0.750562 5.03941e-16
  outer loop
    vertex 0.04243268277244765 0.02911412364024892 0.02
    vertex 0.03829907122840732 0.03275338909528004 0.01450648773478912
    vertex 0.03416545968436699 0.03639265455031115 0.02
  endloop
endfacet
facet normal 0.660801 0.750562 -0
  outer loop
    vertex 0.03829907122840732 0.03275338909528004 0.005520616409829228
    vertex 0.03829907122840732 0.03275338909528004 0.01450648773478912
    vertex 0.04243268277244765 0.02911412364024892 0.01000000000000003
  endloop
endfacet
facet normal 0.660801 0.750562 0
  outer loop
    vertex 0.03416545968436699 0.03639265455031115 0.009999999999999972
    vertex 0.03829907122840732 0.03275338909528004 0.01450648773478912
    vertex 0.03829907122840732 0.03275338909528004 0.005520616409829228
  endloop
endfacet
facet normal 0.660801 0.750562 0
  outer loop
    vertex 0.03416545968436699 0.03639265455031115 0.02
    vertex 0.03829907122840732 0.03275338909528004 0.01450648773478912
    vertex 0.03416545968436699 0.03639265455031115 0.009999999999999972
  endloop
endfacet
facet normal 0.660801 0.750562 -0
  outer loop
    vertex 0.04243268277244765 0.02911412364024892 0
    vertex 0.03829907122840732 0.03275338909528004 0.005520616409829228
    vertex 0.04243268277244765 0.02911412364024892 0.01000000000000003
  endloop
endfacet
facet normal 0.660801 0.750562 -0
  outer loop
    vertex 0.04243268277244765 0.02911412364024892 0.01000000000000003
    vertex 0.03829907122840732 0.03275338909528004 0.01450648773478912
    vertex 0.04243268277244765 0.02911412364024892 0.02
  endloop
endfacet
facet normal 0.660801 0.750562 0
  outer loop
    vertex 0.03416545968436699 0.03639265455031115 0.009999999999999972
    vertex 0.03829907122840732 0.03275338909528004 0.005520616409829228
    vertex 0.03416545968436699 0.03639265455031115 0
  endloop
endfacet
facet normal 0.831125 -0.556085 0
  outer loop
    vertex 0.04243268277244765 0.02911412364024892 0.02
    vertex 0.03999774030859129 0.02547485818521781 0.015
    vertex 0.04243268277244765 0.02911412364024892 0.009999999999999972
  endloop
endfacet
facet normal 0.831125 -0.556085 0
  outer loop
    vertex 0.03756279784473493 0.02183559273018669 0
    vertex 0.03999774030859129 0.02547485818521781 0.005
    vertex 0.03756279784473493 0.02183559273018669 0.01000000000000003
  endloop
endfacet
facet normal 0.831125 -0.556085 0
  outer loop
    vertex 0.04243268277244765 0.02911412364024892 0.009999999999999972
    vertex 0.03999774030859129 0.02547485818521781 0.005
    vertex 0.04243268277244765 0.02911412364024892 0
  endloop
endfacet
facet normal 0.831125 -0.556085 0
  outer loop
    vertex 0.03756279784473493 0.02183559273018669 0.01000000000000003
    vertex 0.03999774030859129 0.02547485818521781 0.015
    vertex 0.03756279784473493 0.02183559273018669 0.02
  endloop
endfacet
facet normal 0.831125 -0.556085 0
  outer loop
    vertex 0.03756279784473493 0.02183559273018669 0.01000000000000003
    vertex 0.03999774030859129 0.02547485818521781 0.005
    vertex 0.04243268277244765 0.02911412364024892 0.009999999999999972
  endloop
endfacet
facet normal 0.831125 -0.556085 0
  outer loop
    vertex 0.04243268277244765 0.02911412364024892 0.009999999999999972
    vertex 0.03999774030859129 0.02547485818521781 0.015
    vertex 0.03756279784473493 0.02183559273018669 0.01000000000000003
  endloop
endfacet
facet normal 0.831125 -0.556085 0
  outer loop
    vertex 0.04243268277244765 0.02911412364024892 0
    vertex 0.03999774030859129 0.02547485818521781 0.005
    vertex 0.03756279784473493 0.02183559273018669 0
  endloop
endfacet
facet normal 0.831125 -0.556085 0
  outer loop
    vertex 0.03756279784473493 0.02183559273018669 0.02
    vertex 0.03999774030859129 0.02547485818521781 0.015
    vertex 0.04243268277244765 0.02911412364024892 0.02
  endloop
endfacet
facet normal 0.975816 -0.218592 0
  outer loop
    vertex 0.03756279784473493 0.02183559273018669 0.02
    vertex 0.03674756798822303 0.01819632727515558 0.015
    vertex 0.03756279784473493 0.02183559273018669 0.009999999999999972
  endloop
endfacet
facet normal 0.975816 -0.218592 0
  outer loop
    vertex 0.03593233813171112 0.01455706182012446 0
    vertex 0.03674756798822303 0.01819632727515558 0.005
    vertex 0.03593233813171112 0.01455706182012446 0.01000000000000003
  endloop
endfacet
facet normal 0.975816 -0.218592 0
  outer loop
    vertex 0.03756279784473493 0.02183559273018669 0.009999999999999972
    vertex 0.03674756798822303 0.01819632727515558 0.005
    vertex 0.03756279784473493 0.02183559273018669 0
  endloop
endfacet
facet normal 0.975816 -0.218592 0
  outer loop
    vertex 0.03593233813171112 0.01455706182012446 0.01000000000000003
    vertex 0.03674756798822303 0.01819632727515558 0.015
    vertex 0.03593233813171112 0.01455706182012446 0.02
  endloop
endfacet
facet normal 0.975816 -0.218592 -1.36272e-15
  outer loop
    vertex 0.03756279784473493 0.02183559273018669 0
    vertex 0.03674756798822303 0.01819632727515558 0.005
    vertex 0.03593233813171112 0.01455706182012446 0
  endloop
endfacet
facet normal 0.975816 -0.218592 1.34001e-15
  outer loop
    vertex 0.03593233813171112 0.01455706182012446 0.02
    vertex 0.03674756798822303 0.01819632727515558 0.015
    vertex 0.03756279784473493 0.02183559273018669 0.02
  endloop
endfacet
facet normal 0.975816 -0.218592 1.34001e-15
  outer loop
    vertex 0.03593233813171112 0.01455706182012446 0.01000000000000003
    vertex 0.03674756798822303 0.01819632727515558 0.005
    vertex 0.03756279784473493 0.02183559273018669 0.009999999999999972
  endloop
endfacet
facet normal 0.975816 -0.218592 -1.36272e-15
  outer loop
    vertex 0.03756279784473493 0.02183559273018669 0.009999999999999972
    vertex 0.03674756798822303 0.01819632727515558 0.015
    vertex 0.03593233813171112 0.01455706182012446 0.01000000000000003
  endloop
endfacet
facet normal 0.897471 -0.441074 0
  outer loop
    vertex 0.03593233813171112 0.01455706182012446 0.02
    vertex 0.03414377475127096 0.01091779636509335 0.015
    vertex 0.03593233813171112 0.01455706182012446 0.009999999999999972
  endloop
endfacet
facet normal 0.897471 -0.441074 0
  outer loop
    vertex 0.03235521137083081 0.007278530910062232 0
    vertex 0.03414377475127096 0.01091779636509335 0.005
    vertex 0.03235521137083081 0.007278530910062232 0.01000000000000003
  endloop
endfacet
facet normal 0.897471 -0.441074 0
  outer loop
    vertex 0.03593233813171112 0.01455706182012446 0.009999999999999972
    vertex 0.03414377475127096 0.01091779636509335 0.005
    vertex 0.03593233813171112 0.01455706182012446 0
  endloop
endfacet
facet normal 0.897471 -0.441074 0
  outer loop
    vertex 0.03235521137083081 0.007278530910062232 0.01000000000000003
    vertex 0.03414377475127096 0.01091779636509335 0.015
    vertex 0.03235521137083081 0.007278530910062232 0.02
  endloop
endfacet
facet normal 0.897471 -0.441074 -7.51986e-16
  outer loop
    vertex 0.03235521137083081 0.007278530910062232 0.01000000000000003
    vertex 0.03414377475127096 0.01091779636509335 0.005
    vertex 0.03593233813171112 0.01455706182012446 0.009999999999999972
  endloop
endfacet
facet normal 0.897471 -0.441074 7.93762e-16
  outer loop
    vertex 0.03593233813171112 0.01455706182012446 0.009999999999999972
    vertex 0.03414377475127096 0.01091779636509335 0.015
    vertex 0.03235521137083081 0.007278530910062232 0.01000000000000003
  endloop
endfacet
facet normal 0.897471 -0.441074 7.93762e-16
  outer loop
    vertex 0.03593233813171112 0.01455706182012446 0
    vertex 0.03414377475127096 0.01091779636509335 0.005
    vertex 0.03235521137083081 0.007278530910062232 0
  endloop
endfacet
facet normal 0.897471 -0.441074 -7.51986e-16
  outer loop
    vertex 0.03235521137083081 0.007278530910062232 0.02
    vertex 0.03414377475127096 0.01091779636509335 0.015
    vertex 0.03593233813171112 0.01455706182012446 0.02
  endloop
endfacet
endsolid Created by Gmsh
