solid Created by Gmsh
facet normal 0.999998 -0.00221891 0
  outer loop
    vertex 0.008106698095794361 0.04808570426627953 0.02
    vertex 0.008086692202832918 0.03906963471635209 0.01138711509489411
    vertex 0.008106698095794361 0.04808570426627953 0.009999999999999972
  endloop
endfacet
facet normal 0.999998 -0.00221891 0
  outer loop
    vertex 0.008 0 0
    vertex 0.008020005892961443 0.009016069549927388 0.008612884905105825
    vertex 0.008 0 0.01000000000000003
  endloop
endfacet
facet normal 0.999998 -0.00221891 1.20155e-17
  outer loop
    vertex 0.008080023571845771 0.03606427819970967 0.02
    vertex 0.008086692202832918 0.03906963471635209 0.01138711509489411
    vertex 0.008106698095794361 0.04808570426627953 0.02
  endloop
endfacet
facet normal 0.999998 -0.00221891 -8.94773e-19
  outer loop
    vertex 0.00802667452394859 0.01202142606656986 0
    vertex 0.008020005892961443 0.009016069549927388 0.008612884905105825
    vertex 0.008 0 0
  endloop
endfacet
facet normal 0.999998 -0.00221891 4.39527e-17
  outer loop
    vertex 0.008053349047897181 0.02404285213313983 0.02
    vertex 0.008065574871373618 0.02955267241365094 0.01023118584914902
    vertex 0.008080023571845771 0.03606427819970967 0.02
  endloop
endfacet
facet normal 0.999998 -0.00221891 -6.89123e-17
  outer loop
    vertex 0.00802667452394859 0.01202142606656992 0.02
    vertex 0.0080409379846711 0.01844954972716627 0.009807345125709141
    vertex 0.008053349047897181 0.02404285213313983 0.02
  endloop
endfacet
facet normal 0.999998 -0.00221891 -1.01531e-17
  outer loop
    vertex 0.008053349047897181 0.02404285213313983 0.02
    vertex 0.0080409379846711 0.01844954972716627 0.009807345125709141
    vertex 0.008065574871373618 0.02955267241365094 0.01023118584914902
  endloop
endfacet
facet normal 0.999998 -0.00221891 -2.10908e-17
  outer loop
    vertex 0.008080023571845771 0.03606427819970961 0
    vertex 0.008065574871373618 0.02955267241365094 0.01023118584914902
    vertex 0.008053349047897181 0.0240428521331397 0
  endloop
endfacet
facet normal 0.999998 -0.00221891 9.3173e-17
  outer loop
    vertex 0.008053349047897181 0.0240428521331397 0
    vertex 0.0080409379846711 0.01844954972716627 0.009807345125709141
    vertex 0.00802667452394859 0.01202142606656986 0
  endloop
endfacet
facet normal 0.999998 -0.00221891 3.78265e-17
  outer loop
    vertex 0.008065574871373618 0.02955267241365094 0.01023118584914902
    vertex 0.0080409379846711 0.01844954972716627 0.009807345125709141
    vertex 0.008053349047897181 0.0240428521331397 0
  endloop
endfacet
facet normal 0.999998 -0.00221891 -4.55098e-17
  outer loop
    vertex 0.008106698095794361 0.04808570426627953 0
    vertex 0.008094892568004219 0.04276529893197824 0.0051769279457773
    vertex 0.008080023571845771 0.03606427819970961 0
  endloop
endfacet
facet normal 0.999998 -0.00221891 -4.84871e-17
  outer loop
    vertex 0.008 0 0.02
    vertex 0.008011805527790142 0.005320405334301288 0.01482307205422269
    vertex 0.00802667452394859 0.01202142606656992 0.02
  endloop
endfacet
facet normal 0.999998 -0.00221891 -1.30653e-17
  outer loop
    vertex 0.00802667452394859 0.01202142606656992 0.02
    vertex 0.008020005892961443 0.009016069549927388 0.008612884905105825
    vertex 0.0080409379846711 0.01844954972716627 0.009807345125709141
  endloop
endfacet
facet normal 0.999998 -0.00221891 -5.80383e-18
  outer loop
    vertex 0.008080023571845771 0.03606427819970961 0
    vertex 0.008086692202832918 0.03906963471635209 0.01138711509489411
    vertex 0.008065574871373618 0.02955267241365094 0.01023118584914902
  endloop
endfacet
facet normal 0.999998 -0.00221891 2.48371e-17
  outer loop
    vertex 0.00802667452394859 0.01202142606656992 0.02
    vertex 0.008011805527790142 0.005320405334301288 0.01482307205422269
    vertex 0.008020005892961443 0.009016069549927388 0.008612884905105825
  endloop
endfacet
facet normal 0.999998 -0.00221891 1.1656e-17
  outer loop
    vertex 0.008080023571845771 0.03606427819970961 0
    vertex 0.008094892568004219 0.04276529893197824 0.0051769279457773
    vertex 0.008086692202832918 0.03906963471635209 0.01138711509489411
  endloop
endfacet
facet normal 0.999998 -0.00221891 2.23053e-17
  outer loop
    vertex 0.008065574871373618 0.02955267241365094 0.01023118584914902
    vertex 0.008086692202832918 0.03906963471635209 0.01138711509489411
    vertex 0.008080023571845771 0.03606427819970967 0.02
  endloop
endfacet
facet normal 0.999998 -0.00221891 3.11998e-17
  outer loop
    vertex 0.0080409379846711 0.01844954972716627 0.009807345125709141
    vertex 0.008020005892961443 0.009016069549927388 0.008612884905105825
    vertex 0.00802667452394859 0.01202142606656986 0
  endloop
endfacet
facet normal 0.999998 -0.00221891 0
  outer loop
    vertex 0.008106698095794361 0.04808570426627953 0.009999999999999972
    vertex 0.008094892568004219 0.04276529893197824 0.0051769279457773
    vertex 0.008106698095794361 0.04808570426627953 0
  endloop
endfacet
facet normal 0.999998 -0.00221891 0
  outer loop
    vertex 0.008 0 0.01000000000000003
    vertex 0.008011805527790142 0.005320405334301288 0.01482307205422269
    vertex 0.008 0 0.02
  endloop
endfacet
facet normal 0.999998 -0.00221891 4.16312e-17
  outer loop
    vertex 0.008086692202832918 0.03906963471635209 0.01138711509489411
    vertex 0.008094892568004219 0.04276529893197824 0.0051769279457773
    vertex 0.008106698095794361 0.04808570426627953 0.009999999999999972
  endloop
endfacet
facet normal 0.999998 -0.00221891 5.62021e-17
  outer loop
    vertex 0.008020005892961443 0.009016069549927388 0.008612884905105825
    vertex 0.008011805527790142 0.005320405334301288 0.01482307205422269
    vertex 0.008 0 0.01000000000000003
  endloop
endfacet
endsolid Created by Gmsh
