solid Created by Gmsh
facet normal 0.993474 -0.11406 0
  outer loop
    vertex 0.01467449120387006 0.05813540919681067 0.02
    vertex 0.01367331752328955 0.04941509781728907 0.01157572536468883
    vertex 0.01467449120387006 0.05813540919681067 0.009999999999999972
  endloop
endfacet
facet normal 0.993474 -0.11406 0
  outer loop
    vertex 0.008 0 0
    vertex 0.009001173680580508 0.008720311379521596 0.00842427463531116
    vertex 0.008 0 0.01000000000000003
  endloop
endfacet
facet normal 0.993474 -0.11406 4.2956e-17
  outer loop
    vertex 0.01333959296309605 0.04650832735744854 0.02
    vertex 0.01367331752328955 0.04941509781728907 0.01157572536468883
    vertex 0.01467449120387006 0.05813540919681067 0.02
  endloop
endfacet
facet normal 0.993474 -0.11406 1.37459e-16
  outer loop
    vertex 0.009334898240774013 0.01162708183936213 0
    vertex 0.009001173680580508 0.008720311379521596 0.00842427463531116
    vertex 0.008 0 0
  endloop
endfacet
facet normal 0.993474 -0.11406 -7.45005e-18
  outer loop
    vertex 0.01005796812119327 0.01792508450234996 0.009737379105885194
    vertex 0.01133724560193503 0.02906770459840534 0.01
    vertex 0.01066979648154803 0.02325416367872428 0.02
  endloop
endfacet
facet normal 0.993474 -0.11406 1.72284e-16
  outer loop
    vertex 0.01066979648154803 0.02325416367872427 0
    vertex 0.01133724560193503 0.02906770459840534 0.01
    vertex 0.01005796812119327 0.01792508450234996 0.009737379105885194
  endloop
endfacet
facet normal 0.993474 -0.11406 1.56451e-16
  outer loop
    vertex 0.01261652308267679 0.04021032469446071 0.01026262089411481
    vertex 0.01133724560193503 0.02906770459840534 0.01
    vertex 0.01200469472232204 0.03488124551808639 0
  endloop
endfacet
facet normal 0.993474 -0.11406 -1.4122e-16
  outer loop
    vertex 0.01200469472232204 0.03488124551808641 0.02
    vertex 0.01261652308267679 0.04021032469446071 0.01026262089411481
    vertex 0.01333959296309605 0.04650832735744854 0.02
  endloop
endfacet
facet normal 0.993474 -0.11406 1.73699e-16
  outer loop
    vertex 0.01200469472232204 0.03488124551808639 0
    vertex 0.01133724560193503 0.02906770459840534 0.01
    vertex 0.01066979648154803 0.02325416367872427 0
  endloop
endfacet
facet normal 0.993474 -0.11406 1.12836e-16
  outer loop
    vertex 0.01333959296309605 0.04650832735744852 0
    vertex 0.01261652308267679 0.04021032469446071 0.01026262089411481
    vertex 0.01200469472232204 0.03488124551808639 0
  endloop
endfacet
facet normal 0.993474 -0.11406 -8.68495e-17
  outer loop
    vertex 0.01066979648154803 0.02325416367872428 0.02
    vertex 0.01133724560193503 0.02906770459840534 0.01
    vertex 0.01200469472232204 0.03488124551808641 0.02
  endloop
endfacet
facet normal 0.993474 -0.11406 -1.79941e-16
  outer loop
    vertex 0.01200469472232204 0.03488124551808641 0.02
    vertex 0.01133724560193503 0.02906770459840534 0.01
    vertex 0.01261652308267679 0.04021032469446071 0.01026262089411481
  endloop
endfacet
facet normal 0.993474 -0.11406 2.8209e-17
  outer loop
    vertex 0.009334898240774013 0.01162708183936215 0.02
    vertex 0.01005796812119327 0.01792508450234996 0.009737379105885194
    vertex 0.01066979648154803 0.02325416367872428 0.02
  endloop
endfacet
facet normal 0.993474 -0.11406 1.18922e-16
  outer loop
    vertex 0.01066979648154803 0.02325416367872427 0
    vertex 0.01005796812119327 0.01792508450234996 0.009737379105885194
    vertex 0.009334898240774013 0.01162708183936213 0
  endloop
endfacet
facet normal 0.993474 -0.11406 2.45731e-17
  outer loop
    vertex 0.009334898240774013 0.01162708183936215 0.02
    vertex 0.009001173680580508 0.008720311379521596 0.00842427463531116
    vertex 0.01005796812119327 0.01792508450234996 0.009737379105885194
  endloop
endfacet
facet normal 0.993474 -0.11406 -2.45731e-17
  outer loop
    vertex 0.01333959296309605 0.04650832735744852 0
    vertex 0.01367331752328955 0.04941509781728907 0.01157572536468883
    vertex 0.01261652308267679 0.04021032469446071 0.01026262089411481
  endloop
endfacet
facet normal 0.993474 -0.11406 1.44749e-16
  outer loop
    vertex 0.01467449120387006 0.05813540919681067 0
    vertex 0.01405539380039947 0.05274301601145793 0.004999999999999987
    vertex 0.01333959296309605 0.04650832735744852 0
  endloop
endfacet
facet normal 0.993474 -0.11406 -1.30274e-16
  outer loop
    vertex 0.008 0 0.02
    vertex 0.008619097403470589 0.005392393185352746 0.01500000000000001
    vertex 0.009334898240774013 0.01162708183936215 0.02
  endloop
endfacet
facet normal 0.993474 -0.11406 2.19001e-17
  outer loop
    vertex 0.009334898240774013 0.01162708183936215 0.02
    vertex 0.008619097403470589 0.005392393185352746 0.01500000000000001
    vertex 0.009001173680580508 0.008720311379521596 0.00842427463531116
  endloop
endfacet
facet normal 0.993474 -0.11406 -8.76002e-17
  outer loop
    vertex 0.01333959296309605 0.04650832735744852 0
    vertex 0.01405539380039947 0.05274301601145793 0.004999999999999987
    vertex 0.01367331752328955 0.04941509781728907 0.01157572536468883
  endloop
endfacet
facet normal 0.993474 -0.11406 1.24115e-16
  outer loop
    vertex 0.01005796812119327 0.01792508450234996 0.009737379105885194
    vertex 0.009001173680580508 0.008720311379521596 0.00842427463531116
    vertex 0.009334898240774013 0.01162708183936213 0
  endloop
endfacet
facet normal 0.993474 -0.11406 2.06859e-17
  outer loop
    vertex 0.01261652308267679 0.04021032469446071 0.01026262089411481
    vertex 0.01367331752328955 0.04941509781728907 0.01157572536468883
    vertex 0.01333959296309605 0.04650832735744854 0.02
  endloop
endfacet
facet normal 0.993474 -0.11406 0
  outer loop
    vertex 0.01467449120387006 0.05813540919681067 0.009999999999999972
    vertex 0.01405539380039947 0.05274301601145793 0.004999999999999987
    vertex 0.01467449120387006 0.05813540919681067 0
  endloop
endfacet
facet normal 0.993474 -0.11406 0
  outer loop
    vertex 0.008 0 0.01000000000000003
    vertex 0.008619097403470589 0.005392393185352746 0.01500000000000001
    vertex 0.008 0 0.02
  endloop
endfacet
facet normal 0.993474 -0.11406 -1.69598e-16
  outer loop
    vertex 0.01367331752328955 0.04941509781728907 0.01157572536468883
    vertex 0.01405539380039947 0.05274301601145793 0.004999999999999987
    vertex 0.01467449120387006 0.05813540919681067 0.009999999999999972
  endloop
endfacet
facet normal 0.993474 -0.11406 9.69132e-17
  outer loop
    vertex 0.009001173680580508 0.008720311379521596 0.00842427463531116
    vertex 0.008619097403470589 0.005392393185352746 0.01500000000000001
    vertex 0.008 0 0.01000000000000003
  endloop
endfacet
endsolid Created by Gmsh
