solid Created by Gmsh
facet normal 1 0 0
  outer loop
    vertex 0.04 0.05721745686255057 0
    vertex 0.04 0.06 0
    vertex 0.04 0.06 0.009999999999999972
  endloop
endfacet
facet normal 1 0 0
  outer loop
    vertex 0.04 0.05721745686255057 0.01000000000000003
    vertex 0.04 0.06 0.02
    vertex 0.04 0.05721745686255057 0.02
  endloop
endfacet
facet normal 1 0 -0
  outer loop
    vertex 0.04 0.06 0.009999999999999972
    vertex 0.04 0.06 0.02
    vertex 0.04 0.05721745686255057 0.01000000000000003
  endloop
endfacet
facet normal 1 0 0
  outer loop
    vertex 0.04 0.05721745686255057 0
    vertex 0.04 0.06 0.009999999999999972
    vertex 0.04 0.05721745686255057 0.01000000000000003
  endloop
endfacet
facet normal 0.540001 0.841664 -1.02324e-16
  outer loop
    vertex 0.04557381499575806 0.05364136580864116 0
    vertex 0.04 0.05721745686255057 0.009999999999999972
    vertex 0.05114762999151612 0.05006527475473175 0.01000000000000003
  endloop
endfacet
facet normal 0.540001 0.841664 -1.02324e-16
  outer loop
    vertex 0.05114762999151612 0.05006527475473175 0.01000000000000003
    vertex 0.04 0.05721745686255057 0.009999999999999972
    vertex 0.04557381499575806 0.05364136580864116 0.02
  endloop
endfacet
facet normal 0.540001 0.841664 0
  outer loop
    vertex 0.04557381499575806 0.05364136580864116 0
    vertex 0.04 0.05721745686255057 0
    vertex 0.04 0.05721745686255057 0.009999999999999972
  endloop
endfacet
facet normal 0.540001 0.841664 -0
  outer loop
    vertex 0.04 0.05721745686255057 0.009999999999999972
    vertex 0.04 0.05721745686255057 0.02
    vertex 0.04557381499575806 0.05364136580864116 0.02
  endloop
endfacet
facet normal 0.540001 0.841664 0
  outer loop
    vertex 0.05114762999151612 0.05006527475473175 0.01000000000000003
    vertex 0.05114762999151612 0.05006527475473175 0
    vertex 0.04557381499575806 0.05364136580864116 0
  endloop
endfacet
facet normal 0.540001 0.841664 0
  outer loop
    vertex 0.04557381499575806 0.05364136580864116 0.02
    vertex 0.05114762999151612 0.05006527475473175 0.02
    vertex 0.05114762999151612 0.05006527475473175 0.01000000000000003
  endloop
endfacet
facet normal 0.353627 -0.935386 -1.0078e-15
  outer loop
    vertex 0.04168843710501373 0.04648918370082234 0.02
    vertex 0.04448274281453785 0.04754558373089004 0.01268616195120625
    vertex 0.05114762999151612 0.05006527475473175 0.02
  endloop
endfacet
facet normal 0.353627 -0.935386 0
  outer loop
    vertex 0.03222924421851132 0.04291309264691293 0
    vertex 0.03934982431693101 0.04560506046003779 0.007584928398371575
    vertex 0.03222924421851132 0.04291309264691293 0.01000000000000003
  endloop
endfacet
facet normal 0.353627 -0.935386 8.83437e-16
  outer loop
    vertex 0.04168843710501371 0.04648918370082233 0
    vertex 0.03934982431693101 0.04560506046003779 0.007584928398371575
    vertex 0.03222924421851132 0.04291309264691293 0
  endloop
endfacet
facet normal 0.353627 -0.935386 0
  outer loop
    vertex 0.05114762999151612 0.05006527475473175 0.02
    vertex 0.04448274281453785 0.04754558373089004 0.01268616195120625
    vertex 0.05114762999151612 0.05006527475473175 0.009999999999999972
  endloop
endfacet
facet normal 0.353627 -0.935386 -7.8468e-16
  outer loop
    vertex 0.03222924421851132 0.04291309264691293 0.02
    vertex 0.03746822339110502 0.04489371264013282 0.01444929866840741
    vertex 0.04168843710501373 0.04648918370082234 0.02
  endloop
endfacet
facet normal 0.353627 -0.935386 1.24876e-15
  outer loop
    vertex 0.05114762999151612 0.05006527475473175 0
    vertex 0.04560413432446005 0.04796953091059974 0.005902566267649637
    vertex 0.04168843710501371 0.04648918370082233 0
  endloop
endfacet
facet normal 0.353627 -0.935386 0
  outer loop
    vertex 0.03222924421851132 0.04291309264691293 0.01000000000000003
    vertex 0.03746822339110502 0.04489371264013282 0.01444929866840741
    vertex 0.03222924421851132 0.04291309264691293 0.02
  endloop
endfacet
facet normal 0.353627 -0.935386 0
  outer loop
    vertex 0.05114762999151612 0.05006527475473175 0.009999999999999972
    vertex 0.04560413432446005 0.04796953091059974 0.005902566267649637
    vertex 0.05114762999151612 0.05006527475473175 0
  endloop
endfacet
facet normal 0.353627 -0.935386 -8.71295e-16
  outer loop
    vertex 0.04168843710501373 0.04648918370082234 0.02
    vertex 0.03746822339110502 0.04489371264013282 0.01444929866840741
    vertex 0.04448274281453785 0.04754558373089004 0.01268616195120625
  endloop
endfacet
facet normal 0.353627 -0.935386 1.0563e-15
  outer loop
    vertex 0.04560413432446005 0.04796953091059974 0.005902566267649637
    vertex 0.03934982431693101 0.04560506046003779 0.007584928398371575
    vertex 0.04168843710501371 0.04648918370082233 0
  endloop
endfacet
facet normal 0.353627 -0.935386 -1.06035e-16
  outer loop
    vertex 0.04448274281453785 0.04754558373089004 0.01268616195120625
    vertex 0.03746822339110502 0.04489371264013282 0.01444929866840741
    vertex 0.03934982431693101 0.04560506046003779 0.007584928398371575
  endloop
endfacet
facet normal 0.353627 -0.935386 1.46578e-16
  outer loop
    vertex 0.04560413432446005 0.04796953091059974 0.005902566267649637
    vertex 0.04448274281453785 0.04754558373089004 0.01268616195120625
    vertex 0.03934982431693101 0.04560506046003779 0.007584928398371575
  endloop
endfacet
facet normal 0.353627 -0.935386 1.78712e-17
  outer loop
    vertex 0.03934982431693101 0.04560506046003779 0.007584928398371575
    vertex 0.03746822339110502 0.04489371264013282 0.01444929866840741
    vertex 0.03222924421851132 0.04291309264691293 0.01000000000000003
  endloop
endfacet
facet normal 0.353627 -0.935386 -7.51004e-17
  outer loop
    vertex 0.05114762999151612 0.05006527475473175 0.009999999999999972
    vertex 0.04448274281453785 0.04754558373089004 0.01268616195120625
    vertex 0.04560413432446005 0.04796953091059974 0.005902566267649637
  endloop
endfacet
facet normal 0.609055 0.793128 1.55275e-15
  outer loop
    vertex 0.03222924421851132 0.04291309264691293 0
    vertex 0.03688612292217493 0.0393370015930035 0.005946034390432566
    vertex 0.04154300162583852 0.03576091053909411 0
  endloop
endfacet
facet normal 0.609055 0.793128 -1.30943e-15
  outer loop
    vertex 0.04154300162583852 0.03576091053909411 0.02
    vertex 0.03688612292217492 0.03933700159300351 0.01427113702623908
    vertex 0.03222924421851132 0.04291309264691293 0.02
  endloop
endfacet
facet normal 0.609055 0.793128 0
  outer loop
    vertex 0.03222924421851132 0.04291309264691293 0.02
    vertex 0.03688612292217492 0.03933700159300351 0.01427113702623908
    vertex 0.03222924421851132 0.04291309264691293 0.009999999999999972
  endloop
endfacet
facet normal 0.609055 0.793128 -0
  outer loop
    vertex 0.04154300162583852 0.03576091053909411 0
    vertex 0.03688612292217493 0.0393370015930035 0.005946034390432566
    vertex 0.04154300162583852 0.03576091053909411 0.01000000000000003
  endloop
endfacet
facet normal 0.609055 0.793128 -1.53423e-16
  outer loop
    vertex 0.03688612292217492 0.03933700159300351 0.01427113702623908
    vertex 0.03688612292217493 0.0393370015930035 0.005946034390432566
    vertex 0.03222924421851132 0.04291309264691293 0.009999999999999972
  endloop
endfacet
facet normal 0.609055 0.793128 -1.38627e-16
  outer loop
    vertex 0.04154300162583852 0.03576091053909411 0.01000000000000003
    vertex 0.03688612292217493 0.0393370015930035 0.005946034390432566
    vertex 0.03688612292217492 0.03933700159300351 0.01427113702623908
  endloop
endfacet
facet normal 0.609055 0.793128 0
  outer loop
    vertex 0.03222924421851132 0.04291309264691293 0.009999999999999972
    vertex 0.03688612292217493 0.0393370015930035 0.005946034390432566
    vertex 0.03222924421851132 0.04291309264691293 0
  endloop
endfacet
facet normal 0.609055 0.793128 -0
  outer loop
    vertex 0.04154300162583852 0.03576091053909411 0.01000000000000003
    vertex 0.03688612292217492 0.03933700159300351 0.01427113702623908
    vertex 0.04154300162583852 0.03576091053909411 0.02
  endloop
endfacet
facet normal 0.72692 0.686722 -0
  outer loop
    vertex 0.04829967603290859 0.02860872843127529 0
    vertex 0.04492133882937356 0.03218481948518471 0.005
    vertex 0.04829967603290859 0.02860872843127529 0.01000000000000003
  endloop
endfacet
facet normal 0.72692 0.686722 0
  outer loop
    vertex 0.04154300162583852 0.03576091053909411 0.02
    vertex 0.04492133882937356 0.03218481948518471 0.015
    vertex 0.04154300162583852 0.03576091053909411 0.009999999999999972
  endloop
endfacet
facet normal 0.72692 0.686722 0
  outer loop
    vertex 0.04154300162583852 0.03576091053909411 0.009999999999999972
    vertex 0.04492133882937356 0.03218481948518471 0.005
    vertex 0.04154300162583852 0.03576091053909411 0
  endloop
endfacet
facet normal 0.72692 0.686722 -0
  outer loop
    vertex 0.04829967603290859 0.02860872843127529 0.01000000000000003
    vertex 0.04492133882937356 0.03218481948518471 0.015
    vertex 0.04829967603290859 0.02860872843127529 0.02
  endloop
endfacet
facet normal 0.72692 0.686722 -2.4105e-15
  outer loop
    vertex 0.04154300162583852 0.03576091053909411 0.009999999999999972
    vertex 0.04492133882937356 0.03218481948518471 0.015
    vertex 0.04829967603290859 0.02860872843127529 0.01000000000000003
  endloop
endfacet
facet normal 0.72692 0.686722 2.4105e-15
  outer loop
    vertex 0.04829967603290859 0.02860872843127529 0.01000000000000003
    vertex 0.04492133882937356 0.03218481948518471 0.005
    vertex 0.04154300162583852 0.03576091053909411 0.009999999999999972
  endloop
endfacet
facet normal 0.72692 0.686722 -2.4105e-15
  outer loop
    vertex 0.04154300162583852 0.03576091053909411 0
    vertex 0.04492133882937356 0.03218481948518471 0.005
    vertex 0.04829967603290859 0.02860872843127529 0
  endloop
endfacet
facet normal 0.72692 0.686722 2.4105e-15
  outer loop
    vertex 0.04829967603290859 0.02860872843127529 0.02
    vertex 0.04492133882937356 0.03218481948518471 0.015
    vertex 0.04154300162583852 0.03576091053909411 0.02
  endloop
endfacet
facet normal 0.998831 -0.0483322 -6.92006e-16
  outer loop
    vertex 0.04795359106693461 0.02145654632345646 0.01000000000000003
    vertex 0.0481266335499216 0.02503263737736587 0.004999999999999999
    vertex 0.04829967603290859 0.02860872843127529 0.009999999999999972
  endloop
endfacet
facet normal 0.998831 -0.0483322 6.92006e-16
  outer loop
    vertex 0.04829967603290859 0.02860872843127529 0.009999999999999972
    vertex 0.0481266335499216 0.02503263737736587 0.015
    vertex 0.04795359106693461 0.02145654632345646 0.01000000000000003
  endloop
endfacet
facet normal 0.998831 -0.0483322 -6.92006e-16
  outer loop
    vertex 0.04795359106693461 0.02145654632345646 0.02
    vertex 0.0481266335499216 0.02503263737736587 0.015
    vertex 0.04829967603290859 0.02860872843127529 0.02
  endloop
endfacet
facet normal 0.998831 -0.0483322 6.92006e-16
  outer loop
    vertex 0.04829967603290859 0.02860872843127529 0
    vertex 0.0481266335499216 0.02503263737736587 0.004999999999999999
    vertex 0.04795359106693461 0.02145654632345646 0
  endloop
endfacet
facet normal 0.998831 -0.0483322 0
  outer loop
    vertex 0.04829967603290859 0.02860872843127529 0.009999999999999972
    vertex 0.0481266335499216 0.02503263737736587 0.004999999999999999
    vertex 0.04829967603290859 0.02860872843127529 0
  endloop
endfacet
facet normal 0.998831 -0.0483322 0
  outer loop
    vertex 0.04829967603290859 0.02860872843127529 0.02
    vertex 0.0481266335499216 0.02503263737736587 0.015
    vertex 0.04829967603290859 0.02860872843127529 0.009999999999999972
  endloop
endfacet
facet normal 0.998831 -0.0483322 0
  outer loop
    vertex 0.04795359106693461 0.02145654632345646 0
    vertex 0.0481266335499216 0.02503263737736587 0.004999999999999999
    vertex 0.04795359106693461 0.02145654632345646 0.01000000000000003
  endloop
endfacet
facet normal 0.998831 -0.0483322 0
  outer loop
    vertex 0.04795359106693461 0.02145654632345646 0.01000000000000003
    vertex 0.0481266335499216 0.02503263737736587 0.015
    vertex 0.04795359106693461 0.02145654632345646 0.02
  endloop
endfacet
facet normal 0.388801 -0.921322 -4.78862e-17
  outer loop
    vertex 0.03100544427695641 0.01430436421563765 0.02
    vertex 0.03793953339592446 0.01723057607497971 0.01230747933911892
    vertex 0.03947951767194551 0.01788045526954705 0.02
  endloop
endfacet
facet normal 0.388801 -0.921322 0
  outer loop
    vertex 0.03100544427695641 0.01430436421563765 0.01000000000000003
    vertex 0.03793953339592446 0.01723057607497971 0.01230747933911892
    vertex 0.03100544427695641 0.01430436421563765 0.02
  endloop
endfacet
facet normal 0.388801 -0.921322 0
  outer loop
    vertex 0.04795359106693461 0.02145654632345646 0.009999999999999972
    vertex 0.04170587599599366 0.01881998691086293 0.006781783980201485
    vertex 0.04795359106693461 0.02145654632345646 0
  endloop
endfacet
facet normal 0.388801 -0.921322 2.17268e-16
  outer loop
    vertex 0.04795359106693461 0.02145654632345646 0
    vertex 0.04170587599599366 0.01881998691086293 0.006781783980201485
    vertex 0.03947951767194551 0.01788045526954705 0
  endloop
endfacet
facet normal 0.388801 -0.921322 0
  outer loop
    vertex 0.04795359106693461 0.02145654632345646 0.02
    vertex 0.04371655436944007 0.01966850079650176 0.01499999999999999
    vertex 0.04795359106693461 0.02145654632345646 0.009999999999999972
  endloop
endfacet
facet normal 0.388801 -0.921322 0
  outer loop
    vertex 0.03100544427695641 0.01430436421563765 0
    vertex 0.03617024836888964 0.0164839310953957 0.005772191971407709
    vertex 0.03100544427695641 0.01430436421563765 0.01000000000000003
  endloop
endfacet
facet normal 0.388801 -0.921322 2.94693e-16
  outer loop
    vertex 0.03947951767194551 0.01788045526954705 0.02
    vertex 0.04371655436944007 0.01966850079650176 0.01499999999999999
    vertex 0.04795359106693461 0.02145654632345646 0.02
  endloop
endfacet
facet normal 0.388801 -0.921322 6.38173e-17
  outer loop
    vertex 0.03947951767194551 0.01788045526954705 0
    vertex 0.03617024836888964 0.0164839310953957 0.005772191971407709
    vertex 0.03100544427695641 0.01430436421563765 0
  endloop
endfacet
facet normal 0.388801 -0.921322 -3.1303e-16
  outer loop
    vertex 0.04795359106693461 0.02145654632345646 0.009999999999999972
    vertex 0.04371655436944007 0.01966850079650176 0.01499999999999999
    vertex 0.04170587599599366 0.01881998691086293 0.006781783980201485
  endloop
endfacet
facet normal 0.388801 -0.921322 -3.24675e-16
  outer loop
    vertex 0.04170587599599366 0.01881998691086293 0.006781783980201485
    vertex 0.04371655436944007 0.01966850079650176 0.01499999999999999
    vertex 0.03793953339592446 0.01723057607497971 0.01230747933911892
  endloop
endfacet
facet normal 0.388801 -0.921322 0
  outer loop
    vertex 0.03617024836888964 0.0164839310953957 0.005772191971407709
    vertex 0.03793953339592446 0.01723057607497971 0.01230747933911892
    vertex 0.03100544427695641 0.01430436421563765 0.01000000000000003
  endloop
endfacet
facet normal 0.388801 -0.921322 9.68384e-18
  outer loop
    vertex 0.03793953339592446 0.01723057607497971 0.01230747933911892
    vertex 0.04371655436944007 0.01966850079650176 0.01499999999999999
    vertex 0.03947951767194551 0.01788045526954705 0.02
  endloop
endfacet
facet normal 0.388801 -0.921322 -6.80757e-17
  outer loop
    vertex 0.03617024836888964 0.0164839310953957 0.005772191971407709
    vertex 0.04170587599599366 0.01881998691086293 0.006781783980201485
    vertex 0.03793953339592446 0.01723057607497971 0.01230747933911892
  endloop
endfacet
facet normal 0.388801 -0.921322 1.65835e-16
  outer loop
    vertex 0.03947951767194551 0.01788045526954705 0
    vertex 0.04170587599599366 0.01881998691086293 0.006781783980201485
    vertex 0.03617024836888964 0.0164839310953957 0.005772191971407709
  endloop
endfacet
facet normal 0.506955 0.861973 0
  outer loop
    vertex 0.03100544427695641 0.01430436421563765 0.02
    vertex 0.03526173359580859 0.01180110047790105 0.015
    vertex 0.03100544427695641 0.01430436421563765 0.009999999999999972
  endloop
endfacet
facet normal 0.506955 0.861973 -0
  outer loop
    vertex 0.04316627090224837 0.007152182107818823 0
    vertex 0.03890998158339617 0.009655445845555406 0.005000000000000006
    vertex 0.04316627090224837 0.007152182107818823 0.01000000000000003
  endloop
endfacet
facet normal 0.506955 0.861973 0
  outer loop
    vertex 0.03100544427695641 0.01430436421563765 0.009999999999999972
    vertex 0.03501851706330275 0.01194414412005743 0.004999999999999999
    vertex 0.03100544427695641 0.01430436421563765 0
  endloop
endfacet
facet normal 0.506955 0.861973 -0
  outer loop
    vertex 0.04316627090224837 0.007152182107818823 0.01000000000000003
    vertex 0.03915319811590202 0.009512402203399025 0.01500000000000001
    vertex 0.04316627090224837 0.007152182107818823 0.02
  endloop
endfacet
facet normal 0.506955 0.861973 1.58502e-15
  outer loop
    vertex 0.03708585758960238 0.01072827316172824 0
    vertex 0.03890998158339617 0.009655445845555406 0.005000000000000006
    vertex 0.04316627090224837 0.007152182107818823 0
  endloop
endfacet
facet normal 0.506955 0.861973 -1.82517e-15
  outer loop
    vertex 0.03708585758960239 0.01072827316172823 0.02
    vertex 0.03526173359580859 0.01180110047790105 0.015
    vertex 0.03100544427695641 0.01430436421563765 0.02
  endloop
endfacet
facet normal 0.506955 0.861973 1.53699e-15
  outer loop
    vertex 0.03100544427695641 0.01430436421563765 0
    vertex 0.03501851706330275 0.01194414412005743 0.004999999999999999
    vertex 0.03708585758960238 0.01072827316172824 0
  endloop
endfacet
facet normal 0.506955 0.861973 -1.44093e-15
  outer loop
    vertex 0.04316627090224837 0.007152182107818823 0.02
    vertex 0.03915319811590202 0.009512402203399025 0.01500000000000001
    vertex 0.03708585758960239 0.01072827316172823 0.02
  endloop
endfacet
facet normal 0.506955 0.861973 -1.66982e-15
  outer loop
    vertex 0.03708585758960239 0.01072827316172823 0.02
    vertex 0.03915319811590202 0.009512402203399025 0.01500000000000001
    vertex 0.03526173359580859 0.01180110047790105 0.015
  endloop
endfacet
facet normal 0.506955 0.861973 1.53849e-15
  outer loop
    vertex 0.03708585758960238 0.01072827316172824 0
    vertex 0.03501851706330275 0.01194414412005743 0.004999999999999999
    vertex 0.03890998158339617 0.009655445845555406 0.005000000000000006
  endloop
endfacet
facet normal 0.506955 0.861973 -4.5029e-16
  outer loop
    vertex 0.03501851706330275 0.01194414412005743 0.004999999999999999
    vertex 0.03708585758960239 0.01072827316172823 0.01
    vertex 0.03890998158339617 0.009655445845555406 0.005000000000000006
  endloop
endfacet
facet normal 0.506955 0.861973 3.75241e-16
  outer loop
    vertex 0.03915319811590202 0.009512402203399025 0.01500000000000001
    vertex 0.03708585758960239 0.01072827316172823 0.01
    vertex 0.03526173359580859 0.01180110047790105 0.015
  endloop
endfacet
facet normal 0.506955 0.861973 -8.16525e-16
  outer loop
    vertex 0.03100544427695641 0.01430436421563765 0.009999999999999972
    vertex 0.03708585758960239 0.01072827316172823 0.01
    vertex 0.03501851706330275 0.01194414412005743 0.004999999999999999
  endloop
endfacet
facet normal 0.506955 0.861973 9.12587e-16
  outer loop
    vertex 0.03526173359580859 0.01180110047790105 0.015
    vertex 0.03708585758960239 0.01072827316172823 0.01
    vertex 0.03100544427695641 0.01430436421563765 0.009999999999999972
  endloop
endfacet
facet normal 0.506955 0.861973 -8.16525e-16
  outer loop
    vertex 0.03890998158339617 0.009655445845555406 0.005000000000000006
    vertex 0.03708585758960239 0.01072827316172823 0.01
    vertex 0.04316627090224837 0.007152182107818823 0.01000000000000003
  endloop
endfacet
facet normal 0.506955 0.861973 5.76371e-16
  outer loop
    vertex 0.04316627090224837 0.007152182107818823 0.01000000000000003
    vertex 0.03708585758960239 0.01072827316172823 0.01
    vertex 0.03915319811590202 0.009512402203399025 0.01500000000000001
  endloop
endfacet
endsolid Created by Gmsh
