solid Created by Gmsh
facet normal 1 0 0
  outer loop
    vertex 0.04 0.05822824728049784 0
    vertex 0.04 0.06 0
    vertex 0.04 0.06 0.009999999999999972
  endloop
endfacet
facet normal 1 0 0
  outer loop
    vertex 0.04 0.05822824728049784 0.01000000000000003
    vertex 0.04 0.06 0.02
    vertex 0.04 0.05822824728049784 0.02
  endloop
endfacet
facet normal 1 0 -0
  outer loop
    vertex 0.04 0.06 0.009999999999999972
    vertex 0.04 0.06 0.02
    vertex 0.04 0.05822824728049784 0.01000000000000003
  endloop
endfacet
facet normal 1 0 0
  outer loop
    vertex 0.04 0.05822824728049784 0
    vertex 0.04 0.06 0.009999999999999972
    vertex 0.04 0.05822824728049784 0.01000000000000003
  endloop
endfacet
facet normal 0.508357 0.861146 3.76222e-16
  outer loop
    vertex 0.04 0.05822824728049784 0
    vertex 0.04629065661528897 0.05451471110189466 0.007547842005110285
    vertex 0.04616484348298318 0.05458898182546673 0
  endloop
endfacet
facet normal 0.508357 0.861146 3.99735e-16
  outer loop
    vertex 0.04616484348298318 0.05458898182546673 0
    vertex 0.04629065661528897 0.05451471110189466 0.007547842005110285
    vertex 0.05232968696596636 0.05094971637043561 0
  endloop
endfacet
facet normal 0.508357 0.861146 -0
  outer loop
    vertex 0.05232968696596636 0.05094971637043561 0
    vertex 0.04629065661528897 0.05451471110189466 0.007547842005110285
    vertex 0.05232968696596636 0.05094971637043561 0.01000000000000003
  endloop
endfacet
facet normal 0.508357 0.861146 0
  outer loop
    vertex 0.04 0.05822824728049784 0.009999999999999972
    vertex 0.04629065661528897 0.05451471110189466 0.007547842005110285
    vertex 0.04 0.05822824728049784 0
  endloop
endfacet
facet normal 0.508357 0.861146 0
  outer loop
    vertex 0.04 0.05822824728049784 0.02
    vertex 0.04431539043808823 0.05568076146197606 0.01473125677667205
    vertex 0.04 0.05822824728049784 0.009999999999999972
  endloop
endfacet
facet normal 0.508357 0.861146 -0
  outer loop
    vertex 0.05232968696596636 0.05094971637043561 0.01000000000000003
    vertex 0.04856068498817752 0.05317465504658728 0.01461129982596891
    vertex 0.05232968696596636 0.05094971637043561 0.02
  endloop
endfacet
facet normal 0.508357 0.861146 4.2668e-16
  outer loop
    vertex 0.04616484348298319 0.05458898182546672 0.02
    vertex 0.04431539043808823 0.05568076146197606 0.01473125677667205
    vertex 0.04 0.05822824728049784 0.02
  endloop
endfacet
facet normal 0.508357 0.861146 -7.02621e-16
  outer loop
    vertex 0.05232968696596636 0.05094971637043561 0.02
    vertex 0.04856068498817752 0.05317465504658728 0.01461129982596891
    vertex 0.04616484348298319 0.05458898182546672 0.02
  endloop
endfacet
facet normal 0.508357 0.861146 -7.23182e-17
  outer loop
    vertex 0.04431539043808823 0.05568076146197606 0.01473125677667205
    vertex 0.04856068498817752 0.05317465504658728 0.01461129982596891
    vertex 0.04629065661528897 0.05451471110189466 0.007547842005110285
  endloop
endfacet
facet normal 0.508357 0.861146 0
  outer loop
    vertex 0.04616484348298319 0.05458898182546672 0.02
    vertex 0.04856068498817752 0.05317465504658728 0.01461129982596891
    vertex 0.04431539043808823 0.05568076146197606 0.01473125677667205
  endloop
endfacet
facet normal 0.508357 0.861146 5.50654e-16
  outer loop
    vertex 0.04629065661528897 0.05451471110189466 0.007547842005110285
    vertex 0.04856068498817752 0.05317465504658728 0.01461129982596891
    vertex 0.05232968696596636 0.05094971637043561 0.01000000000000003
  endloop
endfacet
facet normal 0.508357 0.861146 -4.15832e-16
  outer loop
    vertex 0.04431539043808823 0.05568076146197606 0.01473125677667205
    vertex 0.04629065661528897 0.05451471110189466 0.007547842005110285
    vertex 0.04 0.05822824728049784 0.009999999999999972
  endloop
endfacet
facet normal 0.359075 -0.933309 1.28112e-15
  outer loop
    vertex 0.05232968696596636 0.05094971637043561 0
    vertex 0.04566622701381731 0.04838606216591649 0.007306333338884608
    vertex 0.04287049407946396 0.04731045091540449 0
  endloop
endfacet
facet normal 0.359075 -0.933309 0
  outer loop
    vertex 0.03341130119296157 0.04367118546037338 0.01000000000000003
    vertex 0.04053701202602926 0.04641268292093664 0.01239797813314099
    vertex 0.03341130119296157 0.04367118546037338 0.02
  endloop
endfacet
facet normal 0.359075 -0.933309 -1.23129e-15
  outer loop
    vertex 0.03341130119296157 0.04367118546037338 0.02
    vertex 0.04053701202602926 0.04641268292093664 0.01239797813314099
    vertex 0.04287049407946397 0.0473104509154045 0.02
  endloop
endfacet
facet normal 0.359075 -0.933309 0
  outer loop
    vertex 0.05232968696596636 0.05094971637043561 0.009999999999999972
    vertex 0.04566622701381731 0.04838606216591649 0.007306333338884608
    vertex 0.05232968696596636 0.05094971637043561 0
  endloop
endfacet
facet normal 0.359075 -0.933309 1.69088e-15
  outer loop
    vertex 0.04287049407946396 0.04731045091540449 0
    vertex 0.03863425067951438 0.04568062747808579 0.005535748799059046
    vertex 0.03341130119296157 0.04367118546037338 0
  endloop
endfacet
facet normal 0.359075 -0.933309 -1.21653e-15
  outer loop
    vertex 0.04287049407946397 0.0473104509154045 0.02
    vertex 0.0467888990991498 0.04881799137874693 0.01409189389492069
    vertex 0.05232968696596636 0.05094971637043561 0.02
  endloop
endfacet
facet normal 0.359075 -0.933309 0
  outer loop
    vertex 0.03341130119296157 0.04367118546037338 0
    vertex 0.03863425067951438 0.04568062747808579 0.005535748799059046
    vertex 0.03341130119296157 0.04367118546037338 0.01000000000000003
  endloop
endfacet
facet normal 0.359075 -0.933309 0
  outer loop
    vertex 0.05232968696596636 0.05094971637043561 0.02
    vertex 0.0467888990991498 0.04881799137874693 0.01409189389492069
    vertex 0.05232968696596636 0.05094971637043561 0.009999999999999972
  endloop
endfacet
facet normal 0.359075 -0.933309 1.44732e-15
  outer loop
    vertex 0.04566622701381731 0.04838606216591649 0.007306333338884608
    vertex 0.03863425067951438 0.04568062747808579 0.005535748799059046
    vertex 0.04287049407946396 0.04731045091540449 0
  endloop
endfacet
facet normal 0.359075 -0.933309 -1.17926e-15
  outer loop
    vertex 0.04287049407946397 0.0473104509154045 0.02
    vertex 0.04053701202602926 0.04641268292093664 0.01239797813314099
    vertex 0.0467888990991498 0.04881799137874693 0.01409189389492069
  endloop
endfacet
facet normal 0.359075 -0.933309 1.23286e-16
  outer loop
    vertex 0.04053701202602926 0.04641268292093664 0.01239797813314099
    vertex 0.03863425067951438 0.04568062747808579 0.005535748799059046
    vertex 0.04566622701381731 0.04838606216591649 0.007306333338884608
  endloop
endfacet
facet normal 0.359075 -0.933309 -1.17057e-16
  outer loop
    vertex 0.04053701202602926 0.04641268292093664 0.01239797813314099
    vertex 0.04566622701381731 0.04838606216591649 0.007306333338884608
    vertex 0.0467888990991498 0.04881799137874693 0.01409189389492069
  endloop
endfacet
facet normal 0.359075 -0.933309 -3.20957e-16
  outer loop
    vertex 0.03341130119296157 0.04367118546037338 0.01000000000000003
    vertex 0.03863425067951438 0.04568062747808579 0.005535748799059046
    vertex 0.04053701202602926 0.04641268292093664 0.01239797813314099
  endloop
endfacet
facet normal 0.359075 -0.933309 6.55801e-17
  outer loop
    vertex 0.0467888990991498 0.04881799137874693 0.01409189389492069
    vertex 0.04566622701381731 0.04838606216591649 0.007306333338884608
    vertex 0.05232968696596636 0.05094971637043561 0.009999999999999972
  endloop
endfacet
facet normal 0.615757 0.787936 5.71323e-16
  outer loop
    vertex 0.03341130119296157 0.04367118546037338 0
    vertex 0.03806817989662517 0.04003192000534226 0.006020408163265312
    vertex 0.04272505860028877 0.03639265455031115 0
  endloop
endfacet
facet normal 0.615757 0.787936 -1.93793e-16
  outer loop
    vertex 0.04272505860028877 0.03639265455031115 0.02
    vertex 0.03806817989662516 0.04003192000534227 0.01408371511870054
    vertex 0.03341130119296157 0.04367118546037338 0.02
  endloop
endfacet
facet normal 0.615757 0.787936 0
  outer loop
    vertex 0.03341130119296157 0.04367118546037338 0.02
    vertex 0.03806817989662516 0.04003192000534227 0.01408371511870054
    vertex 0.03341130119296157 0.04367118546037338 0.009999999999999972
  endloop
endfacet
facet normal 0.615757 0.787936 -0
  outer loop
    vertex 0.04272505860028877 0.03639265455031115 0
    vertex 0.03806817989662517 0.04003192000534226 0.006020408163265312
    vertex 0.04272505860028877 0.03639265455031115 0.01000000000000003
  endloop
endfacet
facet normal 0.615757 0.787936 0
  outer loop
    vertex 0.03341130119296157 0.04367118546037338 0.009999999999999972
    vertex 0.03806817989662517 0.04003192000534226 0.006020408163265312
    vertex 0.03341130119296157 0.04367118546037338 0
  endloop
endfacet
facet normal 0.615757 0.787936 -0
  outer loop
    vertex 0.04272505860028877 0.03639265455031115 0.01000000000000003
    vertex 0.03806817989662516 0.04003192000534227 0.01408371511870054
    vertex 0.04272505860028877 0.03639265455031115 0.02
  endloop
endfacet
facet normal 0.615757 0.787936 -2.96337e-16
  outer loop
    vertex 0.03806817989662517 0.04003192000534226 0.006020408163265312
    vertex 0.03806817989662516 0.04003192000534227 0.01408371511870054
    vertex 0.04272505860028877 0.03639265455031115 0.01000000000000003
  endloop
endfacet
facet normal 0.615757 0.787936 -2.84383e-16
  outer loop
    vertex 0.03341130119296157 0.04367118546037338 0.009999999999999972
    vertex 0.03806817989662516 0.04003192000534227 0.01408371511870054
    vertex 0.03806817989662517 0.04003192000534226 0.006020408163265312
  endloop
endfacet
facet normal 0.737954 -0.674851 0
  outer loop
    vertex 0.04272505860028877 0.03639265455031115 0.02
    vertex 0.03939699355308338 0.03275338909528004 0.015
    vertex 0.04272505860028877 0.03639265455031115 0.009999999999999972
  endloop
endfacet
facet normal 0.737954 -0.674851 0
  outer loop
    vertex 0.03606892850587801 0.02911412364024892 0
    vertex 0.03939699355308338 0.03275338909528004 0.005
    vertex 0.03606892850587801 0.02911412364024892 0.01000000000000003
  endloop
endfacet
facet normal 0.737954 -0.674851 0
  outer loop
    vertex 0.04272505860028877 0.03639265455031115 0.009999999999999972
    vertex 0.03939699355308338 0.03275338909528004 0.005
    vertex 0.04272505860028877 0.03639265455031115 0
  endloop
endfacet
facet normal 0.737954 -0.674851 0
  outer loop
    vertex 0.03606892850587801 0.02911412364024892 0.01000000000000003
    vertex 0.03939699355308338 0.03275338909528004 0.015
    vertex 0.03606892850587801 0.02911412364024892 0.02
  endloop
endfacet
facet normal 0.737954 -0.674851 -1.44276e-15
  outer loop
    vertex 0.03606892850587801 0.02911412364024892 0.02
    vertex 0.03939699355308338 0.03275338909528004 0.015
    vertex 0.04272505860028877 0.03639265455031115 0.02
  endloop
endfacet
facet normal 0.737954 -0.674851 -1.44276e-15
  outer loop
    vertex 0.03606892850587801 0.02911412364024892 0.01000000000000003
    vertex 0.03939699355308338 0.03275338909528004 0.005
    vertex 0.04272505860028877 0.03639265455031115 0.009999999999999972
  endloop
endfacet
facet normal 0.737954 -0.674851 1.51147e-15
  outer loop
    vertex 0.04272505860028877 0.03639265455031115 0
    vertex 0.03939699355308338 0.03275338909528004 0.005
    vertex 0.03606892850587801 0.02911412364024892 0
  endloop
endfacet
facet normal 0.737954 -0.674851 1.51147e-15
  outer loop
    vertex 0.04272505860028877 0.03639265455031115 0.009999999999999972
    vertex 0.03939699355308338 0.03275338909528004 0.015
    vertex 0.03606892850587801 0.02911412364024892 0.01000000000000003
  endloop
endfacet
facet normal 0.486626 0.873611 1.29652e-15
  outer loop
    vertex 0.04913564804138486 0.02183559273018669 0.02
    vertex 0.04250704979305194 0.025527908702055 0.01231247618577081
    vertex 0.04260228827363144 0.0254748581852178 0.02
  endloop
endfacet
facet normal 0.486626 0.873611 1.29375e-15
  outer loop
    vertex 0.04260228827363144 0.0254748581852178 0.02
    vertex 0.04250704979305194 0.025527908702055 0.01231247618577081
    vertex 0.03606892850587801 0.02911412364024892 0.02
  endloop
endfacet
facet normal 0.486626 0.873611 0
  outer loop
    vertex 0.03606892850587801 0.02911412364024892 0.02
    vertex 0.04250704979305194 0.025527908702055 0.01231247618577081
    vertex 0.03606892850587801 0.02911412364024892 0.009999999999999972
  endloop
endfacet
facet normal 0.486626 0.873611 -0
  outer loop
    vertex 0.04913564804138486 0.02183559273018669 0.01000000000000003
    vertex 0.04250704979305194 0.025527908702055 0.01231247618577081
    vertex 0.04913564804138486 0.02183559273018669 0.02
  endloop
endfacet
facet normal 0.486626 0.873611 -0
  outer loop
    vertex 0.04913564804138486 0.02183559273018669 0
    vertex 0.04456229620395746 0.02438307854870848 0.005338935643606234
    vertex 0.04913564804138486 0.02183559273018669 0.01000000000000003
  endloop
endfacet
facet normal 0.486626 0.873611 0
  outer loop
    vertex 0.03606892850587801 0.02911412364024892 0.009999999999999972
    vertex 0.04006867258027234 0.02688615350599227 0.005378773118482428
    vertex 0.03606892850587801 0.02911412364024892 0
  endloop
endfacet
facet normal 0.486626 0.873611 -8.69783e-16
  outer loop
    vertex 0.04260228827363143 0.02547485818521781 0
    vertex 0.04456229620395746 0.02438307854870848 0.005338935643606234
    vertex 0.04913564804138486 0.02183559273018669 0
  endloop
endfacet
facet normal 0.486626 0.873611 -1.81091e-15
  outer loop
    vertex 0.03606892850587801 0.02911412364024892 0
    vertex 0.04006867258027234 0.02688615350599227 0.005378773118482428
    vertex 0.04260228827363143 0.02547485818521781 0
  endloop
endfacet
facet normal 0.486626 0.873611 -9.47031e-17
  outer loop
    vertex 0.04456229620395746 0.02438307854870848 0.005338935643606234
    vertex 0.04006867258027234 0.02688615350599227 0.005378773118482428
    vertex 0.04250704979305194 0.025527908702055 0.01231247618577081
  endloop
endfacet
facet normal 0.486626 0.873611 -1.21437e-15
  outer loop
    vertex 0.04260228827363143 0.02547485818521781 0
    vertex 0.04006867258027234 0.02688615350599227 0.005378773118482428
    vertex 0.04456229620395746 0.02438307854870848 0.005338935643606234
  endloop
endfacet
facet normal 0.486626 0.873611 8.34817e-16
  outer loop
    vertex 0.04250704979305194 0.025527908702055 0.01231247618577081
    vertex 0.04006867258027234 0.02688615350599227 0.005378773118482428
    vertex 0.03606892850587801 0.02911412364024892 0.009999999999999972
  endloop
endfacet
facet normal 0.486626 0.873611 -5.35283e-17
  outer loop
    vertex 0.04456229620395746 0.02438307854870848 0.005338935643606234
    vertex 0.04250704979305194 0.025527908702055 0.01231247618577081
    vertex 0.04913564804138486 0.02183559273018669 0.01000000000000003
  endloop
endfacet
facet normal 0.419481 -0.907764 5.63795e-16
  outer loop
    vertex 0.04913564804138486 0.02183559273018669 0
    vertex 0.04252735730476919 0.01878187827175573 0.007619566713291172
    vertex 0.04126021485274142 0.01819632727515557 0
  endloop
endfacet
facet normal 0.419481 -0.907764 0
  outer loop
    vertex 0.04913564804138486 0.02183559273018669 0.009999999999999972
    vertex 0.04252735730476919 0.01878187827175573 0.007619566713291172
    vertex 0.04913564804138486 0.02183559273018669 0
  endloop
endfacet
facet normal 0.419481 -0.907764 0
  outer loop
    vertex 0.03338478166409799 0.01455706182012446 0.01000000000000003
    vertex 0.03877864126186566 0.01704958336570121 0.01360834220326042
    vertex 0.03338478166409799 0.01455706182012446 0.02
  endloop
endfacet
facet normal 0.419481 -0.907764 0
  outer loop
    vertex 0.03338478166409799 0.01455706182012446 0
    vertex 0.03746427696809659 0.01644221098946954 0.005023151255370328
    vertex 0.03338478166409799 0.01455706182012446 0.01000000000000003
  endloop
endfacet
facet normal 0.419481 -0.907764 0
  outer loop
    vertex 0.04913564804138486 0.02183559273018669 0.02
    vertex 0.04411374983049586 0.01951495585348442 0.01428350168824966
    vertex 0.04913564804138486 0.02183559273018669 0.009999999999999972
  endloop
endfacet
facet normal 0.419481 -0.907764 -2.44402e-16
  outer loop
    vertex 0.03338478166409799 0.01455706182012446 0.02
    vertex 0.03877864126186566 0.01704958336570121 0.01360834220326042
    vertex 0.04126021485274144 0.01819632727515558 0.02
  endloop
endfacet
facet normal 0.419481 -0.907764 -4.79908e-17
  outer loop
    vertex 0.03877864126186566 0.01704958336570121 0.01360834220326042
    vertex 0.03746427696809659 0.01644221098946954 0.005023151255370328
    vertex 0.04252735730476919 0.01878187827175573 0.007619566713291172
  endloop
endfacet
facet normal 0.419481 -0.907764 7.77468e-16
  outer loop
    vertex 0.04126021485274142 0.01819632727515557 0
    vertex 0.03746427696809659 0.01644221098946954 0.005023151255370328
    vertex 0.03338478166409799 0.01455706182012446 0
  endloop
endfacet
facet normal 0.419481 -0.907764 6.8317e-17
  outer loop
    vertex 0.04126021485274144 0.01819632727515558 0.02
    vertex 0.04411374983049586 0.01951495585348442 0.01428350168824966
    vertex 0.04913564804138486 0.02183559273018669 0.02
  endloop
endfacet
facet normal 0.419481 -0.907764 -1.10994e-16
  outer loop
    vertex 0.03338478166409799 0.01455706182012446 0.01000000000000003
    vertex 0.03746427696809659 0.01644221098946954 0.005023151255370328
    vertex 0.03877864126186566 0.01704958336570121 0.01360834220326042
  endloop
endfacet
facet normal 0.419481 -0.907764 -2.45288e-16
  outer loop
    vertex 0.04411374983049586 0.01951495585348442 0.01428350168824966
    vertex 0.03877864126186566 0.01704958336570121 0.01360834220326042
    vertex 0.04252735730476919 0.01878187827175573 0.007619566713291172
  endloop
endfacet
facet normal 0.419481 -0.907764 -2.19628e-16
  outer loop
    vertex 0.04411374983049586 0.01951495585348442 0.01428350168824966
    vertex 0.04252735730476919 0.01878187827175573 0.007619566713291172
    vertex 0.04913564804138486 0.02183559273018669 0.009999999999999972
  endloop
endfacet
facet normal 0.419481 -0.907764 6.86359e-16
  outer loop
    vertex 0.04252735730476919 0.01878187827175573 0.007619566713291172
    vertex 0.03746427696809659 0.01644221098946954 0.005023151255370328
    vertex 0.04126021485274142 0.01819632727515557 0
  endloop
endfacet
facet normal 0.419481 -0.907764 3.55704e-17
  outer loop
    vertex 0.04126021485274144 0.01819632727515558 0.02
    vertex 0.03877864126186566 0.01704958336570121 0.01360834220326042
    vertex 0.04411374983049586 0.01951495585348442 0.01428350168824966
  endloop
endfacet
facet normal 0.751997 -0.659166 0
  outer loop
    vertex 0.03338478166409799 0.01455706182012446 0.02
    vertex 0.03019476673277636 0.01091779636509335 0.015
    vertex 0.03338478166409799 0.01455706182012446 0.009999999999999972
  endloop
endfacet
facet normal 0.751997 -0.659166 0
  outer loop
    vertex 0.02700475180145472 0.007278530910062232 0
    vertex 0.03019476673277636 0.01091779636509335 0.005
    vertex 0.02700475180145472 0.007278530910062232 0.01000000000000003
  endloop
endfacet
facet normal 0.751997 -0.659166 0
  outer loop
    vertex 0.03338478166409799 0.01455706182012446 0.009999999999999972
    vertex 0.03019476673277636 0.01091779636509335 0.005
    vertex 0.03338478166409799 0.01455706182012446 0
  endloop
endfacet
facet normal 0.751997 -0.659166 0
  outer loop
    vertex 0.02700475180145472 0.007278530910062232 0.01000000000000003
    vertex 0.03019476673277636 0.01091779636509335 0.015
    vertex 0.02700475180145472 0.007278530910062232 0.02
  endloop
endfacet
facet normal 0.751997 -0.659166 -2.10031e-16
  outer loop
    vertex 0.03338478166409799 0.01455706182012446 0.009999999999999972
    vertex 0.03019476673277636 0.01091779636509335 0.015
    vertex 0.02700475180145472 0.007278530910062232 0.01000000000000003
  endloop
endfacet
facet normal 0.751997 -0.659166 -7.70115e-16
  outer loop
    vertex 0.03338478166409799 0.01455706182012446 0
    vertex 0.03019476673277636 0.01091779636509335 0.005
    vertex 0.02700475180145472 0.007278530910062232 0
  endloop
endfacet
facet normal 0.751997 -0.659166 2.10031e-16
  outer loop
    vertex 0.02700475180145472 0.007278530910062232 0.02
    vertex 0.03019476673277636 0.01091779636509335 0.015
    vertex 0.03338478166409799 0.01455706182012446 0.02
  endloop
endfacet
facet normal 0.751997 -0.659166 7.00104e-16
  outer loop
    vertex 0.02700475180145472 0.007278530910062232 0.01000000000000003
    vertex 0.03019476673277636 0.01091779636509335 0.005
    vertex 0.03338478166409799 0.01455706182012446 0.009999999999999972
  endloop
endfacet
endsolid Created by Gmsh
