solid Created by Gmsh
facet normal -0.642237 0.766506 0
  outer loop
    vertex 0.03309604541517631 0.05881598407349051 0
    vertex 0.02432147309158048 0.0514639860643042 0
    vertex 0.02870875925337839 0.05513998506889736 0.005728862973760924
  endloop
endfacet
facet normal -0.642237 0.766506 -2.08587e-16
  outer loop
    vertex 0.02432147309158048 0.0514639860643042 0.02
    vertex 0.03309604541517631 0.05881598407349051 0.02
    vertex 0.0287087592533784 0.05513998506889736 0.01432426114969102
  endloop
endfacet
facet normal -0.642237 0.766506 0
  outer loop
    vertex 0.02432147309158048 0.0514639860643042 0
    vertex 0.02432147309158048 0.0514639860643042 0.01000000000000003
    vertex 0.02870875925337839 0.05513998506889736 0.005728862973760924
  endloop
endfacet
facet normal -0.642237 0.766506 0
  outer loop
    vertex 0.03309604541517631 0.05881598407349051 0.02
    vertex 0.03309604541517631 0.05881598407349051 0.009999999999999972
    vertex 0.0287087592533784 0.05513998506889736 0.01432426114969102
  endloop
endfacet
facet normal -0.642237 0.766506 1.58912e-16
  outer loop
    vertex 0.02870875925337839 0.05513998506889736 0.005728862973760924
    vertex 0.02432147309158048 0.0514639860643042 0.01000000000000003
    vertex 0.0287087592533784 0.05513998506889736 0.01432426114969102
  endloop
endfacet
facet normal -0.642237 0.766506 2.06602e-16
  outer loop
    vertex 0.03309604541517631 0.05881598407349051 0.009999999999999972
    vertex 0.02870875925337839 0.05513998506889736 0.005728862973760924
    vertex 0.0287087592533784 0.05513998506889736 0.01432426114969102
  endloop
endfacet
facet normal -0.642237 0.766506 0
  outer loop
    vertex 0.02432147309158048 0.0514639860643042 0.01000000000000003
    vertex 0.02432147309158048 0.0514639860643042 0.02
    vertex 0.0287087592533784 0.05513998506889736 0.01432426114969102
  endloop
endfacet
facet normal -0.642237 0.766506 0
  outer loop
    vertex 0.03309604541517631 0.05881598407349051 0.009999999999999972
    vertex 0.03309604541517631 0.05881598407349051 0
    vertex 0.02870875925337839 0.05513998506889736 0.005728862973760924
  endloop
endfacet
facet normal -0.819188 0.573525 0
  outer loop
    vertex 0.02432147309158048 0.0514639860643042 0.02
    vertex 0.02432147309158048 0.0514639860643042 0.009999999999999972
    vertex 0.02174785819176555 0.04778798705971105 0.015
  endloop
endfacet
facet normal -0.819188 0.573525 0
  outer loop
    vertex 0.01917424329195063 0.04411198805511789 0
    vertex 0.01917424329195063 0.04411198805511789 0.01000000000000003
    vertex 0.02174785819176555 0.04778798705971105 0.005
  endloop
endfacet
facet normal -0.819188 0.573525 0
  outer loop
    vertex 0.02432147309158048 0.0514639860643042 0.009999999999999972
    vertex 0.02432147309158048 0.0514639860643042 0
    vertex 0.02174785819176555 0.04778798705971105 0.005
  endloop
endfacet
facet normal -0.819188 0.573525 0
  outer loop
    vertex 0.01917424329195063 0.04411198805511789 0.01000000000000003
    vertex 0.01917424329195063 0.04411198805511789 0.02
    vertex 0.02174785819176555 0.04778798705971105 0.015
  endloop
endfacet
facet normal -0.819188 0.573525 1.20806e-15
  outer loop
    vertex 0.01917424329195063 0.04411198805511789 0.01000000000000003
    vertex 0.02432147309158048 0.0514639860643042 0.009999999999999972
    vertex 0.02174785819176555 0.04778798705971105 0.005
  endloop
endfacet
facet normal -0.819188 0.573525 1.20806e-15
  outer loop
    vertex 0.01917424329195063 0.04411198805511789 0.02
    vertex 0.02432147309158048 0.0514639860643042 0.02
    vertex 0.02174785819176555 0.04778798705971105 0.015
  endloop
endfacet
facet normal -0.819188 0.573525 -1.20806e-15
  outer loop
    vertex 0.02432147309158048 0.0514639860643042 0.009999999999999972
    vertex 0.01917424329195063 0.04411198805511789 0.01000000000000003
    vertex 0.02174785819176555 0.04778798705971105 0.015
  endloop
endfacet
facet normal -0.819188 0.573525 -1.20806e-15
  outer loop
    vertex 0.02432147309158048 0.0514639860643042 0
    vertex 0.01917424329195063 0.04411198805511789 0
    vertex 0.02174785819176555 0.04778798705971105 0.005
  endloop
endfacet
facet normal -0.384138 -0.923276 -9.7763e-16
  outer loop
    vertex 0.01917424329195063 0.04411198805511789 0
    vertex 0.02800950697659889 0.04043598905052473 0
    vertex 0.02610551707611312 0.04122816291525072 0.007605314336762065
  endloop
endfacet
facet normal -0.384138 -0.923276 -0
  outer loop
    vertex 0.01917424329195063 0.04411198805511789 0.009999999999999972
    vertex 0.01917424329195063 0.04411198805511789 0
    vertex 0.02610551707611312 0.04122816291525072 0.007605314336762065
  endloop
endfacet
facet normal -0.384138 -0.923276 0
  outer loop
    vertex 0.03684477066124715 0.03675999004593157 0.01000000000000003
    vertex 0.03684477066124715 0.03675999004593157 0.02
    vertex 0.03032783107182658 0.03947142733844033 0.01304307310762567
  endloop
endfacet
facet normal -0.384138 -0.923276 6.10711e-16
  outer loop
    vertex 0.03684477066124715 0.03675999004593157 0.02
    vertex 0.02800950697659888 0.04043598905052473 0.02
    vertex 0.03032783107182658 0.03947142733844033 0.01304307310762567
  endloop
endfacet
facet normal -0.384138 -0.923276 -0
  outer loop
    vertex 0.01917424329195063 0.04411198805511789 0.02
    vertex 0.01917424329195063 0.04411198805511789 0.009999999999999972
    vertex 0.02446353726434375 0.04191132488630927 0.01418079986539145
  endloop
endfacet
facet normal -0.384138 -0.923276 0
  outer loop
    vertex 0.03684477066124715 0.03675999004593157 0
    vertex 0.03684477066124715 0.03675999004593157 0.01000000000000003
    vertex 0.03242713881892302 0.03859798954822814 0.005000000000000014
  endloop
endfacet
facet normal -0.384138 -0.923276 7.60534e-16
  outer loop
    vertex 0.02800950697659888 0.04043598905052473 0.02
    vertex 0.01917424329195063 0.04411198805511789 0.02
    vertex 0.02446353726434375 0.04191132488630927 0.01418079986539145
  endloop
endfacet
facet normal -0.384138 -0.923276 -9.91357e-16
  outer loop
    vertex 0.02800950697659889 0.04043598905052473 0
    vertex 0.03684477066124715 0.03675999004593157 0
    vertex 0.03242713881892302 0.03859798954822814 0.005000000000000014
  endloop
endfacet
facet normal -0.384138 -0.923276 1.35925e-16
  outer loop
    vertex 0.03684477066124715 0.03675999004593157 0.01000000000000003
    vertex 0.03032783107182658 0.03947142733844033 0.01304307310762567
    vertex 0.03242713881892302 0.03859798954822814 0.005000000000000014
  endloop
endfacet
facet normal -0.384138 -0.923276 -2.58522e-17
  outer loop
    vertex 0.03032783107182658 0.03947142733844033 0.01304307310762567
    vertex 0.02610551707611312 0.04122816291525072 0.007605314336762065
    vertex 0.03242713881892302 0.03859798954822814 0.005000000000000014
  endloop
endfacet
facet normal -0.384138 -0.923276 -6.57268e-17
  outer loop
    vertex 0.02446353726434375 0.04191132488630927 0.01418079986539145
    vertex 0.01917424329195063 0.04411198805511789 0.009999999999999972
    vertex 0.02610551707611312 0.04122816291525072 0.007605314336762065
  endloop
endfacet
facet normal -0.384138 -0.923276 -1.0157e-15
  outer loop
    vertex 0.02610551707611312 0.04122816291525072 0.007605314336762065
    vertex 0.02800950697659889 0.04043598905052473 0
    vertex 0.03242713881892302 0.03859798954822814 0.005000000000000014
  endloop
endfacet
facet normal -0.384138 -0.923276 2.13135e-16
  outer loop
    vertex 0.02446353726434375 0.04191132488630927 0.01418079986539145
    vertex 0.02610551707611312 0.04122816291525072 0.007605314336762065
    vertex 0.03032783107182658 0.03947142733844033 0.01304307310762567
  endloop
endfacet
facet normal -0.384138 -0.923276 5.63583e-16
  outer loop
    vertex 0.02800950697659888 0.04043598905052473 0.02
    vertex 0.02446353726434375 0.04191132488630927 0.01418079986539145
    vertex 0.03032783107182658 0.03947142733844033 0.01304307310762567
  endloop
endfacet
facet normal -0.834569 0.550904 0
  outer loop
    vertex 0.03684477066124715 0.03675999004593157 0.02
    vertex 0.03684477066124715 0.03675999004593157 0.009999999999999972
    vertex 0.03441822091147085 0.03308399104133841 0.015
  endloop
endfacet
facet normal -0.834569 0.550904 0
  outer loop
    vertex 0.03199167116169454 0.02940799203674526 0
    vertex 0.03199167116169454 0.02940799203674526 0.01000000000000003
    vertex 0.03441822091147085 0.03308399104133841 0.004999999999999999
  endloop
endfacet
facet normal -0.834569 0.550904 0
  outer loop
    vertex 0.03684477066124715 0.03675999004593157 0.009999999999999972
    vertex 0.03684477066124715 0.03675999004593157 0
    vertex 0.03441822091147085 0.03308399104133841 0.004999999999999999
  endloop
endfacet
facet normal -0.834569 0.550904 0
  outer loop
    vertex 0.03199167116169454 0.02940799203674526 0.01000000000000003
    vertex 0.03199167116169454 0.02940799203674526 0.02
    vertex 0.03441822091147085 0.03308399104133841 0.015
  endloop
endfacet
facet normal -0.834569 0.550904 1.30766e-15
  outer loop
    vertex 0.03684477066124715 0.03675999004593157 0.009999999999999972
    vertex 0.03199167116169454 0.02940799203674526 0.01000000000000003
    vertex 0.03441822091147085 0.03308399104133841 0.015
  endloop
endfacet
facet normal -0.834569 0.550904 -1.38458e-15
  outer loop
    vertex 0.03199167116169454 0.02940799203674526 0.01000000000000003
    vertex 0.03684477066124715 0.03675999004593157 0.009999999999999972
    vertex 0.03441822091147085 0.03308399104133841 0.004999999999999999
  endloop
endfacet
facet normal -0.834569 0.550904 1.30766e-15
  outer loop
    vertex 0.03684477066124715 0.03675999004593157 0
    vertex 0.03199167116169454 0.02940799203674526 0
    vertex 0.03441822091147085 0.03308399104133841 0.004999999999999999
  endloop
endfacet
facet normal -0.834569 0.550904 -1.38458e-15
  outer loop
    vertex 0.03199167116169454 0.02940799203674526 0.02
    vertex 0.03684477066124715 0.03675999004593157 0.02
    vertex 0.03441822091147085 0.03308399104133841 0.015
  endloop
endfacet
facet normal -0.999688 0.0249804 7.02569e-16
  outer loop
    vertex 0.03180795772738067 0.02205599402755894 0.01000000000000003
    vertex 0.03199167116169454 0.02940799203674526 0.009999999999999972
    vertex 0.0318998144445376 0.0257319930321521 0.005
  endloop
endfacet
facet normal -0.999688 0.0249804 -7.02569e-16
  outer loop
    vertex 0.03199167116169454 0.02940799203674526 0.009999999999999972
    vertex 0.03180795772738067 0.02205599402755894 0.01000000000000003
    vertex 0.0318998144445376 0.0257319930321521 0.015
  endloop
endfacet
facet normal -0.999688 0.0249804 -7.02569e-16
  outer loop
    vertex 0.03199167116169454 0.02940799203674526 0
    vertex 0.03180795772738067 0.02205599402755894 0
    vertex 0.0318998144445376 0.0257319930321521 0.005
  endloop
endfacet
facet normal -0.999688 0.0249804 7.02569e-16
  outer loop
    vertex 0.03180795772738067 0.02205599402755894 0.02
    vertex 0.03199167116169454 0.02940799203674526 0.02
    vertex 0.0318998144445376 0.0257319930321521 0.015
  endloop
endfacet
facet normal -0.999688 0.0249804 0
  outer loop
    vertex 0.03199167116169454 0.02940799203674526 0.009999999999999972
    vertex 0.03199167116169454 0.02940799203674526 0
    vertex 0.0318998144445376 0.0257319930321521 0.005
  endloop
endfacet
facet normal -0.999688 0.0249804 0
  outer loop
    vertex 0.03199167116169454 0.02940799203674526 0.02
    vertex 0.03199167116169454 0.02940799203674526 0.009999999999999972
    vertex 0.0318998144445376 0.0257319930321521 0.015
  endloop
endfacet
facet normal -0.999688 0.0249804 0
  outer loop
    vertex 0.03180795772738067 0.02205599402755894 0
    vertex 0.03180795772738067 0.02205599402755894 0.01000000000000003
    vertex 0.0318998144445376 0.0257319930321521 0.005
  endloop
endfacet
facet normal -0.999688 0.0249804 0
  outer loop
    vertex 0.03180795772738067 0.02205599402755894 0.01000000000000003
    vertex 0.03180795772738067 0.02205599402755894 0.02
    vertex 0.0318998144445376 0.0257319930321521 0.015
  endloop
endfacet
facet normal -0.680218 0.733009 5.67827e-16
  outer loop
    vertex 0.03180795772738067 0.02205599402755894 0
    vertex 0.02388537862951772 0.01470399601837263 0
    vertex 0.02784666817844918 0.01837999502296577 0.005520616409829248
  endloop
endfacet
facet normal -0.680218 0.733009 -3.42377e-16
  outer loop
    vertex 0.02388537862951772 0.01470399601837263 0.02
    vertex 0.03180795772738067 0.02205599402755894 0.02
    vertex 0.02784666817844921 0.0183799950229658 0.0145064877347891
  endloop
endfacet
facet normal -0.680218 0.733009 0
  outer loop
    vertex 0.03180795772738067 0.02205599402755894 0.02
    vertex 0.03180795772738067 0.02205599402755894 0.009999999999999972
    vertex 0.02784666817844921 0.0183799950229658 0.0145064877347891
  endloop
endfacet
facet normal -0.680218 0.733009 0
  outer loop
    vertex 0.02388537862951772 0.01470399601837263 0
    vertex 0.02388537862951772 0.01470399601837263 0.01000000000000003
    vertex 0.02784666817844918 0.01837999502296577 0.005520616409829248
  endloop
endfacet
facet normal -0.680218 0.733009 0
  outer loop
    vertex 0.03180795772738067 0.02205599402755894 0.009999999999999972
    vertex 0.03180795772738067 0.02205599402755894 0
    vertex 0.02784666817844918 0.01837999502296577 0.005520616409829248
  endloop
endfacet
facet normal -0.680218 0.733009 0
  outer loop
    vertex 0.02388537862951772 0.01470399601837263 0.01000000000000003
    vertex 0.02388537862951772 0.01470399601837263 0.02
    vertex 0.02784666817844921 0.0183799950229658 0.0145064877347891
  endloop
endfacet
facet normal -0.680218 0.733009 -1.39541e-16
  outer loop
    vertex 0.03180795772738067 0.02205599402755894 0.009999999999999972
    vertex 0.02784666817844918 0.01837999502296577 0.005520616409829248
    vertex 0.02784666817844921 0.0183799950229658 0.0145064877347891
  endloop
endfacet
facet normal -0.680218 0.733009 -1.42678e-16
  outer loop
    vertex 0.02784666817844918 0.01837999502296577 0.005520616409829248
    vertex 0.02388537862951772 0.01470399601837263 0.01000000000000003
    vertex 0.02784666817844921 0.0183799950229658 0.0145064877347891
  endloop
endfacet
facet normal -0.585244 0.810857 1.07883e-16
  outer loop
    vertex 0.01369916082095545 0.007351998009186317 0.01000000000000003
    vertex 0.01879226972523658 0.01102799701377947 0.02
    vertex 0.02388537862951772 0.01470399601837263 0.009999999999999972
  endloop
endfacet
facet normal -0.585244 0.810857 8.0912e-17
  outer loop
    vertex 0.01879226972523659 0.01102799701377948 0
    vertex 0.01369916082095545 0.007351998009186317 0.01000000000000003
    vertex 0.02388537862951772 0.01470399601837263 0.009999999999999972
  endloop
endfacet
facet normal -0.585244 0.810857 0
  outer loop
    vertex 0.01879226972523659 0.01102799701377948 0
    vertex 0.02388537862951772 0.01470399601837263 0.009999999999999972
    vertex 0.02388537862951772 0.01470399601837263 0
  endloop
endfacet
facet normal -0.585244 0.810857 0
  outer loop
    vertex 0.02388537862951772 0.01470399601837263 0.009999999999999972
    vertex 0.01879226972523658 0.01102799701377947 0.02
    vertex 0.02388537862951772 0.01470399601837263 0.02
  endloop
endfacet
facet normal -0.585244 0.810857 0
  outer loop
    vertex 0.01369916082095545 0.007351998009186317 0.01000000000000003
    vertex 0.01879226972523659 0.01102799701377948 0
    vertex 0.01369916082095545 0.007351998009186317 0
  endloop
endfacet
facet normal -0.585244 0.810857 0
  outer loop
    vertex 0.01879226972523658 0.01102799701377947 0.02
    vertex 0.01369916082095545 0.007351998009186317 0.01000000000000003
    vertex 0.01369916082095545 0.007351998009186317 0.02
  endloop
endfacet
endsolid Created by Gmsh
