solid Created by Gmsh
facet normal -0.836314 0.548251 0
  outer loop
    vertex 0.03429323742435494 0.05236802149472982 0.02
    vertex 0.03429323742435494 0.05236802149472982 0.009999999999999972
    vertex 0.03214759862012262 0.0490950201513092 0.015
  endloop
endfacet
facet normal -0.836314 0.548251 0
  outer loop
    vertex 0.03000195981589028 0.0458220188078886 0
    vertex 0.03000195981589028 0.0458220188078886 0.01000000000000003
    vertex 0.03214759862012262 0.0490950201513092 0.005000000000000001
  endloop
endfacet
facet normal -0.836314 0.548251 0
  outer loop
    vertex 0.03429323742435494 0.05236802149472982 0.009999999999999972
    vertex 0.03429323742435494 0.05236802149472982 0
    vertex 0.03214759862012262 0.0490950201513092 0.005000000000000001
  endloop
endfacet
facet normal -0.836314 0.548251 0
  outer loop
    vertex 0.03000195981589028 0.0458220188078886 0.01000000000000003
    vertex 0.03000195981589028 0.0458220188078886 0.02
    vertex 0.03214759862012262 0.0490950201513092 0.015
  endloop
endfacet
facet normal -0.836314 0.548251 -1.55832e-15
  outer loop
    vertex 0.03000195981589028 0.0458220188078886 0.01000000000000003
    vertex 0.03429323742435494 0.05236802149472982 0.009999999999999972
    vertex 0.03214759862012262 0.0490950201513092 0.005000000000000001
  endloop
endfacet
facet normal -0.836314 0.548251 1.55832e-15
  outer loop
    vertex 0.03429323742435494 0.05236802149472982 0.009999999999999972
    vertex 0.03000195981589028 0.0458220188078886 0.01000000000000003
    vertex 0.03214759862012262 0.0490950201513092 0.015
  endloop
endfacet
facet normal -0.836314 0.548251 1.55832e-15
  outer loop
    vertex 0.03429323742435494 0.05236802149472982 0
    vertex 0.03000195981589028 0.0458220188078886 0
    vertex 0.03214759862012262 0.0490950201513092 0.005000000000000001
  endloop
endfacet
facet normal -0.836314 0.548251 -1.55832e-15
  outer loop
    vertex 0.03000195981589028 0.0458220188078886 0.02
    vertex 0.03429323742435494 0.05236802149472982 0.02
    vertex 0.03214759862012262 0.0490950201513092 0.015
  endloop
endfacet
facet normal -0.324091 -0.946026 -1.48272e-15
  outer loop
    vertex 0.03000195981589028 0.0458220188078886 0
    vertex 0.03955589272782349 0.04254901746446799 0
    vertex 0.03681534530480826 0.04348787850524764 0.00701430823496459
  endloop
endfacet
facet normal -0.324091 -0.946026 0
  outer loop
    vertex 0.04910982563975673 0.03927601612104736 0.01000000000000003
    vertex 0.04910982563975673 0.03927601612104736 0.02
    vertex 0.04192107227826619 0.04173875053906798 0.01242536855450923
  endloop
endfacet
facet normal -0.324091 -0.946026 9.74411e-16
  outer loop
    vertex 0.04910982563975673 0.03927601612104736 0.02
    vertex 0.03955589272782352 0.04254901746446797 0.02
    vertex 0.04192107227826619 0.04173875053906798 0.01242536855450923
  endloop
endfacet
facet normal -0.324091 -0.946026 -0
  outer loop
    vertex 0.03000195981589028 0.0458220188078886 0.009999999999999972
    vertex 0.03000195981589028 0.0458220188078886 0
    vertex 0.03681534530480826 0.04348787850524764 0.00701430823496459
  endloop
endfacet
facet normal -0.324091 -0.946026 -1.41807e-15
  outer loop
    vertex 0.03955589272782349 0.04254901746446799 0
    vertex 0.04910982563975673 0.03927601612104736 0
    vertex 0.04380855192417678 0.04109213479729025 0.005559708635372317
  endloop
endfacet
facet normal -0.324091 -0.946026 0
  outer loop
    vertex 0.04910982563975673 0.03927601612104736 0
    vertex 0.04910982563975673 0.03927601612104736 0.01000000000000003
    vertex 0.04380855192417678 0.04109213479729025 0.005559708635372317
  endloop
endfacet
facet normal -0.324091 -0.946026 1.13741e-15
  outer loop
    vertex 0.03955589272782352 0.04254901746446797 0.02
    vertex 0.03000195981589028 0.0458220188078886 0.02
    vertex 0.03560263526680255 0.04390333061488248 0.01410077221990601
  endloop
endfacet
facet normal -0.324091 -0.946026 -0
  outer loop
    vertex 0.03000195981589028 0.0458220188078886 0.02
    vertex 0.03000195981589028 0.0458220188078886 0.009999999999999972
    vertex 0.03560263526680255 0.04390333061488248 0.01410077221990601
  endloop
endfacet
facet normal -0.324091 -0.946026 -1.5825e-15
  outer loop
    vertex 0.03681534530480826 0.04348787850524764 0.00701430823496459
    vertex 0.03955589272782349 0.04254901746446799 0
    vertex 0.04380855192417678 0.04109213479729025 0.005559708635372317
  endloop
endfacet
facet normal -0.324091 -0.946026 9.21845e-16
  outer loop
    vertex 0.03955589272782352 0.04254901746446797 0.02
    vertex 0.03560263526680255 0.04390333061488248 0.01410077221990601
    vertex 0.04192107227826619 0.04173875053906798 0.01242536855450923
  endloop
endfacet
facet normal -0.324091 -0.946026 -2.38974e-16
  outer loop
    vertex 0.04192107227826619 0.04173875053906798 0.01242536855450923
    vertex 0.03681534530480826 0.04348787850524764 0.00701430823496459
    vertex 0.04380855192417678 0.04109213479729025 0.005559708635372317
  endloop
endfacet
facet normal -0.324091 -0.946026 1.12482e-16
  outer loop
    vertex 0.04192107227826619 0.04173875053906798 0.01242536855450923
    vertex 0.03560263526680255 0.04390333061488248 0.01410077221990601
    vertex 0.03681534530480826 0.04348787850524764 0.00701430823496459
  endloop
endfacet
facet normal -0.324091 -0.946026 3.57908e-17
  outer loop
    vertex 0.04910982563975673 0.03927601612104736 0.01000000000000003
    vertex 0.04192107227826619 0.04173875053906798 0.01242536855450923
    vertex 0.04380855192417678 0.04109213479729025 0.005559708635372317
  endloop
endfacet
facet normal -0.324091 -0.946026 -7.1767e-17
  outer loop
    vertex 0.03560263526680255 0.04390333061488248 0.01410077221990601
    vertex 0.03000195981589028 0.0458220188078886 0.009999999999999972
    vertex 0.03681534530480826 0.04348787850524764 0.00701430823496459
  endloop
endfacet
facet normal -0.448255 0.893906 6.80527e-16
  outer loop
    vertex 0.04910982563975673 0.03927601612104736 0
    vertex 0.0425828444400552 0.03600301477762675 0
    vertex 0.04244964074210211 0.03593621883184265 0.007500443386791804
  endloop
endfacet
facet normal -0.448255 0.893906 6.5926e-16
  outer loop
    vertex 0.0425828444400552 0.03600301477762675 0
    vertex 0.03605586324035369 0.03273001343420614 0
    vertex 0.04244964074210211 0.03593621883184265 0.007500443386791804
  endloop
endfacet
facet normal -0.448255 0.893906 0
  outer loop
    vertex 0.03605586324035369 0.03273001343420614 0
    vertex 0.03605586324035369 0.03273001343420614 0.01000000000000003
    vertex 0.04244964074210211 0.03593621883184265 0.007500443386791804
  endloop
endfacet
facet normal -0.448255 0.893906 0
  outer loop
    vertex 0.04910982563975673 0.03927601612104736 0.009999999999999972
    vertex 0.04910982563975673 0.03927601612104736 0
    vertex 0.04244964074210211 0.03593621883184265 0.007500443386791804
  endloop
endfacet
facet normal -0.448255 0.893906 0
  outer loop
    vertex 0.04910982563975673 0.03927601612104736 0.02
    vertex 0.04910982563975673 0.03927601612104736 0.009999999999999972
    vertex 0.04454093879996567 0.03698491518065293 0.01470028967937064
  endloop
endfacet
facet normal -0.448255 0.893906 0
  outer loop
    vertex 0.03605586324035369 0.03273001343420614 0.01000000000000003
    vertex 0.03605586324035369 0.03273001343420614 0.02
    vertex 0.04004626544903418 0.03473102912433822 0.0146001047237375
  endloop
endfacet
facet normal -0.448255 0.893906 -7.66118e-16
  outer loop
    vertex 0.04258284444005522 0.03600301477762675 0.02
    vertex 0.04910982563975673 0.03927601612104736 0.02
    vertex 0.04454093879996567 0.03698491518065293 0.01470028967937064
  endloop
endfacet
facet normal -0.448255 0.893906 8.59319e-17
  outer loop
    vertex 0.03605586324035369 0.03273001343420614 0.02
    vertex 0.04258284444005522 0.03600301477762675 0.02
    vertex 0.04004626544903418 0.03473102912433822 0.0146001047237375
  endloop
endfacet
facet normal -0.448255 0.893906 -4.00351e-16
  outer loop
    vertex 0.04454093879996567 0.03698491518065293 0.01470028967937064
    vertex 0.04244964074210211 0.03593621883184265 0.007500443386791804
    vertex 0.04004626544903418 0.03473102912433822 0.0146001047237375
  endloop
endfacet
facet normal -0.448255 0.893906 -3.78321e-16
  outer loop
    vertex 0.04258284444005522 0.03600301477762675 0.02
    vertex 0.04454093879996567 0.03698491518065293 0.01470028967937064
    vertex 0.04004626544903418 0.03473102912433822 0.0146001047237375
  endloop
endfacet
facet normal -0.448255 0.893906 8.86094e-17
  outer loop
    vertex 0.04454093879996567 0.03698491518065293 0.01470028967937064
    vertex 0.04910982563975673 0.03927601612104736 0.009999999999999972
    vertex 0.04244964074210211 0.03593621883184265 0.007500443386791804
  endloop
endfacet
facet normal -0.448255 0.893906 -5.76724e-16
  outer loop
    vertex 0.04244964074210211 0.03593621883184265 0.007500443386791804
    vertex 0.03605586324035369 0.03273001343420614 0.01000000000000003
    vertex 0.04004626544903418 0.03473102912433822 0.0146001047237375
  endloop
endfacet
facet normal -0.56996 -0.821673 3.08966e-16
  outer loop
    vertex 0.04549279719938361 0.02618401074736491 0.02
    vertex 0.03605586324035369 0.03273001343420614 0.02
    vertex 0.04077433021986865 0.02945701209078552 0.01427113702623908
  endloop
endfacet
facet normal -0.56996 -0.821673 1.03953e-16
  outer loop
    vertex 0.03605586324035369 0.03273001343420614 0
    vertex 0.04549279719938361 0.02618401074736491 0
    vertex 0.04077433021986866 0.02945701209078552 0.005675738850308979
  endloop
endfacet
facet normal -0.56996 -0.821673 -0
  outer loop
    vertex 0.03605586324035369 0.03273001343420614 0.02
    vertex 0.03605586324035369 0.03273001343420614 0.009999999999999972
    vertex 0.04077433021986865 0.02945701209078552 0.01427113702623908
  endloop
endfacet
facet normal -0.56996 -0.821673 0
  outer loop
    vertex 0.04549279719938361 0.02618401074736491 0
    vertex 0.04549279719938361 0.02618401074736491 0.01000000000000003
    vertex 0.04077433021986866 0.02945701209078552 0.005675738850308979
  endloop
endfacet
facet normal -0.56996 -0.821673 -2.56914e-16
  outer loop
    vertex 0.04077433021986865 0.02945701209078552 0.01427113702623908
    vertex 0.03605586324035369 0.03273001343420614 0.009999999999999972
    vertex 0.04077433021986866 0.02945701209078552 0.005675738850308979
  endloop
endfacet
facet normal -0.56996 -0.821673 -2.74569e-16
  outer loop
    vertex 0.04549279719938361 0.02618401074736491 0.01000000000000003
    vertex 0.04077433021986865 0.02945701209078552 0.01427113702623908
    vertex 0.04077433021986866 0.02945701209078552 0.005675738850308979
  endloop
endfacet
facet normal -0.56996 -0.821673 -0
  outer loop
    vertex 0.03605586324035369 0.03273001343420614 0.009999999999999972
    vertex 0.03605586324035369 0.03273001343420614 0
    vertex 0.04077433021986866 0.02945701209078552 0.005675738850308979
  endloop
endfacet
facet normal -0.56996 -0.821673 0
  outer loop
    vertex 0.04549279719938361 0.02618401074736491 0.01000000000000003
    vertex 0.04549279719938361 0.02618401074736491 0.02
    vertex 0.04077433021986865 0.02945701209078552 0.01427113702623908
  endloop
endfacet
facet normal -0.642581 0.766218 7.98221e-16
  outer loop
    vertex 0.03768729293911377 0.01963800806052368 0.02
    vertex 0.04549279719938361 0.02618401074736491 0.02
    vertex 0.04159004506924869 0.0229110094039443 0.01500000000000002
  endloop
endfacet
facet normal -0.642581 0.766218 -7.98221e-16
  outer loop
    vertex 0.04549279719938361 0.02618401074736491 0
    vertex 0.03768729293911377 0.01963800806052368 0
    vertex 0.04159004506924869 0.0229110094039443 0.004999999999999986
  endloop
endfacet
facet normal -0.642581 0.766218 0
  outer loop
    vertex 0.04159004506924869 0.0229110094039443 0.004999999999999986
    vertex 0.03768729293911377 0.01963800806052368 0.01000000000000003
    vertex 0.04159004506924869 0.0229110094039443 0.01500000000000002
  endloop
endfacet
facet normal -0.642581 0.766218 0
  outer loop
    vertex 0.04549279719938361 0.02618401074736491 0.02
    vertex 0.04549279719938361 0.02618401074736491 0.009999999999999972
    vertex 0.04159004506924869 0.0229110094039443 0.01500000000000002
  endloop
endfacet
facet normal -0.642581 0.766218 0
  outer loop
    vertex 0.03768729293911377 0.01963800806052368 0
    vertex 0.03768729293911377 0.01963800806052368 0.01000000000000003
    vertex 0.04159004506924869 0.0229110094039443 0.004999999999999986
  endloop
endfacet
facet normal -0.642581 0.766218 0
  outer loop
    vertex 0.04549279719938361 0.02618401074736491 0.009999999999999972
    vertex 0.04159004506924869 0.0229110094039443 0.004999999999999986
    vertex 0.04159004506924869 0.0229110094039443 0.01500000000000002
  endloop
endfacet
facet normal -0.642581 0.766218 0
  outer loop
    vertex 0.04549279719938361 0.02618401074736491 0.009999999999999972
    vertex 0.04549279719938361 0.02618401074736491 0
    vertex 0.04159004506924869 0.0229110094039443 0.004999999999999986
  endloop
endfacet
facet normal -0.642581 0.766218 0
  outer loop
    vertex 0.03768729293911377 0.01963800806052368 0.01000000000000003
    vertex 0.03768729293911377 0.01963800806052368 0.02
    vertex 0.04159004506924869 0.0229110094039443 0.01500000000000002
  endloop
endfacet
facet normal -0.668616 -0.743607 -0
  outer loop
    vertex 0.03768729293911377 0.01963800806052368 0.02
    vertex 0.03768729293911377 0.01963800806052368 0.009999999999999972
    vertex 0.04132738932940742 0.01636500671710307 0.015
  endloop
endfacet
facet normal -0.668616 -0.743607 0
  outer loop
    vertex 0.04496748571970107 0.01309200537368246 0
    vertex 0.04496748571970107 0.01309200537368246 0.01000000000000003
    vertex 0.04132738932940742 0.01636500671710307 0.004999999999999999
  endloop
endfacet
facet normal -0.668616 -0.743607 -0
  outer loop
    vertex 0.03768729293911377 0.01963800806052368 0.009999999999999972
    vertex 0.03768729293911377 0.01963800806052368 0
    vertex 0.04132738932940742 0.01636500671710307 0.004999999999999999
  endloop
endfacet
facet normal -0.668616 -0.743607 0
  outer loop
    vertex 0.04496748571970107 0.01309200537368246 0.01000000000000003
    vertex 0.04496748571970107 0.01309200537368246 0.02
    vertex 0.04132738932940742 0.01636500671710307 0.015
  endloop
endfacet
facet normal -0.668616 -0.743607 -9.6899e-16
  outer loop
    vertex 0.03768729293911377 0.01963800806052368 0
    vertex 0.04496748571970107 0.01309200537368246 0
    vertex 0.04132738932940742 0.01636500671710307 0.004999999999999999
  endloop
endfacet
facet normal -0.668616 -0.743607 9.6899e-16
  outer loop
    vertex 0.04496748571970107 0.01309200537368246 0.02
    vertex 0.03768729293911377 0.01963800806052368 0.02
    vertex 0.04132738932940742 0.01636500671710307 0.015
  endloop
endfacet
facet normal -0.668616 -0.743607 9.6899e-16
  outer loop
    vertex 0.04496748571970107 0.01309200537368246 0.01000000000000003
    vertex 0.03768729293911377 0.01963800806052368 0.009999999999999972
    vertex 0.04132738932940742 0.01636500671710307 0.004999999999999999
  endloop
endfacet
facet normal -0.668616 -0.743607 -9.6899e-16
  outer loop
    vertex 0.03768729293911377 0.01963800806052368 0.009999999999999972
    vertex 0.04496748571970107 0.01309200537368246 0.01000000000000003
    vertex 0.04132738932940742 0.01636500671710307 0.015
  endloop
endfacet
facet normal -0.328681 0.944441 0
  outer loop
    vertex 0.04496748571970107 0.01309200537368246 0.009999999999999972
    vertex 0.04496748571970107 0.01309200537368246 0
    vertex 0.03835591624194343 0.01079107153436993 0.00712779343205297
  endloop
endfacet
facet normal -0.328681 0.944441 -4.07721e-16
  outer loop
    vertex 0.02615801331063339 0.006546002686841225 0.02
    vertex 0.03556274951516725 0.009819004030261846 0.02
    vertex 0.03324138392163488 0.009011131003207764 0.01248952001088629
  endloop
endfacet
facet normal -0.328681 0.944441 0
  outer loop
    vertex 0.02615801331063339 0.006546002686841225 0.01000000000000003
    vertex 0.02615801331063339 0.006546002686841225 0.02
    vertex 0.03324138392163488 0.009011131003207764 0.01248952001088629
  endloop
endfacet
facet normal -0.328681 0.944441 4.77346e-16
  outer loop
    vertex 0.04496748571970107 0.01309200537368246 0
    vertex 0.03556274951516722 0.009819004030261836 0
    vertex 0.03835591624194343 0.01079107153436993 0.00712779343205297
  endloop
endfacet
facet normal -0.328681 0.944441 0
  outer loop
    vertex 0.04496748571970107 0.01309200537368246 0.02
    vertex 0.04496748571970107 0.01309200537368246 0.009999999999999972
    vertex 0.03970341044324119 0.01126002145866158 0.01440774752845491
  endloop
endfacet
facet normal -0.328681 0.944441 -7.60522e-16
  outer loop
    vertex 0.03556274951516725 0.009819004030261846 0.02
    vertex 0.04496748571970107 0.01309200537368246 0.02
    vertex 0.03970341044324119 0.01126002145866158 0.01440774752845491
  endloop
endfacet
facet normal -0.328681 0.944441 0
  outer loop
    vertex 0.02615801331063339 0.006546002686841225 0
    vertex 0.02615801331063339 0.006546002686841225 0.01000000000000003
    vertex 0.03169298213221518 0.008472261966723526 0.005869493052976644
  endloop
endfacet
facet normal -0.328681 0.944441 7.24599e-16
  outer loop
    vertex 0.03556274951516722 0.009819004030261836 0
    vertex 0.02615801331063339 0.006546002686841225 0
    vertex 0.03169298213221518 0.008472261966723526 0.005869493052976644
  endloop
endfacet
facet normal -0.328681 0.944441 1.80737e-16
  outer loop
    vertex 0.04496748571970107 0.01309200537368246 0.009999999999999972
    vertex 0.03835591624194343 0.01079107153436993 0.00712779343205297
    vertex 0.03970341044324119 0.01126002145866158 0.01440774752845491
  endloop
endfacet
facet normal -0.328681 0.944441 -3.43876e-16
  outer loop
    vertex 0.03169298213221518 0.008472261966723526 0.005869493052976644
    vertex 0.02615801331063339 0.006546002686841225 0.01000000000000003
    vertex 0.03324138392163488 0.009011131003207764 0.01248952001088629
  endloop
endfacet
facet normal -0.328681 0.944441 3.59874e-17
  outer loop
    vertex 0.03835591624194343 0.01079107153436993 0.00712779343205297
    vertex 0.03324138392163488 0.009011131003207764 0.01248952001088629
    vertex 0.03970341044324119 0.01126002145866158 0.01440774752845491
  endloop
endfacet
facet normal -0.328681 0.944441 -2.08719e-16
  outer loop
    vertex 0.03169298213221518 0.008472261966723526 0.005869493052976644
    vertex 0.03324138392163488 0.009011131003207764 0.01248952001088629
    vertex 0.03835591624194343 0.01079107153436993 0.00712779343205297
  endloop
endfacet
facet normal -0.328681 0.944441 -5.44446e-16
  outer loop
    vertex 0.03324138392163488 0.009011131003207764 0.01248952001088629
    vertex 0.03556274951516725 0.009819004030261846 0.02
    vertex 0.03970341044324119 0.01126002145866158 0.01440774752845491
  endloop
endfacet
facet normal -0.328681 0.944441 5.36621e-16
  outer loop
    vertex 0.03556274951516722 0.009819004030261836 0
    vertex 0.03169298213221518 0.008472261966723526 0.005869493052976644
    vertex 0.03835591624194343 0.01079107153436993 0.00712779343205297
  endloop
endfacet
endsolid Created by Gmsh
