solid Created by Gmsh
facet normal 1 0 0
  outer loop
    vertex 0.04 0.05662231783557501 0
    vertex 0.04 0.06 0
    vertex 0.04 0.06 0.009999999999999972
  endloop
endfacet
facet normal 1 0 0
  outer loop
    vertex 0.04 0.05662231783557501 0.01000000000000003
    vertex 0.04 0.06 0.02
    vertex 0.04 0.05662231783557501 0.02
  endloop
endfacet
facet normal 1 0 -0
  outer loop
    vertex 0.04 0.06 0.009999999999999972
    vertex 0.04 0.06 0.02
    vertex 0.04 0.05662231783557501 0.01000000000000003
  endloop
endfacet
facet normal 1 0 0
  outer loop
    vertex 0.04 0.05662231783557501 0
    vertex 0.04 0.06 0.009999999999999972
    vertex 0.04 0.05662231783557501 0.01000000000000003
  endloop
endfacet
facet normal 0.779396 0.626532 0
  outer loop
    vertex 0.04 0.05662231783557501 0.02
    vertex 0.04284480876006506 0.05308342297085157 0.015
    vertex 0.04 0.05662231783557501 0.009999999999999972
  endloop
endfacet
facet normal 0.779396 0.626532 -0
  outer loop
    vertex 0.04568961752013012 0.04954452810612813 0
    vertex 0.04284480876006506 0.05308342297085157 0.005000000000000001
    vertex 0.04568961752013012 0.04954452810612813 0.01000000000000003
  endloop
endfacet
facet normal 0.779396 0.626532 0
  outer loop
    vertex 0.04 0.05662231783557501 0.009999999999999972
    vertex 0.04284480876006506 0.05308342297085157 0.005000000000000001
    vertex 0.04 0.05662231783557501 0
  endloop
endfacet
facet normal 0.779396 0.626532 -0
  outer loop
    vertex 0.04568961752013012 0.04954452810612813 0.01000000000000003
    vertex 0.04284480876006506 0.05308342297085157 0.015
    vertex 0.04568961752013012 0.04954452810612813 0.02
  endloop
endfacet
facet normal 0.779396 0.626532 -5.96954e-16
  outer loop
    vertex 0.04 0.05662231783557501 0.009999999999999972
    vertex 0.04284480876006506 0.05308342297085157 0.015
    vertex 0.04568961752013012 0.04954452810612813 0.01000000000000003
  endloop
endfacet
facet normal 0.779396 0.626532 5.22334e-16
  outer loop
    vertex 0.04568961752013012 0.04954452810612813 0.01000000000000003
    vertex 0.04284480876006506 0.05308342297085157 0.005000000000000001
    vertex 0.04 0.05662231783557501 0.009999999999999972
  endloop
endfacet
facet normal 0.779396 0.626532 -5.96954e-16
  outer loop
    vertex 0.04 0.05662231783557501 0
    vertex 0.04284480876006506 0.05308342297085157 0.005000000000000001
    vertex 0.04568961752013012 0.04954452810612813 0
  endloop
endfacet
facet normal 0.779396 0.626532 5.22334e-16
  outer loop
    vertex 0.04568961752013012 0.04954452810612813 0.02
    vertex 0.04284480876006506 0.05308342297085157 0.015
    vertex 0.04 0.05662231783557501 0.02
  endloop
endfacet
facet normal 0.943007 0.332772 -0
  outer loop
    vertex 0.04818725429683817 0.04246673837668126 0
    vertex 0.04693843590848414 0.04600563324140469 0.005
    vertex 0.04818725429683817 0.04246673837668126 0.01000000000000003
  endloop
endfacet
facet normal 0.943007 0.332772 0
  outer loop
    vertex 0.04568961752013012 0.04954452810612813 0.02
    vertex 0.04693843590848414 0.04600563324140469 0.015
    vertex 0.04568961752013012 0.04954452810612813 0.009999999999999972
  endloop
endfacet
facet normal 0.943007 0.332772 -0
  outer loop
    vertex 0.04818725429683817 0.04246673837668126 0.01000000000000003
    vertex 0.04693843590848414 0.04600563324140469 0.015
    vertex 0.04818725429683817 0.04246673837668126 0.02
  endloop
endfacet
facet normal 0.943007 0.332772 0
  outer loop
    vertex 0.04568961752013012 0.04954452810612813 0.009999999999999972
    vertex 0.04693843590848414 0.04600563324140469 0.005
    vertex 0.04568961752013012 0.04954452810612813 0
  endloop
endfacet
facet normal 0.943007 0.332772 2.21194e-15
  outer loop
    vertex 0.04568961752013012 0.04954452810612813 0
    vertex 0.04693843590848414 0.04600563324140469 0.005
    vertex 0.04818725429683817 0.04246673837668126 0
  endloop
endfacet
facet normal 0.943007 0.332772 2.21194e-15
  outer loop
    vertex 0.04568961752013012 0.04954452810612813 0.009999999999999972
    vertex 0.04693843590848414 0.04600563324140469 0.015
    vertex 0.04818725429683817 0.04246673837668126 0.01000000000000003
  endloop
endfacet
facet normal 0.943007 0.332772 -2.1668e-15
  outer loop
    vertex 0.04818725429683817 0.04246673837668126 0.02
    vertex 0.04693843590848414 0.04600563324140469 0.015
    vertex 0.04568961752013012 0.04954452810612813 0.02
  endloop
endfacet
facet normal 0.943007 0.332772 -2.1668e-15
  outer loop
    vertex 0.04818725429683817 0.04246673837668126 0.01000000000000003
    vertex 0.04693843590848414 0.04600563324140469 0.005
    vertex 0.04568961752013012 0.04954452810612813 0.009999999999999972
  endloop
endfacet
facet normal 0.734149 -0.678988 0
  outer loop
    vertex 0.04818725429683817 0.04246673837668126 0.02
    vertex 0.04491425697029839 0.03892784351195782 0.015
    vertex 0.04818725429683817 0.04246673837668126 0.009999999999999972
  endloop
endfacet
facet normal 0.734149 -0.678988 0
  outer loop
    vertex 0.04164125964375862 0.03538894864723438 0
    vertex 0.04491425697029839 0.03892784351195782 0.005
    vertex 0.04164125964375862 0.03538894864723438 0.01000000000000003
  endloop
endfacet
facet normal 0.734149 -0.678988 0
  outer loop
    vertex 0.04818725429683817 0.04246673837668126 0.009999999999999972
    vertex 0.04491425697029839 0.03892784351195782 0.005
    vertex 0.04818725429683817 0.04246673837668126 0
  endloop
endfacet
facet normal 0.734149 -0.678988 0
  outer loop
    vertex 0.04164125964375862 0.03538894864723438 0.01000000000000003
    vertex 0.04491425697029839 0.03892784351195782 0.015
    vertex 0.04164125964375862 0.03538894864723438 0.02
  endloop
endfacet
facet normal 0.734149 -0.678988 -1.05431e-15
  outer loop
    vertex 0.04164125964375862 0.03538894864723438 0.01000000000000003
    vertex 0.04491425697029839 0.03892784351195782 0.005
    vertex 0.04818725429683817 0.04246673837668126 0.009999999999999972
  endloop
endfacet
facet normal 0.734149 -0.678988 9.84022e-16
  outer loop
    vertex 0.04818725429683817 0.04246673837668126 0.009999999999999972
    vertex 0.04491425697029839 0.03892784351195782 0.015
    vertex 0.04164125964375862 0.03538894864723438 0.01000000000000003
  endloop
endfacet
facet normal 0.734149 -0.678988 9.84022e-16
  outer loop
    vertex 0.04818725429683817 0.04246673837668126 0
    vertex 0.04491425697029839 0.03892784351195782 0.005
    vertex 0.04164125964375862 0.03538894864723438 0
  endloop
endfacet
facet normal 0.734149 -0.678988 -1.05431e-15
  outer loop
    vertex 0.04164125964375862 0.03538894864723438 0.02
    vertex 0.04491425697029839 0.03892784351195782 0.015
    vertex 0.04818725429683817 0.04246673837668126 0.02
  endloop
endfacet
facet normal 0.997259 -0.0739858 -2.38694e-17
  outer loop
    vertex 0.04164125964375862 0.03538894864723438 0.009999999999999972
    vertex 0.04137871193925853 0.03185005378251094 0.015
    vertex 0.04111616423475844 0.02831115891778751 0.01000000000000003
  endloop
endfacet
facet normal 0.997259 -0.0739858 -2.38694e-17
  outer loop
    vertex 0.04164125964375862 0.03538894864723438 0
    vertex 0.04137871193925853 0.03185005378251094 0.005
    vertex 0.04111616423475844 0.02831115891778751 0
  endloop
endfacet
facet normal 0.997259 -0.0739858 2.98367e-17
  outer loop
    vertex 0.04111616423475844 0.02831115891778751 0.01000000000000003
    vertex 0.04137871193925853 0.03185005378251094 0.005
    vertex 0.04164125964375862 0.03538894864723438 0.009999999999999972
  endloop
endfacet
facet normal 0.997259 -0.0739858 2.98367e-17
  outer loop
    vertex 0.04111616423475844 0.02831115891778751 0.02
    vertex 0.04137871193925853 0.03185005378251094 0.015
    vertex 0.04164125964375862 0.03538894864723438 0.02
  endloop
endfacet
facet normal 0.997259 -0.0739858 0
  outer loop
    vertex 0.04164125964375862 0.03538894864723438 0.009999999999999972
    vertex 0.04137871193925853 0.03185005378251094 0.005
    vertex 0.04164125964375862 0.03538894864723438 0
  endloop
endfacet
facet normal 0.997259 -0.0739858 0
  outer loop
    vertex 0.04164125964375862 0.03538894864723438 0.02
    vertex 0.04137871193925853 0.03185005378251094 0.015
    vertex 0.04164125964375862 0.03538894864723438 0.009999999999999972
  endloop
endfacet
facet normal 0.997259 -0.0739858 0
  outer loop
    vertex 0.04111616423475844 0.02831115891778751 0
    vertex 0.04137871193925853 0.03185005378251094 0.005
    vertex 0.04111616423475844 0.02831115891778751 0.01000000000000003
  endloop
endfacet
facet normal 0.997259 -0.0739858 0
  outer loop
    vertex 0.04111616423475844 0.02831115891778751 0.01000000000000003
    vertex 0.04137871193925853 0.03185005378251094 0.015
    vertex 0.04111616423475844 0.02831115891778751 0.02
  endloop
endfacet
facet normal 0.915579 0.402138 0
  outer loop
    vertex 0.04111616423475844 0.02831115891778751 0.02
    vertex 0.04267050965035694 0.02477226405306407 0.015
    vertex 0.04111616423475844 0.02831115891778751 0.009999999999999972
  endloop
endfacet
facet normal 0.915579 0.402138 -0
  outer loop
    vertex 0.04422485506595544 0.02123336918834063 0
    vertex 0.04267050965035694 0.02477226405306407 0.005
    vertex 0.04422485506595544 0.02123336918834063 0.01000000000000003
  endloop
endfacet
facet normal 0.915579 0.402138 0
  outer loop
    vertex 0.04111616423475844 0.02831115891778751 0.009999999999999972
    vertex 0.04267050965035694 0.02477226405306407 0.005
    vertex 0.04111616423475844 0.02831115891778751 0
  endloop
endfacet
facet normal 0.915579 0.402138 -0
  outer loop
    vertex 0.04422485506595544 0.02123336918834063 0.01000000000000003
    vertex 0.04267050965035694 0.02477226405306407 0.015
    vertex 0.04422485506595544 0.02123336918834063 0.02
  endloop
endfacet
facet normal 0.915579 0.402138 1.31486e-16
  outer loop
    vertex 0.04422485506595544 0.02123336918834063 0.02
    vertex 0.04267050965035694 0.02477226405306407 0.015
    vertex 0.04111616423475844 0.02831115891778751 0.02
  endloop
endfacet
facet normal 0.915579 0.402138 1.31486e-16
  outer loop
    vertex 0.04422485506595544 0.02123336918834063 0.01000000000000003
    vertex 0.04267050965035694 0.02477226405306407 0.005
    vertex 0.04111616423475844 0.02831115891778751 0.009999999999999972
  endloop
endfacet
facet normal 0.915579 0.402138 -1.31486e-16
  outer loop
    vertex 0.04111616423475844 0.02831115891778751 0.009999999999999972
    vertex 0.04267050965035694 0.02477226405306407 0.015
    vertex 0.04422485506595544 0.02123336918834063 0.01000000000000003
  endloop
endfacet
facet normal 0.915579 0.402138 -1.31486e-16
  outer loop
    vertex 0.04111616423475844 0.02831115891778751 0
    vertex 0.04267050965035694 0.02477226405306407 0.005
    vertex 0.04422485506595544 0.02123336918834063 0
  endloop
endfacet
facet normal 0.97959 -0.201004 0
  outer loop
    vertex 0.04422485506595544 0.02123336918834063 0
    vertex 0.04349870088935871 0.01769447432361719 0.005
    vertex 0.04277254671276199 0.01415557945889375 0
  endloop
endfacet
facet normal 0.97959 -0.201004 0
  outer loop
    vertex 0.04422485506595544 0.02123336918834063 0.009999999999999972
    vertex 0.04349870088935871 0.01769447432361719 0.015
    vertex 0.04277254671276199 0.01415557945889375 0.01000000000000003
  endloop
endfacet
facet normal 0.97959 -0.201004 0
  outer loop
    vertex 0.04277254671276199 0.01415557945889375 0.02
    vertex 0.04349870088935871 0.01769447432361719 0.015
    vertex 0.04422485506595544 0.02123336918834063 0.02
  endloop
endfacet
facet normal 0.97959 -0.201004 0
  outer loop
    vertex 0.04277254671276199 0.01415557945889375 0.01000000000000003
    vertex 0.04349870088935871 0.01769447432361719 0.005
    vertex 0.04422485506595544 0.02123336918834063 0.009999999999999972
  endloop
endfacet
facet normal 0.97959 -0.201004 0
  outer loop
    vertex 0.04422485506595544 0.02123336918834063 0.009999999999999972
    vertex 0.04349870088935871 0.01769447432361719 0.005
    vertex 0.04422485506595544 0.02123336918834063 0
  endloop
endfacet
facet normal 0.97959 -0.201004 0
  outer loop
    vertex 0.04422485506595544 0.02123336918834063 0.02
    vertex 0.04349870088935871 0.01769447432361719 0.015
    vertex 0.04422485506595544 0.02123336918834063 0.009999999999999972
  endloop
endfacet
facet normal 0.97959 -0.201004 0
  outer loop
    vertex 0.04277254671276199 0.01415557945889375 0
    vertex 0.04349870088935871 0.01769447432361719 0.005
    vertex 0.04277254671276199 0.01415557945889375 0.01000000000000003
  endloop
endfacet
facet normal 0.97959 -0.201004 0
  outer loop
    vertex 0.04277254671276199 0.01415557945889375 0.01000000000000003
    vertex 0.04349870088935871 0.01769447432361719 0.015
    vertex 0.04277254671276199 0.01415557945889375 0.02
  endloop
endfacet
facet normal 0.619326 -0.785134 -8.28006e-16
  outer loop
    vertex 0.04277254671276199 0.01415557945889375 0
    vertex 0.03828620545631974 0.01061668459417031 0.005728862973760923
    vertex 0.03379986419987747 0.007077789729446879 0
  endloop
endfacet
facet normal 0.619326 -0.785134 4.17878e-16
  outer loop
    vertex 0.03379986419987747 0.007077789729446879 0.02
    vertex 0.03828620545631974 0.01061668459417032 0.01432426114969102
    vertex 0.04277254671276199 0.01415557945889375 0.02
  endloop
endfacet
facet normal 0.619326 -0.785134 0
  outer loop
    vertex 0.03379986419987747 0.007077789729446879 0
    vertex 0.03828620545631974 0.01061668459417031 0.005728862973760923
    vertex 0.03379986419987747 0.007077789729446879 0.01000000000000003
  endloop
endfacet
facet normal 0.619326 -0.785134 0
  outer loop
    vertex 0.04277254671276199 0.01415557945889375 0.02
    vertex 0.03828620545631974 0.01061668459417032 0.01432426114969102
    vertex 0.04277254671276199 0.01415557945889375 0.009999999999999972
  endloop
endfacet
facet normal 0.619326 -0.785134 2.92309e-16
  outer loop
    vertex 0.03828620545631974 0.01061668459417031 0.005728862973760923
    vertex 0.03828620545631974 0.01061668459417032 0.01432426114969102
    vertex 0.03379986419987747 0.007077789729446879 0.01000000000000003
  endloop
endfacet
facet normal 0.619326 -0.785134 2.75934e-16
  outer loop
    vertex 0.04277254671276199 0.01415557945889375 0.009999999999999972
    vertex 0.03828620545631974 0.01061668459417032 0.01432426114969102
    vertex 0.03828620545631974 0.01061668459417031 0.005728862973760923
  endloop
endfacet
facet normal 0.619326 -0.785134 0
  outer loop
    vertex 0.04277254671276199 0.01415557945889375 0.009999999999999972
    vertex 0.03828620545631974 0.01061668459417031 0.005728862973760923
    vertex 0.04277254671276199 0.01415557945889375 0
  endloop
endfacet
facet normal 0.619326 -0.785134 0
  outer loop
    vertex 0.03379986419987747 0.007077789729446879 0.01000000000000003
    vertex 0.03828620545631974 0.01061668459417032 0.01432426114969102
    vertex 0.03379986419987747 0.007077789729446879 0.02
  endloop
endfacet
endsolid Created by Gmsh
