solid Created by Gmsh
facet normal 0.996943 -0.0781344 6.72433e-17
  outer loop
    vertex 0.00970869015524916 0.02180174748126535 0
    vertex 0.009190509439081984 0.01519010692792546 0.01036818163798416
    vertex 0.00885434507762458 0.01090087374063268 0
  endloop
endfacet
facet normal 0.996943 -0.0781344 -7.37204e-18
  outer loop
    vertex 0.01056303523287374 0.03270262122189802 0.02
    vertex 0.01108068568144627 0.03930749591417154 0.009491968270771062
    vertex 0.01141738031049832 0.04360349496253069 0.02
  endloop
endfacet
facet normal 0.996943 -0.0781344 -5.81253e-17
  outer loop
    vertex 0.01056303523287374 0.03270262122189802 0.02
    vertex 0.01013577431612901 0.02725105670807062 0.009976691651459204
    vertex 0.01108068568144627 0.03930749591417154 0.009491968270771062
  endloop
endfacet
facet normal 0.996943 -0.0781344 -1.31385e-16
  outer loop
    vertex 0.00970869015524916 0.02180174748126534 0.02
    vertex 0.01013577431612901 0.02725105670807062 0.009976691651459204
    vertex 0.01056303523287374 0.03270262122189802 0.02
  endloop
endfacet
facet normal 0.996943 -0.0781344 3.10301e-17
  outer loop
    vertex 0.00970869015524916 0.02180174748126535 0
    vertex 0.01013577431612901 0.02725105670807062 0.009976691651459204
    vertex 0.009190509439081984 0.01519010692792546 0.01036818163798416
  endloop
endfacet
facet normal 0.996943 -0.0781344 -1.70656e-16
  outer loop
    vertex 0.009190509439081984 0.01519010692792546 0.01036818163798416
    vertex 0.01013577431612901 0.02725105670807062 0.009976691651459204
    vertex 0.00970869015524916 0.02180174748126534 0.02
  endloop
endfacet
facet normal 0.996943 -0.0781344 0
  outer loop
    vertex 0.0122717253881229 0.05450436870316337 0.02
    vertex 0.0116807315426645 0.04696368115247798 0.0122849807801332
    vertex 0.0122717253881229 0.05450436870316337 0.009999999999999972
  endloop
endfacet
facet normal 0.996943 -0.0781344 0
  outer loop
    vertex 0.008 0 0
    vertex 0.008590955196216808 0.007540194412123693 0.007704826064528265
    vertex 0.008 0 0.01000000000000003
  endloop
endfacet
facet normal 0.996943 -0.0781344 1.50813e-16
  outer loop
    vertex 0.00885434507762458 0.01090087374063268 0
    vertex 0.008590955196216808 0.007540194412123693 0.007704826064528265
    vertex 0.008 0 0
  endloop
endfacet
facet normal 0.996943 -0.0781344 -4.5184e-17
  outer loop
    vertex 0.01141738031049832 0.04360349496253069 0.02
    vertex 0.0116807315426645 0.04696368115247798 0.0122849807801332
    vertex 0.0122717253881229 0.05450436870316337 0.02
  endloop
endfacet
facet normal 0.996943 -0.0781344 7.76466e-18
  outer loop
    vertex 0.01056303523287374 0.03270262122189803 0
    vertex 0.01013577431612901 0.02725105670807062 0.009976691651459204
    vertex 0.00970869015524916 0.02180174748126535 0
  endloop
endfacet
facet normal 0.996943 -0.0781344 -5.0247e-17
  outer loop
    vertex 0.01108068568144627 0.03930749591417154 0.009491968270771062
    vertex 0.01013577431612901 0.02725105670807062 0.009976691651459204
    vertex 0.01056303523287374 0.03270262122189803 0
  endloop
endfacet
facet normal 0.996943 -0.0781344 -7.75312e-17
  outer loop
    vertex 0.01141738031049832 0.04360349496253067 0
    vertex 0.01108068568144627 0.03930749591417154 0.009491968270771062
    vertex 0.01056303523287374 0.03270262122189803 0
  endloop
endfacet
facet normal 0.996943 -0.0781344 -1.56832e-16
  outer loop
    vertex 0.008854345077624582 0.01090087374063269 0.02
    vertex 0.009190509439081984 0.01519010692792546 0.01036818163798416
    vertex 0.00970869015524916 0.02180174748126534 0.02
  endloop
endfacet
facet normal 0.996943 -0.0781344 -1.58245e-16
  outer loop
    vertex 0.008854345077624582 0.01090087374063269 0.02
    vertex 0.008478187540736976 0.006101354291653094 0.01429316405127679
    vertex 0.009190509439081984 0.01519010692792546 0.01036818163798416
  endloop
endfacet
facet normal 0.996943 -0.0781344 -4.52376e-17
  outer loop
    vertex 0.01141738031049832 0.04360349496253067 0
    vertex 0.01179347979464753 0.04840227369726251 0.005691525413357568
    vertex 0.01108068568144627 0.03930749591417154 0.009491968270771062
  endloop
endfacet
facet normal 0.996943 -0.0781344 -7.78542e-17
  outer loop
    vertex 0.009190509439081984 0.01519010692792546 0.01036818163798416
    vertex 0.008478187540736976 0.006101354291653094 0.01429316405127679
    vertex 0.008590955196216808 0.007540194412123693 0.007704826064528265
  endloop
endfacet
facet normal 0.996943 -0.0781344 0
  outer loop
    vertex 0.01108068568144627 0.03930749591417154 0.009491968270771062
    vertex 0.01179347979464753 0.04840227369726251 0.005691525413357568
    vertex 0.0116807315426645 0.04696368115247798 0.0122849807801332
  endloop
endfacet
facet normal 0.996943 -0.0781344 1.11942e-16
  outer loop
    vertex 0.009190509439081984 0.01519010692792546 0.01036818163798416
    vertex 0.008590955196216808 0.007540194412123693 0.007704826064528265
    vertex 0.00885434507762458 0.01090087374063268 0
  endloop
endfacet
facet normal 0.996943 -0.0781344 -3.70085e-17
  outer loop
    vertex 0.01108068568144627 0.03930749591417154 0.009491968270771062
    vertex 0.0116807315426645 0.04696368115247798 0.0122849807801332
    vertex 0.01141738031049832 0.04360349496253069 0.02
  endloop
endfacet
facet normal 0.996943 -0.0781344 -1.76464e-16
  outer loop
    vertex 0.008 0 0.02
    vertex 0.008478187540736976 0.006101354291653094 0.01429316405127679
    vertex 0.008854345077624582 0.01090087374063269 0.02
  endloop
endfacet
facet normal 0.996943 -0.0781344 -1.36107e-17
  outer loop
    vertex 0.0122717253881229 0.05450436870316337 0
    vertex 0.01179347979464753 0.04840227369726251 0.005691525413357568
    vertex 0.01141738031049832 0.04360349496253067 0
  endloop
endfacet
facet normal 0.996943 -0.0781344 0
  outer loop
    vertex 0.0122717253881229 0.05450436870316337 0.009999999999999972
    vertex 0.01179347979464753 0.04840227369726251 0.005691525413357568
    vertex 0.0122717253881229 0.05450436870316337 0
  endloop
endfacet
facet normal 0.996943 -0.0781344 0
  outer loop
    vertex 0.008 0 0.01000000000000003
    vertex 0.008478187540736976 0.006101354291653094 0.01429316405127679
    vertex 0.008 0 0.02
  endloop
endfacet
facet normal 0.996943 -0.0781344 -4.54666e-18
  outer loop
    vertex 0.0116807315426645 0.04696368115247798 0.0122849807801332
    vertex 0.01179347979464753 0.04840227369726251 0.005691525413357568
    vertex 0.0122717253881229 0.05450436870316337 0.009999999999999972
  endloop
endfacet
facet normal 0.996943 -0.0781344 -3.64181e-17
  outer loop
    vertex 0.008590955196216808 0.007540194412123693 0.007704826064528265
    vertex 0.008478187540736976 0.006101354291653094 0.01429316405127679
    vertex 0.008 0 0.01000000000000003
  endloop
endfacet
endsolid Created by Gmsh
