solid Created by Gmsh
facet normal -0.621612 0.783325 0
  outer loop
    vertex 0.03770732086467719 0.049703607792486 0.02
    vertex 0.03770732086467719 0.049703607792486 0.009999999999999972
    vertex 0.03379269294503069 0.04659713230545564 0.015
  endloop
endfacet
facet normal -0.621612 0.783325 0
  outer loop
    vertex 0.0298780650253842 0.04349065681842525 0
    vertex 0.0298780650253842 0.04349065681842525 0.01000000000000003
    vertex 0.03379269294503069 0.04659713230545563 0.005
  endloop
endfacet
facet normal -0.621612 0.783325 0
  outer loop
    vertex 0.03770732086467719 0.049703607792486 0.009999999999999972
    vertex 0.03770732086467719 0.049703607792486 0
    vertex 0.03379269294503069 0.04659713230545563 0.005
  endloop
endfacet
facet normal -0.621612 0.783325 0
  outer loop
    vertex 0.0298780650253842 0.04349065681842525 0.01000000000000003
    vertex 0.0298780650253842 0.04349065681842525 0.02
    vertex 0.03379269294503069 0.04659713230545564 0.015
  endloop
endfacet
facet normal -0.621612 0.783325 -8.13567e-16
  outer loop
    vertex 0.03770732086467719 0.049703607792486 0
    vertex 0.0298780650253842 0.04349065681842525 0
    vertex 0.03379269294503069 0.04659713230545563 0.005
  endloop
endfacet
facet normal -0.621612 0.783325 -1.89832e-15
  outer loop
    vertex 0.03770732086467719 0.049703607792486 0.009999999999999972
    vertex 0.0298780650253842 0.04349065681842525 0.01000000000000003
    vertex 0.03379269294503069 0.04659713230545564 0.015
  endloop
endfacet
facet normal -0.621612 0.783325 1.89832e-15
  outer loop
    vertex 0.0298780650253842 0.04349065681842525 0.02
    vertex 0.03770732086467719 0.049703607792486 0.02
    vertex 0.03379269294503069 0.04659713230545564 0.015
  endloop
endfacet
facet normal -0.621612 0.783325 7.45769e-16
  outer loop
    vertex 0.0298780650253842 0.04349065681842525 0.01000000000000003
    vertex 0.03770732086467719 0.049703607792486 0.009999999999999972
    vertex 0.03379269294503069 0.04659713230545563 0.005
  endloop
endfacet
facet normal -0.998963 0.0455211 -1.76369e-15
  outer loop
    vertex 0.0298780650253842 0.04349065681842525 0
    vertex 0.02959495100209701 0.0372777058443645 0
    vertex 0.0297365080137406 0.04038418133139488 0.004999999999999999
  endloop
endfacet
facet normal -0.998963 0.0455211 1.76369e-15
  outer loop
    vertex 0.02959495100209701 0.0372777058443645 0.02
    vertex 0.0298780650253842 0.04349065681842525 0.02
    vertex 0.0297365080137406 0.04038418133139488 0.015
  endloop
endfacet
facet normal -0.998963 0.0455211 -1.76369e-15
  outer loop
    vertex 0.0298780650253842 0.04349065681842525 0.009999999999999972
    vertex 0.02959495100209701 0.0372777058443645 0.01000000000000003
    vertex 0.0297365080137406 0.04038418133139488 0.015
  endloop
endfacet
facet normal -0.998963 0.0455211 1.76369e-15
  outer loop
    vertex 0.02959495100209701 0.0372777058443645 0.01000000000000003
    vertex 0.0298780650253842 0.04349065681842525 0.009999999999999972
    vertex 0.0297365080137406 0.04038418133139488 0.004999999999999999
  endloop
endfacet
facet normal -0.998963 0.0455211 0
  outer loop
    vertex 0.0298780650253842 0.04349065681842525 0.009999999999999972
    vertex 0.0298780650253842 0.04349065681842525 0
    vertex 0.0297365080137406 0.04038418133139488 0.004999999999999999
  endloop
endfacet
facet normal -0.998963 0.0455211 0
  outer loop
    vertex 0.0298780650253842 0.04349065681842525 0.02
    vertex 0.0298780650253842 0.04349065681842525 0.009999999999999972
    vertex 0.0297365080137406 0.04038418133139488 0.015
  endloop
endfacet
facet normal -0.998963 0.0455211 0
  outer loop
    vertex 0.02959495100209701 0.0372777058443645 0
    vertex 0.02959495100209701 0.0372777058443645 0.01000000000000003
    vertex 0.0297365080137406 0.04038418133139488 0.004999999999999999
  endloop
endfacet
facet normal -0.998963 0.0455211 0
  outer loop
    vertex 0.02959495100209701 0.0372777058443645 0.01000000000000003
    vertex 0.02959495100209701 0.0372777058443645 0.02
    vertex 0.0297365080137406 0.04038418133139488 0.015
  endloop
endfacet
facet normal -0.983875 -0.178858 4.69473e-16
  outer loop
    vertex 0.02959495100209701 0.0372777058443645 0
    vertex 0.03072439663894646 0.03106475487030375 0
    vertex 0.03015967382052174 0.03417123035733413 0.005
  endloop
endfacet
facet normal -0.983875 -0.178858 4.69473e-16
  outer loop
    vertex 0.02959495100209701 0.0372777058443645 0.009999999999999972
    vertex 0.03072439663894646 0.03106475487030375 0.01000000000000003
    vertex 0.03015967382052174 0.03417123035733413 0.015
  endloop
endfacet
facet normal -0.983875 -0.178858 -4.56059e-16
  outer loop
    vertex 0.03072439663894646 0.03106475487030375 0.02
    vertex 0.02959495100209701 0.0372777058443645 0.02
    vertex 0.03015967382052174 0.03417123035733413 0.015
  endloop
endfacet
facet normal -0.983875 -0.178858 -4.56059e-16
  outer loop
    vertex 0.03072439663894646 0.03106475487030375 0.01000000000000003
    vertex 0.02959495100209701 0.0372777058443645 0.009999999999999972
    vertex 0.03015967382052174 0.03417123035733413 0.005
  endloop
endfacet
facet normal -0.983875 -0.178858 -0
  outer loop
    vertex 0.02959495100209701 0.0372777058443645 0.009999999999999972
    vertex 0.02959495100209701 0.0372777058443645 0
    vertex 0.03015967382052174 0.03417123035733413 0.005
  endloop
endfacet
facet normal -0.983875 -0.178858 -0
  outer loop
    vertex 0.02959495100209701 0.0372777058443645 0.02
    vertex 0.02959495100209701 0.0372777058443645 0.009999999999999972
    vertex 0.03015967382052174 0.03417123035733413 0.015
  endloop
endfacet
facet normal -0.983875 -0.178858 0
  outer loop
    vertex 0.03072439663894646 0.03106475487030375 0
    vertex 0.03072439663894646 0.03106475487030375 0.01000000000000003
    vertex 0.03015967382052174 0.03417123035733413 0.005
  endloop
endfacet
facet normal -0.983875 -0.178858 0
  outer loop
    vertex 0.03072439663894646 0.03106475487030375 0.01000000000000003
    vertex 0.03072439663894646 0.03106475487030375 0.02
    vertex 0.03015967382052174 0.03417123035733413 0.015
  endloop
endfacet
facet normal -0.957114 0.289713 -3.13168e-16
  outer loop
    vertex 0.03072439663894646 0.03106475487030375 0.009999999999999972
    vertex 0.02884377088203289 0.024851803896243 0.01000000000000003
    vertex 0.02978408376048967 0.02795827938327338 0.015
  endloop
endfacet
facet normal -0.957114 0.289713 3.39265e-16
  outer loop
    vertex 0.02884377088203289 0.024851803896243 0.01000000000000003
    vertex 0.03072439663894646 0.03106475487030375 0.009999999999999972
    vertex 0.02978408376048967 0.02795827938327338 0.004999999999999999
  endloop
endfacet
facet normal -0.957114 0.289713 -3.13168e-16
  outer loop
    vertex 0.03072439663894646 0.03106475487030375 0
    vertex 0.02884377088203289 0.024851803896243 0
    vertex 0.02978408376048967 0.02795827938327338 0.004999999999999999
  endloop
endfacet
facet normal -0.957114 0.289713 3.39265e-16
  outer loop
    vertex 0.02884377088203289 0.024851803896243 0.02
    vertex 0.03072439663894646 0.03106475487030375 0.02
    vertex 0.02978408376048967 0.02795827938327338 0.015
  endloop
endfacet
facet normal -0.957114 0.289713 0
  outer loop
    vertex 0.03072439663894646 0.03106475487030375 0.009999999999999972
    vertex 0.03072439663894646 0.03106475487030375 0
    vertex 0.02978408376048967 0.02795827938327338 0.004999999999999999
  endloop
endfacet
facet normal -0.957114 0.289713 0
  outer loop
    vertex 0.03072439663894646 0.03106475487030375 0.02
    vertex 0.03072439663894646 0.03106475487030375 0.009999999999999972
    vertex 0.02978408376048967 0.02795827938327338 0.015
  endloop
endfacet
facet normal -0.957114 0.289713 0
  outer loop
    vertex 0.02884377088203289 0.024851803896243 0
    vertex 0.02884377088203289 0.024851803896243 0.01000000000000003
    vertex 0.02978408376048967 0.02795827938327338 0.004999999999999999
  endloop
endfacet
facet normal -0.957114 0.289713 0
  outer loop
    vertex 0.02884377088203289 0.024851803896243 0.01000000000000003
    vertex 0.02884377088203289 0.024851803896243 0.02
    vertex 0.02978408376048967 0.02795827938327338 0.015
  endloop
endfacet
facet normal -0.993585 0.113087 -3.52193e-16
  outer loop
    vertex 0.02813662795832755 0.01863885292218225 0.01000000000000003
    vertex 0.02884377088203289 0.024851803896243 0.009999999999999972
    vertex 0.02849019942018022 0.02174532840921263 0.004999999999999999
  endloop
endfacet
facet normal -0.993585 0.113087 3.38647e-16
  outer loop
    vertex 0.02884377088203289 0.024851803896243 0.009999999999999972
    vertex 0.02813662795832755 0.01863885292218225 0.01000000000000003
    vertex 0.02849019942018022 0.02174532840921263 0.015
  endloop
endfacet
facet normal -0.993585 0.113087 3.38647e-16
  outer loop
    vertex 0.02884377088203289 0.024851803896243 0
    vertex 0.02813662795832755 0.01863885292218225 0
    vertex 0.02849019942018022 0.02174532840921263 0.004999999999999999
  endloop
endfacet
facet normal -0.993585 0.113087 -3.52193e-16
  outer loop
    vertex 0.02813662795832755 0.01863885292218225 0.02
    vertex 0.02884377088203289 0.024851803896243 0.02
    vertex 0.02849019942018022 0.02174532840921263 0.015
  endloop
endfacet
facet normal -0.993585 0.113087 0
  outer loop
    vertex 0.02884377088203289 0.024851803896243 0.009999999999999972
    vertex 0.02884377088203289 0.024851803896243 0
    vertex 0.02849019942018022 0.02174532840921263 0.004999999999999999
  endloop
endfacet
facet normal -0.993585 0.113087 0
  outer loop
    vertex 0.02884377088203289 0.024851803896243 0.02
    vertex 0.02884377088203289 0.024851803896243 0.009999999999999972
    vertex 0.02849019942018022 0.02174532840921263 0.015
  endloop
endfacet
facet normal -0.993585 0.113087 0
  outer loop
    vertex 0.02813662795832755 0.01863885292218225 0
    vertex 0.02813662795832755 0.01863885292218225 0.01000000000000003
    vertex 0.02849019942018022 0.02174532840921263 0.004999999999999999
  endloop
endfacet
facet normal -0.993585 0.113087 0
  outer loop
    vertex 0.02813662795832755 0.01863885292218225 0.01000000000000003
    vertex 0.02813662795832755 0.01863885292218225 0.02
    vertex 0.02849019942018022 0.02174532840921263 0.015
  endloop
endfacet
facet normal -0.971894 0.23542 7.42009e-16
  outer loop
    vertex 0.02663167368800717 0.0124259019481215 0.01000000000000003
    vertex 0.02813662795832755 0.01863885292218225 0.009999999999999972
    vertex 0.02738415082316736 0.01553237743515188 0.005000000000000001
  endloop
endfacet
facet normal -0.971894 0.23542 -6.89008e-16
  outer loop
    vertex 0.02813662795832755 0.01863885292218225 0.009999999999999972
    vertex 0.02663167368800717 0.0124259019481215 0.01000000000000003
    vertex 0.02738415082316736 0.01553237743515188 0.015
  endloop
endfacet
facet normal -0.971894 0.23542 -7.68509e-16
  outer loop
    vertex 0.02813662795832755 0.01863885292218225 0
    vertex 0.02663167368800717 0.0124259019481215 0
    vertex 0.02738415082316736 0.01553237743515188 0.005000000000000001
  endloop
endfacet
facet normal -0.971894 0.23542 6.62508e-16
  outer loop
    vertex 0.02663167368800717 0.0124259019481215 0.02
    vertex 0.02813662795832755 0.01863885292218225 0.02
    vertex 0.02738415082316736 0.01553237743515188 0.015
  endloop
endfacet
facet normal -0.971894 0.23542 0
  outer loop
    vertex 0.02813662795832755 0.01863885292218225 0.009999999999999972
    vertex 0.02813662795832755 0.01863885292218225 0
    vertex 0.02738415082316736 0.01553237743515188 0.005000000000000001
  endloop
endfacet
facet normal -0.971894 0.23542 0
  outer loop
    vertex 0.02813662795832755 0.01863885292218225 0.02
    vertex 0.02813662795832755 0.01863885292218225 0.009999999999999972
    vertex 0.02738415082316736 0.01553237743515188 0.015
  endloop
endfacet
facet normal -0.971894 0.23542 0
  outer loop
    vertex 0.02663167368800717 0.0124259019481215 0
    vertex 0.02663167368800717 0.0124259019481215 0.01000000000000003
    vertex 0.02738415082316736 0.01553237743515188 0.005000000000000001
  endloop
endfacet
facet normal -0.971894 0.23542 0
  outer loop
    vertex 0.02663167368800717 0.0124259019481215 0.01000000000000003
    vertex 0.02663167368800717 0.0124259019481215 0.02
    vertex 0.02738415082316736 0.01553237743515188 0.015
  endloop
endfacet
facet normal -0.893203 -0.449653 -7.7935e-16
  outer loop
    vertex 0.02663167368800717 0.0124259019481215 0
    vertex 0.02975937645267344 0.006212950974060751 0
    vertex 0.0281955250703403 0.009319426461091124 0.004999999999999999
  endloop
endfacet
facet normal -0.893203 -0.449653 7.7935e-16
  outer loop
    vertex 0.02975937645267344 0.006212950974060751 0.02
    vertex 0.02663167368800717 0.0124259019481215 0.02
    vertex 0.0281955250703403 0.009319426461091124 0.015
  endloop
endfacet
facet normal -0.893203 -0.449653 7.7935e-16
  outer loop
    vertex 0.02975937645267344 0.006212950974060751 0.01000000000000003
    vertex 0.02663167368800717 0.0124259019481215 0.009999999999999972
    vertex 0.0281955250703403 0.009319426461091124 0.004999999999999999
  endloop
endfacet
facet normal -0.893203 -0.449653 -7.7935e-16
  outer loop
    vertex 0.02663167368800717 0.0124259019481215 0.009999999999999972
    vertex 0.02975937645267344 0.006212950974060751 0.01000000000000003
    vertex 0.0281955250703403 0.009319426461091124 0.015
  endloop
endfacet
facet normal -0.893203 -0.449653 -0
  outer loop
    vertex 0.02663167368800717 0.0124259019481215 0.009999999999999972
    vertex 0.02663167368800717 0.0124259019481215 0
    vertex 0.0281955250703403 0.009319426461091124 0.004999999999999999
  endloop
endfacet
facet normal -0.893203 -0.449653 -0
  outer loop
    vertex 0.02663167368800717 0.0124259019481215 0.02
    vertex 0.02663167368800717 0.0124259019481215 0.009999999999999972
    vertex 0.0281955250703403 0.009319426461091124 0.015
  endloop
endfacet
facet normal -0.893203 -0.449653 0
  outer loop
    vertex 0.02975937645267344 0.006212950974060751 0
    vertex 0.02975937645267344 0.006212950974060751 0.01000000000000003
    vertex 0.0281955250703403 0.009319426461091124 0.004999999999999999
  endloop
endfacet
facet normal -0.893203 -0.449653 0
  outer loop
    vertex 0.02975937645267344 0.006212950974060751 0.01000000000000003
    vertex 0.02975937645267344 0.006212950974060751 0.02
    vertex 0.0281955250703403 0.009319426461091124 0.015
  endloop
endfacet
endsolid Created by Gmsh
