solid Created by Gmsh
facet normal -0.838071 -0.545561 -0
  outer loop
    vertex 0.03167563086794992 0.05394493327971144 0.02
    vertex 0.03167563086794992 0.05394493327971144 0.009999999999999972
    vertex 0.03387042410819401 0.05057337494972947 0.015
  endloop
endfacet
facet normal -0.838071 -0.545561 0
  outer loop
    vertex 0.0360652173484381 0.0472018166197475 0
    vertex 0.0360652173484381 0.0472018166197475 0.01000000000000003
    vertex 0.03387042410819401 0.05057337494972947 0.004999999999999999
  endloop
endfacet
facet normal -0.838071 -0.545561 -0
  outer loop
    vertex 0.03167563086794992 0.05394493327971144 0.009999999999999972
    vertex 0.03167563086794992 0.05394493327971144 0
    vertex 0.03387042410819401 0.05057337494972947 0.004999999999999999
  endloop
endfacet
facet normal -0.838071 -0.545561 0
  outer loop
    vertex 0.0360652173484381 0.0472018166197475 0.01000000000000003
    vertex 0.0360652173484381 0.0472018166197475 0.02
    vertex 0.03387042410819401 0.05057337494972947 0.015
  endloop
endfacet
facet normal -0.838071 -0.545561 -2.10548e-16
  outer loop
    vertex 0.03167563086794992 0.05394493327971144 0
    vertex 0.0360652173484381 0.0472018166197475 0
    vertex 0.03387042410819401 0.05057337494972947 0.004999999999999999
  endloop
endfacet
facet normal -0.838071 -0.545561 2.10548e-16
  outer loop
    vertex 0.0360652173484381 0.0472018166197475 0.02
    vertex 0.03167563086794992 0.05394493327971144 0.02
    vertex 0.03387042410819401 0.05057337494972947 0.015
  endloop
endfacet
facet normal -0.838071 -0.545561 2.10548e-16
  outer loop
    vertex 0.0360652173484381 0.0472018166197475 0.01000000000000003
    vertex 0.03167563086794992 0.05394493327971144 0.009999999999999972
    vertex 0.03387042410819401 0.05057337494972947 0.004999999999999999
  endloop
endfacet
facet normal -0.838071 -0.545561 -2.10548e-16
  outer loop
    vertex 0.03167563086794992 0.05394493327971144 0.009999999999999972
    vertex 0.0360652173484381 0.0472018166197475 0.01000000000000003
    vertex 0.03387042410819401 0.05057337494972947 0.015
  endloop
endfacet
facet normal -0.431287 0.902215 1.72986e-16
  outer loop
    vertex 0.02901220407704379 0.04383025828976554 0
    vertex 0.02195919080564947 0.04045869995978357 0
    vertex 0.0290924433603313 0.04386861514711855 0.007986094977763303
  endloop
endfacet
facet normal -0.431287 0.902215 1.6281e-16
  outer loop
    vertex 0.0360652173484381 0.0472018166197475 0
    vertex 0.02901220407704379 0.04383025828976554 0
    vertex 0.0290924433603313 0.04386861514711855 0.007986094977763303
  endloop
endfacet
facet normal -0.431287 0.902215 0
  outer loop
    vertex 0.02195919080564947 0.04045869995978357 0
    vertex 0.02195919080564947 0.04045869995978357 0.01000000000000003
    vertex 0.0290924433603313 0.04386861514711855 0.007986094977763303
  endloop
endfacet
facet normal -0.431287 0.902215 0
  outer loop
    vertex 0.0360652173484381 0.0472018166197475 0.009999999999999972
    vertex 0.0360652173484381 0.0472018166197475 0
    vertex 0.0290924433603313 0.04386861514711855 0.007986094977763303
  endloop
endfacet
facet normal -0.431287 0.902215 0
  outer loop
    vertex 0.0360652173484381 0.0472018166197475 0.02
    vertex 0.0360652173484381 0.0472018166197475 0.009999999999999972
    vertex 0.0313881855654206 0.04496605087525661 0.0143919778855492
  endloop
endfacet
facet normal -0.431287 0.902215 0
  outer loop
    vertex 0.02195919080564947 0.04045869995978357 0.01000000000000003
    vertex 0.02195919080564947 0.04045869995978357 0.02
    vertex 0.02668224292281892 0.04271646484634157 0.01447561457266251
  endloop
endfacet
facet normal -0.431287 0.902215 7.84534e-17
  outer loop
    vertex 0.02195919080564947 0.04045869995978357 0.02
    vertex 0.02901220407704378 0.04383025828976553 0.02
    vertex 0.02668224292281892 0.04271646484634157 0.01447561457266251
  endloop
endfacet
facet normal -0.431287 0.902215 2.3185e-16
  outer loop
    vertex 0.02901220407704378 0.04383025828976553 0.02
    vertex 0.0360652173484381 0.0472018166197475 0.02
    vertex 0.0313881855654206 0.04496605087525661 0.0143919778855492
  endloop
endfacet
facet normal -0.431287 0.902215 -1.90845e-16
  outer loop
    vertex 0.0313881855654206 0.04496605087525661 0.0143919778855492
    vertex 0.0360652173484381 0.0472018166197475 0.009999999999999972
    vertex 0.0290924433603313 0.04386861514711855 0.007986094977763303
  endloop
endfacet
facet normal -0.431287 0.902215 -1.2595e-16
  outer loop
    vertex 0.0313881855654206 0.04496605087525661 0.0143919778855492
    vertex 0.0290924433603313 0.04386861514711855 0.007986094977763303
    vertex 0.02668224292281892 0.04271646484634157 0.01447561457266251
  endloop
endfacet
facet normal -0.431287 0.902215 -3.68848e-17
  outer loop
    vertex 0.0290924433603313 0.04386861514711855 0.007986094977763303
    vertex 0.02195919080564947 0.04045869995978357 0.01000000000000003
    vertex 0.02668224292281892 0.04271646484634157 0.01447561457266251
  endloop
endfacet
facet normal -0.431287 0.902215 2.18825e-16
  outer loop
    vertex 0.02901220407704378 0.04383025828976553 0.02
    vertex 0.0313881855654206 0.04496605087525661 0.0143919778855492
    vertex 0.02668224292281892 0.04271646484634157 0.01447561457266251
  endloop
endfacet
facet normal -0.378095 -0.925767 -6.36846e-16
  outer loop
    vertex 0.02195919080564947 0.04045869995978357 0
    vertex 0.03021445462779977 0.03708714162980162 0
    vertex 0.02894808506885923 0.03760434361477336 0.007756040170677811
  endloop
endfacet
facet normal -0.378095 -0.925767 -0
  outer loop
    vertex 0.02195919080564947 0.04045869995978357 0.009999999999999972
    vertex 0.02195919080564947 0.04045869995978357 0
    vertex 0.02894808506885923 0.03760434361477336 0.007756040170677811
  endloop
endfacet
facet normal -0.378095 -0.925767 0
  outer loop
    vertex 0.0384697184499501 0.03371558329981965 0.01000000000000003
    vertex 0.0384697184499501 0.03371558329981965 0.02
    vertex 0.03277689861307984 0.03604060580129156 0.01349237145453195
  endloop
endfacet
facet normal -0.378095 -0.925767 0
  outer loop
    vertex 0.0384697184499501 0.03371558329981965 0
    vertex 0.0384697184499501 0.03371558329981965 0.01000000000000003
    vertex 0.03419467100968211 0.03546156890595248 0.005166270539402655
  endloop
endfacet
facet normal -0.378095 -0.925767 3.50316e-16
  outer loop
    vertex 0.0384697184499501 0.03371558329981965 0.02
    vertex 0.0302144546277998 0.0370871416298016 0.02
    vertex 0.03277689861307984 0.03604060580129156 0.01349237145453195
  endloop
endfacet
facet normal -0.378095 -0.925767 -0
  outer loop
    vertex 0.02195919080564947 0.04045869995978357 0.02
    vertex 0.02195919080564947 0.04045869995978357 0.009999999999999972
    vertex 0.02717156398420756 0.03832989819308673 0.01424968232504195
  endloop
endfacet
facet normal -0.378095 -0.925767 -1.10318e-15
  outer loop
    vertex 0.03021445462779977 0.03708714162980162 0
    vertex 0.0384697184499501 0.03371558329981965 0
    vertex 0.03419467100968211 0.03546156890595248 0.005166270539402655
  endloop
endfacet
facet normal -0.378095 -0.925767 1.15632e-15
  outer loop
    vertex 0.0302144546277998 0.0370871416298016 0.02
    vertex 0.02195919080564947 0.04045869995978357 0.02
    vertex 0.02717156398420756 0.03832989819308673 0.01424968232504195
  endloop
endfacet
facet normal -0.378095 -0.925767 5.38946e-16
  outer loop
    vertex 0.03277689861307984 0.03604060580129156 0.01349237145453195
    vertex 0.02894808506885923 0.03760434361477336 0.007756040170677811
    vertex 0.03419467100968211 0.03546156890595248 0.005166270539402655
  endloop
endfacet
facet normal -0.378095 -0.925767 6.28098e-16
  outer loop
    vertex 0.0384697184499501 0.03371558329981965 0.01000000000000003
    vertex 0.03277689861307984 0.03604060580129156 0.01349237145453195
    vertex 0.03419467100968211 0.03546156890595248 0.005166270539402655
  endloop
endfacet
facet normal -0.378095 -0.925767 8.94805e-17
  outer loop
    vertex 0.02717156398420756 0.03832989819308673 0.01424968232504195
    vertex 0.02894808506885923 0.03760434361477336 0.007756040170677811
    vertex 0.03277689861307984 0.03604060580129156 0.01349237145453195
  endloop
endfacet
facet normal -0.378095 -0.925767 -3.69376e-16
  outer loop
    vertex 0.02717156398420756 0.03832989819308673 0.01424968232504195
    vertex 0.02195919080564947 0.04045869995978357 0.009999999999999972
    vertex 0.02894808506885923 0.03760434361477336 0.007756040170677811
  endloop
endfacet
facet normal -0.378095 -0.925767 -6.6022e-16
  outer loop
    vertex 0.02894808506885923 0.03760434361477336 0.007756040170677811
    vertex 0.03021445462779977 0.03708714162980162 0
    vertex 0.03419467100968211 0.03546156890595248 0.005166270539402655
  endloop
endfacet
facet normal -0.378095 -0.925767 7.37908e-16
  outer loop
    vertex 0.0302144546277998 0.0370871416298016 0.02
    vertex 0.02717156398420756 0.03832989819308673 0.01424968232504195
    vertex 0.03277689861307984 0.03604060580129156 0.01349237145453195
  endloop
endfacet
facet normal -0.787302 -0.616568 0
  outer loop
    vertex 0.04375052818757828 0.02697246663985572 0
    vertex 0.04375052818757828 0.02697246663985572 0.01000000000000003
    vertex 0.04111012331876419 0.03034402496983768 0.005000000000000001
  endloop
endfacet
facet normal -0.787302 -0.616568 -0
  outer loop
    vertex 0.0384697184499501 0.03371558329981965 0.02
    vertex 0.0384697184499501 0.03371558329981965 0.009999999999999972
    vertex 0.04111012331876419 0.03034402496983768 0.015
  endloop
endfacet
facet normal -0.787302 -0.616568 0
  outer loop
    vertex 0.04375052818757828 0.02697246663985572 0.01000000000000003
    vertex 0.04375052818757828 0.02697246663985572 0.02
    vertex 0.04111012331876419 0.03034402496983768 0.015
  endloop
endfacet
facet normal -0.787302 -0.616568 -0
  outer loop
    vertex 0.0384697184499501 0.03371558329981965 0.009999999999999972
    vertex 0.0384697184499501 0.03371558329981965 0
    vertex 0.04111012331876419 0.03034402496983768 0.005000000000000001
  endloop
endfacet
facet normal -0.787302 -0.616568 -9.49406e-16
  outer loop
    vertex 0.0384697184499501 0.03371558329981965 0.009999999999999972
    vertex 0.04375052818757828 0.02697246663985572 0.01000000000000003
    vertex 0.04111012331876419 0.03034402496983768 0.015
  endloop
endfacet
facet normal -0.787302 -0.616568 -9.49406e-16
  outer loop
    vertex 0.0384697184499501 0.03371558329981965 0
    vertex 0.04375052818757828 0.02697246663985572 0
    vertex 0.04111012331876419 0.03034402496983768 0.005000000000000001
  endloop
endfacet
facet normal -0.787302 -0.616568 9.49406e-16
  outer loop
    vertex 0.04375052818757828 0.02697246663985572 0.01000000000000003
    vertex 0.0384697184499501 0.03371558329981965 0.009999999999999972
    vertex 0.04111012331876419 0.03034402496983768 0.005000000000000001
  endloop
endfacet
facet normal -0.787302 -0.616568 9.49406e-16
  outer loop
    vertex 0.04375052818757828 0.02697246663985572 0.02
    vertex 0.0384697184499501 0.03371558329981965 0.02
    vertex 0.04111012331876419 0.03034402496983768 0.015
  endloop
endfacet
facet normal -0.377274 0.926102 -9.7818e-17
  outer loop
    vertex 0.02719806125395762 0.02022934997989179 0.02
    vertex 0.03547429472076795 0.02360090830987375 0.02
    vertex 0.03418776655459591 0.02307680458892284 0.01224829307462028
  endloop
endfacet
facet normal -0.377274 0.926102 0
  outer loop
    vertex 0.02719806125395762 0.02022934997989179 0.01000000000000003
    vertex 0.02719806125395762 0.02022934997989179 0.02
    vertex 0.03418776655459591 0.02307680458892284 0.01224829307462028
  endloop
endfacet
facet normal -0.377274 0.926102 0
  outer loop
    vertex 0.04375052818757828 0.02697246663985572 0.009999999999999972
    vertex 0.04375052818757828 0.02697246663985572 0
    vertex 0.03804017397989461 0.02464619196753385 0.00651716723654545
  endloop
endfacet
facet normal -0.377274 0.926102 -4.07217e-16
  outer loop
    vertex 0.04375052818757828 0.02697246663985572 0
    vertex 0.03547429472076796 0.02360090830987375 0
    vertex 0.03804017397989461 0.02464619196753385 0.00651716723654545
  endloop
endfacet
facet normal -0.377274 0.926102 0
  outer loop
    vertex 0.04375052818757828 0.02697246663985572 0.02
    vertex 0.04375052818757828 0.02697246663985572 0.009999999999999972
    vertex 0.03946357942374566 0.02522605652795294 0.01482254370214548
  endloop
endfacet
facet normal -0.377274 0.926102 0
  outer loop
    vertex 0.02719806125395762 0.02022934997989179 0
    vertex 0.02719806125395762 0.02022934997989179 0.01000000000000003
    vertex 0.03241967155263474 0.0223565209652228 0.005753092062233152
  endloop
endfacet
facet normal -0.377274 0.926102 3.66134e-17
  outer loop
    vertex 0.03547429472076795 0.02360090830987375 0.02
    vertex 0.04375052818757828 0.02697246663985572 0.02
    vertex 0.03946357942374566 0.02522605652795294 0.01482254370214548
  endloop
endfacet
facet normal -0.377274 0.926102 -1.6475e-16
  outer loop
    vertex 0.03547429472076796 0.02360090830987375 0
    vertex 0.02719806125395762 0.02022934997989179 0
    vertex 0.03241967155263474 0.0223565209652228 0.005753092062233152
  endloop
endfacet
facet normal -0.377274 0.926102 1.26984e-16
  outer loop
    vertex 0.03804017397989461 0.02464619196753385 0.00651716723654545
    vertex 0.03418776655459591 0.02307680458892284 0.01224829307462028
    vertex 0.03946357942374566 0.02522605652795294 0.01482254370214548
  endloop
endfacet
facet normal -0.377274 0.926102 3.69416e-17
  outer loop
    vertex 0.04375052818757828 0.02697246663985572 0.009999999999999972
    vertex 0.03804017397989461 0.02464619196753385 0.00651716723654545
    vertex 0.03946357942374566 0.02522605652795294 0.01482254370214548
  endloop
endfacet
facet normal -0.377274 0.926102 6.69405e-17
  outer loop
    vertex 0.03241967155263474 0.0223565209652228 0.005753092062233152
    vertex 0.03418776655459591 0.02307680458892284 0.01224829307462028
    vertex 0.03804017397989461 0.02464619196753385 0.00651716723654545
  endloop
endfacet
facet normal -0.377274 0.926102 -2.8405e-17
  outer loop
    vertex 0.03241967155263474 0.0223565209652228 0.005753092062233152
    vertex 0.02719806125395762 0.02022934997989179 0.01000000000000003
    vertex 0.03418776655459591 0.02307680458892284 0.01224829307462028
  endloop
endfacet
facet normal -0.377274 0.926102 -1.35663e-16
  outer loop
    vertex 0.03418776655459591 0.02307680458892284 0.01224829307462028
    vertex 0.03547429472076795 0.02360090830987375 0.02
    vertex 0.03946357942374566 0.02522605652795294 0.01482254370214548
  endloop
endfacet
facet normal -0.377274 0.926102 -3.62022e-16
  outer loop
    vertex 0.03547429472076796 0.02360090830987375 0
    vertex 0.03241967155263474 0.0223565209652228 0.005753092062233152
    vertex 0.03804017397989461 0.02464619196753385 0.00651716723654545
  endloop
endfacet
facet normal -0.981471 0.19161 0
  outer loop
    vertex 0.02719806125395762 0.02022934997989179 0.009999999999999972
    vertex 0.02588162099383157 0.01348623331992786 0.01000000000000003
    vertex 0.0265398411238946 0.01685779164990982 0.015
  endloop
endfacet
facet normal -0.981471 0.19161 0
  outer loop
    vertex 0.02588162099383157 0.01348623331992786 0.01000000000000003
    vertex 0.02719806125395762 0.02022934997989179 0.009999999999999972
    vertex 0.0265398411238946 0.01685779164990982 0.005
  endloop
endfacet
facet normal -0.981471 0.19161 0
  outer loop
    vertex 0.02719806125395762 0.02022934997989179 0
    vertex 0.02588162099383157 0.01348623331992786 0
    vertex 0.0265398411238946 0.01685779164990982 0.005
  endloop
endfacet
facet normal -0.981471 0.19161 0
  outer loop
    vertex 0.02588162099383157 0.01348623331992786 0.02
    vertex 0.02719806125395762 0.02022934997989179 0.02
    vertex 0.0265398411238946 0.01685779164990982 0.015
  endloop
endfacet
facet normal -0.981471 0.19161 0
  outer loop
    vertex 0.02719806125395762 0.02022934997989179 0.009999999999999972
    vertex 0.02719806125395762 0.02022934997989179 0
    vertex 0.0265398411238946 0.01685779164990982 0.005
  endloop
endfacet
facet normal -0.981471 0.19161 0
  outer loop
    vertex 0.02719806125395762 0.02022934997989179 0.02
    vertex 0.02719806125395762 0.02022934997989179 0.009999999999999972
    vertex 0.0265398411238946 0.01685779164990982 0.015
  endloop
endfacet
facet normal -0.981471 0.19161 0
  outer loop
    vertex 0.02588162099383157 0.01348623331992786 0
    vertex 0.02588162099383157 0.01348623331992786 0.01000000000000003
    vertex 0.0265398411238946 0.01685779164990982 0.005
  endloop
endfacet
facet normal -0.981471 0.19161 0
  outer loop
    vertex 0.02588162099383157 0.01348623331992786 0.01000000000000003
    vertex 0.02588162099383157 0.01348623331992786 0.02
    vertex 0.0265398411238946 0.01685779164990982 0.015
  endloop
endfacet
facet normal -0.836139 -0.548517 -0
  outer loop
    vertex 0.02588162099383157 0.01348623331992786 0.02
    vertex 0.02588162099383157 0.01348623331992786 0.009999999999999972
    vertex 0.02809340388648402 0.0101146749899459 0.015
  endloop
endfacet
facet normal -0.836139 -0.548517 0
  outer loop
    vertex 0.03030518677913647 0.006743116659963931 0
    vertex 0.03030518677913647 0.006743116659963931 0.01000000000000003
    vertex 0.02809340388648402 0.0101146749899459 0.005
  endloop
endfacet
facet normal -0.836139 -0.548517 -0
  outer loop
    vertex 0.02588162099383157 0.01348623331992786 0.009999999999999972
    vertex 0.02588162099383157 0.01348623331992786 0
    vertex 0.02809340388648402 0.0101146749899459 0.005
  endloop
endfacet
facet normal -0.836139 -0.548517 0
  outer loop
    vertex 0.03030518677913647 0.006743116659963931 0.01000000000000003
    vertex 0.03030518677913647 0.006743116659963931 0.02
    vertex 0.02809340388648402 0.0101146749899459 0.015
  endloop
endfacet
facet normal -0.836139 -0.548517 0
  outer loop
    vertex 0.03030518677913647 0.006743116659963931 0.02
    vertex 0.02588162099383157 0.01348623331992786 0.02
    vertex 0.02809340388648402 0.0101146749899459 0.015
  endloop
endfacet
facet normal -0.836139 -0.548517 0
  outer loop
    vertex 0.03030518677913647 0.006743116659963931 0.01000000000000003
    vertex 0.02588162099383157 0.01348623331992786 0.009999999999999972
    vertex 0.02809340388648402 0.0101146749899459 0.005
  endloop
endfacet
facet normal -0.836139 -0.548517 0
  outer loop
    vertex 0.02588162099383157 0.01348623331992786 0
    vertex 0.03030518677913647 0.006743116659963931 0
    vertex 0.02809340388648402 0.0101146749899459 0.005
  endloop
endfacet
facet normal -0.836139 -0.548517 0
  outer loop
    vertex 0.02588162099383157 0.01348623331992786 0.009999999999999972
    vertex 0.03030518677913647 0.006743116659963931 0.01000000000000003
    vertex 0.02809340388648402 0.0101146749899459 0.015
  endloop
endfacet
endsolid Created by Gmsh
