solid Created by Gmsh
facet normal 0.993666 -0.112377 -4.9873e-17
  outer loop
    vertex 0.009324728972968382 0.0117135548292931 0
    vertex 0.008993546729726291 0.008785166121969858 0.01152594316023305
    vertex 0.008 0 0
  endloop
endfacet
facet normal 0.993666 -0.112377 -7.48095e-17
  outer loop
    vertex 0.01329891589187354 0.04685421931717243 0.02
    vertex 0.01363009813511563 0.04978260802449567 0.008474056839766955
    vertex 0.01462364486484192 0.05856777414646552 0.02
  endloop
endfacet
facet normal 0.993666 -0.112377 0
  outer loop
    vertex 0.01462364486484192 0.05856777414646552 0.009999999999999972
    vertex 0.01363009813511563 0.04978260802449567 0.008474056839766955
    vertex 0.01462364486484192 0.05856777414646552 0
  endloop
endfacet
facet normal 0.993666 -0.112377 0
  outer loop
    vertex 0.008 0 0.01000000000000003
    vertex 0.008993546729726291 0.008785166121969858 0.01152594316023305
    vertex 0.008 0 0.02
  endloop
endfacet
facet normal 0.993666 -0.112377 1.01752e-16
  outer loop
    vertex 0.01462364486484192 0.05856777414646552 0
    vertex 0.01363009813511563 0.04978260802449567 0.008474056839766955
    vertex 0.01329891589187353 0.04685421931717235 0
  endloop
endfacet
facet normal 0.993666 -0.112377 5.08759e-17
  outer loop
    vertex 0.008 0 0.02
    vertex 0.008993546729726291 0.008785166121969858 0.01152594316023305
    vertex 0.009324728972968391 0.01171355482929317 0.02
  endloop
endfacet
facet normal 0.993666 -0.112377 0
  outer loop
    vertex 0.01064945794593677 0.02342710965858625 0.02
    vertex 0.01131182243242096 0.02928388707323276 0.01
    vertex 0.01197418691890515 0.03514066448787934 0.02
  endloop
endfacet
facet normal 0.993666 -0.112377 -1.40144e-17
  outer loop
    vertex 0.01197418691890515 0.03514066448787934 0.02
    vertex 0.01258135436484899 0.04050937711797197 0.009745676139961159
    vertex 0.01329891589187354 0.04685421931717243 0.02
  endloop
endfacet
facet normal 0.993666 -0.112377 -1.89195e-16
  outer loop
    vertex 0.01064945794593676 0.02342710965858619 0
    vertex 0.01004229049999293 0.01805839702849355 0.01025432386003884
    vertex 0.009324728972968382 0.0117135548292931 0
  endloop
endfacet
facet normal 0.993666 -0.112377 -5.91971e-17
  outer loop
    vertex 0.01131182243242096 0.02928388707323276 0.01
    vertex 0.01258135436484899 0.04050937711797197 0.009745676139961159
    vertex 0.01197418691890515 0.03514066448787934 0.02
  endloop
endfacet
facet normal 0.993666 -0.112377 0
  outer loop
    vertex 0.01197418691890515 0.03514066448787927 0
    vertex 0.01131182243242096 0.02928388707323276 0.01
    vertex 0.01064945794593676 0.02342710965858619 0
  endloop
endfacet
facet normal 0.993666 -0.112377 2.94917e-17
  outer loop
    vertex 0.01329891589187353 0.04685421931717235 0
    vertex 0.01258135436484899 0.04050937711797197 0.009745676139961159
    vertex 0.01197418691890515 0.03514066448787927 0
  endloop
endfacet
facet normal 0.993666 -0.112377 7.97858e-17
  outer loop
    vertex 0.01197418691890515 0.03514066448787927 0
    vertex 0.01258135436484899 0.04050937711797197 0.009745676139961159
    vertex 0.01131182243242096 0.02928388707323276 0.01
  endloop
endfacet
facet normal 0.993666 -0.112377 2.06442e-16
  outer loop
    vertex 0.009324728972968391 0.01171355482929317 0.02
    vertex 0.01004229049999293 0.01805839702849355 0.01025432386003884
    vertex 0.01064945794593677 0.02342710965858625 0.02
  endloop
endfacet
facet normal 0.993666 -0.112377 1.7097e-16
  outer loop
    vertex 0.01064945794593677 0.02342710965858625 0.02
    vertex 0.01004229049999293 0.01805839702849355 0.01025432386003884
    vertex 0.01131182243242096 0.02928388707323276 0.01
  endloop
endfacet
facet normal 0.993666 -0.112377 -1.47993e-16
  outer loop
    vertex 0.01131182243242096 0.02928388707323276 0.01
    vertex 0.01004229049999293 0.01805839702849355 0.01025432386003884
    vertex 0.01064945794593676 0.02342710965858619 0
  endloop
endfacet
facet normal 0.993666 -0.112377 -5.71126e-17
  outer loop
    vertex 0.01258135436484899 0.04050937711797197 0.009745676139961159
    vertex 0.01363009813511563 0.04978260802449567 0.008474056839766955
    vertex 0.01329891589187354 0.04685421931717243 0.02
  endloop
endfacet
facet normal 0.993666 -0.112377 -9.79073e-17
  outer loop
    vertex 0.01004229049999293 0.01805839702849355 0.01025432386003884
    vertex 0.008993546729726291 0.008785166121969858 0.01152594316023305
    vertex 0.009324728972968382 0.0117135548292931 0
  endloop
endfacet
facet normal 0.993666 -0.112377 9.71481e-17
  outer loop
    vertex 0.009324728972968391 0.01171355482929317 0.02
    vertex 0.008993546729726291 0.008785166121969858 0.01152594316023305
    vertex 0.01004229049999293 0.01805839702849355 0.01025432386003884
  endloop
endfacet
facet normal 0.993666 -0.112377 6.64698e-17
  outer loop
    vertex 0.01329891589187353 0.04685421931717235 0
    vertex 0.01363009813511563 0.04978260802449567 0.008474056839766955
    vertex 0.01258135436484899 0.04050937711797197 0.009745676139961159
  endloop
endfacet
facet normal 0.993666 -0.112377 0
  outer loop
    vertex 0.008 0 0
    vertex 0.008993546729726291 0.008785166121969858 0.01152594316023305
    vertex 0.008 0 0.01000000000000003
  endloop
endfacet
facet normal 0.993666 -0.112377 0
  outer loop
    vertex 0.01462364486484192 0.05856777414646552 0.02
    vertex 0.01363009813511563 0.04978260802449567 0.008474056839766955
    vertex 0.01462364486484192 0.05856777414646552 0.009999999999999972
  endloop
endfacet
endsolid Created by Gmsh
