solid Created by Gmsh
facet normal 0.997841 -0.0656769 -3.20968e-16
  outer loop
    vertex 0.009355462079441872 0.02059377353518942 0.02
    vertex 0.009694327599302334 0.02574221691898676 0.009642639411690348
    vertex 0.0100331931191628 0.0308906603027841 0.02
  endloop
endfacet
facet normal 0.997841 -0.0656769 4.2182e-16
  outer loop
    vertex 0.009355462079441872 0.02059377353518942 0
    vertex 0.008980429755652525 0.01489584154459199 0.01070265059048601
    vertex 0.008677731039720936 0.01029688676759471 0
  endloop
endfacet
facet normal 0.997841 -0.0656769 1.83783e-16
  outer loop
    vertex 0.01071092415888374 0.04118754707037882 0
    vertex 0.01042295241054357 0.03681234169960819 0.01049588502874303
    vertex 0.0100331931191628 0.0308906603027841 0
  endloop
endfacet
facet normal 0.997841 -0.0656769 -2.29958e-16
  outer loop
    vertex 0.009694327599302334 0.02574221691898676 0.009642639411690348
    vertex 0.01042295241054357 0.03681234169960819 0.01049588502874303
    vertex 0.0100331931191628 0.0308906603027841 0.02
  endloop
endfacet
facet normal 0.997841 -0.0656769 -4.30975e-16
  outer loop
    vertex 0.009355462079441872 0.02059377353518942 0.02
    vertex 0.008980429755652525 0.01489584154459199 0.01070265059048601
    vertex 0.009694327599302334 0.02574221691898676 0.009642639411690348
  endloop
endfacet
facet normal 0.997841 -0.0656769 4.4163e-16
  outer loop
    vertex 0.009694327599302334 0.02574221691898676 0.009642639411690348
    vertex 0.008980429755652525 0.01489584154459199 0.01070265059048601
    vertex 0.009355462079441872 0.02059377353518942 0
  endloop
endfacet
facet normal 0.997841 -0.0656769 2.50965e-16
  outer loop
    vertex 0.0100331931191628 0.0308906603027841 0
    vertex 0.01042295241054357 0.03681234169960819 0.01049588502874303
    vertex 0.009694327599302334 0.02574221691898676 0.009642639411690348
  endloop
endfacet
facet normal 0.997841 -0.0656769 3.97197e-16
  outer loop
    vertex 0.008980429755652525 0.01489584154459199 0.01070265059048601
    vertex 0.008488895208076228 0.007427870797910411 0.00766686062566019
    vertex 0.008677731039720936 0.01029688676759471 0
  endloop
endfacet
facet normal 0.997841 -0.0656769 2.93143e-16
  outer loop
    vertex 0.01071092415888374 0.04118754707037882 0
    vertex 0.01091505146623196 0.044288889117224 0.007552232371619611
    vertex 0.01042295241054357 0.03681234169960819 0.01049588502874303
  endloop
endfacet
facet normal 0.997841 -0.0656769 -2.24552e-16
  outer loop
    vertex 0.0100331931191628 0.0308906603027841 0.02
    vertex 0.01042295241054357 0.03681234169960819 0.01049588502874303
    vertex 0.01071092415888374 0.04118754707037881 0.02
  endloop
endfacet
facet normal 0.997841 -0.0656769 -4.94407e-16
  outer loop
    vertex 0.008677731039720936 0.0102968867675947 0.02
    vertex 0.008980429755652525 0.01489584154459199 0.01070265059048601
    vertex 0.009355462079441872 0.02059377353518942 0.02
  endloop
endfacet
facet normal 0.997841 -0.0656769 3.70296e-16
  outer loop
    vertex 0.0100331931191628 0.0308906603027841 0
    vertex 0.009694327599302334 0.02574221691898676 0.009642639411690348
    vertex 0.009355462079441872 0.02059377353518942 0
  endloop
endfacet
facet normal 0.997841 -0.0656769 0
  outer loop
    vertex 0.008 0 0
    vertex 0.008488895208076228 0.007427870797910411 0.00766686062566019
    vertex 0.008 0 0.01000000000000003
  endloop
endfacet
facet normal 0.997841 -0.0656769 3.69366e-16
  outer loop
    vertex 0.008677731039720936 0.01029688676759471 0
    vertex 0.008488895208076228 0.007427870797910411 0.00766686062566019
    vertex 0.008 0 0
  endloop
endfacet
facet normal 0.997841 -0.0656769 0
  outer loop
    vertex 0.01138865519860468 0.05148443383797352 0.009999999999999972
    vertex 0.01091505146623196 0.044288889117224 0.007552232371619611
    vertex 0.01138865519860468 0.05148443383797352 0
  endloop
endfacet
facet normal 0.997841 -0.0656769 4.4562e-16
  outer loop
    vertex 0.01138865519860468 0.05148443383797352 0
    vertex 0.01091505146623196 0.044288889117224 0.007552232371619611
    vertex 0.01071092415888374 0.04118754707037882 0
  endloop
endfacet
facet normal 0.997841 -0.0656769 -3.43513e-16
  outer loop
    vertex 0.01042295241054357 0.03681234169960819 0.01049588502874303
    vertex 0.01098940254147957 0.04541851806735862 0.01400687391433751
    vertex 0.01071092415888374 0.04118754707037881 0.02
  endloop
endfacet
facet normal 0.997841 -0.0656769 -5.33992e-16
  outer loop
    vertex 0.008677731039720936 0.0102968867675947 0.02
    vertex 0.00840354100616723 0.006131069411098831 0.01405278731659232
    vertex 0.008980429755652525 0.01489584154459199 0.01070265059048601
  endloop
endfacet
facet normal 0.997841 -0.0656769 -9.83107e-17
  outer loop
    vertex 0.01091505146623196 0.044288889117224 0.007552232371619611
    vertex 0.01098940254147957 0.04541851806735862 0.01400687391433751
    vertex 0.01042295241054357 0.03681234169960819 0.01049588502874303
  endloop
endfacet
facet normal 0.997841 -0.0656769 4.91143e-17
  outer loop
    vertex 0.008980429755652525 0.01489584154459199 0.01070265059048601
    vertex 0.00840354100616723 0.006131069411098831 0.01405278731659232
    vertex 0.008488895208076228 0.007427870797910411 0.00766686062566019
  endloop
endfacet
facet normal 0.997841 -0.0656769 -5.10674e-16
  outer loop
    vertex 0.008 0 0.02
    vertex 0.00840354100616723 0.006131069411098831 0.01405278731659232
    vertex 0.008677731039720936 0.0102968867675947 0.02
  endloop
endfacet
facet normal 0.997841 -0.0656769 -5.41003e-16
  outer loop
    vertex 0.01071092415888374 0.04118754707037881 0.02
    vertex 0.01098940254147957 0.04541851806735862 0.01400687391433751
    vertex 0.01138865519860468 0.05148443383797352 0.02
  endloop
endfacet
facet normal 0.997841 -0.0656769 0
  outer loop
    vertex 0.01138865519860468 0.05148443383797352 0.02
    vertex 0.01098940254147957 0.04541851806735862 0.01400687391433751
    vertex 0.01138865519860468 0.05148443383797352 0.009999999999999972
  endloop
endfacet
facet normal 0.997841 -0.0656769 0
  outer loop
    vertex 0.008 0 0.01000000000000003
    vertex 0.00840354100616723 0.006131069411098831 0.01405278731659232
    vertex 0.008 0 0.02
  endloop
endfacet
facet normal 0.997841 -0.0656769 8.32677e-17
  outer loop
    vertex 0.008488895208076228 0.007427870797910411 0.00766686062566019
    vertex 0.00840354100616723 0.006131069411098831 0.01405278731659232
    vertex 0.008 0 0.01000000000000003
  endloop
endfacet
facet normal 0.997841 -0.0656769 1.93501e-17
  outer loop
    vertex 0.01138865519860468 0.05148443383797352 0.009999999999999972
    vertex 0.01098940254147957 0.04541851806735862 0.01400687391433751
    vertex 0.01091505146623196 0.044288889117224 0.007552232371619611
  endloop
endfacet
endsolid Created by Gmsh
