solid Created by Gmsh
facet normal -0.869694 0.493592 0
  outer loop
    vertex 0.03265896066739093 0.05584541112511079 0.02
    vertex 0.03265896066739093 0.05584541112511079 0.009999999999999972
    vertex 0.03067802922207572 0.05235507292979136 0.015
  endloop
endfacet
facet normal -0.869694 0.493592 0
  outer loop
    vertex 0.02869709777676053 0.04886473473447194 0
    vertex 0.02869709777676053 0.04886473473447194 0.01000000000000003
    vertex 0.03067802922207572 0.05235507292979136 0.005
  endloop
endfacet
facet normal -0.869694 0.493592 0
  outer loop
    vertex 0.03265896066739093 0.05584541112511079 0.009999999999999972
    vertex 0.03265896066739093 0.05584541112511079 0
    vertex 0.03067802922207572 0.05235507292979136 0.005
  endloop
endfacet
facet normal -0.869694 0.493592 0
  outer loop
    vertex 0.02869709777676053 0.04886473473447194 0.01000000000000003
    vertex 0.02869709777676053 0.04886473473447194 0.02
    vertex 0.03067802922207572 0.05235507292979136 0.015
  endloop
endfacet
facet normal -0.869694 0.493592 -6.3317e-16
  outer loop
    vertex 0.03265896066739093 0.05584541112511079 0
    vertex 0.02869709777676053 0.04886473473447194 0
    vertex 0.03067802922207572 0.05235507292979136 0.005
  endloop
endfacet
facet normal -0.869694 0.493592 5.90959e-16
  outer loop
    vertex 0.02869709777676053 0.04886473473447194 0.02
    vertex 0.03265896066739093 0.05584541112511079 0.02
    vertex 0.03067802922207572 0.05235507292979136 0.015
  endloop
endfacet
facet normal -0.869694 0.493592 5.90959e-16
  outer loop
    vertex 0.02869709777676053 0.04886473473447194 0.01000000000000003
    vertex 0.03265896066739093 0.05584541112511079 0.009999999999999972
    vertex 0.03067802922207572 0.05235507292979136 0.005
  endloop
endfacet
facet normal -0.869694 0.493592 -6.3317e-16
  outer loop
    vertex 0.03265896066739093 0.05584541112511079 0.009999999999999972
    vertex 0.02869709777676053 0.04886473473447194 0.01000000000000003
    vertex 0.03067802922207572 0.05235507292979136 0.015
  endloop
endfacet
facet normal -0.481932 0.876209 -8.21342e-16
  outer loop
    vertex 0.0223512579514308 0.04537439653915252 0.02
    vertex 0.02869709777676053 0.04886473473447194 0.02
    vertex 0.02248076488664161 0.04544562793089373 0.01247976860780107
  endloop
endfacet
facet normal -0.481932 0.876209 -8.70914e-16
  outer loop
    vertex 0.01600541812610107 0.04188405834383309 0.02
    vertex 0.0223512579514308 0.04537439653915252 0.02
    vertex 0.02248076488664161 0.04544562793089373 0.01247976860780107
  endloop
endfacet
facet normal -0.481932 0.876209 0
  outer loop
    vertex 0.02869709777676053 0.04886473473447194 0.02
    vertex 0.02869709777676053 0.04886473473447194 0.009999999999999972
    vertex 0.02248076488664161 0.04544562793089373 0.01247976860780107
  endloop
endfacet
facet normal -0.481932 0.876209 0
  outer loop
    vertex 0.01600541812610107 0.04188405834383309 0.01000000000000003
    vertex 0.01600541812610107 0.04188405834383309 0.02
    vertex 0.02248076488664161 0.04544562793089373 0.01247976860780107
  endloop
endfacet
facet normal -0.481932 0.876209 0
  outer loop
    vertex 0.01600541812610107 0.04188405834383309 0
    vertex 0.01600541812610107 0.04188405834383309 0.01000000000000003
    vertex 0.02044750600383188 0.04432729508055668 0.005286782157096703
  endloop
endfacet
facet normal -0.481932 0.876209 0
  outer loop
    vertex 0.02869709777676053 0.04886473473447194 0.009999999999999972
    vertex 0.02869709777676053 0.04886473473447194 0
    vertex 0.02481744001765953 0.04673084575616732 0.005395221537842531
  endloop
endfacet
facet normal -0.481932 0.876209 9.95497e-16
  outer loop
    vertex 0.02235125795143079 0.04537439653915251 0
    vertex 0.01600541812610107 0.04188405834383309 0
    vertex 0.02044750600383188 0.04432729508055668 0.005286782157096703
  endloop
endfacet
facet normal -0.481932 0.876209 1.7342e-16
  outer loop
    vertex 0.02869709777676053 0.04886473473447194 0
    vertex 0.02235125795143079 0.04537439653915251 0
    vertex 0.02481744001765953 0.04673084575616732 0.005395221537842531
  endloop
endfacet
facet normal -0.481932 0.876209 4.75566e-17
  outer loop
    vertex 0.02044750600383188 0.04432729508055668 0.005286782157096703
    vertex 0.02248076488664161 0.04544562793089373 0.01247976860780107
    vertex 0.02481744001765953 0.04673084575616732 0.005395221537842531
  endloop
endfacet
facet normal -0.481932 0.876209 6.04967e-16
  outer loop
    vertex 0.02235125795143079 0.04537439653915251 0
    vertex 0.02044750600383188 0.04432729508055668 0.005286782157096703
    vertex 0.02481744001765953 0.04673084575616732 0.005395221537842531
  endloop
endfacet
facet normal -0.481932 0.876209 -4.64586e-16
  outer loop
    vertex 0.02044750600383188 0.04432729508055668 0.005286782157096703
    vertex 0.01600541812610107 0.04188405834383309 0.01000000000000003
    vertex 0.02248076488664161 0.04544562793089373 0.01247976860780107
  endloop
endfacet
facet normal -0.481932 0.876209 1.55245e-16
  outer loop
    vertex 0.02248076488664161 0.04544562793089373 0.01247976860780107
    vertex 0.02869709777676053 0.04886473473447194 0.009999999999999972
    vertex 0.02481744001765953 0.04673084575616732 0.005395221537842531
  endloop
endfacet
facet normal -0.915896 -0.401417 -0
  outer loop
    vertex 0.01600541812610107 0.04188405834383309 0.02
    vertex 0.01600541812610107 0.04188405834383309 0.009999999999999972
    vertex 0.01753515592186303 0.03839372014851367 0.015
  endloop
endfacet
facet normal -0.915896 -0.401417 0
  outer loop
    vertex 0.01906489371762499 0.03490338195319424 0
    vertex 0.01906489371762499 0.03490338195319424 0.01000000000000003
    vertex 0.01753515592186303 0.03839372014851367 0.004999999999999999
  endloop
endfacet
facet normal -0.915896 -0.401417 -0
  outer loop
    vertex 0.01600541812610107 0.04188405834383309 0.009999999999999972
    vertex 0.01600541812610107 0.04188405834383309 0
    vertex 0.01753515592186303 0.03839372014851367 0.004999999999999999
  endloop
endfacet
facet normal -0.915896 -0.401417 0
  outer loop
    vertex 0.01906489371762499 0.03490338195319424 0.01000000000000003
    vertex 0.01906489371762499 0.03490338195319424 0.02
    vertex 0.01753515592186303 0.03839372014851367 0.015
  endloop
endfacet
facet normal -0.915896 -0.401417 -9.77983e-16
  outer loop
    vertex 0.01600541812610107 0.04188405834383309 0.009999999999999972
    vertex 0.01906489371762499 0.03490338195319424 0.01000000000000003
    vertex 0.01753515592186303 0.03839372014851367 0.015
  endloop
endfacet
facet normal -0.915896 -0.401417 9.33529e-16
  outer loop
    vertex 0.01906489371762499 0.03490338195319424 0.01000000000000003
    vertex 0.01600541812610107 0.04188405834383309 0.009999999999999972
    vertex 0.01753515592186303 0.03839372014851367 0.004999999999999999
  endloop
endfacet
facet normal -0.915896 -0.401417 -9.77983e-16
  outer loop
    vertex 0.01600541812610107 0.04188405834383309 0
    vertex 0.01906489371762499 0.03490338195319424 0
    vertex 0.01753515592186303 0.03839372014851367 0.004999999999999999
  endloop
endfacet
facet normal -0.915896 -0.401417 9.33529e-16
  outer loop
    vertex 0.01906489371762499 0.03490338195319424 0.02
    vertex 0.01600541812610107 0.04188405834383309 0.02
    vertex 0.01753515592186303 0.03839372014851367 0.015
  endloop
endfacet
facet normal -0.311963 -0.950094 -4.50438e-16
  outer loop
    vertex 0.0296948345969341 0.03141304375787482 0
    vertex 0.04032477547624322 0.02792270556255539 0
    vertex 0.03307683640430998 0.03030256438466399 0.01008444252643891
  endloop
endfacet
facet normal -0.311963 -0.950094 0
  outer loop
    vertex 0.04032477547624322 0.02792270556255539 0.01000000000000003
    vertex 0.04032477547624322 0.02792270556255539 0.02
    vertex 0.03307683640430998 0.03030256438466399 0.01008444252643891
  endloop
endfacet
facet normal -0.311963 -0.950094 3.35948e-16
  outer loop
    vertex 0.04032477547624322 0.02792270556255539 0.02
    vertex 0.02969483459693411 0.03141304375787481 0.02
    vertex 0.03307683640430998 0.03030256438466399 0.01008444252643891
  endloop
endfacet
facet normal -0.311963 -0.950094 -4.12307e-16
  outer loop
    vertex 0.0296948345969341 0.03141304375787482 0
    vertex 0.03307683640430998 0.03030256438466399 0.01008444252643891
    vertex 0.02559691230281235 0.03275859542810704 0.006826054031957879
  endloop
endfacet
facet normal -0.311963 -0.950094 -3.54908e-16
  outer loop
    vertex 0.01906489371762499 0.03490338195319424 0
    vertex 0.0296948345969341 0.03141304375787482 0
    vertex 0.02559691230281235 0.03275859542810704 0.006826054031957879
  endloop
endfacet
facet normal -0.311963 -0.950094 -0
  outer loop
    vertex 0.01906489371762499 0.03490338195319424 0.009999999999999972
    vertex 0.01906489371762499 0.03490338195319424 0
    vertex 0.02559691230281235 0.03275859542810704 0.006826054031957879
  endloop
endfacet
facet normal -0.311963 -0.950094 1.92002e-16
  outer loop
    vertex 0.02969483459693411 0.03141304375787481 0.02
    vertex 0.01906489371762499 0.03490338195319424 0.02
    vertex 0.02518059001717859 0.03289529473731379 0.01369115313199968
  endloop
endfacet
facet normal -0.311963 -0.950094 -0
  outer loop
    vertex 0.01906489371762499 0.03490338195319424 0.02
    vertex 0.01906489371762499 0.03490338195319424 0.009999999999999972
    vertex 0.02518059001717859 0.03289529473731379 0.01369115313199968
  endloop
endfacet
facet normal -0.311963 -0.950094 0
  outer loop
    vertex 0.03307683640430998 0.03030256438466399 0.01008444252643891
    vertex 0.02518059001717859 0.03289529473731379 0.01369115313199968
    vertex 0.02559691230281235 0.03275859542810704 0.006826054031957879
  endloop
endfacet
facet normal -0.311963 -0.950094 1.58279e-16
  outer loop
    vertex 0.02969483459693411 0.03141304375787481 0.02
    vertex 0.02518059001717859 0.03289529473731379 0.01369115313199968
    vertex 0.03307683640430998 0.03030256438466399 0.01008444252643891
  endloop
endfacet
facet normal -0.311963 -0.950094 -2.08025e-17
  outer loop
    vertex 0.02518059001717859 0.03289529473731379 0.01369115313199968
    vertex 0.01906489371762499 0.03490338195319424 0.009999999999999972
    vertex 0.02559691230281235 0.03275859542810704 0.006826054031957879
  endloop
endfacet
facet normal -0.311963 -0.950094 0
  outer loop
    vertex 0.04032477547624322 0.02792270556255539 0
    vertex 0.04032477547624322 0.02792270556255539 0.01000000000000003
    vertex 0.03307683640430998 0.03030256438466399 0.01008444252643891
  endloop
endfacet
facet normal -0.965189 0.261555 9.36925e-17
  outer loop
    vertex 0.04032477547624322 0.02792270556255539 0
    vertex 0.03843309545458252 0.02094202917191654 0
    vertex 0.03937893546541287 0.02443236736723597 0.005
  endloop
endfacet
facet normal -0.965189 0.261555 -9.36925e-17
  outer loop
    vertex 0.03843309545458252 0.02094202917191654 0.02
    vertex 0.04032477547624322 0.02792270556255539 0.02
    vertex 0.03937893546541287 0.02443236736723597 0.015
  endloop
endfacet
facet normal -0.965189 0.261555 -9.36925e-17
  outer loop
    vertex 0.03843309545458252 0.02094202917191654 0.01000000000000003
    vertex 0.04032477547624322 0.02792270556255539 0.009999999999999972
    vertex 0.03937893546541287 0.02443236736723597 0.005
  endloop
endfacet
facet normal -0.965189 0.261555 9.36925e-17
  outer loop
    vertex 0.04032477547624322 0.02792270556255539 0.009999999999999972
    vertex 0.03843309545458252 0.02094202917191654 0.01000000000000003
    vertex 0.03937893546541287 0.02443236736723597 0.015
  endloop
endfacet
facet normal -0.965189 0.261555 0
  outer loop
    vertex 0.04032477547624322 0.02792270556255539 0.009999999999999972
    vertex 0.04032477547624322 0.02792270556255539 0
    vertex 0.03937893546541287 0.02443236736723597 0.005
  endloop
endfacet
facet normal -0.965189 0.261555 0
  outer loop
    vertex 0.04032477547624322 0.02792270556255539 0.02
    vertex 0.04032477547624322 0.02792270556255539 0.009999999999999972
    vertex 0.03937893546541287 0.02443236736723597 0.015
  endloop
endfacet
facet normal -0.965189 0.261555 0
  outer loop
    vertex 0.03843309545458252 0.02094202917191654 0
    vertex 0.03843309545458252 0.02094202917191654 0.01000000000000003
    vertex 0.03937893546541287 0.02443236736723597 0.005
  endloop
endfacet
facet normal -0.965189 0.261555 0
  outer loop
    vertex 0.03843309545458252 0.02094202917191654 0.01000000000000003
    vertex 0.03843309545458252 0.02094202917191654 0.02
    vertex 0.03937893546541287 0.02443236736723597 0.015
  endloop
endfacet
facet normal -0.326641 0.945148 0
  outer loop
    vertex 0.01823424399685844 0.0139613527812777 0
    vertex 0.01823424399685844 0.0139613527812777 0.01000000000000003
    vertex 0.02596560243175963 0.01663329239165802 0.008031782278893992
  endloop
endfacet
facet normal -0.326641 0.945148 7.89554e-17
  outer loop
    vertex 0.02833366972572048 0.01745169097659712 0
    vertex 0.01823424399685844 0.0139613527812777 0
    vertex 0.02596560243175963 0.01663329239165802 0.008031782278893992
  endloop
endfacet
facet normal -0.326641 0.945148 -2.60623e-16
  outer loop
    vertex 0.02833366972572049 0.01745169097659712 0.02
    vertex 0.03843309545458252 0.02094202917191654 0.02
    vertex 0.03145523421142716 0.01853049644991013 0.0127003352286533
  endloop
endfacet
facet normal -0.326641 0.945148 0
  outer loop
    vertex 0.03843309545458252 0.02094202917191654 0.02
    vertex 0.03843309545458252 0.02094202917191654 0.009999999999999972
    vertex 0.03145523421142716 0.01853049644991013 0.0127003352286533
  endloop
endfacet
facet normal -0.326641 0.945148 4.19513e-16
  outer loop
    vertex 0.03843309545458252 0.02094202917191654 0
    vertex 0.02833366972572048 0.01745169097659712 0
    vertex 0.03258312757256124 0.01892029378931361 0.006046551205922754
  endloop
endfacet
facet normal -0.326641 0.945148 -5.07322e-16
  outer loop
    vertex 0.01823424399685844 0.0139613527812777 0.02
    vertex 0.02833366972572049 0.01745169097659712 0.02
    vertex 0.02328395686128947 0.01570652187893741 0.01500000000000001
  endloop
endfacet
facet normal -0.326641 0.945148 0
  outer loop
    vertex 0.03843309545458252 0.02094202917191654 0.009999999999999972
    vertex 0.03843309545458252 0.02094202917191654 0
    vertex 0.03258312757256124 0.01892029378931361 0.006046551205922754
  endloop
endfacet
facet normal -0.326641 0.945148 0
  outer loop
    vertex 0.01823424399685844 0.0139613527812777 0.01000000000000003
    vertex 0.01823424399685844 0.0139613527812777 0.02
    vertex 0.02328395686128947 0.01570652187893741 0.01500000000000001
  endloop
endfacet
facet normal -0.326641 0.945148 -4.11966e-16
  outer loop
    vertex 0.02833366972572049 0.01745169097659712 0.02
    vertex 0.03145523421142716 0.01853049644991013 0.0127003352286533
    vertex 0.02328395686128947 0.01570652187893741 0.01500000000000001
  endloop
endfacet
facet normal -0.326641 0.945148 1.26143e-16
  outer loop
    vertex 0.03145523421142716 0.01853049644991013 0.0127003352286533
    vertex 0.02596560243175963 0.01663329239165802 0.008031782278893992
    vertex 0.02328395686128947 0.01570652187893741 0.01500000000000001
  endloop
endfacet
facet normal -0.326641 0.945148 1.32191e-16
  outer loop
    vertex 0.03258312757256124 0.01892029378931361 0.006046551205922754
    vertex 0.02833366972572048 0.01745169097659712 0
    vertex 0.02596560243175963 0.01663329239165802 0.008031782278893992
  endloop
endfacet
facet normal -0.326641 0.945148 2.14164e-16
  outer loop
    vertex 0.02596560243175963 0.01663329239165802 0.008031782278893992
    vertex 0.01823424399685844 0.0139613527812777 0.01000000000000003
    vertex 0.02328395686128947 0.01570652187893741 0.01500000000000001
  endloop
endfacet
facet normal -0.326641 0.945148 -2.49027e-16
  outer loop
    vertex 0.03258312757256124 0.01892029378931361 0.006046551205922754
    vertex 0.02596560243175963 0.01663329239165802 0.008031782278893992
    vertex 0.03145523421142716 0.01853049644991013 0.0127003352286533
  endloop
endfacet
facet normal -0.326641 0.945148 -3.32161e-16
  outer loop
    vertex 0.03843309545458252 0.02094202917191654 0.009999999999999972
    vertex 0.03258312757256124 0.01892029378931361 0.006046551205922754
    vertex 0.03145523421142716 0.01853049644991013 0.0127003352286533
  endloop
endfacet
facet normal -0.447951 -0.894058 -6.68706e-16
  outer loop
    vertex 0.02520055886763756 0.01047101458595827 0.02
    vertex 0.01823424399685844 0.0139613527812777 0.02
    vertex 0.02525162003500174 0.01044543136928566 0.01200890004495681
  endloop
endfacet
facet normal -0.447951 -0.894058 -6.52977e-16
  outer loop
    vertex 0.03216687373841668 0.006980676390638846 0.02
    vertex 0.02520055886763756 0.01047101458595827 0.02
    vertex 0.02525162003500174 0.01044543136928566 0.01200890004495681
  endloop
endfacet
facet normal -0.447951 -0.894058 -0
  outer loop
    vertex 0.01823424399685844 0.0139613527812777 0.02
    vertex 0.01823424399685844 0.0139613527812777 0.009999999999999972
    vertex 0.02525162003500174 0.01044543136928566 0.01200890004495681
  endloop
endfacet
facet normal -0.447951 -0.894058 0
  outer loop
    vertex 0.03216687373841668 0.006980676390638846 0.01000000000000003
    vertex 0.03216687373841668 0.006980676390638846 0.02
    vertex 0.02525162003500174 0.01044543136928566 0.01200890004495681
  endloop
endfacet
facet normal -0.447951 -0.894058 0
  outer loop
    vertex 0.03216687373841668 0.006980676390638846 0
    vertex 0.03216687373841668 0.006980676390638846 0.01000000000000003
    vertex 0.02753855512045575 0.009299606492425984 0.005605137368293114
  endloop
endfacet
facet normal -0.447951 -0.894058 -0
  outer loop
    vertex 0.01823424399685844 0.0139613527812777 0.009999999999999972
    vertex 0.01823424399685844 0.0139613527812777 0
    vertex 0.02289184440336239 0.01162775160204507 0.005522807482649979
  endloop
endfacet
facet normal -0.447951 -0.894058 5.51139e-16
  outer loop
    vertex 0.01823424399685844 0.0139613527812777 0
    vertex 0.02520055886763756 0.01047101458595827 0
    vertex 0.02289184440336239 0.01162775160204507 0.005522807482649979
  endloop
endfacet
facet normal -0.447951 -0.894058 6.98199e-16
  outer loop
    vertex 0.02520055886763756 0.01047101458595827 0
    vertex 0.03216687373841668 0.006980676390638846 0
    vertex 0.02753855512045575 0.009299606492425984 0.005605137368293114
  endloop
endfacet
facet normal -0.447951 -0.894058 -5.72417e-17
  outer loop
    vertex 0.02753855512045575 0.009299606492425984 0.005605137368293114
    vertex 0.03216687373841668 0.006980676390638846 0.01000000000000003
    vertex 0.02525162003500174 0.01044543136928566 0.01200890004495681
  endloop
endfacet
facet normal -0.447951 -0.894058 2.52898e-16
  outer loop
    vertex 0.02753855512045575 0.009299606492425984 0.005605137368293114
    vertex 0.02525162003500174 0.01044543136928566 0.01200890004495681
    vertex 0.02289184440336239 0.01162775160204507 0.005522807482649979
  endloop
endfacet
facet normal -0.447951 -0.894058 3.71453e-17
  outer loop
    vertex 0.02525162003500174 0.01044543136928566 0.01200890004495681
    vertex 0.01823424399685844 0.0139613527812777 0.009999999999999972
    vertex 0.02289184440336239 0.01162775160204507 0.005522807482649979
  endloop
endfacet
facet normal -0.447951 -0.894058 6.44434e-16
  outer loop
    vertex 0.02520055886763756 0.01047101458595827 0
    vertex 0.02753855512045575 0.009299606492425984 0.005605137368293114
    vertex 0.02289184440336239 0.01162775160204507 0.005522807482649979
  endloop
endfacet
endsolid Created by Gmsh
