solid Created by Gmsh
facet normal 0.998158 0.0606608 2.16162e-16
  outer loop
    vertex 0.00664101354014344 0.0223617824481606 0
    vertex 0.007054098427322767 0.01556457390150436 0.01049459754423268
    vertex 0.00732050677007172 0.0111808912240803 0
  endloop
endfacet
facet normal 0.998158 0.0606608 -1.81548e-16
  outer loop
    vertex 0.005961520310215154 0.03354267367224097 0.02
    vertex 0.005548303036540397 0.04034206060558261 0.009587107998882124
    vertex 0.005282027080286873 0.04472356489632127 0.02
  endloop
endfacet
facet normal 0.998158 0.0606608 2.43493e-16
  outer loop
    vertex 0.00664101354014344 0.0223617824481606 0
    vertex 0.00630124486076339 0.02795259112464835 0.01001361759051913
    vertex 0.007054098427322767 0.01556457390150436 0.01049459754423268
  endloop
endfacet
facet normal 0.998158 0.0606608 2.11442e-16
  outer loop
    vertex 0.005961520310215155 0.03354267367224095 0
    vertex 0.00630124486076339 0.02795259112464835 0.01001361759051913
    vertex 0.00664101354014344 0.0223617824481606 0
  endloop
endfacet
facet normal 0.998158 0.0606608 0
  outer loop
    vertex 0.004602533850358593 0.05590445612040157 0.02
    vertex 0.005028558018369646 0.04889433494250009 0.01260495445448975
    vertex 0.004602533850358593 0.05590445612040157 0.009999999999999972
  endloop
endfacet
facet normal 0.998158 0.0606608 -0
  outer loop
    vertex 0.008 0 0
    vertex 0.007573956919632453 0.007010432375999392 0.007406717765955223
    vertex 0.008 0 0.01000000000000003
  endloop
endfacet
facet normal 0.998158 0.0606608 -1.70958e-16
  outer loop
    vertex 0.005961520310215154 0.03354267367224097 0.02
    vertex 0.00630124486076339 0.02795259112464835 0.01001361759051913
    vertex 0.005548303036540397 0.04034206060558261 0.009587107998882124
  endloop
endfacet
facet normal 0.998158 0.0606608 1.80658e-16
  outer loop
    vertex 0.005548303036540397 0.04034206060558261 0.009587107998882124
    vertex 0.00630124486076339 0.02795259112464835 0.01001361759051913
    vertex 0.005961520310215155 0.03354267367224095 0
  endloop
endfacet
facet normal 0.998158 0.0606608 3.47117e-16
  outer loop
    vertex 0.00732050677007172 0.0111808912240803 0
    vertex 0.007573956919632453 0.007010432375999392 0.007406717765955223
    vertex 0.008 0 0
  endloop
endfacet
facet normal 0.998158 0.0606608 -3.11876e-16
  outer loop
    vertex 0.005282027080286873 0.04472356489632127 0.02
    vertex 0.005028558018369646 0.04889433494250009 0.01260495445448975
    vertex 0.004602533850358593 0.05590445612040157 0.02
  endloop
endfacet
facet normal 0.998158 0.0606608 -2.08232e-16
  outer loop
    vertex 0.006641013540143438 0.02236178244816062 0.02
    vertex 0.00630124486076339 0.02795259112464835 0.01001361759051913
    vertex 0.005961520310215154 0.03354267367224097 0.02
  endloop
endfacet
facet normal 0.998158 0.0606608 -2.51499e-16
  outer loop
    vertex 0.007054098427322767 0.01556457390150436 0.01049459754423268
    vertex 0.00630124486076339 0.02795259112464835 0.01001361759051913
    vertex 0.006641013540143438 0.02236178244816062 0.02
  endloop
endfacet
facet normal 0.998158 0.0606608 2.56342e-16
  outer loop
    vertex 0.005282027080286873 0.0447235648963213 0
    vertex 0.005548303036540397 0.04034206060558261 0.009587107998882124
    vertex 0.005961520310215155 0.03354267367224095 0
  endloop
endfacet
facet normal 0.998158 0.0606608 -1.90926e-16
  outer loop
    vertex 0.007320506770071721 0.01118089122408027 0.02
    vertex 0.007054098427322767 0.01556457390150436 0.01049459754423268
    vertex 0.006641013540143438 0.02236178244816062 0.02
  endloop
endfacet
facet normal 0.998158 0.0606608 -1.32495e-17
  outer loop
    vertex 0.007054098427322767 0.01556457390150436 0.01049459754423268
    vertex 0.007638577430594347 0.005947118023352075 0.01448260315671925
    vertex 0.007573956919632453 0.007010432375999392 0.007406717765955223
  endloop
endfacet
facet normal 0.998158 0.0606608 7.95551e-17
  outer loop
    vertex 0.005548303036540397 0.04034206060558261 0.009587107998882124
    vertex 0.004963945392151128 0.04995751955366635 0.005524202802723886
    vertex 0.005028558018369646 0.04889433494250009 0.01260495445448975
  endloop
endfacet
facet normal 0.998158 0.0606608 3.38154e-16
  outer loop
    vertex 0.005282027080286873 0.0447235648963213 0
    vertex 0.004963945392151128 0.04995751955366635 0.005524202802723886
    vertex 0.005548303036540397 0.04034206060558261 0.009587107998882124
  endloop
endfacet
facet normal 0.998158 0.0606608 -2.1727e-16
  outer loop
    vertex 0.007320506770071721 0.01118089122408027 0.02
    vertex 0.007638577430594347 0.005947118023352075 0.01448260315671925
    vertex 0.007054098427322767 0.01556457390150436 0.01049459754423268
  endloop
endfacet
facet normal 0.998158 0.0606608 4.10653e-16
  outer loop
    vertex 0.004602533850358593 0.05590445612040157 0
    vertex 0.004963945392151128 0.04995751955366635 0.005524202802723886
    vertex 0.005282027080286873 0.0447235648963213 0
  endloop
endfacet
facet normal 0.998158 0.0606608 -3.83749e-16
  outer loop
    vertex 0.008 0 0.02
    vertex 0.007638577430594347 0.005947118023352075 0.01448260315671925
    vertex 0.007320506770071721 0.01118089122408027 0.02
  endloop
endfacet
facet normal 0.998158 0.0606608 2.7171e-16
  outer loop
    vertex 0.007054098427322767 0.01556457390150436 0.01049459754423268
    vertex 0.007573956919632453 0.007010432375999392 0.007406717765955223
    vertex 0.00732050677007172 0.0111808912240803 0
  endloop
endfacet
facet normal 0.998158 0.0606608 -2.34138e-16
  outer loop
    vertex 0.005548303036540397 0.04034206060558261 0.009587107998882124
    vertex 0.005028558018369646 0.04889433494250009 0.01260495445448975
    vertex 0.005282027080286873 0.04472356489632127 0.02
  endloop
endfacet
facet normal 0.998158 0.0606608 0
  outer loop
    vertex 0.004602533850358593 0.05590445612040157 0.009999999999999972
    vertex 0.004963945392151128 0.04995751955366635 0.005524202802723886
    vertex 0.004602533850358593 0.05590445612040157 0
  endloop
endfacet
facet normal 0.998158 0.0606608 -0
  outer loop
    vertex 0.008 0 0.01000000000000003
    vertex 0.007638577430594347 0.005947118023352075 0.01448260315671925
    vertex 0.008 0 0.02
  endloop
endfacet
facet normal 0.998158 0.0606608 4.39904e-17
  outer loop
    vertex 0.007573956919632453 0.007010432375999392 0.007406717765955223
    vertex 0.007638577430594347 0.005947118023352075 0.01448260315671925
    vertex 0.008 0 0.01000000000000003
  endloop
endfacet
facet normal 0.998158 0.0606608 1.57847e-17
  outer loop
    vertex 0.005028558018369646 0.04889433494250009 0.01260495445448975
    vertex 0.004963945392151128 0.04995751955366635 0.005524202802723886
    vertex 0.004602533850358593 0.05590445612040157 0.009999999999999972
  endloop
endfacet
endsolid Created by Gmsh
