solid Created by Gmsh
facet normal 1 0 0
  outer loop
    vertex 0.04 0.05847840300948324 0
    vertex 0.04 0.06 0
    vertex 0.04 0.06 0.009999999999999972
  endloop
endfacet
facet normal 1 0 0
  outer loop
    vertex 0.04 0.05847840300948324 0.01000000000000003
    vertex 0.04 0.06 0.02
    vertex 0.04 0.05847840300948324 0.02
  endloop
endfacet
facet normal 1 0 -0
  outer loop
    vertex 0.04 0.06 0.009999999999999972
    vertex 0.04 0.06 0.02
    vertex 0.04 0.05847840300948324 0.01000000000000003
  endloop
endfacet
facet normal 1 0 0
  outer loop
    vertex 0.04 0.05847840300948324 0
    vertex 0.04 0.06 0.009999999999999972
    vertex 0.04 0.05847840300948324 0.01000000000000003
  endloop
endfacet
facet normal 0.78634 -0.617793 0
  outer loop
    vertex 0.04 0.05847840300948324 0.02
    vertex 0.03712850431947293 0.05482350282139054 0.015
    vertex 0.04 0.05847840300948324 0.009999999999999972
  endloop
endfacet
facet normal 0.78634 -0.617793 0
  outer loop
    vertex 0.03425700863894585 0.05116860263329783 0
    vertex 0.03712850431947293 0.05482350282139054 0.005000000000000001
    vertex 0.03425700863894585 0.05116860263329783 0.01000000000000003
  endloop
endfacet
facet normal 0.78634 -0.617793 0
  outer loop
    vertex 0.04 0.05847840300948324 0.009999999999999972
    vertex 0.03712850431947293 0.05482350282139054 0.005000000000000001
    vertex 0.04 0.05847840300948324 0
  endloop
endfacet
facet normal 0.78634 -0.617793 0
  outer loop
    vertex 0.03425700863894585 0.05116860263329783 0.01000000000000003
    vertex 0.03712850431947293 0.05482350282139054 0.015
    vertex 0.03425700863894585 0.05116860263329783 0.02
  endloop
endfacet
facet normal 0.78634 -0.617793 0
  outer loop
    vertex 0.03425700863894585 0.05116860263329783 0.01000000000000003
    vertex 0.03712850431947293 0.05482350282139054 0.005000000000000001
    vertex 0.04 0.05847840300948324 0.009999999999999972
  endloop
endfacet
facet normal 0.78634 -0.617793 0
  outer loop
    vertex 0.03425700863894585 0.05116860263329783 0.02
    vertex 0.03712850431947293 0.05482350282139054 0.015
    vertex 0.04 0.05847840300948324 0.02
  endloop
endfacet
facet normal 0.78634 -0.617793 0
  outer loop
    vertex 0.04 0.05847840300948324 0.009999999999999972
    vertex 0.03712850431947293 0.05482350282139054 0.015
    vertex 0.03425700863894585 0.05116860263329783 0.01000000000000003
  endloop
endfacet
facet normal 0.78634 -0.617793 0
  outer loop
    vertex 0.04 0.05847840300948324 0
    vertex 0.03712850431947293 0.05482350282139054 0.005000000000000001
    vertex 0.03425700863894585 0.05116860263329783 0
  endloop
endfacet
facet normal 0.590982 0.806685 2.73923e-16
  outer loop
    vertex 0.04423482344009431 0.04385880225711243 0.01000000000000003
    vertex 0.03425700863894585 0.05116860263329783 0.009999999999999972
    vertex 0.03924591603952008 0.04751370244520513 0.02
  endloop
endfacet
facet normal 0.590982 0.806685 3.01316e-16
  outer loop
    vertex 0.03924591603952008 0.04751370244520513 0
    vertex 0.03425700863894585 0.05116860263329783 0.009999999999999972
    vertex 0.04423482344009431 0.04385880225711243 0.01000000000000003
  endloop
endfacet
facet normal 0.590982 0.806685 0
  outer loop
    vertex 0.03924591603952008 0.04751370244520513 0
    vertex 0.03425700863894585 0.05116860263329783 0
    vertex 0.03425700863894585 0.05116860263329783 0.009999999999999972
  endloop
endfacet
facet normal 0.590982 0.806685 -0
  outer loop
    vertex 0.03425700863894585 0.05116860263329783 0.009999999999999972
    vertex 0.03425700863894585 0.05116860263329783 0.02
    vertex 0.03924591603952008 0.04751370244520513 0.02
  endloop
endfacet
facet normal 0.590982 0.806685 0
  outer loop
    vertex 0.04423482344009431 0.04385880225711243 0.01000000000000003
    vertex 0.04423482344009431 0.04385880225711243 0
    vertex 0.03924591603952008 0.04751370244520513 0
  endloop
endfacet
facet normal 0.590982 0.806685 0
  outer loop
    vertex 0.03924591603952008 0.04751370244520513 0.02
    vertex 0.04423482344009431 0.04385880225711243 0.02
    vertex 0.04423482344009431 0.04385880225711243 0.01000000000000003
  endloop
endfacet
facet normal 0.309836 -0.95079 -4.03553e-16
  outer loop
    vertex 0.03301905559636129 0.04020390206901973 0
    vertex 0.03060957228216918 0.03941871989148672 0.01103180961089616
    vertex 0.02180328775262826 0.03654900188092702 0
  endloop
endfacet
facet normal 0.309836 -0.95079 0
  outer loop
    vertex 0.02180328775262826 0.03654900188092702 0.01000000000000003
    vertex 0.03060957228216918 0.03941871989148672 0.01103180961089616
    vertex 0.02180328775262826 0.03654900188092702 0.02
  endloop
endfacet
facet normal 0.309836 -0.95079 5.12426e-16
  outer loop
    vertex 0.02180328775262826 0.03654900188092702 0.02
    vertex 0.03060957228216918 0.03941871989148672 0.01103180961089616
    vertex 0.03301905559636129 0.04020390206901973 0.02
  endloop
endfacet
facet normal 0.309836 -0.95079 -2.4042e-16
  outer loop
    vertex 0.04423482344009431 0.04385880225711243 0
    vertex 0.03740497212212612 0.04163314769520606 0.007167967338495083
    vertex 0.03301905559636129 0.04020390206901973 0
  endloop
endfacet
facet normal 0.309836 -0.95079 1.13189e-15
  outer loop
    vertex 0.03301905559636129 0.04020390206901973 0.02
    vertex 0.03785936587361133 0.0417812217130451 0.01365616959992407
    vertex 0.04423482344009431 0.04385880225711243 0.02
  endloop
endfacet
facet normal 0.309836 -0.95079 0
  outer loop
    vertex 0.04423482344009431 0.04385880225711243 0.009999999999999972
    vertex 0.03740497212212612 0.04163314769520606 0.007167967338495083
    vertex 0.04423482344009431 0.04385880225711243 0
  endloop
endfacet
facet normal 0.309836 -0.95079 -3.37322e-16
  outer loop
    vertex 0.03301905559636129 0.04020390206901973 0
    vertex 0.03740497212212612 0.04163314769520606 0.007167967338495083
    vertex 0.03060957228216918 0.03941871989148672 0.01103180961089616
  endloop
endfacet
facet normal 0.309836 -0.95079 0
  outer loop
    vertex 0.04423482344009431 0.04385880225711243 0.02
    vertex 0.03785936587361133 0.0417812217130451 0.01365616959992407
    vertex 0.04423482344009431 0.04385880225711243 0.009999999999999972
  endloop
endfacet
facet normal 0.309836 -0.95079 6.31172e-16
  outer loop
    vertex 0.03301905559636129 0.04020390206901973 0.02
    vertex 0.03060957228216918 0.03941871989148672 0.01103180961089616
    vertex 0.03785936587361133 0.0417812217130451 0.01365616959992407
  endloop
endfacet
facet normal 0.309836 -0.95079 -8.43195e-16
  outer loop
    vertex 0.03060957228216918 0.03941871989148672 0.01103180961089616
    vertex 0.03740497212212612 0.04163314769520606 0.007167967338495083
    vertex 0.03785936587361133 0.0417812217130451 0.01365616959992407
  endloop
endfacet
facet normal 0.309836 -0.95079 -8.77383e-16
  outer loop
    vertex 0.03785936587361133 0.0417812217130451 0.01365616959992407
    vertex 0.03740497212212612 0.04163314769520606 0.007167967338495083
    vertex 0.04423482344009431 0.04385880225711243 0.009999999999999972
  endloop
endfacet
facet normal 0.309836 -0.95079 0
  outer loop
    vertex 0.02180328775262826 0.03654900188092702 0
    vertex 0.03060957228216918 0.03941871989148672 0.01103180961089616
    vertex 0.02180328775262826 0.03654900188092702 0.01000000000000003
  endloop
endfacet
facet normal 0.303663 0.952779 0
  outer loop
    vertex 0.02180328775262826 0.03654900188092702 0.02
    vertex 0.03084800519733055 0.03366633303612557 0.009182478912675891
    vertex 0.02180328775262826 0.03654900188092702 0.009999999999999972
  endloop
endfacet
facet normal 0.303663 0.952779 3.38293e-16
  outer loop
    vertex 0.03327097317528892 0.03289410169283432 0.02
    vertex 0.03084800519733055 0.03366633303612557 0.009182478912675891
    vertex 0.02180328775262826 0.03654900188092702 0.02
  endloop
endfacet
facet normal 0.303663 0.952779 0
  outer loop
    vertex 0.02180328775262826 0.03654900188092702 0.009999999999999972
    vertex 0.03084800519733055 0.03366633303612557 0.009182478912675891
    vertex 0.02180328775262826 0.03654900188092702 0
  endloop
endfacet
facet normal 0.303663 0.952779 -6.13122e-16
  outer loop
    vertex 0.02180328775262826 0.03654900188092702 0
    vertex 0.03084800519733055 0.03366633303612557 0.009182478912675891
    vertex 0.03327097317528892 0.03289410169283432 0
  endloop
endfacet
facet normal 0.303663 0.952779 6.8843e-16
  outer loop
    vertex 0.04473865859794959 0.02923920150474162 0.02
    vertex 0.03815358258545503 0.03133795070038245 0.01304869880975372
    vertex 0.03327097317528892 0.03289410169283432 0.02
  endloop
endfacet
facet normal 0.303663 0.952779 -1.14159e-15
  outer loop
    vertex 0.03327097317528892 0.03289410169283432 0
    vertex 0.03824285215151853 0.03130949933101094 0.006411215507359267
    vertex 0.04473865859794959 0.02923920150474162 0
  endloop
endfacet
facet normal 0.303663 0.952779 -0
  outer loop
    vertex 0.04473865859794959 0.02923920150474162 0.01000000000000003
    vertex 0.03815358258545503 0.03133795070038245 0.01304869880975372
    vertex 0.04473865859794959 0.02923920150474162 0.02
  endloop
endfacet
facet normal 0.303663 0.952779 4.4024e-16
  outer loop
    vertex 0.03327097317528892 0.03289410169283432 0.02
    vertex 0.03815358258545503 0.03133795070038245 0.01304869880975372
    vertex 0.03084800519733055 0.03366633303612557 0.009182478912675891
  endloop
endfacet
facet normal 0.303663 0.952779 -0
  outer loop
    vertex 0.04473865859794959 0.02923920150474162 0
    vertex 0.03824285215151853 0.03130949933101094 0.006411215507359267
    vertex 0.04473865859794959 0.02923920150474162 0.01000000000000003
  endloop
endfacet
facet normal 0.303663 0.952779 -8.17741e-16
  outer loop
    vertex 0.03327097317528892 0.03289410169283432 0
    vertex 0.03084800519733055 0.03366633303612557 0.009182478912675891
    vertex 0.03824285215151853 0.03130949933101094 0.006411215507359267
  endloop
endfacet
facet normal 0.303663 0.952779 1.98306e-16
  outer loop
    vertex 0.03084800519733055 0.03366633303612557 0.009182478912675891
    vertex 0.03815358258545503 0.03133795070038245 0.01304869880975372
    vertex 0.03824285215151853 0.03130949933101094 0.006411215507359267
  endloop
endfacet
facet normal 0.303663 0.952779 2.20055e-16
  outer loop
    vertex 0.03824285215151853 0.03130949933101094 0.006411215507359267
    vertex 0.03815358258545503 0.03133795070038245 0.01304869880975372
    vertex 0.04473865859794959 0.02923920150474162 0.01000000000000003
  endloop
endfacet
facet normal 0.338675 -0.940903 0
  outer loop
    vertex 0.02443066237208598 0.02192940112855622 0.01000000000000003
    vertex 0.03222557020837878 0.02473515407435876 0.01188267601016216
    vertex 0.02443066237208598 0.02192940112855622 0.02
  endloop
endfacet
facet normal 0.338675 -0.940903 3.86772e-17
  outer loop
    vertex 0.02443066237208598 0.02192940112855622 0.02
    vertex 0.03222557020837878 0.02473515407435876 0.01188267601016216
    vertex 0.03458466048501778 0.02558430131664892 0.02
  endloop
endfacet
facet normal 0.338675 -0.940903 2.96872e-16
  outer loop
    vertex 0.04473865859794959 0.02923920150474162 0
    vertex 0.0378334284491179 0.02675368528845967 0.007402829192762299
    vertex 0.03458466048501778 0.02558430131664892 0
  endloop
endfacet
facet normal 0.338675 -0.940903 0
  outer loop
    vertex 0.04473865859794959 0.02923920150474162 0.009999999999999972
    vertex 0.0378334284491179 0.02675368528845967 0.007402829192762299
    vertex 0.04473865859794959 0.02923920150474162 0
  endloop
endfacet
facet normal 0.338675 -0.940903 1.25582e-16
  outer loop
    vertex 0.03458466048501778 0.02558430131664892 0
    vertex 0.02950766142855188 0.02375685122260257 0.005000000000000014
    vertex 0.02443066237208598 0.02192940112855622 0
  endloop
endfacet
facet normal 0.338675 -0.940903 1.03378e-16
  outer loop
    vertex 0.03458466048501778 0.02558430131664892 0.02
    vertex 0.03886885329673706 0.02712638325710509 0.01392606574624555
    vertex 0.04473865859794959 0.02923920150474162 0.02
  endloop
endfacet
facet normal 0.338675 -0.940903 0
  outer loop
    vertex 0.04473865859794959 0.02923920150474162 0.02
    vertex 0.03886885329673706 0.02712638325710509 0.01392606574624555
    vertex 0.04473865859794959 0.02923920150474162 0.009999999999999972
  endloop
endfacet
facet normal 0.338675 -0.940903 0
  outer loop
    vertex 0.02443066237208598 0.02192940112855622 0
    vertex 0.02950766142855188 0.02375685122260257 0.005000000000000014
    vertex 0.02443066237208598 0.02192940112855622 0.01000000000000003
  endloop
endfacet
facet normal 0.338675 -0.940903 2.66508e-16
  outer loop
    vertex 0.0378334284491179 0.02675368528845967 0.007402829192762299
    vertex 0.02950766142855188 0.02375685122260257 0.005000000000000014
    vertex 0.03458466048501778 0.02558430131664892 0
  endloop
endfacet
facet normal 0.338675 -0.940903 1.88363e-16
  outer loop
    vertex 0.03222557020837878 0.02473515407435876 0.01188267601016216
    vertex 0.02950766142855188 0.02375685122260257 0.005000000000000014
    vertex 0.0378334284491179 0.02675368528845967 0.007402829192762299
  endloop
endfacet
facet normal 0.338675 -0.940903 1.623e-16
  outer loop
    vertex 0.03458466048501778 0.02558430131664892 0.02
    vertex 0.03222557020837878 0.02473515407435876 0.01188267601016216
    vertex 0.03886885329673706 0.02712638325710509 0.01392606574624555
  endloop
endfacet
facet normal 0.338675 -0.940903 1.64214e-16
  outer loop
    vertex 0.02443066237208598 0.02192940112855622 0.01000000000000003
    vertex 0.02950766142855188 0.02375685122260257 0.005000000000000014
    vertex 0.03222557020837878 0.02473515407435876 0.01188267601016216
  endloop
endfacet
facet normal 0.338675 -0.940903 -7.73389e-17
  outer loop
    vertex 0.03222557020837878 0.02473515407435876 0.01188267601016216
    vertex 0.0378334284491179 0.02675368528845967 0.007402829192762299
    vertex 0.03886885329673706 0.02712638325710509 0.01392606574624555
  endloop
endfacet
facet normal 0.338675 -0.940903 -6.58576e-17
  outer loop
    vertex 0.03886885329673706 0.02712638325710509 0.01392606574624555
    vertex 0.0378334284491179 0.02675368528845967 0.007402829192762299
    vertex 0.04473865859794959 0.02923920150474162 0.009999999999999972
  endloop
endfacet
facet normal 0.34869 0.937238 0
  outer loop
    vertex 0.02443066237208598 0.02192940112855622 0.009999999999999972
    vertex 0.03190892513837658 0.01914719071700079 0.007870062960526142
    vertex 0.02443066237208598 0.02192940112855622 0
  endloop
endfacet
facet normal 0.34869 0.937238 -1.64288e-16
  outer loop
    vertex 0.02443066237208598 0.02192940112855622 0
    vertex 0.03190892513837658 0.01914719071700079 0.007870062960526142
    vertex 0.03425461525415491 0.01827450094046352 0
  endloop
endfacet
facet normal 0.34869 0.937238 0
  outer loop
    vertex 0.04407856813622385 0.01461960075237081 0.02
    vertex 0.03725062033130529 0.01715986820031772 0.0126342313941123
    vertex 0.03425461525415492 0.01827450094046351 0.02
  endloop
endfacet
facet normal 0.34869 0.937238 -0
  outer loop
    vertex 0.04407856813622385 0.01461960075237081 0.01000000000000003
    vertex 0.03725062033130529 0.01715986820031772 0.0126342313941123
    vertex 0.04407856813622385 0.01461960075237081 0.02
  endloop
endfacet
facet normal 0.34869 0.937238 3.23239e-16
  outer loop
    vertex 0.03425461525415492 0.01827450094046351 0.02
    vertex 0.02934263881312045 0.02010195103450986 0.01499999999999999
    vertex 0.02443066237208598 0.02192940112855622 0.02
  endloop
endfacet
facet normal 0.34869 0.937238 -5.39214e-17
  outer loop
    vertex 0.03425461525415491 0.01827450094046352 0
    vertex 0.0383654723895413 0.0167450990085009 0.005994632915666618
    vertex 0.04407856813622385 0.01461960075237081 0
  endloop
endfacet
facet normal 0.34869 0.937238 0
  outer loop
    vertex 0.02443066237208598 0.02192940112855622 0.02
    vertex 0.02934263881312045 0.02010195103450986 0.01499999999999999
    vertex 0.02443066237208598 0.02192940112855622 0.009999999999999972
  endloop
endfacet
facet normal 0.34869 0.937238 -0
  outer loop
    vertex 0.04407856813622385 0.01461960075237081 0
    vertex 0.0383654723895413 0.0167450990085009 0.005994632915666618
    vertex 0.04407856813622385 0.01461960075237081 0.01000000000000003
  endloop
endfacet
facet normal 0.34869 0.937238 1.55173e-16
  outer loop
    vertex 0.03725062033130529 0.01715986820031772 0.0126342313941123
    vertex 0.02934263881312045 0.02010195103450986 0.01499999999999999
    vertex 0.03425461525415492 0.01827450094046351 0.02
  endloop
endfacet
facet normal 0.34869 0.937238 2.05126e-16
  outer loop
    vertex 0.03190892513837658 0.01914719071700079 0.007870062960526142
    vertex 0.02934263881312045 0.02010195103450986 0.01499999999999999
    vertex 0.03725062033130529 0.01715986820031772 0.0126342313941123
  endloop
endfacet
facet normal 0.34869 0.937238 -1.11176e-16
  outer loop
    vertex 0.03425461525415491 0.01827450094046352 0
    vertex 0.03190892513837658 0.01914719071700079 0.007870062960526142
    vertex 0.0383654723895413 0.0167450990085009 0.005994632915666618
  endloop
endfacet
facet normal 0.34869 0.937238 3.31792e-17
  outer loop
    vertex 0.02443066237208598 0.02192940112855622 0.009999999999999972
    vertex 0.02934263881312045 0.02010195103450986 0.01499999999999999
    vertex 0.03190892513837658 0.01914719071700079 0.007870062960526142
  endloop
endfacet
facet normal 0.34869 0.937238 2.33617e-16
  outer loop
    vertex 0.03190892513837658 0.01914719071700079 0.007870062960526142
    vertex 0.03725062033130529 0.01715986820031772 0.0126342313941123
    vertex 0.0383654723895413 0.0167450990085009 0.005994632915666618
  endloop
endfacet
facet normal 0.34869 0.937238 1.87242e-16
  outer loop
    vertex 0.0383654723895413 0.0167450990085009 0.005994632915666618
    vertex 0.03725062033130529 0.01715986820031772 0.0126342313941123
    vertex 0.04407856813622385 0.01461960075237081 0.01000000000000003
  endloop
endfacet
facet normal 0.634676 -0.772778 -3.08099e-16
  outer loop
    vertex 0.04407856813622385 0.01461960075237081 0
    vertex 0.03962837859985981 0.01096470056427811 0.005728862973760926
    vertex 0.03517818906349577 0.007309800376185407 0
  endloop
endfacet
facet normal 0.634676 -0.772778 6.21965e-16
  outer loop
    vertex 0.03517818906349577 0.007309800376185407 0.02
    vertex 0.03962837859985981 0.01096470056427811 0.01432426114969104
    vertex 0.04407856813622385 0.01461960075237081 0.02
  endloop
endfacet
facet normal 0.634676 -0.772778 -1.55962e-16
  outer loop
    vertex 0.03962837859985981 0.01096470056427811 0.005728862973760926
    vertex 0.03962837859985981 0.01096470056427811 0.01432426114969104
    vertex 0.03517818906349577 0.007309800376185407 0.01000000000000003
  endloop
endfacet
facet normal 0.634676 -0.772778 0
  outer loop
    vertex 0.04407856813622385 0.01461960075237081 0.02
    vertex 0.03962837859985981 0.01096470056427811 0.01432426114969104
    vertex 0.04407856813622385 0.01461960075237081 0.009999999999999972
  endloop
endfacet
facet normal 0.634676 -0.772778 0
  outer loop
    vertex 0.03517818906349577 0.007309800376185407 0
    vertex 0.03962837859985981 0.01096470056427811 0.005728862973760926
    vertex 0.03517818906349577 0.007309800376185407 0.01000000000000003
  endloop
endfacet
facet normal 0.634676 -0.772778 -1.36899e-16
  outer loop
    vertex 0.04407856813622385 0.01461960075237081 0.009999999999999972
    vertex 0.03962837859985981 0.01096470056427811 0.01432426114969104
    vertex 0.03962837859985981 0.01096470056427811 0.005728862973760926
  endloop
endfacet
facet normal 0.634676 -0.772778 0
  outer loop
    vertex 0.04407856813622385 0.01461960075237081 0.009999999999999972
    vertex 0.03962837859985981 0.01096470056427811 0.005728862973760926
    vertex 0.04407856813622385 0.01461960075237081 0
  endloop
endfacet
facet normal 0.634676 -0.772778 0
  outer loop
    vertex 0.03517818906349577 0.007309800376185407 0.01000000000000003
    vertex 0.03962837859985981 0.01096470056427811 0.01432426114969104
    vertex 0.03517818906349577 0.007309800376185407 0.02
  endloop
endfacet
endsolid Created by Gmsh
