solid Created by Gmsh
facet normal -0.928841 0.370479 0
  outer loop
    vertex 0.03606804973025205 0.05145554203468727 0
    vertex 0.03606804973025205 0.05145554203468727 0.01000000000000003
    vertex 0.03753402486512602 0.05513093789430779 0.005000000000000001
  endloop
endfacet
facet normal -0.928841 0.370479 0
  outer loop
    vertex 0.039 0.05880633375392831 0.02
    vertex 0.039 0.05880633375392831 0.009999999999999972
    vertex 0.03753402486512602 0.05513093789430779 0.015
  endloop
endfacet
facet normal -0.928841 0.370479 0
  outer loop
    vertex 0.03606804973025205 0.05145554203468727 0.01000000000000003
    vertex 0.03606804973025205 0.05145554203468727 0.02
    vertex 0.03753402486512602 0.05513093789430779 0.015
  endloop
endfacet
facet normal -0.928841 0.370479 0
  outer loop
    vertex 0.039 0.05880633375392831 0.009999999999999972
    vertex 0.039 0.05880633375392831 0
    vertex 0.03753402486512602 0.05513093789430779 0.005000000000000001
  endloop
endfacet
facet normal -0.928841 0.370479 -1.28437e-15
  outer loop
    vertex 0.039 0.05880633375392831 0.009999999999999972
    vertex 0.03606804973025205 0.05145554203468727 0.01000000000000003
    vertex 0.03753402486512602 0.05513093789430779 0.015
  endloop
endfacet
facet normal -0.928841 0.370479 1.28437e-15
  outer loop
    vertex 0.03606804973025205 0.05145554203468727 0.01000000000000003
    vertex 0.039 0.05880633375392831 0.009999999999999972
    vertex 0.03753402486512602 0.05513093789430779 0.005000000000000001
  endloop
endfacet
facet normal -0.928841 0.370479 -1.28437e-15
  outer loop
    vertex 0.039 0.05880633375392831 0
    vertex 0.03606804973025205 0.05145554203468727 0
    vertex 0.03753402486512602 0.05513093789430779 0.005000000000000001
  endloop
endfacet
facet normal -0.928841 0.370479 1.28437e-15
  outer loop
    vertex 0.03606804973025205 0.05145554203468727 0.02
    vertex 0.039 0.05880633375392831 0.02
    vertex 0.03753402486512602 0.05513093789430779 0.015
  endloop
endfacet
facet normal -0.26269 0.96488 2.24945e-16
  outer loop
    vertex 0.02706804973025204 0.04900527812827359 0
    vertex 0.01806804973025206 0.04655501422185992 0
    vertex 0.02256804973025206 0.04778014617506676 0.008073933773965578
  endloop
endfacet
facet normal -0.26269 0.96488 0
  outer loop
    vertex 0.009068049730252064 0.04410475031544624 0
    vertex 0.009068049730252064 0.04410475031544624 0.01000000000000003
    vertex 0.01553468152036518 0.0458653008122664 0.006901160284325839
  endloop
endfacet
facet normal -0.26269 0.96488 0
  outer loop
    vertex 0.03606804973025205 0.05145554203468727 0.009999999999999972
    vertex 0.03606804973025205 0.05145554203468727 0
    vertex 0.02960141794013893 0.04969499153786711 0.006901160284325834
  endloop
endfacet
facet normal -0.26269 0.96488 7.89515e-17
  outer loop
    vertex 0.01806804973025206 0.04655501422185992 0
    vertex 0.009068049730252064 0.04410475031544624 0
    vertex 0.01553468152036518 0.0458653008122664 0.006901160284325839
  endloop
endfacet
facet normal -0.26269 0.96488 -2.63172e-16
  outer loop
    vertex 0.03606804973025205 0.05145554203468727 0
    vertex 0.02706804973025204 0.04900527812827359 0
    vertex 0.02960141794013893 0.04969499153786711 0.006901160284325834
  endloop
endfacet
facet normal -0.26269 0.96488 1.28479e-16
  outer loop
    vertex 0.02256804973025206 0.04778014617506676 0.008073933773965578
    vertex 0.02256804973025206 0.04778014617506676 0.01516759498073419
    vertex 0.03004159574985467 0.04981483062670608 0.01374538329782461
  endloop
endfacet
facet normal -0.26269 0.96488 1.28479e-16
  outer loop
    vertex 0.02256804973025206 0.04778014617506676 0.01516759498073419
    vertex 0.02256804973025206 0.04778014617506676 0.008073933773965578
    vertex 0.01509450371064947 0.04574546172342744 0.01374538329782461
  endloop
endfacet
facet normal -0.26269 0.96488 0
  outer loop
    vertex 0.03606804973025205 0.05145554203468727 0.02
    vertex 0.03606804973025205 0.05145554203468727 0.009999999999999972
    vertex 0.03004159574985467 0.04981483062670608 0.01374538329782461
  endloop
endfacet
facet normal -0.26269 0.96488 0
  outer loop
    vertex 0.009068049730252064 0.04410475031544624 0.01000000000000003
    vertex 0.009068049730252064 0.04410475031544624 0.02
    vertex 0.01509450371064947 0.04574546172342744 0.01374538329782461
  endloop
endfacet
facet normal -0.26269 0.96488 1.07086e-16
  outer loop
    vertex 0.02960141794013893 0.04969499153786711 0.006901160284325834
    vertex 0.02256804973025206 0.04778014617506676 0.008073933773965578
    vertex 0.03004159574985467 0.04981483062670608 0.01374538329782461
  endloop
endfacet
facet normal -0.26269 0.96488 1.34383e-16
  outer loop
    vertex 0.02256804973025206 0.04778014617506676 0.008073933773965578
    vertex 0.01553468152036518 0.0458653008122664 0.006901160284325839
    vertex 0.01509450371064947 0.04574546172342744 0.01374538329782461
  endloop
endfacet
facet normal -0.26269 0.96488 4.35564e-16
  outer loop
    vertex 0.02706804973025205 0.04900527812827359 0.02
    vertex 0.03606804973025205 0.05145554203468727 0.02
    vertex 0.03004159574985467 0.04981483062670608 0.01374538329782461
  endloop
endfacet
facet normal -0.26269 0.96488 -2.90376e-17
  outer loop
    vertex 0.009068049730252064 0.04410475031544624 0.02
    vertex 0.01806804973025207 0.04655501422185992 0.02
    vertex 0.01509450371064947 0.04574546172342744 0.01374538329782461
  endloop
endfacet
facet normal -0.26269 0.96488 1.58667e-16
  outer loop
    vertex 0.02256804973025206 0.04778014617506676 0.008073933773965578
    vertex 0.01806804973025206 0.04655501422185992 0
    vertex 0.01553468152036518 0.0458653008122664 0.006901160284325839
  endloop
endfacet
facet normal -0.26269 0.96488 -7.14002e-17
  outer loop
    vertex 0.02706804973025204 0.04900527812827359 0
    vertex 0.02256804973025206 0.04778014617506676 0.008073933773965578
    vertex 0.02960141794013893 0.04969499153786711 0.006901160284325834
  endloop
endfacet
facet normal -0.26269 0.96488 -1.87918e-16
  outer loop
    vertex 0.01806804973025207 0.04655501422185992 0.02
    vertex 0.02706804973025205 0.04900527812827359 0.02
    vertex 0.02256804973025206 0.04778014617506676 0.01516759498073419
  endloop
endfacet
facet normal -0.26269 0.96488 2.69127e-16
  outer loop
    vertex 0.02256804973025206 0.04778014617506676 0.01516759498073419
    vertex 0.02706804973025205 0.04900527812827359 0.02
    vertex 0.03004159574985467 0.04981483062670608 0.01374538329782461
  endloop
endfacet
facet normal -0.26269 0.96488 -7.68936e-17
  outer loop
    vertex 0.01806804973025207 0.04655501422185992 0.02
    vertex 0.02256804973025206 0.04778014617506676 0.01516759498073419
    vertex 0.01509450371064947 0.04574546172342744 0.01374538329782461
  endloop
endfacet
facet normal -0.26269 0.96488 3.81063e-17
  outer loop
    vertex 0.03606804973025205 0.05145554203468727 0.009999999999999972
    vertex 0.02960141794013893 0.04969499153786711 0.006901160284325834
    vertex 0.03004159574985467 0.04981483062670608 0.01374538329782461
  endloop
endfacet
facet normal -0.26269 0.96488 1.42899e-16
  outer loop
    vertex 0.01553468152036518 0.0458653008122664 0.006901160284325839
    vertex 0.009068049730252064 0.04410475031544624 0.01000000000000003
    vertex 0.01509450371064947 0.04574546172342744 0.01374538329782461
  endloop
endfacet
facet normal -1 0 0
  outer loop
    vertex 0.009068049730252064 0.03675395859620519 0.01000000000000003
    vertex 0.009068049730252064 0.04410475031544624 0.009999999999999972
    vertex 0.009068049730252064 0.04042935445582571 0.005
  endloop
endfacet
facet normal -1 0 0
  outer loop
    vertex 0.009068049730252064 0.04410475031544624 0.009999999999999972
    vertex 0.009068049730252064 0.03675395859620519 0.01000000000000003
    vertex 0.009068049730252064 0.04042935445582572 0.015
  endloop
endfacet
facet normal -1 0 0
  outer loop
    vertex 0.009068049730252064 0.04410475031544624 0
    vertex 0.009068049730252064 0.03675395859620519 0
    vertex 0.009068049730252064 0.04042935445582571 0.005
  endloop
endfacet
facet normal -1 0 0
  outer loop
    vertex 0.009068049730252064 0.03675395859620519 0.02
    vertex 0.009068049730252064 0.04410475031544624 0.02
    vertex 0.009068049730252064 0.04042935445582572 0.015
  endloop
endfacet
facet normal -1 0 -0
  outer loop
    vertex 0.009068049730252064 0.04410475031544624 0.009999999999999972
    vertex 0.009068049730252064 0.04410475031544624 0
    vertex 0.009068049730252064 0.04042935445582571 0.005
  endloop
endfacet
facet normal -1 0 -0
  outer loop
    vertex 0.009068049730252064 0.04410475031544624 0.02
    vertex 0.009068049730252064 0.04410475031544624 0.009999999999999972
    vertex 0.009068049730252064 0.04042935445582572 0.015
  endloop
endfacet
facet normal -1 0 0
  outer loop
    vertex 0.009068049730252064 0.03675395859620519 0
    vertex 0.009068049730252064 0.03675395859620519 0.01000000000000003
    vertex 0.009068049730252064 0.04042935445582571 0.005
  endloop
endfacet
facet normal -1 0 0
  outer loop
    vertex 0.009068049730252064 0.03675395859620519 0.01000000000000003
    vertex 0.009068049730252064 0.03675395859620519 0.02
    vertex 0.009068049730252064 0.04042935445582572 0.015
  endloop
endfacet
facet normal -0.521266 -0.853395 -0
  outer loop
    vertex 0.009068049730252064 0.03675395859620519 0.02
    vertex 0.009068049730252064 0.03675395859620519 0.009999999999999972
    vertex 0.01328009461583159 0.03418118149447082 0.015
  endloop
endfacet
facet normal -0.521266 -0.853395 0
  outer loop
    vertex 0.0211024636890507 0.02940316687696416 0
    vertex 0.0211024636890507 0.02940316687696416 0.01000000000000003
    vertex 0.01689041880347118 0.03197594397869852 0.005000000000000005
  endloop
endfacet
facet normal -0.521266 -0.853395 -0
  outer loop
    vertex 0.009068049730252064 0.03675395859620519 0.009999999999999972
    vertex 0.009068049730252064 0.03675395859620519 0
    vertex 0.01303940633665562 0.03432819732885565 0.004999999999999998
  endloop
endfacet
facet normal -0.521266 -0.853395 0
  outer loop
    vertex 0.0211024636890507 0.02940316687696416 0.01000000000000003
    vertex 0.0211024636890507 0.02940316687696416 0.02
    vertex 0.01713110708264716 0.03182892814431369 0.01500000000000001
  endloop
endfacet
facet normal -0.521266 -0.853395 7.20786e-16
  outer loop
    vertex 0.01508525670965138 0.03307856273658467 0.02
    vertex 0.009068049730252064 0.03675395859620519 0.02
    vertex 0.01328009461583159 0.03418118149447082 0.015
  endloop
endfacet
facet normal -0.521266 -0.853395 3.84419e-16
  outer loop
    vertex 0.01508525670965138 0.03307856273658467 0
    vertex 0.0211024636890507 0.02940316687696416 0
    vertex 0.01689041880347118 0.03197594397869852 0.005000000000000005
  endloop
endfacet
facet normal -0.521266 -0.853395 3.36367e-16
  outer loop
    vertex 0.009068049730252064 0.03675395859620519 0
    vertex 0.01508525670965138 0.03307856273658467 0
    vertex 0.01303940633665562 0.03432819732885565 0.004999999999999998
  endloop
endfacet
facet normal -0.521266 -0.853395 4.80524e-16
  outer loop
    vertex 0.0211024636890507 0.02940316687696416 0.02
    vertex 0.01508525670965138 0.03307856273658467 0.02
    vertex 0.01713110708264716 0.03182892814431369 0.01500000000000001
  endloop
endfacet
facet normal -0.521266 -0.853395 4.88032e-16
  outer loop
    vertex 0.01508525670965138 0.03307856273658467 0
    vertex 0.01689041880347118 0.03197594397869852 0.005000000000000005
    vertex 0.01303940633665562 0.03432819732885565 0.004999999999999998
  endloop
endfacet
facet normal -0.521266 -0.853395 6.94508e-16
  outer loop
    vertex 0.01508525670965138 0.03307856273658467 0.02
    vertex 0.01328009461583159 0.03418118149447082 0.015
    vertex 0.01713110708264716 0.03182892814431369 0.01500000000000001
  endloop
endfacet
facet normal -0.521266 -0.853395 2.25246e-16
  outer loop
    vertex 0.01303940633665562 0.03432819732885565 0.004999999999999998
    vertex 0.01689041880347118 0.03197594397869852 0.005000000000000005
    vertex 0.01508525670965138 0.03307856273658467 0.01
  endloop
endfacet
facet normal -0.521266 -0.853395 -7.13278e-16
  outer loop
    vertex 0.01713110708264716 0.03182892814431369 0.01500000000000001
    vertex 0.01328009461583159 0.03418118149447082 0.015
    vertex 0.01508525670965138 0.03307856273658467 0.01
  endloop
endfacet
facet normal -0.521266 -0.853395 1.44157e-16
  outer loop
    vertex 0.009068049730252064 0.03675395859620519 0.009999999999999972
    vertex 0.01303940633665562 0.03432819732885565 0.004999999999999998
    vertex 0.01508525670965138 0.03307856273658467 0.01
  endloop
endfacet
facet normal -0.521266 -0.853395 -7.20786e-16
  outer loop
    vertex 0.01328009461583159 0.03418118149447082 0.015
    vertex 0.009068049730252064 0.03675395859620519 0.009999999999999972
    vertex 0.01508525670965138 0.03307856273658467 0.01
  endloop
endfacet
facet normal -0.521266 -0.853395 9.61048e-17
  outer loop
    vertex 0.01689041880347118 0.03197594397869852 0.005000000000000005
    vertex 0.0211024636890507 0.02940316687696416 0.01000000000000003
    vertex 0.01508525670965138 0.03307856273658467 0.01
  endloop
endfacet
facet normal -0.521266 -0.853395 -4.80524e-16
  outer loop
    vertex 0.0211024636890507 0.02940316687696416 0.01000000000000003
    vertex 0.01713110708264716 0.03182892814431369 0.01500000000000001
    vertex 0.01508525670965138 0.03307856273658467 0.01
  endloop
endfacet
facet normal -0.521266 0.853395 0
  outer loop
    vertex 0.0211024636890507 0.02940316687696416 0.02
    vertex 0.0211024636890507 0.02940316687696416 0.009999999999999972
    vertex 0.01689041880347118 0.02683038977522979 0.015
  endloop
endfacet
facet normal -0.521266 0.853395 0
  outer loop
    vertex 0.009068049730252064 0.02205237515772312 0
    vertex 0.009068049730252064 0.02205237515772312 0.01000000000000003
    vertex 0.01328009461583159 0.02462515225945748 0.004999999999999999
  endloop
endfacet
facet normal -0.521266 0.853395 0
  outer loop
    vertex 0.009068049730252064 0.02205237515772312 0.01000000000000003
    vertex 0.009068049730252064 0.02205237515772312 0.02
    vertex 0.01303940633665562 0.02447813642507266 0.015
  endloop
endfacet
facet normal -0.521266 0.853395 0
  outer loop
    vertex 0.0211024636890507 0.02940316687696416 0.009999999999999972
    vertex 0.0211024636890507 0.02940316687696416 0
    vertex 0.01713110708264716 0.02697740560961462 0.004999999999999991
  endloop
endfacet
facet normal -0.521266 0.853395 2.40262e-17
  outer loop
    vertex 0.01508525670965138 0.02572777101734363 0.02
    vertex 0.0211024636890507 0.02940316687696416 0.02
    vertex 0.01689041880347118 0.02683038977522979 0.015
  endloop
endfacet
facet normal -0.521266 0.853395 2.88314e-16
  outer loop
    vertex 0.01508525670965138 0.02572777101734364 0
    vertex 0.009068049730252064 0.02205237515772312 0
    vertex 0.01328009461583159 0.02462515225945748 0.004999999999999999
  endloop
endfacet
facet normal -0.521266 0.853395 4.80524e-17
  outer loop
    vertex 0.009068049730252064 0.02205237515772312 0.02
    vertex 0.01508525670965138 0.02572777101734363 0.02
    vertex 0.01303940633665562 0.02447813642507266 0.015
  endloop
endfacet
facet normal -0.521266 0.853395 5.28577e-16
  outer loop
    vertex 0.0211024636890507 0.02940316687696416 0
    vertex 0.01508525670965138 0.02572777101734364 0
    vertex 0.01713110708264716 0.02697740560961462 0.004999999999999991
  endloop
endfacet
facet normal -0.521266 0.853395 4.88032e-16
  outer loop
    vertex 0.01508525670965138 0.02572777101734364 0
    vertex 0.01328009461583159 0.02462515225945748 0.004999999999999999
    vertex 0.01713110708264716 0.02697740560961462 0.004999999999999991
  endloop
endfacet
facet normal -0.521266 0.853395 7.50819e-17
  outer loop
    vertex 0.01508525670965138 0.02572777101734363 0.02
    vertex 0.01689041880347118 0.02683038977522979 0.015
    vertex 0.01303940633665562 0.02447813642507266 0.015
  endloop
endfacet
facet normal -0.521266 0.853395 -2.25246e-16
  outer loop
    vertex 0.01303940633665562 0.02447813642507266 0.015
    vertex 0.01689041880347118 0.02683038977522979 0.015
    vertex 0.01508525670965138 0.02572777101734364 0.009999999999999998
  endloop
endfacet
facet normal -0.521266 0.853395 1.12623e-16
  outer loop
    vertex 0.01713110708264716 0.02697740560961462 0.004999999999999991
    vertex 0.01328009461583159 0.02462515225945748 0.004999999999999999
    vertex 0.01508525670965138 0.02572777101734364 0.009999999999999998
  endloop
endfacet
facet normal -0.521266 0.853395 -1.44157e-16
  outer loop
    vertex 0.009068049730252064 0.02205237515772312 0.01000000000000003
    vertex 0.01303940633665562 0.02447813642507266 0.015
    vertex 0.01508525670965138 0.02572777101734364 0.009999999999999998
  endloop
endfacet
facet normal -0.521266 0.853395 1.44157e-16
  outer loop
    vertex 0.01328009461583159 0.02462515225945748 0.004999999999999999
    vertex 0.009068049730252064 0.02205237515772312 0.01000000000000003
    vertex 0.01508525670965138 0.02572777101734364 0.009999999999999998
  endloop
endfacet
facet normal -0.521266 0.853395 -9.61048e-17
  outer loop
    vertex 0.01689041880347118 0.02683038977522979 0.015
    vertex 0.0211024636890507 0.02940316687696416 0.009999999999999972
    vertex 0.01508525670965138 0.02572777101734364 0.009999999999999998
  endloop
endfacet
facet normal -0.521266 0.853395 -1.44157e-16
  outer loop
    vertex 0.0211024636890507 0.02940316687696416 0.009999999999999972
    vertex 0.01713110708264716 0.02697740560961462 0.004999999999999991
    vertex 0.01508525670965138 0.02572777101734364 0.009999999999999998
  endloop
endfacet
facet normal -1 0 0
  outer loop
    vertex 0.009068049730252064 0.01470158343848207 0.01000000000000003
    vertex 0.009068049730252064 0.02205237515772312 0.009999999999999972
    vertex 0.009068049730252064 0.0183769792981026 0.005
  endloop
endfacet
facet normal -1 0 0
  outer loop
    vertex 0.009068049730252064 0.02205237515772312 0.009999999999999972
    vertex 0.009068049730252064 0.01470158343848207 0.01000000000000003
    vertex 0.009068049730252064 0.0183769792981026 0.015
  endloop
endfacet
facet normal -1 0 0
  outer loop
    vertex 0.009068049730252064 0.02205237515772312 0
    vertex 0.009068049730252064 0.01470158343848207 0
    vertex 0.009068049730252064 0.0183769792981026 0.005
  endloop
endfacet
facet normal -1 0 0
  outer loop
    vertex 0.009068049730252064 0.01470158343848207 0.02
    vertex 0.009068049730252064 0.02205237515772312 0.02
    vertex 0.009068049730252064 0.0183769792981026 0.015
  endloop
endfacet
facet normal -1 0 -0
  outer loop
    vertex 0.009068049730252064 0.02205237515772312 0.009999999999999972
    vertex 0.009068049730252064 0.02205237515772312 0
    vertex 0.009068049730252064 0.0183769792981026 0.005
  endloop
endfacet
facet normal -1 0 -0
  outer loop
    vertex 0.009068049730252064 0.02205237515772312 0.02
    vertex 0.009068049730252064 0.02205237515772312 0.009999999999999972
    vertex 0.009068049730252064 0.0183769792981026 0.015
  endloop
endfacet
facet normal -1 0 0
  outer loop
    vertex 0.009068049730252064 0.01470158343848207 0
    vertex 0.009068049730252064 0.01470158343848207 0.01000000000000003
    vertex 0.009068049730252064 0.0183769792981026 0.005
  endloop
endfacet
facet normal -1 0 0
  outer loop
    vertex 0.009068049730252064 0.01470158343848207 0.01000000000000003
    vertex 0.009068049730252064 0.01470158343848207 0.02
    vertex 0.009068049730252064 0.0183769792981026 0.015
  endloop
endfacet
facet normal -0.332612 -0.943064 -0
  outer loop
    vertex 0.009068049730252064 0.01470158343848207 0.009999999999999972
    vertex 0.009068049730252064 0.01470158343848207 0
    vertex 0.01711958851905002 0.01186186569445509 0.008328937337600758
  endloop
endfacet
facet normal -0.332612 -0.943064 -3.68132e-16
  outer loop
    vertex 0.009068049730252064 0.01470158343848207 0
    vertex 0.01948901230308754 0.01102618757886156 0
    vertex 0.01711958851905002 0.01186186569445509 0.008328937337600758
  endloop
endfacet
facet normal -0.332612 -0.943064 4.9748e-16
  outer loop
    vertex 0.02990997487592304 0.007350791719241037 0.02
    vertex 0.01948901230308756 0.01102618757886155 0.02
    vertex 0.02295328825312921 0.009804363261350204 0.01260396350723962
  endloop
endfacet
facet normal -0.332612 -0.943064 0
  outer loop
    vertex 0.02990997487592304 0.007350791719241037 0.01000000000000003
    vertex 0.02990997487592304 0.007350791719241037 0.02
    vertex 0.02295328825312921 0.009804363261350204 0.01260396350723962
  endloop
endfacet
facet normal -0.332612 -0.943064 8.23643e-16
  outer loop
    vertex 0.01948901230308756 0.01102618757886155 0.02
    vertex 0.009068049730252064 0.01470158343848207 0.02
    vertex 0.01452723493396733 0.01277616948997221 0.01478826014394212
  endloop
endfacet
facet normal -0.332612 -0.943064 -3.49478e-16
  outer loop
    vertex 0.01948901230308754 0.01102618757886156 0
    vertex 0.02990997487592304 0.007350791719241037 0
    vertex 0.02391397839173162 0.009465535006942912 0.006141457540465031
  endloop
endfacet
facet normal -0.332612 -0.943064 -0
  outer loop
    vertex 0.009068049730252064 0.01470158343848207 0.02
    vertex 0.009068049730252064 0.01470158343848207 0.009999999999999972
    vertex 0.01452723493396733 0.01277616948997221 0.01478826014394212
  endloop
endfacet
facet normal -0.332612 -0.943064 0
  outer loop
    vertex 0.02990997487592304 0.007350791719241037 0
    vertex 0.02990997487592304 0.007350791719241037 0.01000000000000003
    vertex 0.02391397839173162 0.009465535006942912 0.006141457540465031
  endloop
endfacet
facet normal -0.332612 -0.943064 7.00293e-16
  outer loop
    vertex 0.02295328825312921 0.009804363261350204 0.01260396350723962
    vertex 0.01948901230308756 0.01102618757886155 0.02
    vertex 0.01452723493396733 0.01277616948997221 0.01478826014394212
  endloop
endfacet
facet normal -0.332612 -0.943064 1.6381e-16
  outer loop
    vertex 0.01711958851905002 0.01186186569445509 0.008328937337600758
    vertex 0.02295328825312921 0.009804363261350204 0.01260396350723962
    vertex 0.01452723493396733 0.01277616948997221 0.01478826014394212
  endloop
endfacet
facet normal -0.332612 -0.943064 -3.41855e-16
  outer loop
    vertex 0.01948901230308754 0.01102618757886156 0
    vertex 0.02391397839173162 0.009465535006942912 0.006141457540465031
    vertex 0.01711958851905002 0.01186186569445509 0.008328937337600758
  endloop
endfacet
facet normal -0.332612 -0.943064 -6.70203e-17
  outer loop
    vertex 0.009068049730252064 0.01470158343848207 0.009999999999999972
    vertex 0.01711958851905002 0.01186186569445509 0.008328937337600758
    vertex 0.01452723493396733 0.01277616948997221 0.01478826014394212
  endloop
endfacet
facet normal -0.332612 -0.943064 7.64274e-17
  outer loop
    vertex 0.01711958851905002 0.01186186569445509 0.008328937337600758
    vertex 0.02391397839173162 0.009465535006942912 0.006141457540465031
    vertex 0.02295328825312921 0.009804363261350204 0.01260396350723962
  endloop
endfacet
facet normal -0.332612 -0.943064 9.40745e-17
  outer loop
    vertex 0.02391397839173162 0.009465535006942912 0.006141457540465031
    vertex 0.02990997487592304 0.007350791719241037 0.01000000000000003
    vertex 0.02295328825312921 0.009804363261350204 0.01260396350723962
  endloop
endfacet
endsolid Created by Gmsh
