solid Created by Gmsh
facet normal 0.998718 0.0506101 9.34367e-17
  outer loop
    vertex 0.006856319014851063 0.02256890676482257 0
    vertex 0.007204561050871174 0.01569684878310628 0.01043010159022885
    vertex 0.007428159507425531 0.01128445338241128 0
  endloop
endfacet
facet normal 0.998718 0.0506101 -5.71738e-17
  outer loop
    vertex 0.006284478522276602 0.03385336014723368 0.02
    vertex 0.005936293670645564 0.0407242896769059 0.00951047348804124
    vertex 0.005712638029702133 0.04513781352964496 0.02
  endloop
endfacet
facet normal 0.998718 0.0506101 -6.61084e-17
  outer loop
    vertex 0.006284478522276602 0.03385336014723368 0.02
    vertex 0.006570408299295344 0.02821094538068744 0.009990095846378349
    vertex 0.005936293670645564 0.0407242896769059 0.00951047348804124
  endloop
endfacet
facet normal 0.998718 0.0506101 -1.08593e-16
  outer loop
    vertex 0.006856319014851069 0.02256890676482244 0.02
    vertex 0.006570408299295344 0.02821094538068744 0.009990095846378349
    vertex 0.006284478522276602 0.03385336014723368 0.02
  endloop
endfacet
facet normal 0.998718 0.0506101 -0
  outer loop
    vertex 0.008 0 0
    vertex 0.007642142844872898 0.00706179859074637 0.00740964261507745
    vertex 0.008 0 0.01000000000000003
  endloop
endfacet
facet normal 0.998718 0.0506101 0
  outer loop
    vertex 0.005140797537127664 0.05642226691205624 0.02
    vertex 0.005498662861453204 0.04936030711387501 0.01258186811038971
    vertex 0.005140797537127664 0.05642226691205624 0.009999999999999972
  endloop
endfacet
facet normal 0.998718 0.0506101 1.11291e-16
  outer loop
    vertex 0.007428159507425531 0.01128445338241128 0
    vertex 0.007642142844872898 0.00706179859074637 0.00740964261507745
    vertex 0.008 0 0
  endloop
endfacet
facet normal 0.998718 0.0506101 -1.36428e-16
  outer loop
    vertex 0.005712638029702133 0.04513781352964496 0.02
    vertex 0.005498662861453204 0.04936030711387501 0.01258186811038971
    vertex 0.005140797537127664 0.05642226691205624 0.02
  endloop
endfacet
facet normal 0.998718 0.0506101 1.36016e-16
  outer loop
    vertex 0.006856319014851063 0.02256890676482257 0
    vertex 0.006570408299295344 0.02821094538068744 0.009990095846378349
    vertex 0.007204561050871174 0.01569684878310628 0.01043010159022885
  endloop
endfacet
facet normal 0.998718 0.0506101 -1.17127e-16
  outer loop
    vertex 0.007204561050871174 0.01569684878310628 0.01043010159022885
    vertex 0.006570408299295344 0.02821094538068744 0.009990095846378349
    vertex 0.006856319014851069 0.02256890676482244 0.02
  endloop
endfacet
facet normal 0.998718 0.0506101 -5.11981e-17
  outer loop
    vertex 0.005936293670645564 0.0407242896769059 0.00951047348804124
    vertex 0.005435905898386695 0.0505987259270609 0.005369238942025755
    vertex 0.005498662861453204 0.04936030711387501 0.01258186811038971
  endloop
endfacet
facet normal 0.998718 0.0506101 -1.28049e-17
  outer loop
    vertex 0.007204561050871174 0.01569684878310628 0.01043010159022885
    vertex 0.007704895041155977 0.005823473843206559 0.01462722533347077
    vertex 0.007642142844872898 0.00706179859074637 0.00740964261507745
  endloop
endfacet
facet normal 0.998718 0.0506101 1.35072e-16
  outer loop
    vertex 0.006284478522276596 0.0338533601472338 0
    vertex 0.006570408299295344 0.02821094538068744 0.009990095846378349
    vertex 0.006856319014851063 0.02256890676482257 0
  endloop
endfacet
facet normal 0.998718 0.0506101 9.68352e-17
  outer loop
    vertex 0.005936293670645564 0.0407242896769059 0.00951047348804124
    vertex 0.006570408299295344 0.02821094538068744 0.009990095846378349
    vertex 0.006284478522276596 0.0338533601472338 0
  endloop
endfacet
facet normal 0.998718 0.0506101 9.06481e-17
  outer loop
    vertex 0.00571263802970213 0.04513781352964501 0
    vertex 0.005936293670645564 0.0407242896769059 0.00951047348804124
    vertex 0.006284478522276596 0.0338533601472338 0
  endloop
endfacet
facet normal 0.998718 0.0506101 -7.44182e-17
  outer loop
    vertex 0.007428159507425534 0.01128445338241123 0.02
    vertex 0.007204561050871174 0.01569684878310628 0.01043010159022885
    vertex 0.006856319014851069 0.02256890676482244 0.02
  endloop
endfacet
facet normal 0.998718 0.0506101 1.59385e-16
  outer loop
    vertex 0.00571263802970213 0.04513781352964501 0
    vertex 0.005435905898386695 0.0505987259270609 0.005369238942025755
    vertex 0.005936293670645564 0.0407242896769059 0.00951047348804124
  endloop
endfacet
facet normal 0.998718 0.0506101 -8.07331e-17
  outer loop
    vertex 0.007428159507425534 0.01128445338241123 0.02
    vertex 0.007704895041155977 0.005823473843206559 0.01462722533347077
    vertex 0.007204561050871174 0.01569684878310628 0.01043010159022885
  endloop
endfacet
facet normal 0.998718 0.0506101 3.00185e-16
  outer loop
    vertex 0.005140797537127664 0.05642226691205624 0
    vertex 0.005435905898386695 0.0505987259270609 0.005369238942025755
    vertex 0.00571263802970213 0.04513781352964501 0
  endloop
endfacet
facet normal 0.998718 0.0506101 -1.11623e-16
  outer loop
    vertex 0.008 0 0.02
    vertex 0.007704895041155977 0.005823473843206559 0.01462722533347077
    vertex 0.007428159507425534 0.01128445338241123 0.02
  endloop
endfacet
facet normal 0.998718 0.0506101 -9.33449e-17
  outer loop
    vertex 0.005936293670645564 0.0407242896769059 0.00951047348804124
    vertex 0.005498662861453204 0.04936030711387501 0.01258186811038971
    vertex 0.005712638029702133 0.04513781352964496 0.02
  endloop
endfacet
facet normal 0.998718 0.0506101 9.92159e-17
  outer loop
    vertex 0.007204561050871174 0.01569684878310628 0.01043010159022885
    vertex 0.007642142844872898 0.00706179859074637 0.00740964261507745
    vertex 0.007428159507425531 0.01128445338241128 0
  endloop
endfacet
facet normal 0.998718 0.0506101 -0
  outer loop
    vertex 0.008 0 0.01000000000000003
    vertex 0.007704895041155977 0.005823473843206559 0.01462722533347077
    vertex 0.008 0 0.02
  endloop
endfacet
facet normal 0.998718 0.0506101 0
  outer loop
    vertex 0.005140797537127664 0.05642226691205624 0.009999999999999972
    vertex 0.005435905898386695 0.0505987259270609 0.005369238942025755
    vertex 0.005140797537127664 0.05642226691205624 0
  endloop
endfacet
facet normal 0.998718 0.0506101 -9.96788e-17
  outer loop
    vertex 0.005498662861453204 0.04936030711387501 0.01258186811038971
    vertex 0.005435905898386695 0.0505987259270609 0.005369238942025755
    vertex 0.005140797537127664 0.05642226691205624 0.009999999999999972
  endloop
endfacet
facet normal 0.998718 0.0506101 1.107e-18
  outer loop
    vertex 0.007642142844872898 0.00706179859074637 0.00740964261507745
    vertex 0.007704895041155977 0.005823473843206559 0.01462722533347077
    vertex 0.008 0 0.01000000000000003
  endloop
endfacet
endsolid Created by Gmsh
