solid Created by Gmsh
facet normal 0.999877 0.015692 -1.10506e-16
  outer loop
    vertex 0.007838696297262339 0.01027807880310753 0.02
    vertex 0.007766528297888572 0.01487653731358899 0.00918777429352367
    vertex 0.007677392594524676 0.02055615760621509 0.02
  endloop
endfacet
facet normal 0.999877 0.015692 6.46343e-17
  outer loop
    vertex 0.007354785189049353 0.0411123152124301 0
    vertex 0.007426726856834038 0.03652827827980897 0.0106771746627623
    vertex 0.007516088891787016 0.03083423640932255 0
  endloop
endfacet
facet normal 0.999877 0.015692 -5.08092e-17
  outer loop
    vertex 0.007766528297888572 0.01487653731358899 0.00918777429352367
    vertex 0.007596703021224332 0.02569760060407887 0.009977491492714327
    vertex 0.007677392594524676 0.02055615760621509 0.02
  endloop
endfacet
facet normal 0.999877 0.015692 -5.13852e-17
  outer loop
    vertex 0.007677392594524676 0.02055615760621509 0.02
    vertex 0.007596703021224332 0.02569760060407887 0.009977491492714327
    vertex 0.007516088891787015 0.0308342364093226 0.02
  endloop
endfacet
facet normal 0.999877 0.015692 6.44733e-17
  outer loop
    vertex 0.007426726856834038 0.03652827827980897 0.0106771746627623
    vertex 0.007596703021224332 0.02569760060407887 0.009977491492714327
    vertex 0.007516088891787016 0.03083423640932255 0
  endloop
endfacet
facet normal 0.999877 0.015692 -6.85893e-17
  outer loop
    vertex 0.007516088891787015 0.0308342364093226 0.02
    vertex 0.007596703021224332 0.02569760060407887 0.009977491492714327
    vertex 0.007426726856834038 0.03652827827980897 0.0106771746627623
  endloop
endfacet
facet normal 0.999877 0.015692 5.56737e-17
  outer loop
    vertex 0.007354785189049353 0.0411123152124301 0
    vertex 0.007309946315281873 0.04396939456152769 0.007656516115574941
    vertex 0.007426726856834038 0.03652827827980897 0.0106771746627623
  endloop
endfacet
facet normal 0.999877 0.015692 -1.27119e-16
  outer loop
    vertex 0.007838696297262339 0.01027807880310753 0.02
    vertex 0.007886534530983482 0.007229883829015411 0.01240699090564626
    vertex 0.007766528297888572 0.01487653731358899 0.00918777429352367
  endloop
endfacet
facet normal 0.999877 0.015692 5.05848e-17
  outer loop
    vertex 0.007516088891787016 0.03083423640932255 0
    vertex 0.007596703021224332 0.02569760060407887 0.009977491492714327
    vertex 0.007677392594524677 0.02055615760621503 0
  endloop
endfacet
facet normal 0.999877 0.015692 5.55277e-17
  outer loop
    vertex 0.007677392594524677 0.02055615760621503 0
    vertex 0.007596703021224332 0.02569760060407887 0.009977491492714327
    vertex 0.007766528297888572 0.01487653731358899 0.00918777429352367
  endloop
endfacet
facet normal 0.999877 0.015692 -3.42499e-17
  outer loop
    vertex 0.007516088891787015 0.0308342364093226 0.02
    vertex 0.007426726856834038 0.03652827827980897 0.0106771746627623
    vertex 0.007354785189049353 0.04111231521243011 0.02
  endloop
endfacet
facet normal 0.999877 0.015692 1.13229e-16
  outer loop
    vertex 0.007677392594524677 0.02055615760621503 0
    vertex 0.007766528297888572 0.01487653731358899 0.00918777429352367
    vertex 0.007838696297262339 0.01027807880310752 0
  endloop
endfacet
facet normal 0.999877 0.015692 0
  outer loop
    vertex 0.007193481486311691 0.05139039401553763 0.009999999999999972
    vertex 0.007309946315281873 0.04396939456152769 0.007656516115574941
    vertex 0.007193481486311691 0.05139039401553763 0
  endloop
endfacet
facet normal 0.999877 0.015692 -0
  outer loop
    vertex 0.008 0 0.01000000000000003
    vertex 0.007886534530983482 0.007229883829015411 0.01240699090564626
    vertex 0.008 0 0.02
  endloop
endfacet
facet normal 0.999877 0.015692 -8.68182e-17
  outer loop
    vertex 0.008 0 0.02
    vertex 0.007886534530983482 0.007229883829015411 0.01240699090564626
    vertex 0.007838696297262339 0.01027807880310753 0.02
  endloop
endfacet
facet normal 0.999877 0.015692 3.76679e-17
  outer loop
    vertex 0.007193481486311691 0.05139039401553763 0
    vertex 0.007309946315281873 0.04396939456152769 0.007656516115574941
    vertex 0.007354785189049353 0.0411123152124301 0
  endloop
endfacet
facet normal 0.999877 0.015692 1.06251e-16
  outer loop
    vertex 0.007766528297888572 0.01487653731358899 0.00918777429352367
    vertex 0.007904350774770962 0.006094654106974202 0.00594210931416714
    vertex 0.007838696297262339 0.01027807880310752 0
  endloop
endfacet
facet normal 0.999877 0.015692 -1.12194e-17
  outer loop
    vertex 0.007426726856834038 0.03652827827980897 0.0106771746627623
    vertex 0.007289526858449955 0.04527049790182997 0.01404767011119103
    vertex 0.007354785189049353 0.04111231521243011 0.02
  endloop
endfacet
facet normal 0.999877 0.015692 1.49559e-17
  outer loop
    vertex 0.007886534530983482 0.007229883829015411 0.01240699090564626
    vertex 0.007904350774770962 0.006094654106974202 0.00594210931416714
    vertex 0.007766528297888572 0.01487653731358899 0.00918777429352367
  endloop
endfacet
facet normal 0.999877 0.015692 6.68249e-17
  outer loop
    vertex 0.007309946315281873 0.04396939456152769 0.007656516115574941
    vertex 0.007289526858449955 0.04527049790182997 0.01404767011119103
    vertex 0.007426726856834038 0.03652827827980897 0.0106771746627623
  endloop
endfacet
facet normal 0.999877 0.015692 -4.6722e-17
  outer loop
    vertex 0.007354785189049353 0.04111231521243011 0.02
    vertex 0.007289526858449955 0.04527049790182997 0.01404767011119103
    vertex 0.007193481486311691 0.05139039401553763 0.02
  endloop
endfacet
facet normal 0.999877 0.015692 3.46684e-17
  outer loop
    vertex 0.007838696297262339 0.01027807880310752 0
    vertex 0.007904350774770962 0.006094654106974202 0.00594210931416714
    vertex 0.008 0 0
  endloop
endfacet
facet normal 0.999877 0.015692 -0
  outer loop
    vertex 0.008 0 0
    vertex 0.007904350774770962 0.006094654106974202 0.00594210931416714
    vertex 0.008 0 0.01000000000000003
  endloop
endfacet
facet normal 0.999877 0.015692 0
  outer loop
    vertex 0.007193481486311691 0.05139039401553763 0.02
    vertex 0.007289526858449955 0.04527049790182997 0.01404767011119103
    vertex 0.007193481486311691 0.05139039401553763 0.009999999999999972
  endloop
endfacet
facet normal 0.999877 0.015692 7.1564e-17
  outer loop
    vertex 0.007193481486311691 0.05139039401553763 0.009999999999999972
    vertex 0.007289526858449955 0.04527049790182997 0.01404767011119103
    vertex 0.007309946315281873 0.04396939456152769 0.007656516115574941
  endloop
endfacet
facet normal 0.999877 0.015692 2.88674e-17
  outer loop
    vertex 0.008 0 0.01000000000000003
    vertex 0.007904350774770962 0.006094654106974202 0.00594210931416714
    vertex 0.007886534530983482 0.007229883829015411 0.01240699090564626
  endloop
endfacet
endsolid Created by Gmsh
