solid Created by Gmsh
facet normal -0.424151 -0.905592 1.298e-15
  outer loop
    vertex 0.03549108200456408 0.05062396782363788 0
    vertex 0.04224643559672042 0.04745996983466051 0
    vertex 0.04234491013888015 0.04741384741499612 0.007698242657593783
  endloop
endfacet
facet normal -0.424151 -0.905592 1.25191e-15
  outer loop
    vertex 0.04224643559672042 0.04745996983466051 0
    vertex 0.04900178918887678 0.04429597184568314 0
    vertex 0.04234491013888015 0.04741384741499612 0.007698242657593783
  endloop
endfacet
facet normal -0.424151 -0.905592 0
  outer loop
    vertex 0.04900178918887678 0.04429597184568314 0
    vertex 0.04900178918887678 0.04429597184568314 0.01000000000000003
    vertex 0.04234491013888015 0.04741384741499612 0.007698242657593783
  endloop
endfacet
facet normal -0.424151 -0.905592 -0
  outer loop
    vertex 0.03549108200456408 0.05062396782363788 0.009999999999999972
    vertex 0.03549108200456408 0.05062396782363788 0
    vertex 0.04234491013888015 0.04741384741499612 0.007698242657593783
  endloop
endfacet
facet normal -0.424151 -0.905592 -0
  outer loop
    vertex 0.03549108200456408 0.05062396782363788 0.02
    vertex 0.03549108200456408 0.05062396782363788 0.009999999999999972
    vertex 0.04021982951907353 0.04840916923135373 0.01466531471856031
  endloop
endfacet
facet normal -0.424151 -0.905592 0
  outer loop
    vertex 0.04900178918887678 0.04429597184568314 0.01000000000000003
    vertex 0.04900178918887678 0.04429597184568314 0.02
    vertex 0.04486613977400356 0.04623298169324577 0.01462336533945059
  endloop
endfacet
facet normal -0.424151 -0.905592 -1.63895e-15
  outer loop
    vertex 0.04224643559672044 0.04745996983466051 0.02
    vertex 0.03549108200456408 0.05062396782363788 0.02
    vertex 0.04021982951907353 0.04840916923135373 0.01466531471856031
  endloop
endfacet
facet normal -0.424151 -0.905592 -1.94295e-15
  outer loop
    vertex 0.04900178918887678 0.04429597184568314 0.02
    vertex 0.04224643559672044 0.04745996983466051 0.02
    vertex 0.04486613977400356 0.04623298169324577 0.01462336533945059
  endloop
endfacet
facet normal -0.424151 -0.905592 6.65319e-16
  outer loop
    vertex 0.04021982951907353 0.04840916923135373 0.01466531471856031
    vertex 0.04234491013888015 0.04741384741499612 0.007698242657593783
    vertex 0.04486613977400356 0.04623298169324577 0.01462336533945059
  endloop
endfacet
facet normal -0.424151 -0.905592 -1.57289e-15
  outer loop
    vertex 0.04224643559672044 0.04745996983466051 0.02
    vertex 0.04021982951907353 0.04840916923135373 0.01466531471856031
    vertex 0.04486613977400356 0.04623298169324577 0.01462336533945059
  endloop
endfacet
facet normal -0.424151 -0.905592 9.66445e-16
  outer loop
    vertex 0.04021982951907353 0.04840916923135373 0.01466531471856031
    vertex 0.03549108200456408 0.05062396782363788 0.009999999999999972
    vertex 0.04234491013888015 0.04741384741499612 0.007698242657593783
  endloop
endfacet
facet normal -0.424151 -0.905592 1.29442e-15
  outer loop
    vertex 0.04234491013888015 0.04741384741499612 0.007698242657593783
    vertex 0.04900178918887678 0.04429597184568314 0.01000000000000003
    vertex 0.04486613977400356 0.04623298169324577 0.01462336533945059
  endloop
endfacet
facet normal -0.339636 0.940557 6.1682e-16
  outer loop
    vertex 0.04900178918887678 0.04429597184568314 0
    vertex 0.04023969645469232 0.04113197385670578 0
    vertex 0.04192989044579724 0.04174230412266767 0.007665185595541233
  endloop
endfacet
facet normal -0.339636 0.940557 0
  outer loop
    vertex 0.04900178918887678 0.04429597184568314 0.009999999999999972
    vertex 0.04900178918887678 0.04429597184568314 0
    vertex 0.04192989044579724 0.04174230412266767 0.007665185595541233
  endloop
endfacet
facet normal -0.339636 0.940557 0
  outer loop
    vertex 0.03147760372050788 0.03796797586772841 0.01000000000000003
    vertex 0.03147760372050788 0.03796797586772841 0.02
    vertex 0.03798275398468184 0.04031699030734308 0.0131859470034778
  endloop
endfacet
facet normal -0.339636 0.940557 1.01411e-15
  outer loop
    vertex 0.03147760372050788 0.03796797586772841 0.02
    vertex 0.04023969645469234 0.04113197385670578 0.02
    vertex 0.03798275398468184 0.04031699030734308 0.0131859470034778
  endloop
endfacet
facet normal -0.339636 0.940557 0
  outer loop
    vertex 0.04900178918887678 0.04429597184568314 0.02
    vertex 0.04900178918887678 0.04429597184568314 0.009999999999999972
    vertex 0.04369273478331269 0.04237886848097655 0.01421299227197038
  endloop
endfacet
facet normal -0.339636 0.940557 0
  outer loop
    vertex 0.03147760372050788 0.03796797586772841 0
    vertex 0.03147760372050788 0.03796797586772841 0.01000000000000003
    vertex 0.0358586500876001 0.03954997486221709 0.005000000000000015
  endloop
endfacet
facet normal -0.339636 0.940557 5.02775e-16
  outer loop
    vertex 0.04023969645469234 0.04113197385670578 0.02
    vertex 0.04900178918887678 0.04429597184568314 0.02
    vertex 0.04369273478331269 0.04237886848097655 0.01421299227197038
  endloop
endfacet
facet normal -0.339636 0.940557 6.54651e-16
  outer loop
    vertex 0.04023969645469232 0.04113197385670578 0
    vertex 0.03147760372050788 0.03796797586772841 0
    vertex 0.0358586500876001 0.03954997486221709 0.005000000000000015
  endloop
endfacet
facet normal -0.339636 0.940557 -4.11337e-16
  outer loop
    vertex 0.03147760372050788 0.03796797586772841 0.01000000000000003
    vertex 0.03798275398468184 0.04031699030734308 0.0131859470034778
    vertex 0.0358586500876001 0.03954997486221709 0.005000000000000015
  endloop
endfacet
facet normal -0.339636 0.940557 -5.69864e-16
  outer loop
    vertex 0.03798275398468184 0.04031699030734308 0.0131859470034778
    vertex 0.04192989044579724 0.04174230412266767 0.007665185595541233
    vertex 0.0358586500876001 0.03954997486221709 0.005000000000000015
  endloop
endfacet
facet normal -0.339636 0.940557 -9.44172e-17
  outer loop
    vertex 0.04369273478331269 0.04237886848097655 0.01421299227197038
    vertex 0.04900178918887678 0.04429597184568314 0.009999999999999972
    vertex 0.04192989044579724 0.04174230412266767 0.007665185595541233
  endloop
endfacet
facet normal -0.339636 0.940557 8.15021e-16
  outer loop
    vertex 0.04192989044579724 0.04174230412266767 0.007665185595541233
    vertex 0.04023969645469232 0.04113197385670578 0
    vertex 0.0358586500876001 0.03954997486221709 0.005000000000000015
  endloop
endfacet
facet normal -0.339636 0.940557 -2.91109e-16
  outer loop
    vertex 0.04369273478331269 0.04237886848097655 0.01421299227197038
    vertex 0.04192989044579724 0.04174230412266767 0.007665185595541233
    vertex 0.03798275398468184 0.04031699030734308 0.0131859470034778
  endloop
endfacet
facet normal -0.339636 0.940557 1.03423e-15
  outer loop
    vertex 0.04023969645469234 0.04113197385670578 0.02
    vertex 0.04369273478331269 0.04237886848097655 0.01421299227197038
    vertex 0.03798275398468184 0.04031699030734308 0.0131859470034778
  endloop
endfacet
facet normal -0.624235 -0.781237 1.80483e-15
  outer loop
    vertex 0.03939716082319918 0.03163997988977367 0.02
    vertex 0.03147760372050788 0.03796797586772841 0.02
    vertex 0.0354373822718535 0.03480397787875105 0.01499999999999999
  endloop
endfacet
facet normal -0.624235 -0.781237 -1.4706e-15
  outer loop
    vertex 0.03147760372050788 0.03796797586772841 0
    vertex 0.03939716082319918 0.03163997988977367 0
    vertex 0.03543738227185352 0.03480397787875104 0.004999999999999986
  endloop
endfacet
facet normal -0.624235 -0.781237 -0
  outer loop
    vertex 0.03147760372050788 0.03796797586772841 0.02
    vertex 0.03147760372050788 0.03796797586772841 0.009999999999999972
    vertex 0.0354373822718535 0.03480397787875105 0.01499999999999999
  endloop
endfacet
facet normal -0.624235 -0.781237 0
  outer loop
    vertex 0.03939716082319918 0.03163997988977367 0
    vertex 0.03939716082319918 0.03163997988977367 0.01000000000000003
    vertex 0.03543738227185352 0.03480397787875104 0.004999999999999986
  endloop
endfacet
facet normal -0.624235 -0.781237 -2.15266e-16
  outer loop
    vertex 0.03543738227185352 0.03480397787875104 0.004999999999999986
    vertex 0.03939716082319918 0.03163997988977367 0.01000000000000003
    vertex 0.0354373822718535 0.03480397787875105 0.01499999999999999
  endloop
endfacet
facet normal -0.624235 -0.781237 -2.00536e-16
  outer loop
    vertex 0.03147760372050788 0.03796797586772841 0.009999999999999972
    vertex 0.03543738227185352 0.03480397787875104 0.004999999999999986
    vertex 0.0354373822718535 0.03480397787875105 0.01499999999999999
  endloop
endfacet
facet normal -0.624235 -0.781237 -0
  outer loop
    vertex 0.03147760372050788 0.03796797586772841 0.009999999999999972
    vertex 0.03147760372050788 0.03796797586772841 0
    vertex 0.03543738227185352 0.03480397787875104 0.004999999999999986
  endloop
endfacet
facet normal -0.624235 -0.781237 0
  outer loop
    vertex 0.03939716082319918 0.03163997988977367 0.01000000000000003
    vertex 0.03939716082319918 0.03163997988977367 0.02
    vertex 0.0354373822718535 0.03480397787875105 0.01499999999999999
  endloop
endfacet
facet normal -0.918146 0.396243 1.37646e-15
  outer loop
    vertex 0.03939716082319918 0.03163997988977367 0
    vertex 0.03666619503715432 0.02531198391181894 0
    vertex 0.03803167793017675 0.0284759819007963 0.005000000000000001
  endloop
endfacet
facet normal -0.918146 0.396243 1.37646e-15
  outer loop
    vertex 0.03939716082319918 0.03163997988977367 0.009999999999999972
    vertex 0.03666619503715432 0.02531198391181894 0.01000000000000003
    vertex 0.03803167793017675 0.0284759819007963 0.015
  endloop
endfacet
facet normal -0.918146 0.396243 -1.37646e-15
  outer loop
    vertex 0.03666619503715432 0.02531198391181894 0.01000000000000003
    vertex 0.03939716082319918 0.03163997988977367 0.009999999999999972
    vertex 0.03803167793017675 0.0284759819007963 0.005000000000000001
  endloop
endfacet
facet normal -0.918146 0.396243 -1.37646e-15
  outer loop
    vertex 0.03666619503715432 0.02531198391181894 0.02
    vertex 0.03939716082319918 0.03163997988977367 0.02
    vertex 0.03803167793017675 0.0284759819007963 0.015
  endloop
endfacet
facet normal -0.918146 0.396243 0
  outer loop
    vertex 0.03939716082319918 0.03163997988977367 0.009999999999999972
    vertex 0.03939716082319918 0.03163997988977367 0
    vertex 0.03803167793017675 0.0284759819007963 0.005000000000000001
  endloop
endfacet
facet normal -0.918146 0.396243 0
  outer loop
    vertex 0.03939716082319918 0.03163997988977367 0.02
    vertex 0.03939716082319918 0.03163997988977367 0.009999999999999972
    vertex 0.03803167793017675 0.0284759819007963 0.015
  endloop
endfacet
facet normal -0.918146 0.396243 0
  outer loop
    vertex 0.03666619503715432 0.02531198391181894 0
    vertex 0.03666619503715432 0.02531198391181894 0.01000000000000003
    vertex 0.03803167793017675 0.0284759819007963 0.005000000000000001
  endloop
endfacet
facet normal -0.918146 0.396243 0
  outer loop
    vertex 0.03666619503715432 0.02531198391181894 0.01000000000000003
    vertex 0.03666619503715432 0.02531198391181894 0.02
    vertex 0.03803167793017675 0.0284759819007963 0.015
  endloop
endfacet
facet normal -0.614717 -0.788747 -2.63305e-16
  outer loop
    vertex 0.03666619503715432 0.02531198391181894 0
    vertex 0.0447856830222489 0.0189839879338642 0
    vertex 0.04072593902970161 0.02214798592284157 0.004999999999999985
  endloop
endfacet
facet normal -0.614717 -0.788747 7.89916e-16
  outer loop
    vertex 0.0447856830222489 0.0189839879338642 0.02
    vertex 0.03666619503715432 0.02531198391181894 0.02
    vertex 0.04072593902970161 0.02214798592284157 0.01500000000000001
  endloop
endfacet
facet normal -0.614717 -0.788747 -2.96218e-16
  outer loop
    vertex 0.03666619503715432 0.02531198391181894 0.009999999999999972
    vertex 0.04072593902970161 0.02214798592284157 0.004999999999999985
    vertex 0.04072593902970161 0.02214798592284157 0.01500000000000001
  endloop
endfacet
facet normal -0.614717 -0.788747 -2.73652e-16
  outer loop
    vertex 0.04072593902970161 0.02214798592284157 0.004999999999999985
    vertex 0.0447856830222489 0.0189839879338642 0.01000000000000003
    vertex 0.04072593902970161 0.02214798592284157 0.01500000000000001
  endloop
endfacet
facet normal -0.614717 -0.788747 -0
  outer loop
    vertex 0.03666619503715432 0.02531198391181894 0.02
    vertex 0.03666619503715432 0.02531198391181894 0.009999999999999972
    vertex 0.04072593902970161 0.02214798592284157 0.01500000000000001
  endloop
endfacet
facet normal -0.614717 -0.788747 0
  outer loop
    vertex 0.0447856830222489 0.0189839879338642 0
    vertex 0.0447856830222489 0.0189839879338642 0.01000000000000003
    vertex 0.04072593902970161 0.02214798592284157 0.004999999999999985
  endloop
endfacet
facet normal -0.614717 -0.788747 -0
  outer loop
    vertex 0.03666619503715432 0.02531198391181894 0.009999999999999972
    vertex 0.03666619503715432 0.02531198391181894 0
    vertex 0.04072593902970161 0.02214798592284157 0.004999999999999985
  endloop
endfacet
facet normal -0.614717 -0.788747 0
  outer loop
    vertex 0.0447856830222489 0.0189839879338642 0.01000000000000003
    vertex 0.0447856830222489 0.0189839879338642 0.02
    vertex 0.04072593902970161 0.02214798592284157 0.01500000000000001
  endloop
endfacet
facet normal -0.968785 -0.247901 -1.34864e-15
  outer loop
    vertex 0.0447856830222489 0.0189839879338642 0.009999999999999972
    vertex 0.0464049414959659 0.01265599195590947 0.01000000000000003
    vertex 0.04559531225910739 0.01581998994488684 0.015
  endloop
endfacet
facet normal -0.968785 -0.247901 1.34864e-15
  outer loop
    vertex 0.0464049414959659 0.01265599195590947 0.01000000000000003
    vertex 0.0447856830222489 0.0189839879338642 0.009999999999999972
    vertex 0.04559531225910739 0.01581998994488684 0.005
  endloop
endfacet
facet normal -0.968785 -0.247901 1.34864e-15
  outer loop
    vertex 0.0464049414959659 0.01265599195590947 0.02
    vertex 0.0447856830222489 0.0189839879338642 0.02
    vertex 0.04559531225910739 0.01581998994488684 0.015
  endloop
endfacet
facet normal -0.968785 -0.247901 -1.34864e-15
  outer loop
    vertex 0.0447856830222489 0.0189839879338642 0
    vertex 0.0464049414959659 0.01265599195590947 0
    vertex 0.04559531225910739 0.01581998994488684 0.005
  endloop
endfacet
facet normal -0.968785 -0.247901 -0
  outer loop
    vertex 0.0447856830222489 0.0189839879338642 0.009999999999999972
    vertex 0.0447856830222489 0.0189839879338642 0
    vertex 0.04559531225910739 0.01581998994488684 0.005
  endloop
endfacet
facet normal -0.968785 -0.247901 -0
  outer loop
    vertex 0.0447856830222489 0.0189839879338642 0.02
    vertex 0.0447856830222489 0.0189839879338642 0.009999999999999972
    vertex 0.04559531225910739 0.01581998994488684 0.015
  endloop
endfacet
facet normal -0.968785 -0.247901 0
  outer loop
    vertex 0.0464049414959659 0.01265599195590947 0
    vertex 0.0464049414959659 0.01265599195590947 0.01000000000000003
    vertex 0.04559531225910739 0.01581998994488684 0.005
  endloop
endfacet
facet normal -0.968785 -0.247901 0
  outer loop
    vertex 0.0464049414959659 0.01265599195590947 0.01000000000000003
    vertex 0.0464049414959659 0.01265599195590947 0.02
    vertex 0.04559531225910739 0.01581998994488684 0.015
  endloop
endfacet
facet normal -0.7616 0.648048 0
  outer loop
    vertex 0.04102043009960902 0.006327995977954734 0
    vertex 0.04102043009960902 0.006327995977954734 0.01000000000000003
    vertex 0.04371268579778746 0.009491993966932098 0.005
  endloop
endfacet
facet normal -0.7616 0.648048 0
  outer loop
    vertex 0.0464049414959659 0.01265599195590947 0.02
    vertex 0.0464049414959659 0.01265599195590947 0.009999999999999972
    vertex 0.04371268579778746 0.009491993966932098 0.015
  endloop
endfacet
facet normal -0.7616 0.648048 0
  outer loop
    vertex 0.04102043009960902 0.006327995977954734 0.01000000000000003
    vertex 0.04102043009960902 0.006327995977954734 0.02
    vertex 0.04371268579778746 0.009491993966932098 0.015
  endloop
endfacet
facet normal -0.7616 0.648048 0
  outer loop
    vertex 0.0464049414959659 0.01265599195590947 0.009999999999999972
    vertex 0.0464049414959659 0.01265599195590947 0
    vertex 0.04371268579778746 0.009491993966932098 0.005
  endloop
endfacet
facet normal -0.7616 0.648048 -9.78661e-16
  outer loop
    vertex 0.04102043009960902 0.006327995977954734 0.01000000000000003
    vertex 0.0464049414959659 0.01265599195590947 0.009999999999999972
    vertex 0.04371268579778746 0.009491993966932098 0.005
  endloop
endfacet
facet normal -0.7616 0.648048 9.78661e-16
  outer loop
    vertex 0.0464049414959659 0.01265599195590947 0
    vertex 0.04102043009960902 0.006327995977954734 0
    vertex 0.04371268579778746 0.009491993966932098 0.005
  endloop
endfacet
facet normal -0.7616 0.648048 9.78661e-16
  outer loop
    vertex 0.0464049414959659 0.01265599195590947 0.009999999999999972
    vertex 0.04102043009960902 0.006327995977954734 0.01000000000000003
    vertex 0.04371268579778746 0.009491993966932098 0.015
  endloop
endfacet
facet normal -0.7616 0.648048 -9.78661e-16
  outer loop
    vertex 0.04102043009960902 0.006327995977954734 0.02
    vertex 0.0464049414959659 0.01265599195590947 0.02
    vertex 0.04371268579778746 0.009491993966932098 0.015
  endloop
endfacet
endsolid Created by Gmsh
